<svg width="30" height="30" viewBox="0 0 30 30" fill="none" xmlns="http://www.w3.org/2000/svg">
<g clip-path="url(#clip0_295_19244)">
<path d="M15 30C23.2843 30 30 23.2843 30 15C30 6.71573 23.2843 0 15 0C6.71573 0 0 6.71573 0 15C0 23.2843 6.71573 30 15 30Z" fill="#1D70B8"/>
<path d="M12.0603 22.4006L6.10197 16.4422C5.744 16.0843 5.744 15.5039 6.10197 15.1459L7.3983 13.8495C7.75627 13.4915 8.3367 13.4915 8.69467 13.8495L12.7085 17.8633L21.3056 9.26615C21.6636 8.90819 22.244 8.90819 22.602 9.26615L23.8983 10.5625C24.2563 10.9205 24.2563 11.5009 23.8983 11.8589L13.3567 22.4006C12.9987 22.7586 12.4183 22.7586 12.0603 22.4006Z" fill="white"/>
</g>
<defs>
<clipPath id="clip0_295_19244">
<rect width="30" height="30" fill="white"/>
</clipPath>
</defs>
</svg>
