<svg width="14" height="18" viewBox="0 0 14 18" fill="none" xmlns="http://www.w3.org/2000/svg">
<g id="Left icon">
<path id="Union" d="M7.875 4.78125V0H0.84375C0.376172 0 0 0.376172 0 0.84375V17.1562C0 17.6238 0.376172 18 0.84375 18H12.6562C13.1238 18 13.5 17.6238 13.5 17.1562V5.625H8.71875C8.25469 5.625 7.875 5.24531 7.875 4.78125ZM10.5627 12.2119L7.17293 15.5763C6.93914 15.8087 6.56156 15.8087 6.32777 15.5763L2.93801 12.2119C2.58117 11.8579 2.83148 11.25 3.33352 11.25H5.625V8.4375C5.625 8.12672 5.87672 7.875 6.1875 7.875H7.3125C7.62328 7.875 7.875 8.12672 7.875 8.4375V11.25H10.1665C10.6685 11.25 10.9188 11.8579 10.5627 12.2119ZM13.2539 3.69141L9.81211 0.246094C9.65391 0.0878906 9.43945 0 9.21445 0H9V4.5H13.5V4.28555C13.5 4.06406 13.4121 3.84961 13.2539 3.69141Z" fill="#000000"/>
</g>
</svg>
