<svg xmlns="http://www.w3.org/2000/svg" width="22" height="24" viewBox="0 0 22 24" fill="none">
    <path d="M21.7493 14.4193L17.4504 12.5287C16.4107 12.0727 15.5827 11.2353 15.1303 10.19L13.2546 5.85667C13.1091 5.52067 12.6356 5.52067 12.4901 5.85667L10.6144 10.19C10.162 11.238 9.33135 12.0727 8.29431 12.5287L3.99008 14.422C3.65675 14.5687 3.65675 15.0433 3.99008 15.19L8.36839 17.142C9.40542 17.6033 10.2308 18.4433 10.6779 19.494L12.4927 23.7447C12.6356 24.0833 13.1118 24.0833 13.2573 23.7447L15.1303 19.4193C15.5827 18.3713 16.4134 17.5367 17.4504 17.0807L21.7493 15.19C22.0827 15.0433 22.0827 14.566 21.7493 14.4193ZM4.45833 11.598L5.33664 9.56867C5.54828 9.078 5.93717 8.686 6.42394 8.47267L8.43981 7.58733C8.5959 7.518 8.5959 7.294 8.43981 7.22733L6.42394 6.342C5.93717 6.12867 5.54828 5.73667 5.33664 5.246L4.45833 3.214C4.38955 3.05667 4.16733 3.05667 4.10119 3.214L3.22288 5.246C3.01124 5.73667 2.62235 6.12867 2.13558 6.342L0.117063 7.23C-0.0390212 7.29933 -0.0390212 7.52067 0.117063 7.59L2.16997 8.50467C2.65675 8.72067 3.04299 9.11533 3.25198 9.606L4.10384 11.598C4.17262 11.7553 4.39484 11.758 4.46098 11.598H4.45833ZM8.32341 2.382L9.41336 2.86733C9.67262 2.982 9.87632 3.19267 9.98743 3.45133L10.4398 4.51C10.4769 4.59533 10.5933 4.59533 10.6303 4.51L11.0959 3.43267C11.2097 3.17133 11.416 2.96333 11.6726 2.85133L12.7414 2.382C12.8234 2.34467 12.8234 2.22733 12.7414 2.19L11.6726 1.72067C11.4134 1.606 11.207 1.398 11.0959 1.13933L10.6303 0.062C10.5933 -0.0206667 10.4769 -0.0206667 10.4398 0.062L9.97421 1.13933C9.86045 1.40067 9.6541 1.60867 9.39749 1.72067L8.32606 2.19267C8.24405 2.23 8.24405 2.34733 8.32606 2.38467H8.32341V2.382Z" fill="#A24A94"/>
</svg>