<svg width="15" height="14" viewBox="0 0 15 14" fill="none" xmlns="http://www.w3.org/2000/svg">
<path id="Union" fill-rule="evenodd" clip-rule="evenodd" d="M13.5003 7.32143C13.5003 7.67647 13.7881 7.96429 14.1431 7.96429C14.4982 7.96429 14.786 7.67647 14.786 7.32143V0.904251L14.7861 0.892954C14.7861 0.714022 14.713 0.552164 14.595 0.435618C14.4789 0.320854 14.3193 0.25 14.1431 0.25L14.1319 0.250097H7.71466C7.35962 0.250097 7.0718 0.537914 7.0718 0.892954C7.0718 1.24799 7.35962 1.53581 7.71466 1.53581L12.5911 1.53581L5.33142 8.79553C5.08037 9.04658 5.08037 9.45362 5.33142 9.70467C5.58248 9.95572 5.98951 9.95572 6.24056 9.70467L13.5003 2.44495V7.32143ZM5.78571 2.82153H0V13.7501H10.9286V10.5358C10.9286 10.1808 10.6408 9.89295 10.2857 9.89295C9.93067 9.89295 9.64286 10.1808 9.64286 10.5358V12.4644H1.28571V4.10724H5.78571C6.14075 4.10724 6.42857 3.81942 6.42857 3.46438C6.42857 3.10934 6.14075 2.82153 5.78571 2.82153Z" fill="#1D70B8"/>
</svg>
