<svg xmlns="http://www.w3.org/2000/svg" width="36" height="36" viewBox="0 0 36 36">
    <g fill="none" fill-rule="evenodd">
        <rect width="36" height="36" fill="#006CCC" rx="18"/>
        <path fill="#FFF" d="M19.012 26h-7.184a.828.828 0 0 1-.828-.828V11.828c0-.457.37-.828.828-.828h13.344c.457 0 .828.37.828.828v13.344c0 .457-.37.828-.828.828H21.35v-5.809h1.95l.291-2.264H21.35v-1.445c0-.655.182-1.102 1.122-1.102h1.198v-2.025c-.207-.028-.919-.09-1.746-.09-1.729 0-2.912 1.055-2.912 2.993v1.67h-1.955v2.263h1.955V26z"/>
    </g>
</svg>
