<svg width="18" height="18" viewBox="0 0 18 18" fill="none" xmlns="http://www.w3.org/2000/svg">
<g id="fa-icon-arrow-right">
<path id="Vector" d="M7.65316 1.17509L8.54503 0.283227C8.92267 -0.0944091 9.53331 -0.0944091 9.90693 0.283227L17.7168 8.08905C18.0944 8.46669 18.0944 9.07734 17.7168 9.45096L9.90693 17.2608C9.52929 17.6384 8.91865 17.6384 8.54503 17.2608L7.65316 16.3689C7.27151 15.9873 7.27954 15.3646 7.66923 14.991L12.5102 10.379H0.964178C0.429863 10.379 0 9.94911 0 9.4148L0 8.12923C0 7.59491 0.429863 7.16505 0.964178 7.16505H12.5102L7.66923 2.55306C7.27553 2.17944 7.26749 1.55675 7.65316 1.17509Z" fill="#04043F"/>
</g>
</svg>
