<svg width="19" height="17" viewBox="0 0 19 17" fill="none" xmlns="http://www.w3.org/2000/svg">
<path d="M4.75 12.5C5.42652 12.5 6.08504 12.5875 6.72557 12.7625C7.3661 12.9375 8.00303 13.2 8.63636 13.55V3.7C8.04621 3.3 7.42008 3 6.75795 2.8C6.09583 2.6 5.42652 2.5 4.75 2.5C4.23182 2.5 3.71723 2.55833 3.20625 2.675C2.69527 2.79167 2.20227 2.96667 1.72727 3.2V13.1C2.23106 12.9 2.73125 12.75 3.22784 12.65C3.72443 12.55 4.23182 12.5 4.75 12.5ZM10.3636 13.55C10.997 13.2 11.6339 12.9375 12.2744 12.7625C12.915 12.5875 13.5735 12.5 14.25 12.5C14.7682 12.5 15.2756 12.55 15.7722 12.65C16.2687 12.75 16.7689 12.9 17.2727 13.1V3.2C16.7977 2.96667 16.3047 2.79167 15.7937 2.675C15.2828 2.55833 14.7682 2.5 14.25 2.5C13.5735 2.5 12.9042 2.6 12.242 2.8C11.5799 3 10.9538 3.3 10.3636 3.7V13.55ZM9.5 16.5C8.80909 15.8667 8.06061 15.375 7.25455 15.025C6.44848 14.675 5.61364 14.5 4.75 14.5C4.14545 14.5 3.5517 14.5917 2.96875 14.775C2.3858 14.9583 1.82803 15.2167 1.29545 15.55C0.993182 15.7333 0.701705 15.725 0.421023 15.525C0.140341 15.325 0 15.0333 0 14.65V2.6C0 2.41667 0.0395833 2.24167 0.11875 2.075C0.197917 1.90833 0.316667 1.78333 0.475 1.7C1.13712 1.3 1.82803 1 2.54773 0.8C3.26742 0.6 4.00151 0.5 4.75 0.5C5.58485 0.5 6.4017 0.625 7.20057 0.875C7.99943 1.125 8.76591 1.5 9.5 2C10.2341 1.5 11.0006 1.125 11.7994 0.875C12.5983 0.625 13.4152 0.5 14.25 0.5C14.9985 0.5 15.7326 0.6 16.4523 0.8C17.172 1 17.8629 1.3 18.525 1.7C18.6833 1.78333 18.8021 1.90833 18.8813 2.075C18.9604 2.24167 19 2.41667 19 2.6V14.65C19 15.0333 18.8597 15.325 18.579 15.525C18.2983 15.725 18.0068 15.7333 17.7045 15.55C17.172 15.2167 16.6142 14.9583 16.0312 14.775C15.4483 14.5917 14.8545 14.5 14.25 14.5C13.3864 14.5 12.5515 14.675 11.7455 15.025C10.9394 15.375 10.1909 15.8667 9.5 16.5Z" fill="#A24A94"/>
</svg>
