<svg width="17" height="17" viewBox="0 0 17 17" fill="none" xmlns="http://www.w3.org/2000/svg">
<path d="M7.1177 16.0615C6.73876 16.0615 6.37735 15.9808 6.03349 15.8194C5.68963 15.658 5.39841 15.4299 5.15981 15.1352L0.191388 9.00889C0.0510367 8.84047 -0.0121212 8.651 0.00191388 8.44047C0.015949 8.22995 0.100159 8.04749 0.254545 7.8931C0.521212 7.62644 0.837002 7.47205 1.20191 7.42994C1.56683 7.38784 1.89665 7.47205 2.19139 7.68258L4.63349 9.38784V0.903629C4.63349 0.665032 4.71419 0.465032 4.8756 0.303629C5.037 0.142225 5.237 0.0615234 5.4756 0.0615234C5.71419 0.0615234 5.9142 0.142225 6.0756 0.303629C6.237 0.465032 6.3177 0.665032 6.3177 0.903629V11.0089C6.3177 11.3457 6.16683 11.5949 5.86507 11.7563C5.56332 11.9177 5.27209 11.9001 4.99139 11.7036L3.98086 10.9878L6.46507 14.0615C6.54928 14.1598 6.64753 14.237 6.75981 14.2931C6.87209 14.3492 6.99139 14.3773 7.1177 14.3773H13.0545C13.5177 14.3773 13.9142 14.2124 14.244 13.8826C14.5738 13.5528 14.7388 13.1563 14.7388 12.6931V6.79837C14.7388 6.55977 14.8195 6.35977 14.9809 6.19837C15.1423 6.03696 15.3423 5.95626 15.5809 5.95626C15.8195 5.95626 16.0195 6.03696 16.1809 6.19837C16.3423 6.35977 16.423 6.55977 16.423 6.79837V12.6931C16.423 13.6194 16.0931 14.4124 15.4335 15.0721C14.7738 15.7317 13.9809 16.0615 13.0545 16.0615H7.1177ZM8.84402 3.42994C9.08262 3.42994 9.28262 3.51065 9.44402 3.67205C9.60542 3.83345 9.68612 4.03345 9.68612 4.27205V8.48258C9.68612 8.72117 9.60542 8.92117 9.44402 9.08258C9.28262 9.24398 9.08262 9.32468 8.84402 9.32468C8.60542 9.32468 8.40542 9.24398 8.24402 9.08258C8.08262 8.92117 8.00191 8.72117 8.00191 8.48258V4.27205C8.00191 4.03345 8.08262 3.83345 8.24402 3.67205C8.40542 3.51065 8.60542 3.42994 8.84402 3.42994ZM12.2124 4.27205C12.451 4.27205 12.651 4.35275 12.8124 4.51416C12.9738 4.67556 13.0545 4.87556 13.0545 5.11416V8.48258C13.0545 8.72117 12.9738 8.92117 12.8124 9.08258C12.651 9.24398 12.451 9.32468 12.2124 9.32468C11.9738 9.32468 11.7738 9.24398 11.6124 9.08258C11.451 8.92117 11.3703 8.72117 11.3703 8.48258V5.11416C11.3703 4.87556 11.451 4.67556 11.6124 4.51416C11.7738 4.35275 11.9738 4.27205 12.2124 4.27205Z" fill="#004F59"/>
</svg>
