<svg xmlns="http://www.w3.org/2000/svg" width="36" height="36" viewBox="0 0 36 36">
    <g fill="none" fill-rule="evenodd">
        <rect width="36" height="36" fill="#006CCC" rx="18"/>
        <path fill="#FFF" d="M24.233 13.976a3.149 3.149 0 0 0 1.353-1.745 6.061 6.061 0 0 1-1.955.765A3.035 3.035 0 0 0 21.385 12c-1.699 0-3.076 1.413-3.076 3.155 0 .248.026.488.079.72-2.558-.133-4.825-1.388-6.344-3.299a3.213 3.213 0 0 0-.416 1.588c0 1.094.543 2.06 1.369 2.627a3.021 3.021 0 0 1-1.395-.394v.039c0 1.53 1.061 2.805 2.47 3.094-.258.074-.53.11-.811.11a2.99 2.99 0 0 1-.58-.055c.392 1.253 1.528 2.166 2.875 2.19A6.077 6.077 0 0 1 11 23.083a8.568 8.568 0 0 0 4.717 1.417c5.662 0 8.756-4.808 8.756-8.978 0-.137-.002-.274-.008-.409.602-.445 1.124-1 1.535-1.633a6.01 6.01 0 0 1-1.767.496z"/>
    </g>
</svg>
