<?xml version="1.0" encoding="UTF-8"?>
<svg version="1.1" viewBox="0 0 220 152" xmlns="http://www.w3.org/2000/svg" xmlns:xlink="http://www.w3.org/1999/xlink">
<title>apples-oranges-with-hs6-outlines</title>
<defs>
<path id="g" d="m71.033 19.728 5.7897-13.794c-3.2519-1.418-6.9071-2.5351-10.821-3.3965-7.2467-1.5894-15.376-2.2938-23.425-2.2946-19.21 0.03402-32.959 3.7042-42.568 10.063l15.212 12.351 55.812-2.9281"/>
<radialGradient id="b" cx="42.736%" cy="82.852%" r="101.24%" gradientTransform="translate(.42736 .82852) scale(.29179 1) translate(-.42736 -.82852)">
<stop stop-color="#AC2430" offset="0"/>
<stop stop-color="#D8232A" offset="1"/>
</radialGradient>
<path id="d" d="m0.3016 6.9748c-0.15413-0.21449-0.10748-0.51451 0.10498-0.67096l8.4325-6.1931c0.2119-0.15645 0.50988-0.10907 0.66457 0.1057 0.15413 0.21449 0.10748 0.51479-0.10498 0.67068l-8.4322 6.194c-0.084147 0.061685-0.18218 0.091966-0.2791 0.091966-0.14719 0-0.29243-0.068975-0.38575-0.19823"/>
<linearGradient id="m" x1="90.396%" x2="7.8396%" y1="27.238%" y2="73.754%">
<stop stop-color="#0D5D36" offset="0"/>
<stop stop-color="#4A301A" offset="1"/>
</linearGradient>
<path id="c" d="m124.55 60.246c0 34.032-28.982 60.379-62.95 60.379-33.968 0-61.47-25.521-61.47-59.553 0-27.487 12.091-52.577 41.863-59.757 11.145-2.6881 13.767 0.46028 17.956 1.0335 5.9803 0.81887 14.302-0.96284 19.814 0.41372 25.504 6.3706 44.787 29.5 44.787 57.483"/>
<radialGradient id="a" cx="48.078%" cy="10.68%" r="20.67%" gradientTransform="translate(.48078 .1068) scale(.96754 1) rotate(94.281) translate(-.48078 -.1068)">
<stop stop-color="#E5702A" offset="0"/>
<stop stop-color="#EB8B2D" offset="1"/>
</radialGradient>
<path id="f" d="m4.8272 29.827 5.509-0.52083c-0.059494-0.65961-1.7598-19.445-5.1573-28.464-0.80739-1.6964-5.6944-0.53811-4.8957 3.1128 3.2122 8.9988 4.53 25.716 4.544 25.872"/>
<linearGradient id="o" x1="48.321%" x2="50.824%" y1="2.6795%" y2="80.048%">
<stop stop-color="#66462B" offset="0"/>
<stop stop-color="#51341D" offset="1"/>
</linearGradient>
<path id="e" d="m97.819 50.427c0-21.261-11.094-39.722-27.579-50.184 17.747 29.74 0.41661 100.28-70.039 100.57 9.8688 6.4156 21.81 10.09 34.68 10.09 33.962 0 62.938-26.39 62.938-60.478"/>
<linearGradient id="n" x1="51.37%" x2="49.396%" y1="5.5774%" y2="96.163%">
<stop stop-color="#EB8B2D" offset="0"/>
<stop stop-color="#E7792B" offset="1"/>
</linearGradient>
</defs>
<g fill="none" fill-rule="evenodd">
<path d="m44.593 143.88c-0.35546-0.011225-0.96678 0.19082-1.5827 0.50272-0.64219 0.30574-1.1837 0.67938-1.94 0.92018-0.43574 0.12588-0.88704 0.17719-1.3491 0.17719-1.432-0.00775-2.9948-0.47492-4.7585-1.2748-1.7588-0.80419-3.702-1.9638-5.7639-3.4463-4.1214-2.9674-8.7134-7.2337-13.03-12.555-8.6229-10.635-16.196-29.625-16.169-42.544 0.064771-31.648 13.852-55.203 62.581-55.289 8.0867 0 16.256 0.71465 23.538 2.3254 7.2794 1.6164 13.684 4.1094 18.237 7.8128 13.569 11.043 18.783 24.966 18.764 38.824-0.017502 18.344-8.9199 36.61-19.122 49.187-4.6986 5.7814-9.3647 10.054-13.516 12.908-4.1662 2.8431-7.7565 4.3216-10.643 4.3473-0.6983-8.02e-4 -1.3644-0.093007-1.9862-0.31136-1.4033-0.50913-2.6466-1.4371-3.9648-2.1913-1.3069-0.7657-2.6002-1.3227-3.7732-1.3133-1.0409 0.01363-2.1102 0.35278-3.4786 1.6931-3.259 3.2419-6.478 4.9694-9.7054 4.9785h-0.017988c-1.9569 0-3.8252-0.67269-5.4909-1.8636-1.163-0.8416-3.9307-2.1317-5.6689-2.6408-0.56836-0.17612-1.0581-0.25497-1.1593-0.24668" fill="#D8232A"/>
<g transform="translate(20.25 30.375)">
<mask id="j" fill="white">
<use xlink:href="#g"/>
</mask>
<path d="m71.033 19.728 5.7897-13.794c-3.2519-1.418-6.9071-2.5351-10.821-3.3965-7.2467-1.5894-15.376-2.2938-23.425-2.2946-19.21 0.03402-32.959 3.7042-42.568 10.063l15.212 12.351 55.812-2.9281" fill="url(#b)" mask="url(#j)"/>
</g>
<path d="m58.457 43.57c-5.252e-4 -0.0015854-0.34849-0.67986-0.95829-1.8147-0.6098-1.1357-1.4796-2.7234-2.5148-4.5294-2.0707-3.6118-4.8109-8.1013-7.4565-11.578-1.64-2.1625-3.2672-3.9323-4.58-4.8243-0.20274 0.058923-0.4735 0.11098-0.80019 0.11177-0.84536 0.0095123-2.0216-0.39159-3.1086-1.7204-0.23977-0.29012-0.20327-0.71897 0.082199-0.96338 0.016808-0.014533 0.65234-0.55937 1.5736-1.1372 0.92599-0.5747 2.1201-1.2001 3.3665-1.3169 0.21377-0.018496 0.42203 0.063944 0.56594 0.22407 0.031252 0.036728 9.554 10.628 16.074 26.792 0.40312 1.2326-1.7669 1.8686-2.2435 0.75702" fill="#4A301A"/>
<g transform="translate(53.46 24.705)">
<mask id="i" fill="white">
<use xlink:href="#d"/>
</mask>
<path d="m0.3016 6.9748c-0.15413-0.21449-0.10748-0.51451 0.10498-0.67096l8.4325-6.1931c0.2119-0.15645 0.50988-0.10907 0.66457 0.1057 0.15413 0.21449 0.10748 0.51479-0.10498 0.67068l-8.4322 6.194c-0.084147 0.061685-0.18218 0.091966-0.2791 0.091966-0.14719 0-0.29243-0.068975-0.38575-0.19823" fill="url(#m)" mask="url(#i)"/>
</g>
<path d="m60.75 26.325 45.36-25.11s-44.393 1.0199-45.36 25.11" fill="#84BF41"/>
<path d="m106.11 0.405-45.36 25.183s26.197 10.903 45.36-25.183" fill="#3AAB47"/>
<path d="m35.293 144.21c1.757 0.80002 3.314 1.2673 4.7407 1.275 0.46032 0 0.90994-0.051322 1.344-0.17722 0.75347-0.24084 1.293-0.61452 1.9327-0.92031 0.61358-0.31194 1.2226-0.51402 1.5767-0.50279 0.10084-0.008287 0.5887 0.070567 1.1549 0.24672 1.7316 0.5092 4.489 1.7995 5.6477 2.6412 1.6594 1.1911 3.5207 1.8639 5.4703 1.8639h0.01792c3.2153-0.009088 6.4223-1.7369 9.6691-4.9792 1.3633-1.3405 2.4286-1.6797 3.4656-1.6933 1.1686-0.009355 2.457 0.5477 3.759 1.3135 1.3133 0.75432 2.5519 1.6824 3.95 2.1916 0.61946 0.21838 1.2831 0.3106 1.9788 0.3114 2.8756-0.025661 6.4525-1.5044 10.603-4.3479 4.1359-2.8542 8.7846-7.1278 13.466-12.91 10.164-12.579 19.034-30.847 19.051-49.194 0.017871-13.356-4.8089-26.772-17.256-37.612 1.1477 22.683-4.0492 77.472-76.704 98.758 0.12999 0.096762 0.26105 0.19459 0.39051 0.28895 2.0542 1.4827 3.9901 2.6425 5.7423 3.4468" fill="#C4232A"/>
<path d="m75.863 138.19c-2.0436-0.62143-5.8979 2.1705-7.8229 3.7166 0.84962-0.57162 1.5932-0.74528 2.322-0.75536 1.1728-0.009527 2.4659 0.55774 3.7727 1.3376 1.2104 0.70473 2.3591 1.5554 3.6253 2.0924-0.0072479-2.7568-0.35971-5.9236-1.8971-6.3913" fill="#AC252A"/>
<path d="m37.846 143.23c-0.60737 0.32635-0.67431 1.0282-0.5058 1.8034 0.79281 0.22747 1.543 0.3535 2.2584 0.35785 0.44142 0 0.87257-0.049183 1.2889-0.16983 0.72253-0.2308 1.2399-0.58891 1.8534-0.88196 0.58839-0.29894 1.1724-0.49259 1.512-0.48184 0.096696-0.007685 0.56453 0.067626 1.1075 0.23643 0 0-5.7787-1.7975-7.5143-0.86402" fill="#AC252A"/>
<path d="m94.573 48.988c5.7139-18.512-14.745-11.73-14.745-11.73-28.569 11.364-44.789 1.4663-44.789 1.4663s-13.639-5.1318-7.5569 16.862c0 0 38.522 21.811 67.09-6.5982" fill="#D8232A"/>
<path d="m15.41 78.165c-0.1325 0-0.26606-0.0064607-0.40068-0.019651-2.2342-0.22209-3.8682-2.2421-3.6495-4.5115 1.348-13.992 9.7561-22.323 10.114-22.671 1.6205-1.5775 4.1933-1.522 5.7467 0.12437 1.5492 1.6424 1.4988 4.2471-0.10997 5.8259-0.14548 0.14617-6.6218 6.7498-7.6598 17.525-0.20564 2.1328-1.974 3.727-4.0404 3.727" fill="#E88374"/>
<path d="m118.26 130c0.64823-0.74387 1.2983-1.5161 1.9492-2.3177 10.196-12.578 19.093-30.846 19.11-49.192v-0.039559-0.020314-0.019512-0.023522-0.01577-0.027531-0.011761c0-0.010959 0-0.020314-2.69e-4 -0.031273v-0.0074841-0.032342-0.0072168-0.032877-0.0061477c-2.68e-4 -0.010959-2.68e-4 -0.02272-2.68e-4 -0.033946v-0.0050785c0-0.012028 0-0.024323-2.68e-4 -0.036351v-0.0021384-0.037688l-2.69e-4 -0.0013365c-0.004293-0.79011-0.026025-1.5783-0.065198-2.3682 0.04588 0.91974 0.067613 1.8398 0.066578 2.76-0.017478 18.347-8.9145 36.614-19.111 49.192-0.65091 0.8016-1.301 1.5738-1.9492 2.3177" fill="#7F2627"/>
<path d="m100.44 57.915c2.5954-3.5902 4.6269-5.2871 4.6269-5.2871 0.86281-0.17616 1.7519-0.30278 2.6631-0.38288-2.3806 2.2301-4.8208 4.1057-7.29 5.67" fill="#AF2127"/>
<path d="m158.76 25.515 50.22-22.61s-46.737-10.889-50.22 22.61" fill="#84BF41"/>
<path d="m208.98 2.835-50.22 22.143s28.451 19.572 50.22-22.143" fill="#3AAB47"/>
<g transform="translate(94.77 30.375)">
<mask id="h" fill="white">
<use xlink:href="#c"/>
</mask>
<path d="m124.55 60.246c0 34.032-28.982 60.379-62.95 60.379-33.968 0-61.47-25.521-61.47-59.553 0-27.487 12.091-52.577 41.863-59.757 11.145-2.6881 13.767 0.46028 17.956 1.0335 5.9803 0.81887 14.302-0.96284 19.814 0.41372 25.504 6.3706 44.787 29.5 44.787 57.483" fill="url(#a)" mask="url(#h)"/>
</g>
<g transform="translate(151.47 14.175)">
<mask id="l" fill="white">
<use xlink:href="#f"/>
</mask>
<path d="m4.8272 29.827 5.509-0.52083c-0.059494-0.65961-1.7598-19.445-5.1573-28.464-0.80739-1.6964-5.6944-0.53811-4.8957 3.1128 3.2122 8.9988 4.53 25.716 4.544 25.872" fill="url(#o)" mask="url(#l)"/>
</g>
<path d="m128.4 36.942s16.091-1.0233 23.754 3.9668c0 0 5.3345-0.69164 7.8097 0.74117 0 0 8.871-6.55 22.899-2.0471l10.728 18.626-41.879 8.5966-35.071-13.714 11.759-16.17" fill="#EB8B2D"/>
<g transform="translate(121.5 40.095)">
<mask id="k" fill="white">
<use xlink:href="#e"/>
</mask>
<path d="m97.819 50.427c0-21.261-11.094-39.722-27.579-50.184 17.747 29.74 0.41661 100.28-70.039 100.57 9.8688 6.4156 21.81 10.09 34.68 10.09 33.962 0 62.938-26.39 62.938-60.478" fill="url(#n)" mask="url(#k)"/>
</g>
<path d="m110.99 80.595c-0.1325 0-0.26606-0.0064607-0.40068-0.019651-2.2342-0.22209-3.868-2.2421-3.6494-4.5117 1.3481-13.992 9.7561-22.323 10.113-22.671 1.621-1.5778 4.1939-1.522 5.7471 0.12437 1.5489 1.6418 1.4986 4.2457-0.10892 5.8248-0.10547 0.10499-6.6195 6.7162-7.661 17.526-0.20538 2.1328-1.974 3.7267-4.0405 3.7267" fill="#F4B452"/>
<g transform="translate(14.465 77.595)" fill="#fff" fill-rule="nonzero">
<path id="p" d="m3.721 17.2v-4.496h4.992v4.496h1.808v-10.368h-1.808v4.32h-4.992v-4.32h-1.808v10.368h1.808zm11.84 0.16c1.1093 0 1.968-0.26133 2.576-0.784s0.912-1.2747 0.912-2.256c0-0.61867-0.12533-1.1253-0.376-1.52s-0.54667-0.70133-0.888-0.92-0.78933-0.456-1.344-0.712c-0.416-0.18133-0.736-0.336-0.96-0.464s-0.41067-0.288-0.56-0.48-0.224-0.42667-0.224-0.704c0-0.39467 0.13867-0.704 0.416-0.928s0.66133-0.336 1.152-0.336c0.384 0 0.784 0.069333 1.2 0.208s0.78933 0.31467 1.12 0.528v-1.824c-0.24533-0.128-0.59467-0.24267-1.048-0.344s-0.91467-0.152-1.384-0.152c-1.024 0-1.8267 0.264-2.408 0.792s-0.872 1.2453-0.872 2.152c0 0.59733 0.12 1.0933 0.36 1.488s0.53067 0.70133 0.872 0.92 0.784 0.45067 1.328 0.696c0.40533 0.192 0.72533 0.35467 0.96 0.488s0.42933 0.304 0.584 0.512 0.232 0.456 0.232 0.744c0 0.416-0.14133 0.736-0.424 0.96s-0.70667 0.336-1.272 0.336c-0.50133 0-0.992-0.08-1.472-0.24s-0.90133-0.36267-1.264-0.608v1.824c0.352 0.17067 0.76533 0.31733 1.24 0.44s0.98933 0.184 1.544 0.184zm9.088 0c0.768 0 1.4373-0.152 2.008-0.456s1.0053-0.736 1.304-1.296 0.448-1.2027 0.448-1.928c0-0.736-0.15467-1.3627-0.464-1.88s-0.72-0.904-1.232-1.16-1.0613-0.384-1.648-0.384c-0.384 0-0.744 0.050667-1.08 0.152s-0.616 0.24267-0.84 0.424c0.32-0.704 0.87733-1.4293 1.672-2.176s1.6133-1.3547 2.456-1.824h-2.736c-0.71467 0.42667-1.352 0.984-1.912 1.672s-0.99733 1.4453-1.312 2.272c-0.31467 0.82667-0.472 1.6613-0.472 2.504 0 1.28 0.34133 2.28 1.024 3s1.6107 1.08 2.784 1.08zm-0.016-1.616c-0.576 0-1.0453-0.18133-1.408-0.544s-0.544-0.832-0.544-1.408c0-0.59733 0.18667-1.0747 0.56-1.432s0.83733-0.536 1.392-0.536 1.016 0.18133 1.384 0.544 0.552 0.83733 0.552 1.424c0 0.576-0.17867 1.0453-0.536 1.408s-0.824 0.544-1.4 0.544zm14.016 1.616c0.66133 0 1.272-0.074667 1.832-0.224s0.96267-0.31467 1.208-0.496v-1.824c-0.36267 0.24533-0.792 0.45067-1.288 0.616s-1.016 0.248-1.56 0.248c-0.704 0-1.3387-0.14667-1.904-0.44s-1.008-0.71733-1.328-1.272-0.48-1.2107-0.48-1.968c0-0.71467 0.14667-1.3493 0.44-1.904 0.29333-0.55467 0.70933-0.98667 1.248-1.296s1.1653-0.464 1.88-0.464c0.50133 0 0.99467 0.074667 1.48 0.224s0.936 0.368 1.352 0.656v-1.808c-0.24533-0.192-0.63467-0.36267-1.168-0.512s-1.12-0.224-1.76-0.224c-1.0773 0-2.016 0.22933-2.816 0.688s-1.416 1.0933-1.848 1.904c-0.432 0.81067-0.648 1.7333-0.648 2.768 0 1.024 0.21067 1.9387 0.632 2.744s1.0373 1.4373 1.848 1.896 1.7707 0.688 2.88 0.688zm8.496-0.016c0.768 0 1.4453-0.15733 2.032-0.472s1.0453-0.76 1.376-1.336 0.496-1.2427 0.496-2c0-1.1413-0.34933-2.04-1.048-2.696s-1.64-0.984-2.824-0.984c-0.78933 0-1.48 0.16267-2.072 0.488s-1.048 0.77333-1.368 1.344-0.48 1.2187-0.48 1.944 0.16 1.368 0.48 1.928 0.77333 0.99733 1.36 1.312 1.2693 0.472 2.048 0.472zm0.016-1.504c-0.61867 0-1.1227-0.208-1.512-0.624s-0.584-0.95467-0.584-1.616c0-0.62933 0.18933-1.1627 0.568-1.6s0.888-0.656 1.528-0.656c0.61867 0 1.12 0.20533 1.504 0.616s0.576 0.94667 0.576 1.608c0 0.672-0.18933 1.2187-0.568 1.64s-0.88267 0.632-1.512 0.632zm8.688 1.504c0.56533 0 1.0613-0.098667 1.488-0.296s0.74133-0.46133 0.944-0.792l0.032 0.944h1.6v-10.608h-1.744v4.192c-0.26667-0.30933-0.608-0.54133-1.024-0.696-0.416-0.15467-0.87467-0.232-1.376-0.232-0.704 0-1.32 0.16-1.848 0.48s-0.936 0.76533-1.224 1.336-0.432 1.224-0.432 1.96c0 0.768 0.15467 1.432 0.464 1.992s0.736 0.98667 1.28 1.28 1.1573 0.44 1.84 0.44zm0.32-1.504c-0.61867 0-1.1227-0.208-1.512-0.624s-0.584-0.95467-0.584-1.616c0-0.62933 0.18933-1.1627 0.568-1.6s0.888-0.656 1.528-0.656c0.61867 0 1.12 0.20533 1.504 0.616s0.576 0.94667 0.576 1.608c0 0.672-0.18933 1.2187-0.568 1.64s-0.88267 0.632-1.512 0.632zm9.376 1.504c0.59733 0 1.1413-0.061333 1.632-0.184s0.88-0.264 1.168-0.424v-1.536c-0.768 0.448-1.6053 0.672-2.512 0.672-1.472 0-2.2773-0.55467-2.416-1.664h5.184c0.032-0.24533 0.048-0.49067 0.048-0.736 0-1.0667-0.29067-1.936-0.872-2.608s-1.4427-1.008-2.584-1.008c-0.74667 0-1.3893 0.16267-1.928 0.488s-0.94933 0.77333-1.232 1.344-0.424 1.2293-0.424 1.976c0 1.1947 0.34667 2.1067 1.04 2.736s1.6587 0.944 2.896 0.944zm1.328-4.368h-3.44c0.042667-0.50133 0.22667-0.90667 0.552-1.216s0.728-0.464 1.208-0.464c0.49067 0 0.89333 0.152 1.208 0.456s0.472 0.712 0.472 1.224z"/>
<path d="m12.853 33.56c0.832 0 1.5413-0.23733 2.128-0.712s1.0267-1.1173 1.32-1.928 0.44-1.7173 0.44-2.72c0-0.992-0.14667-1.8907-0.44-2.696s-0.73067-1.4453-1.312-1.92-1.2933-0.712-2.136-0.712-1.5573 0.23733-2.144 0.712-1.0267 1.1147-1.32 1.92-0.44 1.704-0.44 2.696c0 1.0027 0.14667 1.9093 0.44 2.72s0.73333 1.4533 1.32 1.928 1.3013 0.712 2.144 0.712zm0-1.056c-0.85333 0-1.5173-0.38933-1.992-1.168s-0.712-1.824-0.712-3.136 0.23467-2.3573 0.704-3.136 1.136-1.168 2-1.168c0.87467 0 1.544 0.38933 2.008 1.168s0.696 1.824 0.696 3.136c0 1.3227-0.23467 2.3707-0.704 3.144s-1.136 1.16-2 1.16zm9.344 1.056c0.69333 0 1.288-0.128 1.784-0.384s0.87467-0.608 1.136-1.056 0.392-0.96 0.392-1.536c0-0.704-0.15733-1.2827-0.472-1.736s-0.72267-0.75467-1.224-0.904c0.40533-0.13867 0.744-0.39467 1.016-0.768s0.408-0.86933 0.408-1.488c0-0.864-0.28-1.5493-0.84-2.056s-1.2987-0.76-2.216-0.76-1.6533 0.256-2.208 0.768-0.832 1.1947-0.832 2.048c0 0.61867 0.136 1.12 0.408 1.504s0.6 0.64 0.984 0.768c-0.48 0.17067-0.87733 0.488-1.192 0.952s-0.472 1.0213-0.472 1.672c0 0.88533 0.29333 1.6027 0.88 2.152s1.4027 0.824 2.448 0.824zm-0.016-6.016c-0.58667 0-1.0453-0.16-1.376-0.48s-0.496-0.768-0.496-1.344c0-0.53333 0.17333-0.97067 0.52-1.312s0.79733-0.512 1.352-0.512c0.56533 0 1.0187 0.168 1.36 0.504s0.512 0.776 0.512 1.32c0 0.576-0.168 1.024-0.504 1.344s-0.792 0.48-1.368 0.48zm0 4.976c-0.66133 0-1.1813-0.184-1.56-0.552s-0.568-0.856-0.568-1.464 0.19467-1.0907 0.584-1.448 0.904-0.536 1.544-0.536c0.65067 0 1.1653 0.17867 1.544 0.536s0.568 0.84 0.568 1.448c0 0.59733-0.18933 1.0827-0.568 1.456s-0.89333 0.56-1.544 0.56zm9.344 1.04c0.832 0 1.5413-0.23733 2.128-0.712s1.0267-1.1173 1.32-1.928 0.44-1.7173 0.44-2.72c0-0.992-0.14667-1.8907-0.44-2.696s-0.73067-1.4453-1.312-1.92-1.2933-0.712-2.136-0.712-1.5573 0.23733-2.144 0.712-1.0267 1.1147-1.32 1.92-0.44 1.704-0.44 2.696c0 1.0027 0.14667 1.9093 0.44 2.72s0.73333 1.4533 1.32 1.928 1.3013 0.712 2.144 0.712zm0-1.056c-0.85333 0-1.5173-0.38933-1.992-1.168s-0.712-1.824-0.712-3.136 0.23467-2.3573 0.704-3.136 1.136-1.168 2-1.168c0.87467 0 1.544 0.38933 2.008 1.168s0.696 1.824 0.696 3.136c0 1.3227-0.23467 2.3707-0.704 3.144s-1.136 1.16-2 1.16zm9.344 1.056c0.69333 0 1.288-0.128 1.784-0.384s0.87467-0.608 1.136-1.056 0.392-0.96 0.392-1.536c0-0.704-0.15733-1.2827-0.472-1.736s-0.72267-0.75467-1.224-0.904c0.40533-0.13867 0.744-0.39467 1.016-0.768s0.408-0.86933 0.408-1.488c0-0.864-0.28-1.5493-0.84-2.056s-1.2987-0.76-2.216-0.76-1.6533 0.256-2.208 0.768-0.832 1.1947-0.832 2.048c0 0.61867 0.136 1.12 0.408 1.504s0.6 0.64 0.984 0.768c-0.48 0.17067-0.87733 0.488-1.192 0.952s-0.472 1.0213-0.472 1.672c0 0.88533 0.29333 1.6027 0.88 2.152s1.4027 0.824 2.448 0.824zm-0.016-6.016c-0.58667 0-1.0453-0.16-1.376-0.48s-0.496-0.768-0.496-1.344c0-0.53333 0.17333-0.97067 0.52-1.312s0.79733-0.512 1.352-0.512c0.56533 0 1.0187 0.168 1.36 0.504s0.512 0.776 0.512 1.32c0 0.576-0.168 1.024-0.504 1.344s-0.792 0.48-1.368 0.48zm0 4.976c-0.66133 0-1.1813-0.184-1.56-0.552s-0.568-0.856-0.568-1.464 0.19467-1.0907 0.584-1.448 0.904-0.536 1.544-0.536c0.65067 0 1.1653 0.17867 1.544 0.536s0.568 0.84 0.568 1.448c0 0.59733-0.18933 1.0827-0.568 1.456s-0.89333 0.56-1.544 0.56zm9.072 0.88v-10.528h-0.128l-3.424 1.536v1.04l2.4-1.104v9.056h1.152zm6.928 0.16c0.832 0 1.5413-0.23733 2.128-0.712s1.0267-1.1173 1.32-1.928 0.44-1.7173 0.44-2.72c0-0.992-0.14667-1.8907-0.44-2.696s-0.73067-1.4453-1.312-1.92-1.2933-0.712-2.136-0.712-1.5573 0.23733-2.144 0.712-1.0267 1.1147-1.32 1.92-0.44 1.704-0.44 2.696c0 1.0027 0.14667 1.9093 0.44 2.72s0.73333 1.4533 1.32 1.928 1.3013 0.712 2.144 0.712zm0-1.056c-0.85333 0-1.5173-0.38933-1.992-1.168s-0.712-1.824-0.712-3.136 0.23467-2.3573 0.704-3.136 1.136-1.168 2-1.168c0.87467 0 1.544 0.38933 2.008 1.168s0.696 1.824 0.696 3.136c0 1.3227-0.23467 2.3707-0.704 3.144s-1.136 1.16-2 1.16z"/>
</g>
<g transform="translate(117.34 77.595)" fill="#fff" fill-rule="nonzero">
<path d="m3.721 17.2v-4.496h4.992v4.496h1.808v-10.368h-1.808v4.32h-4.992v-4.32h-1.808v10.368h1.808zm11.84 0.16c1.1093 0 1.968-0.26133 2.576-0.784s0.912-1.2747 0.912-2.256c0-0.61867-0.12533-1.1253-0.376-1.52s-0.54667-0.70133-0.888-0.92-0.78933-0.456-1.344-0.712c-0.416-0.18133-0.736-0.336-0.96-0.464s-0.41067-0.288-0.56-0.48-0.224-0.42667-0.224-0.704c0-0.39467 0.13867-0.704 0.416-0.928s0.66133-0.336 1.152-0.336c0.384 0 0.784 0.069333 1.2 0.208s0.78933 0.31467 1.12 0.528v-1.824c-0.24533-0.128-0.59467-0.24267-1.048-0.344s-0.91467-0.152-1.384-0.152c-1.024 0-1.8267 0.264-2.408 0.792s-0.872 1.2453-0.872 2.152c0 0.59733 0.12 1.0933 0.36 1.488s0.53067 0.70133 0.872 0.92 0.784 0.45067 1.328 0.696c0.40533 0.192 0.72533 0.35467 0.96 0.488s0.42933 0.304 0.584 0.512 0.232 0.456 0.232 0.744c0 0.416-0.14133 0.736-0.424 0.96s-0.70667 0.336-1.272 0.336c-0.50133 0-0.992-0.08-1.472-0.24s-0.90133-0.36267-1.264-0.608v1.824c0.352 0.17067 0.76533 0.31733 1.24 0.44s0.98933 0.184 1.544 0.184zm9.088 0c0.768 0 1.4373-0.152 2.008-0.456s1.0053-0.736 1.304-1.296 0.448-1.2027 0.448-1.928c0-0.736-0.15467-1.3627-0.464-1.88s-0.72-0.904-1.232-1.16-1.0613-0.384-1.648-0.384c-0.384 0-0.744 0.050667-1.08 0.152s-0.616 0.24267-0.84 0.424c0.32-0.704 0.87733-1.4293 1.672-2.176s1.6133-1.3547 2.456-1.824h-2.736c-0.71467 0.42667-1.352 0.984-1.912 1.672s-0.99733 1.4453-1.312 2.272c-0.31467 0.82667-0.472 1.6613-0.472 2.504 0 1.28 0.34133 2.28 1.024 3s1.6107 1.08 2.784 1.08zm-0.016-1.616c-0.576 0-1.0453-0.18133-1.408-0.544s-0.544-0.832-0.544-1.408c0-0.59733 0.18667-1.0747 0.56-1.432s0.83733-0.536 1.392-0.536 1.016 0.18133 1.384 0.544 0.552 0.83733 0.552 1.424c0 0.576-0.17867 1.0453-0.536 1.408s-0.824 0.544-1.4 0.544zm14.016 1.616c0.66133 0 1.272-0.074667 1.832-0.224s0.96267-0.31467 1.208-0.496v-1.824c-0.36267 0.24533-0.792 0.45067-1.288 0.616s-1.016 0.248-1.56 0.248c-0.704 0-1.3387-0.14667-1.904-0.44s-1.008-0.71733-1.328-1.272-0.48-1.2107-0.48-1.968c0-0.71467 0.14667-1.3493 0.44-1.904 0.29333-0.55467 0.70933-0.98667 1.248-1.296s1.1653-0.464 1.88-0.464c0.50133 0 0.99467 0.074667 1.48 0.224s0.936 0.368 1.352 0.656v-1.808c-0.24533-0.192-0.63467-0.36267-1.168-0.512s-1.12-0.224-1.76-0.224c-1.0773 0-2.016 0.22933-2.816 0.688s-1.416 1.0933-1.848 1.904c-0.432 0.81067-0.648 1.7333-0.648 2.768 0 1.024 0.21067 1.9387 0.632 2.744s1.0373 1.4373 1.848 1.896 1.7707 0.688 2.88 0.688zm8.496-0.016c0.768 0 1.4453-0.15733 2.032-0.472s1.0453-0.76 1.376-1.336 0.496-1.2427 0.496-2c0-1.1413-0.34933-2.04-1.048-2.696s-1.64-0.984-2.824-0.984c-0.78933 0-1.48 0.16267-2.072 0.488s-1.048 0.77333-1.368 1.344-0.48 1.2187-0.48 1.944 0.16 1.368 0.48 1.928 0.77333 0.99733 1.36 1.312 1.2693 0.472 2.048 0.472zm0.016-1.504c-0.61867 0-1.1227-0.208-1.512-0.624s-0.584-0.95467-0.584-1.616c0-0.62933 0.18933-1.1627 0.568-1.6s0.888-0.656 1.528-0.656c0.61867 0 1.12 0.20533 1.504 0.616s0.576 0.94667 0.576 1.608c0 0.672-0.18933 1.2187-0.568 1.64s-0.88267 0.632-1.512 0.632zm8.688 1.504c0.56533 0 1.0613-0.098667 1.488-0.296s0.74133-0.46133 0.944-0.792l0.032 0.944h1.6v-10.608h-1.744v4.192c-0.26667-0.30933-0.608-0.54133-1.024-0.696-0.416-0.15467-0.87467-0.232-1.376-0.232-0.704 0-1.32 0.16-1.848 0.48s-0.936 0.76533-1.224 1.336-0.432 1.224-0.432 1.96c0 0.768 0.15467 1.432 0.464 1.992s0.736 0.98667 1.28 1.28 1.1573 0.44 1.84 0.44zm0.32-1.504c-0.61867 0-1.1227-0.208-1.512-0.624s-0.584-0.95467-0.584-1.616c0-0.62933 0.18933-1.1627 0.568-1.6s0.888-0.656 1.528-0.656c0.61867 0 1.12 0.20533 1.504 0.616s0.576 0.94667 0.576 1.608c0 0.672-0.18933 1.2187-0.568 1.64s-0.88267 0.632-1.512 0.632zm9.376 1.504c0.59733 0 1.1413-0.061333 1.632-0.184s0.88-0.264 1.168-0.424v-1.536c-0.768 0.448-1.6053 0.672-2.512 0.672-1.472 0-2.2773-0.55467-2.416-1.664h5.184c0.032-0.24533 0.048-0.49067 0.048-0.736 0-1.0667-0.29067-1.936-0.872-2.608s-1.4427-1.008-2.584-1.008c-0.74667 0-1.3893 0.16267-1.928 0.488s-0.94933 0.77333-1.232 1.344-0.424 1.2293-0.424 1.976c0 1.1947 0.34667 2.1067 1.04 2.736s1.6587 0.944 2.896 0.944zm1.328-4.368h-3.44c0.042667-0.50133 0.22667-0.90667 0.552-1.216s0.728-0.464 1.208-0.464c0.49067 0 0.89333 0.152 1.208 0.456s0.472 0.712 0.472 1.224z"/>
<path d="m13.197 33.56c0.832 0 1.5413-0.23733 2.128-0.712s1.0267-1.1173 1.32-1.928 0.44-1.7173 0.44-2.72c0-0.992-0.14667-1.8907-0.44-2.696s-0.73067-1.4453-1.312-1.92-1.2933-0.712-2.136-0.712-1.5573 0.23733-2.144 0.712-1.0267 1.1147-1.32 1.92c-0.29333 0.80533-0.44 1.704-0.44 2.696 0 1.0027 0.14667 1.9093 0.44 2.72 0.29333 0.81067 0.73333 1.4533 1.32 1.928s1.3013 0.712 2.144 0.712zm0-1.056c-0.85333 0-1.5173-0.38933-1.992-1.168s-0.712-1.824-0.712-3.136 0.23467-2.3573 0.704-3.136 1.136-1.168 2-1.168c0.87467 0 1.544 0.38933 2.008 1.168s0.696 1.824 0.696 3.136c0 1.3227-0.23467 2.3707-0.704 3.144s-1.136 1.16-2 1.16zm9.344 1.056c0.69333 0 1.288-0.128 1.784-0.384s0.87467-0.608 1.136-1.056 0.392-0.96 0.392-1.536c0-0.704-0.15733-1.2827-0.472-1.736s-0.72267-0.75467-1.224-0.904c0.40533-0.13867 0.744-0.39467 1.016-0.768s0.408-0.86933 0.408-1.488c0-0.864-0.28-1.5493-0.84-2.056s-1.2987-0.76-2.216-0.76-1.6533 0.256-2.208 0.768-0.832 1.1947-0.832 2.048c0 0.61867 0.136 1.12 0.408 1.504s0.6 0.64 0.984 0.768c-0.48 0.17067-0.87733 0.488-1.192 0.952s-0.472 1.0213-0.472 1.672c0 0.88533 0.29333 1.6027 0.88 2.152s1.4027 0.824 2.448 0.824zm-0.016-6.016c-0.58667 0-1.0453-0.16-1.376-0.48s-0.496-0.768-0.496-1.344c0-0.53333 0.17333-0.97067 0.52-1.312s0.79733-0.512 1.352-0.512c0.56533 0 1.0187 0.168 1.36 0.504s0.512 0.776 0.512 1.32c0 0.576-0.168 1.024-0.504 1.344s-0.792 0.48-1.368 0.48zm0 4.976c-0.66133 0-1.1813-0.184-1.56-0.552s-0.568-0.856-0.568-1.464 0.19467-1.0907 0.584-1.448 0.904-0.536 1.544-0.536c0.65067 0 1.1653 0.17867 1.544 0.536s0.568 0.84 0.568 1.448c0 0.59733-0.18933 1.0827-0.568 1.456s-0.89333 0.56-1.544 0.56zm9.344 1.04c0.832 0 1.5413-0.23733 2.128-0.712s1.0267-1.1173 1.32-1.928 0.44-1.7173 0.44-2.72c0-0.992-0.14667-1.8907-0.44-2.696s-0.73067-1.4453-1.312-1.92-1.2933-0.712-2.136-0.712-1.5573 0.23733-2.144 0.712-1.0267 1.1147-1.32 1.92-0.44 1.704-0.44 2.696c0 1.0027 0.14667 1.9093 0.44 2.72s0.73333 1.4533 1.32 1.928 1.3013 0.712 2.144 0.712zm0-1.056c-0.85333 0-1.5173-0.38933-1.992-1.168s-0.712-1.824-0.712-3.136 0.23467-2.3573 0.704-3.136 1.136-1.168 2-1.168c0.87467 0 1.544 0.38933 2.008 1.168s0.696 1.824 0.696 3.136c0 1.3227-0.23467 2.3707-0.704 3.144s-1.136 1.16-2 1.16zm8.496 1.056c1.1947 0 2.1147-0.296 2.76-0.888s0.968-1.464 0.968-2.616c0-1.056-0.288-1.8587-0.864-2.408s-1.328-0.824-2.256-0.824c-0.65067 0-1.1787 0.144-1.584 0.432l0.448-3.232h3.664v-0.992h-4.64l-0.784 5.76 0.144 0.048c0.24533-0.288 0.57067-0.528 0.976-0.72s0.85333-0.288 1.344-0.288c0.736 0 1.312 0.19733 1.728 0.592s0.624 0.95467 0.624 1.68c0 0.768-0.22933 1.36-0.688 1.776s-1.1093 0.624-1.952 0.624c-0.544 0-1.0427-0.074667-1.496-0.224s-0.808-0.33067-1.064-0.544v1.2c0.23467 0.16 0.57333 0.304 1.016 0.432s0.99467 0.192 1.656 0.192zm9.216-0.16v-10.528h-0.128l-3.424 1.536v1.04l2.4-1.104v9.056h1.152zm6.928 0.16c0.832 0 1.5413-0.23733 2.128-0.712s1.0267-1.1173 1.32-1.928 0.44-1.7173 0.44-2.72c0-0.992-0.14667-1.8907-0.44-2.696s-0.73067-1.4453-1.312-1.92-1.2933-0.712-2.136-0.712-1.5573 0.23733-2.144 0.712-1.0267 1.1147-1.32 1.92-0.44 1.704-0.44 2.696c0 1.0027 0.14667 1.9093 0.44 2.72s0.73333 1.4533 1.32 1.928 1.3013 0.712 2.144 0.712zm0-1.056c-0.85333 0-1.5173-0.38933-1.992-1.168s-0.712-1.824-0.712-3.136 0.23467-2.3573 0.704-3.136 1.136-1.168 2-1.168c0.87467 0 1.544 0.38933 2.008 1.168s0.696 1.824 0.696 3.136c0 1.3227-0.23467 2.3707-0.704 3.144s-1.136 1.16-2 1.16z"/>
</g>
</g>
</svg>
