<?xml version="1.0" encoding="UTF-8"?>
<svg width="220px" height="152px" viewBox="0 0 220 152" version="1.1" xmlns="http://www.w3.org/2000/svg" xmlns:xlink="http://www.w3.org/1999/xlink">
    <title>apples</title>
    <defs>
        <path d="M71.0328656,19.7281716 L76.8225516,5.93398465 C73.5706125,4.51595721 69.9154875,3.39883535 66.0019922,2.53752279 C58.7553328,0.948076744 50.6256187,0.24367814 42.5768625,0.242886977 C23.36715,0.276906977 9.61821562,3.94711116 0.00855,10.3054228 L15.2206031,22.6562651 L71.0328656,19.7281716" id="path-1"></path>
        <radialGradient cx="42.7362944%" cy="82.8518985%" fx="42.7362944%" fy="82.8518985%" r="101.243674%" gradientTransform="translate(0.427363,0.828519),scale(0.291788,1.000000),translate(-0.427363,-0.828519)" id="radialGradient-3">
            <stop stop-color="#AC2430" offset="0%"></stop>
            <stop stop-color="#D8232A" offset="100%"></stop>
        </radialGradient>
        <path d="M0.301597714,6.97484769 C0.147466286,6.76035346 0.194122286,6.46034192 0.406573714,6.30388731 L8.83909029,0.110751923 C9.05098629,-0.0457026923 9.34897371,0.00168230769 9.50366057,0.216456923 C9.657792,0.430951154 9.611136,0.731243077 9.39868457,0.887136923 L0.966445714,7.08111346 C0.882298286,7.14279808 0.784265143,7.17307962 0.687342857,7.17307962 C0.540154286,7.17307962 0.394909714,7.104105 0.301597714,6.97484769" id="path-4"></path>
        <linearGradient x1="90.3961974%" y1="27.2375052%" x2="7.83962268%" y2="73.7538885%" id="linearGradient-6">
            <stop stop-color="#0D5D36" offset="0%"></stop>
            <stop stop-color="#4A301A" offset="100%"></stop>
        </linearGradient>
        <path d="M124.549284,60.2462536 C124.549284,94.27789 95.5676679,120.62524 61.5993899,120.62524 C27.631112,120.62524 0.129547966,95.1042552 0.129547966,61.0726189 C0.129547966,33.5858059 12.2210476,8.49566614 41.9925057,1.31554776 C53.1373702,-1.37254769 55.7590471,1.77582891 59.9483879,2.34903951 C65.928696,3.1679118 74.2502162,1.38619557 79.7622818,2.76275734 C105.266403,9.13336962 124.549284,32.2627652 124.549284,60.2462536" id="path-7"></path>
        <radialGradient cx="48.0782566%" cy="10.6803842%" fx="48.0782566%" fy="10.6803842%" r="20.669813%" gradientTransform="translate(0.480783,0.106804),scale(0.967539,1.000000),rotate(94.281291),translate(-0.480783,-0.106804)" id="radialGradient-9">
            <stop stop-color="#E5702A" offset="0%"></stop>
            <stop stop-color="#EB8B2D" offset="100%"></stop>
        </radialGradient>
        <path d="M4.82721525,29.8269 L10.336248,29.30607 C10.2767535,28.64646 8.57642175,9.86148 5.17891725,0.8424 C4.3715295,-0.85401 -0.5154435,0.30429 0.283257,3.95523 C3.4954335,12.95406 4.813263,29.67084 4.82721525,29.8269" id="path-10"></path>
        <linearGradient x1="48.3205262%" y1="2.67951388%" x2="50.8237586%" y2="80.047821%" id="linearGradient-12">
            <stop stop-color="#66462B" offset="0%"></stop>
            <stop stop-color="#51341D" offset="100%"></stop>
        </linearGradient>
        <path d="M97.8193211,50.4272876 C97.8193211,29.166615 86.7252301,10.7056565 70.2400549,0.243651522 C87.9868084,29.9836115 70.6566642,100.522201 0.201361144,100.814905 C10.0701937,107.230525 22.0111232,110.905133 34.8816789,110.905133 C68.8436127,110.905133 97.8193211,84.5146448 97.8193211,50.4272876" id="path-13"></path>
        <linearGradient x1="51.3699024%" y1="5.57736606%" x2="49.3960934%" y2="96.1627859%" id="linearGradient-15">
            <stop stop-color="#EB8B2D" offset="0%"></stop>
            <stop stop-color="#E7792B" offset="100%"></stop>
        </linearGradient>
    </defs>
    <g id="Product-selection-intro" stroke="none" stroke-width="1" fill="none" fill-rule="evenodd">
        <g id="Product-Search-Intro---Desktop---5---Search-c" transform="translate(-725.000000, -899.000000)">
            <g id="apples" transform="translate(725.000000, 899.000000)">
                <g id="Group">
                    <path d="M44.5933011,143.883914 C44.2378396,143.872689 43.626521,144.074738 43.0106384,144.386631 C42.3684452,144.692376 41.8269302,145.066006 41.0706349,145.306808 C40.6348993,145.432687 40.1835921,145.484001 39.7215458,145.484001 C38.2894979,145.476251 36.7267024,145.00908 34.9630872,144.20917 C33.2043047,143.404984 31.2610795,142.245341 29.1991881,140.762849 C25.0778217,137.795458 20.4858179,133.529182 16.1692699,128.208297 C7.54637587,117.573743 -0.0262422351,98.5835644 0,85.6642026 C0.0647709372,54.0165768 13.8523269,30.4613251 62.5808867,30.375 C70.6676353,30.375 78.8370743,31.089654 86.1183965,32.7004317 C93.3978395,34.3168218 99.8020525,36.8098257 104.355664,40.5132514 C117.924413,51.5559115 123.138743,65.4788356 123.12,79.3370828 C123.102498,97.6815609 114.200122,115.947197 103.997518,128.523931 C99.2989295,134.305306 94.6328265,138.578263 90.4813908,141.432068 C86.315189,144.275183 82.724867,145.753667 79.8384876,145.779324 C79.140183,145.778522 78.4740955,145.686317 77.8523064,145.467966 C76.4489853,144.958835 75.2056756,144.030907 73.8874612,143.276699 C72.5805228,142.510998 71.2872766,141.954028 70.1143074,141.963382 C69.0734282,141.977012 68.0040905,142.316165 66.6356712,143.656476 C63.3766479,146.898343 60.1576274,148.625913 56.9302842,148.635 L56.9122964,148.635 C54.955379,148.635 53.0870584,147.962306 51.4214368,146.771394 C50.2584012,145.929791 47.490688,144.639726 45.752578,144.130595 C45.1842155,143.954471 44.6945163,143.875629 44.5933011,143.883914" id="Fill-5" fill="#D8232A"></path>
                    <g id="Group-8" transform="translate(20.250000, 30.375000)">
                        <mask id="mask-2" fill="white">
                            <use xlink:href="#path-1"></use>
                        </mask>
                        <g id="Clip-7"></g>
                        <path d="M71.0328656,19.7281716 L76.8225516,5.93398465 C73.5706125,4.51595721 69.9154875,3.39883535 66.0019922,2.53752279 C58.7553328,0.948076744 50.6256187,0.24367814 42.5768625,0.242886977 C23.36715,0.276906977 9.61821562,3.94711116 0.00855,10.3054228 L15.2206031,22.6562651 L71.0328656,19.7281716" id="Fill-6" fill="url(#radialGradient-3)" mask="url(#mask-2)"></path>
                    </g>
                    <path d="M58.4568145,43.5702253 C58.4562893,43.5686399 58.1083215,42.890362 57.4985243,41.755495 C56.8887272,40.6198354 56.018939,39.0320786 54.983702,37.2260679 C52.9129654,33.6143109 50.1728175,29.1247825 47.5272118,25.6480469 C45.8871674,23.4855902 44.2599912,21.7157791 42.9471678,20.8237393 C42.7444274,20.8826625 42.473669,20.9347158 42.1469732,20.9355085 C41.3016085,20.9450208 40.125346,20.5439199 39.0383734,19.2151083 C38.7986039,18.924984 38.8351077,18.4961391 39.1205726,18.2517265 C39.1373801,18.2371939 39.7729137,17.692352 40.6941749,17.1144815 C41.6201631,16.5397817 42.8142835,15.9143497 44.0606648,15.7975602 C44.2744352,15.7790641 44.4826906,15.8615038 44.6266048,16.021627 C44.6578563,16.058355 54.1806186,26.6500062 60.7003532,42.8132069 C61.1034706,44.0458389 58.9334647,44.68184 58.4568145,43.5702253" id="Fill-9" fill="#4A301A"></path>
                    <g id="Group-12" transform="translate(53.460000, 24.705000)">
                        <mask id="mask-5" fill="white">
                            <use xlink:href="#path-4"></use>
                        </mask>
                        <g id="Clip-11"></g>
                        <path d="M0.301597714,6.97484769 C0.147466286,6.76035346 0.194122286,6.46034192 0.406573714,6.30388731 L8.83909029,0.110751923 C9.05098629,-0.0457026923 9.34897371,0.00168230769 9.50366057,0.216456923 C9.657792,0.430951154 9.611136,0.731243077 9.39868457,0.887136923 L0.966445714,7.08111346 C0.882298286,7.14279808 0.784265143,7.17307962 0.687342857,7.17307962 C0.540154286,7.17307962 0.394909714,7.104105 0.301597714,6.97484769" id="Fill-10" fill="url(#linearGradient-6)" mask="url(#mask-5)"></path>
                    </g>
                    <path d="M60.75,26.325 L106.11,1.215 C106.11,1.215 61.7174085,2.23487027 60.75,26.325" id="Fill-13" fill="#84BF41"></path>
                    <path d="M106.11,0.405 L60.75,25.5880679 C60.75,25.5880679 86.9467832,36.4912203 106.11,0.405" id="Fill-14" fill="#3AAB47"></path>
                    <path d="M35.2928467,144.208534 C37.0498648,145.008559 38.6068146,145.475797 40.0335058,145.483549 C40.4938237,145.483549 40.9434428,145.432227 41.3775485,145.30633 C42.1310148,145.065494 42.6705042,144.69181 43.3102952,144.38602 C43.9238741,144.074083 44.532906,143.872005 44.8870378,143.883232 C44.9878745,143.874945 45.4757419,143.953799 46.0419784,144.129948 C47.7735868,144.639152 50.5309472,145.929403 51.6896323,146.771126 C53.3490235,147.962209 55.2103554,148.635 57.1599529,148.635 L57.1778734,148.635 C60.3931445,148.625912 63.6001239,146.898093 66.8469565,143.65576 C68.2102571,142.315258 69.2755948,141.976056 70.3125806,141.962423 C71.4811622,141.953068 72.7695708,142.510118 74.0716205,143.275929 C75.384904,144.030246 76.623563,144.958307 78.0216349,145.467511 C78.6410981,145.685894 79.3046941,145.778112 80.0003867,145.778914 C82.8759693,145.753253 86.4528614,144.274557 90.6034791,141.431034 C94.739386,138.576819 99.388035,134.303248 104.069048,128.521043 C114.233488,115.942502 123.102565,97.6742425 123.12,79.3271295 C123.137871,65.9707499 118.311086,52.5555646 105.864047,41.715 C107.011766,64.3976973 101.814801,119.186974 29.16,140.472768 C29.289991,140.56953 29.4210519,140.667361 29.5505079,140.761718 C31.6046866,142.244424 33.540643,143.404232 35.2928467,144.208534" id="Fill-15" fill="#C4232A"></path>
                    <path d="M75.8629236,138.193742 C73.8192781,137.572309 69.9649943,140.364265 68.04,141.910362 C68.8896175,141.338742 69.6332006,141.165078 70.3620194,141.155007 C71.5348405,141.14548 72.8279234,141.712745 74.1346969,142.492598 C75.3450998,143.197324 76.4937612,144.047949 77.76,144.585 C77.7527521,141.828158 77.4002883,138.661382 75.8629236,138.193742" id="Fill-16" fill="#AC252A"></path>
                    <path d="M37.8456503,143.233787 C37.238285,143.560134 37.1713414,144.262009 37.3398545,145.037146 C38.1326611,145.264615 38.8828906,145.390645 39.5982376,145.395 C40.0396547,145.395 40.4708122,145.345817 40.8870934,145.225167 C41.6096221,144.994367 42.1269598,144.636257 42.7404808,144.343212 C43.3288659,144.044274 43.9128907,143.850618 44.2524817,143.861377 C44.349178,143.853692 44.8170134,143.929003 45.36,144.097811 C45.36,144.097811 39.5813094,142.300344 37.8456503,143.233787" id="Fill-17" fill="#AC252A"></path>
                    <path d="M94.5726728,48.9878155 C100.286595,30.4761214 79.8278646,37.2575625 79.8278646,37.2575625 C51.2590517,48.6212368 35.0391518,38.7238771 35.0391518,38.7238771 C35.0391518,38.7238771 21.3999983,33.59204 27.4822948,55.5859672 C27.4822948,55.5859672 66.0043911,77.3966052 94.5726728,48.9878155" id="Fill-18" fill="#D8232A"></path>
                    <path d="M15.4098374,78.165 C15.2773386,78.165 15.1437799,78.1585393 15.0091611,78.1453487 C12.7749668,77.9232617 11.1409919,75.9032129 11.3596149,73.6338883 C12.7076574,59.6416043 21.1157646,51.3105179 21.4732463,50.9627164 C23.0937063,49.3852262 25.6665675,49.4406806 27.2199831,51.087085 C28.7691588,52.7294515 28.7188092,55.3341947 27.1100091,56.9130308 C26.9645255,57.0592044 20.4882504,63.6628582 19.450255,74.4379776 C19.2446169,76.5708197 17.4762883,78.165 15.4098374,78.165" id="Fill-19" fill="#E88374"></path>
                    <path d="M118.26,130.005 C118.908229,129.261132 119.558336,128.488932 120.209248,127.68733 C130.405438,115.109203 139.302219,96.8415443 139.319659,78.4950352 C139.319659,78.481938 139.319659,78.4685735 139.319659,78.4554763 C139.319659,78.448794 139.319659,78.4421118 139.319659,78.4351622 C139.319659,78.4287473 139.319659,78.422065 139.319659,78.4156501 C139.319659,78.4070968 139.319659,78.4004146 139.319659,78.3921286 C139.319659,78.3862482 139.319659,78.3819716 139.319659,78.3763585 C139.319659,78.3670033 139.319659,78.3579155 139.319659,78.3488276 C139.319659,78.344551 139.319659,78.3413435 139.319659,78.3370669 C139.319659,78.326108 139.319659,78.3167528 139.31939,78.3057939 C139.31939,78.303121 139.31939,78.3007154 139.31939,78.2983098 C139.31939,78.2881528 139.31939,78.2761248 139.31939,78.2659677 C139.31939,78.2635621 139.31939,78.2611565 139.31939,78.2587509 C139.31939,78.247792 139.31939,78.2368332 139.31939,78.2258743 C139.31939,78.2234687 139.31939,78.2221322 139.31939,78.2197266 C139.319122,78.2087677 139.319122,78.197007 139.319122,78.1857808 C139.319122,78.1833752 139.319122,78.1831079 139.319122,78.1807023 C139.319122,78.1686742 139.319122,78.1563789 139.318854,78.1443509 C139.318854,78.143549 139.318854,78.1430144 139.318854,78.1422125 C139.318854,78.1293826 139.318854,78.1173546 139.318854,78.1045247 L139.318585,78.1031882 C139.314292,77.3130794 139.29256,76.5248416 139.253387,75.735 C139.299267,76.6547444 139.321,77.5747562 139.319965,78.4950352 C139.302487,96.8415443 130.405438,115.109203 120.209248,127.68733 C119.558336,128.488932 118.908229,129.261132 118.26,130.005" id="Fill-20" fill="#7F2627"></path>
                    <path d="M100.44,57.915 C103.035387,54.3248349 105.066896,52.6278812 105.066896,52.6278812 C105.929708,52.4517173 106.818782,52.3250995 107.73,52.245 C105.34935,54.4751248 102.909223,56.3507197 100.44,57.915" id="Fill-23" fill="#AF2127"></path>
                    <path d="M158.76,25.515 L208.98,2.90516519 C208.98,2.90516519 162.242978,-7.98371761 158.76,25.515" id="Fill-24" fill="#84BF41"></path>
                    <path d="M208.98,2.835 L158.76,24.9781071 C158.76,24.9781071 187.210922,44.5504236 208.98,2.835" id="Fill-25" fill="#3AAB47"></path>
                    <g id="Group-28" transform="translate(94.770000, 30.375000)">
                        <mask id="mask-8" fill="white">
                            <use xlink:href="#path-7"></use>
                        </mask>
                        <g id="Clip-27"></g>
                        <path d="M124.549284,60.2462536 C124.549284,94.27789 95.5676679,120.62524 61.5993899,120.62524 C27.631112,120.62524 0.129547966,95.1042552 0.129547966,61.0726189 C0.129547966,33.5858059 12.2210476,8.49566614 41.9925057,1.31554776 C53.1373702,-1.37254769 55.7590471,1.77582891 59.9483879,2.34903951 C65.928696,3.1679118 74.2502162,1.38619557 79.7622818,2.76275734 C105.266403,9.13336962 124.549284,32.2627652 124.549284,60.2462536" id="Fill-26" fill="url(#radialGradient-9)" mask="url(#mask-8)"></path>
                    </g>
                    <g id="Group-31" transform="translate(151.470000, 14.175000)">
                        <mask id="mask-11" fill="white">
                            <use xlink:href="#path-10"></use>
                        </mask>
                        <g id="Clip-30"></g>
                        <path d="M4.82721525,29.8269 L10.336248,29.30607 C10.2767535,28.64646 8.57642175,9.86148 5.17891725,0.8424 C4.3715295,-0.85401 -0.5154435,0.30429 0.283257,3.95523 C3.4954335,12.95406 4.813263,29.67084 4.82721525,29.8269" id="Fill-29" fill="url(#linearGradient-12)" mask="url(#mask-11)"></path>
                    </g>
                    <path d="M128.398775,36.9415603 C128.398775,36.9415603 144.490265,35.9182764 152.153146,40.9083417 C152.153146,40.9083417 157.487607,40.2167045 159.962872,41.6495139 C159.962872,41.6495139 168.833883,35.0994903 182.86234,39.6024163 L193.59,58.2284086 L151.711277,66.825 L116.64,53.1111943 L128.398775,36.9415603" id="Fill-32" fill="#EB8B2D"></path>
                    <g id="Group-35" transform="translate(121.500000, 40.095000)">
                        <mask id="mask-14" fill="white">
                            <use xlink:href="#path-13"></use>
                        </mask>
                        <g id="Clip-34"></g>
                        <path d="M97.8193211,50.4272876 C97.8193211,29.166615 86.7252301,10.7056565 70.2400549,0.243651522 C87.9868084,29.9836115 70.6566642,100.522201 0.201361144,100.814905 C10.0701937,107.230525 22.0111232,110.905133 34.8816789,110.905133 C68.8436127,110.905133 97.8193211,84.5146448 97.8193211,50.4272876" id="Fill-33" fill="url(#linearGradient-15)" mask="url(#mask-14)"></path>
                    </g>
                    <path d="M110.989656,80.595 C110.857155,80.595 110.723593,80.5885393 110.588972,80.5753487 C108.354733,80.3532626 106.720991,78.3332212 106.939618,76.0636357 C108.287687,62.0714028 116.695697,53.7406162 117.05292,53.3928158 C118.673943,51.8150622 121.246855,51.8707857 122.800037,53.5171841 C124.348978,55.1590061 124.298627,57.7629322 122.69112,59.3420318 C122.585649,59.4470179 116.071615,66.0581851 115.030154,76.8682604 C114.824777,79.0010947 113.056148,80.595 110.989656,80.595" id="Fill-36" fill="#F4B452"></path>
                </g>
                <g id="Group-2" transform="translate(14.465000, 77.595000)" fill="#FFFFFF" font-size="16" line-spacing="20">
                    <text id="HS6-Code" font-family="FSLucas-SemiBold, FS Lucas" font-weight="500">
                        <tspan x="0.633" y="12.2">HS6 Code</tspan>
                    </text>
                    <text id="080810" font-family="FSLucas-Regular, FS Lucas" font-weight="normal">
                        <tspan x="8.085" y="28.4">080810</tspan>
                    </text>
                </g>
                <g id="Group-2-Copy" transform="translate(117.335000, 77.595000)" fill="#FFFFFF" font-size="16" line-spacing="20">
                    <text id="HS6-Code" font-family="FSLucas-SemiBold, FS Lucas" font-weight="500">
                        <tspan x="0.633" y="12.2">HS6 Code</tspan>
                    </text>
                    <text id="080510" font-family="FSLucas-Regular, FS Lucas" font-weight="normal">
                        <tspan x="8.429" y="28.4">080510</tspan>
                    </text>
                </g>
            </g>
        </g>
    </g>
</svg>