<svg width="60" height="54" viewBox="0 0 60 54" fill="none" xmlns="http://www.w3.org/2000/svg">
<path d="M26.32 24.264C26.32 23.56 26.416 22.9307 26.608 22.376C26.8 21.8213 27.1093 21.2987 27.536 20.808C27.984 20.3173 28.5707 19.816 29.296 19.304C29.936 18.8347 30.448 18.4187 30.832 18.056C31.2373 17.6933 31.5253 17.3307 31.696 16.968C31.888 16.6053 31.984 16.2 31.984 15.752C31.984 15.0693 31.728 14.5573 31.216 14.216C30.7253 13.8533 30.032 13.672 29.136 13.672C28.24 13.672 27.3547 13.8107 26.48 14.088C25.6053 14.3653 24.7093 14.7387 23.792 15.208L22.096 11.784C23.1413 11.208 24.272 10.7387 25.488 10.376C26.704 10.0133 28.0373 9.832 29.488 9.832C31.7067 9.832 33.424 10.3653 34.64 11.432C35.8773 12.4987 36.496 13.8533 36.496 15.496C36.496 16.3707 36.3573 17.128 36.08 17.768C35.8027 18.408 35.3867 19.0053 34.832 19.56C34.2773 20.0933 33.584 20.6693 32.752 21.288C32.1333 21.736 31.6533 22.12 31.312 22.44C30.9707 22.76 30.736 23.0693 30.608 23.368C30.5013 23.6667 30.448 24.04 30.448 24.488V25.416H26.32V24.264ZM25.808 30.76C25.808 29.7787 26.0747 29.096 26.608 28.712C27.1413 28.3067 27.792 28.104 28.56 28.104C29.3067 28.104 29.9467 28.3067 30.48 28.712C31.0133 29.096 31.28 29.7787 31.28 30.76C31.28 31.6987 31.0133 32.3813 30.48 32.808C29.9467 33.2133 29.3067 33.416 28.56 33.416C27.792 33.416 27.1413 33.2133 26.608 32.808C26.0747 32.3813 25.808 31.6987 25.808 30.76Z" fill="#1D70B8"/>
<path d="M20.25 43.875V42.375H18.75H7.5C4.03914 42.375 1.5 39.8749 1.5 37.125V6.75C1.5 4.00013 4.03914 1.5 7.5 1.5H52.5C55.9609 1.5 58.5 4.00013 58.5 6.75V37.125C58.5 39.8749 55.9609 42.375 52.5 42.375H35.625H35.1664L34.7863 42.6314L20.25 52.4355V43.875Z" stroke="#1D70B8" stroke-width="3"/>
</svg>
