<?xml version="1.0" encoding="UTF-8"?>
<svg width="48px" height="38px" viewBox="0 0 48 38" version="1.1" xmlns="http://www.w3.org/2000/svg" xmlns:xlink="http://www.w3.org/1999/xlink">
    <!-- Generator: sketchtool 64 (101010) - https://sketch.com -->
    <title>11A0DC4C-7CB5-402B-BBFB-97C02BBADB93</title>
    <desc>Created with sketchtool.</desc>
    <g id="Personalsiation-1---Jewellery" stroke="none" stroke-width="1" fill="none" fill-rule="evenodd" stroke-linecap="round" stroke-linejoin="round">
        <g id="Select-countries-3---Jewellery" transform="translate(-424.000000, -1863.000000)" stroke="#3C3C3C" stroke-width="2">
            <g id="Group-11" transform="translate(425.000000, 1864.000000)">
                <path d="M44,16 L44,32 C44,32.552 43.552,33 43,33 L27.441,33 C26.581,33 25.816,33.551 25.544,34.368 L25.456,34.632 C25.184,35.449 24.419,36 23.559,36 L20.441,36 C19.581,36 18.816,35.449 18.544,34.632 L18.456,34.368 C18.184,33.551 17.419,33 16.559,33 L1,33 C0.448,33 0,32.552 0,32 L0,3 L1,3" id="Stroke-1"></path>
                <path d="M33.2026,20.4058 L27.9996,21.9998 L29.6546,16.8468 L41.8806,4.5728 C42.6416,3.8088 43.8766,3.8088 44.6376,4.5728 L45.4296,5.3668 C46.1906,6.1308 46.1906,7.3678 45.4296,8.1318 L33.2026,20.4058 Z" id="Stroke-3"></path>
                <line x1="44.3608" y1="9.2046" x2="40.8128" y2="5.6456" id="Stroke-5"></line>
                <path d="M40,20 L40,28 C40,28.552 39.552,29 39,29 L26.657,29 C25.596,29 24.579,29.421 23.829,30.171 L22,32 L20.171,30.171 C19.421,29.421 18.404,29 17.343,29 L5,29 C4.448,29 4,28.552 4,28 L4,1 C4,0.448 4.448,0 5,0 L17.343,0 C18.404,0 19.421,0.421 20.171,1.171 L22,3 L23.829,1.171 C24.579,0.421 25.596,0 26.657,0 L39,0 C39.552,0 40,0.448 40,1" id="Stroke-7"></path>
                <line x1="22" y1="3" x2="22" y2="27" id="Stroke-9"></line>
            </g>
        </g>
    </g>
</svg>