<?xml version="1.0" encoding="UTF-8"?>
<svg width="180px" height="134px" viewBox="0 0 180 134" version="1.1" xmlns="http://www.w3.org/2000/svg" xmlns:xlink="http://www.w3.org/1999/xlink">
    <title>Group 100</title>
    <defs>
        <polygon id="path-1" points="0.591130657 0.353 52.3725 0.353 52.3725 15.6615 0.591130657 15.6615"></polygon>
        <polygon id="path-3" points="0.119637078 0.804461157 7.3966 0.804461157 7.3966 6 0.119637078 6"></polygon>
        <polygon id="path-5" points="0 0.9028 15.7168 0.9028 15.7168 7.9938 0 7.9938"></polygon>
    </defs>
    <g id="Pages" stroke="none" stroke-width="1" fill="none" fill-rule="evenodd">
        <g id="Illustrations" transform="translate(-460.000000, -1957.000000)">
            <g id="Group-100" transform="translate(550.000000, 2024.000000) scale(-1, 1) translate(-550.000000, -2024.000000) translate(460.000000, 1957.000000)">
                <path d="M63.638,7.1904 C65.689,4.4794 69.642,4.8464 71.689,7.1594 C72.318,4.5634 73.685,1.9804 76.806,1.5244 C79.048,1.2024 81.115,2.4864 81.567,4.4974 C83.567,4.8954 85.208,3.4064 87.163,3.0274 C88.797,2.7114 90.526,2.7914 92.129,3.2594 C94.808,4.0444 97.656,6.2854 98.257,8.9844 C102.116,5.8284 109.009,5.9834 113.372,7.9724 C117.376,9.8004 122.826,14.8504 121.167,19.4384 C120.979,24.5364 114.018,27.6634 108.912,27.8124 C101.596,28.0294 94.887,23.8974 92.003,17.6154 C89.448,19.6294 85.287,19.5524 82.383,18.2094 C80.911,17.5324 79.614,16.5374 78.629,15.3044 C77.631,14.0474 76.276,9.3574 73.924,9.8974 C75.163,11.2734 73.063,15.6024 71.917,16.6614 C69.954,18.4754 66.915,19.2354 64.457,18.9854 C63.12,19.2444 64.371,17.8844 63.425,17.0494 C62.711,16.4184 62.613,18.2114 62.031,16.3084 C61.098,13.2554 62.175,9.1284 63.638,7.1904" id="Fill-1" fill="#FDCA4A"></path>
                <path d="M53.1585,44.5224 C53.1585,44.5224 38.5785,56.1364 34.5815,57.1994 C34.2785,57.2794 33.9435,57.2614 33.6285,57.1634 C31.4555,56.4814 26.8205,54.3494 32.9895,49.2594 C39.9595,43.5084 48.3165,41.9414 48.3165,41.9414 C48.3165,41.9414 49.8805,41.3714 53.1585,44.5224" id="Fill-3" fill="#E63C2F"></path>
                <path d="M60.1633,22.3339 C62.8573,20.8639 64.1233,23.7139 61.6823,29.6479 C60.1593,33.3519 57.2733,37.9189 53.4563,44.1379 C52.3833,45.8869 46.4253,44.4859 47.8473,41.8699 C51.5363,35.0819 57.3713,23.8559 60.1633,22.3339" id="Fill-5" fill="#EB6052"></path>
                <path d="M102.5149,130.2138 C101.7279,129.7678 102.4669,127.2048 103.1029,125.7738 C103.0709,126.2628 103.0769,126.8928 103.6119,126.4738 C104.3929,125.8618 105.3799,123.9908 105.1879,123.0848 C105.7409,123.1988 106.3519,123.5718 106.7439,123.8648 C107.2499,124.2438 102.9859,130.4808 102.5149,130.2138" id="Fill-7" fill="#30193A"></path>
                <path d="M103.6116,126.4736 C103.0776,126.8926 102.5916,126.7856 103.0476,125.8866 C103.4536,125.0826 103.6186,124.3066 103.6546,124.1346 C103.7506,123.6856 103.3006,123.1666 103.3006,123.1666 L103.7566,122.5066 C103.7566,122.5066 105.0266,123.0516 105.1876,123.0846 C105.3806,123.9916 104.3926,125.8626 103.6116,126.4736" id="Fill-9" fill="#F194A5"></path>
                <path d="M88.4768,51.0654 C93.8408,57.7594 88.7818,89.8754 88.7818,89.8754 C88.7818,89.8754 104.4118,122.1064 104.0978,122.6524 L102.5638,124.3784 C100.6728,123.0044 78.3158,100.4514 74.9568,87.9194 C72.2738,77.9034 68.7708,56.8214 65.8908,47.7034 C64.3748,42.9034 84.9388,46.6504 88.4768,51.0654" id="Fill-11" fill="#6A58A1"></path>
                <path d="M36.3977,129.6269 C36.3797,128.7029 38.7977,127.8129 40.3297,127.4809 C39.9157,127.7429 39.4117,128.1209 40.0637,128.3059 C41.0187,128.5749 43.1117,128.2679 43.7297,127.5769 C43.9637,128.0909 44.0237,128.8049 44.0187,129.2939 C44.0117,129.9269 36.4087,130.1679 36.3977,129.6269" id="Fill-13" fill="#30193A"></path>
                <path d="M40.0637,128.3056 C39.4117,128.1206 39.2097,127.6666 40.2057,127.5026 C41.0927,127.3566 41.8177,127.0316 41.9777,126.9596 C42.3967,126.7716 42.5497,126.1036 42.5497,126.1036 L43.3517,126.0806 C43.3517,126.0806 43.6627,127.4276 43.7297,127.5766 C43.1117,128.2676 41.0187,128.5756 40.0637,128.3056" id="Fill-15" fill="#F194A5"></path>
                <path d="M93.0022,65.2099 C90.4212,73.3899 64.3012,86.5749 64.3012,86.5749 L46.9842,126.3799 C46.9962,127.0089 43.0032,126.6989 42.4422,126.4149 C42.4422,126.4149 48.4812,91.3469 52.7172,78.4849 C55.3672,70.4379 79.7732,48.7109 82.2382,46.4109 C84.4742,46.5229 79.3832,39.3719 85.7722,44.8079 C91.9822,50.0939 94.1822,61.4739 93.0022,65.2099" id="Fill-17" fill="#7965A9"></path>
                <path d="M76.3079,19.208 C72.8819,18.91 66.0109,21.127 65.1279,21.148 C61.8829,21.229 58.5619,21.914 57.5859,26.72 C57.0239,29.491 59.0309,32.754 59.4779,34.335 C61.6069,41.863 66.1009,49.08 66.1009,49.08 C66.1009,49.08 69.9029,50.412 76.5289,48.899 C86.4729,46.63 83.2839,44.897 83.2839,44.897 C83.2839,44.897 83.7179,39.9 80.7729,25.84 C80.5829,24.936 80.3369,19.56 76.3079,19.208" id="Fill-19" fill="#E94F45"></path>
                <path d="M67.2141,20.6815887 C63.9681,20.7626 58.3061,21.4986 57.3301,26.3036 C56.7681,29.0766 59.0301,32.7536 59.4781,34.3346 C61.6071,41.8636 66.1011,49.0796 66.1011,49.0796 C66.1011,49.0796 67.3141,50.7956 69.9471,50.3426 C71.5951,50.0596 76.0781,48.2706 76.0781,48.2706 C76.0781,48.2706 70.9671,44.7286 68.9891,37.1546 C66.7821,28.7026 67.6511,20.6706 67.2141,20.6815887" id="Fill-21" fill="#EB6052"></path>
                <path d="M65.4544,18.3017 C65.4544,18.3017 66.2324,21.9647 66.6614,22.2367 C67.0914,22.5077 68.3104,22.5997 68.5624,21.5027 C68.8144,20.4057 67.0414,17.6517 67.0414,17.6517 L65.4544,18.3017 Z" id="Fill-23" fill="#F194A5"></path>
                <path d="M66.1106,20.9355 C66.8366,20.9825 67.7346,20.8035 68.3426,20.1845 C68.1116,19.5525 67.7586,18.8785 67.4786,18.3825 L65.6416,19.1355 C65.7646,19.6585 65.9336,20.3405 66.1106,20.9355" id="Fill-25" fill="#C95E78"></path>
                <path d="M62.0813,16.7421 C61.9243,16.2921 62.1383,14.6801 62.3583,13.3371 C62.5423,12.2221 63.6093,11.4821 64.7193,11.6931 C66.4373,12.0191 68.3203,12.4831 68.7913,12.8911 C69.5293,13.5341 69.3933,14.7031 69.3103,15.5751 C69.2273,16.4441 68.7673,17.9731 68.1483,18.6331 C67.5843,19.2351 66.1133,19.6441 65.3253,19.5271 C62.9583,19.1751 62.3613,18.4741 62.0813,16.7421" id="Fill-27" fill="#F194A5"></path>
                <g id="Group-31" transform="translate(61.000000, 0.647000)">
                    <mask id="mask-2" fill="white">
                        <use xlink:href="#path-1"></use>
                    </mask>
                    <g id="Clip-30"></g>
                    <path d="M1.0305,15.6615 C0.5225,14.1765 0.5025,12.5545 0.7305,10.9995 C0.9755,9.4455 1.4245,7.8935 2.3195,6.5325 C3.2295,5.1595 4.8775,4.2935 6.5435,4.3025 C8.2035,4.2835 9.8635,4.9845 11.0045,6.2315 L10.2785,6.4125 C10.5475,5.2185 10.9845,4.0345 11.6925,2.9765 C12.3905,1.9185 13.4695,1.0555 14.7065,0.6565 C15.9135,0.2455 17.3265,0.2215 18.5415,0.7715 C19.7605,1.2875 20.7595,2.4015 21.0635,3.7375 L20.6675,3.3495 C22.0635,3.6325 23.4715,2.7475 25.0795,2.1695 C26.7615,1.6155 28.4925,1.6055 30.1765,1.9055 C31.8625,2.2175 33.4545,2.9765 34.7895,4.0295 C36.1205,5.0795 37.2385,6.5245 37.6245,8.2555 L37.0185,8.0465 C38.1055,7.1905 39.3675,6.6115 40.6635,6.2375 C41.9635,5.8675 43.3045,5.6795 44.6425,5.6665 C47.3095,5.6575 49.9965,6.1535 52.3725,7.3255 C49.9165,6.3545 47.2595,5.9765 44.6605,6.1375 C42.0815,6.3025 39.4475,6.9945 37.4955,8.6275 C37.3375,8.7605 37.1015,8.7395 36.9685,8.5815 C36.9325,8.5365 36.9075,8.4865 36.8935,8.4335 L36.8895,8.4185 C36.5175,6.9355 35.4625,5.6865 34.2425,4.7265 C32.9995,3.7705 31.5465,3.0975 30.0075,2.8305 C28.4835,2.5665 26.8315,2.6125 25.4075,3.1065 C24.6785,3.3645 23.9545,3.7425 23.1465,4.0445 C22.3515,4.3545 21.3965,4.5395 20.4675,4.3485 L20.4625,4.3485 C20.2595,4.3075 20.1115,4.1495 20.0705,3.9615 C19.8505,2.9575 19.1125,2.0925 18.1415,1.6665 C17.1745,1.2175 16.0435,1.2105 14.9965,1.5515 C13.9585,1.8775 13.0615,2.5665 12.4345,3.4885 C11.7965,4.4055 11.3985,5.4965 11.0985,6.6105 L11.0935,6.6295 C11.0335,6.8515 10.8045,6.9835 10.5825,6.9245 C10.4975,6.9005 10.4255,6.8535 10.3725,6.7915 C9.4395,5.6965 8.0005,5.0205 6.5405,4.9915 C5.0755,4.9405 3.6245,5.6325 2.7555,6.8435 C1.8815,8.0605 1.3335,9.5475 1.0195,11.0505 C0.7235,12.5585 0.6435,14.1435 1.0305,15.6615" id="Fill-29" fill="#F8DC9C" mask="url(#mask-2)"></path>
                </g>
                <path d="M144.1546,6.4609 C144.1546,6.4609 145.4416,4.8989 148.3666,4.3979 C151.2926,3.8969 152.9086,7.0109 153.5776,8.6309 C154.2466,10.2509 154.6366,14.0409 157.3116,15.6019 C159.9876,17.1629 163.5546,16.7329 166.5646,18.2019 C168.4676,19.1309 169.6806,20.9659 170.3146,22.1899 C170.6106,22.7589 170.2796,23.4449 169.6496,23.5709 C168.2056,23.8609 165.7916,24.6459 164.2706,26.7499 C161.9846,29.9119 153.8006,34.8079 147.9476,34.2629 C142.0946,33.7179 134.5146,25.9049 136.3536,18.6119 C138.1936,11.3179 139.7546,8.2439 140.5906,7.0739 C141.4256,5.9029 144.0406,4.6209 144.1546,6.4609" id="Fill-32" fill="#C43C72"></path>
                <path d="M136.0735,20.4697 C136.2345,18.8867 136.4955,17.3117 136.8505,15.7567 C137.2185,14.2057 137.6185,12.6527 138.2095,11.1567 C138.8035,9.6587 139.4705,8.1997 140.4275,6.8477 C140.9055,6.1937 141.5245,5.5037 142.4615,5.2527 C142.6885,5.1957 142.9255,5.1747 143.1395,5.1787 L143.4655,5.1887 C143.6005,5.1987 143.7415,5.2307 143.8775,5.2937 C144.1555,5.4167 144.3615,5.6897 144.4395,5.9407 C144.5275,6.1957 144.5345,6.4347 144.5255,6.6607 L143.8655,6.4887 C144.4455,5.5737 145.2825,5.0697 146.1745,4.7247 C147.0775,4.4067 147.9925,4.2637 148.9475,4.2747 C149.8995,4.3187 150.8355,4.6677 151.5485,5.2817 C152.3005,5.8767 152.6305,6.7757 153.0755,7.5507 C152.5215,6.8337 152.1245,5.9887 151.3755,5.5057 C150.6535,5.0117 149.7935,4.7477 148.9365,4.7537 C148.0865,4.7907 147.1915,4.9817 146.4075,5.3137 C145.6355,5.6347 144.8685,6.1667 144.4885,6.8037 L144.4755,6.8247 C144.3775,6.9907 144.1635,7.0447 143.9985,6.9467 C143.8845,6.8787 143.8235,6.7557 143.8285,6.6317 C143.8435,6.2797 143.7435,6.0047 143.5765,5.9487 C143.5315,5.9287 143.4755,5.9167 143.4135,5.9127 L143.1435,5.9107 C142.9615,5.9107 142.8005,5.9307 142.6435,5.9737 C142.0175,6.1387 141.4955,6.7087 141.0375,7.3037 C140.1335,8.5287 139.4335,9.9667 138.8335,11.4057 C137.6315,14.3077 136.7975,17.3777 136.0735,20.4697" id="Fill-34" fill="#E15495"></path>
                <path d="M169.0784,124.7246 C163.5654,121.0736 146.6004,103.0886 144.3874,98.3196 C141.2514,91.5666 144.3874,65.8786 144.3874,65.8786 C144.3874,65.8786 117.8004,130.0066 116.9384,129.6846 C116.8564,129.6546 115.7644,131.6846 115.8074,130.2976 C116.0824,121.3986 125.0714,81.8656 126.0644,76.1826 C126.5194,73.5786 132.7924,50.0526 134.7604,48.1446 C146.1534,37.0946 153.0774,45.2926 153.0774,45.2926 C167.0304,56.6806 153.0964,94.8646 153.0964,94.8646 C153.0964,94.8646 166.6904,118.1556 170.4244,124.7656 L169.0784,124.7246 Z" id="Fill-36" fill="#F194A5"></path>
                <g id="Group-40" transform="translate(109.000000, 127.647000)">
                    <mask id="mask-4" fill="white">
                        <use xlink:href="#path-3"></use>
                    </mask>
                    <g id="Clip-39"></g>
                    <path d="M0.1526,1.2836 C2.6646,0.1626 3.3376,1.2666 4.7816,1.9756 C4.2676,1.9346 3.6016,1.9346 3.9856,2.5206 C4.5476,3.3776 6.4176,4.4736 7.3966,4.2746 C7.2146,4.8746 6.7556,5.5346 6.4036,5.9586 C5.9486,6.5046 -0.3904,1.5266 0.1526,1.2836" id="Fill-38" fill="#30193A" mask="url(#mask-4)"></path>
                </g>
                <path d="M112.6712,129.9238 C112.2352,129.2988 112.3842,128.7598 113.3662,129.3268 C114.2422,129.8338 115.3412,130.3518 115.5322,130.4038 C116.0292,130.5398 116.6622,128.3618 116.6622,128.3618 L117.9002,127.9838 C117.9002,127.9838 116.9972,130.5348 116.7892,131.0328 C116.6462,131.3758 116.3962,131.8338 116.3772,131.9058 C115.3472,132.0668 113.3092,130.8398 112.6712,129.9238" id="Fill-41" fill="#F194A5"></path>
                <path d="M166.9046,131.3349 C166.2476,129.2659 167.6706,128.2379 168.7076,126.9159 C168.5416,127.4099 168.3786,128.0579 169.0366,127.7509 C169.9996,127.3029 171.5126,125.6099 171.5616,124.6359 C172.0946,124.8799 172.6176,125.4019 172.9386,125.7929 C173.3526,126.2969 167.0746,131.8699 166.9046,131.3349" id="Fill-43" fill="#30193A"></path>
                <path d="M169.0364,127.7509 C168.3784,128.0579 167.9114,127.8379 168.6194,127.0199 C169.2514,126.2879 169.2884,125.7859 169.3684,125.6169 C169.7774,124.7629 166.5124,122.3459 166.5124,122.3459 L168.7414,122.3459 C168.7414,122.3459 170.4194,123.8549 170.8374,124.1229 C171.1254,124.3069 171.4984,124.6069 171.5614,124.6359 C171.5134,125.6099 169.9994,127.3029 169.0364,127.7509" id="Fill-45" fill="#F194A5"></path>
                <path d="M152.0198,44.5351 C152.0198,44.5351 157.6238,44.1601 162.2368,69.3351 C162.9448,73.1971 164.3388,83.2591 163.9958,84.9421 L155.3258,85.7231 L154.9908,67.9971 L152.8558,85.8711 C152.8558,85.8711 144.9308,87.2761 137.1158,85.2531 C125.6318,82.2801 125.676799,78.4401 125.676799,78.4401 C125.676799,78.4401 127.3308,67.5241 128.9098,62.8941 C130.7678,57.4421 134.9288,43.6571 134.9288,43.6571 L152.0198,44.5351 Z" id="Fill-47" fill="#3C2B5B"></path>
                <path d="M152.0198,44.5351 C152.0198,44.5351 157.6238,44.1601 162.2368,69.3351 C162.9448,73.1971 164.3388,83.2591 163.9958,84.9421 L155.3258,85.7231 L154.9908,67.9971 L152.8558,85.8711 C152.8558,85.8711 145.5138,87.1731 137.9948,85.4671 C137.7018,85.4001 137.1158,85.2531 137.1158,85.2531 C137.1158,85.2531 139.8188,75.0181 142.2828,65.1691 C144.7948,55.1181 141.4458,43.9921 141.4458,43.9921 L152.0198,44.5351 Z" id="Fill-49" fill="#30193A"></path>
                <path d="M135.8167,19.8007 C140.3057,17.6947 140.1457,25.8247 127.4707,40.2297 C126.0997,41.7867 121.3337,39.1967 123.2057,36.8357 C128.0647,30.7107 133.1707,21.0417 135.8167,19.8007" id="Fill-51" fill="#D5EAF5"></path>
                <path d="M127.385,40.1826 C127.385,40.1826 113.403,50.8916 109.187,51.6456 C108.867,51.7036 108.544,51.6386 108.262,51.4796 C106.323,50.3856 102.374,47.2436 109.845,41.9566 C118.285,35.9846 125.871,34.2626 125.871,34.2626 C125.871,34.2626 125.052,35.9956 127.385,40.1826" id="Fill-53" fill="#D5EAF5"></path>
                <path d="M138.1507,18.7158 C141.7927,17.6288 150.0117,18.3088 154.6127,20.3528 C159.7497,22.6348 156.2537,31.7098 156.2537,31.7098 C153.7747,40.6368 153.5977,42.6158 153.5787,45.6268 C152.7327,46.0468 139.7017,49.8888 134.9287,44.5258 C133.7517,40.6458 133.5477,36.0508 133.2527,32.7768 C132.4347,23.7468 134.4297,19.8268 138.1507,18.7158" id="Fill-55" fill="#D5EAF5"></path>
                <path d="M144.387,18.2431 C147.934,18.4171 151.902,19.1471 154.613,20.3521 C159.749,22.6351 156.253,31.7101 156.253,31.7101 C153.775,40.6371 153.598,42.6161 153.578,45.6271 C153.041,45.8931 147.58,47.5431 142.448,47.3331 C140.849,47.2661 140.829,38.6581 141.541,30.8231 C142.14,24.2311 143.257,18.1871 144.387,18.2431" id="Fill-57" fill="#BCD7EC"></path>
                <path d="M144.9827,13.081 C144.9827,13.081 145.2417,18.754 144.9097,19.366 C144.5767,19.978 143.4467,20.738 142.9097,19.29 C142.3727,17.841 143.3017,12.964 143.3017,12.964 L144.9827,13.081 Z" id="Fill-59" fill="#F194A5"></path>
                <path d="M145.1253,11.2763 C145.1253,11.2763 145.1583,16.8483 145.0943,17.5423 C145.0443,18.0763 142.8933,17.2423 142.8073,16.5423 C142.6163,14.9983 143.4453,11.1583 143.4453,11.1583 L145.1253,11.2763 Z" id="Fill-61" fill="#C95E78"></path>
                <path d="M140.051,12.9248 C139.997,12.4768 140.52,11.0288 140.995,9.8288 C141.389,8.8358 142.527,8.3648 143.51,8.7838 C145.034,9.4328 146.684,10.2408 147.036,10.7138 C147.59,11.4568 147.228,12.5108 146.976,13.3008 C146.724,14.0898 145.989,15.4108 145.285,15.8968 C144.641,16.3398 143.198,16.4228 142.492,16.1548 C140.372,15.3528 139.962,14.5838 140.051,12.9248" id="Fill-63" fill="#F194A5"></path>
                <path d="M143.1145,7.5751 C143.0075,7.7421 143.1185,12.5361 146.9085,15.6011 C150.6985,18.6681 150.5825,16.6451 150.5825,16.6451 C150.5825,16.6451 147.4105,7.6311 145.6815,7.5751 C143.9545,7.5191 143.1145,7.5751 143.1145,7.5751" id="Fill-65" fill="#C43C72"></path>
                <polygon id="Fill-67" fill="#F39835" points="179.8352 52.7089 176.8522 58.8479 29.6992 59.1909 29.5942 53.0599"></polygon>
                <polygon id="Fill-69" fill="#F6AF13" points="179.7298 46.5771 179.8348 52.7091 29.5938 53.0591 29.4898 46.9281"></polygon>
                <polygon id="Fill-71" fill="#FDCA4A" points="176.5364 40.4531 179.7294 46.5771 29.4894 46.9281 29.3844 40.7971"></polygon>
                <g id="Group-75" transform="translate(0.000000, 45.647000)">
                    <mask id="mask-6" fill="white">
                        <use xlink:href="#path-5"></use>
                    </mask>
                    <g id="Clip-74"></g>
                    <path d="M15.3528,0.9028 L0.5558,4.0138 C-0.1712,4.1678 -0.1912,5.3148 0.5318,5.4268 L15.7168,7.9938 L15.3528,0.9028 Z" id="Fill-73" fill="#30193A" mask="url(#mask-6)"></path>
                </g>
                <path d="M28.9173,40.7978 C28.9173,40.7978 11.7073,47.3038 11.1993,47.4228 C9.1433,47.9048 8.4373,51.5498 11.0123,52.8458 C13.2173,53.9548 20.8943,56.5558 29.6993,59.1918 L30.8083,59.1888 L30.3343,53.0428 L31.7443,47.5498 L30.0593,46.9268 L31.3473,46.2418 L29.9683,40.7948 L28.9173,40.7978 Z" id="Fill-76" fill="#FEE5B1"></path>
                <path d="M35.3606,56.1435 L35.3606,56.1435 C35.3786,57.8545 33.0806,59.2215 30.2256,59.1965 L29.6996,59.1915 L29.6326,52.9935 L30.1606,52.9975 C33.0136,53.0235 35.3416,54.4315 35.3606,56.1435" id="Fill-78" fill="#FEE5B1"></path>
                <path d="M35.176,50.041 L35.176,50.041 C35.195,51.752 32.896,53.119 30.042,53.094 L29.516,53.089 L29.449,46.891 L29.976,46.895 C32.829,46.921 35.158,48.329 35.176,50.041" id="Fill-80" fill="#FEE5B1"></path>
                <path d="M34.7229,43.9355 L34.7229,43.9355 C34.7419,45.6475 32.4429,47.0145 29.5889,46.9895 L29.0629,46.9845 L28.9959,40.7865 L29.5229,40.7905 C32.3759,40.8165 34.7049,42.2245 34.7229,43.9355" id="Fill-82" fill="#FEE5B1"></path>
                <polygon id="Fill-84" fill="#FEE5B1" points="173.0637 46.5771 176.5367 40.4531 179.8247 45.8931 179.8577 53.4551 176.8517 58.8481 173.0177 52.7211"></polygon>
                <path d="M176.6106,52.2158 C176.1286,52.2158 175.7376,51.1428 175.7376,49.8188 C175.7376,48.4948 176.1286,47.4218 176.6106,47.4218 C177.0926,47.4218 177.4836,48.4948 177.4836,49.8188 C177.4836,51.1428 177.0926,52.2158 176.6106,52.2158" id="Fill-86" fill="#30193A"></path>
                <path d="M151.7053,20.6181 C155.4023,18.3131 161.0363,23.8281 163.9513,41.0361 C164.2673,42.8951 162.8433,45.8891 161.0583,46.5001 L157.7843,47.3281 C157.7843,47.3281 158.3563,43.4881 157.7623,40.8121 C156.2183,33.8701 152.2273,23.2241 151.7053,20.6181" id="Fill-88" fill="#BCD7EC"></path>
                <path d="M147.3274,57.5917 C147.3274,57.5917 146.7994,59.3027 146.0724,59.6367 C145.4164,59.9377 144.6104,60.0077 144.2844,59.8577 C143.5964,59.5387 141.4264,59.4257 141.4454,59.1767 C141.4644,58.9417 144.0824,58.5647 143.9924,58.2377 C143.9614,58.1257 142.8984,57.6187 142.9234,57.5187 C143.0624,56.9327 144.3734,57.5107 145.0914,57.2577 C145.4524,57.1297 146.5104,55.8397 147.3274,57.5917" id="Fill-90" fill="#EE7E86"></path>
                <path d="M163.2307,44.1396 C163.2307,44.1396 153.0367,58.3106 149.4727,59.8826 C149.2027,60.0006 148.9037,60.0146 148.6197,59.9346 C146.6697,59.3846 142.3317,56.6246 147.7977,50.3476 C153.9757,43.2546 159.9187,39.9336 159.9187,39.9336 C159.9187,39.9336 160.2687,40.9406 163.2307,44.1396" id="Fill-92" fill="#BCD7EC"></path>
                <path d="M69.7239,57.5917 C69.7239,57.5917 69.1959,59.3027 68.4689,59.6367 C67.8129,59.9377 67.0059,60.0077 66.6809,59.8577 C65.9929,59.5387 63.8229,59.4257 63.8419,59.1767 C63.8609,58.9417 66.4789,58.5647 66.3889,58.2377 C66.3579,58.1257 65.2949,57.6187 65.3199,57.5187 C65.4589,56.9327 66.7699,57.5107 67.4879,57.2577 C67.8489,57.1297 68.9069,55.8397 69.7239,57.5917" id="Fill-94" fill="#EE7E86"></path>
                <path d="M73.5442,19.5566 C77.6962,17.0836 84.9372,21.8276 92.3652,40.4836 C93.6762,43.7736 91.4472,46.7986 89.5112,47.8486 L86.6172,48.8066 C86.6172,48.8066 86.4182,44.3786 85.1252,41.4966 C81.7702,34.0196 74.7372,22.3746 73.5442,19.5566" id="Fill-96" fill="#E94F45"></path>
                <path d="M90.0706,47.3955 C90.0706,47.3955 75.4826,59.3465 70.8216,60.2765 C70.4686,60.3465 70.1206,60.2735 69.8246,60.0875 C67.7906,58.8085 63.7186,55.1205 72.2816,48.7935 C81.9556,41.6455 90.3716,39.5415 90.3716,39.5415 C90.3716,39.5415 87.8426,42.4575 90.0706,47.3955" id="Fill-98" fill="#E94F45"></path>
            </g>
        </g>
    </g>
</svg>