<?xml version="1.0" encoding="UTF-8"?><svg xmlns="http://www.w3.org/2000/svg" xmlns:xlink="http://www.w3.org/1999/xlink" viewBox="0 0 397.25 179.14"><defs><style>.cls-1{clip-path:url(#clippath);}.cls-2,.cls-3{fill:#fff;}.cls-3{fill-rule:evenodd;}</style><clipPath id="clippath"><rect class="cls-2" x="55.67" y="59.24" width=".02" height=".02"/></clipPath></defs><g id="Text"><rect class="cls-2" width="4.2" height="179.13"/><g><path class="cls-2" d="m33.84,92.76c5.51,0,9.75,1.4,12.72,4.21,2.97,2.8,4.46,7.08,4.46,12.82,0,3-.33,5.67-1,7.99-.67,2.32-1.7,4.27-3.1,5.86-1.4,1.59-3.19,2.8-5.36,3.63-2.17.83-4.74,1.25-7.71,1.25h-12.27v-35.75h12.27Zm.4,31.74c.53,0,1.2-.04,2-.13.8-.08,1.65-.28,2.55-.6.9-.32,1.79-.78,2.68-1.38.88-.6,1.68-1.42,2.38-2.45.7-1.03,1.28-2.33,1.73-3.88s.68-3.43.68-5.63-.21-4.05-.63-5.73c-.42-1.69-1.1-3.12-2.05-4.31-.95-1.18-2.18-2.09-3.68-2.7-1.5-.62-3.35-.93-5.56-.93h-8.01v27.74h7.91Z"/><path class="cls-2" d="m74.11,126.85c-1.94,1.47-4.37,2.2-7.31,2.2-2.07,0-3.86-.33-5.38-1-1.52-.67-2.8-1.6-3.83-2.8-1.04-1.2-1.81-2.64-2.33-4.31-.52-1.67-.81-3.49-.88-5.46,0-1.97.3-3.77.9-5.41.6-1.63,1.44-3.05,2.53-4.26,1.08-1.2,2.37-2.13,3.85-2.8,1.48-.67,3.11-1,4.88-1,2.3,0,4.21.48,5.73,1.43,1.52.95,2.74,2.16,3.65,3.63.92,1.47,1.55,3.07,1.9,4.81.35,1.74.49,3.39.43,4.96h-19.38c-.03,1.14.1,2.21.4,3.23.3,1.02.78,1.92,1.45,2.7.67.78,1.52,1.41,2.55,1.88,1.03.47,2.25.7,3.65.7,1.8,0,3.28-.42,4.43-1.25,1.15-.83,1.91-2.1,2.28-3.8h4.21c-.57,2.9-1.82,5.09-3.75,6.56Zm-1.03-16.62c-.38-.9-.9-1.68-1.55-2.33-.65-.65-1.42-1.17-2.3-1.55-.88-.38-1.86-.58-2.93-.58s-2.09.19-2.98.58c-.88.38-1.64.91-2.28,1.58-.63.67-1.14,1.44-1.5,2.33-.37.88-.58,1.83-.65,2.83h14.87c-.07-1-.29-1.95-.68-2.85Z"/><path class="cls-2" d="m86.68,102.62v3.5h.1c.7-1.43,1.8-2.48,3.3-3.13,1.5-.65,3.15-.98,4.96-.98,2,0,3.75.37,5.23,1.1,1.48.73,2.72,1.73,3.71,2.98.98,1.25,1.73,2.7,2.23,4.33.5,1.64.75,3.37.75,5.21s-.24,3.57-.73,5.21c-.48,1.64-1.22,3.06-2.2,4.28-.98,1.22-2.22,2.18-3.7,2.88-1.49.7-3.21,1.05-5.18,1.05-.63,0-1.34-.07-2.13-.2-.78-.13-1.56-.35-2.33-.65-.77-.3-1.49-.71-2.18-1.23-.68-.52-1.26-1.16-1.73-1.93h-.1v13.32h-4.26v-35.75h4.26Zm15.29,9.19c-.32-1.15-.8-2.18-1.45-3.08s-1.49-1.62-2.5-2.15c-1.02-.53-2.21-.8-3.58-.8-1.44,0-2.65.28-3.65.85-1,.57-1.82,1.31-2.45,2.23-.63.92-1.09,1.96-1.38,3.13-.28,1.17-.43,2.35-.43,3.56,0,1.27.15,2.5.45,3.68s.78,2.23,1.43,3.13,1.49,1.63,2.53,2.18c1.03.55,2.29.83,3.75.83s2.7-.28,3.68-.85c.98-.57,1.78-1.32,2.38-2.25.6-.93,1.03-2,1.3-3.2.27-1.2.4-2.44.4-3.71,0-1.2-.16-2.38-.48-3.53Z"/><path class="cls-2" d="m134.2,128.4c-.73.43-1.75.65-3.05.65-1.1,0-1.98-.31-2.63-.93-.65-.62-.98-1.63-.98-3.03-1.17,1.4-2.53,2.41-4.08,3.03-1.55.62-3.23.93-5.03.93-1.17,0-2.28-.13-3.33-.4-1.05-.27-1.96-.68-2.73-1.25-.77-.57-1.38-1.31-1.83-2.23-.45-.92-.68-2.03-.68-3.33,0-1.47.25-2.67.75-3.6.5-.93,1.16-1.69,1.98-2.28.82-.58,1.75-1.03,2.8-1.33,1.05-.3,2.13-.55,3.23-.75,1.17-.23,2.28-.41,3.33-.53,1.05-.12,1.98-.28,2.78-.5.8-.22,1.43-.53,1.9-.95.47-.42.7-1.03.7-1.83,0-.93-.18-1.68-.53-2.25-.35-.57-.8-1-1.35-1.3-.55-.3-1.17-.5-1.85-.6-.68-.1-1.36-.15-2.03-.15-1.8,0-3.3.34-4.51,1.03-1.2.68-1.85,1.98-1.95,3.88h-4.26c.07-1.6.4-2.95,1-4.05.6-1.1,1.4-1.99,2.4-2.68,1-.68,2.14-1.18,3.43-1.48,1.28-.3,2.66-.45,4.13-.45,1.17,0,2.33.08,3.48.25,1.15.17,2.19.51,3.13,1.02.93.52,1.69,1.24,2.25,2.17.57.93.85,2.15.85,3.65v13.29c0,1,.06,1.73.18,2.2.12.47.51.7,1.18.7.37,0,.8-.07,1.3-.2v3.3Zm-6.91-13.27c-.53.4-1.24.69-2.1.87-.87.18-1.78.33-2.73.45s-1.91.25-2.88.4c-.97.15-1.84.39-2.6.72-.77.33-1.39.81-1.88,1.42-.48.62-.73,1.45-.73,2.52,0,.7.14,1.29.43,1.77.28.48.65.87,1.1,1.17s.98.51,1.58.65c.6.13,1.23.2,1.9.2,1.4,0,2.6-.19,3.6-.57,1-.38,1.82-.86,2.45-1.44.63-.58,1.1-1.21,1.4-1.89s.45-1.32.45-1.92v-4.33Z"/><path class="cls-2" d="m141.67,102.62v5.46h.1c1.03-2.1,2.3-3.66,3.81-4.66,1.5-1,3.4-1.47,5.71-1.4v4.51c-1.7,0-3.15.23-4.36.7-1.2.47-2.17,1.15-2.9,2.05-.73.9-1.27,2-1.6,3.28-.33,1.29-.5,2.76-.5,4.43v11.52h-4.26v-25.88h4.01Z"/><path class="cls-2" d="m166.64,102.62v3.75h-5.16v16.07c0,.5.04.9.12,1.2.08.3.24.53.48.7.23.17.56.28.98.33.42.05.96.08,1.63.08h1.95v3.75h-3.25c-1.1,0-2.04-.08-2.83-.23-.78-.15-1.42-.42-1.9-.83-.48-.4-.84-.97-1.08-1.7-.23-.73-.35-1.7-.35-2.9v-16.47h-4.41v-3.75h4.41v-7.76h4.26v7.76h5.16Z"/><path class="cls-2" d="m174.44,102.62v3.81h.1c1.94-2.94,4.72-4.41,8.36-4.41,1.6,0,3.05.33,4.36,1,1.3.67,2.22,1.8,2.75,3.41.87-1.4,2.01-2.49,3.43-3.25,1.42-.77,2.98-1.15,4.68-1.15,1.3,0,2.48.14,3.53.43,1.05.28,1.95.73,2.7,1.33.75.6,1.33,1.38,1.75,2.33.42.95.63,2.1.63,3.43v18.98h-4.26v-16.97c0-.8-.07-1.55-.2-2.25-.13-.7-.38-1.31-.75-1.83-.37-.52-.88-.93-1.53-1.23-.65-.3-1.49-.45-2.53-.45-2.1,0-3.75.6-4.96,1.8-1.2,1.2-1.8,2.8-1.8,4.81v16.12h-4.26v-16.97c0-.83-.08-1.6-.23-2.3-.15-.7-.41-1.31-.78-1.83-.37-.52-.86-.92-1.48-1.2-.62-.28-1.41-.43-2.38-.43-1.24,0-2.3.25-3.18.75-.88.5-1.6,1.1-2.15,1.8s-.95,1.43-1.2,2.18-.38,1.38-.38,1.88v16.12h-4.26v-25.88h4.01Z"/><path class="cls-2" d="m230.8,126.85c-1.94,1.47-4.37,2.2-7.31,2.2-2.07,0-3.86-.33-5.38-1-1.52-.67-2.8-1.6-3.83-2.8-1.04-1.2-1.81-2.64-2.33-4.31-.52-1.67-.81-3.49-.88-5.46,0-1.97.3-3.77.9-5.41.6-1.63,1.44-3.05,2.53-4.26,1.08-1.2,2.37-2.13,3.85-2.8,1.48-.67,3.11-1,4.88-1,2.3,0,4.21.48,5.73,1.43,1.52.95,2.74,2.16,3.65,3.63.92,1.47,1.55,3.07,1.9,4.81.35,1.74.49,3.39.43,4.96h-19.38c-.03,1.14.1,2.21.4,3.23.3,1.02.78,1.92,1.45,2.7.67.78,1.52,1.41,2.55,1.88,1.03.47,2.25.7,3.65.7,1.8,0,3.28-.42,4.43-1.25,1.15-.83,1.91-2.1,2.28-3.8h4.21c-.57,2.9-1.82,5.09-3.75,6.56Zm-1.03-16.62c-.38-.9-.9-1.68-1.55-2.33-.65-.65-1.42-1.17-2.3-1.55-.88-.38-1.86-.58-2.93-.58s-2.09.19-2.98.58c-.88.38-1.64.91-2.28,1.58-.63.67-1.14,1.44-1.5,2.33-.37.88-.58,1.83-.65,2.83h14.87c-.07-1-.29-1.95-.68-2.85Z"/><path class="cls-2" d="m243.05,102.62v4.11h.1c1.77-3.14,4.57-4.71,8.41-4.71,1.7,0,3.12.23,4.26.7,1.13.47,2.05,1.12,2.75,1.95.7.83,1.19,1.83,1.48,2.98.28,1.15.43,2.43.43,3.83v17.02h-4.26v-17.52c0-1.6-.47-2.87-1.4-3.8-.93-.93-2.22-1.4-3.85-1.4-1.3,0-2.43.2-3.38.6-.95.4-1.74.97-2.38,1.7-.63.73-1.11,1.59-1.43,2.58-.32.98-.48,2.06-.48,3.23v14.62h-4.26v-25.88h4.01Z"/><path class="cls-2" d="m277.02,102.62v3.75h-5.16v16.07c0,.5.04.9.12,1.2.08.3.24.53.48.7.23.17.56.28.98.33.42.05.96.08,1.63.08h1.95v3.75h-3.25c-1.1,0-2.04-.08-2.83-.23-.78-.15-1.42-.42-1.9-.83-.48-.4-.84-.97-1.08-1.7-.23-.73-.35-1.7-.35-2.9v-16.47h-4.41v-3.75h4.41v-7.76h4.26v7.76h5.16Z"/><path class="cls-2" d="m293.04,106.37v-3.75h4.36v-3.85c0-2.1.61-3.7,1.83-4.78,1.22-1.08,3-1.63,5.33-1.63.4,0,.86.03,1.38.1.52.07.98.17,1.38.3v3.71c-.37-.13-.77-.23-1.2-.28-.43-.05-.83-.08-1.2-.08-1.04,0-1.84.2-2.4.6-.57.4-.85,1.17-.85,2.3v3.6h5.01v3.75h-5.01v22.13h-4.26v-22.13h-4.36Z"/><path class="cls-2" d="m308.66,110.26c.53-1.65,1.33-3.09,2.4-4.31,1.07-1.22,2.39-2.18,3.96-2.88,1.57-.7,3.37-1.05,5.41-1.05s3.88.35,5.43,1.05c1.55.7,2.86,1.66,3.93,2.88,1.07,1.22,1.87,2.65,2.4,4.31.53,1.65.8,3.43.8,5.33s-.27,3.67-.8,5.31c-.53,1.64-1.34,3.06-2.4,4.28-1.07,1.22-2.38,2.17-3.93,2.85-1.55.68-3.36,1.03-5.43,1.03s-3.84-.34-5.41-1.03c-1.57-.68-2.89-1.63-3.96-2.85-1.07-1.22-1.87-2.65-2.4-4.28-.53-1.63-.8-3.4-.8-5.31s.27-3.68.8-5.33Zm4.33,9.51c.42,1.22.99,2.24,1.73,3.05.73.82,1.59,1.44,2.58,1.88.98.43,2.03.65,3.13.65s2.14-.22,3.13-.65c.98-.43,1.84-1.06,2.58-1.88.73-.82,1.31-1.83,1.73-3.05.42-1.22.63-2.61.63-4.18s-.21-2.96-.63-4.18c-.42-1.22-.99-2.24-1.73-3.08-.73-.83-1.59-1.47-2.58-1.9-.99-.43-2.03-.65-3.13-.65s-2.15.22-3.13.65c-.98.43-1.84,1.07-2.58,1.9-.73.83-1.31,1.86-1.73,3.08-.42,1.22-.63,2.61-.63,4.18s.21,2.96.63,4.18Z"/><path class="cls-2" d="m341.35,102.62v5.46h.1c1.03-2.1,2.3-3.66,3.81-4.66,1.5-1,3.4-1.47,5.71-1.4v4.51c-1.7,0-3.15.23-4.36.7-1.2.47-2.17,1.15-2.9,2.05-.73.9-1.27,2-1.6,3.28-.33,1.29-.5,2.76-.5,4.43v11.52h-4.26v-25.88h4.01Z"/><path class="cls-2" d="m34.54,142.84c.77,0,1.59,0,2.48.03.88.02,1.76.07,2.63.15.87.08,1.68.21,2.43.38.75.17,1.39.42,1.93.75,1.17.7,2.16,1.67,2.98,2.9.82,1.24,1.23,2.75,1.23,4.56,0,1.9-.46,3.55-1.38,4.93-.92,1.39-2.23,2.41-3.93,3.08v.1c2.2.47,3.89,1.47,5.06,3,1.17,1.54,1.75,3.4,1.75,5.61,0,1.3-.23,2.57-.7,3.8-.47,1.24-1.16,2.33-2.08,3.28-.92.95-2.05,1.72-3.4,2.3-1.35.58-2.91.88-4.68.88h-17.27v-35.75h12.97Zm1.3,15.37c2.7,0,4.65-.48,5.83-1.43,1.18-.95,1.78-2.38,1.78-4.28,0-1.27-.2-2.27-.6-3-.4-.73-.95-1.3-1.65-1.7-.7-.4-1.51-.66-2.43-.78-.92-.12-1.89-.17-2.93-.17h-9.51v11.37h9.51Zm2.4,16.37c2.1,0,3.75-.57,4.93-1.7,1.18-1.13,1.78-2.7,1.78-4.71,0-1.17-.22-2.14-.65-2.9-.43-.77-1.01-1.38-1.73-1.83-.72-.45-1.54-.77-2.48-.95-.93-.18-1.9-.28-2.9-.28h-10.86v12.37h11.92Z"/><path class="cls-2" d="m71.9,178.58v-4.11h-.1c-.9,1.6-2.05,2.78-3.45,3.53s-3.05,1.13-4.96,1.13c-1.7,0-3.12-.23-4.26-.68-1.13-.45-2.05-1.09-2.75-1.93-.7-.83-1.19-1.83-1.48-2.98-.28-1.15-.43-2.43-.43-3.83v-17.02h4.26v17.52c0,1.6.47,2.87,1.4,3.81.93.93,2.22,1.4,3.85,1.4,1.3,0,2.43-.2,3.38-.6.95-.4,1.74-.97,2.38-1.7.63-.73,1.11-1.59,1.43-2.58.32-.98.48-2.06.48-3.23v-14.62h4.26v25.88h-4.01Z"/><path class="cls-2" d="m85.1,172.8c.4.65.93,1.17,1.58,1.55s1.38.66,2.2.83c.82.17,1.66.25,2.53.25.67,0,1.37-.05,2.1-.15.73-.1,1.41-.28,2.03-.55.62-.27,1.13-.66,1.53-1.18.4-.52.6-1.18.6-1.98,0-1.1-.42-1.93-1.25-2.5-.83-.57-1.88-1.03-3.13-1.38s-2.61-.67-4.08-.95c-1.47-.28-2.83-.68-4.08-1.2-1.25-.52-2.29-1.24-3.13-2.18-.83-.93-1.25-2.24-1.25-3.9,0-1.3.29-2.42.88-3.35.58-.93,1.33-1.69,2.25-2.28.92-.58,1.95-1.02,3.1-1.3,1.15-.28,2.29-.43,3.43-.43,1.47,0,2.82.12,4.06.38,1.23.25,2.33.68,3.28,1.3s1.71,1.45,2.28,2.5c.57,1.05.9,2.36,1,3.93h-4.26c-.07-.83-.28-1.53-.65-2.08-.37-.55-.83-.99-1.4-1.33-.57-.33-1.19-.58-1.88-.73-.68-.15-1.38-.23-2.08-.23-.63,0-1.28.05-1.93.15s-1.24.28-1.78.53c-.53.25-.97.58-1.3,1-.33.42-.5.96-.5,1.63,0,.73.26,1.34.78,1.83.52.48,1.18.88,1.98,1.2.8.32,1.7.58,2.7.8,1,.22,2,.44,3,.68,1.07.23,2.11.52,3.13.85,1.02.33,1.92.78,2.7,1.33.78.55,1.42,1.24,1.9,2.08.48.83.73,1.87.73,3.1,0,1.57-.33,2.87-.98,3.91-.65,1.04-1.5,1.87-2.55,2.5-1.05.63-2.24,1.08-3.55,1.33-1.32.25-2.63.38-3.93.38-1.44,0-2.8-.15-4.11-.45-1.3-.3-2.45-.79-3.45-1.48-1-.68-1.8-1.58-2.4-2.7-.6-1.12-.93-2.48-1-4.08h4.26c.03.94.25,1.73.65,2.38Z"/><path class="cls-2" d="m106.55,148.04v-5.21h4.26v5.21h-4.26Zm4.26,4.66v25.88h-4.26v-25.88h4.26Z"/><path class="cls-2" d="m120.65,152.7v4.11h.1c1.77-3.14,4.57-4.71,8.41-4.71,1.7,0,3.12.23,4.26.7,1.13.47,2.05,1.12,2.75,1.95.7.83,1.19,1.83,1.48,2.98.28,1.15.43,2.43.43,3.83v17.02h-4.26v-17.52c0-1.6-.47-2.87-1.4-3.8-.93-.93-2.22-1.4-3.85-1.4-1.3,0-2.43.2-3.38.6-.95.4-1.74.97-2.38,1.7-.63.73-1.11,1.59-1.43,2.58-.32.98-.48,2.06-.48,3.23v14.62h-4.26v-25.88h4.01Z"/><path class="cls-2" d="m162.12,176.93c-1.94,1.47-4.37,2.2-7.31,2.2-2.07,0-3.86-.33-5.38-1-1.52-.67-2.8-1.6-3.83-2.8-1.04-1.2-1.81-2.64-2.33-4.31-.52-1.67-.81-3.49-.88-5.46,0-1.97.3-3.77.9-5.41.6-1.63,1.44-3.05,2.53-4.26,1.08-1.2,2.37-2.13,3.85-2.8,1.48-.67,3.11-1,4.88-1,2.3,0,4.21.48,5.73,1.43,1.52.95,2.74,2.16,3.65,3.63.92,1.47,1.55,3.07,1.9,4.81.35,1.74.49,3.39.43,4.96h-19.38c-.03,1.14.1,2.21.4,3.23.3,1.02.78,1.92,1.45,2.7.67.78,1.52,1.41,2.55,1.88,1.03.47,2.25.7,3.65.7,1.8,0,3.28-.42,4.43-1.25,1.15-.83,1.91-2.1,2.28-3.8h4.21c-.57,2.9-1.82,5.09-3.75,6.56Zm-1.03-16.62c-.38-.9-.9-1.68-1.55-2.33-.65-.65-1.42-1.17-2.3-1.55-.88-.38-1.86-.58-2.93-.58s-2.09.19-2.98.58c-.88.38-1.64.91-2.28,1.58-.63.67-1.14,1.44-1.5,2.33-.37.88-.58,1.83-.65,2.83h14.87c-.07-1-.29-1.95-.68-2.85Z"/><path class="cls-2" d="m173.72,172.8c.4.65.93,1.17,1.58,1.55s1.38.66,2.2.83c.82.17,1.66.25,2.53.25.67,0,1.37-.05,2.1-.15.73-.1,1.41-.28,2.03-.55.62-.27,1.13-.66,1.53-1.18.4-.52.6-1.18.6-1.98,0-1.1-.42-1.93-1.25-2.5-.83-.57-1.88-1.03-3.13-1.38s-2.61-.67-4.08-.95c-1.47-.28-2.83-.68-4.08-1.2-1.25-.52-2.29-1.24-3.13-2.18-.83-.93-1.25-2.24-1.25-3.9,0-1.3.29-2.42.88-3.35.58-.93,1.33-1.69,2.25-2.28.92-.58,1.95-1.02,3.1-1.3,1.15-.28,2.29-.43,3.43-.43,1.47,0,2.82.12,4.06.38,1.23.25,2.33.68,3.28,1.3s1.71,1.45,2.28,2.5c.57,1.05.9,2.36,1,3.93h-4.26c-.07-.83-.28-1.53-.65-2.08-.37-.55-.83-.99-1.4-1.33-.57-.33-1.19-.58-1.88-.73-.68-.15-1.38-.23-2.08-.23-.63,0-1.28.05-1.93.15s-1.24.28-1.78.53c-.53.25-.97.58-1.3,1-.33.42-.5.96-.5,1.63,0,.73.26,1.34.78,1.83.52.48,1.18.88,1.98,1.2.8.32,1.7.58,2.7.8,1,.22,2,.44,3,.68,1.07.23,2.11.52,3.13.85,1.02.33,1.92.78,2.7,1.33.78.55,1.42,1.24,1.9,2.08.48.83.73,1.87.73,3.1,0,1.57-.33,2.87-.98,3.91-.65,1.04-1.5,1.87-2.55,2.5-1.05.63-2.24,1.08-3.55,1.33-1.32.25-2.63.38-3.93.38-1.44,0-2.8-.15-4.11-.45-1.3-.3-2.45-.79-3.45-1.48-1-.68-1.8-1.58-2.4-2.7-.6-1.12-.93-2.48-1-4.08h4.26c.03.94.25,1.73.65,2.38Z"/><path class="cls-2" d="m198.48,172.8c.4.65.93,1.17,1.58,1.55s1.38.66,2.2.83c.82.17,1.66.25,2.53.25.67,0,1.37-.05,2.1-.15.73-.1,1.41-.28,2.03-.55.62-.27,1.13-.66,1.53-1.18.4-.52.6-1.18.6-1.98,0-1.1-.42-1.93-1.25-2.5-.83-.57-1.88-1.03-3.13-1.38s-2.61-.67-4.08-.95c-1.47-.28-2.83-.68-4.08-1.2-1.25-.52-2.29-1.24-3.13-2.18-.83-.93-1.25-2.24-1.25-3.9,0-1.3.29-2.42.88-3.35.58-.93,1.33-1.69,2.25-2.28.92-.58,1.95-1.02,3.1-1.3,1.15-.28,2.29-.43,3.43-.43,1.47,0,2.82.12,4.06.38,1.23.25,2.33.68,3.28,1.3s1.71,1.45,2.28,2.5c.57,1.05.9,2.36,1,3.93h-4.26c-.07-.83-.28-1.53-.65-2.08-.37-.55-.83-.99-1.4-1.33-.57-.33-1.19-.58-1.88-.73-.68-.15-1.38-.23-2.08-.23-.63,0-1.28.05-1.93.15s-1.24.28-1.78.53c-.53.25-.97.58-1.3,1-.33.42-.5.96-.5,1.63,0,.73.26,1.34.78,1.83.52.48,1.18.88,1.98,1.2.8.32,1.7.58,2.7.8,1,.22,2,.44,3,.68,1.07.23,2.11.52,3.13.85,1.02.33,1.92.78,2.7,1.33.78.55,1.42,1.24,1.9,2.08.48.83.73,1.87.73,3.1,0,1.57-.33,2.87-.98,3.91-.65,1.04-1.5,1.87-2.55,2.5-1.05.63-2.24,1.08-3.55,1.33-1.32.25-2.63.38-3.93.38-1.44,0-2.8-.15-4.11-.45-1.3-.3-2.45-.79-3.45-1.48-1-.68-1.8-1.58-2.4-2.7-.6-1.12-.93-2.48-1-4.08h4.26c.03.94.25,1.73.65,2.38Z"/><path class="cls-2" d="m249.53,177.88c-1.85.83-3.76,1.25-5.73,1.25-2.4,0-4.34-.37-5.81-1.1-1.47-.73-2.6-1.62-3.4-2.65-.8-1.03-1.33-2.1-1.58-3.2-.25-1.1-.38-2.02-.38-2.75,0-1.4.23-2.64.68-3.71.45-1.07,1.05-2.03,1.8-2.88.75-.85,1.64-1.62,2.65-2.3,1.02-.68,2.09-1.33,3.23-1.93-.5-.7-.98-1.37-1.45-2-.47-.63-.89-1.28-1.28-1.93-.38-.65-.68-1.33-.9-2.05-.22-.72-.33-1.53-.33-2.43,0-.97.18-1.89.53-2.78.35-.88.87-1.67,1.55-2.35s1.53-1.23,2.53-1.63c1-.4,2.15-.6,3.45-.6,1.1,0,2.18.15,3.23.45,1.05.3,1.98.76,2.78,1.38.8.62,1.44,1.38,1.93,2.3.48.92.73,1.98.73,3.18,0,1.07-.18,2.06-.55,2.98-.37.92-.87,1.76-1.5,2.53-.63.77-1.35,1.46-2.15,2.08-.8.62-1.64,1.18-2.5,1.68l6.46,7.86c.67-1.87,1.05-3.72,1.15-5.56h4.06c-.1,1.07-.21,1.98-.33,2.73-.12.75-.27,1.44-.45,2.08-.18.63-.41,1.26-.68,1.88-.27.62-.58,1.33-.95,2.13l6.96,8.06h-5.56l-3.81-4.46c-1.07,1.67-2.53,2.92-4.38,3.75Zm-8.56-15.12c-.75.5-1.41,1.07-1.98,1.7-.57.63-1.02,1.34-1.35,2.13-.33.79-.5,1.71-.5,2.78,0,.9.19,1.73.58,2.48.38.75.89,1.39,1.53,1.9.63.52,1.36.93,2.18,1.23.82.3,1.66.45,2.53.45,1.63,0,3.1-.38,4.38-1.15,1.28-.77,2.36-1.8,3.23-3.1l-8.21-9.86c-.83.47-1.63.95-2.38,1.45Zm5.38-7.26c.57-.4,1.08-.85,1.55-1.35.47-.5.85-1.06,1.15-1.68.3-.62.45-1.31.45-2.08,0-1.03-.37-1.93-1.1-2.68-.73-.75-1.74-1.13-3-1.13-1,0-1.94.31-2.8.93-.87.62-1.3,1.58-1.3,2.88,0,.53.11,1.07.33,1.6.22.53.49,1.06.83,1.58.33.52.7,1.03,1.1,1.53.4.5.8,1,1.2,1.5.5-.33,1.03-.7,1.6-1.1Z"/><path class="cls-2" d="m276.54,146.84v-4.01h28.59v4.01h-11.92v31.74h-4.76v-31.74h-11.92Z"/><path class="cls-2" d="m307.24,152.7v5.46h.1c1.03-2.1,2.3-3.66,3.81-4.66,1.5-1,3.4-1.47,5.71-1.4v4.51c-1.7,0-3.15.23-4.36.7-1.2.47-2.17,1.15-2.9,2.05-.73.9-1.27,2-1.6,3.28-.33,1.29-.5,2.76-.5,4.43v11.52h-4.26v-25.88h4.01Z"/><path class="cls-2" d="m342.5,178.48c-.73.43-1.75.65-3.05.65-1.1,0-1.98-.31-2.63-.93-.65-.62-.98-1.63-.98-3.03-1.17,1.4-2.53,2.41-4.08,3.03-1.55.62-3.23.93-5.03.93-1.17,0-2.28-.13-3.33-.4-1.05-.27-1.96-.68-2.73-1.25-.77-.57-1.38-1.31-1.83-2.23-.45-.92-.68-2.03-.68-3.33,0-1.47.25-2.67.75-3.6.5-.93,1.16-1.69,1.98-2.28.82-.58,1.75-1.03,2.8-1.33,1.05-.3,2.13-.55,3.23-.75,1.17-.23,2.28-.41,3.33-.53,1.05-.12,1.98-.28,2.78-.5.8-.22,1.43-.53,1.9-.95.47-.42.7-1.03.7-1.83,0-.93-.18-1.68-.53-2.25-.35-.57-.8-1-1.35-1.3-.55-.3-1.17-.5-1.85-.6-.68-.1-1.36-.15-2.03-.15-1.8,0-3.3.34-4.51,1.03-1.2.68-1.85,1.98-1.95,3.88h-4.26c.07-1.6.4-2.95,1-4.05.6-1.1,1.4-1.99,2.4-2.68,1-.68,2.14-1.18,3.43-1.48,1.28-.3,2.66-.45,4.13-.45,1.17,0,2.33.08,3.48.25,1.15.17,2.19.51,3.13,1.02.93.52,1.69,1.24,2.25,2.17.57.93.85,2.15.85,3.65v13.29c0,1,.06,1.73.18,2.2.12.47.51.7,1.18.7.37,0,.8-.07,1.3-.2v3.3Zm-6.91-13.27c-.53.4-1.24.69-2.1.87-.87.18-1.78.33-2.73.45s-1.91.25-2.88.4c-.97.15-1.84.39-2.6.72-.77.33-1.39.81-1.88,1.42-.48.62-.73,1.45-.73,2.52,0,.7.14,1.29.43,1.77.28.48.65.87,1.1,1.17s.98.51,1.58.65c.6.13,1.23.2,1.9.2,1.4,0,2.6-.19,3.6-.57,1-.38,1.82-.86,2.45-1.44.63-.58,1.1-1.21,1.4-1.89s.45-1.32.45-1.92v-4.33Z"/><path class="cls-2" d="m364.63,178.58v-3.5h-.1c-.7,1.44-1.8,2.47-3.3,3.1s-3.15.95-4.96.95c-2,0-3.75-.37-5.23-1.1-1.49-.73-2.72-1.72-3.71-2.95-.98-1.23-1.73-2.67-2.23-4.31-.5-1.63-.75-3.37-.75-5.21s.24-3.57.73-5.21c.48-1.63,1.22-3.06,2.2-4.28.98-1.22,2.22-2.19,3.7-2.9,1.48-.72,3.21-1.08,5.18-1.08.67,0,1.38.07,2.15.2.77.13,1.53.36,2.3.68.77.32,1.49.73,2.18,1.25.68.52,1.26,1.16,1.73,1.93h.1v-13.32h4.26v35.75h-4.26Zm-15.3-9.19c.32,1.15.8,2.18,1.45,3.08s1.48,1.62,2.5,2.15c1.02.53,2.21.8,3.58.8s2.65-.28,3.66-.85c1-.57,1.82-1.31,2.45-2.23.63-.92,1.09-1.96,1.38-3.13.28-1.17.43-2.35.43-3.55,0-1.27-.15-2.5-.45-3.68-.3-1.18-.78-2.23-1.43-3.13s-1.49-1.63-2.53-2.18c-1.04-.55-2.29-.83-3.75-.83s-2.65.28-3.65.85c-1,.57-1.8,1.32-2.4,2.25-.6.93-1.04,2-1.3,3.2-.27,1.2-.4,2.44-.4,3.71,0,1.2.16,2.38.48,3.53Z"/><path class="cls-2" d="m393.08,176.93c-1.94,1.47-4.37,2.2-7.31,2.2-2.07,0-3.86-.33-5.38-1-1.52-.67-2.8-1.6-3.83-2.8-1.04-1.2-1.81-2.64-2.33-4.31-.52-1.67-.81-3.49-.88-5.46,0-1.97.3-3.77.9-5.41.6-1.63,1.44-3.05,2.53-4.26,1.08-1.2,2.37-2.13,3.85-2.8,1.48-.67,3.11-1,4.88-1,2.3,0,4.21.48,5.73,1.43,1.52.95,2.74,2.16,3.65,3.63.92,1.47,1.55,3.07,1.9,4.81.35,1.74.49,3.39.43,4.96h-19.38c-.03,1.14.1,2.21.4,3.23.3,1.02.78,1.92,1.45,2.7.67.78,1.52,1.41,2.55,1.88,1.03.47,2.25.7,3.65.7,1.8,0,3.28-.42,4.43-1.25,1.15-.83,1.91-2.1,2.28-3.8h4.21c-.57,2.9-1.82,5.09-3.75,6.56Zm-1.03-16.62c-.38-.9-.9-1.68-1.55-2.33-.65-.65-1.42-1.17-2.3-1.55-.88-.38-1.86-.58-2.93-.58s-2.09.19-2.98.58c-.88.38-1.64.91-2.28,1.58-.63.67-1.14,1.44-1.5,2.33-.37.88-.58,1.83-.65,2.83h14.87c-.07-1-.29-1.95-.68-2.85Z"/></g></g><g id="Trade"><g><g><g><path class="cls-2" d="m64.3,30.2c-.17-.07.11-.42.25-.49.14-.07.63-.09.63-.09,0,0-.15.23-.17.45-.03.23-.53.2-.7.13"/><path class="cls-2" d="m65.74,31.03c-.17-.07.11-.42.25-.49.14-.07.63-.09.63-.09,0,0-.15.23-.17.46-.03.23-.53.2-.7.13"/><path class="cls-2" d="m65.83,29.97c-.17-.07.11-.42.25-.49.14-.07.63-.09.63-.09,0,0-.15.23-.17.45-.03.23-.53.2-.7.13"/><path class="cls-2" d="m64.33,31.21c-.17-.07.11-.42.25-.49.14-.07.63-.09.63-.09,0,0-.15.23-.17.45-.03.23-.53.2-.7.13"/><path class="cls-2" d="m65.77,32.05c-.15-.06.09-.36.21-.43.12-.06.54-.08.54-.08,0,0-.13.2-.15.39-.02.2-.46.17-.6.11"/><path class="cls-2" d="m64.36,32.31c-.15-.06.09-.36.21-.43.12-.06.54-.08.54-.08,0,0-.12.2-.15.39-.02.2-.46.17-.6.11"/><path class="cls-2" d="m67.01,31.94c-.15-.06.09-.36.21-.43.12-.06.54-.08.54-.08,0,0-.13.2-.15.39-.02.2-.46.17-.6.11"/><path class="cls-2" d="m65.84,33.01c-.15-.06.09-.36.21-.43.12-.06.54-.08.54-.08,0,0-.13.2-.15.39-.02.2-.46.17-.6.11"/><path class="cls-2" d="m67.07,32.93c-.15-.06.09-.36.21-.43.12-.06.54-.08.54-.08,0,0-.13.2-.15.4-.02.2-.45.17-.6.11"/><path class="cls-2" d="m67.11,31c-.15-.06.09-.36.21-.43.12-.06.54-.08.54-.08,0,0-.13.2-.15.39-.02.2-.46.17-.6.11"/></g><g><path class="cls-3" d="m34.31,37.24c-.42-.43-.51-.99-.39-1.45.2-.77.16-1.35-.16-1.71-.14-.16-.25-.27-.43-.35.19,1.01.27,1.88-.41,2.72.07-.3-.3-.91-.25-1.67.04-.66.27-1.32.05-1.61.25.19.89.29,1.17.34.61.08.77.38.98.87.07.16.33.33.42.51.11-.28.25-.5.3-.65.08-.25.04-.47-.03-.74.33.03.49.67.62.81.12.13.21.25.44.25.1-.27.08-.48.11-.74.04-.34.18-.61.05-1,.19.03.39.28.5.52.13.31.08.56.3.74.22-.14.33-.4.39-.54.18-.49.3-.9.32-1.48.26.21.41.23.66.44.31.25.49.75.72.9.7.47,1.44.84,2.17,1.17.93.42,1.8.71,3.27,1.04.61.08,1.04.11,1.6-.04.25-.07.82-.09.95-.09.13,0,.44.08.77.16.53.14.7.71.69,1.17-.52.35-.99.37-1.79.55-.64.15-1.22.22-1.71.73-.11.11-.24.31-.46.31.04-.1.03-.22-.06-.34-.05-.07-.18-.16-.32-.19-.2.2-.24.6-.52.51.03-.19-.24-.27-.44-.25-.21.02-.31.23-.54.2.1-.24-.19-.47-.4-.57-.07.05-.31.52-.59.55.13-.29-.15-.72-.42-.8-.08.25-.21.7-.59.8.13-.29.04-.99-.44-1.06-.02.41-.11.66-.42.87.13-1.12-.81-1.46-1.69-1.73-.35-.11-.35-.12-.7-.25-.19-.08-.39-.14-.64-.13-.06.27.18.82.44,1.08-.48-.06-.78-.25-.99-.5-.18-.21-.19-.4-.35-.77-.33.8.11,1.05.43,1.54-1.27,0-1.32-1.49-1.33-1.57-.15.18-.22.32-.29.57-.02.3.05.74.31,1.03-.19-.03-.59-.27-.67-.53-.1-.31-.07-.15-.1-.48-.02-.24-.01-.87-.12-1.13-.1.17-.25.44-.23.74.1.66-.29.87-.18,1.25"/><path class="cls-3" d="m28.14,28.88c-.04.52.24.8.5,1.3.31.59.32,1.45.02,2.19-.11.26-.26.55-.49.86-.37-1.52-.86-3.02-.03-4.34"/><path class="cls-3" d="m31.73,32.21c-.01.35.52.72.56,1.29.04.37-.04.69-.12,1.04-.11.43.13.69-.08,1.22-.11.28-.23.56-.2.97-.15-.2-.73-1.24-.52-2.08.17-.68.18-1.08.19-1.84,0-.24.08-.42.18-.6"/><path class="cls-3" d="m30.72,35.64c-.56-.39-.83-1.39-.64-1.91.37-1.01.26-1.1.22-2.12,0-.19.03-.6.16-.89-.01.9.61,1.19.61,2.04,0,.37.02.95-.2,1.45-.29.66-.23,1.24-.16,1.44"/><path class="cls-3" d="m29.27,30.02c.07.47.34.92.49,1.2.2.38.16,1.21-.11,2.04-.12.36-.48.81-.48,1.17-.07-.21.04.14-.16-.64-.21-.86.22-1.28.29-1.95.04-.46-.06-1.35-.03-1.82"/></g><g><path class="cls-2" d="m20.69,39.17s.55-.34.82-1.67c.27-1.34,1.83-2.13,2.32-2.2-.44.5-.83,1.11-1.23,1.86-.57,1.05-1.48,1.83-1.9,2.02"/><path class="cls-2" d="m28.02,35.35c-.35-.87-.55-1.34-1.44-1.84-.62-.35-1.05-.42-1.76-.52-1.14-.17-1.73.07-2.14.29-.42.22-.76.51-1.14,1.31-.3.63-.26,1.2-.24,1.78.15-.71.39-1.28.85-1.75.42-.43.92-.72,1.13-.78.7-.2,1.13-.02,1.13-.02-.5.11-.83.2-1.19.45-.62.42-1.21,1.23-1.37,1.86,0,0,.57-.98,1.55-1.41.75-.39,1.46-.43,2.08-.32-.2.07-.43.18-.71.38-.45.32-.78.93-1.13,1.59-.51.96-.89,1.51-1.29,1.89.33-.11,1.42-.72,1.87-1.38.45-.66.84-1.54.98-1.72.14-.18.62-.44.91-.35.29.09.53.31.53.32.27.3.6.88.48,1.88-.19,1.61-.83,2.92-2.23,5.3-1.35,2.27-2.1,3.13-2.65,4.37-.76,1.71-.63,3.97,1.19,4.45.86.28,2.11-.25,2.11-.25,0,0,.36-.27.35.53l.18-2.9s-.32,1.26-1.38,1.33c-1.06.07-1.53-.2-1.64-.95-.11-.76.36-2.06.73-2.68.36-.62,2.82-4.66,2.91-4.88.09-.22,1.02-1.82,1.24-2.93.22-1.11.42-2.16.07-3.04"/></g><path class="cls-3" d="m25.17,59.85c-.26,1.2-.24,1.72-.18,2.26.14-.18.28-.28.41-.27-.13.37-.16.66-.14.95.14-.21.26-.33.45-.39-.06.36-.09.63-.04,1.03.17-.37.33-.73.52-.59.19.12,0,0,.18.11.15.09-.16.6-.21.74-.05.13.19.36.48.44-.27,1.05-.53,1.91-.31,2.85.08.35.23.68.67.93-.18-.8-.17-1.41-.1-2.03.05-.42.26-.82.44-1.21.1-.2.35-.12.46.13.15.36.15,1.15.16,1.54.04,1.31.22,2.01,1.49,2.64.51.25.9.11,1.18-.13.18-.16.52-.51.31-.83-.3-.46-.17-.54.26-.49.52.07.9-.25,1.11-.67.1-.2.14-.81-.25-.76-1.05.13-1.09-.4-1.24-.75-.15-.35-.08-1.61.33-1.65.22-.02.32-.27.24-.59-2.47.02-4.97-1.12-6.24-3.27m3.51,7.03c-.13-.64-.19-1.14-.19-1.79,0-.52.29-.61.83-.61.46,0,.56.21.46.44-.42.89-.25,1.75.12,2.53-.51.52-1.09,0-1.22-.57"/><path class="cls-2" d="m31.13,36.46c.04.33.73,1.75,1.24.62.51-1.13,1.49,1.09,3.46,1.09s2.75-.6,3.33-.5c.58.09.92.52.67,1.23-.48,1.4-1.42,2.22-3.49,4.22-.7.89-1.25,1.82-1.31,1.92-.19.38-.18.65,0,.71.15.05.31-.02.47-.23.36-.47.45-1.12,1.09-1.5.4-.24,2.18-.94,2.18-.94,0,0,.98-.33,1.49.22.51.55.8,2.29.73,3.06-.07.76-.36,2.25-2,3.38-1.64,1.13-.91,2.11-.51,2.55.4.44,2.52.22,2.52.22,0,0,.84.03,1.3.75.25.4.25.93.25.93,0,0-.93.66-1.64.58-1.22-.13-1.75-.66-2.76-.62-1.02.04-2.69.04-2.69.04,0,0-.91-.12-.65-.95.4-1.29.92-2.66.79-3.47-.09-.51-.94-.46-1.26-.34-.32.12-.59.3-1.07.05-.19-.1-.2-.55-.27-.87-.13-.67-.14-1.55.13-2.45.14-.47.13-.44.21-.6.16-.34-.27-.73-.6-.05-.45.94-.48,1.71-.49,2.29-.02,1.16.74,3.54.59,4.63-.15,1.09-.44,1.82-1.24,2.62-.8.8-3.35,3.86-3.35,3.86,0,0-1.02,1.21-.36,2.55.45.93,1.47.76,1.93.76.39,0,.62-.16,1.22.33.52.43.62,1.08.13,1.16-2.53.42-3.58-.05-4.91-.84-1.33-.78-1.09-2.87-1.09-2.87,0,0-.05-1.04,1.58-2.22.4-.64.76-1.51.47-2.06-.28-.52-.86-1.58-.86-1.58,0,0-.55-2.37-.47-3.31.07-.95-.04-2.4.73-3.93.76-1.53,2.31-3.4,2.93-4.94.62-1.54,1.37-3.39,1.58-5.5"/><g><path class="cls-3" d="m33.13,29.58c0,.17-.03.31-.11.39-.44-.08-.66-.47-.8-.75-.57.08-.8-.07-1.26-.43-.28-.23-.6-.73-.77-1.17-.29.03-.77-.33-1.04-.65-.5-.52-.43-1.02-.87-1.67-.11,1.22-.96,2.08-.4,3.26.21-.47.34-.88.63-1.25,0,.75,0,.88.07,1.5.05.35.2.77.4.94-.06-.42-.02-.59.08-.87.13-.37.26-.51.51-.66.09.24.08.36.05.61-.02.24-.04.45.03.76.13.52.28.78.41,1.14-.04-.37.02-.73.12-1,.09-.26.19-.38.4-.53.33.58.28.93.33,1.48.05.53.37.71.47,1.06.22-.48-.19-1.27.49-1.73-.11.69-.1,1.16.12,1.71.13.31.46.56.57,1.01.08-.63-.25-1.32.09-1.99.32.32.21.6.3.93.13.47.38.73.25,1.18.65-.28.35-1.45.35-2.13,0-.44.06-.41.14-.71-.15-.17-.36-.28-.55-.42"/><path class="cls-3" d="m35.09,27.45c0-.14-.02-.39.15-.55.18.05.41.24.45.52.06.34.06.84-.08.98.69-.37.71-1.05.56-1.59-.13-.43-.51-.66-.44-1.02.58-.09.74.65.77,1.02.2-.31.29-.79.2-1.15-.07-.27-.47-.55-.3-.95.18,0,.29.16.41.33.11.15.21.37.27.59.13-.41.06-.77-.08-1.09-.14-.32-.35-.37-.42-.92.29-.13.3.23.64.34.02-.37.05-.5-.29-.99.11-.11.34-.02.47.13.02-.35-.33-.8-.53-.99.14-.07.29,0,.41.06.05-.31-.16-.6-.35-.75-.22-.18-.39-.15-.58-.32-.18-.17-.45-.54-.5-.81.2-.02.46-.05.68-.15.36-.17.55-.35.76-.67.24-.36.33-.8-.06-1.19-.3-.3-.71-.39-1.08-.27-.41.13-.64.56-1.13.31-.07.23-.19.28-.23.3-.14.07-.47.09-.77.06-.28-.03-1.43.02-1.71.06-.6.07-2.92.96-2.85.41-.11.55-.86-.25-1.65.46-.45.37-.54.95-.36,1.39.24.57.82.76,1.55.62-.02.24-.06.42-.27.63-.18.17-.42.32-.56.72-.13.53-.11,1.5.37,1.93-.07-.55-.07-.8.09-1.15.11-.27.36-.48.5-.47-.11.41-.19.98-.19,1.47,0,.52,0,.82.28,1.3.01-.58.21-1.32.53-1.37.32.52-.06.98-.13,1.44-.08.51.2.75.54.92-.1-.24-.03-.51.02-.72.06-.24.3-.97.71-.8-.42.82-.41,1.32-.21,1.95.13.4.52.89.81.95-.21-.27-.35-.8-.35-1.09,0-.51.09-1.11.31-1.25.11.11.26.3.21.71-.06.44-.1.59.03,1.01.12.38.34.64.55.87-.16-.9-.04-1.89.37-2.09-.05.7-.11,1.24.12,1.66.22.42.38.94.38,1.31.19.14.4.25.55.42.02-.07.04-.17.06-.29.08-.54-.35-1.25-.32-1.54.29-.02.55.55.67.88.38-.18.71-.44,1.07-.65-.03-.32-.06-.63-.07-.95m-.79-2.61q-.18.08-.35.22c-.13.17-.08.45,0,.71.1.37,0,.64-.29.7-.25.05-.49,0-.63-.32-.16-.36-.2-.65-.1-.91-.36.02-.61.01-.81,0-.17-.01-.4,0-.53-.14-.17-.19-.36-.62-.13-.76.24-.16.89-.2,1.08-.21-.17-.47-.6-.5-.76-.8-.14-.26-.23-.62-.12-1.04-.03,0-.42.09-.57.1-.44.04-.66-.24-.73-.57-.05-.24-.23-.58-.46-.76.05-.14.22-.19.37-.21.25-.02.25,0,.51.02.21.02.44,0,.63-.05.28-.08.32-.13.51-.3.13.22.15.42.11.81-.04.39-.06.85.03,1.23.11.47.39.6.86.51.49-.09.48-.3.47-.63-.07-.85-.68-1.11-.34-2.09.25.21.6.17,1.07.08.28-.06.56-.29.97-.12-.25.38-.14.5-.2.85-.11.73-.83.83-1.3.79.37.48.36.79.26,1.17-.12.47-.27.36-.32.83.27-.1,1-.45,1.18-.26.22.47.26.84-.39,1.15"/><path class="cls-3" d="m38.5,30.36c-.28-.24-.64-.96-.51-1.18.37,0,.8.64,1.17,1.04.38.42,1.01.54,1.22,1.12-.03-.78-.24-1.28-.77-1.72-.27-.22-.68-.49-1.01-.7.08-.05.13-.04.31-.04.16,0,.45.16.59.23.29.14.39,0,.7.27.06-.06-.33-.66-.53-.85-.2-.18-.47-.33-.71-.41-.42-.13-1.02-.11-1.38-.26-.33-.14-.42-.21-.78-.48-.19.8-.39,1.09-.98,1.57-.22.18-.33.27-.47.17-.11-.09-.12-.2-.13-.31-.01-.14-.03-.27-.04-.41-.36.21-.69.47-1.07.65,0,0,0,0,0,0,.16.46.14.83.03,1.28-.17.72-.05,1.37.08,2.05.08.43.89,1.24.93,1.54.12-.37-.31-1.18-.34-1.43-.05-.41-.12-.61-.11-1,0-.39.12-1.07.18-1.07.16.14.41.69.38,1.29-.03.57.17.95.47,1.31.17.2.45.19.54.61.11-.36.07-.59.02-.8-.12-.52.01-.63.04-1.18q.02-.43-.08-.87c-.07-.29-.01-.69.11-.83.16.05.37.61.37.91,0,.27.03.84.17,1.13.21.42.77.78.74,1.11.27-.89.19-1.66-.12-2.58-.11-.34-.31-.77-.29-1.19.34.13.64,1.13.77,1.5.1.27.08.28.26.48.21.24.4.43.68.56.52.23.69.55.91,1,.05-.22.03-.58-.14-1.05-.27-.74-.59-.95-1.19-1.48"/><path class="cls-3" d="m39.44,25.73c-.23-.61-.72-.52-1.11-.82-.11-.08-.29-.35-.38-.51-.07.15-.08.45.12.65.22.22.53.37.76.59.31.3.26.66.78.92-.72.35-1.16-.66-1.64-.46.16.91,1.21.76,1.64,1.49-.51-.16-.8-.08-1.28-.1-.2,0-.58-.09-.75-.19-.48-.29-.43-.48-.32-.86.16-.54.44-.78.29-1.39-.04-.16-.05-.33-.05-.51,0-.5.58-1.28.12-1.87.22.16.5.36.52.71.05.56.13,1.01.7,1.25.84.35.66,1.06.61,1.11"/><path class="cls-3" d="m53.64,38.76c-.58.13-1.16.25-1.74.4-.52.13-.9.13-1.22-.45-.25-.45-.46-.44-.46-.44,0,0-.02.21-.33.25-.1.01-.48-.02-.61-.05-.4-.09-.94-.18-1.33-.16.23.2-.03.43-.18.45-.59.1-1.35.13-1.97.2.37.18.44.78-.07.91-.38.1-.97.1-1.31.35.48.33.12.65.02.74-.19.17-.36.3-.67.42-.32.12-.71.27-.78.48.65.15-.14.84-.36,1.09-.25.28-.4.34-.46.67.39,0,.85.1.62.46-.23.4-.61,1.05-.71,1.28-.09.2-.19.4-.29.6.89-.5,1.22-.73,1.97-.18.17.12.25.14.44.1.24-.05.43-.14.62-.28.42-.3.69-.23.84.27.74-.74,1.43-1.01,1.81-.59.27-.31.53-.63.79-.94.37-.45.8-.52.95.11.16-.33.25-.51.38-.74.18-.32.31-.75.58-.8.12-.03.24-.06.35.16.05-.17.05-.39.06-.5.04-.43.06-.86.08-1.32.15.32.2.62.23,1.15,0,.48.08,1.01-.27,1.58-.1-.38-.22-.81-.41-.6-.43.51-.68,1.26-1.1,2.05,0-.22-.12-1.06-.4-.97-.34.11-.82.91-1.23,1.46-.19-.34-.27-.43-.6-.32-.16.05-.37.16-.49.27-.36.34-.45.89-.54,1.35-.06.28-.21.6-.43.79-.1.08-.19.17-.29.25.19.13.37.27.56.4.49-.24.83-.45,1.28-.66.61-.27,1.62-.6,1.34.12.31-.03.58-.25.7-.37.44-.45.69-.94,1.17-1.02.11-.02.22-.03.33-.05.2-.25.43-.46.66-.69-.1-.02-.29-.18-.25-.43.02-.14.11-.46.14-.57.08-.35.35-.66.98-.5-.02-.34-.03-.63-.06-.92-.05-.61.31-.7.8-.68-.1-.42-.19-.81-.29-1.2-.04-.17-.09-.35-.17-.51-.34-.65-.33-.75.21-1.09.56-.35,1.15-.55,1.77-.64-.19-.25-.4-.49-.64-.69"/><path class="cls-3" d="m73.47,32.54c0-.17-.32-.55-.1-.7.1-.07-.05-.25-.08-.39-.02-.08-.17-.28-.19-.36-.04-.16.05-.21,0-.38-.1-.34-.38-.71-.48-1.01-.12-.32-.06-.58-.16-.75-.03-.05-.32-.25-.35-.29-.19-.31-.1-.41-.26-.64-.21-.29-.52-.44-.71-.63-.19-.19-.25-.42-.44-.55-.06-.04-.28-.04-.33-.1-.4-.48-.86-.4-1.07-.11-.39.54-.76,1.09-1.13,1.65.05.04.1.07.14.11.01-.02.03-.05.05-.08.29-.36.6-.72.93-1.06.12-.12.4-.34.61-.21.12.06.15.21.1.33-.16.36-.54.7-.82,1.04.27-.2.51-.45.89-.71.19-.13.35-.29.49-.17.19.17-1.06,1.22-1.32,1.52.27-.1,1.17-.87,1.39-.96.22-.08.32-.06.41.03.05.05.11.2.01.32-.25.42-1.69,1.24-1.92,1.49,1.16-.68,2.24-1.17,2.46-.84.1.11,0,.32-.16.43-.22.13-1.16.62-1.49.82.37-.09,1.33-.53,1.6-.54.2,0,.4-.08.57.19.07.19-.25.4-.44.49-.18.09-.55.19-.89.3.42-.02,1.11-.09,1.41-.1.03.04.19-.06.22.09.07.25-.34.29-.47.33-.4.11-1.79.42-1.77.48.47-.07.94-.16,1.41-.19.28-.02,1.02-.04,1.07.16.08.2,0,.42-.26.42-.54,0-1.19.1-1.81.18.65,0,1.14.04,1.61.02.26-.01.64.03.7.28.02.08,0,.31-.14.32-1.67.13-1.91,0-2.94,0,0,.14-.07.18-.11.32.38,0,.76-.01,1.13-.02.76,0,1.2.1,1.97.09.45,0,.7-.35.69-.63"/><path class="cls-3" d="m69.32,32.77c.15-.24.09-.4.32-.52-.09-.05-.46-.1-.35-.18.17-.14.04-.33.25-.46-.47-.22-.69-1.37-.6-1.44-.15-.05-.53-.38-.6-.6-.06-.18.06-.53.23-.66-.26-.03-.41-.28-.28-.52-.05-.04-.09-.07-.14-.11-.03.05-.07.1-.1.15-.15.23-.31.3-.59.2-.19-.07-.62-.06-.52-.19-.1,0-.23,0-.39.05-.24.07-.99-.17-.77-.25-.37-.1-.69-.04-1.06.22,0,0-.03-.02-.04-.03-.08-.05-.12-.19-.12-.19,0,0-.57.26-.77.48-.23.25-.57.99-.7.74-.14.24-.16.55-.23.83-.03.11-.18.51-.24.27-.17.12-.19.4-.17.63,0,.14.07.31.02.4-.22.38-.03.66.17.95.17.25.04.63.48.78.4.13.34.6.07.96-.33.45-.73.49-1.27.32.1.36.04.56-.12.69.14.23.24.49.35.74.62-.32,1.21-.68,1.72-1.18.25-.25.55-.16.78.1.11.12.21.27.34.37.26.2.55.37.72.5-.05-.35,1.14-.01,1.47-.01-.26-.19.64-.34,1.04-.51-.39-.51.56-.4.8-.71-.25-.02-.38-.09-.27-.24.26-.22.49-.42.63-.54-.22-.11-.04-.41-.06-.59.13,0,.25-.11.38-.11.04-.14.1-.18.11-.32h-.47Z"/><path class="cls-3" d="m61.1,46.79c-.27.08-.53.22-.79.34-.38.18-.84-.02-.65-.44.24-.37.43-.79.73-1.1.29-.3.66-.52,1.08-.63-.02-.15-.04-.3-.06-.45-.29.06-.59.1-.87.18-.34.1-.4-.16-.35-.41.14-.69.43-1.27.98-1.69-.03-.24-.05-.48-.07-.72-.31.26-.72.47-1.19.57-.09-.42-.53-1.01.21-1.08-.27-.24-.58-.44-.77-.71-.19-.27-.27-.61-.39-.93-.37-.95.2-2.54,1.1-3.06.17-.1.44-.17.6-.11.16.07.25.33.39.54.14-.29.24-.67.5-.79.18-.09.41-.2.59-.29-.11-.25-.21-.5-.35-.74-.11.09-.27.15-.45.2-.49.13-.98.31-1.45.51-.08.03-.32.17-.44.22-.85.56-1,.53-1.31.57.58.48.08,1.04-.3,1.26-.31.18-.74.06-.95-.09-.14-.1-.27-.2-.4-.41-.2-.31-.26-.73-.16-1.02-.21-.05-.44-.08-.66-.16.01.07.01.13,0,.2-.06.18-.2.18-.3.2-.19.04-.39.03-.65,0-.5-.05-.8-.24-.53-.92-1.49,1.1-3.33.68-4.22-.42.05.35.27.98.41,1.21.34.54.77.86,1.31,1.31.12-.42.76-.59,1.3-.4.17.06.94.32,1.28.46.12.05.31.1.29.34-.02.2-.22.25-.35.28-.18.05-.37.09-.55.13.24.2.45.44.64.69.53-.08,1.07-.07,1.62,0,.56.08.65.17.84.45.25.35.07.67.07.94,0,.11.04.45.05.44.33-.57.62-.52.97.15.17.33.35.67.47,1.03.16.47.22.74-.26,1.18-.23.21-.33.36-.4.61.97-.61.84,1.07.84,1.29,0,.64-.54.95-.83,1.43-.1.16-.17.22-.23.5.5-.36.56,0,.5.44-.02.11-.03.19-.04.26.61.29,1.27.53,1.95.45.23-.53.63-.87,1.21-1.15.25-.12.49-.21.73-.29-.02-.18-.04-.36-.06-.54-.2.05-.4.1-.59.16"/><path class="cls-3" d="m74.5,45.88c-.04-.27.16-.59.5-.8-.75-.33-1.45-.41-2.21-.46-.37-.02-.5-.26-.29-.61.08-.12.13-.15.34-.36-.61-.16-1.17-.17-1.66-.13-.23.02-.34,0-.42-.11-.07-.1-.09-.23.05-.42-.15-.05-.57.07-.76.1-.67.1-1.36-.14-2.02.17-.13.06-.47.13-.59-.14-.01-.03-.04-.14-.02-.2-.08-.01-.26.05-.33.08-.52.21-1.02.28-1.57.04-.05-.02-.1-.03-.16-.02-.19.02-.43.14-.63.16-.33.04-.69-.05-1.02-.01-.18.02-.35.08-.51.22-.09.08-.24.12-.29.22-.35.61-.9.78-1.48.9.02.15.04.3.06.45.09-.02.17-.04.26-.05.44-.05.86-.14,1.04.46.04.14.28.21.4.34.09.1.17.24.17.36,0,.07-.15.18-.26.21-.47.12-.93.24-1.4.35.02.18.04.36.06.54.15-.05.3-.1.45-.15.44-.15.89-.29,1.35-.36.33-.05.62-.07,1.03-.08.72-.01,1,.2,1.47.63.11.11.24.23.5.39-.03-.19.04-.28.2-.38.08-.05.47,0,.61.08.37.18,1.24.75,1.4.84,0-.3.21-.27.33-.29.81,0,3.44,2.13,4.25,3.81.31-.42.34-.7-.33-1.5-.46-.54-.82-.91-1.29-1.45-.1-.11-.38-.36-.24-.6.12-.23.3-.21.47-.19.23.03.32.1.5.21.19-.18.19-.33.12-.59.39.16.63.25,1.22.19-.12-.19-.08-.28.14-.34.61-.13,1.16,0,1.85.23-.16-.85-.63-1.36-1.31-1.74"/><path class="cls-3" d="m56.75,36.2c.92-.04,1.25-.78,2.05-1.15.12-.06.24-.13.27-.21-.91-.01.61-1.03.6-1.64-.45.16-.29-.31-.23-.48.21-.61.21-.64.42-1.11.04-.09.26-.53.23-.7-.15.09-.28.09-.42.09-.02,0,.27-1.62.24-1.87-.16.07-.49.16-.47-.11.06-.69.22-1,.42-1.45-.12.03-.61.05-.42-.51.08-.23.35-.78.3-1.13-.71.24-.31-.53-.13-.82.1-.16.24-.31.56-.49-.23,0-.46,0-.69.1-.34.14-.48.21-.8.4-.72.43-.71.44-1.31-.16-.58.62-.84,1.22-1.24,1.81-.15.18-.4.04-.62-.36-.29.41-.3,1.19-.41,1.75-.08.39-.25.39-.29.39-.08.01-.15.03-.28-.13-.09.21-.09.22-.13.44-.07.38-.06.72-.08,1.08-.02.31-.11.87-.47.98.3.25.46.63.54,1.07.09.47.13.64-.21.79-.18.08-.37.08-.56.06,0,.16.08.49.19.7.25.5.48,1.32.18,1.7.46-.08.9.15,1.32.59.14.15.32.35.36.56.22.08.44.11.66.16.07-.19.2-.32.42-.33"/><path class="cls-3" d="m86.23,37.36c-.02-.1-.65-1.56-.73-2.14-.12-.86-.04-1.66.12-2.48.02-.1.06-.25.01-.3-.79-.78-1.45-1.54-2.39-2.31-.46-.38-1.26-.92-3.15-2.02-1.06-.53-1.64,0-2.28.78-.43.52-.78,1.1-1.16,1.65-.1-.2-.09-.31.01-.52.14-.3.39-.61.06-.99-.49-.55-.93-1.14-1.38-1.73-.26-.34-.89-1.65-1.06-2.21-.24-.5-.73-.68-1.26-.74-.71-.09-1.44-.1-2.14-.24-.62-.12-1.21-.41-1.83-.55-.33-.07-.71-.01-1.05.05-.32.06-.63.22-.95.28-.31.06-.51.13-.56.5-.03.21-.18.47-.36.59-.83.56-1.43,1.22-1.59,2.3.73.14.69-.28.99-.65v.75c1.11-.01,2.16-.74,1.73-1.75.05-.02.11-.07.14-.06.44.19.81.17,1.19-.18.14-.13.46-.14.69-.11.96.12,1.9.31,2.7.91.71.53,1.3,1.12,1.6,1.99.49,1.45,1,2.9,1.56,4.33.1.24.29.49.79.46.36-.02.71-.09,1.06-.12.23,0,.1.23.08.34-.1.22-.53.36-.8.36-1.42,0-2.82.49-4.27.18-.32-.07-.8.01-1.04.22-.56.47-1.08.99-1.61,1.5.4.22.77.49,1.14.75.78-.68,1.94-.82,3.03-.56.57.13,1.31.31,1.84.46.77.23,1.2.38,1.95.69.49.2.96.47,1.4.77.4.27.79.28,1.2,0,.59-.38,1.15-.68,1.79-.98.42-.2.63.16.41.25-.4.28-.52.36-1,.69-.2.14-.42.26-.6.42-.57.5-.95.47-1.5.36-.36-.07-.66-.4-1.02-.48-.34-.04-.37.15-.15.36.36.38.73.75,1.07,1.15.46.55,1.13.62,1.74.83.29.1.56.25.85.31.42.08.87.19,1.27.11.99-.19,1.93-.45,2.78-1.12.66-.52.68-1.15.7-1.79,0-.16,0-.23-.03-.33"/><path class="cls-3" d="m91.93,64.57c-.16-.7-.48-1.54-.67-2.27-.09-.35.01-.56.31-.72-.21-.52-.55-.93-.91-1.35-.01.05-.03.09-.04.15-.05.15-.3.21-.41.06-1.16-2.37-2.92-3.87-5.09-5.26.35-1.45-.24-2.32-1.6-2.77-.7-.06-1.06.55-1.1.64-.3.56-.05,1.32.21,1.77.36.62,1.04.91,1.63.89.29-.01.59.21.86.37,1.16.71,2.25,1.53,3.17,2.54.47.52.77,1,1.14,1.6.09.14.25.59,0,.72-.31.18-.51-.07-.86-.47-.47-.54-.88-.95-1.33-1.42-.46-.47-.9-.97-1.39-1.4-.56-.48-1.53-1.08-2.08-1.36-.9-.45-1.16-.54-2.01-.96-.14-.07-.34-.26-.33-.37.08-.73-.35-1.25-.68-1.8-.12-.19-.37-.32-.59-.44-.42-.24-.32.24-.48.35-.12.09-.28.15-.42.15-1.67,0-3.18.33-4.72,1.13-.3.15-.55.45-.87.31-.23-.1-.34-.53-.52-.81-.36-.57-.47-.93-.86-1.48-.5-.7-1.14-1.47-1.72-1.97-1.6-1.36-3.39-2.39-5.65-2.39-1.31,0-2.52.26-3.73.67-.33.11-.62.32-.94.45-.13.05-.34.07-.43,0-.08-.06-.07-.29-.03-.42.01-.04.03-.07.04-.1-.68.08-1.34-.16-1.95-.45-.03.22-.04.21-.1.47-.04.18-.35.36-.47.21-.17-.21-.28-.35-.51-.63-.55-.66-1.11-.97-1.83-1.3-1.15-.53-2.19-.85-3.65-.89-.06,0-.1,0-.15-.01-.23.22-.46.43-.66.69.75-.08,1.55,0,2.3.13.84.15,1.46.43,2.17.94.47.34.82.71,1.07,1.15.25.43.15.59.11.63-.13.13-.36.26-.87.06-.71-.24-.96-.37-1.59-.57-1.42-.46-2.87-.54-4.33-.31-1.36.21-2.72.92-3.77,1.79-.9.74-1.55,1.53-2.39,2.34-.17.16-.4.36-.59.36-.58-.02-.8-.44-.47-.92.46-.68.96-1.33,1.5-1.95.42-.48.59-.65,1.11-1.04.2-.15.71-.52.94-.63-.19-.14-.37-.28-.56-.4-.65.54-1.36,1.02-1.96,1.61-.71.69-1.29,1.52-1.96,2.25-.4.43-.31.37-.86.42-.19.59-.75,1.87-.47,1.98.83.33,1.4.42,2.22,0,.26-.14.58-.19.88-.23.21-.03.31-.01.4-.19.56-1.19.96-1.51,1.82-2.43.76-.82,1.73-1.53,2.67-1.96.63-.29,1.72-.51,2.39-.54,1.29-.05,2.65-.2,3.66.91.12.13.18.32.13.55-.03.17-.28.18-.42.17-.53-.02-.99-.09-1.57-.12-.87-.04-1.78-.04-2.62.17-1.27.32-2.59,1.02-3.56,2.03-.68.71-1.18,1.2-1.62,2.17-.22.48-.37,1-.58,1.48-.26.61-.69.72-1.2.32-1.23-.96-2.65-1.35-4.18-1.43-.65-.03-1.32-.04-1.96.03-1.06.12-1.57.19-2.56.5-1,.31-2.39,1.13-3.37,2.14-.7.72-1,.99-1.58,1.77-.45.61.03,1.73.76,1.8.71.06,1.02-.47,1.42-.87.24-.24.42-.49.69-.76.4-.4.89-.75,1.38-1.02.77-.44,1.26-.65,2.14-.87.73-.18,1.6-.24,2.35-.21.92.04,1.62.12,2.23.8.27.3.34.67.24.96-.08.22-.62.04-.84-.05-1.11-.46-2.27-.59-3.44-.44-.47.06-.97.2-1.38.44-.57.32-1.15.72-1.56,1.22-.51.63-1.24,1.53-1.03,1.64.1.06.39-.16.5-.27.52-.49.98-1.04,1.53-1.5,1.22-1.02,2.38-1.02,4.04-.66.68.15,1.35.56,2.01.81.59.22,1.06-.06,1.03-.58-.06-1.15.67-2.1,1.8-2.2.42-.04.87.13,1.3.24.49.13.8-.02.92-.52.1-.42.01-.61-.03-.91-.03-.26-.07-.49-.09-.73-.07-.83.42-1.56,1.07-2.34.49-.59,1.42-1.27,2.08-1.66,1.27-.76,2.66-1.03,4.12-.7.65.15,1.29.37,1.93.57.94.29,1.6-.1,1.8-.98.02-.08.06-.17.11-.23.37-.47.85-.42,1.32.13.57.67,1.61.72,2.15.08.35-.42.61-.99,1.05-1.24.86-.48,1.8-.92,2.76-1.11,1.34-.26,2.96-.21,4.25.36.8.35,1.19.5,2.09,1.21,1.48,1.16,2.64,2.62,3.17,4.48.21.76.15.96.09,1.56-.04.4-.49.69-.78.58-.15-.06-.27-.2-.27-.46-.01-1.31-.56-1.94-1.17-2.84-.34-.51-.88-1.19-1.58-1.81-.8-.72-1.51-1.31-3.26-1.84-.77-.23-1.21-.2-2.04-.16-1.08.04-1.99.3-2.69,1.09-.37.42-.39,1.2-.04,1.46.31.24.74.35,1.19.13.43-.21.49-.62.44-1.03-.06-.44.1-.68.52-.8,1.46-.43,2.86-.18,4.09.63.96.63,1.82,1.37,2.49,2.35.47.68,1,1.22,1.23,2.14.06.25-.02.66-.06.93-.1.63.17,1.36,1.01,1.23.56-.09,1.07-.24,1.3-.76.13-.31.21-.53.41-.94.26.75.45,1.05,1.22,1.18.02,0,.09.21.11.26.22.58.93.96,1.66.63.77-.35,1.59-.34,2.41-.37,1.93-.08,3.59.52,5.07,1.78.81.69,1.43,1.45,2.03,2.28.62.86,1.04,1.92,1.15,3.05.05.55.1.87-.49,1.1-.48.19-.65.73-.58,1.15.08.41.37.86.95.87.39,0,.78.02,1.16.08.93.15,1.72-.32,1.93-1.19.08-.34.24-.47.61-.38.88.21,1.13-.07,1.29-.87.07-.35-.07-.7-.18-1.2m-7.66-9.6c-.36.18-.72-.2-.97-.45-.3-.3-.42-.9-.3-1.11.24-.43.52-.53,1.03-.16.81.55.68,1.5.24,1.72m-42.77,2.72c-.21.29-.4.32-.61.32-.34,0-.69-.1-1-.23-1.46-.63-2.94-.59-4.43-.26-.9.2-1.8.49-2.61.92-.68.37-1.24.83-1.78,1.33-.4.37-.63.58-.97.89-.09.08-.31.22-.51,0-.12-.1-.19-.2-.03-.52.19-.38.28-.58.48-.81.64-.73,1.11-1.3,2.02-1.91.75-.5,1.14-.75,1.98-1.05.65-.23,1.83-.41,2.54-.44,1.24-.05,2.48.02,3.65.49.41.17.75.35,1.11.61.25.18.29.47.14.67m33.48-1.79c-.21.05-.61.1-.69-.14-.15-.32.1-.55.25-.64.65-.36,1.31-.7,2.01-.94,1.03-.36,2.11-.49,3.21-.37.42.05.72.34.71.77,0,.51-.36.57-.74.58-.26,0-.51,0-.77,0-.8.01-1.8.06-2.66.3-.47.14-.87.33-1.32.43m14.32,11.06c-.25.43-1.07.41-1.12-.14-.04-.44-.04-.46-.11-.9-.18-1.13-.26-2.3-.85-3.32-.59-1.01-1.15-1.76-2.19-2.82-1.84-1.85-3.82-2.36-6.25-2.55-.88-.07-1.77.05-2.66.04-.31,0-.61-.17-.61-.52,0-.16.02-.34.3-.5.46-.25.84-.36,1.52-.44.5-.06,1.19-.05,1.69-.05,2.41-.01,4.39.95,5.7,1.84,1.05.71,2.24,2.18,2.96,3.2.93,1.32,1.27,2.15,1.72,3.63.22.72.3,1.82-.09,2.5m1.85-1.31c-.08.15-.28.32-.42.32-.17,0-.44-.14-.49-.29-.23-.6-.33-1.22-.52-1.84-.07-.43.14-.6.45-.74.42-.18.76.05.87.37.26.7.53,1.44.11,2.17"/><path class="cls-2" d="m94.07,41.51c-.46-.67-.86-1.26-1.34-1.92-.32-.45-.62-.8-.91-1.29-.53-.88-.84-1.1-1.15-2.52-.15-.69-.1-1.41.03-2.07.12-.59.39-.83.78-.82.33.01.51.17.72.43.14.18.36.49.27.98-.09.44.76.95.78,1.89.25-1.69-.2-2.75-1.1-3.51.19-.02.4-.03.57.02.99.34,1.03,1.74.98,2.64-.04.83-.11,1.89-.05,2.26.05.38.15,1.42,1.23,2.1-.59-.88-.85-1.17-.76-2.58.08-1.27.04-1.62-.02-2.24-.09-.92-.32-1.31-.42-1.54-.11-.22-.32-.43-.32-.43.03.01.42.22.67.71.25.49.45.94.45,1.67,0,.58,0,1.19-.01,1.61-.05,1.06.16,1.59.62,2.24.38.54,1.18,1.08,1.45,1.23-1.16-1.51-1.53-2.15-1.59-3.2-.05-.77.05-1.47-.06-2.19-.22-1.45-.74-2.69-1.96-3.32-.18-.1-.56-.19-1.1-.24.29-.09,1.23-.25,2.24.57.47.39.69,1.07,1.05,1.43.89.89,1.06,1.31,1.46,2.06-.03-.05-.66-2.28-1.72-3.43-.59-.64-1.6-.94-1.62-.94-1.63-.5-3.15.66-3.54,2.19-.17.68-.21,1.32-.19,1.88.03.83.22,1.48.69,2.42.63,1.26,1.04,1.79,1.89,2.96.61.85,1.23,1.63,1.77,2.54.34.57.61.97.75,1.84.21,1.34-.59,1.65-1.45,1.49-1.37-.26-2.05-1.29-2.74-2.35-.62-.96-1.14-1.98-1.69-2.97-.1-.18-.2-.37-.31-.55-.1-.17-1.52-2.19-2.5-4.07-2.6.99-7.08,2.72-7,2.81.96,1.01,1.7,1.06,2.55,1.89.56.55.75.61,1.29,1.27.16.19.41.42.54.63.29.47.48.81.7,1.31.06.14.26.67-.02.64-.19,0-.34-.37-.4-.55-.2-.54-.35-.84-.85-1.03-.58-.22-1.25-.42-1.84-.62-1.08-.36-2.14-.41-3.25-.03-.41.17-.75.59-.8.65-.76.87-.75,2.25.15,3.22.67.72,1.23,1.08,1.78,1.89.3.44.54,1.18.64,1.97-.58.11-1.02.22-1.46.25-.37.03-.77.01-1.13-.09-.85-.25-1.57.02-2.13.58-.49.49-.83,1.13-1.25,1.72,1.28.31,2.12-.02,2.43-.23.61-.42,1.29-.6,1.99-.7,1.08-.16,2.18-.22,3.27-.34.54-.06.58-.56.51-.91-.07-.36-.37-1.11-.46-1.66-.04-.28-.07-.6.04-.82.19-.36.73-.39,1.2-.15.28.15.55.27.87.4.34.13.61.08.72-.41.24-1.03.22-1.39.78-2.55.1-.2.27-.99.35-1.36.05-.22.32-.22.32.01-.05.43-.08.83-.2,1.25-.12.42-.36.79-.47,1.21-.34,1.32-.35,2.02-.44,3.04-.09,1.04.25,2.07.85,2.84.67.86,1.59,1.55,2.72,1.87.87.24,1.71.59,2.04,1.55.39,1.15.89,2.31.81,3.53-.02.28-.03.39-.09.6.36.42.7.83.91,1.35.03-.02.06-.03.09-.05.24-.11.5-.33.58-.56.12-.36.14-.77.1-1.15-.11-.94-.3-1.86-.42-2.8-.07-.53-.03-1.07-.09-1.61-.07-.63-.05-1.33-.85-1.59-.26-.09-.5-.25-.74-.4-.85-.57-1.16-2.42-.49-3.22.64-.77.79-1.72,1.09-2.62.17-.52.38-.7.8-.35.61.51,1.87.63,2.64.45.64-.15,1.15-.48,1.46-1.22.36-.86.08-2.12-.44-3.09-.44-.83-.69-1.09-1.23-1.85"/><path class="cls-2" d="m95.23,34.35c.08.35.19.74.22,1.39.02.47-.05,1.18.07,1.6.26.94,1.03,1.82,1.03,1.82,0,0-.62-1.29-.38-2.38.14-.62.02-.93-.16-1.2-.13-.2-.32-.58-.79-1.24"/><path class="cls-3" d="m73.4,38.48c-.4,0-.95,0-.48-.85-.93-.05-1.49.3-2.04.19-.19-.04-.31-.06-.38-.32-.03-.1.03-.32.05-.43-.19.09-.36.11-.45.04-.26-.19-.1-.34,0-.46.12-.17.26-.32.4-.44-.36-.26-.74-.53-1.14-.75-.23.22-.46.45-.7.66-.33.29-.7.57-1.1.73-.16.06-.29,0-.48-.19-.13-.13-.31-.32-.56-.35-.48,1.05-1.44,1.28-1.92.53-.29.09-.6.29-.88.72-.2.3-.47.49-.75.5-.21,0-.3-.03-.39-.18-.19.11-.47.39-.58.54-.27.38-.45.81-.31,1.36.09.36.09.74-.02,1.14-.1.34-.24.69-.56.96.02.24.04.48.07.72.09-.07.19-.14.3-.2.26-.15,1.02-.4,1.54-.31.63.1,1.24.24,1.65.88.29-.34.42-.48.33-.86.61.15,1.02.64,1.32.9.05-.14.1-.29.23-.43.13-.17.31-.21.48-.23.41-.05.56.08.94.41.57-.64.82-.69,2.1-.17-.07-.55.27-.83.89-.68.62.15.82-.12,1.27-.61.17-.18.58-.29.78-.45-.47-.43.14-.73.29-.79.61-.27,1.08-.54,1.45-1.19.15-.26.43-.34.56-.45-.94-.22-1.25.06-1.9.08"/></g><g><path class="cls-2" d="m86.22,32.43c.35-.35,1.37-1.1,2.03-1.25l-.43-.77c0,.4-.23.71-.4.85-.1-.26-.14-.55-.03-.8-.19.17-.55.39-.81.5.28.07.48.16.63.41-.3.14-.87.34-1.27-.16-.26-.32-.29-.75.02-1.03.1-.09.27-.14.42,0,.15.14-.03.4-.16.46.29.05.93-.34.66-.67-.21-.26-.76-.16-1.03.02.17-.33.26-.88-.01-1.06-.35-.24-.7.42-.69.65.17-.18.42-.25.52-.17.08.07.09.31-.07.47-.26.28-.79.21-1.12-.04-.36-.27-.46-.76-.11-1.33.18.18.43.59.42.87.2-.35.34-.54.64-.84-.33.08-.7-.1-.91-.22.23-.18.55-.32.91-.27l-1.11-.85c.15.34.05.64-.07.91-.17-.18-.43-.48-.44-.81-.21.36-.36.55-.64.84.26-.07.71.06.94.18-.46.49-.99.42-1.31.21-.35-.22-.68-.66-.46-1.05.11-.19.41-.14.5-.08.1.07.14.29.01.5.26-.18.68-.58.36-.85-.24-.21-.65-.02-.92.24.1-.31-.02-.87-.34-.95-.4-.11-.55.57-.42.83.02-.13.22-.42.39-.31.17.11.12.35.05.47-.2.36-.64.4-1.01.2-.59-.32-.62-.88-.35-1.18.28.08.42.26.56.51.04-.28.16-.68.27-.91-.22.17-.51.21-.79.18.09-.21.34-.5.72-.61l-.85-.22c.03.65-.51,1.83-.68,2.29,3.26,1.87,3.62,2.12,6.34,4.86"/><path class="cls-2" d="m83.2,25.78c-.3.18-.51.26-.63.47-.12.21-.3.89-.35,1.16.24-.18.78-.67.89-.86.11-.2.05-.6.1-.76"/><path class="cls-2" d="m87.13,28.78c-.11.33-.15.56-.33.72-.18.16-.81.48-1.06.58.13-.28.49-.9.66-1.05.17-.15.58-.17.73-.26"/></g><g><path class="cls-2" d="m58.01,5.1v-1.39c-.69.14-1.23.7-1.35,1.39h1.35Z"/><path class="cls-2" d="m58.73,5.1h1.34c-.12-.7-.66-1.25-1.34-1.39v1.39Z"/><path class="cls-2" d="m56.68,5.78c.17.77.86,1.35,1.69,1.35s1.51-.58,1.68-1.35h-3.37Z"/><path class="cls-2" d="m58.58,1.98c.08-.41.27-.81.63-1.25h-1.74c.35.44.54.83.63,1.25.07-.05.15-.07.24-.07s.17.03.24.07"/><path class="cls-2" d="m58.11,2.69c-.07.43-.17.9-.57,1.22.61-.29,1.03-.3,1.71,0-.34-.25-.58-.8-.66-1.23-.07.05-.15.07-.24.07s-.17-.03-.23-.07"/><path class="cls-2" d="m57.96,2.14c-.43-.11-.88-.33-1.16-.7v1.8c.28-.37.74-.6,1.17-.7-.03-.06-.06-.13-.06-.21,0-.07.02-.13.05-.19"/><path class="cls-2" d="m58.72,2.14c.03.06.05.12.05.19,0,.08-.02.15-.06.21.43.11.89.34,1.17.7v-1.8c-.28.37-.73.6-1.16.7"/><path class="cls-2" d="m58.34,2.82c-.27,0-.48-.22-.48-.48s.22-.48.48-.48.48.22.48.48-.22.48-.48.48"/><rect class="cls-2" x="57.31" y="7.1" width="2.12" height="5.29"/><g><path class="cls-2" d="m49.55,8.21c.3-.28,1.41-1.2,2.68-1.12.94.05,1.65.41,2.23.69.16.08.32.16.46.22.64.28,1.69.49,2.44.49.09,0,.18,0,.25,0h.05s-.03-.39-.03-.39h-.05c-.07.01-.15.01-.23.01-.2,0-.43-.02-.66-.05l.04-.21c.23-.07.39-.28.39-.53,0-.31-.25-.55-.55-.55s-.55.25-.55.55c0,.17.08.32.2.43l-.04.22c-.41-.08-.8-.2-1.1-.33-.09-.04-.18-.08-.28-.13l.11-.24c.29-.02.52-.26.52-.55s-.25-.55-.56-.55-.55.25-.55.55c0,.13.04.24.12.34l-.11.23c-.3-.14-.63-.29-1.02-.4l.07-.28c.23-.07.39-.28.39-.53,0-.31-.25-.55-.55-.55s-.55.25-.55.55c0,.17.08.33.21.43l-.06.26c-.17-.03-.36-.05-.55-.07-.15,0-.29,0-.43,0l-.04-.2c.12-.1.2-.25.2-.42,0-.31-.25-.55-.56-.55s-.55.25-.55.55c0,.25.17.46.4.53l.03.18c-.36.09-.69.23-.97.39l-.11-.19c.05-.08.07-.17.07-.27,0-.31-.25-.55-.55-.55s-.55.25-.55.55.25.56.55.56c.01,0,.03,0,.04,0l.11.18c-.28.19-.49.37-.6.47-.07.07-.15.14-.22.22l-.14-.1s.02-.08.02-.13c0-.31-.25-.55-.55-.55s-.56.25-.56.55.25.55.56.55c.07,0,.13-.01.2-.04l.17.13c-.16.25-.31.55-.41.87l-.22-.05c-.06-.25-.28-.43-.54-.43-.31,0-.56.25-.56.55s.25.56.56.56c.16,0,.3-.07.4-.18l.23.06c-.05.33-.06.67,0,1.04l-.22.05c-.1-.11-.25-.19-.41-.19-.31,0-.56.25-.56.56s.25.55.56.55c.26,0,.48-.18.54-.42l.21-.05c.09.33.22.65.36.94l-.21.11c-.09-.06-.2-.1-.31-.1-.31,0-.55.25-.55.55s.25.56.55.56.56-.25.56-.56h0s.21-.11.21-.11c.18.33.36.6.47.76,0,.03,0,.05.01.05v.05s.06,0,.06,0c.03.04.04.06.05.07l.03.04.24-.18h0s0,0,0,0l.06-.05-.03-.04s-.02-.03-.06-.08c-.07-.39-.22-1.64.3-2.16.35-.35.7-.5,1.17-.5.19,0,.37.02.55.05l.26.03.06-.12c.24-.48.68-1,1.18-1.01h.05c.61,0,1.22.22,2.01.74.46.3.97.44,1.58.44.17,0,.32-.01.44-.02.09,0,.18-.01.23-.01h.05s.02-.38.02-.38h-.05c-.07,0-.17,0-.28,0-.12,0-.26.02-.42.02-.52,0-.97-.12-1.36-.38-.86-.56-1.53-.8-2.22-.8h-.05c-.75.01-1.25.75-1.45,1.1-.18-.02-.38-.05-.59-.05-.57,0-1.02.19-1.44.61-.42.42-.5,1.13-.48,1.71-.29-.5-.6-1.18-.71-1.85-.25-1.58.82-2.61.94-2.72Z"/><path class="cls-2" d="m69.22,10.8c-.16,0-.31.07-.41.18l-.22-.05c.06-.36.05-.71,0-1.04l.23-.06c.1.11.24.18.4.18.31,0,.55-.25.55-.55s-.25-.56-.55-.56c-.26,0-.48.19-.54.43l-.22.05c-.1-.32-.25-.62-.41-.87l.17-.13c.06.02.13.04.2.04.31,0,.55-.25.55-.55s-.25-.56-.55-.56-.56.25-.56.56c0,.04,0,.08.02.12l-.14.1c-.07-.08-.15-.16-.22-.22-.11-.1-.32-.28-.6-.47l.11-.18s.03,0,.04,0c.31,0,.55-.25.55-.55s-.25-.56-.55-.56-.56.25-.56.56c0,.1.03.19.07.27l-.11.19c-.29-.15-.62-.3-.98-.39l.03-.18c.23-.07.4-.28.4-.53,0-.31-.25-.55-.56-.55s-.55.25-.55.55c0,.17.08.32.2.42l-.04.2c-.14-.01-.28-.02-.43,0-.19.01-.38.03-.55.07l-.06-.26c.13-.1.21-.25.21-.43,0-.31-.25-.55-.55-.55s-.56.25-.56.55c0,.25.17.46.39.53l.07.28c-.38.11-.72.26-1.01.4l-.11-.23c.07-.09.12-.21.12-.34,0-.31-.25-.56-.56-.56s-.55.25-.55.56.23.53.52.55l.11.24c-.1.05-.19.09-.28.13-.3.13-.7.24-1.1.32l-.04-.22c.12-.1.21-.25.21-.43,0-.31-.25-.55-.55-.55s-.56.25-.56.55c0,.25.17.46.39.53l.04.21c-.23.03-.46.05-.66.05-.08,0-.16,0-.23,0h-.05s-.03.38-.03.38h.05c.08.01.16.01.25.01.75,0,1.79-.21,2.44-.49.15-.06.31-.14.46-.22.57-.28,1.29-.64,2.23-.69,1.27-.07,2.38.85,2.68,1.12.12.11,1.19,1.14.94,2.72-.1.66-.42,1.34-.71,1.84.02-.58-.07-1.29-.48-1.7-.42-.42-.87-.61-1.44-.61-.21,0-.41.03-.59.05-.2-.35-.7-1.09-1.45-1.1h-.04c-.7,0-1.37.24-2.23.8-.39.26-.84.38-1.36.38-.16,0-.3-.01-.42-.02-.11,0-.21-.02-.28-.01h-.05s.02.38.02.38h.05c.05,0,.14,0,.23,0,.12,0,.27.02.44.02.6,0,1.12-.15,1.58-.44.8-.52,1.4-.74,2.01-.74h.05c.5,0,.94.53,1.18,1.01l.06.12.26-.03c.18-.02.37-.05.56-.05.46,0,.82.15,1.17.5.52.52.36,1.76.3,2.16-.04.05-.06.08-.06.08l-.03.04.06.05h0s0,0,0,0l.24.18.03-.04s.02-.03.05-.07h.05s.01-.04.01-.04c0,0,0-.03.01-.05.11-.16.29-.43.47-.76l.21.11h0c0,.31.25.56.55.56s.56-.25.56-.55-.25-.55-.56-.55c-.11,0-.22.03-.31.1l-.21-.11c.14-.29.27-.61.36-.94l.21.05c.06.24.28.42.54.42.31,0,.55-.25.55-.56s-.25-.55-.55-.55Z"/></g><path class="cls-2" d="m65.78,19.32c-.38-.12-.63-.42-.55-.68.08-.26.45-.38.84-.26.12.04.22.09.31.16.01-.05.03-.1.04-.16.45-1.93.85-3.46,1.73-4.51l-1.63-.7c.48.65.51,1.42.41,1.86-.48-.3-.89-.71-1.03-1.25-.09.5-.4,1.31-.68,1.8.53-.22.96-.33,1.51-.13-.3.59-.97,1.61-2.23,1.32-.82-.19-1.4-.85-1.24-1.67.05-.27.26-.57.67-.53.4.04.43.68.31.93.53-.27,1.07-1.69.24-1.89-.65-.16-1.41.68-1.63,1.29-.12-.74-.68-1.73-1.33-1.69-.85.05-.61,1.53-.31,1.89.05-.49.37-.93.62-.91.23.01.52.39.48.84-.08.78-1.02,1.31-1.84,1.31-.91,0-1.67-.65-1.81-2,.51.08,1.42.43,1.76.88-.11-.82-.11-1.29,0-2.13-.42.53-1.24.7-1.73.77.14-.58.48-1.19,1.13-1.55h-2.82c.65.36.88.97,1.02,1.55-.49-.08-1.29-.24-1.71-.77.1.85.1,1.32,0,2.13.33-.45,1.22-.79,1.73-.87-.13,1.34-1.07,1.89-1.84,1.96-.84.07-1.89-.22-2.03-1.13-.07-.44.48-.73.7-.75.25-.02.59.29.64.78.2-.6.38-1.77-.47-1.82-.66-.04-1.07.77-1.19,1.51-.22-.61-1.1-1.37-1.72-1.12-.77.31-.18,1.59.35,1.86-.13-.25-.17-.95.23-.98.41-.04.62.42.67.69.13.82-.53,1.43-1.38,1.56-1.35.22-2.09-.65-2.02-1.46.55-.21.99-.11,1.53.12-.28-.49-.59-1.3-.68-1.8-.14.55-.56.96-1.06,1.26-.11-.45-.08-1.22.41-1.88l-1.63.7c.86,1.01,1.22,2.84,1.73,4.52,0,.03.02.07.03.1.07-.05.15-.08.25-.11.38-.12.76,0,.84.26.08.26-.17.57-.55.68-.12.04-.23.05-.34.04,0,.16,0,.32-.05.51,2.23-1.08,5.55-1.2,7.92-1.2,0,0,4.6-.3,7.86,1.2,0-.2.01-.36.03-.52-.13.02-.28.01-.43-.03"/><path class="cls-2" d="m50.82,18.22c-.11,0-.22.02-.33.05-.1.03-.19.07-.27.12-.29.18-.43.45-.35.7.07.22.3.37.6.38.02,0,.03,0,.05,0,.11,0,.22-.02.33-.05.21-.06.38-.18.5-.32.13-.16.17-.33.12-.5-.07-.23-.32-.38-.64-.38"/><path class="cls-2" d="m65.78,18.22c-.32,0-.57.15-.64.38-.05.16,0,.34.12.5.12.15.3.26.5.32.11.03.22.05.33.05.05,0,.1,0,.15-.01.25-.04.43-.18.49-.37.07-.22-.04-.47-.28-.65-.1-.08-.22-.13-.34-.17-.11-.03-.22-.05-.33-.05"/><path class="cls-2" d="m66.62,18.27s-.05,0-.07,0c-5.27-1.46-10.83-1.46-16.52,0-.15.04-.29-.05-.33-.2-.04-.15.05-.29.2-.33,5.79-1.49,11.45-1.49,16.81,0,.15.04.23.19.19.34-.03.12-.14.2-.26.2"/><path class="cls-2" d="m49.96,18.33c-.15,0-.28-.1-.32-.25-.02-.08,0-.17.03-.25.04-.08.12-.13.2-.15,2.89-.74,5.77-1.12,8.58-1.12s5.59.38,8.26,1.12c.17.05.28.23.23.4-.04.14-.17.24-.32.24-.03,0-.06,0-.09-.01-2.62-.73-5.34-1.1-8.08-1.1s-5.58.37-8.41,1.1c-.03,0-.05.01-.08.01"/><path class="cls-2" d="m53.38,11.3c-.26.66-.51,1.05-.44,1.54.07.5.61,1.8.86,2.29.17-.59.42-2.03.36-2.48-.07-.45-.66-1.02-.78-1.35"/><path class="cls-2" d="m63.39,11.32c.23.67.45,1.07.36,1.56-.09.49-.7,1.77-.98,2.24-.14-.6-.32-2.05-.23-2.5.09-.45.71-.99.85-1.31"/><path class="cls-2" d="m50.05,15.51c0,.32-.26.59-.59.59s-.59-.26-.59-.59.26-.59.59-.59.59.26.59.59"/><path class="cls-2" d="m49.46,16.15c-.35,0-.64-.29-.64-.64s.29-.64.64-.64.64.29.64.64-.29.64-.64.64"/><path class="cls-2" d="m58.95,14.13c0,.35-.28.62-.62.62s-.62-.28-.62-.62.28-.62.62-.62.62.28.62.62"/><path class="cls-2" d="m58.32,14.81c-.37,0-.68-.3-.68-.68s.31-.68.68-.68.68.3.68.68-.3.68-.68.68m0-1.25c-.31,0-.57.26-.57.57s.26.57.57.57.57-.26.57-.57-.26-.57-.57-.57"/><path class="cls-2" d="m67.51,15.47c0,.32-.26.59-.59.59s-.59-.26-.59-.59.26-.59.59-.59.59.26.59.59"/><path class="cls-2" d="m66.92,16.11c-.35,0-.64-.29-.64-.64s.29-.64.64-.64.64.29.64.64-.29.64-.64.64"/><g><path class="cls-2" d="m58.32,18.43c-4.14,0-8.55.73-8.55,2.08s4.41,2.08,8.55,2.08,8.55-.73,8.55-2.08-4.41-2.08-8.55-2.08Zm8.22,2.08c0,.83-3.38,1.76-8.22,1.76s-8.22-.93-8.22-1.76,3.38-1.76,8.22-1.76,8.22.93,8.22,1.76Z"/><path class="cls-2" d="m64.71,20.91c-1.61-.42-3.92-.66-6.34-.66s-4.78.24-6.39.67c-.09.02-.14.11-.12.2.02.07.08.12.16.12.01,0,.03,0,.04,0,1.58-.42,3.88-.66,6.31-.66s4.68.24,6.26.65c.09.02.18-.03.2-.12.02-.09-.03-.18-.12-.2Z"/></g></g><g><path class="cls-2" d="m31.32,13.69l-.07-.46c-.22.08-.37.3-.38.54l.45-.07Z"/><path class="cls-2" d="m31.56,13.65l.45-.07c-.08-.23-.28-.38-.52-.39l.07.46Z"/><path class="cls-2" d="m30.92,13.98c.1.25.36.4.63.36.27-.04.47-.27.49-.54l-1.12.18Z"/><path class="cls-2" d="m31.35,12.62c0-.14.05-.28.14-.45l-.58.09c.14.13.23.25.27.38.02-.02.05-.03.08-.04.03,0,.06,0,.08.01"/><path class="cls-2" d="m31.23,12.88c0,.15,0,.31-.13.44.19-.13.33-.16.57-.09-.13-.06-.23-.23-.29-.37-.02.02-.05.03-.08.04-.03,0-.06,0-.08-.01"/><path class="cls-2" d="m31.15,12.71c-.15-.01-.31-.06-.42-.17l.1.6c.07-.14.21-.24.35-.3-.01-.02-.03-.04-.03-.07,0-.02,0-.05,0-.07"/><path class="cls-2" d="m31.4,12.67s.02.04.03.06c0,.03,0,.05,0,.07.15.01.31.06.43.17l-.1-.6c-.07.14-.21.24-.35.3"/><path class="cls-2" d="m31.31,12.91c-.09.01-.17-.05-.19-.14-.01-.09.05-.17.14-.19.09-.01.17.05.19.14.01.09-.05.17-.14.19m-.05-.29c-.07.01-.12.08-.11.14.01.07.08.12.14.11.07-.01.12-.08.11-.14-.01-.07-.08-.12-.14-.11"/><path class="cls-2" d="m31.19,14.39l.28,1.76.7-.11-.28-1.76-.71.11Z"/><g><path class="cls-2" d="m30.96,14.73s.02,0,.04,0c.12-.02.2-.13.19-.26-.02-.12-.13-.21-.26-.19-.06,0-.11.04-.15.09-.03.05-.05.11-.04.17.02.11.11.19.22.19Z"/><path class="cls-2" d="m31.51,15.52h-.03s-.06.01-.09.02c-.07.02-.17.04-.29.04s-.22-.02-.32-.07c-.33-.15-.56-.19-.8-.15-.25.04-.38.31-.43.44-.2,0-.44.02-.65.3-.11.15-.11.38-.08.57-.12-.15-.24-.35-.31-.55-.17-.51.13-.9.17-.95.09-.11.41-.47.83-.51.05,0,.1,0,.14,0,.25,0,.46.07.63.12h0c.06.02.11.04.16.05.14.04.33.06.52.06.16,0,.3-.01.4-.04h.03s-.04-.15-.04-.15h-.03c-.09.03-.22.04-.37.04-.18,0-.36-.02-.49-.05-.02,0-.04-.01-.06-.02l.02-.06s.08-.04.11-.08c.04-.05.05-.11.04-.17-.02-.12-.13-.21-.26-.19-.12.02-.2.13-.19.26,0,.04.03.08.05.11v.05c-.1-.03-.2-.05-.31-.06v-.07c.08-.05.12-.13.11-.22-.02-.12-.13-.21-.26-.19-.06,0-.11.04-.15.09-.03.05-.05.11-.04.17,0,.06.04.11.09.15v.06c-.06,0-.11,0-.16,0-.04,0-.07.01-.11.02v-.04s.03-.1.02-.16c-.02-.12-.13-.21-.26-.19-.12.02-.21.13-.19.26.01.09.08.16.17.18v.03c-.08.04-.16.09-.23.15l-.03-.04s.01-.06,0-.09c-.02-.12-.13-.21-.26-.19-.12.02-.2.13-.19.26.02.11.11.19.22.19,0,0,.02,0,.03,0l.03.03c-.07.07-.12.13-.15.17-.01.02-.03.04-.04.06h-.03s0-.03,0-.04c-.02-.12-.13-.21-.26-.19-.12.02-.2.13-.19.26.02.11.11.19.22.19.01,0,.02,0,.04,0,.02,0,.04-.01.06-.02l.04.02c-.03.08-.06.16-.07.25h-.05c-.04-.09-.13-.14-.23-.12-.06,0-.11.04-.15.09-.04.05-.05.11-.04.17.02.11.11.19.22.19.01,0,.02,0,.04,0,.06,0,.1-.04.14-.08h.06c0,.1.02.19.04.28l-.05.02s-.1-.04-.16-.03c-.06,0-.11.04-.15.09-.03.05-.05.11-.04.17.02.11.11.19.22.19.01,0,.02,0,.04,0,.1-.02.17-.09.18-.18l.04-.02c.04.08.09.16.13.23l-.04.03s-.07-.02-.11-.01c-.12.02-.21.13-.19.26.02.11.11.19.22.19.01,0,.02,0,.03,0,.11-.02.19-.12.19-.23l.04-.03c.07.09.13.16.17.2,0,0,0,.01,0,.01v.03s.03,0,.03,0c0,0,.01.01.02.02l.02.02.07-.08h0s0,0,0,0l.02-.02-.02-.02s-.01-.01-.02-.02c-.04-.13-.16-.53-.02-.72.16-.23.35-.23.54-.24h.09s.02-.05.02-.05c.05-.17.17-.36.33-.39.21-.04.42,0,.72.14.12.05.24.08.38.08s.25-.03.32-.05c.03,0,.06-.01.08-.02h.03s-.01-.15-.01-.15Z"/></g><rect class="cls-2" x="30.86" y="14.66" width=".17" height=".14" transform="translate(15.92 45.53) rotate(-89.43)"/><path class="cls-2" d="m35.14,15.28h.04c.04.07.11.12.2.12h0s.02,0,.04,0c.12-.02.2-.13.19-.26-.02-.12-.13-.21-.26-.19-.06,0-.11.04-.14.08h-.05c0-.1-.02-.19-.04-.28l.05-.02s.08.03.12.03c.01,0,.02,0,.04,0,.12-.02.2-.13.19-.26-.02-.12-.13-.21-.26-.19-.1.02-.17.09-.18.18l-.04.02c-.04-.08-.09-.15-.14-.21l.03-.03s.02,0,.02,0c.01,0,.02,0,.04,0,.12-.02.2-.13.19-.26-.02-.12-.13-.21-.25-.19-.12.02-.21.13-.19.26,0,0,0,.02,0,.03l-.02.02s-.04-.03-.06-.04c-.04-.03-.11-.07-.19-.11l.02-.04c.12-.02.2-.13.18-.25-.02-.12-.13-.21-.26-.19-.12.02-.2.13-.19.26,0,.03.02.06.03.09l-.02.04c-.09-.03-.18-.05-.28-.06v-.03c.08-.05.12-.13.11-.23-.02-.12-.13-.21-.26-.19-.12.02-.2.13-.19.26,0,.06.04.11.09.14v.04s-.07,0-.11.02c-.05.01-.1.03-.15.04l-.02-.06h0s.05-.11.04-.17c-.02-.12-.13-.21-.26-.19-.12.02-.2.13-.19.26.01.09.08.16.17.18l.03.06c-.1.05-.18.1-.26.15l-.03-.05s.02-.08.02-.12c-.02-.12-.13-.21-.26-.19-.12.02-.2.13-.19.26.02.11.11.19.22.19l.03.05s-.04.03-.06.04c-.09.05-.2.11-.31.15v-.04s-.01,0-.01,0c.03-.05.05-.11.04-.17-.02-.12-.13-.21-.26-.19-.12.02-.2.13-.19.26.01.09.08.16.17.18v.04c-.08.03-.17.04-.25.05h-.03s.01.15.01.15h.03c.25-.02.65-.16.88-.31.05-.03.09-.06.14-.1.17-.12.39-.28.7-.35.06-.01.12-.02.19-.02.35,0,.67.19.76.25.05.03.45.31.45.85,0,.21-.06.44-.13.61-.03-.19-.1-.4-.25-.51-.13-.09-.26-.14-.4-.14-.11,0-.22.03-.31.06-.09-.11-.29-.32-.55-.29-.24.03-.46.15-.72.39-.2.18-.43.2-.57.21-.04,0-.07,0-.09.01h-.03s.03.15.03.15h.03s.04-.01.07-.01h0c.15-.01.42-.04.65-.25.24-.22.43-.32.64-.35.16-.02.34.13.44.27l.03.04.09-.03c.09-.03.18-.05.27-.05.11,0,.21.03.31.11.2.14.21.56.21.69,0,.02-.01.03-.01.03v.02s.01.01.01.01h0s0,0,0,0l.1.05v-.02s.02,0,.02-.02h.02s0-.03,0-.03c0,0,0,0,0-.02.03-.05.06-.14.1-.24l.05.02c.03.1.11.17.21.17.01,0,.02,0,.04,0,.06,0,.11-.04.15-.09.04-.05.05-.11.04-.17-.02-.12-.13-.21-.26-.19-.04,0-.07.02-.1.04l-.05-.02c.02-.08.04-.17.06-.26Z"/><path class="cls-2" d="m29.62,18.44s-.07.02-.11.03c-.03.01-.06.03-.08.05-.09.08-.12.17-.08.25.03.07.12.11.22.09,0,0,.01,0,.02,0,.04,0,.07-.02.11-.03.07-.03.12-.08.15-.13.03-.06.04-.12.01-.17-.04-.07-.13-.11-.23-.09"/><path class="cls-2" d="m34.6,17.65c-.11.02-.18.08-.19.16,0,.06.02.11.07.16.05.04.11.07.18.08.04,0,.08,0,.11,0,.02,0,.03,0,.05-.01.08-.03.13-.08.14-.15.01-.08-.04-.15-.13-.2-.04-.02-.08-.03-.12-.04-.04,0-.08,0-.11,0"/><path class="cls-2" d="m29.32,18.53s-.09-.03-.11-.07c-.03-.06,0-.13.06-.16,1.46-.64,2.96-.96,4.44-.96.39,0,.78.02,1.17.07.07,0,.11.07.11.13,0,.05-.05.1-.1.1-.01,0-.02,0-.03,0-.38-.04-.76-.06-1.14-.06-1.45,0-2.91.32-4.35.94-.02,0-.03,0-.05,0Zm4.39-1.13c-1.47,0-2.96.32-4.42.95-.03.01-.05.05-.03.09.01.03.05.05.09.03,1.44-.63,2.91-.94,4.37-.94.38,0,.77.02,1.15.06,0,0,.01,0,.02,0,.03,0,.05-.03.05-.06,0-.04-.02-.07-.06-.07-.38-.04-.78-.07-1.16-.07Z"/><path class="cls-2" d="m30.11,16c-.05.23-.11.38-.06.54.05.16.3.57.41.72.02-.21.03-.7-.01-.85-.05-.15-.27-.31-.33-.41"/><path class="cls-2" d="m33.44,15.47c.11.21.21.33.2.5,0,.17-.14.63-.21.8-.08-.19-.21-.67-.21-.82,0-.15.19-.37.21-.48"/><path class="cls-2" d="m32.35,19.48c-1.39.22-2.87.2-2.94-.23-.07-.42,1.33-.9,2.72-1.13,1.39-.22,2.87-.2,2.94.23.07.42-1.33.9-2.72,1.12m-.2-1.28c-1.65.26-2.71.75-2.66,1.04.05.29,1.2.43,2.85.17,1.65-.26,2.71-.75,2.66-1.04-.05-.29-1.2-.43-2.85-.16"/><path class="cls-2" d="m34.88,17.45s.07.04.06.08c0,.04-.04.07-.08.06-.01,0-.02,0-.03,0,0,.01,0,.02,0,.04.01,0,.02,0,.03,0,0,0,.02,0,.03,0,.05,0,.09-.05.09-.1,0-.06-.04-.12-.1-.12-.01,0-.03,0-.04,0,0,.01,0,.02,0,.04.01,0,.03,0,.04,0Z"/><path class="cls-2" d="m29.35,18.48s-.08,0-.1-.04c0-.02,0-.04,0-.06,0-.02.02-.03.04-.04.02,0,.03-.01.05-.02,0-.01-.01-.02-.02-.03-.02,0-.03.01-.05.02-.03.01-.05.03-.06.06-.01.03-.01.06,0,.08.02.05.07.07.12.07,0,0,.02,0,.03,0,.02,0,.04-.02.06-.02,0-.01-.01-.02-.02-.03-.02,0-.04.01-.06.02Z"/><path class="cls-2" d="m34.98,16.51c.04-.16.1-.31.18-.44l-.58-.15c.17.17.23.37.23.53,0,0,0,0-.01,0-.03,0-.05.01-.08.03-.14-.07-.26-.18-.32-.32,0,.17-.06.46-.13.63.12-.07.23-.12.35-.13,0,.01,0,.02,0,.04,0,.06.04.1.08.14-.1.2-.27.42-.61.39-.28-.02-.51-.21-.5-.49,0-.09.06-.2.2-.21.14,0,.18.2.15.29.16-.12.27-.62-.02-.64-.23-.02-.43.3-.47.52-.08-.24-.32-.54-.53-.49-.28.06-.12.54,0,.65,0-.17.07-.33.16-.34.08,0,.19.1.2.25.02.26-.27.49-.54.53-.27.04-.54-.1-.67-.46.03-.03.05-.07.07-.11.18.02.42.08.53.19-.08-.27-.1-.42-.11-.71-.09.17-.3.26-.45.32-.02-.03-.04-.05-.07-.06.03-.17.11-.36.28-.49l-.94.15c.2.07.31.22.38.37-.02.02-.04.05-.05.08-.16,0-.38-.04-.52-.16.08.28.1.43.11.71.07-.14.27-.27.43-.34.02.04.06.06.1.08-.03.37-.28.57-.51.63-.27.07-.64.03-.74-.27-.05-.14.12-.27.2-.29.08-.02.21.07.25.23.03-.21.03-.61-.25-.58-.22.02-.31.31-.31.57-.1-.19-.44-.4-.63-.28-.24.15.03.54.21.6-.05-.08-.11-.31.03-.34.14-.03.23.11.26.2.09.27-.1.5-.38.59-.36.12-.63-.03-.72-.25.02-.04.02-.08.02-.13,0,0,0-.02,0-.03.15-.07.3-.06.47-.02-.12-.15-.26-.4-.32-.56-.02.18-.12.33-.26.45-.01,0-.03-.01-.04-.02-.05-.15-.06-.38.05-.61l-.51.32c.1.09.19.2.27.32-.06.05-.1.12-.08.21.02.12.13.2.25.18.02,0,.03,0,.04-.01.08.15.15.32.23.48.91-.39,1.83-.66,2.75-.81.92-.15,1.85-.17,2.77-.07.02-.19.03-.37.06-.54.1-.03.16-.13.15-.24,0-.05-.03-.09-.07-.13Z"/><path class="cls-2" d="m32.11,17.7c-.9.14-1.8.41-2.69.79,0,.01.01.02.02.04,0,.01,0,.02.01.03.02-.02.05-.04.08-.05.12-.06.25-.04.29.04.04.08-.03.2-.15.26-.04.02-.07.03-.11.03.01.05.01.11,0,.17.68-.48,1.79-.69,2.57-.82,0,0,1.52-.34,2.68-.01,0-.07-.02-.12-.02-.17-.04.01-.09.02-.15.01-.13-.02-.23-.11-.22-.2.01-.09.13-.15.27-.13.04,0,.08.02.11.04,0-.02,0-.03,0-.05,0-.01,0-.02,0-.03-.9-.1-1.81-.08-2.72.07Z"/></g><g><path class="cls-3" d="m46.55,23.26c.53.08,1.15.22,1.68.27.75.07,1.4.08,2.16.1.9-.12,1.38,1.1.8,1.86-.44.58-1.03,1.29-1.86.94-.15-.04-.26-.24-.54-.08-.46.4-.79.29-1.11-.05-.13-.07-.32-.15-.44-.11-.67.27-.98-.04-1.3-.34-.52-.48-.71-1.02-.7-1.62.02-.67.36-.92,1.31-.98"/><path class="cls-3" d="m47.63,27.87c-.41.07-.52.19-.72.46-.06.09-.3.03-.47-.02-.18-.06-.45-.11-.48-.32.02-.63.84-1.29,1.43-1.09.31.1.32.34.33.53,0,.17,0,.47-.1.44"/><path class="cls-3" d="m44.75,24.8c-1.05,0-1.31-.22-1.43-.81-.04-.21-.05-.47-.03-.78,1.07.05,1.38.19,1.3.79-.04.3-.04.4.15.8"/><path class="cls-3" d="m48.48,29.29c-.07.44-.44.67-.78.62-.25-.03-.63-.4-.64-.63-.02-.4.27-.74.78-.71.44.03.74.18.65.72"/><path class="cls-3" d="m51.69,25.6c.93,0,1.16-.21,1.27-.76.04-.2.04-.44.02-.74-.95.05-1.06.18-1.08.75-.02.52-.07.54-.21.74"/><path class="cls-3" d="m43.21,30.7c-.95-.27-1.24-.14-1.5.37-.09.18-.16.41-.22.7.98.23,1.13.13,1.31-.41.16-.49.26-.47.41-.66"/><path class="cls-3" d="m52.23,31.27c.84-.24,1.09-.12,1.32.32.08.16.14.36.2.62-.86.2-1,.11-1.15-.36q-.14-.43-.36-.58"/><path class="cls-3" d="m47.87,33.79c.65.62.68.91.41,1.34-.1.15-.24.31-.44.5-.63-.66-.62-.82-.28-1.21.31-.36.23-.36.32-.62"/><path class="cls-3" d="m46.55,29.13c-.07.39,0,.53.19.8.06.08-.07.28-.17.42-.11.15-.24.38-.44.34-.56-.21-.9-1.17-.53-1.64.19-.25.41-.19.58-.14.16.05.42.15.37.23"/><path class="cls-3" d="m48.95,28.61c-.11-.38-.23-.48-.51-.64-.09-.05-.06-.28-.03-.45.03-.18.06-.44.25-.49.6-.05,1.32.67,1.19,1.25-.07.3-.29.35-.47.37-.16.02-.45.04-.43-.05"/><path class="cls-3" d="m47.4,30.41c.37.15.52.11.82,0,.09-.04.26.13.37.26.12.14.31.32.23.5-.33.5-1.34.62-1.72.16-.2-.24-.09-.44,0-.6.08-.14.24-.38.3-.31"/><path class="cls-3" d="m48.85,29.99c.27-.24.29-.38.31-.69,0-.09.21-.16.35-.2.16-.05.38-.13.5.02.29.49,0,1.37-.53,1.49-.27.06-.4-.11-.5-.24-.09-.13-.22-.36-.14-.38"/><path class="cls-3" d="m42.03,28.68c.21-.37.5-.8.69-1.19.26-.55.45-1.04.67-1.6.14-.72,1.33-.71,1.84-.05.39.51.85,1.17.31,1.69-.08.1-.28.13-.21.38.23.47.04.69-.34.83-.1.07-.21.2-.21.3.05.58-.3.73-.65.88-.56.25-1.08.23-1.6.04-.58-.22-.7-.55-.5-1.28"/><path class="cls-3" d="m52.73,30.79c-.54.06-1.05-.06-1.51-.43-.29-.23-.59-.45-.4-1,.03-.1-.05-.24-.13-.33-.33-.23-.46-.48-.12-.87.13-.23-.06-.3-.11-.42-.38-.63.22-1.14.71-1.53.65-.51,1.78-.22,1.74.5.08.59.13,1.1.25,1.69.08.41.26.89.36,1.3.02.74-.18,1.03-.79,1.1"/><path class="cls-3" d="m48.68,34.21c-.28-.39-.41-.83-.32-1.35.06-.32.1-.65.61-.73.09-.02.17-.14.21-.24.04-.35.18-.56.63-.47.23,0,.21-.18.28-.26.32-.56.99-.32,1.5-.1.68.28.94,1.28.37,1.55-.43.31-.8.57-1.21.91-.29.24-.59.58-.86.83-.57.33-.89.3-1.2-.14"/><path class="cls-3" d="m43.26,31.66c.3-.42.69-.72,1.25-.81.35-.06.69-.14.96.34.05.08.2.12.32.12.37-.09.63-.03.7.46.08.24.25.15.36.19.68.12.68.88.65,1.47-.04.79-.95,1.41-1.43.93-.47-.32-.87-.6-1.36-.89-.34-.2-.8-.38-1.15-.56-.54-.46-.62-.78-.29-1.26"/></g><g><path class="cls-3" d="m91.63,22.98c-.03-.58-.63-1.03-1.28-1.1-.15-.02-.32,0-.47-.06-.14-.04-.3-.15-.26-.41.38-.04.81-.04,1.1,0,.39.04.53.16.92.33-.12-.57-.75-1.03-1.4-.99-.14,0-.28.03-.43.03-.17,0-.47-.03-.49-.38.42-.08.82-.16,1.14-.16.39,0,.58.06.99.19-.18-.55-.8-.91-1.44-.8-.15.03-.3.04-.47.08-.16.03-.41.09-.49-.21,0,0,0,0,0,0,.44-.14.76-.28,1.09-.33.38-.05.64,0,1.06.07-.25-.52-.89-.82-1.51-.63-.14.05-.29.08-.47.14-.15.05-.39.14-.5-.18.41-.21.63-.33.93-.43.36-.11.66-.16,1.07-.04-.31-.49-.98-.69-1.57-.42-.14.06-.3.14-.47.21-.14.06-.32.07-.44-.14,0,0,0,0,0-.01.26-.18.51-.36.74-.45.36-.15.66-.21,1.09-.24-.38-.44-1.08-.42-1.67-.09-.06.03-.14.07-.23.12-.15.08-.39.14-.53-.09.54-.47,1.23-.61,1.55-.6,0-.03-.5-.29-.9-.1,0-.1-.01-.24-.17-.38,0,.33-.46.66-.75.87-.53.4-1.08.75-1.78.89-.32.06-.49,0-.57-.1-.11-.14-.02-.34.25-.34.58-.02.93-.43,1.35-.73.16-.12.27-.26.54-.27-1.4-.23-2.22-.67-3.12.43-.17-.49.04-.75.31-.94.28-.2.63-.31.92-.5.47-.31.61-.96.35-1.34-.25.22-.14.4-.43.88-.25.34-.45.38-.6.32.04-.15.24-.48.3-.67.1-.29.11-.27.15-.61,0,0,.06-.6-.17-.65-.16.2-.19.25-.33.59-.13.33-.48,1.27-.85,1.11.1-.32.12-.35.22-.66.07-.23.1-.45.13-.75.01-.15.03-.45-.17-.57-.09.1-.35.55-.4.66-.19.5-.25.59-.45,1.18-1.43-.92-2.74-1.71-4-2.58-1.3-.9-2.56-1.85-4.02-2.49.57.63,1.22,1.09,1.8,1.63.3.27.49.4.67.41.37.03.49.16.59.25.22.15-.12.15-.36.16.22.18.34.36.53.36.74,0,.71.1.79.16.4.3-.25.18-.44.21.15.21.41.38.56.4.27.04.6-.06.75.11.35.25-.08.18-.45.21.27.25.44.48.8.47.42,0,.53-.1.81.13.48.33-.34.27-.74.28.31.31.46.43.68.43.34,0,.81-.1,1.02.08.26.24-.2.27-.83.26.14.39.12.69-.43,1.11-.41.32-.67.74-.74,1.2-.16,1.02-.74,1.83-1.39,2.47-.62.6-1.02,1.05-.98,2,0,.26.12.69.3.77.25.1.62-.02.92-.12.36-.12.69-.3,1.04-.46.07-.06.17-.03.14.15-.08.43-.16.85-.22,1.28,0,.06-.02.23-.03.3,0,.03.07.06.11.07.46.21,1.25-.26,1.33-.82.08-.57.93-1.48,1.42-1.51,1.11-.08,2.02-.53,2.65-1.48.07-.1.09-.23.13-.35.02-.14.14-.14.15.04-.02.18-.02.37-.05.55-.14.74-.71,1.1-1.28,1.47-.2.13-.47.34-.49.54-.08.66-.28,1.21-.72,1.74-.29.35-.79.89-1.14,1.09.18-.02-.06.67-.06.67.27-.17.51-.15.64.13-.04-.52,1.21-.91,1.17-.85-.09.43.07,1.21-.14,1.45.27,0,.38,0,.46.38.06-.29.23-.51.45-.34.64.39,1.17.89,1.61,1.24.13.1.07.38-.26.43.55.19,1.76-.1,1.76-.1,0,0,.12.7-.08.88.36.28.84.51,1.06.76.26.29.48.56.58,1,.28-.5-.06-1.22-.57-1.62-.23-.18-.46-.36-.33-.8.32.23.59.44.79.66.26.29.5.58.59.95.28-.5-.07-1.16-.58-1.56-.23-.18-.56-.35-.42-.8,0-.01.01-.03.02-.04.31.23.63.43.82.65.26.29.5.47.61.91.29-.5-.09-1.12-.6-1.53-.23-.18-.54-.39-.39-.84.31.2.61.38.81.58.27.28.49.49.62.88.26-.52-.1-1.12-.64-1.49-.12-.08-.25-.21-.36-.31-.04-.04-.26-.16-.13-.55.32.2.64.37.84.57.28.27.53.53.66.9.25-.52-.16-1.15-.7-1.51-.11-.08-.25-.14-.36-.24-.13-.11-.36-.19-.3-.62.35.16.7.3.93.47.31.23.61.44.78.77.18-.55-.31-1.09-.89-1.38-.13-.07-.29-.12-.42-.21-.13-.1-.26-.19-.26-.57.34.09.73.24.96.36.34.18.65.36.89.67.09-.57-.47-1.06-1.1-1.25-.13-.04-.28-.12-.41-.19-.13-.06-.29-.29-.28-.49.35.06.79.16,1.04.25.36.14.58.28.91.55.03-.58-.53-.97-1.17-1.11-.11-.02-.25-.04-.37-.07-.12-.02-.37-.22-.34-.51t0,0c.37.03.72.03.99.11.37.11.61.22.96.46m-10.9-3.98c-.11-.17-.69.54-.61.27.23-.55.37-1.01.6-1.42.1-.19.24-.26.48-.37.19,0-.06.49.08.58.37.29.79.62,1.22.97-.46.3-1.5.27-1.78-.03m4.23-2.05c-.1.13-.25.18-.41.08-.19-.12-.06-.27.05-.4.22-.26.61-.4,1.26-.22.77.22-.4-.09-.89.53"/><path class="cls-2" d="m86.6,15.56c.22.02.47-.13.54-.29.07-.17.06-.52-.02-.59-.02-.02-.12-.04-.21.1-.16.24-.1.44-.12.55-.02.11-.19.23-.19.23"/><path class="cls-2" d="m87.8,15.15c.06.04.06.25-.04.35-.1.1-.23.17-.46.11.23-.11.15-.25.3-.37,0,0,.15-.13.2-.09"/><path class="cls-2" d="m85.78,15.46c.25,0,.56-.17.64-.38.09-.22.05-.7-.02-.78-.02-.01-.14-.06-.25.14-.2.32-.12.58-.15.72-.03.14-.22.3-.22.3"/></g></g><g><g><rect class="cls-2" x="55.67" y="59.24" width=".02" height=".02"/><g class="cls-1"><path class="cls-3" d="m55.68,59.24s0,0,0,0h0s0,.01-.02.02c0,0,0,0,.01,0"/></g></g><path class="cls-3" d="m48.58,75.48c.29.13.68.32.97.44.17.07.35.14.52.21,1.96.79,3.99,1.29,6.07,1.61,2.02.31,4.06.37,6.09.21,1.88-.15,3.45-.64,5.22-1.24.81-.29,1.41-.55,2.12-.95.34-.18.67-.41,1.04-.61.1.31.13.55-.21.74-.35.21-.58.33-.95.5-.9.42-1.76.81-2.78,1.11-.92.27-1.56.45-2.31.58-.92.16-1.65.25-2.7.29-1.61.07-3.18.03-4.76-.14-1.48-.19-2.87-.48-4.35-.86-.61-.16-1.5-.47-2.09-.69-.56-.24-.85-.39-1.42-.64-.17-.09-.24-.12-.37-.25-.08-.09-.11-.25-.07-.32"/><path class="cls-3" d="m72.41,77.13c-.24.15-.52.35-.76.5-1.12.7-2.37,1.14-3.6,1.6-.63.23-1.28.41-1.93.6-1.33.36-1.97.47-3.8.65-.65.06-1.74-.09-2.79-.34,2.33.03,4.29-.2,5.52-.49,1.7-.39,3.38-.9,4.94-1.71.52-.27,1.06-.61,1.51-.97.27-.27.76-.04.92.17"/><path class="cls-3" d="m48.2,78.04c-.75-.52-1.28-1.35-1.33-1.41.5.15,1.1.57,1.7,1,.67.39.93.54,1.74.83.96.34,1.67.54,2.66.8,1.36.36,1.29.31,2.66.62.62.12,1.49.2,2.7.25-1.63.3-2.86.13-4.02-.08-.82-.15-2.16-.35-3.17-.69-1.72-.57-2.19-.8-2.94-1.32"/><path class="cls-3" d="m76.1,75.03c-2.51,3.43-5.16,4.43-7.69,5.09-1.6.41-3.63.62-4.32.65,1.88-.36,3.62-.86,4.95-1.42,1.35-.57,2.16-.93,3.32-1.75.09-.09.25-.2.43-.12.58.24,2.57-1.61,3.3-2.44"/><path class="cls-3" d="m55.99,81.26c-.37-.05-1.53-.45-1.69-.68,1.63.36,3.12.36,4.64.4.2.01.93-.02,1.13-.03.56-.02,1.38.31,1.86.34-.49.13-2.4.25-3,.2,0,.03-1.63-.06-2.94-.23"/><path class="cls-3" d="m70.28,74.67c-1.12.61-2.02,1.05-3.18,1.53-.16.07-.43.15-.6.11-.22-.07-.29-.25-.23-.45.29-.09.49-.17.75-.27,1.08-.38,1.69-.68,2.75-1.12.1-.04.54-.31.78-.44.01.43-.18.58-.29.63"/><path class="cls-3" d="m70.35,73.6c-.15.1-.7.36-.86.44-.81.38-.91.4-1.7.77-.29.13-1.4.53-1.27-.02,1.39-.59,2.74-1.1,4.09-1.68.02.18,0,.37-.26.49"/><path class="cls-3" d="m73.62,70.1c1.18-.26,2.95-.31,4.12-.21,0,.41,0,.6-.01.94-1.25-.18-2.92-.35-4.12-.53-.12-.02-.08-.19.02-.2"/><path class="cls-3" d="m75.82,72.18c.84.08,1.39,0,1.11.72-.05.12-.19.49-.23.61-.19.57-.57.54-1.09.5.06-.61.15-1.22.21-1.82"/><path class="cls-3" d="m69.75,72.51c0,.27-.41.45-1.01.72-.4.18-.88.42-1.24.47-.24.03-.5.1-.6-.16,1.11-.42,1.83-.73,2.73-1.15.12-.07.12.02.12.12"/><path class="cls-3" d="m71.89,74.23c1.38.19,2.63.37,3.82.53-.02.15-.05.26-.29.22-.65-.08-1.51-.19-2.16-.28-.34-.05-.77-.1-1.11-.15-.22-.03-.26-.15-.26-.32"/><path class="cls-3" d="m72.98,70.89c.24-.03.54-.06.8-.03.93.13,2.78.29,3.71.44q-.07.19-.16.35c-1.28-.18-3.04-.42-4.33-.6-.14-.02-.13-.15-.03-.17"/><path class="cls-3" d="m74.78,72.82c-.22-.22-.43-.45.06-.76-.77-.11-1.36-.21-2-.3-.49-.08-.73-.01-.79.46-.05.41-.07.82-.13,1.27.23.03.43.06.56.08,0-.45-.03-.84,0-1.22.02-.2-.01-.5.33-.52.54.18.59.61.55,1.09-.01.15,0,.31.03.45.02.1.16.29.24.3.34.07.58.12,1.07.19-.6-.46-.24-.77.07-1.04"/><path class="cls-3" d="m57.69,76.31c-.93-.17-1.86-.34-2.86-.53,0-.38.87-.2,1.52-.08.74.14,1.34.27,1.34.6"/><path class="cls-3" d="m53,76.41c-.83-.16-1.67-.49-2.39-.74,0-.58,2.43.17,2.39.74"/><path class="cls-3" d="m55.32,76.58c.8.14,1.51.27,2.23.39,0,.34-.82.25-1.28.16-.45-.08-1.08-.24-.95-.56"/><path class="cls-3" d="m52.66,74.86c-.31.35-.73.26-1.15.19-.07-.01-.57-.14-.52-.42.02-.1.21-.13.31-.11.23.04.44.14.66.2.21.06.43.09.69.14"/><path class="cls-3" d="m74.47,75.93c-.45-.07-.76-.1-1.21-.17-.13-.03-.13-.11-.13-.3.46.05,1.03.17,1.49.22,0,.17-.07.25-.14.25"/><path class="cls-2" d="m78.62,68.67c-.43,0-1.57,0-2.25,0-.31,0-.23-.25-.23-.44.01-.78,0-4.87,0-5.22h-.22c-.02.28-.03.72-.03,1.02,0,.26-1.61,1.4-2.3.99-.31-.19-.29-.39-.32-.65-.05-.49-.26-.92-.72-1.11-.65-.26-2.1.49-2.55,1.07-.44.57-.44,4.92-.19,6.1-.07.02-.13.02-.17.01-.23-.06-.42-.41-.65-.76-.02-.03-1.19-1.58-1.24-1.67-.36-.58-.9-1.37-1.29-1.93-.41-.6.1-.64.73-.87.54-.2.82-.49,1.35-.49.69,0,.47-.24.28-.22-.51,0-.64-.31-.73-.51-.29-.64-.86-1.81-1.11-2.37-.02-.04-.23-.4-.39-.76-.41-.92-.88-2.02-1.32-2.93-.3-.62-.6-1.2-.57-1.89.01-.3.01-.82,0-1.02-.87-.24-.98-.07-1.6.42-.32.26-.99.22-1.2.06.13.39.6.56.73.61.61.2.86-.03,1.51-.13.18-.03.39-.07.39.07,0,.09.01.23,0,.38-.07,1.02-.39,1.93-.72,2.88-.34.96-.82,1.86-1.25,2.78-.11.24-.2.52-.37.29-.28-.37-2.42-3.73-2.52-4.22-.07-.31.31-.32.6-.39.76-.2.81-.92,1.46-1.14.17-.08.07-.25-.27-.21-.69.09-1.01-.52-1.28-.95-.42-.66-.84-1.37-1.16-2.04-.09-.19-.07-.45-.07-.69,0-.24.01-.22.03-.59-.31.28-.86.21-1.17.49-.44.4-.4,1.63-1.45.72.14.19.26.77,1,.76.38,0,.68-.09.98-.54.2-.3.44-.33.33-.1-.02.05-.56,1.46-.78,1.95-.27.62-.52,1.28-.87,1.74-.11.15-.15.27-.45.34-.06.02-.37.02-.37.11,0,.1.04.05.28.09.69.12.32.6-.2.95-.02.01-.86.72-.86.72-.45.35-.7.44-1.06,0-.55-.68-.99-1.5-1.48-2.23-.44-.66-.57-1.37-.55-2.18.01-.46,0-.76-.01-1.35-.68.07-1.04.49-1.41.84-.43.4-.59.93-1.2.99.44.37,1.09.17,1.77-.37.2-.16.52-.22.54.25,0,.21.02.39.01.6-.01.29-.03.37-.08.53-.21.64-.48,1.17-.78,1.86-.23.54-.46,1.2-.81,1.48-.15.12-.34.24-.59.26-.48.03-.36.24-.28.24.51.14.93.25,1.34.37.47.14.8.76.58,1.11-.04.07-.09.14-.14.21-.15.19-.87,1-1.77,1.82-.79.72-1.74,1.45-2.31,1.82-.75.49-2.97,1.64-3.75,2.09-.58.34-1.28.95-1.84.95-.14,0-.27-.19-.26-.53.03-.97.06-2.9.05-5.13-.51,0-.44.52-.98.58-.39.05-.47.18-.48.31-.05.58-.05.91-.05,1.14.11.02.26-.07.34-.13.56-.38.48-.21.96-.29.02.66,0,2.92-.04,3.59,0,.15-.05.44-.34.44h-1.81c-.13-.01-.13.23.13.32.18.05.43.03.63.04.27.02.51.23.58.32,1.08,1.16,3.2,3.08,3.66,3.45.3.24.63.49.97.94.33.44,1.31,2.04,1.55,2.21,0,0,0,0,0,0,0,0,0,0,0,0,0,0,.01,0,.02,0,0,0,0,0,0,0,.57.21,1.05.58,1.58.85.84.42,1.68.83,2.56,1.17.73.28,1.39.47,2.15.68.97.27,2.02.6,3.01.74,1.2.17,1.83.24,2.75.25,1.29.01,2.58-.02,3.86-.13,1.06-.09,2.11-.31,3.16-.53.69-.14,1.37-.33,2.03-.57.61-.22,1.17-.49,1.76-.77.56-.27,1.54-.91,2.08-1.22-.12-.22-.5-.29-.79-.08-.59.34-.7.48-1.66.91-.88.39-1.72.8-2.64,1.02-1.36.34-2.56.57-4.2.79-1.7.14-3.38.15-5,0-1.8-.2-2.88-.49-4.6-.98-.73-.17-1.46-.44-2.15-.72-.79-.32-1.68-.78-2.15-1.15-.67-.52-.87-1.25-.83-2.81,0-.42.17-.6.41-.54.14.04.28.08.42.13.48.15,1.12.39,1.6.56,1.49.55,2.86.91,4.33,1.17.44.08,1.01.17,1.68.21,0-.17.06-.28-.03-.34-.1-.07-.47-.07-.45-.34,0-.15.4-.15.54-.15.36.01.61.05.99.09.13.04.06.67.04.85.58.02,1.12.06,1.74.05.21,0,.6-.03.62.18.02.2-.03.15-.89.19-.1,0-.09.13,0,.13.11,0,.45.07.54.16.26.26.21.58.2.98-.02.62.36.58.84.6,1.01.04,1.79-.04,2.5-.1.33-.06.39-.27.38-.48-.85,0-2.58.2-2.64.1-.13-.04-.1-.12-.13-.26-.02-.14.11-.14.53-.15.55-.02.89-.07,1.41-.09.4-.01.52-.14.52-.34-.78,0-1.57,0-2.53,0-.11,0,.01-.46.24-.46,1.85,0,1.94-.21,2.85-.26.22-.01.68.13.68.54,0,1.04.37.96.67.91.06-.01.57.04.48-.67-.01-.4-.22-.9-.02-1.17.24-.33.77-.44,1.26-.66.4-.18.24-.28.15-.5-.11-.27.04-.45.28-.54.62-.21,1.2-.44,1.8-.68.26-.1.64-.26.89-.37.57-.25.59-.55.94.15.03.06.04.12.09.28.28-.18.7-.31.72-.48.08-.73.55-1.2.96-1.71.4-.49.87-1.13,1.59-1.18.24-.02,4.59.02,4.95,0,.14-.23.36-.55.04-.55Zm-20.05-4.59c-.2-.03-.31.13-.25-.64.08-.97.28-4.39.3-4.73.05-.57.15-.52.16.24,0,.15.03,3.62.05,4.48,0,.15.12.68-.26.66Zm-1.71-1.06c-.13-.12-.09-.31.03-.6.06-.14,1.16-3.72,1.25-3.89.09-.28.21-.49.18.13,0,.12-.28,4.03-.32,4.45-.01.17,0,.77-.19.67-.14-.06-.79-.61-.95-.75Zm.71,1.4c-.64.2-1.03.28-1.52.41-.31.11-.28-.04-.17-.22.2-.4.3-.62.54-1.12.05-.1.12-.22.21-.16.34.24.62.5.96.8.18.16.04.27-.02.29Zm-.03-7.49c.35-.84.67-1.64,1-2.45.15-.43.23-.17.24-.01.03.43.02,1.96.02,2.1,0,.15-.13.27-.27.33-.25.11-.54.25-.89.32-.12.02-.22-.06-.11-.29Zm-1.74,3.03c.24-.09.04-.17-.36-.2-.17,0-.05-.06.05-.14.18-.15,1.2-1.01,1.36-1.14.17-.14.67-.53.91-.46.22.06.13.24.11.35-.02.12-1.03,3.45-1.29,4.09-.07.17-.17.14-.22.09-.5-.6-.97-1.11-1.36-1.82-.17-.31.22-.53.82-.76Zm-1.69.93c.34-.25.49.03.68.25.46.57.94,1.13,1.38,1.71.08.1.12.31.07.42-.29.61-.51,1.04-.83,1.62-.14.25-.35.17-.5-.1-.35-.63-1.25-2.58-1.32-2.88-.03-.14-.04-.21.03-.34.08-.16.3-.53.5-.68Zm1.15,5.24c.19.29.29.39-.09.41-.26,0-.76,0-1.02.03-.29.03-.35-.16-.39-.49,0-.07-.42-2.92-.49-3.52-.05-.25.14-.24.23,0,.32.85,1.51,3.19,1.76,3.58Zm-3.1.92c-.16.05-.29.12-.35.08-.09-.07.03-.21.12-.36.11-.16.04-.06.14-.22.08-.12.16-.04.16.11,0,.15.06.35-.07.39Zm-.68.02c-.12.14-.23.17-.32.17-.65.03-1.12.05-1.41,0-.3-.05-.38-.17-.15-.47.07-.09.29-.4.41-.6.12-.2.24-.44.42-.67.05-.07.06-.13.12-.14.12-.03.27.05.37.09.33.11.55.15,1.06.35.26.1-.02.44-.16.7-.13.23-.24.45-.35.57Zm.7-4.08c.03.35.01,1.29.01,1.55q0,.36,0,.73c0,.08.01.23-.09.26-.12.04-.33-.05-.42-.07-.3-.08-.5-.12-.79-.27-.28-.14-.04-.43.01-.56.25-.62.43-1.05.72-1.66.07-.14.2-.61.38-.5.16.12.15.39.16.52Zm-.73-3.18c-.48.05-.46-.25-.39-.42.25-.7.56-1.37.85-2.05.06-.17.14-.2.14-.03,0,.44.03,1.87.02,1.96-.01.58-.22.5-.62.54Zm-7.16,12.71c-.56-.48-1.8-1.62-2.61-2.36-.14-.13-.86-.78-.79-1.05.09-.23.37-.14.93-.15.96,0,.3,0,.96,0,.76,0,1,.4,1.19.62.03.03.05.06.07.09.26.31.46.62.65,1.25.17.54.98,2.79-.4,1.6Zm2.44,2c-.15.08-.36-.22-.5-.39-.27-.32-.35-.67-.54-1.25-.31-.94-.55-2.06.03-1.7.36.22.35.2.62.4.28.24.29.74.31.85.12.63.14.93.16,1.56.01.32.07.47-.07.54Zm-.15-3.35c-.37-.13-.74-.46-1.43-1.03-.42-.35-1.18-1.18-.83-1.19,1.12-.03,1.62.02,2.31.02.57,0,.53.17.58.52.06.39.02.96.05,1.35.03.4-.3.5-.67.34Zm1.87.67c-.18-.06-.37-.15-.6-.25-.22-.09-.25-.4-.26-.57-.06-.8-.06-1.17-.14-1.98-.03-.28-.16-.38-.38-.38-.95,0-1.65.02-2.59,0-.35,0-1.47,0-1.83,0-.2,0,.5-.47.57-.51.93-.54,3.39-1.88,4.1-2.34.76-.49,1.72-1.34,2.47-2.02.69-.63,1.13-1.14,1.48-1.5.28-.36.39-.03.33.15-.14.38-.12.37-.23.6-.2.42-.42.83-.61,1.25-.39.85-1.63,2.7-1.68,2.81-.05.12-.57-.01-.26.35.09.1.68.14.83.19.51.14,1.36.24,1.4.58.02.25-.2.8-.2.81,0,0-1.07,2.11-1.46,2.75-.16.26-.21.31-.95.07Zm1.23.35c-.2-.07.02-.29.06-.39.1-.26.25-.55.38-.78l1.01-2.13c.13-.19.19-.42.45-.36.4.09.39.31.28.67-.13.4-.36.89-.55,1.31l-.57,1.1c-.07.13-.15.26-.22.36-.18.5-.65.27-.82.21Zm1.01.09c-.06-.18.15-.49.27-.75h.01s.44-.89.44-.89c.07-.1.34-.69.42-.86.04-.08.15-.37.17-.43.23-.56.28.09.23.26-.02.07-.59,2.08-.74,2.47-.06.17-.18.53-.33.48-.15-.05-.44-.13-.48-.27Zm.35,1.43c-.34-.18-.38-.49-.15-.8.39.13.78.26,1.19.41-.21.5-.58.65-1.04.39Zm1.33-1.26c0,.21,0,.51-.18.51-.09,0-.32-.08-.54-.17-.11-.08-.16-.13-.11-.26.23-.59.36-1.12.55-1.69.04-.12.12-.42.15-.47.11-.22.13.14.13.38,0,.43.04,1.27.02,1.71Zm.15-13.42c-.01-.5-.04-1.14-.06-1.64,0-.07,0-.16,0-.24,0-.24.06-.09.09-.04.18.23.57.86.76,1.16.22.37.41.62.6,1.01.11.24.01.38-.25.39-.08,0-.15.02-.23.02-.88.06-.89.21-.92-.67Zm.19,4.28c0-.06-.04-.79-.04-.88,0-.19.23-.09.27.04.06.16.36,2.12.43,2.73.01.1.05.23-.13.22-.07,0-.14.01-.27.01-.23,0-.19-.42-.2-.77-.01-.4-.04-.93-.06-1.36Zm.15,3.03c-.02-.35.02-.51.17-.59.06-.03.14-.05.24-.07.06,0,.19.06.22.15.05.14.09.41.09.56,0,.24-.02.31-.31.38-.18.05-.37.22-.41-.43Zm.99,7.04c-.13-.01-.23-.02-.31-.05-.13-.04-.28-.06-.34-.17-.04-.08-.04-.54-.04-.65-.04-1.13-.11-2.19-.16-3.31,0-.1-.05-.49.03-.65.06-.12.14-.11.19-.11.28,0,.28.6.31.72.1.48.45,3.86.45,4.01,0,.18.01.23-.13.21Zm.94.13c-.2-.01-.41-.02-.49-.11-.02-.02-.04-.05-.05-.09-.02-.06-.03-.14-.04-.2-.06-.32-.47-3.71-.59-4.66-.02-.13.09-.17.14-.03.17.53,1.1,4.42,1.19,4.97.02.11-.08.11-.15.1Zm.82.07c-.09,0-.16,0-.32-.06-.1-.03-.13-.17-.15-.27-.31-1.25-1.04-4.05-1.17-4.68-.08-.37-.21-.63.18-.8.52-.22,1.2-.56,1.7-.84.11-.06.29-.18.3-.26.01-.25-.27-.08-.33-.18-.17-.3-.34-.6-.52-.91-.05-.09-.05-.13.06-.13.8-.03,1.54-.03,2.27,0,.46.02.42.39.35.69-.21.86-1.75,6.06-1.9,6.49-.1.3-.3.96-.46.95Zm1.37-.17c-.06.16-.1.27-.23.28-.21.01-.64,0-.69-.13-.06-.16,0-.3.07-.49.15-.43,1.95-6.56,2.09-6.94.05-.13.09-.66.42-.65.43,0,.24.38.24.51-.02.35-.22,1.1-.3,1.44-.31,1.25-.63,2.5-.95,3.75-.12.49-.26.97-.4,1.45-.07.26-.18.58-.25.78Zm1.95.1c0,.24-.07.36-.25.36-.06,0-1,0-1.16-.16-.16-.17-.13-.36-.08-.67.03-.19.08-.41.15-.64.27-.93,1.03-4,1.21-4.74.04-.17.1-.14.07.21.02.36,0,.78.01,1.14,0,1.12,0,2.21.04,3.33.01.39.01.78,0,1.17Zm5.78-2.27c0,.49.02.96.02,1.46,0,.56-.11.63-.47.72-.27.07-.61.21-.78.11-.12-.07-.09-.28-.06-.48.15-.88.99-5.44,1.11-6.13.02-.16.11-.46.12-.24,0,.58.06,3.61.05,4.55Zm-3.39-6.16c.09-.03.33-.02.4.01.59.19,1.08.32,1.63.57.22.1.56.17.46.64-.25,1.14-.62,2.25-.97,3.36-.03.1-.11.36-.17.6-.04.14-.13.37-.27-.08-.23-.81-1.4-4.65-1.47-4.83-.16-.42-.1-.65.37-.89.16-.08.11-.05.26-.14,0,0-.17.41-.29.57-.03.03-.05.05-.07.06-.27.06-.12.21.11.15Zm2.9,1.08c.09-.35.26-.25.19.09-.1.56-1.14,6.28-1.35,7.13-.08.31-.54.43-.97.47q-.16.02-.1-.2c.63-2.13,1.64-5.5,2.22-7.49Zm.36-7.37c.02.3.06,3.94.06,4.58,0,.28-.34.55-.56.73-.19.16-.59.04-.52-.22,0,0,.86-4.92.94-5.37.03-.19.08-.08.08.27Zm-2.16,4.45c.24-.17.34-.09.34-.37,0-.18-.28-.04-.15-.25l.31-.67c.35-.68.76-1.5.99-2.02.09-.21.1-.12.07.1-.01.1-.63,3.84-.69,3.97-.06.13-.11.42-.8.58-.25.06-.58.18-.83.24-.1.03-.04-.05-.04-.05,0,0,.63-1.4.8-1.52Zm-2.64-4.12c.11.16,1.64,2.42,2.33,3.66.11.19-.1.33-.26.39-.27.1-.31.08-.59.18-.37.14-.54-.16-.65-.56-.12-.47-1.04-3.43-1.01-3.61.03-.21.1-.17.17-.06Zm-.68-2.93c-.03-.52-.06-1-.07-1.52,0-.56-.01-.71.1-.51.47.75.88,1.4,1.27,2.07.2.34-.12.32-.24.33-.24.03-.51.07-.7.07-.33,0-.35-.03-.37-.44Zm.27,7.51c0-.86-.07-2.34-.12-3.39-.06-1.23.02-1.07.21-.41.21.62.71,2.5.87,3.05.07.22.23.65.06.71-.23.09-.56.16-.77.24-.15.06-.24,0-.25-.21Zm1.69,10.24c-.3.02-.69-.02-.98-.02-.24,0-.3-.27-.31-.5-.03-.36-.14-2.93-.15-3.83-.01-.75-.03-1.43-.08-2.18-.01-.15-.1-1.05.03-1.05.12-.04.32.84.34.92.22.85.42,1.71.64,2.57.29,1.17.58,2.33.84,3.5.1.44.11.55-.32.59Zm.58-.84c-.2-.84-1.86-7.01-1.86-7.5,0-.16.17-.37.5-.55.25-.18.33.29.38.43.39,1.2.76,2.41,1.13,3.62.19.6.34,1.22.52,1.82.06.19.05.33-.02.55-.04.16-.35,1.32-.44,1.52-.07.15-.2.19-.2.12Zm1.63,1.71c-.81.12-1.22-.02-1.47-.53.87-.18,1.74-.36,2.65-.54,0,.53-.46.97-1.18,1.08Zm1.25,1.7c-.2.02-.34,0-.39-.33-.05-.26.03-.44.34-.45.21-.05.26.19.3.4.02.2-.12.36-.25.37Zm.28-18.38c0-.1.04-.57.18-.23.07.11,1.03,2.35,1.36,3.13.12.29.09.49-.15.78-.34.41-.64.73-.96,1.09-.16.18-.22.1-.22-.12-.03-.49-.16-3.79-.21-4.65Zm.23,5.77c-.01-.16.12-.38.28-.59.38-.51.8-.98,1.27-1.51.06-.06.1-.02.12.02.3.66.58,1.23.82,1.82.18.44-.07.8-.52.79-.4,0-.81-.02-1.21-.06-.44-.04-.75-.2-.77-.47Zm.56,8.41c-.1.03-.23,0-.24-.4-.03-.78-.11-3.2-.13-3.96,0-.05.27,1.07.36,1.41.13.48.59,2.19.62,2.55.02.24-.25.29-.61.41Zm1.84-.76c-.08.18-.48.3-.61.35-.3.1-.34-.16-.54-.89-.35-1.25-.65-2.5-.97-3.76-.07-.29-.11-.58-.16-.88-.07-.27.12-.31.22-.09.18.31,1.85,4.42,1.98,4.75.07.19.13.38.08.5Zm1.1-.29c-.52.2-.64.21-.75-.03-.61-1.39-1.54-3.53-2.11-4.9-.27-.65.16-.71.3-.46.45.76,2.98,4.41,3.12,4.59.34.44-.2.65-.57.8Zm7.38-3.05c0,.16-.04.44-.2.44h-1.67c-.46,0-1,.18-1.23.29-.5.24-.91.51-1.67.89-.28.14-.37.18-.64.3-.12.05-.27.14-.43.2.55-1.13,1.4-2.26,2.19-2.36.35-.04.74.34,1.07.32.58-.03,1.07-.47,1.42-.79.56-.51,1.1-.45,1.15-.33.04.1,0,.49.01,1.04Zm.01-1.87c-.55-.2-1.32.26-1.96.81-.64.55-.8.31-1.76-.06-.96-.36-2.08,1.12-2.08,1.12,0,0-.29-2.42.15-3.5.47-.56,2.06-1.53,2.24-.39.15.94.98,1.13,1.35,1.17.97.12,2.06-.89,2.06-.89,0,0,.03,1.26,0,1.74Z"/></g></g></g></svg>
