<svg enable-background="new 0 0 827.3 91.9" viewBox="0 0 827.3 91.9" xmlns="http://www.w3.org/2000/svg"><clipPath><use/></clipPath><path d="m0 0h4.2v91.9h-4.2z" fill="#ce0e2d"/><g fill="#0b0c0c"><path d="m70.6 33.6c-.2-.1.1-.5.3-.6h.7s-.2.3-.2.5c0 .3-.6.2-.8.1"/><path d="m72.2 34.6c-.2-.1.1-.5.3-.6s.7-.1.7-.1-.2.3-.2.5c0 .3-.6.3-.8.2"/><path d="m72.3 33.4c-.2-.1.1-.5.3-.6s.7-.1.7-.1-.2.3-.2.5c0 .3-.6.2-.8.2"/><path d="m70.6 34.8c-.2-.1.1-.5.3-.6s.7-.1.7-.1-.2.3-.2.5c0 .3-.6.3-.8.2"/><path d="m72.3 35.7c-.2-.1.1-.4.2-.5s.6-.1.6-.1-.1.3-.1.5c-.1.2-.6.2-.7.1"/><path d="m70.7 36c-.2-.1.1-.4.2-.5s.6-.1.6-.1-.1.2-.2.5c0 .2-.5.2-.6.1"/><path d="m73.7 35.6c-.2-.1.1-.4.2-.5s.6-.1.6-.1-.1.2-.2.5c0 .2-.5.2-.6.1"/><path d="m72.3 36.8c-.2-.1.1-.4.2-.5s.6-.1.6-.1-.1.2-.2.5c.1.2-.4.2-.6.1"/><path d="m73.7 36.7c-.2-.1.1-.4.2-.5s.6-.1.6-.1-.1.2-.2.5c.1.2-.4.2-.6.1"/><path d="m73.8 34.5c-.2-.1.1-.4.2-.5s.6-.1.6-.1-.1.2-.2.5c0 .2-.4.2-.6.1"/><path clip-rule="evenodd" d="m36.7 41.6c-.5-.5-.6-1.1-.4-1.6.2-.9.2-1.5-.2-1.9-.2-.2-.3-.3-.5-.4.2 1.1.3 2.1-.5 3.1.1-.3-.3-1-.3-1.9 0-.7.3-1.5 0-1.8.3.2 1 .3 1.3.4.7.1.9.4 1.1 1 .1.2.4.4.5.6.1-.3.3-.6.3-.7.1-.3 0-.5 0-.8.4 0 .5.8.7.9.1.2.2.3.5.3.1-.3.1-.5.1-.8 0-.4.2-.7.1-1.1.2 0 .4.3.6.6s.1.6.3.8c.2-.2.4-.5.4-.6.2-.6.3-1 .4-1.7.3.2.5.3.8.5.4.3.6.8.8 1 .8.5 1.6 1 2.5 1.3 1 .5 2 .8 3.7 1.2.7.1 1.2.1 1.8 0 .3-.1.9-.1 1.1-.1s.5.1.9.2c.6.2.8.8.8 1.3-.6.4-1.1.4-2 .6-.7.2-1.4.2-1.9.8-.1.1-.3.3-.5.3 0-.1 0-.2-.1-.4-.1-.1-.2-.2-.4-.2-.2.2-.3.7-.6.6 0-.2-.3-.3-.5-.3s-.3.3-.6.2c.1-.3-.2-.5-.5-.7-.1.1-.3.6-.7.6.2-.3-.2-.8-.5-.9-.1.3-.2.8-.7.9.2-.3 0-1.1-.5-1.2 0 .5-.1.8-.5 1 .2-1.3-.9-1.7-1.9-2-.4-.1-.4-.1-.8-.3-.2-.1-.4-.2-.7-.2-.1.3.2.9.5 1.2-.5-.1-.9-.3-1.1-.6-.2-.2-.2-.5-.4-.9-.4.9.1 1.2.5 1.8-1.4 0-1.5-1.7-1.5-1.8-.2.2-.2.4-.3.6 0 .3.1.8.4 1.2-.2 0-.7-.3-.8-.6s-.1-.2-.1-.5 0-1-.1-1.3c-.1.2-.3.5-.3.8.1.8-.4 1.1-.2 1.5" fill-rule="evenodd"/><path clip-rule="evenodd" d="m29.7 32.1c0 .6.3.9.6 1.5.4.7.4 1.6 0 2.5-.1.3-.3.6-.5 1-.5-1.8-1.1-3.5-.1-5" fill-rule="evenodd"/><path clip-rule="evenodd" d="m33.7 35.9c0 .4.6.8.6 1.5 0 .4 0 .8-.1 1.2-.1.5.2.8-.1 1.4-.1.3-.3.6-.2 1.1-.2-.2-.8-1.4-.6-2.4.2-.8.2-1.2.2-2.1 0-.3.1-.5.2-.7" fill-rule="evenodd"/><path clip-rule="evenodd" d="m32.6 39.8c-.6-.4-.9-1.6-.7-2.2.4-1.1.3-1.2.3-2.4 0-.2 0-.7.2-1 0 1 .7 1.3.7 2.3 0 .4 0 1.1-.2 1.6-.4.8-.4 1.5-.3 1.7" fill-rule="evenodd"/><path clip-rule="evenodd" d="m31 33.4c.1.5.4 1 .5 1.4.2.4.2 1.4-.1 2.3-.1.4-.5.9-.5 1.3-.1-.2 0 .2-.2-.7-.2-1 .2-1.5.3-2.2 0-.5-.1-1.5 0-2.1" fill-rule="evenodd"/><path d="m21.2 43.8s.6-.4.9-1.9 2.1-2.4 2.6-2.5c-.5.6-.9 1.3-1.4 2.1-.5 1.2-1.6 2.1-2.1 2.3"/><path d="m29.5 39.5c-.4-1-.6-1.5-1.6-2.1-.7-.4-1.2-.5-2-.6-1.3-.2-2 .1-2.4.3-.5.2-.9.6-1.3 1.5-.3.7-.3 1.4-.3 2 .2-.8.4-1.5 1-2 .5-.5 1-.8 1.3-.9.8-.2 1.3 0 1.3 0-.6.1-.9.2-1.3.5-.7.5-1.4 1.4-1.5 2.1 0 0 .6-1.1 1.8-1.6.9-.4 1.7-.5 2.4-.4-.2.1-.5.2-.8.4-.5.4-.9 1.1-1.3 1.8-.6 1.1-1 1.7-1.5 2.1.4-.1 1.6-.8 2.1-1.6s1-1.8 1.1-2 .7-.5 1-.4.6.3.6.4c.3.3.7 1 .5 2.1-.2 1.8-.9 3.3-2.5 6-1.5 2.6-2.4 3.5-3 4.9-.9 1.9-.7 4.5 1.4 5 1 .3 2.4-.3 2.4-.3s.4-.3.4.6l.2-3.3s-.4 1.4-1.6 1.5-1.7-.2-1.9-1.1.4-2.3.8-3 3.2-5.3 3.3-5.5 1.1-2.1 1.4-3.3.4-2.2 0-3.1"/><path clip-rule="evenodd" d="m26.3 67.2c-.3 1.4-.3 1.9-.2 2.6.2-.2.3-.3.5-.3-.1.4-.2.7-.2 1.1.1-.2.3-.4.5-.4-.1.4-.1.7 0 1.2.2-.4.4-.8.6-.7s0 0 .2.1-.2.7-.2.8.2.4.5.5c-.3 1.2-.6 2.2-.4 3.2.1.4.3.8.8 1.1-.2-.9-.2-1.6-.1-2.3.1-.5.3-.9.5-1.4.1-.2.4-.1.5.2.2.4.2 1.3.2 1.8 0 1.5.2 2.3 1.7 3 .6.3 1 .1 1.3-.2.2-.2.6-.6.3-.9-.3-.5-.2-.6.3-.6.6.1 1-.3 1.3-.8.1-.2.2-.9-.3-.9-1.2.1-1.2-.4-1.4-.8s-.1-1.8.4-1.9c.2 0 .4-.3.3-.7-2.8 0-5.7-1.3-7.1-3.7m4 8c-.1-.7-.2-1.3-.2-2 0-.6.3-.7.9-.7.5 0 .6.2.5.5-.5 1-.3 2 .1 2.9-.5.5-1.2-.1-1.3-.7" fill-rule="evenodd"/><path d="m33 40.7c0 .4.8 2 1.4.7s1.7 1.2 3.9 1.2 3.1-.7 3.8-.6 1 .6.8 1.4c-.5 1.6-1.6 2.5-4 4.8-.8 1-1.4 2.1-1.5 2.2-.2.4-.2.7 0 .8.2 0 .3 0 .5-.3.4-.5.5-1.3 1.2-1.7.5-.3 2.5-1.1 2.5-1.1s1.1-.4 1.7.2.9 2.6.8 3.5-.4 2.5-2.3 3.8c-1.8 1.3-1 2.4-.6 2.9.5.5 2.8.2 2.8.2s1 0 1.5.8c.3.5.3 1 .3 1s-1.1.7-1.8.7c-1.4-.1-2-.7-3.1-.7s-3 0-3 0-1-.1-.7-1.1c.5-1.5 1-3 .9-3.9-.1-.6-1.1-.5-1.4-.4-.4.1-.7.3-1.2.1-.2-.1-.2-.6-.3-1-.2-.8-.2-1.8.2-2.8.2-.5.2-.5.2-.7.2-.4-.3-.8-.7-.1-.5 1.1-.5 1.9-.5 2.6 0 1.3.8 4 .7 5.2-.2 1.2-.5 2.1-1.4 3s-3.8 4.4-3.8 4.4-1.1 1.4-.4 2.9c.5 1.1 1.7.9 2.2.9.4 0 .7-.2 1.4.4.6.5.7 1.2.1 1.3-2.9.5-4.1-.1-5.6-.9s-1.2-3.2-1.2-3.2-.1-1.2 1.8-2.5c.5-.7.9-1.7.5-2.3-.3-.6-1-1.8-1-1.8s-.7-2.5-.6-3.6 0-2.7.8-4.5c.9-1.7 2.6-3.8 3.3-5.6.7-1.7 1.6-3.8 1.8-6.2"/><path clip-rule="evenodd" d="m35.3 32.9c0 .2 0 .3-.1.4-.5-.1-.8-.5-.9-.8-.7.1-.9-.1-1.4-.5-.3-.3-.7-.8-.9-1.3-.3 0-.9-.4-1.2-.7-.6-.6-.5-1.2-1-1.9-.1 1.4-1.1 2.4-.5 3.7.2-.5.4-1 .7-1.4 0 .8 0 1 .1 1.7.1.4.2.9.5 1.1-.1-.5 0-.7.1-1 .1-.4.3-.6.6-.8.1.3.1.4.1.7v.9c.1.6.3.9.5 1.3 0-.4 0-.8.1-1.1s.2-.4.4-.6c.4.7.3 1 .4 1.7 0 .6.4.8.5 1.2.2-.5-.2-1.4.5-2-.1.8-.1 1.3.1 1.9.1.3.5.6.7 1.1.1-.7-.3-1.5.1-2.2.4.4.2.7.3 1 .2.5.4.8.3 1.3.7-.3.4-1.6.4-2.4 0-.5.1-.5.2-.8-.1-.2-.4-.3-.6-.5" fill-rule="evenodd"/><path clip-rule="evenodd" d="m37.5 30.5c0-.2 0-.4.2-.6.2.1.5.3.5.6.1.4.1 1-.1 1.1.8-.4.8-1.2.6-1.8-.2-.5-.6-.7-.5-1.2.7-.1.8.7.9 1.1.2-.4.3-.9.2-1.3-.1-.3-.5-.6-.3-1.1.2 0 .3.2.5.4.1.2.2.4.3.7.2-.5.1-.9-.1-1.2-.2-.4-.4-.4-.5-1 .3-.1.3.3.7.4 0-.4 0-.6-.3-1.1.1-.1.4 0 .5.1 0-.4-.4-.9-.6-1.1.2-.1.3 0 .5.1 0-.4-.2-.7-.4-.8-.2-.2-.5-.2-.7-.4s-.5-.6-.6-.9c.2 0 .5 0 .8-.2.4-.2.6-.4.9-.8s.4-.9-.1-1.3c-.3-.3-.8-.4-1.2-.3-.5.1-.7.6-1.3.4-.1.3-.2.3-.3.3-.2.1-.5.1-.9.1-.3 0-1.6 0-1.9.1-.7.1-3.3 1.1-3.2.5-.1.6-1-.3-1.9.5-.5.4-.6 1.1-.4 1.6.3.6.9.9 1.8.7 0 .3-.1.5-.3.7s-.5.4-.6.8c-.1.6-.1 1.7.4 2.2-.1-.6-.1-.9.1-1.3.1-.3.4-.5.6-.5-.1.5-.2 1.1-.2 1.7s0 .9.3 1.5c0-.7.2-1.5.6-1.5.4.6-.1 1.1-.1 1.6-.1.6.2.8.6 1-.1-.3 0-.6 0-.8.1-.3.3-1.1.8-.9-.5.9-.5 1.5-.2 2.2.1.5.6 1 .9 1.1-.2-.3-.4-.9-.4-1.2 0-.6.1-1.2.3-1.4.1.1.3.3.2.8s-.1.7 0 1.1.4.7.6 1c-.2-1 0-2.1.4-2.4-.1.8-.1 1.4.1 1.9s.4 1.1.4 1.5c.2.2.5.3.6.5 0-.1 0-.2.1-.3.1-.6-.4-1.4-.4-1.7.3 0 .6.6.8 1 .4-.2.8-.5 1.2-.7.2-.7.2-1.1.1-1.5m-.8-2.9c-.1.1-.3.1-.4.2-.1.2-.1.5 0 .8.1.4 0 .7-.3.8s-.5 0-.7-.4-.2-.7-.1-1c-.4 0-.7 0-.9 0s-.5 0-.6-.2c-.2-.2-.4-.7-.2-.9.3-.2 1-.2 1.2-.2-.2-.5-.7-.6-.9-.9s-.3-.7-.1-1.2c0 0-.5.1-.7.1-.5 0-.7-.3-.8-.6s-.2-.7-.5-.9c.1-.2.2-.2.4-.2h.6c.2 0 .5 0 .7-.1.3-.1.4-.1.6-.3.2.2.2.5.1.9 0 .4-.1 1 0 1.4.1.5.4.7 1 .6.5-.1.5-.3.5-.7-.1-1-.8-1.3-.4-2.4.3.2.7.2 1.2.1.3-.1.6-.3 1.1-.1-.3.4-.2.6-.2 1-.1.8-.9.9-1.5.9.4.5.4.9.3 1.3-.1.5-.3.4-.4.9.3-.1 1.1-.5 1.3-.3.3.6.4 1.1-.3 1.4" fill-rule="evenodd"/><path clip-rule="evenodd" d="m41.4 33.8c-.3-.3-.7-1.1-.6-1.3.4 0 .9.7 1.3 1.2s1.1.6 1.4 1.3c0-.9-.3-1.5-.9-2-.3-.2-.8-.5-1.2-.8.1-.1.1 0 .3 0s.5.2.7.3c.3.2.4 0 .8.3.1-.1-.4-.8-.6-1s-.5-.4-.8-.5c-.5-.1-1.2-.1-1.6-.3s-.5-.2-.9-.5c-.2.9-.4 1.2-1.1 1.8-.2.2-.4.3-.5.2s-.1-.2-.2-.3c0-.1 0-.3 0-.5-.4.2-.8.5-1.2.7.2.5.2.9 0 1.5-.2.8-.1 1.6.1 2.3.1.5 1 1.4 1.1 1.8.1-.4-.3-1.3-.4-1.6-.1-.5-.1-.7-.1-1.1s.1-1.2.2-1.2c.2.2.5.8.4 1.5 0 .6.2 1.1.5 1.5.2.2.5.2.6.7.1-.4.1-.7 0-.9-.1-.6 0-.7 0-1.3 0-.3 0-.6-.1-1-.1-.3 0-.8.1-.9.2.1.4.7.4 1s0 1 .2 1.3c.2.5.9.9.8 1.3.3-1 .2-1.9-.1-2.9-.1-.4-.4-.9-.3-1.3.4.1.7 1.3.9 1.7.1.3.1.3.3.5.2.3.5.5.8.6.6.3.8.6 1 1.1.1-.2 0-.7-.2-1.2 0-1.1-.4-1.4-1.1-2" fill-rule="evenodd"/><path clip-rule="evenodd" d="m42.5 28.6c-.3-.7-.8-.6-1.3-.9-.1-.1-.3-.4-.4-.6-.1.2-.1.5.1.7s.6.4.9.7c.4.3.3.8.9 1-.8.4-1.3-.8-1.8-.5.2 1 1.4.9 1.8 1.7-.6-.2-.9-.1-1.5-.1-.2 0-.7-.1-.8-.2-.5-.3-.5-.5-.4-1 .2-.6.5-.9.3-1.6 0-.2 0-.4 0-.6 0-.6.7-1.4.1-2.1.2.2.6.4.6.8.1.6.1 1.1.8 1.4.9.4.7 1.2.7 1.3" fill-rule="evenodd"/><path clip-rule="evenodd" d="m58.5 43.3c-.7.2-1.3.3-2 .5-.6.2-1 .1-1.4-.5-.3-.5-.5-.5-.5-.5s0 .2-.4.3c-.1 0-.5 0-.7-.1-.5-.1-1.1-.2-1.5-.2.2.2 0 .5-.2.5-.7.1-1.5.2-2.2.2.4.2.5.9-.1 1-.4.1-1.1.1-1.5.4.5.4.1.7 0 .8-.2.2-.4.3-.8.5-.4.1-.8.3-.9.5.7.2-.2 1-.4 1.2-.3.3-.5.4-.5.8.4 0 1 .1.7.5-.3.5-.7 1.2-.8 1.5-.1.2-.2.5-.3.7 1-.6 1.4-.8 2.2-.2.2.1.3.2.5.1.3-.1.5-.2.7-.3.5-.3.8-.3 1 .3.8-.8 1.6-1.1 2-.7.3-.3.6-.7.9-1.1.4-.5.9-.6 1.1.1.2-.4.3-.6.4-.8.2-.4.4-.8.7-.9.1 0 .3-.1.4.2 0-.2 0-.5.1-.6 0-.5.1-1 .1-1.5.2.4.2.7.3 1.3 0 .5.1 1.1-.3 1.8-.1-.4-.2-.9-.5-.7-.5.6-.8 1.4-1.2 2.3 0-.2-.1-1.2-.5-1.1s-.9 1-1.4 1.7c-.2-.4-.3-.5-.7-.4-.2.1-.4.2-.6.3-.4.4-.5 1-.6 1.5-.1.3-.2.7-.5.9-.1.1-.2.2-.3.3.2.1.4.3.6.5.5-.3.9-.5 1.5-.7.7-.3 1.8-.7 1.5.1.3 0 .7-.3.8-.4.5-.5.8-1.1 1.3-1.2h.4c.2-.3.5-.5.7-.8-.1 0-.3-.2-.3-.5 0-.2.1-.5.2-.7.1-.4.4-.7 1.1-.6 0-.4 0-.7-.1-1-.1-.7.3-.8.9-.8-.1-.5-.2-.9-.3-1.4 0-.2-.1-.4-.2-.6-.4-.7-.4-.8.2-1.2s1.3-.6 2-.7c-.1-.1-.3-.4-.6-.6" fill-rule="evenodd"/><path clip-rule="evenodd" d="m81 36.3c0-.2-.4-.6-.1-.8.1-.1-.1-.3-.1-.4s-.2-.3-.2-.4c-.1-.2.1-.2 0-.4-.1-.4-.4-.8-.6-1.1-.1-.4-.1-.7-.2-.8 0 0-.4-.3-.4-.3-.2-.4-.1-.5-.3-.7-.2-.3-.6-.5-.8-.7s-.3-.5-.5-.6c-.1 0-.3 0-.4-.1-.4-.5-1-.5-1.2-.1-.4.6-.9 1.2-1.3 1.9.1 0 .1.1.2.1 0 0 0-.1.1-.1.3-.4.7-.8 1.1-1.2.1-.1.4-.4.7-.2.1.1.2.2.1.4-.2.4-.6.8-.9 1.2.3-.2.6-.5 1-.8.2-.1.4-.3.6-.2.2.2-1.2 1.4-1.5 1.7.3-.1 1.3-1 1.6-1.1.2-.1.4-.1.5 0s.1.2 0 .4c-.3.5-1.9 1.4-2.2 1.7 1.3-.8 2.5-1.3 2.8-1 .1.1 0 .4-.2.5-.2.2-1.3.7-1.7.9.4-.1 1.5-.6 1.8-.6.2 0 .4-.1.6.2.1.2-.3.5-.5.6s-.6.2-1 .3c.5 0 1.2-.1 1.6-.1 0 0 .2-.1.2.1.1.3-.4.3-.5.4-.4.1-2 .5-2 .5.5-.1 1.1-.2 1.6-.2.3 0 1.2 0 1.2.2.1.2 0 .5-.3.5-.6 0-1.3.1-2.1.2h1.8c.3 0 .7 0 .8.3 0 .1 0 .3-.2.4-1.9.2-2.2 0-3.3 0 0 .2-.1.2-.1.4h1.3c.9 0 1.4.1 2.2.1.5-.4.8-.8.8-1.1" fill-rule="evenodd"/><path clip-rule="evenodd" d="m76.3 36.5c.2-.3.1-.5.4-.6-.1 0-.5-.1-.4-.2.2-.2.1-.4.3-.5-.5-.2-.8-1.5-.7-1.6-.2 0-.6-.4-.7-.7-.1-.2.1-.6.3-.7-.3 0-.5-.3-.3-.6-.1 0-.1-.1-.2-.1 0 .1-.1.1-.1.2-.2.3-.3.3-.7.2-.2-.1-.7-.1-.6-.2-.1 0-.3 0-.4.1-.3.1-1.1-.2-.9-.3-.4-.1-.8 0-1.2.2 0 0 0 0-.1 0-.1-.1-.1-.2-.1-.2s-.7.2-.9.5c-.3.3-.7 1.1-.8.8-.2.3-.2.6-.3.9 0 .1-.2.6-.3.3-.2.1-.2.5-.2.7s.1.3 0 .5c-.2.4 0 .8.2 1.1s0 .7.5.9c.4.2.4.7.1 1.1-.4.5-.8.5-1.4.4.1.4 0 .6-.1.8.2.3.3.5.4.8.7-.4 1.4-.8 1.9-1.3.3-.3.6-.2.9.1.1.1.2.3.4.4.3.2.6.4.8.6-.1-.4 1.3 0 1.7 0-.3-.2.7-.4 1.2-.6-.4-.6.6-.5.9-.8-.3 0-.4-.1-.3-.3.3-.2.6-.5.7-.6-.2-.1-.1-.5-.1-.7.1 0 .3-.1.4-.1 0-.2.1-.2.1-.4z" fill-rule="evenodd"/><path clip-rule="evenodd" d="m67 52.4c-.3.1-.6.2-.9.4-.4.2-.9 0-.7-.5.3-.4.5-.9.8-1.2s.8-.6 1.2-.7c0-.2-.1-.3-.1-.5-.3.1-.7.1-1 .2-.4.1-.4-.2-.4-.5.2-.8.5-1.4 1.1-1.9 0-.3-.1-.5-.1-.8-.3.3-.8.5-1.3.7-.1-.5-.6-1.1.2-1.2-.3-.3-.7-.5-.9-.8s-.3-.7-.4-1c-.4-1.1.2-2.9 1.2-3.5.2-.1.5-.2.7-.1s.3.4.4.6c.2-.3.3-.8.6-.9.2-.1.5-.2.7-.3-.1-.3-.2-.6-.4-.8-.1.1-.3.2-.5.2-.6.2-1.1.3-1.6.6-.1 0-.4.2-.5.2-1 .6-1.1.6-1.5.7.7.5.1 1.2-.3 1.4-.3.2-.8.1-1.1-.1-.2-.1-.3-.2-.5-.5s-.3-.8-.2-1.2c-.2-.1-.5-.1-.7-.2v.2c-.1.2-.2.2-.3.2-.2 0-.4 0-.7 0-.6-.1-.9-.3-.6-1-1.7 1.2-3.8.8-4.8-.5 0 .4.3 1.1.5 1.4.4.6.9 1 1.5 1.5.1-.5.9-.7 1.5-.5.2.1 1.1.4 1.4.5.1.1.3.1.3.4 0 .2-.2.3-.4.3s-.4.1-.6.2c.3.2.5.5.7.8.6-.1 1.2-.1 1.8 0s.7.2 1 .5c.3.4.1.8.1 1.1 0 .1 0 .5.1.5.4-.7.7-.6 1.1.2.2.4.4.8.5 1.2.2.5.2.8-.3 1.3-.3.2-.4.4-.5.7 1.1-.7 1 1.2 1 1.5 0 .7-.6 1.1-.9 1.6-.1.2-.2.2-.3.6.6-.4.6 0 .6.5v.3c.7.3 1.4.6 2.2.5.3-.6.7-1 1.4-1.3.3-.1.6-.2.8-.3 0-.2 0-.4-.1-.6-.3-.2-.6-.2-.8-.1" fill-rule="evenodd"/><path clip-rule="evenodd" d="m82.2 51.4c0-.3.2-.7.6-.9-.8-.4-1.6-.5-2.5-.5-.4 0-.6-.3-.3-.7.1-.1.1-.2.4-.4-.7-.2-1.3-.2-1.9-.1-.3 0-.4 0-.5-.1s-.1-.3.1-.5c-.2-.1-.6.1-.9.1-.8.1-1.5-.2-2.3.2-.2.1-.5.2-.7-.2 0 0-.1-.2 0-.2-.1 0-.3.1-.4.1-.6.2-1.2.3-1.8 0-.1 0-.1 0-.2 0-.2 0-.5.2-.7.2-.4 0-.8-.1-1.2 0-.2 0-.4.1-.6.2-.1.1-.3.1-.3.2-.4.7-1 .9-1.7 1 0 .2.1.3.1.5.1 0 .2 0 .3-.1.5-.1 1-.2 1.2.5.1.2.3.2.5.4.1.1.2.3.2.4s-.2.2-.3.2c-.5.1-1.1.3-1.6.4 0 .2.1.4.1.6.2-.1.3-.1.5-.2.5-.2 1-.3 1.5-.4.4-.1.7-.1 1.2-.1.8 0 1.1.2 1.7.7.1.1.3.3.6.5 0-.2 0-.3.2-.4.1-.1.5 0 .7.1.4.2 1.4.8 1.6 1 0-.3.2-.3.4-.3.9 0 3.9 2.4 4.8 4.3.3-.5.4-.8-.4-1.7-.5-.6-.9-1-1.5-1.6-.1-.1-.4-.4-.3-.7s.3-.2.5-.2c.3 0 .4.1.6.2.2-.2.2-.4.1-.7.4.2.7.3 1.4.2-.1-.2-.1-.3.2-.4.7-.2 1.3 0 2.1.3-.2-.9-.8-1.5-1.5-1.9" fill-rule="evenodd"/><path clip-rule="evenodd" d="m62.1 40.4c1 0 1.4-.9 2.3-1.3.1-.1.3-.2.3-.2-1 0 .7-1.2.7-1.8-.5.2-.3-.3-.3-.5.2-.7.2-.7.5-1.3 0-.1.3-.6.3-.8-.2.1-.3.1-.5.1 0 0 .3-1.8.3-2.1-.2.1-.6.2-.5-.1.1-.8.2-1.1.5-1.6-.1 0-.7.1-.5-.6.1-.3.4-.9.3-1.3-.8.3-.4-.6-.2-.9.1-.2.3-.4.6-.6-.3 0-.5 0-.8.1-.4.2-.5.2-.9.5-.8.5-.8.5-1.5-.2-.7.7-1 1.4-1.4 2-.2.2-.5 0-.7-.4-.3.5-.3 1.4-.5 2-.1.4-.3.4-.3.4-.1 0-.2 0-.3-.1-.1.2-.1.2-.2.5-.1.4-.1.8-.1 1.2 0 .3-.1 1-.5 1.1.3.3.5.7.6 1.2s.2.7-.2.9c-.2.1-.4.1-.6.1 0 .2.1.6.2.8.3.6.5 1.5.2 1.9.5-.1 1 .2 1.5.7.2.2.4.4.4.6.2.1.5.1.7.2.1-.3.3-.5.6-.5" fill-rule="evenodd"/><path clip-rule="evenodd" d="m95.4 41.7c0-.1-.7-1.8-.8-2.4-.1-1-.1-1.9.1-2.8 0-.1.1-.3 0-.3-.9-.9-1.6-1.8-2.7-2.6-.5-.4-1.4-1-3.6-2.3-1.2-.6-1.8 0-2.6.9-.5.6-.9 1.2-1.3 1.9-.1-.2-.1-.3 0-.6.2-.3.4-.7.1-1.1-.6-.6-1.1-1.3-1.6-2-.3-.4-1-1.9-1.2-2.5-.3-.6-.8-.8-1.4-.8-.8-.1-1.6-.1-2.4-.3-.7-.1-1.4-.5-2.1-.6-.4-.1-.8 0-1.2 0-.4.1-.7.2-1.1.3-.3.1-.6.1-.6.6 0 .2-.2.5-.4.7-.9.6-1.6 1.4-1.8 2.6.8.1.8-.3 1.1-.7v.9c1.2 0 2.4-.8 2-2 .1 0 .1-.1.2-.1.5.2.9.2 1.3-.2.2-.1.5-.2.8-.1 1.1.1 2.2.4 3.1 1 .8.6 1.5 1.3 1.8 2.3.6 1.6 1.1 3.3 1.8 4.9.1.3.3.6.9.5.4 0 .8-.1 1.2-.1.3 0 .1.3.1.4-.1.2-.6.4-.9.4-1.6 0-3.2.5-4.8.2-.4-.1-.9 0-1.2.2-.6.5-1.2 1.1-1.8 1.7.4.2.9.6 1.3.8.9-.8 2.2-.9 3.4-.6.6.2 1.5.3 2.1.5.9.3 1.4.4 2.2.8.6.2 1.1.5 1.6.9.4.3.9.3 1.4 0 .7-.4 1.3-.8 2-1.1.5-.2.7.2.5.3-.5.3-.6.4-1.1.8-.2.2-.5.3-.7.5-.6.6-1.1.5-1.7.4-.4-.1-.7-.5-1.2-.5-.4 0-.4.2-.2.4.4.4.8.8 1.2 1.3.5.6 1.3.7 2 .9.3.1.6.3 1 .3.5.1 1 .2 1.4.1 1.1-.2 2.2-.5 3.2-1.3.8-.6.8-1.3.8-2-.1-.3-.1-.3-.2-.5" fill-rule="evenodd"/><path clip-rule="evenodd" d="m101.9 72.5c-.2-.8-.5-1.7-.8-2.6-.1-.4 0-.6.3-.8-.2-.6-.6-1.1-1-1.5 0 .1 0 .1-.1.2-.1.2-.3.2-.5.1-1.3-2.7-3.3-4.4-5.8-6 .4-1.6-.3-2.6-1.8-3.1-.8-.1-1.2.6-1.2.7-.3.6-.1 1.5.2 2 .4.7 1.2 1 1.8 1 .3 0 .7.2 1 .4 1.3.8 2.6 1.7 3.6 2.9.5.6.9 1.1 1.3 1.8.1.2.3.7 0 .8-.3.2-.6-.1-1-.5-.5-.6-1-1.1-1.5-1.6s-1-1.1-1.6-1.6c-.6-.6-1.7-1.2-2.3-1.5-1-.5-1.3-.6-2.3-1.1-.2-.1-.4-.3-.4-.4.1-.8-.4-1.4-.8-2-.1-.2-.4-.4-.7-.5-.5-.3-.4.3-.5.4s-.3.2-.5.2c-1.9 0-3.6.4-5.3 1.3-.3.2-.6.5-1 .3-.3-.1-.4-.6-.6-.9-.4-.6-.5-1-1-1.7-.6-.8-1.3-1.7-1.9-2.2-1.8-1.5-3.8-2.7-6.4-2.7-1.5 0-2.9.3-4.2.8-.4.1-.7.4-1.1.5-.2.1-.4.1-.5 0s-.1-.3 0-.5c0 0 0-.1.1-.1-.8.1-1.5-.2-2.2-.5 0 .2 0 .2-.1.5 0 .2-.4.4-.5.2-.2-.2-.3-.4-.6-.7-.6-.7-1.2-1.1-2.1-1.5-1.3-.6-2.5-1-4.1-1-.1 0-.1 0-.2 0-.3.2-.5.5-.7.8.8-.1 1.8 0 2.6.2 1 .2 1.7.5 2.5 1.1.5.4.9.8 1.2 1.3s.2.7.1.7c-.1.2-.4.3-1 .1-.8-.3-1.1-.4-1.8-.7-1.6-.5-3.2-.6-4.9-.3-1.5.2-3.1 1-4.3 2-1 .8-1.8 1.7-2.7 2.7-.2.2-.5.4-.7.4-.7 0-.9-.5-.5-1 .5-.8 1.1-1.5 1.7-2.2.5-.5.7-.7 1.2-1.2.2-.2.8-.6 1.1-.7-.2-.2-.4-.3-.6-.5-.7.6-1.5 1.2-2.2 1.8-.8.8-1.5 1.7-2.2 2.5-.5.5-.3.4-1 .5-.2.7-.8 2.1-.5 2.2 1 .4 1.6.5 2.5 0 .3-.2.7-.2 1-.3.2 0 .3 0 .5-.2.7-1.4 1.1-1.8 2.1-2.8.9-.9 2-1.7 3-2.2.7-.3 2-.6 2.7-.6 1.5-.1 3-.2 4.2 1 .1.1.2.4.2.6s-.3.2-.5.2c-.6 0-1.1-.1-1.8-.1-1 0-2 0-3 .2-1.4.4-2.9 1.2-4 2.3-.8.8-1.3 1.3-1.8 2.5-.2.5-.4 1.1-.7 1.7-.3.7-.8.8-1.4.4-1.4-1.1-3-1.5-4.7-1.6-.7 0-1.5 0-2.2 0-1.2.1-1.8.2-2.9.6-1.1.3-2.7 1.3-3.8 2.4-.8.8-1.1 1.1-1.8 2-.5.7 0 2 .9 2 .8.1 1.2-.5 1.6-1 .3-.3.5-.6.8-.8.5-.4 1-.8 1.6-1.2.9-.5 1.4-.7 2.4-1 .8-.2 1.8-.3 2.7-.2 1 0 1.8.1 2.5.9.3.3.4.8.3 1.1-.1.2-.7.1-1-.1-1.3-.5-2.6-.7-3.9-.5-.5.1-1.1.2-1.6.5-.6.4-1.3.8-1.8 1.4-.6.7-1.4 1.7-1.2 1.8.1.1.4-.2.6-.3.6-.6 1.1-1.2 1.7-1.7 1.4-1.2 2.7-1.2 4.6-.8.8.2 1.5.6 2.3.9.7.2 1.2-.1 1.2-.7-.1-1.3.8-2.4 2-2.5.5 0 1 .2 1.5.3.6.2.9 0 1-.6.1-.5 0-.7 0-1s-.1-.5-.1-.8c-.1-.9.5-1.8 1.2-2.6.6-.7 1.6-1.4 2.3-1.9 1.4-.9 3-1.2 4.7-.8.7.2 1.5.4 2.2.6 1.1.3 1.8-.1 2-1.1 0-.1.1-.2.1-.3.4-.5 1-.5 1.5.1.7.8 1.8.8 2.4.1.4-.5.7-1.1 1.2-1.4 1-.5 2-1 3.1-1.3 1.5-.3 3.3-.2 4.8.4.9.4 1.3.6 2.4 1.4 1.7 1.3 3 3 3.6 5.1.2.8.2 1.1.1 1.8 0 .5-.6.8-.9.7-.2-.1-.3-.2-.3-.5 0-1.5-.6-2.2-1.3-3.2-.4-.6-1-1.3-1.8-2-.9-.8-1.7-1.5-3.7-2.1-.9-.3-1.4-.2-2.3-.2-1.2 0-2.2.3-3.1 1.2-.4.5-.4 1.4 0 1.7s.8.4 1.3.2.6-.7.5-1.2.1-.8.6-.9c1.7-.5 3.2-.2 4.6.7 1.1.7 2.1 1.5 2.8 2.7.5.8 1.1 1.4 1.4 2.4.1.3 0 .8-.1 1-.1.7.2 1.5 1.1 1.4.6-.1 1.2-.3 1.5-.9.2-.3.2-.6.5-1.1.3.8.5 1.2 1.4 1.3 0 0 .1.2.1.3.2.7 1.1 1.1 1.9.7.9-.4 1.8-.4 2.7-.4 2.2-.1 4.1.6 5.7 2 .9.8 1.6 1.6 2.3 2.6s1.2 2.2 1.3 3.4c.1.6.1 1-.6 1.2-.5.2-.7.8-.7 1.3.1.5.4 1 1.1 1 .4 0 .9 0 1.3.1 1.1.2 1.9-.4 2.2-1.3.1-.4.3-.5.7-.4 1 .2 1.3-.1 1.5-1 .3-.4.1-.8 0-1.4m-8.7-10.8c-.4.2-.8-.2-1.1-.5s-.5-1-.3-1.3c.3-.5.6-.6 1.2-.2.8.6.7 1.7.2 2m-48.4 3.1c-.2.3-.5.4-.7.4-.4 0-.8-.1-1.1-.3-1.7-.7-3.3-.7-5-.3-1 .2-2 .6-3 1-.8.4-1.4.9-2 1.5-.5.4-.7.7-1.1 1-.1.1-.4.2-.6 0-.1-.1-.2-.2 0-.6s.3-.7.5-.9c.7-.8 1.2-1.5 2.3-2.2.8-.6 1.3-.8 2.2-1.2.7-.3 2.1-.5 2.9-.5 1.4 0 2.8 0 4.1.6.5.2.8.4 1.3.7.3.2.3.5.2.8m37.9-2.1c-.2 0-.7.1-.8-.2-.2-.4.1-.6.3-.7.7-.4 1.5-.8 2.3-1.1 1.2-.4 2.4-.6 3.6-.4.5.1.8.4.8.9 0 .6-.4.7-.8.7-.3 0-.6 0-.9 0-.9 0-2 .1-3 .3-.6.2-1 .4-1.5.5m16.2 12.5c-.3.5-1.2.5-1.3-.2 0-.5-.1-.5-.1-1-.2-1.3-.3-2.6-1-3.8s-1.3-2-2.5-3.2c-2-2-4.3-2.6-7-2.8-1-.1-2 .1-3 .1-.3 0-.7-.2-.7-.6 0-.2 0-.4.3-.6.5-.3.9-.4 1.7-.5.6-.1 1.3 0 1.9 0 2.7 0 5 1.1 6.4 2.1 1.2.8 2.5 2.5 3.3 3.6 1.1 1.5 1.4 2.4 1.9 4.1.4.8.5 2.1.1 2.8m2.1-1.4c-.1.2-.3.4-.5.4s-.5-.2-.6-.3c-.3-.7-.4-1.4-.6-2.1-.1-.5.2-.7.5-.8.5-.2.9.1 1 .4.3.7.7 1.5.2 2.4" fill-rule="evenodd"/><path d="m104.3 46.4c-.5-.8-1-1.4-1.5-2.2-.4-.5-.7-.9-1-1.5-.6-1-.9-1.2-1.3-2.9-.2-.8-.1-1.6 0-2.3s.4-.9.9-.9c.4 0 .6.2.8.5.2.2.4.5.3 1.1-.1.5.9 1.1.9 2.1.3-1.9-.2-3.1-1.2-4h.6c1.1.4 1.2 2 1.1 3-.1.9-.1 2.1-.1 2.6.1.4.2 1.6 1.4 2.4-.7-1-1-1.3-.9-2.9.1-1.4 0-1.8 0-2.5-.1-1-.4-1.5-.5-1.7s-.4-.5-.4-.5.5.2.8.8c.3.5.5 1.1.5 1.9v1.8c-.1 1.2.2 1.8.7 2.5.4.6 1.3 1.2 1.6 1.4-1.3-1.7-1.7-2.4-1.8-3.6-.1-.9.1-1.7-.1-2.5-.2-1.6-.8-3-2.2-3.8-.2-.1-.6-.2-1.2-.3.3-.1 1.4-.3 2.5.7.5.4.8 1.2 1.2 1.6 1 1 1.2 1.5 1.7 2.3 0-.1-.8-2.6-1.9-3.9-.7-.7-1.8-1.1-1.8-1.1-1.8-.6-3.6.7-4 2.5-.2.8-.2 1.5-.2 2.1 0 .9.2 1.7.8 2.7.7 1.4 1.2 2 2.1 3.3.7 1 1.4 1.8 2 2.9.4.7.7 1.1.8 2.1.2 1.5-.7 1.9-1.6 1.7-1.6-.3-2.3-1.5-3.1-2.7-.7-1.1-1.3-2.2-1.9-3.4-.1-.2-.2-.4-.3-.6s-1.7-2.5-2.8-4.6c-2.9 1.1-8 3.1-7.9 3.2 1.1 1.1 1.9 1.2 2.9 2.2.6.6.8.7 1.5 1.4.2.2.5.5.6.7.3.5.5.9.8 1.5.1.2.3.8 0 .7-.2 0-.4-.4-.5-.6-.2-.6-.4-1-1-1.2-.7-.2-1.4-.5-2.1-.7-1.2-.4-2.4-.5-3.7 0-.5.2-.8.7-.9.7-.9 1-.8 2.5.2 3.7.8.8 1.4 1.2 2 2.1.3.5.6 1.3.7 2.2-.8.5-1.3.6-1.8.6-.4 0-.9 0-1.3-.1-1-.3-1.8 0-2.4.7-.6.5-.9 1.3-1.4 2 1.4.4 2.4 0 2.8-.3.7-.5 1.5-.7 2.2-.8 1.2-.2 2.5-.2 3.7-.4.6-.1.7-.6.6-1s-.4-1.3-.5-1.9c0-.3-.1-.7.1-.9.2-.4.8-.4 1.4-.2.3.2.6.3 1 .5s.7.1.8-.5c.3-1.2.2-1.6.9-2.9.1-.2.3-1.1.4-1.5.1-.2.4-.2.4 0-.1.5-.1.9-.2 1.4s-.4.9-.5 1.4c-.4 1.5-.4 2.3-.5 3.4-.1 1.2.3 2.3 1 3.2.8 1 1.8 1.8 3.1 2.1 1 .3 1.9.7 2.3 1.8.4 1.3 1 2.6.9 4 0 .3 0 .4-.1.7.4.5.8.9 1 1.5 0 0 .1 0 .1-.1.3-.1.6-.4.7-.6.1-.4.2-.9.1-1.3-.1-1.1-.3-2.1-.5-3.2-.1-.6 0-1.2-.1-1.8-.1-.7-.1-1.5-1-1.8-.3-.1-.6-.3-.8-.5-1-.6-1.3-2.7-.6-3.7.7-.9.9-2 1.2-3 .2-.6.4-.8.9-.4.7.6 2.1.7 3 .5.7-.2 1.3-.5 1.7-1.4.4-1 .1-2.4-.5-3.5-.7-.8-1-1.1-1.6-2"/><path d="m105.6 38.3c.1.4.2.8.2 1.6 0 .5-.1 1.3.1 1.8.3 1.1 1.2 2.1 1.2 2.1s-.7-1.5-.4-2.7c.2-.7 0-1-.2-1.4-.1-.2-.4-.6-.9-1.4"/><path clip-rule="evenodd" d="m80.9 43c-.4 0-1.1 0-.6-1-1.1 0-1.7.3-2.3.2-.2 0-.3-.1-.4-.4 0-.1 0-.4.1-.5-.2.1-.4.1-.5 0-.3-.2-.1-.4 0-.5.1-.2.3-.4.5-.5-.4-.3-.8-.6-1.3-.8-.3.2-.5.5-.8.8-.4.3-.8.7-1.2.8-.2.1-.3 0-.5-.2-.1-.2-.3-.4-.6-.4-.6 1.2-1.6 1.5-2.2.6-.3.1-.7.3-1 .8-.2.3-.5.6-.8.6-.2 0-.3 0-.4-.2-.2.1-.5.4-.7.6-.3.4-.5.9-.3 1.5.1.4.1.8 0 1.3-.1.4-.3.8-.6 1.1 0 .3.1.5.1.8.1-.1.2-.2.3-.2.3-.2 1.2-.5 1.7-.3.7.1 1.4.3 1.9 1 .3-.4.5-.5.4-1 .7.2 1.2.7 1.5 1 .1-.2.1-.3.3-.5s.3-.2.6-.3c.5-.1.6.1 1.1.5.6-.7.9-.8 2.4-.2-.1-.6.3-.9 1-.8.7.2.9-.1 1.4-.7.2-.2.7-.3.9-.5-.5-.5.2-.8.3-.9.7-.3 1.2-.6 1.6-1.3.2-.3.5-.4.6-.5-1.4-.2-1.7.1-2.5.1" fill-rule="evenodd"/><path d="m95.4 36.2c.4-.4 1.6-1.2 2.3-1.4l-.5-.9c0 .5-.3.8-.5 1-.1-.3-.2-.6 0-.9-.2.2-.6.4-.9.6.3.1.5.2.7.5-.3.2-1 .4-1.4-.2-.3-.4-.3-.8 0-1.2.1-.1.3-.2.5 0s0 .5-.2.5c.3.1 1.1-.4.8-.8-.2-.3-.9-.2-1.2 0 .2-.4.3-1 0-1.2-.4-.3-.8.5-.8.7.2-.2.5-.3.6-.2s.1.3-.1.5c-.3.3-.9.2-1.3 0-.4-.3-.5-.9-.1-1.5.2.2.5.7.5 1 .2-.4.4-.6.7-1-.4.1-.8-.1-1-.2.3-.2.6-.4 1-.3l-1.2-1c.2.4.1.7-.1 1-.2-.2-.5-.5-.5-.9-.2.4-.4.6-.7 1 .3-.1.8.1 1.1.2-.5.5-1.1.5-1.5.2-.4-.2-.8-.7-.5-1.2.1-.2.5-.2.6-.1s.2.3 0 .6c.3-.2.8-.6.4-1-.3-.2-.7 0-1 .3.1-.4 0-1-.4-1.1s-.6.6-.5 1c0-.1.2-.5.4-.4s.1.4.1.5c-.2.4-.7.5-1.2.2-.7-.4-.7-1-.4-1.3.3.1.5.3.6.6 0-.3.2-.8.3-1-.2.2-.5.2-.9.2.1-.2.4-.6.8-.7l-1-.2c0 .7-.6 2.1-.8 2.6 3.8 2.1 4.2 2.4 7.3 5.5"/><path d="m92 28.6c-.3.2-.6.3-.7.5s-.3 1-.4 1.3c.3-.2.9-.8 1-1s0-.6.1-.8"/><path d="m96.4 32c-.1.4-.2.6-.4.8s-.9.5-1.2.7c.1-.3.6-1 .8-1.2s.7-.2.8-.3"/><path d="m63.5 5.2v-1.6c-.8.2-1.4.8-1.5 1.6z"/><path d="m64.3 5.2h1.5c-.1-.8-.7-1.4-1.5-1.6z"/><path d="m62 6c.2.9 1 1.5 1.9 1.5s1.7-.7 1.9-1.5z"/><path d="m64.1 1.7c.1-.5.3-.9.7-1.4h-2c.4.5.6.9.7 1.4.1 0 .2-.1.3-.1s.2 0 .3.1"/><path d="m63.6 2.5c-.1.5-.2 1-.7 1.4.7-.3 1.2-.3 1.9 0-.4-.3-.7-.9-.8-1.4-.1 0-.2.1-.3.1s0-.1-.1-.1"/><path d="m63.4 1.9c-.5-.1-1-.4-1.3-.8v2c.3-.4.8-.7 1.3-.8 0-.1-.1-.2-.1-.2.1-.1.1-.2.1-.2"/><path d="m64.3 1.9c0 .1.1.1.1.2s0 .2-.1.2c.5.1 1 .4 1.3.8v-2c-.3.4-.8.6-1.3.8"/><path d="m63.9 2.6c-.3 0-.5-.2-.5-.5s.2-.5.5-.5.6.2.6.5-.3.5-.6.5"/><path d="m62.7 7.5h2.4v6h-2.4z"/><path d="m53.9 8.7c.3-.3 1.6-1.4 3-1.3 1.1.1 1.9.5 2.5.8.2.1.4.2.5.2.7.3 1.9.6 2.8.6h.3.1v-.4h-.1c-.1 0-.2 0-.3 0-.2 0-.5 0-.8-.1v-.2c.3-.1.5-.3.5-.6s-.3-.6-.6-.6-.6.3-.6.6c0 .2.1.4.2.5v.2c-.5-.1-.9-.2-1.2-.4-.1.1-.2 0-.4 0l.2-.3c.3 0 .6-.3.6-.6s-.3-.6-.6-.6-.6.3-.6.6c0 .1 0 .3.1.4l-.1.3c-.3-.2-.7-.3-1.2-.4l.1-.3c.3-.1.4-.3.4-.6s-.3-.6-.6-.6-.7.1-.7.4c0 .2.1.4.2.5l-.1.3c-.2 0-.4-.1-.6-.1s-.3 0-.5 0v-.2c.1-.1.2-.3.2-.5 0-.3-.3-.6-.6-.6s-.6.3-.6.6.2.5.5.6v.2c-.4.1-.8.3-1.1.4l-.1-.2c0-.1.1-.2.1-.3 0-.3-.3-.6-.6-.6s-.6.3-.6.6.3.6.6.6l.1.2c-.3.2-.6.4-.7.5s-.2.2-.2.2l-.2-.1v-.1c0-.4-.3-.6-.6-.6s-.6.3-.6.6.2.7.6.7h.2l.2.1c-.2.3-.3.6-.5 1l-.2-.1c-.1-.3-.3-.5-.6-.5s-.6.3-.6.6.3.6.6.6c.2 0 .3-.1.5-.2l.3.1c-.1.4-.1.8 0 1.2l-.2.1c-.1-.1-.3-.2-.5-.2-.3 0-.6.3-.6.6s.3.6.6.6.5-.2.6-.5l.2-.1c.1.4.2.7.4 1.1l-.2.1c-.1-.1-.2-.1-.3-.1-.3 0-.6.3-.6.6s.3.6.6.6.6-.3.6-.6l.2-.1c.2.4.4.7.5.9v.1.1h.1s0 .1.1.1v.1l.3-.2.1-.1v-.1s0 0-.1-.1c-.1-.4-.2-1.9.3-2.4.4-.4.8-.6 1.3-.6.2 0 .4 0 .6.1h.3l.1-.1c.3-.6.8-1.1 1.3-1.1.7 0 1.4.2 2.3.8.5.3 1.1.5 1.8.5h.5.3-.1v-.4c-.1 0-.2 0-.3 0s-.3 0-.5 0c-.6 0-1.1-.1-1.5-.4-1-.6-1.7-.9-2.5-.9h-.1c-.8 0-1.4.9-1.6 1.2-.2 0-.4-.1-.7-.1-.6 0-1.2.2-1.6.7-.5.5-.6 1.3-.5 1.9-.3-.6-.7-1.3-.8-2.1-.4-1.8.8-2.9 1-3.1z"/><path d="m76.2 11.7c-.2 0-.3.1-.5.2l-.2-.1c.1-.4.1-.8 0-1.2l.3-.1c.1.1.3.2.5.2.3 0 .6-.3.6-.6s-.3-.6-.6-.6-.6.2-.6.5l-.2.1c-.1-.4-.3-.7-.5-1l.1-.1h.2c.3 0 .6-.3.6-.6s-.3-.6-.6-.6-.6.2-.6.6v.1l-.2.1c-.1-.1-.2-.2-.2-.2-.1-.1-.4-.3-.7-.5l.1-.2h.1c.3 0 .6-.3.6-.6s-.3-.6-.6-.6-.7.2-.7.5c0 .1 0 .2.1.3l-.1.2c-.3-.2-.7-.3-1.1-.4v-.2c.3-.1.4-.3.4-.6s-.3-.6-.6-.6-.6.3-.6.6c0 .2.1.4.2.5v.2c-.2 0-.3 0-.5 0s-.4 0-.6.1l-.1-.3c.1-.1.2-.3.2-.5 0-.3-.3-.6-.6-.6s-.6.3-.6.6.2.5.4.6l.1.3c-.4.1-.8.3-1.2.4l-.1-.3c.1-.1.1-.2.1-.4 0-.3-.3-.6-.6-.6s-.6.4-.6.7.3.6.6.6l.1.3c-.1.1-.2.1-.3.2-.3.1-.8.3-1.2.4v-.2c.1-.1.2-.3.2-.5 0-.3-.3-.6-.6-.6s-.6.3-.6.6.2.5.4.6v.2c-.3 0-.5.1-.8.1-.1 0-.2 0-.3 0h-.1v.4h.1.3c.8 0 2-.2 2.8-.6.2-.1.3-.2.5-.2.7-.3 1.4-.7 2.5-.8 1.4-.1 2.7 1 3 1.3.1.1 1.3 1.3 1.1 3.1-.1.8-.5 1.5-.8 2.1 0-.6-.1-1.5-.6-1.9s-1-.7-1.6-.7c-.2 0-.5 0-.7.1-.2-.4-.8-1.2-1.6-1.2h-.1c-.8 0-1.6.3-2.5.9-.4.3-.9.4-1.5.4-.2 0-.3 0-.5 0-.1 0-.2 0-.3 0h-.1v.4h.1.3.5c.7 0 1.3-.2 1.8-.5.9-.6 1.6-.8 2.3-.8h.1c.6 0 1.1.6 1.3 1.1l.1.1h.3c.2 0 .4-.1.6-.1.5 0 .9.2 1.3.6.6.6.4 2 .3 2.4 0 .1-.1.1-.1.1v.1l.1.1.3.2v-.1s0 0 .1-.1h.1v-.1s0 0 0-.1c.1-.2.3-.5.5-.9l.2.1c0 .4.3.6.6.6s.6-.3.6-.6-.3-.6-.6-.6c-.1 0-.2 0-.3.1l-.2-.1c.2-.3.3-.7.4-1.1l.2.1c.1.3.3.5.6.5s.6-.3.6-.6-.3-.7-.6-.7z"/><path d="m72.3 21.3c-.4-.1-.7-.5-.6-.8s.5-.4.9-.3c.1 0 .2.1.3.2 0-.1 0-.1.1-.2.5-2.2 1-3.9 2-5.1l-1.8-.8c.5.7.6 1.6.5 2.1-.6-.3-1-.8-1.2-1.4-.1.6-.5 1.5-.8 2 .6-.2 1.1-.4 1.7-.1-.3.7-1.1 1.8-2.5 1.5-.9-.2-1.6-1-1.4-1.9.1-.3.3-.6.8-.6s.5.8.3 1c.6-.3 1.2-1.9.3-2.1-.7-.2-1.6.8-1.8 1.5-.1-.8-.8-2-1.5-1.9-1 .1-.7 1.7-.3 2.1.1-.6.4-1.1.7-1 .3 0 .6.4.5.9-.1.9-1.2 1.5-2.1 1.5-1 0-1.9-.7-2.1-2.3.6.1 1.6.5 2 1-.1-.9-.1-1.5 0-2.4-.5.6-1.4.8-2 .9.2-.6.5-1.4 1.3-1.8h-3.2c.7.4 1 1.1 1.2 1.8-.5-.1-1.5-.3-1.9-.9.1 1 .1 1.5 0 2.4.4-.5 1.4-.9 2-1-.2 1.5-1.2 2.1-2.1 2.2-1 .1-2.1-.2-2.3-1.3-.1-.5.5-.8.8-.9.3 0 .7.3.7.9.2-.7.4-2-.5-2.1-.7-.1-1.2.9-1.3 1.7-.2-.7-1.2-1.6-2-1.3-.9.4-.2 1.8.4 2.1-.1-.3-.2-1.1.3-1.1s.7.5.8.8c.1.9-.6 1.6-1.6 1.8-1.5.2-2.4-.7-2.3-1.6.6-.2 1.1-.1 1.7.1-.3-.5-.7-1.5-.8-2-.2.6-.6 1.1-1.2 1.4-.3-.3-.3-1.2.3-1.9l-1.8.8c1 1.1 1.4 3.2 2 5.1v.1c.1 0 .2-.1.3-.1.4-.1.9 0 1 .3s-.2.6-.6.8c-.1 0-.3.1-.4 0 0 .2 0 .4-.1.6 2.5-1.2 6.3-1.4 9-1.4 0 0 5.2-.3 8.9 1.4 0-.2 0-.4 0-.6-.3 0-.4 0-.6-.1"/><path d="m55.3 20.1c-.1 0-.2 0-.4.1-.1 0-.2.1-.3.1-.3.2-.5.5-.4.8.1.2.3.4.7.4.1 0 .2 0 .4-.1s.4-.2.6-.4c.1-.2.2-.4.1-.6 0-.2-.3-.3-.7-.3"/><path d="m72.3 20.1c-.4 0-.7.2-.7.4-.1.2 0 .4.1.6s.3.3.6.4c.1 0 .2.1.4.1h.2c.3 0 .5-.2.6-.4s0-.5-.3-.7c-.1-.1-.2-.1-.4-.2-.3-.2-.4-.2-.5-.2"/><path d="m73.2 20.1c-6-1.7-12.3-1.7-18.8 0-.2 0-.3-.1-.4-.2 0-.2.1-.3.2-.4 6.6-1.7 13-1.7 19 0 .2 0 .3.2.2.4.1.1 0 .2-.2.2"/><path d="m54.4 20.2c-.2 0-.3-.1-.4-.3 0-.1 0-.2 0-.3s.1-.1.2-.2c3.3-.8 6.5-1.3 9.7-1.3s6.3.4 9.3 1.3c.2 0 .3.3.3.5s-.2.3-.4.3h-.1c-3-.8-6-1.2-9.2-1.2s-6.1.4-9.4 1.2z"/><path d="m58.2 12.2c-.2.8-.5 1.2-.4 1.8s.7 2 1 2.6c.2-.7.5-2.3.4-2.8-.2-.6-.8-1.2-1-1.6"/><path d="m69.6 12.3c.3.8.5 1.2.4 1.8s-.8 2-1.1 2.5c-.2-.7-.4-2.3-.3-2.8s.8-1.2 1-1.5"/><path d="m54.5 17c0 .4-.3.7-.7.7s-.7-.3-.7-.7.3-.7.7-.7.7.3.7.7"/><path d="m53.8 17.7c-.4 0-.7-.3-.7-.7s.3-.7.7-.7.7.3.7.7-.3.7-.7.7"/><path d="m64.6 15.4c0 .4-.3.7-.7.7s-.7-.3-.7-.7.3-.7.7-.7.7.3.7.7"/><path d="m63.8 16.2c-.4 0-.8-.3-.8-.8s.3-.8.8-.8c.4 0 .8.3.8.8s-.3.8-.8.8m0-1.4c-.4 0-.7.3-.7.6s.3.6.7.6.6-.3.6-.6-.2-.6-.6-.6"/><path d="m74.2 17c0 .4-.3.7-.7.7s-.7-.3-.7-.7.3-.7.7-.7.7.3.7.7"/><path d="m73.6 17.7c-.4 0-.7-.3-.7-.7s.3-.7.7-.7.7.3.7.7-.3.7-.7.7"/><path d="m63.8 20.3c-4.7 0-9.7.8-9.7 2.4s5 2.4 9.7 2.4 9.7-.8 9.7-2.4-5-2.4-9.7-2.4zm9.4 2.4c0 .9-3.8 2-9.3 2s-9.3-1-9.3-2 3.8-2 9.3-2 9.3 1 9.3 2z"/><path d="m71.1 23.1c-1.8-.5-4.4-.7-7.2-.7s-5.4.3-7.2.8c-.1 0-.2.1-.1.2 0 .1.1.1.2.1 1.8-.5 4.4-.8 7.1-.8s5.3.3 7.1.7c.1 0 .2 0 .2-.1s0-.2-.1-.2z"/><path d="m33.3 14.9-.1-.5c-.2.1-.4.3-.4.6 0 0 .5-.1.5-.1z"/><path d="m33.5 14.9.5-.1c-.1-.3-.3-.4-.6-.4z"/><path d="m32.8 15.3c.1.3.4.5.7.4s.5-.3.5-.6z"/><path d="m33.3 13.7c0-.2.1-.3.2-.5l-.7.1c.2.1.3.3.3.4h.2c-.1 0 0 0 0 0"/><path d="m33.2 14c0 .2 0 .4-.1.5.2-.1.4-.2.6-.1-.1-.1-.3-.3-.3-.4-.1 0-.1 0-.2 0z"/><path d="m33.1 13.8c-.2 0-.3-.1-.5-.2l.1.7c.1-.2.2-.3.4-.3 0 0 0-.1 0-.2 0 .1 0 .1 0 0"/><path d="m33.4 13.8v.1c.2 0 .3.1.5.2l-.1-.7c-.1.2-.3.3-.4.4"/><path d="m33.3 14.1c-.1 0-.2-.1-.2-.1 0-.1 0-.2.2-.2.1 0 .2.1.2.1-.1.1-.1.2-.2.2m-.1-.4c-.1 0-.1.1-.1.2s.1.1.2.1.1-.1.1-.2c0 0-.1-.1-.2-.1"/><path d="m33.1 15.7.3 2 .8-.1-.3-2s-.8.1-.8.1z"/><path d="m32.9 16.1c.2 0 .3-.1.2-.3s-.2-.2-.3-.2-.1.1-.2.1-.1.1 0 .2c0 .1.1.2.3.2z"/><path d="m33.5 17h-.1c-.1 0-.2 0-.3 0s-.2 0-.4-.1c-.4-.2-.6-.2-.9-.2s-.4.4-.5.5c-.2 0-.5 0-.7.3-.1.2-.1.4-.1.6-.1-.2-.3-.4-.4-.6-.2-.6.1-1 .2-1.1s.5-.5.9-.6h.2c.3 0 .5.1.7.1.1 0 .1 0 .2.1.2 0 .4.1.6.1h.5v-.2c-.1 0-.2 0-.4 0s-.4 0-.5-.1c0 0 0 0-.1 0v-.1s.1-.1.1-.1c0-.1.1-.1 0-.2 0-.1-.2-.2-.3-.2s-.2.1-.2.3c0 .1 0 .1.1.1v.1c-.1 0-.2-.1-.3-.1v-.1c.1-.1.1-.1.1-.2s-.1-.2-.3-.2c-.1 0-.1.1-.2.1 0 .1-.1.1 0 .2 0 .1 0 .1.1.2v.1c-.1 0-.1 0-.2 0h-.1v-.1c0-.1.1-.1 0-.2 0-.1-.1-.2-.3-.2-.1 0-.2.1-.2.3 0 .1.1.2.2.2-.1.1-.2.1-.3.2v-.1c0-.1-.1-.2-.3-.2-.1 0-.2.1-.2.3 0 .1.1.2.2.2-.1.1-.1.1-.2.2v.1c0-.1-.1-.2-.3-.2-.1 0-.2.1-.2.3 0 .1.1.2.2.2h.1c0 .1-.1.2-.1.3 0-.1-.1-.1-.3-.1-.1 0-.1 0-.2.1 0 0-.1.1 0 .2 0 .1.1.2.2.2.1 0 .1 0 .1-.1h.1v.3s-.1 0-.2 0-.1 0-.2.1c0 0-.1.1 0 .2 0 .1.1.2.2.2.1 0 .2-.1.2-.2 0 .1.1.2.1.3h-.1c-.1 0-.2.1-.2.3 0 .1.1.2.2.2.1 0 .2-.1.2-.3.1.1.1.2.2.2l.1-.1c0-.1-.2-.6 0-.8.2-.3.4-.3.6-.3h.1v-.1c.1-.2.2-.4.4-.5.2 0 .5 0 .8.2.1.1.3.1.4.1s.3 0 .4 0h.1z"/><path d="m32.8 16h.2v.2h-.2z" transform="matrix(.00959922 -1 1 .00959922 16.4237 48.8146)"/><path d="m37.6 16.8c.1.1.2.1.3.1.1 0 .2-.1.2-.3 0-.1-.2-.2-.3-.2s-.1 0-.2.1h-.1c0-.1 0-.2 0-.3h.1.1c.1 0 .2-.1.2-.3s-.2-.2-.3-.2-.2.1-.2.2c0-.1-.1-.2-.2-.2s0 0 0 0c.1 0 .2-.1.2-.3s-.2-.2-.3-.2-.2.1-.2.3 0 0-.1-.1c0 0-.1-.1-.2-.1v-.1c.1 0 .2-.1.2-.3s-.2-.2-.3-.2-.2.1-.2.3v.1.1c-.1 0-.2-.1-.3-.1.1-.1.1-.1.1-.3 0-.1-.2-.2-.3-.2s-.2.1-.2.3c0 .1 0 .1.1.2v.1h-.1c-.1 0-.1 0-.2.1v-.1c0-.1.1-.1 0-.2 0-.1-.2-.2-.3-.2s-.2.1-.2.3c0 .1.1.2.2.2v.1c-.1.1-.2.1-.3.2v-.1-.1c0-.1-.2-.2-.3-.2s-.2.1-.2.3c0 .1.1.2.2.2v.1s0 0-.1 0c-.1.1-.2.1-.3.2v-.1c0-.1.1-.1 0-.2 0-.1-.2-.2-.3-.2s-.2.1-.2.3c0 .1.1.2.2.2-.1 0-.2.1-.3.1v.2c.3 0 .7-.2 1-.4 0 0 .1-.1.2-.1.2-.1.4-.3.8-.4h.2c.4 0 .8.2.9.3 0 0 .5.4.5 1 0 .2-.1.5-.1.7 0-.2-.1-.5-.3-.6-.1-.1-.3-.2-.5-.2-.1 0-.2 0-.3.1-.1-.1-.3-.4-.6-.3-.3 0-.5.2-.8.4-.2.2-.5.2-.7.2h-.1v.2h.1c.2 0 .5 0 .7-.3.3-.2.5-.4.7-.4s.4.1.5.3h.1c.1 0 .2-.1.3-.1s.2 0 .4.1c.2.2.2.6.2.8l.1.1c0-.1.1-.2.1-.3 0 .1.1.2.2.2.1 0 .1 0 .2-.1 0 0 .1-.1 0-.2 0-.1-.2-.2-.3-.2h-.1-.1c.8-.2.8-.3.8-.3z"/><path d="m31.3 20.3h-.1s-.1 0-.1.1c-.1.1-.1.2-.1.3s.1.1.2.1h.1c.1 0 .1-.1.2-.1 0-.1 0-.1 0-.2.1-.1 0-.2-.2-.2"/><path d="m37 19.4c-.1 0-.2.1-.2.2s0 .1.1.2c0 0 .1.1.2.1h.1.1c.1 0 .2-.1.2-.2s0-.2-.1-.2h-.1c-.2-.1-.3-.1-.3-.1"/><path d="m31 20.4s-.1 0-.1-.1 0-.1.1-.2c1.7-.7 3.3-1.1 5-1.1.4 0 .9 0 1.3.1.1 0 .1.1.1.1 0 .1 0 .1-.1.1-.4 0-.9-.1-1.3-.1-1.7.2-3.3.5-5 1.2zm5-1.3c-1.7 0-3.3.4-5 1.1v.1h.1c1.6-.7 3.3-1.1 4.9-1.1.4 0 .9 0 1.3.1s.1 0 .1-.1c0 0 0-.1-.1-.1-.4.1-.9 0-1.3 0z"/><path d="m31.9 17.6c-.1.3-.1.4-.1.6s.3.6.5.8c0-.2 0-.8 0-1-.1-.1-.3-.3-.4-.4"/><path d="m35.7 17c.1.2.2.4.2.6s-.2.7-.2.9c-.1-.2-.2-.8-.2-.9-.1-.3.1-.5.2-.6"/><path d="m34.4 21.5c-1.6.2-3.2.2-3.3-.3s1.5-1 3.1-1.3c1.6-.2 3.2-.2 3.3.3s-1.5 1-3.1 1.3m-.2-1.5c-1.9.3-3.1.9-3 1.2s1.4.5 3.2.2c1.9-.3 3.1-.9 3-1.2 0-.3-1.3-.4-3.2-.2"/><path d="m37.3 19.2s.1.1 0 0c.1.1 0 .2 0 .2.1 0 .1 0 .1-.1s0-.1-.1-.1z"/><path d="m31 20.4h-.1s0 0 0-.1h.1s0 0-.1 0c0 0 0 0-.1.1v.1c.1-.1.2-.1.2-.1.1 0 .1 0 0 0 .1 0 .1-.1 0 0 .1-.1 0 0 0 0z"/><path d="m37.4 18.1c0-.2.1-.4.2-.5l-.6-.1c.2.2.3.4.3.6h-.1c-.2-.1-.3-.2-.4-.4 0 .2-.1.5-.2.7.1-.1.3-.1.4-.1 0 .1 0 .1.1.1-.1.3-.3.6-.7.6-.3 0-.6-.2-.6-.6 0-.1.1-.2.2-.2.2 0 .2.2.2.3.2-.1.3-.7 0-.7s-.5.3-.5.6c-.1-.3-.4-.6-.6-.6-.3.1-.1.6 0 .7 0-.2.1-.4.2-.4s.2.1.2.3c0 .3-.3.5-.6.6-.3 0-.6-.1-.8-.5 0 0 .1-.1.1-.1.2 0 .5.1.6.2-.1-.3-.1-.5-.1-.8-.1.2-.3.3-.5.4 0 0 0 0-.1-.1 0-.2.1-.4.3-.5l-1.1.2c.2.1.3.2.4.4 0 0 0 .1-.1.1-.2 0-.4 0-.6-.2.1.3.1.5.1.8.1-.1.3-.3.5-.4 0 0 .1.1.1.1 0 .4-.3.6-.6.7s-.7 0-.8-.3c0-.2.1-.3.2-.3s.2.1.3.3c0-.2 0-.7-.3-.7-.2 0-.3.4-.4.6-.1-.2-.5-.5-.7-.3-.3.2 0 .6.2.7-.1-.1-.1-.4 0-.4s.3.1.3.2c.1.3-.1.6-.4.7-.4.1-.7 0-.8-.3v-.1c.2-.1.3-.1.5 0-.1-.2-.3-.5-.4-.6 0 .2-.1.4-.3.5-.1-.2-.1-.4.1-.7l-.6.4c.1.1.2.2.3.4-.1 0-.1.1-.1.2s.1.2.3.2c.1.2.2.4.3.5 1-.4 2.1-.8 3.1-.9 1-.2 2.1-.2 3.1-.1 0-.2 0-.4.1-.6.1 0 .2-.1.2-.3.2-.2.2-.2.1-.3z"/><path d="m34.2 19.5c-1 .2-2 .5-3 .9s0 0 .1-.1.3 0 .3 0c0 .1 0 .2-.2.3h-.1v.2c.8-.5 2-.8 2.9-.9 0 0 1.7-.4 3 0 0-.1 0-.1 0-.2 0 0-.1 0-.2 0-.2 0-.3-.1-.2-.2 0-.1.2-.2.3-.1h.1s0 0 0-.1c-1 0-2 0-3 .2z"/><path clip-rule="evenodd" d="m50.5 25.8c.6.1 1.3.2 1.9.3.8.1 1.6.1 2.4.1 1-.1 1.6 1.2.9 2.1-.5.7-1.2 1.5-2.1 1.1-.2 0-.3-.3-.6-.1-.5.5-.9.3-1.3-.1-.1-.1-.4-.2-.5-.1-.8.3-1.1 0-1.5-.4-.6-.5-.8-1.2-.8-1.8.1-.8.5-1.1 1.6-1.1" fill-rule="evenodd"/><path clip-rule="evenodd" d="m51.7 31c-.5.1-.6.2-.8.5-.1.1-.3 0-.5 0-.2-.1-.5-.1-.5-.4 0-.7 1-1.5 1.6-1.2.3.1.4.4.4.6-.1.2-.1.5-.2.5" fill-rule="evenodd"/><path clip-rule="evenodd" d="m48.5 27.5c-1.2 0-1.5-.2-1.6-.9 0-.2 0-.5 0-.9 1.2.1 1.6.2 1.5.9-.1.3-.1.5.1.9" fill-rule="evenodd"/><path clip-rule="evenodd" d="m52.7 32.6c-.1.5-.5.8-.9.7-.3 0-.7-.5-.7-.7 0-.5.3-.8.9-.8.5 0 .8.2.7.8" fill-rule="evenodd"/><path clip-rule="evenodd" d="m56.3 28.4c1.1 0 1.3-.2 1.4-.9 0-.2 0-.5 0-.8-1.1 0-1.2.2-1.2.9 0 .6 0 .6-.2.8" fill-rule="evenodd"/><path clip-rule="evenodd" d="m46.7 34.2c-1.1-.3-1.4-.2-1.7.4-.1.2-.2.5-.2.8 1.1.2 1.3.2 1.5-.5.2-.5.3-.5.4-.7" fill-rule="evenodd"/><path clip-rule="evenodd" d="m56.9 34.8c1-.3 1.2-.1 1.5.4.1.2.2.4.2.7-1 .2-1.1.1-1.3-.4-.1-.3-.2-.5-.4-.7" fill-rule="evenodd"/><path clip-rule="evenodd" d="m52 37.7c.7.7.8 1 .5 1.5-.1.2-.3.4-.5.6-.7-.8-.7-.9-.3-1.4.3-.4.2-.4.3-.7" fill-rule="evenodd"/><path clip-rule="evenodd" d="m50.5 32.4c-.1.5 0 .6.2.9.1.1-.1.3-.2.5s-.3.4-.5.4c-.6-.2-1-1.3-.6-1.9.2-.3.5-.2.7-.2.2.1.5.2.4.3" fill-rule="evenodd"/><path clip-rule="evenodd" d="m53.2 31.8c-.1-.4-.3-.5-.6-.7-.1-.1-.1-.3 0-.5 0-.2.1-.5.3-.6.7 0 1.5.8 1.3 1.4-.1.3-.3.4-.5.4-.2.1-.5.1-.5 0" fill-rule="evenodd"/><path clip-rule="evenodd" d="m51.5 33.9c.4.2.6.1.9 0 .1 0 .3.2.4.3.1.2.4.4.3.6-.4.6-1.5.7-2 .2-.2-.3-.1-.5 0-.7s.3-.5.4-.4" fill-rule="evenodd"/><path clip-rule="evenodd" d="m53.1 33.4c.3-.3.3-.4.3-.8 0-.1.2-.2.4-.2s.4-.2.6 0c.3.5 0 1.5-.6 1.7-.3.1-.5-.1-.6-.3 0-.1-.2-.4-.1-.4" fill-rule="evenodd"/><path clip-rule="evenodd" d="m45.4 31.9c.2-.4.6-.9.8-1.4.3-.6.5-1.2.8-1.8.2-.8 1.5-.8 2.1 0 .4.6 1 1.3.3 1.9-.1.1-.3.1-.2.4.3.5 0 .8-.4.9-.1.1-.2.2-.2.3.1.7-.3.8-.7 1-.6.3-1.2.3-1.8 0-.8-.1-1-.4-.7-1.3" fill-rule="evenodd"/><path clip-rule="evenodd" d="m57.5 34.3c-.6.1-1.2-.1-1.7-.5-.3-.3-.7-.5-.5-1.1 0-.1-.1-.3-.1-.4-.4-.3-.5-.5-.1-1 .2-.3-.1-.3-.1-.5-.4-.7.2-1.3.8-1.7.7-.6 2-.2 2 .6.1.7.2 1.2.3 1.9.1.5.3 1 .4 1.5-.1.8-.3 1.1-1 1.2" fill-rule="evenodd"/><path clip-rule="evenodd" d="m52.9 38.2c-.3-.5-.5-.9-.4-1.5.1-.4.1-.7.7-.8.1 0 .2-.2.2-.3 0-.4.2-.6.7-.5.3 0 .2-.2.3-.3.4-.6 1.1-.4 1.7-.1.8.3 1.1 1.5.4 1.8-.5.3-.9.7-1.4 1-.3.3-.7.7-1 1-.5.2-.8.2-1.2-.3" fill-rule="evenodd"/><path clip-rule="evenodd" d="m46.8 35.3c.3-.5.8-.8 1.4-.9.4-.1.8-.2 1.1.4.1.1.2.1.4.1.4-.1.7 0 .8.5.1.3.3.2.4.2.8.1.8 1 .7 1.7 0 .9-1.1 1.6-1.6 1.1-.5-.4-1-.7-1.5-1-.4-.2-.9-.4-1.3-.6-.7-.6-.8-1-.4-1.5" fill-rule="evenodd"/><path clip-rule="evenodd" d="m101.6 25.5c0-.6-.7-1.2-1.4-1.2-.2 0-.4 0-.5-.1-.2 0-.3-.2-.3-.5h1.2c.4 0 .6.2 1 .4-.1-.6-.8-1.2-1.6-1.1-.2 0-.3 0-.5 0s-.5 0-.6-.4c.5-.1.9-.2 1.3-.2s.7.1 1.1.2c-.2-.6-.9-1-1.6-.9-.2 0-.3 0-.5.1-.2 0-.5.1-.6-.2.5-.2.9-.3 1.2-.4.4-.1.7 0 1.2.1-.3-.6-1-.9-1.7-.7-.2 0-.3.1-.5.2s-.4.2-.6-.2c.5-.2.7-.4 1.1-.5s.8-.2 1.2 0c-.3-.5-1.1-.8-1.8-.5-.2.1-.3.2-.5.2-.2.1-.4.1-.5-.2.3-.2.6-.4.8-.5.4-.2.8-.2 1.2-.3-.4-.5-1.2-.5-1.9-.1-.1 0-.2.1-.3.1-.2.1-.4.1-.6-.1.6-.5 1.4-.7 1.8-.7 0 0-.6-.3-1-.1 0-.1 0-.3-.2-.4 0 .4-.5.7-.8 1-.6.5-1.2.9-2 1-.4.1-.6 0-.7-.1-.1-.2 0-.4.3-.4.7 0 1.1-.5 1.5-.8.2-.1.3-.3.6-.3-1.6-.3-2.5-.8-3.5.5-.2-.5.1-.9.3-1.1.3-.2.7-.4 1-.6.5-.4.7-1.1.4-1.5-.3.2-.2.5-.5 1-.3.4-.5.4-.7.4.1-.2.3-.5.3-.8.1-.3.1-.3.2-.7 0 0 .1-.7-.2-.7-.2.2-.2.3-.4.7s-.6 1.4-1 1.3c.1-.4.1-.4.2-.8.1-.3.1-.5.1-.9 0-.2 0-.5-.2-.6-.1.1-.4.6-.4.8-.2.6-.3.7-.5 1.3-1.6-1-3.1-1.9-4.5-2.9-1.5-1-2.9-2.1-4.6-2.8.6.7 1.4 1.2 2 1.8.3.3.6.4.8.5.4 0 .6.2.7.3.2.2-.1.2-.4.2.2.2.4.4.6.4.8 0 .8.1.9.2.5.3-.3.2-.5.2.2.2.5.4.6.5.3 0 .7-.1.8.1.4.3-.1.2-.5.2.3.3.5.5.9.5.5 0 .6-.1.9.1.6.4-.4.3-.8.3.3.3.5.5.8.5.4 0 .9-.1 1.2.1.3.3-.2.3-.9.3.2.4.1.8-.5 1.3-.5.4-.8.8-.8 1.4-.2 1.1-.8 2.1-1.6 2.8-.7.7-1.2 1.2-1.1 2.3 0 .3.1.8.3.9.3.1.7 0 1-.1.4-.1.8-.3 1.2-.5.1-.1.2 0 .2.2-.1.5-.2 1-.2 1.5v.3s.1.1.1.1c.5.2 1.4-.3 1.5-.9s1.1-1.7 1.6-1.7c1.3-.1 2.3-.6 3-1.7.1-.1.1-.3.1-.4 0-.2.2-.2.2 0s0 .4-.1.6c-.2.8-.8 1.2-1.4 1.7-.2.1-.5.4-.6.6-.1.7-.3 1.4-.8 2-.3.4-.9 1-1.3 1.2.2 0-.1.8-.1.8.3-.2.6-.2.7.1-.1-.6 1.4-1 1.3-1-.1.5.1 1.4-.2 1.6.3 0 .4 0 .5.4.1-.3.3-.6.5-.4.7.4 1.3 1 1.8 1.4.2.1.1.4-.3.5.6.2 2-.1 2-.1s.1.8-.1 1c.4.3.9.6 1.2.9s.5.6.7 1.1c.3-.6-.1-1.4-.7-1.8-.3-.2-.5-.4-.4-.9.4.3.7.5.9.7.3.3.6.7.7 1.1.3-.6-.1-1.3-.7-1.8-.3-.2-.6-.4-.5-.9.4.3.7.5.9.7.3.3.6.5.7 1 .3-.6-.1-1.3-.7-1.7-.3-.2-.6-.4-.4-1 .3.2.7.4.9.7.3.3.6.6.7 1 .3-.6-.1-1.3-.7-1.7-.1-.1-.3-.2-.4-.4 0 0-.3-.2-.2-.6.4.2.7.4 1 .6.3.3.6.6.8 1 .3-.6-.2-1.3-.8-1.7-.1-.1-.3-.2-.4-.3-.2-.1-.4-.2-.3-.7.4.2.8.3 1.1.5.3.3.7.5.9.9.2-.6-.3-1.2-1-1.6-.2-.1-.3-.1-.5-.2s-.3-.2-.3-.6c.4.1.8.3 1.1.4.4.2.7.4 1 .8.1-.6-.5-1.2-1.2-1.4-.1 0-.3-.1-.5-.2-.1-.1-.3-.3-.3-.6.4.1.9.2 1.2.3.4.2.7.3 1 .6 0-.6-.6-1.1-1.3-1.2-.1 0-.3 0-.4-.1-.1 0-.4-.2-.4-.6.4 0 .8 0 1.1.1.7.1 1 .3 1.4.5m-12.4-4.5c-.1-.2-.8.6-.7.3.3-.6.4-1.1.7-1.6.1-.2.3-.3.5-.4.2 0-.1.6.1.7.4.3.9.7 1.4 1.1-.5.3-1.7.3-2-.1m4.8-2.3c-.1.1-.3.2-.5.1s-.1-.3.1-.5c.2-.3.7-.5 1.4-.2.9.2-.4-.1-1 .6" fill-rule="evenodd"/><path d="m95.8 17.1c.2 0 .5-.1.6-.3s.1-.6 0-.7c0 0-.1 0-.2.1-.2.3-.1.5-.1.6s-.2.3-.3.3"/><path d="m97.2 16.6c.1 0 .1.3-.1.4-.1.1-.3.2-.5.1.3-.1.2-.3.3-.4.1 0 .2-.1.3-.1"/><path d="m94.9 17c.3 0 .6-.2.7-.4s.1-.8 0-.9c0 0-.2-.1-.3.1-.2.4-.1.7-.2.8.1.2-.2.4-.2.4"/><path clip-rule="evenodd" d="m52.8 84.9c.3.2.8.4 1.1.5.2.1.4.2.6.2 2.2.9 4.5 1.5 6.9 1.8 2.3.4 4.6.4 6.9.2 2.1-.2 3.9-.7 5.9-1.4.9-.3 1.6-.6 2.4-1.1.4-.2.8-.5 1.2-.7.1.4.1.6-.2.8-.4.2-.7.4-1.1.6-1 .5-2 .9-3.2 1.2-1 .3-1.8.5-2.6.7-1 .2-1.9.3-3.1.3-1.8.1-3.6 0-5.4-.2-1.7-.2-3.2-.5-4.9-1-.7-.2-1.7-.5-2.4-.8-.6-.3-1-.4-1.6-.7-.2-.1-.3-.1-.4-.3-.1.2-.1 0-.1-.1" fill-rule="evenodd"/><path clip-rule="evenodd" d="m79.8 86.8c-.3.2-.6.4-.9.6-1.3.8-2.7 1.3-4.1 1.8-.7.3-1.4.5-2.2.7-1.5.4-2.2.5-4.3.7-.7.1-2-.1-3.2-.4 2.6 0 4.8-.2 6.2-.6 1.9-.4 3.8-1 5.6-1.9.6-.3 1.2-.7 1.7-1.1.5-.3 1-.1 1.2.2" fill-rule="evenodd"/><path clip-rule="evenodd" d="m52.4 87.8c-.8-.6-1.5-1.5-1.5-1.6.6.2 1.2.7 1.9 1.1.8.4 1 .6 2 .9 1.1.4 1.9.6 3 .9 1.5.4 1.5.4 3 .7.7.1 1.7.2 3.1.3-1.8.3-3.2.2-4.5-.1-.9-.2-2.5-.4-3.6-.8-2-.5-2.6-.8-3.4-1.4" fill-rule="evenodd"/><path clip-rule="evenodd" d="m84 84.4c-2.8 3.9-5.8 5-8.7 5.8-1.8.5-4.1.7-4.9.7 2.1-.4 4.1-1 5.6-1.6 1.5-.7 2.4-1.1 3.8-2 .1-.1.3-.2.5-.1.6.2 2.9-1.9 3.7-2.8" fill-rule="evenodd"/><path clip-rule="evenodd" d="m61.2 91.4c-.4-.1-1.7-.5-1.9-.8 1.8.4 3.5.4 5.3.4h1.3c.6 0 1.6.4 2.1.4-.6.2-2.7.3-3.4.2-.1.1-1.9 0-3.4-.2" fill-rule="evenodd"/><path clip-rule="evenodd" d="m77.4 84c-1.3.7-2.3 1.2-3.6 1.7-.2.1-.5.2-.7.1s-.3-.3-.3-.5c.3-.1.6-.2.8-.3 1.2-.4 1.9-.8 3.1-1.3.1-.1.6-.4.9-.5.1.6-.1.7-.2.8" fill-rule="evenodd"/><path clip-rule="evenodd" d="m77.5 82.8c-.2.1-.8.4-1 .5-.9.4-1 .4-1.9.9-.3.2-1.6.6-1.4 0 1.6-.7 3.1-1.2 4.6-1.9 0 .1-.1.3-.3.5" fill-rule="evenodd"/><path clip-rule="evenodd" d="m81.2 78.8c1.3-.3 3.3-.3 4.7-.2v1.1c-1.4-.2-3.3-.4-4.7-.6-.2-.1-.2-.3 0-.3" fill-rule="evenodd"/><path clip-rule="evenodd" d="m83.6 81.2c.9.1 1.6 0 1.3.8-.1.1-.2.6-.3.7-.2.6-.7.6-1.2.6.1-.8.2-1.4.2-2.1" fill-rule="evenodd"/><path clip-rule="evenodd" d="m76.8 81.5c0 .3-.5.5-1.2.8-.4.2-1 .5-1.4.5-.3 0-.6.1-.7-.2 1.2-.5 2.1-.8 3.1-1.3.2 0 .2.1.2.2" fill-rule="evenodd"/><path clip-rule="evenodd" d="m79.2 83.5c1.6.2 3 .4 4.3.6 0 .2-.1.3-.3.2-.7-.1-1.7-.2-2.4-.3-.4-.1-.9-.1-1.2-.2-.4 0-.4-.1-.4-.3" fill-rule="evenodd"/><path clip-rule="evenodd" d="m80.4 79.7c.3 0 .6-.1.9 0 1.1.1 3.2.3 4.2.5-.1.1-.1.3-.2.4-1.4-.2-3.4-.5-4.9-.7-.1 0-.1-.2 0-.2" fill-rule="evenodd"/><path clip-rule="evenodd" d="m82.5 81.9c-.2-.2-.5-.5.1-.9-.9-.1-1.5-.2-2.3-.3-.6-.1-.8 0-.9.5s-.1.9-.1 1.4c.3 0 .5.1.6.1 0-.5 0-.9 0-1.4 0-.2 0-.6.4-.6.6.2.7.7.6 1.2v.5c0 .1.2.3.3.3.4.1.7.1 1.2.2-.7-.4-.3-.7.1-1" fill-rule="evenodd"/><path clip-rule="evenodd" d="m63.1 85.8c-1-.2-2.1-.4-3.2-.6 0-.4 1-.2 1.7-.1.8.2 1.5.4 1.5.7" fill-rule="evenodd"/><path clip-rule="evenodd" d="m57.8 85.9c-.9-.2-1.9-.6-2.7-.8 0-.6 2.8.2 2.7.8" fill-rule="evenodd"/><path clip-rule="evenodd" d="m60.4 86.1c.9.2 1.7.3 2.5.4 0 .4-.9.3-1.5.2-.4 0-1.1-.2-1-.6" fill-rule="evenodd"/><path clip-rule="evenodd" d="m57.4 84.2c-.3.4-.8.3-1.3.2-.1 0-.7-.2-.6-.5 0-.1.2-.1.3-.1.3.1.5.2.8.2.3.1.5.1.8.2" fill-rule="evenodd"/><path clip-rule="evenodd" d="m82.1 85.4c-.5-.1-.9-.1-1.4-.2-.2 0-.2-.1-.2-.3.5.1 1.2.2 1.7.2.1.2 0 .3-.1.3" fill-rule="evenodd"/><path d="m86.8 77.2c-.5 0-1.8 0-2.6 0-.3 0-.3-.3-.3-.5 0-.9 0-5.5 0-5.9h-.2v1.2c0 .3-1.8 1.6-2.6 1.1-.3-.2-.3-.4-.4-.7-.1-.6-.3-1-.8-1.2-.7-.3-2.4.6-2.9 1.2s-.5 5.6-.2 6.9c-.1 0-.1 0-.2 0-.3-.1-.5-.5-.7-.9 0 0-1.3-1.8-1.4-1.9-.4-.7-1-1.6-1.5-2.2-.5-.7.1-.7.8-1 .6-.2.9-.6 1.5-.6.8 0 .5-.3.3-.2-.6 0-.7-.3-.8-.6-.3-.7-1-2-1.3-2.7 0 0-.3-.5-.4-.9-.5-1-1-2.3-1.5-3.3-.3-.7-.7-1.4-.7-2.1 0-.3 0-.9 0-1.2-1-.3-1.1-.1-1.8.5-.4.3-1.1.2-1.4.1.2.4.7.6.8.7.7.2 1 0 1.7-.2.2 0 .4-.1.4.1v.4c-.1 1.1-.4 2.2-.8 3.3s-.9 2.1-1.4 3.2c-.1.3-.2.6-.4.3-.3-.4-2.7-4.2-2.9-4.8-.1-.3.3-.4.7-.4.9-.2.9-1 1.7-1.3.2-.1.1-.3-.3-.2-.8.1-1.1-.6-1.4-1.1-.5-.8-.9-1.6-1.3-2.3-.1-.2-.1-.5-.1-.8s0-.2 0-.7c-.3.3-1 .2-1.3.5-.5.5-.5 1.8-1.6.8.2.2.3.9 1.1.9.4 0 .8-.1 1.1-.6.2-.3.5-.4.4-.1 0 .1-.6 1.7-.9 2.2-.3.7-.6 1.5-1 2-.1.2-.2.3-.5.4-.1 0-.4 0-.4.1s0 .1.3.1c.8.1.4.7-.2 1.1 0 0-1 .8-1 .8-.5.4-.8.5-1.2 0-.6-.8-1.1-1.7-1.7-2.5-.5-.7-.6-1.5-.6-2.5 0-.5 0-.9 0-1.5-.8.1-1.2.5-1.6 1-.5.5-.7 1-1.4 1.1.5.4 1.2.2 2-.4.2-.2.6-.2.6.3v.7c0 .3 0 .4-.1.6-.2.7-.5 1.3-.9 2.1-.3.6-.5 1.4-.9 1.7-.2.1-.4.3-.7.3-.5 0-.4.3-.3.3.6.2 1 .3 1.5.4.5.2.9.9.7 1.3 0 .1-.1.2-.2.2-.2.2-1 1.1-2 2.1-.9.8-2 1.6-2.6 2.1-.8.6-3.4 1.9-4.2 2.4-.7.4-1.5 1.1-2.1 1.1-.2 0-.3-.2-.3-.6 0-1.1.1-3.3.1-5.8-.6 0-.5.6-1.1.7-.5.1-.5.2-.5.4 0 .7 0 1-.1 1.3.1 0 .3-.1.4-.1.6-.4.5-.2 1.1-.3v4.1c0 .2-.1.5-.4.5h-2c-.2 0-.2.3.2.4.2.1.5 0 .7.1.3 0 .6.3.7.4 1.2 1.3 3.6 3.5 4.2 3.9.3.3.7.6 1.1 1.1s1.5 2.3 1.8 2.5c.6.2 1.2.7 1.8 1 1 .5 1.9.9 2.9 1.3.8.3 1.6.5 2.4.8 1.1.3 2.3.7 3.4.8 1.4.2 2.1.3 3.1.3 1.5 0 2.9 0 4.4-.2 1.2-.1 2.4-.3 3.6-.6.8-.2 1.6-.4 2.3-.7.7-.2 1.3-.6 2-.9.6-.3 1.8-1 2.4-1.4-.1-.2-.6-.3-.9-.1-.7.4-.8.5-1.9 1-1 .4-1.9.9-3 1.2-1.5.4-2.9.6-4.8.9-1.9.2-3.8.2-5.7 0-2-.2-3.3-.6-5.2-1.1-.8-.2-1.7-.5-2.4-.8-.9-.4-1.9-.9-2.4-1.3-.8-.6-1-1.4-.9-3.2 0-.5.2-.7.5-.6.2 0 .3.1.5.1.5.2 1.3.4 1.8.6 1.7.6 3.2 1 4.9 1.3.5.1 1.2.2 1.9.2 0-.2.1-.3 0-.4s-.5-.1-.5-.4c0-.2.5-.2.6-.2.4 0 .7.1 1.1.1.1.1.1.8 0 1 .7 0 1.3.1 2 .1.2 0 .7 0 .7.2s0 .2-1 .2c-.1 0-.1.2 0 .2s.5.1.6.2c.3.3.2.7.2 1.1 0 .7.4.7.9.7 1.1.1 2-.1 2.8-.1.4-.1.4-.3.4-.5-1 0-2.9.2-3 .1-.2-.1-.1-.1-.1-.3s.1-.2.6-.2c.6 0 1-.1 1.6-.1.5 0 .6-.2.6-.4-.9 0-1.8 0-2.9 0-.1 0 0-.5.3-.5 2.1 0 2.2-.2 3.2-.3.2 0 .8.2.8.6 0 1.2.4 1.1.8 1 .1 0 .7 0 .5-.8 0-.4-.2-1 0-1.3.3-.4.9-.5 1.4-.8.4-.2.3-.3.2-.6s.1-.5.3-.6c.7-.2 1.4-.5 2-.8.3-.1.7-.3 1-.4.7-.3.7-.6 1.1.2 0 .1 0 .1.1.3.3-.2.8-.3.8-.6.1-.8.6-1.4 1.1-1.9.4-.6 1-1.3 1.8-1.3h5.6c0-.6.3-1-.1-1zm-22.7-5.2c-.2 0-.3.2-.3-.7.1-1.1.3-5 .3-5.3.1-.6.2-.6.2.3 0 .2 0 4.1.1 5.1 0 0 .1.6-.3.6zm-1.9-1.2c-.1-.1-.1-.3 0-.7.1-.2 1.3-4.2 1.4-4.4.1-.3.2-.6.2.2 0 .1-.3 4.6-.4 5 0 .2 0 .9-.2.8-.1-.1-.9-.7-1-.9zm.8 1.6c-.7.2-1.2.3-1.7.5-.3.1-.3-.1-.2-.2.2-.5.3-.7.6-1.3.1-.1.1-.2.2-.2.4.3.7.6 1.1.9.2.1 0 .2 0 .3zm-.1-8.5c.4-1 .8-1.9 1.1-2.8.2-.5.3-.2.3 0v2.4c0 .2-.2.3-.3.4-.3.1-.6.3-1 .4-.1-.1-.2-.1-.1-.4zm-1.9 3.4c.3-.1 0-.2-.4-.2-.2 0-.1-.1 0-.2.2-.2 1.4-1.1 1.5-1.3.2-.2.8-.6 1-.5s.2.3.1.4c0 .1-1.2 3.9-1.5 4.6-.1.2-.2.2-.2.1-.5-.6-1-1.2-1.5-2-.2-.3.3-.6 1-.9zm-2 1.1c.4-.3.6 0 .8.3.5.6 1.1 1.3 1.6 1.9.1.1.1.3.1.5-.3.7-.6 1.2-.9 1.8-.2.3-.4.2-.6-.1-.4-.7-1.4-2.9-1.5-3.3 0-.2 0-.2 0-.4.1-.1.3-.5.5-.7zm1.3 5.9c.2.3.3.4-.1.5-.3 0-.9 0-1.2 0s-.4-.2-.4-.6c0-.1-.5-3.3-.6-4-.1-.3.2-.3.3 0 .4 1 1.7 3.7 2 4.1zm-3.5 1.1c-.2.1-.3.1-.4.1-.1-.1 0-.2.1-.4s0-.1.2-.2c.1-.1.2 0 .2.1s.1.3-.1.4zm-.7 0c-.1.2-.3.2-.4.2-.7 0-1.3.1-1.6 0s-.4-.2-.2-.5c.1-.1.3-.4.5-.7.1-.2.3-.5.5-.8.1-.1.1-.2.1-.2.1 0 .3.1.4.1.4.1.6.2 1.2.4.3.1 0 .5-.2.8-.1.3-.2.6-.3.7zm.8-4.6v1.8.8c0 .1 0 .3-.1.3s-.4-.1-.5-.1c-.3-.1-.6-.1-.9-.3s0-.5 0-.6c.3-.7.5-1.2.8-1.9.1-.2.2-.7.4-.6s.2.4.3.6zm-.9-3.6c-.5.1-.5-.3-.5-.5.3-.8.6-1.6 1-2.3.1-.2.2-.2.2 0v2.2c0 .6-.2.5-.7.6zm-8.1 14.4c-.6-.6-2-1.8-3-2.7-.2-.2-1-.9-.9-1.2s.4-.2 1-.2h1.1c.9 0 1.1.4 1.3.7 0 0 .1.1.1.1.3.3.5.7.7 1.4.4.7 1.3 3.2-.3 1.9zm2.8 2.2c-.2.1-.4-.2-.6-.4-.3-.4-.4-.8-.6-1.4-.3-1.1-.6-2.3 0-1.9.4.2.4.2.7.4.3.3.3.8.3 1 .1.7.2 1.1.2 1.8.1.3.2.4 0 .5zm-.2-3.8c-.4-.1-.8-.5-1.6-1.2-.5-.4-1.3-1.3-.9-1.3h2.6c.7 0 .6.2.7.6s0 1.1 0 1.5c0 .5-.4.6-.8.4zm2.1.8c-.2-.1-.4-.2-.7-.3-.2-.1-.3-.4-.3-.7-.1-.9-.1-1.3-.2-2.2 0-.3-.2-.4-.4-.4-1.1 0-1.9 0-2.9 0-.4 0-1.7 0-2.1 0-.2 0 .6-.5.7-.6 1-.6 3.8-2.1 4.7-2.7s2-1.5 2.8-2.3c.8-.7 1.3-1.3 1.7-1.7.3-.4.5 0 .4.2-.2.4-.1.4-.3.7-.2.5-.5.9-.7 1.4-.4 1-1.8 3.1-1.9 3.2s-.7 0-.3.4c.1.1.8.2.9.2.6.2 1.5.3 1.6.7 0 .3-.2.9-.2.9s-1.2 2.4-1.7 3.1c-.2.3-.2.4-1.1.1zm1.4.4c-.2-.1 0-.3.1-.4.1-.3.3-.6.4-.9l1.2-2.4c.2-.2.2-.5.5-.4.5.1.5.3.3.8-.2.4-.4 1-.6 1.5l-.7 1.2c-.1.2-.2.3-.2.4-.3.5-.8.3-1 .2zm1.2.1c-.1-.2.2-.6.3-.8l.5-1c.1-.1.4-.8.5-1 0-.1.2-.4.2-.5.3-.6.3.1.3.3 0 .1-.7 2.4-.8 2.8-.1.2-.2.6-.4.6-.2-.2-.6-.3-.6-.4zm.4 1.6c-.4-.2-.4-.6-.2-.9.4.2.9.3 1.3.5-.2.5-.6.7-1.1.4zm1.5-1.4c0 .2 0 .6-.2.6-.1 0-.4-.1-.6-.2-.1-.1-.2-.2-.1-.3.3-.7.4-1.3.6-1.9 0-.1.1-.5.2-.5.1-.2.2.2.1.4-.1.4 0 1.4 0 1.9zm.1-15.2c0-.6 0-1.3-.1-1.8 0-.1 0-.2 0-.3 0-.3.1-.1.1-.1.2.3.7 1 .9 1.3.2.4.5.7.7 1.1.1.3 0 .4-.3.4-.1 0-.2 0-.2 0-1 .2-1 .4-1.1-.6zm.3 4.8c0-.1 0-.9 0-1 0-.2.3-.1.3.1.1.2.4 2.4.5 3.1 0 .1.1.3-.2.2-.1 0-.2 0-.3 0-.3 0-.2-.5-.2-.9-.1-.4-.1-1-.1-1.5zm.1 3.5c0-.4 0-.6.2-.7.1 0 .2-.1.3-.1s.2.1.2.2c.1.2.1.5.1.6 0 .3 0 .3-.3.4-.2.1-.4.3-.5-.4zm1.2 7.9c-.1 0-.3 0-.4-.1-.2 0-.3-.1-.4-.2 0-.1 0-.6 0-.7 0-1.3-.1-2.5-.2-3.8 0-.1 0-.6 0-.7.1-.1.2-.1.2-.1.3 0 .3.7.3.8.1.5.5 4.4.5 4.5.1.3.1.3 0 .3zm1 .2c-.2 0-.5 0-.5-.1 0 0 0-.1-.1-.1 0-.1 0-.2 0-.2-.1-.4-.5-4.2-.7-5.3 0-.2.1-.2.2 0 .2.6 1.2 5 1.3 5.6 0 .1-.1.1-.2.1zm.9.1c-.1 0-.2 0-.4-.1-.1 0-.1-.2-.2-.3-.3-1.4-1.2-4.6-1.3-5.3-.1-.4-.2-.7.2-.9.6-.2 1.4-.6 1.9-.9.1-.1.3-.2.3-.3 0-.3-.3-.1-.4-.2-.2-.3-.4-.7-.6-1-.1-.1 0-.1.1-.2h2.6c.5 0 .5.4.4.8-.2 1-2 6.9-2.2 7.3.1.3-.2 1.1-.4 1.1zm1.6-.2c-.1.2-.1.3-.3.3s-.7 0-.8-.1c-.1-.2 0-.3.1-.6.2-.5 2.2-7.4 2.4-7.9 0-.1.1-.8.5-.7.5 0 .3.4.3.6 0 .4-.2 1.2-.3 1.6-.3 1.4-.7 2.8-1.1 4.2-.1.6-.3 1.1-.5 1.6-.1.4-.2.8-.3 1zm2.2.1c0 .3-.1.4-.3.4-.1 0-1.1 0-1.3-.2s-.2-.4-.1-.8c0-.2.1-.5.2-.7.3-1.1 1.2-4.5 1.4-5.4 0-.2.1-.2.1.2v1.3 3.8zm6.6-2.6v1.7c0 .6-.1.7-.5.8-.3.1-.7.2-.9.1-.1-.1-.1-.3-.1-.5.2-1 1.1-6.2 1.3-6.9 0-.2.1-.5.1-.3 0 .6.1 4.1.1 5.1zm-3.9-6.9h.4c.7.2 1.2.4 1.8.6.2.1.6.2.5.7-.3 1.3-.7 2.6-1.1 3.8 0 .1-.1.4-.2.7 0 .2-.2.4-.3-.1-.3-.9-1.6-5.3-1.7-5.5-.2-.5-.1-.7.4-1 .2-.1.1-.1.3-.2 0 0-.2.5-.3.6 0 0-.1.1-.1.1-.1.2.1.3.3.3zm3.3 1.2c.1-.4.3-.3.2.1-.1.6-1.3 7.1-1.5 8.1-.1.3-.6.5-1.1.5-.1 0-.2-.1-.1-.2.7-2.4 1.8-6.3 2.5-8.5zm.4-8.4c0 .3.1 4.5.1 5.2 0 .3-.4.6-.6.8s-.7.1-.6-.2c0 0 1-5.6 1.1-6.1-.1-.2 0-.1 0 .3zm-2.4 5.1c.3-.2.4-.1.4-.4 0-.2-.3-.1-.2-.3l.3-.8c.4-.8.9-1.7 1.1-2.3.1-.2.1-.1.1.1 0 .1-.7 4.3-.8 4.5s-.1.5-.9.7c-.3.1-.7.2-.9.3-.1 0-.1-.1-.1-.1s.8-1.6 1-1.7zm-3-4.7c.1.2 1.9 2.8 2.6 4.2.1.2-.1.4-.3.4-.3.1-.3.1-.7.2-.4.2-.6-.2-.7-.6-.1-.5-1.2-3.9-1.2-4.1.1-.3.2-.2.3-.1zm-.8-3.3c0-.6-.1-1.1-.1-1.7s0-.8.1-.6c.5.8 1 1.6 1.4 2.3.2.4-.1.4-.3.4-.3 0-.6.1-.8.1-.3 0-.3 0-.3-.5zm.3 8.5c0-1-.1-2.6-.1-3.8-.1-1.4 0-1.2.2-.5s.8 2.8 1 3.4c.1.2.3.7.1.8-.3.1-.6.2-.9.3-.2.1-.3 0-.3-.2zm1.9 11.6c-.3 0-.8 0-1.1 0s-.3-.3-.4-.6c0-.4-.2-3.3-.2-4.3 0-.8 0-1.6-.1-2.5 0-.2-.1-1.2 0-1.2s.4.9.4 1.1c.2 1 .5 1.9.7 2.9.3 1.3.7 2.6 1 4 .2.4.2.5-.3.6zm.7-1c-.2-.9-2.1-7.9-2.1-8.5 0-.2.2-.4.6-.6.3-.2.4.3.4.5.4 1.4.9 2.7 1.3 4.1.2.7.4 1.4.6 2.1.1.2.1.4 0 .6s-.4 1.5-.5 1.7c-.2.2-.3.2-.3.1zm1.8 2c-.9.1-1.4 0-1.7-.6l3-.6c.1.6-.5 1.1-1.3 1.2zm1.4 1.9c-.2 0-.4 0-.4-.4-.1-.3 0-.5.4-.5.2-.1.3.2.3.4 0 .3-.1.5-.3.5zm.3-20.8c0-.1 0-.7.2-.3.1.1 1.2 2.7 1.5 3.5.1.3.1.6-.2.9-.4.5-.7.8-1.1 1.2-.2.2-.2.1-.2-.1 0-.5-.1-4.2-.2-5.2zm.3 6.5c0-.2.1-.4.3-.7.4-.6.9-1.1 1.4-1.7.1-.1.1 0 .1 0 .3.7.7 1.4.9 2.1.2.5-.1.9-.6.9s-.9 0-1.4-.1c-.3 0-.7-.2-.7-.5zm.6 9.5c-.1 0-.3 0-.3-.5 0-.9-.1-3.6-.1-4.5 0-.1.3 1.2.4 1.6.2.6.7 2.5.7 2.9.1.3-.2.4-.7.5zm2.1-.8c-.1.2-.5.3-.7.4-.3.1-.4-.2-.6-1-.4-1.4-.7-2.8-1.1-4.2-.1-.3-.1-.7-.2-1s.1-.3.2-.1c.2.4 2.1 5 2.2 5.4.2.1.3.3.2.5zm1.3-.4c-.6.2-.7.2-.8 0-.7-1.6-1.8-4-2.4-5.6-.3-.7.2-.8.3-.5.5.9 3.4 5 3.5 5.2.4.5-.2.8-.6.9zm8.3-3.4c0 .2 0 .5-.2.5h-1.9c-.5 0-1.1.2-1.4.3-.6.3-1 .6-1.9 1-.3.2-.4.2-.7.3-.1.1-.3.2-.5.2.6-1.3 1.6-2.6 2.5-2.7.4-.1.8.4 1.2.4.7 0 1.2-.5 1.6-.9.6-.6 1.2-.5 1.3-.4.1.2 0 .7 0 1.3zm.1-2.1c-.6-.2-1.5.3-2.2.9s-.9.3-2-.1-2.4 1.3-2.4 1.3-.3-2.7.2-4c.5-.6 2.3-1.7 2.5-.4.2 1.1 1.1 1.3 1.5 1.3 1.1.1 2.3-1 2.3-1s.1 1.4.1 2z"/><path d="m140.7 29.2c5.5 0 9.8 1.4 12.7 4.2 3 2.8 4.5 7.1 4.5 12.8 0 3-.3 5.7-1 8s-1.7 4.3-3.1 5.9-3.2 2.8-5.4 3.6-4.7 1.3-7.7 1.3h-12.3v-35.8zm.4 31.7c.5 0 1.2 0 2-.1s1.6-.3 2.6-.6c.9-.3 1.8-.8 2.7-1.4s1.7-1.4 2.4-2.5c.7-1 1.3-2.3 1.7-3.9s.7-3.4.7-5.6-.2-4-.6-5.7-1.1-3.1-2.1-4.3c-.9-1.2-2.2-2.1-3.7-2.7s-3.4-.9-5.6-.9h-8v27.7z"/><path d="m180.1 63.3c-1.9 1.5-4.4 2.2-7.3 2.2-2.1 0-3.9-.3-5.4-1s-2.8-1.6-3.8-2.8-1.8-2.6-2.3-4.3-.8-3.5-.9-5.5c0-2 .3-3.8.9-5.4s1.4-3 2.5-4.3c1.1-1.2 2.4-2.1 3.9-2.8s3.1-1 4.9-1c2.3 0 4.2.5 5.7 1.4 1.5 1 2.7 2.2 3.6 3.6.9 1.5 1.6 3.1 1.9 4.8.4 1.7.5 3.4.4 5h-19.4c0 1.1.1 2.2.4 3.2s.8 1.9 1.4 2.7c.7.8 1.5 1.4 2.6 1.9s2.2.7 3.6.7c1.8 0 3.3-.4 4.4-1.2s1.9-2.1 2.3-3.8h4.2c-.4 3-1.6 5.2-3.6 6.6zm-1-16.6c-.4-.9-.9-1.7-1.6-2.3-.6-.7-1.4-1.2-2.3-1.5s-1.9-.6-2.9-.6-2.1.2-3 .6-1.6.9-2.3 1.6c-.6.7-1.1 1.4-1.5 2.3s-.6 1.8-.6 2.8h14.9c-.1-1-.3-2-.7-2.9z"/><path d="m191.9 39.1v3.5h.1c.7-1.4 1.8-2.5 3.3-3.1s3.1-1 5-1c2 0 3.8.4 5.2 1.1s2.7 1.7 3.7 3c1 1.2 1.7 2.7 2.2 4.3s.8 3.4.8 5.2-.2 3.6-.7 5.2-1.2 3.1-2.2 4.3-2.2 2.2-3.7 2.9-3.2 1.1-5.2 1.1c-.6 0-1.3-.1-2.1-.2s-1.6-.3-2.3-.7-1.5-.7-2.2-1.2-1.3-1.2-1.7-1.9h-.1v13.3h-4.3v-35.8zm15.3 9.2c-.3-1.2-.8-2.2-1.4-3.1s-1.5-1.6-2.5-2.2c-1-.5-2.2-.8-3.6-.8s-2.6.3-3.6.8-1.8 1.3-2.4 2.2-1.1 2-1.4 3.1c-.3 1.2-.4 2.3-.4 3.6s.1 2.5.4 3.7.8 2.2 1.4 3.1 1.5 1.6 2.5 2.2c1 .5 2.3.8 3.8.8s2.7-.3 3.7-.8 1.8-1.3 2.4-2.2 1-2 1.3-3.2.4-2.4.4-3.7c-.1-1.2-.3-2.4-.6-3.5z"/><path d="m238.6 64.9c-.7.4-1.8.7-3.1.7-1.1 0-2-.3-2.6-.9s-1-1.6-1-3c-1.2 1.4-2.5 2.4-4.1 3s-3.2.9-5 .9c-1.2 0-2.3-.1-3.3-.4-1.1-.3-2-.7-2.7-1.2-.8-.6-1.4-1.3-1.8-2.2s-.7-2-.7-3.3c0-1.5.2-2.7.8-3.6s1.2-1.7 2-2.3 1.8-1 2.8-1.3c1.1-.3 2.1-.5 3.2-.8 1.2-.2 2.3-.4 3.3-.5s2-.3 2.8-.5 1.4-.5 1.9-1c.5-.4.7-1 .7-1.8 0-.9-.2-1.7-.5-2.2s-.8-1-1.4-1.3-1.2-.5-1.9-.6-1.4-.2-2-.2c-1.8 0-3.3.3-4.5 1s-1.9 2-1.9 3.9h-4.3c.1-1.6.4-3 1-4s1.4-2 2.4-2.7 2.1-1.2 3.4-1.5 2.7-.5 4.1-.5c1.2 0 2.3.1 3.5.2s2.2.5 3.1 1 1.7 1.2 2.2 2.2c.6.9.9 2.2.9 3.7v13.3c0 1 .1 1.7.2 2.2s.5.7 1.2.7c.4 0 .8-.1 1.3-.2zm-6.9-13.3c-.5.4-1.2.7-2.1.9s-1.8.3-2.7.5-1.9.2-2.9.4-1.8.4-2.6.7-1.4.8-1.9 1.4-.7 1.5-.7 2.5c0 .7.1 1.3.4 1.8s.6.9 1.1 1.2 1 .5 1.6.7c.6.1 1.2.2 1.9.2 1.4 0 2.6-.2 3.6-.6s1.8-.9 2.4-1.4c.6-.6 1.1-1.2 1.4-1.9s.4-1.3.4-1.9z"/><path d="m245.3 39.1v5.5h.1c1-2.1 2.3-3.7 3.8-4.7s3.4-1.5 5.7-1.4v4.5c-1.7 0-3.1.2-4.4.7-1.2.5-2.2 1.2-2.9 2-.7.9-1.3 2-1.6 3.3s-.5 2.8-.5 4.4v11.6h-4.3v-25.9z"/><path d="m269.5 39.1v3.8h-5.2v16.1c0 .5 0 .9.1 1.2s.2.5.5.7c.2.2.6.3 1 .3s1 .1 1.6.1h2v3.7h-3.2c-1.1 0-2-.1-2.8-.2-.8-.2-1.4-.4-1.9-.8s-.8-1-1.1-1.7c-.2-.7-.4-1.7-.4-2.9v-16.6h-4.4v-3.8h4.4v-7.8h4.3v7.8h5.1z"/><path d="m276.5 39.1v3.8h.1c1.9-2.9 4.7-4.4 8.4-4.4 1.6 0 3 .3 4.4 1 1.3.7 2.2 1.8 2.8 3.4.9-1.4 2-2.5 3.4-3.2 1.4-.8 3-1.2 4.7-1.2 1.3 0 2.5.1 3.5.4s2 .7 2.7 1.3c.8.6 1.3 1.4 1.8 2.3.4 1 .6 2.1.6 3.4v19h-4.3v-16.9c0-.8-.1-1.5-.2-2.2s-.4-1.3-.8-1.8-.9-.9-1.5-1.2-1.5-.5-2.5-.5c-2.1 0-3.8.6-5 1.8s-1.8 2.8-1.8 4.8v16.1h-4.3v-17c0-.8-.1-1.6-.2-2.3s-.4-1.3-.8-1.8-.9-.9-1.5-1.2-1.4-.4-2.4-.4c-1.2 0-2.3.2-3.2.8s-1.6 1.1-2.1 1.8-1 1.4-1.2 2.2-.4 1.4-.4 1.9v16h-4.3v-25.9z"/><path d="m332 63.3c-1.9 1.5-4.4 2.2-7.3 2.2-2.1 0-3.9-.3-5.4-1s-2.8-1.6-3.8-2.8-1.8-2.6-2.3-4.3-.8-3.5-.9-5.5c0-2 .3-3.8.9-5.4s1.4-3 2.5-4.3c1.1-1.2 2.4-2.1 3.9-2.8s3.1-1 4.9-1c2.3 0 4.2.5 5.7 1.4 1.5 1 2.7 2.2 3.6 3.6.9 1.5 1.5 3.1 1.9 4.8s.5 3.4.4 5h-19.4c0 1.1.1 2.2.4 3.2s.8 1.9 1.5 2.7 1.5 1.4 2.5 1.9 2.2.7 3.6.7c1.8 0 3.3-.4 4.4-1.2s1.9-2.1 2.3-3.8h4.2c-.4 3-1.7 5.2-3.6 6.6zm-1-16.6c-.4-.9-.9-1.7-1.5-2.3s-1.4-1.2-2.3-1.5c-.9-.4-1.9-.6-2.9-.6s-2.1.2-3 .6-1.6.9-2.3 1.6c-.6.7-1.1 1.4-1.5 2.3s-.6 1.8-.6 2.8h14.9c-.2-1-.4-2-.8-2.9z"/><path d="m343.5 39.1v4.1h.1c1.8-3.1 4.6-4.7 8.4-4.7 1.7 0 3.1.2 4.3.7 1.1.5 2 1.1 2.8 2s1.2 1.8 1.5 3 .4 2.4.4 3.8v17h-4.3v-17.6c0-1.6-.5-2.9-1.4-3.8s-2.2-1.4-3.9-1.4c-1.3 0-2.4.2-3.4.6s-1.7 1-2.4 1.7c-.6.7-1.1 1.6-1.4 2.6s-.5 2.1-.5 3.2v14.7h-4.3v-25.9z"/><path d="m376.6 39.1v3.8h-5.2v16.1c0 .5 0 .9.1 1.2s.2.5.5.7c.2.2.6.3 1 .3s1 .1 1.6.1h2v3.7h-3.2c-1.1 0-2-.1-2.8-.2-.8-.2-1.4-.4-1.9-.8s-.8-1-1.1-1.7c-.2-.7-.4-1.7-.4-2.9v-16.6h-4.4v-3.8h4.4v-7.8h4.3v7.8h5.1z"/><path d="m391.1 42.8v-3.8h4.4v-3.8c0-2.1.6-3.7 1.8-4.8s3-1.6 5.3-1.6c.4 0 .9 0 1.4.1s1 .2 1.4.3v3.7c-.4-.1-.8-.2-1.2-.3-.4 0-.8-.1-1.2-.1-1 0-1.8.2-2.4.6s-.9 1.2-.9 2.3v3.6h5v3.8h-5v22.1h-4.3v-22.1z"/><path d="m405.9 46.7c.5-1.7 1.3-3.1 2.4-4.3s2.4-2.2 4-2.9 3.4-1 5.4-1 3.9.3 5.4 1 2.9 1.7 3.9 2.9 1.9 2.7 2.4 4.3c.5 1.7.8 3.4.8 5.3s-.3 3.7-.8 5.3-1.3 3.1-2.4 4.3-2.4 2.2-3.9 2.9-3.4 1-5.4 1-3.8-.3-5.4-1-2.9-1.6-4-2.8-1.9-2.7-2.4-4.3-.8-3.4-.8-5.3.3-3.7.8-5.4zm4.3 9.5c.4 1.2 1 2.2 1.7 3s1.6 1.4 2.6 1.9c1 .4 2 .7 3.1.7s2.1-.2 3.1-.7c1-.4 1.8-1.1 2.6-1.9.7-.8 1.3-1.8 1.7-3s.6-2.6.6-4.2-.2-3-.6-4.2-1-2.2-1.7-3.1c-.7-.8-1.6-1.5-2.6-1.9s-2-.7-3.1-.7-2.1.2-3.1.7-1.8 1.1-2.6 1.9c-.7.8-1.3 1.9-1.7 3.1s-.6 2.6-.6 4.2.2 3 .6 4.2z"/><path d="m437.8 39.1v5.5h.1c1-2.1 2.3-3.7 3.8-4.7s3.4-1.5 5.7-1.4v4.5c-1.7 0-3.1.2-4.4.7-1.2.5-2.2 1.2-2.9 2-.7.9-1.3 2-1.6 3.3s-.5 2.8-.5 4.4v11.6h-4.3v-25.9z"/><path d="m476.6 29.2h2.5c.9 0 1.8.1 2.6.1s1.7.2 2.4.4 1.4.4 1.9.8c1.2.7 2.2 1.7 3 2.9s1.2 2.8 1.2 4.6c0 1.9-.5 3.5-1.4 4.9s-2.2 2.4-3.9 3.1v.1c2.2.5 3.9 1.5 5.1 3s1.8 3.4 1.8 5.6c0 1.3-.2 2.6-.7 3.8s-1.2 2.3-2.1 3.3-2 1.7-3.4 2.3-2.9.9-4.7.9h-17.3v-35.8zm1.3 15.4c2.7 0 4.6-.5 5.8-1.4s1.8-2.4 1.8-4.3c0-1.3-.2-2.3-.6-3s-1-1.3-1.6-1.7c-.7-.4-1.5-.7-2.4-.8s-1.9-.2-2.9-.2h-9.5v11.4zm2.4 16.3c2.1 0 3.8-.6 4.9-1.7s1.8-2.7 1.8-4.7c0-1.2-.2-2.1-.6-2.9s-1-1.4-1.7-1.8-1.5-.8-2.5-1c-.9-.2-1.9-.3-2.9-.3h-10.9v12.4z"/><path d="m513.2 65v-4.1h-.1c-.9 1.6-2 2.8-3.5 3.5s-3 1.1-5 1.1c-1.7 0-3.1-.2-4.3-.7-1.1-.4-2-1.1-2.8-1.9-.7-.8-1.2-1.8-1.5-3s-.4-2.4-.4-3.8v-17h4.3v17.5c0 1.6.5 2.9 1.4 3.8s2.2 1.4 3.9 1.4c1.3 0 2.4-.2 3.4-.6s1.7-1 2.4-1.7c.6-.7 1.1-1.6 1.4-2.6s.5-2.1.5-3.2v-14.6h4.3v25.9z"/><path d="m525.5 59.2c.4.7.9 1.2 1.6 1.5s1.4.7 2.2.8c.8.2 1.7.2 2.5.2.7 0 1.4 0 2.1-.2.7-.1 1.4-.3 2-.5.6-.3 1.1-.7 1.5-1.2s.6-1.2.6-2c0-1.1-.4-1.9-1.2-2.5s-1.9-1-3.1-1.4-2.6-.7-4.1-1-2.8-.7-4.1-1.2-2.3-1.2-3.1-2.2c-.8-.9-1.2-2.2-1.2-3.9 0-1.3.3-2.4.9-3.3s1.3-1.7 2.2-2.3 2-1 3.1-1.3c1.2-.3 2.3-.4 3.4-.4 1.5 0 2.8.1 4.1.4 1.2.2 2.3.7 3.3 1.3s1.7 1.5 2.3 2.5.9 2.4 1 3.9h-4.3c-.1-.8-.3-1.5-.7-2.1s-.8-1-1.4-1.3-1.2-.6-1.9-.7c-.7-.2-1.4-.2-2.1-.2-.6 0-1.3 0-1.9.2s-1.2.3-1.8.5c-.5.2-1 .6-1.3 1s-.5 1-.5 1.6c0 .7.3 1.3.8 1.8s1.2.9 2 1.2 1.7.6 2.7.8 2 .4 3 .7c1.1.2 2.1.5 3.1.8s1.9.8 2.7 1.3 1.4 1.2 1.9 2.1c.5.8.7 1.9.7 3.1 0 1.6-.3 2.9-1 3.9s-1.5 1.9-2.5 2.5-2.2 1.1-3.5 1.3-2.6.4-3.9.4c-1.4 0-2.8-.2-4.1-.4-1.3-.3-2.5-.8-3.5-1.5s-1.8-1.6-2.4-2.7-.9-2.5-1-4.1h4.3c0 1.1.3 1.9.6 2.6z"/><path d="m546.2 34.4v-5.2h4.3v5.2zm4.3 4.7v25.9h-4.3v-25.9z"/><path d="m559.5 39.1v4.1h.1c1.8-3.1 4.6-4.7 8.4-4.7 1.7 0 3.1.2 4.3.7 1.1.5 2 1.1 2.8 2s1.2 1.8 1.5 3 .4 2.4.4 3.8v17h-4.3v-17.6c0-1.6-.5-2.9-1.4-3.8s-2.2-1.4-3.8-1.4c-1.3 0-2.4.2-3.4.6s-1.7 1-2.4 1.7c-.6.7-1.1 1.6-1.4 2.6s-.5 2.1-.5 3.2v14.7h-4.3v-25.9z"/><path d="m600.2 63.3c-1.9 1.5-4.4 2.2-7.3 2.2-2.1 0-3.9-.3-5.4-1s-2.8-1.6-3.8-2.8-1.8-2.6-2.3-4.3-.8-3.5-.9-5.5c0-2 .3-3.8.9-5.4s1.4-3 2.5-4.3c1.1-1.2 2.4-2.1 3.9-2.8s3.1-1 4.9-1c2.3 0 4.2.5 5.7 1.4 1.5 1 2.7 2.2 3.7 3.6.9 1.5 1.5 3.1 1.9 4.8.3 1.7.5 3.4.4 5h-19.4c0 1.1.1 2.2.4 3.2s.8 1.9 1.5 2.7 1.5 1.4 2.5 1.9 2.2.7 3.7.7c1.8 0 3.3-.4 4.4-1.2 1.2-.8 1.9-2.1 2.3-3.8h4.2c-.7 3-1.9 5.2-3.8 6.6zm-1.1-16.6c-.4-.9-.9-1.7-1.5-2.3-.7-.7-1.4-1.2-2.3-1.5s-1.9-.6-2.9-.6-2.1.2-3 .6-1.6.9-2.3 1.6c-.6.7-1.1 1.4-1.5 2.3s-.6 1.8-.7 2.8h14.9c-.1-1-.3-2-.7-2.9z"/><path d="m611 59.2c.4.7.9 1.2 1.6 1.5s1.4.7 2.2.8c.8.2 1.7.2 2.5.2.7 0 1.4 0 2.1-.2.7-.1 1.4-.3 2-.5.6-.3 1.1-.7 1.5-1.2s.6-1.2.6-2c0-1.1-.4-1.9-1.2-2.5s-1.9-1-3.1-1.4c-1.2-.3-2.6-.7-4.1-1s-2.8-.7-4.1-1.2-2.3-1.2-3.1-2.2c-.8-.9-1.2-2.2-1.2-3.9 0-1.3.3-2.4.9-3.3s1.3-1.7 2.2-2.3 2-1 3.1-1.3c1.2-.3 2.3-.4 3.4-.4 1.5 0 2.8.1 4.1.4 1.2.2 2.3.7 3.3 1.3s1.7 1.5 2.3 2.5.9 2.4 1 3.9h-4.3c-.1-.8-.3-1.5-.7-2.1s-.8-1-1.4-1.3-1.2-.6-1.9-.7c-.7-.2-1.4-.2-2.1-.2-.6 0-1.3 0-1.9.2-.7.1-1.2.3-1.8.5-.5.2-1 .6-1.3 1s-.5 1-.5 1.6c0 .7.3 1.3.8 1.8s1.2.9 2 1.2 1.7.6 2.7.8 2 .4 3 .7c1.1.2 2.1.5 3.1.8s1.9.8 2.7 1.3 1.4 1.2 1.9 2.1c.5.8.7 1.9.7 3.1 0 1.6-.3 2.9-1 3.9s-1.5 1.9-2.5 2.5-2.2 1.1-3.5 1.3-2.6.4-3.9.4c-1.4 0-2.8-.2-4.1-.4-1.3-.3-2.5-.8-3.5-1.5s-1.8-1.6-2.4-2.7-.9-2.5-1-4.1h4.3c-.1 1.1.2 1.9.6 2.6z"/><path d="m634.9 59.2c.4.7.9 1.2 1.6 1.5s1.4.7 2.2.8c.8.2 1.7.2 2.5.2.7 0 1.4 0 2.1-.2.7-.1 1.4-.3 2-.5.6-.3 1.1-.7 1.5-1.2s.6-1.2.6-2c0-1.1-.4-1.9-1.2-2.5s-1.9-1-3.1-1.4-2.6-.7-4.1-1-2.8-.7-4.1-1.2-2.3-1.2-3.1-2.2c-.8-.9-1.2-2.2-1.2-3.9 0-1.3.3-2.4.9-3.3s1.3-1.7 2.2-2.3 2-1 3.1-1.3c1.2-.3 2.3-.4 3.4-.4 1.5 0 2.8.1 4.1.4 1.2.2 2.3.7 3.3 1.3s1.7 1.5 2.3 2.5.9 2.4 1 3.9h-4.3c-.1-.8-.3-1.5-.7-2.1s-.8-1-1.4-1.3-1.2-.6-1.9-.7c-.7-.2-1.4-.2-2.1-.2-.6 0-1.3 0-1.9.2s-1.2.3-1.8.5c-.5.2-1 .6-1.3 1s-.5 1-.5 1.6c0 .7.3 1.3.8 1.8s1.2.9 2 1.2 1.7.6 2.7.8 2 .4 3 .7c1.1.2 2.1.5 3.1.8s1.9.8 2.7 1.3 1.4 1.2 1.9 2.1c.5.8.7 1.9.7 3.1 0 1.6-.3 2.9-1 3.9s-1.5 1.9-2.5 2.5-2.2 1.1-3.5 1.3-2.6.4-3.9.4c-1.4 0-2.8-.2-4.1-.4-1.3-.3-2.5-.8-3.5-1.5s-1.8-1.6-2.4-2.7-.9-2.5-1-4.1h4.3c0 1.1.2 1.9.6 2.6z"/><path d="m684.4 64.3c-1.8.8-3.8 1.2-5.7 1.2-2.4 0-4.3-.4-5.8-1.1s-2.6-1.6-3.4-2.7c-.8-1-1.3-2.1-1.6-3.2-.2-1.1-.4-2-.4-2.8 0-1.4.2-2.6.7-3.7s1-2 1.8-2.9c.8-.8 1.6-1.6 2.7-2.3s2.1-1.3 3.2-1.9c-.5-.7-1-1.4-1.5-2s-.9-1.3-1.3-1.9c-.4-.7-.7-1.3-.9-2s-.3-1.5-.3-2.4c0-1 .2-1.9.5-2.8s.9-1.7 1.5-2.4c.7-.7 1.5-1.2 2.5-1.6s2.2-.6 3.5-.6c1.1 0 2.2.1 3.2.5 1 .3 2 .8 2.8 1.4s1.4 1.4 1.9 2.3.7 2 .7 3.2c0 1.1-.2 2.1-.5 3s-.9 1.8-1.5 2.5-1.3 1.5-2.2 2.1c-.8.6-1.6 1.2-2.5 1.7l6.5 7.9c.7-1.9 1-3.7 1.2-5.6h4.1c-.1 1.1-.2 2-.3 2.7s-.3 1.4-.5 2.1c-.2.6-.4 1.3-.7 1.9s-.6 1.3-1 2.1l7 8.1h-5.6l-3.8-4.5c-1 1.6-2.5 2.8-4.3 3.7zm-8.6-15.2c-.8.5-1.4 1.1-2 1.7s-1 1.3-1.3 2.1-.5 1.7-.5 2.8c0 .9.2 1.7.6 2.5s.9 1.4 1.5 1.9 1.4.9 2.2 1.2 1.7.5 2.5.5c1.6 0 3.1-.4 4.4-1.2s2.4-1.8 3.2-3.1l-8.2-9.9c-.8.6-1.6 1.1-2.4 1.5zm5.4-7.2c.6-.4 1.1-.8 1.5-1.3s.8-1.1 1.2-1.7c.3-.6.5-1.3.5-2.1 0-1-.4-1.9-1.1-2.7s-1.7-1.1-3-1.1c-1 0-1.9.3-2.8.9s-1.3 1.6-1.3 2.9c0 .5.1 1.1.3 1.6s.5 1.1.8 1.6.7 1 1.1 1.5.8 1 1.2 1.5c.5-.3 1-.7 1.6-1.1z"/><path d="m709.8 33.2v-4h28.6v4h-11.9v31.8h-4.8v-31.8z"/><path d="m739.7 39.1v5.5h.1c1-2.1 2.3-3.7 3.8-4.7s3.4-1.5 5.7-1.4v4.5c-1.7 0-3.2.2-4.4.7s-2.2 1.2-2.9 2-1.3 2-1.6 3.3-.5 2.8-.5 4.4v11.6h-4.3v-25.9z"/><path d="m774.1 64.9c-.7.4-1.8.7-3 .7-1.1 0-2-.3-2.6-.9-.7-.6-1-1.6-1-3-1.2 1.4-2.5 2.4-4.1 3-1.5.6-3.2.9-5 .9-1.2 0-2.3-.1-3.3-.4s-2-.7-2.7-1.2c-.8-.6-1.4-1.3-1.8-2.2s-.7-2-.7-3.3c0-1.5.2-2.7.8-3.6s1.2-1.7 2-2.3 1.8-1 2.8-1.3 2.1-.5 3.2-.8c1.2-.2 2.3-.4 3.3-.5s2-.3 2.8-.5 1.4-.5 1.9-1c.5-.4.7-1 .7-1.8 0-.9-.2-1.7-.5-2.2-.3-.6-.8-1-1.3-1.3s-1.2-.5-1.8-.6-1.4-.2-2-.2c-1.8 0-3.3.3-4.5 1s-1.8 2-2 3.9h-4.3c.1-1.6.4-3 1-4s1.4-2 2.4-2.7 2.1-1.2 3.4-1.5 2.7-.5 4.1-.5c1.2 0 2.3.1 3.5.2 1.2.2 2.2.5 3.1 1s1.7 1.2 2.2 2.2.8 2.2.8 3.7v13.3c0 1 .1 1.7.2 2.2s.5.7 1.2.7c.4 0 .8-.1 1.3-.2zm-6.9-13.3c-.5.4-1.2.7-2.1.9s-1.8.3-2.7.5-1.9.2-2.9.4-1.8.4-2.6.7-1.4.8-1.9 1.4-.7 1.5-.7 2.5c0 .7.1 1.3.4 1.8s.7.9 1.1 1.2c.5.3 1 .5 1.6.7.6.1 1.2.2 1.9.2 1.4 0 2.6-.2 3.6-.6s1.8-.9 2.5-1.4c.6-.6 1.1-1.2 1.4-1.9s.5-1.3.5-1.9z"/><path d="m795.5 65v-3.5h-.1c-.7 1.4-1.8 2.5-3.3 3.1s-3.2.9-5 .9c-2 0-3.8-.4-5.2-1.1-1.5-.7-2.7-1.7-3.7-3-1-1.2-1.7-2.7-2.2-4.3s-.8-3.4-.8-5.2.2-3.6.7-5.2 1.2-3.1 2.2-4.3 2.2-2.2 3.7-2.9 3.2-1.1 5.2-1.1c.7 0 1.4.1 2.2.2s1.5.4 2.3.7 1.5.7 2.2 1.2 1.3 1.2 1.7 1.9h.1v-13.2h4.3v35.8c-.1 0-4.3 0-4.3 0zm-15.3-9.2c.3 1.2.8 2.2 1.5 3.1s1.5 1.6 2.5 2.2c1 .5 2.2.8 3.6.8s2.7-.3 3.7-.8 1.8-1.3 2.5-2.2 1.1-2 1.4-3.1c.3-1.2.4-2.3.4-3.5 0-1.3-.2-2.5-.5-3.7s-.8-2.2-1.4-3.1c-.7-.9-1.5-1.6-2.5-2.2-1-.5-2.3-.8-3.8-.8s-2.7.3-3.7.8-1.8 1.3-2.4 2.2-1 2-1.3 3.2-.4 2.4-.4 3.7c-.1 1 0 2.2.4 3.4z"/><path d="m823.1 63.3c-1.9 1.5-4.4 2.2-7.3 2.2-2.1 0-3.9-.3-5.4-1s-2.8-1.6-3.8-2.8-1.8-2.6-2.3-4.3-.8-3.5-.9-5.5c0-2 .3-3.8.9-5.4s1.4-3 2.5-4.3c1.1-1.2 2.4-2.1 3.8-2.8 1.5-.7 3.1-1 4.9-1 2.3 0 4.2.5 5.7 1.4 1.5 1 2.7 2.2 3.7 3.6s1.5 3.1 1.9 4.8.5 3.4.4 5h-19.4c0 1.1.1 2.2.4 3.2s.8 1.9 1.5 2.7 1.5 1.4 2.5 1.9 2.2.7 3.7.7c1.8 0 3.3-.4 4.4-1.2 1.2-.8 1.9-2.1 2.3-3.8h4.2c-.5 3-1.8 5.2-3.7 6.6zm-1-16.6c-.4-.9-.9-1.7-1.5-2.3s-1.4-1.2-2.3-1.5-1.9-.6-2.9-.6-2.1.2-3 .6-1.6.9-2.3 1.6-1.1 1.4-1.5 2.3-.6 1.8-.7 2.8h14.9c-.1-1-.3-2-.7-2.9z"/></g></svg>
