<?xml version="1.0" encoding="UTF-8"?>
<svg width="118px" height="85px" viewBox="0 0 118 85" version="1.1" xmlns="http://www.w3.org/2000/svg" xmlns:xlink="http://www.w3.org/1999/xlink">
    <title>Group 65</title>
    <defs>
        <polygon id="path-1" points="0 0 5.31605479 0 5.31605479 9.18882798 0 9.18882798"></polygon>
    </defs>
    <g id="Page-1" stroke="none" stroke-width="1" fill="none" fill-rule="evenodd">
        <g id="Learn-landing-Signed-in" transform="translate(-1154.000000, -200.000000)">
            <g id="Group-64" transform="translate(1154.000000, 200.000000)">
                <path d="M0,81.1722704 L0,33.8476135 L92.6835932,18.0897224 L93.7358269,34.1505452 C93.7358269,37.2184707 96.2195534,39.7047872 99.2823051,39.7047872 L118,39.0024016 L118,81.1722704 C118,83.2868522 116.288637,85 114.178236,85 L3.82374214,85 C1.71136319,85 0,83.2868522 0,81.1722704" id="Fill-1" fill="#054454"></path>
                <path d="M102.344068,35.390387 C106.383894,31.9492418 108.371666,29.0614913 112.436215,25.7203333 L112.409514,33.1644333 C112.406547,33.9569065 113.118091,34.5597999 113.89886,34.4271435 L117.971321,33.7346576 L117.971321,17.4966297 C117.971321,15.9750416 116.7391,14.7415356 115.219097,14.7415356 L98.7102024,17.197163 L98.9554599,21.1080503 C99.0128185,22.0287249 99.8375957,22.7068563 100.750389,22.5870696 L108.299473,21.5881871 L98.3551725,31.0419318 C97.8953147,31.397332 97.6515406,31.9685462 97.7267002,32.5452054 C97.8186717,33.2609556 97.7074158,33.5148837 98.3601172,34.3880396 C99.7619417,35.791821 100.140212,35.6705493 101.151404,35.7636067 C101.583077,35.8032056 102.013761,35.6720343 102.344068,35.390387" id="Fill-3" fill="#1985A1"></path>
                <path d="M10.7916753,45.8148495 L13.7154807,45.8148495 L13.7154807,54.5384893 C13.7154807,56.110566 14.5714095,57.0455952 15.863956,57.0455952 C17.1367237,57.0455952 18.0119369,56.110566 18.0119369,54.5384893 L18.0119369,45.8148495 L20.9377202,45.8148495 L20.9377202,54.7760827 C20.9377202,57.6044348 18.6290363,59.5353767 15.863956,59.5353767 C13.0790969,59.5353767 10.7916753,57.6044348 10.7916753,54.7760827 L10.7916753,45.8148495 Z" id="Fill-5" fill="#FFFFFF"></path>
                <polygon id="Fill-7" fill="#FFFFFF" points="23.6227951 45.8148495 26.5466005 45.8148495 26.5466005 50.7944124 30.0286634 45.8148495 33.4499063 45.8148495 29.1336714 51.6903377 34.0665113 59.2764988 30.6047218 59.2764988 27.3629717 54.0994364 26.5466005 55.2146406 26.5466005 59.2764988 23.6227951 59.2764988"></polygon>
                <polygon id="Fill-9" fill="#FFFFFF" points="40.1339639 45.8148495 48.1705966 45.8148495 48.1705966 48.3046309 43.0577693 48.3046309 43.0577693 51.2918737 47.3557088 51.2918737 47.2345635 53.6816679 43.0577693 53.6816679 43.0577693 56.7886973 48.3491005 56.7886973 48.3491005 59.2764988 40.1339639 59.2764988"></polygon>
                <polygon id="Fill-11" fill="#FFFFFF" points="52.7062777 53.9402982 49.8022511 48.8612431 52.9253282 48.8612431 54.3573154 51.4510118 55.8491336 48.8612431 58.892601 48.8612431 55.9885744 53.8601104 59.1512091 59.2767463 55.9495112 59.2767463 54.3375366 56.3498919 52.6672145 59.2767463 49.5436429 59.2767463"></polygon>
                <path d="M64.6428505,57.1265255 C65.4968014,57.1265255 66.1742263,56.5696658 66.1742263,55.0545126 L66.1742263,53.0646673 C66.1742263,51.6905852 65.5180637,51.0124539 64.6626293,51.0124539 C63.7874161,51.0124539 63.130759,51.6905852 63.130759,53.0646673 L63.130759,56.7676604 C63.6281966,56.9661499 64.1256341,57.1265255 64.6428505,57.1265255 L64.6428505,57.1265255 Z M63.130759,63.4781906 L60.2855744,63.4781906 L60.2855744,52.9646801 C60.2855744,50.2165158 62.294609,48.6028602 64.6626293,48.6028602 C67.0103763,48.6028602 69.0194109,50.2165158 69.0194109,52.9646801 L69.0194109,55.1544998 C69.0194109,58.1026386 67.0103763,59.5356242 64.9014587,59.5356242 C64.245296,59.5356242 63.5480923,59.2965458 63.130759,59.0574673 L63.130759,63.4781906 Z" id="Fill-13" fill="#FFFFFF"></path>
                <path d="M75.3650032,57.1265255 C76.5576666,57.1265255 76.9764833,56.2499046 76.9764833,54.8763175 L76.9764833,53.2626619 C76.9764833,51.8885797 76.5576666,51.0124539 75.3650032,51.0124539 C74.1510776,51.0124539 73.7535231,51.8885797 73.7535231,53.2626619 L73.7535231,54.8763175 C73.7535231,56.2499046 74.1723398,57.1265255 75.3650032,57.1265255 L75.3650032,57.1265255 Z M70.9296008,53.1646546 C70.9296008,50.316503 72.7996891,48.6028602 75.3650032,48.6028602 C77.9303173,48.6028602 79.8009001,50.316503 79.8009001,53.1646546 L79.8009001,54.9758097 C79.8009001,57.8224763 77.9303173,59.5356242 75.3650032,59.5356242 C72.7996891,59.5356242 70.9296008,57.8224763 70.9296008,54.9758097 L70.9296008,53.1646546 Z" id="Fill-15" fill="#FFFFFF"></path>
                <path d="M81.9495732,52.6255154 C81.9495732,50.2164168 83.8003771,48.6032562 86.167903,48.6032562 C86.8235712,48.6032562 87.5405537,48.7225479 88.1358965,48.9225224 L87.5993957,51.2321288 C87.1622836,51.1123421 86.6653405,51.0123549 86.1871873,51.0123549 C85.2907119,51.0123549 84.7754734,51.6904862 84.7754734,52.6255154 L84.7754734,59.2771423 L81.9495732,59.2771423 L81.9495732,52.6255154 Z" id="Fill-17" fill="#FFFFFF"></path>
                <polygon id="Fill-19" fill="#FFFFFF" points="90.3645255 50.754071 89.0912634 50.754071 88.6744245 48.8622331 90.3645255 48.8622331 90.3645255 46.0531854 93.2097101 45.6750158 93.2097101 48.8622331 94.8800322 48.8622331 94.8800322 50.754071 93.2097101 50.754071 93.2097101 59.2777363 90.3645255 59.2777363"></polygon>
                <path d="M17.5976198,72.1129308 L16.530552,68.6257519 C16.3802329,68.1574948 16.2135963,67.4744136 16.0479486,66.840831 C15.913947,67.4744136 15.7309928,68.1411602 15.5816627,68.6257519 L14.4967939,72.1129308 L17.5976198,72.1129308 Z M15.1465284,65.2044061 L16.9642028,65.2044061 L20.5476322,76.4846505 L18.9312074,76.4846505 L17.9986356,73.4479091 L14.097756,73.4479091 L13.1637008,76.4846505 L11.5630991,76.4846505 L15.1465284,65.2044061 Z" id="Fill-21" fill="#FFFFFF"></path>
                <path d="M22.0324289,71.4289587 C22.0324289,68.8248354 23.5148521,67.674982 25.6158583,67.674982 C26.4500304,67.674982 27.2486006,67.8239729 28.0501377,68.074931 L27.7653225,69.3767452 C27.0671298,69.1931052 26.3827824,69.0262948 25.6826118,69.0262948 C24.2822707,69.0262948 23.5657826,69.7598646 23.5657826,71.5111264 L23.5657826,72.8639242 C23.5657826,74.5983564 24.2822707,75.3502407 25.6826118,75.3502407 C26.3649814,75.3502407 27.0671298,75.2175844 27.7653225,75.0161249 L28.0501377,76.3016045 C27.2154711,76.5505827 26.431735,76.7015535 25.6158583,76.7015535 C23.5148521,76.7015535 22.0324289,75.5333857 22.0324289,72.9312423 L22.0324289,71.4289587 Z" id="Fill-23" fill="#FFFFFF"></path>
                <path d="M32.85041,75.3492012 C33.8175948,75.3492012 34.4668348,74.6824546 34.4668348,73.9147307 L34.4668348,72.5139193 L32.783162,72.5139193 C31.6839536,72.5139193 31.2334908,73.1316623 31.2334908,73.8979012 C31.2334908,74.6483005 31.8327893,75.3492012 32.85041,75.3492012 M32.783162,71.3120924 L34.4668348,71.3120924 L34.4668348,70.8453203 C34.4668348,69.6756675 33.9006659,69.0257504 32.8157971,69.0257504 C32.0666739,69.0257504 31.2666203,69.1925608 30.5501322,69.4103548 L30.21587,68.1412097 C31.0505366,67.8739171 31.9326724,67.6744376 32.8157971,67.6744376 C34.733849,67.6744376 35.9853544,68.8747795 35.9853544,70.8453203 L35.9853544,73.9147307 C35.9853544,75.4833425 34.5667179,76.701999 32.85041,76.701999 C31.0342191,76.701999 29.666513,75.4833425 29.666513,73.9147307 C29.666513,72.2293021 30.934336,71.3120924 32.783162,71.3120924" id="Fill-25" fill="#FFFFFF"></path>
                <path d="M41.3682122,75.3492012 C42.4189625,75.3492012 43.2190162,74.6156314 43.2190162,73.0301901 L43.2190162,69.6103293 C42.6182342,69.2598789 42.0174523,69.0257504 41.3845298,69.0257504 C40.3505915,69.0257504 39.5015852,69.6266638 39.5015852,71.3610961 L39.5015852,73.0301901 C39.5015852,74.6156314 40.3174619,75.3492012 41.3682122,75.3492012 L41.3682122,75.3492012 Z M37.9682315,71.2774434 C37.9682315,68.8094413 39.5179028,67.6744376 41.2520116,67.6744376 C42.0174523,67.6744376 42.7690478,67.9902389 43.2190162,68.275351 L43.2190162,64.2709113 L44.7355579,64.2709113 L44.7355579,73.1133478 C44.7355579,75.4328539 43.1844032,76.701999 41.3682122,76.701999 C39.5520213,76.701999 37.9682315,75.4328539 37.9682315,73.1133478 L37.9682315,71.2774434 Z" id="Fill-27" fill="#FFFFFF"></path>
                <path d="M51.8027808,71.4289587 L51.8027808,70.8607143 C51.8027808,69.7766942 51.0862927,69.0262948 50.0197193,69.0262948 C48.9852866,69.0262948 48.2524809,69.7257106 48.2524809,71.0606888 L48.2524809,71.4289587 L51.8027808,71.4289587 Z M46.7191272,71.1784956 C46.7191272,68.8921535 48.2015505,67.674982 50.0197193,67.674982 C51.8537113,67.674982 53.3361345,68.9753112 53.3361345,70.8607143 L53.3361345,72.6297956 L48.2524809,72.6297956 L48.2524809,73.1307218 C48.2524809,74.6656746 49.0030875,75.3502407 50.253604,75.3502407 C51.0536576,75.3502407 51.8027808,75.1829353 52.5701993,74.9488068 L52.8698486,76.2674505 C51.9862294,76.5505827 51.2024933,76.7015535 50.253604,76.7015535 C48.1872108,76.7015535 46.7191272,75.4665625 46.7191272,73.1307218 L46.7191272,71.1784956 Z" id="Fill-29" fill="#FFFFFF"></path>
                <path d="M55.4538537,71.0777659 C55.4538537,68.8092433 56.8868299,67.6747346 58.5868203,67.6747346 C59.6880066,67.6747346 60.5211897,68.2919826 60.9711581,69.3091796 C61.437444,68.2919826 62.2716161,67.6747346 63.3550015,67.6747346 C65.1054279,67.6747346 66.5042856,68.8092433 66.5042856,71.0777659 L66.5042856,76.484502 L64.9714263,76.484502 L64.9714263,71.2450712 C64.9714263,69.7591222 64.3380093,69.0255524 63.3550015,69.0255524 C62.3714992,69.0255524 61.7380822,69.8774239 61.7380822,71.5282034 L61.7380822,76.484502 L60.2215405,76.484502 L60.2215405,71.5282034 C60.2215405,69.8774239 59.5866401,69.0255524 58.5868203,69.0255524 C57.6038125,69.0255524 56.986713,69.7591222 56.986713,71.2450712 L56.986713,76.484502 L55.4538537,76.484502 L55.4538537,71.0777659 Z" id="Fill-31" fill="#FFFFFF"></path>
                <path d="M68.2227197,67.8907961 L69.7560734,67.8907961 L70.5229975,73.3302013 C70.6738111,74.432536 71.0891665,75.1156172 72.0726688,75.1156172 L72.9231584,75.1156172 L73.8235896,67.8907961 L75.3564489,67.8907961 L73.7889767,80.0045975 L72.2739183,80.0045975 L72.7402042,76.4847495 L72.0400337,76.4847495 C70.1565947,76.4847495 69.2551746,75.2987621 69.0064558,73.4806772 L68.2227197,67.8907961 Z" id="Fill-33" fill="#FFFFFF"></path>
                <path d="M3.3707575,7.51597205 C4.1579549,7.51597205 4.63017445,7.09176873 4.63017445,6.53441407 C4.63017445,5.96418977 4.25487117,5.55186613 3.4671793,5.55186613 L2.42582394,5.55186613 L2.42582394,7.51597205 L3.3707575,7.51597205 Z M3.18928675,4.10947584 C3.92753154,4.10947584 4.32755836,3.73378119 4.32755836,3.22444021 C4.32755836,2.7274739 4.02494228,2.35177924 3.27384124,2.35177924 L2.42582394,2.35177924 L2.42582394,4.10947584 L3.18928675,4.10947584 Z M0.645729323,9.03162031 L0.645729323,0.836130977 L3.3218049,0.836130977 C5.05393586,0.836130977 6.13188205,1.7939296 6.13188205,3.13979754 C6.13188205,3.90356151 5.744217,4.42478216 5.10239399,4.72771382 C5.92568775,5.03064548 6.4349926,5.62462912 6.4349926,6.53441407 C6.4349926,7.91641602 5.18744296,9.03162031 3.3826248,9.03162031 L0.645729323,9.03162031 Z" id="Fill-35" fill="#054454"></path>
                <path d="M7.5853293,4.98233481 C7.5853293,3.51569019 8.71173362,2.53363724 10.1531158,2.53363724 C10.5526481,2.53363724 10.9882769,2.60640023 11.3517128,2.72767189 L11.0248677,4.13392817 C10.758348,4.06116517 10.4557319,4.00028185 10.1649831,4.00028185 C9.62007635,4.00028185 9.30559297,4.4126055 9.30559297,4.98233481 L9.30559297,9.03132332 L7.5853293,9.03132332 L7.5853293,4.98233481 Z" id="Fill-37" fill="#054454"></path>
                <path d="M14.6457779,7.72218337 C15.3726499,7.72218337 15.6268079,7.18858806 15.6268079,6.35206109 L15.6268079,5.37050312 C15.6268079,4.53397616 15.3726499,4.00038085 14.6457779,4.00038085 C13.9070387,4.00038085 13.6652425,4.53397616 13.6652425,5.37050312 L13.6652425,6.35206109 C13.6652425,7.18858806 13.9194004,7.72218337 14.6457779,7.72218337 L14.6457779,7.72218337 Z M11.9449788,5.3096198 C11.9449788,3.57617753 13.0832504,2.53373623 14.6457779,2.53373623 C16.2083054,2.53373623 17.3460826,3.57617753 17.3460826,5.3096198 L17.3460826,6.41294442 C17.3460826,8.14638669 16.2083054,9.18882798 14.6457779,9.18882798 C13.0832504,9.18882798 11.9449788,8.14638669 11.9449788,6.41294442 L11.9449788,5.3096198 Z" id="Fill-39" fill="#054454"></path>
                <path d="M18.6546499,2.6910924 L20.3749136,2.6910924 L20.3749136,6.46140358 C20.3749136,7.29793055 20.713626,7.72213387 21.2466655,7.72213387 C21.7915722,7.72213387 22.1184174,7.29793055 22.1184174,6.46140358 L22.1184174,2.6910924 L23.8500538,2.6910924 L23.8500538,6.52228691 C23.8500538,8.26760885 22.6633241,9.18877848 21.2466655,9.18877848 C19.8171506,9.18877848 18.6546499,8.26760885 18.6546499,6.52228691 L18.6546499,2.6910924 Z" id="Fill-41" fill="#054454"></path>
                <path d="M28.2222629,5.4185663 L28.2222629,4.83695731 C28.2222629,4.36424533 28.0407922,4.00043035 27.5077527,4.00043035 C26.9865806,4.00043035 26.8056043,4.36424533 26.8056043,4.83695731 L26.8056043,5.4185663 C26.8056043,5.89177327 26.9865806,6.27984258 27.5201145,6.27984258 C28.0526595,6.27984258 28.2222629,5.89177327 28.2222629,5.4185663 M27.3623783,10.3288311 C28.0768885,10.3288311 28.5130117,10.1714254 28.5130117,9.84324946 C28.5130117,9.24976081 25.6183801,9.77098145 25.6183801,8.08604785 C25.6183801,7.75886186 25.7879835,7.45543521 26.0060451,7.24952088 C25.4487766,6.8495719 25.1100642,6.20707959 25.1100642,5.4185663 L25.1100642,4.83695731 C25.1100642,3.46683504 26.1271904,2.53329075 27.5077527,2.53329075 C27.8345979,2.53329075 28.1377084,2.5822944 28.4160954,2.67881674 L30.3776608,2.53329075 L30.2688773,3.63661536 L29.6146925,3.6608697 C29.808525,4.00043035 29.917803,4.40037933 29.917803,4.83695731 L29.917803,5.4185663 C29.917803,6.7768089 28.9125441,7.70985821 27.5201145,7.70985821 C27.350511,7.70985821 27.1809076,7.69797853 27.0236659,7.6737242 C27.0108096,7.70985821 26.9989423,7.7464872 26.9989423,7.79499586 C26.9989423,8.24345351 30.2688773,7.91626752 30.2688773,9.73435246 C30.2688773,11.0317117 29.1548347,11.746967 27.3984747,11.746967 C26.5267228,11.746967 25.6787055,11.5410527 24.8311827,11.1287291 L25.2430768,9.81949012 C25.9333579,10.1224218 26.6478681,10.3288311 27.3623783,10.3288311" id="Fill-43" fill="#054454"></path>
                <path d="M31.419659,0.157405666 L33.1517899,0.157405666 L33.1517899,2.82439223 C33.4183097,2.67886624 33.8297093,2.53334024 34.2292417,2.53334024 C35.5128877,2.53334024 36.6269302,3.27284988 36.6269302,5.06717547 L36.6269302,9.03152131 L34.8952937,9.03152131 L34.8952937,5.1641928 C34.8952937,4.27915717 34.5926776,4.00047985 34.072,4.00047985 C33.7570221,4.00047985 33.4539116,4.09700219 33.1517899,4.21876883 L33.1517899,9.03152131 L31.419659,9.03152131 L31.419659,0.157405666 Z" id="Fill-45" fill="#054454"></path>
                <polygon id="Fill-47" fill="#054454" points="38.5167973 3.84277719 37.7419617 3.84277719 37.4873093 2.6909439 38.5167973 2.6909439 38.5167973 0.981755967 40.2484338 0.751092318 40.2484338 2.6909439 41.2660546 2.6909439 41.2660546 3.84277719 40.2484338 3.84277719 40.2484338 9.03122432 38.5167973 9.03122432"></polygon>
                <polygon id="Fill-49" fill="#054454" points="45.2986117 3.84277719 44.5237761 3.84277719 44.2691237 2.6909439 45.2986117 2.6909439 45.2986117 0.981755967 47.0302482 0.751092318 47.0302482 2.6909439 48.0473745 2.6909439 48.0473745 3.84277719 47.0302482 3.84277719 47.0302482 9.03122432 45.2986117 9.03122432"></polygon>
                <path d="M51.5357666,7.72218337 C52.2626385,7.72218337 52.5167965,7.18858806 52.5167965,6.35206109 L52.5167965,5.37050312 C52.5167965,4.53397616 52.2626385,4.00038085 51.5357666,4.00038085 C50.7970273,4.00038085 50.5552311,4.53397616 50.5552311,5.37050312 L50.5552311,6.35206109 C50.5552311,7.18858806 50.8093891,7.72218337 51.5357666,7.72218337 L51.5357666,7.72218337 Z M48.8349675,5.3096198 C48.8349675,3.57617753 49.9732391,2.53373623 51.5357666,2.53373623 C53.0982941,2.53373623 54.2360712,3.57617753 54.2360712,5.3096198 L54.2360712,6.41294442 C54.2360712,8.14638669 53.0982941,9.18882798 51.5357666,9.18882798 C49.9732391,9.18882798 48.8349675,8.14638669 48.8349675,6.41294442 L48.8349675,5.3096198 Z" id="Fill-51" fill="#054454"></path>
                <path d="M57.7241172,2.6910924 L59.4438864,2.6910924 L60.0130222,6.63118391 C60.1099384,7.26130156 60.3161327,7.5647282 60.7275324,7.5647282 L61.0182812,7.5647282 L61.6235133,2.6910924 L63.3556443,2.6910924 L62.1565528,11.5894624 L60.4610127,11.5894624 L60.8125813,9.03137282 L60.667207,9.03137282 C59.1773667,9.03137282 58.4989528,8.06169452 58.3056148,6.75245557 L57.7241172,2.6910924 Z" id="Fill-53" fill="#054454"></path>
                <path d="M66.940656,7.72218337 C67.6675279,7.72218337 67.9216859,7.18858806 67.9216859,6.35206109 L67.9216859,5.37050312 C67.9216859,4.53397616 67.6675279,4.00038085 66.940656,4.00038085 C66.2019167,4.00038085 65.9601205,4.53397616 65.9601205,5.37050312 L65.9601205,6.35206109 C65.9601205,7.18858806 66.2142785,7.72218337 66.940656,7.72218337 L66.940656,7.72218337 Z M64.2398569,5.3096198 C64.2398569,3.57617753 65.3786229,2.53373623 66.940656,2.53373623 C68.5031835,2.53373623 69.6414551,3.57617753 69.6414551,5.3096198 L69.6414551,6.41294442 C69.6414551,8.14638669 68.5031835,9.18882798 66.940656,9.18882798 C65.3786229,9.18882798 64.2398569,8.14638669 64.2398569,6.41294442 L64.2398569,5.3096198 Z" id="Fill-55" fill="#054454"></path>
                <path d="M70.9492807,2.6910924 L72.6695444,2.6910924 L72.6695444,6.46140358 C72.6695444,7.29793055 73.0082568,7.72213387 73.5412963,7.72213387 C74.086203,7.72213387 74.4130482,7.29793055 74.4130482,6.46140358 L74.4130482,2.6910924 L76.1446846,2.6910924 L76.1446846,6.52228691 C76.1446846,8.26760885 74.9579549,9.18877848 73.5412963,9.18877848 C72.1117814,9.18877848 70.9492807,8.26760885 70.9492807,6.52228691 L70.9492807,2.6910924 Z" id="Fill-57" fill="#054454"></path>
                <g id="Group-61" transform="translate(80.117609, 0.000000)">
                    <mask id="mask-2" fill="white">
                        <use xlink:href="#path-1"></use>
                    </mask>
                    <g id="Clip-60"></g>
                    <path d="M2.66420828,7.72218337 C3.18488596,7.72218337 3.58441831,7.30985972 3.58441831,6.47382774 L3.58441831,5.26111113 C3.58441831,4.3399415 3.17252419,4.00038085 2.65234098,4.00038085 C2.33736313,4.00038085 2.03474704,4.09739818 1.73163649,4.21866984 L1.73163649,6.47382774 C1.73163649,7.30985972 2.13116884,7.72218337 2.66420828,7.72218337 L2.66420828,7.72218337 Z M0,0.230069665 L1.73163649,-9.89972741e-05 L1.73163649,2.82429323 C1.98579444,2.67926223 2.41005033,2.53373623 2.80958268,2.53373623 C4.09322868,2.53373623 5.31605479,3.4063972 5.31605479,5.2007228 L5.31605479,6.53421608 C5.31605479,8.20677502 4.09322868,9.18882798 2.66420828,9.18882798 C1.22282611,9.18882798 0,8.20677502 0,6.53421608 L0,0.230069665 Z" id="Fill-59" fill="#054454" mask="url(#mask-2)"></path>
                </g>
                <path d="M86.2576,2.6910924 L87.9773692,2.6910924 L88.546505,6.63118391 C88.6434212,7.26130156 88.8496155,7.5647282 89.2610152,7.5647282 L89.551764,7.5647282 L90.1569961,2.6910924 L91.8891271,2.6910924 L90.6900356,11.5894624 L88.9944955,11.5894624 L89.3455697,9.03137282 L89.2001953,9.03137282 C87.7108494,9.03137282 87.0324356,8.06169452 86.8390975,6.75245557 L86.2576,2.6910924 Z" id="Fill-62" fill="#054454"></path>
            </g>
        </g>
    </g>
</svg>
