<?xml version="1.0" encoding="UTF-8"?>
<svg width="67px" height="51px" viewBox="0 0 67 51" version="1.1" xmlns="http://www.w3.org/2000/svg" xmlns:xlink="http://www.w3.org/1999/xlink">
    <title>D55C7EF9-56BD-4A0C-BC25-5DFD29B1E35B</title>
    <defs>
        <polygon id="path-1" points="0 0.011134268 67 0.011134268 67 37.8196868 0 37.8196868"></polygon>
        <polygon id="path-3" points="0 0.203784262 11.2057772 0.203784262 11.2057772 11.2811861 0 11.2811861"></polygon>
    </defs>
    <g id="Page-1" stroke="none" stroke-width="1" fill="none" fill-rule="evenodd">
        <g id="Dashboard-–-learning-started" transform="translate(-578.000000, -304.000000)">
            <g id="Group-65" transform="translate(578.000000, 304.000000)">
                <g id="Group-9" transform="translate(0.000000, 8.828931)">
                    <g id="Group-3">
                        <mask id="mask-2" fill="white">
                            <use xlink:href="#path-1"></use>
                        </mask>
                        <g id="Clip-2"></g>
                        <path d="M67.0184931,-0.0647960086 L67.0184931,28.8946204 L14.3744687,37.8196868 L14.3744687,29.124095 C14.3744687,27.3817178 12.9661069,25.9758128 11.221111,25.9758128 L-2.72357724e-05,25.9758128 L-2.72357724e-05,-0.0647960086 L67.0184931,-0.0647960086 Z" id="Fill-1" fill="#4B426D" mask="url(#mask-2)"></path>
                    </g>
                    <g id="Group-6" transform="translate(0.000000, 29.057724)">
                        <mask id="mask-4" fill="white">
                            <use xlink:href="#path-3"></use>
                        </mask>
                        <g id="Clip-5"></g>
                        <path d="M11.2057772,1.76258179 L11.2057772,1.76258179 L11.2057772,9.37326134 L8.03689512,9.90824934 L8.05214715,5.82767589 L3.13826911,10.7487508 L-0.000108943089,11.2837388 L-0.000108943089,9.18995327 L5.71014309,3.4894796 L-0.000108943089,3.4894796 L-0.000108943089,0.203784262 L9.64407805,0.203784262 C10.5014602,0.203784262 11.2057772,0.906872553 11.2057772,1.76258179" id="Fill-4" fill="#4B426D" mask="url(#mask-4)"></path>
                    </g>
                    <path d="M5.25086626,5.2840792 L5.25086626,5.2840792 L7.14892724,5.2840792 L7.14892724,10.9527795 C7.14892724,11.9771321 7.7154313,12.5884306 8.55728902,12.5884306 C9.38389472,12.5884306 9.95039878,11.9771321 9.95039878,10.9527795 L9.95039878,5.2840792 L11.8639841,5.2840792 L11.8639841,11.105672 C11.8639841,12.9550467 10.3635654,14.2077877 8.55728902,14.2077877 C6.73576057,14.2077877 5.25086626,12.9550467 5.25086626,11.105672 L5.25086626,5.2840792 Z" id="Fill-7" fill="#FAFAFA"></path>
                </g>
                <polygon id="Fill-10" fill="#FAFAFA" points="13.6242593 14.1130106 13.6242593 14.1130106 15.5225927 14.1130106 15.5225927 17.3517248 17.8035886 14.1130106 20.0230317 14.1130106 17.2065805 17.9320645 20.4367431 22.8697051 18.1707268 22.8697051 16.0585927 19.506613 15.5225927 20.2257238 15.5225927 22.8697051 13.6242593 22.8697051"></polygon>
                <polygon id="Fill-11" fill="#FAFAFA" points="24.3857122 14.1130106 24.3857122 14.1130106 29.6367691 14.1130106 29.6367691 15.7323677 26.3001146 15.7323677 26.3001146 17.6735323 29.1002244 17.6735323 29.0245089 19.2317867 26.3001146 19.2317867 26.3001146 21.2481754 29.7429886 21.2481754 29.7429886 22.8697051 24.3857122 22.8697051"></polygon>
                <polygon id="Fill-12" fill="#FAFAFA" points="32.5919593 19.400756 32.5919593 19.400756 30.6938984 16.0990381 32.7286829 16.0990381 33.6634146 17.7794979 34.642813 16.0990381 36.6326585 16.0990381 34.7348699 19.3396533 36.8001585 22.8694878 34.7040935 22.8694878 33.6470732 20.9590104 32.5611829 22.8694878 30.5244919 22.8694878"></polygon>
                <g id="Group-19" transform="translate(37.313008, 15.889687)" fill="#FAFAFA">
                    <path d="M3.0708061,5.57446634 L3.0708061,5.57446634 C3.62178577,5.57446634 4.06463943,5.22224327 4.06463943,4.22803461 L4.06463943,2.93048503 C4.06463943,2.04245926 3.63622073,1.60061892 3.0708061,1.60061892 C2.50348496,1.60061892 2.0747939,2.04245926 2.0747939,2.93048503 L2.0747939,5.34417709 C2.39726545,5.48077555 2.73417195,5.57446634 3.0708061,5.57446634 L3.0708061,5.57446634 Z M2.0747939,9.71559934 L2.0747939,9.71559934 L0.223850813,9.71559934 L0.223850813,2.86748137 C0.223850813,1.08111027 1.54015569,0.0401919919 3.0708061,0.0401919919 C4.61561911,0.0401919919 5.91776138,1.08111027 5.91776138,2.86748137 L5.91776138,4.2891373 C5.91776138,6.21618037 4.61561911,7.14711381 3.23803374,7.14711381 C2.80961504,7.14711381 2.35041992,6.9942213 2.0747939,6.84160035 L2.0747939,9.71559934 Z" id="Fill-13"></path>
                    <path d="M10.0667228,5.57446634 L10.0667228,5.57446634 C10.832048,5.57446634 11.1074016,5.00824807 11.1074016,4.12212328 L11.1074016,3.06708349 C11.1074016,2.16466465 10.832048,1.60061892 10.0667228,1.60061892 C9.2708935,1.60061892 9.00970244,2.16466465 9.00970244,3.06708349 L9.00970244,4.12212328 C9.00970244,5.00824807 9.2850561,5.57446634 10.0667228,5.57446634 L10.0667228,5.57446634 Z M7.17292195,3.0059808 L7.17292195,3.0059808 C7.17292195,1.14221296 8.38300732,0.0401919919 10.0667228,0.0401919919 C11.7340967,0.0401919919 12.9586171,1.14221296 12.9586171,3.0059808 L12.9586171,4.18322597 C12.9586171,6.03260073 11.7340967,7.14711381 10.0667228,7.14711381 C8.38300732,7.14711381 7.17292195,6.03260073 7.17292195,4.18322597 L7.17292195,3.0059808 Z" id="Fill-15"></path>
                    <path d="M14.3523805,2.65351333 L14.3523805,2.65351333 C14.3523805,1.08113743 15.5627382,0.0402191487 17.1075512,0.0402191487 C17.5359699,0.0402191487 17.995165,0.11761589 18.3930797,0.239821271 L18.0422829,1.73697297 C17.7503154,1.66174877 17.4300228,1.60064608 17.1238927,1.60064608 C16.5424089,1.60064608 16.2055024,2.04248642 16.2055024,2.65351333 L16.2055024,6.97985537 L14.3523805,6.97985537 L14.3523805,2.65351333 Z" id="Fill-17"></path>
                </g>
                <polygon id="Fill-20" fill="#FAFAFA" points="57.1613496 17.3211463 57.1613496 17.3211463 56.3347439 17.3211463 56.0593902 16.0990925 57.1613496 16.0990925 57.1613496 14.2657402 59.0122927 14.0213294 59.0122927 16.0990925 60.1000894 16.0990925 60.1000894 17.3211463 59.0122927 17.3211463 59.0122927 22.8695421 57.1613496 22.8695421"></polygon>
                <g id="Group-35" transform="translate(23.150407, 26.480820)" fill="#FAFAFA">
                    <path d="M3.67004756,4.65621511 L3.67004756,4.65621511 L3.07222236,2.68463496 C2.98016545,2.40980864 2.88838089,2.02689845 2.79659634,1.67657635 C2.72115325,2.02689845 2.61302724,2.40980864 2.52097033,2.68463496 L1.90898252,4.65621511 L3.67004756,4.65621511 Z M2.27612073,0.743741948 L2.27612073,0.743741948 L3.31707195,0.743741948 L5.35376301,7.13182455 L4.43537276,7.13182455 L3.89855569,5.42013452 L1.68020203,5.42013452 L1.15999878,7.13182455 L0.241608537,7.13182455 L2.27612073,0.743741948 Z" id="Fill-21"></path>
                    <path d="M6.1945313,4.27403815 L6.1945313,4.27403815 C6.1945313,2.79182266 7.03747846,2.14929392 8.23149472,2.14929392 C8.70675894,2.14929392 9.1496126,2.2264191 9.60880772,2.36383226 L9.45574268,3.11254389 C9.05782805,3.00554629 8.65991341,2.91402804 8.26199878,2.91402804 C7.46589715,2.91402804 7.06798252,3.32681066 7.06798252,4.31993306 L7.06798252,5.08385247 C7.06798252,6.06231022 7.46589715,6.48975748 8.26199878,6.48975748 C8.65991341,6.48975748 9.05782805,6.41344701 9.45574268,6.30644941 L9.60880772,7.02474548 C9.13545,7.17763799 8.69041748,7.25422003 8.23149472,7.25422003 C7.03747846,7.25422003 6.1945313,6.59702665 6.1945313,5.11481117 L6.1945313,4.27403815 Z" id="Fill-23"></path>
                    <path d="M12.3333654,6.4898118 L12.3333654,6.4898118 C12.8843451,6.4898118 13.2517557,6.10798787 13.2517557,5.68026904 L13.2517557,4.88539093 L12.3028614,4.88539093 C11.6761663,4.88539093 11.4149752,5.23679929 11.4149752,5.66478969 C11.4149752,6.09278009 11.7516093,6.4898118 12.3333654,6.4898118 M12.3028614,4.19778199 L12.3028614,4.19778199 L13.2517557,4.19778199 L13.2517557,3.93816345 C13.2517557,3.2806985 12.9311907,2.91408235 12.3192028,2.91408235 C11.8905118,2.91408235 11.4313167,3.00560061 11.033402,3.12780599 L10.8334915,2.40978148 C11.3087557,2.25716054 11.8128898,2.14934824 12.3192028,2.14934824 C13.4048207,2.14934824 14.1088654,2.82229254 14.1088654,3.93816345 L14.1088654,5.68026904 C14.1088654,6.56639384 13.3130362,7.25400278 12.3333654,7.25400278 C11.3087557,7.25400278 10.5273614,6.56639384 10.5273614,5.68026904 C10.5273614,4.71729064 11.2477476,4.19778199 12.3028614,4.19778199" id="Fill-25"></path>
                    <path d="M17.1721,6.4898118 L17.1721,6.4898118 C17.7680187,6.4898118 18.2272138,6.07730075 18.2272138,5.1756966 L18.2272138,3.23480359 C17.8905797,3.03601617 17.5395106,2.91408235 17.186535,2.91408235 C16.5906163,2.91408235 16.1150797,3.25001137 16.1150797,4.22819755 L16.1150797,5.1756966 C16.1150797,6.07730075 16.5742748,6.4898118 17.1721,6.4898118 L17.1721,6.4898118 Z M15.243535,4.18230264 L15.243535,4.18230264 C15.243535,2.79187697 16.1314211,2.14934824 17.1108195,2.14934824 C17.5395106,2.14934824 17.9679293,2.31826323 18.2272138,2.48609195 L18.2272138,0.207912088 L19.0843236,0.207912088 L19.0843236,5.22159151 C19.0843236,6.53570671 18.2130512,7.25400278 17.1721,7.25400278 C16.1455837,7.25400278 15.243535,6.53570671 15.243535,5.22159151 L15.243535,4.18230264 Z" id="Fill-27"></path>
                    <path d="M23.0966703,4.27403815 L23.0966703,4.27403815 L23.0966703,3.95304535 C23.0966703,3.32681066 22.6987557,2.91402804 22.0864955,2.91402804 C21.5025606,2.91402804 21.0904833,3.31133131 21.0904833,4.06004295 L21.0904833,4.27403815 L23.0966703,4.27403815 Z M20.2170321,4.1214172 L20.2170321,4.1214172 C20.2170321,2.83771757 21.0597069,2.14929392 22.0864955,2.14929392 C23.1271744,2.14929392 23.9679427,2.88334091 23.9679427,3.95304535 L23.9679427,4.94671088 L21.0904833,4.94671088 L21.0904833,5.23674498 C21.0904833,6.10793356 21.5025606,6.48975748 22.2232191,6.48975748 C22.6824142,6.48975748 23.0966703,6.39823923 23.539524,6.2605545 L23.7089305,7.0095377 C23.2028898,7.17763799 22.7600362,7.25422003 22.2232191,7.25422003 C21.0436378,7.25422003 20.2170321,6.55140331 20.2170321,5.23674498 L20.2170321,4.1214172 Z" id="Fill-29"></path>
                    <path d="M25.1783276,4.07541367 L25.1783276,4.07541367 C25.1783276,2.79171403 25.9885919,2.1491853 26.9538276,2.1491853 C27.5802504,2.1491853 28.055787,2.48592901 28.3150715,3.06681192 C28.5762626,2.48592901 29.0496203,2.1491853 29.6640593,2.1491853 C30.6578927,2.1491853 31.4539943,2.79171403 31.4539943,4.07541367 L31.4539943,7.13190603 L30.5824496,7.13190603 L30.5824496,4.16720349 C30.5824496,3.32670203 30.215039,2.91419098 29.6640593,2.91419098 C29.0967382,2.91419098 28.7434902,3.38780472 28.7434902,4.31982443 L28.7434902,7.13190603 L27.8863805,7.13190603 L27.8863805,4.31982443 C27.8863805,3.38780472 27.5189699,2.91419098 26.9538276,2.91419098 C26.402848,2.91419098 26.0496,3.32670203 26.0496,4.16720349 L26.0496,7.13190603 L25.1783276,7.13190603 L25.1783276,4.07541367 Z" id="Fill-31"></path>
                    <path d="M32.4334472,2.27122774 L32.4334472,2.27122774 L33.2905569,2.27122774 L33.7353171,5.34374258 C33.8110325,5.97024883 34.0558821,6.35234432 34.6068618,6.35234432 L35.096561,6.35234432 L35.602874,2.27122774 L36.4741463,2.27122774 L35.5865325,9.13401036 L34.7294228,9.13401036 L34.9906138,7.13174308 L34.5926992,7.13174308 C33.5212439,7.13174308 33.0149309,6.45934192 32.8782073,5.43526083 L32.4334472,2.27122774 Z" id="Fill-33"></path>
                </g>
                <g id="Group-64" transform="translate(0.272358, 0.138771)" fill="#4B426D">
                    <path d="M1.47337358,3.79138121 C1.85821504,3.79138121 2.08890203,3.5849899 2.08890203,3.31342238 C2.08890203,3.03615195 1.90533293,2.83546356 1.52076382,2.83546356 L1.01199959,2.83546356 L1.01199959,3.79138121 L1.47337358,3.79138121 Z M1.38458496,2.13346154 C1.7457313,2.13346154 1.94101179,1.95042503 1.94101179,1.70275546 C1.94101179,1.46051724 1.79312154,1.27775231 1.42598333,1.27775231 L1.01199959,1.27775231 L1.01199959,2.13346154 L1.38458496,2.13346154 Z M0.141816667,4.52895857 L0.141816667,0.54017494 L1.44967846,0.54017494 C2.29616626,0.54017494 2.82263374,1.00618479 2.82263374,1.66120563 C2.82263374,2.03298156 2.63334512,2.28662562 2.31958902,2.43435834 C2.72213374,2.5818195 2.97079634,2.87076734 2.97079634,3.31342238 C2.97079634,3.98609511 2.36125976,4.52895857 1.47936545,4.52895857 L0.141816667,4.52895857 Z" id="Fill-36"></path>
                    <path d="M3.53346016,2.55819313 C3.53346016,1.84424214 4.08389512,1.36628331 4.78793984,1.36628331 C4.98349268,1.36628331 5.19647642,1.40158709 5.3737813,1.46051724 L5.21417967,2.14513894 C5.08399268,2.10983516 4.93610244,2.08023431 4.79393171,2.08023431 C4.52756585,2.08023431 4.37368374,2.2809227 4.37368374,2.55819313 L4.37368374,4.52895857 L3.53346016,4.52895857 L3.53346016,2.55819313 Z" id="Fill-38"></path>
                    <path d="M6.98382398,3.89175256 C7.33897846,3.89175256 7.46317358,3.63213402 7.46317358,3.22478275 L7.46317358,2.74709549 C7.46317358,2.34001579 7.33897846,2.08039725 6.98382398,2.08039725 C6.62295,2.08039725 6.50447439,2.34001579 6.50447439,2.74709549 L6.50447439,3.22478275 C6.50447439,3.63213402 6.62866951,3.89175256 6.98382398,3.89175256 L6.98382398,3.89175256 Z M5.66425081,2.71749463 C5.66425081,1.87373437 6.22040528,1.36617469 6.98382398,1.36617469 C7.74724268,1.36617469 8.30366951,1.87373437 8.30366951,2.71749463 L8.30366951,3.2543836 C8.30366951,4.09814387 7.74724268,4.60570355 6.98382398,4.60570355 C6.22040528,4.60570355 5.66425081,4.09814387 5.66425081,3.2543836 L5.66425081,2.71749463 Z" id="Fill-40"></path>
                    <path d="M8.94324715,1.44300114 L9.78347073,1.44300114 L9.78347073,3.27798282 C9.78347073,3.68533409 9.94933659,3.8917254 10.2097106,3.8917254 C10.4760764,3.8917254 10.635678,3.68533409 10.635678,3.27798282 L10.635678,1.44300114 L11.4818935,1.44300114 L11.4818935,3.30758368 C11.4818935,4.15731843 10.9020439,4.60567639 10.2097106,4.60567639 C9.51138537,4.60567639 8.94324715,4.15731843 8.94324715,3.30758368 L8.94324715,1.44300114 Z" id="Fill-42"></path>
                    <path d="M13.6188122,2.77061324 L13.6188122,2.48736832 C13.6188122,2.25707907 13.5300236,2.08028862 13.2696496,2.08028862 C13.0152675,2.08028862 12.9264789,2.25707907 12.9264789,2.48736832 L12.9264789,2.77061324 C12.9264789,3.00090249 13.0152675,3.18964191 13.2756415,3.18964191 C13.5360154,3.18964191 13.6188122,3.00090249 13.6188122,2.77061324 M13.1988366,5.16040735 C13.5477268,5.16040735 13.7607106,5.08382531 13.7607106,4.92441518 C13.7607106,4.63519578 12.3466293,4.88911141 12.3466293,4.06870595 C12.3466293,3.90929582 12.429426,3.76183466 12.5359179,3.66162625 C12.2635602,3.46691234 12.0979667,3.15406657 12.0979667,2.77061324 L12.0979667,2.48736832 C12.0979667,1.82067008 12.5950195,1.36633763 13.2696496,1.36633763 C13.4295236,1.36633763 13.5774138,1.389964 13.7135927,1.43694518 L14.6722919,1.36633763 L14.6189098,1.9032266 L14.2994341,1.91517557 C14.3942146,2.08028862 14.4473244,2.27500253 14.4473244,2.48736832 L14.4473244,2.77061324 C14.4473244,3.43160856 13.9562634,3.88566945 13.2756415,3.88566945 C13.1928447,3.88566945 13.110048,3.87996653 13.0329707,3.86828912 C13.0269789,3.88566945 13.0212593,3.9035929 13.0212593,3.92721927 C13.0212593,4.14528799 14.6189098,3.98614943 14.6189098,4.87118795 C14.6189098,5.50285399 14.0744667,5.85073197 13.2162675,5.85073197 C12.7903,5.85073197 12.3763163,5.75052356 11.9617878,5.54983516 L12.1630602,4.91273778 C12.5005114,5.06019894 12.849674,5.16040735 13.1988366,5.16040735" id="Fill-44"></path>
                    <path d="M15.1816825,0.209677277 L16.027898,0.209677277 L16.027898,1.50776999 C16.158085,1.43716244 16.3593573,1.36628331 16.5546378,1.36628331 C17.18215,1.36628331 17.7265931,1.72611027 17.7265931,2.59947139 L17.7265931,4.52895857 L16.8801053,4.52895857 L16.8801053,2.64672414 C16.8801053,2.21601806 16.732215,2.08023431 16.4778329,2.08023431 C16.3239508,2.08023431 16.1757882,2.12748705 16.027898,2.1864172 L16.027898,4.52895857 L15.1816825,4.52895857 L15.1816825,0.209677277 Z" id="Fill-46"></path>
                    <polygon id="Fill-48" points="18.6501309 2.00351648 18.2712813 2.00351648 18.1470862 1.44300114 18.6501309 1.44300114 18.6501309 0.610918277 19.4963463 0.498760894 19.4963463 1.44300114 19.9933992 1.44300114 19.9933992 2.00351648 19.4963463 2.00351648 19.4963463 4.52909435 18.6501309 4.52909435"></polygon>
                    <polygon id="Fill-50" points="21.9646972 2.00351648 21.5858476 2.00351648 21.4616524 1.44300114 21.9646972 1.44300114 21.9646972 0.610918277 22.8109126 0.498760894 22.8109126 1.44300114 23.3079654 1.44300114 23.3079654 2.00351648 22.8109126 2.00351648 22.8109126 4.52909435 21.9646972 4.52909435"></polygon>
                    <path d="M25.0126252,3.89175256 C25.3677797,3.89175256 25.4919748,3.63213402 25.4919748,3.22478275 L25.4919748,2.74709549 C25.4919748,2.34001579 25.3677797,2.08039725 25.0126252,2.08039725 C24.6517512,2.08039725 24.5332756,2.34001579 24.5332756,2.74709549 L24.5332756,3.22478275 C24.5332756,3.63213402 24.6574707,3.89175256 25.0126252,3.89175256 L25.0126252,3.89175256 Z M23.693052,2.71749463 C23.693052,1.87373437 24.2492065,1.36617469 25.0126252,1.36617469 C25.7760439,1.36617469 26.3324707,1.87373437 26.3324707,2.71749463 L26.3324707,3.2543836 C26.3324707,4.09814387 25.7760439,4.60570355 25.0126252,4.60570355 C24.2492065,4.60570355 23.693052,4.09814387 23.693052,3.2543836 L23.693052,2.71749463 Z" id="Fill-52"></path>
                    <path d="M28.0374301,1.44300114 L28.8776537,1.44300114 L29.1560033,3.36081091 C29.2033935,3.66741064 29.3038935,3.81487179 29.5051659,3.81487179 L29.6470642,3.81487179 L29.9431171,1.44300114 L30.7893325,1.44300114 L30.2034911,5.77395983 L29.3749789,5.77395983 L29.5465642,4.52909435 L29.4754789,4.52909435 C28.7474667,4.52909435 28.4162797,4.05683845 28.3214992,3.41974106 L28.0374301,1.44300114 Z" id="Fill-54"></path>
                    <path d="M32.5413008,3.89175256 C32.8964553,3.89175256 33.0206504,3.63213402 33.0206504,3.22478275 L33.0206504,2.74709549 C33.0206504,2.34001579 32.8964553,2.08039725 32.5413008,2.08039725 C32.1804268,2.08039725 32.0619512,2.34001579 32.0619512,2.74709549 L32.0619512,3.22478275 C32.0619512,3.63213402 32.1861463,3.89175256 32.5413008,3.89175256 L32.5413008,3.89175256 Z M31.2217276,2.71749463 C31.2217276,1.87373437 31.7778821,1.36617469 32.5413008,1.36617469 C33.3047195,1.36617469 33.8611463,1.87373437 33.8611463,2.71749463 L33.8611463,3.2543836 C33.8611463,4.09814387 33.3047195,4.60570355 32.5413008,4.60570355 C31.7778821,4.60570355 31.2217276,4.09814387 31.2217276,3.2543836 L31.2217276,2.71749463 Z" id="Fill-56"></path>
                    <path d="M34.500724,1.44300114 L35.3409476,1.44300114 L35.3409476,3.27798282 C35.3409476,3.68533409 35.5068134,3.8917254 35.7671874,3.8917254 C36.0335533,3.8917254 36.1931549,3.68533409 36.1931549,3.27798282 L36.1931549,1.44300114 L37.0393703,1.44300114 L37.0393703,3.30758368 C37.0393703,4.15731843 36.4595207,4.60567639 35.7671874,4.60567639 C35.0688622,4.60567639 34.500724,4.15731843 34.500724,3.30758368 L34.500724,1.44300114 Z" id="Fill-58"></path>
                    <path d="M40.2831508,3.89175256 C40.5375329,3.89175256 40.7328134,3.69106417 40.7328134,3.28398446 L40.7328134,2.69386826 C40.7328134,2.24551029 40.5318134,2.08039725 40.2771589,2.08039725 C40.1235492,2.08039725 39.9753866,2.12737843 39.8274963,2.18630858 L39.8274963,3.28398446 C39.8274963,3.69106417 40.0227768,3.89175256 40.2831508,3.89175256 L40.2831508,3.89175256 Z M38.9812809,0.245143994 L39.8274963,0.132986611 L39.8274963,1.50793293 C39.9516915,1.43705381 40.1586833,1.36617469 40.3542362,1.36617469 C40.981476,1.36617469 41.5790289,1.79117785 41.5790289,2.6642674 L41.5790289,3.31358532 C41.5790289,4.12774473 40.981476,4.60570355 40.2831508,4.60570355 C39.5791061,4.60570355 38.9812809,4.12774473 38.9812809,3.31358532 L38.9812809,0.245143994 Z" id="Fill-60"></path>
                    <path d="M41.9820638,1.44300114 L42.8222874,1.44300114 L43.1003646,3.36081091 C43.1477549,3.66741064 43.2485272,3.81487179 43.4497996,3.81487179 L43.591698,3.81487179 L43.8877508,1.44300114 L44.7339663,1.44300114 L44.1481248,5.77395983 L43.3196126,5.77395983 L43.491198,4.52909435 L43.4201126,4.52909435 C42.6921004,4.52909435 42.3609134,4.05683845 42.2661329,3.41974106 L41.9820638,1.44300114 Z" id="Fill-62"></path>
                </g>
            </g>
        </g>
    </g>
</svg>
