<svg xmlns="http://www.w3.org/2000/svg" xmlns:xlink="http://www.w3.org/1999/xlink" version="1.1" id="Layer_1" x="0px" y="0px" style="enable-background:new 0 0 595.3 841.9;" xml:space="preserve" viewBox="159.5 321.5 275.7 198.5">
<style type="text/css">
	.st0{fill-rule:evenodd;clip-rule:evenodd;fill:#984F90;}
	.st1{fill-rule:evenodd;clip-rule:evenodd;fill:#FFFFFF;}
	.st2{fill-rule:evenodd;clip-rule:evenodd;}
	.st3{filter:url(#Adobe_OpacityMaskFilter);}
	.st4{mask:url(#mask-2_00000124138815875841775460000004808000094630748574_);fill-rule:evenodd;clip-rule:evenodd;}
	.st5{fill-rule:evenodd;clip-rule:evenodd;fill:#C894C0;}
</style>
<path id="Fill-1" class="st0" d="M159.5,511.1V400.5l216.5-36.8l2.5,37.5c0,7.2,5.8,13,13,13l43.7-1.6v98.5c0,4.9-4,8.9-8.9,8.9  H168.4C163.5,520,159.5,516,159.5,511.1"/>
<g id="Page-1">
	<g id="Learn-landing-Signed-in" transform="translate(-1154.000000, -200.000000)">
		<g id="Group-64" transform="translate(1154.000000, 200.000000)">
			<path id="Fill-5" class="st1" d="M184.7,428.5h6.8v20.4c0,3.7,2,5.9,5,5.9c3,0,5-2.2,5-5.9v-20.4h6.8v20.9     c0,6.6-5.4,11.1-11.8,11.1c-6.5,0-11.8-4.5-11.8-11.1V428.5z"/>
			<polygon id="Fill-7" class="st1" points="214.6,428.5 221.5,428.5 221.5,440.1 229.6,428.5 237.6,428.5 227.5,442.2 239,459.9      230.9,459.9 223.4,447.8 221.5,450.4 221.5,459.9 214.6,459.9    "/>
			<polygon id="Fill-9" class="st1" points="253.2,428.5 272,428.5 272,434.3 260,434.3 260,441.3 270.1,441.3 269.8,446.9      260,446.9 260,454.1 272.4,454.1 272.4,459.9 253.2,459.9    "/>
			<polygon id="Fill-11" class="st1" points="282.6,447.5 275.8,435.6 283.1,435.6 286.4,441.6 289.9,435.6 297,435.6 290.2,447.3      297.6,459.9 290.1,459.9 286.4,453.1 282.5,459.9 275.2,459.9    "/>
			<path id="Fill-13" class="st1" d="M310.4,454.9c2,0,3.6-1.3,3.6-4.8v-4.6c0-3.2-1.5-4.8-3.5-4.8c-2,0-3.6,1.6-3.6,4.8v8.6     C308.1,454.5,309.2,454.9,310.4,454.9L310.4,454.9z M306.9,469.7h-6.6v-24.6c0-6.4,4.7-10.2,10.2-10.2c5.5,0,10.2,3.8,10.2,10.2     v5.1c0,6.9-4.7,10.2-9.6,10.2c-1.5,0-3.2-0.6-4.1-1.1V469.7z"/>
			<path id="Fill-15" class="st1" d="M335.5,454.9c2.8,0,3.8-2,3.8-5.3v-3.8c0-3.2-1-5.3-3.8-5.3c-2.8,0-3.8,2-3.8,5.3v3.8     C331.7,452.9,332.7,454.9,335.5,454.9L335.5,454.9z M325.1,445.7c0-6.7,4.4-10.7,10.4-10.7c6,0,10.4,4,10.4,10.7v4.2     c0,6.6-4.4,10.6-10.4,10.6c-6,0-10.4-4-10.4-10.6V445.7z"/>
			<path id="Fill-17" class="st1" d="M350.9,444.4c0-5.6,4.3-9.4,9.9-9.4c1.5,0,3.2,0.3,4.6,0.7l-1.3,5.4c-1-0.3-2.2-0.5-3.3-0.5     c-2.1,0-3.3,1.6-3.3,3.8v15.5h-6.6V444.4z"/>
			<polygon id="Fill-19" class="st1" points="370.5,440 367.5,440 366.6,435.6 370.5,435.6 370.5,429 377.1,428.2 377.1,435.6      381,435.6 381,440 377.1,440 377.1,459.9 370.5,459.9    "/>
			<path id="Fill-21" class="st1" d="M200.6,489.9l-2.5-8.1c-0.4-1.1-0.7-2.7-1.1-4.2c-0.3,1.5-0.7,3-1.1,4.2l-2.5,8.1H200.6z      M194.8,473.8h4.2l8.4,26.3h-3.8l-2.2-7.1h-9.1l-2.2,7.1h-3.7L194.8,473.8z"/>
			<path id="Fill-23" class="st1" d="M210.9,488.3c0-6.1,3.5-8.8,8.4-8.8c1.9,0,3.8,0.3,5.7,0.9l-0.7,3c-1.6-0.4-3.2-0.8-4.9-0.8     c-3.3,0-4.9,1.7-4.9,5.8v3.2c0,4.1,1.7,5.8,4.9,5.8c1.6,0,3.2-0.3,4.9-0.8l0.7,3c-1.9,0.6-3.8,0.9-5.7,0.9     c-4.9,0-8.4-2.7-8.4-8.8V488.3z"/>
			<path id="Fill-25" class="st1" d="M236.2,497.5c2.3,0,3.8-1.6,3.8-3.4v-3.3H236c-2.6,0-3.6,1.4-3.6,3.2     C232.4,495.8,233.8,497.5,236.2,497.5 M236,488h3.9v-1.1c0-2.7-1.3-4.2-3.9-4.2c-1.7,0-3.6,0.4-5.3,0.9l-0.8-3     c1.9-0.6,4-1.1,6.1-1.1c4.5,0,7.4,2.8,7.4,7.4v7.2c0,3.7-3.3,6.5-7.3,6.5c-4.2,0-7.4-2.8-7.4-6.5C228.8,490.2,231.7,488,236,488"/>
			<path id="Fill-27" class="st1" d="M256.1,497.5c2.5,0,4.3-1.7,4.3-5.4v-8c-1.4-0.8-2.8-1.4-4.3-1.4c-2.4,0-4.4,1.4-4.4,5.5v3.9     C251.7,495.7,253.6,497.5,256.1,497.5L256.1,497.5z M248.1,488c0-5.8,3.6-8.4,7.7-8.4c1.8,0,3.5,0.7,4.6,1.4v-9.4h3.5v20.7     c0,5.4-3.6,8.4-7.9,8.4c-4.2,0-7.9-3-7.9-8.4V488z"/>
			<path id="Fill-29" class="st1" d="M280.4,488.3V487c0-2.5-1.7-4.3-4.2-4.3c-2.4,0-4.1,1.6-4.1,4.8v0.9H280.4z M268.6,487.7     c0-5.3,3.5-8.2,7.7-8.2c4.3,0,7.7,3,7.7,7.4v4.1h-11.9v1.2c0,3.6,1.8,5.2,4.7,5.2c1.9,0,3.6-0.4,5.4-0.9l0.7,3.1     c-2.1,0.7-3.9,1-6.1,1c-4.8,0-8.3-2.9-8.3-8.3V487.7z"/>
			<path id="Fill-31" class="st1" d="M289,487.5c0-5.3,3.3-7.9,7.3-7.9c2.6,0,4.5,1.4,5.6,3.8c1.1-2.4,3-3.8,5.6-3.8     c4.1,0,7.4,2.6,7.4,7.9v12.6h-3.6v-12.2c0-3.5-1.5-5.2-3.8-5.2c-2.3,0-3.8,2-3.8,5.8v11.6h-3.5v-11.6c0-3.9-1.5-5.8-3.8-5.8     c-2.3,0-3.7,1.7-3.7,5.2v12.2H289V487.5z"/>
			<path id="Fill-33" class="st1" d="M318.8,480h3.6l1.8,12.7c0.4,2.6,1.3,4.2,3.6,4.2h2l2.1-16.9h3.6l-3.7,28.3h-3.5l1.1-8.2h-1.6     c-4.4,0-6.5-2.8-7.1-7L318.8,480z"/>
			<path id="Fill-35" class="st2" d="M167.3,339c1.8,0,2.9-1,2.9-2.3c0-1.3-0.9-2.3-2.7-2.3h-2.4v4.6H167.3z M166.9,331.1     c1.7,0,2.7-0.9,2.7-2.1c0-1.2-0.7-2-2.5-2h-2v4.1H166.9z M161,342.6v-19.1h6.2c4,0,6.6,2.2,6.6,5.4c0,1.8-0.9,3-2.4,3.7     c1.9,0.7,3.1,2.1,3.1,4.2c0,3.2-2.9,5.8-7.1,5.8H161z"/>
			<path id="Fill-37" class="st2" d="M177.2,333.1c0-3.4,2.6-5.7,6-5.7c0.9,0,2,0.2,2.8,0.5l-0.8,3.3c-0.6-0.2-1.3-0.3-2-0.3     c-1.3,0-2,1-2,2.3v9.5h-4V333.1z"/>
			<path id="Fill-39" class="st2" d="M193.7,339.5c1.7,0,2.3-1.2,2.3-3.2V334c0-2-0.6-3.2-2.3-3.2c-1.7,0-2.3,1.2-2.3,3.2v2.3     C191.4,338.3,192,339.5,193.7,339.5L193.7,339.5z M187.4,333.9c0-4,2.7-6.5,6.3-6.5s6.3,2.4,6.3,6.5v2.6c0,4-2.7,6.5-6.3,6.5     s-6.3-2.4-6.3-6.5V333.9z"/>
			<path id="Fill-41" class="st2" d="M203,327.8h4v8.8c0,2,0.8,2.9,2,2.9c1.3,0,2-1,2-2.9v-8.8h4v8.9c0,4.1-2.8,6.2-6.1,6.2     c-3.3,0-6.1-2.2-6.1-6.2V327.8z"/>
			<path id="Fill-43" class="st2" d="M225.4,334.1v-1.4c0-1.1-0.4-2-1.7-2c-1.2,0-1.6,0.8-1.6,2v1.4c0,1.1,0.4,2,1.7,2     C225,336.2,225.4,335.3,225.4,334.1 M223.4,345.6c1.7,0,2.7-0.4,2.7-1.1c0-1.4-6.8-0.2-6.8-4.1c0-0.8,0.4-1.5,0.9-2     c-1.3-0.9-2.1-2.4-2.1-4.3v-1.4c0-3.2,2.4-5.4,5.6-5.4c0.8,0,1.5,0.1,2.1,0.3l4.6-0.3l-0.3,2.6l-1.5,0.1c0.5,0.8,0.7,1.7,0.7,2.7     v1.4c0,3.2-2.3,5.4-5.6,5.4c-0.4,0-0.8,0-1.2-0.1c0,0.1-0.1,0.2-0.1,0.3c0,1,7.6,0.3,7.6,4.5c0,3-2.6,4.7-6.7,4.7     c-2,0-4-0.5-6-1.4l1-3.1C220,345.1,221.7,345.6,223.4,345.6"/>
			<path id="Fill-45" class="st2" d="M232.8,321.9h4v6.2c0.6-0.3,1.6-0.7,2.5-0.7c3,0,5.6,1.7,5.6,5.9v9.3h-4v-9     c0-2.1-0.7-2.7-1.9-2.7c-0.7,0-1.4,0.2-2.1,0.5v11.2h-4V321.9z"/>
			<polygon id="Fill-47" class="st2" points="249.4,330.5 247.6,330.5 247,327.8 249.4,327.8 249.4,323.8 253.5,323.2 253.5,327.8      255.8,327.8 255.8,330.5 253.5,330.5 253.5,342.6 249.4,342.6    "/>
			<polygon id="Fill-49" class="st2" points="265.3,330.5 263.4,330.5 262.9,327.8 265.3,327.8 265.3,323.8 269.3,323.2      269.3,327.8 271.7,327.8 271.7,330.5 269.3,330.5 269.3,342.6 265.3,342.6    "/>
			<path id="Fill-51" class="st2" d="M279.8,339.5c1.7,0,2.3-1.2,2.3-3.2V334c0-2-0.6-3.2-2.3-3.2c-1.7,0-2.3,1.2-2.3,3.2v2.3     C277.5,338.3,278.1,339.5,279.8,339.5L279.8,339.5z M273.5,333.9c0-4,2.7-6.5,6.3-6.5c3.6,0,6.3,2.4,6.3,6.5v2.6     c0,4-2.7,6.5-6.3,6.5c-3.6,0-6.3-2.4-6.3-6.5V333.9z"/>
			<path id="Fill-53" class="st2" d="M294.3,327.8h4l1.3,9.2c0.2,1.5,0.7,2.2,1.7,2.2h0.7l1.4-11.4h4l-2.8,20.8h-4l0.8-6h-0.3     c-3.5,0-5.1-2.3-5.5-5.3L294.3,327.8z"/>
			<path id="Fill-55" class="st2" d="M315.8,339.5c1.7,0,2.3-1.2,2.3-3.2V334c0-2-0.6-3.2-2.3-3.2c-1.7,0-2.3,1.2-2.3,3.2v2.3     C313.5,338.3,314.1,339.5,315.8,339.5L315.8,339.5z M309.5,333.9c0-4,2.7-6.5,6.3-6.5c3.6,0,6.3,2.4,6.3,6.5v2.6     c0,4-2.7,6.5-6.3,6.5c-3.6,0-6.3-2.4-6.3-6.5V333.9z"/>
			<path id="Fill-57" class="st2" d="M325.2,327.8h4v8.8c0,2,0.8,2.9,2,2.9c1.3,0,2-1,2-2.9v-8.8h4v8.9c0,4.1-2.8,6.2-6.1,6.2     c-3.3,0-6.1-2.2-6.1-6.2V327.8z"/>
			<g id="Group-61" transform="translate(80.117609, 0.000000)">
				<g id="Clip-60">
				</g>
				<defs>
					<filter id="Adobe_OpacityMaskFilter" filterUnits="userSpaceOnUse" x="266.5" y="321.5" width="12.4" height="21.5">
						<feColorMatrix type="matrix" values="1 0 0 0 0  0 1 0 0 0  0 0 1 0 0  0 0 0 1 0"/>
					</filter>
				</defs>

					<mask maskUnits="userSpaceOnUse" x="266.5" y="321.5" width="12.4" height="21.5" id="mask-2_00000124138815875841775460000004808000094630748574_">
					<g class="st3">
						<polygon id="path-1_00000080184075573385334620000016061821009712081085_" class="st1" points="266.5,321.5 278.9,321.5         278.9,343 266.5,343       "/>
					</g>
				</mask>
				<path id="Fill-59" class="st4" d="M272.7,339.5c1.2,0,2.1-1,2.1-2.9v-2.8c0-2.2-1-2.9-2.2-2.9c-0.7,0-1.4,0.2-2.2,0.5v5.3      C270.5,338.6,271.4,339.5,272.7,339.5L272.7,339.5z M266.5,322l4-0.5v6.6c0.6-0.3,1.6-0.7,2.5-0.7c3,0,5.9,2,5.9,6.2v3.1      c0,3.9-2.9,6.2-6.2,6.2c-3.4,0-6.2-2.3-6.2-6.2V322z"/>
			</g>
			<path id="Fill-62" class="st2" d="M360.9,327.8h4l1.3,9.2c0.2,1.5,0.7,2.2,1.7,2.2h0.7l1.4-11.4h4l-2.8,20.8h-4l0.8-6h-0.3     c-3.5,0-5.1-2.3-5.5-5.3L360.9,327.8z"/>
		</g>
	</g>
</g>
<path id="Fill-3" class="st5" d="M398.5,404.1c9.4-8,14.1-14.8,23.6-22.6l-0.1,17.4c0,1.9,1.7,3.3,3.5,2.9l9.5-1.6v-37.9  c0-3.6-2.9-6.4-6.4-6.4l-38.6,5.7l0.6,9.1c0.1,2.2,2.1,3.7,4.2,3.5l17.6-2.3L389.2,394c-1.1,0.8-1.6,2.2-1.5,3.5  c0.2,1.7,0,2.3,1.5,4.3c3.3,3.3,4.2,3,6.5,3.2C396.7,405.1,397.7,404.8,398.5,404.1"/>
</svg>
