<svg xmlns="http://www.w3.org/2000/svg" fill="none" viewBox="0 0 425 235">
  <path fill="#fff" d="M374.3 96.8V51.7l-80 40h-18.6l80-40h-89v45.1h107.6Zm0 70.8v-35.7H266.5v20.8l5.2 24.3h102.6l-80-40H313l61.3 30.6ZM123.9 61v35.8h107.6V51.7H123.9l80 40h-18.7L123.9 61Z"/>
  <path fill="#04043F" d="M271.7 139.6V177h74.6l-74.6-37.4Zm102.6-47.9v-26l-52 26h52Zm-102.6-40V89l74.6-37.3h-74.6Zm50.6 85.3 52 26v-26h-52Zm-95.8-85.3h-74.6L226.5 89V51.7Zm-50.6 40-52-26v26h52Z"/>
  <path fill="#fff" d="M28.1 194.5h5.3c3.1 0 4.7 1.9 4.7 4.1 0 1.6-.6 2.6-1.7 3.3 1.6.6 2.7 1.8 2.7 4 0 2.9-2.2 4.5-5.5 4.5h-5.5v-15.9Zm5.2 6.8c1.7 0 2.7-1.1 2.7-2.5 0-1.3-1-2.5-2.7-2.5h-3.2v5h3.2Zm.6 7.2c2.1 0 3.2-1.1 3.2-2.7 0-1.5-1-2.7-3.2-2.7h-3.8v5.4h3.8Zm9.1-14h4.7c3.1 0 5.1 1.8 5.1 4.5 0 1.9-1 3.8-3.8 4.3l5.5 7.1H52l-5.3-6.9H45v6.9h-2v-15.9Zm4.6 7.1c2.1 0 3.1-1 3.1-2.6 0-1.7-1.1-2.6-3.1-2.6H45v5.3h2.6v-.1Zm10.1-7.1h2v15.9h-2v-15.9Zm9.6 1.9h-4.5v-2h11.1v2h-4.5v13.9h-2v-13.9h-.1Zm13.4-2.1 7.7 16.1h-2.2l-2-4.2H77l-2 4.2h-2.2l7.9-16.1Zm2.7 10-2.7-5.7-2.7 5.7h5.4Zm8-9.8h2v15.9h-2v-15.9Zm9 4.6v11.3h-2v-16.1l11.3 11.5v-11.3h2v16.1l-11.3-11.5Zm45.7 0v11.3h-2v-16.1l11.3 11.5v-11.3h2v16.1l-11.3-11.5Zm14.9 3.3c0-4.6 3.6-8.1 8.1-8.1s8.1 3.5 8.1 8.1-3.6 8.1-8.1 8.1-8.1-3.5-8.1-8.1Zm14.1 0c0-3.5-2.6-6.2-6-6.2-3.5 0-6 2.7-6 6.2s2.6 6.2 6 6.2c3.5 0 6-2.7 6-6.2Zm5.7-7.9h4.7c3.1 0 5.1 1.8 5.1 4.5 0 1.9-1 3.8-3.8 4.3l5.5 7.1h-2.5l-5.3-6.9h-1.7v6.9h-2v-15.9Zm4.6 7.1c2.1 0 3.1-1 3.1-2.6 0-1.7-1.1-2.6-3.1-2.6h-2.6v5.3h2.6v-.1Zm12.5-5.2h-4.5v-2h11.1v2H200v13.9h-2v-13.9h-.1Zm9.7-1.9h2v6.8h8.8v-6.8h2v15.9h-2v-7.1h-8.8v7.1h-2v-15.9Zm17.8 0h9.2v2h-7.1v4.8h5.8v2h-5.8v5.2h7.1v2h-9.2v-16Zm13.1 0h4.7c3.1 0 5.1 1.8 5.1 4.5 0 1.9-1 3.8-3.8 4.3l5.5 7.1h-2.5l-5.3-6.9h-1.7v6.9h-2v-15.9Zm4.6 7.1c2.1 0 3.1-1 3.1-2.6 0-1.7-1.1-2.6-3.1-2.6h-2.6v5.3h2.6v-.1Zm12-2.5v11.3h-2v-16.1l11.3 11.5v-11.3h2v16.1l-11.3-11.5Zm23.7-4.6h2v15.9h-2v-15.9Zm7 0h4.7c3.1 0 5.1 1.8 5.1 4.5 0 1.9-1 3.8-3.8 4.3l5.5 7.1h-2.5l-5.3-6.9h-1.7v6.9h-2v-15.9Zm4.6 7.1c2.1 0 3.1-1 3.1-2.6 0-1.7-1.1-2.6-3.1-2.6h-2.6v5.3h2.6v-.1Zm10-7.1h9.2v2h-7.1v4.8h5.8v2h-5.8v5.2h7.1v2h-9.2v-16Zm13 0h2v13.9h7v2h-9v-15.9Zm18.8-.2 7.7 16.1h-2.2l-2-4.2h-7.2l-2 4.2h-2.2l7.9-16.1Zm2.7 10-2.7-5.7-2.7 5.7h5.4Zm10-5.2v11.3h-2v-16.1l11.3 11.5v-11.3h2v16.1l-11.3-11.5Zm16.2-4.6h4.7c4.9 0 8.5 3.4 8.5 7.9s-3.6 7.9-8.5 7.9h-4.7v-15.8Zm4.8 14c3.8 0 6.4-2.6 6.4-6s-2.6-6-6.4-6h-2.7v12.1h2.7v-.1Zm-244-2.5c0-2.3 1.7-3.6 3.4-4.5l.1-.1c-.9-.9-1.9-2.1-1.9-3.6 0-2.1 1.8-3.6 4-3.6 2.3 0 3.9 1.7 3.9 3.7s-1.5 3.1-3.1 3.9l3.4 3.3 1.7-2.2 1.2 1.2-1.7 2.2 4.1 4h-2.5l-2.7-2.7c-1.7 1.9-3.1 2.9-5.1 2.9-2.9.1-4.8-1.9-4.8-4.5Zm4.9 2.8c1.4 0 2.6-.8 3.8-2.3l-4-3.9-.3.2c-1.6.8-2.5 1.7-2.5 3.2 0 1.8 1.5 2.8 3 2.8Zm.3-8.2h.1c1.3-.6 2.3-1.3 2.3-2.5 0-1.3-.8-2.1-2.1-2.1-1.1 0-2.1.7-2.1 2 0 .9.8 1.6 1.8 2.6Zm-67.6-62c-.5-.3-1-.7-1.4-.9-2.1-1.1-4.5-1.6-7.4-1.6-8.7 0-15.3 7.1-15.3 15.7 0 8.7 6.6 15.7 15.3 15.7 4.4 0 7.8-.9 10.3-2.7v-8.3H49.8l-.2-9.7H71v22.7c-4.6 5.2-11.8 7.9-20.3 7.9-14.2 0-25.6-11.4-25.6-25.6 0-14.2 11.4-25.6 25.6-25.6 7 0 12.9 2.4 17.4 6.5l1 1-9.6 4.9Zm20.1-11.7h18.1c8.5 0 15.1 6.5 15.1 14.7 0 6.3-4 11.9-10.1 13.9l16.5 21.5h-12.3l-15.7-20.7h-1.3V177H79.7v-50.1h-.1Zm16.9 20.7c3.8 0 6.3-2.4 6.3-5.6 0-3.3-2.5-5.7-6.3-5.7h-6.7v11.4h6.7v-.1Zm27.4-20.7h30.6V137h-20.4v9.9h16.2v9.9h-16.2V167h20.4v10h-30.6v-50.1Zm59.9-.6 24.6 50.7h-10.8l-4.2-8.9h-19.3l-4.2 8.9h-10.8l24.7-50.7Zm5.4 33.3-5.6-12-5.6 12h11.2Zm24.6-22.6h-12.5v-10.1h35.3V137H224v40h-10.2v-40Z"/>
  <path fill="url(#a)" d="m261.6 126.9 5.1 10.1h157.7v-10.1H261.6Z"/>
  <path fill="url(#b)" d="M271.7 1.6h-10.1v100.2l10.1-5V1.6Z"/>
  <path fill="url(#c)" d="M399.4 91.7H266.7l-5.1 10.1h137.8V91.7Z"/>
  <path fill="url(#d)" d="M236.6 26.7h-10.1v70.1l10.1 5V26.7Z"/>
  <path fill="url(#e)" d="M0 91.7h231.5l5.1 10.1H0V91.7Z"/>
  <path fill="#fff" d="M271.7 177h-10.1v-50.1l10.1 5V177Z"/>
  <defs>
    <linearGradient id="a" x1="424.448" x2="261.626" y1="131.906" y2="131.906" gradientUnits="userSpaceOnUse">
      <stop stop-color="#fff" stop-opacity="0"/>
      <stop offset=".303" stop-color="#fff"/>
    </linearGradient>
    <linearGradient id="b" x1="266.671" x2="266.671" y1="1.614" y2="101.812" gradientUnits="userSpaceOnUse">
      <stop stop-color="#fff" stop-opacity="0"/>
      <stop offset=".492" stop-color="#fff"/>
    </linearGradient>
    <linearGradient id="c" x1="399.398" x2="261.626" y1="96.767" y2="96.767" gradientUnits="userSpaceOnUse">
      <stop stop-color="#fff" stop-opacity="0"/>
      <stop offset=".176" stop-color="#fff"/>
    </linearGradient>
    <linearGradient id="d" x1="231.531" x2="231.531" y1="26.663" y2="101.812" gradientUnits="userSpaceOnUse">
      <stop stop-color="#fff" stop-opacity="0"/>
      <stop offset=".323" stop-color="#fff"/>
    </linearGradient>
    <linearGradient id="e" x1="-.024" x2="236.576" y1="96.767" y2="96.767" gradientUnits="userSpaceOnUse">
      <stop stop-color="#fff" stop-opacity="0"/>
      <stop offset=".519" stop-color="#fff"/>
    </linearGradient>
  </defs>
</svg>
