<svg width="151" height="83" viewBox="0 0 151 83" fill="none" xmlns="http://www.w3.org/2000/svg">
<path fill-rule="evenodd" clip-rule="evenodd" d="M132.199 32.3877V34.1889H94.196V18.26H95.962V31.4341L122.31 18.26H125.63L97.3747 32.3877H103.944L132.199 18.26V23.2047L113.833 32.3877H132.199ZM132.199 57.5702V59.1949L110.549 48.3872H103.944L132.199 62.5149H122.31L95.962 49.3055V62.5149L94.1254 53.9324V46.586H132.199V48.3872H113.833L132.199 57.5702ZM43.7603 23.2047V21.5447L65.4109 32.3877H72.0156L43.7603 18.26H53.6496L79.9977 31.4341V18.26H81.7637V34.1889H43.7603V32.3877H62.1262L43.7603 23.2047Z" fill="#0B0C0C"/>
<path d="M9.92481 68.6957H11.7967C12.8916 68.6957 13.4567 69.3668 13.4567 70.1438C13.4567 70.7089 13.2448 71.0621 12.8563 71.3093C13.4214 71.5213 13.8099 71.9451 13.8099 72.7221C13.8099 73.7464 13.0329 74.3115 11.8674 74.3115H9.92481V68.6957ZM11.7614 71.0974C12.3618 71.0974 12.715 70.7089 12.715 70.2145C12.715 69.7553 12.3618 69.3315 11.7614 69.3315H10.6312V71.0974H11.7614ZM11.9733 73.6404C12.715 73.6404 13.1035 73.2519 13.1035 72.6868C13.1035 72.157 12.7503 71.7332 11.9733 71.7332H10.6312V73.6404H11.9733ZM15.1874 68.6957H16.8474C17.9423 68.6957 18.6486 69.3315 18.6486 70.2851C18.6486 70.9562 18.2954 71.6272 17.3065 71.8038L19.2491 74.3115H18.3661L16.4942 71.8745H15.8937V74.3115H15.1874V68.6957ZM16.812 71.2034C17.5537 71.2034 17.9069 70.8502 17.9069 70.2851C17.9069 69.6847 17.5184 69.3668 16.812 69.3668H15.8937V71.2387H16.812V71.2034ZM20.3793 68.6957H21.0857V74.3115H20.3793V68.6957ZM23.7699 69.3668H22.1806V68.6604H26.101V69.3668H24.5116V74.2762H23.8052V69.3668H23.7699ZM28.5027 68.6251L31.2223 74.3115H30.4452L29.7389 72.8281H27.1959L26.4895 74.3115H25.7125L28.5027 68.6251ZM29.4563 72.157L28.5027 70.1438L27.5491 72.157H29.4563ZM32.2818 68.6957H32.9882V74.3115H32.2818V68.6957ZM35.4606 70.3204V74.3115H34.7542V68.6251L38.7452 72.6868V68.6957H39.4516V74.3821L35.4606 70.3204ZM51.6014 70.3204V74.3115H50.895V68.6251L54.8861 72.6868V68.6957H55.5925V74.3821L51.6014 70.3204ZM56.864 71.4859C56.864 69.8613 58.1354 68.6251 59.7248 68.6251C61.3142 68.6251 62.5857 69.8613 62.5857 71.4859C62.5857 73.1106 61.3142 74.3468 59.7248 74.3468C58.1354 74.3468 56.864 73.1106 56.864 71.4859ZM61.844 71.4859C61.844 70.2498 60.9257 69.2962 59.7248 69.2962C58.4886 69.2962 57.6057 70.2498 57.6057 71.4859C57.6057 72.7221 58.524 73.6757 59.7248 73.6757C60.961 73.6757 61.844 72.7221 61.844 71.4859ZM63.8571 68.6957H65.5171C66.612 68.6957 67.3184 69.3315 67.3184 70.2851C67.3184 70.9562 66.9652 71.6272 65.9763 71.8038L67.9189 74.3115H67.0359L65.164 71.8745H64.5635V74.3115H63.8571V68.6957ZM65.4818 71.2034C66.2235 71.2034 66.5767 70.8502 66.5767 70.2851C66.5767 69.6847 66.1882 69.3668 65.4818 69.3668H64.5635V71.2387H65.4818V71.2034ZM69.8967 69.3668H68.3074V68.6604H72.2278V69.3668H70.6384V74.2762H69.932V69.3668H69.8967ZM73.3227 68.6957H74.0291V71.0974H77.1371V68.6957H77.8435V74.3115H77.1371V71.8038H74.0291V74.3115H73.3227V68.6957ZM79.6095 68.6957H82.8589V69.4021H80.3512V71.0974H82.3997V71.8038H80.3512V73.6404H82.8589V74.3468H79.6095V68.6957ZM84.2363 68.6957H85.8963C86.9912 68.6957 87.6976 69.3315 87.6976 70.2851C87.6976 70.9562 87.3444 71.6272 86.3554 71.8038L88.298 74.3115H87.415L85.5431 71.8745H84.9427V74.3115H84.2363V68.6957ZM85.861 71.2034C86.6027 71.2034 86.9559 70.8502 86.9559 70.2851C86.9559 69.6847 86.5674 69.3668 85.861 69.3668H84.9427V71.2387H85.861V71.2034ZM90.0993 70.3204V74.3115H89.3929V68.6251L93.384 72.6868V68.6957H94.0903V74.3821L90.0993 70.3204ZM98.4699 68.6957H99.1763V74.3115H98.4699V68.6957ZM100.942 68.6957H102.602C103.697 68.6957 104.404 69.3315 104.404 70.2851C104.404 70.9562 104.05 71.6272 103.061 71.8038L105.004 74.3115H104.121L102.249 71.8745H101.649V74.3115H100.942V68.6957ZM102.567 71.2034C103.309 71.2034 103.662 70.8502 103.662 70.2851C103.662 69.6847 103.273 69.3668 102.567 69.3668H101.649V71.2387H102.567V71.2034ZM106.099 68.6957H109.348V69.4021H106.841V71.0974H108.889V71.8038H106.841V73.6404H109.348V74.3468H106.099V68.6957ZM110.69 68.6957H111.397V73.6051H113.869V74.3115H110.69V68.6957ZM117.33 68.6251L120.05 74.3115H119.273L118.567 72.8281H116.024L115.317 74.3115H114.54L117.33 68.6251ZM118.284 72.157L117.33 70.1438L116.377 72.157H118.284ZM121.816 70.3204V74.3115H121.109V68.6251L125.101 72.6868V68.6957H125.807V74.3821L121.816 70.3204ZM127.538 68.6957H129.198C130.928 68.6957 132.2 69.8966 132.2 71.4859C132.2 73.0753 130.928 74.2762 129.198 74.2762H127.538V68.6957ZM129.233 73.6404C130.575 73.6404 131.493 72.7221 131.493 71.5213C131.493 70.3204 130.575 69.4021 129.233 69.4021H128.279V73.6757H129.233V73.6404ZM43.0542 72.7574C43.0542 71.9451 43.6546 71.4859 44.255 71.1681L44.2903 71.1328C43.9725 70.8149 43.6193 70.3911 43.6193 69.8613C43.6193 69.1196 44.255 68.5898 45.032 68.5898C45.8444 68.5898 46.4095 69.1902 46.4095 69.8966C46.4095 70.603 45.8797 70.9915 45.3146 71.274L46.5154 72.4396L47.1159 71.6625L47.5397 72.0864L46.9393 72.8634L48.3874 74.2762H47.5044L46.5508 73.3225C45.9503 73.9936 45.4559 74.3468 44.7495 74.3468C43.7252 74.3821 43.0542 73.6757 43.0542 72.7574ZM44.7848 73.7464C45.2793 73.7464 45.7031 73.4638 46.1269 72.934L44.7142 71.5566L44.6082 71.6272C44.0431 71.9098 43.7252 72.2276 43.7252 72.7574C43.7252 73.3932 44.255 73.7464 44.7848 73.7464ZM44.8908 70.8502H44.9261C45.3852 70.6383 45.7384 70.3911 45.7384 69.9672C45.7384 69.5081 45.4559 69.2255 44.9967 69.2255C44.6082 69.2255 44.255 69.4728 44.255 69.9319C44.255 70.2498 44.5376 70.497 44.8908 70.8502ZM21.015 48.9523C20.8384 48.8464 20.6618 48.7051 20.5206 48.6345C19.7789 48.2459 18.9312 48.0694 17.9069 48.0694C14.8342 48.0694 12.5031 50.577 12.5031 53.6145C12.5031 56.6872 14.8342 59.1596 17.9069 59.1596C19.461 59.1596 20.6618 58.8417 21.5448 58.2059V55.2745H17.5891L17.5184 51.8485H25.0767V59.8659C23.452 61.7025 20.9091 62.6562 17.9069 62.6562C12.8916 62.6562 8.86523 58.6298 8.86523 53.6145C8.86523 48.5991 12.8916 44.5728 17.9069 44.5728C20.3793 44.5728 22.4631 45.4204 24.0525 46.8685L24.4057 47.2217L21.015 48.9523ZM28.1142 44.82H34.5069C37.5091 44.82 39.8401 47.1157 39.8401 50.0119C39.8401 52.237 38.4274 54.2149 36.2729 54.9213L42.1006 62.5149H37.7563L32.2112 55.2038H31.752V62.5149H28.1495V44.82H28.1142ZM34.0831 52.1311C35.4252 52.1311 36.3082 51.2834 36.3082 50.1532C36.3082 48.9876 35.4252 48.14 34.0831 48.14H31.7167V52.1664H34.0831V52.1311ZM43.7606 44.82H54.5682V48.3872H47.3631V51.8838H53.0848V55.3804H47.3631V58.983H54.5682V62.5149H43.7606V44.82ZM64.9167 44.6081L73.6052 62.5149H69.7908L68.3074 59.3715H61.4908L60.0074 62.5149H56.1929L64.9167 44.6081ZM66.824 56.3694L64.8461 52.1311L62.8682 56.3694H66.824ZM75.5125 48.3872H71.0976V44.82H83.5652V48.3872H79.115V62.5149H75.5125V48.3872Z" fill="#0B0C0C"/>
<path d="M92.395 44.82L94.1963 48.3872H149.895V44.82H92.395Z" fill="url(#paint0_linear_1283_39369)"/>
<path d="M95.9623 0.565125H92.395V35.9549L95.9623 34.189V0.565125Z" fill="url(#paint1_linear_1283_39369)"/>
<path d="M141.065 32.3876H94.1963L92.395 35.9549H141.065V32.3876Z" fill="url(#paint2_linear_1283_39369)"/>
<path d="M83.5653 9.43024H79.998V34.189L83.5653 35.9549V9.43024Z" fill="url(#paint3_linear_1283_39369)"/>
<path d="M0 32.3876H81.7638L83.5651 35.9549H0V32.3876Z" fill="url(#paint4_linear_1283_39369)"/>
<path d="M95.9623 62.5149H92.395V44.82L95.9623 46.586V62.5149Z" fill="#0B0C0C"/>
<defs>
<linearGradient id="paint0_linear_1283_39369" x1="149.912" y1="46.5881" x2="92.4042" y2="46.5881" gradientUnits="userSpaceOnUse">
<stop stop-color="#0B0C0C" stop-opacity="0"/>
<stop offset="0.303" stop-color="#0B0C0C"/>
</linearGradient>
<linearGradient id="paint1_linear_1283_39369" x1="94.1861" y1="0.570069" x2="94.1861" y2="35.9592" gradientUnits="userSpaceOnUse">
<stop stop-color="#0B0C0C" stop-opacity="0"/>
<stop offset="0.492" stop-color="#0B0C0C"/>
</linearGradient>
<linearGradient id="paint2_linear_1283_39369" x1="141.064" y1="34.1773" x2="92.4042" y2="34.1773" gradientUnits="userSpaceOnUse">
<stop stop-color="#0B0C0C" stop-opacity="0"/>
<stop offset="0.176" stop-color="#0B0C0C"/>
</linearGradient>
<linearGradient id="paint3_linear_1283_39369" x1="81.775" y1="9.41717" x2="81.775" y2="35.9592" gradientUnits="userSpaceOnUse">
<stop stop-color="#0B0C0C" stop-opacity="0"/>
<stop offset="0.323" stop-color="#0B0C0C"/>
</linearGradient>
<linearGradient id="paint4_linear_1283_39369" x1="-0.0084766" y1="34.1773" x2="83.5566" y2="34.1773" gradientUnits="userSpaceOnUse">
<stop stop-color="#0B0C0C" stop-opacity="0"/>
<stop offset="0.519" stop-color="#0B0C0C"/>
</linearGradient>
</defs>
</svg>
