<svg width="474" height="234" viewBox="0 0 474 234" fill="none" xmlns="http://www.w3.org/2000/svg">
<g clip-path="url(#clip0_185_65)">
<path d="M423.37 50.1001L343.36 90.1101H324.68L404.7 50.1001H395.37L320.74 87.4101V50.1001H315.7V95.1501H423.37V90.1101H371.36L423.37 64.1001V50.1001Z" fill="white"/>
<path d="M423.37 130.29H315.49V151.06L320.74 175.35V138.03L395.37 175.35H423.37L343.36 135.34H362.03L423.37 166.01V161.34L371.36 135.34H423.37V130.29Z" fill="white"/>
<path d="M275.51 50.1001V87.4101L200.88 50.1001H172.88L252.89 90.1101H234.22L172.88 59.4301V63.6101L224.89 90.1101H172.88V95.1501H280.56V50.1001H275.51Z" fill="white"/>
<path d="M77.11 192.86H82.41C85.47 192.86 87.09 194.76 87.09 197C87.09 198.61 86.46 199.62 85.43 200.31C87 200.91 88.14 202.12 88.14 204.27C88.14 207.16 85.93 208.74 82.66 208.74H77.11V192.86ZM82.37 199.71C84.05 199.71 85.05 198.64 85.05 197.23C85.05 195.82 84.04 194.75 82.37 194.75H79.15V199.72H82.37V199.71ZM82.91 206.87C85.06 206.87 86.09 205.73 86.09 204.19C86.09 202.65 85.06 201.46 82.91 201.46H79.15V206.87H82.91ZM92.07 192.87H96.79C99.9 192.87 101.89 194.64 101.89 197.34C101.89 199.2 100.88 201.14 98.11 201.68L103.61 208.75H101.15L95.85 201.82H94.11V208.75H92.07V192.87ZM96.66 200.01C98.74 200.01 99.79 199.03 99.79 197.39C99.79 195.75 98.74 194.75 96.66 194.75H94.11V200.01H96.66ZM106.69 192.87H108.73V208.75H106.69V192.87ZM116.34 194.84H111.84V192.87H122.89V194.84H118.37V208.75H116.33V194.84H116.34ZM129.76 192.69L137.5 208.75H135.31L133.34 204.59H126.18L124.21 208.75H122.02L129.76 192.69ZM132.44 202.71L129.76 197.03L127.08 202.71H132.45H132.44ZM140.41 192.87H142.45V208.75H140.41V192.87ZM149.43 197.46V208.76H147.39V192.7L158.71 204.18V192.88H160.75V208.94L149.43 197.46ZM195.1 197.46V208.76H193.06V192.7L204.38 204.18V192.88H206.42V208.94L195.1 197.46ZM210 200.82C210 196.21 213.58 192.7 218.12 192.7C222.66 192.7 226.24 196.21 226.24 200.82C226.24 205.43 222.66 208.94 218.12 208.94C213.58 208.94 210 205.43 210 200.82ZM224.16 200.82C224.16 197.33 221.59 194.65 218.12 194.65C214.65 194.65 212.08 197.33 212.08 200.82C212.08 204.31 214.65 206.99 218.12 206.99C221.59 206.99 224.16 204.31 224.16 200.82ZM229.82 192.88H234.54C237.65 192.88 239.64 194.65 239.64 197.35C239.64 199.21 238.63 201.15 235.86 201.69L241.36 208.76H238.9L233.6 201.83H231.86V208.76H229.82V192.88ZM234.41 200.02C236.49 200.02 237.54 199.04 237.54 197.4C237.54 195.76 236.49 194.76 234.41 194.76H231.86V200.02H234.41ZM246.92 194.85H242.42V192.88H253.47V194.85H248.95V208.76H246.91V194.85H246.92ZM256.6 192.88H258.64V199.66H267.41V192.88H269.45V208.76H267.41V201.62H258.64V208.76H256.6V192.88ZM274.39 192.88H283.56V194.85H276.42V199.66H282.21V201.63H276.42V206.8H283.56V208.77H274.39V192.89V192.88ZM287.52 192.88H292.24C295.35 192.88 297.34 194.65 297.34 197.35C297.34 199.21 296.33 201.15 293.56 201.69L299.06 208.76H296.6L291.3 201.83H289.56V208.76H287.52V192.88ZM292.11 200.02C294.19 200.02 295.24 199.04 295.24 197.4C295.24 195.76 294.19 194.76 292.11 194.76H289.56V200.02H292.11ZM304.17 197.47V208.77H302.13V192.71L313.45 204.19V192.89H315.49V208.95L304.17 197.47ZM327.86 192.88H329.9V208.76H327.86V192.88ZM334.84 192.88H339.56C342.67 192.88 344.66 194.65 344.66 197.35C344.66 199.21 343.65 201.15 340.88 201.69L346.38 208.76H343.92L338.62 201.83H336.88V208.76H334.84V192.88ZM339.43 200.02C341.51 200.02 342.56 199.04 342.56 197.4C342.56 195.76 341.51 194.76 339.43 194.76H336.88V200.02H339.43ZM349.46 192.88H358.63V194.85H351.49V199.66H357.28V201.63H351.49V206.8H358.63V208.77H349.46V192.89V192.88ZM362.39 192.88H364.43V206.77H371.39V208.76H362.4V192.88H362.39ZM381.21 192.7L388.95 208.76H386.76L384.79 204.6H377.63L375.66 208.76H373.47L381.21 192.7ZM383.89 202.72L381.21 197.04L378.53 202.72H383.9H383.89ZM393.89 197.46V208.76H391.85V192.7L403.17 204.18V192.88H405.21V208.94L393.89 197.46ZM410.17 192.87H414.89C419.79 192.87 423.37 196.27 423.37 200.81C423.37 205.35 419.79 208.75 414.89 208.75H410.17V192.87ZM414.89 206.85C418.74 206.85 421.29 204.28 421.29 200.81C421.29 197.34 418.74 194.77 414.89 194.77H412.21V206.85H414.89ZM170.89 204.41C170.89 202.11 172.59 200.83 174.27 199.87L174.4 199.78C173.46 198.86 172.45 197.7 172.45 196.2C172.45 194.07 174.24 192.6 176.5 192.6C178.76 192.6 180.42 194.28 180.42 196.29C180.42 198.3 178.92 199.38 177.35 200.18L180.77 203.51L182.49 201.32L183.72 202.53L182 204.72L186.14 208.75H183.63L180.9 206.09C179.22 208.04 177.81 208.98 175.75 208.98C172.84 208.98 170.87 207.03 170.87 204.42L170.89 204.41ZM175.83 207.23C177.26 207.23 178.38 206.47 179.68 204.9L175.7 201.03L175.36 201.21C173.79 202.04 172.83 202.91 172.83 204.43C172.83 206.2 174.28 207.23 175.83 207.23ZM176.1 198.97L176.21 198.93C177.49 198.28 178.54 197.63 178.54 196.42C178.54 195.21 177.71 194.27 176.46 194.27C175.32 194.27 174.31 195.01 174.31 196.24C174.31 197.29 175.07 198.01 176.1 198.97Z" fill="white"/>
<path d="M108.48 137.03C107.99 136.68 107.5 136.35 107.1 136.15C105.02 135.08 102.6 134.56 99.66 134.56C90.91 134.56 84.35 141.62 84.35 150.3C84.35 158.98 90.91 166.04 99.66 166.04C104.03 166.04 107.49 165.12 109.96 163.36V155.03H98.79L98.61 145.36H119.98V168.01C115.39 173.16 108.2 175.91 99.66 175.91C85.48 175.91 74.05 164.48 74.05 150.3C74.05 136.12 85.48 124.69 99.66 124.69C106.64 124.69 112.59 127.08 117.08 131.17C117.38 131.44 117.75 131.82 118.12 132.22L108.47 137.04L108.48 137.03ZM128.64 125.25H146.7C155.24 125.25 161.8 131.74 161.8 140C161.8 146.28 157.85 151.85 151.71 153.9L168.22 175.35H155.94L140.2 154.68H138.86V175.35H128.63V125.25H128.64ZM145.57 146C149.38 146 151.85 143.6 151.85 140.35C151.85 137.1 149.38 134.63 145.57 134.63H138.87V145.99H145.57V146ZM172.87 125.25H203.49V135.34H183.1V145.22H199.26V155.1H183.1V165.26H203.49V175.35H172.87V125.25ZM232.77 124.69L257.4 175.35H246.6L242.44 166.46H223.11L218.95 175.35H208.15L232.78 124.69H232.77ZM238.17 157.99L232.53 145.99L226.88 157.99H238.17ZM262.79 135.34H250.3V125.25H285.58V135.34H273.02V175.35H262.79V135.34Z" fill="white"/>
<path d="M310.65 125.25L315.7 135.34H473.47V125.25H310.65Z" fill="url(#paint0_linear_185_65)"/>
<path d="M320.74 0H310.65V50.09V100.2L320.74 95.15V0Z" fill="url(#paint1_linear_185_65)"/>
<path d="M448.42 90.1101H315.7L310.65 100.2H448.42V90.1101Z" fill="url(#paint2_linear_185_65)"/>
<path d="M285.59 25.05H275.51V95.1501L285.6 100.2L285.59 25.05Z" fill="url(#paint3_linear_185_65)"/>
<path d="M49 90.1101H280.56L285.6 100.2H49V90.1101Z" fill="url(#paint4_linear_185_65)"/>
<path d="M320.74 175.35H310.65V125.25L320.74 130.29V175.35Z" fill="white"/>
</g>
<defs>
<linearGradient id="paint0_linear_185_65" x1="473.47" y1="130.29" x2="310.65" y2="130.29" gradientUnits="userSpaceOnUse">
<stop stop-color="white" stop-opacity="0"/>
<stop offset="0.3" stop-color="white"/>
</linearGradient>
<linearGradient id="paint1_linear_185_65" x1="315.7" y1="0" x2="315.7" y2="100.2" gradientUnits="userSpaceOnUse">
<stop stop-color="white" stop-opacity="0"/>
<stop offset="0.49" stop-color="white"/>
</linearGradient>
<linearGradient id="paint2_linear_185_65" x1="448.42" y1="95.1501" x2="310.65" y2="95.1501" gradientUnits="userSpaceOnUse">
<stop stop-color="white" stop-opacity="0"/>
<stop offset="0.18" stop-color="white"/>
</linearGradient>
<linearGradient id="paint3_linear_185_65" x1="280.56" y1="25.05" x2="280.56" y2="100.2" gradientUnits="userSpaceOnUse">
<stop stop-color="white" stop-opacity="0"/>
<stop offset="0.32" stop-color="white"/>
</linearGradient>
<linearGradient id="paint4_linear_185_65" x1="49" y1="95.1501" x2="285.6" y2="95.1501" gradientUnits="userSpaceOnUse">
<stop stop-color="white" stop-opacity="0"/>
<stop offset="0.52" stop-color="white"/>
</linearGradient>
<clipPath id="clip0_185_65">
<rect width="474" height="234" fill="white"/>
</clipPath>
</defs>
</svg>
