<?xml version="1.0" encoding="UTF-8"?>
<svg width="40px" height="40px" viewBox="0 0 40 40" version="1.1" xmlns="http://www.w3.org/2000/svg" xmlns:xlink="http://www.w3.org/1999/xlink">
    <title>icon/tick-in-circle-dark</title>
    <g id="icon/tick-in-circle-dark" stroke="none" stroke-width="1" fill="none" fill-rule="evenodd">
        <path d="M30.0161,15.5355 L18.7691,27.7235 C18.3761,28.1485 17.8301,28.4015 17.2501,28.4235 C17.2221,28.4255 17.1941,28.4255 17.1661,28.4255 C16.6171,28.4255 16.0861,28.2185 15.6821,27.8435 L10.8061,23.3205 C9.9221,22.5005 9.8701,21.1205 10.6891,20.2365 C11.5091,19.3525 12.8891,19.3025 13.7731,20.1205 L17.0461,23.1565 L26.8091,12.5765 C27.6271,11.6905 29.0071,11.6355 29.8921,12.4525 C30.7781,13.2695 30.8331,14.6495 30.0161,15.5355 M19.9991,0.0005 C8.9531,0.0005 0.0001,8.9545 0.0001,20.0015 C0.0001,31.0465 8.9531,40.0005 19.9991,40.0005 C31.0441,40.0005 40.0001,31.0465 40.0001,20.0015 C40.0001,8.9545 31.0441,0.0005 19.9991,0.0005" id="Fill-1" fill="#000000"/>
    </g>
</svg>