<svg width="100" height="100" viewBox="0 0 100 100" fill="none" xmlns="http://www.w3.org/2000/svg">
<path fill-rule="evenodd" clip-rule="evenodd" d="M10.5938 71.4141L10.5938 45.8841H77.6098V71.4141H10.5938Z" fill="#DFD5C5"/>
<path fill-rule="evenodd" clip-rule="evenodd" d="M9 25.9186L9 45.8834H79.2073V25.9186C79.2073 21.9638 76.0013 18.7578 72.0465 18.7578L16.1608 18.7578C12.206 18.7578 9 21.9638 9 25.9186Z" fill="#EEF2F6"/>
<path fill-rule="evenodd" clip-rule="evenodd" d="M9.19531 18.9545L79.0134 18.9545V67.4458C79.0134 68.9288 78.4123 70.2715 77.4404 71.2434C76.4685 72.2153 75.1259 72.8164 73.6428 72.8164H14.5659C13.0829 72.8164 11.7402 72.2153 10.7683 71.2434C9.79644 70.2715 9.19531 68.9288 9.19531 67.4458L9.19531 18.9545Z" stroke="#333333" stroke-width="2.5"/>
<path d="M17.8612 28.6777H16.2656" stroke="#333333" stroke-width="2.5" stroke-linecap="round"/>
<path d="M24.25 28.6777H30.6322" stroke="#333333" stroke-width="2.5" stroke-linecap="round"/>
<path d="M81.3055 18.9531H6.8951C6.40075 18.9531 6 19.3539 6 19.8482C6 20.3426 6.40075 20.7433 6.8951 20.7433H81.3055C81.7999 20.7433 82.2006 20.3426 82.2006 19.8482C82.2006 19.3539 81.7999 18.9531 81.3055 18.9531Z" fill="white" stroke="#333333" stroke-width="3"/>
<path d="M33.7262 73.0098L27.3438 90.5616" stroke="#333333" stroke-width="2.5" stroke-linecap="round" stroke-linejoin="round"/>
<path fill-rule="evenodd" clip-rule="evenodd" d="M72.25 10V79.8181C72.25 85.7504 67.441 90.5594 61.5087 90.5594H60.6136C54.1871 90.5594 48.9773 85.3496 48.9773 78.923V57.9914L51.8864 49.5223L58.1333 41.5685L65.1415 38.2154L58.4353 29.1531L58.2541 18.9126L65.4164 11.4693L72.25 10Z" fill="#EEF2F6"/>
<path fill-rule="evenodd" clip-rule="evenodd" d="M70.4453 10V79.8181C70.4453 85.7504 75.2543 90.5594 81.1866 90.5594H82.0817C88.5083 90.5594 93.718 85.3496 93.718 78.923V57.9914L90.8089 49.5223L82.0817 41.0532L79.1726 38.2302L84.9908 29.7611L85.6621 18.0604L76.2635 10H70.4453Z" fill="#DFD5C5"/>
<path d="M48.9688 90.5625V60.3655C48.9688 50.0948 55.7651 41.4209 65.0806 38.6465" stroke="#333333" stroke-width="2.5" stroke-linecap="round" stroke-linejoin="round"/>
<path d="M78.1406 38.9395C87.4604 41.7365 93.7266 50.1001 93.7266 60.3501V90.5589" stroke="#333333" stroke-width="2.5" stroke-linecap="round" stroke-linejoin="round"/>
<path d="M59.7109 83.3993V63.707" stroke="#333333" stroke-width="2.5" stroke-linecap="round" stroke-linejoin="round"/>
<path fill-rule="evenodd" clip-rule="evenodd" d="M72.2514 40.4335C80.161 40.4335 86.573 31.4734 86.573 23.8334C86.573 16.1934 80.161 10 72.2514 10C64.3417 10 57.9297 16.1934 57.9297 23.8334C57.9297 31.4734 64.3417 40.4335 72.2514 40.4335Z" stroke="#333333" stroke-width="2.5" stroke-linecap="round" stroke-linejoin="round"/>
</svg>
