<svg width="28" height="28" viewBox="0 0 28 28" fill="none" xmlns="http://www.w3.org/2000/svg">
<path d="M13.9998 27.3327C12.1332 27.3327 10.3887 26.9827 8.7665 26.2827C7.14428 25.5827 5.73317 24.6327 4.53317 23.4327C3.33317 22.2327 2.38873 20.816 1.69984 19.1827C1.01095 17.5493 0.666504 15.7993 0.666504 13.9327C0.666504 12.066 1.01095 10.3271 1.69984 8.71601C2.38873 7.1049 3.33317 5.69935 4.53317 4.49935C5.73317 3.29935 7.14428 2.36046 8.7665 1.68268C10.3887 1.0049 12.1332 0.666016 13.9998 0.666016C15.8665 0.666016 17.6109 1.0049 19.2332 1.68268C20.8554 2.36046 22.2665 3.29935 23.4665 4.49935C24.6665 5.69935 25.6109 7.1049 26.2998 8.71601C26.9887 10.3271 27.3332 12.066 27.3332 13.9327C27.3332 15.7993 26.9887 17.5493 26.2998 19.1827C25.6109 20.816 24.6665 22.2327 23.4665 23.4327C22.2665 24.6327 20.8554 25.5827 19.2332 26.2827C17.6109 26.9827 15.8665 27.3327 13.9998 27.3327ZM13.9998 25.3993C14.7776 24.5993 15.4276 23.6827 15.9498 22.6493C16.4721 21.616 16.8998 20.3882 17.2332 18.966H10.7998C11.1109 20.2993 11.5276 21.4993 12.0498 22.566C12.5721 23.6327 13.2221 24.5771 13.9998 25.3993ZM11.1665 24.9993C10.6109 24.1549 10.1332 23.2438 9.73317 22.266C9.33317 21.2882 8.99984 20.1882 8.73317 18.966H3.73317C4.57761 20.5438 5.55539 21.7827 6.6665 22.6827C7.77761 23.5827 9.27761 24.3549 11.1665 24.9993ZM16.8665 24.966C18.4665 24.4549 19.9054 23.6882 21.1832 22.666C22.4609 21.6438 23.4887 20.4105 24.2665 18.966H19.2998C19.0109 20.166 18.6721 21.2549 18.2832 22.2327C17.8943 23.2105 17.4221 24.1216 16.8665 24.966ZM3.0665 16.966H8.3665C8.29984 16.366 8.26095 15.8271 8.24984 15.3493C8.23873 14.8716 8.23317 14.3993 8.23317 13.9327C8.23317 13.3771 8.24428 12.8827 8.2665 12.4493C8.28873 12.016 8.33317 11.5327 8.39984 10.9993H3.0665C2.91095 11.5327 2.80539 12.0105 2.74984 12.4327C2.69428 12.8549 2.6665 13.3549 2.6665 13.9327C2.6665 14.5105 2.69428 15.0271 2.74984 15.4827C2.80539 15.9382 2.91095 16.4327 3.0665 16.966ZM10.4332 16.966H17.5998C17.6887 16.2771 17.7443 15.716 17.7665 15.2827C17.7887 14.8493 17.7998 14.3993 17.7998 13.9327C17.7998 13.4882 17.7887 13.0605 17.7665 12.6493C17.7443 12.2382 17.6887 11.6882 17.5998 10.9993H10.4332C10.3443 11.6882 10.2887 12.2382 10.2665 12.6493C10.2443 13.0605 10.2332 13.4882 10.2332 13.9327C10.2332 14.3993 10.2443 14.8493 10.2665 15.2827C10.2887 15.716 10.3443 16.2771 10.4332 16.966ZM19.5998 16.966H24.9332C25.0887 16.4327 25.1943 15.9382 25.2498 15.4827C25.3054 15.0271 25.3332 14.5105 25.3332 13.9327C25.3332 13.3549 25.3054 12.8549 25.2498 12.4327C25.1943 12.0105 25.0887 11.5327 24.9332 10.9993H19.6332C19.6998 11.7771 19.7443 12.3716 19.7665 12.7827C19.7887 13.1938 19.7998 13.5771 19.7998 13.9327C19.7998 14.4216 19.7832 14.8827 19.7498 15.316C19.7165 15.7493 19.6665 16.2993 19.5998 16.966ZM19.2665 8.99935H24.2665C23.5332 7.46602 22.5276 6.18824 21.2498 5.16602C19.9721 4.14379 18.4998 3.42157 16.8332 2.99935C17.3887 3.82157 17.8609 4.71046 18.2498 5.66602C18.6387 6.62157 18.9776 7.73268 19.2665 8.99935ZM10.7998 8.99935H17.2665C17.0221 7.82157 16.6109 6.68268 16.0332 5.58268C15.4554 4.48268 14.7776 3.51046 13.9998 2.66602C13.2887 3.26602 12.6887 4.0549 12.1998 5.03268C11.7109 6.01046 11.2443 7.33268 10.7998 8.99935ZM3.73317 8.99935H8.7665C9.01095 7.79935 9.32206 6.72713 9.69984 5.78268C10.0776 4.83824 10.5554 3.92157 11.1332 3.03268C9.4665 3.4549 8.01095 4.16602 6.7665 5.16602C5.52206 6.16602 4.51095 7.44379 3.73317 8.99935Z" fill="white"/>
</svg>
