<svg xmlns="http://www.w3.org/2000/svg" width="114" height="114" fill="none" viewBox="0 0 114 114"><path fill="#DFD5C5" fill-rule="evenodd" d="M12.235 81.012V51.907h76.4v29.105h-76.4Z" clip-rule="evenodd"/><path fill="#EEF2F6" fill-rule="evenodd" d="M10.422 29.147v22.76H90.46v-22.76a8.163 8.163 0 0 0-8.164-8.163h-63.71a8.163 8.163 0 0 0-8.164 8.163Z" clip-rule="evenodd"/><path fill-rule="evenodd" stroke="#333333" stroke-width="4" d="M10.64 21.206h79.595v55.281c0 1.69-.685 3.221-1.793 4.33a6.103 6.103 0 0 1-4.33 1.793H16.763a6.103 6.103 0 0 1-4.33-1.794 6.103 6.103 0 0 1-1.792-4.329V21.206Z" clip-rule="evenodd"/><path stroke="#333333" stroke-linecap="round" stroke-width="4" d="M20.515 32.293h-1.82"/><path stroke="#333333" stroke-linecap="round" stroke-width="4" d="M27.798 32.293h7.276"/><path fill="white" stroke="#333333" stroke-width="4" d="M92.85 21.206H8.02a1.02 1.02 0 0 0 0 2.041h84.83a1.02 1.02 0 0 0 0-2.04Z"/><path stroke="#333333" stroke-linecap="round" stroke-linejoin="round" stroke-width="4" d="m38.614 82.832-7.277 20.01"/><path fill="#EEF2F6" fill-rule="evenodd" d="M82.522 11v79.594c0 6.763-5.482 12.246-12.245 12.246h-1.02c-7.327 0-13.266-5.94-13.266-13.266V65.71l3.316-9.655 7.122-9.067 7.99-3.823-7.646-10.331-.207-11.674 8.165-8.486L82.522 11Z" clip-rule="evenodd"/><path fill="#DFD5C5" fill-rule="evenodd" d="M80.467 11v79.594c0 6.763 5.483 12.246 12.246 12.246h1.02c7.326 0 13.266-5.94 13.266-13.266V65.71l-3.317-9.655-9.949-9.655-3.316-3.218 6.632-9.655.766-13.339L87.1 11h-6.633Z" clip-rule="evenodd"/><path stroke="#333333" stroke-linecap="round" stroke-linejoin="round" stroke-width="4" d="M55.981 102.841V68.416c0-11.709 7.748-21.597 18.368-24.76"/><path stroke="#333333" stroke-linecap="round" stroke-linejoin="round" stroke-width="4" d="M89.233 43.992C99.858 47.18 107 56.715 107 68.4v34.438"/><path stroke="#333333" stroke-linecap="round" stroke-linejoin="round" stroke-width="4" d="M68.224 94.675v-22.45"/><path fill-rule="evenodd" stroke="#333333" stroke-linecap="round" stroke-linejoin="round" stroke-width="4" d="M82.52 45.695c9.017 0 16.327-10.215 16.327-18.925S91.537 11 82.52 11c-9.017 0-16.327 7.06-16.327 15.77s7.31 18.925 16.327 18.925Z" clip-rule="evenodd"/></svg>
