<?xml version="1.0" encoding="UTF-8"?>
<svg width="24px" height="30px" viewBox="0 0 24 30" version="1.1" xmlns="http://www.w3.org/2000/svg" xmlns:xlink="http://www.w3.org/1999/xlink">
    <title>BD4192DA-F950-43EA-A6F1-46A194B17A2C</title>
    <g id="Sign-up-and-Log-in-flows_final" stroke="none" stroke-width="1" fill="none" fill-rule="evenodd">
        <g id="Low-value_-Beta-Dashboard---Provide-details-msg-notification-on-top" transform="translate(-281.000000, -1852.000000)" fill="#FFFFFF" fill-rule="nonzero">
            <path d="M292.738523,1852 C288.137105,1852 284.343138,1855.37157 283.712562,1859.8263 C283.705793,1859.82674 283.700333,1859.82717 283.689633,1859.8263 L283.674566,1860.07328 C283.635041,1860.42048 283.608618,1860.77183 283.608618,1861.13039 L283.608618,1862.43492 C282.167628,1862.43492 281,1863.60886 281,1865.04354 L281,1879.39138 C281,1880.82605 282.168075,1882 283.608618,1882 L301.869614,1882 C303.311051,1882 304.478232,1880.82605 304.478232,1879.39138 L304.478232,1865.04354 C304.478232,1863.60886 303.310604,1862.43492 301.869614,1862.43492 L301.869614,1861.13039 C301.869614,1860.77139 301.843191,1860.42071 301.803666,1860.07328 L301.788599,1859.8263 C301.777899,1859.82717 301.77244,1859.82674 301.76567,1859.8263 C301.135261,1855.37157 297.340903,1852 292.739709,1852 L292.738523,1852 Z M292.738523,1855.91315 C293.098611,1855.91315 293.451275,1855.95071 293.790601,1856.02037 C295.488853,1856.36954 296.885959,1857.54656 297.54566,1859.1055 C297.676684,1859.41602 297.779533,1859.74094 297.848974,1860.07898 C297.918852,1860.41941 297.956195,1860.77054 297.956195,1861.13106 L297.956195,1862.43559 L287.521499,1862.43559 L287.521499,1861.13106 C287.521499,1860.77097 287.574344,1860.41109 287.643785,1860.0711 C287.74205,1859.58938 287.922642,1859.14128 288.143193,1858.7181 C288.210231,1858.59144 288.270281,1858.46129 288.347146,1858.34098 C288.426415,1858.2152 288.51791,1858.0999 288.606784,1857.98198 C288.713344,1857.842 288.822969,1857.70509 288.943287,1857.5769 C289.028012,1857.4865 289.117327,1857.40134 289.208386,1857.31727 C289.357969,1857.17882 289.51454,1857.04824 289.679842,1856.92748 C289.769375,1856.86197 289.858902,1856.7958 289.952365,1856.73619 C290.134265,1856.62023 290.326647,1856.52087 290.523182,1856.42807 C290.616645,1856.38352 290.70705,1856.33417 290.803565,1856.29552 C291.01582,1856.20992 291.238333,1856.14878 291.46349,1856.09157 C291.557389,1856.06755 291.647358,1856.03392 291.743873,1856.01536 C292.066618,1855.95268 292.398766,1855.9136 292.739825,1855.9136 L292.738523,1855.91315 Z" id="Shape"></path>
        </g>
    </g>
</svg>
