<svg version="1.1" id="Layer_1" xmlns="http://www.w3.org/2000/svg" x="0" y="0" viewBox="0 0 150 77" xml:space="preserve">
  <style>
    .st0{fill:#fff}.st2{fill:#1c1448}.st3{fill:#b01f26}
  </style>
  <g fill="#1E1348">
    <path d="M19.22 18.43V.39h12.52v3.53h-8.92v3.12H28v3.5h-5.18v4.35h9.3v3.53h-12.9zM44.11 18.43l-1.62-2.73c-.64-1.08-1.62-2.86-1.96-3.53-.31.67-1.29 2.4-1.96 3.53l-1.62 2.73h-4.3l5.72-9.22L32.9.39h4.3l1.37 2.32c.64 1.08 1.62 2.86 1.96 3.53.33-.67 1.29-2.4 1.96-3.53L43.86.39h4.3L42.67 9.2l5.75 9.22h-4.31zM56.94 12.04h-3.97v6.39h-3.61V.39h7.88c3.4 0 6.21 1.88 6.21 5.72.01 4.18-2.77 5.93-6.51 5.93zm.18-8.14h-4.15v4.64h4.2c1.67 0 2.58-.77 2.58-2.34s-1.03-2.3-2.63-2.3zM72.58 18.71c-4.72 0-7.94-3.45-7.94-9.28 0-5.82 3.27-9.33 7.99-9.33 4.69 0 7.91 3.45 7.91 9.28 0 5.83-3.27 9.33-7.96 9.33zm-.02-15.02c-2.52 0-4.2 2.04-4.2 5.69 0 3.66 1.75 5.75 4.28 5.75s4.2-2.04 4.2-5.69c-.01-3.66-1.76-5.75-4.28-5.75zM92.65 18.43l-3.22-6.49H85.8v6.49h-3.61V.39h8.4c3.4 0 6.21 1.88 6.21 5.72 0 2.71-1.16 4.41-3.45 5.31l3.45 7.01h-4.15zM90.51 3.9H85.8v4.64h4.72c1.67 0 2.58-.77 2.58-2.34-.01-1.63-.99-2.3-2.59-2.3zM106.36 3.95v14.48h-3.61V3.95h-5.18V.39h13.97v3.56h-5.18zM113.01 18.43V.39h3.61v18.04h-3.61zM129.68 18.43l-6.62-9.84c-.44-.67-1.03-1.57-1.26-2.04 0 .67.05 2.94.05 3.94v7.94h-3.56V.39h3.45l6.39 9.53c.44.67 1.03 1.57 1.26 2.04 0-.67-.05-2.94-.05-3.94V.39h3.56v18.04h-3.22zM142.2 18.71c-4.72 0-7.88-3.61-7.88-9.3 0-5.49 3.3-9.3 8.01-9.3 3.68 0 5.64 1.73 6.83 4.51l-3.43 1.42c-.67-1.34-1.49-2.34-3.45-2.34-2.71 0-4.25 2.37-4.25 5.72 0 3.32 1.57 5.77 4.28 5.77 2.47 0 3.32-1.16 3.53-2.73h-2.86V9.08h6.47v2.37c-.01 4.64-3.08 7.26-7.25 7.26zM19.22 39.97V21.93h3.61v18.04h-3.61zM31.49 40.25c-3.01 0-5.64-1.26-7.01-3.27l2.6-2.32c1.26 1.47 2.89 2.06 4.61 2.06 2.14 0 3.14-.59 3.14-1.96 0-1.16-.62-1.67-4.02-2.45-3.32-.77-5.64-1.83-5.64-5.39 0-3.27 2.89-5.28 6.44-5.28 2.81 0 4.87 1.06 6.57 2.83L35.58 27c-1.16-1.19-2.45-1.86-4.1-1.86-1.93 0-2.58.82-2.58 1.62 0 1.13.77 1.49 3.63 2.16 2.86.67 6.03 1.65 6.03 5.57.01 3.44-2.15 5.76-7.07 5.76z"/>
  </g>
  <path fill="#e22426" d="M19.23 43.46h85.65v24.86H19.23z"/>
  <path class="st0" d="M34.09 58.36h-2.88v-3.34h6.46v2.88c0 4.59-3.04 7.2-7.17 7.2-4.67 0-7.81-3.57-7.81-9.21 0-5.44 3.27-9.21 7.94-9.21 3.65 0 5.59 1.71 6.76 4.47L34 52.55c-.66-1.33-1.48-2.32-3.42-2.32-2.68 0-4.21 2.35-4.21 5.67 0 3.29 1.56 5.72 4.24 5.72 2.95 0 3.38-1.84 3.5-2.7.02-.23.03-.35.03-.54M51 64.82l-3.19-6.43h-3.6v6.43h-3.57V46.96h8.32c3.37 0 6.15 1.86 6.15 5.67 0 2.68-1.15 4.36-3.42 5.26l3.42 6.94H51m-2.12-14.4h-4.67v4.59h4.67c1.66 0 2.55-.76 2.55-2.32.01-1.61-.96-2.27-2.55-2.27zM57.82 64.82V46.96h12.4v3.49h-8.83v3.7h6.62v3.48h-6.62v3.7h8.83v3.49h-12.4M85.14 64.82h3.93l-6.79-17.87h-3.47l-6.84 17.87h3.83s.58-1.66 1.34-3.8h6.66c.76 2.15 1.34 3.8 1.34 3.8m-6.81-7.19c1.06-3.01 2.06-5.9 2.14-6.2.08.31 1.08 3.19 2.14 6.2h-4.28zM96.24 50.48v14.34h-3.57V50.48h-5.13v-3.52h13.84v3.52h-5.14"/>
  <g fill="#1E1348">
    <path d="M21.11 75.96h-1.88v-4.15h1.9c.8 0 1.31.38 1.31 1.09 0 .36-.17.64-.44.81.33.15.58.45.58.91 0 .88-.58 1.34-1.47 1.34zm-.02-3.38h-1.05v.79h1.1c.34 0 .47-.16.47-.39-.01-.26-.16-.4-.52-.4zm.05 1.52h-1.1v1.07h1.1c.4 0 .59-.21.59-.54 0-.35-.19-.53-.59-.53zM25.54 75.96l-.74-1.49h-.83v1.49h-.83v-4.15h1.93c.78 0 1.43.43 1.43 1.31 0 .62-.27 1.01-.79 1.22l.79 1.61h-.96zm-.49-3.34h-1.08v1.07h1.08c.38 0 .59-.18.59-.54 0-.37-.23-.53-.59-.53zM27.12 75.96v-4.15h.83v4.15h-.83zM30.42 72.64v3.33h-.83v-3.33H28.4v-.82h3.21v.82h-1.19zM34.19 75.96l-.33-.92h-1.52l-.33.92h-.89l1.59-4.15h.81l1.57 4.15h-.9zm-.88-2.46c-.08-.24-.17-.49-.21-.65-.04.15-.12.4-.21.65l-.27.75h.95l-.26-.75zM35.63 75.96v-4.15h.83v4.15h-.83zM39.78 75.96l-1.52-2.26c-.1-.15-.24-.36-.29-.47 0 .15.01.68.01.91v1.82h-.82v-4.15h.79L39.42 74c.1.15.24.36.29.47 0-.16-.01-.68-.01-.91v-1.75h.82v4.15h-.74zM45.54 75.96l-.31-.34c-.33.27-.72.4-1.21.4-.85 0-1.36-.36-1.36-1.1 0-.58.32-.93.85-1.19l-.11-.12c-.22-.24-.36-.51-.36-.84 0-.67.53-1.02 1.23-1.02.51 0 .84.15 1.24.43l-.4.6c-.27-.21-.57-.3-.86-.3-.24 0-.39.1-.39.27 0 .18.09.3.22.45l1.14 1.3c.09-.19.19-.41.29-.69l.67.21c-.13.4-.28.75-.47 1.04l.78.89h-.95zm-1.59-1.74c-.33.17-.46.38-.46.63 0 .27.21.44.63.44.26 0 .47-.06.64-.18l-.81-.89zM50.83 75.96l-1.52-2.26c-.1-.15-.24-.36-.29-.47 0 .15.01.68.01.91v1.82h-.82v-4.15H49L50.47 74c.1.15.24.36.29.47 0-.16-.01-.68-.01-.91v-1.75h.82v4.15h-.74zM53.92 76.03c-1.13 0-1.8-.88-1.8-2.14 0-1.26.67-2.14 1.8-2.14s1.8.88 1.8 2.14c0 1.26-.67 2.14-1.8 2.14zm0-3.45c-.67 0-.95.57-.95 1.31 0 .74.28 1.31.95 1.31.67 0 .95-.57.95-1.31 0-.74-.28-1.31-.95-1.31zM58.68 75.96l-.74-1.49h-.84v1.49h-.83v-4.15h1.93c.78 0 1.43.43 1.43 1.31 0 .62-.27 1.01-.79 1.22l.79 1.61h-.95zm-.49-3.34H57.1v1.07h1.08c.38 0 .59-.18.59-.54.01-.37-.22-.53-.58-.53zM61.81 72.64v3.33h-.83v-3.33h-1.19v-.82H63v.82h-1.19zM65.91 75.96v-1.74h-1.7v1.74h-.83v-4.15h.83v1.59h1.7v-1.59h.83v4.15h-.83zM67.51 75.96v-4.15h2.88v.81h-2.05v.72h1.19v.8h-1.19v1h2.14v.81h-2.97zM73.47 75.96l-.74-1.49h-.83v1.49h-.83v-4.15H73c.78 0 1.43.43 1.43 1.31 0 .62-.27 1.01-.79 1.22l.79 1.61h-.96zm-.49-3.34H71.9v1.07h1.08c.38 0 .59-.18.59-.54 0-.37-.23-.53-.59-.53zM77.61 75.96l-1.52-2.26c-.1-.15-.24-.36-.29-.47 0 .15.01.68.01.91v1.82h-.82v-4.15h.79L77.25 74c.1.15.24.36.29.47 0-.16-.01-.68-.01-.91v-1.75h.82v4.15h-.74zM80.84 75.96v-4.15h.83v4.15h-.83zM84.9 75.96l-.74-1.49h-.83v1.49h-.83v-4.15h1.93c.78 0 1.43.43 1.43 1.31 0 .62-.27 1.01-.79 1.22l.79 1.61h-.96zm-.5-3.34h-1.08v1.07h1.08c.38 0 .59-.18.59-.54.01-.37-.22-.53-.59-.53zM86.54 75.96v-4.15h2.88v.81h-2.05v.72h1.19v.8h-1.19v1h2.14v.81h-2.97zM90.09 75.96v-4.15h.83v3.33H93v.82h-2.91zM96.22 75.96l-.33-.92h-1.51l-.32.92h-.89l1.59-4.15h.81l1.57 4.15h-.92zm-.87-2.46c-.08-.24-.17-.49-.21-.65-.04.15-.13.4-.21.65l-.27.75h.95l-.26-.75zM100.11 75.96l-1.52-2.26c-.1-.15-.24-.36-.29-.47 0 .15.01.68.01.91v1.82h-.82v-4.15h.79L99.75 74c.1.15.24.36.29.47 0-.16-.01-.68-.01-.91v-1.75h.82v4.15h-.74zM102.73 75.96h-1.24v-4.15h1.3c1.18 0 2.06.56 2.06 2.07 0 1.47-1.05 2.08-2.12 2.08zm.03-3.34h-.44v2.54h.41c.87 0 1.27-.51 1.27-1.27 0-.85-.36-1.27-1.24-1.27z"/>
  </g>
  <path class="st0" d="M.3.39h14.54v67.95H.3z"/>
  <path class="st2" d="M.83.39l7.32 14.68V.39zM7.29 28.78L.3 14.76v14.02zM7.2 40.1H.3v13.83zM8.15 68.34V53.67L.84 68.34h7.31z"/>
  <path class="st3" d="M8.15 27.93v-5.27L.3 6.87v5.27zM8.15 51.06v-5.27L.3 61.57v5.27z"/>
  <path class="st3" d="M10.37.39V31H.3v6.88h10.07v30.46h4.47V.39z"/>
</svg>
