<svg width="387" height="428" viewBox="0 0 387 428" fill="none" xmlns="http://www.w3.org/2000/svg">
<path fill-rule="evenodd" clip-rule="evenodd" d="M305.498 317.926L306.721 317.138L305.804 316.377L305.568 315.312L305.688 315.363L305.53 315.139L305.525 315.114L305.507 315.106L305.084 314.502L305.261 313.726L304.958 312.394L305.485 312.063L305.466 310.805L304.859 310.656L304.835 308.851L304.007 308.459L303.35 306.716L303.36 306.696L303.332 306.667L303.27 306.502L303.238 306.57L301.608 304.893L300.971 305.26L298.713 302.748L294.542 299.994L292.254 299.076L290.542 299.68L287.096 298.903L284.249 299.408L281.677 298.282L281.679 298.236L281.603 298.249L281.516 298.212L281.513 298.265L274.881 299.439L274.854 299.443L273.596 300.822L273.315 303.914L271.298 306.65L268.948 306.307L268.82 306.25L268.791 306.335L268.713 306.309L268.207 307.821L266.506 308.886L264.524 309.523L263.543 311.337L261.529 312.068L261.266 311.652L260.147 311.893L259.015 312.732L257.543 311.868L256.941 311.8L256.316 312.795L254.878 311.835L253.948 312.445L251.42 312.845L250.234 313.528L250.747 314.214L250.162 315.653L251.095 316.38L252.255 316.197C252.904 317.752 252.909 317.759 252.93 317.78C252.954 317.81 253.639 318.671 253.935 319.042L254.148 320.383L253.75 320.512L253.018 322.599C252.825 322.652 252.578 322.72 252.561 322.724C252.494 322.734 252.494 322.734 250.482 324.676L250.382 324.773L250.461 324.888C250.631 325.134 250.822 325.413 250.867 325.484C250.89 325.54 250.979 325.609 251.482 325.989L251.564 326.213L249.717 326.763L250.178 326.995L249.147 328.843L249.144 329.154L247.902 328.186L246.577 328.912L247.25 330.225L246.776 331.758C246.358 331.805 245.665 331.883 245.651 331.885C245.636 331.887 245.625 331.889 244.115 332.589L244.094 332.599L243.499 333.493L243.07 333.444L243.081 333.914L241.638 334.609L241.921 335.901L242.753 336.923L241.706 337.773L241.74 338.146L241.166 338.525L240.112 336.712L237.842 336.597L237.966 337.108L234.921 338.348L235.072 339.526L235.12 339.516L234.064 340.697L234.042 340.561L231.978 340.463L231.674 338.111L231.226 338.115L231.441 336.544L231.047 336.304L232.478 335.778L230.196 333.023L229.663 333.688L229.315 335.668L226.563 336.067L226.335 337.029L225.924 337.429L225.811 338.987L223.126 338.602L221.993 338.901L221.641 338.623L220.45 336.736L219.997 336.373L219.482 335.532L219.202 336.038L217.685 337.195L216.716 337.209L217.918 339.156L217.626 339.839L215.783 338.236L212.683 339.998L211.224 339.729L210.632 340.3L210.189 339.933L210.842 338.711L209.379 338.47L209.201 339.601L209.633 340.412L207.251 341.573L207.059 341.606L206.375 341.722L205.36 339.533L203.92 339.686L204.059 340.11L203.666 340.525L202.815 339.833L202.317 338.978L201.445 341.767L202.02 342.52C202.007 342.88 202.008 342.889 202.01 342.899C202.012 342.912 202.013 342.919 202.766 344.735L201.923 344.868L200.954 345.759L199.319 346.05L199.366 346.468L198.577 346.144L197.559 347.544L197.012 348.811L197.267 350.42L196.573 351.361L196.693 352.243L197.023 352.463L196.796 352.558L196.935 353.352L196.625 353.687L196.533 354.331L196.902 354.238L196.665 354.556L196.789 355.125L197.145 355.022L197.264 355.723L197.604 356.113L198.764 353.595L200.53 352.466L201.776 351.01L203.452 349.838L202.777 349.376L202.751 348.82L204.378 350.173L201.691 352.259L200.598 353.754L200.538 353.837L197.8 356.77L196.352 359.934L197.124 361.322L196.683 361.406L196.256 360.68L195.467 360.399L194.574 360.697L192.199 363.472L192.029 365.08L189.318 364.678L189.926 365.72L188.917 366.851L189.189 368.564L188.42 368.228L188.375 370.004L188.937 371.044L188.666 371.315L189.234 372.415L188.674 372.955L189.271 374.72L188.903 375.336L188.084 374.49L188.397 371.887L187.662 372.439L186.504 372.633L183.297 373.17L182.079 373.87L181.382 373.461L178.164 373.423L177.641 372.576L176.705 372.386L176.64 371.727L174.296 371.212L174.264 371.73L170.636 371.596L169.356 371.141L166.86 371.382L166.636 371.961L165.625 371.637L162.561 371.906L162.059 372.579L160.448 372.145L158.154 372.72L157.725 374.637L156.988 374.589L157.206 375.682L158.536 377.508L160.991 376.992L161.529 377.35L159.313 377.737L158.497 379.928L157.997 380.144L158.361 378.698L157.683 378.444L156.897 378.797L155.679 380.459L154.246 380.821L152.984 379.976L152.088 380.078L150.346 379.566L149.708 380.302L149.524 383.2L148.822 383.751L149.235 386.552L148.907 388.717L146.452 391L146.568 391.579L145.512 392.821L144.788 392.959L143.514 393.928L143.386 395.857L142.281 396.996L141.499 395.996L140.691 396.915L139.266 396.697L139.43 398.165L138.81 397.833L137.57 398.671L137.29 398.291L136.657 398.697L136.902 400.036L136.255 400.325L136.33 402.111L135.222 403.901L134.283 403.69L133.352 404.256L133.747 405.09L132.883 407.143L131.287 407.734L130.73 408.918L129.87 409.455L128.97 410.505L127.29 410.35L125.945 412.711L124.886 412.505L124.452 411.376L123.586 411.434L123.569 411.444L122.296 412.22C122.273 412.232 122.257 412.24 121.383 413.472L119.659 413.784L118.401 415.25L118.989 415.706L119.055 416.535L118.42 417.003L118.356 417.936L119.092 418.157L119.632 419.05L122.83 417.958L123.226 416.815L122.85 415.906L123.47 415.144L124.846 415.544L125.343 416.417L126.648 416.425L127.176 416.963L128.022 416.685L129.228 417.591L130.004 419.526L129.782 420.567L130.526 421.958L131.733 422.433L132.76 420.816L134.403 420.777L135.725 418.932L134.93 417.416L133.516 416.963L133.48 416.557L134.588 416.756L135.11 415.111L135.797 414.917L135.425 414.209L135.553 413.093L134.884 412.624C135.032 412.503 135.177 412.385 135.226 412.35C135.334 412.353 135.827 412.381 136.196 412.403L136.312 415.156L137.401 414.647L137.847 413.187L139.279 412.983L140.604 411.567L142.616 411.755L143.217 410.853L142.753 410.27L142.961 409.351L143.604 408.722L143.549 407.785L145.216 406.978C145.358 407.519 145.551 408.261 145.559 408.306L145.56 408.351L145.598 408.376C145.651 408.409 145.655 408.412 146.637 407.958C146.751 407.906 146.836 407.865 146.864 407.854L148.188 407.68L150.746 408L150.878 407.152L150.315 406.459L150.338 406.005L151.496 406.735L155.289 406.44L156.734 407.347L156.975 408.529L158.275 408.54L158.097 407.618L158.685 407.535L158.669 406.763L158.574 406.781C158.092 406.871 157.89 406.911 157.801 406.941C157.705 406.897 157.352 406.696 157.082 406.539L157.308 405.916L154.845 405.287L155.062 404.731L155.443 405.136L155.469 405.141C156.921 405.432 156.933 405.43 156.952 405.427C156.979 405.423 156.987 405.422 157.552 404.963L157.624 405.073L157.706 405.2L157.718 405.219L158.554 406.51L159.611 406.81L159.558 407.357L159.492 407.352L159.548 407.46L159.542 407.52L159.58 407.523L160.081 408.487L160.129 408.488C160.395 408.492 160.802 408.5 160.952 408.506C160.972 408.689 160.988 408.872 161.001 409.055L161.005 409.115L162.255 409.411L163.423 409.08L164.728 409.616L166.776 409.628L166.313 411.693L166.362 411.724C166.66 411.914 167.143 412.226 167.206 412.274C167.247 412.337 167.374 412.508 167.781 413.044L167.809 413.08L168.951 412.96L168.817 412.119L170.148 413.673L171.133 412.468L172.032 412.62L172.055 410.293L172.524 408.639L173.325 408.631L174.332 408.252L173.979 407.364C174.646 407.849 174.655 407.851 174.678 407.855L174.705 407.855C174.723 407.853 174.748 407.849 175.523 407.393L175.566 407.367L175.506 406.365L176.264 406.041L176.406 406.017L176.381 405.991L176.906 405.767L176.271 405.874L175.66 405.224L174.415 405.089L174.309 404.178L175.399 402.477L176.052 402.007L175.652 400.78L175.629 400.706L175.594 400.6L175.348 399.847L174.31 399.944L174.275 399.587L176.507 399.11L177.113 398.294L177.104 397.427L177.789 396.814L177.244 396.559L176.831 394.311L176.712 393.662L177.169 393.845L177.368 395.101L178.036 395.652L178.193 396.972L179.706 397.183L179.75 396.298L181.01 396.021L181.553 395.326L181.527 394.654L182.339 394.252L186.317 393.649L186.366 393.641L186.551 393.093L190.021 392.69L190.012 392.733L190.148 392.675L190.193 392.669L190.197 392.654L191.604 392.054C192.669 392.397 192.848 392.452 192.894 392.458C192.946 392.463 193.932 392.602 194.594 392.697L195.872 393.613L198.784 395.155L201.044 397.106L201.796 398.168L202.435 398.098L202.861 399.016L202.139 400.331L203.142 400.23L203.871 399.578L203.597 398.603L202.972 397.948L202.831 397.129L203.241 395.881L204.362 395.714L205.4 396.321L205.496 396.339L205.496 396.342L205.653 396.369L205.658 396.37L208.124 396.787L210.506 396.642L211.596 397.494L212.701 397.429L213.192 398.06L215.193 397.723L215.714 397.071L215.576 396.465L216.275 395.488L215.811 394.196L211.707 393.731L211.82 393.249L213.301 392.618L213.061 391.912L213.49 391.804L213.814 391.724C214.171 391.9 214.721 392.173 214.799 392.219C214.851 392.293 215.016 392.5 215.557 393.166L215.586 393.202L216.781 393.013L217.186 392.337L217.234 392.332L217.348 392.32L218.931 392.141C219.526 392.436 219.638 392.488 219.677 392.494C219.724 392.501 220.374 392.632 220.8 392.719L221 392.76L220.462 391.98L222.337 391.536L222.961 391.387L224.134 392.033L225.236 392.806L226.351 391.414L226.291 390.666L227.303 390.678L231.263 389.297L231.295 389.286L231.892 388.059L227.845 384.687L227.735 384.137L229.484 385.179L229.765 384.077L230.377 385.273L230.789 386.079L231.694 385.924L232.526 387.411L234.162 388.577L234.278 388.659L234.304 388.678L236.031 389.908L236.483 389.266L236.773 389.178L236.876 389.246L237.652 389.766L238.608 389.07L238.551 387.674L239.101 386.868L240.483 386.968L241.402 386.647L241.509 386.61L241.557 386.593L241.731 387.887L242.506 387.836L242.568 387.053L243.219 386.595L243.564 387.952L242.639 388.529L242.912 389.759L243.955 390.963L245.638 391.652L245.394 390.083L245.794 389.321L246.788 389.872L246.657 389.189L249.072 388.999L249.081 388.998L252.208 388.078L253.265 388.294L254.102 388.15L254.22 388.13L254.266 388.122L255.992 387.825L256.918 387.284L259.565 386.762L262.454 387.338L263.873 387.703L267.152 388.542L267.891 389.27L268.921 389.53L270.4 389.901L270.392 389.978L270.499 389.926L270.561 389.941L270.566 389.893L273.179 388.619L273.446 387.552L273.893 387.18L274.49 386.686L274.547 386.663L276.139 386.025L277.994 385.65L278.558 385.537L279.139 385.019L280.382 385.026L281.841 384.31L282.331 384.07L283.41 382.479L284.159 380.897L286.65 381.726L286.738 381.733L286.738 381.734L289.72 381.965L289.349 379.72L290.135 378.454L289.962 377.644L291.95 376.384L292.135 375.796L295.031 375.449L295.532 374.387L297.675 373.88L298.479 372.854L300.002 371.22L300.269 370.395L300.104 368.186L300.104 368.18L299.579 365.819L298.972 366.287L298.064 366.408L297.847 365.158L298.953 365.45L300.934 364.18L300.551 362.248L299.343 361.968L296.193 363.022L295.82 362.336L295.761 362.348C295.718 362.357 291.551 363.233 291.5 363.243C291.469 363.248 291.461 363.25 290.583 364.029L288.42 364.715L288.391 364.724L288.247 364.77L288.221 364.779L286.954 365.574L286.936 365.117L285.362 364.841L284.288 364.045L283.4 364.412L283.32 363.391L282.564 361.96L281.586 362.132L281.201 363.538L279.792 363.76L278.449 362.763L277.272 363.331L277.519 362.446L282.386 360.573L282.188 360.496C279.422 359.413 279.414 359.414 279.384 359.419C279.378 359.42 279.363 359.423 276.027 360.312L275.966 360.166L275.914 360.342L275.867 360.354L275.892 360.414L275.69 361.09L273.339 361.355L271.879 360.411L271.129 360.839L270.152 360.196L269.677 360.632L269.653 360.615L269.539 360.531L268.877 360.054L269.233 359.618L268.722 358.977L267.139 358.644L267.078 358.508L267.031 358.622L266.94 358.602L266.992 358.717L266.843 359.078L265.687 359.329L265.668 359.309L265.552 359.188L266.522 358.927L266.553 358.386L267.887 358.419L269.266 358.453L269.651 359.27L269.643 359.287L269.665 359.299L269.695 359.363L269.726 359.428L269.782 359.547L269.972 359.95L271.769 359.979L272.376 360.666L274.225 360.718L275.971 358.768L278.055 358.293L277.356 357.508L277.985 357.292L278.335 358.478L279.439 358.726L279.436 357.811L278.525 356.971L280.038 357.275L280.119 357.279L280.234 357.285L280.232 357.282L282.104 357.334L283.372 357.625L284.709 356.917L284.8 356.925L284.787 356.876L284.978 356.775L284.757 356.756L284.564 355.995L282.873 355.658L282.733 355.433L285.361 354.989L285.436 356.59L288.055 353.733L285.459 354.256L284.848 353.458L287.466 352.666L287.924 351.442L287.14 348.3L283.617 350.85L282.345 351.112L281.394 350.02L281.164 349.268L284.014 348.781L286.295 347.492L285.137 347.188L285.961 346.458L286.969 346.441L287.544 347.126L288.758 346.185L287.347 345.498L287.766 343.946L288.502 344.306L289.41 345.169L290.157 344.838C289.909 345.9 289.911 345.91 289.914 345.931C289.92 345.969 289.921 345.974 291.141 347.103L291.182 347.14L293.63 345.996L293.644 345.989L296.023 343.412L295.909 342.576L294.539 343.414L294.039 342.281L295.05 341.618L295.515 340.26L295.029 339.863L290.387 340.34L289.968 339.734L292.171 339.073L293.539 339.65L295.31 339.485L294.658 338.227L292.906 337.507L292.893 337.21L292.772 337.109L292.884 337.076L293.637 337.255L293.752 337.282L293.807 337.296L295.097 337.601L296.095 340.283L297.391 339.2L297.791 337.799L296.273 334.783L295.494 334.331L295.847 333.593L296.529 333.157L298.22 337.516L299.13 337.372L299.344 336.489L300.377 334.981L302.427 334.014L303.292 330.386L303.337 328.819L303.938 325.061L304.741 323.992L305.657 320.797L305.662 320.779L305.434 319.538L305.835 318.75L305.499 317.926L305.498 317.926Z" fill="#8CE2D0"/>
<path fill-rule="evenodd" clip-rule="evenodd" d="M236.194 392.158L236.14 391.439L233.793 391.951L233.35 391.409L233.464 390.628L232.672 390.124L232.342 391.016L232.612 392.191L232.309 392.757L232.144 392.449L232.328 391.695L231.996 390.073L231.341 390.246L231.012 391.136L229.951 391.728L229.802 392.649L228.352 392.332L226.787 393.003L226.318 392.607L225.157 395.06L226.649 394.408L227.666 394.512L231.187 397.549L231.573 397.189L231.982 398.172L232.414 398.256L235.501 397.063L235.505 397.01C235.637 395.318 235.618 395.283 235.603 395.254C235.586 395.222 235.37 394.858 235.255 394.664L237.441 394.423L236.194 392.158L236.194 392.158ZM284.602 360.89L283.195 360.834L282.84 361.796L283.647 363.172L285.91 364.014L288.786 363.49L284.873 361.682L284.602 360.89ZM102.823 420.904L103.332 421.771L103.898 421.171L103.263 420.235L102.823 420.904ZM101.253 424.02L101.335 424.323L102.362 424.502L101.771 423.565L101.253 424.02ZM102.138 423.092L102.816 423.4L103.683 423.071L102.989 421.825L102.138 423.092ZM102.314 422.394L102.385 422.436L102.95 421.702L102.255 420.992L101.337 421.056L101.345 421.139C101.413 421.85 101.418 421.854 101.459 421.88C101.473 421.89 102.061 422.243 102.314 422.394ZM146.35 372.172L145.731 372.565L146.005 374.289L146.974 373.893L146.35 372.172ZM240.337 387.207L239.138 388.852L240.247 389.237L240.262 389.235C240.593 389.193 241.093 389.13 241.161 389.124L241.199 389.133L241.224 389.09C241.257 389.035 241.257 389.035 240.391 387.314L240.337 387.207Z" fill="#8CE2D0"/>
<path fill-rule="evenodd" clip-rule="evenodd" d="M262.603 269.808L261.9 269.529L261.8 268.61L257.129 262.758L257.191 261.008L256.617 260.453L255.826 255.859L258.237 253.576L258.016 252.643L257.036 252.799L256.386 251.934L255.466 252.336L254.201 251.273L253.437 249.451L251.226 247.936L250.582 245.978L249.202 244.013L247.533 240.141L247.523 240.118L244.382 238.079L243.432 237.969L243.667 237.375L241.446 236.619L241.822 236.093L239.028 235.876L237.997 234.962L237.279 235.334L235.882 234.855L235.344 233.846L233.057 232.995L232.737 234.263L232.629 234.228L231.899 233.99L232.286 232.089L231.915 231.545L232.725 231.093L230.74 229.803L230.737 229.8L229.312 227.961L228.652 225.094L228.36 224.735L228.34 224.618L228.068 222.938L227.252 222.376L227.966 222.131L228.015 221.117L228.017 221.058L228.022 220.951L228.025 220.871L227.596 219.436L226.833 218.721L226.794 218.358L226.738 217.825L225.798 217.123L225.67 215.781L225.667 215.743L225.659 215.666L225.617 215.687L224.753 214.725L224.578 213.665L223.589 213.122L224.788 211.854L224.536 210.369L223.87 210.312L223.254 209.137L223.016 206.817L223.688 206.618L222.092 204.136L222.435 203.251L222.462 200.357L221.745 198.634L222.199 197.817L221.699 197.359L221.229 195.588L220.085 194.646L217.626 194.101L213.295 188.711L213.224 187.517L212.412 186.53L212.45 186.458L212.277 186.365L212.074 186.118L212.016 186.226L211.726 186.072L210.901 187.619L207.886 191.246L207.367 192.511L206.343 192.285L204.548 193.109L208.487 199.834L204.618 202.744L204.823 203.776L201.869 204.244L200.87 205.707L199.817 206.521L196.822 211.213L192.989 214.165L191.652 215.523L188.345 216.458L187.978 219.528L188.222 219.558L188.304 219.568L188.292 219.669L188.588 219.64L189.233 220.436L187.973 220.613L186.744 221.57L189.494 221.522L189.561 221.882L187.251 222.227L183.001 221.09L182.665 222.454L185.29 222.681L185.039 223.039L181.499 223.423L180.097 225.096L179.573 228.467L176.943 231.952L177.102 232.811L176.148 233.299L176.537 234.722L176.535 234.735L176.522 234.822L176.511 234.897L176.187 237.143L175.556 236.836L175.445 238.137L174.545 238.536L174.558 238.601C174.601 238.817 174.714 239.387 174.721 239.43C174.725 239.454 174.733 239.509 175.075 239.892L176.452 240.826L177.27 241.733L178.471 244.414L178.482 244.437L178.504 244.451C179.162 244.849 180.134 245.439 180.355 245.584C180.257 245.839 179.802 246.949 179.491 247.703L179.479 247.734L180.732 250.964L180.739 250.984L182.055 252.107L183.226 251.847L183.657 251.49L183.45 250.578L184.306 249.894L184.462 250.48L184.493 250.593L184.505 250.64L184.675 251.274L183.373 254.937L185.881 255.758L186.433 254.99L188.298 252.405L188.357 251.018L188.705 248.908L189.269 249.009L189.066 250.621L189.187 252.469L190.224 253.491L192.311 251.874L192.325 251.864L193.788 249.183L194.379 249.571L194.525 250.637L192.443 252.335L192.414 252.358L192.167 252.56L192.461 252.428L193.207 253.555L193.232 253.564C193.695 253.732 194.356 253.972 194.581 254.055C194.407 254.353 194.228 254.649 194.043 254.94L193.688 256.032L191.642 256.742L191.236 258.401L192.637 259.573L192.08 261.748L191.273 261.776L191.249 261.805C190.837 262.313 190.213 263.077 190.138 263.159C190.079 263.198 190.098 263.31 190.537 265.35L189.511 265.084L189.836 264.389L189.414 263.99L189.484 262.816L188.647 262.459L188.092 263.127L188.073 264.334L188.096 264.502L188.282 265.897L187.638 266.426L187.905 268.156L187.685 268.678L188.017 269.81L188.796 269.822L189.192 270.619L190.488 270.481L190.909 269.903L192.505 270.404L191.965 271.328L191.029 270.608L190.438 272.539L189.922 271.983L187.227 276.041L187.213 276.062L187.221 278.82V278.848L187.821 279.632L188.048 281.463L188.962 282.092L189.497 284.055L191.357 285.625L193.26 286.827L193.318 286.816L193.322 286.846L194.665 286.587L194.898 285.732L196.3 285.501L196.791 285.821L195.091 287.142L194.188 287.844L192.16 288.143L190.828 287.499L189.132 284.897C189.091 284.557 189.05 284.218 189.009 283.878C189.005 283.855 189.002 283.837 188.013 282.314L187.965 282.241L187.895 282.293L186.862 283.062C186.811 283.093 185.947 283.523 185.379 283.805L185.348 283.821L184.768 285.578L186.778 287.731L186.612 288.104L186.641 289.603L187.7 289.803L187.654 289.923L187.645 289.926L187.648 289.94L187.549 290.199L187.698 290.166L187.716 290.246L188.32 290.113L190.635 292.314L190.534 292.513L190.925 292.8L190.446 293.507L189.04 293.671L189.751 295.123L191.425 295.848L191.106 296.253L192.199 297.712L192.358 298.617L192.956 299.81L195.633 301.071L196.423 300.475L197.354 300.805L197.911 300.71L197.992 301.041L199.067 302.177L200.586 301.455L201.862 302.059L202.608 301.319L204.203 300.449L204.896 297.949L205.527 297.062L207.065 296.833L207.098 296.81C207.356 296.626 207.768 296.335 207.874 296.263L207.907 296.258L209.291 294.357L210.036 293.86L210.148 292.838L210.921 293.486L212.975 292.666L213.634 291.635L213.435 289.599L213.454 287.254L213.157 285.663L212.64 284.968L213.635 283.119L213.015 283.134L213.001 282.448L213.725 282.071L213.64 281.536L214.059 281.193L214.14 279.565L215.383 278.27L217.397 279.029L217.933 280.032L218.028 280.632L221.433 284.299L221.11 285.221L223.236 287.498L223.7 287.036C224.863 287.601 224.865 287.601 224.93 287.591L225.092 287.565L225.083 287.508C225.235 287.417 225.569 287.221 225.853 287.056L225.991 287.63L226.854 286.392L227.796 286.306L227.887 287.095L229.332 287.28L229.601 286.835L230.039 286.742L231.258 287.801L233.054 287.061L233.276 286.59L233.716 286.635L234.112 286.007L233.714 285.625L234.257 284.887L235.02 282.746L237.042 282.496L238.825 279.514L238.815 278.375L239.965 275.906L243.373 276.963L243.929 275.802L244.768 272.657L244.773 272.64L244.586 271.456L244.484 270.859L245.79 270.064L247.158 269.824L248.677 270.396L250.872 269.977L251.372 269.882L251.386 269.877C252.294 269.528 253.658 269.01 253.853 268.948C254.034 269.019 254.988 269.389 255.324 269.519L258.334 272.848L258.349 272.864L260.524 273.556L261.318 272.614L264.226 273.825L263.747 275.354L264.756 275.492L265.368 274.326L262.603 269.808Z" fill="#8CE2D0"/>
<path fill-rule="evenodd" clip-rule="evenodd" d="M267.83 283.345L267.816 283.311L266.556 282.104L265.919 281.355L264.075 278.943L262.185 277.357L261.951 277.226L261.896 277.234L261.839 277.258L260.975 276.787L260.971 275.862L258.417 274.838L256.447 273.124L255.959 272.425L255.942 272.401L255.864 272.288L254.842 270.83L253.058 270.339L251.736 271.068L250.36 270.671L248.353 271.877L246.157 270.308L244.366 271.363L244.557 272.564L243.733 275.663L243.244 276.686L239.85 275.63L238.622 278.271L238.744 278.889L236.83 282.096L234.775 282.351L233.965 284.63L233.283 285.557L233.694 285.953L233.55 286.182L233.084 286.134L232.817 286.699L231.333 287.312L230.149 286.28L229.414 286.436L229.184 286.819L228.211 286.694L228.113 285.844L226.705 285.972L226.175 286.733L226.105 286.443L225.916 286.553C225.372 286.868 225.085 287.035 224.936 287.136C224.739 287.044 224.158 286.762 223.785 286.58L223.68 286.529L223.293 286.916L221.541 285.036L221.862 284.118L218.404 280.387L218.317 279.833L217.699 278.675L215.376 277.798L213.904 279.333L213.826 280.934L213.376 281.303L213.453 281.789L211.826 282.636L212.77 282.575L212.786 283.367L213.169 283.357L212.347 284.888L212.941 285.687L213.217 287.169L213.199 289.486L213.389 291.429L212.85 292.274L211.085 292.979L209.996 292.066L209.834 293.542L209.171 293.984L207.817 295.85C207.73 295.906 207.539 296.041 207.061 296.382L205.468 296.617L204.727 297.663L204.059 300.078L202.552 300.901L201.939 301.51L200.736 300.94L199.299 301.623L198.451 300.725L198.317 300.186L197.547 300.315L196.534 299.955L195.913 300.425L195.509 300.958L195.644 301.458L195.337 301.971L195.517 302.904C195.309 302.997 195.128 303.077 195.098 303.089C195.017 303.126 194.828 303.251 194.083 303.754L192.73 302.043L192.625 302.014C191.845 301.805 191.065 301.593 190.287 301.378L190.276 301.163L190.25 300.658L188.482 301.564L188.584 302.042C188.315 302.191 188.009 302.358 187.902 302.417C187.764 302.44 187.314 302.51 186.909 302.572L186.761 302.595L186.147 303.583L185.297 304.09L185.3 304.278C185.315 305.639 185.323 306.07 185.332 306.225C185.317 306.356 185.169 307.185 185.034 307.915L184.997 308.113L186.25 309.069L186.951 308.557L188.795 310.588L188.927 310.668L188.576 310.712C188.335 310.75 188.316 310.871 188.238 311.379C188.201 311.614 188.155 311.929 188.108 312.243C188.039 312.708 187.971 313.173 187.941 313.382L186.724 314.506L187.143 314.852L185.173 316.652L185.267 316.867C185.461 317.313 185.758 317.994 185.868 318.253C185.852 318.302 185.834 318.359 185.813 318.424C185.76 318.589 185.672 318.862 185.649 318.922L185.182 319.866L186.107 319.344C186.179 319.303 188.093 318.243 188.797 317.854C188.899 317.998 188.993 318.133 189.058 318.226C189.004 318.361 188.918 318.573 188.831 318.784L185.369 320.458L185.339 320.472L185.313 320.492C185.313 320.492 184.833 320.857 184.354 321.225C183.243 322.079 183.243 322.079 183.276 322.286L183.282 322.323L183.295 322.357C183.327 322.435 183.327 322.435 186.621 325.902L187.825 326.784L189.23 326.756L188.686 327.146L188.675 327.153C188.528 327.263 188.528 327.263 188.398 328.944L188.387 329.087L188.872 329.612L188.334 329.514L187.517 330.664L185.226 335.228L186.181 335.928L185.659 337.378L185.874 338.179L186.811 339.088L187.127 341.285L187.148 341.459L190.559 344.317L193.103 344.7L195.592 347.674L196.244 347.095L196.652 347.718L197.203 347.863L198.031 347.405L198.689 346.501L199.68 346.908L199.613 346.308L201.091 346.045L202.055 345.157L203.131 344.987L203.051 344.795C202.768 344.11 202.348 343.099 202.276 342.92C202.277 342.859 202.282 342.705 202.287 342.565L202.29 342.507L201.74 341.788L202.407 339.659L202.647 340.069L203.708 340.93L204.356 340.247L204.266 339.972L205.229 339.87L206.245 342.063L207.34 341.877L209.978 340.592L209.466 339.631L209.592 338.829L210.471 338.974L209.885 340.067L210.652 340.699L211.309 340.064L212.73 340.325L215.752 338.61L217.713 340.313L218.187 339.207L217.149 337.526L217.764 337.517L219.384 336.282L219.484 336.101L219.802 336.618L220.248 336.969L221.443 338.861L221.924 339.242L223.125 338.924L226.099 339.349L226.223 337.651L226.612 337.273L226.811 336.437L229.572 336.037L229.947 333.912L230.175 333.627L231.901 335.708L230.27 336.307L231.059 336.787L230.823 338.515L231.358 338.511L231.659 340.839L233.727 340.938L233.815 341.49L235.998 339.051L235.316 339.196L235.242 338.625L238.311 337.376L238.224 337.019L239.875 337.102L241.011 339.056L241.959 338.43L241.915 337.95L243.05 337.029L242.101 335.865L241.873 334.824L243.282 334.146L243.274 333.801L243.571 333.834L244.209 332.876C244.69 332.653 245.172 332.431 245.654 332.211C245.781 332.196 246.442 332.122 246.89 332.072L246.996 332.06L247.547 330.284L246.96 329.14L247.816 328.672L249.407 329.911L249.415 329.024L250.571 326.956L250.541 326.942L251.929 326.528L251.695 325.888L251.657 325.859C251.465 325.716 251.276 325.569 251.088 325.421C250.979 325.252 250.867 325.085 250.75 324.921C251.365 324.326 251.983 323.734 252.602 323.145C252.664 323.129 252.802 323.092 253.124 323.003L253.207 322.981L253.941 320.891L254.45 320.727L254.181 319.028L254.154 318.994C253.814 318.568 253.474 318.141 253.134 317.715C253.077 317.589 252.698 316.684 252.448 316.084L252.398 315.965L251.126 316.166L250.503 315.681L251.063 314.303L250.662 313.768L251.474 313.301L254.007 312.9L254.813 312.371L256.349 313.394L257.042 312.292L257.37 312.329L258.965 313.264L260.212 312.341L261.038 312.163L261.319 312.606L263.692 311.746L264.668 309.942L266.542 309.342L268.394 308.189L268.984 306.429L267.691 305.851L267.481 305.053L265.701 303.594L262.859 303.502L261.513 303.838L261.404 303.548L263.404 302.046L262.619 300.788L264.039 301.457L265.62 298.109L270.296 294.774L270.084 293.384L270.463 290.193L267.829 283.345H267.83Z" fill="#2BAB90"/>
<path fill-rule="evenodd" clip-rule="evenodd" d="M195.914 301.726L195.702 300.948L193.166 299.759L192.605 298.644L192.444 297.727L191.404 296.343L191.777 295.871L189.963 295.09L189.889 294.939L189.381 293.905L190.631 293.76L191.242 292.862L190.836 292.565L191.118 292.019L190.739 291.649L190.693 292.158L188.465 290.047L187.774 290.199L187.503 290.908L184.68 289.078L184.354 288.015L180.548 286.102L180.324 285.991L179.064 286.803L177.699 286.862L177.444 287.845L176.77 287.911L171.305 288.447L171.403 287.929L170.377 286.726L169.274 287.041L168.988 286.129L168.363 286.519L168.744 287.879L169.736 288.46L169.95 289.564L169.271 289.86L169.145 289.016L168.039 288.658L166.591 289.084L165.257 290.08L164.736 290.292L163.069 290.967L162.064 290.554L159.798 292.191L158.573 294.222L157.303 294.73L157.425 295.943L156.519 298.395L155.264 299.536L153.391 300.569L153.008 302.082L151.072 302.074L147.141 305.358L147.025 306.562L146.302 306.732L145.922 307.78L146.615 308.511L147.156 307.844L149.078 307.964L149.676 307.5L149.908 306.882L150.404 306.718L151.137 307.513L151.547 308.704L152.634 308.194L152.501 307.454L152.764 306.116L153.684 305.547L154.486 304.188L156.742 304.231L156.692 303.47L158.244 303.797L161.429 303.677L161.6 303.007L164.497 302.564L161.325 304.565L161.606 306.39L160.987 307.955L162.391 309.696L163.281 311.33L165.598 310.507L163.443 312.3L161.42 315.47L162.669 315.626C162.669 315.626 162.445 316.202 162.421 316.206C162.398 316.21 162.225 317.816 162.225 317.816L164.416 318.184L165.871 317.858L165.57 318.07L163.286 319.673L162.476 321.638L161.503 326.455L160.189 327.771L159.418 329.478L156.088 331.528L154.327 331.571L152.486 333.551L152.129 334.438L150.364 335.056L150.337 334.432L149.341 334.873L148.175 334.484L147.076 334.972L147.168 335.805L146.452 335.518L145.602 335.825L144.943 337.303L142.987 338.202L143.338 339.419L141.851 339.253L141.431 338.346L141.113 339.276L139.181 339.793L139.648 338.95L138.895 339.132L137.57 338.689L136.984 339.277L137.042 340.932L136.029 341.312L135.534 342.231L135.091 341.822L134.027 341.982L133.668 342.856L132.206 343.142C132.206 343.142 131.031 343.792 131.007 343.795C130.984 343.799 131.119 345.497 131.119 345.497L131.74 344.927L133.718 344.662L133.934 345.224L135.787 345.566L136.143 348.156L135.693 349.107L133.732 349.731L133.597 350.42L132.861 350.057L132.606 350.741L133.781 351.78L133.963 352.78L134.776 352.635L134.647 351.713L135.976 351.135L136.027 350.521L136.513 350.398L136.52 351.488L136.868 351.692L138.094 351.404L138.339 352.008L139.325 351.601L139.771 350.887L140.634 351.746L140.608 352.183L139.94 352.148L140.441 352.68C140.441 352.68 140.238 353.475 140.214 353.478C140.192 353.482 137.796 352.062 137.796 352.062L137.248 352.589C137.248 352.589 136.179 352.216 136.149 352.229C136.12 352.243 135.91 352.762 135.91 352.762L137.046 353.657L136.793 355.047L138.211 355.875L139.226 355.66L140.369 356.343L141.581 354.478L142.846 354.2L143.211 354.856L144.629 354.592L144.456 353.952L145.857 354.17L146.891 352.429L146.178 351.866C146.178 351.866 147.127 351.174 147.15 351.171C147.172 351.167 148.418 350.861 148.418 350.861L153.08 350.688L152.572 349.583L154.295 349.098L154.992 350.449L155.845 351.452L155.003 351.868L157.254 353.67L158.2 353.269L159.038 353.669L160.89 353.856L161.302 353.422L161.295 352.677L162.409 352.689L161.878 353.715L161.938 353.837L162.205 354.385C162.205 354.385 161.448 354.239 161.425 354.242C161.402 354.246 157.724 355.244 157.724 355.244L155.912 356.111L156.354 357.204L156.22 358.009L157.339 358.744C157.339 358.744 159.854 358.573 159.878 358.57C159.9 358.566 160.76 357.314 160.76 357.314L161.126 358.333L162.619 358.143C162.619 358.143 163.429 357.725 163.559 357.601C163.69 357.479 163.639 357.008 163.605 356.801C163.573 356.594 164.69 356.12 165.082 356.002C165.474 355.886 165.392 355.216 165.392 355.216L165.576 356.277L166.525 355.651L166.733 355.514L167.505 354.56L167.84 356.672L168.813 357.179L168.364 357.885L169.853 359.338L169.895 359.378L169.643 360.628L170.334 360.8L171.179 361.899L172.062 361.398L172.964 361.663L173.488 363.378L175.41 364.747L177.612 365.387L178.441 364.541L179.438 365.459L182.273 365.465L182.268 364.886L184.478 364.488L183.838 362.69L183.455 362.712L183.446 362.666L183.327 362.057L184.996 361.628L185.192 360.623L186.009 361.154L186.772 360.596L188.818 359.1L193.184 358.612L193.219 358.572L193.759 357.956L195.61 357.734L197.194 355.156L197.147 354.857L196.784 354.961L196.687 354.517L197.042 354.045L196.566 354.164L196.638 353.669L196.96 353.325L196.825 352.558L197.133 352.429L196.707 352.148L196.596 351.339L197.295 350.399L197.04 348.787L197.57 347.699L196.734 347.599L196.187 346.765L195.498 347.371L193.138 344.567L190.552 344.181L187.297 341.472L187.291 341.427L186.96 339.114L186.003 338.193L185.837 337.58L186.412 335.998L185.479 335.318L187.633 331.046L188.335 330.066L189.635 330.3L188.581 329.164C188.581 329.164 188.702 327.633 188.731 327.612C188.759 327.593 190.144 326.603 190.144 326.603L187.784 326.653L186.709 325.876C186.709 325.876 183.446 322.462 183.438 322.442C183.434 322.419 185.361 320.96 185.361 320.96L188.954 319.229C188.954 319.229 189.297 318.406 189.295 318.39C189.292 318.376 188.764 317.633 188.764 317.633C188.764 317.633 185.89 319.216 185.8 319.267C185.828 319.211 186.069 318.451 186.074 318.45C186.071 318.432 185.42 316.947 185.42 316.947L187.508 315.051L187.085 314.705L188.118 313.757C188.118 313.757 188.485 311.254 188.5 311.252L189.774 311.092L188.883 310.549L186.864 308.339L186.119 308.882L185.217 308.197C185.217 308.197 185.536 306.493 185.524 306.458C185.514 306.423 185.493 304.501 185.493 304.501L186.254 304.05L186.833 303.122C186.833 303.122 187.87 302.963 187.89 302.954C188.207 302.783 188.524 302.611 188.84 302.438L188.739 301.967L189.838 301.405C189.838 301.405 189.86 301.836 189.862 301.852C189.864 301.867 192.441 302.553 192.441 302.553L193.92 304.413C193.92 304.413 195.109 303.617 195.125 303.614C195.139 303.612 195.803 303.314 195.803 303.314L195.598 302.252L195.914 301.726L195.914 301.726ZM152.419 287.007L151.36 287.61L151.595 288.607L153.041 289.527L153.117 291.441L152.657 291.792L153.698 292.436L154.192 292.268L155.046 293.686L156.459 294.298L157.603 293.67C157.603 293.67 158.317 292.812 158.333 292.81C158.347 292.807 159.564 291.627 159.564 291.627L160.203 290.813L160.971 290.612L161.144 289.845L162.537 289.488L164.203 287.246L163.566 286.801L161.84 286.654L160.983 287.336L159.942 287.337L159.902 285.822L159.224 285.031L158.007 284.926L158.407 282.862L156.944 282.91L155.271 282.115L154.036 282.82L151.563 283.169L151.274 283.945L151.968 283.835L151.146 285.77L152.419 287.007ZM149.845 289.435L150.524 290.083L150.526 287.823L150.803 287.357L150.266 286.938L149.8 287.76L149.381 286.694L148.564 286.785L148.397 288.455L149.203 288.293L149.845 289.435Z" fill="#64D8C0"/>
<path fill-rule="evenodd" clip-rule="evenodd" d="M147.305 187.146L146.295 186.634L145.817 187.524L146.008 188.226L146.658 188.006L147.305 187.146ZM145.666 189.827L146.348 189.638L146.513 188.662L145.507 188.821L145.666 189.827ZM141.584 186.865L141.012 185.924L141.059 186.809L141.584 186.865ZM142.129 181.998L141.583 180.99L140.878 180.791L140.237 181.624L140.391 182.284L141.147 183.703L141.751 183.517L141.993 186.385L142.51 186.645L142.974 186.545L143.033 187.695L143.723 188.612L144.407 188.995L144.623 188.325L143.968 187.969C143.968 187.969 144.447 185.494 144.462 185.492C144.476 185.49 144.159 183.958 144.159 183.958L143.464 184.17L142.957 183.47L143.195 182.658L142.13 181.998H142.129ZM127.542 192.695L127.43 192.197L127.022 192.671L127.542 192.695ZM127.477 188.067L127.294 188.961L126.944 189.432L127.131 190.414L126.815 191.133L126.88 191.769L127.997 190.951L128.254 189.927L127.669 189.576L128.368 188.139L127.477 188.067ZM117.281 176.794L118.129 175.629L117.295 175.761L117.281 176.794ZM118.339 174.71L119.734 172.732L119.478 171.808L117.288 174.035L116.592 174.844L116.548 175.422L117.11 175.633L118.381 175.589L118.339 174.71ZM130.189 170.175L130.684 170.191L130.526 169.194L130.106 169.095L129.472 169.72L128.747 169.702L128.652 170.391L129.464 170.743L130.189 170.175ZM129.175 167.18L128.549 167.297L128.248 167.842L129.098 167.652L129.175 167.18ZM133.956 157.79L134.674 157.657C134.685 157.655 135.893 155.715 135.893 155.715L136.581 155.296L136.423 154.694L135.76 154.924L135.634 155.446L133.787 157.334L133.126 157.522L132.969 158.555L133.289 158.798L133.956 157.79V157.79ZM122.983 185.685L123.967 184.335L123.697 183.693L124.601 182.104L125.268 182.051L125.141 181.383L125.745 181.325L126.383 178.422L126.902 178.364L126.861 177.775L127.34 176.762L127.984 176.665L128.852 174.812L128.653 174.024L129.505 173.803L129.878 172.892L130.5 172.286L130.246 171.182L129.497 171.253L129.166 171.893L128.615 171.72L128.047 172.832L125.376 174.367L124.819 175.382L124.045 175.367L123.702 176.3L122.618 177.689L124.055 178.463L124.746 177.792L125.394 177.981L125.391 178.457L124.336 178.731L123.995 179.049L123.392 178.774L121.324 179.917L120.545 181.035L120.623 181.759L120.358 182.182L120.671 182.726L120.417 183.555L120.641 184.366L121.519 185.011L122.822 185.207L122.983 185.685Z" fill="#64D8C0"/>
<path fill-rule="evenodd" clip-rule="evenodd" d="M121.207 188.658L121.536 188.017L120.543 185.855L120.014 183.219L120.388 182.846L119.607 180.65L119.951 179.904L118.326 179.721L115.231 183.811L115.014 181.331L113.597 182.113L112.221 182.244L111.397 184.701L111.798 185.062L111.82 185.656L111.295 186.069L110.972 187.204L110.394 188.695L110.531 189.302L111.272 189.248L113.07 188.052L113.783 186.862L113.743 186.004L114.918 184.804L116.159 186.038L114.788 187.261L114.394 187.944L115.652 188.028L115.666 190.53L115.003 190.634L115.22 191.146L114.295 192.66L114.375 193.166L114.912 193.081L115.617 193.552L116.643 192.87L116.89 191.613L117.874 191.425L117.848 191.91L119.425 191.439L120.442 190.657L120.291 189.903L120.906 190.356L121.882 189.545L121.673 188.879L121.207 188.658ZM91.269 138.645L91.9669 137.552L90.2895 136.739L91.269 138.645ZM90.7497 136.384L92.5393 136.898L94.3423 133.005L91.7514 135.121L90.7497 136.384ZM98.095 128.025L96.8182 125.668L99.0911 121.076L97.969 118.58L99.681 118.309L99.2886 116.556L98.5635 115.386L100.74 115.557L102.349 111.526L100.384 109.741L101.081 109.522L102.721 110.464L103.509 109.44L100.752 107.249L98.6226 108.226L94.3889 108.376L93.078 110.456L95.445 111.73L97.1732 114.904L95.475 116.016L96.3783 118.177L94.6797 118.794L95.0397 123.36L94.6045 127.621L94.9608 130.393L97.7645 130.917L98.095 128.025ZM91.0747 113.935L91.1716 113.002L90.1478 113.051L91.0747 113.935ZM101.334 106.642L101.777 105.026L99.9136 106.293L100.642 106.615L101.334 106.642ZM105.401 98.5913L104.986 98.3325L103.455 99.3316L105.173 99.8491L105.401 98.5913Z" fill="#64D8C0"/>
<path fill-rule="evenodd" clip-rule="evenodd" d="M108.894 103.354L109.308 102.706L111.363 102.693L110.43 99.6047L112.717 100.252L111.702 96.9788L111.782 95.3534L113.079 99.0083L117.099 98.2163L120.174 94.8575L119.507 91.9148L117.431 92.3262L114.95 92.1154L115.923 91.5975C115.923 91.5975 118.753 91.0144 118.784 91.0094C118.815 91.0047 120.21 90.2944 120.21 90.2944L119.639 87.5546L120.964 88.1256L121.686 87.6889L123.811 88.3198L125.332 85.4675L122.97 87.0067L121.295 87.2825L121.073 86.3499L122.335 85.1303L123.788 81.8518L123.915 79.3242L124.89 78.2854L124.642 77.1904L123.273 75.3362L123.026 76.3745L118.859 78.9067L116.391 81.1705L112.33 82.9057L110.586 84.0141L112.34 87.3572L111.571 87.6976L109.36 84.3328L110.124 87.354L108.451 87.848L108.011 87.1372L108.709 86.413L106.042 85.628L104.901 89.3461L103.866 90.4674L105.301 93.4655L107.625 92.9521L108.005 93.4853L104.169 95.0079L104.372 96.2869L106.651 97.7888L109.427 98.7329L109.485 99.5669L106.781 99.8076L104.342 102.056L103.333 101.352L102.77 101.524L105.512 105.981L108.894 103.354ZM236.329 26.0023L237.227 28.4372L238.542 26.9405L237.607 25.7998L236.329 26.0023ZM239.359 19.8529L241.175 17.5038L238.801 18.8091L239.359 19.8529ZM240.52 10.1147L242.788 10.5478L243.315 8.21341L240.466 8.33794L240.52 10.1147ZM243.143 0.61899L241.042 0L239.775 5.41779L240.931 6.20283L243.143 0.61899Z" fill="#64D8C0"/>
<path fill-rule="evenodd" clip-rule="evenodd" d="M236.747 15.1009L238.401 12.2979L237.237 8.7486L238.838 7.4691L238.547 4.18457L236.48 4.32986L236.819 7.16514L234.874 9.17802L233.373 7.94741L230.492 9.30348L229.172 12.0617C229.184 12.0359 227.544 10.9778 227.544 10.9778L226.344 14.3481C226.344 14.3481 229.663 15.0068 229.686 15.0031C229.709 14.9994 231.054 17.6437 231.054 17.6437L229.352 18.1419L230.548 18.9943L232.948 19.0016L231.616 20.4356L229.366 20.5311L228.358 21.7091L228.363 20.2401L226.736 21.6183L224.744 21.2862L225.328 23.6247L229.205 24.7086L228.065 26.1044L229.222 27.7127L230.801 24.9369L231.981 26.4867L232.964 25.0449L233.38 29.2173L231.355 37.8726L231.968 37.9413L233.601 40.3509L234.002 36.4432L233.413 34.374L235.212 34.089L234.666 31.3423L235.823 28.1518L234.753 24.8954L234.136 23.5491L234.406 22.2594L235.425 24.2446L237.017 22.9983L237.737 16.7517L234.175 17.355L236.747 15.1009ZM201.343 53.3843L202.389 52.8087L200.341 51.2842L199.024 54.3709L200.839 54.8137L201.343 53.3843ZM202.569 47.5039L203.829 45.6091L201.686 46.1506L200.869 46.0463L199.776 47.8369L199.347 49.8954L201.64 47.6925L202.569 47.5039ZM193.932 47.6598L194.842 47.5159L194.105 43.6751L193.572 43.0778L191.486 44.4412L191.537 46.1962L193.644 45.7719L193.932 47.6598ZM193.309 50.8668L190.611 49.2165L190.235 51.0126L192.476 52.0135L193.309 50.8668ZM195.36 57.1098L195.831 57.1527L196.602 55.3612L196.375 54.4894L194.159 56.2311L195.36 57.1098ZM193.951 62.6041L193.238 63.4441L194.371 64.0843L193.951 62.6041ZM190.327 65.2397L190.768 64.1392L189.812 64.6221L190.327 65.2397ZM193.406 68.3605L194.074 67.1825L193.868 64.1636L192.107 64.5123L193.029 66.3458L192.394 67.8872L193.406 68.3605ZM187.05 66.6423L187.698 65.7069L187.84 66.664L188.944 65.6567L188.468 65.1867L187.766 62.867L185.923 61.582L184.923 60.4252L184.163 60.7813L183.287 62.523L185.759 65.6364L187.05 66.6423Z" fill="#64D8C0"/>
<path fill-rule="evenodd" clip-rule="evenodd" d="M186.46 59.677L187.113 58.7697L188.158 60.8757L189.119 60.7863L192.53 59.5824L193.932 61.8268L195.906 62.8102L196.251 61.5224L198.223 61.1322L198.19 58.8744L197.116 60.1991L196.487 60.1816L196.435 57.8015L194.59 59.4362L193.893 58.844L193.798 57.6106L192.929 58.6221L192.688 57.6844L190.413 57.826L190.88 56.3316L192.597 55.303L191.404 53.3925L188.22 53.1628L187.92 51.7583L185.527 52.0826L185.035 57.2725L185.68 59.6364L186.46 59.677ZM144.184 86.0612L143.341 85.5616L143.144 86.0072L143.982 86.4915L144.184 86.0612ZM141.671 97.1943L140.806 97.3027L141.104 97.7708L141.885 97.5969L141.671 97.1943ZM140.071 95.9203L139.056 96.0328L139.395 96.8732L140.223 96.8792L140.071 95.9203ZM114.569 133.636L113.861 133.009L112.039 133.951L113.98 134.02L114.569 133.636ZM118.026 133.896L117.035 134.372L116.714 135.067L115.461 136.009L115.803 137.067L116.48 137.246L116.826 138.463L117.542 139.099L118.349 138.999L119.519 137.943L119.707 136.752L119.048 135.937L119.535 135.666L118.026 133.896ZM120.462 129.902L119.847 130.694L119.913 131.535L120.297 131.13L120.832 130.824L120.462 129.902ZM119.02 143.531L119.534 143.371L119.652 142.916L118.651 143.106L119.02 143.531ZM120.306 140.527L121.65 142.084L121.984 141.345L121.196 139.579L120.306 140.527ZM126.745 114.443L127.416 113.941L127.351 113.348L126.423 113.99L126.014 114.677L126.275 115.478L126.847 115.49L126.745 114.443ZM125.263 123.472L125.563 118.909L126.111 118.535L126.399 117.107L125.788 117.327L125.528 118.309L124.983 118.184L124.503 119.226L124.057 119.554L124.383 121.166L124.067 121.93C124.067 121.93 124.539 123.32 124.523 123.322C124.507 123.325 125.263 123.472 125.263 123.472Z" fill="#64D8C0"/>
<path fill-rule="evenodd" clip-rule="evenodd" d="M133.066 126.612L131.674 126.009L128.012 127.01L125.883 125.778L126.542 125.536L127.262 124.997L126.578 123.812L125.837 123.634L125.323 124.046L125.707 124.789L125.55 125.334L124.817 124.907L124.108 125.248L124.164 124.316L122.489 123.707L123.38 123.321L122.889 122.323L123.086 121.101L122.035 119.853L121.585 119.924L121.801 119.263L122.415 119.336L122.698 116.304L123.409 114.492L123.071 112.284L120.801 108.461L119.697 107.572L119.179 107.761L118.608 107.516L118.733 108.474L117.518 109.21L117.286 110.961L117.804 111.139L117.358 112.372L118.102 112.251L117.434 113.152L117.688 113.991L118.209 114.507L118.131 115.131L118.802 115.679L118.942 116.488L118.566 116.765L117.368 114.834L116.794 115.784L116.537 114.855L116.108 115.577L115.637 115.545L115.533 114.746L114.553 114.341L114.376 113.049L113.094 111.282L112.602 111.072L112.175 112.006L112.411 112.729L111.741 113.293L111.886 113.79L112.982 113.888L113.216 114.892L112.795 115.298L112.425 116.818L113.033 117.691L111.788 117.546L111.632 116.802L110.556 114.903L109.944 117.341L109.333 116.874L109.133 117.856L108.527 118.31L108.68 118.952L109.564 119.49L109.623 120.356L112.775 122.438L113.405 122.31L113.454 121.215L113.197 120.085L114.008 119.819L114.27 120.853L115.106 120.028L115.519 120.262L115.547 121.105L115.041 121.322L115.682 121.828L116.568 121.688L116.891 122.319L118.183 122.993L117.863 123.591L116.337 122.406L115.173 123.91L115.543 125.496L116.334 126.045L116.395 126.748L117.183 126.556L116.842 127.497L117.389 128.478L118.296 128.173L117.96 129.831L119.664 129.443L120.666 128.898L121.341 129.181L121.803 128.343L122.324 128.541L122.526 129.372L122.937 129.839L122.502 130.873L122.854 131.342L123.58 131.104L124.591 128.119L125.277 128.18L125.509 129.739L126.896 129.527L126.998 130.268L126.187 130.487L126.251 131.017L125.455 131.104L124.99 131.603L125.152 132.306L124.619 132.575L124.941 133.293L124.255 133.733L124.396 135.244L126.115 135.193L126.742 134.258L128.403 133.23L128.326 132.296L129.053 132.142L129.976 130.262L129.502 129.517L131.33 129.488L133.066 126.612ZM109.109 152.119L108.017 152.534L107.859 153.166L108.465 153.449L109.606 152.773L110.413 152.985L112.85 151.699L113.83 148.511L113.018 148.605L110.872 150.48L110.025 150.563L109.903 151.572L109.109 152.119ZM106.543 155.183L107.453 155.471L107.607 154.83L103.847 154.695L102.031 155.075L101.84 155.321L101.887 157.812L102.929 157.646L102.92 158.429L103.722 158.323L103.943 156.848L105.776 156.281L106.543 155.183ZM114.202 163.88L113.754 163.436L113.182 163.957L114.202 163.88ZM119.048 157.446L119.181 157.938L120.424 157.552L118.283 156.534L117.251 157.072L117.951 157.174L118.213 157.74L119.048 157.446Z" fill="#64D8C0"/>
<path fill-rule="evenodd" clip-rule="evenodd" d="M121.246 150.395L119.397 150.688L119.156 151.324L119.308 152.444L118.561 152.63L118.011 151.807L117.577 152.276L116.673 152.018L116.8 153.013L117.338 153.078L117.385 153.539L116.379 154.447L116.379 155.326L118.841 155.181L119.306 155.924L120.089 155.966L120.186 157.099L121.846 157.55L122.303 156.901L123.526 156.91L123.547 157.697L122.494 158.14L118.627 161.705L120.057 162.202L121.551 161.367L122.363 161.4L123.161 160.749L123.418 161.39L122.613 162.354L121.284 162.596L121 163.151L119.302 163.253L117.626 163.042L117.91 163.889L116.712 163.449L116.535 162.658L115.232 162.685L115.046 163.391L115.194 164.34L114.592 164.495L114.391 165.075L115.314 165.262L115.751 164.949L116.14 165.233L115.887 165.671L117.376 165.955L117.932 164.733L118.227 165.155L118.656 164.692L119.752 165.34L120.222 164.777L121.425 164.3L121.492 165.044L122.196 164.979L123.463 163.931L124.489 164.034L125.817 162.352L125.865 164.127L126.543 164.385L129.676 162.63L129.122 162.073L128.421 162.158L128.654 161.211L129.15 161.137L128.995 160.096L129.626 160.646L129.567 161.519L130.782 161.28L130.662 160.586L131.171 160.24L130.586 158.705L124.556 156.029L123.993 153.752L122.98 152.227L122.447 152.327L122.096 151.779L122.567 151.382L121.246 150.395ZM136.565 197.525L137.053 197.601L137.279 198.366L138.167 199.941L139.891 200.534L142.622 199.982L142.452 198.91L142.919 197.882L142.511 196.584L143.014 195.887L142.539 194.929L141.385 194.727L141.253 190.787L139.831 189.763L139.762 189.324L138.31 188.929L137.817 189.581L136.317 190.462L136.333 191.126L135.761 192.146L136.041 194.218L136.766 195.121L136.495 196.013L136.565 197.525Z" fill="#64D8C0"/>
<path fill-rule="evenodd" clip-rule="evenodd" d="M216.775 114.736L212.92 110.161L210.303 109.759L209.48 110.933L207.857 111.136L206.64 110.519L205.796 111.163L201.442 111.451L200.794 110.792L198.857 110.501L198.178 111.049L197.736 110.647L196.065 110.244L195.194 110.672L194.332 109.764L193.213 109.91L192.673 111.033L191.524 110.845L190.895 111.597L189.043 111.254L183.98 109.053L181.497 109.997L180.529 110.056L178.391 112.877L177.306 112.088L176.474 111.483L174.699 112.966L170.074 114.17L169.44 113.704L168.224 114.431L168.399 115.59L165.672 118.378L163.75 118.383L160.872 117.731L163.048 117.395L163.934 117.711L164.546 116.946L164.125 115.928C164.125 115.928 165.642 115.853 165.645 115.876C165.657 115.874 165.94 115.044 165.94 115.044L167.224 114.793L167.036 113.809L168.502 112.265L169.252 111.077L168.057 110.741L164.721 111.238L160.58 115.004L161.115 112.947L165.193 109.788L166.152 110.265L167.43 109.127L169.469 108.168L168.969 109.536L169.453 110.111L170.477 109.95L172.503 107.161L173.836 104.036L173.017 103.843L171.554 105.308L170.955 104.115L168.804 105.17L165.876 103.748L163.013 103.439L161.018 100.8L161.426 100.445L163.676 102.901L165.783 102.914L167.647 103.735L169.877 101.441L168.28 99.5254L172.201 98.1984L176.999 94.1538L177.808 92.6432L179.124 92.4352L181.43 90.1843L183.8 86.683L185.263 86.8121L185.162 85.9242L186.401 85.8781L187.987 84.7467L188.725 83.4911L189.736 82.9538L189.823 81.267L190.8 80.3657L190.666 78.9174L189.957 78.5268L189.216 76.5383L190.412 75.4765L190.913 73.9683L191.152 72.3424L188.021 71.5343L187.791 70.8318L183.191 71.151L183.875 72.3866L184.603 72.6486L184.161 74.0384L180.556 73.328L180.78 72.6952L179.412 72.7234L175.61 75.1956L171.062 74.4535L170.684 73.5554L169.951 73.9064L170.014 74.7524L169.205 75.1721L168.942 74.608L167.56 74.4346L167.334 75.5462L166.166 75.5905L165.712 76.9581L164.805 75.6564L162.898 76.0047L162.104 77.8676L160.317 79.6665L160.209 79.0862L161.253 77.9156L161.52 75.4216L160.334 74.3059L158.651 74.2579L156.664 77.5844L155.024 79.0032L154.736 78.3533L156.725 75.9092L156.458 74.7662L155.394 74.4L154.986 72.7718L154.275 73.2058L154.181 76.2224L153.444 76.2989L153.229 75.1112L153.595 73.8903L152.368 72.4388L151.103 72.6389L150.303 72.1131L149.667 72.1902L149.133 73.9138L147.504 76.0964L146.988 77.6163L149.385 78.9843L149.24 79.7574L148.487 79.2647L147.682 79.4774L147.953 80.5429L147.644 81.1342C147.644 81.1342 146.813 80.4686 146.804 80.4575C146.787 80.4603 145.772 82.1019 145.772 82.1019L145.431 83.6051L146.47 85.6143L147.473 86.0916L149.723 87.4362L148.831 87.7185L146.792 86.569L146.016 87.1945L144.718 87.058L142.473 87.676L142.195 87.0118L141.168 86.3227L140.804 87.6059L141.351 88.0976L142.135 90.3619L143.366 91.0191L142.445 91.7456L142.69 92.8941L142.373 94.2991L140.985 93.9457L139.527 92.7382L139.02 93.4471L139.496 95.3475L140.499 95.4568L141.722 96.5117L141.866 97.9434L142.755 98.1518L144.361 99.2104L143.616 99.8575L144.475 100.484L145.442 101.548L144.765 101.655L143.176 100.509L142.364 100.433L140.687 99.6255L139.861 99.6661L139.874 100.442L141.458 100.887L141.551 101.528L142.829 102.5L143.087 103.202L142.135 103.046L141.226 101.914L139.116 101.179L138.153 102.443L136.933 102.283L136.698 100.843L135.913 99.9452C135.913 99.9452 135.026 100.023 135.015 100.021C135.001 100.023 134.764 100.799 134.764 100.799L134.151 101.312L134.795 102.833L135.803 103.156L135.786 104.99L134.811 105.776L133.762 104.277L133.222 102.018L130.785 102.309L130.559 103.441C130.559 103.441 131.163 105.246 131.166 105.259C131.167 105.269 130.492 106.127 130.492 106.127L131.54 107.449L132.867 107.239L133.339 108.429L132.905 109.099L132.193 108.651L130.279 110.784L130.353 111.366L131.161 111.144L132.051 112.484L131.821 112.952L132.793 114.056L133.914 114.64C133.914 114.64 134.795 114.547 134.806 114.545C134.818 114.544 136.225 114.816 136.225 114.816L135.392 115.589L134.114 115.481L133.24 116.499L132.603 114.82L131.461 115.028L130.978 114.02L129.513 113.754L128.613 117.678L129.521 119.089L129.376 121.432C129.376 121.432 130.101 122.821 130.103 122.836C130.106 122.852 131.399 122.747 131.399 122.747L132.512 122.115L134.067 120.12L134.267 121.748L134.897 122.838L133.011 123.245L131.205 125.014L131.357 125.802L133.196 125.501L134.317 126.01L135.879 125.72L137.181 126.834L138.04 128.112L137.125 128.205L135.576 126.485L133.11 127.64L133.221 128.949L131.97 129.764L132.152 130.956L133.245 131.05L134.652 131.639L135.322 133.241L134.425 133.362L131.001 132.511L129.626 134.744L130.59 135.587L131.728 135.706L132.235 137.008L133.078 137.356L134.771 137.162L134.814 137.7L132.468 138.245L130.641 136.375L128.254 136.727L128.091 138.455L127.41 139.788L127.581 140.51L126.325 140.772L125.845 141.387L126.94 141.764L130.421 141.02L130.671 141.598L129.361 142.387L130.379 143.169L128.005 143.905L127.017 144.607L126.888 145.847L127.629 146.71L127.232 147.16L124.843 145.611L124.945 146.287L120.393 146.32L119.218 147.554L119.766 149.253L121.097 149.598L122.557 148.833L123.046 149.561L124.856 149.537L125.447 149.988L127.059 149.697L127.499 150.065L127.977 149.551L128.362 149.512L128.492 149.035L128.932 149.012L128.858 148.595C128.858 148.595 129.71 148.482 129.718 148.488C129.727 148.494 130.104 148.833 130.104 148.833L130.578 148.768L131.424 149.733L133.223 149.48L133.954 149.783L132.127 150.188L130.818 150.018L129.377 149.419L128.994 149.385L128.779 149.817L127.709 150.363L123.77 150.977L123.762 151.785C123.762 151.785 124.23 152.286 124.234 152.317C124.239 152.348 125.012 154.237 125.012 154.237L126.874 155.577L127.761 155.53L129.882 156.316L130.421 157.331L131.206 157.311L131.682 156.534L133.241 155.889L134.319 154.335L134.729 152.94L135.671 152.717L136.461 151.409L137.109 151.778L140.788 147.937L141.105 146.819L142.077 146.184L143.127 144.591L143.692 144.838L142.692 146.683L140.992 148.889L141.109 149.5L141.964 149.124L142.466 150.102L139.681 150.762L139.024 151.129L139.498 151.797L138.773 152.657L137.216 154.505L136.868 155.602L137.626 156.268L135.311 157.777L135.314 158.295L136.192 158.129L136.973 159.41L135.862 159.564L134.67 160.633L134.168 160.478L133.154 161.465C133.154 161.465 133.607 162.462 133.611 162.485C133.614 162.509 133.742 163.562 133.742 163.562L132.803 163.957L132.356 165.307L131.846 164.383L131.064 165.214L131.234 166.389L130.271 167.673L130.62 169.179L131.111 169.535L131.447 167.431L132.641 166.811L133.224 167.104L134.19 166.542L134.486 167.108L133.317 167.991L133.577 168.839L131.638 170.686L131.154 172.247L131.729 172.345L131.998 171.705L133.181 170.473L133.572 170.796L132.836 172.216L132.909 173.273L132.15 173.763L129.717 177.055L128.62 178.886C128.62 178.886 128.974 179.585 128.97 179.608C128.996 179.604 129.871 178.774 129.871 178.774L131.016 176.449L131.949 175.971L131.998 176.678L131.188 177.333L130.805 178.8L129.303 180.758L129.306 181.574L130.214 181.338L130.884 180.045L131.457 180.426L129.777 183.402L129.421 184.99L130.588 185.544L130.285 186.362L130.918 187.016L132.692 185.58L134.199 183.652L134.533 184.118C134.533 184.118 133.473 186.281 133.45 186.285C133.427 186.289 131.416 187.581 131.416 187.581L129.097 190.109L129.085 192.767L127.653 195.02L127.884 200.405L126.759 200.623L125.442 201.663L125.329 204.777L127.434 205.725L130.21 205.231L131.732 202.954L130.794 200.714L132.632 197.54L132.933 195.457L133.722 195.113L133.644 193.978L135.188 188.398L135.902 187.485L137.273 187.275L137.587 185.536L135.404 182.354L134.455 177.212L135.183 177.031L136.039 177.61L137.183 176.619L139.619 172.684L140.655 172.165L140.985 171.358L144.117 167.846L144.446 168.383L146.487 167.227L146.382 167.912L144.372 169.597L143.017 171.65C143.017 171.65 141.398 172.323 141.359 172.329C141.321 172.335 138.965 175.379 138.965 175.379L137.283 178.096L137.146 180.216L137.878 183.582L138.643 184.135L139.771 184.295L139.556 181.791L139.963 181.216L139.868 179.534L140.349 179.434L140.771 180.349L141.676 180.945L142.566 181.982L142.977 181.689L142.368 179.342L142.993 179.157L143.933 181.947L143.596 183.108L145.394 183.405L146.043 181.338L146.912 179.81L146.58 179.014L147.305 178.608L147.262 176.846L147.566 175.628L148.132 176.215L148.008 177.672C148.008 177.672 148.705 178.685 148.716 178.707C148.727 178.729 150.193 178.128 150.193 178.128L149.02 176.993L148.759 175.197L149.276 175.075L149.93 177.116L151.319 177.974L151.929 179.385L155.939 180.856L157.127 180.841L158.42 182.707L158.486 182.802L158.017 182.783L156.794 181.726L155.69 181.523L151.905 180.826L149.121 179.468L147.916 181.867L147.019 182.181L147.207 182.993L147.964 186.25L147.734 188.182L146.753 190.3L148.399 192.774L149.628 192.918L151.996 195.371L151.379 196.301L151.804 196.596L152.742 199.331L149.461 202.152L147.716 206.867L147.089 209.37L145.053 211.052L142.065 216.765L142.68 218.368L143.071 219.388L142.969 221.376L142.338 221.876L141.808 220.467L141.514 217.874L140.537 217.816L139.183 218.628L138.722 221.741L140.338 224.872L142.351 226.926L143.616 229.437L143.364 230.631L144.633 232.874L145.65 232.721C145.673 232.717 144.889 228.819 144.889 228.819L144.71 225.397L147.671 223.695L148.735 225.632L155.701 231.381L157.027 231.84L158.02 231.038L157.72 228.902L158.556 226.813C158.556 226.813 158.131 226.471 158.127 226.449C158.124 226.426 156.283 223.566 156.283 223.566L158.993 224.553L161.88 226.648L162.306 227.493L163.826 228.139L165.077 227.816L167.249 228.391L169.074 227.128L169.545 226.519L170.6 226.164L170.676 223.402L171.801 224.788L173.945 223.443L176.165 223.588L176.251 219.824L182.546 220.163L188.336 219.571L188.67 216.781L191.817 215.891L193.188 214.497L197.073 211.508L200.069 206.831L201.115 206.021L202.05 204.655L205.249 204.149L205.012 202.953L208.965 199.987L205.076 193.358L206.332 192.782L207.558 193.052L208.183 191.53L211.183 187.928L212.028 186.349L211.911 185.551L211.328 185.156L211.089 183.948L210.061 183.179L209.78 182.259L208.249 181.549L206.185 182.001L205.571 181.11L204.856 181.045L204.842 181.044L201.93 178.787L197.495 176.023L194.481 176.147L190.611 180.578L188.688 180.883L187.227 179.966L186.576 179.244L184.715 179.539L182.139 178.854L180.682 179.163L180.433 179.064L178.656 178.361L174.878 178.157L173.184 175.62L173.339 175.593L174.127 175.456L174.167 175.474L180.1 178.077L181.495 178.124L181.734 177.339L183.377 177.165L184.298 176.061L185.069 176.599L186.549 176.09L186.674 174.443L187.648 173.276L188.594 173.126L189.466 171.763L191.077 170.289L193.024 171.286L195.385 170.912L196.882 170.015L198.017 169.718L199.311 168.076L198.911 166.795L197.642 165.7L196.372 165.358L194.591 161.083L192.094 160.599C192.094 160.599 191.785 161.222 191.761 161.226C191.067 161.423 190.373 161.621 189.68 161.821L187.814 162.832L185.969 164.372L184.513 164.795L184.416 164.823L184.4 163.969L187.513 161.277L189.259 160.159L190.623 160.285L191.362 160.354L192.323 159.503L193.205 159.944L195.142 159.134L196.323 159.827L200.369 156.155L200.58 155.648L201.958 154.143L201.794 151.961L203.063 151.218L203.543 148.473L203.592 148.187L207.099 145.055L208.248 143.004L209.273 137.578L210.355 136.448L211.338 134.028L211.359 133.979L211.42 129.79L212.96 126.93L214.21 124.611L214.416 123.477L215.244 122.93L216.926 121.061L217.527 119.631L217.274 118.783L217.885 118.011L216.775 114.736Z" fill="#64D8C0"/>
<path fill-rule="evenodd" clip-rule="evenodd" d="M108.557 230.673L109.252 228.552L109.317 227.182L109.369 227.229L110.04 227.83L110.791 229.305L112.457 228.391L114.235 228.328C114.235 228.328 112.882 232.127 112.862 232.13C112.87 232.129 113.499 233.674 113.499 233.674L112.742 234.604L111.635 235.964L111.495 236.28L111.395 236.507L110.895 237.638L110.113 236.978L108.697 236.432L107.487 237.004L105.992 236.438L105.968 236.429L106.118 234.553L106.286 234.339L108.121 232.005L108.514 230.802L108.557 230.673ZM130.793 234.479L130.548 232.877L130.846 232.54L129.998 231.487L129.96 231.484L128.375 231.352L127.468 231.51L125.771 230.845L123.542 232.022L123.273 232.505L123.264 232.496L122.758 232.075L121.878 231.822L122.149 230.649L123.024 230.535L124.134 229.471L125.342 228.88L126.887 227.991L127.261 227.179L127.241 227.074L126.664 224.005L125.179 223.849L124.533 223.189L124.541 222.638L123.944 222.135L121.397 218.346L121.297 215.244L119.549 214.352L119.451 213.934L120.075 211.88L117.867 208.195L115.741 209.034C115.741 209.034 115.181 208.611 115.178 208.587C115.174 208.566 112.588 207.444 112.588 207.444H109.255L108.638 208.099L107.247 208.563L106.88 208.686L104.83 209.01L104.472 209.528L101.761 209.889L101.377 209.94L98.9311 209.943L97.4665 212.883L96.7108 213.946L94.48 214.274L92.0114 214.281L91.9606 213.963L92.0063 213.947L92.0248 213.941L91.896 213.553L91.7668 213.165L90.43 213.651L90.087 213.303L89.1657 213.815L87.9033 215.473L87.8737 217.76L86.6759 217.879L86.6048 220.28L86.6676 220.678L86.2919 221.941L85.8294 222.014L85.6253 222.554L84.1963 223.86L83.2865 225.174L82.919 225.247L80.8294 225.664C80.7925 225.67 80.7777 225.672 78.534 226.363L77.5092 225.254L75.2668 226.599L75.1099 228.733L75.6804 229.05L76.7564 230.309L77.5443 230.075L79.8213 230.43L79.9007 231.029L77.8014 231.745L76.6327 233.46L72.8477 232.828L71.8908 234.286L70.2872 235.397L70.092 235.76L68.2724 235.508L68.4243 236.464L69.7887 238.495L71.0544 240.874L72.4576 242.124L73.1491 243.463L74.5232 243.708L74.7254 243.843L74.8449 247.167L77.019 248.004L79.1156 248.559L80.3328 249.115L80.4579 249.806L82.6869 251.128L83.8131 251.531L85.1393 250.789L85.9785 251.454L86.8605 251.702L87.4952 252.18L88.0644 251.705L88.1004 251.893L89.6476 250.518L90.1434 248.451L91.3121 247.879C91.4386 247.863 91.7663 247.828 92.0599 247.799L92.4961 247.754L92.0617 245.254L91.241 244.384L91.6269 243.222L92.4541 243.436L94.3743 241.042L95.3021 240.099C96.1025 240.552 96.4865 240.768 96.6933 240.867C96.7902 240.955 97.2301 241.396 97.6525 241.824L97.7046 242.754L98.1985 243.023L98.6523 243.671L98.1321 245.194L98.2807 246.344L99.1937 246.616L99.4997 248.228L101.739 250.544L102.236 249.648L102.577 249.434L103.243 250.176L103.499 251.19L102.612 253.272L102.922 254.652L103.621 256.495L104.852 255.763L105.054 255.387L107.044 255.514L107.175 255.314C107.351 255.042 107.486 254.835 107.588 254.675C107.851 254.899 108.228 255.222 108.575 255.521L108.819 255.731L109.885 254.962L110.295 253.705L111.095 254.699L112.096 253.308L112.709 253.776L113.941 253.582L117.923 256.585L118.461 255.629L119.416 255.526L120.736 254.153L121.757 250.837L121.787 250.738L121.57 249.515L122.408 248.423L123.104 246.916L123.051 248.172L126.731 249.224L127.521 247.985L129.683 245.883L130.187 245.803L129.397 243.636L128.969 242.809L126.948 243.512L126.501 243.176L127.622 241.828L128.084 240.145L127.354 239.554L127.302 239.27L127.196 238.708L127.69 237.411L126.794 236.815L126.564 235.556L126.709 235.235L127.228 234.995L129.609 236.762L130.5 240.1L130.206 240.925L129.808 241.034L130.444 244.2L130.787 244.924L132.009 242.35L131.776 240.59L132.198 238.348L130.793 234.479H130.793Z" fill="#2BAB90"/>
</svg>
