<?xml version="1.0" encoding="UTF-8"?>
<svg id="Layer_1" data-name="Layer 1" xmlns="http://www.w3.org/2000/svg" viewBox="0 0 295.75 284.31">
  <defs>
    <style>
      .cls-1 {
        fill: #f5f5f5;
      }

      .cls-2 {
        fill: #906cff;
      }

      .cls-3 {
        fill: #c8bbff;
      }
    </style>
  </defs>
  <rect class="cls-1" x="22.3" y="20.14" width="245.19" height="245.19"/>
  <g>
    <g>
      <path class="cls-3" d="m108.1,155.91l-6.73-28.59-21.83,21.35c-4.16,4.07-5.63,10.17-3.78,15.69l8.89,26.51,19.76-21.1c3.48-3.71,4.86-8.92,3.7-13.87Z"/>
      <path class="cls-3" d="m138.1,131.01l-3.8-27.6-22.49,18.19c-3.2,2.59-4.68,6.76-3.82,10.78l5.69,26.7,20.82-18.38c2.75-2.42,4.1-6.06,3.6-9.69Z"/>
      <path class="cls-3" d="m165.61,112.06l-1.24-23.25-19.68,13.05c-2.38,1.58-3.67,4.35-3.35,7.18l2.59,22.8,18.51-13.2c2.12-1.51,3.31-3.99,3.17-6.59Z"/>
      <path class="cls-3" d="m186.84,97.54l.24-12.35c0-.24-.26-.4-.47-.29l-10.98,5.96c-2.07,1.12-3.3,3.34-3.17,5.68l.68,12c.01.24.28.38.48.25l10.27-6.18c1.79-1.08,2.9-3,2.94-5.09Z"/>
    </g>
    <g>
      <path class="cls-2" d="m145.9,141.37l23.74,10.53-18.73,15.06c-2.94,2.36-6.89,3.05-10.45,1.8l-25.39-8.85,19.21-16.78c3.2-2.8,7.74-3.49,11.63-1.76Z"/>
      <path class="cls-2" d="m119.27,168.11l28.12,9.71-19.91,19.01c-3.13,2.98-7.57,4.15-11.75,3.08l-29.84-7.63,20.29-21.02c3.38-3.51,8.5-4.73,13.1-3.14Z"/>
      <path class="cls-2" d="m171.61,121.25l19.67,10.86-16.64,11.36c-2.2,1.5-5.03,1.74-7.46.63l-21.17-9.74,17.48-12.62c2.38-1.72,5.55-1.91,8.12-.49Z"/>
      <path class="cls-2" d="m193.38,109.25l10.94,6.58-10.09,5.97c-1.89,1.12-4.25,1.13-6.15.02l-10.93-6.36,9.88-6.17c1.94-1.21,4.39-1.23,6.35-.05Z"/>
    </g>
    <path class="cls-3" d="m215.13,90l-12.44-1.16c-2.34-.22-4.6.93-5.79,2.96l-6.11,10.35c-.08.13-.04.28.05.37,5.39-2.86,15.82-8.06,24.57-12.32-.04-.1-.14-.18-.26-.2Z"/>
    <path class="cls-2" d="m215.39,90.2c-8.75,4.26-19.18,9.46-24.57,12.32.03.04.07.06.12.08.03.01.05.03.09.03l11.97.59c2.09.1,4.08-.87,5.28-2.59l7.04-10.07.04-.05c.07-.1.07-.21.03-.3Z"/>
    <path class="cls-2" d="m83.37,192.93l-.66-1.95c-21.22,23.15-40.4,48.03-57.36,74.36h10.63c15.02-25.28,31.86-49.1,50.23-71.04-.78-.28-2.6-.33-2.84-1.37Z"/>
  </g>
</svg>