<?xml version="1.0" encoding="UTF-8"?>
<svg width="101.2mm" height="101.25mm" version="1.1" viewBox="0 0 101.2 101.25" xmlns="http://www.w3.org/2000/svg"><defs><clipPath id="clipPath1451"><path d="M 0,748.735 H 910.367 V 0 H 0 Z"/></clipPath></defs><g transform="translate(-34.739 -44.989)"><g transform="matrix(.35278 0 0 -.35278 -125.05 250.75)"><g transform="translate(-76.071 -109.29)"><g clip-path="url(#clipPath1451)"><g transform="translate(724.59 637.66)"><path d="m0 0c-21.39 0-41.03-7.452-56.5-19.884 2.805-1.659 5.595-3.34 8.113-5.418 2.487-2.052 4.408-4.544 6.153-7.185 11.841 8.67 26.434 13.804 42.234 13.804 39.543 0 71.599-32.056 71.599-71.598 0-39.543-32.056-71.598-71.599-71.598-30.219 0-56.05 18.728-66.559 45.204-0.071 6e-3 -0.139 7e-3 -0.212 0.015-0.141 0.017-0.274 0.044-0.414 0.062-0.258-0.037-0.526-0.064-0.811-0.062-4.432 0.025-8.03 1.717-11.961 3.591-0.498 0.237-0.887 0.553-1.216 0.905-0.416 0.19-0.831 0.377-1.254 0.573-1.967 0.912-3.933 1.651-5.863 2.426 8.684-40.794 44.907-71.398 88.29-71.398 49.861 0 90.281 40.421 90.281 90.282s-40.42 90.281-90.281 90.281" fill="#81c89a"/></g><g transform="translate(637.69 526.87)"><path d="m0 0c9.401-39.961 45.646-68.77 86.9-68.77 49.231 0 89.282 40.052 89.282 89.282s-40.051 89.281-89.282 89.281c-20.062 0-38.958-6.484-54.741-18.767 2.53-1.517 4.837-2.987 6.991-4.764 2.487-2.052 4.361-4.482 5.77-6.54 12.326 8.762 26.817 13.388 41.98 13.388 40.032 0 72.599-32.568 72.599-72.598 0-40.031-32.567-72.598-72.599-72.598-29.739 0-56.072 17.746-67.257 45.263-0.266-0.031-0.508-0.044-0.746-0.044-4.705 0.027-8.435 1.805-12.384 3.688-0.506 0.241-0.956 0.562-1.372 0.976l-1.088 0.498c-1.347 0.624-2.717 1.176-4.053 1.705m86.9-70.77c-21.029 0-41.552 7.326-57.791 20.628-16.012 13.118-27.191 31.43-31.476 51.562l-0.391 1.835 3.059-1.223c1.499-0.593 3.048-1.206 4.594-1.923l1.427-0.652 0.136-0.145c0.286-0.306 0.576-0.524 0.915-0.685 3.742-1.785 7.277-3.47 11.537-3.494 0.221-2e-3 0.451 0.021 0.662 0.052l0.137 0.02 1.333-0.141 0.229-0.577c10.748-27.077 36.508-44.573 65.629-44.573 38.928 0 70.599 31.67 70.599 70.598 0 38.927-31.671 70.598-70.599 70.598-15.082 0-29.482-4.707-41.643-13.611l-0.847-0.62-0.578 0.876c-2.059 3.117-3.894 5.265-5.955 6.964-2.393 1.974-5.032 3.582-7.986 5.329l-1.243 0.736 1.125 0.904c16.368 13.153 36.122 20.105 57.127 20.105 50.333 0 91.282-40.949 91.282-91.281 0-50.333-40.949-91.282-91.282-91.282" fill="#fff"/></g><g transform="translate(671.65 529.68)"><path d="m0 0c-39.542 0-71.598 32.056-71.598 71.598 0 39.543 32.056 71.598 71.598 71.598 39.543 0 71.599-32.055 71.599-71.598 0-39.542-32.056-71.598-71.599-71.598m0 161.88c-49.86 0-90.281-40.42-90.281-90.281s40.421-90.281 90.281-90.281c49.861 0 90.281 40.42 90.281 90.281s-40.42 90.281-90.281 90.281" fill="#81c89a"/></g><g transform="translate(671.65 671.87)"><path d="m0 0c-38.928 0-70.598-31.67-70.598-70.598s31.67-70.598 70.598-70.598 70.599 31.67 70.599 70.598-31.671 70.598-70.599 70.598m0-143.2c-40.03 0-72.598 32.567-72.598 72.598s32.568 72.598 72.598 72.598c40.031 0 72.599-32.567 72.599-72.598s-32.568-72.598-72.599-72.598m0 161.88c-49.229 0-89.281-40.051-89.281-89.281s40.052-89.281 89.281-89.281c49.23 0 89.281 40.051 89.281 89.281s-40.051 89.281-89.281 89.281m0-180.56c-50.332 0-91.281 40.948-91.281 91.281 0 50.332 40.949 91.281 91.281 91.281 50.333 0 91.281-40.949 91.281-91.281 0-50.333-40.948-91.281-91.281-91.281" fill="#fff"/></g><g transform="translate(620.3 476.78)"><path d="m0 0c-39.543 0-71.599 32.056-71.599 71.598 0 39.543 32.056 71.598 71.599 71.598 39.542 0 71.598-32.055 71.598-71.598 0-39.542-32.056-71.598-71.598-71.598m0 161.88c-49.861 0-90.281-40.419-90.281-90.281 0-49.861 40.42-90.281 90.281-90.281 49.86 0 90.281 40.42 90.281 90.281 0 49.862-40.421 90.281-90.281 90.281" fill="#81c89a"/></g><g transform="translate(620.3 618.98)"><path d="m0 0c-38.928 0-70.598-31.67-70.598-70.598s31.67-70.598 70.598-70.598 70.599 31.67 70.599 70.598-31.671 70.598-70.599 70.598m0-143.2c-40.03 0-72.598 32.567-72.598 72.598s32.568 72.598 72.598 72.598c40.031 0 72.599-32.567 72.599-72.598s-32.568-72.598-72.599-72.598m0 161.88c-49.229 0-89.281-40.051-89.281-89.281s40.052-89.281 89.281-89.281c49.23 0 89.281 40.051 89.281 89.281s-40.051 89.281-89.281 89.281m0-180.56c-50.332 0-91.281 40.948-91.281 91.281 0 50.332 40.949 91.281 91.281 91.281 50.333 0 91.281-40.949 91.281-91.281 0-50.333-40.948-91.281-91.281-91.281" fill="#fff"/></g><g transform="translate(672.65 425.22)"><path d="m0 0c-39.542 0-71.598 32.056-71.598 71.598 0 39.543 32.056 71.598 71.598 71.598 39.543 0 71.599-32.055 71.599-71.598 0-39.542-32.056-71.598-71.599-71.598m0 161.88c-49.86 0-90.281-40.419-90.281-90.281 0-49.861 40.421-90.281 90.281-90.281 49.861 0 90.281 40.42 90.281 90.281 0 49.862-40.42 90.281-90.281 90.281" fill="#81c89a"/></g><g transform="translate(672.65 567.41)"><path d="m0 0c-38.928 0-70.598-31.67-70.598-70.598s31.67-70.598 70.598-70.598 70.599 31.67 70.599 70.598-31.671 70.598-70.599 70.598m0-143.2c-40.03 0-72.598 32.567-72.598 72.598s32.568 72.598 72.598 72.598c40.031 0 72.599-32.567 72.599-72.598s-32.568-72.598-72.599-72.598m0 161.88c-49.229 0-89.281-40.051-89.281-89.281s40.052-89.281 89.281-89.281c49.23 0 89.281 40.051 89.281 89.281s-40.051 89.281-89.281 89.281m0-180.56c-50.332 0-91.281 40.948-91.281 91.281 0 50.332 40.949 91.281 91.281 91.281 50.333 0 91.281-40.949 91.281-91.281 0-50.333-40.948-91.281-91.281-91.281" fill="#fff"/></g><g transform="translate(805.36 509.18)"><path d="m0 0c-0.161-0.339-0.334-0.672-0.518-0.994-0.626-1.098-1.676-1.814-2.854-2.195-0.503-0.163-1.025-0.205-1.543-0.164-1.226-0.258-2.516-0.307-3.768-0.251-2.677 0.118-4.656 2.094-4.776 4.776-0.026 0.581 0.088 1.154 0.302 1.693-0.704 0.633-1.245 1.457-1.429 2.326-1e-3 2e-3 -1e-3 3e-3 -1e-3 4e-3 -0.423 0.958-0.393 2.146-0.171 3.124 0.093 0.409 0.262 0.786 0.476 1.138-0.242 0.139-0.474 0.29-0.718 0.427-10.976-25.455-36.286-43.28-65.769-43.28-3.853 0-7.632 0.314-11.321 0.9-0.109-0.314-0.224-0.625-0.34-0.937 0.22-0.034 0.429-0.052 0.658-0.096 0.386-0.074 0.755-0.172 1.111-0.292 0.877-0.035 1.754-0.08 2.632-0.149 0.337-0.026 0.666-0.083 0.985-0.163 2.394-0.206 4.342-2.322 4.342-4.736 0-0.386-0.053-0.748-0.136-1.095 0.185-0.853 0.161-1.661 0.028-2.53-0.326-2.127-1.515-3.873-3.192-5.18-1.496-1.165-3.214-1.956-5.087-2.215-0.436-0.134-0.89-0.201-1.349-0.185-1.12 0.039-2.139 0.326-3.195 0.546-0.117 2e-3 -0.234 0.012-0.355 5e-3 -0.378-1e-3 -0.738 0.051-1.084 0.133-0.467 0.011-0.936 0.045-1.398 0.119-0.117-0.333-0.237-0.665-0.343-1.002 5.831-1.183 11.865-1.806 18.044-1.806 35.989 0 67.055 21.059 81.558 51.525-0.261 0.185-0.527 0.369-0.789 0.554" fill="#81c89a"/></g><g transform="translate(805.98 509.96)"><path d="m0 0c-0.073 0.052-0.15 0.105-0.224 0.157-5e-3 -0.012-0.012-0.023-0.017-0.035-0.24-0.66-0.559-1.299-0.904-1.905-0.017-0.031-0.043-0.055-0.062-0.086-14.929-30.406-46.283-49.998-80.189-49.998-5.625 0-11.251 0.528-16.744 1.569 0.015 0.045 0.032 0.089 0.048 0.133-0.675 0.039-1.346 0.133-1.989 0.318-0.107-0.303-0.215-0.606-0.313-0.912l-0.336-1.061 1.09-0.222c5.971-1.211 12.11-1.825 18.244-1.825 35.028 0 67.396 20.448 82.461 52.095l0.361 0.757z" fill="#fff"/></g><g transform="translate(790.85 519.93)"><path d="m0 0-0.969 0.543-0.439-1.019c-11.178-25.924-36.633-42.675-64.85-42.675-3.704 0-7.461 0.298-11.164 0.887l-0.826 0.132-0.275-0.79c-0.132-0.378-0.277-0.755-0.42-1.132 0.543-0.045 1.094-0.118 1.681-0.231 0.12-0.023 0.229-0.063 0.346-0.09 1e-3 3e-3 3e-3 6e-3 4e-3 0.01 0.744-0.11 1.49-0.201 2.236-0.288 0.386-0.024 0.772-0.042 1.157-0.073 0.255-0.02 0.502-0.068 0.748-0.119 2.175-0.196 4.353-0.306 6.513-0.306 28.4 0 54.07 16.505 65.926 42.201 0.025 0.174 0.048 0.349 0.085 0.513 0.168 0.738 0.565 1.386 1.078 1.931 1e-3 3e-3 2e-3 7e-3 3e-3 0.011-0.28 0.162-0.551 0.336-0.834 0.495" fill="#fff"/></g><g transform="translate(672.51 597.16)"><path d="m0 0c-3.184 3.551-10.041 8.939-13.837 11.265-18.367-20.449-25.347-40.653-23.878-68.081 3.429-2.817 13.348-6.643 20.327-8.48-5.143 28.378 5.452 52.508 17.388 65.296" fill="#81c89a"/></g><g transform="translate(635.77 540.85)"><path d="m0 0c3.288-2.459 11.516-5.722 18.1-7.604-4.546 27.965 5.749 51.133 17.278 63.909-3.076 3.197-8.684 7.639-12.293 9.973-17.501-19.736-24.424-39.628-23.085-66.278m20.615-10.353-1.518 0.4c-7.181 1.89-17.139 5.744-20.707 8.674l-0.34 0.279-0.024 0.44c-1.486 27.741 5.731 48.317 24.132 68.804l0.557 0.619 0.71-0.435c3.974-2.436 10.831-7.85 14.058-11.45l0.611-0.682-0.624-0.668c-11.664-12.498-22.29-35.987-17.135-64.436z" fill="#fff"/></g></g></g></g></g></svg>
