<?xml version="1.0" encoding="UTF-8"?>
<svg width="25px" height="26px" viewBox="0 0 25 26" version="1.1" xmlns="http://www.w3.org/2000/svg" xmlns:xlink="http://www.w3.org/1999/xlink">
    <!-- Generator: Sketch 47.1 (45422) - http://www.bohemiancoding.com/sketch -->
    <title>forbidden-mark</title>
    <desc>Created with Sketch.</desc>
    <defs></defs>
    <g id="Prototype" stroke="none" stroke-width="1" fill="none" fill-rule="evenodd">
        <g id="Great.gov-int---landing-page-language" transform="translate(-1191.000000, -63.000000)" fill="#006CCC">
            <g id="Language-popup" transform="translate(45.000000, 33.000000)">
                <g id="forbidden-mark" transform="translate(1146.000000, 30.000000)">
                    <path d="M21.0255419,0.759350956 C20.8252026,0.559549681 20.497342,0.559549681 20.2970026,0.759350956 L12.8643593,8.19199425 C12.6638406,8.39233359 12.33598,8.39233359 12.1356407,8.19199425 L4.70299738,0.759350956 C4.50247868,0.559549681 4.17461806,0.559549681 3.97499614,0.759350956 L0.14971644,4.58391324 C-0.04990548,4.78425258 -0.04990548,5.1121132 0.14971644,5.31245254 L7.58235974,12.7452752 C7.78287843,12.9456145 7.78287843,13.2734751 7.58235974,13.4738145 L0.14971644,20.9066371 C-0.04990548,21.1069765 -0.04990548,21.4348371 0.14971644,21.6351764 L3.97427872,25.4597387 C4.17461806,25.6602574 4.50247868,25.6602574 4.70299738,25.4597387 L12.1356407,18.0270954 C12.33598,17.8267561 12.6638406,17.8267561 12.8643593,18.0270954 L20.2970026,25.4597387 C20.497342,25.65954 20.8252026,25.65954 21.0255419,25.4597387 L24.8502836,21.6351764 C25.0499055,21.4348371 25.0499055,21.1069765 24.8502836,20.9066371 L17.4174609,13.4738145 C17.2171216,13.2734751 17.2171216,12.9456145 17.4174609,12.7452752 L24.8502836,5.31245254 C25.0499055,5.1121132 25.0499055,4.78425258 24.8502836,4.58463066 L21.0255419,0.759350956 Z" id="Fill-1"></path>
                </g>
            </g>
        </g>
    </g>
</svg>
