<?xml version="1.0" encoding="UTF-8"?>
<svg width="347px" height="43px" viewBox="0 0 347 43" version="1.1" xmlns="http://www.w3.org/2000/svg" xmlns:xlink="http://www.w3.org/1999/xlink">
    <!-- Generator: Sketch 47.1 (45422) - http://www.bohemiancoding.com/sketch -->
    <title>Page 1</title>
    <desc>Created with Sketch.</desc>
    <defs></defs>
    <g id="Prototype" stroke="none" stroke-width="1" fill="none" fill-rule="evenodd">
        <g id="Great.gov-int---landing-page---uk-gov" transform="translate(-60.000000, -79.000000)">
            <g id="Page-1" transform="translate(60.000000, 79.000000)">
                <polygon id="Fill-1" fill="#FEFEFE" points="0 42.5187 73.411 42.5187 73.411 -0.0003 0 -0.0003"></polygon>
                <polygon id="Fill-2" fill="#333333" points="0 13.7602 15.205 13.7602 0 5.0912"></polygon>
                <polygon id="Fill-3" fill="#333333" points="8.4636 0.0001 30.3416 12.9351 30.3416 0.0001"></polygon>
                <polygon id="Fill-4" fill="#333333" points="0 0.0001 0 3.0281 18.702 14.0351 24.011 14.0351"></polygon>
                <polygon id="Fill-5" fill="#333333" points="73.2733 37.4281 73.2733 28.7591 58.0673 28.7591"></polygon>
                <polygon id="Fill-6" fill="#333333" points="42.9309 42.5188 64.8089 42.5188 42.9309 29.5838"></polygon>
                <polygon id="Fill-7" fill="#333333" points="49.2615 28.4833 73.2735 42.5193 73.2735 39.4913 54.5705 28.4833"></polygon>
                <polygon id="Fill-8" fill="#333333" points="0 28.7596 0 37.4286 15.205 28.7596"></polygon>
                <polygon id="Fill-9" fill="#333333" points="8.4636 42.5197 30.3416 42.5197 30.3416 29.5847"></polygon>
                <polygon id="Fill-10" fill="#333333" points="73.2733 5.0922 73.2733 13.7602 58.0673 13.7602"></polygon>
                <polygon id="Fill-11" fill="#333333" points="42.9309 0.0001 42.9309 12.9351 64.8089 0.0001"></polygon>
                <polygon id="Fill-12" fill="#333333" points="23.5989 28.7596 -0.0001 42.5196 4.8849 42.5196 28.4149 28.7596"></polygon>
                <polygon id="Fill-13" fill="#333333" points="68.319 0.0001 44.719 13.7591 49.606 13.7591 73.273 0.0001"></polygon>
                <polygon id="Fill-14" fill="#333333" points="0.123 25.7317 73.411 25.7317 73.411 17.0617 0.123 17.0617"></polygon>
                <polygon id="Fill-15" fill="#333333" points="32.432 42.5187 41.101 42.5187 41.101 -0.0003 32.432 -0.0003"></polygon>
                <g id="Group-40" transform="translate(83.000000, 6.519700)" fill="#333333">
                    <path d="M0.3988,1.2107 L5.1358,1.2107 L5.1358,16.9757 C5.1358,17.8857 5.1798,18.8087 5.2688,19.7427 C5.3568,20.6777 5.6098,21.5177 6.0268,22.2627 C6.4438,23.0077 7.0748,23.6217 7.9218,24.1007 C8.7678,24.5817 9.9618,24.8207 11.5028,24.8207 C13.0438,24.8207 14.2368,24.5817 15.0848,24.1007 C15.9308,23.6217 16.5618,23.0077 16.9788,22.2627 C17.3958,21.5177 17.6488,20.6777 17.7368,19.7427 C17.8248,18.8087 17.8698,17.8857 17.8698,16.9757 L17.8698,1.2107 L22.6068,1.2107 L22.6068,18.5297 C22.6068,20.2727 22.3418,21.7897 21.8108,23.0767 C21.2798,24.3667 20.5278,25.4457 19.5558,26.3177 C18.5838,27.1887 17.4148,27.8397 16.0508,28.2697 C14.6868,28.6987 13.1698,28.9137 11.5028,28.9137 C9.8348,28.9137 8.3198,28.6987 6.9548,28.2697 C5.5908,27.8397 4.4218,27.1887 3.4498,26.3177 C2.4768,25.4457 1.7248,24.3667 1.1948,23.0767 C0.6648,21.7897 0.3988,20.2727 0.3988,18.5297 L0.3988,1.2107 Z" id="Fill-16"></path>
                    <polygon id="Fill-18" points="26.9267 1.2107 31.6637 1.2107 31.6637 13.5277 43.7147 1.2107 49.5517 1.2107 38.7507 12.0117 50.3097 28.2697 44.3977 28.2697 35.5297 15.3457 31.6637 19.1737 31.6637 28.2697 26.9267 28.2697"></polygon>
                    <path d="M85.1366,28.2698 L82.1046,28.2698 L81.3846,25.0858 C80.1206,26.5268 78.8586,27.5248 77.5946,28.0798 C76.3306,28.6358 74.8786,28.9138 73.2366,28.9138 C71.2156,28.9138 69.4026,28.5408 67.7986,27.7958 C66.1936,27.0508 64.8356,26.0348 63.7246,24.7458 C62.6126,23.4568 61.7606,21.9538 61.1666,20.2348 C60.5726,18.5178 60.2756,16.6858 60.2756,14.7398 C60.2756,12.8208 60.5726,11.0008 61.1666,9.2828 C61.7606,7.5648 62.6126,6.0618 63.7246,4.7738 C64.8356,3.4848 66.1936,2.4618 67.7986,1.7028 C69.4026,0.9458 71.2156,0.5668 73.2366,0.5668 C74.7016,0.5668 76.0976,0.7628 77.4246,1.1538 C78.7506,1.5468 79.9316,2.1258 80.9676,2.8968 C82.0036,3.6678 82.8626,4.6338 83.5446,5.7958 C84.2266,6.9578 84.6556,8.2978 84.8336,9.8128 L80.2096,9.8128 C80.0826,8.9298 79.8116,8.1528 79.3946,7.4828 C78.9786,6.8138 78.4536,6.2518 77.8226,5.7958 C77.1906,5.3408 76.4826,5.0008 75.6996,4.7738 C74.9166,4.5448 74.0946,4.4318 73.2366,4.4318 C71.7966,4.4318 70.5526,4.7228 69.5046,5.3038 C68.4546,5.8848 67.6026,6.6628 66.9456,7.6348 C66.2886,8.6078 65.8026,9.7128 65.4866,10.9508 C65.1706,12.1888 65.0126,13.4508 65.0126,14.7398 C65.0126,16.0278 65.1706,17.2928 65.4866,18.5298 C65.8026,19.7688 66.2886,20.8738 66.9456,21.8458 C67.6026,22.8188 68.4546,23.5948 69.5046,24.1758 C70.5526,24.7578 71.7966,25.0478 73.2366,25.0478 C74.4486,25.0738 75.5226,24.9158 76.4576,24.5748 C77.3926,24.2328 78.1816,23.7408 78.8266,23.0968 C79.4706,22.4518 79.9566,21.6638 80.2856,20.7278 C80.6136,19.7928 80.7906,18.7568 80.8156,17.6208 L73.6156,17.6208 L73.6156,14.0198 L85.1366,14.0198 L85.1366,28.2698 Z" id="Fill-20"></path>
                    <path d="M97.6952,25.3889 C98.6542,25.3889 99.4882,25.1879 100.1952,24.7839 C100.9032,24.3779 101.4852,23.8479 101.9392,23.1919 C102.3942,22.5349 102.7282,21.7949 102.9452,20.9739 C103.1572,20.1539 103.2662,19.3129 103.2662,18.4549 C103.2662,17.6209 103.1572,16.7869 102.9452,15.9529 C102.7282,15.1189 102.3942,14.3799 101.9392,13.7359 C101.4852,13.0919 100.9032,12.5679 100.1952,12.1629 C99.4882,11.7599 98.6542,11.5559 97.6952,11.5559 C96.7342,11.5559 95.9002,11.7599 95.1932,12.1629 C94.4862,12.5679 93.9052,13.0919 93.4502,13.7359 C92.9962,14.3799 92.6602,15.1189 92.4462,15.9529 C92.2312,16.7869 92.1242,17.6209 92.1242,18.4549 C92.1242,19.3129 92.2312,20.1539 92.4462,20.9739 C92.6602,21.7949 92.9962,22.5349 93.4502,23.1919 C93.9052,23.8479 94.4862,24.3779 95.1932,24.7839 C95.9002,25.1879 96.7342,25.3889 97.6952,25.3889 M97.6952,28.7999 C96.1282,28.7999 94.7322,28.5409 93.5072,28.0229 C92.2822,27.5059 91.2452,26.7909 90.3992,25.8819 C89.5532,24.9719 88.9092,23.8859 88.4672,22.6229 C88.0252,21.3599 87.8032,19.9699 87.8032,18.4549 C87.8032,16.9629 88.0252,15.5869 88.4672,14.3229 C88.9092,13.0599 89.5532,11.9729 90.3992,11.0639 C91.2452,10.1549 92.2822,9.4409 93.5072,8.9219 C94.7322,8.4059 96.1282,8.1459 97.6952,8.1459 C99.2602,8.1459 100.6562,8.4059 101.8822,8.9219 C103.1092,9.4409 104.1432,10.1549 104.9892,11.0639 C105.8362,11.9729 106.4812,13.0599 106.9222,14.3229 C107.3642,15.5869 107.5862,16.9629 107.5862,18.4549 C107.5862,19.9699 107.3642,21.3599 106.9222,22.6229 C106.4812,23.8859 105.8362,24.9719 104.9892,25.8819 C104.1432,26.7909 103.1092,27.5059 101.8822,28.0229 C100.6562,28.5409 99.2602,28.7999 97.6952,28.7999" id="Fill-22"></path>
                    <polygon id="Fill-24" points="107.3998 8.677 112.0998 8.677 117.0648 23.722 117.1408 23.722 121.9158 8.677 126.3868 8.677 119.3768 28.27 114.5258 28.27"></polygon>
                    <path d="M140.5619,16.7483 C140.5109,16.0663 140.3659,15.4103 140.1259,14.7783 C139.8849,14.1463 139.5569,13.5983 139.1399,13.1293 C138.7229,12.6633 138.2169,12.2833 137.6239,11.9933 C137.0309,11.7033 136.3679,11.5563 135.6339,11.5563 C134.8769,11.5563 134.1889,11.6893 133.5689,11.9553 C132.9499,12.2203 132.4189,12.5863 131.9779,13.0543 C131.5349,13.5213 131.1819,14.0713 130.9169,14.7023 C130.6519,15.3333 130.5049,16.0163 130.4799,16.7483 L140.5619,16.7483 Z M130.4799,19.5903 C130.4799,20.3493 130.5869,21.0823 130.8019,21.7893 C131.0169,22.4963 131.3389,23.1153 131.7689,23.6453 C132.1989,24.1763 132.7419,24.5993 133.3989,24.9153 C134.0549,25.2323 134.8379,25.3893 135.7479,25.3893 C137.0109,25.3893 138.0279,25.1173 138.7979,24.5743 C139.5699,24.0313 140.1449,23.2163 140.5229,22.1293 L144.6169,22.1293 C144.3889,23.1913 143.9979,24.1393 143.4419,24.9723 C142.8849,25.8063 142.2159,26.5083 141.4319,27.0753 C140.6489,27.6443 139.7709,28.0743 138.7979,28.3643 C137.8269,28.6543 136.8099,28.8003 135.7479,28.8003 C134.2079,28.8003 132.8419,28.5473 131.6559,28.0423 C130.4679,27.5363 129.4629,26.8293 128.6419,25.9193 C127.8219,25.0103 127.2029,23.9253 126.7859,22.6603 C126.3689,21.3983 126.1599,20.0073 126.1599,18.4913 C126.1599,17.1023 126.3809,15.7823 126.8239,14.5313 C127.2649,13.2813 127.8969,12.1813 128.7179,11.2343 C129.5389,10.2873 130.5309,9.5353 131.6929,8.9803 C132.8549,8.4243 134.1679,8.1463 135.6339,8.1463 C137.1749,8.1463 138.5579,8.4683 139.7849,9.1123 C141.0089,9.7563 142.0259,10.6083 142.8349,11.6703 C143.6429,12.7313 144.2299,13.9503 144.5969,15.3273 C144.9629,16.7053 145.0579,18.1263 144.8809,19.5903 L130.4799,19.5903 Z" id="Fill-26"></path>
                    <path d="M147.1889,8.677 L151.2439,8.677 L151.2439,12.467 L151.3199,12.467 C151.4459,11.936 151.6929,11.418 152.0589,10.912 C152.4239,10.407 152.8669,9.946 153.3849,9.529 C153.9019,9.113 154.4779,8.778 155.1099,8.525 C155.7399,8.272 156.3849,8.146 157.0419,8.146 C157.5469,8.146 157.8949,8.159 158.0849,8.183 C158.2739,8.209 158.4689,8.235 158.6709,8.26 L158.6709,12.428 C158.3689,12.378 158.0589,12.333 157.7439,12.296 C157.4259,12.258 157.1189,12.239 156.8149,12.239 C156.0819,12.239 155.3929,12.385 154.7499,12.675 C154.1059,12.965 153.5429,13.394 153.0629,13.963 C152.5839,14.531 152.2039,15.232 151.9259,16.066 C151.6479,16.9 151.5089,17.861 151.5089,18.947 L151.5089,28.27 L147.1889,28.27 L147.1889,8.677 Z" id="Fill-28"></path>
                    <path d="M160.5277,8.677 L164.6217,8.677 L164.6217,11.556 L164.6967,11.633 C165.3537,10.547 166.2127,9.693 167.2737,9.074 C168.3357,8.456 169.5097,8.146 170.7987,8.146 C172.9457,8.146 174.6377,8.701 175.8767,9.813 C177.1137,10.926 177.7337,12.593 177.7337,14.815 L177.7337,28.27 L173.4137,28.27 L173.4137,15.953 C173.3627,14.412 173.0347,13.294 172.4267,12.598 C171.8217,11.904 170.8747,11.556 169.5857,11.556 C168.8517,11.556 168.1957,11.689 167.6147,11.955 C167.0327,12.22 166.5407,12.586 166.1367,13.054 C165.7327,13.521 165.4167,14.072 165.1897,14.702 C164.9617,15.334 164.8477,16.003 164.8477,16.71 L164.8477,28.27 L160.5277,28.27 L160.5277,8.677 Z" id="Fill-30"></path>
                    <path d="M181.102,8.677 L185.196,8.677 L185.196,11.406 L185.309,11.406 C185.637,10.926 185.992,10.483 186.37,10.078 C186.748,9.675 187.172,9.334 187.639,9.055 C188.107,8.778 188.644,8.557 189.25,8.392 C189.858,8.228 190.552,8.146 191.335,8.146 C192.522,8.146 193.627,8.411 194.652,8.942 C195.674,9.472 196.401,10.294 196.831,11.406 C197.563,10.395 198.409,9.599 199.369,9.017 C200.329,8.436 201.529,8.146 202.97,8.146 C205.041,8.146 206.651,8.652 207.801,9.661 C208.951,10.673 209.526,12.365 209.526,14.74 L209.526,28.27 L205.206,28.27 L205.206,16.825 C205.206,16.042 205.179,15.327 205.13,14.683 C205.079,14.039 204.934,13.483 204.693,13.015 C204.454,12.548 204.093,12.189 203.614,11.936 C203.134,11.683 202.476,11.556 201.642,11.556 C200.177,11.556 199.116,12.011 198.459,12.921 C197.802,13.831 197.474,15.119 197.474,16.787 L197.474,28.27 L193.154,28.27 L193.154,15.688 C193.154,14.323 192.907,13.294 192.415,12.598 C191.922,11.904 191.018,11.556 189.706,11.556 C189.15,11.556 188.613,11.671 188.095,11.898 C187.577,12.125 187.122,12.454 186.73,12.884 C186.338,13.313 186.024,13.844 185.783,14.475 C185.542,15.107 185.422,15.827 185.422,16.635 L185.422,28.27 L181.102,28.27 L181.102,8.677 Z" id="Fill-32"></path>
                    <path d="M226.3705,16.7483 C226.3195,16.0663 226.1745,15.4103 225.9345,14.7783 C225.6945,14.1463 225.3665,13.5983 224.9495,13.1293 C224.5325,12.6633 224.0265,12.2833 223.4325,11.9933 C222.8405,11.7033 222.1765,11.5563 221.4435,11.5563 C220.6855,11.5563 219.9975,11.6893 219.3785,11.9553 C218.7595,12.2203 218.2285,12.5863 217.7865,13.0543 C217.3445,13.5213 216.9915,14.0713 216.7255,14.7023 C216.4605,15.3333 216.3135,16.0163 216.2895,16.7483 L226.3705,16.7483 Z M216.2895,19.5903 C216.2895,20.3493 216.3965,21.0823 216.6115,21.7893 C216.8255,22.4963 217.1475,23.1153 217.5785,23.6453 C218.0085,24.1763 218.5505,24.5993 219.2085,24.9153 C219.8645,25.2323 220.6475,25.3893 221.5575,25.3893 C222.8205,25.3893 223.8365,25.1173 224.6075,24.5743 C225.3785,24.0313 225.9535,23.2163 226.3325,22.1293 L230.4255,22.1293 C230.1985,23.1913 229.8065,24.1393 229.2515,24.9723 C228.6945,25.8063 228.0245,26.5083 227.2415,27.0753 C226.4585,27.6443 225.5795,28.0743 224.6075,28.3643 C223.6365,28.6543 222.6195,28.8003 221.5575,28.8003 C220.0165,28.8003 218.6515,28.5473 217.4655,28.0423 C216.2765,27.5363 215.2725,26.8293 214.4515,25.9193 C213.6315,25.0103 213.0115,23.9253 212.5945,22.6603 C212.1785,21.3983 211.9695,20.0073 211.9695,18.4913 C211.9695,17.1023 212.1895,15.7823 212.6335,14.5313 C213.0745,13.2813 213.7065,12.1813 214.5275,11.2343 C215.3485,10.2873 216.3405,9.5353 217.5025,8.9803 C218.6645,8.4243 219.9775,8.1463 221.4435,8.1463 C222.9845,8.1463 224.3675,8.4683 225.5935,9.1123 C226.8185,9.7563 227.8355,10.6083 228.6435,11.6703 C229.4525,12.7313 230.0395,13.9503 230.4055,15.3273 C230.7715,16.7053 230.8675,18.1263 230.6905,19.5903 L216.2895,19.5903 Z" id="Fill-34"></path>
                    <path d="M232.9975,8.677 L237.0915,8.677 L237.0915,11.556 L237.1665,11.633 C237.8235,10.547 238.6825,9.693 239.7435,9.074 C240.8055,8.456 241.9795,8.146 243.2685,8.146 C245.4155,8.146 247.1075,8.701 248.3475,9.813 C249.5845,10.926 250.2035,12.593 250.2035,14.815 L250.2035,28.27 L245.8835,28.27 L245.8835,15.953 C245.8325,14.412 245.5045,13.294 244.8965,12.598 C244.2915,11.904 243.3445,11.556 242.0555,11.556 C241.3225,11.556 240.6665,11.689 240.0855,11.955 C239.5025,12.22 239.0105,12.586 238.6065,13.054 C238.2025,13.521 237.8865,14.072 237.6595,14.702 C237.4315,15.334 237.3175,16.003 237.3175,16.71 L237.3175,28.27 L232.9975,28.27 L232.9975,8.677 Z" id="Fill-36"></path>
                    <path d="M251.5297,8.677 L254.7887,8.677 L254.7887,2.802 L259.1087,2.802 L259.1087,8.677 L263.0117,8.677 L263.0117,11.898 L259.1087,11.898 L259.1087,22.358 C259.1087,22.812 259.1277,23.204 259.1657,23.532 C259.2037,23.861 259.2917,24.139 259.4307,24.366 C259.5687,24.593 259.7777,24.764 260.0557,24.878 C260.3337,24.991 260.7127,25.048 261.1927,25.048 C261.4957,25.048 261.7997,25.042 262.1027,25.029 C262.4047,25.016 262.7087,24.972 263.0117,24.897 L263.0117,28.231 C262.5327,28.281 262.0647,28.332 261.6097,28.383 C261.1557,28.434 260.6867,28.459 260.2087,28.459 C259.0707,28.459 258.1537,28.351 257.4597,28.136 C256.7647,27.923 256.2217,27.606 255.8297,27.189 C255.4387,26.773 255.1737,26.248 255.0347,25.617 C254.8957,24.986 254.8127,24.265 254.7887,23.457 L254.7887,11.898 L251.5297,11.898 L251.5297,8.677 Z" id="Fill-38"></path>
                </g>
            </g>
        </g>
    </g>
</svg>
