<svg width="80" height="80" viewBox="0 0 80 80" fill="none" xmlns="http://www.w3.org/2000/svg">
<g id="Icon-ConstructionOpportunities">
<path id="Path 2" fill-rule="evenodd" clip-rule="evenodd" d="M25.7376 73.0497C25.5545 73.7821 26.2179 74.4455 26.9503 74.2624L36 71.9999L61.5559 66.8888C62.1457 66.7708 62.4987 66.1626 62.3085 65.5919L61.4418 62.9921C61.3715 62.7811 61.2329 62.5996 61.0479 62.4763L58.3483 60.6766C57.8232 60.3265 57.7497 59.5836 58.1959 59.1374L61.1067 56.2265C61.2541 56.0792 61.3518 55.8894 61.386 55.6838L62.5023 48.9863C62.5931 48.4416 62.2251 47.9263 61.6803 47.8355L55.1024 46.7392C54.8249 46.693 54.5796 46.5319 54.4269 46.2955L42.8102 28.317C42.6781 28.1127 42.6251 27.8672 42.6611 27.6265L43.943 19.0481C43.9797 18.8026 43.9237 18.5522 43.786 18.3456L41.6302 15.1119C41.4447 14.8337 41.1325 14.6666 40.7982 14.6666H35.0995C34.3222 14.6666 33.8421 13.8186 34.242 13.1521L36.8428 8.81757C37.1174 8.35984 36.9841 7.76712 36.54 7.47102L34.0706 5.82479C33.6498 5.54426 33.0858 5.62206 32.7567 6.00605L25.496 14.4768C25.3892 14.6014 25.3147 14.7504 25.2791 14.9106L22.749 26.2959C22.696 26.5347 22.7323 26.7847 22.8511 26.9985L28.9907 38.0499C29.1961 38.4196 29.612 38.6202 30.0293 38.5506L35.695 37.6063C36.4384 37.4824 37.0464 38.194 36.8081 38.9089L36.1054 41.017C36.037 41.2223 36.037 41.4442 36.1054 41.6495L38.413 48.5723C38.5612 49.0169 38.3807 49.5048 37.9788 49.746L32.3386 53.1301C32.121 53.2607 31.9612 53.469 31.8915 53.7129L29.6411 61.5896C29.477 62.1637 29.8493 62.7526 30.4382 62.8507L34.3 63.4944C35.2553 63.6536 35.4491 64.9421 34.5828 65.3752L27.0781 69.1276C26.817 69.2581 26.6259 69.4963 26.5551 69.7795L25.7376 73.0497Z" fill="#59CBE8"/>
<path id="Path 3" fill-rule="evenodd" clip-rule="evenodd" d="M16.0245 36.0085C16.6649 35.352 17.7614 35.523 18.1716 36.3432L21.0352 42.0703C21.2229 42.4457 21.2229 42.8875 21.0352 43.2629L20.4783 44.3766C20.1988 44.9355 19.5686 45.2254 18.9624 45.0738L15.155 44.122C14.8403 44.0433 14.565 43.8526 14.3808 43.5856L12.6228 41.037C12.261 40.5125 12.3209 39.8051 12.7659 39.349L16.0245 36.0085Z" fill="#59CBE8"/>
<path id="Path 3 (Stroke)" fill-rule="evenodd" clip-rule="evenodd" d="M15.0701 35.0772C16.3508 33.7643 18.5439 34.1063 19.3641 35.7467L22.2277 41.474C22.6031 42.2247 22.6031 43.1084 22.2277 43.8591L21.6709 44.9729C21.1119 46.0908 19.8515 46.6705 18.639 46.3674L14.8316 45.4155C14.2022 45.2582 13.6517 44.8767 13.2833 44.3426L11.5253 41.794C10.8015 40.7449 10.9215 39.3302 11.8115 38.4178L15.0701 35.0772ZM16.979 36.9393L13.7203 40.2799L15.4784 42.8285L19.2857 43.7803L19.8426 42.6666L16.979 36.9393Z" fill="#333333"/>
<path id="Path (Stroke)" fill-rule="evenodd" clip-rule="evenodd" d="M31.5521 5.36272C32.4298 4.33875 33.9338 4.13127 35.056 4.87937L37.0151 6.18545C38.1995 6.97504 38.5549 8.55564 37.8225 9.77624L35.6882 13.3334H40.6197C41.5113 13.3334 42.344 13.779 42.8385 14.5209L44.8241 17.4992C45.1913 18.05 45.3405 18.7177 45.2426 19.3725L43.9983 27.6993L55.4669 45.4484L61.5706 46.4657C63.0234 46.7078 64.0048 48.0817 63.7626 49.5345L62.7187 55.7978C62.5977 56.5242 61.9107 57.0148 61.1844 56.8938C60.458 56.7727 59.9673 56.0858 60.0884 55.3594L61.1323 49.0961L55.0285 48.0788C54.2883 47.9554 53.6343 47.5259 53.2271 46.8956L41.7586 29.1465C41.4064 28.6015 41.2651 27.9469 41.361 27.3051L42.6053 18.9784L40.6197 16.0001H35.6882C34.2155 16.0001 33.0216 14.8062 33.0216 13.3334C33.0216 12.8501 33.1529 12.3759 33.4016 11.9614L35.5359 8.40425L33.5768 7.09817L26.5626 15.2814L24.078 26.4618L30.042 37.1969L35.0346 36.3648C36.4524 36.1285 37.7934 37.0863 38.0297 38.5041C38.0995 38.9229 38.0658 39.3523 37.9316 39.755L37.4054 41.3334L39.5933 47.8971C39.9886 49.0828 39.5072 50.384 38.4355 51.027L33.1374 54.2059L31.0256 61.5971L33.5525 62.0182C34.9972 62.259 35.9732 63.6254 35.7324 65.0701C35.593 65.9071 35.0614 66.6267 34.3025 67.0062L27.8114 70.2517L27.1658 72.8342L35.6458 70.7142C35.6869 70.704 35.7282 70.6947 35.7696 70.6864L54.1016 67.02C54.8237 66.8756 55.5261 67.3439 55.6705 68.0659C55.815 68.788 55.3467 69.4905 54.6246 69.6349L36.2926 73.3013L27.8126 75.4213C27.3879 75.5274 26.9437 75.5274 26.519 75.4213C25.0903 75.0641 24.2216 73.6163 24.5788 72.1875L25.2244 69.605C25.4132 68.8497 25.9226 68.2147 26.6189 67.8666L33.0697 64.6412L30.5872 64.2274C30.488 64.2109 30.3898 64.1888 30.293 64.1611C28.8769 63.7565 28.057 62.2806 28.4616 60.8645L30.5733 53.4733C30.7592 52.8228 31.1853 52.2673 31.7654 51.9192L37.0635 48.7404L34.8756 42.1767C34.6932 41.6293 34.6932 41.0375 34.8756 40.4901L35.3681 39.0127L30.4804 39.8273C29.3677 40.0127 28.2587 39.478 27.7109 38.4919L21.747 27.7568C21.4302 27.1866 21.3334 26.5201 21.4749 25.8833L23.9594 14.7029C24.0544 14.2756 24.253 13.8783 24.5379 13.5459L31.5521 5.36272Z" fill="#333333"/>
<path id="Path 39 Copy 9 (Stroke)" fill-rule="evenodd" clip-rule="evenodd" d="M38.6667 20.0001C38.6667 19.2637 39.2636 18.6667 40 18.6667H54C54.7364 18.6667 55.3334 19.2637 55.3334 20.0001C55.3334 20.7365 54.7364 21.3334 54 21.3334H40C39.2636 21.3334 38.6667 20.7365 38.6667 20.0001Z" fill="#333333"/>
<path id="Path 39 Copy 11 (Stroke)" fill-rule="evenodd" clip-rule="evenodd" d="M58 20.0001C58 19.2637 58.597 18.6667 59.3333 18.6667H61.3333C62.0697 18.6667 62.6667 19.2637 62.6667 20.0001C62.6667 20.7365 62.0697 21.3334 61.3333 21.3334H59.3333C58.597 21.3334 58 20.7365 58 20.0001Z" fill="#333333"/>
<path id="Path 39 Copy 6 (Stroke)" fill-rule="evenodd" clip-rule="evenodd" d="M62 37.3333C62 36.597 62.597 36 63.3333 36H67.3333C68.0697 36 68.6667 36.597 68.6667 37.3333C68.6667 38.0697 68.0697 38.6667 67.3333 38.6667H63.3333C62.597 38.6667 62 38.0697 62 37.3333Z" fill="#333333"/>
<path id="Path 39 Copy 7 (Stroke)" fill-rule="evenodd" clip-rule="evenodd" d="M5.33331 27.3333C5.33331 26.597 5.93027 26 6.66665 26H14.6666C15.403 26 16 26.597 16 27.3333C16 28.0697 15.403 28.6667 14.6666 28.6667H6.66665C5.93027 28.6667 5.33331 28.0697 5.33331 27.3333Z" fill="#333333"/>
<path id="Rectangle" d="M49.3333 57.3333H58.6666V73.3333H49.3333V57.3333Z" fill="white"/>
<path id="Rectangle (Stroke)" fill-rule="evenodd" clip-rule="evenodd" d="M48 57.3333C48 56.597 48.597 56 49.3333 56H58.6667C59.403 56 60 56.597 60 57.3333V73.3333C60 74.0697 59.403 74.6667 58.6667 74.6667H49.3333C48.597 74.6667 48 74.0697 48 73.3333V57.3333ZM50.6667 58.6667V72H57.3333V58.6667H50.6667Z" fill="#333333"/>
<path id="Rectangle_2" d="M70.6667 45.3333H58.6667V73.3333H70.6667V45.3333Z" fill="white"/>
<path id="Rectangle (Stroke)_2" fill-rule="evenodd" clip-rule="evenodd" d="M72 45.3333C72 44.597 71.403 44 70.6667 44H58.6667C57.9303 44 57.3333 44.597 57.3333 45.3333V73.3333C57.3333 74.0697 57.9303 74.6667 58.6667 74.6667H70.6667C71.403 74.6667 72 74.0697 72 73.3333V45.3333ZM69.3333 46.6667V72H60V46.6667H69.3333Z" fill="#333333"/>
<path id="Path 194 (Stroke)" fill-rule="evenodd" clip-rule="evenodd" d="M64 57.3333C64 56.597 64.597 56 65.3333 56H70.6667C71.403 56 72 56.597 72 57.3333C72 58.0697 71.403 58.6667 70.6667 58.6667H65.3333C64.597 58.6667 64 58.0697 64 57.3333Z" fill="#333333"/>
<path id="Path 194 Copy (Stroke)" fill-rule="evenodd" clip-rule="evenodd" d="M64 52.0001C64 51.2637 64.597 50.6667 65.3333 50.6667H70.6667C71.403 50.6667 72 51.2637 72 52.0001C72 52.7365 71.403 53.3334 70.6667 53.3334H65.3333C64.597 53.3334 64 52.7365 64 52.0001Z" fill="#333333"/>
<path id="Path 194 Copy 2 (Stroke)" fill-rule="evenodd" clip-rule="evenodd" d="M64 62.6666C64 61.9302 64.597 61.3333 65.3333 61.3333H70.6667C71.403 61.3333 72 61.9302 72 62.6666C72 63.403 71.403 63.9999 70.6667 63.9999H65.3333C64.597 63.9999 64 63.403 64 62.6666Z" fill="#333333"/>
<path id="Path 194 Copy 3 (Stroke)" fill-rule="evenodd" clip-rule="evenodd" d="M53.3333 62.6666C53.3333 61.9302 53.9303 61.3333 54.6666 61.3333H58.6666C59.403 61.3333 60 61.9302 60 62.6666C60 63.403 59.403 63.9999 58.6666 63.9999H54.6666C53.9303 63.9999 53.3333 63.403 53.3333 62.6666Z" fill="#333333"/>
</g>
</svg>
