<svg width="80" height="80" viewBox="0 0 80 80" fill="none" xmlns="http://www.w3.org/2000/svg">
<g id="Icon-OpenBanking">
<rect id="Rectangle" x="-4.31203" y="54.1421" width="82.6667" height="42.6667" rx="15.5" transform="rotate(-45 -4.31203 54.1421)" fill="#59CBE8"/>
<path id="Rectangle_2" d="M13.3333 27.9999C13.3333 26.5272 14.5272 25.3333 16 25.3333H64C65.4728 25.3333 66.6667 26.5272 66.6667 27.9999V51.9999C66.6667 53.4727 65.4728 54.6666 64 54.6666H16C14.5272 54.6666 13.3333 53.4727 13.3333 51.9999V27.9999Z" fill="white"/>
<path id="Rectangle (Stroke)" fill-rule="evenodd" clip-rule="evenodd" d="M12 28C12 25.7909 13.7909 24 16 24H64C66.2091 24 68 25.7909 68 28V52C68 54.2091 66.2091 56 64 56H16C13.7909 56 12 54.2091 12 52V28ZM16 26.6667C15.2636 26.6667 14.6667 27.2636 14.6667 28V52C14.6667 52.7364 15.2636 53.3333 16 53.3333H64C64.7364 53.3333 65.3333 52.7364 65.3333 52V28C65.3333 27.2636 64.7364 26.6667 64 26.6667H16Z" fill="#333333"/>
<path id="Path 53 (Stroke)" fill-rule="evenodd" clip-rule="evenodd" d="M20 40.0001C20 39.2637 20.597 38.6667 21.3333 38.6667H25.3333C26.0697 38.6667 26.6667 39.2637 26.6667 40.0001C26.6667 40.7365 26.0697 41.3334 25.3333 41.3334H21.3333C20.597 41.3334 20 40.7365 20 40.0001Z" fill="#333333"/>
<path id="Path 53 Copy (Stroke)" fill-rule="evenodd" clip-rule="evenodd" d="M53.3333 40.0001C53.3333 39.2637 53.9303 38.6667 54.6667 38.6667H58.6667C59.403 38.6667 60 39.2637 60 40.0001C60 40.7365 59.403 41.3334 58.6667 41.3334H54.6667C53.9303 41.3334 53.3333 40.7365 53.3333 40.0001Z" fill="#333333"/>
<circle id="Oval" cx="40" cy="40.0001" r="5.33333" fill="#59CBE8"/>
<path id="Path (Stroke)" fill-rule="evenodd" clip-rule="evenodd" d="M38.6667 34.6666C38.6667 33.9302 39.2636 33.3333 40 33.3333C43.6819 33.3333 46.6667 36.318 46.6667 39.9999C46.6667 43.6818 43.6819 46.6666 40 46.6666C39.2636 46.6666 38.6667 46.0696 38.6667 45.3333C38.6667 44.5969 39.2636 43.9999 40 43.9999C42.2091 43.9999 44 42.2091 44 39.9999C44 37.7908 42.2091 35.9999 40 35.9999C39.2636 35.9999 38.6667 35.403 38.6667 34.6666Z" fill="#333333"/>
<path id="Path 39 Copy 11 (Stroke)" fill-rule="evenodd" clip-rule="evenodd" d="M62.6667 68.0001C62.6667 67.2637 63.2636 66.6667 64 66.6667H66.6667C67.4031 66.6667 68 67.2637 68 68.0001C68 68.7365 67.4031 69.3334 66.6667 69.3334H64C63.2636 69.3334 62.6667 68.7365 62.6667 68.0001Z" fill="#333333"/>
<path id="Path 39 Copy 12 (Stroke)" fill-rule="evenodd" clip-rule="evenodd" d="M12 12.0001C12 11.2637 12.597 10.6667 13.3333 10.6667H16C16.7364 10.6667 17.3333 11.2637 17.3333 12.0001C17.3333 12.7365 16.7364 13.3334 16 13.3334H13.3333C12.597 13.3334 12 12.7365 12 12.0001Z" fill="#333333"/>
<path id="Union" fill-rule="evenodd" clip-rule="evenodd" d="M48.9428 5.72378C48.4221 5.20308 47.5779 5.20308 47.0572 5.72378C46.5365 6.24448 46.5365 7.0887 47.0572 7.60939L50.1144 10.6666H22.6667C21.9303 10.6666 21.3333 11.2635 21.3333 11.9999C21.3333 12.7363 21.9303 13.3333 22.6667 13.3333H50.1144L47.0572 16.3904C46.5365 16.9111 46.5365 17.7554 47.0572 18.2761C47.5779 18.7968 48.4221 18.7968 48.9428 18.2761L54.2761 12.9427C54.7968 12.422 54.7968 11.5778 54.2761 11.0571L48.9428 5.72378Z" fill="#333333"/>
<path id="Union_2" fill-rule="evenodd" clip-rule="evenodd" d="M31.0572 61.7238C31.5779 61.2031 32.4221 61.2031 32.9428 61.7238C33.4635 62.2445 33.4635 63.0887 32.9428 63.6094L29.8856 66.6666H57.3333C58.0697 66.6666 58.6667 67.2635 58.6667 67.9999C58.6667 68.7363 58.0697 69.3332 57.3333 69.3332H29.8856L32.9428 72.3904C33.4635 72.9111 33.4635 73.7554 32.9428 74.2761C32.4221 74.7968 31.5779 74.7968 31.0572 74.2761L25.7239 68.9427C25.2032 68.422 25.2032 67.5778 25.7239 67.0571L31.0572 61.7238Z" fill="#333333"/>
</g>
</svg>
