<svg width="80" height="80" viewBox="0 0 80 80" fill="none" xmlns="http://www.w3.org/2000/svg">
<g id="Icon-Airport">
<path id="Rectangle" d="M13.3333 61.3333C13.3333 58.3878 15.7211 56 18.6667 56H60C62.9455 56 65.3333 58.3878 65.3333 61.3333V72H13.3333V61.3333Z" fill="#59CBE8"/>
<path id="Path" fill-rule="evenodd" clip-rule="evenodd" d="M54.6667 56H60C62.9455 56 65.3333 58.3878 65.3333 61.3333V72H13.3333V61.3333C13.3333 58.3878 15.7211 56 18.6667 56H32" fill="#59CBE8"/>
<path id="Path (Stroke)" fill-rule="evenodd" clip-rule="evenodd" d="M18.6667 57.3334C16.4575 57.3334 14.6667 59.1243 14.6667 61.3334V70.6667H64V61.3334C64 59.1243 62.2091 57.3334 60 57.3334H54.6667C53.9303 57.3334 53.3333 56.7365 53.3333 56.0001C53.3333 55.2637 53.9303 54.6667 54.6667 54.6667H60C63.6819 54.6667 66.6667 57.6515 66.6667 61.3334V72.0001C66.6667 72.7365 66.0697 73.3334 65.3333 73.3334H13.3333C12.597 73.3334 12 72.7365 12 72.0001V61.3334C12 57.6515 14.9848 54.6667 18.6667 54.6667H32C32.7364 54.6667 33.3333 55.2637 33.3333 56.0001C33.3333 56.7365 32.7364 57.3334 32 57.3334H18.6667Z" fill="#333333"/>
<path id="Rectangle_2" d="M18.6667 64H34.6667V72H18.6667V64Z" fill="white"/>
<path id="Rectangle (Stroke)" fill-rule="evenodd" clip-rule="evenodd" d="M17.3333 64.0001C17.3333 63.2637 17.9303 62.6667 18.6667 62.6667H34.6667C35.403 62.6667 36 63.2637 36 64.0001V72.0001C36 72.7365 35.403 73.3334 34.6667 73.3334H18.6667C17.9303 73.3334 17.3333 72.7365 17.3333 72.0001V64.0001ZM20 65.3334V70.6667H33.3333V65.3334H20Z" fill="#333333"/>
<path id="Rectangle_3" d="M8 25.3333C8 17.9695 13.9695 12 21.3333 12H58.6667C66.0305 12 72 17.9695 72 25.3333C72 32.6971 66.0305 38.6667 58.6667 38.6667H21.3333C13.9695 38.6667 8 32.6971 8 25.3333Z" fill="#59CBE8"/>
<path id="Rectangle Copy" d="M41.3333 40H54.6667V73.3333H41.3333V40Z" fill="#59CBE8"/>
<path id="Rectangle Copy (Stroke)" fill-rule="evenodd" clip-rule="evenodd" d="M52 42.6667H44V70.6667H52V42.6667ZM41.3333 40V73.3333H54.6667V40H41.3333Z" fill="#333333"/>
<path id="Path 39 (Stroke)" fill-rule="evenodd" clip-rule="evenodd" d="M8 72.0001C8 71.2637 8.59695 70.6667 9.33333 70.6667H68C68.7364 70.6667 69.3333 71.2637 69.3333 72.0001C69.3333 72.7365 68.7364 73.3334 68 73.3334H9.33333C8.59695 73.3334 8 72.7365 8 72.0001Z" fill="#333333"/>
<path id="Oval" d="M18.6667 13.3333C18.6667 16.2789 16.2789 18.6667 13.3333 18.6667C10.3878 18.6667 8 16.2789 8 13.3333C8 10.3878 10.3878 8 13.3333 8C16.2789 8 18.6667 10.3878 18.6667 13.3333Z" fill="white"/>
<path id="Oval (Stroke)" fill-rule="evenodd" clip-rule="evenodd" d="M13.3333 9.33341C11.1242 9.33341 9.33333 11.1243 9.33333 13.3334C9.33333 15.5426 11.1242 17.3334 13.3333 17.3334C15.5425 17.3334 17.3333 15.5426 17.3333 13.3334C17.3333 11.1243 15.5425 9.33341 13.3333 9.33341ZM6.66667 13.3334C6.66667 9.65152 9.65144 6.66675 13.3333 6.66675C17.0152 6.66675 20 9.65152 20 13.3334C20 17.0153 17.0152 20.0001 13.3333 20.0001C9.65144 20.0001 6.66667 17.0153 6.66667 13.3334Z" fill="#333333"/>
<path id="Path 227" fill-rule="evenodd" clip-rule="evenodd" d="M48 41.3333H43.7712C43.064 41.3333 42.3857 41.0523 41.8856 40.5522L36.781 35.4476C36.281 34.9475 36 34.2693 36 33.562V25.1045C36 24.3972 36.281 23.719 36.781 23.2189L41.8856 18.1143C42.3857 17.6142 43.064 17.3333 43.7712 17.3333H48H52.2288C52.936 17.3333 53.6143 17.6142 54.1144 18.1143L59.219 23.2189C59.7191 23.719 60 24.3972 60 25.1045V33.562C60 34.2693 59.719 34.9475 59.219 35.4476L54.1144 40.5522C53.6143 41.0523 52.936 41.3333 52.2288 41.3333H48Z" fill="white"/>
<path id="Path 227 (Stroke)" fill-rule="evenodd" clip-rule="evenodd" d="M43.7712 18.6667C43.4176 18.6667 43.0785 18.8071 42.8284 19.0572L37.7239 24.1618C37.4738 24.4118 37.3333 24.7509 37.3333 25.1046V33.5621C37.3333 33.9157 37.4738 34.2549 37.7239 34.5049L42.8284 39.6095C43.0785 39.8595 43.4176 40 43.7712 40H52.2288C52.5824 40 52.9215 39.8595 53.1716 39.6095L58.2761 34.5049C58.5262 34.2549 58.6667 33.9157 58.6667 33.5621V25.1046C58.6667 24.7509 58.5262 24.4118 58.2761 24.1618L53.1716 19.0572C52.9215 18.8071 52.5824 18.6667 52.2288 18.6667H43.7712ZM40.9428 17.1716C41.693 16.4214 42.7104 16 43.7712 16H52.2288C53.2896 16 54.307 16.4214 55.0572 17.1716L60.1618 22.2761C60.9119 23.0263 61.3333 24.0437 61.3333 25.1046V33.5621C61.3333 34.623 60.9119 35.6404 60.1618 36.3905L55.0572 41.4951C54.307 42.2452 53.2896 42.6667 52.2288 42.6667H43.7712C42.7104 42.6667 41.693 42.2452 40.9428 41.4951L35.8382 36.3905C35.0881 35.6404 34.6667 34.623 34.6667 33.5621V25.1046C34.6667 24.0437 35.0881 23.0263 35.8382 22.2761L40.9428 17.1716Z" fill="#333333"/>
<path id="Path 62 Copy 4 (Stroke)" fill-rule="evenodd" clip-rule="evenodd" d="M38.6667 56.0001C38.6667 55.2637 39.2636 54.6667 40 54.6667H46.6667C47.4031 54.6667 48 55.2637 48 56.0001C48 56.7365 47.4031 57.3334 46.6667 57.3334H40C39.2636 57.3334 38.6667 56.7365 38.6667 56.0001Z" fill="#333333"/>
<path id="Path 62 Copy 5 (Stroke)" fill-rule="evenodd" clip-rule="evenodd" d="M38.6667 64.0001C38.6667 63.2637 39.2636 62.6667 40 62.6667H46.6667C47.4031 62.6667 48 63.2637 48 64.0001C48 64.7365 47.4031 65.3334 46.6667 65.3334H40C39.2636 65.3334 38.6667 64.7365 38.6667 64.0001Z" fill="#333333"/>
<path id="Path 62 Copy 6 (Stroke)" fill-rule="evenodd" clip-rule="evenodd" d="M38.6667 48.0001C38.6667 47.2637 39.2636 46.6667 40 46.6667H46.6667C47.4031 46.6667 48 47.2637 48 48.0001C48 48.7365 47.4031 49.3334 46.6667 49.3334H40C39.2636 49.3334 38.6667 48.7365 38.6667 48.0001Z" fill="#333333"/>
<path id="Path 228 (Stroke)" fill-rule="evenodd" clip-rule="evenodd" d="M36 25.3333C36 24.597 36.597 24 37.3333 24H58.6667C59.403 24 60 24.597 60 25.3333C60 26.0697 59.403 26.6667 58.6667 26.6667H37.3333C36.597 26.6667 36 26.0697 36 25.3333Z" fill="#333333"/>
<path id="Path 228 Copy (Stroke)" fill-rule="evenodd" clip-rule="evenodd" d="M36 33.3333C36 32.597 36.597 32 37.3333 32H58.6667C59.403 32 60 32.597 60 33.3333C60 34.0697 59.403 34.6667 58.6667 34.6667H37.3333C36.597 34.6667 36 34.0697 36 33.3333Z" fill="#333333"/>
<path id="Path 229 (Stroke)" fill-rule="evenodd" clip-rule="evenodd" d="M48 9.33325C48.7364 9.33325 49.3333 9.93021 49.3333 10.6666V17.3333C49.3333 18.0696 48.7364 18.6666 48 18.6666C47.2636 18.6666 46.6667 18.0696 46.6667 17.3333V10.6666C46.6667 9.93021 47.2636 9.33325 48 9.33325Z" fill="#333333"/>
<path id="Rectangle_4" d="M42.6667 9.33341C42.6667 7.86066 43.8606 6.66675 45.3333 6.66675H50.6667C52.1394 6.66675 53.3333 7.86066 53.3333 9.33341C53.3333 10.8062 52.1394 12.0001 50.6667 12.0001H45.3333C43.8606 12.0001 42.6667 10.8062 42.6667 9.33341Z" fill="white"/>
<path id="Rectangle (Stroke)_2" fill-rule="evenodd" clip-rule="evenodd" d="M41.3333 9.33325C41.3333 7.12411 43.1242 5.33325 45.3333 5.33325H50.6667C52.8758 5.33325 54.6667 7.12411 54.6667 9.33325C54.6667 11.5424 52.8758 13.3333 50.6667 13.3333H45.3333C43.1242 13.3333 41.3333 11.5424 41.3333 9.33325ZM45.3333 7.99992C44.5969 7.99992 44 8.59687 44 9.33325C44 10.0696 44.5969 10.6666 45.3333 10.6666H50.6667C51.403 10.6666 52 10.0696 52 9.33325C52 8.59687 51.403 7.99992 50.6667 7.99992H45.3333Z" fill="#333333"/>
<path id="Path 231 (Stroke)" fill-rule="evenodd" clip-rule="evenodd" d="M14.0704 25.4741C14.729 25.1447 15.5299 25.4117 15.8592 26.0703L16.4555 27.2629C16.6814 27.7146 17.1431 28 17.6481 28H28C28.7364 28 29.3333 28.5969 29.3333 29.3333C29.3333 30.0697 28.7364 30.6666 28 30.6666H17.6481C16.133 30.6666 14.748 29.8106 14.0704 28.4555L13.4741 27.2629C13.1448 26.6043 13.4117 25.8034 14.0704 25.4741Z" fill="#333333"/>
<path id="Path 232 (Stroke)" fill-rule="evenodd" clip-rule="evenodd" d="M8 48.0001C8 47.2637 8.59695 46.6667 9.33333 46.6667H13.3333C14.0697 46.6667 14.6667 47.2637 14.6667 48.0001C14.6667 48.7365 14.0697 49.3334 13.3333 49.3334H9.33333C8.59695 49.3334 8 48.7365 8 48.0001Z" fill="#333333"/>
<path id="Path 232 Copy 2 (Stroke)" fill-rule="evenodd" clip-rule="evenodd" d="M17.3333 48.0001C17.3333 47.2637 17.9303 46.6667 18.6667 46.6667H20C20.7364 46.6667 21.3333 47.2637 21.3333 48.0001C21.3333 48.7365 20.7364 49.3334 20 49.3334H18.6667C17.9303 49.3334 17.3333 48.7365 17.3333 48.0001Z" fill="#333333"/>
<path id="Path 232 Copy (Stroke)" fill-rule="evenodd" clip-rule="evenodd" d="M62.6667 8.00008C62.6667 7.2637 63.2636 6.66675 64 6.66675H68C68.7364 6.66675 69.3333 7.2637 69.3333 8.00008C69.3333 8.73646 68.7364 9.33341 68 9.33341H64C63.2636 9.33341 62.6667 8.73646 62.6667 8.00008Z" fill="#333333"/>
</g>
</svg>
