<svg width="80" height="80" viewBox="0 0 80 80" fill="none" xmlns="http://www.w3.org/2000/svg">
<g id="Group 3">
<path id="Combined Shape" fill-rule="evenodd" clip-rule="evenodd" d="M52.4851 46.7004C51.7199 47.4148 52.0387 48.692 53.0499 48.963L60.3835 50.928L56.5988 60.2369C56.0608 61.5601 57.6984 62.6883 58.7432 61.7143L70.9633 50.321C71.7293 49.6068 71.4107 48.3289 70.3992 48.0579L63.0664 46.0931L66.8586 36.761C67.3964 35.4374 65.7578 34.3094 64.7135 35.2844L52.4851 46.7004Z" fill="#59CBE8"/>
<path id="Combined Shape (Stroke)" fill-rule="evenodd" clip-rule="evenodd" d="M63.8036 34.3096C65.8922 32.3597 69.1695 34.6156 68.0938 37.2628L64.8702 45.1958L70.7443 46.7698C72.7674 47.3119 73.4045 49.8678 71.8726 51.2961L59.6524 62.6894C57.563 64.6374 54.2877 62.3809 55.3636 59.7346L58.5795 51.8248L52.7048 50.2507C50.6824 49.7088 50.0448 47.1544 51.5752 45.7257L63.8036 34.3096ZM65.6233 36.2589L53.395 47.6749L62.1875 50.0309L57.8339 60.7389L70.0541 49.3456L61.2627 46.99L65.6233 36.2589Z" fill="#333333"/>
<g id="Group 2">
<g id="Group">
<path id="Path 11" fill-rule="evenodd" clip-rule="evenodd" d="M61.3803 17.6655L41.5813 37.4645L34.5776 44.4682L23.1965 55.8493C23.1965 55.8493 21.2064 47.6052 20.7933 43.3334C20.3801 39.0615 20.7933 31.0001 20.7933 31.0001L34.5102 20.494L61.3803 17.6655Z" fill="#59CBE8"/>
<path id="Path (Stroke)" fill-rule="evenodd" clip-rule="evenodd" d="M64.4444 16.0156C64.6962 16.2675 64.8369 16.6096 64.8349 16.9658C64.8119 21.134 64.6331 25.0147 64.2972 28.6064C64.2286 29.3396 63.5787 29.8784 62.8455 29.8098C62.1123 29.7412 61.5735 29.0913 61.6421 28.3581C61.9334 25.2437 62.1047 21.893 62.1551 18.3049C44.0001 18.5599 32.1495 21.9118 26.1035 27.9579C20.1612 33.9002 19.464 42.8927 24.9167 55.5433C35.6688 60.1773 43.7739 60.3535 49.5707 56.7079C50.194 56.3158 51.0171 56.5033 51.4092 57.1267C51.8012 57.75 51.6137 58.5732 50.9903 58.9652C43.9923 63.3663 34.6664 62.7487 23.3666 57.7768C23.0613 57.6425 22.8175 57.3986 22.6832 57.0934C16.8366 43.8057 17.0351 33.255 24.2179 26.0722C31.2221 19.068 44.4935 15.7301 63.4942 15.6251C63.8504 15.6231 64.1925 15.7638 64.4444 16.0156Z" fill="#333333"/>
<path id="Path 10 (Stroke)" fill-rule="evenodd" clip-rule="evenodd" d="M63.0302 17.4299C63.5508 17.9506 63.5508 18.7948 63.0302 19.3155L17.7753 64.5703C17.2546 65.091 16.4104 65.091 15.8897 64.5703C15.369 64.0496 15.369 63.2054 15.8897 62.6847L61.1445 17.4299C61.6652 16.9092 62.5095 16.9092 63.0302 17.4299Z" fill="#333333"/>
<path id="Path 10 (Stroke)_2" fill-rule="evenodd" clip-rule="evenodd" d="M27.7799 25.5759C28.488 25.3736 29.226 25.7835 29.4283 26.4916L35.0851 46.2906C35.2874 46.9986 34.8774 47.7366 34.1694 47.9389C33.4613 48.1412 32.7234 47.7312 32.5211 47.0232L26.8642 27.2242C26.6619 26.5161 27.0719 25.7782 27.7799 25.5759Z" fill="#333333"/>
<path id="Shape (Stroke)" fill-rule="evenodd" clip-rule="evenodd" d="M43.3822 49.3937C43.1799 50.1018 42.442 50.5118 41.7339 50.3095L33.4368 47.9389C32.7288 47.7366 32.3188 46.9986 32.5211 46.2905C32.7234 45.5825 33.4614 45.1725 34.1694 45.3748L42.4665 47.7454C43.1746 47.9477 43.5845 48.6857 43.3822 49.3937Z" fill="#333333"/>
<path id="Path 10 (Stroke)_3" fill-rule="evenodd" clip-rule="evenodd" d="M43.8048 18.4574C44.539 18.5138 45.0885 19.1548 45.032 19.889L43.6178 38.2738C43.5613 39.008 42.9203 39.5574 42.1861 39.501C41.4519 39.4445 40.9025 38.8035 40.959 38.0693L42.3732 19.6845C42.4296 18.9503 43.0706 18.4009 43.8048 18.4574Z" fill="#333333"/>
<path id="Path (Stroke)_2" fill-rule="evenodd" clip-rule="evenodd" d="M54.1744 37.2572C54.2309 37.9914 53.6815 38.6324 52.9473 38.6889L42.3907 39.5009C41.6564 39.5574 41.0155 39.008 40.959 38.2738C40.9025 37.5396 41.4519 36.8986 42.1861 36.8421L52.7427 36.0301C53.4769 35.9736 54.1179 36.523 54.1744 37.2572Z" fill="#333333"/>
</g>
</g>
</g>
</svg>
