<svg width="80" height="80" viewBox="0 0 80 80" fill="none" xmlns="http://www.w3.org/2000/svg">
<path fill-rule="evenodd" clip-rule="evenodd" d="M7.62952 49.4314C8.33626 49.2246 9.07684 49.6299 9.28364 50.3367C9.64807 51.5821 10.0862 52.7961 10.5931 53.9736C13.4454 60.6002 18.4738 66.0725 24.7783 69.4884C25.4258 69.8392 25.6663 70.6484 25.3155 71.2959C24.9647 71.9433 24.1554 72.1838 23.508 71.833C16.6798 68.1334 11.2343 62.2082 8.14367 55.0279C7.59431 53.7516 7.11935 52.4357 6.72429 51.0856C6.51749 50.3788 6.92278 49.6382 7.62952 49.4314ZM72.3642 49.4565C73.0708 49.6639 73.4755 50.4048 73.2681 51.1114C70.671 59.9615 64.6413 67.3389 56.7208 71.708C56.076 72.0636 55.2649 71.8293 54.9093 71.1845C54.5536 70.5397 54.788 69.7286 55.4328 69.373C62.7473 65.3382 68.3135 58.5248 70.7094 50.3605C70.9167 49.6539 71.6576 49.2492 72.3642 49.4565Z" fill="#333333"/>
<path fill-rule="evenodd" clip-rule="evenodd" d="M28 22.6667V37.3334L32 36.0001L34.6667 32.0001L33.3333 25.3334L30.6667 22.6667H28Z" fill="#59CBE8"/>
<path fill-rule="evenodd" clip-rule="evenodd" d="M16 8V22.6667L20 21.3333L22.6667 17.3333L21.3333 10.6667L18.6667 8H16Z" fill="#59CBE8"/>
<path fill-rule="evenodd" clip-rule="evenodd" d="M26.0022 36.1015C26.2275 36.8025 25.8419 37.5535 25.1408 37.7789C21.3833 38.9866 18.6667 42.511 18.6667 46.6665V53.3331C18.6667 54.0695 18.0697 54.6665 17.3333 54.6665C16.597 54.6665 16 54.0695 16 53.3331V46.6665C16 41.3191 19.4967 36.7919 24.3248 35.2401C25.0259 35.0148 25.7769 35.4004 26.0022 36.1015Z" fill="#333333"/>
<path fill-rule="evenodd" clip-rule="evenodd" d="M28 23.9999C25.1712 23.9999 22.6667 26.5638 22.6667 29.9999C22.6667 33.4361 25.1712 35.9999 28 35.9999C30.8288 35.9999 33.3333 33.4361 33.3333 29.9999C33.3333 26.5638 30.8288 23.9999 28 23.9999ZM20 29.9999C20 25.3359 23.465 21.3333 28 21.3333C32.535 21.3333 36 25.3359 36 29.9999C36 34.664 32.535 38.6666 28 38.6666C23.465 38.6666 20 34.664 20 29.9999Z" fill="#333333"/>
<path fill-rule="evenodd" clip-rule="evenodd" d="M22.6666 46.6665C23.403 46.6665 24 47.2635 24 47.9998V57.3332C24 58.0696 23.403 58.6665 22.6666 58.6665C21.9303 58.6665 21.3333 58.0696 21.3333 57.3332V47.9998C21.3333 47.2635 21.9303 46.6665 22.6666 46.6665Z" fill="#333333"/>
<path fill-rule="evenodd" clip-rule="evenodd" d="M64 8V39.3962C64 39.7297 64.2703 40 64.6038 40H65.3333C70.488 40 74.6667 35.8213 74.6667 30.6667L73.3333 26.6667L69.3333 22.6667L68 21.3333L70.6667 17.3333L69.3333 10.6667L66.6667 8H64Z" fill="#59CBE8"/>
<path fill-rule="evenodd" clip-rule="evenodd" d="M52 22.6667V54.063C52 54.3964 52.2703 54.6667 52.6038 54.6667H53.3333C58.488 54.6667 62.6667 50.4881 62.6667 45.3334L61.3333 41.3334L57.3333 37.3334L56 36.0001L58.6667 32.0001L57.3333 25.3334L54.6667 22.6667H52Z" fill="#59CBE8"/>
<path fill-rule="evenodd" clip-rule="evenodd" d="M40 37.3333V71.3961C40 71.7296 40.2703 71.9999 40.6038 71.9999C46.1614 71.9999 50.6667 67.4946 50.6667 61.937V59.9999L49.3333 55.9999L45.3333 51.9999L44 50.6666L46.6667 46.6666L45.3333 39.9999L42.6667 37.3333H40Z" fill="#59CBE8"/>
<path fill-rule="evenodd" clip-rule="evenodd" d="M37.9451 50.9547C38.1542 51.6608 37.7513 52.4026 37.0452 52.6117C33.2074 53.7479 30.6667 57.0767 30.6667 61.3332V71.9999C30.6667 72.7363 30.0697 73.3332 29.3333 73.3332C28.597 73.3332 28 72.7363 28 71.9999V61.3332C28 55.9152 31.299 51.5319 36.2881 50.0547C36.9942 49.8457 37.7361 50.2486 37.9451 50.9547Z" fill="#333333"/>
<path fill-rule="evenodd" clip-rule="evenodd" d="M42.0559 50.9507C42.2672 50.2453 43.0103 49.8447 43.7157 50.0559C48.6817 51.5431 52 55.9232 52 61.3332V71.9999C52 72.7363 51.4031 73.3332 50.6667 73.3332C49.9303 73.3332 49.3333 72.7363 49.3333 71.9999V61.3332C49.3333 57.0919 46.779 53.757 42.9507 52.6105C42.2453 52.3992 41.8447 51.6561 42.0559 50.9507Z" fill="#333333"/>
<path fill-rule="evenodd" clip-rule="evenodd" d="M34.6666 61.3333C35.403 61.3333 36 61.9302 36 62.6666V71.9999C36 72.7363 35.403 73.3333 34.6666 73.3333C33.9303 73.3333 33.3333 72.7363 33.3333 71.9999V62.6666C33.3333 61.9302 33.9303 61.3333 34.6666 61.3333Z" fill="#333333"/>
<path fill-rule="evenodd" clip-rule="evenodd" d="M13.744 21.4868C13.9866 22.1821 13.6196 22.9423 12.9243 23.1849C9.27896 24.4567 6.66667 27.925 6.66667 32V40C6.66667 40.7364 6.06971 41.3333 5.33333 41.3333C4.59695 41.3333 4 40.7364 4 40V32C4 26.7559 7.36297 22.3008 12.0459 20.6671C12.7412 20.4245 13.5014 20.7915 13.744 21.4868Z" fill="#333333"/>
<path fill-rule="evenodd" clip-rule="evenodd" d="M16 9.33341C13.1712 9.33341 10.6667 11.8973 10.6667 15.3334C10.6667 18.7696 13.1712 21.3334 16 21.3334C18.8288 21.3334 21.3333 18.7696 21.3333 15.3334C21.3333 11.8973 18.8288 9.33341 16 9.33341ZM8 15.3334C8 10.6694 11.465 6.66675 16 6.66675C20.535 6.66675 24 10.6694 24 15.3334C24 19.9975 20.535 24.0001 16 24.0001C11.465 24.0001 8 19.9975 8 15.3334Z" fill="#333333"/>
<path fill-rule="evenodd" clip-rule="evenodd" d="M10.6666 32C11.403 32 12 32.597 12 33.3333V42.6667C12 43.403 11.403 44 10.6666 44C9.93027 44 9.33331 43.403 9.33331 42.6667V33.3333C9.33331 32.597 9.93027 32 10.6666 32Z" fill="#333333"/>
<path fill-rule="evenodd" clip-rule="evenodd" d="M53.8754 36.0794C54.0926 35.3758 54.839 34.9814 55.5427 35.1986C60.4394 36.7097 64 41.2706 64 46.6667V52C64 52.7364 63.4031 53.3333 62.6667 53.3333C61.9303 53.3333 61.3333 52.7364 61.3333 52V46.6667C61.3333 42.4733 58.5669 38.9226 54.7563 37.7467C54.0527 37.5295 53.6583 36.7831 53.8754 36.0794Z" fill="#333333"/>
<path fill-rule="evenodd" clip-rule="evenodd" d="M52 23.9999C49.1712 23.9999 46.6667 26.5638 46.6667 29.9999C46.6667 33.4361 49.1712 35.9999 52 35.9999C54.8288 35.9999 57.3333 33.4361 57.3333 29.9999C57.3333 26.5638 54.8288 23.9999 52 23.9999ZM44 29.9999C44 25.3359 47.465 21.3333 52 21.3333C56.535 21.3333 60 25.3359 60 29.9999C60 34.664 56.535 38.6666 52 38.6666C47.465 38.6666 44 34.664 44 29.9999Z" fill="#333333"/>
<path fill-rule="evenodd" clip-rule="evenodd" d="M66.1103 21.4568C66.3432 20.7582 67.0983 20.3806 67.7969 20.6135C72.5618 22.2017 76 26.6976 76 32V40C76 40.7364 75.4031 41.3333 74.6667 41.3333C73.9303 41.3333 73.3333 40.7364 73.3333 40V32C73.3333 27.8795 70.6624 24.3795 66.9536 23.1433C66.2551 22.9104 65.8775 22.1554 66.1103 21.4568Z" fill="#333333"/>
<path fill-rule="evenodd" clip-rule="evenodd" d="M64 9.33341C61.1712 9.33341 58.6667 11.8973 58.6667 15.3334C58.6667 18.7696 61.1712 21.3334 64 21.3334C66.8288 21.3334 69.3333 18.7696 69.3333 15.3334C69.3333 11.8973 66.8288 9.33341 64 9.33341ZM56 15.3334C56 10.6694 59.465 6.66675 64 6.66675C68.535 6.66675 72 10.6694 72 15.3334C72 19.9975 68.535 24.0001 64 24.0001C59.465 24.0001 56 19.9975 56 15.3334Z" fill="#333333"/>
<path fill-rule="evenodd" clip-rule="evenodd" d="M40 38.6667C37.1712 38.6667 34.6667 41.2305 34.6667 44.6667C34.6667 48.1028 37.1712 50.6667 40 50.6667C42.8288 50.6667 45.3333 48.1028 45.3333 44.6667C45.3333 41.2305 42.8288 38.6667 40 38.6667ZM32 44.6667C32 40.0026 35.465 36 40 36C44.535 36 48 40.0026 48 44.6667C48 49.3307 44.535 53.3333 40 53.3333C35.465 53.3333 32 49.3307 32 44.6667Z" fill="#333333"/>
</svg>
