<svg width="80" height="80" viewBox="0 0 80 80" fill="none" xmlns="http://www.w3.org/2000/svg">
<g id="Icon-Innovation">
<path id="Oval" d="M66.6666 37.3334C66.6666 52.061 54.7276 64.0001 40 64.0001C25.2724 64.0001 13.3333 52.061 13.3333 37.3334C13.3333 22.6058 25.2724 10.6667 40 10.6667C54.7276 10.6667 66.6666 22.6058 66.6666 37.3334Z" fill="#59CBE8"/>
<path id="Path 24 Copy 2 (Stroke)" fill-rule="evenodd" clip-rule="evenodd" d="M40 6.66675C40.7364 6.66675 41.3334 7.2637 41.3334 8.00008V12.0001C41.3334 12.7365 40.7364 13.3334 40 13.3334C39.2636 13.3334 38.6667 12.7365 38.6667 12.0001V8.00008C38.6667 7.2637 39.2636 6.66675 40 6.66675Z" fill="#333333"/>
<path id="Path 24 Copy 2 (Stroke)_2" fill-rule="evenodd" clip-rule="evenodd" d="M62.2761 15.0573C62.7968 15.578 62.7968 16.4222 62.2761 16.9429L59.6095 19.6096C59.0888 20.1303 58.2445 20.1303 57.7238 19.6096C57.2031 19.0889 57.2031 18.2447 57.7238 17.724L60.3905 15.0573C60.9112 14.5366 61.7554 14.5366 62.2761 15.0573Z" fill="#333333"/>
<path id="Path 24 Copy 2 (Stroke)_3" fill-rule="evenodd" clip-rule="evenodd" d="M19.0572 15.0573C19.5779 14.5366 20.4221 14.5366 20.9428 15.0573L23.6095 17.724C24.1302 18.2447 24.1302 19.0889 23.6095 19.6096C23.0888 20.1303 22.2446 20.1303 21.7239 19.6096L19.0572 16.9429C18.5365 16.4222 18.5365 15.578 19.0572 15.0573Z" fill="#333333"/>
<path id="Path 24 Copy 4 (Stroke)" fill-rule="evenodd" clip-rule="evenodd" d="M57.7239 53.7238C58.2446 53.2031 59.0888 53.2031 59.6095 53.7238L62.2762 56.3905C62.7969 56.9112 62.7969 57.7554 62.2762 58.2761C61.7555 58.7968 60.9112 58.7968 60.3905 58.2761L57.7239 55.6094C57.2032 55.0887 57.2032 54.2445 57.7239 53.7238Z" fill="#333333"/>
<path id="Path 24 Copy 3 (Stroke)" fill-rule="evenodd" clip-rule="evenodd" d="M23.6095 53.7238C24.1302 54.2445 24.1302 55.0887 23.6095 55.6094L20.9428 58.2761C20.4221 58.7968 19.5779 58.7968 19.0572 58.2761C18.5365 57.7554 18.5365 56.9112 19.0572 56.3905L21.7239 53.7238C22.2446 53.2031 23.0888 53.2031 23.6095 53.7238Z" fill="#333333"/>
<path id="Path 24 Copy 4 (Stroke)_2" fill-rule="evenodd" clip-rule="evenodd" d="M64 37.3333C64 36.597 64.597 36 65.3333 36H68C68.7364 36 69.3333 36.597 69.3333 37.3333C69.3333 38.0697 68.7364 38.6667 68 38.6667H65.3333C64.597 38.6667 64 38.0697 64 37.3333Z" fill="#333333"/>
<path id="Path 24 Copy 2 (Stroke)_4" fill-rule="evenodd" clip-rule="evenodd" d="M10.6667 37.3333C10.6667 36.597 11.2636 36 12 36H16C16.7364 36 17.3334 36.597 17.3334 37.3333C17.3334 38.0697 16.7364 38.6667 16 38.6667H12C11.2636 38.6667 10.6667 38.0697 10.6667 37.3333Z" fill="#333333"/>
<path id="Path" fill-rule="evenodd" clip-rule="evenodd" d="M36 59.9999C36 56.948 33.7987 53.3864 29.3961 49.315C26.0863 46.3837 24 42.1021 24 37.3333C24 28.4967 31.1634 21.3333 40 21.3333C48.8366 21.3333 56 28.4967 56 37.3333C56 42.0897 53.9245 46.3615 50.6297 49.2922C46.742 52.7502 54.424 45.7824 50.6039 49.315C46.2013 53.3864 44 56.948 44 59.9999" fill="white"/>
<path id="Path (Stroke)" fill-rule="evenodd" clip-rule="evenodd" d="M40 22.6667C31.8998 22.6667 25.3334 29.2332 25.3334 37.3333C25.3334 41.7046 27.244 45.628 30.2801 48.3169L30.2908 48.3265L30.3014 48.3362C34.7437 52.4443 37.3334 56.3473 37.3334 60C37.3334 60.7364 36.7364 61.3333 36 61.3333C35.2636 61.3333 34.6667 60.7364 34.6667 60C34.6667 57.5509 32.8566 54.3337 28.5011 50.3035C24.9241 47.1301 22.6667 42.4945 22.6667 37.3333C22.6667 27.7604 30.4271 20 40 20C49.573 20 57.3334 27.7604 57.3334 37.3333C57.3334 41.8129 55.6328 45.8966 52.8448 48.972C52.8291 48.9977 52.8107 49.0265 52.801 49.0409C52.7951 49.0495 52.7864 49.0616 52.7783 49.0727C52.7718 49.0816 52.7658 49.0898 52.7618 49.095C52.7583 49.0996 52.7533 49.106 52.7485 49.1122C52.7432 49.1189 52.738 49.1254 52.7347 49.1294L52.7148 49.1534C52.7037 49.1664 52.694 49.1773 52.6869 49.1851L52.6677 49.206L52.6529 49.2216L52.6293 49.2457L52.6086 49.2663L52.5666 49.3074C52.5506 49.3227 52.5327 49.3399 52.5129 49.3588C52.4962 49.3748 52.4781 49.3919 52.4586 49.4103C52.3734 49.491 52.2552 49.6017 52.0996 49.7465C52.0859 49.7592 52.072 49.7722 52.0577 49.7855C51.8807 49.957 51.7 50.1247 51.5158 50.2885C51.51 50.2937 51.5042 50.2989 51.4984 50.304C47.1433 54.334 45.3334 57.551 45.3334 60C45.3334 60.7364 44.7364 61.3333 44 61.3333C43.2636 61.3333 42.6667 60.7364 42.6667 60C42.6667 56.7445 44.7237 53.2903 48.316 49.6691C48.3235 49.6536 48.3302 49.6403 48.3355 49.6305C48.3529 49.6005 48.3847 49.5499 48.3988 49.5289C48.4099 49.513 48.4302 49.4852 48.4394 49.473C48.447 49.4632 48.4609 49.4456 48.4674 49.4377L48.4879 49.4132L48.5037 49.3951C48.5127 49.3849 48.5207 49.3763 48.5268 49.3697L48.5436 49.3519C48.553 49.3421 48.5616 49.3334 48.5684 49.3265L48.5885 49.3066L48.626 49.2703L48.6661 49.2322C48.6942 49.2057 48.7266 49.1753 48.7621 49.1422C48.8333 49.076 48.9208 48.9952 49.0186 48.9055C49.2142 48.7259 49.455 48.5064 49.6956 48.2881C49.9362 48.0699 50.1781 47.8516 50.3759 47.6743C50.4474 47.6102 50.5137 47.5509 50.5725 47.4987C53.1094 44.8611 54.6667 41.2798 54.6667 37.3333C54.6667 29.2332 48.1002 22.6667 40 22.6667Z" fill="#333333"/>
<path id="Path (Stroke)_2" fill-rule="evenodd" clip-rule="evenodd" d="M36 36C36.7364 36 37.3334 36.597 37.3334 37.3333C37.3334 38.8061 38.5273 40 40 40C41.4728 40 42.6667 38.8061 42.6667 37.3333C42.6667 36.597 43.2636 36 44 36C44.7364 36 45.3334 36.597 45.3334 37.3333C45.3334 40.2789 42.9455 42.6667 40 42.6667C37.0545 42.6667 34.6667 40.2789 34.6667 37.3333C34.6667 36.597 35.2636 36 36 36Z" fill="#333333"/>
<path id="Path 24 Copy 5 (Stroke)" fill-rule="evenodd" clip-rule="evenodd" d="M40 40C40.7364 40 41.3334 40.597 41.3334 41.3333V45.3333C41.3334 46.0697 40.7364 46.6667 40 46.6667C39.2636 46.6667 38.6667 46.0697 38.6667 45.3333V41.3333C38.6667 40.597 39.2636 40 40 40Z" fill="#333333"/>
<path id="Shape" fill-rule="evenodd" clip-rule="evenodd" d="M45.3334 60V66C45.3334 68.5773 42.9455 70.6667 40 70.6667C37.0545 70.6667 34.6667 68.5773 34.6667 66V60H45.3334Z" fill="white"/>
<path id="Shape (Stroke)" fill-rule="evenodd" clip-rule="evenodd" d="M33.3333 60.0001C33.3333 59.2637 33.9303 58.6667 34.6666 58.6667H45.3333C46.0697 58.6667 46.6666 59.2637 46.6666 60.0001V66.0001C46.6666 69.4755 43.5091 72.0001 40 72.0001C36.4909 72.0001 33.3333 69.4755 33.3333 66.0001V60.0001ZM36 61.3334V66.0001C36 67.6794 37.618 69.3334 40 69.3334C42.3819 69.3334 44 67.6794 44 66.0001V61.3334H36Z" fill="#333333"/>
<path id="Path 2 (Stroke)" fill-rule="evenodd" clip-rule="evenodd" d="M38.6667 65.3333C38.6667 64.597 39.2636 64 40 64H45.3334C46.0697 64 46.6667 64.597 46.6667 65.3333C46.6667 66.0697 46.0697 66.6667 45.3334 66.6667H40C39.2636 66.6667 38.6667 66.0697 38.6667 65.3333Z" fill="#333333"/>
</g>
</svg>
