<svg width="80" height="80" viewBox="0 0 80 80" fill="none" xmlns="http://www.w3.org/2000/svg">
<g id="Icon-FoodAndDrink-SepcialistSectors2">
<path id="Oval" d="M65.3333 34.6666C65.3333 48.6578 53.9912 59.9999 40 59.9999C26.0088 59.9999 14.6667 48.6578 14.6667 34.6666C14.6667 20.6754 26.0088 9.33325 40 9.33325C53.9912 9.33325 65.3333 20.6754 65.3333 34.6666Z" fill="#59CBE8"/>
<path id="Shape (Stroke)" fill-rule="evenodd" clip-rule="evenodd" d="M20.0609 69.3333C19.3245 69.3333 18.7275 69.9302 18.7275 70.6666C18.7275 71.403 19.3245 71.9999 20.0609 71.9999H72C72.7364 71.9999 73.3333 71.403 73.3333 70.6666C73.3333 69.9302 72.7364 69.3333 72 69.3333H20.0609ZM8 69.3333C7.26362 69.3333 6.66667 69.9302 6.66667 70.6666C6.66667 71.403 7.26362 71.9999 8 71.9999H14.6284C15.3648 71.9999 15.9618 71.403 15.9618 70.6666C15.9618 69.9302 15.3648 69.3333 14.6284 69.3333H8Z" fill="#333333"/>
<path id="Path 127 Copy (Stroke)" fill-rule="evenodd" clip-rule="evenodd" d="M40 22.5C40.7364 22.5 41.3333 23.097 41.3333 23.8333V29.3333C41.3333 30.0697 40.7364 30.6667 40 30.6667C39.2636 30.6667 38.6667 30.0697 38.6667 29.3333V23.8333C38.6667 23.097 39.2636 22.5 40 22.5Z" fill="#333333"/>
<path id="Path 127 Copy (Stroke)_2" fill-rule="evenodd" clip-rule="evenodd" d="M40 6.66675C40.7364 6.66675 41.3333 7.2637 41.3333 8.00008V18.6667C41.3333 19.4031 40.7364 20.0001 40 20.0001C39.2636 20.0001 38.6667 19.4031 38.6667 18.6667V8.00008C38.6667 7.2637 39.2636 6.66675 40 6.66675Z" fill="#333333"/>
<path id="Path 127 Copy 2 (Stroke)" fill-rule="evenodd" clip-rule="evenodd" d="M34.6667 16C35.403 16 36 16.597 36 17.3333V30.3333C36 31.0697 35.403 31.6667 34.6667 31.6667C33.9303 31.6667 33.3333 31.0697 33.3333 30.3333V17.3333C33.3333 16.597 33.9303 16 34.6667 16Z" fill="#333333"/>
<path id="Path 127 Copy 3 (Stroke)" fill-rule="evenodd" clip-rule="evenodd" d="M45.3333 16C46.0697 16 46.6667 16.597 46.6667 17.3333V36C46.6667 36.7364 46.0697 37.3333 45.3333 37.3333C44.597 37.3333 44 36.7364 44 36V17.3333C44 16.597 44.597 16 45.3333 16Z" fill="#333333"/>
<path id="Path 39 Copy 9 (Stroke)" fill-rule="evenodd" clip-rule="evenodd" d="M45.3333 64.0001C45.3333 63.2637 45.9303 62.6667 46.6667 62.6667H56C56.7364 62.6667 57.3333 63.2637 57.3333 64.0001C57.3333 64.7365 56.7364 65.3334 56 65.3334H46.6667C45.9303 65.3334 45.3333 64.7365 45.3333 64.0001Z" fill="#333333"/>
<path id="Path 39 Copy 11 (Stroke)" fill-rule="evenodd" clip-rule="evenodd" d="M60 64.0001C60 63.2637 60.597 62.6667 61.3333 62.6667H64C64.7364 62.6667 65.3333 63.2637 65.3333 64.0001C65.3333 64.7365 64.7364 65.3334 64 65.3334H61.3333C60.597 65.3334 60 64.7365 60 64.0001Z" fill="#333333"/>
<path id="Path 39 Copy 12 (Stroke)" fill-rule="evenodd" clip-rule="evenodd" d="M12.6667 42.6666C12.6667 41.9302 13.2636 41.3333 14 41.3333H18.6667C19.403 41.3333 20 41.9302 20 42.6666C20 43.403 19.403 43.9999 18.6667 43.9999H14C13.2636 43.9999 12.6667 43.403 12.6667 42.6666Z" fill="#333333"/>
<path id="Path 125 Copy 2" fill-rule="evenodd" clip-rule="evenodd" d="M40 36C40 36 28 36 28 24C40 24 40 36 40 36Z" fill="white"/>
<path id="Path 125 Copy 2 (Stroke)" fill-rule="evenodd" clip-rule="evenodd" d="M26.6667 24.0001C26.6667 23.2637 27.2636 22.6667 28 22.6667C31.2333 22.6667 33.7469 23.4789 35.6771 24.7657C37.5989 26.0469 38.8635 27.7456 39.6926 29.4038C40.519 31.0567 40.9256 32.6936 41.1277 33.9059C41.2292 34.5152 41.2805 35.0259 41.3065 35.3895C41.3195 35.5715 41.3262 35.7173 41.3297 35.8209C41.3314 35.8727 41.3323 35.9141 41.3328 35.9442L41.3332 35.9808L41.3333 35.9926L41.3333 35.9969L41.3333 35.9986C41.3333 35.9994 41.3333 36.0001 40 36.0001C40 37.3334 39.9993 37.3334 39.9986 37.3334L39.9968 37.3334L39.9926 37.3334L39.9807 37.3333L39.9441 37.3329C39.914 37.3324 39.8726 37.3315 39.8208 37.3297C39.7172 37.3263 39.5714 37.3196 39.3894 37.3066C39.0258 37.2806 38.5151 37.2293 37.9058 37.1278C36.6935 36.9257 35.0567 36.5191 33.4037 35.6927C31.7455 34.8636 30.0468 33.599 28.7656 31.6772C27.4788 29.747 26.6667 27.2334 26.6667 24.0001ZM40 36.0001V37.3334C40.7364 37.3334 41.3333 36.7365 41.3333 36.0001H40ZM38.5265 34.5266C38.4671 34.5174 38.4063 34.5077 38.3442 34.4974C37.3065 34.3244 35.9433 33.981 34.5963 33.3075C33.2545 32.6366 31.9532 31.6512 30.9844 30.198C30.1915 29.0086 29.5852 27.4522 29.3955 25.3956C31.4521 25.5852 33.0085 26.1915 34.1979 26.9845C35.6511 27.9533 36.6365 29.2545 37.3074 30.5964C37.981 31.9434 38.3244 33.3066 38.4973 34.3443C38.5077 34.4064 38.5174 34.4671 38.5265 34.5266Z" fill="#333333"/>
<path id="Path 125 Copy 6" fill-rule="evenodd" clip-rule="evenodd" d="M40 44C40 44 52 44 52 32C40 32 40 44 40 44Z" fill="white"/>
<path id="Path 125 Copy 6 (Stroke)" fill-rule="evenodd" clip-rule="evenodd" d="M53.3333 32.0001C53.3333 31.2637 52.7364 30.6667 52 30.6667C48.7667 30.6667 46.2531 31.4789 44.3229 32.7657C42.4011 34.0469 41.1365 35.7456 40.3074 37.4038C39.481 39.0567 39.0744 40.6936 38.8723 41.9059C38.7708 42.5152 38.7195 43.0259 38.6935 43.3895C38.6805 43.5715 38.6738 43.7173 38.6703 43.8209C38.6686 43.8727 38.6677 43.9141 38.6672 43.9442L38.6668 43.9808L38.6667 43.9926L38.6667 43.9969L38.6667 43.9986C38.6667 43.9994 38.6667 44.0001 40 44.0001C40 45.3334 40.0007 45.3334 40.0014 45.3334L40.0032 45.3334L40.0074 45.3334L40.0193 45.3333L40.0559 45.3329C40.086 45.3324 40.1274 45.3315 40.1792 45.3297C40.2828 45.3263 40.4286 45.3196 40.6106 45.3066C40.9742 45.2806 41.4849 45.2293 42.0942 45.1278C43.3065 44.9257 44.9433 44.5191 46.5963 43.6927C48.2545 42.8636 49.9532 41.599 51.2344 39.6772C52.5212 37.747 53.3333 35.2334 53.3333 32.0001ZM40 44.0001V45.3334C39.2636 45.3334 38.6667 44.7365 38.6667 44.0001H40ZM41.4735 42.5266C41.5329 42.5174 41.5937 42.5077 41.6558 42.4974C42.6935 42.3244 44.0567 41.981 45.4037 41.3075C46.7455 40.6366 48.0468 39.6512 49.0156 38.198C49.8085 37.0086 50.4148 35.4522 50.6044 33.3956C48.5479 33.5852 46.9915 34.1915 45.8021 34.9845C44.3489 35.9533 43.3635 37.2545 42.6926 38.5964C42.019 39.9434 41.6756 41.3066 41.5027 42.3443C41.4923 42.4064 41.4826 42.4671 41.4735 42.5266Z" fill="#333333"/>
<path id="Path 125 Copy 4" fill-rule="evenodd" clip-rule="evenodd" d="M40 52C40 52 28 52 28 40C40 40 40 52 40 52Z" fill="white"/>
<path id="Path 125 Copy 4 (Stroke)" fill-rule="evenodd" clip-rule="evenodd" d="M26.6667 40.0001C26.6667 39.2637 27.2636 38.6667 28 38.6667C31.2333 38.6667 33.7469 39.4789 35.6771 40.7657C37.5989 42.0469 38.8635 43.7456 39.6926 45.4038C40.519 47.0567 40.9256 48.6936 41.1277 49.9059C41.2292 50.5152 41.2805 51.0259 41.3065 51.3895C41.3195 51.5715 41.3262 51.7173 41.3297 51.8209C41.3314 51.8727 41.3323 51.9141 41.3328 51.9442L41.3332 51.9808L41.3333 51.9926L41.3333 51.9969L41.3333 51.9986C41.3333 51.9994 41.3333 52.0001 40 52.0001C40 53.3334 39.9993 53.3334 39.9986 53.3334L39.9968 53.3334L39.9926 53.3334L39.9807 53.3333L39.9441 53.3329C39.914 53.3324 39.8726 53.3315 39.8208 53.3297C39.7172 53.3263 39.5714 53.3196 39.3894 53.3066C39.0258 53.2806 38.5151 53.2293 37.9058 53.1278C36.6935 52.9257 35.0567 52.5191 33.4037 51.6926C31.7455 50.8636 30.0468 49.599 28.7656 47.6772C27.4788 45.747 26.6667 43.2334 26.6667 40.0001ZM40 52.0001V53.3334C40.7364 53.3334 41.3333 52.7365 41.3333 52.0001H40ZM38.5265 50.5266C38.4671 50.5174 38.4063 50.5077 38.3442 50.4974C37.3065 50.3244 35.9433 49.981 34.5963 49.3075C33.2545 48.6366 31.9532 47.6512 30.9844 46.198C30.1915 45.0086 29.5852 43.4522 29.3955 41.3956C31.4521 41.5852 33.0085 42.1915 34.1979 42.9845C35.6511 43.9533 36.6365 45.2545 37.3074 46.5964C37.981 47.9434 38.3244 49.3066 38.4973 50.3443C38.5077 50.4064 38.5174 50.4671 38.5265 50.5266Z" fill="#333333"/>
<path id="Path 127 (Stroke)" fill-rule="evenodd" clip-rule="evenodd" d="M40 28C40.7364 28 41.3333 28.597 41.3333 29.3333V70.6667C41.3333 71.403 40.7364 72 40 72C39.2636 72 38.6667 71.403 38.6667 70.6667V29.3333C38.6667 28.597 39.2636 28 40 28Z" fill="#333333"/>
</g>
</svg>
