<svg width="70" height="66" viewBox="0 0 70 66" fill="none" xmlns="http://www.w3.org/2000/svg">
<g id="Layer 2">
<path id="Vector" fill-rule="evenodd" clip-rule="evenodd" d="M55 58C55 61.68 57.9867 64.6667 61.6667 64.6667C65.3467 64.6667 68.3333 61.68 68.3333 58" fill="#59CBE8"/>
<path id="Vector (Stroke)" fill-rule="evenodd" clip-rule="evenodd" d="M61.6667 66C57.2503 66 53.6667 62.4164 53.6667 58H56.3333C56.3333 60.9436 58.7231 63.3333 61.6667 63.3333C64.6103 63.3333 67 60.9436 67 58H69.6667C69.6667 62.4164 66.083 66 61.6667 66Z" fill="#333333"/>
<path id="Vector_2" fill-rule="evenodd" clip-rule="evenodd" d="M1.66666 58C1.66666 61.68 4.65333 64.6667 8.33333 64.6667C12.0133 64.6667 15 61.68 15 58" fill="#59CBE8"/>
<path id="Vector (Stroke)_2" fill-rule="evenodd" clip-rule="evenodd" d="M8.33333 66C3.91695 66 0.333332 62.4164 0.333332 58H3C3 60.9436 5.38971 63.3333 8.33333 63.3333C11.277 63.3333 13.6667 60.9436 13.6667 58H16.3333C16.3333 62.4164 12.7497 66 8.33333 66Z" fill="#333333"/>
<path id="Vector_3" fill-rule="evenodd" clip-rule="evenodd" d="M41.6667 58C41.6667 61.68 44.6533 64.6667 48.3333 64.6667C52.0133 64.6667 55 61.68 55 58" fill="#59CBE8"/>
<path id="Vector (Stroke)_3" fill-rule="evenodd" clip-rule="evenodd" d="M48.3333 66C43.9169 66 40.3333 62.4164 40.3333 58H43C43 60.9436 45.3897 63.3333 48.3333 63.3333C51.2769 63.3333 53.6667 60.9436 53.6667 58H56.3333C56.3333 62.4164 52.7497 66 48.3333 66Z" fill="#333333"/>
<path id="Vector_4" fill-rule="evenodd" clip-rule="evenodd" d="M15 58C15 61.68 17.9867 64.6667 21.6667 64.6667C25.3467 64.6667 28.3333 61.68 28.3333 58" fill="#59CBE8"/>
<path id="Vector (Stroke)_4" fill-rule="evenodd" clip-rule="evenodd" d="M21.6667 66C17.2503 66 13.6667 62.4164 13.6667 58H16.3333C16.3333 60.9436 18.723 63.3333 21.6667 63.3333C24.6103 63.3333 27 60.9436 27 58H29.6667C29.6667 62.4164 26.083 66 21.6667 66Z" fill="#333333"/>
<path id="Vector_5" d="M41.6667 59.3334C42.403 59.3334 43 58.7365 43 58.0001C43 57.2637 42.403 56.6667 41.6667 56.6667C40.9303 56.6667 40.3333 57.2637 40.3333 58.0001C40.3333 58.7365 40.9303 59.3334 41.6667 59.3334Z" fill="#333333"/>
<path id="Vector (Stroke)_5" fill-rule="evenodd" clip-rule="evenodd" d="M48.3333 50C49.0697 50 49.6667 50.597 49.6667 51.3333V59.3333C49.6667 60.0697 49.0697 60.6667 48.3333 60.6667C47.597 60.6667 47 60.0697 47 59.3333V51.3333C47 50.597 47.597 50 48.3333 50Z" fill="#333333"/>
<path id="Vector (Stroke)_6" fill-rule="evenodd" clip-rule="evenodd" d="M61.6667 50C62.403 50 63 50.597 63 51.3333V59.3333C63 60.0697 62.403 60.6667 61.6667 60.6667C60.9303 60.6667 60.3333 60.0697 60.3333 59.3333V51.3333C60.3333 50.597 60.9303 50 61.6667 50Z" fill="#333333"/>
<path id="Vector_6" d="M55 59.3334C55.7364 59.3334 56.3333 58.7365 56.3333 58.0001C56.3333 57.2637 55.7364 56.6667 55 56.6667C54.2636 56.6667 53.6667 57.2637 53.6667 58.0001C53.6667 58.7365 54.2636 59.3334 55 59.3334Z" fill="#333333"/>
<path id="Vector_7" d="M15 59.3334C15.7364 59.3334 16.3333 58.7365 16.3333 58.0001C16.3333 57.2637 15.7364 56.6667 15 56.6667C14.2636 56.6667 13.6667 57.2637 13.6667 58.0001C13.6667 58.7365 14.2636 59.3334 15 59.3334Z" fill="#333333"/>
<path id="Vector_8" d="M1.66667 59.3334C2.40304 59.3334 3 58.7365 3 58.0001C3 57.2637 2.40304 56.6667 1.66667 56.6667C0.930286 56.6667 0.333332 57.2637 0.333332 58.0001C0.333332 58.7365 0.930286 59.3334 1.66667 59.3334Z" fill="#333333"/>
<path id="Vector (Stroke)_7" fill-rule="evenodd" clip-rule="evenodd" d="M20.3333 23.3335C21.0697 23.3335 21.6667 23.9304 21.6667 24.6668V32.6668C21.6667 33.4032 21.0697 34.0002 20.3333 34.0002C19.597 34.0002 19 33.4032 19 32.6668V24.6668C19 23.9304 19.597 23.3335 20.3333 23.3335Z" fill="#333333"/>
<path id="Vector (Stroke)_8" fill-rule="evenodd" clip-rule="evenodd" d="M27 14C27.7364 14 28.3333 14.597 28.3333 15.3333V22C28.3333 22.7364 27.7364 23.3333 27 23.3333C26.2636 23.3333 25.6667 22.7364 25.6667 22V15.3333C25.6667 14.597 26.2636 14 27 14Z" fill="#333333"/>
<path id="Vector (Stroke)_9" fill-rule="evenodd" clip-rule="evenodd" d="M43 14C43.7364 14 44.3333 14.597 44.3333 15.3333V22C44.3333 22.7364 43.7364 23.3333 43 23.3333C42.2636 23.3333 41.6667 22.7364 41.6667 22V15.3333C41.6667 14.597 42.2636 14 43 14Z" fill="#333333"/>
<path id="Vector (Stroke)_10" fill-rule="evenodd" clip-rule="evenodd" d="M48.3333 23.3335C49.0697 23.3335 49.6667 23.9304 49.6667 24.6668V31.3335C49.6667 32.0699 49.0697 32.6668 48.3333 32.6668C47.597 32.6668 47 32.0699 47 31.3335V24.6668C47 23.9304 47.597 23.3335 48.3333 23.3335Z" fill="#333333"/>
<path id="Vector (Stroke)_11" fill-rule="evenodd" clip-rule="evenodd" d="M35.4621 28.9274C35.1658 28.8154 34.8342 28.8154 34.5379 28.9274L34.5349 28.9285L8.86824 38.5552C7.80213 38.955 7.69153 40.4129 8.68868 40.9685C8.68863 40.9685 8.68874 40.9686 8.68868 40.9685L15.6475 44.8345C15.9701 45.0138 16.204 45.3187 16.2935 45.6767L17.6269 51.01C17.8055 51.7244 17.3711 52.4483 16.6567 52.6269C15.9423 52.8055 15.2184 52.3712 15.0398 51.6568L13.8468 46.8847L7.39115 43.2982C4.41517 41.6405 4.73133 37.2586 7.93176 36.0583C7.93174 36.0584 7.93179 36.0583 7.93176 36.0583L33.5955 26.4328C33.596 26.4326 33.5966 26.4324 33.5971 26.4322C34.4998 26.0916 35.5002 26.0916 36.4029 26.4322C36.4034 26.4324 36.404 26.4326 36.4045 26.4328L62.0682 36.0583C62.0681 36.0583 62.0682 36.0583 62.0682 36.0583C65.2686 37.2585 65.5848 41.6405 62.6088 43.2982L55.6475 47.1656C55.0038 47.5232 54.1921 47.2913 53.8345 46.6476C53.4768 46.0039 53.7088 45.1922 54.3525 44.8345L61.3111 40.9686C62.3085 40.4131 62.198 38.955 61.1318 38.5552L35.4651 28.9285L35.4621 28.9274Z" fill="#333333"/>
<path id="Vector (Stroke)_12" fill-rule="evenodd" clip-rule="evenodd" d="M35.4567 20.9469C35.1381 20.8233 34.7972 20.8218 34.5022 20.9308L34.4959 20.9331L34.4958 20.9331L20.7892 25.9198C20.0972 26.1716 19.3321 25.8147 19.0803 25.1227C18.8286 24.4307 19.1855 23.6656 19.8775 23.4138L33.5778 18.4295C33.5789 18.4291 33.5801 18.4286 33.5812 18.4282C34.5107 18.0857 35.5267 18.1107 36.4325 18.4652L36.4423 18.469L36.4423 18.469L48.829 23.429C49.5126 23.7028 49.8449 24.4788 49.5711 25.1625C49.2974 25.8461 48.5213 26.1783 47.8377 25.9046L35.4567 20.9469Z" fill="#333333"/>
<path id="Vector (Stroke)_13" fill-rule="evenodd" clip-rule="evenodd" d="M35.4091 14.2085C35.1418 14.1172 34.8582 14.1172 34.5909 14.2085L34.5816 14.2117L27.4216 16.5983C26.723 16.8312 25.968 16.4536 25.7351 15.755C25.5022 15.0564 25.8798 14.3013 26.5784 14.0685L33.7342 11.6832C34.5571 11.4035 35.4429 11.4035 36.2658 11.6832L43.4216 14.0685C44.1202 14.3013 44.4978 15.0564 44.2649 15.755C44.032 16.4536 43.277 16.8312 42.5784 16.5983L35.4091 14.2085Z" fill="#333333"/>
<path id="Vector (Stroke)_14" fill-rule="evenodd" clip-rule="evenodd" d="M35 3.3335C35.7364 3.3335 36.3333 3.93045 36.3333 4.66683V11.3335C36.3333 12.0699 35.7364 12.6668 35 12.6668C34.2636 12.6668 33.6667 12.0699 33.6667 11.3335V4.66683C33.6667 3.93045 34.2636 3.3335 35 3.3335Z" fill="#333333"/>
<path id="Vector (Stroke)_15" fill-rule="evenodd" clip-rule="evenodd" d="M24.3333 40.6667C23.597 40.6667 23 41.2636 23 42C23 42.7364 23.597 43.3333 24.3333 43.3333C25.0697 43.3333 25.6667 42.7364 25.6667 42C25.6667 41.2636 25.0697 40.6667 24.3333 40.6667ZM20.3333 42C20.3333 39.7909 22.1242 38 24.3333 38C26.5425 38 28.3333 39.7909 28.3333 42C28.3333 44.2091 26.5425 46 24.3333 46C22.1242 46 20.3333 44.2091 20.3333 42Z" fill="#333333"/>
<path id="Vector (Stroke)_16" fill-rule="evenodd" clip-rule="evenodd" d="M45.6667 40.6667C44.9303 40.6667 44.3333 41.2636 44.3333 42C44.3333 42.7364 44.9303 43.3333 45.6667 43.3333C46.4031 43.3333 47 42.7364 47 42C47 41.2636 46.4031 40.6667 45.6667 40.6667ZM41.6667 42C41.6667 39.7909 43.4575 38 45.6667 38C47.8758 38 49.6667 39.7909 49.6667 42C49.6667 44.2091 47.8758 46 45.6667 46C43.4575 46 41.6667 44.2091 41.6667 42Z" fill="#333333"/>
<path id="Vector_9" fill-rule="evenodd" clip-rule="evenodd" d="M28.3333 58C28.3333 61.68 31.32 64.6667 35 64.6667C38.68 64.6667 41.6667 61.68 41.6667 58" fill="#59CBE8"/>
<path id="Vector (Stroke)_17" fill-rule="evenodd" clip-rule="evenodd" d="M35 66C30.5836 66 27 62.4164 27 58H29.6667C29.6667 60.9436 32.0564 63.3333 35 63.3333C37.9436 63.3333 40.3333 60.9436 40.3333 58H43C43 62.4164 39.4164 66 35 66Z" fill="#333333"/>
<path id="Vector_10" d="M28.3333 59.3334C29.0697 59.3334 29.6667 58.7365 29.6667 58.0001C29.6667 57.2637 29.0697 56.6667 28.3333 56.6667C27.597 56.6667 27 57.2637 27 58.0001C27 58.7365 27.597 59.3334 28.3333 59.3334Z" fill="#333333"/>
<path id="Vector_11" d="M32.3333 2H37.6667C39.1333 2 40.3333 3.2 40.3333 4.66667C40.3333 6.13333 39.1333 7.33333 37.6667 7.33333H32.3333C30.8667 7.33333 29.6667 6.13333 29.6667 4.66667C29.6667 3.2 30.8667 2 32.3333 2Z" fill="white"/>
<path id="Vector (Stroke)_18" fill-rule="evenodd" clip-rule="evenodd" d="M32.3333 3.33341C31.603 3.33341 31 3.93646 31 4.66675C31 5.39704 31.603 6.00008 32.3333 6.00008H37.6667C38.397 6.00008 39 5.39704 39 4.66675C39 3.93646 38.397 3.33341 37.6667 3.33341H32.3333ZM28.3333 4.66675C28.3333 2.4637 30.1303 0.666748 32.3333 0.666748H37.6667C39.8697 0.666748 41.6667 2.4637 41.6667 4.66675C41.6667 6.86979 39.8697 8.66675 37.6667 8.66675H32.3333C30.1303 8.66675 28.3333 6.86979 28.3333 4.66675Z" fill="#333333"/>
<path id="Vector (Stroke)_19" fill-rule="evenodd" clip-rule="evenodd" d="M35 26.1868C35.7364 26.1868 36.3333 26.7837 36.3333 27.5201V43.6934C36.3333 44.4298 35.7364 45.0268 35 45.0268C34.2636 45.0268 33.6667 44.4298 33.6667 43.6934V27.5201C33.6667 26.7837 34.2636 26.1868 35 26.1868Z" fill="#333333"/>
<path id="Vector (Stroke)_20" fill-rule="evenodd" clip-rule="evenodd" d="M27 51.3333C27 50.597 27.597 50 28.3333 50H68.3333C69.0697 50 69.6667 50.597 69.6667 51.3333C69.6667 52.0697 69.0697 52.6667 68.3333 52.6667H28.3333C27.597 52.6667 27 52.0697 27 51.3333Z" fill="#333333"/>
<path id="Vector (Stroke)_21" fill-rule="evenodd" clip-rule="evenodd" d="M35 50C35.7364 50 36.3333 50.597 36.3333 51.3333V59.3333C36.3333 60.0697 35.7364 60.6667 35 60.6667C34.2636 60.6667 33.6667 60.0697 33.6667 59.3333V51.3333C33.6667 50.597 34.2636 50 35 50Z" fill="#333333"/>
</g>
</svg>
