<svg xmlns="http://www.w3.org/2000/svg" width="36" height="36" viewBox="0 0 36 36">
    <g fill="none" fill-rule="evenodd">
        <rect width="36" height="36" fill="#006CCC" rx="18"/>
        <path fill="#FFF" d="M26 24.636h-3.315v-4.793c0-1.255-.519-2.112-1.66-2.112-.871 0-1.356.578-1.582 1.135-.085.2-.072.479-.072.757v5.013h-3.284s.042-8.491 0-9.263h3.284v1.454c.194-.636 1.244-1.543 2.919-1.543 2.078 0 3.71 1.332 3.71 4.202v5.15zM12.766 14.214h-.022c-1.058 0-1.744-.708-1.744-1.606 0-.915.706-1.608 1.786-1.608 1.079 0 1.742.692 1.763 1.606 0 .897-.684 1.608-1.783 1.608zm-1.388 1.159h2.924v9.263h-2.924v-9.263z"/>
    </g>
</svg>
