<?xml version="1.0" encoding="UTF-8"?>
<svg width="58px" height="54px" viewBox="0 0 58 54" version="1.1" xmlns="http://www.w3.org/2000/svg" xmlns:xlink="http://www.w3.org/1999/xlink">
    <!-- Generator: Sketch 48.2 (47327) - http://www.bohemiancoding.com/sketch -->
    <title>search</title>
    <desc>Created with Sketch.</desc>
    <defs>
        <polygon id="path-1" points="0 0 58 0 58 54 0 54"></polygon>
    </defs>
    <g id="FAS-technology-mobile-3" stroke="none" stroke-width="1" fill="none" fill-rule="evenodd" transform="translate(-254.000000, -1494.000000)">
        <g id="search" transform="translate(254.000000, 1494.000000)">
            <mask id="mask-2" fill="white">
                <use xlink:href="#path-1"></use>
            </mask>
            <g id="Clip-2"></g>
            <path d="M25.0556558,42.1763145 C20.193561,42.6173588 15.4644956,41.093511 11.7292382,37.9216892 C4.01874876,31.3694078 3.00668181,19.6856945 9.47556333,11.8763047 C13.0830081,7.52396301 18.2633302,5.28176757 23.4801701,5.28176757 C27.6197326,5.28176757 31.7853793,6.69733501 35.2024095,9.59977646 C38.9376669,12.7715983 41.2278596,17.2295793 41.6530321,22.1497326 C42.0782045,27.0672448 40.5861883,31.8606309 37.4534759,35.64252 C34.3181551,39.4244091 29.9151422,41.7458341 25.0556558,42.1763145 Z M58,47.9283777 L43.6954249,35.7772102 C46.1603818,31.5516357 47.2820024,26.6763792 46.8490046,21.6875604 C46.3038449,15.3650446 43.3589387,9.63410926 38.5542291,5.55114794 C28.6396248,-2.87359112 13.8003236,-1.56102205 5.48207236,8.48264022 C-2.83878734,18.5210205 -1.53979419,33.5429377 8.37481011,41.9676768 C12.6421852,45.5937478 17.9190188,47.5295891 23.4227849,47.5295891 C24.1166246,47.5295891 24.8130727,47.5005383 25.5121293,47.4397957 C30.4368262,47.0040333 34.9833022,45.0365002 38.6663912,41.8461915 L52.9683579,54 L58,47.9283777 Z" id="Fill-1" fill="#FEFEFE" mask="url(#mask-2)"></path>
        </g>
    </g>
</svg>