<svg xmlns="http://www.w3.org/2000/svg" xmlns:xlink="http://www.w3.org/1999/xlink" width="129" height="75" viewBox="0 0 129 75">
    <defs>
        <path id="a" d="M0 75h128.819V.056H0z"/>
    </defs>
    <g fill="none" fill-rule="evenodd">
        <path fill="#E12425" d="M19 67h84V43H19z"/>
        <g>
            <path fill="#FEFEFE" d="M33.324 57.562h-2.843v-3.3h6.366v2.847c0 4.535-2.994 7.106-7.07 7.106-4.607 0-7.703-3.528-7.703-9.096 0-5.365 3.222-9.094 7.828-9.094 3.599 0 5.511 1.687 6.67 4.409l-3.348 1.385c-.654-1.31-1.46-2.293-3.373-2.293-2.642 0-4.152 2.318-4.152 5.593 0 3.251 1.535 5.643 4.177 5.643 2.907 0 3.336-1.81 3.448-2.67.02-.222.034-.34.033-.53M47.91 49.728h-4.606v4.534h4.606c1.636 0 2.516-.754 2.516-2.292 0-1.588-.956-2.242-2.516-2.242m2.089 14.21l-3.146-6.35h-3.55v6.35h-3.522V46.302h8.204c3.322 0 6.066 1.84 6.066 5.593 0 2.645-1.132 4.309-3.373 5.19l3.373 6.853H50M56.717 63.938V46.302H68.95v3.452h-8.71v3.652h6.532v3.427H60.24v3.653h8.709v3.452zM76.951 56.833c1.04-2.975 2.03-5.82 2.111-6.122.081.302 1.07 3.147 2.11 6.122h-4.22zm6.716 7.105h3.877l-6.695-17.636h-3.422L70.68 63.938h3.774s.577-1.635 1.321-3.755h6.57l1.321 3.755zM94.616 49.778v14.16h-3.522v-14.16h-5.06v-3.476h13.643v3.476zM20.549 73.1h-1.085v1.058h1.085c.397 0 .584-.21.584-.532 0-.35-.187-.526-.584-.526m-.046-1.503h-1.04v.778h1.08c.339 0 .46-.157.46-.385 0-.257-.144-.393-.5-.393m.017 3.34h-1.856v-4.093h1.874c.793 0 1.295.38 1.295 1.08a.902.902 0 0 1-.431.797.932.932 0 0 1 .571.894c0 .86-.577 1.322-1.453 1.322M24.402 71.638h-1.068v1.053h1.068c.379 0 .583-.175.583-.532 0-.368-.221-.521-.583-.521zm.484 3.299l-.73-1.474h-.822v1.474h-.817v-4.093h1.902c.77 0 1.407.426 1.407 1.297 0 .615-.263 1-.783 1.205l.783 1.59h-.94z"/>
            <mask id="b" fill="#fff">
                <use xlink:href="#a"/>
            </mask>
            <path fill="#FEFEFE" d="M26.45 74.937h.818v-4.093h-.818zM29.696 71.65v3.287h-.818V71.65h-1.173v-.806h3.164v.806zM32.55 72.504c-.082-.24-.164-.485-.204-.638a11.98 11.98 0 0 1-.205.638l-.262.742h.934l-.263-.742zm.864 2.433l-.321-.913h-1.495l-.32.913h-.876l1.564-4.093h.794l1.552 4.093h-.898zM34.838 74.937h.818v-4.093h-.818zM38.935 74.937l-1.5-2.235c-.098-.151-.233-.356-.286-.462 0 .153.012.666.012.896v1.8h-.806v-4.092h.782l1.448 2.163c.1.151.234.356.286.462 0-.153-.012-.667-.012-.895v-1.73h.806v4.093h-.73zM43.04 73.217c-.322.17-.451.38-.451.625 0 .264.21.433.619.433.251 0 .461-.059.63-.181l-.799-.877zm1.574 1.72l-.309-.335c-.32.264-.712.398-1.19.398-.835 0-1.343-.35-1.343-1.087 0-.573.315-.918.835-1.175l-.105-.117c-.216-.24-.356-.503-.356-.83 0-.666.525-1.012 1.213-1.012.502 0 .83.151 1.22.428l-.39.59a1.38 1.38 0 0 0-.853-.293c-.239 0-.385.1-.385.269 0 .176.088.293.216.445l1.127 1.286c.093-.188.186-.41.286-.679l.659.21c-.129.398-.28.744-.461 1.025l.77.876h-.934zM49.832 74.937l-1.5-2.235c-.099-.151-.233-.356-.285-.462 0 .153.012.666.012.896v1.8h-.806v-4.092h.781l1.448 2.163c.1.151.234.356.286.462 0-.153-.011-.667-.011-.895v-1.73h.805v4.093h-.73zM52.88 71.592c-.66 0-.935.567-.935 1.297 0 .732.275 1.298.934 1.298.66 0 .934-.566.934-1.297 0-.73-.274-1.298-.934-1.298m0 3.408c-1.115 0-1.774-.865-1.774-2.11 0-1.246.66-2.11 1.774-2.11 1.116 0 1.774.864 1.774 2.11 0 1.245-.658 2.11-1.774 2.11M57.082 71.638h-1.068v1.053h1.068c.38 0 .584-.175.584-.532 0-.368-.223-.521-.584-.521zm.485 3.299l-.73-1.474h-.823v1.474h-.817v-4.093H57.1c.77 0 1.405.426 1.405 1.297 0 .615-.262 1-.78 1.205l.78 1.59h-.938zM60.66 71.65v3.287h-.817V71.65h-1.174v-.806h3.165v.806zM64.705 74.937v-1.72h-1.676v1.72h-.816v-4.093h.816v1.566h1.676v-1.566h.817v4.093zM66.28 74.937v-4.093h2.837v.8h-2.019v.708h1.174v.794h-1.174v.988h2.108v.803zM71.668 71.638H70.6v1.053h1.068c.38 0 .584-.175.584-.532 0-.368-.221-.521-.584-.521zm.484 3.299l-.729-1.474H70.6v1.474h-.817v-4.093h1.902c.771 0 1.406.426 1.406 1.297 0 .615-.261 1-.781 1.205l.781 1.59h-.939zM76.239 74.937l-1.5-2.235a5.877 5.877 0 0 1-.286-.462c0 .153.01.666.01.896v1.8h-.804v-4.092h.782l1.447 2.163c.1.151.233.356.287.462 0-.153-.012-.667-.012-.895v-1.73h.805v4.093h-.729zM79.42 74.937h.817v-4.093h-.818zM82.939 71.638h-1.068v1.053h1.068c.38 0 .583-.175.583-.532 0-.368-.221-.521-.583-.521zm.485 3.299l-.73-1.474h-.823v1.474h-.817v-4.093h1.902c.77 0 1.407.426 1.407 1.297 0 .615-.263 1-.782 1.205l.782 1.59h-.94zM85.047 74.937v-4.093h2.836v.8h-2.02v.708h1.173v.794h-1.172v.988h2.107v.803zM88.548 74.937v-4.093h.816v3.285h2.05v.808zM93.732 72.504c-.082-.24-.164-.485-.205-.638-.041.153-.123.398-.205.638l-.262.742h.934l-.262-.742zm.863 2.433l-.322-.913H92.78l-.32.913h-.876l1.564-4.093h.794l1.552 4.093h-.9zM98.424 74.937l-1.5-2.235a6.729 6.729 0 0 1-.287-.462c0 .153.014.666.014.896v1.8h-.806v-4.092h.78l1.45 2.163c.098.151.233.356.286.462 0-.153-.012-.667-.012-.895v-1.73h.804v4.093h-.729zM101.045 71.638h-.432v2.503h.403c.857 0 1.249-.504 1.249-1.251 0-.837-.356-1.252-1.22-1.252m-.029 3.299h-1.22v-4.093h1.278c1.167 0 2.031.549 2.031 2.046 0 1.437-1.038 2.047-2.089 2.047M34.762 18.105h-3.474l-2.181-9.139a45.953 45.953 0 0 1-.609-3.046c-.076.66-.33 2.005-.583 3.046l-2.232 9.139h-3.322L18.658.335h3.703l1.547 8.656c.152.864.355 2.184.431 2.92.127-.736.406-2.056.609-2.92l2.08-8.656h3.093l2.105 8.656c.203.864.482 2.184.609 2.92.076-.736.279-2.082.431-2.92L34.813.335h3.652l-3.703 17.77zM39.63 18.105V.335h12.325v3.478h-8.774v3.071h5.097v3.453h-5.097v4.29h9.155v3.478zM53.781 18.105V.335h3.55V14.6h8.902v3.504zM77.416 5.514c-.634-1.22-1.649-1.93-3.246-1.93-2.663 0-4.185 2.336-4.185 5.636 0 3.198 1.547 5.636 4.21 5.636 1.598 0 2.536-.686 3.474-2.26l2.993 1.777c-1.217 2.513-3.348 4.011-6.569 4.011-4.64 0-7.76-3.554-7.76-9.164 0-5.407 3.246-9.165 7.887-9.165 3.348 0 5.377 1.625 6.493 3.935l-3.297 1.524zM88.827 3.584c-2.485 0-4.133 2.006-4.133 5.61 0 3.605 1.724 5.661 4.21 5.661 2.485 0 4.133-2.005 4.133-5.61 0-3.604-1.724-5.66-4.21-5.66m.026 14.8c-4.642 0-7.811-3.402-7.811-9.14 0-5.737 3.22-9.19 7.861-9.19 4.615 0 7.786 3.402 7.786 9.14 0 5.737-3.221 9.19-7.836 9.19M111.042 18.105v-6.524c0-.965.05-3.224.05-3.91-.252.66-.785 1.93-1.242 2.945l-3.6 7.895-3.602-7.895a69.743 69.743 0 0 1-1.243-2.945c0 .686.051 2.945.051 3.91v6.524h-3.474V.335h3.423l3.703 8.047c.457.99.99 2.336 1.217 2.97.228-.66.736-1.955 1.192-2.97l3.576-8.047h3.5v17.77h-3.551zM116.113 18.105V.335h12.326v3.478h-8.776v3.071h5.098v3.453h-5.098v4.29h9.156v3.478zM27.388 25.106v14.295H23.83V25.106h-5.107v-3.51h13.772v3.51zM40.397 24.852c-2.49 0-4.142 2.01-4.142 5.621 0 3.612 1.728 5.672 4.218 5.672s4.142-2.009 4.142-5.62c0-3.613-1.728-5.673-4.218-5.673m.025 14.83c-4.65 0-7.826-3.41-7.826-9.158 0-5.748 3.227-9.208 7.877-9.208 4.625 0 7.8 3.409 7.8 9.157 0 5.749-3.226 9.208-7.85 9.208M0 67.41h14.34V.334H0z" mask="url(#b)"/>
            <path fill="#1C1447" d="M.52.334L7.735 14.82V.334zM6.893 28.353L0 14.515v13.838zM6.798 39.532H0v13.649zM7.735 67.409V52.932L.525 67.41z" mask="url(#b)"/>
            <path fill="#B01F25" d="M7.735 27.515V22.31L0 6.731v5.204zM7.735 50.35v-5.202L0 60.727v5.204z" mask="url(#b)"/>
            <path fill="#B01F25" d="M9.926.333v30.213H0v6.794h9.926v30.07h4.415V.333z" mask="url(#b)"/>
        </g>
    </g>
</svg>
