
<?xml version="1.0" encoding="iso-8859-1"?>
<!-- Generator: Adobe Illustrator 17.1.0, SVG Export Plug-In . SVG Version: 6.00 Build 0)  -->
<!DOCTYPE svg PUBLIC "-//W3C//DTD SVG 1.1//EN" "http://www.w3.org/Graphics/SVG/1.1/DTD/svg11.dtd">
<svg version="1.1" id="Capa_1" xmlns="http://www.w3.org/2000/svg" xmlns:xlink="http://www.w3.org/1999/xlink" x="0px" y="0px"
	 viewBox="0 0 487.866 487.866" style="enable-background:new 0 0 487.866 487.866;" xml:space="preserve">
<path d="M482.866,102.737h-14.17v-9.333c0-2.761-2.239-5-5-5H298.433c-24.313,0-45.256,14.651-54.5,35.583
	c-9.244-20.931-30.187-35.583-54.5-35.583H24.17c-2.761,0-5,2.239-5,5v9.333H5c-2.761,0-5,2.239-5,5v275.519c0,2.761,2.239,5,5,5
	h216.004c3.313,7.031,13.398,11.207,22.872,11.207c11.129,0,20.04-4.566,23.032-11.207h215.957c2.761,0,5-2.239,5-5V107.737
	C487.866,104.976,485.627,102.737,482.866,102.737z M29.17,327.773h153.013c22.881,0,43.8,13.011,54.138,33.023H29.17V327.773z
	 M305.683,327.773h153.013v33.023H251.544C261.882,340.784,282.801,327.773,305.683,327.773z M458.696,98.404v219.369H305.683
	c-6.348,0-12.567,0.861-18.521,2.486V99.712c3.623-0.846,7.393-1.308,11.271-1.308H458.696z M277.163,103.21v220.607
	c-11.089,4.902-20.832,12.587-28.173,22.327V147.96c0-0.742-0.029-1.477-0.056-2.213
	C249.763,126.974,261.082,110.884,277.163,103.21z M146.533,98.404h24.133v104.549l-8.532-8.527c-1.953-1.951-5.116-1.951-7.069,0
	l-8.532,8.527V98.404z M29.17,98.404h107.363v21.055H47.667c-2.761,0-5,2.239-5,5s2.239,5,5,5h88.867v24.144H47.667
	c-2.761,0-5,2.239-5,5s2.239,5,5,5h88.867v24.144H47.667c-2.761,0-5,2.239-5,5s2.239,5,5,5h88.867v17.272
	c0,2.022,1.218,3.845,3.086,4.619c0.619,0.256,1.269,0.381,1.913,0.381c1.301,0,2.579-0.508,3.536-1.463l13.532-13.524
	l13.532,13.524c1.431,1.43,3.582,1.856,5.449,1.083c1.868-0.774,3.086-2.597,3.086-4.619v-17.272h5.979c2.761,0,5-2.239,5-5
	s-2.239-5-5-5h-5.979v-24.154h5.979c2.761,0,5-2.239,5-5s-2.239-5-5-5h-5.979v-24.154h5.979c2.761,0,5-2.239,5-5s-2.239-5-5-5
	h-5.979V98.404h8.767c3.878,0,7.647,0.462,11.271,1.308v177.503c0,2.761,2.239,5,5,5s5-2.239,5-5V103.21
	c16.081,7.675,27.4,23.765,28.229,42.538c-0.027,0.736-0.056,1.471-0.056,2.213v198.183c-7.342-9.739-17.084-17.425-28.173-22.327
	v-12.98c0-2.761-2.239-5-5-5s-5,2.239-5,5v9.423c-5.953-1.625-12.172-2.486-18.521-2.486H29.17V98.404z M477.866,378.255H262.992
	c-2.761,0-5,2.239-5,5c0,2.531-5.499,6.207-14.115,6.207c-8.089,0-14.002-4.082-14.002-6.207c0-2.761-2.239-5-5-5H10V112.737h9.17
	v210.036v43.023c0,2.761,2.239,5,5,5h219.81c0.002,0,0.004,0,0.006,0c0.002,0,0.004,0,0.005,0h219.704c2.761,0,5-2.239,5-5v-43.023
	V112.737h9.17V378.255z M191.645,344.412c0,2.761-2.239,5-5,5H43.285c-2.761,0-5-2.239-5-5s2.239-5,5-5h143.36
	C189.406,339.412,191.645,341.65,191.645,344.412z M298.297,344.412c0-2.761,2.239-5,5-5h143.36c2.761,0,5,2.239,5,5s-2.239,5-5,5
	h-143.36C300.536,349.412,298.297,347.173,298.297,344.412z M42.667,226.891c0-2.761,2.239-5,5-5h138.979c2.761,0,5,2.239,5,5
	s-2.239,5-5,5H47.667C44.905,231.891,42.667,229.652,42.667,226.891z M42.667,261.035c0-2.761,2.239-5,5-5h138.979
	c2.761,0,5,2.239,5,5s-2.239,5-5,5H47.667C44.905,266.035,42.667,263.796,42.667,261.035z M42.667,295.129c0-2.761,2.239-5,5-5
	h138.979c2.761,0,5,2.239,5,5s-2.239,5-5,5H47.667C44.905,300.129,42.667,297.89,42.667,295.129z M300.488,226.891
	c0-2.761,2.239-5,5-5h138.979c2.761,0,5,2.239,5,5s-2.239,5-5,5H305.488C302.727,231.891,300.488,229.652,300.488,226.891z
	 M300.488,261.035c0-2.761,2.239-5,5-5h138.979c2.761,0,5,2.239,5,5s-2.239,5-5,5H305.488
	C302.727,266.035,300.488,263.796,300.488,261.035z M300.488,295.129c0-2.761,2.239-5,5-5h138.979c2.761,0,5,2.239,5,5s-2.239,5-5,5
	H305.488C302.727,300.129,300.488,297.89,300.488,295.129z M300.488,124.484c0-2.761,2.239-5,5-5h138.979c2.761,0,5,2.239,5,5
	s-2.239,5-5,5H305.488C302.727,129.484,300.488,127.245,300.488,124.484z M300.488,158.628c0-2.761,2.239-5,5-5h138.979
	c2.761,0,5,2.239,5,5s-2.239,5-5,5H305.488C302.727,163.628,300.488,161.389,300.488,158.628z M300.488,192.722c0-2.761,2.239-5,5-5
	h138.979c2.761,0,5,2.239,5,5s-2.239,5-5,5H305.488C302.727,197.722,300.488,195.483,300.488,192.722z"/>
<g>
</g>
<g>
</g>
<g>
</g>
<g>
</g>
<g>
</g>
<g>
</g>
<g>
</g>
<g>
</g>
<g>
</g>
<g>
</g>
<g>
</g>
<g>
</g>
<g>
</g>
<g>
</g>
<g>
</g>
</svg>
