<svg width="285" height="122" viewBox="0 0 285 122" fill="none" xmlns="http://www.w3.org/2000/svg">
<rect width="253" height="100" transform="translate(31 22)" fill="#E80000"/>
<rect width="192" height="100" transform="translate(31 22)" fill="#E80000"/>
<g clip-path="url(#clip0_6553_438851)">
<path d="M202.876 62.3629V43.082L170.42 60.2058H162.847L195.303 43.082H159.199V62.3629H202.876Z" fill="white"/>
<path d="M202.876 92.6867V77.4023H159.199V86.291L161.247 96.6833H202.876L170.42 79.5595H177.994L202.876 92.6867Z" fill="white"/>
<path d="M101.268 47.0786V62.3629H144.947V43.082H101.268L133.726 60.2058H126.153L101.268 47.0786Z" fill="white"/>
<path d="M161.247 80.7148V96.6829H191.518L161.247 80.7148Z" fill="#04043F"/>
<path d="M202.876 60.2057V49.0752L181.779 60.2057H202.876Z" fill="#04043F"/>
<path d="M161.247 43.082V59.0501L191.518 43.082H161.247Z" fill="#04043F"/>
<path d="M181.779 79.5596L202.876 90.6901V79.5596H181.779Z" fill="#04043F"/>
<path d="M142.9 43.082H112.629L142.9 59.0501V43.082Z" fill="#04043F"/>
<path d="M122.365 60.2057L101.268 49.0752V60.2057H122.365Z" fill="#04043F"/>
<path d="M62.4229 104.18H64.5736C65.8181 104.18 66.4691 104.994 66.4691 105.95C66.4691 106.64 66.2139 107.07 65.798 107.366C66.4318 107.623 66.8963 108.141 66.8963 109.06C66.8963 110.295 65.9988 110.975 64.6739 110.975H62.4229V104.177V104.18ZM64.5564 107.109C65.236 107.109 65.6461 106.649 65.6461 106.047C65.6461 105.445 65.2389 104.985 64.5564 104.985H63.2487V107.109H64.5564ZM64.7743 110.174C65.6461 110.174 66.0619 109.687 66.0619 109.024C66.0619 108.362 65.6432 107.856 64.7743 107.856H63.2487V110.174H64.7743ZM68.4907 104.18H70.4063C71.6681 104.18 72.4739 104.937 72.4739 106.095C72.4739 106.891 72.0667 107.723 70.9397 107.953L73.1707 110.978H72.1728L70.0221 108.011H69.3138V110.978H68.4879V104.18H68.4907ZM70.3518 107.233C71.1949 107.233 71.6222 106.813 71.6222 106.114C71.6222 105.415 71.1949 104.985 70.3518 104.985H69.3166V107.236H70.3518V107.233ZM74.4181 104.18H75.244V110.978H74.4181V104.18ZM78.3324 105.021H76.5086V104.18H80.9907V105.021H79.1583V110.975H78.3324V105.021ZM83.778 104.102L86.9181 110.975H86.0291L85.2319 109.193H82.327L81.5298 110.975H80.6409L83.7809 104.102H83.778ZM84.8677 108.392L83.778 105.959L82.6884 108.392H84.8649H84.8677ZM88.0996 104.18H88.9254V110.978H88.0996V104.18ZM91.7586 106.144V110.978H90.9328V104.105L95.5238 109.015V104.18H96.3497V111.054L91.7586 106.144ZM110.283 106.144V110.978H109.458V104.105L114.049 109.015V104.18H114.875V111.054L110.283 106.144ZM116.326 107.581C116.326 105.608 117.777 104.105 119.62 104.105C121.464 104.105 122.915 105.608 122.915 107.581C122.915 109.554 121.464 111.057 119.62 111.057C117.777 111.057 116.326 109.554 116.326 107.581ZM122.069 107.581C122.069 106.086 121.026 104.94 119.62 104.94C118.215 104.94 117.172 106.089 117.172 107.581C117.172 109.072 118.215 110.222 119.62 110.222C121.026 110.222 122.069 109.072 122.069 107.581ZM124.366 104.183H126.282C127.544 104.183 128.35 104.94 128.35 106.099C128.35 106.894 127.942 107.726 126.815 107.956L129.046 110.982H128.048L125.898 108.014H125.189V110.982H124.364V104.183H124.366ZM126.227 107.236C127.071 107.236 127.498 106.816 127.498 106.117C127.498 105.418 127.071 104.988 126.227 104.988H125.192V107.239H126.227V107.236ZM131.303 105.024H129.479V104.183H133.961V105.024H132.129V110.978H131.303V105.024ZM135.229 104.183H136.055V107.085H139.611V104.183H140.437V110.982H139.611V107.929H136.055V110.982H135.229V104.183ZM142.444 104.183H146.163V105.024H143.27V107.082H145.621V107.923H143.27V110.134H146.163V110.975H142.444V104.177V104.183ZM147.772 104.183H149.688C150.949 104.183 151.755 104.94 151.755 106.099C151.755 106.894 151.348 107.726 150.221 107.956L152.452 110.982H151.454L149.303 108.014H148.595V110.982H147.769V104.183H147.772ZM149.633 107.236C150.476 107.236 150.903 106.816 150.903 106.117C150.903 105.418 150.476 104.988 149.633 104.988H148.598V107.239H149.633V107.236ZM154.525 106.144V110.978H153.699V104.105L158.29 109.015V104.18H159.116V111.054L154.525 106.144ZM164.132 104.18H164.958V110.978H164.132V104.18ZM166.965 104.18H168.881C170.142 104.18 170.948 104.937 170.948 106.095C170.948 106.891 170.541 107.723 169.414 107.953L171.645 110.978H170.647L168.496 108.011H167.788V110.978H166.962V104.18H166.965ZM168.826 107.233C169.669 107.233 170.096 106.813 170.096 106.114C170.096 105.415 169.669 104.985 168.826 104.985H167.791V107.236H168.826V107.233ZM172.892 104.18H176.612V105.021H173.718V107.079H176.07V107.92H173.718V110.131H176.612V110.972H172.892V104.174V104.18ZM178.137 104.18H178.963V110.125H181.785V110.978H178.137V104.18ZM185.774 104.105L188.914 110.978H188.025L187.228 109.197H184.323L183.525 110.978H182.637L185.777 104.105H185.774ZM186.863 108.395L185.774 105.962L184.684 108.395H186.861H186.863ZM190.921 106.144V110.978H190.095V104.105L194.686 109.015V104.18H195.512V111.054L190.921 106.144ZM197.525 104.18H199.441C201.428 104.18 202.879 105.636 202.879 107.578C202.879 109.52 201.428 110.975 199.441 110.975H197.525V104.177V104.18ZM199.441 110.165C201.001 110.165 202.036 109.063 202.036 107.581C202.036 106.099 201.001 104.997 199.441 104.997H198.351V110.168H199.441V110.165ZM100.468 109.121C100.468 108.135 101.159 107.59 101.838 107.179L101.893 107.139C101.511 106.746 101.104 106.25 101.104 105.608C101.104 104.698 101.83 104.065 102.747 104.065C103.665 104.065 104.336 104.782 104.336 105.645C104.336 106.507 103.728 106.967 103.091 107.312L104.479 108.74L105.179 107.802L105.678 108.319L104.978 109.257L106.659 110.982H105.644L104.537 109.841C103.857 110.673 103.284 111.075 102.449 111.075C101.271 111.075 100.47 110.243 100.47 109.121H100.468ZM102.472 110.328C103.054 110.328 103.507 110.001 104.032 109.333L102.418 107.675L102.283 107.75C101.646 108.104 101.256 108.48 101.256 109.13C101.256 109.886 101.847 110.328 102.472 110.328ZM102.581 106.794L102.627 106.776C103.143 106.498 103.57 106.22 103.57 105.705C103.57 105.191 103.235 104.785 102.727 104.785C102.266 104.785 101.856 105.1 101.856 105.63C101.856 106.08 102.165 106.386 102.581 106.797V106.794Z" fill="white"/>
<path d="M75.1464 80.2854C74.9486 80.1371 74.7478 79.9949 74.5872 79.9102C73.7413 79.4534 72.7634 79.2295 71.5705 79.2295C68.0204 79.2295 65.3592 82.2489 65.3592 85.9641C65.3592 89.6793 68.0204 92.6986 71.5705 92.6986C73.3456 92.6986 74.7478 92.3053 75.7486 91.552V87.9881H71.2149L71.1432 83.8523H79.8121V93.5458C77.951 95.7513 75.0317 96.9282 71.5676 96.9282C65.8152 96.9282 61.1782 92.0361 61.1782 85.9671C61.1782 79.8981 65.8152 75.0061 71.5676 75.0061C74.398 75.0061 76.8125 76.0286 78.6335 77.7773C78.7539 77.8923 78.9059 78.0587 79.0579 78.2251L75.1436 80.2884L75.1464 80.2854ZM83.3249 75.242H90.6517C94.1158 75.242 96.7769 78.0194 96.7769 81.553C96.7769 84.2396 95.1739 86.6266 92.6848 87.501L99.3836 96.6801H94.4025L88.0192 87.8308H87.4743V96.6801H83.3249V75.239V75.242ZM90.1929 84.1186C91.7385 84.1186 92.7393 83.093 92.7393 81.7013C92.7393 80.3096 91.7385 79.2567 90.1929 79.2567H87.4743V84.1186H90.1929ZM101.268 75.242H113.69V79.5593H105.417V83.7858H111.972V88.0123H105.417V92.3598H113.69V96.6771H101.268V75.236V75.242ZM125.568 75L135.556 96.6801H131.177L129.488 92.8741H121.645L119.956 96.6801H115.577L125.565 75H125.568ZM127.759 89.2527L125.47 84.1186L123.179 89.2527H127.759ZM137.747 79.5593H132.68V75.242H146.992V79.5593H141.896V96.6801H137.747V79.5593Z" fill="white"/>
<path d="M157.155 75.2422L159.199 79.5594H284.165V75.2422H157.155Z" fill="url(#paint0_linear_6553_438851)"/>
<path d="M161.247 0.203125H157.155V43.0761V64.5232L161.247 62.3631V0.203125Z" fill="url(#paint1_linear_6553_438851)"/>
<path d="M223.199 60.2061H159.199L157.155 64.5233H223.199V60.2061Z" fill="url(#paint2_linear_6553_438851)"/>
<path d="M146.989 21.6445H142.9V62.3634L146.992 64.5236L146.989 21.6445Z" fill="url(#paint3_linear_6553_438851)"/>
<path d="M0.215332 60.2061H144.947L146.992 64.5233H0.215332V60.2061Z" fill="url(#paint4_linear_6553_438851)"/>
<path d="M161.247 96.6833H157.155V75.2422L161.247 77.4023V96.6833Z" fill="white"/>
</g>
<defs>
<linearGradient id="paint0_linear_6553_438851" x1="284.165" y1="77.4023" x2="157.155" y2="77.4023" gradientUnits="userSpaceOnUse">
<stop stop-color="white" stop-opacity="0"/>
<stop offset="0.64" stop-color="white"/>
</linearGradient>
<linearGradient id="paint1_linear_6553_438851" x1="159.199" y1="0.203125" x2="159.199" y2="64.5232" gradientUnits="userSpaceOnUse">
<stop stop-color="white" stop-opacity="0"/>
<stop offset="0.66" stop-color="white"/>
</linearGradient>
<linearGradient id="paint2_linear_6553_438851" x1="223.199" y1="62.3632" x2="157.155" y2="62.3632" gradientUnits="userSpaceOnUse">
<stop stop-color="white" stop-opacity="0"/>
<stop offset="0.3" stop-color="white"/>
</linearGradient>
<linearGradient id="paint3_linear_6553_438851" x1="144.947" y1="21.6445" x2="144.947" y2="64.5236" gradientUnits="userSpaceOnUse">
<stop stop-color="white" stop-opacity="0"/>
<stop offset="0.49" stop-color="white"/>
</linearGradient>
<linearGradient id="paint4_linear_6553_438851" x1="0.215332" y1="62.3632" x2="146.995" y2="62.3632" gradientUnits="userSpaceOnUse">
<stop stop-color="white" stop-opacity="0"/>
<stop offset="0.68" stop-color="white"/>
</linearGradient>
<clipPath id="clip0_6553_438851">
<rect width="283.949" height="110.869" fill="white" transform="translate(0.215332 0.203125)"/>
</clipPath>
</defs>
</svg>
