<svg width="171" height="74" viewBox="0 0 171 74" fill="none" xmlns="http://www.w3.org/2000/svg">
<rect width="152" height="60" transform="translate(19 14)" fill="#E80000"/>
<rect width="115" height="60" transform="translate(19 14)" fill="#E80000"/>
<path d="M121.946 38.218V26.6494L102.507 36.9237H97.9704L117.41 26.6494H95.7856V38.218H121.946Z" fill="white"/>
<path d="M121.946 56.4118V47.2412H95.7856V52.5744L97.012 58.8098H121.946L102.507 48.5355H107.043L121.946 56.4118Z" fill="white"/>
<path d="M61.0869 29.0474V38.218H87.2492V26.6494H61.0869L80.5283 36.9237H75.9921L61.0869 29.0474Z" fill="white"/>
<path d="M97.0122 49.2295V58.8103H115.143L97.0122 49.2295Z" fill="#04043F"/>
<path d="M121.946 36.9234V30.2451L109.31 36.9234H121.946Z" fill="#04043F"/>
<path d="M97.0122 26.6494V36.2303L115.143 26.6494H97.0122Z" fill="#04043F"/>
<path d="M109.31 48.5361L121.946 55.2144V48.5361H109.31Z" fill="#04043F"/>
<path d="M86.0229 26.6494H67.8921L86.0229 36.2303V26.6494Z" fill="#04043F"/>
<path d="M73.7232 36.9234L61.0869 30.2451V36.9234H73.7232Z" fill="#04043F"/>
<path d="M37.8208 63.3082H39.109C39.8544 63.3082 40.2443 63.7965 40.2443 64.3702C40.2443 64.784 40.0915 65.0418 39.8424 65.2197C40.222 65.374 40.5002 65.6844 40.5002 66.2362C40.5002 66.9768 39.9626 67.3853 39.1691 67.3853H37.8208V63.3064V63.3082ZM39.0987 65.0654C39.5058 65.0654 39.7514 64.7895 39.7514 64.4282C39.7514 64.067 39.5075 63.7911 39.0987 63.7911H38.3155V65.0654H39.0987ZM39.2292 66.9042C39.7514 66.9042 40.0004 66.612 40.0004 66.2144C40.0004 65.8169 39.7497 65.5138 39.2292 65.5138H38.3155V66.9042H39.2292ZM41.4552 63.3082H42.6026C43.3583 63.3082 43.8409 63.7621 43.8409 64.4573C43.8409 64.9347 43.597 65.4339 42.922 65.5718L44.2583 67.3871H43.6606L42.3724 65.6063H41.9482V67.3871H41.4535V63.3082H41.4552ZM42.5699 65.1398C43.0749 65.1398 43.3308 64.8875 43.3308 64.4682C43.3308 64.0489 43.0749 63.7911 42.5699 63.7911H41.9499V65.1416H42.5699V65.1398ZM45.0055 63.3082H45.5001V67.3871H45.0055V63.3082ZM47.35 63.8129H46.2576V63.3082H48.9422V63.8129H47.8446V67.3853H47.35V63.8129ZM50.6117 63.261L52.4924 67.3853H51.96L51.4825 66.3161H49.7426L49.2651 67.3853H48.7326L50.6134 63.261H50.6117ZM51.2644 65.8351L50.6117 64.3756L49.959 65.8351H51.2626H51.2644ZM53.2001 63.3082H53.6947V67.3871H53.2001V63.3082ZM55.3917 64.4863V67.3871H54.8971V63.2629L57.6469 66.209V63.3082H58.1416V67.4325L55.3917 64.4863ZM66.4873 64.4863V67.3871H65.9927V63.2629L68.7425 66.209V63.3082H69.2372V67.4325L66.4873 64.4863ZM70.1063 65.3486C70.1063 64.165 70.9754 63.2629 72.0798 63.2629C73.1842 63.2629 74.0533 64.165 74.0533 65.3486C74.0533 66.5321 73.1842 67.4343 72.0798 67.4343C70.9754 67.4343 70.1063 66.5321 70.1063 65.3486ZM73.5466 65.3486C73.5466 64.4518 72.9214 63.7639 72.0798 63.7639C71.2382 63.7639 70.613 64.4537 70.613 65.3486C70.613 66.2435 71.2382 66.9333 72.0798 66.9333C72.9214 66.9333 73.5466 66.2435 73.5466 65.3486ZM74.9224 63.3101H76.0697C76.8255 63.3101 77.3081 63.7639 77.3081 64.4591C77.3081 64.9365 77.0642 65.4357 76.3892 65.5737L77.7255 67.3889H77.1278L75.8396 65.6082H75.4153V67.3889H74.9207V63.3101H74.9224ZM76.0371 65.1416C76.5421 65.1416 76.798 64.8893 76.798 64.47C76.798 64.0507 76.5421 63.7929 76.0371 63.7929H75.4171V65.1435H76.0371V65.1416ZM79.0772 63.8147H77.9849V63.3101H80.6694V63.8147H79.5719V67.3871H79.0772V63.8147ZM81.4286 63.3101H81.9233V65.0509H84.0531V63.3101H84.5478V67.3889H84.0531V65.5573H81.9233V67.3889H81.4286V63.3101ZM85.7501 63.3101H87.9778V63.8147H86.2447V65.0491H87.6532V65.5537H86.2447V66.8806H87.9778V67.3853H85.7501V63.3064V63.3101ZM88.9413 63.3101H90.0887C90.8444 63.3101 91.3271 63.7639 91.3271 64.4591C91.3271 64.9365 91.0832 65.4357 90.4082 65.5737L91.7444 67.3889H91.1467L89.8585 65.6082H89.4343V67.3889H88.9396V63.3101H88.9413ZM90.0561 65.1416C90.561 65.1416 90.8169 64.8893 90.8169 64.47C90.8169 64.0507 90.561 63.7929 90.0561 63.7929H89.436V65.1435H90.0561V65.1416ZM92.9863 64.4863V67.3871H92.4916V63.2629L95.2415 66.209V63.3082H95.7361V67.4325L92.9863 64.4863ZM98.7402 63.3082H99.2348V67.3871H98.7402V63.3082ZM100.437 63.3082H101.584C102.34 63.3082 102.823 63.7621 102.823 64.4573C102.823 64.9347 102.579 65.4339 101.904 65.5718L103.24 67.3871H102.643L101.354 65.6063H100.93V67.3871H100.435V63.3082H100.437ZM101.552 65.1398C102.057 65.1398 102.313 64.8875 102.313 64.4682C102.313 64.0489 102.057 63.7911 101.552 63.7911H100.932V65.1416H101.552V65.1398ZM103.987 63.3082H106.215V63.8129H104.482V65.0472H105.89V65.5519H104.482V66.8788H106.215V67.3835H103.987V63.3046V63.3082ZM107.129 63.3082H107.624V66.8752H109.314V67.3871H107.129V63.3082ZM111.703 63.2629L113.584 67.3871H113.051L112.574 66.3179H110.834L110.356 67.3871H109.824L111.705 63.2629H111.703ZM112.355 65.8369L111.703 64.3774L111.05 65.8369H112.354H112.355ZM114.786 64.4863V67.3871H114.291V63.2629L117.041 66.209V63.3082H117.536V67.4325L114.786 64.4863ZM118.741 63.3082H119.889C121.079 63.3082 121.948 64.1814 121.948 65.3468C121.948 66.5121 121.079 67.3853 119.889 67.3853H118.741V63.3064V63.3082ZM119.889 66.8988C120.823 66.8988 121.443 66.238 121.443 65.3486C121.443 64.4591 120.823 63.7984 119.889 63.7984H119.236V66.9006H119.889V66.8988ZM60.608 66.2725C60.608 65.6808 61.022 65.354 61.429 65.1071L61.4617 65.0835C61.2332 64.8476 60.9893 64.5499 60.9893 64.165C60.9893 63.6186 61.4239 63.2393 61.9735 63.2393C62.5231 63.2393 62.9251 63.6695 62.9251 64.1868C62.9251 64.7042 62.5609 64.9801 62.1796 65.187L63.0109 66.0438L63.43 65.4811L63.7289 65.7915L63.3098 66.3542L64.3163 67.3889H63.7083L63.0453 66.7046C62.6382 67.2038 62.2947 67.4452 61.7949 67.4452C61.089 67.4452 60.6097 66.946 60.6097 66.2725H60.608ZM61.8086 66.9968C62.1573 66.9968 62.4287 66.8008 62.743 66.3996L61.776 65.4048L61.6953 65.4502C61.314 65.6626 61.0804 65.8877 61.0804 66.278C61.0804 66.7318 61.4342 66.9968 61.8086 66.9968ZM61.8739 64.8766L61.9014 64.8657C62.2105 64.6987 62.4665 64.5317 62.4665 64.2231C62.4665 63.9145 62.2655 63.6713 61.9615 63.6713C61.685 63.6713 61.4393 63.8601 61.4393 64.1777C61.4393 64.4482 61.6248 64.6316 61.8739 64.8784V64.8766Z" fill="white"/>
<path d="M45.4416 48.971C45.3231 48.8821 45.2028 48.7968 45.1066 48.7459C44.6 48.4718 44.0143 48.3375 43.2997 48.3375C41.1734 48.3375 39.5794 50.1491 39.5794 52.3783C39.5794 54.6074 41.1734 56.419 43.2997 56.419C44.3629 56.419 45.2028 56.183 45.8023 55.731V53.5927H43.0868L43.0438 51.1112H48.2361V56.9273C47.1214 58.2506 45.3729 58.9567 43.298 58.9567C39.8525 58.9567 37.0752 56.0215 37.0752 52.3801C37.0752 48.7387 39.8525 45.8034 43.298 45.8034C44.9933 45.8034 46.4395 46.417 47.5302 47.4662C47.6023 47.5352 47.6933 47.635 47.7844 47.7349L45.4399 48.9729L45.4416 48.971ZM50.3401 45.945H54.7286C56.8034 45.945 58.3973 47.6114 58.3973 49.7316C58.3973 51.3436 57.4372 52.7758 55.9463 53.3004L59.9586 58.8079H56.9752L53.1518 53.4983H52.8255V58.8079H50.3401V45.9432V45.945ZM54.4537 51.271C55.3795 51.271 55.979 50.6556 55.979 49.8206C55.979 48.9856 55.3795 48.3539 54.4537 48.3539H52.8255V51.271H54.4537ZM61.0871 45.945H68.5277V48.5354H63.5724V51.0713H67.4988V53.6072H63.5724V56.2157H68.5277V58.806H61.0871V45.9414V45.945ZM75.6419 45.7998L81.6243 58.8079H79.0015L77.9899 56.5243H73.2923L72.2806 58.8079H69.6578L75.6402 45.7998H75.6419ZM76.9542 54.3514L75.5835 51.271L74.2112 54.3514H76.9542ZM82.9365 48.5354H79.9015V45.945H88.474V48.5354H85.4219V58.8079H82.9365V48.5354Z" fill="white"/>
<path d="M94.561 45.9453L95.7857 48.5357H170.635V45.9453H94.561Z" fill="url(#paint0_linear_6560_438920)"/>
<path d="M97.012 0.921875H94.561V26.6457V39.5139L97.012 38.2179V0.921875Z" fill="url(#paint1_linear_6560_438920)"/>
<path d="M134.119 36.9238H95.7857L94.561 39.5142H134.119V36.9238Z" fill="url(#paint2_linear_6560_438920)"/>
<path d="M88.4722 13.7861H86.0229V38.2175L88.474 39.5136L88.4722 13.7861Z" fill="url(#paint3_linear_6560_438920)"/>
<path d="M0.561035 36.9238H87.2495L88.4741 39.5142H0.561035V36.9238Z" fill="url(#paint4_linear_6560_438920)"/>
<path d="M97.012 58.81H94.561V45.9453L97.012 47.2414V58.81Z" fill="white"/>
<defs>
<linearGradient id="paint0_linear_6560_438920" x1="170.635" y1="47.2414" x2="94.561" y2="47.2414" gradientUnits="userSpaceOnUse">
<stop stop-color="white" stop-opacity="0"/>
<stop offset="0.64" stop-color="white"/>
</linearGradient>
<linearGradient id="paint1_linear_6560_438920" x1="95.7857" y1="0.921875" x2="95.7857" y2="39.5139" gradientUnits="userSpaceOnUse">
<stop stop-color="white" stop-opacity="0"/>
<stop offset="0.66" stop-color="white"/>
</linearGradient>
<linearGradient id="paint2_linear_6560_438920" x1="134.119" y1="38.2181" x2="94.561" y2="38.2181" gradientUnits="userSpaceOnUse">
<stop stop-color="white" stop-opacity="0"/>
<stop offset="0.3" stop-color="white"/>
</linearGradient>
<linearGradient id="paint3_linear_6560_438920" x1="87.2493" y1="13.7861" x2="87.2493" y2="39.5136" gradientUnits="userSpaceOnUse">
<stop stop-color="white" stop-opacity="0"/>
<stop offset="0.49" stop-color="white"/>
</linearGradient>
<linearGradient id="paint4_linear_6560_438920" x1="0.561035" y1="38.2181" x2="88.4758" y2="38.2181" gradientUnits="userSpaceOnUse">
<stop stop-color="white" stop-opacity="0"/>
<stop offset="0.68" stop-color="white"/>
</linearGradient>
</defs>
</svg>
