<svg xmlns="http://www.w3.org/2000/svg" fill="none" viewBox="0 0 80 80">
  <path fill="#59CBE8" d="M66.667 37.333c0 14.727-11.939 26.666-26.666 26.666-14.728 0-26.667-11.939-26.667-26.666 0-14.728 11.94-26.667 26.667-26.667 14.727 0 26.666 11.94 26.666 26.667Z"/>
  <path fill="#333" fill-rule="evenodd" d="M40 6.666c.736 0 1.333.597 1.333 1.333v4a1.333 1.333 0 0 1-2.667 0V8c0-.736.597-1.333 1.333-1.333Zm22.277 8.392c.52.52.52 1.365 0 1.886L59.61 19.61a1.333 1.333 0 1 1-1.886-1.885l2.667-2.667c.52-.52 1.365-.52 1.886 0Zm-43.22 0c.52-.52 1.365-.52 1.886 0l2.666 2.667a1.333 1.333 0 1 1-1.885 1.885l-2.667-2.666a1.333 1.333 0 0 1 0-1.886Zm38.666 38.666c.52-.52 1.365-.52 1.886 0l2.666 2.667a1.333 1.333 0 1 1-1.885 1.885l-2.667-2.666a1.333 1.333 0 0 1 0-1.886Zm-34.114 0c.52.52.52 1.365 0 1.886l-2.667 2.666a1.333 1.333 0 0 1-1.886-1.885l2.667-2.667c.52-.52 1.365-.52 1.886 0ZM64 37.333c0-.736.597-1.333 1.333-1.333H68a1.333 1.333 0 0 1 0 2.667h-2.667A1.333 1.333 0 0 1 64 37.333Zm-53.334 0c0-.736.597-1.333 1.333-1.333h4a1.333 1.333 0 1 1 0 2.667h-4a1.333 1.333 0 0 1-1.333-1.334Z" clip-rule="evenodd"/>
  <path fill="#fff" fill-rule="evenodd" d="M36 60c0-3.051-2.201-6.613-6.604-10.684A15.96 15.96 0 0 1 24 37.334c0-8.837 7.163-16 16-16s16 7.163 16 16a15.96 15.96 0 0 1-5.37 11.959c-3.888 3.458 3.794-3.51-.026.023C46.2 53.387 44 56.949 44 60" clip-rule="evenodd"/>
  <path fill="#333" fill-rule="evenodd" d="M40 22.667c-8.1 0-14.667 6.566-14.667 14.666 0 4.372 1.91 8.295 4.946 10.984l.011.01.01.01c4.443 4.107 7.033 8.01 7.033 11.663a1.333 1.333 0 0 1-2.667 0c0-2.45-1.81-5.666-6.166-9.697a17.294 17.294 0 0 1-5.834-12.97C22.666 27.76 30.426 20 39.999 20c9.573 0 17.334 7.76 17.334 17.333 0 4.48-1.7 8.564-4.489 11.639a2.169 2.169 0 0 1-.083.123l-.013.017-.014.017-.02.024-.028.032-.019.021-.015.016-.023.024-.021.02-.042.041-.054.052-.054.051c-.085.081-.203.192-.36.337l-.041.038c-.177.172-.358.34-.542.504l-.017.015c-4.355 4.03-6.165 7.247-6.165 9.696a1.333 1.333 0 0 1-2.667 0c0-3.255 2.057-6.71 5.65-10.33l.019-.04a2.325 2.325 0 0 1 .104-.157l.028-.035.02-.025.016-.018.023-.025.017-.018.025-.025.02-.02.037-.037.04-.038a18.614 18.614 0 0 1 .353-.326 162.015 162.015 0 0 1 1.554-1.407 14.614 14.614 0 0 0 4.094-10.166c0-8.1-6.566-14.666-14.667-14.666Z" clip-rule="evenodd"/>
  <path fill="#333" fill-rule="evenodd" d="M36 36c.736 0 1.333.597 1.333 1.333a2.667 2.667 0 1 0 5.333 0 1.333 1.333 0 0 1 2.667 0 5.333 5.333 0 1 1-10.667 0c0-.736.597-1.333 1.333-1.333Z" clip-rule="evenodd"/>
  <path fill="#333" fill-rule="evenodd" d="M40 40c.736 0 1.333.597 1.333 1.333v4a1.333 1.333 0 0 1-2.667 0v-4c0-.736.597-1.333 1.333-1.333Z" clip-rule="evenodd"/>
  <path fill="#fff" fill-rule="evenodd" d="M45.333 60v6c0 2.577-2.388 4.667-5.334 4.667-2.945 0-5.333-2.09-5.333-4.667v-6h10.667Z" clip-rule="evenodd"/>
  <path fill="#333" fill-rule="evenodd" d="M33.334 60c0-.737.597-1.334 1.333-1.334h10.667c.736 0 1.333.597 1.333 1.333v6c0 3.476-3.157 6-6.666 6-3.51 0-6.667-2.524-6.667-6v-6Zm2.667 1.333v4.666c0 1.68 1.618 3.334 4 3.334 2.382 0 4-1.654 4-3.334v-4.666h-8Z" clip-rule="evenodd"/>
  <path fill="#333" fill-rule="evenodd" d="M38.666 65.333c0-.736.597-1.333 1.333-1.333h5.334a1.333 1.333 0 0 1 0 2.667h-5.334a1.333 1.333 0 0 1-1.333-1.334Z" clip-rule="evenodd"/>
</svg>
