<svg xmlns="http://www.w3.org/2000/svg" fill="none" viewBox="0 0 80 80">
  <path fill="#59CBE8" fill-rule="evenodd" d="M25.737 73.05a1 1 0 0 0 1.213 1.213L36 72.001l25.555-5.111a1 1 0 0 0 .753-1.297l-.867-2.6a1 1 0 0 0-.394-.516l-2.7-1.8a1 1 0 0 1-.152-1.539l2.911-2.91a1 1 0 0 0 .28-.543l1.116-6.698a1 1 0 0 0-.822-1.15l-6.578-1.097a1 1 0 0 1-.676-.444L42.81 28.319a1 1 0 0 1-.15-.69l1.282-8.579a1 1 0 0 0-.157-.702l-2.155-3.234a1 1 0 0 0-.832-.445h-5.7a1 1 0 0 1-.857-1.515l2.601-4.334a1 1 0 0 0-.303-1.347L34.07 5.826a1 1 0 0 0-1.314.181l-7.26 8.47a1 1 0 0 0-.217.435l-2.53 11.385a1 1 0 0 0 .102.703l6.14 11.05a1 1 0 0 0 1.038.502l5.665-.945a1 1 0 0 1 1.113 1.303l-.702 2.108a1 1 0 0 0 0 .633l2.307 6.922a1 1 0 0 1-.434 1.174l-5.64 3.384a1 1 0 0 0-.447.583l-2.25 7.877a1 1 0 0 0 .797 1.26l3.861.644c.956.16 1.15 1.448.283 1.881l-7.505 3.753a1 1 0 0 0-.523.651l-.817 3.27Zm-9.713-37.042a1.333 1.333 0 0 1 2.147.335l2.864 5.727a1.33 1.33 0 0 1 0 1.192l-.557 1.114c-.28.559-.91.849-1.516.697l-3.807-.952a1.334 1.334 0 0 1-.774-.536l-1.758-2.549a1.333 1.333 0 0 1 .143-1.688l3.258-3.34Z" clip-rule="evenodd"/>
  <path fill="#333" fill-rule="evenodd" d="M15.07 35.077a2.667 2.667 0 0 1 4.293.669l2.864 5.727a2.669 2.669 0 0 1 0 2.385l-.557 1.114a2.667 2.667 0 0 1-3.032 1.395l-3.807-.952a2.667 2.667 0 0 1-1.549-1.073l-1.758-2.549a2.667 2.667 0 0 1 .287-3.376l3.258-3.34Zm1.908 1.862-3.259 3.34 1.758 2.549 3.808.952.557-1.114-2.864-5.727Z" clip-rule="evenodd"/>
  <path fill="#333" fill-rule="evenodd" d="M31.553 5.363a2.667 2.667 0 0 1 3.504-.483l1.959 1.306c1.184.79 1.54 2.37.807 3.59l-2.134 3.558h4.931c.892 0 1.725.445 2.22 1.187l1.985 2.978c.367.551.516 1.219.418 1.874L44 27.699l11.469 17.75 6.103 1.017a2.667 2.667 0 0 1 2.192 3.069l-1.044 6.263a1.333 1.333 0 0 1-2.63-.438l1.044-6.264-6.104-1.017a2.667 2.667 0 0 1-1.801-1.183L41.76 29.146a2.667 2.667 0 0 1-.397-1.84l1.244-8.327L40.62 16h-4.93a2.667 2.667 0 0 1-2.287-4.038l2.135-3.558-1.96-1.306-7.014 8.184-2.484 11.18 5.964 10.735 4.992-.832a2.603 2.603 0 0 1 2.897 3.39l-.526 1.579 2.188 6.563a2.667 2.667 0 0 1-1.158 3.13l-5.298 3.18-2.112 7.39 2.527.421a2.652 2.652 0 0 1 .75 4.988l-6.49 3.246-.646 2.583 8.48-2.12c.04-.01.082-.02.123-.028l18.332-3.667a1.333 1.333 0 0 1 .523 2.615l-18.332 3.666-8.48 2.12a2.666 2.666 0 0 1-3.233-3.233l.645-2.583a2.667 2.667 0 0 1 1.395-1.738l6.45-3.226-2.482-.413a2.667 2.667 0 0 1-2.126-3.363l2.112-7.392a2.666 2.666 0 0 1 1.192-1.553l5.298-3.18-2.188-6.563a2.667 2.667 0 0 1 0-1.687l.493-1.477-4.888.815a2.666 2.666 0 0 1-2.77-1.336l-5.963-10.735a2.667 2.667 0 0 1-.272-1.873l2.484-11.18a2.67 2.67 0 0 1 .579-1.158l7.014-8.183Z" clip-rule="evenodd"/>
  <path fill="#333" fill-rule="evenodd" d="M38.666 20c0-.737.597-1.334 1.333-1.334h14a1.333 1.333 0 1 1 0 2.667H40a1.333 1.333 0 0 1-1.333-1.334ZM58 20c0-.737.597-1.334 1.333-1.334h2a1.333 1.333 0 1 1 0 2.667h-2A1.333 1.333 0 0 1 58 19.999Zm4 17.333c0-.736.597-1.333 1.333-1.333h4a1.333 1.333 0 1 1 0 2.667h-4A1.333 1.333 0 0 1 62 37.333Zm-56.666-10c0-.736.597-1.333 1.333-1.333h8a1.333 1.333 0 1 1 0 2.667h-8a1.333 1.333 0 0 1-1.333-1.334Z" clip-rule="evenodd"/>
  <path fill="#fff" d="M49.334 57.334h9.333v16h-9.333v-16Z"/>
  <path fill="#333" fill-rule="evenodd" d="M48 57.333c0-.736.597-1.333 1.333-1.333h9.334c.736 0 1.333.597 1.333 1.333v16c0 .737-.597 1.334-1.333 1.334h-9.334A1.333 1.333 0 0 1 48 73.333v-16Zm2.667 1.334V72h6.666V58.667h-6.666Z" clip-rule="evenodd"/>
  <path fill="#fff" d="M70.666 45.334h-12v28h12v-28Z"/>
  <path fill="#333" fill-rule="evenodd" d="M72 45.333c0-.736-.597-1.333-1.333-1.333h-12c-.737 0-1.334.597-1.334 1.333v28c0 .737.597 1.334 1.334 1.334h12c.736 0 1.333-.597 1.333-1.334v-28Zm-2.667 1.334V72H60V46.667h9.333Z" clip-rule="evenodd"/>
  <path fill="#333" fill-rule="evenodd" d="M64 57.333c0-.736.597-1.333 1.333-1.333h5.334a1.333 1.333 0 0 1 0 2.667h-5.334A1.333 1.333 0 0 1 64 57.333ZM64 52c0-.737.597-1.334 1.333-1.334h5.334a1.333 1.333 0 0 1 0 2.667h-5.334A1.333 1.333 0 0 1 64 51.999Zm0 10.667c0-.736.597-1.333 1.333-1.333h5.334a1.333 1.333 0 0 1 0 2.667h-5.334A1.333 1.333 0 0 1 64 62.667Zm-10.666 0c0-.736.597-1.333 1.333-1.333h4a1.333 1.333 0 1 1 0 2.667h-4a1.333 1.333 0 0 1-1.333-1.334Z" clip-rule="evenodd"/>
</svg>
