<svg xmlns="http://www.w3.org/2000/svg" xmlns:xlink="http://www.w3.org/1999/xlink" width="158" height="26" viewBox="0 0 158 26">
    <defs>
        <path id="a" d="M.117.218h4.514v11.088H.117z"/>
    </defs>
    <g fill="none" fill-rule="evenodd">
        <path fill="#0F64AE" d="M0 26h2V0H0z"/>
        <path fill="#1D1D1B" d="M19.224 5.077c-.134.257-.249.408-.23.606.017.2.224.34.322.54.089-.232.237-.407.22-.59-.018-.182-.267-.423-.312-.556M22.65 5.077c.134.257.25.408.231.606-.017.2-.224.34-.322.54-.09-.232-.237-.407-.22-.59.018-.182.267-.423.312-.556M17.252 4.927a.232.232 0 0 0 .232-.233.232.232 0 0 0-.232-.234.232.232 0 0 0-.232.234c0 .13.104.233.232.233M17.406 5.261a.233.233 0 0 0-.231-.234.233.233 0 0 0-.232.234c0 .13.104.234.232.234a.233.233 0 0 0 .231-.234M17.52 5.827a.233.233 0 0 0-.232-.233.233.233 0 0 0 0 .466.232.232 0 0 0 .232-.233M18.534 3.814a.233.233 0 0 0 .231-.234.233.233 0 0 0-.231-.233.233.233 0 0 0-.232.233c0 .13.104.234.232.234M17.958 3.993a.232.232 0 0 0 .231-.234.232.232 0 0 0-.231-.234.232.232 0 0 0-.232.234c0 .13.103.234.232.234M17.505 4.393a.232.232 0 0 0 .232-.233.232.232 0 1 0-.463 0c0 .129.103.233.231.233M19.138 3.87a.232.232 0 0 0 .231-.234.232.232 0 1 0-.463 0c0 .13.105.234.232.234M19.712 4.037a.233.233 0 0 0 .231-.235.232.232 0 1 0-.463 0c0 .13.104.235.232.235M20.252 4.293a.232.232 0 0 0 .232-.234.233.233 0 0 0-.232-.234.233.233 0 0 0-.231.234c0 .13.104.234.231.234M24.384 4.694c0 .13.104.233.231.233a.232.232 0 0 0 .232-.233.233.233 0 0 0-.232-.234.233.233 0 0 0-.231.234M24.692 5.027a.232.232 0 0 0-.231.234.233.233 0 1 0 .464 0 .233.233 0 0 0-.233-.234M24.58 5.593a.232.232 0 0 0-.232.234.232.232 0 1 0 .464 0 .234.234 0 0 0-.233-.234M23.334 3.814a.233.233 0 0 0 0-.467.234.234 0 0 0 0 .467M23.91 3.993a.233.233 0 0 0 .231-.234.233.233 0 0 0-.232-.234.233.233 0 0 0-.231.234c0 .13.104.234.231.234M24.362 4.393a.232.232 0 0 0 .232-.233.233.233 0 0 0-.232-.234.232.232 0 0 0-.231.234c0 .129.103.233.231.233M22.73 3.87a.232.232 0 0 0 .23-.234.232.232 0 1 0-.463 0c0 .13.105.234.232.234M22.155 4.037a.233.233 0 0 0 .232-.235.232.232 0 1 0-.463 0c0 .13.104.235.231.235M21.384 4.06c0 .129.103.233.231.233a.233.233 0 0 0 .232-.234.233.233 0 0 0-.232-.234.233.233 0 0 0-.231.234M20.538 5.323h.26v-1a.912.912 0 0 1-.26-.081v1.081zM21.33 4.242a.922.922 0 0 1-.26.08v1.001h.26V4.242zM20.785 3.138v-.593a.73.73 0 0 0-.57.593h.57zM21.086 3.138h.565a.73.73 0 0 0-.565-.593v.593zM20.223 3.424a.73.73 0 0 0 .711.574.73.73 0 0 0 .71-.574h-1.42zM21.332 2.45c-.165-.13-.292-.319-.315-.517a.93.93 0 0 1 .525.338v-.805a.92.92 0 0 1-.525.338c.02-.196.14-.374.303-.577h-.772c.163.203.281.381.303.577a.919.919 0 0 1-.526-.338v.805a.928.928 0 0 1 .526-.338.813.813 0 0 1-.316.518h.797zM22.184 18.497a14.771 14.771 0 0 1-2.407-.87l.001-.01a.641.641 0 0 0-.165-.497.616.616 0 0 0-.46-.227.644.644 0 0 0-.22.043 3.537 3.537 0 0 1-.336-.347 4.03 4.03 0 0 1-.715-1.253 4.46 4.46 0 0 1-.21-.832c-.038.238-.304.552-.76.558.007-.05.002-.169-.04-.18-.12.133-.3.278-.712.131.064.325.153.645.267.954a5.645 5.645 0 0 0 1.048 1.773c.147.17.303.326.466.471a.827.827 0 0 0-.005.095c0 .173.164.446.402.562.194.095.404.071.594-.068.353.19.805.369 1.29.505.546.153 1.074.239 1.486.239.356 0 .825-.17 1.289-.464a3.299 3.299 0 0 0 .538-.42c-.361.051-.905-.052-1.35-.163m-2.67-1.106l-.076-.058c-.14-.107-.26-.106-.387.004-.06.052-.116.116-.168.179l-.08.091.054.043c.15.121.172.253.129.33a.126.126 0 0 1-.077.06c-.074.02-.178-.007-.286-.072l-.057-.034-.034.057a.578.578 0 0 0-.161.37c0 .02.002.039.007.056.023.082.089.12.146.153l.036.021c.067.043.161.1.232.14a.404.404 0 0 1-.397.016c-.2-.098-.328-.328-.328-.441 0-.175.078-.396.22-.622l.021-.034-.02-.035a1.436 1.436 0 0 1-.103-.202c.076.01.15.024.225.042l.037.008.027-.027c.087-.097.394-.409.678-.409.13 0 .26.066.36.181a.55.55 0 0 1 .133.281 2.854 2.854 0 0 1-.13-.098m.471 1.4a.314.314 0 0 1-.312-.315c0-.174.14-.315.312-.315s.312.14.312.315c0 .173-.14.314-.312.314m1.366.426a.287.287 0 0 1-.285-.288c0-.158.128-.287.285-.287a.287.287 0 1 1 0 .576M21.73 20.668c-.053 0-.101.008-.147.02v-.879a6.008 6.008 0 0 1-1.275-.193v1.076a.499.499 0 0 0-.65.476c0 .227.132.436.247.567.057-.137.11-.248.185-.248.152 0 .083.762.527.784a.349.349 0 0 0 .324.472.348.348 0 0 0 .325-.472c.444-.02.37-.784.523-.784.075 0 .123.105.19.248.115-.131.247-.34.247-.567 0-.24-.19-.5-.496-.5m-.788 1.92a.195.195 0 0 1-.194-.195c0-.108.087-.195.194-.195a.195.195 0 0 1 0 .39m1.038-1.109c-.052-.099-.129-.155-.195-.155-.298 0-.182.792-.536.792-.155 0-.238-.1-.238-.212 0-.111.078-.144.078-.234 0-.09-.07-.122-.147-.122-.077 0-.147.033-.147.122 0 .09.078.123.078.234 0 .112-.084.212-.239.212-.354 0-.237-.792-.535-.792-.066 0-.143.056-.195.155a.717.717 0 0 1-.093-.31c0-.146.11-.346.343-.346.397 0 .305.546.495.546.084 0 .146-.051.146-.133 0-.157-.276-.304-.276-.527 0-.223.201-.41.423-.59.221.18.423.367.423.59 0 .223-.276.37-.276.527 0 .082.06.133.145.133.19 0 .098-.546.496-.546.232 0 .343.2.343.345a.73.73 0 0 1-.093.311"/>
        <path fill="#1D1D1B" d="M31.97 21.726a.092.092 0 0 0-.114-.056c-1.022.3-2.289-.552-3.514-1.377-1.031-.693-2.005-1.348-2.84-1.348-.308 0-.583.066-.82.195a1.479 1.479 0 0 0-.648.761c-.141.345-.29.58-.408.769-.141.227-.245.389-.245.593 0 .165.071.316.213.46.119.12.288.236.536.37l.156.077c.203.1.328.167.352.282-.404.18-.927.329-1.52.434a12.7 12.7 0 0 1-2.18.178c-.776 0-1.51-.061-2.18-.178-.593-.105-1.117-.254-1.522-.435.017-.172.142-.24.364-.346.052-.025.104-.05.158-.079.203-.108.395-.215.525-.331a.557.557 0 0 0 .21-.432c0-.203-.102-.365-.243-.593a4.657 4.657 0 0 1-.407-.769 1.471 1.471 0 0 0-.65-.759 1.678 1.678 0 0 0-.818-.196c-.835 0-1.81.654-2.84 1.348-1.226.824-2.493 1.676-3.514 1.376a.093.093 0 0 0-.114.059.095.095 0 0 0 .05.118c.31.139.585.354.85.562.368.289.715.563 1.099.563.362 0 .752-.116 1.226-.366.41-.217.838-.51 1.25-.794.808-.557 1.641-1.13 2.432-1.194-.082.086-.163.159-.239.226-.233.21-.435.393-.435.763 0 .291.1.498.235.786.04.082.086.178.133.285.088.196.125.356.178.573.023.095.048.2.082.325.05.19.144.544.724.842.673.345 1.832.52 3.446.52s2.773-.175 3.446-.52c.58-.298.674-.652.724-.842.034-.125.059-.23.081-.325.053-.217.09-.377.179-.573.064-.144.126-.263.182-.367.12-.23.216-.41.216-.673 0-.371-.212-.563-.457-.785a4.732 4.732 0 0 1-.247-.236c.792.064 1.625.637 2.432 1.194.412.283.84.577 1.25.794.475.25.865.366 1.228.366.382 0 .73-.275 1.099-.564.264-.207.538-.423.848-.562a.095.095 0 0 0 .05-.119M25.834 13.48a1.354 1.354 0 0 1-.392-.46 47.588 47.588 0 0 0-.707-1.393.608.608 0 0 1-.1-.3c0-.106.053-.191.108-.267.04-.051.15-.16.192-.225a.794.794 0 0 1 .09-.12 4.836 4.836 0 0 0-.616-.84 5.005 5.005 0 0 0-.99-.864c.194-.127.39-.31.39-.618a.563.563 0 0 0-.203-.437c.204-.66.571-1.455.883-1.803l-.657-.28c.17.262.182.568.145.747-.171-.12-.317-.284-.365-.501a2.98 2.98 0 0 1-.242.72c.19-.09.341-.132.534-.051a.777.777 0 0 1-.825.278c-.233-.056-.465-.181-.456-.363.007-.108.086-.24.232-.225.143.015.15.234.106.332.188-.107.383-.662.089-.744-.23-.064-.441.255-.517.5-.044-.296-.166-.579-.399-.563-.301.02-.203.583-.097.726.018-.197.125-.302.214-.295.08.006.187.063.169.242-.02.18-.272.29-.563.29-.277 0-.763-.086-.81-.626.18.033.463.17.583.352a3.577 3.577 0 0 1 0-.898.914.914 0 0 1-.574.352c.05-.23.247-.475.477-.62h-1.191c.23.145.426.388.477.619a.905.905 0 0 1-.565-.35 3.64 3.64 0 0 1 0 .897c.117-.18.392-.315.572-.35-.046.538-.533.624-.809.624-.29 0-.543-.11-.562-.29-.018-.18.089-.236.169-.242.089-.007.196.098.214.295.105-.143.203-.705-.098-.726-.233-.016-.354.267-.398.563-.076-.245-.287-.564-.518-.5-.293.082-.098.637.09.744-.045-.098-.037-.317.106-.332.146-.014.225.117.23.225.011.182-.221.307-.454.363a.778.778 0 0 1-.824-.275c.196-.085.35-.043.542.047a2.951 2.951 0 0 1-.242-.72c-.05.222-.199.387-.374.507a1.043 1.043 0 0 1 .144-.752l-.656.28c.313.349.68 1.147.884 1.809a.557.557 0 0 0-.196.431c0 .307.195.492.39.618-.36.238-.691.527-.99.865a5.584 5.584 0 0 0-1.047 1.76c.091.094.483.527.576.644.164.208.26.416.264.578.01.3.073.419.231.619.05.063.12.298.128.443h3.258v3.578a.49.49 0 0 0-.375.178c.378.154.735.29 1.096.404.033-.235.081-.38.198-.523 0 0-.474-.048-.728-.062V13.92h3.184a4.548 4.548 0 0 1-.258 1.416 4.05 4.05 0 0 1-.715 1.253c-.305.362-.661.645-1.057.843-.064.03-.062.077-.126.103a.916.916 0 0 0-.157.29c-.04.108-.055.183-.074.327.15.046.23.07.373.106 1.119.283 1.396.2 1.459.15l.001-.002c.251-.194.486-.417.704-.666.449-.512.8-1.108 1.047-1.773a6.218 6.218 0 0 0 .383-2.168c0-.137.004-.182-.005-.318zm-4.95.247h-3.262a4.553 4.553 0 0 1 .26-1.47c.168-.469.41-.891.715-1.254a3.356 3.356 0 0 1 1.056-.842c.391-.194.805-.295 1.231-.303v3.869zm.057-5.477c-1.087 0-1.835.322-2.271.616-.252-.15-.36-.298-.36-.473 0-.623 1.744-.678 2.63-.678h.001c.886 0 2.632.055 2.632.678 0 .175-.11.322-.362.473-.436-.294-1.184-.616-2.27-.616zm.134 5.477V9.862c.4.019.787.117 1.154.3.396.197.752.48 1.057.841.305.363.546.785.715 1.254.167.467.253.96.26 1.47h-3.186z"/>
        <path fill="#1D1D1B" d="M23.756 13.096c.055.036.038.125-.034.117a3.674 3.674 0 0 0-.612-1.63l.01-.01a.206.206 0 0 0 .135-.168.208.208 0 0 0-.206.091c-.022-.03-.046-.06-.07-.09a3.044 3.044 0 0 0-.69-.653 2.534 2.534 0 0 0-.767-.355c.004-.063.086-.072.117-.017.01-.102-.077-.153-.128-.133-.027.01-.052.034-.057.08a.21.21 0 0 0-.145-.077.214.214 0 0 0 .046.154.092.092 0 0 0-.085.042c-.026.047.009.143.111.15-.048-.04-.028-.118.034-.113v1.257a.205.205 0 0 0-.208.053.203.203 0 0 0 .208.055v1.364c-.067.006-.085-.08-.031-.116-.102 0-.145.091-.122.14.015.031.045.054.102.05a.217.217 0 0 0-.054.143.202.202 0 0 0 .143-.055c-.005.058.019.088.05.104.047.023.139-.02.139-.122-.037.051-.117.036-.117-.027h.939a.213.213 0 0 0 .054.208.21.21 0 0 0 .054-.208h1.047c.005.066-.078.084-.114.033.002.102.095.143.14.119.033-.016.055-.048.049-.106a.21.21 0 0 0 .143.051.214.214 0 0 0-.058-.142c.058.003.088-.02.103-.052.02-.048-.023-.14-.126-.137m-.9-1.664c-.029.026-.04.063-.032.09.01.032.037.06.096.064a.215.215 0 0 0-.075.134.209.209 0 0 0 .15-.034c-.014.056.005.091.033.11.022.014.055.015.086 0 .24.394.406.844.477 1.305a.208.208 0 0 0-.118-.034c.002.067.029.116.064.149h-.796c.006-.05-.02-.095-.053-.106-.032-.013-.07-.007-.107.038a.219.219 0 0 0-.063-.141.213.213 0 0 0-.062.14c-.037-.044-.075-.05-.108-.037-.032.01-.058.055-.053.106h-.68a.21.21 0 0 0 .049-.136.207.207 0 0 0-.136.05V12.02c.051.008.098-.018.109-.052.01-.033.006-.072-.039-.11a.21.21 0 0 0 .14-.063.21.21 0 0 0-.14-.062c.045-.037.05-.076.039-.11-.011-.033-.058-.06-.11-.051v-.94c.03.024.069.042.118.048a.215.215 0 0 0-.032-.134c.212.069.417.17.613.302.231.158.443.353.63.585"/>
        <path fill="#1D1D1B" d="M23.198 12.75a.175.175 0 0 0 .088-.082c-.047.016-.08-.006-.09-.011.031-.019.07.002.031-.058-.036-.06-.062-.061-.1-.018-.039.04-.291-.01-.29-.203.018.034.05.057.087.073l.03.015.033.006c.025.008.05.013.072.01l.014.002v-.007c.052-.011.094-.044.099-.1.009-.105-.09-.154-.2-.246a1.618 1.618 0 0 1-.102-.095c-.038-.075-.012-.143-.107-.282a.632.632 0 0 0-.031-.122.352.352 0 0 0 .058.405c.106.118.332.23.323.33-.002.023-.024.044-.058.05-.01 0-.02 0-.031-.003a.104.104 0 0 1-.02-.007.35.35 0 0 1-.126-.084c-.094-.089-.18-.217-.235-.289-.106-.135-.057-.265-.041-.378.073-.102-.045-.313-.115-.365 0 0 .015-.047-.005-.108-.014.012-.047.01-.064.007-.019-.038-.027-.046-.053-.05-.045-.008-.044-.034-.049-.052-.026.024-.035.047-.063.05-.037 0-.052-.002-.067.012-.027.021-.038.03-.079.028-.042 0-.042.024-.038.055.004.02.005.05.031.062a.052.052 0 0 0 .013.005l.034.041.022-.043c.018-.018.075-.021.084.018.008.027.013.036-.021.04-.038.005-.057.005-.092.007-.024.001-.024.032-.023.052.002.024.03.037.08.024.05-.012.139-.022.139.022 0 .113-.128.11-.158.245a.246.246 0 0 1-.079-.075.5.5 0 0 0-.095-.118.507.507 0 0 0-.097-.08c-.045-.028-.047-.05-.047-.096 0-.04.018-.078.017-.115a.172.172 0 0 0-.011-.035c-.009-.025-.042-.044-.061-.04.01.008.022.018.025.04l-.02.023c-.008.01-.012.025.003.04.003 0 .003.003.003.007a.08.08 0 0 1-.003.02c-.002.007-.004.003-.005-.001-.011-.029-.023-.07-.05-.073h-.018a.01.01 0 0 0 .002-.005c0-.03-.033-.053-.068-.018.008.002.022.004.027.011a.186.186 0 0 0-.007.03c-.002.03.02.044.053.044.005 0 .008.002.009.005l.004.014c.001.004-.002.004-.005.003-.052-.023-.074 0-.076.024a.1.1 0 0 0 .002.022c-.019.011-.022.04.011.061 0-.01-.002-.027.01-.032.004 0 .006-.002.008-.004a.042.042 0 0 0 .015.013c.003.003.013.001.029-.01.004-.003.008-.004.013 0 .004.004.01.007.015.01.003.003.003.006 0 .008-.032.033-.026.063.013.074-.02.036-.08.022-.076-.032-.044.071.029.121.089.096.002.025.001.076.01.077 0-.004.004-.014.014-.014.004 0 .005.003.005.008.001.016.008.037.032.04-.004-.01 0-.018.007-.022.009.017.022.035.03.05.029.053.088.19.223.248a.615.615 0 0 0-.158.152c-.038.036-.094.077-.128.056-.015-.01-.02-.024-.04-.04a.06.06 0 0 0-.043-.011c-.002 0-.013.004-.022.01-.024-.01-.06.002-.07.02.013-.001.028-.005.048.009l-.002.023c-.002.017.011.036.082.03.003 0 .012.003.008.008-.008.007-.02.017-.037.011-.031-.008-.046-.034-.069-.005a.113.113 0 0 1-.014.02c-.002-.002-.005 0-.007 0-.027.008-.054.061-.022.084 0-.01.004-.03.02-.042l.015.015c.02.031.043.048.09-.023.004-.006.005 0 .005.002-.003.033-.034.08.008.087l.02.003v.008c.008.038.06.048.08.038-.014-.006-.036-.017-.045-.047.01 0 .02 0 .021-.002.026-.026-.005-.059.008-.076.002-.007.007-.005.01 0 .009.014.03.046.066.026a.06.06 0 0 0 .028-.045c.047-.02.09-.036.123-.024-.006-.025.022-.06.073-.072.05-.015.072 0 .088.016a.237.237 0 0 1 .051-.087c-.005.2.263.196.325.316a.453.453 0 0 0-.22-.043c-.066.012-.18.074-.195.149-.01.061.052.171.116.215-.077.014-.105-.009-.175.01a.024.024 0 0 0-.008-.004c-.06.007-.07-.1-.141-.073a.067.067 0 0 0-.02.014h-.001c-.028 0-.067.035-.06.064a.079.079 0 0 1 .046-.026l-.001.015c-.001.011.002.024.027.024.015 0 .02-.007.028-.007.005 0 .009.003.009.008 0 .028-.09-.016-.074.062 0 .001.009.016.014.021-.003.023.016.047.056.034-.008-.005-.023-.016-.02-.028a.154.154 0 0 0 .018.002c.005 0 .008-.003.01-.012.001-.003.002-.004.005-.004.004.002.008.004.008.007 0 .004-.005.009-.005.017 0 0 .003.02.006.024-.003.028.036.057.076.028-.011 0-.037-.006-.039-.02.007-.001.018-.006.019-.008.006-.005.008-.015.008-.026 0-.008.004-.008.008-.008.005 0 .013 0 .02-.002.008 0 .01.003.011.007.01.016.03.032.056.023.016-.005.022-.014.024-.02.011.006.022.012.033.02-.008-.029.012-.052.075-.01l.045-.036s.059.025.082-.002c.037-.033.017-.035.017-.066-.026-.06-.041-.055-.054-.113-.02-.1.118-.157.198-.14.016.063.105.23.251.28.092.032.129-.07.16-.055.005.002.01.012.016.028-.006.044.001.086-.01.108-.01.022-.06.003-.093.002-.02-.002-.035.012-.036.015-.028.005-.06.03-.06.063.011-.008.03-.024.052-.027l.002.013c.004.04.048.052.073.026.002-.005.014 0 .008.005-.022.017-.064.055-.029.07l.02.009c-.002.026.016.049.036.052-.007-.013-.009-.02.003-.047h.019c.025.001.015-.048.042-.063.003-.003.007-.002.005.002-.01.028-.014.062.01.07l.021.005c.008.022.035.038.071.02-.008-.004-.027-.012-.032-.024.007-.009.017-.02.018-.024.018-.06-.035-.062-.035-.086 0-.03.06-.01.06-.07l-.002-.01c.029-.015.058-.033.06-.056a.156.156 0 0 1-.075-.014v-.003zM20.514 14.562l-.055-.004.001-.052c.008-.193-.106-.337-.312-.337-.183 0-.537.24-1.032.24-.21 0-.462-.104-.619-.196l-.061.15v-.016a.123.123 0 0 0-.12-.123.124.124 0 1 0 0 .248.122.122 0 0 0 .094-.048l-.062.149c.02.01.042.019.065.027-.072.758.483 1.723 1.463 2.017.146-.04.294-.018.294.142 0 .099-.05.142-.137.142-.059 0-.096-.034-.096-.074 0-.066.115-.026.127-.072.015-.06-.025-.088-.091-.088-.068 0-.172.045-.172.16 0 .137.107.217.224.217.108 0 .337-.062.306-.332.052.003.111-.007.124-.057l.011-.154-.052-.007.04-1.735.04.003c.063.004.117-.025.122-.093.004-.07-.05-.102-.102-.107m-1.773.135l1.192 1.729c-.639-.25-1.272-.828-1.192-1.73m1.227 1.565l-1.086-1.576.1.003c.056 0 .112-.003.167-.012l.871 1.26-.052.325m.08-.5l-.767-1.11c.085-.02.167-.043.246-.073l.576.83-.056.353m.185-1.22l-.043-.004c-.052-.004-.116.02-.122.09-.005.068.044.107.107.112l.032.002-.006.045-.07.45-.485-.703c.227-.091.411-.19.51-.19.077 0 .095.038.077.198M20.306 11.069c.232.001.348-.076.348-.149 0-.26-.639-.099-.639-.258 0-.025.018-.048.047-.07h.009c.321-.03.326-.254.555-.299-.276-.04-.315.18-.433.19.063-.03.086-.105.08-.134-.056.076-.18.083-.25.17-.01.014-.015.032-.01.046-.043.027-.068.057-.068.095 0 .246.648.077.648.256 0 .062-.111.105-.29.105-.133 0-.229-.097-.478-.032.001-.041.084-.121.052-.16.024-.009.04-.03.04-.049a.085.085 0 0 0-.047-.022c.008-.012-.003-.026-.012-.035-.002-.003-.007-.03-.013-.035-.01-.007-.029-.025-.058-.038-.028-.015-.046-.015-.057-.016-.008-.003-.034.004-.036.004-.015-.002-.031-.002-.033.015a.072.072 0 0 0-.045-.02.091.091 0 0 0-.007.07c-.022.002-.048.061-.07.055.009.017.015.025.022.026-.018.035-.027.076-.049.078a.129.129 0 0 0 .017.02.687.687 0 0 0-.034.148.252.252 0 0 0-.052-.04c-.038-.023-.036-.041-.03-.078.006-.033.027-.062.03-.092l-.005-.03c-.004-.02-.033-.037-.05-.033.009.006.017.013.016.034-.007.006-.016.015-.018.015-.01.01-.015.022-.005.033.003.003.003.005.002.007 0 .005-.002.008-.005.015-.003.006-.003.003-.004 0-.005-.023-.012-.056-.033-.059a.094.094 0 0 0-.018 0 .01.01 0 0 0 .002-.005c.003-.025-.023-.044-.06-.015.008 0 .02.002.024.01-.005.007-.01.021-.01.024-.006.024.012.034.04.036.006 0 .01.002.01.003a.03.03 0 0 1 .001.011c0 .005-.002.004-.005.003-.044-.019-.066 0-.071.018l-.002.019c-.017.01-.025.031.003.05 0-.008.001-.024.015-.028.001 0 .004 0 .007-.002.002.005.009.01.01.011.003.002.011.002.029-.008.003-.002.006-.003.01 0a.147.147 0 0 0 .013.01c.003 0 .002.003 0 .006-.037.027-.036.055.005.063.005 0 .006.003.005.007-.011.054-.087.041-.075-.01-.051.06.016.105.077.076.005-.002.006 0 .007.002.001.01.006.019.016.02-.001-.002.004-.012.014-.012.004 0 .004.003.004.006-.001.013 0 .032.022.035-.002-.011.002-.022.01-.022.009 0 .025.045.06.082a.743.743 0 0 1-.145.043c-.012 0-.088-.008-.112.006-.037.02-.128.053-.154.015-.009-.013-.007-.026-.017-.045-.009-.013-.02-.023-.029-.024h-.022c-.015-.017-.048-.02-.06-.007.01.003.023.004.034.022a.09.09 0 0 0-.01.02c-.008.01-.003.03.054.05.003.002.007.007.003.01-.01.003-.021.005-.032-.004-.022-.018-.025-.045-.052-.028l-.018.01a.013.013 0 0 0-.006-.003c-.025-.002-.065.03-.046.058.003-.007.012-.022.03-.026l.006.018c.005.03.018.052.078.013.006-.005.006.002.004.003-.013.026-.053.051-.023.071.002 0 .008.005.015.01a.008.008 0 0 0-.003.006c-.007.034.03.058.05.056a.054.054 0 0 1-.019-.05l.017.005c.028-.011.015-.047.03-.058.005-.004.008 0 .009.004.001.013.008.047.043.044.032-.004.047-.032.045-.049-.001-.004 0-.005.002-.004.012.008.022.021.017.038a.047.047 0 0 0 .025-.025c.007.015.009.039-.013.06.013-.005.047-.021.056-.059a.058.058 0 0 1 .011.02c0-.003 0-.003.002-.003a.117.117 0 0 0 .07-.003c.003 0 .004.002.003.004-.003.014-.003.027.004.035 0-.004.01-.017.013-.017.01 0 0 .034.02.055.008-.087.055-.053.109-.088.006-.005.007-.003.005.003a.062.062 0 0 1-.023.028c.02 0 .067-.02.067-.052 0-.005.016-.017.034-.029.02.005.05-.005.062-.028.003.01.012.034-.001.042.056.004.116-.06.138-.067.121-.026-.076-.114.173-.1a.126.126 0 0 0 .073-.027c-.02.038-.02.114.018.12.017.002.05.015.064.028.003.003.001.005-.002.006a.177.177 0 0 0-.053.014c-.06.04-.06-.088-.123-.065l-.016.012c-.025 0-.058.03-.053.056.008-.007.02-.02.04-.022v.012c-.002.01.002.02.023.02.012 0 .015-.005.025-.005.004 0 .006.002.006.006 0 .025-.076-.014-.063.052 0 .002.007.015.012.02-.003.02.014.04.048.029-.006-.006-.019-.013-.016-.024l.016.002c.002 0 .005-.002.007-.01 0-.003.001-.004.003-.004.005.001.008.003.008.006 0 .004-.006.008-.006.014a.07.07 0 0 0 .007.02c-.004.023.031.048.065.024-.01 0-.03-.005-.033-.017a.039.039 0 0 0 .015-.006c.006-.005.008-.013.008-.023 0-.006.004-.006.006-.006.005 0 .012 0 .017-.002.007 0 .01.002.012.005a.036.036 0 0 0 .047.02c.041-.014.005-.05.04-.058.006-.002.018-.003.025 0 .032.008.08.007.09-.008.008-.017.004-.076-.031-.097-.021-.01.001-.036-.02-.066.037.015.074.03.124.03.09 0 .004-.013.044-.037.043-.028.094-.014.107-.011.012.001.022.007.018.02-.01.05.005.054-.005.075-.009.019-.048.003-.073.002-.016-.001-.028.01-.028.011-.023.006-.048.025-.047.051.007-.005.021-.017.04-.02v.01c.004.032.039.042.059.02.002-.004.012 0 .007.005-.018.014-.05.044-.024.057.003 0 .01.004.016.006-.002.021.013.04.03.044-.006-.01-.008-.016 0-.039h.017c.02 0 .01-.039.033-.05.003-.003.005-.002.003 0-.007.024-.011.05.01.058l.016.004c.006.017.026.03.054.015-.006-.002-.02-.01-.024-.018a.09.09 0 0 0 .014-.021c.013-.049-.027-.05-.027-.069 0-.024.047-.01.047-.058a.032.032 0 0 0-.02-.03c-.002 0-.002 0-.001-.003.013 0 .027.005.033-.015-.034.003-.024-.027-.03-.047 0-.002 0-.004.004-.008.01-.008.02-.022.015-.05-.011.015-.05.034-.054.001-.001-.002-.003-.026-.038-.02-.06.007-.088-.024-.201-.035-.006 0-.012-.006 0-.007m-.543-.305a.329.329 0 0 0 .076.03c-.035.008-.026.022-.05.021-.02 0-.031-.03-.026-.05m-.047-.026c-.01.019-.032.032-.049.016-.017-.017.002-.021-.017-.053a.322.322 0 0 0 .066.037m-.072.159c.006-.013.012-.024.019-.024.013.001.02-.002.024-.016.007-.014-.008-.02-.02-.03.014-.005.02-.01.013-.017-.01-.01-.022.005-.027-.002-.002-.007.01-.012.014-.016.005-.006.011-.005.018 0l.062.03c.008.003.013.006.013.015-.001.008.003.018-.004.021-.006.002-.006-.019-.017-.02-.01-.001-.01.007-.004.022-.015-.006-.028-.012-.035.002-.006.012-.004.02.004.031.006.006.001.018-.004.031-.004.014-.022.034-.044.023-.023-.011-.02-.036-.012-.05M20.628 11.983c0-.078-.079-.129-.306-.129-.228 0-.74.095-.74-.047 0-.071.1-.065.22-.057a.086.086 0 0 0 .049.03c.294.095.64-.078.817-.022-.21-.177-.384.006-.607-.048.13 0 .175-.04.181-.08-.1.073-.293-.038-.413.045l-.02.017c-.162-.005-.291-.005-.291.115 0 .253.61.105.802.105.191 0 .232.021.232.062 0 .06-.19.076-.298.076-.166 0-.665-.097-.97-.03.025-.054.08-.125.05-.166a.078.078 0 0 0 .048-.064.104.104 0 0 0-.055-.029c.009-.015-.003-.031-.015-.044-.003-.005-.008-.039-.015-.044-.011-.01-.033-.034-.067-.05-.033-.018-.055-.018-.069-.022-.007-.002-.038.007-.04.007-.017-.003-.036-.003-.04.018a.086.086 0 0 0-.052-.024.13.13 0 0 0-.007.09c-.028.002-.056.08-.081.07.01.021.017.03.025.033-.022.045-.032.099-.058.1.016.026.028.036.038.038l-.006.097-.049-.019c-.004 0-.008 0-.013-.002a.034.034 0 0 1-.019-.008.139.139 0 0 1 .02.005l-.027-.01c-.026-.023-.057-.067-.1-.096-.044-.028-.045-.053-.041-.104.002-.046.021-.086.021-.126a.676.676 0 0 0-.01-.04c-.004-.027-.037-.049-.058-.044.01.009.022.019.023.045a.173.173 0 0 0-.02.024c-.008.012-.013.028 0 .044.002.003.003.005.002.01 0 .003 0 .01-.004.02-.002.008-.004.003-.004 0-.009-.033-.02-.079-.045-.08-.003 0-.014-.004-.019-.002l.002-.005c.002-.033-.03-.06-.066-.02.007.001.021.004.027.015a.128.128 0 0 0-.009.033c-.004.032.017.044.049.046.006 0 .009.003.01.006l.003.015c.001.006-.002.005-.006.003-.05-.026-.073.002-.075.028 0 .001-.002.015 0 .022-.02.015-.026.045.007.07 0-.012 0-.032.013-.037a.026.026 0 0 0 .008-.004c.004.006.01.015.013.015.004.002.013 0 .03-.012.004-.003.008-.005.012 0l.015.012c.004.002.004.007 0 .01-.036.038-.033.074.013.084.006 0 .008.004.008.01-.008.073-.093.058-.085-.013-.05.082.03.145.094.104.003-.004.005-.002.007.001.002.014.008.025.02.027-.001-.004.004-.015.015-.016.003 0 .003.004.003.008 0 .019.006.042.03.046-.004-.014.001-.028.008-.028.012 0 .04.055.091.088.043.02.073.072.101.04-.005.049.035.106.026.106-.013 0-.131-.01-.16.007-.043.025-.149.068-.179.02-.01-.018-.007-.033-.02-.059-.01-.017-.025-.03-.035-.03l-.024-.002c-.018-.02-.057-.021-.072-.009.013.003.028.006.04.03-.005.008-.01.022-.01.024-.01.015-.005.04.063.067.002 0 .008.008.002.011a.03.03 0 0 1-.036-.005c-.026-.023-.03-.055-.062-.036 0 .002-.012.007-.02.012a.01.01 0 0 0-.007-.002c-.03-.003-.075.036-.055.075.004-.01.015-.028.037-.034.001.01.005.02.006.024.006.038.021.067.091.016.007-.006.007.002.005.004-.017.033-.062.065-.026.09.001.001.007.008.015.014l-.003.007c-.007.044.036.078.058.075-.009-.012-.025-.033-.02-.065a.107.107 0 0 0 .018.005c.034-.015.019-.06.037-.073.007-.006.01-.001.01.003.002.019.01.061.05.056a.058.058 0 0 0 .052-.062c0-.003 0-.004.004-.003a.043.043 0 0 1 .019.046.065.065 0 0 0 .029-.031.07.07 0 0 1-.016.077.108.108 0 0 0 .064-.075c.005.007.012.016.015.025 0-.002.001-.003.003-.004.013.006.04.008.08-.001.003-.003.005 0 .005.004-.005.016-.005.035.003.044 0-.006.012-.023.017-.023.01 0-.001.044.023.07.008-.112.064-.068.126-.114.008-.004.008-.001.006.005a.058.058 0 0 1-.027.038c.07.016.18-.102.196-.152.029-.003.054-.008.067-.006.2.02.06-.2.382-.137.02.001.06-.023.078-.04-.023.046-.024.144.02.152.02.004.06.018.075.037.005.004.001.005-.003.008a.198.198 0 0 0-.061.016c-.068.051-.07-.114-.142-.082a.13.13 0 0 0-.02.015c-.029 0-.068.038-.062.072.01-.01.024-.027.047-.03v.019c-.002.01.003.025.027.025.013 0 .017-.008.027-.008.006 0 .01.002.01.01 0 .03-.091-.02-.074.066a.14.14 0 0 0 .013.025c-.003.025.016.052.056.037-.008-.005-.022-.016-.02-.03l.019.001c.005 0 .008-.003.01-.014 0-.001 0-.003.004-.003.004.002.006.003.006.007 0 .005-.004.01-.004.019 0 .002.004.023.007.026-.004.031.036.064.077.032-.012-.001-.036-.006-.04-.022.009-.003.018-.009.019-.009.006-.006.009-.018.009-.031 0-.007.003-.008.007-.008h.019c.01-.002.011.001.013.005.008.02.029.038.056.027.048-.019.009-.067.047-.077.007 0 .02-.003.028 0 .038.012.095.01.105-.01.01-.022.006-.097-.036-.124-.024-.013.002-.046-.021-.085.042.02.085.039.142.039.106 0 .131-.016.178-.05.052-.035.11-.015.126-.014.014.003.025.01.02.03-.011.06.006.066-.006.094-.01.024-.054.004-.085.002-.019-.002-.032.01-.033.016-.026.006-.055.03-.054.065.008-.007.025-.024.047-.028l.001.013c.004.043.044.056.068.029.003-.006.013 0 .008.005-.022.018-.06.057-.028.07.001.002.01.01.02.013-.003.025.014.051.033.055-.007-.014-.01-.021.002-.05a.103.103 0 0 0 .018 0c.023.002.012-.05.038-.066.004-.004.006-.001.005.002-.01.03-.014.066.01.074l.019.004c.007.023.032.04.063.022-.006-.003-.023-.013-.027-.025.005-.01.016-.023.016-.028.017-.062-.032-.062-.032-.089 0-.03.055-.01.055-.072 0-.012-.003-.031-.023-.039-.003-.001-.003-.003-.003-.004h.002c.016 0 .031.005.04-.02-.042.003-.03-.036-.035-.06-.001-.005-.001-.008.003-.011.014-.01.022-.03.018-.067-.014.022-.06.045-.065.003 0-.003-.003-.033-.043-.024-.07.008-.118-.009-.249-.02.15 0 .37-.045.37-.139m-1.418-.217a.31.31 0 0 0 .088.04c-.041.008-.03.028-.056.026-.026-.001-.036-.04-.032-.066m-.055-.031c-.012.022-.036.041-.057.02-.018-.021.003-.029-.02-.07a.36.36 0 0 0 .077.05m-.085.205c.008-.018.014-.032.023-.032.015 0 .024-.003.029-.02.006-.02-.01-.028-.026-.04.017-.005.026-.014.017-.023-.01-.011-.026.009-.03-.001-.003-.01.01-.015.014-.02.007-.008.013-.007.023-.001l.071.038c.01.005.016.01.016.02-.001.01.003.024-.006.028-.007.002-.006-.025-.019-.028-.011-.001-.011.012-.004.03-.018-.006-.034-.016-.042.002-.008.016-.005.026.005.04.007.009.001.023-.004.041-.006.018-.028.045-.052.03-.026-.017-.023-.048-.015-.064"/>
        <path fill="#1D1D1B" d="M20.526 13.002c0-.077-.072-.125-.289-.125-.216 0-.885.093-.885-.048 0-.088.226-.052.392-.048.007.015.022.027.048.036.279.091.571-.124.77-.047-.158-.166-.362.017-.572-.033.124-.001.252-.03.26-.067-.097.071-.369-.05-.482.033a.06.06 0 0 0-.018.018c-.206-.004-.458-.033-.458.108 0 .249.76.103.942.103.183 0 .22.022.22.062 0 .059-.18.072-.283.072-.169 0-.879-.105-1.16-.008.015-.055.083-.138.051-.181.027-.014.046-.037.047-.063a.102.102 0 0 0-.053-.03c.008-.013-.002-.03-.013-.042-.004-.003-.01-.036-.014-.043-.012-.01-.033-.032-.065-.05-.032-.016-.053-.016-.064-.02-.009-.002-.037.008-.04.007-.015-.003-.034-.003-.037.018a.08.08 0 0 0-.049-.025.121.121 0 0 0-.007.089c-.027.001-.054.076-.077.068.008.022.016.03.023.033-.02.044-.03.096-.054.1.01.013.017.023.024.028a.503.503 0 0 0-.009.076l-.022-.01c-.015 0-.03 0-.034-.003-.011-.002-.022-.005-.036-.006-.034-.003-.06-.068-.117-.106-.043-.03-.045-.052-.045-.104 0-.043.018-.082.016-.122l-.011-.038c-.007-.028-.04-.05-.058-.043.01.008.02.018.023.044a.093.093 0 0 0-.016.023c-.009.012-.012.03.001.043a.015.015 0 0 1 .003.01c0 .004 0 .01-.003.019-.001.008-.004.004-.005 0-.01-.032-.022-.076-.046-.078-.003 0-.013-.003-.017-.001v-.007c0-.031-.03-.056-.063-.018.007.001.02.003.025.013a.273.273 0 0 0-.007.033c-.002.032.02.044.05.045.006 0 .007.002.009.006 0 .005.003.01.004.014.001.006-.001.006-.005.004-.048-.025-.07.002-.07.026 0 .003-.002.016 0 .022-.018.015-.022.045.01.067 0-.009-.002-.03.012-.034.002 0 .004-.002.005-.003l.014.014c.004.003.013.001.028-.011.005-.003.007-.003.013 0l.014.01c.004.004.003.007 0 .01-.033.037-.027.073.017.082.004 0 .006.005.006.011-.004.07-.083.056-.08-.013-.044.08.035.141.094.1.003-.003.005 0 .006.003.004.013.01.024.02.026 0-.005.004-.015.015-.015.002-.002.003.003.003.007 0 .02.008.04.03.045-.004-.015 0-.028.008-.028.01 0 .054.095.142.15.017-.004.042-.004.05-.028 0 .008.01.016.02.024.003.046.028.104.02.104-.013 0-.152-.008-.18.01-.04.025-.14.067-.169.018-.01-.016-.007-.03-.02-.055-.01-.018-.023-.03-.032-.03-.003-.002-.014-.002-.024-.002-.016-.02-.053-.023-.068-.009.012.003.025.006.039.03l-.012.022c-.007.016-.003.04.06.066.003 0 .01.007.004.01-.009.005-.022.008-.036-.004-.023-.022-.028-.054-.057-.035a.144.144 0 0 1-.02.01c-.002 0-.004 0-.007-.002-.028-.003-.07.038-.051.076.004-.01.014-.03.035-.034a.095.095 0 0 1 .005.022c.006.038.02.067.087.016.006-.004.006.001.005.005-.016.031-.06.064-.027.089.002 0 .01.007.016.013l-.002.006c-.007.042.033.075.054.073a.086.086 0 0 1-.02-.065c.009.004.017.008.019.006.031-.014.017-.058.035-.072.005-.005.01 0 .01.005 0 .017.008.059.047.054a.057.057 0 0 0 .05-.06c-.001-.004 0-.006.003-.004.012.01.022.025.018.046a.078.078 0 0 0 .027-.03.073.073 0 0 1-.015.074.1.1 0 0 0 .062-.073c.005.007.01.016.012.024.001-.003.003-.003.003-.005.014.007.039.01.077-.002.003-.001.003 0 .003.004-.001.02-.001.037.005.045 0-.004.01-.022.016-.022.01 0 0 .043.02.068.01-.109.122-.054.183-.099.007-.005.008-.003.006.003a.07.07 0 0 1-.027.037c.02.002.054-.014.08-.036l-.008.01.097-.05a.22.22 0 0 0 .005-.033c.012-.004.024-.006.034-.01-.001.002-.002.003-.004.003.063.006.056-.054.08-.049.355.055.152-.174.569-.128.02 0 .029-.01.046-.029-.022.047-.022.124.02.133a.15.15 0 0 1 .072.035c.003.003 0 .007-.003.007a.213.213 0 0 0-.058.018c-.065.048-.067-.111-.136-.08-.003.001-.014.01-.018.015-.028 0-.065.037-.058.07a.067.067 0 0 1 .044-.03l-.001.017c-.002.014.002.025.025.025.015 0 .018-.008.028-.008.004 0 .007.004.007.01 0 .029-.085-.016-.07.066l.013.025c-.002.024.015.049.054.036-.007-.006-.022-.017-.019-.03h.018c.002 0 .007 0 .008-.011.002-.003.002-.005.004-.005.004.003.007.005.007.008 0 .005-.004.009-.004.017a.11.11 0 0 0 .006.027c-.002.03.035.06.074.03-.01 0-.035-.006-.038-.021a.07.07 0 0 1 .017-.009c.007-.004.009-.016.009-.03.001-.006.004-.007.007-.007l.017-.002c.01-.002.012.003.013.007.007.02.028.035.054.026.045-.02.007-.065.044-.075.006-.002.018-.004.027 0 .036.011.09.008.1-.011.01-.02.005-.095-.035-.121-.023-.013.002-.045-.02-.083.04.018.082.038.136.038.1 0 .125-.017.168-.048.05-.034.105-.016.12-.014.013.003.024.01.02.029-.012.059.006.065-.006.09-.01.024-.053.006-.081.002-.018 0-.031.014-.031.018-.026.004-.054.03-.053.063.009-.006.026-.024.045-.026l.001.012c.004.04.043.055.064.027.005-.005.013 0 .008.004-.02.018-.057.058-.026.072l.018.01c-.001.025.014.05.032.054-.006-.013-.008-.022.002-.048h.017c.022.002.012-.05.037-.064.002-.004.005-.002.004 0-.009.03-.012.065.01.073.001 0 .01.004.017.004.006.022.031.04.061.021-.007-.004-.022-.012-.027-.024a.082.082 0 0 0 .015-.026c.017-.06-.029-.062-.029-.087 0-.03.053-.01.053-.073 0-.01-.005-.03-.024-.037v-.003c.015 0 .03.003.037-.018-.04 0-.026-.035-.032-.06 0-.006-.002-.01.003-.011.011-.01.02-.03.017-.066-.013.022-.056.046-.06.003-.001-.003-.004-.033-.043-.024-.066.008-.111-.009-.236-.021.125-.01.351-.04.351-.134m-1.585-.203c.009.009.06.03.085.04-.039.008-.03.024-.056.023-.025 0-.033-.039-.03-.063m-.051-.031c-.012.02-.036.04-.054.019-.018-.02.002-.026-.02-.068a.316.316 0 0 0 .074.049m-.08.2c.006-.017.012-.03.02-.03.016 0 .024-.004.029-.02.006-.02-.01-.029-.025-.04.016-.004.024-.013.016-.022-.009-.01-.026.007-.03-.001-.002-.008.01-.015.014-.02.008-.01.013-.006.022 0l.07.037c.007.005.013.01.013.02 0 .007.003.024-.005.026-.007.002-.006-.024-.02-.026-.009-.003-.009.01-.002.028-.017-.006-.033-.015-.04.003-.008.015-.005.027.005.04.005.007.001.02-.005.039-.006.017-.026.042-.049.03-.025-.018-.021-.048-.013-.064M23.612 14.718c0-.004 0-.007.004-.01.013-.01.025-.03.023-.066-.015.022-.06.047-.062.003 0-.002 0-.032-.04-.024-.066.008-.13-.007-.253-.02-.008-.001-.014-.006 0-.01.124-.01.353-.032.353-.124 0-.075-.075-.125-.292-.125-.216 0-.882.09-.882-.049 0-.088.224-.052.39-.046.008.013.023.025.048.034.28.091.598-.148.767-.093-.22-.088-.358.064-.57.014.124 0 .255-.03.261-.068-.096.071-.367-.049-.481.034a.086.086 0 0 0-.02.017c-.205-.002-.455-.03-.455.108 0 .248.758.104.94.104.183 0 .222.022.222.06 0 .06-.18.076-.284.076-.17 0-.878-.108-1.162-.01.015-.054.086-.138.054-.18.026-.014.044-.037.045-.065a.088.088 0 0 0-.053-.028c.008-.015-.003-.03-.013-.043-.002-.003-.008-.037-.016-.042a.259.259 0 0 0-.063-.051c-.03-.018-.052-.016-.065-.02-.007-.002-.036.007-.039.006-.015 0-.033 0-.036.02a.087.087 0 0 0-.05-.026.135.135 0 0 0-.007.09c-.026.001-.053.075-.078.067.01.021.018.03.025.032-.02.044-.03.098-.055.099.015.024.027.035.036.037l-.006.073-.037-.014-.034-.002a.225.225 0 0 0-.035-.007c-.034-.005-.06-.068-.119-.107-.043-.028-.044-.051-.044-.104 0-.042.018-.08.016-.12a.269.269 0 0 0-.011-.039c-.007-.027-.04-.049-.058-.043.01.007.02.018.023.043-.008.01-.015.022-.018.023-.006.012-.009.03.003.044.003.003.003.007.003.008a.069.069 0 0 1-.003.02c-.003.01-.004.004-.005 0-.008-.03-.022-.074-.046-.078h-.019c.001-.002.002-.003.002-.007 0-.03-.03-.057-.063-.018.008.002.022.003.027.013-.004.01-.007.03-.008.032-.002.033.018.045.048.045.007 0 .01.004.01.008.002.002.002.01.004.013.002.006-.002.005-.004.003-.049-.025-.071.002-.072.028l.001.02c-.017.015-.02.046.01.068 0-.008-.001-.031.012-.036h.006l.014.012c.004.002.011 0 .029-.012a.014.014 0 0 1 .012 0 .046.046 0 0 0 .013.011c.004.003.004.008.001.01-.034.037-.028.075.016.084.005.002.007.004.007.01-.004.07-.084.057-.081-.014-.045.081.034.142.093.102.005-.004.007 0 .008.001.003.013.009.025.02.025-.001-.002.003-.014.013-.014.004 0 .005.003.005.007.001.02.007.044.03.046-.004-.015 0-.027.006-.027.012 0 .051.102.14.158-.003-.008.034-.025.053-.038.004.02.014.038.03.046l.015-.009c-.006.047.044.097.035.097-.014 0-.096-.012-.125.004-.04.027-.14.068-.17.02-.01-.018-.007-.032-.02-.057-.009-.018-.022-.03-.032-.03l-.024-.001c-.016-.02-.053-.023-.067-.008.011.003.025.005.037.029l-.01.022c-.008.016-.003.04.06.065.003.001.01.007.004.011-.01.005-.023.008-.035-.005-.025-.021-.029-.053-.059-.034l-.02.01-.005-.001c-.028-.003-.07.037-.052.076.003-.013.013-.032.034-.036l.006.023c.007.038.02.067.086.016.008-.003.007.002.005.004-.015.032-.06.064-.026.089l.015.013-.002.007c-.005.043.034.075.055.072a.085.085 0 0 1-.021-.064c.009.003.017.008.02.006.031-.015.016-.059.035-.073.004-.003.007 0 .009.006.002.017.009.058.047.053a.054.054 0 0 0 .048-.06c0-.004.002-.005.005-.004.012.01.022.026.018.047a.085.085 0 0 0 .028-.032.076.076 0 0 1-.016.077.104.104 0 0 0 .062-.075.069.069 0 0 1 .014.024l.002-.004c.013.007.038.01.076-.001.004-.002.005.001.004.004-.002.017-.002.035.005.044 0-.004.01-.023.015-.023.011 0 0 .043.022.07.008-.11.06-.067.12-.11.008-.006.008-.004.007.004a.074.074 0 0 1-.027.036c.022.019.11-.044.11-.085 0-.01.033-.014.062-.021.062.004.054-.053.079-.05.355.056.151-.174.568-.127.02 0 .03-.027.047-.045-.022.045-.023.14.02.15a.153.153 0 0 1 .071.033c.004.005 0 .008-.003.009a.176.176 0 0 0-.059.017c-.063.049-.065-.11-.134-.082-.003.003-.015.012-.019.018-.028-.001-.064.037-.059.07.01-.013.024-.029.044-.03v.015c-.001.015.003.026.026.026.014 0 .017-.007.026-.007.005 0 .008.003.008.009 0 .03-.085-.015-.07.065l.014.026c-.004.025.015.05.053.036-.007-.007-.022-.02-.018-.03l.016.001c.005 0 .008-.002.01-.013 0-.002 0-.004.004-.003.004 0 .007.003.007.007 0 .005-.005.01-.005.017 0 .002.003.024.007.027-.004.03.034.062.072.03-.01 0-.034-.006-.038-.02.008-.005.017-.01.02-.01.005-.005.007-.017.007-.03 0-.007.003-.007.006-.007l.019-.001c.008-.001.01.003.012.005.009.019.028.035.053.025.047-.018.008-.063.045-.073a.063.063 0 0 1 .028 0c.036.01.089.009.099-.011.01-.02.005-.095-.034-.12-.023-.013 0-.047-.02-.085.04.02.08.039.135.039.1 0 .131-.016.178-.047.051-.036.106-.018.122-.014.01.002.021.008.016.027-.015.06 0 .065-.013.092-.01.022-.052.004-.082.002-.016-.002-.03.013-.031.016-.026.006-.056.031-.057.064.009-.008.026-.024.047-.026v.012c0 .04.038.053.062.026.002-.004.012 0 .007.006-.022.018-.061.056-.03.07l.015.011c-.003.025.01.05.029.054-.006-.013-.007-.022.005-.048h.017c.022 0 .016-.05.042-.066.003-.001.006 0 .004.002-.01.03-.018.065.004.073a.07.07 0 0 0 .017.005c.006.022.029.038.06.02-.007-.004-.022-.011-.025-.023a.186.186 0 0 0 .018-.028c.02-.061-.025-.062-.023-.086.002-.03.052-.011.057-.074.001-.008-.002-.027-.02-.035l-.001-.005c.016 0 .03.005.041-.019-.04.004-.025-.035-.03-.06zm-1.563-.464a.32.32 0 0 0 .085.04c-.04.009-.03.025-.054.025-.025-.001-.035-.039-.03-.065zm-.052-.031c-.011.024-.034.042-.054.02-.018-.021.002-.026-.02-.067.021.015.061.046.074.047zm-.081.202c.008-.018.015-.032.023-.032.014 0 .022-.001.028-.02.005-.019-.01-.027-.026-.039.016-.005.026-.014.016-.021-.01-.01-.025.006-.027-.001-.004-.01.008-.016.012-.022.006-.006.012-.005.022 0l.069.037c.007.006.013.01.013.022 0 .007.003.023-.004.026-.008.003-.008-.024-.02-.027-.01-.002-.01.01-.003.03-.017-.007-.032-.018-.04.001-.007.016-.005.026.005.04.005.006 0 .02-.005.04-.005.017-.025.041-.048.028-.025-.016-.023-.047-.015-.062z"/>
        <path fill="#1D1D1B" d="M22.639 15.218c.006.018.02.033.049.044.266.095.57-.156.73-.098-.21-.092-.34.067-.543.016.118-.002.243-.032.25-.073-.093.076-.35-.048-.46.036a.088.088 0 0 0-.016.016c-.147-.004-.266-.004-.266.116 0 .259.552.107.727.107.172 0 .152.022.152.064 0 .06-.198.077-.296.077-.149 0-.601-.098-.876-.03.022-.056.072-.129.045-.169a.079.079 0 0 0 .042-.066.083.083 0 0 0-.05-.029c.008-.015-.001-.033-.012-.046-.003-.002-.009-.038-.015-.043a.224.224 0 0 0-.06-.051c-.031-.02-.05-.02-.063-.022-.006-.003-.033.006-.037.005-.015 0-.032 0-.034.02a.071.071 0 0 0-.047-.025.151.151 0 0 0-.008.092c-.024.002-.05.081-.072.072.008.021.015.03.023.033-.021.046-.03.1-.052.104a.123.123 0 0 0 .02.028.559.559 0 0 0-.013.097l-.024-.01h-.01c-.034-.005-.053 0-.108-.04-.041-.029-.042-.055-.042-.107 0-.045.017-.085.014-.127a.3.3 0 0 0-.009-.04c-.008-.028-.039-.051-.056-.045.009.008.02.02.022.044l-.015.024c-.008.014-.013.032 0 .046.004.002.004.006.004.01l-.003.02c-.001.008-.004.004-.005 0-.01-.032-.02-.08-.044-.08-.002 0-.012-.003-.017-.001l.001-.006c0-.034-.028-.06-.06-.021.007.002.02.004.025.015a.285.285 0 0 0-.008.034c-.001.034.02.046.048.047.005 0 .007.002.009.007a.072.072 0 0 1 .002.013c.002.007 0 .006-.004.003-.047-.024-.065.003-.067.028 0 .003-.001.017.002.025-.017.014-.022.045.009.068 0-.01-.002-.031.01-.035l.007-.004c.004.007.011.013.012.015.004.003.012.001.027-.012.004-.003.006-.005.01-.002.005.006.01.008.015.013.004.004.003.007.001.01-.03.038-.027.076.015.084.005.002.006.007.006.014-.003.072-.08.058-.077-.015-.042.083.034.146.091.105.003-.004.004 0 .005.001.004.014.01.027.02.028 0-.006.004-.016.012-.016.005 0 .005.003.005.008 0 .018.006.043.028.047-.004-.014 0-.03.007-.03.011 0 .01-.031.08.018a.057.057 0 0 0 .026.034l.052-.012c-.006.05.006.127-.002.127-.013 0-.092-.011-.12.006-.038.026-.133.07-.16.02-.01-.017-.008-.034-.019-.059-.01-.018-.022-.03-.031-.03h-.023c-.015-.022-.05-.025-.066-.011.012.003.027.007.037.03-.005.009-.008.022-.01.024-.007.016-.003.042.058.068.002.001.007.008.002.012a.027.027 0 0 1-.033-.005c-.023-.024-.026-.056-.054-.036l-.02.01-.008-.002c-.025-.002-.065.04-.047.077.003-.01.013-.03.032-.034l.006.023c.006.04.02.07.082.016.007-.005.007.002.006.005-.016.034-.056.067-.025.093.002.001.007.008.014.013l-.003.009c-.005.043.033.076.053.073a.089.089 0 0 1-.02-.066l.02.007c.03-.016.015-.06.032-.076.005-.004.007 0 .007.004.003.019.01.06.047.058.034-.005.05-.04.046-.064 0-.003.001-.005.005-.003.011.008.02.026.017.049.005-.005.02-.018.025-.034a.08.08 0 0 1-.014.08.1.1 0 0 0 .058-.078c.006.006.01.017.014.025l.004-.004c.01.006.035.01.07-.002.004-.001.005.001.005.005-.004.017-.004.036.004.047 0-.007.01-.026.015-.026.009 0 0 .046.02.072.008-.113.081-.085.139-.132.006-.006.006-.004.006.003a.069.069 0 0 1-.026.038c.061.048.126-.058.144-.116a.067.067 0 0 0 .017-.023c.004.012.005.023-.01.035.06.003.052-.055.076-.052.18.019.042-.19.332-.127.02.004.055-.02.07-.039-.02.047-.02.147.02.155a.16.16 0 0 1 .068.036c.004.006 0 .008-.002.009-.023.002-.048.01-.057.018-.06.05-.062-.116-.128-.084-.003 0-.013.01-.018.015-.025 0-.061.039-.055.072a.07.07 0 0 1 .042-.03l-.001.019c-.002.011.002.027.024.027.015 0 .017-.01.026-.01.004 0 .008.004.008.011 0 .03-.081-.017-.067.067 0 .002.007.02.013.025-.003.026.015.053.05.038-.006-.005-.02-.019-.017-.03l.016.001c.003.002.007-.003.008-.012 0-.004.001-.005.004-.005.004 0 .008.005.008.008 0 .005-.005.01-.005.017 0 .002.003.024.006.028a.04.04 0 0 0 .07.033c-.011-.002-.034-.008-.037-.024l.018-.009c.005-.005.007-.017.007-.03 0-.008.005-.008.008-.008.004 0 .01 0 .016-.002.008-.001.01.002.013.006.007.021.025.037.05.027.044-.02.006-.068.042-.076.006-.002.017-.005.027 0 .034.009.085.008.094-.011.01-.022.006-.1-.033-.128-.022-.012.003-.046-.018-.087.036.022.076.04.128.04.094 0 .138-.015.186-.048.055-.036.104-.019.118-.015.011.002.02.01.011.03-.021.061-.009.068-.024.094-.015.024-.051.006-.08.002-.014 0-.03.014-.03.016-.026.007-.06.036-.064.068.009-.007.028-.026.049-.028a.172.172 0 0 0-.002.014c-.006.042.028.055.055.026.003-.006.012 0 .006.007-.023.02-.067.058-.042.074.003 0 .01.005.017.01-.008.025.002.053.018.056-.003-.014-.003-.023.013-.05l.017.001c.02 0 .021-.054.049-.07.003 0 .005 0 .003.003-.014.03-.026.067-.006.075l.015.006c.001.023.022.04.055.02-.006-.003-.021-.013-.021-.023l.02-.028c.028-.065-.015-.065-.01-.091.007-.032.051-.01.066-.074.001-.012.001-.032-.014-.04-.003-.001-.003-.004-.002-.004h.001c.015 0 .028.005.042-.021-.039.004-.018-.036-.018-.06 0-.005 0-.009.003-.012.015-.01.028-.03.03-.068-.015.022-.062.046-.059.003 0-.003.005-.031-.034-.024-.064.006-.153-.007-.271-.022-.008-.001-.013-.008 0-.01.118-.011.36-.033.36-.13 0-.078-.012-.13-.218-.13-.207 0-.672.096-.672-.05 0-.07.09-.065.199-.056m-.672-.018c-.013.024-.034.043-.052.02-.016-.021.001-.028-.019-.07.02.018.058.047.07.05m.042.157c-.007.002-.006-.024-.018-.027-.011-.003-.01.01-.003.03-.016-.007-.03-.018-.038.002-.007.017-.004.026.005.04.006.009 0 .023-.005.041-.005.018-.024.044-.047.03-.024-.016-.02-.048-.014-.065.008-.019.014-.03.022-.03.014 0 .022-.004.027-.02.005-.022-.01-.03-.024-.043.015-.005.023-.015.015-.022-.01-.011-.024.007-.027-.002-.002-.01.007-.016.013-.022.005-.006.011-.006.02 0l.066.039c.007.005.013.009.012.022 0 .007.004.024-.004.027m.036-.058c-.024-.001-.033-.04-.028-.068a.28.28 0 0 0 .08.041c-.037.01-.029.028-.052.027"/>
        <path fill="#1D1D1B" d="M22.42 16.166c.006.015.022.03.05.039.265.083.569-.138.731-.089-.21-.08-.343.061-.544.014.118 0 .243-.026.249-.061-.092.066-.35-.046-.459.028a.107.107 0 0 0-.02.023c-.082.02-.152.069-.152.136 0 .194.68.04.68.106 0 .052-.134.101-.312.101-.136 0-.37-.1-.664-.017v-.004c.02-.055.083-.139.055-.176.025-.01.041-.032.041-.054a.073.073 0 0 0-.047-.024c.006-.016-.002-.028-.012-.04-.003-.002-.008-.032-.014-.037a.228.228 0 0 0-.057-.043c-.029-.016-.047-.015-.06-.02-.006-.002-.031.008-.034.008-.014-.002-.031-.002-.033.015a.08.08 0 0 0-.044-.022.105.105 0 0 0-.007.08c-.024 0-.047.067-.07.06.009.018.016.026.023.027-.02.04-.028.085-.05.087.01.014.018.023.024.027a.594.594 0 0 0-.012.185c-.04-.048-.103-.158-.145-.185-.04-.025-.04-.047-.04-.09 0-.037.016-.071.013-.107a.257.257 0 0 0-.009-.035c-.006-.023-.035-.04-.052-.037.01.008.02.017.022.039a.118.118 0 0 0-.016.02c-.007.01-.01.024.001.038.003.002.003.004.003.008s0 .01-.003.017c0 .008-.003.004-.004 0-.008-.028-.02-.067-.041-.068h-.016v-.007c0-.027-.027-.049-.057-.015.006 0 .02.004.023.01a.196.196 0 0 0-.006.03c-.002.027.018.04.045.04.004 0 .008 0 .008.004 0 .005.003.009.004.013 0 .006-.001.005-.004.002-.046-.02-.065.003-.066.024l.001.02c-.015.013-.02.038.01.06 0-.012-.001-.028.01-.032l.006-.003.012.013c.003.002.01 0 .027-.011.003 0 .004-.002.008 0a.118.118 0 0 1 .014.01c.003.003.002.006 0 .007-.03.033-.024.064.014.073.006.001.008.004.008.009-.004.061-.076.05-.073-.012-.04.071.032.125.085.09.003-.004.005-.002.006.002.002.01.007.02.018.022 0-.005.003-.014.011-.015.004 0 .005.003.005.008.001.015.005.037.026.04-.003-.013 0-.025.007-.025.01 0 0 .095.078.146.014.051.052.08.095.075.013.037.033.072.027.072-.012 0-.106-.012-.131.003a.245.245 0 0 1-.087.033l-.005.008c.002-.003.002-.006.005-.008-.027.005-.053.002-.066-.016-.009-.014-.006-.029-.017-.05-.009-.016-.02-.025-.03-.027h-.022c-.014-.016-.046-.02-.06-.008.01.003.024.006.033.025-.002.008-.007.018-.008.02-.008.015-.003.035.054.057.003.001.009.008.003.009-.009.005-.02.007-.031-.003-.023-.02-.026-.047-.054-.03 0 .001-.009.006-.017.009l-.007-.002c-.024-.002-.064.032-.045.066.003-.01.013-.026.03-.03a.095.095 0 0 0 .008.02c.003.032.016.059.075.014.008-.004.008.002.005.005-.014.027-.054.054-.022.077l.013.01a.015.015 0 0 0-.003.007c-.005.038.031.065.05.063a.066.066 0 0 1-.018-.056c.006.003.015.007.018.006.027-.013.014-.053.03-.064.006-.004.007 0 .007.004.003.015.01.05.044.048a.05.05 0 0 0 .045-.054c0-.002 0-.004.003-.002.01.007.021.021.016.04.006-.002.018-.015.025-.027a.056.056 0 0 1-.014.064.082.082 0 0 0 .055-.064c.007.007.011.014.012.022.002 0 .002-.001.003-.003.011.006.035.008.068-.002.004-.002.006.002.006.004-.004.014-.004.031.002.04 0-.004.01-.02.015-.02.009 0 0 .036.02.059.007-.095.053-.058.108-.098.007-.003.007-.002.006.005a.071.071 0 0 1-.025.031c.022.001.082-.03.082-.065 0-.013.04-.053.051-.166.006 0 .014.002.022 0 .072-.006.105-.064.178-.069-.017.023-.025.079-.023.116.002.044.052.092.066.106.003.005 0 .006-.002.007a.14.14 0 0 0-.053.016c-.06.043-.06-.097-.122-.072a.11.11 0 0 0-.017.015c-.026-.002-.06.032-.053.06.008-.008.02-.022.039-.025v.014c0 .012.002.022.023.022.012 0 .015-.006.024-.006.005 0 .009.003.009.008 0 .027-.079-.015-.063.058l.01.021c-.003.022.015.044.048.032-.007-.006-.02-.015-.016-.028.006 0 .013.003.015.003.004 0 .007-.003.01-.012 0-.002 0-.003.002-.003.003.001.006.003.006.007 0 .003-.005.008-.005.015 0 .002.004.02.007.021-.004.027.03.054.065.028-.009 0-.03-.005-.034-.018a.097.097 0 0 0 .017-.008c.006-.004.008-.015.008-.025 0-.008.003-.008.005-.008h.017c.007-.002.01 0 .01.006.009.014.026.03.05.02.04-.014.006-.055.04-.064a.073.073 0 0 1 .025 0c.032.01.058.016.067-.002.008-.017.004-.084-.031-.107-.02-.012.03-.155-.07-.223.047.012.197.036.223-.005a.252.252 0 0 1 .103.057c.006.01.01.021-.004.03-.04.027-.034.042-.056.05l-.004.002c-.012-.015-.026-.036-.04-.045-.014-.009-.028-.003-.03 0-.022-.006-.054.002-.064.029.01-.002.028-.009.046-.002l-.003.011c-.003.007 0 .016.009.023h-.001c.002 0 .003.002.005.003 0 .003 0 .007-.004.007-.023-.005-.067-.008-.056.022l.004.02c-.015.013-.02.04-.01.055.004-.011.008-.018.029-.027.004.006.01.012.01.014.013.015.036-.024.06-.014.003 0 .005.003.002.005-.023.01-.045.028-.035.05a.137.137 0 0 0 .007.015.044.044 0 0 0 .027.058c-.003-.007-.008-.025-.004-.036a.175.175 0 0 0 .025-.003c.046-.026.017-.06.032-.074.017-.017.037.031.074-.006.005-.005.012-.02.006-.038l.001-.004c.01.012.018.025.035.015-.026-.026.003-.038.014-.058.002-.004.004-.006.008-.004.013.003.03-.003.048-.027-.02.004-.072-.03-.04-.043.045-.018.054-.047.034-.073-.036-.052-.11-.056-.112-.115h.067c.23 0 .376-.071.372-.152-.008-.173-.694.014-.694-.112 0-.037.042-.066.096-.086m-.499.025a.273.273 0 0 0 .076.034c-.035.008-.027.024-.049.022-.021 0-.032-.034-.027-.056m-.046-.026c-.01.018-.032.035-.05.016-.016-.018.002-.023-.018-.058.019.015.057.04.068.042m-.074.174c.008-.014.013-.027.02-.027.012 0 .02-.002.025-.016.005-.017-.009-.025-.022-.034.014-.006.022-.012.014-.02-.008-.009-.023.005-.025 0-.004-.009.007-.015.01-.02.007-.006.013-.003.021 0l.062.033c.007.006.012.009.012.019 0 .006.002.02-.005.023-.006 0-.005-.021-.015-.023-.01-.003-.01.007-.004.023-.016-.004-.03-.014-.036.003-.007.014-.005.022.006.034.004.007 0 .02-.005.035-.006.015-.023.038-.045.025-.023-.015-.02-.041-.013-.055M11.292 4.075a.168.168 0 0 0-.167-.168.168.168 0 0 0-.165.168c0 .093.074.168.165.168a.167.167 0 0 0 .167-.168M11.235 3.628a.168.168 0 0 0-.168-.169.168.168 0 0 0-.165.169c0 .092.075.168.165.168a.167.167 0 0 0 .168-.168M11.329 3.43a.168.168 0 0 0 0-.337.168.168 0 0 0-.166.168c0 .093.075.168.166.168M11.772 3.4a.169.169 0 0 0 0-.336.168.168 0 0 0-.165.168c0 .092.074.167.165.167M13.664 3.089c.066.065.171.065.236-.001a.17.17 0 0 0 0-.236.166.166 0 0 0-.236-.001.17.17 0 0 0 0 .238M13.627 2.73a.168.168 0 0 0 0-.236.165.165 0 0 0-.235 0 .169.169 0 0 0 0 .237c.065.066.17.066.235 0M13.186 2.658a.17.17 0 0 0 0-.237.166.166 0 0 0-.236-.001.17.17 0 0 0 0 .238c.065.066.17.066.236 0M12.809 2.94a.167.167 0 0 0-.236-.237.17.17 0 0 0 0 .239c.065.065.17.065.236-.002M11.747 2.71l.134.293.168-.204.02.007c.015.098.021.27.021.366 0 .118.095.214.212.214a.214.214 0 0 0 .1-.404 1.668 1.668 0 0 1-.235-.22.083.083 0 0 0 .01-.027l.283.025-.112-.302-.21.181a.04.04 0 0 0-.012-.006l-.015-.312-.291.112.194.23a.09.09 0 0 0-.012.025l-.255.021zM13.675 3.232c.065.102.088.15.093.231a.473.473 0 0 1-.173-.159l.034.392c.046-.07.084-.118.14-.141-.014.254-.116.36-.202.377a.164.164 0 0 1-.199-.13c-.02-.114.077-.184.175-.083.019-.235-.17-.231-.251-.132.097-.226.058-.376-.141-.498-.125.212-.072.351.086.512-.154-.079-.292.054-.155.227.03-.15.16-.117.19.004.025.103-.073.235-.239.285-.239.074-.316-.081-.374-.211.051-.034.175-.022.311.066l-.115-.384a.388.388 0 0 1-.228.233c-.007-.111.073-.335.073-.335l-.458.188s.212.103.284.189a.382.382 0 0 1-.324-.007l.182.356c.037-.159.117-.254.178-.267.048.135.1.3-.121.416-.154.08-.315.055-.369-.038-.062-.106.008-.223.133-.135-.021-.221-.212-.218-.267-.053.002-.228-.057-.364-.294-.428-.059.227.018.363.245.457-.129-.014-.266.115-.09.271 0-.143.119-.16.184-.064a.166.166 0 0 1-.054.232c-.073.049-.218.045-.405-.128.056-.022.117-.014.197.004l-.245-.305a.478.478 0 0 1-.015.236c-.052-.06-.07-.113-.093-.231l-.187.168c.177.11.382.28.628.625a8.171 8.171 0 0 1 1.018-.51c.29-.12.781-.285 1.08-.35-.06-.423-.033-.688.019-.89l-.25.01zM17.33 13.923c.065-.179-.262-.383-.3-.641-.037-.258-.006-.503-.299-.849-.286-.337-1.284-1.412-1.584-1.755.076-.007.253-.048.438.127.107.102.32.307.519.504a5.455 5.455 0 0 1 1.057-1.715c.059-.068.12-.134.182-.198-.172.053-.436.093-.59.197-.012-.295.011-.534-.19-.722.077-.413.01-.912-.908-1.526.47.114.747.543 1.106.213-.322-.008-.33-.717-1.492-1.307.444-.01.79.715 1.305.304-.485-.058-.645-.927-1.52-1.196.303.035.616.184.876-.171-.302.072-.481-.21-.807-.236.123-.38.093-.615-.037-.899-.228.016-.461.086-.63.225-.025-.209-.243-.221-.435-.206.01.091.052.222-.046.24-.157.03-.675.172-1.077.329a5.82 5.82 0 0 0-.992.537c-.082.057-.152-.077-.201-.138-.142.122-.28.279-.177.437-.223.02-.469.079-.678.246 0 .261.215.515.535.657-.54.54-.051 1.04-.526 1.513.668.025.552-.913.889-1.044-.035.66-.4.777-.4 1.488 0 .38.224.793.024 1.043.558-.155.411-1.4.76-1.776.06.213.024.421-.047.634-.196.581.021 1.377-.283 1.636.57-.056.638-.98 1.107-1.319-.403.832-.817 2.6-1.418 3.487-.973 1.322-1.544 2.936-2.436 2.936-.393 0-.69-.243-.69-.744 0-1.504 2.558-2.54 2.558-4.141a.949.949 0 0 0-.937-.986c-.244 0-.538.121-.784.326a.847.847 0 0 0-.301-.067c-.904 0-.663 1.64-1.451 1.623.312.177.851-.168 1.167-.626-.132 1.063-1.648.78-1.532 2.057.213-1 2.629-.853 2.629-2.37a.585.585 0 0 0-.207-.427.926.926 0 0 1 .51-.161c.289 0 .553.218.553.647 0 1.343-2.542 2.476-2.542 4.125 0 .278.081.51.211.692-.178.077-.362.04-.515-.14-.015.424.586.692.965.479a.99.99 0 0 0 .264.054c-.116.316-.504.41-.707.396.624.495 1.71-.155 1.65-.716.495-.402.808-1.09 1.167-1.544a4.8 4.8 0 0 0-.057.313c-.365.668-.706 1.267-.801 2.149-.08.737-.45 1.4-.963 1.4-.112 0-.298-.147-.385-.073-.16.138-.008.283-.008.42 0 .21-.4.42-.4 1.067 0 .292.167.64.104.834.163-.086.381-.362.471-.72.176.855-.361.819.026 1.577.048-.251.297-.355.448-.251.153.106.081.178-.031.292-.113.113-.217.68.297.647-.097-.064-.103-.214.151-.267.354-.072.457.09.834.09.233 0 .297-.306.482-.306.184 0 .184.145.12.25.297-.08.352-.241.352-.412 0-.169-.136-.274-.032-.338.105-.065.45.007.313.29.177-.032.272-.162.272-.38s-.248-.348-.48-.307c-.04-.138-.24-.211-.425-.211-.417 0-.352.331-.639.331-.457 0-.901-.6-.901-1.611 0-.542.578-.68.987-.857.408-.178 1.126-.622 1.555-1.35.337-.568.347-1.192.303-1.931.576.333.644.813.644 1.163 0 .452-.232.635-.415.719-.155.072-.207.042-.223.135-.021.116.056.182.123.217.208.108.165.309.224.526.058.219.25.562.573.812.033-.135.024-.35.005-.632.443.22.088 1.118.949 1.118-.159-.091-.117-.327-.026-.36.092-.034.207.058.374.292.166.235.122.215.528.215s.224-.141.44-.141c.215 0 .198.25.083.435.363-.111.473-.39.35-.675.32-.175.49.072.536.248.315-.317 0-.702-.248-.728.008-.117-.1-.242-.233-.251a3.249 3.249 0 0 0-.405-.009c-.15.009-.233.227-.407.227-.539 0-1.606-.985-1.606-1.413 0-.426 1.02-.685 1.02-1.347 0-.864-.842-1.158-1.551-1.713.253-.287.99-.354 1.408-.148.047-.24.2-.18.257-.596.15.365-.005.68.148.835.12-.176.425-.15.406-.603.093.283-.119.717.093.906.037-.233.174-.278.262-.278.087 0 .162.064.162.202 0 .345-.422.184-.422.574 0 .163.205.22.205.326 0 .106-.168.27-.373.132.068.15.203.283.38.283.187 0 .387-.152.464-.346.098.248.023.523-.153.559.186.093.629.005.578-.567.25.043.38.213.232.517.205-.05.393-.151.393-.372 0-.17-.183-.22-.102-.44M12.5 6.13c-.234.022-.228-.203-.639-.304.29-.06.66-.205.982-.33.061.27-.049.608-.344.634m1.651 1.766c-.3.13-.532-.135-.59-.315-.058-.183-.106-.332-.036-.401.13-.13.17-.23.092-.39-.09-.186-.285-.098-.494-.046.097-.178.105-.304-.029-.288-.159.018-.161.279-.25.248-.089-.03-.038-.18-.038-.26.001-.11.071-.15.181-.2l.868-.331c.112-.041.19-.063.267.016.055.057.194.129.151.214-.042.084-.223-.101-.35-.002-.108.082-.014.167.179.225-.187.11-.387.184-.324.382.055.169.152.212.334.214.099 0 .168.143.25.314.084.17.109.482-.21.62m.051-2.44c-.232.183-.54.015-.681-.225.32-.133.69-.283.94-.44-.23.359-.073.518-.259.664M33.621 18.066c0 .4.323.724.72.724a.722.722 0 0 0 .718-.724c0-.399-.323-.725-.718-.725a.724.724 0 0 0-.72.725m.184 0c0-.297.24-.539.536-.539.295 0 .533.242.533.54 0 .296-.238.539-.533.539a.538.538 0 0 1-.536-.54M30.94 18.743a.459.459 0 0 0-.178.29.49.49 0 0 0 .11.393.624.624 0 0 0 .36.212.594.594 0 0 0 .405-.061.46.46 0 0 0 .23-.327c.045-.273-.166-.543-.471-.604a.573.573 0 0 0-.456.097m.325.698c-.205-.04-.35-.208-.322-.372a.261.261 0 0 1 .101-.163.407.407 0 0 1 .32-.062c.185.036.325.184.325.333l-.003.039c-.027.164-.216.265-.42.225M26.99 8.575c-.233.191-.3.514-.152.719.15.203.46.212.691.021a.625.625 0 0 0 .228-.403.444.444 0 0 0-.076-.314.385.385 0 0 0-.265-.156.56.56 0 0 0-.426.133m-.04.464c0-.103.058-.221.158-.304a.378.378 0 0 1 .282-.092c.043.005.1.025.14.08a.23.23 0 0 1 .037.164.426.426 0 0 1-.155.268c-.146.12-.34.126-.424.014a.22.22 0 0 1-.039-.13M30.11 17.53a.606.606 0 0 0-.19.433v.015c0 .165.063.322.174.427a.459.459 0 0 0 .636.012.606.606 0 0 0 .19-.435.613.613 0 0 0-.13-.394.476.476 0 0 0-.357-.182.477.477 0 0 0-.322.124zm.304.823h-.002a.252.252 0 0 1-.174-.076.42.42 0 0 1-.117-.31.41.41 0 0 1 .129-.303.254.254 0 0 1 .18-.072c.164.003.295.177.29.387a.418.418 0 0 1-.13.304.258.258 0 0 1-.176.07zM26.58 11.674a.429.429 0 0 0-.242.22c-.11.243.027.553.306.694a.583.583 0 0 0 .464.039.418.418 0 0 0 .242-.22.46.46 0 0 0 .012-.337.636.636 0 0 0-.32-.357.588.588 0 0 0-.463-.04m.144.741c-.188-.095-.285-.29-.219-.435a.228.228 0 0 1 .136-.122.407.407 0 0 1 .323.03.453.453 0 0 1 .225.247.258.258 0 0 1-.004.19.241.241 0 0 1-.137.12.42.42 0 0 1-.324-.03"/>
        <path fill="#1D1D1B" d="M34.131 10.927c.234.647.699.881 1.054.714-.794-.093-.15-1.461-1.171-1.461a.746.746 0 0 0-.165.018c-.174-.185-.372-.262-.664-.262-.433 0-1.176.42-1.176 1.29 0 1.87 2.153 2.035 2.153 3.688a.755.755 0 0 1-.766.783c-.362 0-.654-.41-.958-1.052-.146-.306-.459-.724-.79-1.16.098.071.209.111.32.114a.408.408 0 0 0 .298-.11.42.42 0 0 0 .127-.294v-.017c0-.147-.063-.3-.175-.42a.615.615 0 0 0-.422-.202.408.408 0 0 0-.299.11.416.416 0 0 0-.126.293v.017c0 .064.012.128.034.19-.463-.61-.894-1.209-.894-1.538 0-.289.199-.544.443-.85l.084.048.065-.073c.086-.096.266-.295.638-.697l.022-.025-.001.002.09-.095-.231-.188c.06-.14.113-.293.154-.459.072.3.224.492.436.431-.14-.31.142-.726-.043-1.486.175.293.429.448.611.394-.476-.427.143-1.022-.48-1.945.205.07.339.03.429-.072-.567-.08-.308-.81-1.303-1.07.247-.045.393-.19.356-.322-.263.191-.493-.356-1.356-.342-.052-.326-.35-.668-.69-.833.064.252.005.48-.06.668l-2.809-2.782c-.081-.078-.127-.096-.15-.067-.023.028-.02.08.032.136l2.411 3.051c-.181.063-.36.14-.547.21a.33.33 0 0 0-.21.314c-.445.226-.839.502-1.034.682-.15.136-.267.169-.136.476.05.116-.104.404.244.193.23-.138.749-.427.826-.245.04.095-.216.218-.392.285-.176.07-.367.206-.34.274.028.068.168-.004.177.068.01.082.066.152.136.152s.16-.148.217-.099c.057.05-.028.382-.084.467.273-.035.448-.298.456-.501.006-.206.062-.255.104-.284.043-.028.092.22.035.368.145-.031.295-.223.274-.577.073-.058.147-.102.203-.102.091 0 .273.255.533.255.477 0 .743-.39.77-.573.023-.149.012-.292-.067-.402.171.139.226.356.226.518 0 .683-1.195 1.004-1.686 1.476-.019.016-.036.033-.054.05l-.562-.218-.037.124a59.756 59.756 0 0 1-.319 1.031l.05.03c-.333.446-.6.946-.66 1.46a4.894 4.894 0 0 0-.41-.377.674.674 0 0 0 .03-.157.56.56 0 0 0-.128-.399.375.375 0 0 0-.259-.131.372.372 0 0 0-.273.101.37.37 0 0 0-.049.053l-.06-.047c-.184-.144-.414-.314-.553-.468-.059-.066-.118-.102-.244-.102-.048 0-.166-.006-.25-.006-.082 0-.13.065-.225.15-.045.04-.174.141-.319.253a6.125 6.125 0 0 1 .31.345l.098-.076a.322.322 0 0 1 .208-.06c.072 0 .173.054.243.162.051.077.505.678.882 1.096a1.802 1.802 0 0 0-.12.045c-.16.068-.523.054-.684.041-.162-.013-.193-.054-.303.12a2.196 2.196 0 0 1-.149.21c-.054.067-.096.142.018.336.166.283.577 1.027.714 1.363.136.336.298.39.559.498.263.108.709.367.762.426l.017-.257c-.077-.079-.328-.173-.422-.207-.094-.035-.12-.076-.005-.076.112 0 .427.114.648.204-.067-.252-.304-.528-.447-.684-.19-.054-.38-.054-.458.006.01.053-.03.12-.107.12-.074 0-.122-.064-.1-.132.024-.077.136-.102.112-.246-.023-.144-.202-.168-.315-.18-.16-.234-.346-.576-.429-.714-.083-.139-.033-.217.024-.264.137-.114.423.06.994.096.198.012.45.025.706.037.075.669.341 1.305 1.264 1.537.452.112.915.446 1.075.883-1.843-.033-2.132.691-2.132 1.376 0 .777.65.734.65 1.317 0 .508-1.55.718-2.018.788-.397.059-.624.147-.814.34-.19.193-.383.378-.73.726 0 0 .148.035.295.026l.262-.342c.077-.113.13-.21.182-.2.052.01.017.096-.044.218l-.215.366c.909.062.97-.278.97-.418 0-.14-.226-.235-.095-.323.13-.088.241-.027.346.095.103.123.138.228.39.132 0 0 1.981-.829 2.232-.944.225-.102.16-.201.026-.314-.148-.123-.173-.323-.173-.532 0-.606.362-.793 1.006-.78-.012.102-.02.201-.02.291 0 .944 1.416 1.867 1.8 1.867.169 0 .4-.127.414.441.01.42.094.715.02 1.199-.075.483-.214.557-.5.761-.288.204-.56.843-.682.979.127.084.265.095.372-.216.088-.258.19-.441.3-.503-.111.283-.194.7-.247.825.362.064.948-.268.948-.526 0-.257-.202-.237-.202-.408 0-.076.091-.16.202-.16.145 0 .255.116.266.17.16-.086.26-.246.256-.622-.003-.147-.009-.3-.016-.457a.42.42 0 0 0 .36.245.628.628 0 0 0 .394-.108.616.616 0 0 0 .27-.383.42.42 0 0 0-.055-.316.413.413 0 0 0-.265-.177.611.611 0 0 0-.457.1.623.623 0 0 0-.262.35c-.03-.514-.067-.999-.052-1.194.02-.289.032-.417-.065-.46-.095-.043-.201.118-.339.118-.14 0-.555-.387-.555-.794 0-.409.437-.935.416-1.494-.008-.174.1-.265.17-.106.084.19.208.45.396.66-.116.702.65 1.387 1.28.88-.312.045-.526-.234-.664-.515a.954.954 0 0 0 .264.012c.22.276.923.253 1.105-.432-.122.144-.376.252-.559.229.265-.208.403-.547.403-.91 0-1.783-2.143-1.99-2.143-3.613 0-.6.522-.988.884-.988a.54.54 0 0 1 .333.108c-.139.142-.213.357-.201.619.056 1.28 2.13 1.217 2.157 1.833.233-.928-1.314-.641-1.37-1.892zm-5.519-4.914c.101-.193 0-.488.351-.488.172 0 .326.174.535.242-.339.028-.643.105-.886.246zM26.717 9.94a.375.375 0 0 1-.11.256.192.192 0 0 1-.137.054c-.12-.007-.215-.146-.215-.31v-.025a.366.366 0 0 1 .11-.255.194.194 0 0 1 .14-.054c.06.004.105.04.132.07a.371.371 0 0 1 .08.264zm6.125 8.996c.02-.099.092-.199.192-.265a.43.43 0 0 1 .317-.073c.046.01.11.036.15.098v.001a.23.23 0 0 1 .03.176.44.44 0 0 1-.192.265c-.174.115-.384.104-.468-.024a.238.238 0 0 1-.029-.178zm-1.287-5.97a.23.23 0 0 1 .068-.164.233.233 0 0 1 .168-.06c.101.003.21.057.293.144a.447.447 0 0 1 .125.305.234.234 0 0 1-.068.163l-.001.002a.232.232 0 0 1-.168.058.43.43 0 0 1-.292-.144.44.44 0 0 1-.125-.303zm-3.518-4.027c.1-.315.29-.938.29-.938l.325.128c-.095.037-.21.128-.312.224a.331.331 0 0 0 .296-.022l-.13.33c-.03-.053-.122-.172-.214-.192-.067.265.098.364.218.426.2.103.329.12.384.028.063-.114-.068-.273-.235-.202-.018-.173.078-.264.19-.264.09 0 .162.082.187.194-.011-.28.114-.499.37-.58.094.273.017.457-.186.654.106-.043.229-.036.278.039.063.095.04.226-.111.308-.035-.18-.242-.195-.301-.08-.06.116.03.226.213.329.213.119.383.048.497-.138-.07-.024-.192-.01-.305.062l.217-.41c.011.06.046.162.138.241.032-.092.08-.253.013-.398l.468.272c-.158.015-.273.136-.334.211.112.04.217.02.274 0l-.243.394c.005-.135-.043-.247-.099-.297-.103.193-.079.376.13.503.18.11.319.132.388.023.07-.11-.045-.284-.216-.224-.007-.173.093-.259.206-.252.091.006.157.11.174.224.066-.276.187-.436.467-.49.059.265-.066.483-.313.614.11-.036.216-.014.26.065.057.1.027.228-.131.3-.022-.182-.224-.217-.29-.105-.053.094.027.2.215.321.114.075.28.17.476-.022-.064-.071-.214-.091-.272-.091l.217-.279a.343.343 0 0 0 .13.27c.032-.138.051-.284.035-.385l.274.22s-.441.477-.66.722l-2.978-1.733zm2.904 7.384c-.118.168-.319.228-.45.135-.13-.093-.142-.304-.023-.472.116-.167.317-.228.448-.135.132.093.142.305.025.472zm.846-1.348c-.118.167-.318.226-.449.133-.13-.094-.14-.306-.023-.472.119-.168.32-.227.45-.134s.14.306.022.473zM42.805 7.192h1.554v5.065h6.15V7.192h1.553v11.78h-1.554v-5.395h-6.15v5.396h-1.553zM54.214 7.192h2.127l3.68 9.9 3.696-9.9h2.126v11.78H64.37v-9.8h-.033l-3.647 9.8h-1.325l-3.647-9.8h-.033v9.8h-1.472zM81.38 17.505c-.9 1.237-2.371 1.748-3.745 1.748-3.484 0-5.561-2.87-5.561-5.94 0-3.431 1.865-6.401 5.561-6.401 2.551 0 4.58 1.155 5.021 3.91h-1.554c-.31-1.782-1.733-2.59-3.467-2.59-2.83 0-4.007 2.475-4.007 5 0 2.458 1.407 4.702 4.007 4.702 2.404 0 3.844-1.7 3.745-3.845h-3.729v-1.32h5.12v6.204h-.982l-.409-1.468zM88.204 17.934c1.455 0 2.633-1.155 2.633-3.218 0-2.079-1.178-3.234-2.633-3.234-1.456 0-2.634 1.155-2.634 3.234 0 2.063 1.178 3.218 2.634 3.218m0-7.69c2.682 0 4.105 1.964 4.105 4.472 0 2.491-1.423 4.455-4.105 4.455-2.682 0-4.105-1.964-4.105-4.455 0-2.508 1.423-4.471 4.105-4.471M97.042 18.973h-1.488l-3.14-8.53h1.553l2.372 7.111h.032l2.307-7.111h1.455zM106.558 13.89c-.066-1.335-1.063-2.408-2.437-2.408-1.456 0-2.322 1.105-2.42 2.409h4.857zm1.341 2.377c-.376 1.88-1.717 2.904-3.615 2.904-2.698 0-3.974-1.881-4.056-4.488 0-2.557 1.669-4.438 3.975-4.438 2.993 0 3.909 2.82 3.827 4.884h-6.33c-.049 1.484.785 2.805 2.634 2.805 1.144 0 1.946-.561 2.191-1.667h1.374zM109.15 10.443h1.309v1.798h.032c.67-1.37 1.603-2.046 3.108-1.996v1.484c-2.24 0-3.058 1.287-3.058 3.45v3.794h-1.39v-8.53zM114.367 10.443h1.309v1.353h.033c.588-1.056 1.537-1.551 2.747-1.551 2.224 0 2.912 1.286 2.912 3.118v5.61h-1.39v-5.775c0-1.04-.655-1.716-1.718-1.716-1.684 0-2.502 1.138-2.502 2.673v4.818h-1.39v-8.53zM123.047 10.443h1.309v1.254h.033c.62-.957 1.57-1.452 2.73-1.452 1.031 0 1.98.412 2.323 1.452a3.122 3.122 0 0 1 2.65-1.452c1.684 0 2.813.709 2.813 2.475v6.253h-1.39V13.38c0-1.056-.278-1.898-1.636-1.898-1.341 0-2.208.858-2.208 2.178v5.313h-1.39V13.38c0-1.106-.343-1.898-1.586-1.898-1.652 0-2.258 1.534-2.258 2.178v5.313h-1.39v-8.53zM142.474 13.89c-.065-1.335-1.063-2.408-2.437-2.408-1.455 0-2.322 1.105-2.42 2.409h4.857zm1.341 2.377c-.376 1.88-1.717 2.904-3.614 2.904-2.699 0-3.975-1.881-4.056-4.488 0-2.557 1.668-4.438 3.974-4.438 2.993 0 3.91 2.82 3.827 4.884h-6.33c-.049 1.484.786 2.805 2.634 2.805 1.145 0 1.946-.561 2.191-1.667h1.374zM145.09 10.443h1.308v1.353h.033c.588-1.056 1.537-1.551 2.747-1.551 2.225 0 2.911 1.286 2.911 3.118v5.61h-1.39v-5.775c0-1.04-.654-1.716-1.717-1.716-1.684 0-2.502 1.138-2.502 2.673v4.818h-1.39v-8.53z"/>
        <g transform="translate(152.713 7.667)">
            <mask id="b" fill="#fff">
                <use xlink:href="#a"/>
            </mask>
            <path fill="#1D1D1B" d="M2.947 2.776H4.63v1.237H2.947V9.31c0 .643.18.758 1.046.758h.638v1.238H3.568c-1.44 0-2.012-.297-2.012-1.865V4.013H.117V2.776h1.44V.218h1.39v2.558z" mask="url(#b)"/>
        </g>
    </g>
</svg>
