<svg xmlns="http://www.w3.org/2000/svg" xmlns:xlink="http://www.w3.org/1999/xlink" width="103" height="75" viewBox="0 0 103 75">
    <defs>
        <path id="a" d="M0 74.675h102.784V.055H0z"/>
    </defs>
    <g fill="none" fill-rule="evenodd">
        <path fill="#FFF" d="M18.596 39.496h3.545V21.772h-3.545z"/>
        <g transform="translate(0 .27)">
            <path fill="#FFF" d="M35.714 39.227l-6.508-9.673c-.43-.658-1.012-1.544-1.24-2 0 .658.05 2.887.05 3.874v7.799h-3.494V21.502h3.393l6.28 9.37c.43.658 1.012 1.544 1.24 2 0-.659-.05-2.887-.05-3.875v-7.495h3.494v17.725h-3.165z"/>
            <mask id="b" fill="#fff">
                <use xlink:href="#a"/>
            </mask>
            <path fill="#FFF" d="M18.596 18.058h3.545V.334h-3.545zM35.714 18.058l-6.508-9.673c-.43-.658-1.012-1.544-1.24-2 0 .659.05 2.887.05 3.874v7.8h-3.494V.333h3.393l6.28 9.368c.43.659 1.012 1.545 1.24 2 0-.658-.05-2.886-.05-3.873V.334h3.494v17.724h-3.165zM49.49 18.058h-3.444L39.74.334h3.924l3.343 10.255c.329.987.683 2.279.835 2.911.152-.658.481-1.873.81-2.911L51.92.334h3.874L49.49 18.058zM56.656 18.058V.334h12.306v3.469H60.2v3.063h5.09v3.444H60.2v4.28h9.14v3.468zM77.05 6.984c.291.076.614.154.968.237 2.811.658 5.925 1.62 5.925 5.47 0 3.367-2.126 5.646-6.963 5.646-2.962 0-5.545-1.241-6.887-3.216l2.557-2.279c1.241 1.443 2.837 2.026 4.533 2.026 2.102 0 3.09-.583 3.09-1.925 0-1.14-.609-1.645-3.95-2.405-3.267-.76-5.546-1.798-5.546-5.292 0-3.216 2.836-5.19 6.33-5.19 2.76 0 4.786 1.037 6.456 2.784l-2.556 2.482c-1.14-1.165-2.406-1.823-4.027-1.823-1.899 0-2.532.81-2.532 1.595 0 .973.58 1.367 2.602 1.89M92.807 3.828v14.23h-3.545V3.828h-5.09V.334h13.724v3.494z" mask="url(#b)"/>
            <path fill="#E41F12" d="M18.602 67.1h84.182V42.666H18.602z" mask="url(#b)"/>
            <path fill="#FFF" d="M33.233 57.316H30.4V54.03h6.346v2.834c0 4.515-2.985 7.075-7.048 7.075-4.59 0-7.677-3.513-7.677-9.056 0-5.342 3.211-9.055 7.802-9.055 3.587 0 5.493 1.68 6.647 4.39l-3.336 1.38c-.652-1.306-1.454-2.284-3.361-2.284-2.634 0-4.14 2.308-4.14 5.569 0 3.237 1.53 5.618 4.164 5.618 2.897 0 3.325-1.803 3.437-2.657.02-.222.034-.34.032-.528M56.549 63.664v-17.56h12.19v3.437h-8.68v3.636h6.51v3.412h-6.51v3.637h8.68v3.438zM83.41 63.664h3.863L80.6 46.104H77.19l-6.723 17.56h3.761l1.317-3.74h6.549c.742 2.112 1.316 3.74 1.316 3.74zm-6.695-7.075c1.038-2.962 2.024-5.795 2.105-6.096.08.301 1.066 3.134 2.103 6.096h-4.208zM94.322 49.565v14.098h-3.511V49.565h-5.042v-3.461h13.597v3.461zM47.77 54.03h-4.59v-4.516h4.59c1.555 0 2.509.653 2.509 2.232 0 1.532-.878 2.284-2.509 2.284m6.122-2.358c0-3.738-2.735-5.568-6.046-5.568h-8.178v17.56h3.512V57.34h3.538l3.135 6.324h4.039l-3.363-6.824c2.234-.877 3.363-2.534 3.363-5.168M20.48 72.784H19.4v1.053h1.082c.396 0 .582-.21.582-.53 0-.349-.186-.523-.582-.523m-.047-1.497H19.4v.775h1.077c.337 0 .458-.157.458-.384 0-.256-.145-.39-.5-.39m.018 3.324h-1.85v-4.075h1.867c.791 0 1.291.378 1.291 1.076 0 .35-.163.63-.43.793.326.144.57.44.57.89 0 .856-.575 1.316-1.448 1.316M24.32 71.328h-1.064v1.048h1.065c.377 0 .581-.174.581-.53 0-.366-.22-.518-.581-.518zm.484 3.284l-.727-1.467h-.82v1.467h-.815v-4.075h1.896c.768 0 1.402.424 1.402 1.292 0 .612-.262.995-.78 1.2l.78 1.583h-.936zM26.362 74.612h.815v-4.075h-.815zM29.597 71.34v3.272h-.815V71.34h-1.169v-.802h3.153v.802zM32.442 72.19a12.082 12.082 0 0 1-.204-.635c-.04.152-.122.396-.204.635l-.261.74h.93l-.261-.74zm.86 2.422l-.32-.909h-1.489l-.32.91h-.872l1.559-4.076h.791l1.547 4.075h-.895zM34.722 74.612h.815v-4.075h-.815zM38.806 74.612l-1.495-2.224c-.099-.151-.233-.355-.285-.46 0 .151.011.663.011.891v1.793h-.802v-4.075h.779l1.443 2.153c.099.151.233.356.285.461 0-.152-.012-.664-.012-.891v-1.723h.803v4.075h-.727zM42.896 72.9c-.32.17-.449.378-.449.622 0 .263.21.431.617.431.251 0 .46-.058.628-.18l-.796-.873zm1.57 1.712l-.308-.333c-.32.263-.71.396-1.187.396-.831 0-1.338-.349-1.338-1.082 0-.57.314-.914.832-1.17l-.105-.116c-.215-.24-.354-.5-.354-.827 0-.663.523-1.008 1.21-1.008.5 0 .826.151 1.216.426l-.39.588a1.376 1.376 0 0 0-.85-.291c-.238 0-.384.098-.384.267 0 .175.088.292.216.443l1.122 1.28a6.78 6.78 0 0 0 .286-.675l.656.21c-.128.395-.278.74-.46 1.019l.77.873h-.932zM49.667 74.612l-1.495-2.224c-.099-.151-.233-.355-.285-.46 0 .151.012.663.012.891v1.793h-.803v-4.075h.779l1.443 2.153c.098.151.233.356.285.461 0-.152-.012-.664-.012-.891v-1.723h.803v4.075h-.727zM52.704 71.282c-.658 0-.932.565-.932 1.292 0 .728.274 1.292.932 1.292.657 0 .93-.564.93-1.292 0-.727-.273-1.292-.93-1.292m0 3.393c-1.112 0-1.769-.861-1.769-2.101s.657-2.101 1.769-2.101c1.111 0 1.768.86 1.768 2.101 0 1.24-.657 2.101-1.768 2.101M56.892 71.328h-1.064v1.048h1.064c.378 0 .582-.174.582-.53 0-.366-.222-.518-.582-.518zm.483 3.284l-.727-1.467h-.82v1.467h-.815v-4.075h1.897c.768 0 1.4.424 1.4 1.292 0 .612-.26.995-.778 1.2l.779 1.583h-.936zM60.459 71.34v3.272h-.815V71.34h-1.17v-.802h3.154v.802zM64.49 74.612V72.9h-1.67v1.712h-.814v-4.075h.814v1.56h1.67v-1.56h.814v4.075zM66.06 74.612v-4.075h2.828v.796h-2.013v.706h1.17v.79h-1.17v.985h2.1v.798zM71.43 71.328h-1.064v1.048h1.064c.378 0 .582-.174.582-.53 0-.366-.22-.518-.582-.518zm.482 3.284l-.726-1.467h-.82v1.467h-.815v-4.075h1.896c.769 0 1.402.424 1.402 1.292 0 .612-.261.995-.78 1.2l.78 1.583h-.937zM75.986 74.612l-1.496-2.224a5.85 5.85 0 0 1-.285-.46c0 .151.011.663.011.891v1.793h-.802v-4.075h.78l1.442 2.153c.099.151.233.356.285.461 0-.152-.01-.664-.01-.891v-1.723h.801v4.075h-.726zM79.156 74.612h.814v-4.075h-.814zM82.663 71.328H81.6v1.048h1.064c.379 0 .582-.174.582-.53 0-.366-.22-.518-.582-.518zm.484 3.284l-.728-1.467h-.82v1.467h-.814v-4.075h1.895c.768 0 1.403.424 1.403 1.292 0 .612-.262.995-.78 1.2l.78 1.583h-.936zM84.764 74.612v-4.075h2.827v.796h-2.013v.706h1.168v.79h-1.168v.985h2.1v.798zM88.254 74.612v-4.075h.814v3.27h2.042v.805zM93.42 72.19a11.827 11.827 0 0 1-.203-.635c-.042.152-.123.396-.205.635l-.26.74h.93l-.262-.74zm.86 2.422l-.32-.909h-1.488l-.32.91h-.873l1.56-4.076h.79l1.548 4.075h-.897zM98.097 74.612l-1.495-2.224a6.698 6.698 0 0 1-.286-.46c0 .151.013.663.013.891v1.793h-.803v-4.075h.779l1.443 2.153c.1.151.234.356.286.461 0-.152-.012-.664-.012-.891v-1.723h.802v4.075h-.727zM100.709 71.328h-.43v2.492h.401c.855 0 1.245-.502 1.245-1.246 0-.833-.355-1.246-1.216-1.246m-.029 3.284h-1.216v-4.075h1.275c1.163 0 2.024.547 2.024 2.037 0 1.432-1.036 2.038-2.083 2.038M0 67.118h14.293V.333H0z" mask="url(#b)"/>
            <path fill="#12044B" d="M.518.333L7.71 14.756V.333zM6.87 28.23L0 14.453v13.779zM6.775 39.361H0v13.59zM7.71 67.117V52.703L.522 67.117z" mask="url(#b)"/>
            <path fill="#B00F2B" d="M7.71 27.395v-5.18L0 6.702v5.181zM7.71 50.133v-5.18L0 60.462v5.183z" mask="url(#b)"/>
            <path fill="#AF0D23" d="M9.893.332v30.082H0v6.764h9.893v29.94h4.4V.332z" mask="url(#b)"/>
        </g>
    </g>
</svg>
