
<svg width="227" height="264" viewBox="0 0 227 264" fill="none" xmlns="http://www.w3.org/2000/svg">
<g clip-path="url(#clip0_4194_278683)">
<mask id="mask0_4194_278683" style="mask-type:luminance" maskUnits="userSpaceOnUse" x="0" y="0" width="227" height="264">
<path d="M227 0.5H0V263.5H227V0.5Z" fill="white"/>
</mask>
<g mask="url(#mask0_4194_278683)">
<path d="M145.754 16.7552L214.992 1.11727L166.698 25.1022L145.754 16.7552Z" fill="url(#paint0_linear_4194_278683)"/>
<path d="M166.498 44.5491L166.698 25.1022L214.992 1.11727L175.168 30.3672L166.498 44.5491Z" fill="url(#paint1_linear_4194_278683)"/>
<path d="M166.498 44.5491L214.992 1.11727L175.168 30.3672L166.498 44.5491Z" fill="url(#paint2_linear_4194_278683)"/>
<path d="M196.641 50.5002L175.168 30.3672L214.992 1.11727L196.641 50.5002Z" fill="url(#paint3_linear_4194_278683)"/>
<path d="M159.853 51.5C138.724 83.142 106.27 91.894 103.922 130.941C101.574 169.988 103.922 183.452 135.85 216.44C167.778 249.428 226 227.885 226 174.027C226 120.169 190.316 93.24 156.979 112.09C123.642 130.941 92.704 222.275 62.637 247.389C32.57 272.503 7.104 259.951 1 254.565" stroke="#1D70B8" stroke-opacity="0.2" stroke-width="2" stroke-linecap="round" stroke-linejoin="round" stroke-dasharray="8 14"/>
</g>
</g>
<defs>
<linearGradient id="paint0_linear_4194_278683" x1="212.269" y1="33.4367" x2="146.213" y2="27.8712" gradientUnits="userSpaceOnUse">
<stop stop-color="#007DE2"/>
<stop offset="0.28" stop-color="#007DE2"/>
<stop offset="0.414" stop-color="#007DE2"/>
<stop offset="0.817" stop-color="#0065B9"/>
<stop offset="1" stop-color="#0065B9"/>
</linearGradient>
<linearGradient id="paint1_linear_4194_278683" x1="182.473" y1="28.8025" x2="175.312" y2="12.6691" gradientUnits="userSpaceOnUse">
<stop stop-color="#007DE2"/>
<stop offset="0.75" stop-color="#00539C"/>
<stop offset="0.884" stop-color="#00539C"/>
<stop offset="1" stop-color="#00539C"/>
</linearGradient>
<linearGradient id="paint2_linear_4194_278683" x1="208.764" y1="29.7201" x2="152.928" y2="17.5599" gradientUnits="userSpaceOnUse">
<stop stop-color="#007DE2"/>
<stop offset="0.75" stop-color="#00539C"/>
<stop offset="0.884" stop-color="#00539C"/>
<stop offset="1" stop-color="#00539C"/>
</linearGradient>
<linearGradient id="paint3_linear_4194_278683" x1="210.574" y1="26.6342" x2="176.831" y2="20.7812" gradientUnits="userSpaceOnUse">
<stop stop-color="#007DE2"/>
<stop offset="0.28" stop-color="#007DE2"/>
<stop offset="0.414" stop-color="#007DE2"/>
<stop offset="0.817" stop-color="#0065B9"/>
<stop offset="1" stop-color="#0065B9"/>
</linearGradient>
<clipPath id="clip0_4194_278683">
<rect width="227" height="263" fill="white" transform="translate(0 0.5)"/>
</clipPath>
</defs>
</svg>