<svg xmlns="http://www.w3.org/2000/svg" width="58" height="54" viewBox="0 0 58 54">
    <g fill="none" fill-rule="evenodd">
        <path fill="#006CCC" d="M3 41h52v4H3zM6 50h46v4H6z"/>
        <path stroke="#006CCC" stroke-width="4" d="M10 8v6M49 22v6M2 2h54v32H2z"/>
        <path fill="#006CCC" d="M23.836 24h10.659v-2.907h-5.567v-2.09h4.104v-2.584h-4.104v-.969c0-1.045.57-1.691 1.52-1.691.779 0 1.368.399 1.938 1.083l2.242-2.451c-.988-1.102-2.356-1.919-4.427-1.919-1.577 0-2.774.456-3.629 1.311s-1.311 2.147-1.311 3.667v.969h-1.425v2.584h1.425v2.261l-1.425.551V24z"/>
    </g>
</svg>
