<svg xmlns="http://www.w3.org/2000/svg" width="52" height="51" viewBox="0 0 52 51">
    <g fill="#006CCC" fill-rule="nonzero">
        <path d="M22 40c9.941 0 18-8.059 18-18S31.941 4 22 4 4 12.059 4 22s8.059 18 18 18zm0 4C9.85 44 0 34.15 0 22S9.85 0 22 0s22 9.85 22 22-9.85 22-22 22z"/>
        <path d="M7 22c0-8.284 6.716-15 15-15 8.284 0 15 6.716 15 15h-4c0-6.075-4.925-11-11-11s-11 4.925-11 11H7zm4 0H7c0-8.284 6.716-15 15-15 8.284 0 15 6.716 15 15h-4c0-6.075-4.925-11-11-11s-11 4.925-11 11zM34.812 38.555L47 50.743l4.243-4.243-12.188-12.188z"/>
    </g>
</svg>
