<svg xmlns="http://www.w3.org/2000/svg" width="54" height="54" viewBox="0 0 54 54">
    <g fill="none" fill-rule="evenodd">
        <path fill="#006CCC" d="M27 0C12.088 0 0 12.088 0 27s12.088 27 27 27 27-12.088 27-27S41.912 0 27 0m0 3.725c12.834 0 23.276 10.441 23.276 23.275 0 12.834-10.442 23.276-23.276 23.276S3.724 39.834 3.724 27 14.166 3.725 27 3.725"/>
        <path stroke="#006CCC" stroke-width="3.605" d="M27 1.703v50.595"/>
        <path stroke="#006CCC" stroke-width="3.724" d="M0 27h54M8.35 44.684a26.911 26.911 0 0 1 19.091-7.907 26.9 26.9 0 0 1 18.266 7.115M45.65 9.315a26.911 26.911 0 0 1-19.091 7.908 26.9 26.9 0 0 1-18.266-7.116"/>
        <path stroke="#006CCC" stroke-width="3.724" d="M22.36 51.557a42.585 42.585 0 0 1-8.235-25.24 42.58 42.58 0 0 1 7.788-24.614M31.631 51.568a42.59 42.59 0 0 0 8.244-25.25 42.575 42.575 0 0 0-7.237-23.814"/>
    </g>
</svg>
