<svg xmlns="http://www.w3.org/2000/svg" xmlns:xlink="http://www.w3.org/1999/xlink" width="180" height="64" viewBox="0 0 180 64">
    <defs>
        <path id="a" d="M0 63.36h179.582V.263H0z"/>
    </defs>
    <g fill="none" fill-rule="evenodd">
        <path fill="#E41F13" d="M13.493 48.805h166.086V.64H13.493z"/>
        <g transform="translate(0 .377)">
            <path fill="#FFF" d="M42.359 29.141h-5.593v-6.477h12.522v5.587c0 8.9-5.89 13.945-13.907 13.945-9.057 0-15.145-6.924-15.145-17.851 0-10.53 6.336-17.849 15.393-17.849 7.077 0 10.837 3.311 13.114 8.653l-6.582 2.72c-1.287-2.573-2.87-4.501-6.632-4.501-5.195 0-8.166 4.55-8.166 10.977 0 6.38 3.018 11.075 8.215 11.075 5.715 0 6.559-3.554 6.78-5.239.04-.436.067-.669.064-1.04M88.36 41.654V7.04h24.052v6.775H95.286v7.167h12.844v6.725H95.286v7.17h17.126v6.777zM141.355 41.654h7.622L135.813 7.04h-6.73l-13.264 34.614h7.421l2.597-7.37h12.922c1.463 4.16 2.596 7.37 2.596 7.37zm-13.208-13.947c2.048-5.837 3.992-11.421 4.152-12.014.16.593 2.103 6.177 4.15 12.014h-8.302zM162.884 13.862v27.79h-6.927v-27.79h-9.948V7.04h26.826v6.822zM71.04 22.664h-9.057v-8.901h9.057c3.068 0 4.948 1.286 4.948 4.4 0 3.018-1.73 4.5-4.948 4.5m12.077-4.647c0-7.368-5.396-10.976-11.928-10.976H55.055v34.614h6.928V29.188h6.98l6.186 12.466h7.968l-6.635-13.45c4.408-1.73 6.635-4.996 6.635-10.188"/>
            <mask id="b" fill="#fff">
                <use xlink:href="#a"/>
            </mask>
            <path fill="#FFF" d="M0 48.428h10.316V.263H0z" mask="url(#b)"/>
            <path fill="#1E1348" d="M.374.264l5.19 10.402V.264zM4.96 20.383L0 10.448v9.935zM4.89 28.41H0v9.8zM5.564 48.427V38.032L.378 48.427z" mask="url(#b)"/>
            <path fill="#B00D23" d="M5.564 19.781v-3.736L0 4.858v3.737zM5.564 36.178v-3.736L0 43.63v3.737z" mask="url(#b)"/>
            <path fill="#B00D23" d="M7.14.263v21.695H0v4.879h7.14v21.591h3.177V.263z" mask="url(#b)"/>
            <path fill="#FFF" d="M17.243 59.631h-2.134v2.076h2.134c.781 0 1.149-.412 1.149-1.043 0-.69-.368-1.033-1.15-1.033m-.09-2.95h-2.043v1.528h2.124c.665 0 .905-.31.905-.757 0-.505-.286-.77-.986-.77m.035 6.554h-3.65v-8.034h3.684c1.56 0 2.547.745 2.547 2.122 0 .69-.322 1.241-.848 1.563.642.284 1.124.868 1.124 1.754 0 1.687-1.136 2.595-2.857 2.595M24.819 56.761h-2.1v2.067h2.1c.746 0 1.148-.343 1.148-1.043 0-.724-.436-1.024-1.148-1.024zm.953 6.474l-1.434-2.891h-1.619v2.891h-1.606v-8.033h3.74c1.516 0 2.766.837 2.766 2.547 0 1.207-.517 1.963-1.538 2.365l1.538 3.121h-1.847zM28.847 63.236h1.608v-8.033h-1.608zM35.23 56.784v6.452h-1.608v-6.452h-2.306v-1.582h6.22v1.582zM40.841 58.461c-.16-.47-.32-.952-.4-1.251-.081.299-.242.78-.404 1.251l-.515 1.457h1.837l-.518-1.457zm1.7 4.775l-.632-1.792h-2.938l-.631 1.792h-1.722l3.075-8.034h1.562l3.052 8.034H42.54zM45.341 63.236h1.608v-8.033h-1.608zM53.398 63.236l-2.95-4.386c-.194-.297-.458-.7-.562-.907 0 .3.023 1.308.023 1.758v3.535h-1.584v-8.034h1.537l2.847 4.245c.195.298.46.7.564.909 0-.301-.024-1.31-.024-1.758v-3.396h1.583v8.034h-1.434zM61.468 59.86c-.632.334-.886.746-.886 1.227 0 .518.414.85 1.217.85.495 0 .908-.115 1.24-.355l-1.571-1.721zm3.098 3.375l-.609-.656c-.631.517-1.4.781-2.34.781-1.641 0-2.641-.689-2.641-2.134 0-1.125.619-1.801 1.641-2.306l-.206-.23c-.425-.471-.7-.986-.7-1.629 0-1.307 1.033-1.986 2.386-1.986.988 0 1.63.298 2.4.84l-.77 1.159a2.715 2.715 0 0 0-1.676-.575c-.469 0-.756.194-.756.527 0 .345.173.575.425.874l2.215 2.523c.183-.368.367-.803.562-1.332l1.296.413c-.253.78-.55 1.46-.907 2.01l1.517 1.721h-1.837zM74.826 63.236l-2.95-4.386c-.194-.297-.459-.7-.561-.907 0 .3.023 1.308.023 1.758v3.535h-1.584v-8.034h1.537l2.846 4.245c.195.298.46.7.563.909 0-.301-.023-1.31-.023-1.758v-3.396h1.584v8.034h-1.435zM80.817 56.671c-1.297 0-1.837 1.113-1.837 2.547 0 1.435.54 2.547 1.837 2.547 1.298 0 1.837-1.112 1.837-2.547 0-1.434-.54-2.547-1.837-2.547m0 6.689c-2.192 0-3.488-1.699-3.488-4.142 0-2.446 1.296-4.142 3.488-4.142 2.194 0 3.489 1.696 3.489 4.142 0 2.443-1.295 4.142-3.489 4.142M89.082 56.761h-2.1v2.067h2.1c.745 0 1.148-.343 1.148-1.043 0-.724-.438-1.024-1.148-1.024zm.953 6.474l-1.436-2.891h-1.617v2.891h-1.607v-8.033h3.742c1.514 0 2.763.837 2.763 2.547 0 1.207-.515 1.963-1.536 2.365l1.536 3.121h-1.845zM96.118 56.784v6.452H94.51v-6.452h-2.307v-1.582h6.222v1.582zM104.07 63.236V59.86h-3.293v3.375h-1.605v-8.034h1.605v3.076h3.294v-3.076h1.607v8.034zM107.17 63.236v-8.034h5.578v1.57h-3.97v1.39h2.307v1.56h-2.308v1.94h4.144v1.574zM117.763 56.761h-2.1v2.067h2.1c.746 0 1.149-.343 1.149-1.043 0-.724-.435-1.024-1.149-1.024zm.952 6.474l-1.433-2.891h-1.618v2.891h-1.608v-8.033h3.741c1.517 0 2.766.837 2.766 2.547 0 1.207-.515 1.963-1.537 2.365l1.537 3.121h-1.848zM126.752 63.236l-2.951-4.386c-.196-.297-.46-.7-.562-.907 0 .3.022 1.308.022 1.758v3.535h-1.583v-8.034h1.537l2.846 4.245c.196.298.46.7.564.909 0-.301-.022-1.31-.022-1.758v-3.396h1.583v8.034h-1.434zM133.006 63.236h1.608v-8.033h-1.608zM139.927 56.761h-2.1v2.067h2.1c.746 0 1.146-.343 1.146-1.043 0-.724-.434-1.024-1.146-1.024zm.953 6.474l-1.436-2.891h-1.618v2.891h-1.605v-8.033h3.74c1.514 0 2.766.837 2.766 2.547 0 1.207-.517 1.963-1.538 2.365l1.538 3.121h-1.847zM144.072 63.236v-8.034h5.576v1.57h-3.97v1.39h2.304v1.56h-2.304v1.94h4.144v1.574zM150.957 63.236v-8.034h1.605v6.448h4.03v1.586zM161.15 58.461a23.3 23.3 0 0 1-.402-1.251c-.082.299-.243.78-.403 1.251l-.516 1.457h1.836l-.516-1.457zm1.696 4.775l-.631-1.792h-2.937l-.63 1.792h-1.722L160 55.202h1.562l3.053 8.034h-1.77zM170.377 63.236l-2.95-4.386c-.195-.297-.457-.7-.563-.907 0 .3.025 1.308.025 1.758v3.535h-1.585v-8.034h1.536l2.848 4.245c.196.298.461.7.565.909 0-.301-.025-1.31-.025-1.758v-3.396h1.583v8.034h-1.434zM175.53 56.761h-.849v4.912h.792c1.686 0 2.456-.988 2.456-2.455 0-1.642-.7-2.457-2.4-2.457m-.056 6.474h-2.4v-8.033h2.515c2.295 0 3.993 1.079 3.993 4.016 0 2.822-2.042 4.017-4.108 4.017" mask="url(#b)"/>
        </g>
    </g>
</svg>
