<?xml version="1.0" encoding="UTF-8"?>
<svg width="20px" height="20px" viewBox="0 0 20 20" version="1.1" xmlns="http://www.w3.org/2000/svg" xmlns:xlink="http://www.w3.org/1999/xlink">
    <title>CDFC8387-020A-4843-A71C-1951C84406F5</title>
    <defs>
        <path d="M19.7280055,17.2942337 L15.8331894,13.3994176 C15.6573952,13.2236235 15.4190966,13.1259601 15.1690783,13.1259601 L14.532313,13.1259601 C15.6105168,11.746953 16.2511887,10.0124511 16.2511887,8.12559434 C16.2511887,3.63698477 12.6142039,0 8.12559434,0 C3.63698477,0 0,3.63698477 0,8.12559434 C0,12.6142039 3.63698477,16.2511887 8.12559434,16.2511887 C10.0124511,16.2511887 11.746953,15.6105168 13.1259601,14.532313 L13.1259601,15.1690783 C13.1259601,15.4190966 13.2236235,15.6573952 13.3994176,15.8331894 L17.2942337,19.7280055 C17.6614481,20.0952199 18.2552415,20.0952199 18.6185493,19.7280055 L19.724099,18.6224559 C20.0913133,18.2552415 20.0913133,17.6614481 19.7280055,17.2942337 Z M8.12559434,13.1259601 C5.36367357,13.1259601 3.12522859,10.8914216 3.12522859,8.12559434 C3.12522859,5.36367357 5.35976704,3.12522859 8.12559434,3.12522859 C10.8875151,3.12522859 13.1259601,5.35976704 13.1259601,8.12559434 C13.1259601,10.8875151 10.8914216,13.1259601 8.12559434,13.1259601 Z" id="path-1"></path>
    </defs>
    <g id="Onboarding-flow---v0.5" stroke="none" stroke-width="1" fill="none" fill-rule="evenodd">
        <g id="Beta-03" transform="translate(-547.000000, -432.000000)">
            <g id="Group-9" transform="translate(137.000000, 343.000000)">
                <g id="icons-and-images/icons/search" transform="translate(410.000000, 89.000000)">
                    <mask id="mask-2" fill="white">
                        <use xlink:href="#path-1"></use>
                    </mask>
                    <use id="Mask" fill="#04043F" xlink:href="#path-1"></use>
                </g>
            </g>
        </g>
    </g>
</svg>
