<svg width="18" height="18" viewBox="0 0 18 18" fill="none" xmlns="http://www.w3.org/2000/svg">
<g clip-path="url(#clip0_1699_2163)">
<path fill-rule="evenodd" clip-rule="evenodd" d="M7.77589 13.722C6.26697 13.8589 4.79933 13.386 3.64011 12.4016C1.2472 10.3681 0.933108 6.74217 2.94069 4.31856C4.06024 2.96784 5.66793 2.27198 7.28695 2.27198C8.57164 2.27198 9.86443 2.7113 10.9249 3.61205C12.0841 4.59641 12.7949 5.97992 12.9268 7.50687C13.0588 9.03299 12.5957 10.5206 11.6235 11.6943C10.6505 12.868 9.28401 13.5884 7.77589 13.722ZM18 15.5071L13.5606 11.7361C14.3256 10.4247 14.6737 8.91169 14.5393 7.36344C14.3702 5.40128 13.4562 3.62271 11.9651 2.35558C8.88816 -0.258992 4.28286 0.148357 1.70133 3.26536C-0.881003 6.38072 -0.477867 11.0427 2.59908 13.6573C3.92344 14.7826 5.56107 15.3834 7.26914 15.3834C7.48447 15.3834 7.70061 15.3744 7.91756 15.3555C9.44591 15.2203 10.8569 14.6097 11.9999 13.6196L16.4385 17.3914L18 15.5071Z" fill="#222222"/>
</g>
<defs>
<clipPath id="clip0_1699_2163">
<rect width="18" height="18" fill="white"/>
</clipPath>
</defs>
</svg>
