<?xml version="1.0" encoding="utf-8"?>
<!-- Generator: Adobe Illustrator 25.2.3, SVG Export Plug-In . SVG Version: 6.00 Build 0)  -->
<svg version="1.1" id="Layer_1" xmlns="http://www.w3.org/2000/svg" xmlns:xlink="http://www.w3.org/1999/xlink" x="0px" y="0px"
	 viewBox="0 0 2560 1786.66" style="enable-background:new 0 0 2560 1786.66;" xml:space="preserve">
<style type="text/css">
	.st0{opacity:0.1978;enable-background:new    ;}
	.st1{enable-background:new    ;}
	.st2{fill-rule:evenodd;clip-rule:evenodd;fill:#B0B0CB;}
	.st3{fill:#E9E7ED;}
	.st4{fill:#B3C7E7;}
	.st5{fill:#F5F4F9;}
	.st6{fill:#007FA6;}
	.st7{fill:#1C172F;}
	.st8{opacity:0.15;}
	.st9{clip-path:url(#SVGID_3_);fill:#352B5A;}
	.st10{fill:#EB4F4D;}
	.st11{fill:#ED7C7D;}
	.st12{clip-path:url(#SVGID_5_);fill:#352B5A;}
	.st13{fill:#AD1F27;}
	.st14{opacity:0.05;}
	.st15{clip-path:url(#SVGID_7_);fill:#352B5A;}
	.st16{fill:#E8D1BB;}
	.st17{fill:#352B5A;}
	.st18{fill:#402000;}
	.st19{fill:#E41F13;}
	.st20{clip-path:url(#SVGID_9_);fill:#C4B99E;}
	.st21{fill:#CF061F;}
	.st22{clip-path:url(#SVGID_11_);fill:#7D5E49;}
	.st23{clip-path:url(#SVGID_13_);fill:#CA9D7F;}
	.st24{clip-path:url(#SVGID_15_);fill:#CA9D7F;}
	.st25{clip-path:url(#SVGID_17_);fill:#7D5E49;}
	.st26{clip-path:url(#SVGID_19_);fill:#7D5E49;}
	.st27{clip-path:url(#SVGID_21_);fill:#C8AE80;}
	.st28{clip-path:url(#SVGID_23_);fill:#CF061F;}
	.st29{clip-path:url(#SVGID_25_);fill:#CF061F;}
	.st30{opacity:0.51;}
	.st31{clip-path:url(#SVGID_27_);fill:#CF061F;}
	.st32{fill:#282149;}
	.st33{clip-path:url(#SVGID_29_);fill:#CF061F;}
	.st34{clip-path:url(#SVGID_31_);fill:#352B5A;}
	.st35{fill:#00A29A;}
	.st36{opacity:0.5;}
	.st37{fill:#5158A1;}
	.st38{fill:#4D4D4D;}
	.st39{fill:#1D1247;}
	.st40{fill:#B3B3B3;}
	.st41{fill:#FFFFFF;}
	.st42{clip-path:url(#SVGID_37_);fill:#352B5A;}
	.st43{fill:#006DD0;}
	.st44{fill:#4B426D;}
	.st45{fill:#C9C5DA;}
	.st46{fill:#D2D0DA;}
	.st47{fill:#F2F2F2;}
	.st48{fill:#29ABE2;}
	.st49{fill:#F19EC3;}
	.st50{fill:#C9C9C9;}
	.st51{fill:#BF2121;}
	.st52{clip-path:url(#SVGID_39_);fill:#352B5A;}
	.st53{fill:#F9F0D4;}
	.st54{fill:#C1272D;}
	.st55{fill:#666666;}
	.st56{fill:#6D111A;}
	.st57{clip-path:url(#SVGID_41_);fill:#007FA6;}
	.st58{clip-path:url(#SVGID_43_);fill:#352B5A;}
	.st59{fill:#75C67C;}
	.st60{fill:#01776E;}
	.st61{clip-path:url(#SVGID_45_);fill:#352B5A;}
	.st62{fill:#FFDC6E;}
	.st63{fill:#E7E5EB;}
	.st64{opacity:0.1;}
	.st65{clip-path:url(#SVGID_47_);fill:#352B5A;}
	.st66{opacity:0.8;}
	.st67{fill:#7F5EA3;}
	.st68{clip-path:url(#SVGID_49_);fill:#352B5A;}
	.st69{fill:#E63A3C;}
	.st70{fill:#BCE7D0;}
	.st71{clip-path:url(#SVGID_51_);fill:#F19EC3;}
</style>
<g>
	<g>
		<g class="st0">
			<g>
				<g>
					<g class="st1">
						<g>
							<g>
								<g>
									<path id="SVGID_1_" class="st2" d="M1348.13,2629.16c84.08-14.86,169.98,10.97,231.87,69.78c1.85,1.76,3.71,3.52,5.59,5.26
										c349.96,327.16,899.35,326.91,1248.87-0.7c378.68-354.97,385.94-949.86,21.75-1314.01
										c-130.99-130.97-291.82-213.87-460.61-248.75c-83.37-17.23-154.47-71.78-189.99-149.14
										c-56.26-122.53-134.84-237.32-235.76-338.24c-455.7-455.64-1194.25-456.1-1650.52-1.39
										c-456.47,454.91-457.1,1197.43-1.38,1653.09C598.2,2585.26,985.39,2693.25,1348.13,2629.16z"/>
								</g>
							</g>
						</g>
					</g>
				</g>
			</g>
		</g>
	</g>
</g>
<g>
	<rect x="1651.85" y="326.03" class="st3" width="787.24" height="580.28"/>
	<rect x="1690" y="364.36" class="st4" width="716.51" height="473.36"/>
	<path class="st5" d="M1690.97,440.99l-0.39-1.44c0.86-0.23,87.12-23.13,217.72-34.95c120.54-10.91,304.59-14.35,496.88,31.21
		l-0.35,1.45c-192.1-45.52-375.98-42.07-496.4-31.17C1777.96,417.89,1691.82,440.76,1690.97,440.99"/>
	<path class="st5" d="M2071.48,825.09c-47.87,0-97.18-3.3-147.42-9.87c-136.26-17.83-233.33-54.13-234.29-54.49l0.53-1.4
		c0.96,0.36,97.9,36.6,234,54.41c79.92,10.45,157.51,12.6,230.6,6.37c91.35-7.78,175.91-28.73,251.32-62.26l0.61,1.37
		c-75.57,33.61-160.29,54.6-251.82,62.39C2127.74,823.93,2099.86,825.09,2071.48,825.09"/>
	<rect x="1690.03" y="603.13" class="st5" width="715.73" height="1.5"/>
	<path class="st5" d="M1690.05,518.71l-0.04-1.5c5.12-0.15,514.13-14.82,715.79-3.73l-0.08,1.49
		C2204.12,503.9,1695.16,518.56,1690.05,518.71"/>
	<path class="st5" d="M1908.08,687.53c-84.65,0-162.88-1.1-218.1-4.13l0.08-1.5c201.59,11.08,710.55-3.59,715.67-3.73l0.04,1.49
		C2402.06,679.76,2132.59,687.53,1908.08,687.53"/>
	<rect x="2040.42" y="364.06" class="st5" width="1.5" height="473.67"/>
	<path class="st5" d="M1972.49,837.27c-31.21-75.05-50.64-146.64-57.73-212.78c-5.68-52.94-3.52-102.53,6.42-147.4
		c16.94-76.46,51.12-113.18,51.46-113.54l1.09,1.03c-0.34,0.36-34.28,36.85-51.11,112.95c-28.16,127.29,12.33,265.58,51.26,359.17
		L1972.49,837.27z"/>
	<path class="st5" d="M1849.29,838.14c-45.56-68.76-74.54-136.49-86.14-201.31c-9.28-51.88-7.52-102.03,5.26-149.04
		c21.75-80.07,68.57-123.85,69.04-124.28l1.01,1.1c-0.47,0.43-47.01,43.98-68.63,123.65c-12.7,46.79-14.44,96.7-5.19,148.36
		c11.57,64.6,40.47,132.12,85.9,200.69L1849.29,838.14z"/>
	<path class="st5" d="M2127.37,837.27l-1.38-0.57c38.94-93.63,79.44-231.96,51.23-359.29c-16.85-76.06-50.74-112.48-51.08-112.84
		l1.09-1.03c0.34,0.36,34.52,37.08,51.46,113.54c9.94,44.86,12.1,94.46,6.42,147.4C2178.01,690.63,2158.59,762.22,2127.37,837.27"/>
	<path class="st5" d="M2250.58,838.14l-1.24-0.82c45.44-68.59,74.35-136.14,85.91-200.75c9.25-51.67,7.49-101.59-5.23-148.38
		c-21.64-79.65-68.15-123.14-68.61-123.57l1.01-1.1c0.47,0.44,47.29,44.22,69.04,124.28c12.77,47.01,14.54,97.15,5.26,149.04
		C2325.12,701.65,2296.13,769.38,2250.58,838.14"/>
	<path class="st6" d="M1891.19,821.19c-1.16-1.15-2.31-2.31-3.48-3.45c-0.48-0.47-1.03-1.31-1.49-1.27
		c-8.45,0.75-10.77-7.74-16.23-11.42c-1.77-1.19-2.13-6.58-5.94-8.25c2.23-3.5,1.28-8.64-2.63-11.83
		c-6.15-5.03-7.33-12.49-9.68-19.3c-1.88-5.46-2.91-11.24-4.15-16.91c-1.83-8.39-3.74-16.78-5.19-25.25
		c-1.49-8.71-3.95-15.83-12.72-20.84c-5.28-3.02-8.25-10.25-11.93-15.8c-2.8-4.22-5.1-8.77-7.63-13.17
		c-2.21-3.84-1.91-7.31,1.59-10.21c-4.29-4.94-1.49-9.52,1.28-13.05c5.97-7.63,4.95-15.29,1.81-24.6c-1.68,2.31-2.77,3.8-4.04,5.54
		c-5.3-3.24-10.04-6.89-11.81-13.7c-0.61-2.34-3.42-4.19-5.42-6.06c-2.31-2.16-4.73-4.25-7.33-6.06c-1.51-1.05-3.42-1.57-5.21-2.13
		c-1.81-0.56-3.98-0.41-5.48-1.38c-3.2-2.05-6.42-4.3-8.99-7.07c-2.33-2.52-5.17-5.29-2.69-9.65c0.88-1.55,0.87-4.01,0.43-5.85
		c-2.25-9.47-5.97-18.69-4.2-28.76c0.09-0.5-0.73-1.15-2.07-3.14c-2.42,10.73-0.41,20.2-1.04,30.17c-0.68-1.11-1.95-2.22-1.81-3.12
		c0.79-5.11-0.78-10.27-1.33-15.02c-0.85-7.28,4.25-15.35-2.11-21.96c1.79-7.5,2.17-15.75,5.71-22.3
		c4.61-8.52,11.73-15.69,17.95-23.67c0.85,0.51,1.85,1.11,2.97,1.78c2.64-3.67,3.69-7.17,0.89-11.04c-0.34-0.47-0.63-1.33-0.43-1.77
		c4.03-8.5,8.14-16.97,12.35-25.68c-1.47-0.76-2.82-1.47-4.26-2.22c0.35-1.6,0.66-3.02,0.97-4.39c-1.6-1.71-3.48-3.37-4.92-5.35
		c-2.21-3.03-3.87-1.27-6.34-0.27c-1.86,0.75-4.94,3.76-7.09-0.44c-0.24-0.47-2.56-0.33-3.63,0.15c-4.47,2-8.65,4.89-13.29,6.24
		c-7.94,2.33-16.14,3.75-24.23,5.55v-1.1c10.19-0.36,18.9-5.11,28.85-8.94c-2.89-1.11-4.72-1.8-7.12-2.72
		c1.96-1.56,3.55-2.83,6.17-4.91c-2.37,0.37-3.44,0.53-4.71,0.73c2.13-5.47,9.5-10.3,14.54-10.06c3.77,0.18,7.62,0.12,9.87-3.88
		c-2.04-0.51-3.93-0.97-6.17-1.52c4.16-5.49,7.11-5.98,11.81-3.53c1.53,0.79,3.9-0.04,5.9-0.13c-2.51-6.65-0.97-8.66,5.98-9.15
		c5.69-0.4,11.33-2.01,17-2.05c3.01-0.02,6.41,1.64,8.98,3.46c4.56,3.23,8.62,7.16,13.41,11.25c9.97-1.67,19.98-0.21,27.88,9.36
		c-1.27,0.68-2.37,1.28-4.23,2.28c3.03,0.94,5.28,1.86,7.62,2.29c1.84,0.34,3.78,0.07,5.23,0.07c-2.91-2.73-5.62-5.28-8.33-7.83
		c0.38-0.66,0.77-1.33,1.15-1.99c2.58,0.17,5.16,0.34,8.4,0.56c-1.84-1.01-3.15-1.73-4.47-2.45c0.79-1.57,1.49-2.94,2.5-4.95
		c-3.2,0.62-5.46,1.06-7.6,1.48c-0.39-0.55-0.81-0.88-0.76-1.08c1.24-4.85,13.34-9.82,17.32-7.1c0.81,0.55,1.62,1.39,1.98,2.28
		c1.01,2.5,1.79,5.1,2.84,8.2c2.84-1.6,4.42-2.49,7.41-4.18c-2.64,4.99-4.54,8.59-6.44,12.18c0.29,0.65,0.58,1.31,0.87,1.97h-15.05
		c3.9,2.56,6.71,5.34,10.07,6.4c6.71,2.14,8.86,0.18,12.22-6.24c1.32-2.53,5.14-3.76,7.83-5.57l-0.08-0.05
		c-0.68,2.21-1.23,4.47-2.07,6.61c-0.59,1.5-1.6,2.83-2.67,4.68c1.69-0.16,2.46-0.24,3.23-0.32c0.4,0.43,0.79,0.87,1.19,1.3
		c-1.98,0.84-3.96,1.69-5.93,2.53c0.6,0.76,1.21,1.52,1.81,2.28c4.01-2.56,8.03-5.11,12.04-7.67l-0.13-0.11
		c1.46,1.83,2.21,2.8-0.4,5.09c-3.96,3.49-6.74,8.34-14.11,4.15c0.55,4.45,0.95,7.64,1.3,10.38h-10.63
		c3.16-2.53,5.12-4.09,7.08-5.66c-0.15-0.18-0.3-0.36-0.45-0.54c-7,2.89-14.14,5.51-20.96,8.76c-6.12,2.92-11.9,6.56-11.8,14.06
		c3.35,3.62,6.67,7.19,10.14,10.93c-1.37,3.19-3.02,7.02-4.67,10.85c0.86,0.49,1.72,0.98,2.58,1.46c1.91-2.55,3.69-5.21,5.78-7.61
		c1.43-1.64,3.12-3.17,4.97-4.29c3.8-2.29,6.39-4.92,8.35-9.35c2.17-4.92,6.83-8.86,10.92-12.69c0.56-0.52,4.24,1.91,6.15,3.39
		c0.98,0.77,1.26,2.44,1.34,2.61c-0.77,3.25-1.32,5.61-1.88,7.97c2.9-0.89,5.8-1.78,9.35-2.87c-0.98,3.17-2.15,6.57-3.04,10.03
		c-0.36,1.42-0.76,3.59-0.02,4.41c4.97,5.49,2.73,10.2-0.98,15.03c-0.75,0.97-1.27,2.53-1.09,3.7c0.4,2.64,1.3,5.21,2.17,8.49
		c-4.83-1.54-8.05-2.57-12.3-3.93c3.53-3.37,6.77-6.47,10.45-9.99c-8.54,1.5-16.56,2.87-24.55,4.37c-0.93,0.17-1.72,1.07-2.94,1.87
		c3.34-0.58,6.18-1.08,9.88-1.73c-5.46,7.77-5.46,7.77-0.41,12.6c-3.59,1.42-7.01,2.78-10.42,4.13c-0.25-0.27-0.49-0.54-0.74-0.82
		c1.55-1.41,3.1-2.83,4.64-4.24c-5.83,2.62-13.72,1.51-16.6,9.39c-0.06,0.17-0.07,0.43-0.19,0.51c-5.52,3.31-11.05,6.59-16.55,9.91
		c-0.42,0.25-0.91,0.75-0.98,1.2c-1.27,7.85-7.74,11.26-13.56,14.42c-5.18,2.82-6.71,6.57-7.2,11.8c-0.37,3.9-1.43,7.73-2.19,11.59
		c-0.71-0.09-1.43-0.19-2.14-0.28c-0.23-2.42-0.44-4.84-0.68-7.26c-0.26-2.48,0.15-6.66-0.96-7.12c-3.61-1.5-7.72-6.34-11.82-0.38
		c-0.43,0.62-2.03,0.86-2.96,0.67c-10.28-2.1-14-0.03-17.43,9.4c-1.17,3.22-3.57,6.04-4.42,9.31c-0.79,3-0.76,6.46-0.14,9.52
		c0.45,2.19,2.32,5.63,3.81,5.76c3.16,0.29,6.75-0.16,8.82-3.96c2.8-5.14,3.25-5.09,9.49-4.28c-2.63,5.24-5.28,10.5-7.9,15.73
		c0.42,0.36,0.66,0.73,0.95,0.78c10.19,1.62,9.97,1.58,8.15,11.98c-0.49,2.79,0.64,5.95,1.49,8.81c0.24,0.8,2.13,1.45,3.3,1.55
		c2.81,0.22,5.65,0.07,9.41,0.07c3.03-2.55,7.34-6.18,12.95-10.91c-0.5,2.79-0.68,3.83-0.68,3.82c2.67,0.89,5.11,1.74,7.58,2.51
		c2.07,0.64,4.42,2.1,6.21,1.61c7.98-2.18,10.01,4.73,13.56,8.76c2.11,2.4,3.46,4.58,7.14,4.74c7.14,0.31,12.79,10.11,10.3,16.53
		c5.92,2.59,11.6,6.41,17.75,7.42c6.56,1.07,11.2,5.01,16.15,8.2c2,1.3,1.59,6.84,1.62,10.45c0.01,1.59-1.7,3.16-2.48,4.81
		c-2.11,4.43-5.21,8.35-3.68,14.07c0.95,3.55,0.45,7.72-0.28,11.44c-0.91,4.65-0.61,9.64-7.44,11.73
		c-6.57,2.01-6.27,5.97-6.38,13.07c-0.11,7.04-2.65,14.11-4.7,20.99c-0.34,1.13-3.65,1.38-5.51,2.01c0.78,2.38,2.87,5.45,2.3,7.9
		c-0.54,2.32-3.86,3.99-6.65,6.58c0.08,0.47,0.37,2.24,0.72,4.43c-1.12,0.47-2.51,1.05-4.27,1.79c3.73,3.78,5.52,7.86,3.57,13.2
		c-0.39,1.06,1.94,3.09,2.98,4.69c0.87,1.35,2.38,2.72,2.41,4.11c0.24,10.26,3.2,14.5,14.48,18.79
		C1895.01,819.97,1893.1,820.58,1891.19,821.19 M1846.05,509c0.15-0.82,0.83-2.31,0.57-3.61c-0.43-2.2-0.87-5.19-4.37-3.91
		c-2.94,1.08-5.72,2.64-8.91,4.16c4.3,1.21,7.94,2.23,11.58,3.24c-8.96,1-11.07,7.87-13.54,14.47c3.79-4.04,7.59-8.08,11.38-12.12
		l1.47,1.15c-0.33,2.13-0.67,4.25-1.08,6.9c3.19-1.9,5.25-3.12,8.44-5.02C1849.83,512.6,1848.15,511,1846.05,509"/>
	<path class="st6" d="M1953.9,397.03c0.66,0.69,1.26,1.89,2,1.98c6,0.72,12.04,1.14,18.02,1.96c0.67,0.09,1.08,2.16,1.6,3.3
		l0.14-0.06c-5.7,1.43-11.37,3.04-17.12,4.23c-7.68,1.59-14.38,5.01-21.18,8.87c-2.87,1.63-8.05-0.79-12.18-1.37l0.04-1.65
		c2.76-0.77,5.52-1.54,9.98-2.78c-2.93-1.11-4.82-1.83-6.75-2.56c1.02-6.79,2.09-7.71,10.92-9.38c0.42,2.03,0.84,4.05,1.28,6.13
		c1.35-0.54,2.59-1.02,3.15-1.25c-0.21-1.73-1.06-3.72-0.41-4.82c0.6-1.02,2.79-1.17,4.32-1.57c1.67-0.43,3.39-0.71,5.08-1.05
		H1953.9z"/>
	<path class="st6" d="M2010.31,511.29c2.16-1.42,4.35-2.8,6.48-4.27c1.19-0.82,2.19-2.4,3.42-2.58c4.57-0.67,5.88-3,5.37-7.46
		c-0.17-1.46,1.87-3.18,3.63-5.92c0.32,2.3,0.61,3.24,0.53,4.13c-0.19,2.12-0.56,4.22-0.86,6.33c3,0.04,6,0.21,8.99,0.08
		c1.58-0.07,3.33-1.28,4.67-0.87c3.79,1.17,4.67-1.14,4.91-3.8c0.36-4.06,1.82-5.69,6.22-2.79c-0.3-2.58-0.5-4.3-0.76-6.53
		c3.32-0.49,6.56-0.97,9.8-1.45c0.02-0.54,0.04-1.09,0.06-1.63c-1.86-0.13-3.73-0.16-5.57-0.41c-2.1-0.28-5.89-0.53-5.97-1.16
		c-0.31-2.48,0.01-5.39,1.14-7.6c1.2-2.32,3.59-4.02,5.99-6.54c-2.71-1.98-4.59-1.61-6.43,1.28c-1.02,1.61-2.17,3.39-3.73,4.35
		c-4.42,2.73-5.48,6.06-2.67,10.64c-3.39,4.61-6.76,9.17-10.11,13.73c-0.52-0.28-1.05-0.56-1.58-0.84c-0.52-3.65-1.04-7.31-1.5-10.5
		c-3.07,0.74-5.67,1.35-8.26,1.97c0.17-3.14,0.15-6.32,0.61-9.42c0.15-1.02,1.41-2.17,2.45-2.71c8.65-4.52,13.5-12.95,20.27-19.39
		c4.71-4.49,10.63-6.9,17.22-6.58c1.36,0.06,2.45,2.52,3.95,3.34c3.61,1.98,7.48,3.48,11.06,5.51c1.21,0.68,1.85,2.36,2.75,3.58
		c-1.5,0.84-2.97,2.34-4.49,2.37c-2.27,0.05-4.57-0.93-7.65-1.67c1.73,3.28,3.27,6.18,4.8,9.08c0.54-0.23,1.08-0.46,1.63-0.68
		c-0.14-0.71-0.27-1.43-0.49-2.57c1.42,0.18,2.72,0.35,2.69,0.34c2.65-2.53,4.6-4.4,7.47-7.14v-5.32c1.24,0.77,2.34,1.06,2.52,1.64
		c0.39,1.28,0.32,2.7,0.43,4.06c1.18-0.91,2.22-2.22,3.55-2.64c4.55-1.44,9.22-2.5,13.8-3.84c1.24-0.36,2.34-1.21,3.5-1.84
		c0.01-0.59,0.01-1.18,0.02-1.78c3.5,1.23,6.99,2.46,11.94,4.2c-5.71-4.76-4.88-9.4-2.03-15.47c1.57,1.57,4.01,3,3.85,4.01
		c-0.94,5.82,9.45,11.33,1.05,18.08c1.64-1.04,4.18-1.75,4.7-3.19c0.66-1.82-0.1-4.3-0.67-6.37c-0.88-3.23-2.11-6.37-3.19-9.54
		c0.44-0.16,0.88-0.32,1.31-0.48c0.71,1.06,1.42,2.11,1.79,2.67c1.78-1.48,3.39-2.8,5.24-4.34c-0.12-0.54-0.37-1.69-0.64-2.92
		c2.23-0.54,4.16-1,6.22-1.5c-0.68-6.45,4.33-7.16,8.39-7.78c3.05-0.47,5.13-0.58,5.64-4.22c0.12-0.86,2.44-2.07,3.67-1.98
		c2.8,0.2,5.51,1.37,8.32,1.68c4.88,0.55,6.56,3.53,4.04,7.65c-0.74,1.21-1.43,2.46-2.92,5.06c6.34-4.26,11.9-4.6,17.73-2.63
		c1.07,0.36,2.98,0.21,3.62-0.51c3.89-4.32,7.03-2.56,10.06,0.91c2.4,2.75,4.5,5.11,8.55,1.9c1.51-1.2,4.41-0.65,7.09-0.94
		c-0.18-1.47-0.36-2.9-0.7-5.63c5.94,0.93,11.27,1.88,16.64,2.56c2.42,0.3,4.91,0.04,7.37,0.04c2.32,0.01,5.51-0.93,6.79,0.23
		c3.46,3.13,6.76,2.28,10.58,1.57c3.04-0.57,6.27-0.11,9.71-0.11c-0.58-0.69-1.35-1.61-2.42-2.87c14.36-3.64,26.68,4.92,40.3,4.58
		c0.25,2.47,0.44,4.37,0.65,6.47c-3.63,2.47-10.61-6.53-12.08,3.39c2.46,1.53,5.07,3.14,6.61,4.1c-2.19,3.86-4.15,7.31-6.06,10.67
		c-2.62,0.97-5.65,2.09-10.17,3.76c7.19,8.76,12.58,17.37,9.74,29.48c-4.5-5.69-10.16-10.36-12.32-16.3
		c-2.05-5.64-0.44-12.61-0.44-19l-1.61-0.14c-0.64,1.23-1.29,2.45-1.59,3.03c-2.56-0.31-4.9-0.59-7.23-0.87
		c-0.14,2.83-0.28,5.66-0.46,9.37c0.44-0.21-0.34,0.43-1.16,0.51c-4.48,0.41-9.02,0.37-13.42,1.16c-1.44,0.26-3.13,2.35-3.65,3.94
		c-1.17,3.61-1.68,7.44-2.63,12.02c4.69,1.11,9.34,2.22,14.2,3.38c0.07-0.16,0.45-0.96,1.44-3.1c4.52,8.05,8.6,15.31,12.68,22.56
		c-0.55,0.37-1.1,0.73-1.64,1.1c-3.23-5.6-6.47-11.21-9.7-16.82c-0.49,0.25-0.98,0.49-1.47,0.73c0.41,1.31,0.57,2.78,1.26,3.92
		c4.44,7.28,2.44,14.82,0.96,22.3c-0.2,1.04-1.75,2.73-2.43,2.62c-5.19-0.88-5.02,2.23-5.04,5.83c-0.01,1.66-1.2,3.32-1.73,4.66
		c2.81,3.92,5.52,7.7,8.52,11.9c-2.08,1.51-3.49,2.53-5.38,3.9c-0.6-1.7-0.82-3.11-1.53-4.22c-2.32-3.65-4.55-7.43-7.44-10.6
		c-0.74-0.81-3.76,0.46-6.08,0.82c-0.32-1.11-0.74-2.55-1.38-4.78c-2.24,2.92-4.02,5.24-6.69,8.73c4.36,1,8,1.83,12.1,2.77
		c-5.08,3.06-4.5,5.91-1.07,10.07c8.92,10.81,7.42,19.31,1.05,29.21c-2.05,3.19-7.03,4.5-10.65,6.7c-1.18,0.72-2.31,1.52-2.34,1.54
		c-2.84,0-5.95-0.72-6.47,0.14c-1.42,2.36-2.64,5.5-2.25,8.08c0.32,2.14,2.98,3.99,4.72,5.86c5.45,5.88,5.28,11.5-0.48,17.18
		c-1.23,1.21-2.18,2.72-2.73,3.43c-4.22-4.29-8.11-8.24-12.26-12.45c-3.54,9.08-0.81,15.11,5.42,20.98
		c2.75,2.59,3.07,7.77,4.72,12.41c-4.75-0.61-6.54-3.45-8-6.79c-1.73-3.94-3.61-7.82-5.38-11.75c-0.28-0.62-0.38-1.34-0.47-2.03
		c-0.94-7.09-1.86-14.19-2.87-21.94c-3.37,1.18-5.26,1.85-5.73,2.01c-3.69-6.37-7-12.09-10.07-17.38
		c-11.47,2.42-14.18,13.48-21.68,19.42c-1.11,0.88-1.05,3.65-0.98,5.52c0.27,8.05-0.33,10.01-6.53,16.46
		c-4.42-12.54-8.58-24.33-12.82-36.38c-2.7,1.06-4.74,1.64-6.57-3.89c-1.17-3.53-5.61-9.46-13.14-7.34
		c-4.76,1.34-10.57,1.53-14.29-3.75c-0.25-0.35-1.32-0.37-1.91-0.19c-5.57,1.67-8.55-1.79-10.99-5.77
		c-1.53-2.48-2.79-4.42-6.88-1.59c3.08,4.72,6.19,9.49,10.15,15.55c2.59-1.35,5.59-2.92,8.31-4.34c1.09,1.2,2.33,3.42,4.21,4.48
		c4.09,2.3,4.18,4.72,1.71,8.35c-7.06,10.38-19.99,19.26-32.05,21.61c-1.85-5.42-3.3-11.05-5.67-16.25
		c-3.51-7.68-7.62-15.09-11.63-22.53c-0.54-0.99-2.04-1.47-3.09-2.18c-0.12,1.27-0.7,2.72-0.29,3.79
		c3.56,9.39,7.28,18.71,11.03,28.03c0.38,0.95,1.27,1.69,1.86,2.57c2.19,3.27,4.14,6.72,6.6,9.75c1.04,1.28,3.24,2.48,4.78,2.33
		c3.95-0.37,7.83-1.5,12.31-2.45c0.09,1.39,0.64,2.92,0.19,4.05c-3.18,7.92-5.76,16.09-12.51,22.18c-4.15,3.74-7.68,8.3-10.88,12.92
		c-3.83,5.52-2.59,11.66-1.14,17.8c1.07,4.54,2.12,9.28,1.84,13.85c-0.15,2.35-3,4.76-5.04,6.71c-4.09,3.93-9.41,6.86-6.08,14.27
		c1.14,2.52,0.77,6.22-3.26,7.63c-0.87,0.31-1.54,1.74-1.94,2.79c-1.26,3.32-2.42,6.69-3.5,10.08
		c-3.47,10.97-12.95,12.25-22.21,13.43c-1.24,0.16-3.32-2.37-4.19-4.08c-1.62-3.18-2.6-6.67-3.91-10.02
		c-1.7-4.36-3.52-8.67-5.18-13.04c-1.54-4.06-2.13-8.76-4.57-12.14c-4.32-5.98-4.81-12.56-1.87-18.14
		c3.05-5.79,0.82-10.62,0.06-15.71c-0.55-3.66-2.05-7.77-4.49-10.42c-4.24-4.6-4.72-9.27-3.54-14.96c1.29-6.24,0.2-7.17-5.97-7.28
		c-1.18-0.02-3.06-0.84-3.41-1.76c-2.16-5.61-6-3.69-9.96-2.8c-6.38,1.44-13.08,4.04-19.22,3.17c-4.33-0.61-8.29-5.86-11.77-9.63
		c-2.26-2.45-2.87-6.4-5.11-8.88c-3.7-4.09-2.84-8.15-1.78-12.76c0.99-4.32,1.12-8.83,1.58-13.26c0.07-0.68-0.47-1.63-0.16-2.05
		c4.49-6.29,9.05-12.54,13.65-18.75c1.96-2.65,4.05-5.2,6.08-7.8c1.76-2.25,3.39-4.62,5.3-6.73c1.67-1.84,3.64-3.4,4.59-4.26
		c4.73-0.75,8.65-1.4,12.59-1.99c6.58-0.99,13.16-2.03,19.78-2.76c0.64-0.07,2.09,1.86,2.14,2.9c0.1,2.05-0.53,4.14-0.91,6.56
		c5.52,3.15,11.32,6.47,17.55,10.02c0.51-1.37,1.01-2.27,1.17-3.22c0.71-4.11,3.5-4.91,6.33-2.91c6.43,4.56,13.82,3.25,20.83,4.16
		c0.96,0.12,2.75-0.95,3.05-1.84c1.42-4.19,2.45-8.5,3.62-12.79c-5.11,0-9.15,0.63-12.87-0.19c-3.15-0.7-6.06-2.59-5.97-7.13
		c0.04-1.64,1.6-6.13-2.75-5.61c-2.87,0.34-5.12,2.41-4.18,6.31c0.38,1.58-0.55,3.48-1.62,5.35c-4.44-9.36-6.47-19.95-16.24-25.76
		c-1.76,5.05-0.35,7.44,7.93,14.39c-1.38,2.16-2.67,4.19-3.48,5.46c-3.94-5.19-8.05-10.6-11.68-15.38
		c-3.62,0.45-6.81,0.84-9.99,1.24c-0.36,0.04-0.84,0.01-1.05,0.22c-3.45,3.58-7.83,6.68-10.08,10.9c-4.09,7.68-7.78,9.7-15.84,6.38
		c-0.63-0.26-1.4-0.18-3.04-0.37c1.16-5.67,2.08-11.09,3.5-16.38c0.28-1.04,2.39-1.96,3.79-2.22c1.55-0.29,3.25,0.31,4.9,0.42
		c2.76,0.18,6,1.68,7.3-2.5c1.21-3.89,1.75-7.55-2.76-9.85c-0.42-0.21-0.62-0.83-0.33-0.41c4.23-2.89,8.38-5.72,12.53-8.55
		L2010.31,511.29z M2055.55,544.33c7.4-4.99,14.13-7.06,21.43-3c0.69,0.38,1.87,0.24,2.68-0.05c1.28-0.46,3.15-1.03,3.44-1.97
		c0.31-1-0.63-2.75-1.53-3.7c-1.98-2.09-4.28-3.87-6.46-5.77c0.72-1.75,1.44-3.49,2.51-6.11c-3.09,1.03-5.22,1.75-7.75,2.6
		c0.88,1.37,1.5,2.35,2.21,3.45c-1.3,0.52-2.42,0.97-3.11,1.24c-1.67-2.12-3.04-3.84-4.41-5.57c-1.54,1.58-3.15,3.1-4.61,4.75
		c-0.68,0.77-1.31,1.72-1.58,2.69C2057.47,536.18,2056.73,539.51,2055.55,544.33 M2108.55,552.67c-1.51-6.47-1.64-12.88-6.08-18.14
		c-0.87-1.03-0.06-3.68,0.34-5.5c0.28-1.23,1.22-2.31,1.86-3.46c-1.48-0.28-3.12-1.11-4.41-0.74c-6.39,1.87-7.56,6.17-3.94,12.72
		c1.23,2.23,2.96,4.86,2.72,7.11C2098.25,551.69,2100.78,554.39,2108.55,552.67"/>
	<path class="st6" d="M2236.67,752.7c0.65-6.86,1.25-12.09,1.62-17.34c0.3-4.31-0.01-8.69,0.55-12.95
		c0.83-6.23,5.33-9.17,10.98-10.6c5.17-1.31,9.5-2.71,12.17-8.61c1.84-4.05,7.17-6.5,11.2-9.9c2.12,2.65,3.66,5.9,6.3,0.19
		c2.84-6.15,5.94-6.44,15.67-3.85c-1.11,2.43-2.21,4.81-3.5,7.63c2.85,2.67,5.74,5.36,10.05,9.38c2.33-7.53,4.33-13.98,6.33-20.43
		c0.39,0.04,0.78,0.08,1.16,0.12c1.49,7.4,2.62,14.9,4.6,22.17c1.5,5.51,3.8,10.85,6.21,16.06c4.99,10.75-0.62,18.94-6.27,27.05
		c-2.49,3.57-6.41,6.31-8.28,10.11c-2.33,4.75-6.42,6.24-10.57,7.46c-2.47,0.73-5.53-0.2-8.25-0.75c-4.02-0.81-3.92-3.66-3.75-7.12
		c0.12-2.41-1.56-4.9-2.56-7.68c-0.71,0.37-1.87,0.99-3.06,1.61c-2.23-10.39-11.18-12.59-21.92-6.4
		c-4.76,2.74-10.54,3.79-15.97,5.18C2238.26,754.33,2236.66,752.69,2236.67,752.7"/>
	<path class="st6" d="M1975.52,404.28c5.19,1.06,10.39,2.13,15.71,3.22c4.84-5.8,16.16-5.43,26.64,1.03
		c-0.96,0.9-1.96,1.84-2.96,2.78c0.21,0.43,0.41,0.86,0.62,1.29c1.66-0.3,3.33-0.84,4.99-0.82c1.4,0.02,2.79,0.69,4.23,1.67
		c-7.43,2.6-12.55,7.08-16.28,14.51c-0.09,0.01-1.45,0.16-2.81,0.31c0.37,0.39,0.74,0.78,1.11,1.17c-2.19,3.07-4.38,6.15-6.74,9.47
		c-0.97-0.3-2.14-0.65-2.92-0.89c-0.72,3.45-1.41,6.72-1.91,9.08c-3.26-0.61-5.76-1.08-8.26-1.55c-0.14,0.66-0.27,1.33-0.41,1.99
		c1.77,0.5,3.54,1.01,6.96,1.97c-3.49,1.62-5.7,3.55-7.85,3.49c-9.14-0.24-15.93,6.13-24.3,8.2c-4.36,1.08-7.94,5.73-11.61,9.05
		c-2.11,1.91-3.7,4.39-5.57,6.67c-7.86-4.38-5.17-10.3-4.2-16.88c1.19-8.02,8.1-9.21,12.89-13.36c-0.84-1.73-1.51-3.11-2.55-5.28
		c1.6,0.62,2.58,1.01,3.56,1.39c0.38-0.25,0.76-0.49,1.14-0.74c-0.97-1.29-1.94-2.59-2.96-3.95c0.65-0.59,2.53-1.53,3.12-2.99
		c1.3-3.24,3.34-7.23,2.39-9.98c-0.69-1.99-5.71-2.48-9.11-3.76c0.54-1.79,1.31-4.39,2.42-8.09c9.21,1.61,16.3-5.5,24.78-9.06
		C1975.66,404.22,1975.52,404.28,1975.52,404.28"/>
	<path class="st6" d="M1906.83,436.73c-1.17-1.08-2.34-2.15-3.52-3.22c5.88-8.72,10.08-11.4,24.08-5.91
		c-0.28,1.61-0.79,3.29-0.78,4.97c0.01,1.2,0.72,2.38,1.19,3.79c0.01-0.01-0.66,0.51-1.57,1.2c3.39,1.18,5.94,2.09,2.14,5.2
		c-4.36,3.58,0.75,6.77,0.62,10.54c-1.84,1.1-3.85,2.3-6.1,3.65c-0.37-1.6-0.69-3-1.01-4.4c-0.59-0.15-1.18-0.3-1.77-0.45
		c-1.3,3.95-2.6,7.89-4.19,12.74c-1.64-1.76-2.42-2.6-3.7-3.98c-0.19,2.14-0.31,3.62-0.61,6.99c-2.42-3.09-5.11-4.95-5.11-6.81
		c0.01-4.69-2.07-6.03-6.49-6.37c0.93-0.54,2.05-1.73,2.75-1.52c4.72,1.44,8.35-1.52,10.95-4.01c2.45-2.34,2.9-6.76,4.41-10.72
		c-4.83-0.75-8.13-1.27-11.44-1.78C1906.7,436.62,1906.83,436.73,1906.83,436.73"/>
	<path class="st6" d="M2285.51,655.79c7.59-4.29,5.39,4.61,7.91,6.07c2.78-1.46,5.9-4.38,7.5-3.7c5.75,2.42,11.94,5.13,16.14,9.49
		c4.03,4.18,5.82,10.54,8.59,15.94c-0.3,0.41-0.61,0.82-0.91,1.23c-1.98-1.58-4.42-2.82-5.85-4.8c-3.7-5.09-3.89-5.09-8.37-0.94
		c-0.98,0.91-3.79,0.24-5.61-0.25c-1.71-0.46-3.24-1.64-4.9-2.53c2.2-4.97,1.43-7.08-4.08-9.73
		C2290.93,664.15,2290.3,663.51,2285.51,655.79"/>
	<path class="st6" d="M2237.17,649.44c5.18-5.07,10.36-10.13,15.85-15.5c0.55,1.86,1.2,4.06,1.86,6.25
		c-1.14,1.02-1.53,4.42,1.02,8.28c0.37,0.55-0.02,1.77-0.32,2.58c-1.15,3.13-2.5,6.19-3.59,9.34c-1.02,2.95-2.04,5.38-5.55,2.36
		c-0.38-0.33-1.01-0.41-1.54-0.54c-2.23-0.54-5.74-0.37-6.45-1.7c-1.86-3.5-2.5-7.64-3.62-11.53
		C2235.6,649.13,2236.39,649.29,2237.17,649.44"/>
	<path class="st6" d="M2102.47,686.86c0,3.18,0.55,6.48-0.11,9.52c-1.57,7.31-3.49,14.58-5.78,21.69c-0.56,1.74-3.08,2.84-4.7,4.24
		c-1.09-1.51-2.99-2.96-3.1-4.54c-0.21-3.03,1.43-6.33,0.8-9.18c-1.78-8.01,2.88-12.23,8.19-16.55c1.43-1.16,2-3.38,2.97-5.11
		L2102.47,686.86z"/>
	<path class="st6" d="M2226.02,659.78c0.85-0.72,1.45-1.22,2.06-1.73c0.4,0.75,1.23,1.57,1.11,2.23c-0.48,2.77-1.25,5.48-1.96,8.42
		c-4.75,0.34-6.6-3.56-8.44-6.5c-4.84-7.72-9.12-15.8-14.39-25.08C2214.76,642.39,2221.15,649.96,2226.02,659.78"/>
	<path class="st6" d="M2275.41,550.96c-2.15,3.92-3.88,7.07-5.84,10.64c-1.18-1.64-2.52-3.49-3.99-5.54
		c1.84-3.61,3.21-7.3,8.28-8.32c3.65-0.74,6.36-7.67,5.4-11.65c-0.37-1.52-0.95-2.99-1.5-4.66c6.42,0.94,4.61,2.46,7.29,16.29
		c-2.11,1.37-4.34,2.73-6.43,4.25c-0.46,0.34-0.48,1.28-1.37,3.98C2276.25,553.25,2275.71,551.77,2275.41,550.96"/>
	<path class="st6" d="M2010.47,511.17c-3.79,0.39-7.57,0.79-12.44,1.3c2.27-3.68,4.33-6.71,5.99-9.94c0.38-0.75-0.56-2.19-0.92-3.3
		c-1.39-4.33-1.7-8.35,3.56-11.73c1.02,5.18,2.06,9.78,2.8,14.43c0.49,3.1,0.56,6.25,0.84,9.38
		C2010.31,511.29,2010.47,511.17,2010.47,511.17"/>
	<path class="st6" d="M2320.54,795.76c3.72-2.06,7.56-3.94,11.14-6.24c3.46-2.22,6.64-4.86,11.37-6.97
		c-0.37,1.36-0.29,3.24-1.18,3.99c-4.89,4.15-9.89,8.22-15.16,11.86c-1.3,0.9-3.76,0.14-5.69,0.14
		C2320.86,797.62,2320.7,796.69,2320.54,795.76"/>
	<path class="st6" d="M1890.38,411.62c-1.45-0.29-2.71-0.55-5.07-1.02c2.82-1.28,4.59-2.08,7.87-3.58
		c-3.97-0.22-6.46-0.37-8.96-0.51c-0.05-0.41-0.11-0.81-0.16-1.22c3.65-0.68,7.3-1.37,10.94-2.05c-0.16,3.21-0.29,5.88-0.5,10.04
		c2.56-2.19,3.84-3.28,5.14-4.39c2.04,3.25,1.17,5.12-2.56,5.38c-3.2,0.22-6.42,0.05-9.93-0.81
		C1888.16,412.9,1889.16,412.33,1890.38,411.62"/>
	<path class="st6" d="M1998.46,463.41c-0.45,1.22-0.64,3.75-1.69,4.18c-3.16,1.31-6.65,2.17-10.05,2.29
		c-0.64,0.02-1.57-4.13-2.03-6.42c-0.09-0.44,1.45-1.76,2.16-1.7C1990.23,462.06,1993.59,462.68,1998.46,463.41"/>
	<path class="st6" d="M2103.27,452.43c-3.2-1.93-5.22-3.15-7.07-4.27c2.52-9.79,7.9-16.06,19.47-16.92
		C2109.1,436.98,2097.35,438.67,2103.27,452.43"/>
	<path class="st6" d="M1931.25,420.84c-5.58,5.58-10.83-0.08-16.51-0.73c0.28-3.1,6.85-4.13-0.14-8.81
		c1.21-0.02,2.41-0.04,3.62-0.06c1.01,1.74,1.85,3.62,3.07,5.19c0.85,1.1,2.13,2.28,3.39,2.54c2.03,0.42,4.21,0.11,6.33,0.11
		C1931.1,419.67,1931.18,420.26,1931.25,420.84"/>
	<path class="st6" d="M2265.05,655.74v11.86c-1.78-2.92-2.68-4.41-3.82-6.28c-0.43,2.74-0.78,4.91-1.12,7.08
		c-0.41-0.05-0.81-0.1-1.22-0.14v-13.68C2262.08,655.18,2264.11,655.57,2265.05,655.74"/>
	<path class="st6" d="M2352.34,770.58c2.51,1.77,4.13,2.91,6.13,4.32c-3.78,3.28-7.8,6.78-11.83,10.27
		c-0.37-0.24-0.74-0.48-1.1-0.72C2347.77,779.91,2350,775.37,2352.34,770.58"/>
	<path class="st6" d="M2246.23,677.34c-6.27-1.64-13.44-0.32-18.59-5.66c0.2-0.67,0.4-1.34,0.6-2.01c6.22,1.8,12.44,3.61,18.65,5.41
		L2246.23,677.34z"/>
	<path class="st6" d="M1829.69,593.79c-2.1-1.26-4.52-2.19-6.22-3.86c-3.3-3.23-6.61-5.96-11.59-5.34
		c5.43-4.14,5.83-3.98,18.59,7.42L1829.69,593.79z"/>
	<path class="st6" d="M2047.35,421.02c4.8,1.03,7.77,1.67,11.38,2.44c-2.51,3.62-4.09,5.9-6.27,9.02
		C2050.75,428.64,2049.32,425.42,2047.35,421.02"/>
	<path class="st6" d="M1989.46,507.69c2.39-3.5,4.26-6.54,6.48-9.29c0.54-0.67,2.25-0.4,3.42-0.57c0,1.1,0.24,2.27-0.03,3.3
		C1998.18,505.56,1995.85,508.56,1989.46,507.69"/>
	<path class="st6" d="M2284.69,522.44c-1.87,2.05-2.8,3.58-4.16,4.38c-1.1,0.65-2.7,0.44-4.76,0.69c0.04-0.76,0.28-2.41,0.15-4.02
		c-0.14-1.73-0.65-3.42-1.07-5.5C2278.01,519.42,2280.98,520.76,2284.69,522.44"/>
	<path class="st6" d="M2256.87,600.3c4.6-0.03,5.38,2.9,4.25,5.63c-1.76,4.28-0.45,6.39,5.29,7.58
		C2257.43,614.04,2257.43,614.04,2256.87,600.3"/>
	<path class="st6" d="M2270.25,635.7c-1.54-1.84-3.07-3.69-4.88-5.86c1.75-0.85,4.08-1.98,7.96-3.87c-0.5,3.83-0.9,6.89-1.3,9.94
		C2271.44,635.84,2270.84,635.77,2270.25,635.7"/>
	<path class="st6" d="M2286.19,783.73c0-1.06-0.08-2.12,0.02-3.17c0.14-1.42,0.42-2.83,0.69-4.55c2.42,0.43,4.56,0.81,8.84,1.58
		c-2.97,3.44-5.05,5.85-7.13,8.26C2287.8,785.14,2287,784.44,2286.19,783.73"/>
	<path class="st6" d="M1842.95,598.53h-12.44C1838.06,592.35,1838.62,592.33,1842.95,598.53"/>
	<path class="st6" d="M1893.21,427.17c-0.21-1.23-0.43-2.46-0.58-3.32c2.99-1.31,5.71-2.52,8.43-3.72c0.34,0.5,0.67,1.01,1,1.51
		c-2.43,2.29-4.85,4.59-7.28,6.88C1894.26,428.08,1893.74,427.63,1893.21,427.17"/>
	<path class="st6" d="M1899.31,427.36c2-1.7,3.8-3.8,6.07-4.96c1.76-0.89,4.12-0.58,6.22-0.8c0.14,0.67,0.27,1.33,0.41,2
		c-4.25,1.24-8.49,2.49-12.76,3.72C1899.23,427.31,1899.31,427.36,1899.31,427.36"/>
	<path class="st6" d="M2210.39,423.87c-4.8,5-7.36,4.99-10.18,0H2210.39z"/>
	<path class="st6" d="M2169.99,637.41c-0.19-3.75-0.33-6.51-0.49-9.8C2174.65,632.06,2174.9,634.21,2169.99,637.41"/>
	<path class="st7" d="M2354.42,871.58c0.01-11.4,9.19-20.6,20.46-20.77c11.72-0.18,21.31,9.36,21.12,21.13
		c-0.18,11.25-9.26,20.3-20.49,20.45C2363.76,892.55,2354.39,883.04,2354.42,871.58 M2360.11,882.72c1.64-1.08,3.38-1.98,5.23-2.7
		c-0.84-2.4-1.31-4.86-1.43-7.39h-7.43C2356.63,876.18,2358,879.96,2360.11,882.72 M2386.79,872.63c-0.11,2.58-0.6,5.06-1.45,7.49
		c1.75,0.71,3.41,1.56,4.99,2.61c2.19-3.02,3.4-6.37,3.62-10.1H2386.79z M2365.09,863.68c-1.83-0.72-3.6-1.67-5.27-2.79
		c-1.71,2.02-3.54,7.34-3.32,9.68h7.35c0.15-1.17,0.25-2.33,0.45-3.47C2364.51,865.96,2364.82,864.84,2365.09,863.68
		 M2390.61,860.88c-1.63,1.1-3.32,2.01-5.12,2.73c0.75,2.27,1.18,4.59,1.29,6.96h7.16C2393.74,867.03,2392.63,863.82,2390.61,860.88
		 M2376.24,872.63v5.58c2.45,0.09,4.83,0.51,7.18,1.24c0.78-2.21,1.23-4.47,1.34-6.81H2376.24z M2365.95,872.63
		c0.11,2.31,0.55,4.54,1.31,6.73c2.27-0.69,4.57-1.07,6.91-1.16v-5.57H2365.95z M2376.23,870.57h8.52
		c-0.11-2.15-0.49-4.22-1.17-6.26c-2.41,0.77-4.85,1.2-7.35,1.29V870.57z M2374.18,870.58v-4.98c-2.43-0.09-4.8-0.5-7.11-1.21
		c-0.65,2.03-1.03,4.08-1.11,6.19H2374.18z M2376.24,852.82v10.74c2.27-0.09,4.46-0.48,6.63-1.16
		C2381.32,858.76,2379.06,855.63,2376.24,852.82 M2367.77,862.46c1.41,0.54,4.88,1.13,6.41,1.09v-10.58
		C2371.45,855.77,2369.26,858.87,2367.77,862.46 M2376.24,880.24v10.09c0.05,0,0.09,0.01,0.1-0.01c0.77-0.84,1.57-1.66,2.3-2.53
		c1.63-1.96,2.97-4.11,4.02-6.45C2380.57,880.69,2378.44,880.32,2376.24,880.24 M2374.18,880.23c-2.1,0.09-4.15,0.42-6.17,1.02
		c1.5,3.37,3.6,6.29,6.17,8.93V880.23z M2371.07,853.32c-3.98,0.91-7.3,2.9-10.01,5.95c1.1,0.81,4.03,2.35,4.79,2.51
		C2367.13,858.67,2368.91,855.88,2371.07,853.32 M2384.78,861.71c1.62-0.67,3.13-1.46,4.57-2.44c-1.3-1.48-2.77-2.71-4.43-3.73
		c-1.97-1.21-4.45-2.05-5.37-2.16C2381.72,855.89,2383.49,858.64,2384.78,861.71 M2371.12,889.89c-2.06-2.43-3.77-5.06-5.04-7.98
		c-1.65,0.64-3.2,1.43-4.68,2.4C2364.08,887.17,2367.31,889.04,2371.12,889.89 M2379.57,889.86c3.73-0.93,6.86-2.77,9.45-5.55
		c-1.42-0.91-2.88-1.68-4.44-2.29C2383.32,884.88,2381.63,887.45,2379.57,889.86"/>
	<g class="st8">
		<g>
			<defs>
				<rect id="SVGID_2_" x="2337.17" y="347.2" width="34.45" height="31.7"/>
			</defs>
			<clipPath id="SVGID_3_">
				<use xlink:href="#SVGID_2_"  style="overflow:visible;"/>
			</clipPath>
			<path class="st9" d="M2371.33,366.52c-1.75,8.54-10.75,13.91-20.1,11.99c-9.35-1.91-15.51-10.39-13.76-18.93
				c1.75-8.54,10.75-13.91,20.1-11.99C2366.92,349.5,2373.08,357.98,2371.33,366.52"/>
		</g>
	</g>
	<path class="st10" d="M2370.87,363.53c-1.75,8.54-10.75,13.91-20.1,11.99c-9.35-1.92-15.51-10.39-13.76-18.93
		c1.75-8.54,10.75-13.91,20.1-11.99C2366.46,346.52,2372.62,354.99,2370.87,363.53"/>
	<path class="st11" d="M2368.93,355.19c-1.52,7.41-8.76,12.19-16.17,10.67s-12.19-8.76-10.67-16.17
		c1.52-7.41,8.76-12.19,16.17-10.67C2365.67,340.53,2370.45,347.77,2368.93,355.19"/>
	<g class="st8">
		<g>
			<defs>
				<rect id="SVGID_4_" x="1760.48" y="352.26" width="35.52" height="32.77"/>
			</defs>
			<clipPath id="SVGID_5_">
				<use xlink:href="#SVGID_4_"  style="overflow:visible;"/>
			</clipPath>
			<path class="st12" d="M1795.6,364.52c2.08,8.75-4,17.7-13.58,19.98c-9.59,2.28-19.04-2.97-21.13-11.72
				c-2.08-8.75,4-17.7,13.58-19.98C1784.05,350.52,1793.51,355.76,1795.6,364.52"/>
		</g>
	</g>
	<path class="st10" d="M1793.87,361.92c2.08,8.75-4,17.7-13.58,19.98c-9.58,2.28-19.04-2.96-21.13-11.72
		c-2.08-8.75,4-17.7,13.58-19.98C1782.33,347.92,1791.79,353.17,1793.87,361.92"/>
	<path class="st11" d="M1788.41,354.96c1.81,7.6-2.89,15.23-10.48,17.03c-7.6,1.81-15.23-2.89-17.03-10.49
		c-1.81-7.6,2.89-15.23,10.48-17.03C1778.98,342.67,1786.61,347.36,1788.41,354.96"/>
	<path class="st13" d="M2280.51,548.3c-0.91-1.4-1.78-2.7-2.62-4.02c-3.2-5.05-6.28-10.18-8.74-15.64c-0.9-1.98-1.75-4-2.1-6.16
		c-0.59-3.7,0.42-7.02,2.66-9.97c3.35-4.42,9.03-6.3,14.45-4.85c5.21,1.39,9.15,5.89,9.91,11.27c0.29,2.04-0.01,3.99-0.66,5.92
		c-1.33,3.92-3.18,7.61-5.27,11.16c-2.34,3.98-4.83,7.86-7.26,11.79C2280.79,547.95,2280.68,548.07,2280.51,548.3 M2280.55,513.77
		c-3.56,0-6.48,2.9-6.48,6.45c-0.01,3.56,2.89,6.46,6.46,6.48c3.54,0.02,6.47-2.9,6.48-6.46
		C2287.02,516.7,2284.09,513.77,2280.55,513.77"/>
	<path class="st10" d="M2280.08,508.32c0,0-12.84,2.73-11.7,14.31C2268.38,522.64,2269.29,513.44,2280.08,508.32"/>
	<path class="st13" d="M2021.11,512.82c-0.91-1.4-1.78-2.7-2.62-4.02c-3.2-5.05-6.28-10.17-8.74-15.64c-0.9-1.98-1.75-4-2.1-6.16
		c-0.59-3.7,0.42-7.02,2.66-9.97c3.35-4.42,9.03-6.3,14.45-4.85c5.21,1.39,9.15,5.89,9.91,11.27c0.29,2.04-0.01,3.99-0.66,5.92
		c-1.33,3.92-3.18,7.61-5.27,11.16c-2.34,3.98-4.83,7.86-7.26,11.79C2021.38,512.47,2021.27,512.6,2021.11,512.82 M2021.14,478.29
		c-3.56,0-6.48,2.9-6.48,6.45c-0.01,3.55,2.89,6.46,6.46,6.48c3.54,0.02,6.47-2.9,6.48-6.45
		C2027.61,481.22,2024.69,478.29,2021.14,478.29"/>
	<path class="st10" d="M2020.68,472.84c0,0-12.84,2.73-11.7,14.31C2008.97,487.16,2009.88,477.96,2020.68,472.84"/>
	<path class="st13" d="M1809.63,532.78c-0.91-1.4-1.78-2.7-2.62-4.02c-3.2-5.05-6.28-10.17-8.74-15.64c-0.9-1.99-1.75-4-2.1-6.16
		c-0.59-3.7,0.42-7.02,2.66-9.97c3.35-4.42,9.03-6.3,14.45-4.85c5.21,1.39,9.15,5.89,9.91,11.27c0.29,2.04-0.01,3.99-0.66,5.92
		c-1.33,3.92-3.18,7.61-5.27,11.16c-2.34,3.98-4.83,7.86-7.26,11.79C1809.91,532.42,1809.8,532.55,1809.63,532.78 M1809.67,498.24
		c-3.56,0-6.48,2.9-6.48,6.45c-0.01,3.55,2.89,6.46,6.46,6.48c3.54,0.02,6.47-2.9,6.48-6.45
		C1816.14,501.18,1813.21,498.24,1809.67,498.24"/>
	<path class="st10" d="M1809.2,492.8c0,0-12.84,2.73-11.7,14.32C1797.5,507.11,1798.41,497.91,1809.2,492.8"/>
</g>
<g>
	<g>
		<g class="st14">
			<g>
				<defs>
					<rect id="SVGID_6_" x="1217.87" y="1377.36" width="349.26" height="51.37"/>
				</defs>
				<clipPath id="SVGID_7_">
					<use xlink:href="#SVGID_6_"  style="overflow:visible;"/>
				</clipPath>
				<path class="st15" d="M1567.13,1403.04c0,14.19-78.18,25.69-174.63,25.69c-96.45,0-174.63-11.5-174.63-25.69
					c0-14.18,78.18-25.69,174.63-25.69C1488.95,1377.35,1567.13,1388.86,1567.13,1403.04"/>
			</g>
		</g>
		<polygon class="st16" points="1322.42,910.72 1332.21,1400.06 1357.28,1400.06 1370.77,1264.72 1402.65,867.61 1426.55,925.66
			1388.43,1400.06 1414.65,1400.06 1470.41,942.62 1464.38,877.06 1441.01,826.69 1354.87,826.69 		"/>
		<path class="st17" d="M1314.89,918.38c0.01,18.51,10.36,397.72,15.13,415.1c1.92,2.63,33.21,6.17,37.83,2.92
			c2.11-1.49,24.65-378.15,30.6-416.43c0,0,4.5-7.22,6.77-6.7c4.21,58.25-14.53,358.86-13.07,417.4c9.78,7.3,29.93,3.67,34.4,0
			c12.14-87.86,49.1-293.91,56.13-382.24c3.99-50.16-3.54-152.79-33.87-173.27c-22.61-15.26-109.9,3.03-109.9,3.03
			C1337.93,797.1,1314.86,827.86,1314.89,918.38"/>
		<path class="st18" d="M1378.58,364.02c14.21-0.45,69.34-9.61,88.89,63.93c3.69,13.88-0.04,29.2,5.17,42.59
			c4.64,11.91,12.55,23.59,10.61,36.23c-7.89,51.34-83.88,32.34-93.32,31.56"/>
		<path class="st18" d="M1404.48,363.83c-14.32-0.46-69.86-9.68-89.57,64.42c-3.72,13.99,0.04,29.42-5.22,42.91
			c-4.68,12-12.64,23.77-10.68,36.51c7.95,51.73,84.52,32.58,94.02,31.8"/>
		<path class="st10" d="M1340.82,780.96c-1.59-0.61-8.41-63.06-13.25-78.42c-16.2-51.42-41.23-108.63-38.73-111.45
			c7.39-8.32,41.14-31.3,59.09-41.48c13.81-7.83,46.98,44.78,51.7,45.46c6.77,0.97,17.61-55.26,26.78-45.32
			c11.56,12.53,57.25,30.42,57.25,42.72c0,2.83-9.34,56.07-20.34,106.5c-2.48,11.38-7.81,75.14-10.01,78.71
			C1448.78,785.05,1380.56,796.17,1340.82,780.96"/>
		<path class="st19" d="M1455.38,723.89c16.44-1.16,40.9-10.25,37.92-31.83c-0.54-3.91,1.05-7.68,3.56-10.47
			c-4.79-42.17-10.37-79.62-12.95-91.7c-0.7-3.27-12.49,4.82-13,20.44c-1.04,31.29-22.65,45.97-19.8,77.04
			C1452.24,699.77,1453.85,712.73,1455.38,723.89"/>
		<path class="st19" d="M1351.2,544.8c0.99-0.45,1.51-1.26,62.69,0.48c4.57,0.13,6.56,0.22,6.56,0.22s16.75,9.91,17.91,13.91
			c0.31,1.07,2.5,13.15-12.07,17.69c-3.68,1.15,1.9,10.87-3.53,17.99c-3.61,4.74-18.39,2.02-20.45,3.92
			c-3.67,3.4-2.9,1.59-7.02,0.27c-4.48-1.43-16.66,2.16-21.82,0.11c-5.57-2.21-6.98-13.99-12.56-16.45
			c-6.13-2.7-14.15-0.42-19.23-2.81c-9.54-4.5-11.29-21.38-11.07-21.52C1334.51,556.33,1342.42,548.85,1351.2,544.8"/>
		<path class="st17" d="M1357.63,1360.37c2.39,0.28,4.9,0.78,6.84,2.07c3.66,2.44,3.89,6.53,5.46,9.99
			c3.12,6.84,11.87,11.54,19.95,15.72c2.93,1.51,5.94,3.1,8.07,5.29c3.68,3.76,3.99,8.46,4.13,12.76c0.05,1.49-0.12,3.25-1.86,3.73
			c-0.75,0.21-1.66,0.12-2.52,0.02c-23.22-2.61-46.48-6.37-69.47-11.22c-1.51-0.32-3.09-0.67-4.28-1.5c-2-1.38-2.19-3.57-2.21-5.48
			c-0.1-6.93-0.19-13.87-0.26-20.8c-0.02-1.64,0.12-3.51,1.82-4.35c4.37-2.18,10.45,2.52,15.17,1.38c1.82-0.44,2.96-1.67,3.86-2.87
			c1.47-1.96,2.83-3.47,5.69-4.29C1350.98,1359.97,1354.38,1360,1357.63,1360.37"/>
		<path class="st17" d="M1418.5,1363.71c2.47-0.04,5.1,0.12,7.25,1.12c4.07,1.88,4.85,5.79,6.92,8.92
			c4.11,6.18,13.66,9.6,22.45,12.59c3.19,1.08,6.48,2.22,8.95,4.06c4.25,3.16,5.21,7.63,5.94,11.76c0.25,1.43,0.32,3.15-1.39,3.83
			c-0.74,0.3-1.67,0.32-2.57,0.34c-24.01,0.46-48.21-0.18-72.3-1.9c-1.58-0.11-3.24-0.25-4.56-0.89c-2.22-1.08-2.71-3.16-3-4.99
			c-1.04-6.67-2.07-13.33-3.08-20c-0.24-1.57-0.35-3.4,1.27-4.43c4.16-2.66,10.99,1.09,15.65-0.61c1.79-0.66,2.78-1.99,3.55-3.26
			c1.24-2.07,2.41-3.71,5.21-4.87C1411.66,1364.17,1415.13,1363.77,1418.5,1363.71"/>
		<path class="st10" d="M1284.32,715.56c5.39,13.65,30.36,12.21,42.59,5.53c0.35-28.48,3.34-36.48-0.49-66.3
			c-1.99-15.45-4.59-30.8-7.9-45.98c-0.99-4.54-1.47-13.33-7.54-12.92c-4.96,0.34-19.91-8.76-22.14-4.8
			c-5.9,10.47-9.09,60.69-11.26,117.29C1280.42,709.6,1282.88,711.91,1284.32,715.56"/>
		<path class="st16" d="M1364.9,523.63c-0.04,3.18-2.84,22.96-4.16,25.99c-3.58,8.17,30.36,35.58,41.12,34.85
			c5.65-0.38,15.58-30.37,15.13-34.85c-1.95-19.5-3.25-40.69,0.8-53.79c0.42-1.35,0.86,1.22,0,0c-0.78-1.1-2.26-1.75-3.65-2.36
			c-19.92-8.62-38.76-18.81-56.16-30.36c-2.39-1.59-4.76-3.21-7.1-4.85c-1.46-1.03-5.09-4.62-6.94-4.54
			c-0.3,1.67,2.03,4.7,2.82,6.36c1.05,2.2,2.09,4.41,3.11,6.62c2.05,4.48,4.01,8.98,5.79,13.53c3.53,9.02,6.41,18.23,7.96,27.61
			C1364.5,513.07,1364.95,518.35,1364.9,523.63"/>
		<g>
			<g>
				<defs>
					<rect id="SVGID_8_" x="1361.05" y="501.55" width="55.58" height="26.46"/>
				</defs>
				<clipPath id="SVGID_9_">
					<use xlink:href="#SVGID_8_"  style="overflow:visible;"/>
				</clipPath>
				<path class="st20" d="M1361.05,502.42c0,0,4.33,6.28,3.29,23.69c0,0,23.22-6.63,52.28,1.9c0,0-1.54-13.48-0.28-17.22
					C1420.8,497.56,1361.05,502.42,1361.05,502.42"/>
			</g>
		</g>
		<path class="st16" d="M1332.09,450.99c0-8,2.18-12.14,9.39-8.87c0.07-0.25-0.17-10.94,0.16-14.98
			c1.86-22.88,27.53-69.48,35.2-46.65c4.84,14.42,23.21,26.96,49.51,44.91c23.81,16.24,16.33,46.8,15.69,46.64
			c-5.7,23.72-25.93,43.96-49.06,43.96c-22.99,0-43.26-23.04-50.4-43.6C1335.1,472.25,1332.09,459.42,1332.09,450.99"/>
		<path class="st21" d="M1400.07,444.38c0-13.01,10.58-23.59,23.59-23.59s23.6,10.58,23.6,23.59c0,13.01-10.59,23.6-23.6,23.6
			S1400.07,457.39,1400.07,444.38 M1403.07,444.38c0,11.36,9.24,20.6,20.6,20.6c11.36,0,20.6-9.24,20.6-20.6
			c0-11.36-9.24-20.6-20.6-20.6C1412.31,423.78,1403.07,433.02,1403.07,444.38"/>
		<path class="st21" d="M1345.76,444.38c0-13.01,10.58-23.59,23.59-23.59s23.6,10.58,23.6,23.59c0,13.01-10.59,23.6-23.6,23.6
			S1345.76,457.39,1345.76,444.38 M1348.76,444.38c0,11.36,9.24,20.6,20.6,20.6c11.36,0,20.6-9.24,20.6-20.6
			c0-11.36-9.24-20.6-20.6-20.6C1358,423.78,1348.76,433.02,1348.76,444.38"/>
		<polygon class="st21" points="1401.89,442.57 1402.16,439.58 1390.08,439.17 1389.81,442.16 		"/>
		<path class="st21" d="M1344.82,443.3c0.6,0,1.17-0.37,1.4-0.96c0.29-0.77-0.09-1.64-0.86-1.94l-5.09-1.96
			c-0.77-0.3-1.64,0.08-1.94,0.86c-0.3,0.77,0.09,1.64,0.86,1.93l5.09,1.96C1344.46,443.27,1344.64,443.3,1344.82,443.3"/>
		<g>
			<g>
				<defs>
					<rect id="SVGID_10_" x="1421.16" y="438.34" width="11.03" height="11.03"/>
				</defs>
				<clipPath id="SVGID_11_">
					<use xlink:href="#SVGID_10_"  style="overflow:visible;"/>
				</clipPath>
				<path class="st22" d="M1421.16,443.86c0,3.05,2.47,5.51,5.51,5.51c3.04,0,5.51-2.47,5.51-5.51c0-3.04-2.47-5.51-5.51-5.51
					C1423.63,438.34,1421.16,440.81,1421.16,443.86"/>
			</g>
		</g>
		<g>
			<g>
				<defs>
					<rect id="SVGID_12_" x="1393.23" y="444.13" width="6.98" height="24.54"/>
				</defs>
				<clipPath id="SVGID_13_">
					<use xlink:href="#SVGID_12_"  style="overflow:visible;"/>
				</clipPath>
				<path class="st23" d="M1396.72,468.67L1396.72,468.67c1.93,0,3.49-1.56,3.49-3.49v-17.56c0-1.93-1.56-3.49-3.49-3.49
					s-3.49,1.56-3.49,3.49v17.56C1393.23,467.1,1394.79,468.67,1396.72,468.67"/>
			</g>
		</g>
		<g>
			<g>
				<defs>
					<rect id="SVGID_14_" x="1386.35" y="477.81" width="20.73" height="7.8"/>
				</defs>
				<clipPath id="SVGID_15_">
					<use xlink:href="#SVGID_14_"  style="overflow:visible;"/>
				</clipPath>
				<path class="st24" d="M1402.2,484.25c2.15-0.76,3.51-1.57,3.65-1.65c1.22-0.74,1.61-2.33,0.87-3.55
					c-0.74-1.22-2.32-1.6-3.54-0.87c-0.15,0.09-6.67,3.87-13.36,1.45c-1.34-0.49-2.82,0.21-3.3,1.55c-0.48,1.34,0.21,2.82,1.55,3.3
					C1393.59,486.48,1398.85,485.43,1402.2,484.25"/>
			</g>
		</g>
		<g>
			<g>
				<defs>
					<rect id="SVGID_16_" x="1362.57" y="414.1" width="14.75" height="6.31"/>
				</defs>
				<clipPath id="SVGID_17_">
					<use xlink:href="#SVGID_16_"  style="overflow:visible;"/>
				</clipPath>
				<path class="st25" d="M1363.74,420.32c-0.31-0.11-0.59-0.3-0.81-0.58c-0.58-0.75-0.44-1.83,0.31-2.41
					c0.33-0.26,8.12-6.18,13.52-1.33c0.71,0.64,0.76,1.73,0.13,2.43c-0.64,0.71-1.72,0.76-2.43,0.13c-3.26-2.93-9.05,1.45-9.11,1.49
					C1364.87,420.42,1364.27,420.49,1363.74,420.32"/>
			</g>
		</g>
		<g>
			<g>
				<defs>
					<rect id="SVGID_18_" x="1368.1" y="436.48" width="11.03" height="11.03"/>
				</defs>
				<clipPath id="SVGID_19_">
					<use xlink:href="#SVGID_18_"  style="overflow:visible;"/>
				</clipPath>
				<path class="st26" d="M1368.1,442c0,3.05,2.47,5.51,5.51,5.51c3.04,0,5.51-2.47,5.51-5.51c0-3.04-2.47-5.51-5.51-5.51
					C1370.57,436.48,1368.1,438.95,1368.1,442"/>
			</g>
		</g>
		<g>
			<g>
				<defs>
					<rect id="SVGID_20_" x="1337.61" y="452.22" width="5.15" height="13"/>
				</defs>
				<clipPath id="SVGID_21_">
					<use xlink:href="#SVGID_20_"  style="overflow:visible;"/>
				</clipPath>
				<path class="st27" d="M1341.8,465.22c0,0,3.97-8.72-4.19-13"/>
			</g>
		</g>
		<g>
			<g>
				<defs>
					<rect id="SVGID_22_" x="1309.55" y="630.75" width="19.98" height="71.79"/>
				</defs>
				<clipPath id="SVGID_23_">
					<use xlink:href="#SVGID_22_"  style="overflow:visible;"/>
				</clipPath>
				<polyline class="st28" points="1329.53,630.75 1323.71,675.73 1309.55,635.16 1325.57,681.54 1327.57,702.54 				"/>
			</g>
		</g>
		<g>
			<g>
				<defs>
					<rect id="SVGID_24_" x="1460.41" y="630.75" width="5.82" height="71.79"/>
				</defs>
				<clipPath id="SVGID_25_">
					<use xlink:href="#SVGID_24_"  style="overflow:visible;"/>
				</clipPath>
				<polyline class="st29" points="1460.41,630.75 1466.23,675.73 1464.38,681.54 1462.38,702.54 				"/>
			</g>
		</g>
		<g class="st30">
			<g>
				<defs>
					<rect id="SVGID_26_" x="1327.65" y="639.77" width="74.85" height="149.38"/>
				</defs>
				<clipPath id="SVGID_27_">
					<use xlink:href="#SVGID_26_"  style="overflow:visible;"/>
				</clipPath>
				<path class="st31" d="M1359.62,699.6c-6.04,8.44-6.26,19.96-3.12,29.84c3.14,9.89,9.24,18.52,15.24,26.98
					c8.73,12.3,17.83,24.94,30.75,32.73c-18.73-0.81-38.42-1.06-56.75-4.98c-1.83-0.39-2.76-3.01-3.94-4.46
					c-0.94-1.14-1.2-2.68-1.43-4.13c-3.34-21.16-6.68-42.33-10.01-63.49c-1.02-6.47-2.04-12.96-2.47-19.5
					c-0.5-7.75-0.16-15.52,0.18-23.28c0.35-7.92,0.7-15.84,1.05-23.76c0.03-0.68,0.63-7.59,2.85-5.34c0.68,0.68,0.71,3.57,0.9,4.55
					c0.31,1.54,0.62,3.09,0.95,4.62c2.6,12.05,6.12,24.17,12.53,34.8C1349.88,690.03,1354.29,695.33,1359.62,699.6"/>
			</g>
		</g>
		<polygon class="st21" points="1466.23,675.73 1470.91,729.24 1460.69,718.58 1463.28,669.87 		"/>
		<path class="st32" d="M1405.22,913.28l9.36-9.62c0,0,1.95,146.76-13.64,203.26L1405.22,913.28z"/>
		<g class="st30">
			<g>
				<defs>
					<rect id="SVGID_28_" x="1355.02" y="631.53" width="116.35" height="146.6"/>
				</defs>
				<clipPath id="SVGID_29_">
					<use xlink:href="#SVGID_28_"  style="overflow:visible;"/>
				</clipPath>
				<path class="st33" d="M1396.24,713.8c7.63,13.08,15.27,26.17,22.91,39.25c3.73,6.4,7.56,12.91,13.05,17.88
					c5.5,4.97,13.03,8.26,20.31,6.89c0.39-14.53,0.79-29.12,3.19-43.45c4.82-28.75,17.69-56.65,15.39-85.72
					c-0.34-4.31-1.05-8.66-2.66-12.69c-0.53-1.33-1.35-4.28-3.05-4.43c-1.76-0.16-21.75,27.74-22.35,28.96
					c-3.72,7.53-82.79,18.94-87.32,26.01c-9.05,14.12,74.27-2.38,62.15,9.22C1411.07,702.23,1403.85,708.27,1396.24,713.8"/>
			</g>
		</g>
		<path class="st10" d="M1280.52,701.78c-0.68,10.02-1.34,20.28,1.38,29.95c2.71,9.67,9.5,18.82,19.17,21.53
			c7.87,2.21,16.39-0.12,23.59-3.99c7.2-3.87,13.5-9.2,20.38-13.62c13.94-8.95,29.97-13.96,45.78-18.87
			c17.98-5.58,35.99-11.18,54.46-14.8c8.13-1.59,16.72-2.97,23.23-8.09c6.51-5.12,9.74-15.5,4.36-21.8
			c-4.82-5.65-13.51-5.29-20.88-4.34c-57.01,7.36-112.84,21.74-168.5,36.09c-1.4,0.36-2.87,0.76-3.87,1.8
			c-1.34,1.39-1.48,3.53-1.4,5.46c0.95,22.39,23.45,41.42,45.68,38.64c6.22-0.78,12.16-2.97,18.04-5.15
			c12.21-4.53,24.42-9.06,36.64-13.59c26-9.64,52.68-19.7,73.22-38.33c2.8-2.54,5.63-5.54,6.05-9.3c0.48-4.3-2.45-8.4-6.2-10.57
			c-3.74-2.16-8.16-2.77-12.46-3.23"/>
		<path class="st16" d="M1452.94,575.58c-3.63-18.6-15.29-41.57-30.32-57.38c-0.34-0.36-1.16-1.08-1.96-1.68
			c-0.7-1.02-1.58-1.92-2.69-2.14c-2.26-0.44-4.08,2.31-3.98,4.85c0.1,2.53,1.44,4.8,2.6,7.02c3.41,6.5-6.54,31.9,5.29,45.99
			c1.47,1.76,1.21,7.56,8.56,11.45c4.3,2.27,8.96,11.46,7.7,16.07C1430.21,628.73,1459.33,608.33,1452.94,575.58"/>
		<path class="st16" d="M1439.78,555.9c-0.11-3.78,0.96-7.56,2.96-10.76c1.13-1.8,3.84-1.42,4.47,0.61c2.34,7.56,1.85,16-1.5,23.19
			c-3.48-3.82-6.32-8.22-8.38-12.96"/>
		<path class="st10" d="M1503.18,713.02c0.31,4.74,0.34,9.87-2.72,13.76c-3.66,4.64-10.63,6.1-16.99,6.36
			c-10.94,0.45-21.99-1.63-31.8-5.97c-2.21-0.97-4.44-2.13-5.81-3.95c-1.54-2.04-1.79-4.61-2-7.06c-3.6-41.8-5.35-76.16-8.95-117.96
			c-0.12-1.35-0.22-2.78,0.43-4.01c0.88-1.64,2.88-2.52,4.73-3.27c3.15-1.28,6.3-2.57,9.45-3.85c1.4-0.57,2.94-1.15,4.42-0.8
			c1.94,0.46,2.99,2.29,3.79,3.93c16.57,34.27,26.75,62.85,33.93,99.61c-0.78-3.99-1.16-7.8-0.36-11.83
			c0.44-2.25,1.65-7.47,5.12-4.13c1.28,1.24,1.36,3.27,1.72,4.84c0.51,2.21,0.99,4.43,1.43,6.66c0.84,4.26,1.56,8.55,2.14,12.85
			C1502.36,703.14,1502.85,708.07,1503.18,713.02"/>
	</g>
</g>
<g>
	<g>
		<g class="st14">
			<g>
				<defs>
					<rect id="SVGID_30_" x="62.56" y="1279.1" width="1079" height="327.22"/>
				</defs>
				<clipPath id="SVGID_31_">
					<use xlink:href="#SVGID_30_"  style="overflow:visible;"/>
				</clipPath>
				<path class="st34" d="M851.58,1344.48c-9.45-36.51-127.22-65.38-271.15-65.38c-150.1,0-271.78,31.39-271.78,70.12
					c0,0.62,0.03,1.23,0.09,1.84c-148.16,24.74-246.18,67.66-246.18,116.48c0,76.64,241.55,138.78,539.5,138.78
					c297.96,0,539.5-62.13,539.5-138.78C1141.57,1414.05,1023.92,1367.64,851.58,1344.48"/>
			</g>
		</g>
	</g>
	<g>
		<path class="st35" d="M490.07,1038.86c8.1,8.31,16.9,16.38,27.71,20.6c7.5,2.93,15.68,3.85,23.73,3.57
			c36.22-1.24,67.6-25.72,91.16-53.26c5-5.84,9.96-12.28,10.95-19.9c1.38-10.61-5.58-20.94-14.68-26.57
			c-9.1-5.62-19.99-7.44-30.61-8.76c-26.07-3.24-52.42-4.17-78.65-2.79c-12.73,0.67-25.94,1.29-38.47,3.77
			c-4.52,0.89-8.29,2.44-11.29,5.98c-2.5,2.95-4.39,5.68-7.98,7.46C456.94,971.44,476.84,1025.28,490.07,1038.86"/>
		<g class="st36">
			<g>
				<defs>
					<rect id="SVGID_32_" x="676.33" y="1232.94" width="38.62" height="89.24"/>
				</defs>
				<clipPath id="SVGID_33_">
					<use xlink:href="#SVGID_32_"  style="overflow:visible;"/>
				</clipPath>
			</g>
		</g>
		<polygon class="st37" points="216.92,1392.46 205.55,1402.31 182.82,1017.58 216.92,1017.58 		"/>
		<rect x="171.9" y="1027.8" class="st37" width="34.1" height="374.88"/>
		<polygon class="st37" points="1027.42,1392.46 1038.79,1402.31 1061.52,1017.58 1027.42,1017.58 		"/>
		<rect x="1038.33" y="1027.8" class="st37" width="34.1" height="374.88"/>
		<polygon class="st4" points="187.52,1489.28 174.09,1500.91 147.22,1046.24 187.52,1046.24 		"/>
		<rect x="134.32" y="1058.32" class="st4" width="40.3" height="443.04"/>
		<polygon class="st4" points="1050.05,1489.28 1063.49,1500.91 1090.36,1046.24 1050.05,1046.24 		"/>
		<rect x="1062.95" y="1058.32" class="st4" width="40.3" height="443.04"/>
		<rect x="134.32" y="965.22" class="st37" width="967.74" height="104.72"/>
		<polygon class="st4" points="1169.36,1001.9 53.71,1001.9 160.12,922.26 1103.93,922.26 		"/>
		<rect x="53.71" y="1001.51" class="st4" width="1115.31" height="27.7"/>
		<path class="st7" d="M590.26,944.17h115.18v-13.51H590.26c-3.59,0-6.5,3.03-6.5,6.76S586.67,944.17,590.26,944.17"/>
		<g class="st14">
			<g>
				<defs>
					<rect id="SVGID_34_" x="946.8" y="930.39" width="190.33" height="73.34"/>
				</defs>
				<clipPath id="SVGID_35_">
					<use xlink:href="#SVGID_34_"  style="overflow:visible;"/>
				</clipPath>
			</g>
		</g>
	</g>
	<g>
		<g class="st14">
			<g>
				<polygon class="st17" points="491.44,922.53 487.31,987.95 734.62,986.02 696.74,923.2 				"/>
			</g>
		</g>
		<path class="st38" d="M598.43,935.27l-101.77,1.68l-2.37,62.69l109.29-3.62c0,0,7.59,7.01,20.24-2.5l106.03,2.06l-40.96-61.43
			L598.43,935.27z"/>
		<path class="st39" d="M598.42,933.86l-101.77,1.68l-2.37,62.69l109.29-3.62c0,0,7.59,7.01,20.24-2.5l106.03,2.06l-40.96-61.43
			L598.42,933.86z"/>
		<path class="st40" d="M595.88,933.15l16.89,58.89c0,0,13.59-19.31,54.82-11.38c41.23,7.94,56.34,9.2,56.34,9.2l-33.33-54.66
			l-40.51-9.55c-7.19-1.69-14.61-2.16-21.95-1.33C615.43,925.76,596.75,928.63,595.88,933.15"/>
		<path class="st40" d="M594.5,933.16l16.9,60.26c0,0-13.86-19.11-54.98-10.58c-41.11,8.53-56.19,10.01-56.19,10.01l-0.41-56.27
			l40.21-10.09c7.39-1.85,15.04-2.4,22.62-1.64C575.35,926.13,593.58,928.71,594.5,933.16"/>
		<path class="st41" d="M595.87,931.7l16.89,58.89c0,0,13.59-19.31,54.82-11.38c41.23,7.94,56.34,9.2,56.34,9.2l-33.33-54.66
			l-40.51-9.55c-7.19-1.69-14.61-2.16-21.95-1.33C615.42,924.32,596.74,927.18,595.87,931.7"/>
		<path class="st41" d="M594.49,931.71l16.9,60.26c0,0-13.86-19.11-54.97-10.58c-41.11,8.53-56.2,10.01-56.2,10.01l-0.41-56.27
			l40.21-10.09c7.39-1.86,15.04-2.4,22.62-1.64C575.34,924.68,593.57,927.27,594.49,931.71"/>
		<path class="st40" d="M595.86,930.32l16.89,58.89c0,0,13.59-19.31,54.82-11.38c41.23,7.94,56.34,9.2,56.34,9.2l-33.33-54.66
			l-40.51-9.55c-7.19-1.69-14.61-2.16-21.95-1.33C615.41,922.93,596.73,925.8,595.86,930.32"/>
		<path class="st40" d="M594.48,930.33l16.9,60.26c0,0-13.86-19.11-54.98-10.58c-41.11,8.53-56.19,10.01-56.19,10.01l-0.41-56.27
			l40.21-10.09c7.39-1.85,15.04-2.4,22.62-1.64C575.33,923.3,593.56,925.89,594.48,930.33"/>
		<path class="st41" d="M595.84,928.87l16.89,58.89c0,0,13.59-19.31,54.82-11.38c41.23,7.94,56.34,9.2,56.34,9.2l-33.33-54.66
			l-40.51-9.55c-7.19-1.69-14.61-2.16-21.95-1.33C615.4,921.49,596.72,924.36,595.84,928.87"/>
		<path class="st41" d="M594.47,928.88l16.9,60.26c0,0-13.86-19.11-54.97-10.58c-41.11,8.53-56.2,10.01-56.2,10.01l-0.41-56.27
			l40.21-10.09c7.39-1.86,15.04-2.4,22.62-1.64C575.32,921.85,593.55,924.44,594.47,928.88"/>
		<path class="st40" d="M595.84,927.49l16.89,58.89c0,0,13.59-19.31,54.82-11.38c41.23,7.94,56.34,9.2,56.34,9.2l-33.33-54.66
			l-40.51-9.55c-7.19-1.69-14.61-2.16-21.95-1.33C615.39,920.11,596.71,922.97,595.84,927.49"/>
		<path class="st40" d="M594.46,927.5l16.9,60.26c0,0-13.86-19.11-54.97-10.58c-41.11,8.53-56.2,10.01-56.2,10.01l-0.41-56.27
			L540,920.84c7.39-1.85,15.04-2.4,22.62-1.64C575.31,920.47,593.54,923.06,594.46,927.5"/>
		<path class="st41" d="M595.82,926.05l16.89,58.89c0,0,13.59-19.31,54.82-11.38c41.23,7.94,56.34,9.2,56.34,9.2l-33.33-54.66
			l-40.51-9.55c-7.19-1.69-14.61-2.16-21.95-1.33C615.38,918.66,596.7,921.53,595.82,926.05"/>
		<path class="st41" d="M594.45,926.06l16.9,60.26c0,0-13.86-19.11-54.97-10.58c-41.11,8.53-56.2,10.01-56.2,10.01l-0.41-56.27
			l40.21-10.09c7.39-1.86,15.04-2.4,22.62-1.64C575.3,919.03,593.53,921.61,594.45,926.06"/>
		<path class="st40" d="M595.82,925.14l16.89,58.89c0,0,13.59-19.31,54.82-11.38c41.23,7.94,56.34,9.2,56.34,9.2l-33.33-54.66
			l-40.51-9.55c-7.19-1.69-14.61-2.16-21.95-1.33C615.37,917.75,596.69,920.62,595.82,925.14"/>
		<path class="st40" d="M594.45,925.15l16.9,60.26c0,0-13.86-19.11-54.97-10.58c-41.11,8.53-56.2,10.01-56.2,10.01l-0.41-56.27
			l40.21-10.09c7.39-1.85,15.04-2.4,22.62-1.64C575.3,918.12,593.52,920.7,594.45,925.15"/>
		<path class="st41" d="M595.81,923.69l16.89,58.89c0,0,13.59-19.31,54.82-11.38c41.23,7.94,56.34,9.2,56.34,9.2l-33.33-54.66
			l-40.51-9.55c-7.19-1.69-14.61-2.16-21.95-1.33C615.36,916.31,596.68,919.17,595.81,923.69"/>
		<path class="st41" d="M594.43,923.7l16.9,60.26c0,0-13.86-19.11-54.97-10.58c-41.11,8.53-56.2,10.01-56.2,10.01l-0.41-56.27
			l40.21-10.09c7.39-1.85,15.04-2.4,22.62-1.64C575.29,916.67,593.51,919.26,594.43,923.7"/>
		<path class="st40" d="M595.33,923.26l16.89,58.89c0,0,13.59-19.31,54.82-11.38c41.23,7.94,56.34,9.2,56.34,9.2l-33.33-54.66
			l-40.51-9.54c-7.19-1.7-14.61-2.16-21.95-1.34C614.89,915.87,596.2,918.74,595.33,923.26"/>
		<path class="st40" d="M593.96,923.27l16.9,60.26c0,0-13.86-19.11-54.97-10.58c-41.11,8.53-56.2,10.01-56.2,10.01l-0.41-56.27
			l40.21-10.09c7.39-1.86,15.04-2.4,22.62-1.64C574.81,916.23,593.04,918.82,593.96,923.27"/>
		<path class="st41" d="M595.32,921.81l16.89,58.89c0,0,13.59-19.31,54.82-11.37c41.23,7.94,56.34,9.2,56.34,9.2l-33.33-54.66
			l-40.51-9.55c-7.19-1.69-14.61-2.16-21.95-1.33C614.87,914.43,596.19,917.29,595.32,921.81"/>
		<path class="st41" d="M593.95,921.82l16.9,60.26c0,0-13.86-19.11-54.97-10.58c-41.11,8.53-56.2,10.01-56.2,10.01l-0.41-56.27
			l40.21-10.09c7.39-1.85,15.04-2.4,22.62-1.64C574.8,914.79,593.03,917.38,593.95,921.82"/>
		<g class="st14">
			<g>
				<defs>
					<rect id="SVGID_36_" x="282.05" y="969.12" width="118.5" height="30.04"/>
				</defs>
				<clipPath id="SVGID_37_">
					<use xlink:href="#SVGID_36_"  style="overflow:visible;"/>
				</clipPath>
				<path class="st42" d="M400.55,984.14c0,8.3-26.53,15.02-59.25,15.02c-32.72,0-59.25-6.73-59.25-15.02
					c0-8.3,26.53-15.02,59.25-15.02C374.03,969.12,400.55,975.84,400.55,984.14"/>
			</g>
		</g>
		<path class="st43" d="M309.75,918.11v5.34c-13.51,0.49-24.33,10.23-24.33,22.17c0,12.25,11.39,22.22,25.39,22.22
			c0.02,0,0.04,0,0.06,0c3.19,10.38,12.88,17.99,24.27,17.99h12.69c13.96,0,25.39-11.43,25.39-25.39v-42.31
			C373.22,904.14,309.75,904.14,309.75,918.11 M293.88,945.61c0-7.29,7.03-13.26,15.87-13.71v27.42
			C300.91,958.87,293.88,952.91,293.88,945.61"/>
		<path class="st44" d="M341.29,977.08c-0.14-0.22-0.42-0.28-0.64-0.15c-0.22,0.14-0.29,0.42-0.15,0.64
			c0.14,0.22,0.42,0.28,0.64,0.15C341.35,977.59,341.42,977.3,341.29,977.08"/>
		<polygon class="st45" points="339.75,975.42 340.14,976.94 340.5,977.57 341.35,977.37 341.55,976.01 		"/>
		<polyline class="st46" points="334.76,966.41 335.12,968.26 341.78,966.57 341.29,964.97 334.74,966.25 334.82,966.32 		"/>
		<polygon class="st46" points="335.9,967.16 335.12,968.26 340.02,977.02 341.75,976.53 341.78,966.57 340.74,965.9 		"/>
		<polygon class="st47" points="340.29,976.79 335.83,968.13 335.67,967.53 336.56,967.28 336.68,968.02 340.79,976.68 		"/>
		<path class="st48" d="M308.84,845.92L308.84,845.92c-2.06,0.5-3.34,2.6-2.83,4.66l28.51,116.99l7.49-1.83l-28.51-116.99
			C312.99,846.69,310.9,845.41,308.84,845.92"/>

			<rect x="290.71" y="901.18" transform="matrix(0.1373 -0.9905 0.9905 0.1373 -593.9242 1141.6064)" class="st49" width="135.4" height="21.16"/>
		<path class="st44" d="M331.16,976.85c-0.1-0.24-0.37-0.35-0.61-0.25c-0.24,0.1-0.35,0.37-0.25,0.61c0.1,0.24,0.37,0.34,0.61,0.24
			C331.15,977.35,331.26,977.08,331.16,976.85"/>
		<polygon class="st45" points="329.89,974.97 330.04,976.53 330.3,977.21 331.18,977.13 331.58,975.83 		"/>
		<polyline class="st46" points="326.33,965.31 326.4,967.19 333.24,966.53 333,964.87 326.34,965.15 326.4,965.22 		"/>
		<polygon class="st46" points="327.34,966.22 326.4,967.19 329.91,976.59 331.71,976.37 333.24,966.53 332.32,965.71 		"/>
		<polygon class="st47" points="330.22,976.4 327.12,967.17 327.06,966.54 327.98,966.44 327.98,967.19 330.72,976.37 		"/>
		<path class="st35" d="M319.03,842.27L319.03,842.27c-2.11,0.18-3.69,2.06-3.51,4.18l10.39,119.96l7.69-0.67l-10.39-119.96
			C323.02,843.66,321.14,842.08,319.03,842.27"/>
		<path class="st50" d="M351.97,977.75c2.4-0.76,3.85-3.05,3.53-5.51c-0.15-1.1-0.58-2.12-0.86-3.19c-0.67-2.53-1.44-5.04-2.21-7.55
			s-1.48-5.03-2.23-7.54c-0.83-2.8-1.7-5.6-2.48-8.41c-0.32-1.15-0.7-2.29-1.03-3.44c-0.86-3.06-1.8-6.09-2.7-9.14
			c-0.28-0.93-0.58-1.85-0.82-2.79c-0.27-1.05-0.92-1.96-1.21-3.01c-0.11-0.42-0.21-0.84-0.32-1.27c-0.49-1.91-0.98-3.81-1.48-5.72
			c-0.16-0.63-0.31-1.25-0.47-1.88c-0.48-1.94-0.96-3.88-1.46-5.81c-0.5-1.96-1.01-3.9-1.52-5.85c-0.33-0.11-0.65-0.2-1-0.11
			c-0.16-0.25-0.33-0.49-0.47-0.76c-0.48-0.93-1.04-1.82-1.54-2.74c-0.33-0.62-0.7-1.23-1.05-1.84c-0.54-0.97-1.11-1.92-1.63-2.9
			c-0.11-0.2-0.37-0.18-0.41-0.41c-0.14-0.89-0.79-1.53-1.11-2.32c-0.19-0.48-0.67-0.81-0.84-1.24c-0.28-0.72-0.74-1.34-1.04-2.03
			c-0.36-0.81-0.93-1.52-1.16-2.39c-0.02-0.05-0.06-0.08-0.12-0.06c0.22,0.85,0.47,1.69,0.65,2.54c0.71,3.29,1.3,6.6,1.69,9.94
			c0.32,2.71,0.59,5.43,0.69,8.16c-1.71-2.59-3.27-5.27-4.76-7.98c-1.77-3.22-3.36-6.52-4.73-9.92c-0.18-0.19-0.18-0.5-0.46-0.62
			c-0.25,0.14-0.14,0.37-0.12,0.56c0.25,2.09,0.51,4.18,0.75,6.27c0.3,2.6,0.63,5.19,0.92,7.8c0.17,1.04,0.21,2.1,0.39,3.14
			c0.12,0.71,0.08,1.34-0.45,1.87c0.15,0.2,0.25,0.42,0.34,0.66c0.51,1.33,1.03,2.66,1.56,3.98c1.05,2.63,2.11,5.25,3.17,7.88
			c0.48,1.2,1.04,2.37,1.47,3.58c0.58,1.66,1.49,3.21,1.8,4.97c0.29,1.58,0.9,3.06,1.45,4.56c1.8,4.99,3.59,9.98,5.38,14.97
			c1.22,3.45,2.43,6.89,3.65,10.33c0.08,0.23,0.1,0.49,0.29,0.67v0.04l0.02,0.03c-0.02,0.17,0.09,0.3,0.16,0.44
			c1.29,3.83,2.67,7.64,4.08,11.43c1.01,2.73,3.94,4.02,6.65,2.95C351.25,977.97,351.61,977.86,351.97,977.75 M339.01,953.49
			C339.01,953.49,339.01,953.49,339.01,953.49l-0.01-0.01C339.01,953.49,339.01,953.49,339.01,953.49 M333.03,916.73L333.03,916.73
			c0-0.01,0-0.01,0-0.01c0.01,0,0.01,0.01,0.02,0.01L333.03,916.73L333.03,916.73z"/>
		<path class="st51" d="M321.58,910.59c-0.15-1.34-0.24-2.68-0.5-4c0.01-0.09,0.02-0.19,0.01-0.28c-0.34-2.92-0.7-5.84-1.04-8.76
			c-0.22-1.86-0.43-3.73-0.65-5.59c0.15-0.27,0.05-0.56,0.02-0.83c-0.23-2.01-0.49-4.01-0.72-6.02c0-0.06,0-0.12-0.01-0.18
			c-0.24-0.94-0.17-1.8,0.46-2.61c0.38-0.49,0.52-1.06,0.41-1.66c0.12,0.22,0.27,0.41,0.45,0.59c0.32,0.25,0.67,0.43,1.04,0.57
			c0.05,0.02,0.1,0.04,0.15,0.05c0.12,0.03,0.24,0.08,0.36,0.14c0.36,0.18,0.61,0.48,0.83,0.8c0.12,0.18,0.18,0.42,0.42,0.49
			c0.01,0,0.02,0,0.03,0c0,0.5,0.39,0.82,0.6,1.23c0.32,0.7,0.66,1.39,1.07,2.05c0.67,1.05,1.27,2.13,1.79,3.25l0.04-0.01
			c0.04,0.02,0.08,0.04,0.12,0.06c0,0,0.01,0.01,0.01,0.01c-0.01,0-0.02,0-0.03,0c-0.14,0.56,0.27,0.94,0.49,1.35
			c0.73,1.37,1.4,2.77,2.26,4.07c0.66,0.99,1.02,2.17,1.76,3.12c0.34,0.44,0.47,0.99,0.78,1.45c0.68,1.05,1.2,2.2,1.85,3.27
			c0.57,0.94,1.1,1.91,1.63,2.87c0.13,0.23,0.25,0.48,0.54,0.56c0.32-0.02,0.63,0.19,0.96,0.04c-0.01-0.06-0.02-0.13-0.02-0.19
			c0.7-0.24,1.4-0.47,2.1-0.7c0.95-0.31,1.11-0.61,0.87-1.61c0-0.09,0.01-0.19,0-0.28c-0.24-2.19-0.55-4.37-0.65-6.57
			c-0.07-1.61-0.02-3.22-0.04-4.83c0.12-0.82,0.16-1.64,0.17-2.46l0.03-0.23c0.09-0.37,0.14-0.75,0.13-1.13
			c0.09-0.33,0.14-0.67,0.14-1.02l0.12-0.29c0.04-0.19,0.17-0.37,0-0.56c-0.01-0.01-0.02-0.01-0.03-0.01c0,0,0,0,0,0
			c0.01-0.06,0.02-0.11,0.03-0.17c0.03-0.11,0.06-0.23,0.09-0.35c0.07-0.03,0.08-0.11,0.09-0.18c-0.1-0.42,0.29-0.8,0.08-1.22
			c0.02-0.04,0.02-0.07,0.02-0.11c0.03,0.01,0.05,0,0.06-0.04c0.17-0.19,0.18-0.42,0.14-0.65c0.01-0.11,0.02-0.22,0.03-0.33
			c0.26-0.18,0.14-0.52,0.3-0.75c0.02-0.17,0.05-0.33,0.07-0.5c0.01-0.02,0.02-0.04,0.03-0.06c0.02-0.05,0.04-0.1,0.04-0.15
			c-0.01-0.03-0.01-0.06-0.01-0.08c0.15-0.55,0.3-1.1,0.45-1.64c0.03-0.02,0.05-0.04,0.08-0.07l0.03-0.14
			c0.09-0.34,0.17-0.67,0.26-1.01c0.01-0.02,0.02-0.04,0.03-0.06c0.03-0.05,0.05-0.09,0.06-0.14c0-0.03,0.01-0.05,0.01-0.08
			c0.1-0.21,0.18-0.43,0.21-0.66c0.01-0.02,0.02-0.04,0.03-0.06c0.01-0.02,0.01-0.05,0.02-0.07c0.25-0.1,0.19-0.37,0.27-0.56
			c0.14-0.21,0.14-0.47,0.23-0.7l0-0.01c0.22-0.24,0.25-0.54,0.31-0.84c0.02-0.05,0.04-0.09,0.06-0.14
			c0.22-0.29,0.31-0.65,0.41-0.99c0.12-0.44,0.31-0.85,0.55-1.24c0.33-0.35,0.33-0.86,0.6-1.23c0.16-0.35,0.43-0.65,0.47-1.05
			c-0.01-0.03-0.02-0.06-0.03-0.09l0.29-0.65c1.63-2.96,2.33-6.11,1.94-9.48c-0.17-1.49-0.45-2.96-1.15-4.32
			c-0.16-0.53-0.43-1.01-0.69-1.49c-0.97-1.81-2.32-3.32-3.87-4.65c-0.39-0.44-0.89-0.74-1.41-1c-0.13-0.14-0.28-0.25-0.48-0.25
			c-0.01,0.01-0.02,0.02-0.03,0.03c0,0-0.01-0.01-0.01-0.01c0-0.01,0.01-0.01,0.01-0.02c0.01-0.09-0.01-0.15-0.1-0.18
			c-0.09-0.05-0.19-0.1-0.28-0.16c-0.02,0.01-0.03,0.01-0.05,0.02c-0.01-0.01-0.01-0.01-0.01-0.02c-0.04-0.07-0.11-0.11-0.18-0.13
			c-0.06,0.01-0.12,0-0.18-0.01c-0.34-0.19-0.69-0.37-1.07-0.47c-0.2-0.1-0.4-0.21-0.6-0.31c-0.03,0.01-0.06,0.03-0.09,0.04
			c-0.05-0.02-0.09-0.04-0.14-0.06c-0.12-0.12-0.34-0.03-0.43-0.21c-0.05-0.02-0.11-0.05-0.16-0.08c-0.05-0.01-0.09,0-0.12,0.03
			c-0.13-0.31-0.47-0.19-0.69-0.26c-0.68-0.2-1.37-0.46-2.11-0.31c-0.01-0.02-0.02-0.04-0.03-0.05c-0.24-0.01-0.49-0.01-0.73-0.01
			c-0.57-0.09-1.13-0.08-1.7-0.02c-0.28,0.01-0.55,0.02-0.83,0.03c-1.02,0-1.97,0.34-2.93,0.58v0c-0.14,0.07-0.27,0.15-0.41,0.22
			c-0.25,0.09-0.5,0.17-0.75,0.26c-0.22,0.06-0.44,0.13-0.66,0.2c-0.66,0.37-1.34,0.71-1.98,1.11c-1.57,0.96-2.87,2.23-4.04,3.63
			c-0.52,0.84-1.14,1.62-1.52,2.54c-0.02,0.03-0.03,0.06-0.04,0.09c0,0.01-0.01,0.01-0.01,0.02c0,0,0,0,0,0c0,0.01,0,0.01-0.01,0.02
			c0-0.01,0-0.01,0-0.01c-0.43,0.7-0.7,1.47-0.91,2.26c-0.02,0.02-0.05,0.03-0.08,0.04l0,0c-0.16,0.24-0.24,0.51-0.22,0.8l0,0
			c-0.14,0.29-0.23,0.58-0.2,0.91c0.03,0.32-0.15,0.63-0.08,0.96c-0.35,1.96-0.2,3.91,0.35,5.8c0.78,2.66,1.68,5.28,2.53,7.92
			c0.08,0.25,0.22,0.48,0.04,0.76c-0.27,0.42-0.31,0.89-0.28,1.37c-0.01,0.12-0.01,0.25,0.01,0.37c-0.04-0.08-0.09-0.15-0.17-0.2
			c-0.08-0.09-0.17-0.18-0.25-0.27c-0.13-0.39-0.43-0.59-0.8-0.72c-0.25-0.13-0.36-0.35-0.44-0.62c-0.78-2.41-1.57-4.83-2.36-7.24
			c-0.22-0.67-0.47-1.32-0.85-1.9c-0.69-1.59-1.74-2.92-2.95-4.13c-1.6-1.61-3.52-2.73-5.61-3.59c-0.11-0.09-0.25-0.12-0.38-0.15
			c-0.09,0-0.18-0.01-0.27-0.01c-0.85-0.32-1.73-0.52-2.65-0.59c0-0.02-0.01-0.04-0.02-0.06c-0.22-0.2-0.51-0.02-0.74-0.13
			c-0.99-0.11-1.98-0.11-2.96,0.07c-2.51,0.32-4.83,1.16-6.97,2.51c-0.05,0.09-0.16,0.1-0.23,0.18c-0.15-0.04-0.27,0.07-0.4,0.13
			c-0.12,0.1-0.26,0.18-0.36,0.31c-0.02,0.05-0.03,0.09-0.02,0.14c0.01,0.01,0.01,0.02,0.02,0.02l-0.47,0.3
			c-0.03,0.05-0.05,0.09-0.08,0.14c-0.06,0.02-0.12,0.05-0.19,0.08c-0.13,0.08-0.28,0.14-0.4,0.25c-0.39,0.36-0.8,0.71-1.01,1.22
			c0.01,0.01,0.01,0.03,0.01,0.04c-0.05,0.03-0.09,0.06-0.14,0.08c0.01,0.03,0.01,0.06,0.01,0.08c-0.7,0.7-1.18,1.56-1.73,2.38
			c-0.28,0.34-0.45,0.74-0.6,1.15c-0.31,0.93-0.77,1.8-0.91,2.78c-0.25,0.8-0.39,1.61-0.41,2.45c-0.22,1.76-0.02,3.48,0.39,5.18
			c0.41,1.68,1.14,3.22,2.03,4.69c0.16,0.24,0.26,0.52,0.48,0.71c0.79,1.18,1.75,2.2,2.92,3.02c0.51,0.35,1.01,0.7,1.52,1.05
			c0.48,0.42,1.1,0.61,1.64,0.92c0.09,0.05,0.18,0.09,0.26,0.14c0.3,0.21,0.57,0.5,0.98,0.47c0.22,0.15,0.44,0.29,0.66,0.44
			c0.04,0.02,0.08,0.04,0.12,0.06c0.08,0.02,0.16,0.05,0.25,0.07l0.01,0.01c0.97,0.57,1.95,1.14,2.92,1.71h0l0,0.01
			c0.28,0.21,0.56,0.43,0.84,0.64l0.25,0.05c0.44,0.34,0.87,0.68,1.31,1.02c0.02,0,0.03-0.01,0.05-0.01
			c0.35,0.38,0.72,0.73,1.21,0.94c0.64,0.5,1.3,0.98,1.91,1.5c1.77,1.51,3.48,3.09,4.99,4.86c0.27,0.55,0.68,0.97,1.15,1.34
			c0.29,0.31,0.58,0.62,0.87,0.93c0.9,1.29,1.87,2.54,2.74,3.85c1.27,1.9,2.33,3.92,3.45,5.9c0.56,0.99,0.76,1.1,1.86,0.74
			c0.64-0.21,1.27-0.41,1.91-0.61C321.39,911.44,321.63,911.03,321.58,910.59 M346.64,863L346.64,863c0,0.01,0.01,0.02,0.01,0.04
			c-0.01-0.01-0.02-0.02-0.02-0.03C346.64,863.01,346.64,863,346.64,863c-0.01-0.02-0.01-0.05-0.02-0.07c0.01,0,0.02,0.01,0.03,0.01
			C346.65,862.96,346.65,862.98,346.64,863 M293.72,883.07c-0.23-0.2-0.44-0.43-0.74-0.54c-0.03-0.16-0.17-0.27-0.28-0.38
			c-0.28-0.29-0.57-0.58-0.84-0.88c-0.35-0.37-0.67-0.77-0.98-1.18c-2.06-2.77-2.79-5.83-2.01-9.22c0.01-0.06,0.02-0.11,0.03-0.17
			c0.12-0.6,0.32-1.16,0.59-1.71c0.11-0.21,0.29-0.42,0.14-0.68c-0.01-0.01-0.02-0.01-0.03-0.02c0,0,0.01,0,0.01,0.01
			c0.08,0.02,0.16-0.01,0.22-0.06c0.25-0.33,0.39-0.73,0.66-1.04c0.1-0.31,0.47-0.49,0.47-0.84c0.01,0,0.02,0,0.03-0.01
			c0.41-0.33,0.86-0.61,1.04-1.15c0.02,0.01,0.04,0.02,0.06,0.03c0.49-0.24,0.9-0.58,1.24-1c0.01-0.01,0.01-0.02,0.01-0.04
			c0.37,0.03,0.62-0.14,0.74-0.49c0.02,0.01,0.04,0.02,0.06,0.03c0.59-0.04,1.05-0.46,1.63-0.55c0.35-0.17,0.79-0.15,1.09-0.44
			c0.03,0,0.06-0.01,0.09-0.01c0.21-0.01,0.42-0.09,0.64-0.08c1.22-0.22,2.43-0.22,3.65-0.02c0.38-0.04,0.73,0.27,1.11,0.08
			c0.02,0.01,0.04,0.01,0.06,0.01c0.5,0.42,1.15,0.52,1.72,0.8c1.76,0.85,3.23,2.04,4.32,3.67c0.03,0.05,0.06,0.09,0.09,0.13
			c0.1,0.09,0.13,0.28,0.28,0.31c0,0.02,0,0.03,0.01,0.05c0.39,0.86,0.84,1.69,1.17,2.57c0.51,1.39,0.81,2.83,0.99,4.31
			c0.09,0.66,0.19,1.33,0.18,2c0.11,1.74-0.01,3.46-0.53,5.14c-0.02,0.05-0.03,0.11-0.04,0.16c-0.07,0.45-0.28,0.85-0.42,1.28
			c-0.39,0.84-0.84,1.64-1.52,2.29c-0.47,0.51-1.02,0.9-1.63,1.22c-0.35,0.26-0.84,0.22-1.17,0.55c0,0.01-0.01,0.01-0.01,0.02
			c-0.02,0.01-0.04,0.01-0.06,0.02c-0.2-0.1-0.41-0.02-0.6,0.01c-1.55,0.25-3.06,0.07-4.55-0.39c-0.62-0.12-1.18-0.46-1.82-0.52
			c-0.07-0.24-0.33-0.26-0.52-0.34c-0.56-0.23-1.08-0.52-1.58-0.86c-0.08-0.04-0.15-0.06-0.22-0.01l-0.12-0.02
			c-0.02-0.03-0.04-0.05-0.05-0.08C295.49,884.33,294.54,883.79,293.72,883.07 M291.27,862.09c0.17-0.11,0.33-0.08,0.49,0.01
			C291.6,862.07,291.43,862.07,291.27,862.09 M320.38,862.81c0.01-0.01,0.01-0.01,0.01-0.02c0.24-0.22,0.11-0.51,0.14-0.77
			c0.05-0.77,0.34-1.49,0.39-2.25c0.12-0.07,0.12-0.24,0.2-0.34c0.06-0.29,0.3-0.53,0.2-0.85c0.42-0.39,0.51-0.96,0.78-1.43
			c0.23-0.14,0.34-0.36,0.41-0.61c0.33-0.37,0.76-0.67,0.94-1.16l0-0.01c0.55-0.38,0.98-0.9,1.5-1.33c0.17-0.17,0.36-0.32,0.58-0.41
			c0.52-0.3,1.08-0.52,1.61-0.82c0.02-0.03,0.04-0.06,0.06-0.09c0.26,0.11,0.5,0.01,0.74-0.06c0.62-0.2,1.24-0.42,1.88-0.57
			c0.06-0.05,0.1-0.1,0.11-0.15c0.11,0.12,0.24,0.12,0.39,0.11c0.46-0.15,0.95-0.05,1.42-0.17l0.01,0c0.21,0.18,0.49,0.04,0.72,0.06
			c0.66,0.05,1.27,0.34,1.94,0.35c0.37,0.09,0.75,0.19,1.12,0.29l0.56,0.28c1.58,0.74,2.9,1.83,4.03,3.13
			c0.03,0.08,0.06,0.17,0.07,0.26c0.12,0.25,0.27,0.48,0.4,0.71c0.88,1.33,1.46,2.77,1.67,4.35c0.3,2.09,0.03,4.14-0.48,6.17
			c-0.08,0.35-0.18,0.69-0.19,1.05c0.01,0.09,0,0.19-0.01,0.28c-0.09,0.25-0.19,0.51-0.28,0.76c-0.01,0.02-0.02,0.03-0.03,0.05
			c-0.02,0.05-0.04,0.1-0.05,0.15c-0.14,0.35-0.27,0.69-0.41,1.04c-0.01,0.01-0.01,0.01-0.02,0.02c-0.02,0.03-0.04,0.07-0.05,0.11
			c-0.04,0.05-0.08,0.11-0.12,0.16c-0.4,0.62-0.83,1.23-1.01,1.96c0,0-0.01,0-0.01,0c-0.07,0.04-0.14,0.08-0.2,0.13
			c-0.04,0.03-0.08,0.07-0.11,0.11c-0.12,0.22-0.26,0.44-0.42,0.63c-0.03,0.04-0.06,0.09-0.08,0.13c-0.17,0.31-0.39,0.58-0.65,0.83
			c-0.04,0.04-0.07,0.08-0.1,0.12c-0.16,0.23-0.35,0.43-0.6,0.57c-0.22,0.14-0.41,0.31-0.54,0.54c-0.08,0.16-0.2,0.28-0.32,0.41
			c-0.03,0.04-0.06,0.08-0.08,0.13c-0.01,0.01-0.01,0.02-0.02,0.03c-0.21,0.06-0.38,0.21-0.54,0.34c-0.82,0.64-1.77,0.97-2.77,1.18
			c-0.19-0.11-0.36,0.14-0.55,0.04c-0.13-0.1-0.25-0.01-0.38,0.01c-0.22-0.04-0.44-0.05-0.66,0.03c0-0.02-0.02-0.04-0.04-0.06
			c-0.41-0.09-0.81-0.18-1.22-0.28l0-0.05c-0.09-0.05-0.16-0.11-0.26-0.13c-0.25-0.02-0.46-0.15-0.67-0.28
			c-0.25-0.11-0.54-0.16-0.78-0.32c-0.86-0.57-1.7-1.15-2.42-1.91c-0.08-0.08-0.15-0.24-0.29-0.24c-0.02-0.03-0.03-0.06-0.04-0.09
			c-0.73-0.72-1.34-1.54-1.92-2.37c-0.88-1.26-1.63-2.6-2.2-4.02c-0.41-1.02-0.78-2.05-0.95-3.15c-0.14-0.86-0.2-1.73-0.36-2.58
			C320.42,862.82,320.4,862.82,320.38,862.81 M346.5,863.35c0,0,0.01,0,0.02,0c0.08-0.01-0.05,0.06-0.05,0.12
			c0-0.01,0-0.02-0.01-0.03C346.47,863.41,346.49,863.38,346.5,863.35 M346.05,861.51C346.04,861.51,346.04,861.51,346.05,861.51
			l-0.01,0C346.04,861.5,346.04,861.5,346.05,861.51 M321.19,869.38c0,0,0.01-0.01,0.01-0.01c0.01,0,0.01,0,0.01,0.01
			C321.21,869.38,321.2,869.38,321.19,869.38 M322.45,870.65L322.45,870.65L322.45,870.65
			C322.44,870.65,322.44,870.65,322.45,870.65 M326.61,888.89C326.6,888.89,326.6,888.89,326.61,888.89c-0.01,0.01-0.01,0-0.01,0
			C326.6,888.89,326.6,888.89,326.61,888.89 M326.02,886.26c-0.01-0.01-0.01-0.02-0.01-0.03c0.01,0,0.02,0,0.03,0
			C326.03,886.23,326.03,886.25,326.02,886.26 M325.84,880.96c0,0,0.01,0.01,0.01,0.01c-0.01,0-0.01,0-0.01,0.01
			C325.84,880.97,325.84,880.97,325.84,880.96 M323.71,879.41c0,0.02,0,0.05,0,0.07c-0.02-0.02-0.04-0.04-0.06-0.05
			C323.67,879.42,323.69,879.41,323.71,879.41 M336.51,905.61C336.51,905.61,336.51,905.61,336.51,905.61c0.01,0.01,0,0.01,0,0.01
			C336.5,905.62,336.51,905.61,336.51,905.61 M336.5,905.62L336.5,905.62 M330.62,882.94L330.62,882.94
			C330.62,882.95,330.62,882.95,330.62,882.94C330.62,882.94,330.62,882.94,330.62,882.94 M312.79,866.12
			c-0.01-0.01-0.01-0.03-0.02-0.04C312.78,866.09,312.78,866.1,312.79,866.12 M329.83,847.94
			C329.83,847.94,329.83,847.93,329.83,847.94C329.83,847.93,329.83,847.93,329.83,847.94
			C329.83,847.93,329.83,847.93,329.83,847.94 M317.7,876.67c-0.01-0.01-0.01-0.02-0.02-0.03c0.01,0,0.02,0.01,0.04,0.01
			C317.71,876.66,317.7,876.67,317.7,876.67"/>
		<polygon class="st51" points="316.09,859.17 316.09,859.16 316.07,859.15 		"/>
		<path class="st51" d="M324.21,912.16c-0.1-0.05-0.19-0.1-0.29-0.15c-0.04,0.01-0.08,0.03-0.11,0.04c0.08,0.2,0.23,0.27,0.44,0.22
			C324.23,912.23,324.22,912.2,324.21,912.16"/>
		<path class="st51" d="M335.52,907.02c-0.25,0.12-0.35,0.31-0.29,0.58C335.47,907.48,335.57,907.29,335.52,907.02"/>
		<path class="st44" d="M349.68,835.01L349.68,835.01c-0.87-0.03-1.59,0.66-1.62,1.52l-0.58,18.28c-0.03,0.86,0.66,1.59,1.52,1.62
			c0.86,0.03,1.59-0.66,1.62-1.52l0.57-18.28C351.23,835.77,350.55,835.04,349.68,835.01"/>
		<path class="st44" d="M348.04,975.25c-0.08-0.24-0.34-0.38-0.58-0.31c-0.25,0.08-0.38,0.34-0.31,0.58
			c0.08,0.24,0.34,0.38,0.58,0.3C347.98,975.76,348.12,975.5,348.04,975.25"/>
		<polygon class="st45" points="346.97,973.26 346.96,974.83 347.16,975.53 348.04,975.54 348.56,974.28 		"/>
		<polyline class="st46" points="344.38,963.29 344.26,965.17 351.13,965.19 351.06,963.52 344.4,963.14 344.45,963.22 		"/>
		<polygon class="st46" points="345.29,964.3 344.27,965.17 346.83,974.87 348.64,974.83 351.13,965.2 350.3,964.28 		"/>
		<polygon class="st47" points="347.15,974.72 344.98,965.22 344.98,964.6 345.9,964.59 345.84,965.33 347.66,974.74 		"/>
		<path class="st39" d="M349.25,840.14L349.25,840.14c-2.12-0.03-3.88,1.69-3.9,3.81l-1.5,120.41l7.71,0.09l1.5-120.4
			C353.09,841.92,351.37,840.16,349.25,840.14"/>
		<path class="st3" d="M346.22,848.64l-3.61-0.07l-0.47,34.87c0,0,4.16-0.1,3.41-3.46l-1.31-2.28l0.04-26.65l4.06,0.53
			L346.22,848.64z"/>
		<path class="st43" d="M313.98,918.11c0,0,21.16,12.69,57.12,0l-8.46,57.12c0,0,6.35,8.46-10.58,6.35
			c-16.93-2.11-27.5-2.11-27.5-2.11l-4.23-8.46L313.98,918.11z"/>
		<g class="st14">
			<g>
				<defs>
					<rect id="SVGID_38_" x="110.99" y="922.69" width="184.8" height="77.86"/>
				</defs>
				<clipPath id="SVGID_39_">
					<use xlink:href="#SVGID_38_"  style="overflow:visible;"/>
				</clipPath>
				<polygon class="st52" points="295.8,922.69 278.91,965.4 270.79,965.4 254.57,1000.56 110.99,996.32 142.31,954.61 				"/>
			</g>
		</g>
		<path class="st43" d="M128.42,990.48h116.66c0.81,0,1.55-0.39,1.93-1.02l36.1-59.83c0.78-1.29-0.28-2.85-1.93-2.85H172.36
			c-0.74,0-1.43,0.33-1.83,0.88l-43.95,59.82C125.63,988.77,126.68,990.48,128.42,990.48"/>
		<polygon class="st53" points="279.81,927.52 243.88,987.89 126.58,987.48 172.36,926.78 		"/>
		<polygon class="st40" points="279.81,926.03 243.88,986.41 126.58,986 172.36,925.29 		"/>
		<polygon class="st53" points="279.81,925.29 243.88,985.67 126.58,985.26 172.36,924.55 		"/>
		<polygon class="st40" points="279.81,923.81 243.88,984.19 126.58,983.78 172.36,923.07 		"/>
		<polygon class="st40" points="279.81,924.18 243.88,984.56 126.58,984.15 172.36,923.44 		"/>
		<polygon class="st53" points="279.81,923.44 243.88,983.81 126.58,983.41 172.36,922.7 		"/>
		<polygon class="st40" points="279.81,921.96 243.88,982.33 126.58,981.93 172.36,921.22 		"/>
		<polygon class="st40" points="279.81,922.33 243.88,982.7 126.58,982.3 172.36,921.59 		"/>
		<polygon class="st53" points="279.81,921.59 243.88,981.96 126.58,981.56 172.36,920.85 		"/>
		<polygon class="st40" points="279.81,920.11 243.88,980.48 126.58,980.08 172.36,919.37 		"/>
		<polygon class="st40" points="279.81,920.48 243.88,980.85 126.58,980.45 172.36,919.74 		"/>
		<polygon class="st53" points="279.81,919.74 243.88,980.11 126.58,979.71 172.36,919 		"/>
		<polygon class="st40" points="279.81,918.26 243.88,978.63 126.58,978.22 172.36,917.52 		"/>
		<polygon class="st40" points="279.81,919 243.88,979.37 126.58,978.97 172.36,918.26 		"/>
		<polygon class="st53" points="279.81,918.26 243.88,978.63 126.58,978.22 172.36,917.52 		"/>
		<polygon class="st40" points="279.81,916.78 243.88,977.15 126.58,976.74 172.36,916.03 		"/>
		<polygon class="st40" points="279.81,917.52 243.88,977.89 126.58,977.48 172.36,916.78 		"/>
		<polygon class="st53" points="279.81,916.78 243.88,977.15 126.58,976.74 172.36,916.03 		"/>
		<polygon class="st40" points="279.81,915.29 243.88,975.66 126.58,975.26 172.36,914.55 		"/>
		<polygon class="st40" points="279.81,915.66 243.88,976.03 126.58,975.63 172.36,914.92 		"/>
		<polygon class="st53" points="279.81,915.29 243.88,975.66 126.58,975.26 172.36,914.55 		"/>
		<polygon class="st40" points="279.81,913.81 243.88,974.18 126.58,973.78 172.36,913.07 		"/>
		<polygon class="st40" points="279.81,914.18 243.88,974.55 126.58,974.15 172.36,913.44 		"/>
		<polygon class="st53" points="279.81,913.44 243.88,973.81 126.58,973.41 172.36,912.7 		"/>
		<polygon class="st40" points="279.81,911.96 243.88,972.33 126.58,971.93 172.36,911.22 		"/>
		<polygon class="st40" points="279.81,912.33 243.88,972.7 126.58,972.3 172.36,911.59 		"/>
		<polygon class="st53" points="279.81,911.59 243.88,971.96 126.58,971.56 172.36,910.85 		"/>
		<polygon class="st40" points="279.81,910.11 243.88,970.48 126.58,970.08 172.36,909.37 		"/>
		<polygon class="st40" points="279.81,910.85 243.88,971.22 126.58,970.82 172.36,910.11 		"/>
		<polygon class="st53" points="279.81,910.11 243.88,970.48 126.58,970.08 172.36,909.37 		"/>
		<polygon class="st40" points="279.81,908.63 243.88,969 126.58,968.59 172.36,907.89 		"/>
		<polygon class="st40" points="279.81,909.37 243.88,969.74 126.58,969.34 172.36,908.63 		"/>
		<polygon class="st53" points="279.81,908.63 243.88,969 126.58,968.59 172.36,907.89 		"/>
		<polygon class="st40" points="279.81,907.15 243.88,967.52 126.58,967.11 172.36,906.4 		"/>
		<path class="st43" d="M126.74,967.52H243.4c0.81,0,1.55-0.39,1.93-1.02l36.1-59.83c0.78-1.29-0.28-2.85-1.93-2.85H170.69
			c-0.74,0-1.43,0.33-1.83,0.88l-43.95,59.83C123.96,965.81,125.01,967.52,126.74,967.52"/>
		<path class="st43" d="M126.26,988.92l2.8,0.54c0,0-1.59-7.85-1.75-10.78c-0.18-3.3,0.41-14.13,0.41-14.13l-3.13,1.18
			L126.26,988.92z"/>
		<path class="st54" d="M132.3,995.9l2.39-2.7l2.39,2.48c-0.91-15.26,3.7-23.29,3.74-23.35l-4.33-0.22
			C136.27,972.38,131.29,978.95,132.3,995.9"/>
		<polygon class="st13" points="124.48,954.73 270.84,954.73 287.02,923.07 143.61,921.77 		"/>
		<polyline class="st55" points="277.01,922.29 286.41,921.27 287.02,923.07 		"/>
		<polygon class="st56" points="124.48,954.73 123.87,952.94 129.38,951.17 		"/>
		<polygon class="st56" points="123.87,952.94 270.23,952.94 286.41,921.27 142.99,919.98 		"/>
		<polygon class="st53" points="123.67,951.86 270.02,951.86 286.2,920.2 142.79,918.91 		"/>
		<polygon class="st40" points="123.67,950.42 270.02,950.42 286.2,918.76 142.79,917.47 		"/>
		<polygon class="st53" points="123.67,949.89 270.02,949.89 286.2,918.22 142.79,916.93 		"/>
		<polygon class="st40" points="123.67,948.45 270.02,948.45 286.2,916.79 142.79,915.5 		"/>
		<polygon class="st53" points="123.67,948.09 270.02,948.09 286.2,916.43 142.79,915.14 		"/>
		<polygon class="st40" points="123.67,946.66 270.02,946.66 286.2,915 142.79,913.7 		"/>
		<polygon class="st53" points="123.67,946.12 270.02,946.12 286.2,914.46 142.79,913.16 		"/>
		<polygon class="st40" points="123.67,944.68 270.02,944.68 286.2,913.02 142.79,911.73 		"/>
		<polygon class="st53" points="123.67,944.68 270.02,944.68 286.2,913.02 142.79,911.73 		"/>
		<polygon class="st40" points="123.67,943.25 270.02,943.25 286.2,911.59 142.79,910.29 		"/>
		<polygon class="st53" points="123.67,942.71 270.02,942.71 286.2,911.05 142.79,909.75 		"/>
		<polygon class="st40" points="123.67,941.27 270.02,941.27 286.2,909.61 142.79,908.32 		"/>
		<polygon class="st53" points="123.67,940.92 270.02,940.92 286.2,909.25 142.79,907.96 		"/>
		<polygon class="st40" points="123.67,939.48 270.02,939.48 286.2,907.82 142.79,906.53 		"/>
		<polygon class="st53" points="123.67,938.94 270.02,938.94 286.2,907.28 142.79,905.99 		"/>
		<polygon class="st40" points="123.67,937.51 270.02,937.51 286.2,905.85 142.79,904.55 		"/>
		<polygon class="st53" points="123.67,937.15 270.02,937.15 286.2,905.49 142.79,904.19 		"/>
		<polygon class="st40" points="123.67,935.71 270.02,935.71 286.2,904.05 142.79,902.76 		"/>
		<polygon class="st53" points="123.67,935.17 270.02,935.17 286.2,903.51 142.79,902.22 		"/>
		<polygon class="st40" points="123.67,933.74 270.02,933.74 286.2,902.08 142.79,900.78 		"/>
		<polygon class="st53" points="123.67,933.74 270.02,933.74 286.2,902.08 142.79,900.78 		"/>
		<polygon class="st40" points="123.67,932.3 270.02,932.3 286.2,900.64 142.79,899.35 		"/>
		<polygon class="st53" points="123.67,931.77 270.02,931.77 286.2,900.1 142.79,898.81 		"/>
		<polygon class="st40" points="123.67,930.33 270.02,930.33 286.2,898.67 142.79,897.37 		"/>
		<polygon class="st13" points="123.67,931.05 270.02,931.05 286.2,899.39 142.79,898.09 		"/>
		<polyline class="st55" points="276.2,898.6 285.59,897.59 286.2,899.39 		"/>
		<polygon class="st13" points="123.67,931.05 123.05,929.26 128.57,927.49 		"/>
		<polygon class="st10" points="123.05,929.25 269.41,929.25 285.59,897.59 142.18,896.3 		"/>
		<path class="st10" d="M123.87,953.86l146.61,0.18c0,0-1.02-8.74-1.02-11.66c-0.01-3.06,1.02-12.2,1.02-12.2L123.05,930
			c0,0-1.03,9.14-1.02,12.2C122.04,945.12,123.87,953.86,123.87,953.86"/>
		<path class="st13" d="M144.6,953.28h23.43c0,0-0.77-8-0.77-10.76c0-2.96,0.77-12.11,0.77-12.11H144.6c0,0-0.77,9.25-0.77,12.24
			C143.83,945.37,144.6,953.28,144.6,953.28"/>
		<polygon class="st55" points="144.65,922.68 259.28,926.42 273.03,901.38 160.75,896.68 		"/>
		<polyline class="st55" points="265.22,900.49 272.61,899.92 273.03,901.38 		"/>
		<polygon class="st55" points="144.65,922.68 144.23,921.22 148.61,919.94 		"/>
		<polygon class="st6" points="144.23,921.22 258.86,924.96 272.6,899.92 160.33,895.22 		"/>
		<polygon class="st53" points="144.11,920.35 258.74,924.09 272.48,899.05 160.21,894.35 		"/>
		<polygon class="st40" points="144.16,919.2 258.78,922.94 272.53,897.9 160.25,893.19 		"/>
		<polygon class="st53" points="144.18,918.77 258.8,922.5 272.55,897.46 160.27,892.76 		"/>
		<polygon class="st40" points="144.22,917.61 258.85,921.35 272.6,896.31 160.32,891.61 		"/>
		<polygon class="st53" points="144.24,917.32 258.86,921.06 272.61,896.02 160.33,891.32 		"/>
		<polygon class="st40" points="144.29,916.17 258.91,919.91 272.66,894.87 160.38,890.17 		"/>
		<polygon class="st53" points="144.3,915.74 258.93,919.47 272.68,894.44 160.4,889.73 		"/>
		<polygon class="st40" points="144.35,914.58 258.98,918.32 272.73,893.28 160.45,888.58 		"/>
		<polygon class="st53" points="144.35,914.58 258.98,918.32 272.73,893.28 160.45,888.58 		"/>
		<polygon class="st40" points="144.4,913.43 259.03,917.17 272.78,892.13 160.5,887.43 		"/>
		<polygon class="st53" points="144.42,913 259.05,916.73 272.79,891.7 160.52,886.99 		"/>
		<polygon class="st40" points="144.47,911.84 259.09,915.58 272.84,890.54 160.56,885.84 		"/>
		<polygon class="st53" points="144.48,911.55 259.11,915.29 272.85,890.25 160.58,885.55 		"/>
		<polygon class="st40" points="144.53,910.4 259.15,914.14 272.9,889.1 160.62,884.4 		"/>
		<polygon class="st53" points="144.55,909.97 259.17,913.71 272.92,888.67 160.64,883.96 		"/>
		<polygon class="st40" points="144.6,908.81 259.22,912.55 272.97,887.51 160.69,882.81 		"/>
		<polygon class="st53" points="144.61,908.53 259.23,912.26 272.98,887.22 160.7,882.52 		"/>
		<polygon class="st40" points="144.66,907.37 259.28,911.11 273.03,886.07 160.75,881.37 		"/>
		<polygon class="st53" points="144.68,906.94 259.3,910.68 273.05,885.64 160.77,880.94 		"/>
		<polygon class="st40" points="144.72,905.79 259.35,909.52 273.1,884.48 160.82,879.78 		"/>
		<polygon class="st53" points="144.72,905.79 259.35,909.52 273.1,884.48 160.82,879.78 		"/>
		<polygon class="st40" points="144.77,904.63 259.4,908.37 273.15,883.33 160.87,878.63 		"/>
		<polygon class="st53" points="144.79,904.2 259.42,907.94 273.17,882.9 160.89,878.2 		"/>
		<polygon class="st40" points="144.84,903.05 259.47,906.78 273.21,881.74 160.94,877.04 		"/>
		<polygon class="st6" points="144.82,903.62 259.44,907.36 273.19,882.32 160.91,877.62 		"/>
		<polyline class="st6" points="265.38,881.44 272.77,880.86 273.19,882.32 		"/>
		<polygon class="st6" points="144.82,903.62 144.4,902.17 148.77,900.89 		"/>
		<polygon class="st6" points="144.4,902.17 259.02,905.9 272.77,880.86 160.49,876.16 		"/>
		<path class="st6" d="M144.2,921.97l114.82,3.89c0,0-0.5-7.05-0.4-9.4c0.1-2.46,1.21-9.78,1.21-9.78l-115.46-3.91
			c0,0-1.11,7.32-1.21,9.78C143.06,914.89,144.2,921.97,144.2,921.97"/>
		<g>
			<g>
				<defs>
					<rect id="SVGID_40_" x="160.2" y="903.64" width="19.38" height="18.99"/>
				</defs>
				<clipPath id="SVGID_41_">
					<use xlink:href="#SVGID_40_"  style="overflow:visible;"/>
				</clipPath>
				<path class="st57" d="M160.45,922.03l18.35,0.6c0,0-0.33-6.46-0.24-8.67c0.1-2.38,1.01-9.72,1.01-9.72l-18.35-0.6
					c0,0-0.91,7.42-1.01,9.82C160.12,915.65,160.45,922.03,160.45,922.03"/>
			</g>
		</g>
		<g class="st14">
			<g>
				<defs>
					<rect id="SVGID_42_" x="901.03" y="965.33" width="89.1" height="27.65"/>
				</defs>
				<clipPath id="SVGID_43_">
					<use xlink:href="#SVGID_42_"  style="overflow:visible;"/>
				</clipPath>
				<path class="st58" d="M990.13,979.15c0,7.64-19.95,13.83-44.55,13.83c-24.6,0-44.55-6.19-44.55-13.83
					c0-7.64,19.95-13.83,44.55-13.83C970.18,965.33,990.13,971.52,990.13,979.15"/>
			</g>
		</g>
		<path class="st13" d="M979.16,908.59c0,0.91-16.22,1.64-36.23,1.64c-20.01,0-36.23-0.74-36.23-1.64c0-0.91,16.22-1.64,36.23-1.64
			C962.94,906.95,979.16,907.69,979.16,908.59"/>
		<path class="st35" d="M962.18,887.07l-0.3-0.06c-3.86-6.61-11.01-11.06-19.22-11.06c-12.3,0-22.28,9.97-22.28,22.28l-1.16,41.46
			l48.78,2.33C968.01,942.01,970.18,898.18,962.18,887.07"/>
		<path class="st10" d="M967.34,980.48c0,0-17.28,3.17-23.12,3.28c-6.34,0.12-25.21-2.63-25.21-2.63l-6.1-59.09h60.05L967.34,980.48
			z"/>
		<path class="st13" d="M931.32,933.47c-6.37,3.68-7.6,6-11.03,12.21c-1.23,2.24-2.49,7.96-2.66,10.5
			c-0.18,2.73,0.53,8.69-0.67,11.16c0.62-4.59-3.18-35.19-3.78-33.93c-0.21,0.45,8.87-0.07,10.97-0.01
			C926.55,933.48,928.93,933.5,931.32,933.47"/>
		<path class="st59" d="M939.95,878.19c-2.64,1.79-5.25,4.01-7.29,6.54c-2.15,2.48-3.82,5.32-5.2,8.28
			c-1.29,2.99-2.44,6.1-2.99,9.38c-0.37,1.62-0.36,3.29-0.52,4.94c-0.01,1.66,0.09,3.32,0.14,4.98l-0.28-0.26
			c2.06-0.01,4.12-0.07,6.17-0.13c2.06-0.05,4.12-0.16,6.17-0.28l-0.68,0.8v0c-0.52-2.92-0.75-5.83-0.85-8.77
			c-0.09-2.94,0.03-5.88,0.28-8.81c0.34-2.92,0.83-5.83,1.61-8.67c0.47-1.4,0.86-2.82,1.46-4.16
			C938.5,880.58,939.2,879.59,939.95,878.19 M940.06,878.09c-0.45,1.25-1.1,2.85-1.45,4.18c-0.48,1.36-0.75,2.78-1.08,4.18
			c-0.54,2.83-0.92,5.68-1.1,8.55c-0.2,2.87-0.21,5.75-0.14,8.63c0.08,2.87,0.26,5.77,0.55,8.6l0.07,0.84l-0.75-0.04
			c-2.06-0.12-4.12-0.23-6.17-0.28c-2.06-0.06-4.12-0.13-6.17-0.13h-0.28v-0.26c-0.01-1.68-0.08-3.36-0.05-5.03l0.15-2.51
			c0.03-0.84,0.07-1.68,0.21-2.51l0.31-2.51c0.12-0.84,0.35-1.65,0.53-2.48c0.31-1.67,0.95-3.26,1.53-4.85
			c1.35-3.13,3.31-5.98,5.58-8.49C934.18,881.52,936.76,879.36,940.06,878.09"/>
		<path class="st59" d="M946.67,878.09c3.29,1.27,5.88,3.43,8.26,5.88c2.27,2.52,4.23,5.36,5.58,8.49c0.58,1.6,1.22,3.18,1.53,4.85
			c0.17,0.83,0.41,1.64,0.53,2.48l0.31,2.51c0.14,0.83,0.19,1.67,0.21,2.51l0.15,2.51c0.04,1.67-0.03,3.35-0.05,5.03v0.26h-0.28
			c-2.06,0.01-4.12,0.07-6.17,0.13c-2.06,0.05-4.12,0.16-6.18,0.28l-0.75,0.05l0.07-0.84c0.29-2.84,0.48-5.73,0.55-8.6
			c0.07-2.88,0.06-5.76-0.14-8.63c-0.17-2.87-0.56-5.72-1.1-8.55c-0.34-1.4-0.61-2.82-1.08-4.18
			C947.77,880.94,947.12,879.34,946.67,878.09 M946.78,878.19c0.75,1.4,1.45,2.39,1.98,3.83c0.61,1.35,1,2.76,1.46,4.16
			c0.77,2.84,1.26,5.75,1.61,8.67c0.25,2.93,0.37,5.87,0.28,8.8c-0.1,2.94-0.33,5.85-0.85,8.77v0l-0.68-0.8
			c2.06,0.12,4.12,0.23,6.18,0.28c2.06,0.06,4.12,0.13,6.17,0.13l-0.28,0.26c0.04-1.66,0.14-3.32,0.14-4.98
			c-0.16-1.65-0.15-3.32-0.53-4.94c-0.54-3.28-1.7-6.39-2.99-9.38c-1.38-2.96-3.05-5.8-5.19-8.28
			C952.03,882.2,949.43,879.98,946.78,878.19"/>
		<path class="st10" d="M935.95,908.92l-29.25-0.33l2.37,22.52c0.16,1.56,1.5,2.75,3.09,2.75h60.56c2.15,0,3.95-1.6,4.17-3.71
			l2.27-21.56"/>
		<path class="st60" d="M922.28,885.57c0.71-0.29,1.2-0.18,1.63,0.03c0.41,0.25,0.76,0.61,0.89,1.37c-0.72,0.3-1.2,0.18-1.63-0.03
			C922.76,886.69,922.4,886.34,922.28,885.57"/>
		<path class="st60" d="M926.01,878.05c0.97,0.23,1.55,0.71,2.05,1.28c0.46,0.59,0.83,1.25,0.87,2.26
			c-0.94-0.18-1.54-0.69-2.05-1.28C926.4,879.7,926.01,879.01,926.01,878.05"/>
		<path class="st60" d="M929.08,885.74c0.97,0.23,1.55,0.71,2.05,1.28c0.46,0.59,0.83,1.26,0.87,2.26
			c-0.94-0.18-1.54-0.69-2.05-1.28C929.48,887.38,929.08,886.69,929.08,885.74"/>
		<path class="st60" d="M935.23,884.2c0.97,0.23,1.55,0.71,2.05,1.28c0.46,0.59,0.83,1.26,0.87,2.26c-0.94-0.18-1.54-0.7-2.05-1.28
			C935.62,885.84,935.23,885.15,935.23,884.2"/>
		<path class="st60" d="M933.52,872.84c0.86,0.74,1.28,1.62,1.59,2.53c0.27,0.93,0.42,1.89,0.12,2.99
			c-0.87-0.74-1.28-1.62-1.59-2.53C933.38,874.9,933.22,873.94,933.52,872.84"/>
		<path class="st60" d="M940.7,867.46c0.8,1.51,1.14,3.07,1.36,4.65c0.18,1.58,0.24,3.18-0.16,4.85c-0.81-1.5-1.14-3.07-1.37-4.65
			C940.37,870.71,940.3,869.11,940.7,867.46"/>
		<path class="st60" d="M947.58,873.87c0.01,1.71-0.42,3.25-0.95,4.75c-0.57,1.48-1.25,2.93-2.39,4.22
			c-0.02-1.7,0.41-3.25,0.95-4.75C945.77,876.6,946.46,875.14,947.58,873.87"/>
		<path class="st60" d="M941.4,898.37c1.06,1.35,1.67,2.82,2.17,4.34c0.46,1.53,0.8,3.08,0.71,4.79c-1.06-1.33-1.67-2.82-2.17-4.33
			C941.65,901.63,941.3,900.06,941.4,898.37"/>
		<path class="st60" d="M954.88,873.54c0.18,1.21-0.08,2.24-0.44,3.23c-0.41,0.98-0.92,1.91-1.87,2.67
			c-0.18-1.21,0.08-2.24,0.44-3.23C953.42,875.24,953.93,874.31,954.88,873.54"/>
		<path class="st60" d="M967.11,882.71c-0.21,1.4-0.88,2.54-1.67,3.57c-0.83,1-1.8,1.9-3.13,2.4c0.44-1.34,1.16-2.36,1.93-3.36
			C965.05,884.35,965.89,883.43,967.11,882.71"/>
		<path class="st60" d="M954.82,893.47c-0.21,1.4-0.88,2.54-1.67,3.57c-0.83,1-1.8,1.9-3.13,2.4c0.44-1.34,1.16-2.36,1.93-3.36
			C952.76,895.11,953.6,894.19,954.82,893.47"/>
		<path class="st60" d="M959.43,882.71c-0.21,1.4-0.88,2.54-1.67,3.57c-0.83,1-1.8,1.9-3.13,2.4c0.44-1.34,1.16-2.36,1.93-3.36
			C957.37,884.35,958.21,883.43,959.43,882.71"/>
		<path class="st60" d="M916.93,893.76c1.2-0.54,2.37-0.61,3.53-0.58c1.16,0.09,2.32,0.29,3.45,0.96c-1.2,0.54-2.37,0.62-3.53,0.58
			C919.22,894.63,918.06,894.43,916.93,893.76"/>
		<path class="st60" d="M925.03,896.9c1.31,0.02,2.4,0.46,3.44,0.99c1.01,0.57,1.97,1.25,2.71,2.34c-1.31-0.02-2.4-0.45-3.44-0.99
			C926.73,898.66,925.77,897.98,925.03,896.9"/>
		<path class="st60" d="M913.86,902.98c1.2-0.54,2.37-0.61,3.53-0.58c1.16,0.09,2.32,0.28,3.45,0.96c-1.2,0.54-2.37,0.62-3.53,0.58
			C916.14,903.85,914.99,903.65,913.86,902.98"/>
		<path class="st60" d="M969.04,894.49c0.01,0.54-0.41,1.02-0.85,1.26c-0.45,0.27-0.93,0.35-1.36,0.4
			c-0.44,0.02-0.84,0.02-1.23-0.04l-1.29-0.19c0.2-0.5,0.66-0.81,1.09-1c0.44-0.19,0.88-0.25,1.29-0.3
			c0.41-0.02,0.78-0.03,1.13-0.01C968.19,894.61,968.53,894.64,969.04,894.49"/>
		<path class="st60" d="M964.13,897.66c0.24,0.8,0.01,1.76-0.52,2.47c-0.52,0.73-1.23,1.21-1.9,1.63c-0.69,0.39-1.36,0.72-2.01,1.04
			c-0.65,0.33-1.26,0.67-1.91,1.19c0.08-0.84,0.61-1.6,1.21-2.17c0.6-0.58,1.29-0.99,1.93-1.38
			C962.25,899.65,963.34,899.14,964.13,897.66"/>
		<path class="st60" d="M969.04,903.71c0.01,0.54-0.41,1.02-0.85,1.26c-0.45,0.27-0.93,0.35-1.36,0.4
			c-0.44,0.02-0.84,0.02-1.23-0.04l-1.29-0.19c0.2-0.5,0.66-0.81,1.09-1c0.44-0.19,0.88-0.25,1.29-0.3
			c0.41-0.02,0.78-0.03,1.13-0.01C968.19,903.83,968.53,903.85,969.04,903.71"/>
		<g class="st14">
			<g>
				<defs>
					<rect id="SVGID_44_" x="151.69" y="873.81" width="118.96" height="35.6"/>
				</defs>
				<clipPath id="SVGID_45_">
					<use xlink:href="#SVGID_44_"  style="overflow:visible;"/>
				</clipPath>
				<path class="st61" d="M270.65,891.61c0,9.83-26.63,17.8-59.48,17.8c-32.85,0-59.48-7.97-59.48-17.8
					c0-9.83,26.63-17.8,59.48-17.8C244.02,873.81,270.65,881.78,270.65,891.61"/>
			</g>
		</g>
		<path class="st62" d="M358.87,713.86c0.78,12.9-9.03,23.99-21.93,24.77c-12.9,0.78-23.99-9.03-24.77-21.93
			c-0.79-12.9,9.03-23.99,21.93-24.77C346.99,691.14,358.09,700.96,358.87,713.86"/>
		<path class="st7" d="M261.42,887.08c0,8.81-21.99,15.95-49.12,15.95c-27.13,0-49.13-7.14-49.13-15.95
			c0-8.81,21.99-15.95,49.13-15.95C239.43,871.13,261.42,878.27,261.42,887.08"/>
		<path class="st7" d="M255.04,879.02c0,9.29-19.42,16.83-43.38,16.83c-23.96,0-43.38-7.53-43.38-16.83
			c0-9.29,19.42-16.83,43.38-16.83C235.62,862.19,255.04,869.73,255.04,879.02"/>
		<path class="st63" d="M210.18,873.42c-1.84,0-3.58-1.11-4.29-2.92c-2.22-5.64-53.89-138.76-9.12-187.31
			c17.43-18.9,46.69-22.31,86.98-10.11c2.44,0.74,3.81,3.31,3.07,5.75c-0.74,2.43-3.31,3.81-5.75,3.07
			c-36.61-11.08-62.69-8.55-77.53,7.54c-16.66,18.06-20.16,54.27-10.13,104.71c7.74,38.91,20.92,72.63,21.05,72.97
			c0.93,2.37-0.23,5.05-2.6,5.98C211.32,873.31,210.75,873.42,210.18,873.42"/>
		<path class="st7" d="M291.93,666.95c12.37,4.17,19.91,14.94,16.84,24.06c-3.07,9.12-15.59,13.13-27.97,8.96
			c-12.37-4.17-23.71-6-16.84-24.06C271.74,655.46,279.55,662.78,291.93,666.95"/>
		<path class="st7" d="M286.48,685.45c0,0-17.6,41.44,26.75,73.64l55.67-83.55c0,0-28.97-30.75-75.72-2.96"/>
		<path class="st44" d="M623.49,949.39L623.49,949.39c0.13-0.7-0.34-1.38-1.04-1.51l-14.88-2.71c-0.7-0.13-1.38,0.34-1.51,1.04
			c-0.13,0.7,0.34,1.38,1.04,1.51l14.88,2.71C622.68,950.56,623.36,950.09,623.49,949.39"/>
		<path class="st44" d="M509,930.85c0.21-0.03,0.35-0.23,0.32-0.44c-0.03-0.21-0.23-0.35-0.44-0.32c-0.21,0.03-0.35,0.23-0.32,0.44
			C508.59,930.74,508.79,930.88,509,930.85"/>
		<polygon class="st45" points="510.76,930.22 509.47,930.02 508.88,930.09 508.76,930.81 509.73,931.39 		"/>
		<polyline class="st46" points="519.23,929.32 517.7,929 516.84,934.61 518.22,934.75 519.35,929.36 519.28,929.39 		"/>
		<polygon class="st46" points="518.29,929.94 517.7,929 509.46,929.9 509.27,931.39 516.84,934.61 517.69,934.04 		"/>
		<polygon class="st47" points="509.54,930.19 517.57,929.57 518.09,929.66 517.98,930.41 517.38,930.26 509.46,930.6 		"/>
		<path class="st39" d="M619.35,948.41L619.35,948.41c0.28-1.73-0.9-3.38-2.64-3.66l-98.29-15.99l-1.02,6.3l98.29,15.99
			C617.42,951.33,619.07,950.14,619.35,948.41"/>
		<path class="st3" d="M612.77,944.88l0.5-2.95l-28.46-4.65c0,0-0.42,3.41,2.41,3.21l2.03-0.79l21.79,3.3l-0.93,3.25L612.77,944.88z
			"/>
		<g class="st64">
			<g>
				<defs>
					<rect id="SVGID_46_" x="748.79" y="957.32" width="149.39" height="50.97"/>
				</defs>
				<clipPath id="SVGID_47_">
					<use xlink:href="#SVGID_46_"  style="overflow:visible;"/>
				</clipPath>
				<path class="st65" d="M748.79,982.81c0,14.08,33.44,25.49,74.7,25.49c41.25,0,74.69-11.41,74.69-25.49
					c0-14.08-33.44-25.49-74.69-25.49C782.23,957.32,748.79,968.74,748.79,982.81"/>
			</g>
		</g>
		<g class="st66">
			<g>
				<polygon class="st67" points="849.71,880.43 796.55,880.43 768,901.87 768,975.76 796.55,997.2 849.71,997.2 878.32,975.8
					878.32,901.84 				"/>
			</g>
		</g>
		<path class="st67" d="M878.32,901.83l-28.61-21.41h-53.16L768,901.87v73.89l28.55,21.44h53.16l28.61-21.41V901.83z M872.98,972.05
			l-21.4-15.04v-36.39l21.4-15.03V972.05z M800.74,921.93h44.84v33.76h-44.84V921.93z M846.24,916.59h-45.5v-30.82h45.5V916.59z
			 M799.42,961.04h46.16v30.82h-46.16V961.04z M851.58,914.1v-25.83l18.38,12.91L851.58,914.1z M795.4,887.76v26.83l-19.09-13.42
			L795.4,887.76z M773.34,905.63l20.74,14.57v37.24L773.34,972V905.63z M794.08,963.96v24.98l-17.78-12.49L794.08,963.96z
			 M850.92,989.83v-26.76l19.04,13.38L850.92,989.83z"/>
		<path class="st41" d="M884.43,947.48l-0.75,3.95c-0.05,0.24-0.39,0.24-0.44,0l-0.75-3.95c-0.15-0.8-0.78-1.43-1.58-1.58
			l-3.95-0.75c-0.24-0.05-0.24-0.39,0-0.44l3.95-0.75c0.8-0.15,1.43-0.78,1.58-1.58l0.75-3.95c0.05-0.24,0.39-0.24,0.44,0l0.75,3.95
			c0.15,0.8,0.78,1.43,1.58,1.58l3.95,0.75c0.24,0.05,0.24,0.39,0,0.44L886,945.9C885.21,946.05,884.58,946.68,884.43,947.48"/>
		<path class="st41" d="M793.57,917.08l-0.71,5.11c-0.04,0.29-0.46,0.29-0.5,0l-0.71-5.11c-0.21-1.45-1.31-2.61-2.75-2.89
			l-3.12-0.59c-0.27-0.05-0.27-0.44,0-0.49l3.12-0.59c1.44-0.28,2.54-1.44,2.75-2.89l0.71-5.11c0.04-0.29,0.46-0.29,0.5,0l0.71,5.11
			c0.2,1.45,1.31,2.61,2.75,2.89l3.12,0.59c0.27,0.05,0.27,0.44,0,0.49l-3.12,0.59C794.88,914.47,793.77,915.63,793.57,917.08"/>
		<path class="st41" d="M851.38,934.53l-0.82,5.86c-0.05,0.39-0.62,0.39-0.68,0l-0.82-5.86c-0.36-2.6-2.34-4.68-4.92-5.18
			l-3.18-0.61c-0.37-0.07-0.37-0.6,0-0.67l3.18-0.61c2.58-0.49,4.56-2.57,4.92-5.18l0.82-5.86c0.06-0.39,0.62-0.39,0.68,0l0.82,5.86
			c0.36,2.6,2.34,4.69,4.93,5.18l3.18,0.61c0.37,0.07,0.37,0.6,0,0.67l-3.18,0.61C853.72,929.85,851.74,931.93,851.38,934.53"/>
		<path class="st41" d="M778.36,933.21l-0.49,3.51c-0.06,0.45-0.72,0.45-0.78,0l-0.49-3.51c-0.7-4.96-4.47-8.93-9.39-9.87
			l-0.43-0.08c-0.43-0.08-0.43-0.69,0-0.77l0.43-0.08c4.92-0.94,8.7-4.91,9.39-9.87l0.49-3.51c0.06-0.45,0.72-0.45,0.78,0l0.49,3.51
			c0.69,4.96,4.47,8.93,9.39,9.87l0.43,0.08c0.43,0.08,0.43,0.69,0,0.77l-0.43,0.08C782.83,924.27,779.05,928.24,778.36,933.21"/>
	</g>
</g>
<g>
	<g class="st14">
		<g>
			<defs>
				<rect id="SVGID_48_" x="1632.97" y="1527.6" width="214.46" height="51"/>
			</defs>
			<clipPath id="SVGID_49_">
				<use xlink:href="#SVGID_48_"  style="overflow:visible;"/>
			</clipPath>
			<path class="st68" d="M1847.43,1553.1c0,14.08-48.01,25.5-107.23,25.5s-107.23-11.42-107.23-25.5s48.01-25.5,107.23-25.5
				S1847.43,1539.01,1847.43,1553.1"/>
		</g>
	</g>
	<path class="st69" d="M1809.47,1383.74c0,2.03-33.68,3.68-75.22,3.68c-41.54,0-75.22-1.65-75.22-3.68s33.68-3.68,75.22-3.68
		C1775.79,1380.06,1809.47,1381.71,1809.47,1383.74"/>
	<path class="st70" d="M1685.73,1398.8c-1.66-44.86,3.97-89.53,9.33-133.78c5.37-44.24,10.51-89.12,7.9-133.89
		c-1.38-23.64-4.91-46.88-7.47-70.31c-3.25-29.69-4.95-59.73-5.09-89.79c31.17,72.99,36.15,162.74,37.88,248.63
		c0.61,30.26,0.92,60.54,0.93,90.81c0.01,30.51-0.28,61.02-0.88,91.53c-0.29,15.13-0.67,30.26-1.11,45.38
		c-0.22,7.62-0.47,15.24-0.73,22.86c-0.23,6.7,0.09,14.09-0.87,20.66c-2.74,18.83-20.21,1.46-24.45-6.39
		c-5.04-9.35-7.45-22.61-9.65-33.85c-2.64-13.52-4.35-27.41-5.26-41.39C1686.04,1405.78,1685.86,1402.29,1685.73,1398.8"/>
	<path class="st60" d="M1725.85,1138.63c-8.07,73.77-26.62,148.43-13.83,221.24c5.21,29.67,17.39,60.3,40.31,73.35
		c18.29-60.26,18.98-125.79,19.47-189.88c0.49-63.49,0.82-128.22-15.16-188.77c-2.46-9.32-5.22-18.52-7.33-27.97
		c-1.03-4.61-1.91-9.29-2.49-14.01c-0.36-3-1.78-9.18-0.11-11.8c-4.95,17.22-9.26,34.14-11.92,52.14
		c-2.69,18.21-4.32,36.61-5.97,54.99C1727.9,1118.16,1726.97,1128.41,1725.85,1138.63"/>
	<path class="st59" d="M1765.05,1434.57c0,0-11.82-183.44,28.08-304.25l-6.9,102.49c0,0-4.98,83.05,4.21,110.63
		c9.19,27.58-6.99,51.56-6.99,51.56L1765.05,1434.57z"/>
	<path class="st35" d="M1716.37,1439.34c1.18-62.07-0.55-124.48-8.44-185.52c-2.92-22.56-6.66-44.88-10.4-67.19
		c-12.58-74.94-25.27-150.36-46.97-220.84c17.74,108.33,25.86,219.92,24.1,331.19c-0.47,30.01-1.65,60.29,2.12,89.81
		c3.77,29.52,13.13,58.8,29.88,76.67c8.21,8.76,21.55,13.23,27.41,1.17c2.84-5.84,2.73-13.55,2.52-20.67
		c-0.44-14.87-0.88-29.73-1.33-44.59"/>
	<path class="st49" d="M1719.76,1384.48l-60.73-0.74l4.92,50.5c0.34,3.5,3.11,6.17,6.42,6.17h125.74c4.46,0,8.2-3.6,8.66-8.33
		l4.71-48.35"/>
	<path class="st49" d="M1784.93,1544.93c0,0-35.88,7.11-48,7.36c-13.16,0.27-52.35-5.89-52.35-5.89l-12.67-132.49h124.68
		L1784.93,1544.93z"/>
	<g>
		<g>
			<defs>
				<rect id="SVGID_50_" x="1674.35" y="1440.68" width="35.16" height="54.09"/>
			</defs>
			<clipPath id="SVGID_51_">
				<use xlink:href="#SVGID_50_"  style="overflow:visible;"/>
			</clipPath>
			<path class="st71" d="M1709.51,1440.68c-21.63,8.11-27.04,35.16-29.75,54.09c-2.7-24.34-5.41-54.09-5.41-54.09
				C1673.91,1441.69,1704.56,1440.74,1709.51,1440.68"/>
		</g>
	</g>
</g>
</svg>
