<svg xmlns="http://www.w3.org/2000/svg" width="224" height="141" fill="none"><path fill="#964F99" d="M19.3 120.04v-74.2l145.4-24.7 1.6 25.2c0 4.8 3.9 8.7 8.7 8.7l29.4-1.1v66.1c0 3.3-2.7 6-6 6H25.3c-3.3 0-6-2.7-6-6Z"/><path fill="#D7B0D3" d="M179.9 48.24c6.3-5.4 9.5-9.9 15.8-15.2v11.7c0 1.2 1.1 2.2 2.3 2l6.4-1.1v-25.4c0-2.4-1.9-4.3-4.3-4.3l-25.9 3.8.4 6.1c.1 1.4 1.4 2.5 2.8 2.3l11.8-1.6-15.6 14.9c-.7.6-1.1 1.5-1 2.4.1 1.1 0 1.5 1 2.9 2.2 2.2 2.8 2 4.4 2.2.7 0 1.4-.2 1.9-.7Z"/><path fill="#fff" d="M36.2 64.64h4.6v13.7c0 2.5 1.3 3.9 3.4 3.9 2 0 3.4-1.5 3.4-3.9v-13.7h4.6v14c0 4.4-3.6 7.5-8 7.5s-8-3-8-7.5v-14ZM56.4 64.64H61v7.8l5.5-7.8h5.4l-6.9 9.2 7.7 11.9h-5.4l-5.1-8.1-1.2 1.7v6.4h-4.6v-21.1ZM82.3 64.64h12.6v3.9h-8v4.7h6.7l-.2 3.7h-6.6v4.9h8.3v3.9H82.3v-21.1ZM102 77.34l-4.6-8h4.9l2.2 4.1 2.3-4.1h4.8l-4.6 7.8 5 8.5h-5l-2.5-4.6-2.6 4.6H97l5-8.3ZM118.4 92.34h-4.5v-16.5c0-4.3 3.2-6.8 6.9-6.8s6.8 2.5 6.8 6.8v3.4c0 4.6-3.2 6.9-6.5 6.9-1 0-2.1-.4-2.8-.7v6.9h.1Zm2.3-10c1.3 0 2.4-.9 2.4-3.2v-3.1c0-2.2-1-3.2-2.4-3.2s-2.4 1.1-2.4 3.2v5.8c.8.3 1.6.5 2.4.5ZM130.6 76.14c0-4.5 2.9-7.1 7-7.1 4 0 7 2.7 7 7.1v2.8c0 4.5-2.9 7.1-7 7.1-4 0-7-2.7-7-7.1v-2.8Zm7 6.2c1.9 0 2.5-1.4 2.5-3.5v-2.5c0-2.2-.7-3.5-2.5-3.5-1.9 0-2.5 1.4-2.5 3.5v2.5c-.1 2.1.6 3.5 2.5 3.5ZM147.9 75.34c0-3.8 2.9-6.3 6.6-6.3 1 0 2.2.2 3.1.5l-.8 3.6c-.7-.2-1.5-.3-2.2-.3-1.4 0-2.2 1.1-2.2 2.5v10.4H148v-10.4h-.1ZM161.1 72.34h-2l-.7-3h2.7v-4.4l4.5-.6v5h2.6v3h-2.6v13.4h-4.5v-13.4ZM43.1 95.04H46l5.6 17.7H49l-1.5-4.8h-6.1l-1.5 4.8h-2.5l5.7-17.7Zm3.8 10.8-1.7-5.5c-.2-.7-.5-1.8-.8-2.8-.2 1-.5 2-.7 2.8l-1.7 5.5h4.9ZM53 104.74c0-4.1 2.3-5.9 5.6-5.9 1.3 0 2.6.2 3.8.6l-.4 2c-1.1-.3-2.2-.5-3.3-.5-2.2 0-3.3 1.2-3.3 3.9v2.1c0 2.7 1.1 3.9 3.3 3.9 1.1 0 2.2-.2 3.3-.5l.4 2c-1.3.4-2.5.6-3.8.6-3.3 0-5.6-1.8-5.6-5.9v-2.3ZM69.9 104.54h2.6v-.7c0-1.8-.9-2.9-2.6-2.9-1.2 0-2.4.3-3.6.6l-.5-2c1.3-.4 2.7-.7 4.1-.7 3 0 5 1.9 5 5v4.8c0 2.5-2.2 4.4-4.9 4.4-2.9 0-5-1.9-5-4.4 0-2.6 2-4.1 4.9-4.1Zm.1 6.4c1.5 0 2.5-1 2.5-2.2v-2.3h-2.6c-1.7 0-2.4 1-2.4 2.2 0 1.2.9 2.3 2.5 2.3ZM77.7 104.54c0-3.9 2.4-5.6 5.2-5.6 1.2 0 2.4.5 3.1.9v-6.3h2.4v13.9c0 3.6-2.4 5.6-5.3 5.6s-5.3-2-5.3-5.6v-2.9h-.1Zm5.4 6.4c1.6 0 2.9-1.2 2.9-3.6v-5.4c-.9-.5-1.9-.9-2.9-.9-1.6 0-3 .9-3 3.7v2.6c0 2.4 1.3 3.6 3 3.6ZM91.5 104.34c0-3.6 2.3-5.5 5.2-5.5 2.9 0 5.2 2 5.2 5v2.8h-8v.8c0 2.4 1.2 3.5 3.1 3.5 1.3 0 2.4-.3 3.6-.6l.5 2.1c-1.4.4-2.6.7-4.1.7-3.2 0-5.5-1.9-5.5-5.6v-3.2Zm8 .4v-.9c0-1.7-1.1-2.9-2.8-2.9-1.6 0-2.8 1.1-2.8 3.2v.6h5.6ZM104.9 104.24c0-3.6 2.2-5.3 4.9-5.3 1.7 0 3 1 3.7 2.6.7-1.6 2-2.6 3.7-2.6 2.7 0 4.9 1.8 4.9 5.3v8.5h-2.4v-8.3c0-2.3-1-3.5-2.5-3.5s-2.5 1.3-2.5 3.9v7.8h-2.4v-7.8c0-2.6-1-3.9-2.6-3.9-1.5 0-2.5 1.2-2.5 3.5v8.2h-2.4v-8.4h.1ZM124.9 99.24h2.4l1.2 8.5c.2 1.7.9 2.8 2.4 2.8h1.3l1.4-11.3h2.4l-2.5 19h-2.4l.7-5.5h-1.1c-3 0-4.4-1.9-4.8-4.7l-1-8.8Z"/></svg>
