<svg width="60" height="60" viewBox="0 0 60 60" fill="none" xmlns="http://www.w3.org/2000/svg">
<path fill-rule="evenodd" clip-rule="evenodd" d="M12.0184 27.0063C12.4987 26.514 13.3211 26.6422 13.6287 27.2574L15.7764 31.5528C15.9172 31.8344 15.9172 32.1657 15.7764 32.4473L15.3588 33.2826C15.1491 33.7018 14.6765 33.9192 14.2218 33.8055L11.3663 33.0916C11.1302 33.0326 10.9238 32.8896 10.7856 32.6893L9.46714 30.7778C9.19574 30.3844 9.24071 29.8539 9.57446 29.5117L12.0184 27.0063Z" fill="#59CBE8" stroke="#333333" stroke-width="2" stroke-linecap="round" stroke-linejoin="round"/>
<path fill-rule="evenodd" clip-rule="evenodd" d="M19.4043 54.383C19.2212 55.1154 19.8846 55.7788 20.6169 55.5957L27 54L31.0452 53.1909L45.8893 50.2221C46.4791 50.1041 46.832 49.4959 46.6418 48.9253L46.1085 47.3255C46.0382 47.1145 45.8996 46.933 45.7146 46.8096L44.015 45.6766C43.4899 45.3265 43.4164 44.5836 43.8626 44.1374L45.7734 42.2266C45.9208 42.0792 46.0185 41.8894 46.0527 41.6838L46.8356 36.9863C46.9264 36.4416 46.5584 35.9263 46.0136 35.8356L41.4358 35.0726C41.1582 35.0263 40.913 34.8652 40.7603 34.6289L32.1589 21.3171C32.0268 21.1127 31.9738 20.8672 32.0098 20.6266L32.943 14.3815C32.9797 14.1359 32.9238 13.8855 32.7861 13.679L31.2969 11.4453C31.1114 11.1671 30.7992 11 30.4649 11H26.7662C25.9889 11 25.5088 10.152 25.9087 9.48546L27.5095 6.81758C27.7841 6.35986 27.6508 5.76713 27.2067 5.47104L25.7373 4.49148C25.3165 4.21094 24.7525 4.28874 24.4234 4.67273L19.1627 10.8101C19.0559 10.9348 18.9814 11.0838 18.9458 11.244L17.0824 19.6293C17.0293 19.8681 17.0656 20.118 17.1844 20.3319L21.6574 28.3832C21.8628 28.753 22.2787 28.9535 22.696 28.884L26.3617 28.273C27.1051 28.1491 27.7131 28.8607 27.4748 29.5756L27.1054 30.6837C27.037 30.889 27.037 31.1109 27.1054 31.3162L28.7464 36.2389C28.8946 36.6836 28.7141 37.1715 28.3122 37.4127L24.3386 39.7968C24.1211 39.9273 23.9613 40.1357 23.8916 40.3796L22.3077 45.923C22.1437 46.497 22.516 47.0859 23.1049 47.1841L24.9667 47.4944C25.922 47.6536 26.1157 48.9421 25.2495 49.3752L20.4114 51.7943C20.1503 51.9248 19.9593 52.1629 19.8885 52.4462L19.4043 54.383Z" fill="#59CBE8"/>
<path fill-rule="evenodd" clip-rule="evenodd" d="M36.5167 28.0614L32.1589 21.3171C32.0268 21.1127 31.9738 20.8672 32.0098 20.6266L32.943 14.3815C32.9797 14.1359 32.9238 13.8855 32.7861 13.679L31.2969 11.4453C31.1114 11.1671 30.7992 11 30.4649 11H26.7662C26.2139 11 25.7662 10.5522 25.7662 9.99995C25.7662 9.81871 25.8155 9.64087 25.9087 9.48546L27.5095 6.81758C27.7841 6.35986 27.6508 5.76713 27.2067 5.47104L25.7373 4.49148C25.3165 4.21094 24.7525 4.28874 24.4234 4.67273L19.1627 10.8101C19.0559 10.9348 18.9814 11.0838 18.9458 11.244L17.0824 19.6293C17.0293 19.8681 17.0656 20.118 17.1844 20.3319L21.6574 28.3832C21.8628 28.753 22.2787 28.9535 22.696 28.884L26.4404 28.2599C26.959 28.1735 27.4495 28.5238 27.5359 29.0424C27.5615 29.1956 27.5491 29.3526 27.5 29.5L27.1054 30.6837C27.037 30.889 27.037 31.1109 27.1054 31.3162L28.7464 36.2389C28.8946 36.6836 28.7141 37.1715 28.3122 37.4127L24.3386 39.7968C24.1211 39.9273 23.9613 40.1357 23.8916 40.3796L22.3077 45.923C22.156 46.454 22.4635 47.0075 22.9946 47.1592C23.0308 47.1696 23.0677 47.1779 23.1049 47.1841L25 47.5C25.5388 47.5897 25.9028 48.0993 25.813 48.6381C25.761 48.9502 25.5628 49.2186 25.2797 49.3601L20.4114 51.7943C20.1503 51.9248 19.9593 52.1629 19.8885 52.4462L19.4043 54.383C19.2703 54.9188 19.5961 55.4618 20.1319 55.5957C20.2911 55.6355 20.4577 55.6355 20.6169 55.5957L26.977 54.0057C26.9923 54.0019 27.0078 53.9984 27.0234 53.9953L31.0452 53.1909M44.015 45.6766C43.5554 45.3702 43.4313 44.7494 43.7376 44.2898C43.7742 44.235 43.816 44.184 43.8626 44.1374L45.7734 42.2266C45.9208 42.0792 46.0185 41.8894 46.0527 41.6838L46.8356 36.9863C46.9264 36.4416 46.5584 35.9263 46.0136 35.8356" fill="#59CBE8"/>
<path d="M35.6768 28.6041C35.9765 29.068 36.5956 29.2011 37.0594 28.9013C37.5233 28.6016 37.6564 27.9826 37.3567 27.5187L35.6768 28.6041ZM32.1589 21.3171L32.9988 20.7743L32.9988 20.7743L32.1589 21.3171ZM32.0098 20.6266L31.0208 20.4788L31.0208 20.4788L32.0098 20.6266ZM32.943 14.3815L33.932 14.5293L33.932 14.5293L32.943 14.3815ZM32.7861 13.679L31.954 14.2337L31.954 14.2337L32.7861 13.679ZM31.2969 11.4453L32.129 10.8906L32.129 10.8906L31.2969 11.4453ZM25.9087 9.48546L26.7662 9.99995L26.7662 9.99995L25.9087 9.48546ZM27.5095 6.81758L26.652 6.30309L26.652 6.30309L27.5095 6.81758ZM27.2067 5.47104L26.652 6.30309L26.652 6.30309L27.2067 5.47104ZM25.7373 4.49148L26.292 3.65943L26.292 3.65942L25.7373 4.49148ZM24.4234 4.67273L23.6641 4.02194L23.6641 4.02194L24.4234 4.67273ZM19.1627 10.8101L18.4035 10.1593L18.4035 10.1593L19.1627 10.8101ZM18.9458 11.244L19.922 11.4609L19.922 11.4609L18.9458 11.244ZM17.0824 19.6293L18.0586 19.8462L18.0586 19.8462L17.0824 19.6293ZM17.1844 20.3319L16.3103 20.8175L17.1844 20.3319ZM21.6574 28.3832L22.5316 27.8976L22.5316 27.8976L21.6574 28.3832ZM22.696 28.884L22.8604 29.8704L22.8604 29.8704L22.696 28.884ZM26.4404 28.2599L26.6048 29.2463L26.6048 29.2463L26.4404 28.2599ZM27.5359 29.0424L26.5495 29.2068L26.5495 29.2068L27.5359 29.0424ZM27.5 29.5L26.5514 29.1837L26.5514 29.1837L27.5 29.5ZM27.1054 31.3162L28.0541 31L28.0541 31L27.1054 31.3162ZM28.7464 36.2389L27.7977 36.5552L27.7977 36.5552L28.7464 36.2389ZM28.3122 37.4127L27.7977 36.5552L27.7977 36.5552L28.3122 37.4127ZM24.3386 39.7968L23.8241 38.9393L23.8241 38.9393L24.3386 39.7968ZM23.8916 40.3796L22.93 40.1049L22.93 40.1049L23.8916 40.3796ZM22.3077 45.923L21.3462 45.6483L21.3462 45.6483L22.3077 45.923ZM22.9946 47.1592L23.2693 46.1977L23.2693 46.1977L22.9946 47.1592ZM23.1049 47.1841L22.9405 48.1705L22.9405 48.1705L23.1049 47.1841ZM25 47.5L25.1644 46.5136L25.1644 46.5136L25 47.5ZM25.813 48.6381L26.7994 48.8025L26.7994 48.8025L25.813 48.6381ZM25.2797 49.3601L24.8325 48.4657L24.8325 48.4657L25.2797 49.3601ZM20.4114 51.7943L19.9642 50.8998L19.9642 50.8998L20.4114 51.7943ZM19.8885 52.4462L18.9183 52.2036L18.9183 52.2036L19.8885 52.4462ZM19.4043 54.383L20.3744 54.6256L20.3744 54.6256L19.4043 54.383ZM20.1319 55.5957L20.3744 54.6256L20.3744 54.6256L20.1319 55.5957ZM20.6169 55.5957L20.3744 54.6256L20.3744 54.6256L20.6169 55.5957ZM26.977 54.0057L26.7345 53.0356L26.7344 53.0356L26.977 54.0057ZM27.0234 53.9953L27.2194 54.9759L27.2195 54.9759L27.0234 53.9953ZM31.2413 54.1715C31.7829 54.0632 32.1341 53.5364 32.0258 52.9948C31.9175 52.4532 31.3907 52.102 30.8491 52.2103L31.2413 54.1715ZM43.4603 46.5086C43.9198 46.815 44.5407 46.6908 44.847 46.2313C45.1534 45.7717 45.0292 45.1509 44.5697 44.8445L43.4603 46.5086ZM43.7376 44.2898L44.5697 44.8445L44.5697 44.8445L43.7376 44.2898ZM43.8626 44.1374L44.5697 44.8445L44.5697 44.8445L43.8626 44.1374ZM45.7734 42.2266L46.4805 42.9337L46.4805 42.9337L45.7734 42.2266ZM46.0527 41.6838L45.0663 41.5194L45.0663 41.5194L46.0527 41.6838ZM46.8356 36.9863L47.822 37.1507L47.822 37.1507L46.8356 36.9863ZM46.178 34.8492C45.6333 34.7584 45.118 35.1264 45.0273 35.6712C44.9365 36.2159 45.3045 36.7312 45.8492 36.8219L46.178 34.8492ZM37.3567 27.5187L32.9988 20.7743L31.319 21.8598L35.6768 28.6041L37.3567 27.5187ZM32.9988 20.7743L32.9988 20.7743L31.0208 20.4788C30.9489 20.96 31.0549 21.451 31.319 21.8598L32.9988 20.7743ZM32.9988 20.7743L33.932 14.5293L31.954 14.2337L31.0208 20.4788L32.9988 20.7743ZM33.932 14.5293C34.0054 14.0382 33.8935 13.5374 33.6181 13.1243L31.954 14.2337L31.954 14.2337L33.932 14.5293ZM33.6181 13.1243L32.129 10.8906L30.4649 12L31.954 14.2337L33.6181 13.1243ZM32.129 10.8906C31.758 10.3342 31.1336 9.99995 30.4649 9.99995V12L30.4649 12L32.129 10.8906ZM30.4649 9.99995H26.7662V12H30.4649V9.99995ZM26.7662 9.99995H24.7662C24.7662 11.1045 25.6617 12 26.7662 12V9.99995ZM26.7662 9.99995L26.7662 9.99995L25.0512 8.97096C24.8647 9.28179 24.7662 9.63746 24.7662 9.99995H26.7662ZM26.7662 9.99995L28.367 7.33208L26.652 6.30309L25.0512 8.97096L26.7662 9.99995ZM28.367 7.33208C28.9162 6.41663 28.6497 5.23118 27.7614 4.63899L26.652 6.30309L26.652 6.30309L28.367 7.33208ZM27.7614 4.63899L26.292 3.65943L25.1826 5.32353L26.652 6.30309L27.7614 4.63899ZM26.292 3.65942C25.4504 3.09835 24.3224 3.25396 23.6641 4.02194L25.1826 5.32353L25.1826 5.32353L26.292 3.65942ZM23.6641 4.02194L18.4035 10.1593L19.922 11.4609L25.1826 5.32353L23.6641 4.02194ZM18.4035 10.1593C18.1898 10.4086 18.0408 10.7066 17.9696 11.0271L19.922 11.4609L19.922 11.4609L18.4035 10.1593ZM17.9696 11.0271L16.1062 19.4124L18.0586 19.8462L19.922 11.4609L17.9696 11.0271ZM16.1062 19.4124C16.0001 19.8899 16.0727 20.3899 16.3103 20.8175L18.0586 19.8462L18.0586 19.8462L16.1062 19.4124ZM16.3103 20.8175L20.7833 28.8689L22.5316 27.8976L18.0586 19.8462L16.3103 20.8175ZM20.7833 28.8689C21.1941 29.6084 22.0259 30.0094 22.8604 29.8704L22.5316 27.8976L22.5316 27.8976L20.7833 28.8689ZM22.8604 29.8704L26.6048 29.2463L26.276 27.2735L22.5316 27.8976L22.8604 29.8704ZM26.6048 29.2463C26.5787 29.2506 26.5539 29.233 26.5495 29.2068L28.5223 28.878C28.3451 27.8146 27.3394 27.0963 26.276 27.2735L26.6048 29.2463ZM26.5495 29.2068C26.5483 29.1991 26.5489 29.1912 26.5514 29.1837L28.4487 29.8162C28.5494 29.5141 28.5747 29.1921 28.5223 28.878L26.5495 29.2068ZM26.5514 29.1837L26.1568 30.3675L28.0541 31L28.4487 29.8162L26.5514 29.1837ZM26.1568 30.3675C26.0199 30.778 26.0199 31.2219 26.1568 31.6324L28.0541 31V31L26.1568 30.3675ZM26.1568 31.6324L27.7977 36.5552L29.6951 35.9227L28.0541 31L26.1568 31.6324ZM27.7977 36.5552L27.7977 36.5552L28.8267 38.2702C29.6305 37.7879 29.9915 36.812 29.6951 35.9227L27.7977 36.5552ZM27.7977 36.5552L23.8241 38.9393L24.8531 40.6543L28.8267 38.2702L27.7977 36.5552ZM23.8241 38.9393C23.389 39.2004 23.0694 39.617 22.93 40.1049L24.8531 40.6543L24.8531 40.6543L23.8241 38.9393ZM22.93 40.1049L21.3462 45.6483L23.2693 46.1977L24.8531 40.6543L22.93 40.1049ZM21.3462 45.6483C21.0428 46.7103 21.6578 47.8173 22.7198 48.1207L23.2693 46.1977L23.2693 46.1977L21.3462 45.6483ZM22.7198 48.1207C22.7924 48.1415 22.8661 48.1581 22.9405 48.1705L23.2693 46.1977L23.2693 46.1977L22.7198 48.1207ZM22.9405 48.1705L24.8356 48.4863L25.1644 46.5136L23.2693 46.1977L22.9405 48.1705ZM24.8356 48.4863C24.8362 48.4864 24.8357 48.4864 24.8345 48.4859C24.8334 48.4855 24.8323 48.485 24.8313 48.4843C24.8295 48.4831 24.8287 48.4822 24.8285 48.4819C24.8283 48.4816 24.8276 48.4806 24.8271 48.4784C24.8268 48.4773 24.8267 48.476 24.8266 48.4749C24.8266 48.4736 24.8267 48.4731 24.8266 48.4737L26.7994 48.8025C26.98 47.7189 26.248 46.6942 25.1644 46.5136L24.8356 48.4863ZM24.8266 48.4737C24.8272 48.4702 24.8294 48.4672 24.8325 48.4657L25.727 50.2545C26.2961 49.9699 26.6948 49.4302 26.7994 48.8025L24.8266 48.4737ZM24.8325 48.4657L19.9642 50.8998L20.8586 52.6887L25.727 50.2545L24.8325 48.4657ZM19.9642 50.8998C19.442 51.1609 19.06 51.6372 18.9183 52.2036L20.8586 52.6887L20.8586 52.6887L19.9642 50.8998ZM18.9183 52.2036L18.4341 54.1405L20.3744 54.6256L20.8586 52.6887L18.9183 52.2036ZM18.4341 54.1405C18.1662 55.2121 18.8177 56.298 19.8893 56.5659L20.3744 54.6256L20.3744 54.6256L18.4341 54.1405ZM19.8893 56.5659C20.2078 56.6455 20.541 56.6455 20.8595 56.5659L20.3744 54.6256H20.3744L19.8893 56.5659ZM20.8595 56.5659L27.2195 54.9759L26.7344 53.0356L20.3744 54.6256L20.8595 56.5659ZM27.2194 54.9759L27.2194 54.9759L26.8274 53.0147C26.7961 53.0209 26.7651 53.0279 26.7345 53.0356L27.2194 54.9759ZM27.2195 54.9759L31.2413 54.1715L30.8491 52.2103L26.8273 53.0147L27.2195 54.9759ZM44.5697 44.8445L44.5697 44.8445L42.9056 43.7351C42.2929 44.6542 42.5412 45.8959 43.4603 46.5086L44.5697 44.8445ZM44.5697 44.8445L44.5697 44.8445L43.1555 43.4303C43.0623 43.5234 42.9786 43.6255 42.9056 43.7351L44.5697 44.8445ZM44.5697 44.8445L46.4805 42.9337L45.0663 41.5194L43.1555 43.4303L44.5697 44.8445ZM46.4805 42.9337C46.7753 42.6389 46.9706 42.2594 47.0391 41.8482L45.0663 41.5194L45.0663 41.5194L46.4805 42.9337ZM47.0391 41.8482L47.822 37.1507L45.8492 36.8219L45.0663 41.5194L47.0391 41.8482ZM47.822 37.1507C48.0036 36.0612 47.2676 35.0307 46.178 34.8492L45.8492 36.8219L45.8492 36.8219L47.822 37.1507Z" fill="#333333"/>
<path d="M40.5 15H30" stroke="#333333" stroke-width="2" stroke-linecap="round"/>
<path d="M46 15H44.5" stroke="#333333" stroke-width="2" stroke-linecap="round"/>
<path d="M14 50H12" stroke="#333333" stroke-width="2" stroke-linecap="round"/>
<path d="M11 20.5H5" stroke="#333333" stroke-width="2" stroke-linecap="round"/>
<path d="M46 37L35.25 55.6256" stroke="#333333" stroke-width="2" stroke-linecap="round" stroke-linejoin="round"/>
<circle cx="46" cy="37" r="9" fill="white" stroke="#333333" stroke-width="2" stroke-linecap="round" stroke-linejoin="round"/>
<path fill-rule="evenodd" clip-rule="evenodd" d="M46 42C48.7614 42 51 39.7614 51 37Z" fill="white"/>
<path d="M46 42V42C48.7614 42 51 39.7614 51 37" stroke="#333333" stroke-width="2" stroke-linecap="round" stroke-linejoin="round"/>
</svg>
