<svg width="60" height="60" viewBox="0 0 60 60" fill="none" xmlns="http://www.w3.org/2000/svg">
<path fill-rule="evenodd" clip-rule="evenodd" d="M45 51V45H49C51.2091 45 53 43.2091 53 41V27C53 24.7909 51.2091 23 49 23H28C25.7909 23 24 24.7909 24 27V41C24 43.2091 25.7909 45 28 45H38L45 51Z" fill="#59CBE8"/>
<path fill-rule="evenodd" clip-rule="evenodd" d="M15 37V31H11C8.79086 31 7 29.2091 7 27L7 13C7 10.7909 8.79086 9 11 9H32C34.2091 9 36 10.7909 36 13V27C36 29.2091 34.2091 31 32 31H22L15 37Z" fill="white" stroke="#333333" stroke-width="2" stroke-linecap="round" stroke-linejoin="round"/>
<mask id="path-3-inside-1_0_2005" fill="white">
<path fill-rule="evenodd" clip-rule="evenodd" d="M49 24C50.6569 24 52 25.3431 52 27V41C52 42.6569 50.6569 44 49 44H45C44.4477 44 44 44.4477 44 45V48.8258L38.6508 44.2407C38.4695 44.0854 38.2387 44 38 44H28C26.3431 44 25 42.6569 25 41V36.0234C25 35.4712 24.5523 35.0234 24 35.0234C23.4477 35.0234 23 35.4712 23 36.0234V41C23 43.7614 25.2386 46 28 46H37.6301L44.3492 51.7593C44.6457 52.0134 45.0631 52.0717 45.4179 51.9085C45.7727 51.7453 46 51.3905 46 51V46H49C51.7614 46 54 43.7614 54 41V27C54 24.2386 51.7614 22 49 22H48.9972H48.9944H48.9916H48.9888H48.9861H48.9833H48.9805H48.9777H48.9749H48.9722H48.9694H48.9666H48.9639H48.9611H48.9584H48.9556H48.9529H48.9501H48.9474H48.9446H48.9419H48.9392H48.9364H48.9337H48.931H48.9283H48.9255H48.9228H48.9201H48.9174H48.9147H48.912H48.9093H48.9066H48.9039H48.9012H48.8985H48.8958H48.8931H48.8904H48.8878H48.8851H48.8824H48.8797H48.8771H48.8744H48.8718H48.8691H48.8664H48.8638H48.8611H48.8585H48.8558H48.8532H48.8506H48.8479H48.8453H48.8427H48.84H48.8374H48.8348H48.8322H48.8296H48.8269H48.8243H48.8217H48.8191H48.8165H48.8139H48.8113H48.8087H48.8061H48.8036H48.801H48.7984H48.7958H48.7932H48.7907H48.7881H48.7855H48.783H48.7804H48.7779H48.7753H48.7728H48.7702H48.7677H48.7651H48.7626H48.76H48.7575H48.755H48.7524H48.7499H48.7474H48.7449H48.7424H48.7398H48.7373H48.7348H48.7323H48.7298H48.7273H48.7248H48.7223H48.7198H48.7174H48.7149H48.7124H48.7099H48.7074H48.705H48.7025H48.7H48.6976H48.6951H48.6926H48.6902H48.6877H48.6853H48.6828H48.6804H48.678H48.6755H48.6731H48.6706H48.6682H48.6658H48.6634H48.6609H48.6585H48.6561H48.6537H48.6513H48.6489H48.6465H48.6441H48.6417H48.6393H48.6369H48.6345H48.6321H48.6297H48.6274H48.625H48.6226H48.6202H48.6179H48.6155H48.6131H48.6108H48.6084H48.6061H48.6037H48.6014H48.599H48.5967H48.5943H48.592H48.5897H48.5873H48.585H48.5827H48.5804H48.578H48.5757H48.5734H48.5711H48.5688H48.5665H48.5642H48.5619H48.5596H48.5573H48.555H48.5527H48.5504H48.5482H48.5459H48.5436H48.5413H48.5391H48.5368H48.5345H48.5323H48.53H48.5278H48.5255H48.5233H48.521H48.5188H48.5165H48.5143H48.5121H48.5098H48.5076H48.5054H48.5031H48.5009H48.4987H48.4965H48.4943H48.4921H48.4899H48.4877H48.4855H48.4833H48.4811H48.4789H48.4767H48.4745H48.4723H48.4701H48.468H48.4658H48.4636H48.4615H48.4593H48.4571H48.455H48.4528H48.4507H48.4485H48.4464H48.4442H48.4421H48.4399H48.4378H48.4357H48.4335H48.4314H48.4293H48.4272H48.425H48.4229H48.4208H48.4187H48.4166H48.4145H48.4124H48.4103H48.4082H48.4061H48.404H48.4019H48.3999H48.3978H48.3957H48.3936H48.3915H48.3895H48.3874H48.3853H48.3833H48.3812H48.3792H48.3771H48.3751H48.373H48.371H48.3689H48.3669H48.3649H48.3628H48.3608H48.3588H48.3568H48.3547H48.3527H48.3507H48.3487H48.3467H48.3447H48.3427H48.3407H48.3387H48.3367H48.3347H48.3327H48.3307H48.3287H48.3268H48.3248H48.3228H48.3208H48.3189H48.3169H48.315H48.313H48.311H48.3091H48.3071H48.3052H48.3032H48.3013H48.2994H48.2974H48.2955H48.2936H48.2916H48.2897H48.2878H48.2859H48.284H48.2821H48.2801H48.2782H48.2763H48.2744H48.2725H48.2706H48.2687H48.2669H48.265H48.2631H48.2612H48.2593H48.2575H48.2556H48.2537H48.2518H48.25H48.2481H48.2463H48.2444H48.2426H48.2407H48.2389H48.237H48.2352H48.2333H48.2315H48.2297H48.2279H48.226H48.2242H48.2224H48.2206H48.2188H48.2169H48.2151H48.2133H48.2115H48.2097H48.2079H48.2061H48.2044H48.2026H48.2008H48.199H48.1972H48.1954H48.1937H48.1919H48.1901H48.1884H48.1866H48.1849H48.1831H48.1813H48.1796H48.1778H48.1761H48.1744H48.1726H48.1709H48.1692H48.1674H48.1657H48.164H48.1623H48.1605H48.1588H48.1571H48.1554H48.1537H48.152H48.1503H48.1486H48.1469H48.1452H48.1435H48.1418H48.1402H48.1385H48.1368H48.1351H48.1335H48.1318H48.1301H48.1285H48.1268H48.1251H48.1235H48.1218H48.1202H48.1185H48.1169H48.1153H48.1136H48.112H48.1104H48.1087H48.1071H48.1055H48.1039H48.1022H48.1006H48.099H48.0974H48.0958H48.0942H48.0926H48.091H48.0894H48.0878H48.0862H48.0847H48.0831H48.0815H48.0799H48.0784H48.0768H48.0752H48.0737H48.0721H48.0705H48.069H48.0674H48.0659H48.0643H48.0628H48.0613H48.0597H48.0582H48.0566H48.0551H48.0536H48.0521H48.0505H48.049H48.0475H48.046H48.0445H48.043H48.0415H48.04H48.0385H48.037H48.0355H48.034H48.0325H48.0311H48.0296H48.0281H48.0266H48.0252H48.0237H48.0222H48.0208H48.0193H48.0178H48.0164H48.0149H48.0135H48.012H48.0106H48.0092H48.0077H48.0063H48.0049H48.0034H48.002H48.0006H47.9992H47.9978H47.9963H47.9949H47.9935H47.9921H47.9907H47.9893H47.9879H47.9865H47.9851H47.9838H47.9824H47.981H47.9796H47.9782H47.9769H47.9755H47.9741H47.9728H47.9714H47.9701H47.9687H47.9673H47.966H47.9647H47.9633H47.962H47.9606H47.9593H47.958H47.9566H47.9553H47.954H47.9527H47.9514H47.95H47.9487C47.3964 22 46.9487 22.4477 46.9487 23C46.9487 23.5523 47.3964 24 47.9487 24H47.95H47.9514H47.9527H47.954H47.9553H47.9566H47.958H47.9593H47.9606H47.962H47.9633H47.9647H47.966H47.9673H47.9687H47.9701H47.9714H47.9728H47.9741H47.9755H47.9769H47.9782H47.9796H47.981H47.9824H47.9838H47.9851H47.9865H47.9879H47.9893H47.9907H47.9921H47.9935H47.9949H47.9963H47.9978H47.9992H48.0006H48.002H48.0034H48.0049H48.0063H48.0077H48.0092H48.0106H48.012H48.0135H48.0149H48.0164H48.0178H48.0193H48.0208H48.0222H48.0237H48.0252H48.0266H48.0281H48.0296H48.0311H48.0325H48.034H48.0355H48.037H48.0385H48.04H48.0415H48.043H48.0445H48.046H48.0475H48.049H48.0505H48.0521H48.0536H48.0551H48.0566H48.0582H48.0597H48.0613H48.0628H48.0643H48.0659H48.0674H48.069H48.0705H48.0721H48.0737H48.0752H48.0768H48.0784H48.0799H48.0815H48.0831H48.0847H48.0862H48.0878H48.0894H48.091H48.0926H48.0942H48.0958H48.0974H48.099H48.1006H48.1022H48.1039H48.1055H48.1071H48.1087H48.1104H48.112H48.1136H48.1153H48.1169H48.1185H48.1202H48.1218H48.1235H48.1251H48.1268H48.1285H48.1301H48.1318H48.1335H48.1351H48.1368H48.1385H48.1402H48.1418H48.1435H48.1452H48.1469H48.1486H48.1503H48.152H48.1537H48.1554H48.1571H48.1588H48.1605H48.1623H48.164H48.1657H48.1674H48.1692H48.1709H48.1726H48.1744H48.1761H48.1778H48.1796H48.1813H48.1831H48.1849H48.1866H48.1884H48.1901H48.1919H48.1937H48.1954H48.1972H48.199H48.2008H48.2026H48.2044H48.2061H48.2079H48.2097H48.2115H48.2133H48.2151H48.2169H48.2188H48.2206H48.2224H48.2242H48.226H48.2279H48.2297H48.2315H48.2333H48.2352H48.237H48.2389H48.2407H48.2426H48.2444H48.2463H48.2481H48.25H48.2518H48.2537H48.2556H48.2575H48.2593H48.2612H48.2631H48.265H48.2669H48.2687H48.2706H48.2725H48.2744H48.2763H48.2782H48.2801H48.2821H48.284H48.2859H48.2878H48.2897H48.2916H48.2936H48.2955H48.2974H48.2994H48.3013H48.3032H48.3052H48.3071H48.3091H48.311H48.313H48.315H48.3169H48.3189H48.3208H48.3228H48.3248H48.3268H48.3287H48.3307H48.3327H48.3347H48.3367H48.3387H48.3407H48.3427H48.3447H48.3467H48.3487H48.3507H48.3527H48.3547H48.3568H48.3588H48.3608H48.3628H48.3649H48.3669H48.3689H48.371H48.373H48.3751H48.3771H48.3792H48.3812H48.3833H48.3853H48.3874H48.3895H48.3915H48.3936H48.3957H48.3978H48.3999H48.4019H48.404H48.4061H48.4082H48.4103H48.4124H48.4145H48.4166H48.4187H48.4208H48.4229H48.425H48.4272H48.4293H48.4314H48.4335H48.4357H48.4378H48.4399H48.4421H48.4442H48.4464H48.4485H48.4507H48.4528H48.455H48.4571H48.4593H48.4615H48.4636H48.4658H48.468H48.4701H48.4723H48.4745H48.4767H48.4789H48.4811H48.4833H48.4855H48.4877H48.4899H48.4921H48.4943H48.4965H48.4987H48.5009H48.5031H48.5054H48.5076H48.5098H48.5121H48.5143H48.5165H48.5188H48.521H48.5233H48.5255H48.5278H48.53H48.5323H48.5345H48.5368H48.5391H48.5413H48.5436H48.5459H48.5482H48.5504H48.5527H48.555H48.5573H48.5596H48.5619H48.5642H48.5665H48.5688H48.5711H48.5734H48.5757H48.578H48.5804H48.5827H48.585H48.5873H48.5897H48.592H48.5943H48.5967H48.599H48.6014H48.6037H48.6061H48.6084H48.6108H48.6131H48.6155H48.6179H48.6202H48.6226H48.625H48.6274H48.6297H48.6321H48.6345H48.6369H48.6393H48.6417H48.6441H48.6465H48.6489H48.6513H48.6537H48.6561H48.6585H48.6609H48.6634H48.6658H48.6682H48.6706H48.6731H48.6755H48.678H48.6804H48.6828H48.6853H48.6877H48.6902H48.6926H48.6951H48.6976H48.7H48.7025H48.705H48.7074H48.7099H48.7124H48.7149H48.7174H48.7198H48.7223H48.7248H48.7273H48.7298H48.7323H48.7348H48.7373H48.7398H48.7424H48.7449H48.7474H48.7499H48.7524H48.755H48.7575H48.76H48.7626H48.7651H48.7677H48.7702H48.7728H48.7753H48.7779H48.7804H48.783H48.7855H48.7881H48.7907H48.7932H48.7958H48.7984H48.801H48.8036H48.8061H48.8087H48.8113H48.8139H48.8165H48.8191H48.8217H48.8243H48.8269H48.8296H48.8322H48.8348H48.8374H48.84H48.8427H48.8453H48.8479H48.8506H48.8532H48.8558H48.8585H48.8611H48.8638H48.8664H48.8691H48.8718H48.8744H48.8771H48.8797H48.8824H48.8851H48.8878H48.8904H48.8931H48.8958H48.8985H48.9012H48.9039H48.9066H48.9093H48.912H48.9147H48.9174H48.9201H48.9228H48.9255H48.9283H48.931H48.9337H48.9364H48.9392H48.9419H48.9446H48.9474H48.9501H48.9529H48.9556H48.9584H48.9611H48.9639H48.9666H48.9694H48.9722H48.9749H48.9777H48.9805H48.9833H48.9861H48.9888H48.9916H48.9944H48.9972H49ZM45.0449 23C45.0449 22.4477 44.5972 22 44.0449 22H44.041H44.037H44.033H44.029H44.025H44.021H44.017H44.013H44.0089H44.0049H44.0008H43.9968H43.9927H43.9887H43.9846H43.9805H43.9764H43.9723H43.9682H43.9641H43.96H43.9558H43.9517H43.9475H43.9434H43.9392H43.9351H43.9309H43.9267H43.9225H43.9183H43.9141H43.9099H43.9056H43.9014H43.8972H43.8929H43.8887H43.8844H43.8801H43.8759H43.8716H43.8673H43.863H43.8587H43.8544H43.85H43.8457H43.8414H43.837H43.8326H43.8283H43.8239H43.8195H43.8151H43.8108H43.8064H43.8019H43.7975H43.7931H43.7887H43.7842H43.7798H43.7753H43.7709H43.7664H43.7619H43.7574H43.7529H43.7484H43.7439H43.7394H43.7349H43.7303H43.7258H43.7212H43.7167H43.7121H43.7075H43.703H43.6984H43.6938H43.6892H43.6846H43.6799H43.6753H43.6707H43.666H43.6614H43.6567H43.6521H43.6474H43.6427H43.638H43.6333H43.6286H43.6239H43.6192H43.6145H43.6097H43.605H43.6002H43.5955H43.5907H43.5859H43.5812H43.5764H43.5716H43.5668H43.562H43.5571H43.5523H43.5475H43.5426H43.5378H43.5329H43.528H43.5232H43.5183H43.5134H43.5085H43.5036H43.4987H43.4938H43.4888H43.4839H43.479H43.474H43.469H43.4641H43.4591H43.4541H43.4491H43.4441H43.4391H43.4341H43.4291H43.4241H43.419H43.414H43.4089H43.4039H43.3988H43.3937H43.3886H43.3835H43.3784H43.3733H43.3682H43.3631H43.358H43.3528H43.3477H43.3425H43.3374H43.3322H43.327H43.3218H43.3166H43.3114H43.3062H43.301H43.2958H43.2906H43.2853H43.2801H43.2748H43.2696H43.2643H43.259H43.2537H43.2484H43.2431H43.2378H43.2325H43.2272H43.2219H43.2165H43.2112H43.2058H43.2005H43.1951H43.1897H43.1843H43.1789H43.1735H43.1681H43.1627H43.1573H43.1518H43.1464H43.141H43.1355H43.13H43.1246H43.1191H43.1136H43.1081H43.1026H43.0971H43.0916H43.0861H43.0805H43.075H43.0694H43.0639H43.0583H43.0527H43.0472H43.0416H43.036H43.0304H43.0248H43.0192H43.0135H43.0079H43.0023H42.9966H42.9909H42.9853H42.9796H42.9739H42.9682H42.9625H42.9568H42.9511H42.9454H42.9397H42.934H42.9282H42.9225H42.9167H42.9109H42.9052H42.8994H42.8936H42.8878H42.882H42.8762H42.8704H42.8645H42.8587H42.8529H42.847H42.8412H42.8353H42.8294H42.8235H42.8176H42.8117H42.8058H42.7999H42.794H42.7881H42.7821H42.7762H42.7703H42.7643H42.7583H42.7524H42.7464H42.7404H42.7344H42.7284H42.7224H42.7163H42.7103H42.7043H42.6982H42.6922H42.6861H42.6801H42.674H42.6679H42.6618H42.6557H42.6496H42.6435H42.6374H42.6312H42.6251H42.619H42.6128H42.6066H42.6005H42.5943H42.5881H42.5819H42.5757H42.5695H42.5633H42.5571H42.5509H42.5446H42.5384H42.5321H42.5259H42.5196H42.5133H42.507H42.5007H42.4944H42.4881H42.4818H42.4755H42.4692H42.4628H42.4565H42.4501H42.4438H42.4374H42.431H42.4246H42.4182H42.4118H42.4054H42.399H42.3926H42.3862H42.3797H42.3733H42.3668H42.3604H42.3539H42.3474H42.3409H42.3344H42.3279H42.3214H42.3149H42.3084H42.3019H42.2953H42.2888H42.2822H42.2757H42.2691H42.2625H42.2559H42.2493H42.2427H42.2361H42.2295H42.2229H42.2162H42.2096H42.203H42.1963H42.1896H42.183H42.1763H42.1696H42.1629H42.1562H42.1495H42.1428H42.136H42.1293H42.1226H42.1158H42.1091H42.1023H42.0955H42.0888H42.082H42.0752H42.0684H42.0616H42.0547H42.0479H42.0411H42.0342H42.0274H42.0205H42.0137H42.0068H41.9999H41.993H41.9861H41.9792H41.9723H41.9654H41.9585H41.9515H41.9446H41.9376H41.9307H41.9237H41.9167H41.9098H41.9028H41.8958H41.8888H41.8818H41.8747H41.8677H41.8607H41.8536H41.8466H41.8395H41.8325H41.8254H41.8183H41.8112H41.8041H41.797H41.7899H41.7828H41.7757H41.7685H41.7614H41.7542H41.7471H41.7399H41.7327H41.7255H41.7184H41.7112H41.704H41.6967H41.6895H41.6823H41.6751H41.6678H41.6606H41.6533H41.646H41.6388H41.6315H41.6242H41.6169H41.6096H41.6023H41.5949H41.5876H41.5803H41.5729H41.5656H41.5582H41.5509H41.5435H41.5361H41.5287H41.5213H41.5139H41.5065H41.4991H41.4916H41.4842H41.4767H41.4693H41.4618H41.4544H41.4469H41.4394H41.4319H41.4244H41.4169H41.4094H41.4019H41.3943H41.3868H41.3792H41.3717H41.3641H41.3566H41.349H41.3414H41.3338H41.3262H41.3186H41.311H41.3034H41.2957H41.2881H41.2804H41.2728H41.2651H41.2575H41.2498H41.2421H41.2344H41.2267H41.219H41.2113H41.2035H41.1958H41.1881H41.1803H41.1726H41.1648H41.157H41.1493H41.1415H41.1337H41.1259H41.1181H41.1103H41.1024H41.0946H41.0868H41.0789H41.0711H41.0632H41.0553H41.0474H41.0396H41.0317H41.0238H41.0158H41.0079H41C40.4477 22 40 22.4477 40 23C40 23.5523 40.4477 24 41 24H41.0079H41.0158H41.0238H41.0317H41.0396H41.0474H41.0553H41.0632H41.0711H41.0789H41.0868H41.0946H41.1024H41.1103H41.1181H41.1259H41.1337H41.1415H41.1493H41.157H41.1648H41.1726H41.1803H41.1881H41.1958H41.2035H41.2113H41.219H41.2267H41.2344H41.2421H41.2498H41.2575H41.2651H41.2728H41.2804H41.2881H41.2957H41.3034H41.311H41.3186H41.3262H41.3338H41.3414H41.349H41.3566H41.3641H41.3717H41.3792H41.3868H41.3943H41.4019H41.4094H41.4169H41.4244H41.4319H41.4394H41.4469H41.4544H41.4618H41.4693H41.4767H41.4842H41.4916H41.4991H41.5065H41.5139H41.5213H41.5287H41.5361H41.5435H41.5509H41.5582H41.5656H41.5729H41.5803H41.5876H41.5949H41.6023H41.6096H41.6169H41.6242H41.6315H41.6388H41.646H41.6533H41.6606H41.6678H41.6751H41.6823H41.6895H41.6967H41.704H41.7112H41.7184H41.7255H41.7327H41.7399H41.7471H41.7542H41.7614H41.7685H41.7757H41.7828H41.7899H41.797H41.8041H41.8112H41.8183H41.8254H41.8325H41.8395H41.8466H41.8536H41.8607H41.8677H41.8747H41.8818H41.8888H41.8958H41.9028H41.9098H41.9167H41.9237H41.9307H41.9376H41.9446H41.9515H41.9585H41.9654H41.9723H41.9792H41.9861H41.993H41.9999H42.0068H42.0137H42.0205H42.0274H42.0342H42.0411H42.0479H42.0547H42.0616H42.0684H42.0752H42.082H42.0888H42.0955H42.1023H42.1091H42.1158H42.1226H42.1293H42.136H42.1428H42.1495H42.1562H42.1629H42.1696H42.1763H42.183H42.1896H42.1963H42.203H42.2096H42.2162H42.2229H42.2295H42.2361H42.2427H42.2493H42.2559H42.2625H42.2691H42.2757H42.2822H42.2888H42.2953H42.3019H42.3084H42.3149H42.3214H42.3279H42.3344H42.3409H42.3474H42.3539H42.3604H42.3668H42.3733H42.3797H42.3862H42.3926H42.399H42.4054H42.4118H42.4182H42.4246H42.431H42.4374H42.4438H42.4501H42.4565H42.4628H42.4692H42.4755H42.4818H42.4881H42.4944H42.5007H42.507H42.5133H42.5196H42.5259H42.5321H42.5384H42.5446H42.5509H42.5571H42.5633H42.5695H42.5757H42.5819H42.5881H42.5943H42.6005H42.6066H42.6128H42.619H42.6251H42.6312H42.6374H42.6435H42.6496H42.6557H42.6618H42.6679H42.674H42.6801H42.6861H42.6922H42.6982H42.7043H42.7103H42.7163H42.7224H42.7284H42.7344H42.7404H42.7464H42.7524H42.7583H42.7643H42.7703H42.7762H42.7821H42.7881H42.794H42.7999H42.8058H42.8117H42.8176H42.8235H42.8294H42.8353H42.8412H42.847H42.8529H42.8587H42.8645H42.8704H42.8762H42.882H42.8878H42.8936H42.8994H42.9052H42.9109H42.9167H42.9225H42.9282H42.934H42.9397H42.9454H42.9511H42.9568H42.9625H42.9682H42.9739H42.9796H42.9853H42.9909H42.9966H43.0023H43.0079H43.0135H43.0192H43.0248H43.0304H43.036H43.0416H43.0472H43.0527H43.0583H43.0639H43.0694H43.075H43.0805H43.0861H43.0916H43.0971H43.1026H43.1081H43.1136H43.1191H43.1246H43.13H43.1355H43.141H43.1464H43.1518H43.1573H43.1627H43.1681H43.1735H43.1789H43.1843H43.1897H43.1951H43.2005H43.2058H43.2112H43.2165H43.2219H43.2272H43.2325H43.2378H43.2431H43.2484H43.2537H43.259H43.2643H43.2696H43.2748H43.2801H43.2853H43.2906H43.2958H43.301H43.3062H43.3114H43.3166H43.3218H43.327H43.3322H43.3374H43.3425H43.3477H43.3528H43.358H43.3631H43.3682H43.3733H43.3784H43.3835H43.3886H43.3937H43.3988H43.4039H43.4089H43.414H43.419H43.4241H43.4291H43.4341H43.4391H43.4441H43.4491H43.4541H43.4591H43.4641H43.469H43.474H43.479H43.4839H43.4888H43.4938H43.4987H43.5036H43.5085H43.5134H43.5183H43.5232H43.528H43.5329H43.5378H43.5426H43.5475H43.5523H43.5571H43.562H43.5668H43.5716H43.5764H43.5812H43.5859H43.5907H43.5955H43.6002H43.605H43.6097H43.6145H43.6192H43.6239H43.6286H43.6333H43.638H43.6427H43.6474H43.6521H43.6567H43.6614H43.666H43.6707H43.6753H43.6799H43.6846H43.6892H43.6938H43.6984H43.703H43.7075H43.7121H43.7167H43.7212H43.7258H43.7303H43.7349H43.7394H43.7439H43.7484H43.7529H43.7574H43.7619H43.7664H43.7709H43.7753H43.7798H43.7842H43.7887H43.7931H43.7975H43.8019H43.8064H43.8108H43.8151H43.8195H43.8239H43.8283H43.8326H43.837H43.8414H43.8457H43.85H43.8544H43.8587H43.863H43.8673H43.8716H43.8759H43.8801H43.8844H43.8887H43.8929H43.8972H43.9014H43.9056H43.9099H43.9141H43.9183H43.9225H43.9267H43.9309H43.9351H43.9392H43.9434H43.9475H43.9517H43.9558H43.96H43.9641H43.9682H43.9723H43.9764H43.9805H43.9846H43.9887H43.9927H43.9968H44.0008H44.0049H44.0089H44.013H44.017H44.021H44.025H44.029H44.033H44.037H44.041H44.0449C44.5972 24 45.0449 23.5523 45.0449 23Z"/>
</mask>
<path d="M44 48.8258H46C46 49.6068 45.5453 50.3164 44.8357 50.6428C44.1261 50.9692 43.2914 50.8526 42.6984 50.3443L44 48.8258ZM38.6508 44.2407L37.3492 45.7593L37.3492 45.7593L38.6508 44.2407ZM37.6301 46V44C38.1075 44 38.5692 44.1708 38.9317 44.4815L37.6301 46ZM44.3492 51.7593L45.6508 50.2407L45.6508 50.2407L44.3492 51.7593ZM45.4179 51.9085L44.5821 50.0915L44.5821 50.0915L45.4179 51.9085ZM46 46H44C44 44.8954 44.8954 44 46 44V46ZM50 27C50 26.4477 49.5523 26 49 26V22C51.7614 22 54 24.2386 54 27H50ZM50 41V27H54V41H50ZM49 42C49.5523 42 50 41.5523 50 41H54C54 43.7614 51.7614 46 49 46V42ZM45 42H49V46H45V42ZM42 45C42 43.3431 43.3431 42 45 42V46C45.5523 46 46 45.5523 46 45H42ZM42 48.8258V45H46V48.8258H42ZM39.9524 42.7222L45.3016 47.3073L42.6984 50.3443L37.3492 45.7593L39.9524 42.7222ZM38 42C38.7161 42 39.4086 42.2562 39.9524 42.7222L37.3492 45.7593C37.5305 45.9146 37.7613 46 38 46V42ZM28 42H38V46H28V42ZM27 41C27 41.5523 27.4477 42 28 42V46C25.2386 46 23 43.7614 23 41H27ZM27 36.0234V41H23V36.0234H27ZM24 33.0234C25.6569 33.0234 27 34.3666 27 36.0234H23C23 36.5757 23.4477 37.0234 24 37.0234V33.0234ZM21 36.0234C21 34.3666 22.3431 33.0234 24 33.0234V37.0234C24.5523 37.0234 25 36.5757 25 36.0234H21ZM21 41V36.0234H25V41H21ZM28 48C24.134 48 21 44.866 21 41H25C25 42.6569 26.3431 44 28 44V48ZM37.6301 48H28V44H37.6301V48ZM43.0476 53.2778L36.3285 47.5185L38.9317 44.4815L45.6508 50.2407L43.0476 53.2778ZM46.2536 53.7255C45.1892 54.2151 43.9372 54.0402 43.0476 53.2778L45.6508 50.2407C45.3543 49.9866 44.9369 49.9283 44.5821 50.0915L46.2536 53.7255ZM48 51C48 52.1716 47.318 53.236 46.2536 53.7255L44.5821 50.0915C44.2273 50.2547 44 50.6095 44 51H48ZM48 46V51H44V46H48ZM49 48H46V44H49V48ZM56 41C56 44.866 52.866 48 49 48V44C50.6569 44 52 42.6569 52 41H56ZM56 27V41H52V27H56ZM49 20C52.866 20 56 23.134 56 27H52C52 25.3431 50.6569 24 49 24V20ZM48.9972 20H49V24H48.9972V20ZM48.9944 20H48.9972V24H48.9944V20ZM48.9916 20H48.9944V24H48.9916V20ZM48.9888 20H48.9916V24H48.9888V20ZM48.9861 20H48.9888V24H48.9861V20ZM48.9833 20H48.9861V24H48.9833V20ZM48.9805 20H48.9833V24H48.9805V20ZM48.9777 20H48.9805V24H48.9777V20ZM48.9749 20H48.9777V24H48.9749V20ZM48.9722 20H48.9749V24H48.9722V20ZM48.9694 20H48.9722V24H48.9694V20ZM48.9666 20H48.9694V24H48.9666V20ZM48.9639 20H48.9666V24H48.9639V20ZM48.9611 20H48.9639V24H48.9611V20ZM48.9584 20H48.9611V24H48.9584V20ZM48.9556 20H48.9584V24H48.9556V20ZM48.9529 20H48.9556V24H48.9529V20ZM48.9501 20H48.9529V24H48.9501V20ZM48.9474 20H48.9501V24H48.9474V20ZM48.9446 20H48.9474V24H48.9446V20ZM48.9419 20H48.9446V24H48.9419V20ZM48.9392 20H48.9419V24H48.9392V20ZM48.9364 20H48.9392V24H48.9364V20ZM48.9337 20H48.9364V24H48.9337V20ZM48.931 20H48.9337V24H48.931V20ZM48.9283 20H48.931V24H48.9283V20ZM48.9255 20H48.9283V24H48.9255V20ZM48.9228 20H48.9255V24H48.9228V20ZM48.9201 20H48.9228V24H48.9201V20ZM48.9174 20H48.9201V24H48.9174V20ZM48.9147 20H48.9174V24H48.9147V20ZM48.912 20H48.9147V24H48.912V20ZM48.9093 20H48.912V24H48.9093V20ZM48.9066 20H48.9093V24H48.9066V20ZM48.9039 20H48.9066V24H48.9039V20ZM48.9012 20H48.9039V24H48.9012V20ZM48.8985 20H48.9012V24H48.8985V20ZM48.8958 20H48.8985V24H48.8958V20ZM48.8931 20H48.8958V24H48.8931V20ZM48.8904 20H48.8931V24H48.8904V20ZM48.8878 20H48.8904V24H48.8878V20ZM48.8851 20H48.8878V24H48.8851V20ZM48.8824 20H48.8851V24H48.8824V20ZM48.8797 20H48.8824V24H48.8797V20ZM48.8771 20H48.8797V24H48.8771V20ZM48.8744 20H48.8771V24H48.8744V20ZM48.8718 20H48.8744V24H48.8718V20ZM48.8691 20H48.8718V24H48.8691V20ZM48.8664 20H48.8691V24H48.8664V20ZM48.8638 20H48.8664V24H48.8638V20ZM48.8611 20H48.8638V24H48.8611V20ZM48.8585 20H48.8611V24H48.8585V20ZM48.8558 20H48.8585V24H48.8558V20ZM48.8532 20H48.8558V24H48.8532V20ZM48.8506 20H48.8532V24H48.8506V20ZM48.8479 20H48.8506V24H48.8479V20ZM48.8453 20H48.8479V24H48.8453V20ZM48.8427 20H48.8453V24H48.8427V20ZM48.84 20H48.8427V24H48.84V20ZM48.8374 20H48.84V24H48.8374V20ZM48.8348 20H48.8374V24H48.8348V20ZM48.8322 20H48.8348V24H48.8322V20ZM48.8296 20H48.8322V24H48.8296V20ZM48.8269 20H48.8296V24H48.8269V20ZM48.8243 20H48.8269V24H48.8243V20ZM48.8217 20H48.8243V24H48.8217V20ZM48.8191 20H48.8217V24H48.8191V20ZM48.8165 20H48.8191V24H48.8165V20ZM48.8139 20H48.8165V24H48.8139V20ZM48.8113 20H48.8139V24H48.8113V20ZM48.8087 20H48.8113V24H48.8087V20ZM48.8061 20H48.8087V24H48.8061V20ZM48.8036 20H48.8061V24H48.8036V20ZM48.801 20H48.8036V24H48.801V20ZM48.7984 20H48.801V24H48.7984V20ZM48.7958 20H48.7984V24H48.7958V20ZM48.7932 20H48.7958V24H48.7932V20ZM48.7907 20H48.7932V24H48.7907V20ZM48.7881 20H48.7907V24H48.7881V20ZM48.7855 20H48.7881V24H48.7855V20ZM48.783 20H48.7855V24H48.783V20ZM48.7804 20H48.783V24H48.7804V20ZM48.7779 20H48.7804V24H48.7779V20ZM48.7753 20H48.7779V24H48.7753V20ZM48.7728 20H48.7753V24H48.7728V20ZM48.7702 20H48.7728V24H48.7702V20ZM48.7677 20H48.7702V24H48.7677V20ZM48.7651 20H48.7677V24H48.7651V20ZM48.7626 20H48.7651V24H48.7626V20ZM48.76 20H48.7626V24H48.76V20ZM48.7575 20H48.76V24H48.7575V20ZM48.755 20H48.7575V24H48.755V20ZM48.7524 20H48.755V24H48.7524V20ZM48.7499 20H48.7524V24H48.7499V20ZM48.7474 20H48.7499V24H48.7474V20ZM48.7449 20H48.7474V24H48.7449V20ZM48.7424 20H48.7449V24H48.7424V20ZM48.7398 20H48.7424V24H48.7398V20ZM48.7373 20H48.7398V24H48.7373V20ZM48.7348 20H48.7373V24H48.7348V20ZM48.7323 20H48.7348V24H48.7323V20ZM48.7298 20H48.7323V24H48.7298V20ZM48.7273 20H48.7298V24H48.7273V20ZM48.7248 20H48.7273V24H48.7248V20ZM48.7223 20H48.7248V24H48.7223V20ZM48.7198 20H48.7223V24H48.7198V20ZM48.7174 20H48.7198V24H48.7174V20ZM48.7149 20H48.7174V24H48.7149V20ZM48.7124 20H48.7149V24H48.7124V20ZM48.7099 20H48.7124V24H48.7099V20ZM48.7074 20H48.7099V24H48.7074V20ZM48.705 20H48.7074V24H48.705V20ZM48.7025 20H48.705V24H48.7025V20ZM48.7 20H48.7025V24H48.7V20ZM48.6976 20H48.7V24H48.6976V20ZM48.6951 20H48.6976V24H48.6951V20ZM48.6926 20H48.6951V24H48.6926V20ZM48.6902 20H48.6926V24H48.6902V20ZM48.6877 20H48.6902V24H48.6877V20ZM48.6853 20H48.6877V24H48.6853V20ZM48.6828 20H48.6853V24H48.6828V20ZM48.6804 20H48.6828V24H48.6804V20ZM48.678 20H48.6804V24H48.678V20ZM48.6755 20H48.678V24H48.6755V20ZM48.6731 20H48.6755V24H48.6731V20ZM48.6706 20H48.6731V24H48.6706V20ZM48.6682 20H48.6706V24H48.6682V20ZM48.6658 20H48.6682V24H48.6658V20ZM48.6634 20H48.6658V24H48.6634V20ZM48.6609 20H48.6634V24H48.6609V20ZM48.6585 20H48.6609V24H48.6585V20ZM48.6561 20H48.6585V24H48.6561V20ZM48.6537 20H48.6561V24H48.6537V20ZM48.6513 20H48.6537V24H48.6513V20ZM48.6489 20H48.6513V24H48.6489V20ZM48.6465 20H48.6489V24H48.6465V20ZM48.6441 20H48.6465V24H48.6441V20ZM48.6417 20H48.6441V24H48.6417V20ZM48.6393 20H48.6417V24H48.6393V20ZM48.6369 20H48.6393V24H48.6369V20ZM48.6345 20H48.6369V24H48.6345V20ZM48.6321 20H48.6345V24H48.6321V20ZM48.6297 20H48.6321V24H48.6297V20ZM48.6274 20H48.6297V24H48.6274V20ZM48.625 20H48.6274V24H48.625V20ZM48.6226 20H48.625V24H48.6226V20ZM48.6202 20H48.6226V24H48.6202V20ZM48.6179 20H48.6202V24H48.6179V20ZM48.6155 20H48.6179V24H48.6155V20ZM48.6131 20H48.6155V24H48.6131V20ZM48.6108 20H48.6131V24H48.6108V20ZM48.6084 20H48.6108V24H48.6084V20ZM48.6061 20H48.6084V24H48.6061V20ZM48.6037 20H48.6061V24H48.6037V20ZM48.6014 20H48.6037V24H48.6014V20ZM48.599 20H48.6014V24H48.599V20ZM48.5967 20H48.599V24H48.5967V20ZM48.5943 20H48.5967V24H48.5943V20ZM48.592 20H48.5943V24H48.592V20ZM48.5897 20H48.592V24H48.5897V20ZM48.5873 20H48.5897V24H48.5873V20ZM48.585 20H48.5873V24H48.585V20ZM48.5827 20H48.585V24H48.5827V20ZM48.5804 20H48.5827V24H48.5804V20ZM48.578 20H48.5804V24H48.578V20ZM48.5757 20H48.578V24H48.5757V20ZM48.5734 20H48.5757V24H48.5734V20ZM48.5711 20H48.5734V24H48.5711V20ZM48.5688 20H48.5711V24H48.5688V20ZM48.5665 20H48.5688V24H48.5665V20ZM48.5642 20H48.5665V24H48.5642V20ZM48.5619 20H48.5642V24H48.5619V20ZM48.5596 20H48.5619V24H48.5596V20ZM48.5573 20H48.5596V24H48.5573V20ZM48.555 20H48.5573V24H48.555V20ZM48.5527 20H48.555V24H48.5527V20ZM48.5504 20H48.5527V24H48.5504V20ZM48.5482 20H48.5504V24H48.5482V20ZM48.5459 20H48.5482V24H48.5459V20ZM48.5436 20H48.5459V24H48.5436V20ZM48.5413 20H48.5436V24H48.5413V20ZM48.5391 20H48.5413V24H48.5391V20ZM48.5368 20H48.5391V24H48.5368V20ZM48.5345 20H48.5368V24H48.5345V20ZM48.5323 20H48.5345V24H48.5323V20ZM48.53 20H48.5323V24H48.53V20ZM48.5278 20H48.53V24H48.5278V20ZM48.5255 20H48.5278V24H48.5255V20ZM48.5233 20H48.5255V24H48.5233V20ZM48.521 20H48.5233V24H48.521V20ZM48.5188 20H48.521V24H48.5188V20ZM48.5165 20H48.5188V24H48.5165V20ZM48.5143 20H48.5165V24H48.5143V20ZM48.5121 20H48.5143V24H48.5121V20ZM48.5098 20H48.5121V24H48.5098V20ZM48.5076 20H48.5098V24H48.5076V20ZM48.5054 20H48.5076V24H48.5054V20ZM48.5031 20H48.5054V24H48.5031V20ZM48.5009 20H48.5031V24H48.5009V20ZM48.4987 20H48.5009V24H48.4987V20ZM48.4965 20H48.4987V24H48.4965V20ZM48.4943 20H48.4965V24H48.4943V20ZM48.4921 20H48.4943V24H48.4921V20ZM48.4899 20H48.4921V24H48.4899V20ZM48.4877 20H48.4899V24H48.4877V20ZM48.4855 20H48.4877V24H48.4855V20ZM48.4833 20H48.4855V24H48.4833V20ZM48.4811 20H48.4833V24H48.4811V20ZM48.4789 20H48.4811V24H48.4789V20ZM48.4767 20H48.4789V24H48.4767V20ZM48.4745 20H48.4767V24H48.4745V20ZM48.4723 20H48.4745V24H48.4723V20ZM48.4701 20H48.4723V24H48.4701V20ZM48.468 20H48.4701V24H48.468V20ZM48.4658 20H48.468V24H48.4658V20ZM48.4636 20H48.4658V24H48.4636V20ZM48.4615 20H48.4636V24H48.4615V20ZM48.4593 20H48.4615V24H48.4593V20ZM48.4571 20H48.4593V24H48.4571V20ZM48.455 20H48.4571V24H48.455V20ZM48.4528 20H48.455V24H48.4528V20ZM48.4507 20H48.4528V24H48.4507V20ZM48.4485 20H48.4507V24H48.4485V20ZM48.4464 20H48.4485V24H48.4464V20ZM48.4442 20H48.4464V24H48.4442V20ZM48.4421 20H48.4442V24H48.4421V20ZM48.4399 20H48.4421V24H48.4399V20ZM48.4378 20H48.4399V24H48.4378V20ZM48.4357 20H48.4378V24H48.4357V20ZM48.4335 20H48.4357V24H48.4335V20ZM48.4314 20H48.4335V24H48.4314V20ZM48.4293 20H48.4314V24H48.4293V20ZM48.4272 20H48.4293V24H48.4272V20ZM48.425 20H48.4272V24H48.425V20ZM48.4229 20H48.425V24H48.4229V20ZM48.4208 20H48.4229V24H48.4208V20ZM48.4187 20H48.4208V24H48.4187V20ZM48.4166 20H48.4187V24H48.4166V20ZM48.4145 20H48.4166V24H48.4145V20ZM48.4124 20H48.4145V24H48.4124V20ZM48.4103 20H48.4124V24H48.4103V20ZM48.4082 20H48.4103V24H48.4082V20ZM48.4061 20H48.4082V24H48.4061V20ZM48.404 20H48.4061V24H48.404V20ZM48.4019 20H48.404V24H48.4019V20ZM48.3999 20H48.4019V24H48.3999V20ZM48.3978 20H48.3999V24H48.3978V20ZM48.3957 20H48.3978V24H48.3957V20ZM48.3936 20H48.3957V24H48.3936V20ZM48.3915 20H48.3936V24H48.3915V20ZM48.3895 20H48.3915V24H48.3895V20ZM48.3874 20H48.3895V24H48.3874V20ZM48.3853 20H48.3874V24H48.3853V20ZM48.3833 20H48.3853V24H48.3833V20ZM48.3812 20H48.3833V24H48.3812V20ZM48.3792 20H48.3812V24H48.3792V20ZM48.3771 20H48.3792V24H48.3771V20ZM48.3751 20H48.3771V24H48.3751V20ZM48.373 20H48.3751V24H48.373V20ZM48.371 20H48.373V24H48.371V20ZM48.3689 20H48.371V24H48.3689V20ZM48.3669 20H48.3689V24H48.3669V20ZM48.3649 20H48.3669V24H48.3649V20ZM48.3628 20H48.3649V24H48.3628V20ZM48.3608 20H48.3628V24H48.3608V20ZM48.3588 20H48.3608V24H48.3588V20ZM48.3568 20H48.3588V24H48.3568V20ZM48.3547 20H48.3568V24H48.3547V20ZM48.3527 20H48.3547V24H48.3527V20ZM48.3507 20H48.3527V24H48.3507V20ZM48.3487 20H48.3507V24H48.3487V20ZM48.3467 20H48.3487V24H48.3467V20ZM48.3447 20H48.3467V24H48.3447V20ZM48.3427 20H48.3447V24H48.3427V20ZM48.3407 20H48.3427V24H48.3407V20ZM48.3387 20H48.3407V24H48.3387V20ZM48.3367 20H48.3387V24H48.3367V20ZM48.3347 20H48.3367V24H48.3347V20ZM48.3327 20H48.3347V24H48.3327V20ZM48.3307 20H48.3327V24H48.3307V20ZM48.3287 20H48.3307V24H48.3287V20ZM48.3268 20H48.3287V24H48.3268V20ZM48.3248 20H48.3268V24H48.3248V20ZM48.3228 20H48.3248V24H48.3228V20ZM48.3208 20H48.3228V24H48.3208V20ZM48.3189 20H48.3208V24H48.3189V20ZM48.3169 20H48.3189V24H48.3169V20ZM48.315 20H48.3169V24H48.315V20ZM48.313 20H48.315V24H48.313V20ZM48.311 20H48.313V24H48.311V20ZM48.3091 20H48.311V24H48.3091V20ZM48.3071 20H48.3091V24H48.3071V20ZM48.3052 20H48.3071V24H48.3052V20ZM48.3032 20H48.3052V24H48.3032V20ZM48.3013 20H48.3032V24H48.3013V20ZM48.2994 20H48.3013V24H48.2994V20ZM48.2974 20H48.2994V24H48.2974V20ZM48.2955 20H48.2974V24H48.2955V20ZM48.2936 20H48.2955V24H48.2936V20ZM48.2916 20H48.2936V24H48.2916V20ZM48.2897 20H48.2916V24H48.2897V20ZM48.2878 20H48.2897V24H48.2878V20ZM48.2859 20H48.2878V24H48.2859V20ZM48.284 20H48.2859V24H48.284V20ZM48.2821 20H48.284V24H48.2821V20ZM48.2801 20H48.2821V24H48.2801V20ZM48.2782 20H48.2801V24H48.2782V20ZM48.2763 20H48.2782V24H48.2763V20ZM48.2744 20H48.2763V24H48.2744V20ZM48.2725 20H48.2744V24H48.2725V20ZM48.2706 20H48.2725V24H48.2706V20ZM48.2687 20H48.2706V24H48.2687V20ZM48.2669 20H48.2687V24H48.2669V20ZM48.265 20H48.2669V24H48.265V20ZM48.2631 20H48.265V24H48.2631V20ZM48.2612 20H48.2631V24H48.2612V20ZM48.2593 20H48.2612V24H48.2593V20ZM48.2575 20H48.2593V24H48.2575V20ZM48.2556 20H48.2575V24H48.2556V20ZM48.2537 20H48.2556V24H48.2537V20ZM48.2518 20H48.2537V24H48.2518V20ZM48.25 20H48.2518V24H48.25V20ZM48.2481 20H48.25V24H48.2481V20ZM48.2463 20H48.2481V24H48.2463V20ZM48.2444 20H48.2463V24H48.2444V20ZM48.2426 20H48.2444V24H48.2426V20ZM48.2407 20H48.2426V24H48.2407V20ZM48.2389 20H48.2407V24H48.2389V20ZM48.237 20H48.2389V24H48.237V20ZM48.2352 20H48.237V24H48.2352V20ZM48.2333 20H48.2352V24H48.2333V20ZM48.2315 20H48.2333V24H48.2315V20ZM48.2297 20H48.2315V24H48.2297V20ZM48.2279 20H48.2297V24H48.2279V20ZM48.226 20H48.2279V24H48.226V20ZM48.2242 20H48.226V24H48.2242V20ZM48.2224 20H48.2242V24H48.2224V20ZM48.2206 20H48.2224V24H48.2206V20ZM48.2188 20H48.2206V24H48.2188V20ZM48.2169 20H48.2188V24H48.2169V20ZM48.2151 20H48.2169V24H48.2151V20ZM48.2133 20H48.2151V24H48.2133V20ZM48.2115 20H48.2133V24H48.2115V20ZM48.2097 20H48.2115V24H48.2097V20ZM48.2079 20H48.2097V24H48.2079V20ZM48.2061 20H48.2079V24H48.2061V20ZM48.2044 20H48.2061V24H48.2044V20ZM48.2026 20H48.2044V24H48.2026V20ZM48.2008 20H48.2026V24H48.2008V20ZM48.199 20H48.2008V24H48.199V20ZM48.1972 20H48.199V24H48.1972V20ZM48.1954 20H48.1972V24H48.1954V20ZM48.1937 20H48.1954V24H48.1937V20ZM48.1919 20H48.1937V24H48.1919V20ZM48.1901 20H48.1919V24H48.1901V20ZM48.1884 20H48.1901V24H48.1884V20ZM48.1866 20H48.1884V24H48.1866V20ZM48.1849 20H48.1866V24H48.1849V20ZM48.1831 20H48.1849V24H48.1831V20ZM48.1813 20H48.1831V24H48.1813V20ZM48.1796 20H48.1813V24H48.1796V20ZM48.1778 20H48.1796V24H48.1778V20ZM48.1761 20H48.1778V24H48.1761V20ZM48.1744 20H48.1761V24H48.1744V20ZM48.1726 20H48.1744V24H48.1726V20ZM48.1709 20H48.1726V24H48.1709V20ZM48.1692 20H48.1709V24H48.1692V20ZM48.1674 20H48.1692V24H48.1674V20ZM48.1657 20H48.1674V24H48.1657V20ZM48.164 20H48.1657V24H48.164V20ZM48.1623 20H48.164V24H48.1623V20ZM48.1605 20H48.1623V24H48.1605V20ZM48.1588 20H48.1605V24H48.1588V20ZM48.1571 20H48.1588V24H48.1571V20ZM48.1554 20H48.1571V24H48.1554V20ZM48.1537 20H48.1554V24H48.1537V20ZM48.152 20H48.1537V24H48.152V20ZM48.1503 20H48.152V24H48.1503V20ZM48.1486 20H48.1503V24H48.1486V20ZM48.1469 20H48.1486V24H48.1469V20ZM48.1452 20H48.1469V24H48.1452V20ZM48.1435 20H48.1452V24H48.1435V20ZM48.1418 20H48.1435V24H48.1418V20ZM48.1402 20H48.1418V24H48.1402V20ZM48.1385 20H48.1402V24H48.1385V20ZM48.1368 20H48.1385V24H48.1368V20ZM48.1351 20H48.1368V24H48.1351V20ZM48.1335 20H48.1351V24H48.1335V20ZM48.1318 20H48.1335V24H48.1318V20ZM48.1301 20H48.1318V24H48.1301V20ZM48.1285 20H48.1301V24H48.1285V20ZM48.1268 20H48.1285V24H48.1268V20ZM48.1251 20H48.1268V24H48.1251V20ZM48.1235 20H48.1251V24H48.1235V20ZM48.1218 20H48.1235V24H48.1218V20ZM48.1202 20H48.1218V24H48.1202V20ZM48.1185 20H48.1202V24H48.1185V20ZM48.1169 20H48.1185V24H48.1169V20ZM48.1153 20H48.1169V24H48.1153V20ZM48.1136 20H48.1153V24H48.1136V20ZM48.112 20H48.1136V24H48.112V20ZM48.1104 20H48.112V24H48.1104V20ZM48.1087 20H48.1104V24H48.1087V20ZM48.1071 20H48.1087V24H48.1071V20ZM48.1055 20H48.1071V24H48.1055V20ZM48.1039 20H48.1055V24H48.1039V20ZM48.1022 20H48.1039V24H48.1022V20ZM48.1006 20H48.1022V24H48.1006V20ZM48.099 20H48.1006V24H48.099V20ZM48.0974 20H48.099V24H48.0974V20ZM48.0958 20H48.0974V24H48.0958V20ZM48.0942 20H48.0958V24H48.0942V20ZM48.0926 20H48.0942V24H48.0926V20ZM48.091 20H48.0926V24H48.091V20ZM48.0894 20H48.091V24H48.0894V20ZM48.0878 20H48.0894V24H48.0878V20ZM48.0862 20H48.0878V24H48.0862V20ZM48.0847 20H48.0862V24H48.0847V20ZM48.0831 20H48.0847V24H48.0831V20ZM48.0815 20H48.0831V24H48.0815V20ZM48.0799 20H48.0815V24H48.0799V20ZM48.0784 20H48.0799V24H48.0784V20ZM48.0768 20H48.0784V24H48.0768V20ZM48.0752 20H48.0768V24H48.0752V20ZM48.0737 20H48.0752V24H48.0737V20ZM48.0721 20H48.0737V24H48.0721V20ZM48.0705 20H48.0721V24H48.0705V20ZM48.069 20H48.0705V24H48.069V20ZM48.0674 20H48.069V24H48.0674V20ZM48.0659 20H48.0674V24H48.0659V20ZM48.0643 20H48.0659V24H48.0643V20ZM48.0628 20H48.0643V24H48.0628V20ZM48.0613 20H48.0628V24H48.0613V20ZM48.0597 20H48.0613V24H48.0597V20ZM48.0582 20H48.0597V24H48.0582V20ZM48.0566 20H48.0582V24H48.0566V20ZM48.0551 20H48.0566V24H48.0551V20ZM48.0536 20H48.0551V24H48.0536V20ZM48.0521 20H48.0536V24H48.0521V20ZM48.0505 20H48.0521V24H48.0505V20ZM48.049 20H48.0505V24H48.049V20ZM48.0475 20H48.049V24H48.0475V20ZM48.046 20H48.0475V24H48.046V20ZM48.0445 20H48.046V24H48.0445V20ZM48.043 20H48.0445V24H48.043V20ZM48.0415 20H48.043V24H48.0415V20ZM48.04 20H48.0415V24H48.04V20ZM48.0385 20H48.04V24H48.0385V20ZM48.037 20H48.0385V24H48.037V20ZM48.0355 20H48.037V24H48.0355V20ZM48.034 20H48.0355V24H48.034V20ZM48.0325 20H48.034V24H48.0325V20ZM48.0311 20H48.0325V24H48.0311V20ZM48.0296 20H48.0311V24H48.0296V20ZM48.0281 20H48.0296V24H48.0281V20ZM48.0266 20H48.0281V24H48.0266V20ZM48.0252 20H48.0266V24H48.0252V20ZM48.0237 20H48.0252V24H48.0237V20ZM48.0222 20H48.0237V24H48.0222V20ZM48.0208 20H48.0222V24H48.0208V20ZM48.0193 20H48.0208V24H48.0193V20ZM48.0178 20H48.0193V24H48.0178V20ZM48.0164 20H48.0178V24H48.0164V20ZM48.0149 20H48.0164V24H48.0149V20ZM48.0135 20H48.0149V24H48.0135V20ZM48.012 20H48.0135V24H48.012V20ZM48.0106 20H48.012V24H48.0106V20ZM48.0092 20H48.0106V24H48.0092V20ZM48.0077 20H48.0092V24H48.0077V20ZM48.0063 20H48.0077V24H48.0063V20ZM48.0049 20H48.0063V24H48.0049V20ZM48.0034 20H48.0049V24H48.0034V20ZM48.002 20H48.0034V24H48.002V20ZM48.0006 20H48.002V24H48.0006V20ZM47.9992 20H48.0006V24H47.9992V20ZM47.9978 20H47.9992V24H47.9978V20ZM47.9963 20H47.9978V24H47.9963V20ZM47.9949 20H47.9963V24H47.9949V20ZM47.9935 20H47.9949V24H47.9935V20ZM47.9921 20H47.9935V24H47.9921V20ZM47.9907 20H47.9921V24H47.9907V20ZM47.9893 20H47.9907V24H47.9893V20ZM47.9879 20H47.9893V24H47.9879V20ZM47.9865 20H47.9879V24H47.9865V20ZM47.9851 20H47.9865V24H47.9851V20ZM47.9838 20H47.9851V24H47.9838V20ZM47.9824 20H47.9838V24H47.9824V20ZM47.981 20H47.9824V24H47.981V20ZM47.9796 20H47.981V24H47.9796V20ZM47.9782 20H47.9796V24H47.9782V20ZM47.9769 20H47.9782V24H47.9769V20ZM47.9755 20H47.9769V24H47.9755V20ZM47.9741 20H47.9755V24H47.9741V20ZM47.9728 20H47.9741V24H47.9728V20ZM47.9714 20H47.9728V24H47.9714V20ZM47.9701 20H47.9714V24H47.9701V20ZM47.9687 20H47.9701V24H47.9687V20ZM47.9673 20H47.9687V24H47.9673V20ZM47.966 20H47.9673V24H47.966V20ZM47.9647 20H47.966V24H47.9647V20ZM47.9633 20H47.9647V24H47.9633V20ZM47.962 20H47.9633V24H47.962V20ZM47.9606 20H47.962V24H47.9606V20ZM47.9593 20H47.9606V24H47.9593V20ZM47.958 20H47.9593V24H47.958V20ZM47.9566 20H47.958V24H47.9566V20ZM47.9553 20H47.9566V24H47.9553V20ZM47.954 20H47.9553V24H47.954V20ZM47.9527 20H47.954V24H47.9527V20ZM47.9514 20H47.9527V24H47.9514V20ZM47.95 20H47.9514V24H47.95V20ZM47.9487 20H47.95V24H47.9487V20ZM44.9487 23C44.9487 21.3431 46.2919 20 47.9487 20V24C48.501 24 48.9487 23.5523 48.9487 23H44.9487ZM47.9487 26C46.2919 26 44.9487 24.6569 44.9487 23H48.9487C48.9487 22.4477 48.501 22 47.9487 22V26ZM47.95 26H47.9487V22H47.95V26ZM47.9514 26H47.95V22H47.9514V26ZM47.9527 26H47.9514V22H47.9527V26ZM47.954 26H47.9527V22H47.954V26ZM47.9553 26H47.954V22H47.9553V26ZM47.9566 26H47.9553V22H47.9566V26ZM47.958 26H47.9566V22H47.958V26ZM47.9593 26H47.958V22H47.9593V26ZM47.9606 26H47.9593V22H47.9606V26ZM47.962 26H47.9606V22H47.962V26ZM47.9633 26H47.962V22H47.9633V26ZM47.9647 26H47.9633V22H47.9647V26ZM47.966 26H47.9647V22H47.966V26ZM47.9673 26H47.966V22H47.9673V26ZM47.9687 26H47.9673V22H47.9687V26ZM47.9701 26H47.9687V22H47.9701V26ZM47.9714 26H47.9701V22H47.9714V26ZM47.9728 26H47.9714V22H47.9728V26ZM47.9741 26H47.9728V22H47.9741V26ZM47.9755 26H47.9741V22H47.9755V26ZM47.9769 26H47.9755V22H47.9769V26ZM47.9782 26H47.9769V22H47.9782V26ZM47.9796 26H47.9782V22H47.9796V26ZM47.981 26H47.9796V22H47.981V26ZM47.9824 26H47.981V22H47.9824V26ZM47.9838 26H47.9824V22H47.9838V26ZM47.9851 26H47.9838V22H47.9851V26ZM47.9865 26H47.9851V22H47.9865V26ZM47.9879 26H47.9865V22H47.9879V26ZM47.9893 26H47.9879V22H47.9893V26ZM47.9907 26H47.9893V22H47.9907V26ZM47.9921 26H47.9907V22H47.9921V26ZM47.9935 26H47.9921V22H47.9935V26ZM47.9949 26H47.9935V22H47.9949V26ZM47.9963 26H47.9949V22H47.9963V26ZM47.9978 26H47.9963V22H47.9978V26ZM47.9992 26H47.9978V22H47.9992V26ZM48.0006 26H47.9992V22H48.0006V26ZM48.002 26H48.0006V22H48.002V26ZM48.0034 26H48.002V22H48.0034V26ZM48.0049 26H48.0034V22H48.0049V26ZM48.0063 26H48.0049V22H48.0063V26ZM48.0077 26H48.0063V22H48.0077V26ZM48.0092 26H48.0077V22H48.0092V26ZM48.0106 26H48.0092V22H48.0106V26ZM48.012 26H48.0106V22H48.012V26ZM48.0135 26H48.012V22H48.0135V26ZM48.0149 26H48.0135V22H48.0149V26ZM48.0164 26H48.0149V22H48.0164V26ZM48.0178 26H48.0164V22H48.0178V26ZM48.0193 26H48.0178V22H48.0193V26ZM48.0208 26H48.0193V22H48.0208V26ZM48.0222 26H48.0208V22H48.0222V26ZM48.0237 26H48.0222V22H48.0237V26ZM48.0252 26H48.0237V22H48.0252V26ZM48.0266 26H48.0252V22H48.0266V26ZM48.0281 26H48.0266V22H48.0281V26ZM48.0296 26H48.0281V22H48.0296V26ZM48.0311 26H48.0296V22H48.0311V26ZM48.0325 26H48.0311V22H48.0325V26ZM48.034 26H48.0325V22H48.034V26ZM48.0355 26H48.034V22H48.0355V26ZM48.037 26H48.0355V22H48.037V26ZM48.0385 26H48.037V22H48.0385V26ZM48.04 26H48.0385V22H48.04V26ZM48.0415 26H48.04V22H48.0415V26ZM48.043 26H48.0415V22H48.043V26ZM48.0445 26H48.043V22H48.0445V26ZM48.046 26H48.0445V22H48.046V26ZM48.0475 26H48.046V22H48.0475V26ZM48.049 26H48.0475V22H48.049V26ZM48.0505 26H48.049V22H48.0505V26ZM48.0521 26H48.0505V22H48.0521V26ZM48.0536 26H48.0521V22H48.0536V26ZM48.0551 26H48.0536V22H48.0551V26ZM48.0566 26H48.0551V22H48.0566V26ZM48.0582 26H48.0566V22H48.0582V26ZM48.0597 26H48.0582V22H48.0597V26ZM48.0613 26H48.0597V22H48.0613V26ZM48.0628 26H48.0613V22H48.0628V26ZM48.0643 26H48.0628V22H48.0643V26ZM48.0659 26H48.0643V22H48.0659V26ZM48.0674 26H48.0659V22H48.0674V26ZM48.069 26H48.0674V22H48.069V26ZM48.0705 26H48.069V22H48.0705V26ZM48.0721 26H48.0705V22H48.0721V26ZM48.0737 26H48.0721V22H48.0737V26ZM48.0752 26H48.0737V22H48.0752V26ZM48.0768 26H48.0752V22H48.0768V26ZM48.0784 26H48.0768V22H48.0784V26ZM48.0799 26H48.0784V22H48.0799V26ZM48.0815 26H48.0799V22H48.0815V26ZM48.0831 26H48.0815V22H48.0831V26ZM48.0847 26H48.0831V22H48.0847V26ZM48.0862 26H48.0847V22H48.0862V26ZM48.0878 26H48.0862V22H48.0878V26ZM48.0894 26H48.0878V22H48.0894V26ZM48.091 26H48.0894V22H48.091V26ZM48.0926 26H48.091V22H48.0926V26ZM48.0942 26H48.0926V22H48.0942V26ZM48.0958 26H48.0942V22H48.0958V26ZM48.0974 26H48.0958V22H48.0974V26ZM48.099 26H48.0974V22H48.099V26ZM48.1006 26H48.099V22H48.1006V26ZM48.1022 26H48.1006V22H48.1022V26ZM48.1039 26H48.1022V22H48.1039V26ZM48.1055 26H48.1039V22H48.1055V26ZM48.1071 26H48.1055V22H48.1071V26ZM48.1087 26H48.1071V22H48.1087V26ZM48.1104 26H48.1087V22H48.1104V26ZM48.112 26H48.1104V22H48.112V26ZM48.1136 26H48.112V22H48.1136V26ZM48.1153 26H48.1136V22H48.1153V26ZM48.1169 26H48.1153V22H48.1169V26ZM48.1185 26H48.1169V22H48.1185V26ZM48.1202 26H48.1185V22H48.1202V26ZM48.1218 26H48.1202V22H48.1218V26ZM48.1235 26H48.1218V22H48.1235V26ZM48.1251 26H48.1235V22H48.1251V26ZM48.1268 26H48.1251V22H48.1268V26ZM48.1285 26H48.1268V22H48.1285V26ZM48.1301 26H48.1285V22H48.1301V26ZM48.1318 26H48.1301V22H48.1318V26ZM48.1335 26H48.1318V22H48.1335V26ZM48.1351 26H48.1335V22H48.1351V26ZM48.1368 26H48.1351V22H48.1368V26ZM48.1385 26H48.1368V22H48.1385V26ZM48.1402 26H48.1385V22H48.1402V26ZM48.1418 26H48.1402V22H48.1418V26ZM48.1435 26H48.1418V22H48.1435V26ZM48.1452 26H48.1435V22H48.1452V26ZM48.1469 26H48.1452V22H48.1469V26ZM48.1486 26H48.1469V22H48.1486V26ZM48.1503 26H48.1486V22H48.1503V26ZM48.152 26H48.1503V22H48.152V26ZM48.1537 26H48.152V22H48.1537V26ZM48.1554 26H48.1537V22H48.1554V26ZM48.1571 26H48.1554V22H48.1571V26ZM48.1588 26H48.1571V22H48.1588V26ZM48.1605 26H48.1588V22H48.1605V26ZM48.1623 26H48.1605V22H48.1623V26ZM48.164 26H48.1623V22H48.164V26ZM48.1657 26H48.164V22H48.1657V26ZM48.1674 26H48.1657V22H48.1674V26ZM48.1692 26H48.1674V22H48.1692V26ZM48.1709 26H48.1692V22H48.1709V26ZM48.1726 26H48.1709V22H48.1726V26ZM48.1744 26H48.1726V22H48.1744V26ZM48.1761 26H48.1744V22H48.1761V26ZM48.1778 26H48.1761V22H48.1778V26ZM48.1796 26H48.1778V22H48.1796V26ZM48.1813 26H48.1796V22H48.1813V26ZM48.1831 26H48.1813V22H48.1831V26ZM48.1849 26H48.1831V22H48.1849V26ZM48.1866 26H48.1849V22H48.1866V26ZM48.1884 26H48.1866V22H48.1884V26ZM48.1901 26H48.1884V22H48.1901V26ZM48.1919 26H48.1901V22H48.1919V26ZM48.1937 26H48.1919V22H48.1937V26ZM48.1954 26H48.1937V22H48.1954V26ZM48.1972 26H48.1954V22H48.1972V26ZM48.199 26H48.1972V22H48.199V26ZM48.2008 26H48.199V22H48.2008V26ZM48.2026 26H48.2008V22H48.2026V26ZM48.2044 26H48.2026V22H48.2044V26ZM48.2061 26H48.2044V22H48.2061V26ZM48.2079 26H48.2061V22H48.2079V26ZM48.2097 26H48.2079V22H48.2097V26ZM48.2115 26H48.2097V22H48.2115V26ZM48.2133 26H48.2115V22H48.2133V26ZM48.2151 26H48.2133V22H48.2151V26ZM48.2169 26H48.2151V22H48.2169V26ZM48.2188 26H48.2169V22H48.2188V26ZM48.2206 26H48.2188V22H48.2206V26ZM48.2224 26H48.2206V22H48.2224V26ZM48.2242 26H48.2224V22H48.2242V26ZM48.226 26H48.2242V22H48.226V26ZM48.2279 26H48.226V22H48.2279V26ZM48.2297 26H48.2279V22H48.2297V26ZM48.2315 26H48.2297V22H48.2315V26ZM48.2333 26H48.2315V22H48.2333V26ZM48.2352 26H48.2333V22H48.2352V26ZM48.237 26H48.2352V22H48.237V26ZM48.2389 26H48.237V22H48.2389V26ZM48.2407 26H48.2389V22H48.2407V26ZM48.2426 26H48.2407V22H48.2426V26ZM48.2444 26H48.2426V22H48.2444V26ZM48.2463 26H48.2444V22H48.2463V26ZM48.2481 26H48.2463V22H48.2481V26ZM48.25 26H48.2481V22H48.25V26ZM48.2518 26H48.25V22H48.2518V26ZM48.2537 26H48.2518V22H48.2537V26ZM48.2556 26H48.2537V22H48.2556V26ZM48.2575 26H48.2556V22H48.2575V26ZM48.2593 26H48.2575V22H48.2593V26ZM48.2612 26H48.2593V22H48.2612V26ZM48.2631 26H48.2612V22H48.2631V26ZM48.265 26H48.2631V22H48.265V26ZM48.2669 26H48.265V22H48.2669V26ZM48.2687 26H48.2669V22H48.2687V26ZM48.2706 26H48.2687V22H48.2706V26ZM48.2725 26H48.2706V22H48.2725V26ZM48.2744 26H48.2725V22H48.2744V26ZM48.2763 26H48.2744V22H48.2763V26ZM48.2782 26H48.2763V22H48.2782V26ZM48.2801 26H48.2782V22H48.2801V26ZM48.2821 26H48.2801V22H48.2821V26ZM48.284 26H48.2821V22H48.284V26ZM48.2859 26H48.284V22H48.2859V26ZM48.2878 26H48.2859V22H48.2878V26ZM48.2897 26H48.2878V22H48.2897V26ZM48.2916 26H48.2897V22H48.2916V26ZM48.2936 26H48.2916V22H48.2936V26ZM48.2955 26H48.2936V22H48.2955V26ZM48.2974 26H48.2955V22H48.2974V26ZM48.2994 26H48.2974V22H48.2994V26ZM48.3013 26H48.2994V22H48.3013V26ZM48.3032 26H48.3013V22H48.3032V26ZM48.3052 26H48.3032V22H48.3052V26ZM48.3071 26H48.3052V22H48.3071V26ZM48.3091 26H48.3071V22H48.3091V26ZM48.311 26H48.3091V22H48.311V26ZM48.313 26H48.311V22H48.313V26ZM48.315 26H48.313V22H48.315V26ZM48.3169 26H48.315V22H48.3169V26ZM48.3189 26H48.3169V22H48.3189V26ZM48.3208 26H48.3189V22H48.3208V26ZM48.3228 26H48.3208V22H48.3228V26ZM48.3248 26H48.3228V22H48.3248V26ZM48.3268 26H48.3248V22H48.3268V26ZM48.3287 26H48.3268V22H48.3287V26ZM48.3307 26H48.3287V22H48.3307V26ZM48.3327 26H48.3307V22H48.3327V26ZM48.3347 26H48.3327V22H48.3347V26ZM48.3367 26H48.3347V22H48.3367V26ZM48.3387 26H48.3367V22H48.3387V26ZM48.3407 26H48.3387V22H48.3407V26ZM48.3427 26H48.3407V22H48.3427V26ZM48.3447 26H48.3427V22H48.3447V26ZM48.3467 26H48.3447V22H48.3467V26ZM48.3487 26H48.3467V22H48.3487V26ZM48.3507 26H48.3487V22H48.3507V26ZM48.3527 26H48.3507V22H48.3527V26ZM48.3547 26H48.3527V22H48.3547V26ZM48.3568 26H48.3547V22H48.3568V26ZM48.3588 26H48.3568V22H48.3588V26ZM48.3608 26H48.3588V22H48.3608V26ZM48.3628 26H48.3608V22H48.3628V26ZM48.3649 26H48.3628V22H48.3649V26ZM48.3669 26H48.3649V22H48.3669V26ZM48.3689 26H48.3669V22H48.3689V26ZM48.371 26H48.3689V22H48.371V26ZM48.373 26H48.371V22H48.373V26ZM48.3751 26H48.373V22H48.3751V26ZM48.3771 26H48.3751V22H48.3771V26ZM48.3792 26H48.3771V22H48.3792V26ZM48.3812 26H48.3792V22H48.3812V26ZM48.3833 26H48.3812V22H48.3833V26ZM48.3853 26H48.3833V22H48.3853V26ZM48.3874 26H48.3853V22H48.3874V26ZM48.3895 26H48.3874V22H48.3895V26ZM48.3915 26H48.3895V22H48.3915V26ZM48.3936 26H48.3915V22H48.3936V26ZM48.3957 26H48.3936V22H48.3957V26ZM48.3978 26H48.3957V22H48.3978V26ZM48.3999 26H48.3978V22H48.3999V26ZM48.4019 26H48.3999V22H48.4019V26ZM48.404 26H48.4019V22H48.404V26ZM48.4061 26H48.404V22H48.4061V26ZM48.4082 26H48.4061V22H48.4082V26ZM48.4103 26H48.4082V22H48.4103V26ZM48.4124 26H48.4103V22H48.4124V26ZM48.4145 26H48.4124V22H48.4145V26ZM48.4166 26H48.4145V22H48.4166V26ZM48.4187 26H48.4166V22H48.4187V26ZM48.4208 26H48.4187V22H48.4208V26ZM48.4229 26H48.4208V22H48.4229V26ZM48.425 26H48.4229V22H48.425V26ZM48.4272 26H48.425V22H48.4272V26ZM48.4293 26H48.4272V22H48.4293V26ZM48.4314 26H48.4293V22H48.4314V26ZM48.4335 26H48.4314V22H48.4335V26ZM48.4357 26H48.4335V22H48.4357V26ZM48.4378 26H48.4357V22H48.4378V26ZM48.4399 26H48.4378V22H48.4399V26ZM48.4421 26H48.4399V22H48.4421V26ZM48.4442 26H48.4421V22H48.4442V26ZM48.4464 26H48.4442V22H48.4464V26ZM48.4485 26H48.4464V22H48.4485V26ZM48.4507 26H48.4485V22H48.4507V26ZM48.4528 26H48.4507V22H48.4528V26ZM48.455 26H48.4528V22H48.455V26ZM48.4571 26H48.455V22H48.4571V26ZM48.4593 26H48.4571V22H48.4593V26ZM48.4615 26H48.4593V22H48.4615V26ZM48.4636 26H48.4615V22H48.4636V26ZM48.4658 26H48.4636V22H48.4658V26ZM48.468 26H48.4658V22H48.468V26ZM48.4701 26H48.468V22H48.4701V26ZM48.4723 26H48.4701V22H48.4723V26ZM48.4745 26H48.4723V22H48.4745V26ZM48.4767 26H48.4745V22H48.4767V26ZM48.4789 26H48.4767V22H48.4789V26ZM48.4811 26H48.4789V22H48.4811V26ZM48.4833 26H48.4811V22H48.4833V26ZM48.4855 26H48.4833V22H48.4855V26ZM48.4877 26H48.4855V22H48.4877V26ZM48.4899 26H48.4877V22H48.4899V26ZM48.4921 26H48.4899V22H48.4921V26ZM48.4943 26H48.4921V22H48.4943V26ZM48.4965 26H48.4943V22H48.4965V26ZM48.4987 26H48.4965V22H48.4987V26ZM48.5009 26H48.4987V22H48.5009V26ZM48.5031 26H48.5009V22H48.5031V26ZM48.5054 26H48.5031V22H48.5054V26ZM48.5076 26H48.5054V22H48.5076V26ZM48.5098 26H48.5076V22H48.5098V26ZM48.5121 26H48.5098V22H48.5121V26ZM48.5143 26H48.5121V22H48.5143V26ZM48.5165 26H48.5143V22H48.5165V26ZM48.5188 26H48.5165V22H48.5188V26ZM48.521 26H48.5188V22H48.521V26ZM48.5233 26H48.521V22H48.5233V26ZM48.5255 26H48.5233V22H48.5255V26ZM48.5278 26H48.5255V22H48.5278V26ZM48.53 26H48.5278V22H48.53V26ZM48.5323 26H48.53V22H48.5323V26ZM48.5345 26H48.5323V22H48.5345V26ZM48.5368 26H48.5345V22H48.5368V26ZM48.5391 26H48.5368V22H48.5391V26ZM48.5413 26H48.5391V22H48.5413V26ZM48.5436 26H48.5413V22H48.5436V26ZM48.5459 26H48.5436V22H48.5459V26ZM48.5482 26H48.5459V22H48.5482V26ZM48.5504 26H48.5482V22H48.5504V26ZM48.5527 26H48.5504V22H48.5527V26ZM48.555 26H48.5527V22H48.555V26ZM48.5573 26H48.555V22H48.5573V26ZM48.5596 26H48.5573V22H48.5596V26ZM48.5619 26H48.5596V22H48.5619V26ZM48.5642 26H48.5619V22H48.5642V26ZM48.5665 26H48.5642V22H48.5665V26ZM48.5688 26H48.5665V22H48.5688V26ZM48.5711 26H48.5688V22H48.5711V26ZM48.5734 26H48.5711V22H48.5734V26ZM48.5757 26H48.5734V22H48.5757V26ZM48.578 26H48.5757V22H48.578V26ZM48.5804 26H48.578V22H48.5804V26ZM48.5827 26H48.5804V22H48.5827V26ZM48.585 26H48.5827V22H48.585V26ZM48.5873 26H48.585V22H48.5873V26ZM48.5897 26H48.5873V22H48.5897V26ZM48.592 26H48.5897V22H48.592V26ZM48.5943 26H48.592V22H48.5943V26ZM48.5967 26H48.5943V22H48.5967V26ZM48.599 26H48.5967V22H48.599V26ZM48.6014 26H48.599V22H48.6014V26ZM48.6037 26H48.6014V22H48.6037V26ZM48.6061 26H48.6037V22H48.6061V26ZM48.6084 26H48.6061V22H48.6084V26ZM48.6108 26H48.6084V22H48.6108V26ZM48.6131 26H48.6108V22H48.6131V26ZM48.6155 26H48.6131V22H48.6155V26ZM48.6179 26H48.6155V22H48.6179V26ZM48.6202 26H48.6179V22H48.6202V26ZM48.6226 26H48.6202V22H48.6226V26ZM48.625 26H48.6226V22H48.625V26ZM48.6274 26H48.625V22H48.6274V26ZM48.6297 26H48.6274V22H48.6297V26ZM48.6321 26H48.6297V22H48.6321V26ZM48.6345 26H48.6321V22H48.6345V26ZM48.6369 26H48.6345V22H48.6369V26ZM48.6393 26H48.6369V22H48.6393V26ZM48.6417 26H48.6393V22H48.6417V26ZM48.6441 26H48.6417V22H48.6441V26ZM48.6465 26H48.6441V22H48.6465V26ZM48.6489 26H48.6465V22H48.6489V26ZM48.6513 26H48.6489V22H48.6513V26ZM48.6537 26H48.6513V22H48.6537V26ZM48.6561 26H48.6537V22H48.6561V26ZM48.6585 26H48.6561V22H48.6585V26ZM48.6609 26H48.6585V22H48.6609V26ZM48.6634 26H48.6609V22H48.6634V26ZM48.6658 26H48.6634V22H48.6658V26ZM48.6682 26H48.6658V22H48.6682V26ZM48.6706 26H48.6682V22H48.6706V26ZM48.6731 26H48.6706V22H48.6731V26ZM48.6755 26H48.6731V22H48.6755V26ZM48.678 26H48.6755V22H48.678V26ZM48.6804 26H48.678V22H48.6804V26ZM48.6828 26H48.6804V22H48.6828V26ZM48.6853 26H48.6828V22H48.6853V26ZM48.6877 26H48.6853V22H48.6877V26ZM48.6902 26H48.6877V22H48.6902V26ZM48.6926 26H48.6902V22H48.6926V26ZM48.6951 26H48.6926V22H48.6951V26ZM48.6976 26H48.6951V22H48.6976V26ZM48.7 26H48.6976V22H48.7V26ZM48.7025 26H48.7V22H48.7025V26ZM48.705 26H48.7025V22H48.705V26ZM48.7074 26H48.705V22H48.7074V26ZM48.7099 26H48.7074V22H48.7099V26ZM48.7124 26H48.7099V22H48.7124V26ZM48.7149 26H48.7124V22H48.7149V26ZM48.7174 26H48.7149V22H48.7174V26ZM48.7198 26H48.7174V22H48.7198V26ZM48.7223 26H48.7198V22H48.7223V26ZM48.7248 26H48.7223V22H48.7248V26ZM48.7273 26H48.7248V22H48.7273V26ZM48.7298 26H48.7273V22H48.7298V26ZM48.7323 26H48.7298V22H48.7323V26ZM48.7348 26H48.7323V22H48.7348V26ZM48.7373 26H48.7348V22H48.7373V26ZM48.7398 26H48.7373V22H48.7398V26ZM48.7424 26H48.7398V22H48.7424V26ZM48.7449 26H48.7424V22H48.7449V26ZM48.7474 26H48.7449V22H48.7474V26ZM48.7499 26H48.7474V22H48.7499V26ZM48.7524 26H48.7499V22H48.7524V26ZM48.755 26H48.7524V22H48.755V26ZM48.7575 26H48.755V22H48.7575V26ZM48.76 26H48.7575V22H48.76V26ZM48.7626 26H48.76V22H48.7626V26ZM48.7651 26H48.7626V22H48.7651V26ZM48.7677 26H48.7651V22H48.7677V26ZM48.7702 26H48.7677V22H48.7702V26ZM48.7728 26H48.7702V22H48.7728V26ZM48.7753 26H48.7728V22H48.7753V26ZM48.7779 26H48.7753V22H48.7779V26ZM48.7804 26H48.7779V22H48.7804V26ZM48.783 26H48.7804V22H48.783V26ZM48.7855 26H48.783V22H48.7855V26ZM48.7881 26H48.7855V22H48.7881V26ZM48.7907 26H48.7881V22H48.7907V26ZM48.7932 26H48.7907V22H48.7932V26ZM48.7958 26H48.7932V22H48.7958V26ZM48.7984 26H48.7958V22H48.7984V26ZM48.801 26H48.7984V22H48.801V26ZM48.8036 26H48.801V22H48.8036V26ZM48.8061 26H48.8036V22H48.8061V26ZM48.8087 26H48.8061V22H48.8087V26ZM48.8113 26H48.8087V22H48.8113V26ZM48.8139 26H48.8113V22H48.8139V26ZM48.8165 26H48.8139V22H48.8165V26ZM48.8191 26H48.8165V22H48.8191V26ZM48.8217 26H48.8191V22H48.8217V26ZM48.8243 26H48.8217V22H48.8243V26ZM48.8269 26H48.8243V22H48.8269V26ZM48.8296 26H48.8269V22H48.8296V26ZM48.8322 26H48.8296V22H48.8322V26ZM48.8348 26H48.8322V22H48.8348V26ZM48.8374 26H48.8348V22H48.8374V26ZM48.84 26H48.8374V22H48.84V26ZM48.8427 26H48.84V22H48.8427V26ZM48.8453 26H48.8427V22H48.8453V26ZM48.8479 26H48.8453V22H48.8479V26ZM48.8506 26H48.8479V22H48.8506V26ZM48.8532 26H48.8506V22H48.8532V26ZM48.8558 26H48.8532V22H48.8558V26ZM48.8585 26H48.8558V22H48.8585V26ZM48.8611 26H48.8585V22H48.8611V26ZM48.8638 26H48.8611V22H48.8638V26ZM48.8664 26H48.8638V22H48.8664V26ZM48.8691 26H48.8664V22H48.8691V26ZM48.8718 26H48.8691V22H48.8718V26ZM48.8744 26H48.8718V22H48.8744V26ZM48.8771 26H48.8744V22H48.8771V26ZM48.8797 26H48.8771V22H48.8797V26ZM48.8824 26H48.8797V22H48.8824V26ZM48.8851 26H48.8824V22H48.8851V26ZM48.8878 26H48.8851V22H48.8878V26ZM48.8904 26H48.8878V22H48.8904V26ZM48.8931 26H48.8904V22H48.8931V26ZM48.8958 26H48.8931V22H48.8958V26ZM48.8985 26H48.8958V22H48.8985V26ZM48.9012 26H48.8985V22H48.9012V26ZM48.9039 26H48.9012V22H48.9039V26ZM48.9066 26H48.9039V22H48.9066V26ZM48.9093 26H48.9066V22H48.9093V26ZM48.912 26H48.9093V22H48.912V26ZM48.9147 26H48.912V22H48.9147V26ZM48.9174 26H48.9147V22H48.9174V26ZM48.9201 26H48.9174V22H48.9201V26ZM48.9228 26H48.9201V22H48.9228V26ZM48.9255 26H48.9228V22H48.9255V26ZM48.9283 26H48.9255V22H48.9283V26ZM48.931 26H48.9283V22H48.931V26ZM48.9337 26H48.931V22H48.9337V26ZM48.9364 26H48.9337V22H48.9364V26ZM48.9392 26H48.9364V22H48.9392V26ZM48.9419 26H48.9392V22H48.9419V26ZM48.9446 26H48.9419V22H48.9446V26ZM48.9474 26H48.9446V22H48.9474V26ZM48.9501 26H48.9474V22H48.9501V26ZM48.9529 26H48.9501V22H48.9529V26ZM48.9556 26H48.9529V22H48.9556V26ZM48.9584 26H48.9556V22H48.9584V26ZM48.9611 26H48.9584V22H48.9611V26ZM48.9639 26H48.9611V22H48.9639V26ZM48.9666 26H48.9639V22H48.9666V26ZM48.9694 26H48.9666V22H48.9694V26ZM48.9722 26H48.9694V22H48.9722V26ZM48.9749 26H48.9722V22H48.9749V26ZM48.9777 26H48.9749V22H48.9777V26ZM48.9805 26H48.9777V22H48.9805V26ZM48.9833 26H48.9805V22H48.9833V26ZM48.9861 26H48.9833V22H48.9861V26ZM48.9888 26H48.9861V22H48.9888V26ZM48.9916 26H48.9888V22H48.9916V26ZM48.9944 26H48.9916V22H48.9944V26ZM48.9972 26H48.9944V22H48.9972V26ZM49 26H48.9972V22H49V26ZM44.0449 20C45.7018 20 47.0449 21.3431 47.0449 23H43.0449C43.0449 23.5523 43.4926 24 44.0449 24V20ZM44.041 20H44.0449V24H44.041V20ZM44.037 20H44.041V24H44.037V20ZM44.033 20H44.037V24H44.033V20ZM44.029 20H44.033V24H44.029V20ZM44.025 20H44.029V24H44.025V20ZM44.021 20H44.025V24H44.021V20ZM44.017 20H44.021V24H44.017V20ZM44.013 20H44.017V24H44.013V20ZM44.0089 20H44.013V24H44.0089V20ZM44.0049 20H44.0089V24H44.0049V20ZM44.0008 20H44.0049V24H44.0008V20ZM43.9968 20H44.0008V24H43.9968V20ZM43.9927 20H43.9968V24H43.9927V20ZM43.9887 20H43.9927V24H43.9887V20ZM43.9846 20H43.9887V24H43.9846V20ZM43.9805 20H43.9846V24H43.9805V20ZM43.9764 20H43.9805V24H43.9764V20ZM43.9723 20H43.9764V24H43.9723V20ZM43.9682 20H43.9723V24H43.9682V20ZM43.9641 20H43.9682V24H43.9641V20ZM43.96 20H43.9641V24H43.96V20ZM43.9558 20H43.96V24H43.9558V20ZM43.9517 20H43.9558V24H43.9517V20ZM43.9475 20H43.9517V24H43.9475V20ZM43.9434 20H43.9475V24H43.9434V20ZM43.9392 20H43.9434V24H43.9392V20ZM43.9351 20H43.9392V24H43.9351V20ZM43.9309 20H43.9351V24H43.9309V20ZM43.9267 20H43.9309V24H43.9267V20ZM43.9225 20H43.9267V24H43.9225V20ZM43.9183 20H43.9225V24H43.9183V20ZM43.9141 20H43.9183V24H43.9141V20ZM43.9099 20H43.9141V24H43.9099V20ZM43.9056 20H43.9099V24H43.9056V20ZM43.9014 20H43.9056V24H43.9014V20ZM43.8972 20H43.9014V24H43.8972V20ZM43.8929 20H43.8972V24H43.8929V20ZM43.8887 20H43.8929V24H43.8887V20ZM43.8844 20H43.8887V24H43.8844V20ZM43.8801 20H43.8844V24H43.8801V20ZM43.8759 20H43.8801V24H43.8759V20ZM43.8716 20H43.8759V24H43.8716V20ZM43.8673 20H43.8716V24H43.8673V20ZM43.863 20H43.8673V24H43.863V20ZM43.8587 20H43.863V24H43.8587V20ZM43.8544 20H43.8587V24H43.8544V20ZM43.85 20H43.8544V24H43.85V20ZM43.8457 20H43.85V24H43.8457V20ZM43.8414 20H43.8457V24H43.8414V20ZM43.837 20H43.8414V24H43.837V20ZM43.8326 20H43.837V24H43.8326V20ZM43.8283 20H43.8326V24H43.8283V20ZM43.8239 20H43.8283V24H43.8239V20ZM43.8195 20H43.8239V24H43.8195V20ZM43.8151 20H43.8195V24H43.8151V20ZM43.8108 20H43.8151V24H43.8108V20ZM43.8064 20H43.8108V24H43.8064V20ZM43.8019 20H43.8064V24H43.8019V20ZM43.7975 20H43.8019V24H43.7975V20ZM43.7931 20H43.7975V24H43.7931V20ZM43.7887 20H43.7931V24H43.7887V20ZM43.7842 20H43.7887V24H43.7842V20ZM43.7798 20H43.7842V24H43.7798V20ZM43.7753 20H43.7798V24H43.7753V20ZM43.7709 20H43.7753V24H43.7709V20ZM43.7664 20H43.7709V24H43.7664V20ZM43.7619 20H43.7664V24H43.7619V20ZM43.7574 20H43.7619V24H43.7574V20ZM43.7529 20H43.7574V24H43.7529V20ZM43.7484 20H43.7529V24H43.7484V20ZM43.7439 20H43.7484V24H43.7439V20ZM43.7394 20H43.7439V24H43.7394V20ZM43.7349 20H43.7394V24H43.7349V20ZM43.7303 20H43.7349V24H43.7303V20ZM43.7258 20H43.7303V24H43.7258V20ZM43.7212 20H43.7258V24H43.7212V20ZM43.7167 20H43.7212V24H43.7167V20ZM43.7121 20H43.7167V24H43.7121V20ZM43.7075 20H43.7121V24H43.7075V20ZM43.703 20H43.7075V24H43.703V20ZM43.6984 20H43.703V24H43.6984V20ZM43.6938 20H43.6984V24H43.6938V20ZM43.6892 20H43.6938V24H43.6892V20ZM43.6846 20H43.6892V24H43.6846V20ZM43.6799 20H43.6846V24H43.6799V20ZM43.6753 20H43.6799V24H43.6753V20ZM43.6707 20H43.6753V24H43.6707V20ZM43.666 20H43.6707V24H43.666V20ZM43.6614 20H43.666V24H43.6614V20ZM43.6567 20H43.6614V24H43.6567V20ZM43.6521 20H43.6567V24H43.6521V20ZM43.6474 20H43.6521V24H43.6474V20ZM43.6427 20H43.6474V24H43.6427V20ZM43.638 20H43.6427V24H43.638V20ZM43.6333 20H43.638V24H43.6333V20ZM43.6286 20H43.6333V24H43.6286V20ZM43.6239 20H43.6286V24H43.6239V20ZM43.6192 20H43.6239V24H43.6192V20ZM43.6145 20H43.6192V24H43.6145V20ZM43.6097 20H43.6145V24H43.6097V20ZM43.605 20H43.6097V24H43.605V20ZM43.6002 20H43.605V24H43.6002V20ZM43.5955 20H43.6002V24H43.5955V20ZM43.5907 20H43.5955V24H43.5907V20ZM43.5859 20H43.5907V24H43.5859V20ZM43.5812 20H43.5859V24H43.5812V20ZM43.5764 20H43.5812V24H43.5764V20ZM43.5716 20H43.5764V24H43.5716V20ZM43.5668 20H43.5716V24H43.5668V20ZM43.562 20H43.5668V24H43.562V20ZM43.5571 20H43.562V24H43.5571V20ZM43.5523 20H43.5571V24H43.5523V20ZM43.5475 20H43.5523V24H43.5475V20ZM43.5426 20H43.5475V24H43.5426V20ZM43.5378 20H43.5426V24H43.5378V20ZM43.5329 20H43.5378V24H43.5329V20ZM43.528 20H43.5329V24H43.528V20ZM43.5232 20H43.528V24H43.5232V20ZM43.5183 20H43.5232V24H43.5183V20ZM43.5134 20H43.5183V24H43.5134V20ZM43.5085 20H43.5134V24H43.5085V20ZM43.5036 20H43.5085V24H43.5036V20ZM43.4987 20H43.5036V24H43.4987V20ZM43.4938 20H43.4987V24H43.4938V20ZM43.4888 20H43.4938V24H43.4888V20ZM43.4839 20H43.4888V24H43.4839V20ZM43.479 20H43.4839V24H43.479V20ZM43.474 20H43.479V24H43.474V20ZM43.469 20H43.474V24H43.469V20ZM43.4641 20H43.469V24H43.4641V20ZM43.4591 20H43.4641V24H43.4591V20ZM43.4541 20H43.4591V24H43.4541V20ZM43.4491 20H43.4541V24H43.4491V20ZM43.4441 20H43.4491V24H43.4441V20ZM43.4391 20H43.4441V24H43.4391V20ZM43.4341 20H43.4391V24H43.4341V20ZM43.4291 20H43.4341V24H43.4291V20ZM43.4241 20H43.4291V24H43.4241V20ZM43.419 20H43.4241V24H43.419V20ZM43.414 20H43.419V24H43.414V20ZM43.4089 20H43.414V24H43.4089V20ZM43.4039 20H43.4089V24H43.4039V20ZM43.3988 20H43.4039V24H43.3988V20ZM43.3937 20H43.3988V24H43.3937V20ZM43.3886 20H43.3937V24H43.3886V20ZM43.3835 20H43.3886V24H43.3835V20ZM43.3784 20H43.3835V24H43.3784V20ZM43.3733 20H43.3784V24H43.3733V20ZM43.3682 20H43.3733V24H43.3682V20ZM43.3631 20H43.3682V24H43.3631V20ZM43.358 20H43.3631V24H43.358V20ZM43.3528 20H43.358V24H43.3528V20ZM43.3477 20H43.3528V24H43.3477V20ZM43.3425 20H43.3477V24H43.3425V20ZM43.3374 20H43.3425V24H43.3374V20ZM43.3322 20H43.3374V24H43.3322V20ZM43.327 20H43.3322V24H43.327V20ZM43.3218 20H43.327V24H43.3218V20ZM43.3166 20H43.3218V24H43.3166V20ZM43.3114 20H43.3166V24H43.3114V20ZM43.3062 20H43.3114V24H43.3062V20ZM43.301 20H43.3062V24H43.301V20ZM43.2958 20H43.301V24H43.2958V20ZM43.2906 20H43.2958V24H43.2906V20ZM43.2853 20H43.2906V24H43.2853V20ZM43.2801 20H43.2853V24H43.2801V20ZM43.2748 20H43.2801V24H43.2748V20ZM43.2696 20H43.2748V24H43.2696V20ZM43.2643 20H43.2696V24H43.2643V20ZM43.259 20H43.2643V24H43.259V20ZM43.2537 20H43.259V24H43.2537V20ZM43.2484 20H43.2537V24H43.2484V20ZM43.2431 20H43.2484V24H43.2431V20ZM43.2378 20H43.2431V24H43.2378V20ZM43.2325 20H43.2378V24H43.2325V20ZM43.2272 20H43.2325V24H43.2272V20ZM43.2219 20H43.2272V24H43.2219V20ZM43.2165 20H43.2219V24H43.2165V20ZM43.2112 20H43.2165V24H43.2112V20ZM43.2058 20H43.2112V24H43.2058V20ZM43.2005 20H43.2058V24H43.2005V20ZM43.1951 20H43.2005V24H43.1951V20ZM43.1897 20H43.1951V24H43.1897V20ZM43.1843 20H43.1897V24H43.1843V20ZM43.1789 20H43.1843V24H43.1789V20ZM43.1735 20H43.1789V24H43.1735V20ZM43.1681 20H43.1735V24H43.1681V20ZM43.1627 20H43.1681V24H43.1627V20ZM43.1573 20H43.1627V24H43.1573V20ZM43.1518 20H43.1573V24H43.1518V20ZM43.1464 20H43.1518V24H43.1464V20ZM43.141 20H43.1464V24H43.141V20ZM43.1355 20H43.141V24H43.1355V20ZM43.13 20H43.1355V24H43.13V20ZM43.1246 20H43.13V24H43.1246V20ZM43.1191 20H43.1246V24H43.1191V20ZM43.1136 20H43.1191V24H43.1136V20ZM43.1081 20H43.1136V24H43.1081V20ZM43.1026 20H43.1081V24H43.1026V20ZM43.0971 20H43.1026V24H43.0971V20ZM43.0916 20H43.0971V24H43.0916V20ZM43.0861 20H43.0916V24H43.0861V20ZM43.0805 20H43.0861V24H43.0805V20ZM43.075 20H43.0805V24H43.075V20ZM43.0694 20H43.075V24H43.0694V20ZM43.0639 20H43.0694V24H43.0639V20ZM43.0583 20H43.0639V24H43.0583V20ZM43.0527 20H43.0583V24H43.0527V20ZM43.0472 20H43.0527V24H43.0472V20ZM43.0416 20H43.0472V24H43.0416V20ZM43.036 20H43.0416V24H43.036V20ZM43.0304 20H43.036V24H43.0304V20ZM43.0248 20H43.0304V24H43.0248V20ZM43.0192 20H43.0248V24H43.0192V20ZM43.0135 20H43.0192V24H43.0135V20ZM43.0079 20H43.0135V24H43.0079V20ZM43.0023 20H43.0079V24H43.0023V20ZM42.9966 20H43.0023V24H42.9966V20ZM42.9909 20H42.9966V24H42.9909V20ZM42.9853 20H42.9909V24H42.9853V20ZM42.9796 20H42.9853V24H42.9796V20ZM42.9739 20H42.9796V24H42.9739V20ZM42.9682 20H42.9739V24H42.9682V20ZM42.9625 20H42.9682V24H42.9625V20ZM42.9568 20H42.9625V24H42.9568V20ZM42.9511 20H42.9568V24H42.9511V20ZM42.9454 20H42.9511V24H42.9454V20ZM42.9397 20H42.9454V24H42.9397V20ZM42.934 20H42.9397V24H42.934V20ZM42.9282 20H42.934V24H42.9282V20ZM42.9225 20H42.9282V24H42.9225V20ZM42.9167 20H42.9225V24H42.9167V20ZM42.9109 20H42.9167V24H42.9109V20ZM42.9052 20H42.9109V24H42.9052V20ZM42.8994 20H42.9052V24H42.8994V20ZM42.8936 20H42.8994V24H42.8936V20ZM42.8878 20H42.8936V24H42.8878V20ZM42.882 20H42.8878V24H42.882V20ZM42.8762 20H42.882V24H42.8762V20ZM42.8704 20H42.8762V24H42.8704V20ZM42.8645 20H42.8704V24H42.8645V20ZM42.8587 20H42.8645V24H42.8587V20ZM42.8529 20H42.8587V24H42.8529V20ZM42.847 20H42.8529V24H42.847V20ZM42.8412 20H42.847V24H42.8412V20ZM42.8353 20H42.8412V24H42.8353V20ZM42.8294 20H42.8353V24H42.8294V20ZM42.8235 20H42.8294V24H42.8235V20ZM42.8176 20H42.8235V24H42.8176V20ZM42.8117 20H42.8176V24H42.8117V20ZM42.8058 20H42.8117V24H42.8058V20ZM42.7999 20H42.8058V24H42.7999V20ZM42.794 20H42.7999V24H42.794V20ZM42.7881 20H42.794V24H42.7881V20ZM42.7821 20H42.7881V24H42.7821V20ZM42.7762 20H42.7821V24H42.7762V20ZM42.7703 20H42.7762V24H42.7703V20ZM42.7643 20H42.7703V24H42.7643V20ZM42.7583 20H42.7643V24H42.7583V20ZM42.7524 20H42.7583V24H42.7524V20ZM42.7464 20H42.7524V24H42.7464V20ZM42.7404 20H42.7464V24H42.7404V20ZM42.7344 20H42.7404V24H42.7344V20ZM42.7284 20H42.7344V24H42.7284V20ZM42.7224 20H42.7284V24H42.7224V20ZM42.7163 20H42.7224V24H42.7163V20ZM42.7103 20H42.7163V24H42.7103V20ZM42.7043 20H42.7103V24H42.7043V20ZM42.6982 20H42.7043V24H42.6982V20ZM42.6922 20H42.6982V24H42.6922V20ZM42.6861 20H42.6922V24H42.6861V20ZM42.6801 20H42.6861V24H42.6801V20ZM42.674 20H42.6801V24H42.674V20ZM42.6679 20H42.674V24H42.6679V20ZM42.6618 20H42.6679V24H42.6618V20ZM42.6557 20H42.6618V24H42.6557V20ZM42.6496 20H42.6557V24H42.6496V20ZM42.6435 20H42.6496V24H42.6435V20ZM42.6374 20H42.6435V24H42.6374V20ZM42.6312 20H42.6374V24H42.6312V20ZM42.6251 20H42.6312V24H42.6251V20ZM42.619 20H42.6251V24H42.619V20ZM42.6128 20H42.619V24H42.6128V20ZM42.6066 20H42.6128V24H42.6066V20ZM42.6005 20H42.6066V24H42.6005V20ZM42.5943 20H42.6005V24H42.5943V20ZM42.5881 20H42.5943V24H42.5881V20ZM42.5819 20H42.5881V24H42.5819V20ZM42.5757 20H42.5819V24H42.5757V20ZM42.5695 20H42.5757V24H42.5695V20ZM42.5633 20H42.5695V24H42.5633V20ZM42.5571 20H42.5633V24H42.5571V20ZM42.5509 20H42.5571V24H42.5509V20ZM42.5446 20H42.5509V24H42.5446V20ZM42.5384 20H42.5446V24H42.5384V20ZM42.5321 20H42.5384V24H42.5321V20ZM42.5259 20H42.5321V24H42.5259V20ZM42.5196 20H42.5259V24H42.5196V20ZM42.5133 20H42.5196V24H42.5133V20ZM42.507 20H42.5133V24H42.507V20ZM42.5007 20H42.507V24H42.5007V20ZM42.4944 20H42.5007V24H42.4944V20ZM42.4881 20H42.4944V24H42.4881V20ZM42.4818 20H42.4881V24H42.4818V20ZM42.4755 20H42.4818V24H42.4755V20ZM42.4692 20H42.4755V24H42.4692V20ZM42.4628 20H42.4692V24H42.4628V20ZM42.4565 20H42.4628V24H42.4565V20ZM42.4501 20H42.4565V24H42.4501V20ZM42.4438 20H42.4501V24H42.4438V20ZM42.4374 20H42.4438V24H42.4374V20ZM42.431 20H42.4374V24H42.431V20ZM42.4246 20H42.431V24H42.4246V20ZM42.4182 20H42.4246V24H42.4182V20ZM42.4118 20H42.4182V24H42.4118V20ZM42.4054 20H42.4118V24H42.4054V20ZM42.399 20H42.4054V24H42.399V20ZM42.3926 20H42.399V24H42.3926V20ZM42.3862 20H42.3926V24H42.3862V20ZM42.3797 20H42.3862V24H42.3797V20ZM42.3733 20H42.3797V24H42.3733V20ZM42.3668 20H42.3733V24H42.3668V20ZM42.3604 20H42.3668V24H42.3604V20ZM42.3539 20H42.3604V24H42.3539V20ZM42.3474 20H42.3539V24H42.3474V20ZM42.3409 20H42.3474V24H42.3409V20ZM42.3344 20H42.3409V24H42.3344V20ZM42.3279 20H42.3344V24H42.3279V20ZM42.3214 20H42.3279V24H42.3214V20ZM42.3149 20H42.3214V24H42.3149V20ZM42.3084 20H42.3149V24H42.3084V20ZM42.3019 20H42.3084V24H42.3019V20ZM42.2953 20H42.3019V24H42.2953V20ZM42.2888 20H42.2953V24H42.2888V20ZM42.2822 20H42.2888V24H42.2822V20ZM42.2757 20H42.2822V24H42.2757V20ZM42.2691 20H42.2757V24H42.2691V20ZM42.2625 20H42.2691V24H42.2625V20ZM42.2559 20H42.2625V24H42.2559V20ZM42.2493 20H42.2559V24H42.2493V20ZM42.2427 20H42.2493V24H42.2427V20ZM42.2361 20H42.2427V24H42.2361V20ZM42.2295 20H42.2361V24H42.2295V20ZM42.2229 20H42.2295V24H42.2229V20ZM42.2162 20H42.2229V24H42.2162V20ZM42.2096 20H42.2162V24H42.2096V20ZM42.203 20H42.2096V24H42.203V20ZM42.1963 20H42.203V24H42.1963V20ZM42.1896 20H42.1963V24H42.1896V20ZM42.183 20H42.1896V24H42.183V20ZM42.1763 20H42.183V24H42.1763V20ZM42.1696 20H42.1763V24H42.1696V20ZM42.1629 20H42.1696V24H42.1629V20ZM42.1562 20H42.1629V24H42.1562V20ZM42.1495 20H42.1562V24H42.1495V20ZM42.1428 20H42.1495V24H42.1428V20ZM42.136 20H42.1428V24H42.136V20ZM42.1293 20H42.136V24H42.1293V20ZM42.1226 20H42.1293V24H42.1226V20ZM42.1158 20H42.1226V24H42.1158V20ZM42.1091 20H42.1158V24H42.1091V20ZM42.1023 20H42.1091V24H42.1023V20ZM42.0955 20H42.1023V24H42.0955V20ZM42.0888 20H42.0955V24H42.0888V20ZM42.082 20H42.0888V24H42.082V20ZM42.0752 20H42.082V24H42.0752V20ZM42.0684 20H42.0752V24H42.0684V20ZM42.0616 20H42.0684V24H42.0616V20ZM42.0547 20H42.0616V24H42.0547V20ZM42.0479 20H42.0547V24H42.0479V20ZM42.0411 20H42.0479V24H42.0411V20ZM42.0342 20H42.0411V24H42.0342V20ZM42.0274 20H42.0342V24H42.0274V20ZM42.0205 20H42.0274V24H42.0205V20ZM42.0137 20H42.0205V24H42.0137V20ZM42.0068 20H42.0137V24H42.0068V20ZM41.9999 20H42.0068V24H41.9999V20ZM41.993 20H41.9999V24H41.993V20ZM41.9861 20H41.993V24H41.9861V20ZM41.9792 20H41.9861V24H41.9792V20ZM41.9723 20H41.9792V24H41.9723V20ZM41.9654 20H41.9723V24H41.9654V20ZM41.9585 20H41.9654V24H41.9585V20ZM41.9515 20H41.9585V24H41.9515V20ZM41.9446 20H41.9515V24H41.9446V20ZM41.9376 20H41.9446V24H41.9376V20ZM41.9307 20H41.9376V24H41.9307V20ZM41.9237 20H41.9307V24H41.9237V20ZM41.9167 20H41.9237V24H41.9167V20ZM41.9098 20H41.9167V24H41.9098V20ZM41.9028 20H41.9098V24H41.9028V20ZM41.8958 20H41.9028V24H41.8958V20ZM41.8888 20H41.8958V24H41.8888V20ZM41.8818 20H41.8888V24H41.8818V20ZM41.8747 20H41.8818V24H41.8747V20ZM41.8677 20H41.8747V24H41.8677V20ZM41.8607 20H41.8677V24H41.8607V20ZM41.8536 20H41.8607V24H41.8536V20ZM41.8466 20H41.8536V24H41.8466V20ZM41.8395 20H41.8466V24H41.8395V20ZM41.8325 20H41.8395V24H41.8325V20ZM41.8254 20H41.8325V24H41.8254V20ZM41.8183 20H41.8254V24H41.8183V20ZM41.8112 20H41.8183V24H41.8112V20ZM41.8041 20H41.8112V24H41.8041V20ZM41.797 20H41.8041V24H41.797V20ZM41.7899 20H41.797V24H41.7899V20ZM41.7828 20H41.7899V24H41.7828V20ZM41.7757 20H41.7828V24H41.7757V20ZM41.7685 20H41.7757V24H41.7685V20ZM41.7614 20H41.7685V24H41.7614V20ZM41.7542 20H41.7614V24H41.7542V20ZM41.7471 20H41.7542V24H41.7471V20ZM41.7399 20H41.7471V24H41.7399V20ZM41.7327 20H41.7399V24H41.7327V20ZM41.7255 20H41.7327V24H41.7255V20ZM41.7184 20H41.7255V24H41.7184V20ZM41.7112 20H41.7184V24H41.7112V20ZM41.704 20H41.7112V24H41.704V20ZM41.6967 20H41.704V24H41.6967V20ZM41.6895 20H41.6967V24H41.6895V20ZM41.6823 20H41.6895V24H41.6823V20ZM41.6751 20H41.6823V24H41.6751V20ZM41.6678 20H41.6751V24H41.6678V20ZM41.6606 20H41.6678V24H41.6606V20ZM41.6533 20H41.6606V24H41.6533V20ZM41.646 20H41.6533V24H41.646V20ZM41.6388 20H41.646V24H41.6388V20ZM41.6315 20H41.6388V24H41.6315V20ZM41.6242 20H41.6315V24H41.6242V20ZM41.6169 20H41.6242V24H41.6169V20ZM41.6096 20H41.6169V24H41.6096V20ZM41.6023 20H41.6096V24H41.6023V20ZM41.5949 20H41.6023V24H41.5949V20ZM41.5876 20H41.5949V24H41.5876V20ZM41.5803 20H41.5876V24H41.5803V20ZM41.5729 20H41.5803V24H41.5729V20ZM41.5656 20H41.5729V24H41.5656V20ZM41.5582 20H41.5656V24H41.5582V20ZM41.5509 20H41.5582V24H41.5509V20ZM41.5435 20H41.5509V24H41.5435V20ZM41.5361 20H41.5435V24H41.5361V20ZM41.5287 20H41.5361V24H41.5287V20ZM41.5213 20H41.5287V24H41.5213V20ZM41.5139 20H41.5213V24H41.5139V20ZM41.5065 20H41.5139V24H41.5065V20ZM41.4991 20H41.5065V24H41.4991V20ZM41.4916 20H41.4991V24H41.4916V20ZM41.4842 20H41.4916V24H41.4842V20ZM41.4767 20H41.4842V24H41.4767V20ZM41.4693 20H41.4767V24H41.4693V20ZM41.4618 20H41.4693V24H41.4618V20ZM41.4544 20H41.4618V24H41.4544V20ZM41.4469 20H41.4544V24H41.4469V20ZM41.4394 20H41.4469V24H41.4394V20ZM41.4319 20H41.4394V24H41.4319V20ZM41.4244 20H41.4319V24H41.4244V20ZM41.4169 20H41.4244V24H41.4169V20ZM41.4094 20H41.4169V24H41.4094V20ZM41.4019 20H41.4094V24H41.4019V20ZM41.3943 20H41.4019V24H41.3943V20ZM41.3868 20H41.3943V24H41.3868V20ZM41.3792 20H41.3868V24H41.3792V20ZM41.3717 20H41.3792V24H41.3717V20ZM41.3641 20H41.3717V24H41.3641V20ZM41.3566 20H41.3641V24H41.3566V20ZM41.349 20H41.3566V24H41.349V20ZM41.3414 20H41.349V24H41.3414V20ZM41.3338 20H41.3414V24H41.3338V20ZM41.3262 20H41.3338V24H41.3262V20ZM41.3186 20H41.3262V24H41.3186V20ZM41.311 20H41.3186V24H41.311V20ZM41.3034 20H41.311V24H41.3034V20ZM41.2957 20H41.3034V24H41.2957V20ZM41.2881 20H41.2957V24H41.2881V20ZM41.2804 20H41.2881V24H41.2804V20ZM41.2728 20H41.2804V24H41.2728V20ZM41.2651 20H41.2728V24H41.2651V20ZM41.2575 20H41.2651V24H41.2575V20ZM41.2498 20H41.2575V24H41.2498V20ZM41.2421 20H41.2498V24H41.2421V20ZM41.2344 20H41.2421V24H41.2344V20ZM41.2267 20H41.2344V24H41.2267V20ZM41.219 20H41.2267V24H41.219V20ZM41.2113 20H41.219V24H41.2113V20ZM41.2035 20H41.2113V24H41.2035V20ZM41.1958 20H41.2035V24H41.1958V20ZM41.1881 20H41.1958V24H41.1881V20ZM41.1803 20H41.1881V24H41.1803V20ZM41.1726 20H41.1803V24H41.1726V20ZM41.1648 20H41.1726V24H41.1648V20ZM41.157 20H41.1648V24H41.157V20ZM41.1493 20H41.157V24H41.1493V20ZM41.1415 20H41.1493V24H41.1415V20ZM41.1337 20H41.1415V24H41.1337V20ZM41.1259 20H41.1337V24H41.1259V20ZM41.1181 20H41.1259V24H41.1181V20ZM41.1103 20H41.1181V24H41.1103V20ZM41.1024 20H41.1103V24H41.1024V20ZM41.0946 20H41.1024V24H41.0946V20ZM41.0868 20H41.0946V24H41.0868V20ZM41.0789 20H41.0868V24H41.0789V20ZM41.0711 20H41.0789V24H41.0711V20ZM41.0632 20H41.0711V24H41.0632V20ZM41.0553 20H41.0632V24H41.0553V20ZM41.0474 20H41.0553V24H41.0474V20ZM41.0396 20H41.0474V24H41.0396V20ZM41.0317 20H41.0396V24H41.0317V20ZM41.0238 20H41.0317V24H41.0238V20ZM41.0158 20H41.0238V24H41.0158V20ZM41.0079 20H41.0158V24H41.0079V20ZM41 20H41.0079V24H41V20ZM38 23C38 21.3431 39.3431 20 41 20V24C41.5523 24 42 23.5523 42 23H38ZM41 26C39.3431 26 38 24.6569 38 23H42C42 22.4477 41.5523 22 41 22V26ZM41.0079 26H41V22H41.0079V26ZM41.0158 26H41.0079V22H41.0158V26ZM41.0238 26H41.0158V22H41.0238V26ZM41.0317 26H41.0238V22H41.0317V26ZM41.0396 26H41.0317V22H41.0396V26ZM41.0474 26H41.0396V22H41.0474V26ZM41.0553 26H41.0474V22H41.0553V26ZM41.0632 26H41.0553V22H41.0632V26ZM41.0711 26H41.0632V22H41.0711V26ZM41.0789 26H41.0711V22H41.0789V26ZM41.0868 26H41.0789V22H41.0868V26ZM41.0946 26H41.0868V22H41.0946V26ZM41.1024 26H41.0946V22H41.1024V26ZM41.1103 26H41.1024V22H41.1103V26ZM41.1181 26H41.1103V22H41.1181V26ZM41.1259 26H41.1181V22H41.1259V26ZM41.1337 26H41.1259V22H41.1337V26ZM41.1415 26H41.1337V22H41.1415V26ZM41.1493 26H41.1415V22H41.1493V26ZM41.157 26H41.1493V22H41.157V26ZM41.1648 26H41.157V22H41.1648V26ZM41.1726 26H41.1648V22H41.1726V26ZM41.1803 26H41.1726V22H41.1803V26ZM41.1881 26H41.1803V22H41.1881V26ZM41.1958 26H41.1881V22H41.1958V26ZM41.2035 26H41.1958V22H41.2035V26ZM41.2113 26H41.2035V22H41.2113V26ZM41.219 26H41.2113V22H41.219V26ZM41.2267 26H41.219V22H41.2267V26ZM41.2344 26H41.2267V22H41.2344V26ZM41.2421 26H41.2344V22H41.2421V26ZM41.2498 26H41.2421V22H41.2498V26ZM41.2575 26H41.2498V22H41.2575V26ZM41.2651 26H41.2575V22H41.2651V26ZM41.2728 26H41.2651V22H41.2728V26ZM41.2804 26H41.2728V22H41.2804V26ZM41.2881 26H41.2804V22H41.2881V26ZM41.2957 26H41.2881V22H41.2957V26ZM41.3034 26H41.2957V22H41.3034V26ZM41.311 26H41.3034V22H41.311V26ZM41.3186 26H41.311V22H41.3186V26ZM41.3262 26H41.3186V22H41.3262V26ZM41.3338 26H41.3262V22H41.3338V26ZM41.3414 26H41.3338V22H41.3414V26ZM41.349 26H41.3414V22H41.349V26ZM41.3566 26H41.349V22H41.3566V26ZM41.3641 26H41.3566V22H41.3641V26ZM41.3717 26H41.3641V22H41.3717V26ZM41.3792 26H41.3717V22H41.3792V26ZM41.3868 26H41.3792V22H41.3868V26ZM41.3943 26H41.3868V22H41.3943V26ZM41.4019 26H41.3943V22H41.4019V26ZM41.4094 26H41.4019V22H41.4094V26ZM41.4169 26H41.4094V22H41.4169V26ZM41.4244 26H41.4169V22H41.4244V26ZM41.4319 26H41.4244V22H41.4319V26ZM41.4394 26H41.4319V22H41.4394V26ZM41.4469 26H41.4394V22H41.4469V26ZM41.4544 26H41.4469V22H41.4544V26ZM41.4618 26H41.4544V22H41.4618V26ZM41.4693 26H41.4618V22H41.4693V26ZM41.4767 26H41.4693V22H41.4767V26ZM41.4842 26H41.4767V22H41.4842V26ZM41.4916 26H41.4842V22H41.4916V26ZM41.4991 26H41.4916V22H41.4991V26ZM41.5065 26H41.4991V22H41.5065V26ZM41.5139 26H41.5065V22H41.5139V26ZM41.5213 26H41.5139V22H41.5213V26ZM41.5287 26H41.5213V22H41.5287V26ZM41.5361 26H41.5287V22H41.5361V26ZM41.5435 26H41.5361V22H41.5435V26ZM41.5509 26H41.5435V22H41.5509V26ZM41.5582 26H41.5509V22H41.5582V26ZM41.5656 26H41.5582V22H41.5656V26ZM41.5729 26H41.5656V22H41.5729V26ZM41.5803 26H41.5729V22H41.5803V26ZM41.5876 26H41.5803V22H41.5876V26ZM41.5949 26H41.5876V22H41.5949V26ZM41.6023 26H41.5949V22H41.6023V26ZM41.6096 26H41.6023V22H41.6096V26ZM41.6169 26H41.6096V22H41.6169V26ZM41.6242 26H41.6169V22H41.6242V26ZM41.6315 26H41.6242V22H41.6315V26ZM41.6388 26H41.6315V22H41.6388V26ZM41.646 26H41.6388V22H41.646V26ZM41.6533 26H41.646V22H41.6533V26ZM41.6606 26H41.6533V22H41.6606V26ZM41.6678 26H41.6606V22H41.6678V26ZM41.6751 26H41.6678V22H41.6751V26ZM41.6823 26H41.6751V22H41.6823V26ZM41.6895 26H41.6823V22H41.6895V26ZM41.6967 26H41.6895V22H41.6967V26ZM41.704 26H41.6967V22H41.704V26ZM41.7112 26H41.704V22H41.7112V26ZM41.7184 26H41.7112V22H41.7184V26ZM41.7255 26H41.7184V22H41.7255V26ZM41.7327 26H41.7255V22H41.7327V26ZM41.7399 26H41.7327V22H41.7399V26ZM41.7471 26H41.7399V22H41.7471V26ZM41.7542 26H41.7471V22H41.7542V26ZM41.7614 26H41.7542V22H41.7614V26ZM41.7685 26H41.7614V22H41.7685V26ZM41.7757 26H41.7685V22H41.7757V26ZM41.7828 26H41.7757V22H41.7828V26ZM41.7899 26H41.7828V22H41.7899V26ZM41.797 26H41.7899V22H41.797V26ZM41.8041 26H41.797V22H41.8041V26ZM41.8112 26H41.8041V22H41.8112V26ZM41.8183 26H41.8112V22H41.8183V26ZM41.8254 26H41.8183V22H41.8254V26ZM41.8325 26H41.8254V22H41.8325V26ZM41.8395 26H41.8325V22H41.8395V26ZM41.8466 26H41.8395V22H41.8466V26ZM41.8536 26H41.8466V22H41.8536V26ZM41.8607 26H41.8536V22H41.8607V26ZM41.8677 26H41.8607V22H41.8677V26ZM41.8747 26H41.8677V22H41.8747V26ZM41.8818 26H41.8747V22H41.8818V26ZM41.8888 26H41.8818V22H41.8888V26ZM41.8958 26H41.8888V22H41.8958V26ZM41.9028 26H41.8958V22H41.9028V26ZM41.9098 26H41.9028V22H41.9098V26ZM41.9167 26H41.9098V22H41.9167V26ZM41.9237 26H41.9167V22H41.9237V26ZM41.9307 26H41.9237V22H41.9307V26ZM41.9376 26H41.9307V22H41.9376V26ZM41.9446 26H41.9376V22H41.9446V26ZM41.9515 26H41.9446V22H41.9515V26ZM41.9585 26H41.9515V22H41.9585V26ZM41.9654 26H41.9585V22H41.9654V26ZM41.9723 26H41.9654V22H41.9723V26ZM41.9792 26H41.9723V22H41.9792V26ZM41.9861 26H41.9792V22H41.9861V26ZM41.993 26H41.9861V22H41.993V26ZM41.9999 26H41.993V22H41.9999V26ZM42.0068 26H41.9999V22H42.0068V26ZM42.0137 26H42.0068V22H42.0137V26ZM42.0205 26H42.0137V22H42.0205V26ZM42.0274 26H42.0205V22H42.0274V26ZM42.0342 26H42.0274V22H42.0342V26ZM42.0411 26H42.0342V22H42.0411V26ZM42.0479 26H42.0411V22H42.0479V26ZM42.0547 26H42.0479V22H42.0547V26ZM42.0616 26H42.0547V22H42.0616V26ZM42.0684 26H42.0616V22H42.0684V26ZM42.0752 26H42.0684V22H42.0752V26ZM42.082 26H42.0752V22H42.082V26ZM42.0888 26H42.082V22H42.0888V26ZM42.0955 26H42.0888V22H42.0955V26ZM42.1023 26H42.0955V22H42.1023V26ZM42.1091 26H42.1023V22H42.1091V26ZM42.1158 26H42.1091V22H42.1158V26ZM42.1226 26H42.1158V22H42.1226V26ZM42.1293 26H42.1226V22H42.1293V26ZM42.136 26H42.1293V22H42.136V26ZM42.1428 26H42.136V22H42.1428V26ZM42.1495 26H42.1428V22H42.1495V26ZM42.1562 26H42.1495V22H42.1562V26ZM42.1629 26H42.1562V22H42.1629V26ZM42.1696 26H42.1629V22H42.1696V26ZM42.1763 26H42.1696V22H42.1763V26ZM42.183 26H42.1763V22H42.183V26ZM42.1896 26H42.183V22H42.1896V26ZM42.1963 26H42.1896V22H42.1963V26ZM42.203 26H42.1963V22H42.203V26ZM42.2096 26H42.203V22H42.2096V26ZM42.2162 26H42.2096V22H42.2162V26ZM42.2229 26H42.2162V22H42.2229V26ZM42.2295 26H42.2229V22H42.2295V26ZM42.2361 26H42.2295V22H42.2361V26ZM42.2427 26H42.2361V22H42.2427V26ZM42.2493 26H42.2427V22H42.2493V26ZM42.2559 26H42.2493V22H42.2559V26ZM42.2625 26H42.2559V22H42.2625V26ZM42.2691 26H42.2625V22H42.2691V26ZM42.2757 26H42.2691V22H42.2757V26ZM42.2822 26H42.2757V22H42.2822V26ZM42.2888 26H42.2822V22H42.2888V26ZM42.2953 26H42.2888V22H42.2953V26ZM42.3019 26H42.2953V22H42.3019V26ZM42.3084 26H42.3019V22H42.3084V26ZM42.3149 26H42.3084V22H42.3149V26ZM42.3214 26H42.3149V22H42.3214V26ZM42.3279 26H42.3214V22H42.3279V26ZM42.3344 26H42.3279V22H42.3344V26ZM42.3409 26H42.3344V22H42.3409V26ZM42.3474 26H42.3409V22H42.3474V26ZM42.3539 26H42.3474V22H42.3539V26ZM42.3604 26H42.3539V22H42.3604V26ZM42.3668 26H42.3604V22H42.3668V26ZM42.3733 26H42.3668V22H42.3733V26ZM42.3797 26H42.3733V22H42.3797V26ZM42.3862 26H42.3797V22H42.3862V26ZM42.3926 26H42.3862V22H42.3926V26ZM42.399 26H42.3926V22H42.399V26ZM42.4054 26H42.399V22H42.4054V26ZM42.4118 26H42.4054V22H42.4118V26ZM42.4182 26H42.4118V22H42.4182V26ZM42.4246 26H42.4182V22H42.4246V26ZM42.431 26H42.4246V22H42.431V26ZM42.4374 26H42.431V22H42.4374V26ZM42.4438 26H42.4374V22H42.4438V26ZM42.4501 26H42.4438V22H42.4501V26ZM42.4565 26H42.4501V22H42.4565V26ZM42.4628 26H42.4565V22H42.4628V26ZM42.4692 26H42.4628V22H42.4692V26ZM42.4755 26H42.4692V22H42.4755V26ZM42.4818 26H42.4755V22H42.4818V26ZM42.4881 26H42.4818V22H42.4881V26ZM42.4944 26H42.4881V22H42.4944V26ZM42.5007 26H42.4944V22H42.5007V26ZM42.507 26H42.5007V22H42.507V26ZM42.5133 26H42.507V22H42.5133V26ZM42.5196 26H42.5133V22H42.5196V26ZM42.5259 26H42.5196V22H42.5259V26ZM42.5321 26H42.5259V22H42.5321V26ZM42.5384 26H42.5321V22H42.5384V26ZM42.5446 26H42.5384V22H42.5446V26ZM42.5509 26H42.5446V22H42.5509V26ZM42.5571 26H42.5509V22H42.5571V26ZM42.5633 26H42.5571V22H42.5633V26ZM42.5695 26H42.5633V22H42.5695V26ZM42.5757 26H42.5695V22H42.5757V26ZM42.5819 26H42.5757V22H42.5819V26ZM42.5881 26H42.5819V22H42.5881V26ZM42.5943 26H42.5881V22H42.5943V26ZM42.6005 26H42.5943V22H42.6005V26ZM42.6066 26H42.6005V22H42.6066V26ZM42.6128 26H42.6066V22H42.6128V26ZM42.619 26H42.6128V22H42.619V26ZM42.6251 26H42.619V22H42.6251V26ZM42.6312 26H42.6251V22H42.6312V26ZM42.6374 26H42.6312V22H42.6374V26ZM42.6435 26H42.6374V22H42.6435V26ZM42.6496 26H42.6435V22H42.6496V26ZM42.6557 26H42.6496V22H42.6557V26ZM42.6618 26H42.6557V22H42.6618V26ZM42.6679 26H42.6618V22H42.6679V26ZM42.674 26H42.6679V22H42.674V26ZM42.6801 26H42.674V22H42.6801V26ZM42.6861 26H42.6801V22H42.6861V26ZM42.6922 26H42.6861V22H42.6922V26ZM42.6982 26H42.6922V22H42.6982V26ZM42.7043 26H42.6982V22H42.7043V26ZM42.7103 26H42.7043V22H42.7103V26ZM42.7163 26H42.7103V22H42.7163V26ZM42.7224 26H42.7163V22H42.7224V26ZM42.7284 26H42.7224V22H42.7284V26ZM42.7344 26H42.7284V22H42.7344V26ZM42.7404 26H42.7344V22H42.7404V26ZM42.7464 26H42.7404V22H42.7464V26ZM42.7524 26H42.7464V22H42.7524V26ZM42.7583 26H42.7524V22H42.7583V26ZM42.7643 26H42.7583V22H42.7643V26ZM42.7703 26H42.7643V22H42.7703V26ZM42.7762 26H42.7703V22H42.7762V26ZM42.7821 26H42.7762V22H42.7821V26ZM42.7881 26H42.7821V22H42.7881V26ZM42.794 26H42.7881V22H42.794V26ZM42.7999 26H42.794V22H42.7999V26ZM42.8058 26H42.7999V22H42.8058V26ZM42.8117 26H42.8058V22H42.8117V26ZM42.8176 26H42.8117V22H42.8176V26ZM42.8235 26H42.8176V22H42.8235V26ZM42.8294 26H42.8235V22H42.8294V26ZM42.8353 26H42.8294V22H42.8353V26ZM42.8412 26H42.8353V22H42.8412V26ZM42.847 26H42.8412V22H42.847V26ZM42.8529 26H42.847V22H42.8529V26ZM42.8587 26H42.8529V22H42.8587V26ZM42.8645 26H42.8587V22H42.8645V26ZM42.8704 26H42.8645V22H42.8704V26ZM42.8762 26H42.8704V22H42.8762V26ZM42.882 26H42.8762V22H42.882V26ZM42.8878 26H42.882V22H42.8878V26ZM42.8936 26H42.8878V22H42.8936V26ZM42.8994 26H42.8936V22H42.8994V26ZM42.9052 26H42.8994V22H42.9052V26ZM42.9109 26H42.9052V22H42.9109V26ZM42.9167 26H42.9109V22H42.9167V26ZM42.9225 26H42.9167V22H42.9225V26ZM42.9282 26H42.9225V22H42.9282V26ZM42.934 26H42.9282V22H42.934V26ZM42.9397 26H42.934V22H42.9397V26ZM42.9454 26H42.9397V22H42.9454V26ZM42.9511 26H42.9454V22H42.9511V26ZM42.9568 26H42.9511V22H42.9568V26ZM42.9625 26H42.9568V22H42.9625V26ZM42.9682 26H42.9625V22H42.9682V26ZM42.9739 26H42.9682V22H42.9739V26ZM42.9796 26H42.9739V22H42.9796V26ZM42.9853 26H42.9796V22H42.9853V26ZM42.9909 26H42.9853V22H42.9909V26ZM42.9966 26H42.9909V22H42.9966V26ZM43.0023 26H42.9966V22H43.0023V26ZM43.0079 26H43.0023V22H43.0079V26ZM43.0135 26H43.0079V22H43.0135V26ZM43.0192 26H43.0135V22H43.0192V26ZM43.0248 26H43.0192V22H43.0248V26ZM43.0304 26H43.0248V22H43.0304V26ZM43.036 26H43.0304V22H43.036V26ZM43.0416 26H43.036V22H43.0416V26ZM43.0472 26H43.0416V22H43.0472V26ZM43.0527 26H43.0472V22H43.0527V26ZM43.0583 26H43.0527V22H43.0583V26ZM43.0639 26H43.0583V22H43.0639V26ZM43.0694 26H43.0639V22H43.0694V26ZM43.075 26H43.0694V22H43.075V26ZM43.0805 26H43.075V22H43.0805V26ZM43.0861 26H43.0805V22H43.0861V26ZM43.0916 26H43.0861V22H43.0916V26ZM43.0971 26H43.0916V22H43.0971V26ZM43.1026 26H43.0971V22H43.1026V26ZM43.1081 26H43.1026V22H43.1081V26ZM43.1136 26H43.1081V22H43.1136V26ZM43.1191 26H43.1136V22H43.1191V26ZM43.1246 26H43.1191V22H43.1246V26ZM43.13 26H43.1246V22H43.13V26ZM43.1355 26H43.13V22H43.1355V26ZM43.141 26H43.1355V22H43.141V26ZM43.1464 26H43.141V22H43.1464V26ZM43.1518 26H43.1464V22H43.1518V26ZM43.1573 26H43.1518V22H43.1573V26ZM43.1627 26H43.1573V22H43.1627V26ZM43.1681 26H43.1627V22H43.1681V26ZM43.1735 26H43.1681V22H43.1735V26ZM43.1789 26H43.1735V22H43.1789V26ZM43.1843 26H43.1789V22H43.1843V26ZM43.1897 26H43.1843V22H43.1897V26ZM43.1951 26H43.1897V22H43.1951V26ZM43.2005 26H43.1951V22H43.2005V26ZM43.2058 26H43.2005V22H43.2058V26ZM43.2112 26H43.2058V22H43.2112V26ZM43.2165 26H43.2112V22H43.2165V26ZM43.2219 26H43.2165V22H43.2219V26ZM43.2272 26H43.2219V22H43.2272V26ZM43.2325 26H43.2272V22H43.2325V26ZM43.2378 26H43.2325V22H43.2378V26ZM43.2431 26H43.2378V22H43.2431V26ZM43.2484 26H43.2431V22H43.2484V26ZM43.2537 26H43.2484V22H43.2537V26ZM43.259 26H43.2537V22H43.259V26ZM43.2643 26H43.259V22H43.2643V26ZM43.2696 26H43.2643V22H43.2696V26ZM43.2748 26H43.2696V22H43.2748V26ZM43.2801 26H43.2748V22H43.2801V26ZM43.2853 26H43.2801V22H43.2853V26ZM43.2906 26H43.2853V22H43.2906V26ZM43.2958 26H43.2906V22H43.2958V26ZM43.301 26H43.2958V22H43.301V26ZM43.3062 26H43.301V22H43.3062V26ZM43.3114 26H43.3062V22H43.3114V26ZM43.3166 26H43.3114V22H43.3166V26ZM43.3218 26H43.3166V22H43.3218V26ZM43.327 26H43.3218V22H43.327V26ZM43.3322 26H43.327V22H43.3322V26ZM43.3374 26H43.3322V22H43.3374V26ZM43.3425 26H43.3374V22H43.3425V26ZM43.3477 26H43.3425V22H43.3477V26ZM43.3528 26H43.3477V22H43.3528V26ZM43.358 26H43.3528V22H43.358V26ZM43.3631 26H43.358V22H43.3631V26ZM43.3682 26H43.3631V22H43.3682V26ZM43.3733 26H43.3682V22H43.3733V26ZM43.3784 26H43.3733V22H43.3784V26ZM43.3835 26H43.3784V22H43.3835V26ZM43.3886 26H43.3835V22H43.3886V26ZM43.3937 26H43.3886V22H43.3937V26ZM43.3988 26H43.3937V22H43.3988V26ZM43.4039 26H43.3988V22H43.4039V26ZM43.4089 26H43.4039V22H43.4089V26ZM43.414 26H43.4089V22H43.414V26ZM43.419 26H43.414V22H43.419V26ZM43.4241 26H43.419V22H43.4241V26ZM43.4291 26H43.4241V22H43.4291V26ZM43.4341 26H43.4291V22H43.4341V26ZM43.4391 26H43.4341V22H43.4391V26ZM43.4441 26H43.4391V22H43.4441V26ZM43.4491 26H43.4441V22H43.4491V26ZM43.4541 26H43.4491V22H43.4541V26ZM43.4591 26H43.4541V22H43.4591V26ZM43.4641 26H43.4591V22H43.4641V26ZM43.469 26H43.4641V22H43.469V26ZM43.474 26H43.469V22H43.474V26ZM43.479 26H43.474V22H43.479V26ZM43.4839 26H43.479V22H43.4839V26ZM43.4888 26H43.4839V22H43.4888V26ZM43.4938 26H43.4888V22H43.4938V26ZM43.4987 26H43.4938V22H43.4987V26ZM43.5036 26H43.4987V22H43.5036V26ZM43.5085 26H43.5036V22H43.5085V26ZM43.5134 26H43.5085V22H43.5134V26ZM43.5183 26H43.5134V22H43.5183V26ZM43.5232 26H43.5183V22H43.5232V26ZM43.528 26H43.5232V22H43.528V26ZM43.5329 26H43.528V22H43.5329V26ZM43.5378 26H43.5329V22H43.5378V26ZM43.5426 26H43.5378V22H43.5426V26ZM43.5475 26H43.5426V22H43.5475V26ZM43.5523 26H43.5475V22H43.5523V26ZM43.5571 26H43.5523V22H43.5571V26ZM43.562 26H43.5571V22H43.562V26ZM43.5668 26H43.562V22H43.5668V26ZM43.5716 26H43.5668V22H43.5716V26ZM43.5764 26H43.5716V22H43.5764V26ZM43.5812 26H43.5764V22H43.5812V26ZM43.5859 26H43.5812V22H43.5859V26ZM43.5907 26H43.5859V22H43.5907V26ZM43.5955 26H43.5907V22H43.5955V26ZM43.6002 26H43.5955V22H43.6002V26ZM43.605 26H43.6002V22H43.605V26ZM43.6097 26H43.605V22H43.6097V26ZM43.6145 26H43.6097V22H43.6145V26ZM43.6192 26H43.6145V22H43.6192V26ZM43.6239 26H43.6192V22H43.6239V26ZM43.6286 26H43.6239V22H43.6286V26ZM43.6333 26H43.6286V22H43.6333V26ZM43.638 26H43.6333V22H43.638V26ZM43.6427 26H43.638V22H43.6427V26ZM43.6474 26H43.6427V22H43.6474V26ZM43.6521 26H43.6474V22H43.6521V26ZM43.6567 26H43.6521V22H43.6567V26ZM43.6614 26H43.6567V22H43.6614V26ZM43.666 26H43.6614V22H43.666V26ZM43.6707 26H43.666V22H43.6707V26ZM43.6753 26H43.6707V22H43.6753V26ZM43.6799 26H43.6753V22H43.6799V26ZM43.6846 26H43.6799V22H43.6846V26ZM43.6892 26H43.6846V22H43.6892V26ZM43.6938 26H43.6892V22H43.6938V26ZM43.6984 26H43.6938V22H43.6984V26ZM43.703 26H43.6984V22H43.703V26ZM43.7075 26H43.703V22H43.7075V26ZM43.7121 26H43.7075V22H43.7121V26ZM43.7167 26H43.7121V22H43.7167V26ZM43.7212 26H43.7167V22H43.7212V26ZM43.7258 26H43.7212V22H43.7258V26ZM43.7303 26H43.7258V22H43.7303V26ZM43.7349 26H43.7303V22H43.7349V26ZM43.7394 26H43.7349V22H43.7394V26ZM43.7439 26H43.7394V22H43.7439V26ZM43.7484 26H43.7439V22H43.7484V26ZM43.7529 26H43.7484V22H43.7529V26ZM43.7574 26H43.7529V22H43.7574V26ZM43.7619 26H43.7574V22H43.7619V26ZM43.7664 26H43.7619V22H43.7664V26ZM43.7709 26H43.7664V22H43.7709V26ZM43.7753 26H43.7709V22H43.7753V26ZM43.7798 26H43.7753V22H43.7798V26ZM43.7842 26H43.7798V22H43.7842V26ZM43.7887 26H43.7842V22H43.7887V26ZM43.7931 26H43.7887V22H43.7931V26ZM43.7975 26H43.7931V22H43.7975V26ZM43.8019 26H43.7975V22H43.8019V26ZM43.8064 26H43.8019V22H43.8064V26ZM43.8108 26H43.8064V22H43.8108V26ZM43.8151 26H43.8108V22H43.8151V26ZM43.8195 26H43.8151V22H43.8195V26ZM43.8239 26H43.8195V22H43.8239V26ZM43.8283 26H43.8239V22H43.8283V26ZM43.8326 26H43.8283V22H43.8326V26ZM43.837 26H43.8326V22H43.837V26ZM43.8414 26H43.837V22H43.8414V26ZM43.8457 26H43.8414V22H43.8457V26ZM43.85 26H43.8457V22H43.85V26ZM43.8544 26H43.85V22H43.8544V26ZM43.8587 26H43.8544V22H43.8587V26ZM43.863 26H43.8587V22H43.863V26ZM43.8673 26H43.863V22H43.8673V26ZM43.8716 26H43.8673V22H43.8716V26ZM43.8759 26H43.8716V22H43.8759V26ZM43.8801 26H43.8759V22H43.8801V26ZM43.8844 26H43.8801V22H43.8844V26ZM43.8887 26H43.8844V22H43.8887V26ZM43.8929 26H43.8887V22H43.8929V26ZM43.8972 26H43.8929V22H43.8972V26ZM43.9014 26H43.8972V22H43.9014V26ZM43.9056 26H43.9014V22H43.9056V26ZM43.9099 26H43.9056V22H43.9099V26ZM43.9141 26H43.9099V22H43.9141V26ZM43.9183 26H43.9141V22H43.9183V26ZM43.9225 26H43.9183V22H43.9225V26ZM43.9267 26H43.9225V22H43.9267V26ZM43.9309 26H43.9267V22H43.9309V26ZM43.9351 26H43.9309V22H43.9351V26ZM43.9392 26H43.9351V22H43.9392V26ZM43.9434 26H43.9392V22H43.9434V26ZM43.9475 26H43.9434V22H43.9475V26ZM43.9517 26H43.9475V22H43.9517V26ZM43.9558 26H43.9517V22H43.9558V26ZM43.96 26H43.9558V22H43.96V26ZM43.9641 26H43.96V22H43.9641V26ZM43.9682 26H43.9641V22H43.9682V26ZM43.9723 26H43.9682V22H43.9723V26ZM43.9764 26H43.9723V22H43.9764V26ZM43.9805 26H43.9764V22H43.9805V26ZM43.9846 26H43.9805V22H43.9846V26ZM43.9887 26H43.9846V22H43.9887V26ZM43.9927 26H43.9887V22H43.9927V26ZM43.9968 26H43.9927V22H43.9968V26ZM44.0008 26H43.9968V22H44.0008V26ZM44.0049 26H44.0008V22H44.0049V26ZM44.0089 26H44.0049V22H44.0089V26ZM44.013 26H44.0089V22H44.013V26ZM44.017 26H44.013V22H44.017V26ZM44.021 26H44.017V22H44.021V26ZM44.025 26H44.021V22H44.025V26ZM44.029 26H44.025V22H44.029V26ZM44.033 26H44.029V22H44.033V26ZM44.037 26H44.033V22H44.037V26ZM44.041 26H44.037V22H44.041V26ZM44.0449 26H44.041V22H44.0449V26ZM47.0449 23C47.0449 24.6569 45.7018 26 44.0449 26V22C43.4926 22 43.0449 22.4477 43.0449 23H47.0449Z" fill="#333333" mask="url(#path-3-inside-1_0_2005)"/>
<path d="M13 15H17" stroke="#333333" stroke-width="2" stroke-linecap="round" stroke-linejoin="round"/>
<path d="M21 15H30" stroke="#333333" stroke-width="2" stroke-linecap="round" stroke-linejoin="round"/>
<path d="M41 29H47" stroke="#333333" stroke-width="2" stroke-linecap="round" stroke-linejoin="round"/>
<path d="M39 34H47" stroke="#333333" stroke-width="2" stroke-linecap="round" stroke-linejoin="round"/>
<path d="M26 20H30" stroke="#333333" stroke-width="2" stroke-linecap="round" stroke-linejoin="round"/>
<path d="M13 20H22" stroke="#333333" stroke-width="2" stroke-linecap="round" stroke-linejoin="round"/>
<path d="M29 39H42.5" stroke="#333333" stroke-width="2" stroke-linecap="round" stroke-linejoin="round"/>
<path d="M13 25H26" stroke="#333333" stroke-width="2" stroke-linecap="round" stroke-linejoin="round"/>
</svg>
