<svg width="80" height="80" xmlns="http://www.w3.org/2000/svg" fill="none" viewBox="0 0 80 80">
  <path fill="#59CBE8" fill-rule="evenodd" d="M49.486 47.7a1.333 1.333 0 0 0 .565 2.262l7.333 1.965-3.785 9.309c-.537 1.323 1.1 2.451 2.145 1.477l12.22-11.393a1.333 1.333 0 0 0-.564-2.263l-7.333-1.965 3.792-9.332c.538-1.324-1.1-2.451-2.145-1.477L49.486 47.7Z" clip-rule="evenodd"/>
  <path fill="#333" fill-rule="evenodd" d="M60.803 35.31c2.088-1.95 5.366.306 4.29 2.953l-3.224 7.933 5.874 1.574c2.023.542 2.66 3.098 1.129 4.526L56.652 63.69c-2.09 1.948-5.365-.308-4.29-2.954l3.217-7.91-5.875-1.574c-2.022-.542-2.66-3.097-1.13-4.525L60.803 35.31Zm1.82 1.949L50.394 48.675l8.793 2.356-4.354 10.708 12.22-11.393-8.791-2.356 4.36-10.731Z" clip-rule="evenodd"/>
  <path fill="#59CBE8" fill-rule="evenodd" d="m58.38 18.665-19.799 19.8-7.004 7.003-11.38 11.381s-1.99-8.244-2.404-12.516c-.413-4.272 0-12.333 0-12.333L31.51 21.494l26.87-2.829Z" clip-rule="evenodd"/>
  <path fill="#333" fill-rule="evenodd" d="M61.444 17.015c.252.252.393.594.39.95-.022 4.168-.201 8.049-.537 11.64a1.333 1.333 0 0 1-2.655-.248c.291-3.114.463-6.465.513-10.053-18.155.255-30.006 3.607-36.052 9.653-5.942 5.942-6.64 14.935-1.186 27.585 10.752 4.634 18.857 4.81 24.654 1.165a1.333 1.333 0 1 1 1.42 2.257c-6.999 4.401-16.325 3.784-27.624-1.188a1.333 1.333 0 0 1-.684-.684c-5.847-13.287-5.648-23.838 1.535-31.02 7.004-7.005 20.275-10.343 39.276-10.448.356-.002.699.139.95.39Z" clip-rule="evenodd"/>
  <path fill="#333" fill-rule="evenodd" d="M60.03 18.43c.521.52.521 1.364 0 1.885L14.777 65.57a1.333 1.333 0 1 1-1.886-1.886l45.255-45.255c.52-.52 1.365-.52 1.886 0Z" clip-rule="evenodd"/>
  <path fill="#333" fill-rule="evenodd" d="M24.78 26.575a1.333 1.333 0 0 1 1.648.915l5.657 19.8a1.333 1.333 0 1 1-2.564.732l-5.657-19.799a1.333 1.333 0 0 1 .916-1.648Z" clip-rule="evenodd"/>
  <path fill="#333" fill-rule="evenodd" d="M40.382 50.393a1.333 1.333 0 0 1-1.649.916l-8.297-2.371a1.333 1.333 0 1 1 .733-2.564l8.297 2.37c.708.203 1.118.94.916 1.649Zm.423-30.936a1.333 1.333 0 0 1 1.227 1.431l-1.414 18.385a1.333 1.333 0 0 1-2.659-.204l1.415-18.385a1.333 1.333 0 0 1 1.431-1.227Z" clip-rule="evenodd"/>
  <path fill="#333" fill-rule="evenodd" d="M51.174 38.257a1.333 1.333 0 0 1-1.227 1.432l-10.556.812a1.333 1.333 0 1 1-.205-2.659l10.557-.812a1.333 1.333 0 0 1 1.431 1.227Z" clip-rule="evenodd"/>
</svg>
