<svg width="80" height="80" viewBox="0 0 80 80" fill="none" xmlns="http://www.w3.org/2000/svg" aria-hidden="true">
<rect width="80" height="80" fill="white"/>
<path fill-rule="evenodd" clip-rule="evenodd" d="M21.3333 73.3333V62.6667H12C9.79086 62.6667 8 60.8758 8 58.6667L8 24C8 21.7909 9.79086 20 12 20H58.6667C60.8758 20 62.6667 21.7909 62.6667 24V58.6667C62.6667 60.8758 60.8758 62.6667 58.6667 62.6667H33.3333L21.3333 73.3333Z" fill="white"/>
<path fill-rule="evenodd" clip-rule="evenodd" d="M21.3333 73.3333V62.6667H12C9.79086 62.6667 8 60.8758 8 58.6667L8 21.3468C8 20.603 8.60298 20 9.3468 20C27.0125 20 41.3333 34.3209 41.3333 51.9865V62.6667H33.3333L21.3333 73.3333Z" fill="#59CBE8"/>
<path d="M62.6667 40C62.6667 40 62.6667 48 62.6667 49.3333C62.6667 52 62.6667 57.3333 62.6667 57.3333C62.6667 60.2789 60.2789 62.6667 57.3333 62.6667H33.3333L21.3333 73.3333V62.6667H13.3333C10.3878 62.6667 8 60.2789 8 57.3333L8 25.3333C8 22.3878 10.3878 20 13.3333 20L37.3333 20" stroke="#333333" stroke-width="2" stroke-linecap="round" stroke-linejoin="round"/>
<path d="M34.667 40.0026H37.3337" stroke="#333333" stroke-width="2" stroke-linecap="round" stroke-linejoin="round"/>
<path d="M44 40.0026H45.3333" stroke="#333333" stroke-width="2" stroke-linecap="round" stroke-linejoin="round"/>
<path d="M49.333 46.6693H55.9997" stroke="#333333" stroke-width="2" stroke-linecap="round" stroke-linejoin="round"/>
<path d="M34.667 46.6693H44.0003" stroke="#333333" stroke-width="2" stroke-linecap="round" stroke-linejoin="round"/>
<path d="M34.667 53.3333H49.3337" stroke="#333333" stroke-width="2" stroke-linecap="round" stroke-linejoin="round"/>
<mask id="path-9-inside-1_624_321573" fill="white">
<path fill-rule="evenodd" clip-rule="evenodd" d="M35 69.3359C35 68.7837 35.4477 68.3359 36 68.3359H61.3333C61.8856 68.3359 62.3333 68.7837 62.3333 69.3359C62.3333 69.8882 61.8856 70.3359 61.3333 70.3359H36C35.4477 70.3359 35 69.8882 35 69.3359ZM65.6667 69.3359C65.6667 68.7837 66.1144 68.3359 66.6667 68.3359H69.3333C69.8856 68.3359 70.3333 68.7837 70.3333 69.3359C70.3333 69.8882 69.8856 70.3359 69.3333 70.3359H66.6667C66.1144 70.3359 65.6667 69.8882 65.6667 69.3359Z"/>
</mask>
<path d="M36 66.3359C34.3431 66.3359 33 67.6791 33 69.3359H37C37 69.8882 36.5523 70.3359 36 70.3359V66.3359ZM61.3333 66.3359H36V70.3359H61.3333V66.3359ZM64.3333 69.3359C64.3333 67.6791 62.9902 66.3359 61.3333 66.3359V70.3359C60.781 70.3359 60.3333 69.8882 60.3333 69.3359H64.3333ZM61.3333 72.3359C62.9902 72.3359 64.3333 70.9928 64.3333 69.3359H60.3333C60.3333 68.7837 60.781 68.3359 61.3333 68.3359V72.3359ZM36 72.3359H61.3333V68.3359H36V72.3359ZM33 69.3359C33 70.9928 34.3431 72.3359 36 72.3359V68.3359C36.5523 68.3359 37 68.7837 37 69.3359H33ZM66.6667 66.3359C65.0098 66.3359 63.6667 67.6791 63.6667 69.3359H67.6667C67.6667 69.8882 67.2189 70.3359 66.6667 70.3359V66.3359ZM69.3333 66.3359H66.6667V70.3359H69.3333V66.3359ZM72.3333 69.3359C72.3333 67.6791 70.9902 66.3359 69.3333 66.3359V70.3359C68.7811 70.3359 68.3333 69.8882 68.3333 69.3359H72.3333ZM69.3333 72.3359C70.9902 72.3359 72.3333 70.9928 72.3333 69.3359H68.3333C68.3333 68.7837 68.7811 68.3359 69.3333 68.3359V72.3359ZM66.6667 72.3359H69.3333V68.3359H66.6667V72.3359ZM63.6667 69.3359C63.6667 70.9928 65.0098 72.3359 66.6667 72.3359V68.3359C67.2189 68.3359 67.6667 68.7837 67.6667 69.3359H63.6667Z" fill="#333333" mask="url(#path-9-inside-1_624_321573)"/>
<rect x="13.333" y="25.3359" width="14.6667" height="18.6667" rx="1" fill="white" stroke="#333333" stroke-width="2" stroke-linecap="round" stroke-linejoin="round"/>
<ellipse cx="57.3333" cy="19.9974" rx="13.3333" ry="13.3333" fill="white" stroke="#333333" stroke-width="2" stroke-linecap="round" stroke-linejoin="round"/>
<ellipse cx="57.3337" cy="19.9974" rx="6.66667" ry="13.3333" fill="white" stroke="#333333" stroke-width="2" stroke-linecap="round" stroke-linejoin="round"/>
<path d="M57.3333 6.66406V33.3307" stroke="#333333" stroke-width="2" stroke-linecap="round"/>
<path d="M70.6667 19.9974H44" stroke="#333333" stroke-width="2" stroke-linecap="round"/>
</svg>
