<svg width="80" height="80" viewBox="0 0 80 80" fill="none" xmlns="http://www.w3.org/2000/svg" aria-hidden="true">
<rect x="-4.31201" y="54.1406" width="82.6667" height="42.6667" rx="15.5" transform="rotate(-45 -4.31201 54.1406)" fill="#59CBE8"/>
<path d="M13.3333 28.0026C13.3333 26.5298 14.5272 25.3359 16 25.3359H64C65.4727 25.3359 66.6666 26.5298 66.6666 28.0026V52.0026C66.6666 53.4754 65.4727 54.6693 64 54.6693H16C14.5272 54.6693 13.3333 53.4754 13.3333 52.0026V28.0026Z" fill="white"/>
<path fill-rule="evenodd" clip-rule="evenodd" d="M12 28C12 25.7909 13.7909 24 16 24H64C66.2091 24 68 25.7909 68 28V52C68 54.2091 66.2091 56 64 56H16C13.7909 56 12 54.2091 12 52V28ZM16 26.6667C15.2636 26.6667 14.6667 27.2636 14.6667 28V52C14.6667 52.7364 15.2636 53.3333 16 53.3333H64C64.7364 53.3333 65.3333 52.7364 65.3333 52V28C65.3333 27.2636 64.7364 26.6667 64 26.6667H16Z" fill="#333333"/>
<path fill-rule="evenodd" clip-rule="evenodd" d="M20 39.9974C20 39.261 20.597 38.6641 21.3333 38.6641H25.3333C26.0697 38.6641 26.6667 39.261 26.6667 39.9974C26.6667 40.7338 26.0697 41.3307 25.3333 41.3307H21.3333C20.597 41.3307 20 40.7338 20 39.9974Z" fill="#333333"/>
<path fill-rule="evenodd" clip-rule="evenodd" d="M53.3333 39.9974C53.3333 39.261 53.9303 38.6641 54.6666 38.6641H58.6666C59.403 38.6641 60 39.261 60 39.9974C60 40.7338 59.403 41.3307 58.6666 41.3307H54.6666C53.9303 41.3307 53.3333 40.7338 53.3333 39.9974Z" fill="#333333"/>
<circle cx="40" cy="39.9974" r="5.33333" fill="#59CBE8"/>
<path fill-rule="evenodd" clip-rule="evenodd" d="M38.6667 34.6693C38.6667 33.9329 39.2636 33.3359 40 33.3359C43.6819 33.3359 46.6667 36.3207 46.6667 40.0026C46.6667 43.6845 43.6819 46.6693 40 46.6693C39.2636 46.6693 38.6667 46.0723 38.6667 45.3359C38.6667 44.5996 39.2636 44.0026 40 44.0026C42.2092 44.0026 44 42.2117 44 40.0026C44 37.7935 42.2092 36.0026 40 36.0026C39.2636 36.0026 38.6667 35.4057 38.6667 34.6693Z" fill="#333333"/>
<path fill-rule="evenodd" clip-rule="evenodd" d="M62.6667 67.9974C62.6667 67.261 63.2636 66.6641 64 66.6641H66.6667C67.4031 66.6641 68 67.261 68 67.9974C68 68.7338 67.4031 69.3307 66.6667 69.3307H64C63.2636 69.3307 62.6667 68.7338 62.6667 67.9974Z" fill="#333333"/>
<path fill-rule="evenodd" clip-rule="evenodd" d="M12 11.9974C12 11.261 12.597 10.6641 13.3333 10.6641H16C16.7364 10.6641 17.3333 11.261 17.3333 11.9974C17.3333 12.7338 16.7364 13.3307 16 13.3307H13.3333C12.597 13.3307 12 12.7338 12 11.9974Z" fill="#333333"/>
<path fill-rule="evenodd" clip-rule="evenodd" d="M48.9428 5.72646C48.4221 5.20576 47.5779 5.20576 47.0572 5.72646C46.5365 6.24716 46.5365 7.09138 47.0572 7.61208L50.1144 10.6693H22.6666C21.9303 10.6693 21.3333 11.2662 21.3333 12.0026C21.3333 12.739 21.9303 13.3359 22.6666 13.3359H50.1144L47.0572 16.3931C46.5365 16.9138 46.5365 17.758 47.0572 18.2787C47.5779 18.7994 48.4221 18.7994 48.9428 18.2787L54.2761 12.9454C54.7968 12.4247 54.7968 11.5805 54.2761 11.0598L48.9428 5.72646Z" fill="#333333"/>
<path fill-rule="evenodd" clip-rule="evenodd" d="M31.0572 61.7265C31.5779 61.2058 32.4221 61.2058 32.9428 61.7265C33.4635 62.2472 33.4635 63.0914 32.9428 63.6121L29.8856 66.6693H57.3333C58.0697 66.6693 58.6666 67.2662 58.6666 68.0026C58.6666 68.739 58.0697 69.3359 57.3333 69.3359H29.8856L32.9428 72.3931C33.4635 72.9138 33.4635 73.758 32.9428 74.2787C32.4221 74.7994 31.5779 74.7994 31.0572 74.2787L25.7238 68.9454C25.2031 68.4247 25.2031 67.5805 25.7238 67.0598L31.0572 61.7265Z" fill="#333333"/>
</svg>
