<svg width="80" height="80" viewBox="0 0 80 80" fill="none" xmlns="http://www.w3.org/2000/svg" aria-hidden="true">
<rect width="80" height="80" fill="white"/>
<path fill-rule="evenodd" clip-rule="evenodd" d="M12 54.6641L12 33.3307H68V54.6641L12 54.6641Z" fill="#59CBE8"/>
<path fill-rule="evenodd" clip-rule="evenodd" d="M14.667 10.6641C12.4579 10.6641 10.667 12.4549 10.667 14.6641L10.667 33.3307H69.3337V14.6641C69.3337 12.4549 67.5428 10.6641 65.3337 10.6641H14.667Z" fill="white"/>
<path d="M13.333 56.3359C11.6762 56.3359 10.333 54.9928 10.333 53.3359L10.333 10.3359L69.6663 10.3359V53.3359C69.6663 54.9928 68.3232 56.3359 66.6663 56.3359H13.333Z" stroke="#333333" stroke-width="2"/>
<rect x="7.33366" y="10.0026" width="65.3333" height="1.33333" rx="0.666667" fill="white" stroke="#333333" stroke-width="1.33333" stroke-linecap="round" stroke-linejoin="round"/>
<path d="M39.9997 57.3359V61.3359" stroke="#333333" stroke-width="2" stroke-linecap="round" stroke-linejoin="round"/>
<path d="M31.333 56L25.9997 70.6667" stroke="#333333" stroke-width="2" stroke-linecap="round" stroke-linejoin="round"/>
<path d="M48.0003 56L53.3337 70.6667" stroke="#333333" stroke-width="2" stroke-linecap="round" stroke-linejoin="round"/>
<circle cx="39.9997" cy="64.0026" r="2.66667" fill="white" stroke="#333333" stroke-width="2" stroke-linecap="round" stroke-linejoin="round"/>
<path d="M18.6667 15.9974H16" stroke="#333333" stroke-width="2" stroke-linecap="round"/>
<path d="M23.9997 33.3333H21.333" stroke="#333333" stroke-width="2" stroke-linecap="round"/>
<path d="M55.9997 33.3333H53.333" stroke="#333333" stroke-width="2" stroke-linecap="round"/>
<path d="M25.9653 40.6651L23.6559 41.9985" stroke="#333333" stroke-width="2" stroke-linecap="round"/>
<path d="M53.6782 24.6651L51.3688 25.9985" stroke="#333333" stroke-width="2" stroke-linecap="round"/>
<path d="M47.3337 18.326L46.0004 20.6354" stroke="#333333" stroke-width="2" stroke-linecap="round"/>
<path d="M38.6663 15.9974V18.6641" stroke="#333333" stroke-width="2" stroke-linecap="round"/>
<path d="M30.0001 18.3208L31.3334 20.6302" stroke="#333333" stroke-width="2" stroke-linecap="round"/>
<path d="M51.368 40.6682L53.6774 42.0015" stroke="#333333" stroke-width="2" stroke-linecap="round"/>
<path d="M23.6551 24.6682L25.9645 26.0015" stroke="#333333" stroke-width="2" stroke-linecap="round"/>
<path d="M39.9997 46.6693H37.333" stroke="#333333" stroke-width="2" stroke-linecap="round"/>
<path d="M39.9997 50.6693H37.333" stroke="#333333" stroke-width="2" stroke-linecap="round"/>
<circle cx="38.6663" cy="33.3333" r="9.33333" fill="white" stroke="#333333" stroke-width="2" stroke-linecap="round" stroke-linejoin="round"/>
<path d="M38.6663 37.3359V42.6693" stroke="#333333" stroke-width="2" stroke-linecap="round"/>
<path d="M39.9997 35.9974H37.333" stroke="#333333" stroke-width="2" stroke-linecap="round"/>
</svg>
