<svg width="80" height="80" viewBox="0 0 80 80" fill="none" xmlns="http://www.w3.org/2000/svg" aria-hidden="true">
<rect width="80" height="80" fill="white"/>
<path fill-rule="evenodd" clip-rule="evenodd" d="M45.3333 17.3359L28 24.0026V65.3359L45.3333 58.6693V17.3359Z" fill="#59CBE8"/>
<path fill-rule="evenodd" clip-rule="evenodd" d="M10.667 17.3359L28.0003 24.0026V65.3359L10.667 58.6693V17.3359Z" stroke="#333333" stroke-width="2" stroke-linecap="round" stroke-linejoin="round"/>
<path d="M62.6663 37.3359V65.3359L45.333 58.6693V17.3359L50.6818 19.3932" stroke="#333333" stroke-width="2" stroke-linecap="round" stroke-linejoin="round"/>
<path fill-rule="evenodd" clip-rule="evenodd" d="M45.333 17.3359L27.9997 24.0026V65.3359L45.333 58.6693V17.3359Z" stroke="#333333" stroke-width="2" stroke-linecap="round" stroke-linejoin="round"/>
<path fill-rule="evenodd" clip-rule="evenodd" d="M67.7373 24.3309C68.7325 23.1663 69.3333 21.6546 69.3333 20.0026C69.3333 16.3207 66.3486 13.3359 62.6667 13.3359C58.9848 13.3359 56 16.3207 56 20.0026C56 21.6546 56.6009 23.1663 57.596 24.3309L62.6667 30.6693L67.7373 24.3309Z" fill="#59CBE8"/>
<path d="M67.7373 24.3309L66.9771 23.6813C66.9701 23.6895 66.9632 23.6978 66.9565 23.7062L67.7373 24.3309ZM57.596 24.3309L58.3769 23.7062C58.3701 23.6978 58.3633 23.6895 58.3563 23.6813L57.596 24.3309ZM62.6667 30.6693L61.8858 31.294C62.0756 31.5312 62.3629 31.6693 62.6667 31.6693C62.9705 31.6693 63.2578 31.5312 63.4475 31.294L62.6667 30.6693ZM68.3333 20.0026C68.3333 21.4076 67.8233 22.6909 66.9771 23.6813L68.4976 24.9805C69.6416 23.6416 70.3333 21.9016 70.3333 20.0026H68.3333ZM62.6667 14.3359C65.7963 14.3359 68.3333 16.873 68.3333 20.0026H70.3333C70.3333 15.7684 66.9009 12.3359 62.6667 12.3359V14.3359ZM57 20.0026C57 16.873 59.5371 14.3359 62.6667 14.3359V12.3359C58.4325 12.3359 55 15.7684 55 20.0026H57ZM58.3563 23.6813C57.51 22.6909 57 21.4076 57 20.0026H55C55 21.9016 55.6917 23.6416 56.8357 24.9805L58.3563 23.6813ZM63.4475 30.0446L58.3769 23.7062L56.8151 24.9556L61.8858 31.294L63.4475 30.0446ZM66.9565 23.7062L61.8858 30.0446L63.4475 31.294L68.5182 24.9556L66.9565 23.7062Z" fill="#333333"/>
<path d="M67.7373 24.3309L66.9771 23.6813C66.9701 23.6895 66.9632 23.6978 66.9565 23.7062L67.7373 24.3309ZM57.596 24.3309L58.3769 23.7062C58.3701 23.6978 58.3633 23.6895 58.3563 23.6813L57.596 24.3309ZM62.6667 30.6693L61.8858 31.294C62.0756 31.5312 62.3629 31.6693 62.6667 31.6693C62.9705 31.6693 63.2578 31.5312 63.4475 31.294L62.6667 30.6693ZM68.3333 20.0026C68.3333 21.4076 67.8233 22.6909 66.9771 23.6813L68.4976 24.9805C69.6416 23.6416 70.3333 21.9016 70.3333 20.0026H68.3333ZM62.6667 14.3359C65.7963 14.3359 68.3333 16.873 68.3333 20.0026H70.3333C70.3333 15.7684 66.9009 12.3359 62.6667 12.3359V14.3359ZM57 20.0026C57 16.873 59.5371 14.3359 62.6667 14.3359V12.3359C58.4325 12.3359 55 15.7684 55 20.0026H57ZM58.3563 23.6813C57.51 22.6909 57 21.4076 57 20.0026H55C55 21.9016 55.6917 23.6416 56.8357 24.9805L58.3563 23.6813ZM63.4475 30.0446L58.3769 23.7062L56.8151 24.9556L61.8858 31.294L63.4475 30.0446ZM66.9565 23.7062L61.8858 30.0446L63.4475 31.294L68.5182 24.9556L66.9565 23.7062Z" fill="#333333"/>
<path d="M15.9997 48V54.6667" stroke="#333333" stroke-width="2" stroke-linecap="round" stroke-linejoin="round"/>
<path d="M15.9997 42.6693V41.3359" stroke="#333333" stroke-width="2" stroke-linecap="round" stroke-linejoin="round"/>
<path d="M45.3333 17.3359L28 24.0026" stroke="#333333" stroke-width="2" stroke-linecap="round" stroke-linejoin="round"/>
</svg>
