<svg width="80" height="80" xmlns="http://www.w3.org/2000/svg" fill="none" viewBox="0 0 80 80">
  <path fill="#59CBE8" fill-rule="evenodd" d="M60 64a6.67 6.67 0 0 0 6.667 6.667A6.67 6.67 0 0 0 73.333 64" clip-rule="evenodd"/>
  <path fill="#333" fill-rule="evenodd" d="M66.668 72c-4.416 0-8-3.584-8-8h2.667a5.336 5.336 0 0 0 5.333 5.333A5.336 5.336 0 0 0 72.001 64h2.667c0 4.416-3.584 8-8 8Z" clip-rule="evenodd"/>
  <path fill="#59CBE8" fill-rule="evenodd" d="M6.668 64a6.67 6.67 0 0 0 6.667 6.667A6.67 6.67 0 0 0 20 64" clip-rule="evenodd"/>
  <path fill="#333" fill-rule="evenodd" d="M13.334 72c-4.416 0-8-3.584-8-8h2.667a5.336 5.336 0 0 0 5.333 5.333A5.336 5.336 0 0 0 18.667 64h2.667c0 4.416-3.584 8-8 8Z" clip-rule="evenodd"/>
  <path fill="#59CBE8" fill-rule="evenodd" d="M46.668 64a6.67 6.67 0 0 0 6.667 6.667A6.67 6.67 0 0 0 60 64" clip-rule="evenodd"/>
  <path fill="#333" fill-rule="evenodd" d="M53.334 72c-4.416 0-8-3.584-8-8h2.667a5.336 5.336 0 0 0 5.333 5.333A5.336 5.336 0 0 0 58.667 64h2.667c0 4.416-3.584 8-8 8Z" clip-rule="evenodd"/>
  <path fill="#59CBE8" fill-rule="evenodd" d="M20 64a6.67 6.67 0 0 0 6.667 6.667A6.67 6.67 0 0 0 33.333 64" clip-rule="evenodd"/>
  <path fill="#333" fill-rule="evenodd" d="M26.668 72c-4.416 0-8-3.584-8-8h2.667a5.336 5.336 0 0 0 5.333 5.333A5.336 5.336 0 0 0 32.001 64h2.667c0 4.416-3.584 8-8 8Z" clip-rule="evenodd"/>
  <path fill="#333" d="M46.667 65.333a1.333 1.333 0 1 0 0-2.667 1.333 1.333 0 0 0 0 2.667Z"/>
  <path fill="#333" fill-rule="evenodd" d="M53.333 56c.737 0 1.334.597 1.334 1.333v8a1.333 1.333 0 0 1-2.667 0v-8c0-.736.597-1.333 1.333-1.333Zm13.334 0c.737 0 1.334.597 1.334 1.333v8a1.333 1.333 0 1 1-2.667 0v-8c0-.736.597-1.333 1.333-1.333Z" clip-rule="evenodd"/>
  <path fill="#333" d="M60.001 65.333a1.333 1.333 0 1 0 0-2.667 1.333 1.333 0 0 0 0 2.667Zm-40 0a1.333 1.333 0 1 0 0-2.667 1.333 1.333 0 0 0 0 2.667Zm-13.334 0a1.333 1.333 0 1 0 0-2.667 1.333 1.333 0 0 0 0 2.667Z"/>
  <path fill="#333" fill-rule="evenodd" d="M25.333 29.332c.737 0 1.334.597 1.334 1.333v8a1.333 1.333 0 0 1-2.667 0v-8c0-.736.597-1.333 1.333-1.333ZM32.001 20c.737 0 1.334.597 1.334 1.333V28a1.333 1.333 0 1 1-2.667 0v-6.667c0-.736.597-1.333 1.333-1.333Zm16 0c.737 0 1.334.597 1.334 1.333V28a1.333 1.333 0 1 1-2.667 0v-6.667c0-.736.597-1.333 1.333-1.333Zm5.332 9.332c.737 0 1.334.597 1.334 1.333v6.667a1.333 1.333 0 0 1-2.667 0v-6.667c0-.736.597-1.333 1.333-1.333Z" clip-rule="evenodd"/>
  <path fill="#333" fill-rule="evenodd" d="M40.462 34.926a1.314 1.314 0 0 0-.924 0l-.003.002-25.667 9.626c-1.066.4-1.177 1.858-.18 2.413l6.96 3.867c.322.179.556.484.645.842l1.334 5.333a1.333 1.333 0 0 1-2.587.647l-1.193-4.772-6.456-3.587c-2.976-1.657-2.66-6.04.54-7.24l25.664-9.625h.002a3.98 3.98 0 0 1 2.806 0h.001l25.664 9.625c3.2 1.2 3.517 5.582.54 7.24l-6.96 3.868a1.333 1.333 0 0 1-1.296-2.331l6.959-3.866c.997-.556.887-2.014-.18-2.414l-25.666-9.627h-.003Zm-.005-7.98a1.351 1.351 0 0 0-.954-.016l-.007.002-13.707 4.987a1.333 1.333 0 0 1-.911-2.506l13.7-4.985.004-.001a4.019 4.019 0 0 1 2.85.037l.01.004 12.387 4.96a1.333 1.333 0 1 1-.99 2.475l-12.382-4.957Zm-.048-6.738a1.257 1.257 0 0 0-.818 0l-.01.003-7.16 2.387a1.333 1.333 0 0 1-.843-2.53l7.156-2.386a3.923 3.923 0 0 1 2.532 0l7.155 2.386a1.333 1.333 0 0 1-.843 2.53l-7.17-2.39Z" clip-rule="evenodd"/>
  <path fill="#333" fill-rule="evenodd" d="M40.001 9.332c.737 0 1.334.597 1.334 1.333v6.667a1.333 1.333 0 1 1-2.667 0v-6.667c0-.736.597-1.333 1.333-1.333ZM29.334 46.667a1.333 1.333 0 1 0 0 2.666 1.333 1.333 0 0 0 0-2.666Zm-4 1.333a4 4 0 1 1 8 0 4 4 0 0 1-8 0Zm25.334-1.333a1.333 1.333 0 1 0 0 2.666 1.333 1.333 0 0 0 0-2.666Zm-4 1.333a4 4 0 1 1 8 0 4 4 0 0 1-8 0Z" clip-rule="evenodd"/>
  <path fill="#59CBE8" fill-rule="evenodd" d="M33.334 64a6.67 6.67 0 0 0 6.667 6.667A6.67 6.67 0 0 0 46.667 64" clip-rule="evenodd"/>
  <path fill="#333" fill-rule="evenodd" d="M40 72c-4.416 0-8-3.584-8-8h2.667A5.336 5.336 0 0 0 40 69.333 5.336 5.336 0 0 0 45.333 64H48c0 4.416-3.584 8-8 8Z" clip-rule="evenodd"/>
  <path fill="#333" d="M33.333 65.333a1.333 1.333 0 1 0 0-2.667 1.333 1.333 0 0 0 0 2.667Z"/>
  <path fill="#fff" d="M37.335 8h5.333c1.467 0 2.667 1.2 2.667 2.667 0 1.466-1.2 2.666-2.667 2.666h-5.333a2.674 2.674 0 0 1-2.667-2.666C34.668 9.2 35.868 8 37.335 8Z"/>
  <path fill="#333" fill-rule="evenodd" d="M37.334 9.333c-.73 0-1.333.603-1.333 1.333s.603 1.333 1.333 1.333h5.333c.73 0 1.334-.603 1.334-1.333s-.603-1.333-1.334-1.333h-5.333Zm-4 1.333c0-2.203 1.797-4 4-4h5.333c2.203 0 4 1.797 4 4 0 2.203-1.797 4-4 4h-5.333c-2.203 0-4-1.797-4-4Zm6.667 21.519c.737 0 1.334.597 1.334 1.334v16.173a1.333 1.333 0 1 1-2.667 0V33.52c0-.736.597-1.334 1.333-1.334ZM32 57.333c0-.736.597-1.333 1.333-1.333h40a1.333 1.333 0 1 1 0 2.667h-40A1.333 1.333 0 0 1 32 57.333Z" clip-rule="evenodd"/>
  <path fill="#333" fill-rule="evenodd" d="M40.001 56c.737 0 1.334.597 1.334 1.333v8a1.333 1.333 0 1 1-2.667 0v-8c0-.736.597-1.333 1.333-1.333Z" clip-rule="evenodd"/>
</svg>
