<svg width="80" height="80" viewBox="0 0 80 80" fill="none" xmlns="http://www.w3.org/2000/svg" aria-hidden="true">
<rect width="80" height="80" fill="white"/>
<path fill-rule="evenodd" clip-rule="evenodd" d="M14.5068 48.9129C13.0602 49.154 12 50.4056 12 51.8721V65.3307L22.6667 62.6641L48 67.9974L67.4618 57.5525V54.6641L65.3333 53.1024L45.3333 58.6641L44.7662 54.6641L28 46.6641L14.5068 48.9129Z" fill="#59CBE8"/>
<path d="M12 59.9927V65.326L22.2201 62.771C22.514 62.6975 22.8207 62.6918 23.1171 62.7542L47.6245 67.9136C47.8671 67.9647 48.1199 67.9287 48.3386 67.8121L65.5559 58.6296C66.9673 57.8768 67.6299 56.2157 67.124 54.6981V54.6981C66.8669 53.9266 66.0546 53.4875 65.2682 53.695L50.6667 57.5478" stroke="#333333" stroke-width="2" stroke-linecap="round" stroke-linejoin="round"/>
<path d="M17.333 47.9943L27.6038 46.7105C27.8625 46.6781 28.1252 46.7189 28.3619 46.8282L43.1292 53.6439C44.4077 54.2339 45.0858 55.6497 44.7443 57.0157V57.0157C44.3388 58.6379 42.6605 59.5926 41.0589 59.1121L30.6663 55.9943" stroke="#333333" stroke-width="2" stroke-linecap="round" stroke-linejoin="round"/>
<path fill-rule="evenodd" clip-rule="evenodd" d="M13.333 40.0026V20.0026C13.333 18.5298 14.5269 17.3359 15.9997 17.3359H63.9997C65.4724 17.3359 66.6663 18.5298 66.6663 20.0026V44.0026C66.6663 45.4754 65.4724 46.6693 63.9997 46.6693H42.6663" fill="white"/>
<path d="M13.333 40.0026V20.0026C13.333 18.5298 14.5269 17.3359 15.9997 17.3359H63.9997C65.4724 17.3359 66.6663 18.5298 66.6663 20.0026V44.0026C66.6663 45.4754 65.4724 46.6693 63.9997 46.6693H42.6663" stroke="#333333" stroke-width="2" stroke-linecap="round"/>
<path d="M25.3327 32.0026H21.3327" stroke="#333333" stroke-width="2" stroke-linecap="round"/>
<path d="M54.666 32.0026H58.666" stroke="#333333" stroke-width="2" stroke-linecap="round"/>
<path d="M45.3327 32.0052C45.3327 34.9507 42.9449 37.3385 39.9993 37.3385C37.0538 37.3385 34.666 34.9507 34.666 32.0052C34.666 29.0597 37.0538 26.6719 39.9993 26.6719C42.9449 26.6719 45.3327 29.0597 45.3327 32.0052Z" fill="#59CBE8"/>
<path d="M40 37.3385V37.3385C42.9455 37.3385 45.3333 34.9507 45.3333 32.0052C45.3333 29.0597 42.9455 26.6719 40 26.6719" stroke="#333333" stroke-width="2" stroke-linecap="round" stroke-linejoin="round"/>
<path d="M58.6673 11.9974H53.334" stroke="#333333" stroke-width="2" stroke-linecap="round"/>
<path d="M48.0003 11.9974H46.667" stroke="#333333" stroke-width="2" stroke-linecap="round"/>
</svg>
