<svg width="60" height="60" viewBox="0 0 60 60" fill="none" xmlns="http://www.w3.org/2000/svg">
<path fill-rule="evenodd" clip-rule="evenodd" d="M11.5068 36.5822C10.0602 36.8233 9 38.0749 9 39.5414V49L17 47L36 51L50.5963 43.1664V41L49 39.8287L34 44L33.5746 41L21 35L11.5068 36.5822Z" fill="#59CBE8"/>
<path fill-rule="evenodd" clip-rule="evenodd" d="M48.696 39.3099C49.7959 39.0197 50.932 39.6338 51.2917 40.7129C51.8253 42.3137 51.1264 44.066 49.6375 44.86L36.7245 51.7469C36.3533 51.945 35.9241 52.006 35.5124 51.9193L17.2445 48.0734C17.0962 48.0422 16.9429 48.0451 16.7959 48.0818L9.24254 49.9702C8.94379 50.0449 8.6273 49.9777 8.38459 49.7882C8.14187 49.5987 8 49.308 8 49V45C8 44.4477 8.44772 44 9 44C9.55228 44 10 44.4477 10 45V47.7193L16.3109 46.1415C16.7517 46.0313 17.2118 46.0227 17.6565 46.1163L35.8502 49.9466L48.6963 43.0953C49.3246 42.7603 49.6195 42.0209 49.3943 41.3453C49.3683 41.2672 49.286 41.2227 49.2063 41.2437L38.2551 44.1333C37.7211 44.2742 37.174 43.9555 37.0331 43.4215C36.8922 42.8875 37.2109 42.3404 37.7449 42.1995L48.696 39.3099Z" fill="#333333"/>
<path fill-rule="evenodd" clip-rule="evenodd" d="M20.8526 36.0334C20.8447 36.0297 20.8358 36.0283 20.8271 36.0294L13.124 36.9923C12.576 37.0608 12.0762 36.6721 12.0077 36.1241C11.9392 35.576 12.3279 35.0762 12.8759 35.0077L20.579 34.0449C20.9584 33.9974 21.3436 34.0572 21.6907 34.2175L32.7662 39.3292C34.1612 39.9731 34.9013 41.518 34.5286 43.0086C34.0861 44.7787 32.2547 45.8205 30.507 45.2962L22.7126 42.9578C22.1836 42.7992 21.8835 42.2417 22.0422 41.7127C22.2009 41.1837 22.7583 40.8835 23.2873 41.0422L31.0817 43.3805C31.7365 43.5769 32.4225 43.1867 32.5883 42.5235C32.7279 41.9651 32.4507 41.3863 31.9281 41.1451L20.8526 36.0334Z" fill="#333333"/>
<path fill-rule="evenodd" clip-rule="evenodd" d="M10 30V15C10 13.8954 10.8954 13 12 13H48C49.1046 13 50 13.8954 50 15V33C50 34.1046 49.1046 35 48 35H32" fill="white"/>
<path fill-rule="evenodd" clip-rule="evenodd" d="M12 14C11.4477 14 11 14.4477 11 15V30C11 30.5523 10.5523 31 10 31C9.44772 31 9 30.5523 9 30V15C9 13.3431 10.3431 12 12 12H48C49.6569 12 51 13.3431 51 15V33C51 34.6569 49.6569 36 48 36H32C31.4477 36 31 35.5523 31 35C31 34.4477 31.4477 34 32 34H48C48.5523 34 49 33.5523 49 33V15C49 14.4477 48.5523 14 48 14H12Z" fill="#333333"/>
<path fill-rule="evenodd" clip-rule="evenodd" d="M15 24C15 23.4477 15.4477 23 16 23H19C19.5523 23 20 23.4477 20 24C20 24.5523 19.5523 25 19 25H16C15.4477 25 15 24.5523 15 24Z" fill="#333333"/>
<path fill-rule="evenodd" clip-rule="evenodd" d="M40 24C40 23.4477 40.4477 23 41 23H44C44.5523 23 45 23.4477 45 24C45 24.5523 44.5523 25 44 25H41C40.4477 25 40 24.5523 40 24Z" fill="#333333"/>
<circle cx="30" cy="24" r="4" fill="#59CBE8"/>
<path fill-rule="evenodd" clip-rule="evenodd" d="M29 20C29 19.4477 29.4477 19 30 19C32.7614 19 35 21.2386 35 24C35 26.7614 32.7614 29 30 29C29.4477 29 29 28.5523 29 28C29 27.4477 29.4477 27 30 27C31.6569 27 33 25.6569 33 24C33 22.3431 31.6569 21 30 21C29.4477 21 29 20.5523 29 20Z" fill="#333333"/>
<path fill-rule="evenodd" clip-rule="evenodd" d="M39 9C39 8.44772 39.4477 8 40 8H44C44.5523 8 45 8.44772 45 9C45 9.55228 44.5523 10 44 10H40C39.4477 10 39 9.55228 39 9Z" fill="#333333"/>
<path fill-rule="evenodd" clip-rule="evenodd" d="M34 9C34 8.44772 34.4477 8 35 8H36C36.5523 8 37 8.44772 37 9C37 9.55228 36.5523 10 36 10H35C34.4477 10 34 9.55228 34 9Z" fill="#333333"/>
</svg>
