<svg width="60" height="60" viewBox="0 0 60 60" fill="none" xmlns="http://www.w3.org/2000/svg">
<path fill-rule="evenodd" clip-rule="evenodd" d="M49.4109 22.7969C48.7278 20.4745 45.9367 19.5476 44.0001 21.0001V21.0001L38.0001 17.0715H35.0001L23.4854 22.0001L22.8511 24.0001L23.4854 26.0001H26.7734L31.9706 24.0001L36.0001 25.0001L43.0001 35.5001L45.0001 37.0001L48.0001 35.0001V35.0001C50.4977 35.0001 52.294 32.5994 51.5892 30.2032L49.4109 22.7969Z" fill="#59CBE8"/>
<path d="M54 18H49.3333C48.4679 18 47.6257 18.2807 46.9333 18.8L44 21L37.5079 16.3628C37.1941 16.1386 36.7839 16.1009 36.4344 16.2639L24.3289 21.9132C23.0751 22.4983 22.5889 24.0299 23.2758 25.231V25.231C23.8571 26.2477 25.095 26.686 26.1865 26.2615L34.0854 23.1902C34.3694 23.0798 34.6918 23.1865 34.8539 23.4445L42.8443 36.1608C43.4666 37.1511 44.8021 37.3984 45.7377 36.6967L46.9333 35.8C47.6257 35.2807 48.4679 35 49.3333 35H54" stroke="#333333" stroke-width="2" stroke-linecap="round" stroke-linejoin="round"/>
<mask id="path-3-inside-1_0_3956" fill="white">
<path fill-rule="evenodd" clip-rule="evenodd" d="M27.1263 16.822C24.5113 15.6016 21.4416 15.8842 19.0934 17.5616L16.0145 19.7607L13.6668 17.9999C12.8013 17.3508 11.7486 16.9999 10.6668 16.9999H6.00012C5.44783 16.9999 5.00012 17.4477 5.00012 17.9999C5.00012 18.5522 5.44783 18.9999 6.00012 18.9999H10.6668C11.3159 18.9999 11.9475 19.2105 12.4668 19.5999L15.4001 21.7999C15.7488 22.0615 16.2267 22.067 16.5814 21.8137L20.2558 19.189C22.017 17.931 24.3193 17.7191 26.2806 18.6344L26.3506 18.667C26.851 18.9006 27.4461 18.6842 27.6796 18.1837C27.9132 17.6832 27.6968 17.0882 27.1963 16.8546L27.1263 16.822L26.7035 17.7282L27.1263 16.822ZM19.7751 27.2678C19.4541 27.7172 19.5582 28.3418 20.0076 28.6628L22.2513 30.2654C23.8772 31.4267 25.9746 31.7025 27.8454 31.001L31.8325 29.5058C32.2751 29.3398 32.7735 29.5064 33.0273 29.9053L38.7258 38.8601L31.8727 45.7131L15.5625 34.8397C14.7412 34.2921 13.7761 33.9999 12.789 33.9999H6.00012C5.44783 33.9999 5.00012 34.4477 5.00012 34.9999C5.00012 35.5522 5.44783 35.9999 6.00012 35.9999H12.789C13.3813 35.9999 13.9603 36.1753 14.4531 36.5038L31.4454 47.832C31.842 48.0964 32.3702 48.0441 32.7072 47.7071L40.14 40.2743C40.8028 39.6114 40.9164 38.5772 40.4131 37.7863L34.7146 28.8315C33.9532 27.6351 32.4581 27.1352 31.1302 27.6331L27.1432 29.1283C25.8959 29.596 24.4977 29.4122 23.4137 28.6379L21.1701 27.0353C20.7207 26.7143 20.0961 26.8184 19.7751 27.2678Z"/>
</mask>
<path d="M19.0934 17.5616L17.9309 15.9341V15.9341L19.0934 17.5616ZM27.1263 16.822L27.9721 15.0096C28.4528 15.2339 28.8247 15.64 29.0059 16.1385C29.1872 16.637 29.163 17.1871 28.9387 17.6678L27.1263 16.822ZM16.0145 19.7607L17.177 21.3882C16.4677 21.8949 15.5119 21.8838 14.8145 21.3607L16.0145 19.7607ZM13.6668 17.9999L14.8668 16.3999V16.3999L13.6668 17.9999ZM12.4668 19.5999L13.6668 17.9999L13.6668 17.9999L12.4668 19.5999ZM15.4001 21.7999L14.2001 23.3999L14.2001 23.3999L15.4001 21.7999ZM16.5814 21.8137L15.4189 20.1862H15.4189L16.5814 21.8137ZM20.2558 19.189L19.0934 17.5616V17.5616L20.2558 19.189ZM26.2806 18.6344L25.4348 20.4467H25.4348L26.2806 18.6344ZM26.3506 18.667L27.1963 16.8546L27.1963 16.8546L26.3506 18.667ZM27.6796 18.1837L29.492 19.0295H29.492L27.6796 18.1837ZM27.1963 16.8546L28.0421 15.0423L27.1963 16.8546ZM27.1263 16.822L25.314 15.9762C25.7811 14.9753 26.9712 14.5425 27.9721 15.0096L27.1263 16.822ZM28.5158 18.5739C28.0487 19.5749 26.8586 20.0076 25.8577 19.5405C24.8567 19.0734 24.424 17.8833 24.8911 16.8824L28.5158 18.5739ZM20.0076 28.6628L21.1701 27.0353L21.1701 27.0353L20.0076 28.6628ZM19.7751 27.2678L21.4026 28.4303L19.7751 27.2678ZM22.2513 30.2654L21.0888 31.8928L21.0888 31.8928L22.2513 30.2654ZM27.8454 31.001L27.1432 29.1283L27.8454 31.001ZM31.8325 29.5058L32.5347 31.3785L31.8325 29.5058ZM33.0273 29.9053L31.34 30.979H31.34L33.0273 29.9053ZM38.7258 38.8601L40.4131 37.7863C40.9164 38.5772 40.8028 39.6114 40.14 40.2743L38.7258 38.8601ZM31.8727 45.7131L33.2869 47.1274C32.6128 47.8015 31.5565 47.9061 30.7633 47.3772L31.8727 45.7131ZM15.5625 34.8397L14.4531 36.5038H14.4531L15.5625 34.8397ZM14.4531 36.5038L15.5625 34.8397L14.4531 36.5038ZM31.4454 47.832L32.5548 46.1679L32.5548 46.1679L31.4454 47.832ZM32.7072 47.7071L34.1214 49.1213L34.1214 49.1213L32.7072 47.7071ZM40.14 40.2743L41.5542 41.6885L41.5542 41.6885L40.14 40.2743ZM40.4131 37.7863L42.1004 36.7126L40.4131 37.7863ZM34.7146 28.8315L36.4019 27.7578H36.4019L34.7146 28.8315ZM31.1302 27.6331L30.428 25.7605L31.1302 27.6331ZM23.4137 28.6379L24.5762 27.0104V27.0104L23.4137 28.6379ZM21.1701 27.0353L20.0076 28.6628L20.0076 28.6628L21.1701 27.0353ZM17.9309 15.9341C20.8662 13.8374 24.7033 13.4842 27.9721 15.0096L26.2806 18.6344C24.3193 17.7191 22.017 17.931 20.2558 19.189L17.9309 15.9341ZM14.8521 18.1333L17.9309 15.9341L20.2558 19.189L17.177 21.3882L14.8521 18.1333ZM14.8668 16.3999L17.2145 18.1607L14.8145 21.3607L12.4668 19.5999L14.8668 16.3999ZM10.6668 14.9999C12.1814 14.9999 13.6551 15.4912 14.8668 16.3999L12.4668 19.5999C11.9475 19.2105 11.3159 18.9999 10.6668 18.9999V14.9999ZM6.00012 14.9999H10.6668V18.9999H6.00012V14.9999ZM3.00012 17.9999C3.00012 16.3431 4.34327 14.9999 6.00012 14.9999V18.9999C6.5524 18.9999 7.00012 18.5522 7.00012 17.9999H3.00012ZM6.00012 20.9999C4.34327 20.9999 3.00012 19.6568 3.00012 17.9999H7.00012C7.00012 17.4477 6.5524 16.9999 6.00012 16.9999V20.9999ZM10.6668 20.9999H6.00012V16.9999H10.6668V20.9999ZM11.2668 21.1999C11.0937 21.0701 10.8832 20.9999 10.6668 20.9999V16.9999C11.7486 16.9999 12.8013 17.3508 13.6668 17.9999L11.2668 21.1999ZM14.2001 23.3999L11.2668 21.1999L13.6668 17.9999L16.6001 20.1999L14.2001 23.3999ZM17.7438 23.4411C16.6798 24.2011 15.2462 24.1845 14.2001 23.3999L16.6001 20.1999C16.2514 19.9384 15.7735 19.9329 15.4189 20.1862L17.7438 23.4411ZM21.4183 20.8165L17.7438 23.4411L15.4189 20.1862L19.0934 17.5616L21.4183 20.8165ZM25.4348 20.4467C24.1273 19.8365 22.5924 19.9778 21.4183 20.8165L19.0934 17.5616C21.4416 15.8842 24.5113 15.6016 27.1263 16.822L25.4348 20.4467ZM25.5048 20.4794L25.4348 20.4467L27.1263 16.822L27.1963 16.8546L25.5048 20.4794ZM29.492 19.0295C28.7913 20.5309 27.0062 21.18 25.5048 20.4794L27.1963 16.8546C26.6959 16.6211 26.1008 16.8375 25.8673 17.3379L29.492 19.0295ZM28.0421 15.0423C29.5435 15.7429 30.1927 17.5281 29.492 19.0295L25.8673 17.3379C25.6337 17.8384 25.8501 18.4335 26.3506 18.667L28.0421 15.0423ZM27.9721 15.0096L28.0421 15.0423L26.3506 18.667L26.2806 18.6344L27.9721 15.0096ZM24.8911 16.8824L25.314 15.9762L28.9387 17.6678L28.5158 18.5739L24.8911 16.8824ZM28.9387 17.6678L28.5158 18.5739L24.8911 16.8824L25.314 15.9762L28.9387 17.6678ZM18.8451 30.2902C17.4969 29.3272 17.1846 27.4536 18.1477 26.1053L21.4026 28.4303C21.7236 27.9809 21.6195 27.3563 21.1701 27.0353L18.8451 30.2902ZM21.0888 31.8928L18.8451 30.2902L21.1701 27.0353L23.4137 28.6379L21.0888 31.8928ZM28.5477 32.8736C26.0532 33.809 23.2567 33.4413 21.0888 31.8928L23.4137 28.6379C24.4977 29.4122 25.8959 29.596 27.1432 29.1283L28.5477 32.8736ZM32.5347 31.3785L28.5477 32.8736L27.1432 29.1283L31.1302 27.6331L32.5347 31.3785ZM31.34 30.979C31.5937 31.3778 32.0921 31.5444 32.5347 31.3785L31.1302 27.6331C32.4581 27.1352 33.9532 27.6351 34.7146 28.8315L31.34 30.979ZM37.0385 39.9338L31.34 30.979L34.7146 28.8315L40.4131 37.7863L37.0385 39.9338ZM30.4585 44.2989L37.3116 37.4458L40.14 40.2743L33.2869 47.1274L30.4585 44.2989ZM16.6719 33.1756L32.9821 44.049L30.7633 47.3772L14.4531 36.5038L16.6719 33.1756ZM12.789 31.9999C14.171 31.9999 15.522 32.409 16.6719 33.1756L14.4531 36.5038C13.9603 36.1753 13.3813 35.9999 12.789 35.9999V31.9999ZM6.00012 31.9999H12.789V35.9999H6.00012V31.9999ZM3.00012 34.9999C3.00012 33.3431 4.34327 31.9999 6.00012 31.9999V35.9999C6.5524 35.9999 7.00012 35.5522 7.00012 34.9999H3.00012ZM6.00012 37.9999C4.34327 37.9999 3.00012 36.6568 3.00012 34.9999H7.00012C7.00012 34.4477 6.5524 33.9999 6.00012 33.9999V37.9999ZM12.789 37.9999H6.00012V33.9999H12.789V37.9999ZM13.3437 38.1679C13.1794 38.0584 12.9864 37.9999 12.789 37.9999V33.9999C13.7761 33.9999 14.7412 34.2921 15.5625 34.8397L13.3437 38.1679ZM30.336 49.4961L13.3437 38.1679L15.5625 34.8397L32.5548 46.1679L30.336 49.4961ZM34.1214 49.1213C33.1102 50.1325 31.5259 50.2893 30.336 49.4961L32.5548 46.1679C32.1582 45.9035 31.6301 45.9558 31.293 46.2928L34.1214 49.1213ZM41.5542 41.6885L34.1214 49.1213L31.293 46.2928L38.7258 38.8601L41.5542 41.6885ZM42.1004 36.7126C43.107 38.2942 42.8799 40.3628 41.5542 41.6885L38.7258 38.8601V38.8601L42.1004 36.7126ZM36.4019 27.7578L42.1004 36.7126L38.7258 38.8601L33.0273 29.9053L36.4019 27.7578ZM30.428 25.7605C32.6411 24.9306 35.133 25.7637 36.4019 27.7578L33.0273 29.9053C32.7735 29.5064 32.2751 29.3398 31.8325 29.5058L30.428 25.7605ZM26.4409 27.2556L30.428 25.7605L31.8325 29.5058L27.8454 31.001L26.4409 27.2556ZM24.5762 27.0104C25.1182 27.3976 25.8173 27.4895 26.4409 27.2556L27.8454 31.001C25.9746 31.7025 23.8772 31.4267 22.2513 30.2654L24.5762 27.0104ZM22.3326 25.4078L24.5762 27.0104L22.2513 30.2654L20.0076 28.6628L22.3326 25.4078ZM18.1477 26.1053C19.1107 24.7571 20.9843 24.4448 22.3326 25.4078L20.0076 28.6628C20.457 28.9838 21.0816 28.8797 21.4026 28.4303L18.1477 26.1053Z" fill="#333333" mask="url(#path-3-inside-1_0_3956)"/>
<rect x="17.4123" y="38.8712" width="6" height="13" rx="1.5" transform="rotate(-48 17.4123 38.8712)" fill="#59CBE8" stroke="#333333" stroke-width="2" stroke-linecap="round" stroke-linejoin="round"/>
<path d="M13 11H9" stroke="#333333" stroke-width="2" stroke-linecap="round"/>
<path d="M18 11H17" stroke="#333333" stroke-width="2" stroke-linecap="round"/>
<path d="M46 44H43" stroke="#333333" stroke-width="2" stroke-linecap="round"/>
<path d="M51 44H50" stroke="#333333" stroke-width="2" stroke-linecap="round"/>
</svg>
