<svg  width="80" height="80" xmlns="http://www.w3.org/2000/svg" fill="none" viewBox="0 0 80 80">
  <path fill="#59CBE8" d="M13.334 61.333A5.333 5.333 0 0 1 18.667 56h41.334a5.333 5.333 0 0 1 5.333 5.333V72h-52V61.333Z"/>
  <path fill="#59CBE8" fill-rule="evenodd" d="M54.667 56h5.334a5.333 5.333 0 0 1 5.333 5.333V72h-52V61.333A5.333 5.333 0 0 1 18.667 56h13.334" clip-rule="evenodd"/>
  <path fill="#333" fill-rule="evenodd" d="M18.667 57.333a4 4 0 0 0-4 4v9.333H64v-9.333a4 4 0 0 0-4-4h-5.333a1.333 1.333 0 0 1 0-2.667H60a6.667 6.667 0 0 1 6.667 6.667v10.666c0 .737-.597 1.334-1.334 1.334h-52A1.333 1.333 0 0 1 12 71.999V61.333a6.667 6.667 0 0 1 6.667-6.667H32a1.333 1.333 0 0 1 0 2.667H18.667Z" clip-rule="evenodd"/>
  <path fill="#fff" d="M18.666 64h16v8h-16v-8Z"/>
  <path fill="#333" fill-rule="evenodd" d="M17.334 64c0-.737.597-1.334 1.333-1.334h16c.737 0 1.334.597 1.334 1.333v8c0 .737-.597 1.334-1.334 1.334h-16a1.333 1.333 0 0 1-1.333-1.334v-8Zm2.667 1.333v5.333h13.333v-5.333H20.001Z" clip-rule="evenodd"/>
  <path fill="#59CBE8" d="M8 25.333C8 17.97 13.97 12 21.333 12h37.334C66.03 12 72 17.97 72 25.333c0 7.364-5.97 13.334-13.333 13.334H21.333C13.97 38.667 8 32.697 8 25.333ZM41.334 40h13.333v33.333H41.334V40Z"/>
  <path fill="#333" fill-rule="evenodd" d="M52 42.667h-8v28h8v-28ZM41.335 40v33.333h13.333V40H41.334Z" clip-rule="evenodd"/>
  <path fill="#333" fill-rule="evenodd" d="M8 72c0-.737.597-1.334 1.333-1.334H68a1.333 1.333 0 0 1 0 2.667H9.333A1.333 1.333 0 0 1 8 71.999Z" clip-rule="evenodd"/>
  <path fill="#fff" d="M18.667 13.333a5.333 5.333 0 1 1-10.667 0 5.333 5.333 0 0 1 10.667 0Z"/>
  <path fill="#333" fill-rule="evenodd" d="M13.333 9.333a4 4 0 1 0 0 8 4 4 0 0 0 0-8Zm-6.667 4a6.667 6.667 0 1 1 13.333 0 6.667 6.667 0 0 1-13.333 0Z" clip-rule="evenodd"/>
  <path fill="#fff" fill-rule="evenodd" d="M48 41.334h-4.229a2.667 2.667 0 0 1-1.885-.781l-5.105-5.105c-.5-.5-.781-1.178-.781-1.885v-8.458c0-.707.281-1.385.781-1.885l5.105-5.105c.5-.5 1.178-.781 1.885-.781h8.458c.707 0 1.385.28 1.885.781l5.105 5.105c.5.5.781 1.178.781 1.885v8.458c0 .707-.281 1.385-.781 1.885l-5.105 5.105c-.5.5-1.178.781-1.885.781H48Z" clip-rule="evenodd"/>
  <path fill="#333" fill-rule="evenodd" d="M43.77 18.667c-.353 0-.692.14-.942.39l-5.105 5.105c-.25.25-.39.589-.39.943v8.457c0 .354.14.693.39.943l5.105 5.104c.25.25.589.391.943.391h8.457c.354 0 .693-.14.943-.39l5.105-5.105c.25-.25.39-.59.39-.943v-8.457c0-.354-.14-.693-.39-.943l-5.105-5.105c-.25-.25-.59-.39-.943-.39h-8.457Zm-2.828-1.495A4 4 0 0 1 43.771 16h8.457a4 4 0 0 1 2.828 1.172l5.105 5.104a4 4 0 0 1 1.172 2.829v8.457a4 4 0 0 1-1.172 2.829l-5.105 5.104a4 4 0 0 1-2.828 1.172h-8.457a4 4 0 0 1-2.829-1.172l-5.104-5.104a4 4 0 0 1-1.172-2.829v-8.457a4 4 0 0 1 1.172-2.829l5.104-5.104ZM38.666 56c0-.737.597-1.334 1.333-1.334h6.667a1.333 1.333 0 0 1 0 2.667h-6.667a1.333 1.333 0 0 1-1.333-1.334Zm0 8c0-.737.597-1.334 1.333-1.334h6.667a1.333 1.333 0 0 1 0 2.667h-6.667a1.333 1.333 0 0 1-1.333-1.334Zm0-16c0-.737.597-1.334 1.333-1.334h6.667a1.333 1.333 0 0 1 0 2.667h-6.667a1.333 1.333 0 0 1-1.333-1.334Z" clip-rule="evenodd"/>
  <path fill="#333" fill-rule="evenodd" d="M36 25.333c0-.736.597-1.333 1.333-1.333h21.334a1.333 1.333 0 0 1 0 2.667H37.333A1.333 1.333 0 0 1 36 25.333Zm0 8c0-.736.597-1.333 1.333-1.333h21.334a1.333 1.333 0 0 1 0 2.667H37.333A1.333 1.333 0 0 1 36 33.333ZM48 9.334c.736 0 1.333.597 1.333 1.333v6.667a1.333 1.333 0 0 1-2.667 0v-6.667c0-.736.597-1.333 1.333-1.333Z" clip-rule="evenodd"/>
  <path fill="#fff" d="M42.666 9.333a2.667 2.667 0 0 1 2.667-2.667h5.333a2.667 2.667 0 1 1 0 5.333h-5.333a2.667 2.667 0 0 1-2.667-2.666Z"/>
  <path fill="#333" fill-rule="evenodd" d="M41.334 9.334a4 4 0 0 1 4-4h5.333a4 4 0 1 1 0 8h-5.333a4 4 0 0 1-4-4Zm4-1.333a1.333 1.333 0 1 0 0 2.666h5.333a1.333 1.333 0 1 0 0-2.666h-5.333ZM14.071 25.475a1.333 1.333 0 0 1 1.79.596l.595 1.193c.226.452.688.737 1.193.737h10.352a1.333 1.333 0 0 1 0 2.667H17.649a4 4 0 0 1-3.578-2.212l-.596-1.192a1.333 1.333 0 0 1 .596-1.789ZM8 48c0-.737.597-1.334 1.333-1.334h4a1.333 1.333 0 1 1 0 2.667h-4A1.333 1.333 0 0 1 8 47.999Zm9.334 0c0-.737.597-1.334 1.333-1.334h1.334a1.333 1.333 0 0 1 0 2.667h-1.334a1.333 1.333 0 0 1-1.333-1.334ZM62.666 8c0-.737.597-1.334 1.333-1.334h4a1.333 1.333 0 0 1 0 2.667h-4a1.333 1.333 0 0 1-1.333-1.334Z" clip-rule="evenodd"/>
</svg>
