<svg width="80" height="80" xmlns="http://www.w3.org/2000/svg" fill="none" viewBox="0 0 80 80">
  <path fill="#59CBE8" d="M65.333 34.667c0 13.991-11.342 25.334-25.334 25.334-13.99 0-25.333-11.343-25.333-25.334 0-13.99 11.342-25.333 25.333-25.333 13.992 0 25.334 11.342 25.334 25.333Z"/>
  <path fill="#333" fill-rule="evenodd" d="M20.06 69.334a1.333 1.333 0 1 0 0 2.667H72a1.333 1.333 0 0 0 0-2.667H20.06Zm-12.06 0a1.333 1.333 0 1 0 0 2.667h6.628a1.333 1.333 0 0 0 0-2.667H7.999ZM40 22.5c.736 0 1.333.597 1.333 1.333v5.5a1.333 1.333 0 0 1-2.667 0v-5.5c0-.736.597-1.333 1.333-1.333Zm0-15.834c.736 0 1.333.597 1.333 1.333v10.667a1.333 1.333 0 0 1-2.667 0V7.999c0-.736.597-1.333 1.333-1.333ZM34.667 16c.737 0 1.334.597 1.334 1.333v13a1.333 1.333 0 0 1-2.667 0v-13c0-.736.597-1.333 1.333-1.333Zm10.666 0c.737 0 1.334.597 1.334 1.333V36A1.333 1.333 0 0 1 44 36V17.333c0-.736.597-1.333 1.333-1.333Zm.001 48c0-.737.597-1.334 1.333-1.334h9.334a1.333 1.333 0 0 1 0 2.667h-9.334a1.333 1.333 0 0 1-1.333-1.334ZM60 64c0-.737.597-1.334 1.333-1.334H64a1.333 1.333 0 0 1 0 2.667h-2.667A1.333 1.333 0 0 1 60 63.999ZM12.666 42.667c0-.736.597-1.333 1.333-1.333h4.667a1.333 1.333 0 1 1 0 2.667h-4.667a1.333 1.333 0 0 1-1.333-1.334Z" clip-rule="evenodd"/>
  <path fill="#fff" fill-rule="evenodd" d="M40 36s-12 0-12-12c12 0 12 12 12 12Z" clip-rule="evenodd"/>
  <path fill="#333" fill-rule="evenodd" d="M26.666 24c0-.737.597-1.334 1.333-1.334 3.234 0 5.747.812 7.677 2.099 1.922 1.281 3.187 2.98 4.016 4.638.826 1.653 1.233 3.29 1.435 4.502.102.61.153 1.12.179 1.484a11.311 11.311 0 0 1 .026.554v.055L40 35.999l-.001 1.334h-.055a11.311 11.311 0 0 1-.555-.026 16.063 16.063 0 0 1-1.483-.18c-1.212-.202-2.849-.609-4.502-1.435-1.658-.83-3.357-2.094-4.638-4.016-1.287-1.93-2.099-4.443-2.099-7.677Zm13.333 12v1.333c.737 0 1.334-.597 1.334-1.334h-1.334Zm-1.473-1.474-.183-.03c-1.037-.172-2.4-.516-3.747-1.19-1.342-.67-2.643-1.656-3.612-3.109-.793-1.19-1.4-2.745-1.59-4.802 2.058.19 3.614.796 4.803 1.589 1.453.968 2.439 2.27 3.11 3.612.673 1.347 1.017 2.71 1.19 3.747l.029.183Z" clip-rule="evenodd"/>
  <path fill="#fff" fill-rule="evenodd" d="M40 44s12 0 12-12c-12 0-12 12-12 12Z" clip-rule="evenodd"/>
  <path fill="#333" fill-rule="evenodd" d="M53.334 32c0-.737-.597-1.334-1.333-1.334-3.234 0-5.747.812-7.677 2.099-1.922 1.281-3.187 2.98-4.016 4.638-.826 1.653-1.233 3.29-1.435 4.502a15.94 15.94 0 0 0-.179 1.484 11.311 11.311 0 0 0-.026.554v.055l1.333.001.001 1.334h.055a11.311 11.311 0 0 0 .555-.026c.363-.027.873-.078 1.483-.18 1.212-.202 2.849-.609 4.502-1.435 1.658-.83 3.357-2.094 4.638-4.016 1.287-1.93 2.099-4.443 2.099-7.677ZM40.001 44v1.333a1.333 1.333 0 0 1-1.334-1.334h1.334Zm1.473-1.474.183-.03c1.037-.172 2.4-.516 3.747-1.19 1.342-.67 2.643-1.656 3.612-3.109.793-1.19 1.4-2.745 1.59-4.802-2.058.19-3.614.796-4.803 1.589-1.453.968-2.439 2.27-3.11 3.612-.673 1.347-1.017 2.71-1.19 3.748l-.029.182Z" clip-rule="evenodd"/>
  <path fill="#fff" fill-rule="evenodd" d="M40 52s-12 0-12-12c12 0 12 12 12 12Z" clip-rule="evenodd"/>
  <path fill="#333" fill-rule="evenodd" d="M26.666 40c0-.737.597-1.334 1.333-1.334 3.234 0 5.747.812 7.677 2.099 1.922 1.281 3.187 2.98 4.016 4.638.826 1.653 1.233 3.29 1.435 4.502.102.61.153 1.12.179 1.484a11.311 11.311 0 0 1 .026.554v.055L40 51.999l-.001 1.334h-.055a11.311 11.311 0 0 1-.555-.026 16.063 16.063 0 0 1-1.483-.18c-1.212-.202-2.849-.609-4.502-1.435-1.658-.83-3.357-2.094-4.638-4.016-1.287-1.93-2.099-4.443-2.099-7.677Zm13.333 12v1.333c.737 0 1.334-.597 1.334-1.334h-1.334Zm-1.473-1.474-.183-.03c-1.037-.172-2.4-.516-3.747-1.19-1.342-.67-2.643-1.656-3.612-3.109-.793-1.19-1.4-2.745-1.59-4.802 2.058.19 3.614.796 4.803 1.589 1.453.968 2.439 2.27 3.11 3.612.673 1.347 1.017 2.71 1.19 3.748l.029.182Z" clip-rule="evenodd"/>
  <path fill="#333" fill-rule="evenodd" d="M40 28c.736 0 1.333.597 1.333 1.333v41.334a1.333 1.333 0 0 1-2.667 0V29.333c0-.736.597-1.333 1.333-1.333Z" clip-rule="evenodd"/>
</svg>
