<svg width="80" height="80" xmlns="http://www.w3.org/2000/svg" fill="none" viewBox="0 0 80 80">
  <path fill="#333" fill-rule="evenodd" d="M7.63 49.431a1.333 1.333 0 0 1 1.653.905 31.74 31.74 0 0 0 1.31 3.637 32.131 32.131 0 0 0 14.185 15.515 1.333 1.333 0 0 1-1.27 2.344A34.798 34.798 0 0 1 8.143 55.027a34.418 34.418 0 0 1-1.42-3.942 1.333 1.333 0 0 1 .906-1.654Zm64.734.025c.706.207 1.111.948.904 1.655-2.597 8.85-8.627 16.227-16.548 20.596a1.333 1.333 0 0 1-1.288-2.334c7.315-4.035 12.881-10.849 15.277-19.013a1.333 1.333 0 0 1 1.655-.904Z" clip-rule="evenodd"/>
  <path fill="#59CBE8" fill-rule="evenodd" d="M28 22.666v14.667l4-1.334 2.667-4-1.334-6.666-2.666-2.667H28ZM16 8v14.667l4-1.334 2.667-4-1.334-6.666L18.667 8H16Z" clip-rule="evenodd"/>
  <path fill="#333" fill-rule="evenodd" d="M26.002 36.102a1.333 1.333 0 0 1-.861 1.677 9.338 9.338 0 0 0-6.474 8.887v6.667a1.333 1.333 0 0 1-2.667 0v-6.666c0-5.348 3.497-9.875 8.325-11.427a1.333 1.333 0 0 1 1.677.861Z" clip-rule="evenodd"/>
  <path fill="#333" fill-rule="evenodd" d="M28 24c-2.829 0-5.333 2.564-5.333 6 0 3.437 2.504 6 5.333 6s5.333-2.563 5.333-6c0-3.436-2.504-6-5.333-6Zm-8 6c0-4.663 3.465-8.666 8-8.666s8 4.003 8 8.667-3.465 8.666-8 8.666-8-4.002-8-8.666Zm2.667 16.668c.737 0 1.334.597 1.334 1.333v9.334a1.333 1.333 0 0 1-2.667 0V48c0-.736.597-1.333 1.333-1.333Z" clip-rule="evenodd"/>
  <path fill="#59CBE8" fill-rule="evenodd" d="M64 8v31.396c0 .334.27.604.604.604h.73a9.333 9.333 0 0 0 9.333-9.333l-1.334-4-4-4L68 21.333l2.667-4-1.334-6.666L66.667 8H64ZM52 22.666v31.396c0 .334.27.604.604.604h.73a9.333 9.333 0 0 0 9.333-9.333l-1.334-4-4-4L56 35.999l2.667-4-1.334-6.666-2.666-2.667H52ZM40 37.334v34.063c0 .333.27.604.604.604 5.557 0 10.063-4.506 10.063-10.063V60l-1.334-4-4-4L44 50.667l2.667-4-1.334-6.666-2.666-2.667H40Z" clip-rule="evenodd"/>
  <path fill="#333" fill-rule="evenodd" d="M37.945 50.955a1.333 1.333 0 0 1-.9 1.657c-3.838 1.136-6.378 4.465-6.378 8.722V72A1.333 1.333 0 0 1 28 72V61.334c0-5.418 3.299-9.802 8.288-11.279a1.333 1.333 0 0 1 1.657.9Zm4.111-.004a1.333 1.333 0 0 1 1.66-.895c4.966 1.488 8.285 5.868 8.285 11.278V72a1.333 1.333 0 0 1-2.667 0V61.334c0-4.242-2.555-7.577-6.383-8.723a1.333 1.333 0 0 1-.895-1.66Z" clip-rule="evenodd"/>
  <path fill="#333" fill-rule="evenodd" d="M34.667 61.334c.737 0 1.334.597 1.334 1.333v9.334a1.333 1.333 0 0 1-2.667 0v-9.334c0-.736.597-1.333 1.333-1.333ZM13.744 21.486a1.333 1.333 0 0 1-.82 1.698A9.338 9.338 0 0 0 6.667 32v8A1.333 1.333 0 1 1 4 40v-8c0-5.244 3.363-9.7 8.046-11.333a1.333 1.333 0 0 1 1.698.82Z" clip-rule="evenodd"/>
  <path fill="#333" fill-rule="evenodd" d="M16 9.333c-2.829 0-5.333 2.563-5.333 6 0 3.436 2.504 6 5.333 6s5.333-2.564 5.333-6c0-3.437-2.504-6-5.333-6Zm-8 6c0-4.664 3.465-8.667 8-8.667s8 4.003 8 8.667-3.465 8.666-8 8.666-8-4.002-8-8.666ZM10.667 32c.737 0 1.334.597 1.334 1.333v9.334a1.333 1.333 0 0 1-2.667 0v-9.334c0-.736.597-1.333 1.333-1.333Zm43.209 4.08a1.333 1.333 0 0 1 1.667-.882c4.897 1.511 8.458 6.072 8.458 11.468V52a1.333 1.333 0 0 1-2.667 0v-5.334a9.338 9.338 0 0 0-6.577-8.92 1.333 1.333 0 0 1-.881-1.667Z" clip-rule="evenodd"/>
  <path fill="#333" fill-rule="evenodd" d="M52 24c-2.829 0-5.333 2.564-5.333 6 0 3.437 2.504 6 5.333 6s5.333-2.563 5.333-6c0-3.436-2.504-6-5.333-6Zm-8 6c0-4.663 3.465-8.666 8-8.666s8 4.003 8 8.667-3.465 8.666-8 8.666-8-4.002-8-8.666Zm22.11-8.543a1.333 1.333 0 0 1 1.686-.843C72.561 22.202 76 26.698 76 32v8a1.333 1.333 0 0 1-2.666 0v-8a9.34 9.34 0 0 0-6.38-8.857 1.333 1.333 0 0 1-.843-1.686Z" clip-rule="evenodd"/>
  <path fill="#333" fill-rule="evenodd" d="M64 9.333c-2.829 0-5.333 2.563-5.333 6 0 3.436 2.504 6 5.333 6s5.333-2.564 5.333-6c0-3.437-2.504-6-5.333-6Zm-8 6c0-4.664 3.465-8.667 8-8.667s8 4.003 8 8.667-3.465 8.666-8 8.666-8-4.002-8-8.666ZM40 38.667c-2.829 0-5.333 2.563-5.333 6 0 3.436 2.504 6 5.333 6s5.333-2.564 5.333-6c0-3.437-2.504-6-5.333-6Zm-8 6C32 40.003 35.465 36 40 36s8 4.003 8 8.667-3.465 8.666-8 8.666-8-4.002-8-8.666Z" clip-rule="evenodd"/>
</svg>
