<svg width="80" height="80" xmlns="http://www.w3.org/2000/svg" fill="none" viewBox="0 0 80 80">
  <rect width="82.667" height="42.667" x="-4.313" y="54.143" fill="#59CBE8" rx="15.5" transform="rotate(-45 -4.313 54.143)"/>
  <path fill="#fff" d="M13.334 28a2.667 2.667 0 0 1 2.667-2.666h48a2.667 2.667 0 0 1 2.666 2.667v24a2.667 2.667 0 0 1-2.666 2.666H16a2.667 2.667 0 0 1-2.667-2.666V28Z"/>
  <path fill="#333" fill-rule="evenodd" d="M12 28a4 4 0 0 1 4-4h48a4 4 0 0 1 4 4v24a4 4 0 0 1-4 4H16a4 4 0 0 1-4-4V28Zm4-1.333c-.736 0-1.333.597-1.333 1.333v24c0 .736.597 1.333 1.333 1.333h48c.736 0 1.333-.597 1.333-1.333V28c0-.736-.597-1.333-1.333-1.333H16Z" clip-rule="evenodd"/>
  <path fill="#333" fill-rule="evenodd" d="M20 40c0-.737.597-1.334 1.333-1.334h4a1.333 1.333 0 1 1 0 2.667h-4A1.333 1.333 0 0 1 20 39.999Zm33.334 0c0-.737.597-1.334 1.333-1.334h4a1.333 1.333 0 1 1 0 2.667h-4a1.333 1.333 0 0 1-1.333-1.334Z" clip-rule="evenodd"/>
  <circle cx="39.999" cy="39.999" r="5.333" fill="#59CBE8"/>
  <path fill="#333" fill-rule="evenodd" d="M38.666 34.667c0-.736.597-1.333 1.333-1.333a6.667 6.667 0 0 1 0 13.333 1.333 1.333 0 0 1 0-2.666 4 4 0 1 0 0-8 1.333 1.333 0 0 1-1.333-1.334Zm24 33.333c0-.737.597-1.334 1.333-1.334h2.667a1.333 1.333 0 0 1 0 2.667h-2.667a1.333 1.333 0 0 1-1.333-1.334ZM12 12c0-.737.597-1.334 1.333-1.334H16a1.333 1.333 0 0 1 0 2.667h-2.667A1.333 1.333 0 0 1 12 11.999Zm36.944-6.275a1.333 1.333 0 0 0-1.886 1.885l3.057 3.057H22.667a1.333 1.333 0 0 0 0 2.667h27.448l-3.057 3.057a1.333 1.333 0 1 0 1.886 1.886l5.333-5.334c.52-.52.52-1.364 0-1.885l-5.334-5.333ZM31.058 61.724a1.333 1.333 0 0 1 1.886 1.886l-3.058 3.057h27.448a1.333 1.333 0 0 1 0 2.667H29.886l3.058 3.057a1.333 1.333 0 1 1-1.886 1.886l-5.334-5.334a1.333 1.333 0 0 1 0-1.885l5.334-5.334Z" clip-rule="evenodd"/>
</svg>
