<?xml version="1.0" encoding="utf-8"?>
<!-- Generator: Adobe Illustrator 20.1.0, SVG Export Plug-In . SVG Version: 6.00 Build 0)  -->
<svg version="1.1" id="Layer_1" xmlns="http://www.w3.org/2000/svg" xmlns:xlink="http://www.w3.org/1999/xlink" x="0px" y="0px"
	 viewBox="0 0 150 77" style="enable-background:new 0 0 150 77;" xml:space="preserve">
<style type="text/css">
	.st0{fill:#FFFFFF;}
	.st1{fill:#E22426;}
	.st2{fill:#1C1448;}
	.st3{fill:#B01F26;}
</style>
<g>
	<g>
		<path class="st0" d="M19.22,18.43V0.39h12.52v3.53h-8.92v3.12h5.18v3.5h-5.18v4.35h9.3v3.53H19.22z"/>
		<path class="st0" d="M44.11,18.43l-1.62-2.73c-0.64-1.08-1.62-2.86-1.96-3.53c-0.31,0.67-1.29,2.4-1.96,3.53l-1.62,2.73h-4.3
			l5.72-9.22L32.9,0.39h4.3l1.37,2.32c0.64,1.08,1.62,2.86,1.96,3.53c0.33-0.67,1.29-2.4,1.96-3.53l1.37-2.32h4.3l-5.49,8.81
			l5.75,9.22H44.11z"/>
		<path class="st0" d="M56.94,12.04h-3.97v6.39h-3.61V0.39h7.88c3.4,0,6.21,1.88,6.21,5.72C63.46,10.29,60.68,12.04,56.94,12.04z
			 M57.12,3.9h-4.15v4.64h4.2c1.67,0,2.58-0.77,2.58-2.34S58.72,3.9,57.12,3.9z"/>
		<path class="st0" d="M72.58,18.71c-4.72,0-7.94-3.45-7.94-9.28c0-5.82,3.27-9.33,7.99-9.33c4.69,0,7.91,3.45,7.91,9.28
			C80.54,15.21,77.27,18.71,72.58,18.71z M72.56,3.69c-2.52,0-4.2,2.04-4.2,5.69c0,3.66,1.75,5.75,4.28,5.75s4.2-2.04,4.2-5.69
			C76.83,5.78,75.08,3.69,72.56,3.69z"/>
		<path class="st0" d="M92.65,18.43l-3.22-6.49H85.8v6.49h-3.61V0.39h8.4c3.4,0,6.21,1.88,6.21,5.72c0,2.71-1.16,4.41-3.45,5.31
			l3.45,7.01H92.65z M90.51,3.9H85.8v4.64h4.72c1.67,0,2.58-0.77,2.58-2.34C93.09,4.57,92.11,3.9,90.51,3.9z"/>
		<path class="st0" d="M106.36,3.95v14.48h-3.61V3.95h-5.18V0.39h13.97v3.56H106.36z"/>
		<path class="st0" d="M113.01,18.43V0.39h3.61v18.04H113.01z"/>
		<path class="st0" d="M129.68,18.43l-6.62-9.84c-0.44-0.67-1.03-1.57-1.26-2.04c0,0.67,0.05,2.94,0.05,3.94v7.94h-3.56V0.39h3.45
			l6.39,9.53c0.44,0.67,1.03,1.57,1.26,2.04c0-0.67-0.05-2.94-0.05-3.94V0.39h3.56v18.04H129.68z"/>
		<path class="st0" d="M142.2,18.71c-4.72,0-7.88-3.61-7.88-9.3c0-5.49,3.3-9.3,8.01-9.3c3.68,0,5.64,1.73,6.83,4.51l-3.43,1.42
			c-0.67-1.34-1.49-2.34-3.45-2.34c-2.71,0-4.25,2.37-4.25,5.72c0,3.32,1.57,5.77,4.28,5.77c2.47,0,3.32-1.16,3.53-2.73h-2.86V9.08
			h6.47v2.37C149.44,16.09,146.37,18.71,142.2,18.71z"/>
		<path class="st0" d="M19.22,39.97V21.93h3.61v18.04H19.22z"/>
		<path class="st0" d="M31.49,40.25c-3.01,0-5.64-1.26-7.01-3.27l2.6-2.32c1.26,1.47,2.89,2.06,4.61,2.06
			c2.14,0,3.14-0.59,3.14-1.96c0-1.16-0.62-1.67-4.02-2.45c-3.32-0.77-5.64-1.83-5.64-5.39c0-3.27,2.89-5.28,6.44-5.28
			c2.81,0,4.87,1.06,6.57,2.83l-2.6,2.53c-1.16-1.19-2.45-1.86-4.1-1.86c-1.93,0-2.58,0.82-2.58,1.62c0,1.13,0.77,1.49,3.63,2.16
			c2.86,0.67,6.03,1.65,6.03,5.57C38.57,37.93,36.41,40.25,31.49,40.25z"/>
	</g>
	<g>
		<rect x="19.23" y="43.46" class="st1" width="85.65" height="24.86"/>
		<path class="st0" d="M34.09,58.36h-2.88v-3.34h6.46v2.88c0,4.59-3.04,7.2-7.17,7.2c-4.67,0-7.81-3.57-7.81-9.21
			c0-5.44,3.27-9.21,7.94-9.21c3.65,0,5.59,1.71,6.76,4.47l-3.39,1.4c-0.66-1.33-1.48-2.32-3.42-2.32c-2.68,0-4.21,2.35-4.21,5.67
			c0,3.29,1.56,5.72,4.24,5.72c2.95,0,3.38-1.84,3.5-2.7c0.02-0.23,0.03-0.35,0.03-0.54"/>
		<path class="st0" d="M51,64.82l-3.19-6.43h-3.6v6.43h-3.57V46.96h8.32c3.37,0,6.15,1.86,6.15,5.67c0,2.68-1.15,4.36-3.42,5.26
			l3.42,6.94H51 M48.88,50.43h-4.67v4.59h4.67c1.66,0,2.55-0.76,2.55-2.32C51.44,51.09,50.47,50.43,48.88,50.43z"/>
		<polyline class="st0" points="57.82,64.82 57.82,46.96 70.22,46.96 70.22,50.45 61.39,50.45 61.39,54.15 68.01,54.15 68.01,57.63 
			61.39,57.63 61.39,61.33 70.22,61.33 70.22,64.82 57.82,64.82 		"/>
		<path class="st0" d="M85.14,64.82h3.93l-6.79-17.87h-3.47l-6.84,17.87h3.83c0,0,0.58-1.66,1.34-3.8h6.66
			C84.56,63.17,85.14,64.82,85.14,64.82 M78.33,57.63c1.06-3.01,2.06-5.9,2.14-6.2c0.08,0.31,1.08,3.19,2.14,6.2H78.33z"/>
		<polyline class="st0" points="96.24,50.48 96.24,64.82 92.67,64.82 92.67,50.48 87.54,50.48 87.54,46.96 101.38,46.96 
			101.38,50.48 96.24,50.48 		"/>
		<g>
			<path class="st0" d="M21.11,75.96h-1.88v-4.15h1.9c0.8,0,1.31,0.38,1.31,1.09c0,0.36-0.17,0.64-0.44,0.81
				c0.33,0.15,0.58,0.45,0.58,0.91C22.58,75.5,22,75.96,21.11,75.96z M21.09,72.58h-1.05v0.79h1.1c0.34,0,0.47-0.16,0.47-0.39
				C21.6,72.72,21.45,72.58,21.09,72.58z M21.14,74.1h-1.1v1.07h1.1c0.4,0,0.59-0.21,0.59-0.54C21.73,74.28,21.54,74.1,21.14,74.1z"
				/>
			<path class="st0" d="M25.54,75.96l-0.74-1.49h-0.83v1.49h-0.83v-4.15h1.93c0.78,0,1.43,0.43,1.43,1.31
				c0,0.62-0.27,1.01-0.79,1.22l0.79,1.61H25.54z M25.05,72.62h-1.08v1.07h1.08c0.38,0,0.59-0.18,0.59-0.54
				C25.64,72.78,25.41,72.62,25.05,72.62z"/>
			<path class="st0" d="M27.12,75.96v-4.15h0.83v4.15H27.12z"/>
			<path class="st0" d="M30.42,72.64v3.33h-0.83v-3.33H28.4v-0.82h3.21v0.82H30.42z"/>
			<path class="st0" d="M34.19,75.96l-0.33-0.92h-1.52l-0.33,0.92h-0.89l1.59-4.15h0.81l1.57,4.15H34.19z M33.31,73.5
				c-0.08-0.24-0.17-0.49-0.21-0.65c-0.04,0.15-0.12,0.4-0.21,0.65l-0.27,0.75h0.95L33.31,73.5z"/>
			<path class="st0" d="M35.63,75.96v-4.15h0.83v4.15H35.63z"/>
			<path class="st0" d="M39.78,75.96l-1.52-2.26c-0.1-0.15-0.24-0.36-0.29-0.47c0,0.15,0.01,0.68,0.01,0.91v1.82h-0.82v-4.15h0.79
				l1.47,2.19c0.1,0.15,0.24,0.36,0.29,0.47c0-0.16-0.01-0.68-0.01-0.91v-1.75h0.82v4.15H39.78z"/>
			<path class="st0" d="M45.54,75.96l-0.31-0.34c-0.33,0.27-0.72,0.4-1.21,0.4c-0.85,0-1.36-0.36-1.36-1.1
				c0-0.58,0.32-0.93,0.85-1.19l-0.11-0.12c-0.22-0.24-0.36-0.51-0.36-0.84c0-0.67,0.53-1.02,1.23-1.02c0.51,0,0.84,0.15,1.24,0.43
				l-0.4,0.6c-0.27-0.21-0.57-0.3-0.86-0.3c-0.24,0-0.39,0.1-0.39,0.27c0,0.18,0.09,0.3,0.22,0.45l1.14,1.3
				c0.09-0.19,0.19-0.41,0.29-0.69l0.67,0.21c-0.13,0.4-0.28,0.75-0.47,1.04l0.78,0.89H45.54z M43.95,74.22
				c-0.33,0.17-0.46,0.38-0.46,0.63c0,0.27,0.21,0.44,0.63,0.44c0.26,0,0.47-0.06,0.64-0.18L43.95,74.22z"/>
			<path class="st0" d="M50.83,75.96l-1.52-2.26c-0.1-0.15-0.24-0.36-0.29-0.47c0,0.15,0.01,0.68,0.01,0.91v1.82h-0.82v-4.15h0.79
				l1.47,2.19c0.1,0.15,0.24,0.36,0.29,0.47c0-0.16-0.01-0.68-0.01-0.91v-1.75h0.82v4.15H50.83z"/>
			<path class="st0" d="M53.92,76.03c-1.13,0-1.8-0.88-1.8-2.14c0-1.26,0.67-2.14,1.8-2.14c1.13,0,1.8,0.88,1.8,2.14
				C55.72,75.15,55.05,76.03,53.92,76.03z M53.92,72.58c-0.67,0-0.95,0.57-0.95,1.31c0,0.74,0.28,1.31,0.95,1.31
				c0.67,0,0.95-0.57,0.95-1.31C54.87,73.15,54.59,72.58,53.92,72.58z"/>
			<path class="st0" d="M58.68,75.96l-0.74-1.49H57.1v1.49h-0.83v-4.15h1.93c0.78,0,1.43,0.43,1.43,1.31c0,0.62-0.27,1.01-0.79,1.22
				l0.79,1.61H58.68z M58.19,72.62H57.1v1.07h1.08c0.38,0,0.59-0.18,0.59-0.54C58.78,72.78,58.55,72.62,58.19,72.62z"/>
			<path class="st0" d="M61.81,72.64v3.33h-0.83v-3.33h-1.19v-0.82H63v0.82H61.81z"/>
			<path class="st0" d="M65.91,75.96v-1.74h-1.7v1.74h-0.83v-4.15h0.83v1.59h1.7v-1.59h0.83v4.15H65.91z"/>
			<path class="st0" d="M67.51,75.96v-4.15h2.88v0.81h-2.05v0.72h1.19v0.8h-1.19v1h2.14v0.81H67.51z"/>
			<path class="st0" d="M73.47,75.96l-0.74-1.49h-0.83v1.49h-0.83v-4.15h1.93c0.78,0,1.43,0.43,1.43,1.31
				c0,0.62-0.27,1.01-0.79,1.22l0.79,1.61H73.47z M72.98,72.62h-1.08v1.07h1.08c0.38,0,0.59-0.18,0.59-0.54
				C73.57,72.78,73.34,72.62,72.98,72.62z"/>
			<path class="st0" d="M77.61,75.96l-1.52-2.26c-0.1-0.15-0.24-0.36-0.29-0.47c0,0.15,0.01,0.68,0.01,0.91v1.82h-0.82v-4.15h0.79
				l1.47,2.19c0.1,0.15,0.24,0.36,0.29,0.47c0-0.16-0.01-0.68-0.01-0.91v-1.75h0.82v4.15H77.61z"/>
			<path class="st0" d="M80.84,75.96v-4.15h0.83v4.15H80.84z"/>
			<path class="st0" d="M84.9,75.96l-0.74-1.49h-0.83v1.49h-0.83v-4.15h1.93c0.78,0,1.43,0.43,1.43,1.31c0,0.62-0.27,1.01-0.79,1.22
				l0.79,1.61H84.9z M84.4,72.62h-1.08v1.07h1.08c0.38,0,0.59-0.18,0.59-0.54C85,72.78,84.77,72.62,84.4,72.62z"/>
			<path class="st0" d="M86.54,75.96v-4.15h2.88v0.81h-2.05v0.72h1.19v0.8h-1.19v1h2.14v0.81H86.54z"/>
			<path class="st0" d="M90.09,75.96v-4.15h0.83v3.33H93v0.82H90.09z"/>
			<path class="st0" d="M96.22,75.96l-0.33-0.92h-1.51l-0.32,0.92h-0.89l1.59-4.15h0.81l1.57,4.15H96.22z M95.35,73.5
				c-0.08-0.24-0.17-0.49-0.21-0.65c-0.04,0.15-0.13,0.4-0.21,0.65l-0.27,0.75h0.95L95.35,73.5z"/>
			<path class="st0" d="M100.11,75.96l-1.52-2.26c-0.1-0.15-0.24-0.36-0.29-0.47c0,0.15,0.01,0.68,0.01,0.91v1.82h-0.82v-4.15h0.79
				l1.47,2.19c0.1,0.15,0.24,0.36,0.29,0.47c0-0.16-0.01-0.68-0.01-0.91v-1.75h0.82v4.15H100.11z"/>
			<path class="st0" d="M102.73,75.96h-1.24v-4.15h1.3c1.18,0,2.06,0.56,2.06,2.07C104.85,75.35,103.8,75.96,102.73,75.96z
				 M102.76,72.62h-0.44v2.54h0.41c0.87,0,1.27-0.51,1.27-1.27C104,73.04,103.64,72.62,102.76,72.62z"/>
		</g>
	</g>
	<rect x="0.3" y="0.39" class="st0" width="14.54" height="67.95"/>
	<g>
		<polygon class="st2" points="0.83,0.39 8.15,15.07 8.15,0.39 		"/>
		<polygon class="st2" points="7.29,28.78 0.3,14.76 0.3,28.78 		"/>
		<polygon class="st2" points="7.2,40.1 0.3,40.1 0.3,53.93 		"/>
		<polygon class="st2" points="8.15,68.34 8.15,53.67 0.84,68.34 8.15,68.34 		"/>
		<polygon class="st3" points="8.15,27.93 8.15,22.66 0.3,6.87 0.3,12.14 		"/>
		<polygon class="st3" points="8.15,51.06 8.15,45.79 0.3,61.57 0.3,66.84 		"/>
		<polygon class="st3" points="10.37,0.39 10.37,31 0.3,31 0.3,37.88 10.37,37.88 10.37,68.34 14.84,68.34 14.84,0.39 		"/>
	</g>
</g>
<g>
</g>
<g>
</g>
<g>
</g>
<g>
</g>
<g>
</g>
<g>
</g>
<g>
</g>
<g>
</g>
<g>
</g>
<g>
</g>
<g>
</g>
<g>
</g>
<g>
</g>
<g>
</g>
<g>
</g>
</svg>
