<svg width="678" height="390" viewBox="0 0 678 390" fill="none" xmlns="http://www.w3.org/2000/svg">
<path fill-rule="evenodd" clip-rule="evenodd" d="M601.137 309.543L603.898 307.764L601.827 306.045L601.295 303.64L601.565 303.757L601.209 303.25L601.197 303.194L601.157 303.177L600.201 301.813L600.601 300.061L599.916 297.052L601.106 296.305L601.064 293.464L599.694 293.129L599.639 289.053L597.77 288.168L596.287 284.232L596.309 284.186L596.246 284.122L596.107 283.75L596.034 283.903L592.355 280.117L590.917 280.945L585.819 275.274L576.402 269.056L571.238 266.983L567.371 268.347L559.592 266.593L553.163 267.732L547.357 265.19L547.362 265.086L547.19 265.117L546.995 265.032L546.989 265.153L532.016 267.803L531.954 267.813L529.114 270.927L528.479 277.908L523.924 284.085L518.62 283.311L518.33 283.182L518.265 283.375L518.089 283.315L516.948 286.73L513.107 289.135L508.631 290.572L506.416 294.668L501.871 296.319L501.277 295.38L498.749 295.924L496.195 297.818L492.872 295.866L491.512 295.714L490.102 297.961L486.855 295.792L484.755 297.171L479.048 298.074L476.369 299.616L477.528 301.164L476.208 304.413L478.313 306.056L480.933 305.642C482.397 309.154 482.41 309.168 482.455 309.216C482.51 309.284 484.057 311.227 484.725 312.067L485.205 315.094L484.307 315.384L482.654 320.097C482.218 320.217 481.661 320.369 481.622 320.378C481.471 320.402 481.471 320.402 476.93 324.787L476.704 325.005L476.882 325.265C477.266 325.82 477.697 326.45 477.799 326.611C477.851 326.737 478.052 326.892 479.187 327.751L479.372 328.257L475.203 329.499L476.243 330.024L473.914 334.196L473.909 334.897L471.104 332.713L468.112 334.352L469.632 337.315L468.561 340.778C467.618 340.883 466.055 341.059 466.022 341.064C465.988 341.069 465.963 341.073 462.554 342.654L462.507 342.676L461.163 344.695L460.196 344.584L460.221 345.646L456.961 347.214L457.6 350.132L459.48 352.44L457.115 354.359L457.191 355.201L455.897 356.057L453.517 351.962L448.393 351.703L448.673 352.858L441.797 355.658L442.138 358.317L442.247 358.294L439.862 360.96L439.813 360.655L435.154 360.432L434.466 355.123L433.456 355.13L433.94 351.584L433.051 351.044L436.281 349.854L431.13 343.635L429.928 345.136L429.141 349.606L422.928 350.507L422.413 352.679L421.486 353.583L421.23 357.1L415.169 356.232L412.611 356.907L411.815 356.279L409.128 352.017L408.105 351.198L406.941 349.3L406.31 350.442L402.884 353.056L400.696 353.087L403.41 357.482L402.752 359.024L398.591 355.405L391.592 359.384L388.298 358.777L386.962 360.066L385.961 359.237L387.436 356.479L384.132 355.934L383.731 358.487L384.706 360.319L379.329 362.94L378.894 363.015L377.351 363.277L375.06 358.335L371.808 358.681L372.121 359.638L371.236 360.575L369.314 359.012L368.19 357.082L366.221 363.379L367.518 365.08C367.488 365.892 367.491 365.913 367.495 365.934C367.499 365.963 367.502 365.981 369.202 370.08L367.299 370.381L365.112 372.391L361.42 373.049L361.526 373.994L359.746 373.261L357.448 376.424L356.212 379.284L356.788 382.916L355.22 385.041L355.492 387.034L356.235 387.529L355.723 387.745L356.037 389.538L355.337 390.294L355.129 391.746L355.963 391.536L355.428 392.256L355.707 393.54L356.511 393.308L356.78 394.889L357.547 395.77L360.167 390.086L364.155 387.536L366.967 384.248L370.751 381.601L369.228 380.56L369.168 379.304L372.842 382.358L366.776 387.068L364.307 390.445L364.172 390.631L357.991 397.255L354.721 404.398L356.464 407.533L355.469 407.722L354.504 406.083L352.724 405.447L350.707 406.121L345.346 412.386L344.961 416.017L338.842 415.109L340.214 417.462L337.936 420.016L338.549 423.885L336.814 423.126L336.713 427.134L337.98 429.484L337.368 430.096L338.651 432.579L337.386 433.798L338.733 437.785L337.904 439.174L336.053 437.265L336.761 431.386L335.102 432.634L332.488 433.072L325.247 434.284L322.498 435.865L320.923 434.942L313.659 434.855L312.477 432.943L310.365 432.514L310.217 431.027L304.925 429.864L304.853 431.032L296.664 430.732L293.772 429.704L288.139 430.247L287.632 431.556L285.349 430.824L278.432 431.431L277.299 432.95L273.662 431.971L268.483 433.269L267.515 437.598L265.852 437.488L266.343 439.957L269.344 444.081L274.889 442.915L276.103 443.723L271.1 444.597L269.257 449.545L268.129 450.032L268.95 446.768L267.421 446.195L265.646 446.99L262.896 450.743L259.66 451.561L256.81 449.654L254.789 449.884L250.856 448.727L249.416 450.389L248.999 456.933L247.415 458.175L248.347 464.501L247.607 469.389L242.064 474.544L242.325 475.852L239.942 478.655L238.308 478.966L235.431 481.155L235.141 485.51L232.647 488.082L230.881 485.825L229.058 487.901L225.839 487.407L226.21 490.723L224.81 489.972L222.01 491.866L221.377 491.006L219.949 491.924L220.502 494.947L219.041 495.6L219.212 499.632L216.709 503.674L214.589 503.197L212.488 504.476L213.379 506.358L211.429 510.994L207.824 512.327L206.569 515.002L204.626 516.215L202.594 518.585L198.8 518.236L195.766 523.565L193.374 523.1L192.394 520.552L190.439 520.682L190.4 520.706L187.527 522.458C187.474 522.486 187.439 522.504 185.466 525.286L181.574 525.99L178.734 529.3L180.061 530.329L180.21 532.201L178.776 533.257L178.631 535.363L180.293 535.864L181.511 537.879L188.733 535.414L189.625 532.833L188.778 530.781L190.177 529.059L193.283 529.962L194.406 531.934L197.352 531.953L198.544 533.167L200.453 532.54L203.176 534.584L204.927 538.955L204.426 541.303L206.106 544.444L208.831 545.517L211.151 541.867L214.859 541.778L217.845 537.613L216.05 534.19L212.857 533.167L212.775 532.25L215.276 532.7L216.456 528.985L218.008 528.546L217.167 526.949L217.456 524.429L215.947 523.37C216.28 523.095 216.607 522.829 216.717 522.75C216.961 522.758 218.075 522.822 218.908 522.871L219.169 529.086L221.628 527.937L222.636 524.639L225.868 524.181L228.859 520.981L233.402 521.407L234.76 519.371L233.71 518.055L234.18 515.979L235.632 514.558L235.508 512.444L239.272 510.621C239.593 511.843 240.028 513.517 240.047 513.619L240.048 513.722L240.134 513.777C240.253 513.853 240.263 513.86 242.481 512.833C242.737 512.715 242.93 512.624 242.992 512.598L245.983 512.206L251.758 512.929L252.055 511.014L250.784 509.448L250.836 508.424L253.45 510.071L262.014 509.406L265.275 511.454L265.819 514.123L268.756 514.148L268.354 512.066L269.68 511.878L269.644 510.136L269.43 510.176C268.341 510.378 267.886 510.47 267.685 510.536C267.469 510.437 266.671 509.983 266.061 509.628L266.572 508.221L261.012 506.801L261.502 505.548L262.361 506.461L262.419 506.473C265.699 507.13 265.724 507.126 265.768 507.119C265.828 507.109 265.848 507.106 267.123 506.07L267.284 506.319L267.47 506.606L267.498 506.648L269.385 509.563L271.772 510.24L271.651 511.475L271.502 511.465L271.629 511.708L271.616 511.843L271.702 511.85L272.831 514.027L272.941 514.028C273.54 514.039 274.46 514.057 274.799 514.07C274.843 514.482 274.88 514.896 274.909 515.31L274.919 515.445L277.741 516.114L280.377 515.365L283.322 516.576L287.948 516.603L286.902 521.266L287.012 521.336C287.685 521.765 288.775 522.47 288.917 522.577C289.009 522.721 289.296 523.107 290.215 524.315L290.278 524.398L292.856 524.125L292.555 522.228L295.559 525.735L297.784 523.016L299.813 523.359L299.865 518.104L300.923 514.369L302.733 514.351L305.006 513.496L304.208 511.492C305.714 512.587 305.736 512.591 305.788 512.599L305.847 512.6C305.888 512.594 305.945 512.585 307.695 511.556L307.791 511.499L307.656 509.236L309.368 508.504L309.688 508.45L309.632 508.392L310.816 507.886L309.383 508.126L308.005 506.66L305.192 506.354L304.954 504.297L307.415 500.456L308.888 499.394L307.987 496.625L307.933 496.459L307.854 496.218L307.3 494.519L304.956 494.738L304.877 493.931L309.917 492.854L311.284 491.012L311.265 489.053L312.811 487.67L311.58 487.094L310.649 482.018L310.379 480.552L311.412 480.967L311.862 483.803L313.369 485.045L313.722 488.027L317.139 488.503L317.238 486.504L320.082 485.879L321.309 484.31L321.25 482.793L323.083 481.884L332.064 480.523L332.175 480.506L332.594 479.268L340.427 478.357L340.406 478.455L340.712 478.324L340.816 478.312L340.824 478.276L344.001 476.923C346.405 477.696 346.81 477.82 346.913 477.834C347.03 477.846 349.255 478.159 350.752 478.374L353.636 480.442L360.211 483.924L365.312 488.328L367.011 490.727L368.452 490.569L369.415 492.64L367.784 495.609L370.049 495.382L371.694 493.909L371.076 491.708L369.665 490.23L369.347 488.379L370.272 485.562L372.804 485.186L375.147 486.554L375.364 486.596L375.363 486.603L375.718 486.663L375.73 486.666L381.296 487.607L386.675 487.28L389.134 489.204L391.63 489.057L392.739 490.482L397.255 489.72L398.432 488.248L398.12 486.879L399.699 484.673L398.651 481.757L389.386 480.707L389.641 479.62L392.985 478.194L392.442 476.6L393.411 476.356L394.142 476.175C394.949 476.573 396.19 477.189 396.366 477.293C396.484 477.46 396.857 477.928 398.077 479.431L398.144 479.513L400.842 479.087L401.755 477.56L401.864 477.548L402.12 477.521L405.696 477.117C407.039 477.783 407.291 477.901 407.38 477.915C407.485 477.929 408.954 478.226 409.915 478.423L410.366 478.514L409.151 476.753L413.384 475.75L414.794 475.414L417.441 476.872L419.929 478.617L422.446 475.475L422.312 473.787L424.596 473.813L433.536 470.695L433.608 470.67L434.957 467.899L425.821 460.285L425.571 459.045L429.521 461.397L430.155 458.909L431.537 461.609L432.466 463.428L434.51 463.078L436.387 466.436L440.08 469.069L440.342 469.255L440.403 469.298L444.301 472.075L445.321 470.625L445.976 470.426L446.208 470.58L447.96 471.752L450.119 470.181L449.99 467.03L451.232 465.211L454.352 465.436L456.427 464.71L456.668 464.627L456.776 464.589L457.169 467.511L458.919 467.396L459.059 465.627L460.529 464.593L461.307 467.657L459.221 468.959L459.836 471.737L462.19 474.456L465.989 476.011L465.44 472.47L466.343 470.749L468.587 471.992L468.29 470.45L473.744 470.021L473.762 470.018L480.823 467.942L483.208 468.43L485.099 468.104L485.365 468.059L485.468 468.042L489.366 467.37L491.457 466.149L497.431 464.97L503.955 466.271L507.158 467.093L514.561 468.988L516.229 470.632L518.556 471.219L521.894 472.057L521.875 472.231L522.117 472.113L522.256 472.148L522.269 472.039L528.169 469.161L528.77 466.752L529.78 465.913L531.128 464.798L531.257 464.746L534.85 463.305L539.038 462.459L540.312 462.204L541.624 461.033L544.43 461.049L547.723 459.431L548.829 458.89L551.267 455.298L552.958 451.726L558.581 453.597L558.779 453.613L558.78 453.616L565.513 454.138L564.674 449.068L566.45 446.209L566.058 444.38L570.546 441.535L570.964 440.208L577.502 439.424L578.633 437.027L583.472 435.881L585.287 433.565L588.725 429.876L589.329 428.013L588.956 423.025L588.955 423.011L587.77 417.68L586.4 418.738L584.35 419.011L583.861 416.188L586.357 416.848L590.831 413.979L589.965 409.617L587.239 408.987L580.126 411.365L579.285 409.817L579.15 409.845C579.055 409.865 569.647 411.843 569.532 411.865C569.461 411.877 569.442 411.88 567.461 413.64L562.579 415.189L562.512 415.21L562.188 415.313L562.128 415.333L559.268 417.128L559.227 416.096L555.673 415.473L553.25 413.676L551.244 414.505L551.063 412.2L549.356 408.969L547.148 409.356L546.28 412.531L543.1 413.034L540.066 410.782L537.409 412.064L537.968 410.067L548.955 405.837L548.509 405.663C542.263 403.218 542.245 403.221 542.178 403.232C542.165 403.234 542.131 403.24 534.599 405.247L534.462 404.917L534.343 405.316L534.239 405.343L534.295 405.478L533.838 407.005L528.531 407.602L525.233 405.472L523.54 406.438L521.335 404.986L520.263 405.971L520.209 405.932L519.951 405.743L518.457 404.665L519.262 403.681L518.108 402.234L514.532 401.482L514.395 401.175L514.29 401.432L514.085 401.388L514.201 401.647L513.866 402.461L511.256 403.028L511.212 402.983L510.95 402.711L513.14 402.122L513.21 400.9L516.222 400.974L519.336 401.051L520.205 402.896L520.185 402.934L520.235 402.962L520.303 403.105L520.373 403.253L520.499 403.521L520.928 404.431L524.986 404.495L526.356 406.047L530.531 406.164L534.473 401.76L539.178 400.69L537.599 398.916L539.019 398.43L539.81 401.106L542.303 401.667L542.296 399.601L540.24 397.703L543.654 398.39L543.837 398.399L544.096 398.412L544.093 398.406L548.319 398.523L551.183 399.181L554.2 397.582L554.405 397.599L554.377 397.489L554.807 397.262L554.308 397.219L553.873 395.501L550.055 394.739L549.739 394.232L555.671 393.228L555.84 396.843L561.754 390.392L555.894 391.574L554.515 389.772L560.424 387.983L561.46 385.219L559.688 378.125L551.736 383.884L548.863 384.474L546.715 382.009L546.197 380.311L552.632 379.212L557.782 376.301L555.167 375.614L557.027 373.968L559.304 373.929L560.602 375.474L563.342 373.35L560.156 371.798L561.102 368.294L562.764 369.107L564.813 371.055L566.499 370.309C565.941 372.706 565.945 372.729 565.952 372.776C565.966 372.863 565.968 372.872 568.722 375.422L568.814 375.506L574.341 372.923L574.373 372.907L579.743 367.088L579.486 365.201L576.393 367.093L575.265 364.534L577.548 363.039L578.597 359.971L577.5 359.075L567.019 360.153L566.074 358.784L571.047 357.29L574.136 358.595L578.134 358.222L576.661 355.382L572.707 353.756L572.678 353.086L572.405 352.857L572.657 352.784L574.356 353.188L574.617 353.249L574.74 353.279L577.652 353.967L579.907 360.023L582.832 357.577L583.736 354.415L580.309 347.604L578.55 346.586L579.347 344.918L580.886 343.933L584.704 353.775L586.759 353.45L587.241 351.457L589.573 348.053L594.203 345.868L596.156 337.676L596.256 334.14L597.614 325.654L599.426 323.239L601.495 316.027L601.506 315.985L600.992 313.183L601.897 311.403L601.138 309.544L601.137 309.543Z" fill="#3CCEAF"/>
<path fill-rule="evenodd" clip-rule="evenodd" d="M444.669 477.156L444.548 475.532L439.25 476.688L438.248 475.465L438.506 473.701L436.719 472.563L435.972 474.577L436.583 477.23L435.899 478.509L435.525 477.813L435.942 476.11L435.193 472.448L433.712 472.84L432.969 474.848L430.575 476.187L430.238 478.265L426.965 477.55L423.432 479.066L422.373 478.171L419.752 483.71L423.121 482.238L425.415 482.471L433.365 489.329L434.236 488.515L435.161 490.734L436.136 490.925L443.104 488.231L443.113 488.112C443.412 484.291 443.37 484.211 443.334 484.147C443.295 484.074 442.809 483.251 442.55 482.814L447.485 482.271L444.67 477.156L444.669 477.156ZM553.957 406.556L550.783 406.43L549.981 408.601L551.803 411.707L556.912 413.608L563.403 412.425L554.57 408.345L553.957 406.556ZM143.566 542.066L144.714 544.024L145.992 542.669L144.56 540.556L143.566 542.066ZM140.021 549.102L140.206 549.787L142.524 550.191L141.189 548.075L140.021 549.102ZM142.019 547.006L143.549 547.701L145.507 546.959L143.941 544.146L142.019 547.006ZM142.416 545.43L142.577 545.526L143.851 543.868L142.284 542.266L140.21 542.409L140.228 542.598C140.381 544.203 140.393 544.211 140.485 544.271C140.517 544.293 141.846 545.089 142.416 545.43ZM241.836 432.036L240.439 432.922L241.056 436.815L243.244 435.92L241.836 432.036ZM454.022 465.976L451.316 469.691L453.82 470.561L453.853 470.557C454.6 470.462 455.729 470.319 455.883 470.307L455.968 470.325L456.026 470.228C456.1 470.105 456.1 470.105 454.144 466.22L454.022 465.976Z" fill="#8CE2D0"/>
<path fill-rule="evenodd" clip-rule="evenodd" d="M504.292 200.896L502.705 200.265L502.48 198.19L491.934 184.976L492.075 181.026L490.778 179.773L488.992 169.397L494.435 164.244L493.937 162.137L491.724 162.488L490.258 160.537L488.179 161.443L485.323 159.044L483.6 154.929L478.608 151.508L477.152 147.087L474.038 142.65L470.269 133.907L470.247 133.856L463.156 129.252L461.012 129.004L461.543 127.662L456.527 125.954L457.375 124.767L451.069 124.279L448.742 122.213L447.119 123.055L443.966 121.972L442.751 119.693L437.588 117.773L436.865 120.637L436.622 120.558L434.973 120.019L435.848 115.727L435.011 114.498L436.838 113.478L432.358 110.566L432.352 110.557L429.134 106.407L427.643 99.9332L426.984 99.1229L426.94 98.8573L426.324 95.0632L424.482 93.7947L426.095 93.2427L426.204 90.9515L426.21 90.8182L426.221 90.5766L426.228 90.3964L425.259 87.1574L423.536 85.5431L423.449 84.7235L423.322 83.5185L421.201 81.9334L420.91 78.9047L420.904 78.8173L420.886 78.6444L420.791 78.6913L418.842 76.5198L418.446 74.1265L416.214 72.9007L418.919 70.0366L418.351 66.6841L416.847 66.556L415.457 63.9012L414.918 58.6626L416.437 58.2148L412.833 52.6106L413.608 50.611L413.668 44.0778L412.049 40.1858L413.075 38.3414L411.946 37.3082L410.884 33.309L408.303 31.1812L402.75 29.9523L392.973 17.7816L392.813 15.0842L390.979 12.8554L391.066 12.693L390.675 12.4847L390.217 11.9264L390.085 12.1701L389.431 11.8223L387.568 15.3144L380.761 23.5056L379.589 26.3602L377.277 25.8499L373.226 27.7121L382.117 42.8958L373.383 49.4675L373.846 51.7983L367.177 52.8543L364.922 56.1579L362.546 57.9961L355.783 68.59L347.13 75.2554L344.11 78.3215L336.646 80.4326L335.816 87.3657L336.368 87.4313L336.553 87.4542L336.526 87.6833L337.193 87.6177L338.651 89.4153L335.806 89.8152L333.031 91.9742L339.238 91.868L339.392 92.6803L334.175 93.4583L324.58 90.8921L323.823 93.9718L329.749 94.4831L329.182 95.2913L321.189 96.1589L318.025 99.9373L316.841 107.549L310.904 115.418L311.263 117.356L309.109 118.459L309.987 121.672L309.983 121.701L309.954 121.899L309.929 122.068L309.197 127.138L307.771 126.446L307.522 129.384L305.49 130.285L305.519 130.431C305.616 130.919 305.872 132.206 305.887 132.303C305.896 132.356 305.915 132.48 306.686 133.346L309.795 135.454L311.642 137.503L314.354 143.556L314.378 143.608L314.427 143.64C315.914 144.537 318.108 145.872 318.606 146.198C318.385 146.774 317.359 149.28 316.657 150.983L316.629 151.052L319.457 158.346L319.474 158.39L322.444 160.926L325.089 160.339L326.062 159.534L325.593 157.475L327.527 155.929L327.88 157.254L327.948 157.508L327.977 157.613L328.359 159.046L325.42 167.316L331.082 169.169L332.329 167.437L336.539 161.6L336.672 158.468L337.459 153.705L338.732 153.932L338.272 157.572L338.546 161.745L340.888 164.053L345.599 160.4L345.631 160.377L348.934 154.324L350.267 155.2L350.598 157.608L345.897 161.441L345.832 161.493L345.273 161.949L345.938 161.652L347.622 164.195L347.679 164.216C348.724 164.595 350.217 165.138 350.724 165.325C350.332 165.999 349.927 166.665 349.509 167.324L348.707 169.788L344.088 171.392L343.172 175.138L346.335 177.786L345.078 182.695L343.255 182.76L343.201 182.825C342.271 183.971 340.862 185.697 340.693 185.881C340.56 185.97 340.604 186.221 341.595 190.828L339.278 190.229L340.011 188.659L339.058 187.759L339.218 185.107L337.326 184.302L336.074 185.809L336.032 188.535L336.084 188.914L336.504 192.064L335.049 193.259L335.652 197.165L335.154 198.343L335.905 200.899L337.663 200.927L338.557 202.726L341.483 202.415L342.433 201.108L346.038 202.24L344.818 204.328L342.704 202.702L341.371 207.06L340.205 205.805L334.122 214.969L334.09 215.016L334.108 221.244V221.307L335.463 223.077L335.975 227.212L338.038 228.631L339.247 233.065L343.444 236.609L347.741 239.323L347.872 239.297L347.883 239.367L350.913 238.781L351.44 236.85L354.604 236.33L355.714 237.051L351.876 240.033L349.835 241.62L345.259 242.294L342.251 240.84L338.421 234.966C338.33 234.198 338.238 233.431 338.144 232.664C338.136 232.612 338.13 232.571 335.895 229.133L335.788 228.968L335.63 229.086L333.296 230.822C333.182 230.891 331.231 231.863 329.948 232.5L329.879 232.535L328.569 236.503L333.108 241.363L332.733 242.207L332.798 245.592L335.189 246.044L335.085 246.315L335.064 246.32L335.071 246.351L334.849 246.936L335.185 246.862L335.224 247.043L336.589 246.742L341.816 251.714L341.586 252.161L342.469 252.809L341.388 254.407L338.215 254.776L339.82 258.056L343.599 259.691L342.878 260.607L345.345 263.902L345.706 265.945L347.054 268.638L353.098 271.486L354.882 270.139L356.983 270.884L358.241 270.671L358.425 271.417L360.851 273.982L364.281 272.354L367.161 273.717L368.845 272.046L372.446 270.08L374.012 264.435L375.436 262.432L378.909 261.916L378.982 261.864C379.565 261.448 380.495 260.791 380.734 260.629L380.81 260.617L383.934 256.325L385.615 255.202L385.868 252.895L387.613 254.359L392.251 252.507L393.738 250.179L393.29 245.582L393.331 240.288L392.661 236.694L391.494 235.126L393.741 230.95L392.34 230.985L392.309 229.434L393.944 228.584L393.752 227.376L394.699 226.602L394.88 222.925L397.686 220.003L402.234 221.716L403.444 223.981L403.659 225.334L411.346 233.616L410.616 235.697L415.416 240.838L416.464 239.794C419.089 241.072 419.093 241.071 419.24 241.048L419.606 240.989L419.586 240.861C419.929 240.654 420.683 240.213 421.324 239.841L421.637 241.135L423.583 238.341L425.711 238.147L425.917 239.928L429.178 240.345L429.785 239.341L430.775 239.132L433.526 241.523L437.581 239.851L438.083 238.787L439.075 238.889L439.97 237.472L439.071 236.608L440.297 234.942L442.021 230.109L446.585 229.545L450.611 222.812L450.587 220.239L453.185 214.663L460.878 217.051L462.134 214.43L464.028 207.327L464.038 207.288L463.615 204.615L463.386 203.267L466.335 201.472L469.423 200.93L472.852 202.222L477.809 201.276L478.937 201.061L478.969 201.051C481.018 200.264 484.098 199.092 484.537 198.952C484.947 199.114 487.101 199.948 487.86 200.242L494.654 207.758L494.689 207.796L499.599 209.358L501.39 207.231L507.955 209.965L506.876 213.419L509.153 213.729L510.534 211.096L504.292 200.896Z" fill="#3CCEAF"/>
<path fill-rule="evenodd" clip-rule="evenodd" d="M516.181 231.362L516.149 231.285L513.305 228.559L511.867 226.869L507.704 221.422L503.438 217.842L502.909 217.545L502.784 217.564L502.655 217.618L500.706 216.555L500.697 214.466L494.929 212.154L490.484 208.284L489.381 206.704L489.344 206.652L489.167 206.396L486.86 203.104L482.832 201.996L479.847 203.64L476.74 202.744L472.21 205.468L467.251 201.926L463.209 204.307L463.639 207.019L461.78 214.017L460.676 216.327L453.013 213.941L450.241 219.905L450.516 221.3L446.196 228.543L441.556 229.117L439.726 234.264L438.187 236.357L439.115 237.252L438.79 237.768L437.737 237.659L437.136 238.936L433.786 240.319L431.113 237.99L429.452 238.342L428.932 239.206L426.736 238.923L426.515 237.006L423.335 237.294L422.14 239.013L421.983 238.358L421.554 238.605C420.327 239.317 419.679 239.693 419.342 239.921C418.897 239.714 417.586 239.077 416.743 238.666L416.507 238.551L415.633 239.425L411.677 235.181L412.404 233.107L404.596 224.682L404.398 223.432L403.003 220.817L397.759 218.836L394.437 222.303L394.26 225.917L393.244 226.75L393.419 227.849L389.746 229.761L391.877 229.623L391.912 231.411L392.778 231.389L390.922 234.847L392.262 236.651L392.885 239.997L392.846 245.227L393.273 249.616L392.058 251.524L388.072 253.115L385.614 251.053L385.249 254.386L383.751 255.384L380.694 259.597C380.497 259.723 380.067 260.03 378.987 260.798L375.392 261.329L373.719 263.693L372.21 269.144L368.808 271.004L367.425 272.378L364.708 271.09L361.463 272.634L359.549 270.606L359.247 269.387L357.508 269.679L355.222 268.867L353.82 269.929L352.907 271.132L353.213 272.26L352.52 273.419L352.926 275.525C352.456 275.735 352.048 275.915 351.98 275.943C351.796 276.028 351.371 276.31 349.689 277.444L346.633 273.58L346.397 273.517C344.635 273.044 342.875 272.565 341.117 272.08L341.092 271.594L341.034 270.454L337.043 272.499L337.274 273.579C336.666 273.915 335.975 274.294 335.733 274.425C335.422 274.477 334.405 274.635 333.492 274.776L333.157 274.828L331.771 277.059L329.853 278.203L329.859 278.628C329.893 281.701 329.911 282.673 329.932 283.024C329.897 283.32 329.563 285.193 329.258 286.839L329.175 287.286L332.003 289.446L333.587 288.289L337.75 292.875L338.047 293.057L337.255 293.156C336.71 293.242 336.669 293.514 336.492 294.661C336.409 295.193 336.304 295.903 336.199 296.613C336.043 297.662 335.89 298.712 335.822 299.185L333.074 301.722L334.021 302.504L329.573 306.568L329.785 307.052C330.223 308.059 330.892 309.598 331.142 310.184C331.105 310.294 331.064 310.423 331.017 310.569C330.898 310.941 330.699 311.558 330.646 311.694L329.594 313.824L331.682 312.646C331.844 312.554 336.165 310.161 337.755 309.282C337.984 309.607 338.197 309.911 338.343 310.122C338.221 310.426 338.026 310.905 337.831 311.382L330.015 315.162L329.948 315.194L329.89 315.239C329.89 315.239 328.806 316.063 327.724 316.894C325.215 318.821 325.215 318.821 325.29 319.29L325.303 319.373L325.334 319.449C325.405 319.626 325.405 319.626 332.842 327.454L335.56 329.446L338.731 329.383L337.503 330.263L337.479 330.279C337.146 330.527 337.146 330.527 336.854 334.323L336.829 334.645L337.923 335.83L336.709 335.611L334.864 338.206L329.693 348.512L331.848 350.093L330.67 353.366L331.156 355.176L333.271 357.226L333.984 362.188L334.031 362.581L341.733 369.035L347.475 369.899L353.095 376.614L354.568 375.307L355.488 376.713L356.731 377.042L358.602 376.007L360.087 373.965L362.325 374.885L362.174 373.53L365.509 372.936L367.687 370.931L370.115 370.547L369.935 370.114C369.295 368.568 368.347 366.283 368.185 365.881C368.188 365.743 368.199 365.395 368.211 365.079L368.216 364.947L366.976 363.324L368.482 358.516L369.021 359.444L371.417 361.386L372.88 359.844L372.678 359.223L374.851 358.994L377.146 363.945L379.618 363.524L385.572 360.624L384.416 358.454L384.702 356.642L386.686 356.969L385.363 359.437L387.095 360.864L388.578 359.431L391.785 360.022L398.608 356.147L403.036 359.995L404.107 357.495L401.762 353.7L403.151 353.679L406.808 350.892L407.035 350.483L407.752 351.649L408.76 352.443L411.457 356.716L412.543 357.575L415.255 356.857L421.968 357.817L422.249 353.983L423.127 353.13L423.575 351.242L429.81 350.338L430.656 345.541L431.171 344.897L435.066 349.594L431.385 350.948L433.167 352.033L432.633 355.934L433.841 355.925L434.52 361.181L439.19 361.404L439.388 362.65L444.316 357.144L442.777 357.472L442.61 356.182L449.538 353.363L449.342 352.555L453.07 352.743L455.634 357.155L457.773 355.741L457.674 354.657L460.238 352.579L458.094 349.951L457.58 347.599L460.761 346.069L460.742 345.289L461.412 345.365L462.855 343.201C463.94 342.697 465.028 342.196 466.117 341.699C466.403 341.666 467.894 341.498 468.907 341.386L469.147 341.358L470.39 337.349L469.066 334.766L470.997 333.709L474.589 336.506L474.607 334.504L477.217 329.835L477.15 329.801L480.283 328.868L479.754 327.423L479.668 327.357C479.236 327.033 478.808 326.703 478.385 326.367C478.139 325.986 477.884 325.609 477.622 325.238C479.01 323.896 480.404 322.559 481.803 321.229C481.942 321.193 482.254 321.109 482.981 320.909L483.167 320.858L484.824 316.14L485.975 315.769L485.366 311.934L485.306 311.857C484.539 310.893 483.771 309.931 483.003 308.969C482.874 308.683 482.02 306.641 481.454 305.285L481.341 305.016L478.469 305.471L477.063 304.375L478.329 301.265L477.422 300.057L479.255 299.001L484.973 298.096L486.795 296.902L490.261 299.212L491.826 296.723L492.566 296.806L496.168 298.917L498.982 296.833L500.847 296.431L501.481 297.433L506.839 295.49L509.043 291.418L513.274 290.062L517.455 287.459L518.786 283.486L515.868 282.179L515.393 280.377L511.375 277.083L504.958 276.877L501.92 277.635L501.673 276.98L506.19 273.589L504.417 270.747L507.623 272.258L511.191 264.7L521.75 257.168L521.27 254.029L522.125 246.824L516.18 231.362H516.181Z" fill="#2BAB90"/>
<path fill-rule="evenodd" clip-rule="evenodd" d="M353.733 272.966L353.254 271.21L347.529 268.525L346.263 266.006L345.898 263.936L343.55 260.812L344.393 259.745L340.298 257.982L340.131 257.641L338.985 255.306L341.807 254.979L343.184 252.951L342.269 252.281L342.905 251.047L342.051 250.212L341.946 251.363L336.915 246.595L335.355 246.938L334.744 248.538L328.371 244.408L327.634 242.006L319.041 237.688L318.537 237.436L315.692 239.271L312.61 239.404L312.035 241.623L310.514 241.773L298.175 242.982L298.397 241.812L296.08 239.097L293.589 239.808L292.943 237.75L291.532 238.629L292.393 241.7L294.633 243.012L295.117 245.505L293.583 246.174L293.298 244.268L290.801 243.46L287.532 244.42L284.521 246.67L283.345 247.148L279.581 248.673L277.313 247.739L272.196 251.437L269.43 256.023L266.564 257.169L266.839 259.908L264.794 265.444L261.96 268.02L257.732 270.354L256.867 273.77L252.496 273.752L243.622 281.168L243.36 283.886L241.727 284.269L240.871 286.636L242.435 288.286L243.656 286.78L247.995 287.051L249.344 286.004L249.869 284.609L250.988 284.238L252.644 286.032L253.568 288.721L256.024 287.571L255.721 285.899L256.315 282.879L258.392 281.595L260.205 278.525L265.297 278.621L265.185 276.903L268.688 277.642L275.879 277.371L276.264 275.858L282.804 274.857L275.643 279.377L276.279 283.496L274.88 287.03L278.049 290.962L280.061 294.65L285.291 292.792L280.426 296.842L275.859 304L278.678 304.351C278.678 304.351 278.171 305.653 278.118 305.661C278.066 305.669 277.676 309.296 277.676 309.296L282.621 310.128L285.908 309.392L285.228 309.871L280.072 313.489L278.243 317.927L276.046 328.803L273.079 331.774L271.338 335.629L263.821 340.257L259.844 340.356L255.689 344.825L254.884 346.829L250.899 348.223L250.836 346.815L248.589 347.809L245.956 346.932L243.474 348.034L243.682 349.915L242.067 349.266L240.146 349.959L238.659 353.297L234.243 355.327L235.035 358.074L231.679 357.7L230.731 355.653L230.012 357.752L225.652 358.919L226.704 357.016L225.005 357.427L222.015 356.428L220.691 357.756L220.822 361.492L218.534 362.351L217.417 364.425L216.417 363.5L214.016 363.863L213.205 365.835L209.904 366.482C209.904 366.482 207.251 367.948 207.197 367.957C207.145 367.965 207.451 371.8 207.451 371.8L208.851 370.512L213.318 369.913L213.804 371.183L217.989 371.955L218.792 377.804L217.777 379.949L213.35 381.36L213.044 382.914L211.382 382.096L210.806 383.639L213.459 385.985L213.871 388.243L215.706 387.916L215.414 385.835L218.414 384.529L218.531 383.144L219.627 382.864L219.644 385.326L220.43 385.787L223.198 385.136L223.75 386.5L225.977 385.581L226.984 383.968L228.931 385.91L228.873 386.895L227.364 386.816L228.495 388.018C228.495 388.018 228.036 389.812 227.983 389.82C227.933 389.829 222.523 386.623 222.523 386.623L221.287 387.811C221.287 387.811 218.873 386.971 218.806 386.999C218.74 387.03 218.267 388.202 218.267 388.202L220.83 390.223L220.259 393.364L223.46 395.233L225.753 394.746L228.332 396.288L231.069 392.077L233.926 391.449L234.748 392.93L237.95 392.336L237.561 390.891L240.724 391.383L243.058 387.451L241.447 386.18C241.447 386.18 243.589 384.618 243.641 384.611C243.692 384.603 246.504 383.911 246.504 383.911L257.029 383.521L255.883 381.025L259.772 379.931L261.346 382.98L263.272 385.244L261.371 386.184L266.452 390.254L268.589 389.348L270.481 390.252L274.661 390.673L275.592 389.692L275.576 388.01L278.092 388.037L276.892 390.355L277.027 390.631L277.63 391.868C277.63 391.868 275.921 391.538 275.869 391.545C275.818 391.553 267.515 393.807 267.515 393.807L263.423 395.765L264.421 398.233L264.119 400.051L266.646 401.71C266.646 401.71 272.323 401.325 272.377 401.316C272.426 401.308 274.368 398.482 274.368 398.482L275.194 400.782L278.564 400.354C278.564 400.354 280.393 399.409 280.688 399.129C280.984 398.853 280.867 397.791 280.792 397.323C280.719 396.856 283.241 395.785 284.125 395.519C285.011 395.258 284.825 393.745 284.825 393.745L285.242 396.14L287.383 394.726L287.852 394.416L289.596 392.263L290.352 397.033L292.549 398.177L291.536 399.772L294.898 403.052L294.992 403.142L294.422 405.963L295.983 406.352L297.89 408.835L299.883 407.703L301.92 408.301L303.103 412.173L307.443 415.264L312.413 416.709L314.285 414.799L316.536 416.873L322.935 416.886L322.925 415.578L327.915 414.68L326.47 410.621L325.605 410.67L325.585 410.566L325.317 409.19L329.084 408.221L329.526 405.954L331.371 407.152L333.093 405.891L337.712 402.514L347.568 401.413L347.648 401.321L348.867 399.931L353.047 399.429L356.623 393.609L356.517 392.934L355.698 393.169L355.479 392.166L356.279 391.1L355.205 391.369L355.367 390.252L356.094 389.474L355.791 387.743L356.486 387.451L355.524 386.816L355.274 384.989L356.851 382.868L356.274 379.229L357.47 376.771L355.584 376.545L354.348 374.662L352.795 376.031L347.466 369.699L341.626 368.829L334.279 362.711L334.265 362.609L333.518 357.386L331.358 355.306L330.984 353.922L332.282 350.35L330.175 348.814L335.038 339.17L336.623 336.957L339.558 337.485L337.179 334.92C337.179 334.92 337.452 331.462 337.515 331.416C337.58 331.372 340.707 329.138 340.707 329.138L335.379 329.249L332.951 327.495C332.951 327.495 325.585 319.788 325.567 319.742C325.558 319.69 329.909 316.394 329.909 316.394L338.02 312.487C338.02 312.487 338.794 310.629 338.789 310.593C338.784 310.56 337.59 308.882 337.59 308.882C337.59 308.882 331.101 312.459 330.9 312.573C330.963 312.447 331.507 310.73 331.517 310.729C331.511 310.687 330.041 307.335 330.041 307.335L334.755 303.054L333.801 302.273L336.133 300.131C336.133 300.131 336.96 294.481 336.995 294.476L339.872 294.114L337.859 292.887L333.302 287.899L331.62 289.123L329.582 287.578C329.582 287.578 330.304 283.731 330.277 283.65C330.253 283.571 330.206 279.231 330.206 279.231L331.924 278.214L333.231 276.117C333.231 276.117 335.572 275.758 335.618 275.739C336.334 275.353 337.048 274.964 337.761 274.573L337.534 273.511L340.015 272.242C340.015 272.242 340.064 273.215 340.07 273.251C340.075 273.285 345.892 274.834 345.892 274.834L349.232 279.034C349.232 279.034 351.915 277.236 351.951 277.23C351.984 277.224 353.483 276.551 353.483 276.551L353.02 274.154L353.732 272.967L353.733 272.966ZM255.537 239.73L253.145 241.093L253.678 243.343L256.942 245.421L257.113 249.743L256.076 250.535L258.425 251.99L259.541 251.61L261.469 254.812L264.658 256.193L267.241 254.777C267.241 254.777 268.853 252.838 268.888 252.833C268.922 252.828 271.669 250.163 271.669 250.163L273.111 248.325L274.844 247.872L275.235 246.14L278.38 245.332L282.142 240.271L280.703 239.265L276.807 238.935L274.871 240.473L272.521 240.477L272.431 237.056L270.902 235.27L268.153 235.031L269.055 230.372L265.754 230.48L261.976 228.686L259.187 230.276L253.605 231.065L252.952 232.816L254.52 232.568L252.663 236.937L255.537 239.73ZM249.726 245.213L251.258 246.676L251.264 241.573L251.89 240.522L250.677 239.574L249.624 241.432L248.678 239.025L246.833 239.229L246.457 243L248.277 242.635L249.726 245.213Z" fill="#21826E"/>
<path fill-rule="evenodd" clip-rule="evenodd" d="M243.994 14.2488L241.713 13.0927L240.634 15.1028L241.064 16.6879L242.534 16.1911L243.994 14.2488ZM240.293 20.3018L241.833 19.8758L242.206 17.671L239.934 18.0303L240.293 20.3018ZM231.078 13.6134L229.786 11.4899L229.893 13.4885L231.078 13.6134ZM232.309 2.6259L231.075 0.348186L229.483 -0.0996399L228.037 1.78126L228.385 3.27057L230.091 6.47518L231.455 6.05443L232.001 12.5303L233.167 13.1177L234.216 12.8917L234.348 15.4891L235.906 17.5586L237.451 18.423L237.939 16.9108L236.459 16.1078C236.459 16.1078 237.541 10.5192 237.574 10.5151C237.606 10.5088 236.891 7.05112 236.891 7.05112L235.322 7.52914L234.178 5.94923L234.715 4.1152L232.31 2.6259H232.309ZM199.376 26.7777L199.124 25.6539L198.203 26.7235L199.376 26.7777ZM199.228 16.3275L198.816 18.347L198.026 19.4103L198.448 21.6287L197.735 23.2513L197.881 24.6874L200.403 22.8409L200.983 20.5289L199.662 19.7352L201.242 16.4911L199.228 16.3275ZM176.211 -9.12508L178.124 -11.7558L176.242 -11.458L176.211 -9.12508ZM178.599 -13.8315L181.747 -18.2973L181.17 -20.3845L176.226 -15.3562L174.656 -13.5295L174.555 -12.2245L175.825 -11.7475L178.693 -11.8454L178.599 -13.8315ZM205.352 -24.0713L206.47 -24.0359L206.113 -26.2854L205.165 -26.5104L203.733 -25.0992L202.097 -25.1398L201.881 -23.5839L203.716 -22.7892L205.352 -24.0713ZM203.062 -30.8325L201.649 -30.5701L200.97 -29.338L202.888 -29.7671L203.062 -30.8325ZM213.857 -52.0349L215.477 -52.3369C215.503 -52.34 218.229 -56.7215 218.229 -56.7215L219.782 -57.6672L219.426 -59.0273L217.929 -58.5066L217.644 -57.3287L213.476 -53.0649L211.981 -52.6421L211.627 -50.3092L212.35 -49.7603L213.857 -52.0359V-52.0349ZM189.083 10.9504L191.305 7.90199L190.695 6.45121L192.737 2.86336L194.243 2.74461L193.956 1.23551L195.318 1.10431L196.76 -5.44867L197.93 -5.57988L197.838 -6.9109L198.919 -9.19796L200.375 -9.41669L202.334 -13.6003L201.885 -15.3812L203.808 -15.878L204.65 -17.9359L206.054 -19.3055L205.481 -21.7977L203.79 -21.6373L203.041 -20.1918L201.799 -20.5813L200.516 -18.0713L194.486 -14.6053L193.228 -12.3141L191.481 -12.3484L190.707 -10.2415L188.26 -7.10461L191.504 -5.35806L193.064 -6.87238L194.526 -6.44537L194.519 -5.3695L192.137 -4.75297L191.369 -4.0333L190.007 -4.65504L185.338 -2.07427L183.58 0.45129L183.756 2.08537L183.156 3.04144L183.865 4.26831L183.291 6.13983L183.795 7.97284L185.778 9.4288L188.721 9.87144L189.083 10.9504Z" fill="#21826E"/>
<path fill-rule="evenodd" clip-rule="evenodd" d="M185.074 17.662L185.817 16.2143L183.575 11.3329L182.38 5.38196L183.224 4.53833L181.461 -0.419067L182.238 -2.10313L178.57 -2.5166L171.582 6.71815L171.091 1.11711L167.893 2.88344L164.787 3.17921L162.927 8.72714L163.83 9.5416L163.881 10.883L162.696 11.8162L161.966 14.3803L160.662 17.7463L160.97 19.1169L162.644 18.994L166.702 16.2935L168.312 13.6065L168.222 11.6693L170.874 8.95943L173.676 11.7464L170.581 14.5074L169.691 16.0508L172.532 16.2404L172.563 21.8883L171.068 22.1247L171.558 23.2807L169.469 26.6989L169.649 27.8413L170.862 27.6497L172.454 28.712L174.769 27.1738L175.328 24.3337L177.55 23.9108L177.489 25.0044L181.05 23.9421L183.347 22.1768L183.005 20.474L184.393 21.4967L186.598 19.6658L186.125 18.1608L185.074 17.662ZM117.484 -95.2641L119.06 -97.7324L115.273 -99.5696L117.484 -95.2641ZM116.312 -100.37L120.352 -99.2092L124.423 -108L118.573 -103.222L116.312 -100.37ZM132.895 -119.244L130.012 -124.566L135.144 -134.936L132.61 -140.57L136.475 -141.183L135.59 -145.14L133.953 -147.783L138.866 -147.397L142.5 -156.498L138.063 -160.528L139.637 -161.024L143.339 -158.897L145.118 -161.209L138.894 -166.155L134.086 -163.949L124.528 -163.611L121.568 -158.914L126.912 -156.038L130.814 -148.871L126.98 -146.361L129.019 -141.482L125.184 -140.088L125.997 -129.778L125.015 -120.157L125.819 -113.897L132.149 -112.715L132.895 -119.244ZM117.046 -151.059L117.264 -153.167L114.953 -153.055L117.046 -151.059ZM140.208 -167.527L141.208 -171.176L137.001 -168.314L138.645 -167.587L140.208 -167.527ZM149.39 -185.705L148.452 -186.289L144.996 -184.033L148.875 -182.865L149.39 -185.705Z" fill="#21826E"/>
<path fill-rule="evenodd" clip-rule="evenodd" d="M185.162 -68.7344L180.988 -68.0741L180.445 -66.6368L180.787 -64.1081L179.101 -63.6884L177.86 -65.5475L176.88 -64.4883L174.838 -65.0694L175.124 -62.824L176.339 -62.6761L176.445 -61.6357L174.174 -59.585L174.176 -57.601L179.733 -57.9291L180.782 -56.2512L182.55 -56.1555L182.769 -53.5965L186.517 -52.579L187.548 -54.0454L190.309 -54.0246L190.356 -52.2468L187.979 -51.248L179.251 -43.1974L182.479 -42.0747L185.85 -43.9598L187.684 -43.8858L189.485 -45.3564L190.066 -43.9098L188.248 -41.731L185.249 -41.1863L184.607 -39.9334L180.774 -39.7032L176.989 -40.1782L177.631 -38.266L174.926 -39.2585L174.526 -41.0447L171.584 -40.9843L171.165 -39.3908L171.499 -37.2485L170.14 -36.8986L169.688 -35.5873L171.771 -35.1655L172.756 -35.8737L173.636 -35.2322L173.063 -34.2428L176.425 -33.6002L177.681 -36.3601L178.347 -35.4082L179.314 -36.4538L181.79 -34.9906L182.851 -36.2612L185.567 -37.3381L185.717 -35.6582L187.306 -35.804L190.168 -38.1723L192.484 -37.939L195.481 -41.7372L195.591 -37.7276L197.121 -37.1464L204.194 -41.1082L202.944 -42.3663L201.361 -42.1747L201.887 -44.3128L203.006 -44.4794L202.656 -46.8311L204.081 -45.5886L203.948 -43.6181L206.691 -44.1576L206.42 -45.724L207.57 -46.5051L206.249 -49.9712L192.634 -56.0127L191.364 -61.1556L189.077 -64.5987L187.874 -64.3727L187.082 -65.6099L188.144 -66.5056L185.162 -68.7344ZM219.747 37.6836L220.849 37.8533L221.36 39.5822L223.364 43.1378L227.257 44.4761L233.421 43.2294L233.037 40.81L234.091 38.4896L233.171 35.5589L234.307 33.9853L233.234 31.82L230.629 31.3639L230.331 22.4697L227.121 20.1555L226.965 19.1661L223.688 18.2736L222.573 19.7462L219.188 21.7354L219.224 23.2331L217.932 25.5368L218.564 30.2151L220.2 32.2543L219.588 34.2696L219.747 37.6836Z" fill="#21826E"/>
<path fill-rule="evenodd" clip-rule="evenodd" d="M400.831 -149.25L392.126 -159.58L386.218 -160.489L384.361 -157.838L380.695 -157.38L377.948 -158.772L376.043 -157.318L366.214 -156.668L364.751 -158.157L360.376 -158.813L358.844 -157.576L357.846 -158.483L354.074 -159.393L352.109 -158.426L350.163 -160.477L347.636 -160.148L346.417 -157.613L343.822 -158.037L342.401 -156.339L338.222 -157.113L326.79 -162.082L321.185 -159.952L318.999 -159.819L314.172 -153.448L311.723 -155.229L309.845 -156.595L305.837 -153.248L295.396 -150.53L293.966 -151.582L291.219 -149.94L291.614 -147.323L285.458 -141.026L281.118 -141.016L274.621 -142.488L279.534 -143.248L281.535 -142.534L282.916 -144.26L281.965 -146.56C281.965 -146.56 285.39 -146.73 285.398 -146.676C285.425 -146.682 286.063 -148.556 286.063 -148.556L288.962 -149.123L288.539 -151.344L291.847 -154.831L293.541 -157.512L290.842 -158.271L283.311 -157.149L273.963 -148.645L275.17 -153.29L284.378 -160.424L286.542 -159.347L289.427 -161.915L294.03 -164.08L292.901 -160.993L293.995 -159.693L296.307 -160.058L300.879 -166.354L303.89 -173.41L302.04 -173.847L298.737 -170.54L297.385 -173.232L292.529 -170.851L285.918 -174.062L279.455 -174.76L274.952 -180.717L275.872 -181.519L280.951 -175.973L285.708 -175.945L289.917 -174.091L294.951 -179.27L291.346 -183.596L300.198 -186.592L311.031 -195.725L312.857 -199.135L315.827 -199.605L321.034 -204.688L326.384 -212.593L329.688 -212.302L329.459 -214.307L332.256 -214.411L335.838 -216.966L337.504 -219.8L339.786 -221.014L339.983 -224.822L342.189 -226.857L341.885 -230.128L340.284 -231.01L338.612 -235.5L341.311 -237.897L342.442 -241.303L342.983 -244.974L335.913 -246.799L335.394 -248.385L325.01 -247.664L326.554 -244.874L328.197 -244.282L327.199 -241.144L319.061 -242.748L319.566 -244.177L316.478 -244.114L307.895 -238.531L297.626 -240.207L296.772 -242.235L295.119 -241.442L295.261 -239.532L293.436 -238.584L292.842 -239.858L289.72 -240.25L289.21 -237.74L286.574 -237.64L285.549 -234.552L283.5 -237.491L279.196 -236.705L277.404 -232.498L273.369 -228.436L273.124 -229.747L275.481 -232.39L276.084 -238.021L273.406 -240.54L269.608 -240.649L265.121 -233.138L261.419 -229.934L260.769 -231.401L265.258 -236.92L264.656 -239.501L262.255 -240.328L261.334 -244.004L259.727 -243.024L259.516 -236.213L257.852 -236.04L257.368 -238.722L258.192 -241.479L255.423 -244.756L252.568 -244.304L250.76 -245.492L249.326 -245.318L248.12 -241.426L244.442 -236.497L243.277 -233.066L248.688 -229.977L248.361 -228.231L246.661 -229.343L244.844 -228.863L245.455 -226.458L244.758 -225.122C244.758 -225.122 242.883 -226.625 242.862 -226.65C242.823 -226.644 240.532 -222.937 240.532 -222.937L239.763 -219.543L242.107 -215.007L244.371 -213.929L249.451 -210.893L247.436 -210.255L242.834 -212.851L241.082 -211.438L238.151 -211.747L233.084 -210.351L232.456 -211.851L230.137 -213.407L229.314 -210.509L230.55 -209.399L232.32 -204.287L235.1 -202.803L233.02 -201.162L233.572 -198.569L232.858 -195.397L229.724 -196.194L226.433 -198.921L225.289 -197.32L226.362 -193.029L228.628 -192.783L231.388 -190.401L231.712 -187.168L233.72 -186.697L237.346 -184.307L235.664 -182.846L237.604 -181.43L239.785 -179.028L238.258 -178.786L234.67 -181.374L232.837 -181.547L229.052 -183.37L227.187 -183.278L227.217 -181.526L230.792 -180.522L231.002 -179.075L233.887 -176.879L234.469 -175.294L232.32 -175.646L230.269 -178.203L225.505 -179.861L223.331 -177.007L220.577 -177.37L220.045 -180.621L218.274 -182.648C218.274 -182.648 216.272 -182.473 216.246 -182.477C216.214 -182.473 215.679 -180.719 215.679 -180.719L214.296 -179.561L215.749 -176.126L218.025 -175.397L217.987 -171.257L215.785 -169.482L213.417 -172.866L212.198 -177.969L206.696 -177.31L206.185 -174.754C206.185 -174.754 207.55 -170.678 207.556 -170.65C207.56 -170.626 206.035 -168.69 206.035 -168.69L208.402 -165.704L211.397 -166.178L212.463 -163.491L211.483 -161.98L209.874 -162.99L205.555 -158.174L205.72 -156.861L207.546 -157.362L209.554 -154.336L209.035 -153.278L211.23 -150.787L213.76 -149.468C213.76 -149.468 215.749 -149.677 215.774 -149.681C215.802 -149.685 218.977 -149.07 218.977 -149.07L217.098 -147.324L214.211 -147.569L212.239 -145.269L210.801 -149.06L208.224 -148.592L207.131 -150.867L203.824 -151.468L201.794 -142.608L203.843 -139.421L203.516 -134.131C203.516 -134.131 205.153 -130.995 205.158 -130.962C205.163 -130.925 208.082 -131.163 208.082 -131.163L210.594 -132.588L214.106 -137.095L214.558 -133.417L215.979 -130.956L211.723 -130.037L207.645 -126.044L207.987 -124.265L212.14 -124.945L214.671 -123.795L218.197 -124.45L221.136 -121.935L223.077 -119.049L221.009 -118.838L217.512 -122.721L211.945 -120.115L212.197 -117.159L209.371 -115.319L209.784 -112.627L212.251 -112.414L215.426 -111.085L216.94 -107.468L214.915 -107.195L207.185 -109.117L204.079 -104.073L206.257 -102.169L208.826 -101.902L209.97 -98.9612L211.874 -98.1759L215.694 -98.6134L215.792 -97.4L210.495 -96.169L206.372 -100.39L200.982 -99.5965L200.615 -95.6952L199.076 -92.6842L199.463 -91.0533L196.627 -90.4628L195.543 -89.0735L198.015 -88.2215L205.876 -89.9025L206.438 -88.5986L203.481 -86.8155L205.779 -85.0513L200.419 -83.388L198.189 -81.8029L197.899 -79.0034L199.572 -77.0548L198.676 -76.0383L193.281 -79.5356L193.511 -78.0109L183.236 -77.9349L180.582 -75.15L181.819 -71.3121L184.824 -70.5331L188.122 -72.262L189.225 -70.6164L193.31 -70.6706L194.645 -69.6531L198.285 -70.3113L199.277 -69.4802L200.358 -70.6393L201.226 -70.7279L201.52 -71.8048L202.514 -71.8568L202.345 -72.7983C202.345 -72.7983 204.269 -73.0545 204.288 -73.041C204.307 -73.0275 205.16 -72.262 205.16 -72.262L206.228 -72.4078L208.139 -70.228L212.2 -70.7997L213.852 -70.1155L209.725 -69.2011L206.77 -69.5854L203.519 -70.9383L202.654 -71.0143L202.167 -70.0395L199.751 -68.8064L190.859 -67.4212L190.84 -65.5955C190.84 -65.5955 191.897 -64.4634 191.907 -64.3936C191.919 -64.3249 193.662 -60.059 193.662 -60.059L197.866 -57.0346L199.869 -57.1387L204.658 -55.3651L205.875 -53.0738L207.647 -53.1186L208.722 -54.8725L212.241 -56.3295L214.675 -59.8372L215.599 -62.9866L217.726 -63.4907L219.512 -66.4443L220.973 -65.6111L229.28 -74.2835L229.996 -76.8091L232.189 -78.2431L234.56 -81.8383L235.836 -81.2822L233.578 -77.1163L229.74 -72.1339L230.004 -70.756L231.934 -71.6037L233.067 -69.3958L226.78 -67.9044L225.297 -67.0765L226.367 -65.5684L224.73 -63.6261L221.214 -59.4529L220.431 -56.9762L222.141 -55.4723L216.915 -52.0657L216.921 -50.8972L218.903 -51.27L220.666 -48.3789L218.158 -48.03L215.468 -45.6169L214.333 -45.9678L212.044 -43.7391C212.044 -43.7391 213.067 -41.4874 213.076 -41.4353C213.084 -41.3822 213.373 -39.0035 213.373 -39.0035L211.253 -38.112L210.242 -35.0626L209.093 -37.1507L207.326 -35.274L207.71 -32.6203L205.535 -29.7219L206.325 -26.3215L207.432 -25.5174L208.191 -30.2666L210.887 -31.6673L212.202 -31.007L214.384 -32.2745L215.051 -30.9977L212.412 -29.0022L212.999 -27.089L208.623 -22.919L207.528 -19.3936L208.827 -19.1728L209.436 -20.6173L212.106 -23.3991L212.988 -22.6701L211.327 -19.4633L211.492 -17.0773L209.778 -15.9713L204.285 -8.53619L201.808 -4.40154C201.808 -4.40154 202.608 -2.8237 202.599 -2.77162C202.658 -2.78099 204.633 -4.65462 204.633 -4.65462L207.217 -9.90573L209.325 -10.9837L209.436 -9.38811L207.606 -7.90923L206.741 -4.59732L203.35 -0.176254L203.357 1.66714L205.408 1.13286L206.921 -1.78641L208.213 -0.926117L204.42 5.79347L203.617 9.38031L206.252 10.6301L205.568 12.4777L206.996 13.9555L211.001 10.7123L214.403 6.35899L215.159 7.41089C215.159 7.41089 212.764 12.2954 212.714 12.3037C212.661 12.3121 208.12 15.2303 208.12 15.2303L202.886 20.9375L202.858 26.9406L199.626 32.0272L200.146 44.1854L197.607 44.678L194.634 47.0276L194.378 54.0585L199.13 56.1988L205.398 55.0823L208.835 49.9426L206.718 44.8842L210.866 37.7168L211.545 33.0135L213.327 32.2375L213.152 29.6734L216.636 17.0758L218.248 15.0126L221.344 14.5398L222.052 10.6124L217.124 3.42828L214.983 -8.18314L216.626 -8.5914L218.559 -7.28433L221.14 -9.52144L226.639 -18.4073L228.98 -19.5779L229.725 -21.3995L236.795 -29.3303L237.539 -28.117L242.145 -30.729L241.909 -29.1814L237.37 -25.3768L234.311 -20.7402C234.311 -20.7402 230.657 -19.2227 230.568 -19.2092C230.482 -19.1946 225.164 -12.3209 225.164 -12.3209L221.367 -6.18559L221.058 -1.39896L222.709 6.19963L224.436 7.45045L226.984 7.81082L226.499 2.15663L227.416 0.858948L227.203 -2.9393L228.289 -3.16528L229.24 -1.09903L231.285 0.246582L233.293 2.58885L234.222 1.92751L232.846 -3.37254L234.258 -3.79123L236.379 2.50969L235.618 5.13005L239.677 5.8018L241.143 1.13286L243.106 -2.31651L242.356 -4.11407L243.993 -5.02954L243.895 -9.00798L244.582 -11.7585L245.86 -10.4337L245.578 -7.14478C245.578 -7.14478 247.153 -4.85666 247.178 -4.80667C247.203 -4.75668 250.513 -6.11475 250.513 -6.11475L247.864 -8.6768L247.275 -12.7333L248.442 -13.0083L249.918 -8.39973L253.054 -6.46262L254.432 -3.2757L263.484 0.0466003L266.166 0.0112L269.086 4.22604L269.234 4.43852L268.176 4.3958L265.415 2.01085L262.922 1.5526L254.377 -0.0221405L248.092 -3.08926L245.371 2.32849L243.347 3.03773L243.771 4.86969L245.48 12.2256L244.962 16.5863L242.747 21.3698L246.463 26.9552L249.236 27.2801L254.582 32.8208L253.19 34.9204L254.149 35.5859L256.267 41.7619L248.86 48.1315L244.921 58.7775L243.504 64.4285L238.908 68.2278L232.163 81.1265L233.552 84.7466L234.434 87.0483L234.203 91.5381L232.778 92.666L231.583 89.4864L230.919 83.6302L228.712 83.5L225.657 85.333L224.615 92.363L228.264 99.4325L232.809 104.069L235.664 109.74L235.095 112.436L237.961 117.5L240.255 117.154C240.309 117.146 238.538 108.343 238.538 108.343L238.134 100.618L244.82 96.7747L247.222 101.149L262.947 114.13L265.941 115.166L268.182 113.355L267.506 108.532L269.392 103.814C269.392 103.814 268.434 103.043 268.425 102.993C268.417 102.941 264.261 96.482 264.261 96.482L270.38 98.7108L276.896 103.443L277.859 105.349L281.291 106.809L284.115 106.079L289.018 107.377L293.14 104.525L294.203 103.151L296.585 102.349L296.756 96.1133L299.295 99.2419L304.136 96.205L309.148 96.533L309.342 88.0346L323.553 88.8L336.624 87.4628L337.38 81.1619L344.485 79.1539L347.58 76.0045L356.351 69.2568L363.114 58.6952L365.475 56.8674L367.587 53.7826L374.808 52.64L374.273 49.9406L383.197 43.2428L374.418 28.2737L377.253 26.974L380.021 27.5832L381.432 24.1464L388.206 16.0145L390.114 12.4485L389.848 10.6457L388.532 9.75522L387.993 7.02762L385.671 5.29149L385.037 3.21269L381.582 1.61092L376.921 2.63155L375.535 0.618393L373.922 0.472565L373.89 0.469452L367.316 -4.6265L357.303 -10.8681L350.497 -10.5869L341.761 -0.581406L337.419 0.105972L334.121 -1.96344L332.652 -3.59334L328.45 -2.92784L322.635 -4.47444L319.345 -3.77664L318.783 -4.00055L314.77 -5.58778L306.243 -6.04915L302.417 -11.7773L302.769 -11.8377L304.547 -12.148L304.637 -12.1074L318.032 -6.22932L321.181 -6.12311L321.72 -7.89464L325.43 -8.28935L327.51 -10.7806L329.249 -9.56622L332.591 -10.717L332.874 -14.4351L335.072 -17.07L337.207 -17.4085L339.176 -20.4871L342.814 -23.8136L347.209 -21.563L352.539 -22.4065L355.919 -24.4322L358.482 -25.104L361.402 -28.8116L360.499 -31.7027L357.634 -34.1752L354.768 -34.948L350.748 -44.6014L345.11 -45.695C345.11 -45.695 344.411 -44.2879 344.357 -44.2786C342.79 -43.8335 341.224 -43.3853 339.659 -42.934L335.448 -40.6522L331.28 -37.1736L327.995 -36.2196L327.776 -36.1572L327.739 -38.0839L334.766 -44.163L338.708 -46.6865L341.789 -46.4021L343.456 -46.248L345.626 -48.1695L347.617 -47.1739L351.99 -49.0017L354.658 -47.4363L363.79 -55.7285L364.268 -56.8721L367.379 -60.2704L367.008 -65.1987L369.874 -66.8755L370.957 -73.0733L371.068 -73.719L378.985 -80.7906L381.58 -85.422L383.892 -97.675L386.336 -100.226L388.556 -105.691L388.602 -105.801L388.739 -115.26L392.218 -121.717L395.039 -126.953L395.504 -129.513L397.373 -130.749L401.171 -134.969L402.528 -138.198L401.957 -140.112L403.335 -141.856L400.831 -149.25Z" fill="#21826E"/>
<path fill-rule="evenodd" clip-rule="evenodd" d="M156.513 112.53L158.082 107.741L158.23 104.648L158.348 104.754L159.861 106.11L161.558 109.441L165.32 107.377L169.332 107.234C169.332 107.234 166.277 115.813 166.234 115.82C166.251 115.817 167.671 119.307 167.671 119.307L165.962 121.405L163.463 124.477L163.147 125.191L162.922 125.701L161.793 128.257L160.027 126.766L156.831 125.534L154.099 126.825L150.723 125.547L150.668 125.526L151.008 121.291L151.387 120.807L155.53 115.538L156.416 112.821L156.513 112.53ZM206.715 121.124L206.16 117.505L206.835 116.745L204.92 114.367L204.834 114.362L201.255 114.062L199.208 114.419L195.376 112.918L190.345 115.576L189.737 116.665L189.716 116.647L188.575 115.695L186.589 115.124L187.2 112.475L189.174 112.218L191.682 109.815L194.408 108.482L197.896 106.473L198.74 104.64L198.695 104.403L197.392 97.4742L194.04 97.1201L192.583 95.6308L192.6 94.3873L191.251 93.2521L185.503 84.6953L185.277 77.6904L181.33 75.6772L181.11 74.7326L182.516 70.0959L177.533 61.7745L172.732 63.67C172.732 63.67 171.469 62.715 171.461 62.6598C171.453 62.6129 165.615 60.0801 165.615 60.0801H158.091L156.698 61.559L153.557 62.6056L152.727 62.8827L148.1 63.6148L147.293 64.7854L141.171 65.6009L140.305 65.7155L134.782 65.7228L131.476 72.3611L129.77 74.7607L124.733 75.5022L119.16 75.5168L119.046 74.7992L119.149 74.7628L119.19 74.7482L118.9 73.8734L118.608 72.9975L115.59 74.0942L114.816 73.3089L112.736 74.4639L109.886 78.208L109.819 83.3727L107.115 83.6414L106.954 89.0622L107.096 89.9621L106.248 92.8126L105.203 92.9782L104.743 94.1978L101.517 97.1451L99.4626 100.113L98.6331 100.278L93.9155 101.218C93.8322 101.232 93.7988 101.237 88.7332 102.798L86.4197 100.295L81.3573 103.331L81.0029 108.149L82.291 108.864L84.7201 111.707L86.4989 111.179L91.6396 111.981L91.8188 113.333L87.0794 114.95L84.4408 118.823L75.8956 117.396L73.7354 120.688L70.1152 123.197L69.6743 124.016L65.5664 123.447L65.9093 125.605L68.9897 130.191L71.8471 135.562L75.0151 138.385L76.5761 141.408L79.6784 141.962L80.1349 142.267L80.4048 149.772L85.313 151.662L90.0462 152.916L92.7942 154.17L93.0766 155.73L98.1089 158.716L100.652 159.625L103.646 157.952L105.54 159.451L107.532 160.012L108.964 161.091L110.249 160.018L110.331 160.443L113.824 157.339L114.943 152.671L117.581 151.379C117.867 151.343 118.607 151.264 119.27 151.199L120.254 151.099L119.274 145.452L117.421 143.489L118.292 140.864L120.16 141.348L124.495 135.943L126.589 133.813C128.396 134.836 129.263 135.323 129.73 135.547C129.949 135.745 130.942 136.741 131.896 137.708L132.013 139.807L133.128 140.415L134.153 141.879L132.978 145.317L133.314 147.913L135.375 148.527L136.066 152.167L141.122 157.397L142.243 155.374L143.014 154.891L144.516 156.566L145.095 158.857L143.092 163.557L143.792 166.673L145.37 170.834L148.15 169.181L148.606 168.333L153.099 168.618L153.393 168.167C153.792 167.553 154.095 167.086 154.326 166.726C154.921 167.23 155.772 167.959 156.556 168.635L157.106 169.11L159.513 167.374L160.439 164.536L162.245 166.779L164.504 163.639L165.888 164.696L168.669 164.257L177.659 171.037L178.873 168.879L181.03 168.646L184.011 165.546L186.314 158.059L186.382 157.835L185.892 155.075L187.785 152.609L189.355 149.206L189.237 152.042L197.543 154.417L199.328 151.618L204.208 146.873L205.348 146.693L203.564 141.799L202.597 139.931L198.034 141.52L197.025 140.76L199.555 137.718L200.598 133.916L198.95 132.582L198.834 131.942L198.594 130.671L199.709 127.745L197.687 126.398L197.168 123.555L197.494 122.83L198.666 122.289L204.042 126.278L206.053 133.815L205.389 135.678L204.491 135.923L205.927 143.073L206.701 144.708L209.46 138.897L208.935 134.922L209.886 129.86L206.714 121.124H206.715Z" fill="#2BAB90"/>
<ellipse cx="559.5" cy="317" rx="27.5" ry="3" fill="black" fill-opacity="0.3"/>
<path fill-rule="evenodd" clip-rule="evenodd" d="M520 263.504C520 241.812 537.642 224.227 559.405 224.227C581.168 224.227 598.81 241.812 598.81 263.504C598.81 272.98 595.441 281.678 589.833 288.463C589.74 288.652 589.619 288.83 589.469 288.991L565.822 314.374C562.358 318.093 556.453 318.093 552.988 314.374L529.342 288.991C529.191 288.83 529.07 288.652 528.978 288.463C523.37 281.678 520 272.98 520 263.504Z" fill="white"/>
<path fill-rule="evenodd" clip-rule="evenodd" d="M550.234 239.938V280.528C550.234 280.9 550.536 281.202 550.909 281.202C557.12 281.202 562.155 276.167 562.155 269.956V264.521L560.321 259.195L556.194 255.845L554.704 254.399L557.685 250.061L556.882 244.067L552.068 239.938H550.234Z" fill="#59CBE8"/>
<path fill-rule="evenodd" clip-rule="evenodd" d="M541.981 247.733C541.981 242.975 545.625 239.022 550.234 239.022C554.844 239.022 558.487 242.975 558.487 247.733C558.487 250.329 557.402 252.686 555.667 254.291C558.753 255.679 561.033 258.268 562.101 261.484C562.136 261.581 562.155 261.685 562.155 261.794C562.155 262.301 561.744 262.711 561.238 262.711C560.799 262.711 560.432 262.403 560.342 261.991C559.312 258.909 556.995 256.574 553.866 255.56C552.774 256.125 551.543 256.444 550.234 256.444C548.925 256.444 547.693 256.125 546.601 255.559C542.328 256.938 539.23 260.972 539.23 265.735V281.202C539.23 281.709 538.82 282.119 538.313 282.119C537.807 282.119 537.396 281.709 537.396 281.202V265.735C537.396 260.63 540.436 256.237 544.799 254.289C543.065 252.684 541.981 250.328 541.981 247.733ZM550.234 240.855C546.741 240.855 543.815 243.881 543.815 247.733C543.815 251.584 546.741 254.61 550.234 254.61C553.728 254.61 556.653 251.584 556.653 247.733C556.653 243.881 553.728 240.855 550.234 240.855Z" fill="#222222"/>
<path d="M549.317 266.531C549.317 265.518 550.138 264.697 551.151 264.697H578.66C579.673 264.697 580.494 265.518 580.494 266.531V279.368C580.494 280.381 579.673 281.202 578.66 281.202H551.151C550.138 281.202 549.317 280.381 549.317 279.368V266.531Z" fill="white"/>
<path fill-rule="evenodd" clip-rule="evenodd" d="M548.4 266.531C548.4 265.012 549.632 263.78 551.151 263.78H578.66C580.18 263.78 581.411 265.012 581.411 266.531V279.368C581.411 280.888 580.18 282.119 578.66 282.119H551.151C549.632 282.119 548.4 280.888 548.4 279.368V266.531ZM551.151 265.614C550.645 265.614 550.234 266.024 550.234 266.531V279.368C550.234 279.875 550.645 280.285 551.151 280.285H578.66C579.167 280.285 579.577 279.875 579.577 279.368V266.531C579.577 266.024 579.167 265.614 578.66 265.614H551.151Z" fill="#222222"/>
<path fill-rule="evenodd" clip-rule="evenodd" d="M553.902 272.95C553.902 272.443 554.313 272.033 554.819 272.033H556.653C557.159 272.033 557.57 272.443 557.57 272.95C557.57 273.456 557.159 273.867 556.653 273.867H554.819C554.313 273.867 553.902 273.456 553.902 272.95Z" fill="#222222"/>
<path fill-rule="evenodd" clip-rule="evenodd" d="M572.241 272.95C572.241 272.443 572.652 272.033 573.158 272.033H574.992C575.499 272.033 575.909 272.443 575.909 272.95C575.909 273.456 575.499 273.867 574.992 273.867H573.158C572.652 273.867 572.241 273.456 572.241 272.95Z" fill="#222222"/>
<path d="M567.657 272.95C567.657 274.469 566.425 275.701 564.906 275.701C563.386 275.701 562.155 274.469 562.155 272.95C562.155 271.43 563.386 270.199 564.906 270.199C566.425 270.199 567.657 271.43 567.657 272.95Z" fill="#59CBE8"/>
<path fill-rule="evenodd" clip-rule="evenodd" d="M563.989 270.199C563.989 269.692 564.399 269.282 564.906 269.282C566.931 269.282 568.574 270.924 568.574 272.95C568.574 274.975 566.931 276.618 564.906 276.618C564.399 276.618 563.989 276.207 563.989 275.701C563.989 275.194 564.399 274.784 564.906 274.784C565.919 274.784 566.74 273.962 566.74 272.95C566.74 271.937 565.919 271.116 564.906 271.116C564.399 271.116 563.989 270.705 563.989 270.199Z" fill="#222222"/>
<rect x="574" y="224.17" width="95" height="34" rx="17" fill="#2397D4"/>
<path d="M586.874 248.17V245.491H588.318V242.109H586.874V240.703H588.394C588.09 240.247 587.786 239.563 587.786 238.651C587.786 236.466 589.686 234.528 592.175 234.528C594.55 234.528 596.488 236.409 596.583 238.765H593.695C593.695 237.853 593.03 237.207 592.175 237.207C591.32 237.207 590.674 237.815 590.674 238.917C590.674 239.886 591.32 240.703 592.422 240.703H593.695V242.109H591.206V245.491H596.583V248.17H586.874ZM597.279 248.17L603.245 240.931C603.929 240.095 604.366 239.658 604.366 238.86C604.366 237.948 603.739 237.207 602.77 237.207C601.801 237.207 601.193 237.967 601.193 238.879V239.145H598.305V238.879C598.305 236.447 600.338 234.528 602.77 234.528C605.202 234.528 607.254 236.447 607.254 238.879C607.254 239.943 606.855 240.893 606.228 241.653L603.131 245.491H607.235V248.17H597.279ZM614.139 248.322C611.137 248.322 609.009 246.08 609.009 241.425C609.009 236.77 611.137 234.528 614.139 234.528C617.122 234.528 619.25 236.77 619.25 241.425C619.25 246.08 617.122 248.322 614.139 248.322ZM614.139 245.491C615.355 245.491 616.362 244.598 616.362 241.425C616.362 238.252 615.355 237.359 614.139 237.359C612.923 237.359 611.897 238.252 611.897 241.425C611.897 244.598 612.923 245.491 614.139 245.491ZM621.605 251.096L622.441 248.17H621.168V244.864H624.474V248.17L623.258 251.096H621.605ZM630.119 248.322C628.409 248.322 626.908 247.6 625.996 246.422L628.029 244.541C628.447 245.168 629.036 245.643 629.929 245.643C631.183 245.643 631.981 244.864 631.981 243.61C631.981 242.356 631.183 241.577 629.929 241.577H628.561L630.556 237.359H626.623V234.68H634.774L632.532 239.43C634.147 240.285 634.888 241.843 634.888 243.61C634.888 246.46 632.969 248.322 630.119 248.322ZM636.563 248.17L641.465 237.359H636.449V234.68H645.797L639.679 248.17H636.563ZM648.215 248.17L650.742 243.515C648.348 243.401 646.372 241.577 646.372 239.031C646.372 236.485 648.405 234.528 651.103 234.528C653.801 234.528 655.834 236.485 655.834 239.031C655.834 240.019 655.416 240.855 654.979 241.653L651.426 248.17H648.215ZM651.103 240.855C652.262 240.855 652.946 240 652.946 239.031C652.946 238.062 652.262 237.207 651.103 237.207C649.944 237.207 649.26 238.062 649.26 239.031C649.26 240 649.944 240.855 651.103 240.855Z" fill="white"/>
<ellipse cx="163.5" cy="137.83" rx="27.5" ry="3" fill="black" fill-opacity="0.3"/>
<path fill-rule="evenodd" clip-rule="evenodd" d="M124 84.3339C124 62.6416 141.642 45.0566 163.405 45.0566C185.168 45.0566 202.81 62.6416 202.81 84.3339C202.81 93.8104 199.441 102.508 193.833 109.293C193.74 109.482 193.619 109.66 193.469 109.821L169.822 135.204C166.358 138.923 160.453 138.923 156.988 135.204L133.342 109.821C133.191 109.66 133.07 109.482 132.978 109.293C127.37 102.508 124 93.8104 124 84.3339Z" fill="white"/>
<path fill-rule="evenodd" clip-rule="evenodd" d="M154.234 60.7684L154.234 101.358C154.234 101.73 154.536 102.032 154.909 102.032C161.12 102.032 166.155 96.9974 166.155 90.7864V85.3505L164.321 80.0249L160.194 76.6745L158.704 75.2285L161.685 70.8905L160.882 64.8971L156.068 60.7684H154.234Z" fill="#59CBE8"/>
<path fill-rule="evenodd" clip-rule="evenodd" d="M145.981 68.5627C145.981 63.8048 149.625 59.8515 154.234 59.8515C158.844 59.8515 162.487 63.8048 162.487 68.5627C162.487 71.1591 161.402 73.5159 159.667 75.1214C162.753 76.5089 165.033 79.098 166.101 82.3139C166.136 82.4108 166.155 82.5153 166.155 82.6242C166.155 83.1306 165.744 83.5412 165.238 83.5412C164.799 83.5412 164.432 83.2328 164.342 82.8208C163.312 79.7388 160.995 77.4042 157.866 76.3896C156.774 76.9552 155.543 77.274 154.234 77.274C152.925 77.274 151.693 76.955 150.601 76.3892C146.328 77.7682 143.23 81.8015 143.23 86.5649V102.032C143.23 102.539 142.82 102.949 142.313 102.949C141.807 102.949 141.396 102.539 141.396 102.032V86.5649C141.396 81.4597 144.436 77.0666 148.799 75.1191C147.065 73.5136 145.981 71.1578 145.981 68.5627ZM154.234 61.6854C150.741 61.6854 147.815 64.7113 147.815 68.5627C147.815 72.4141 150.741 75.4401 154.234 75.4401C157.728 75.4401 160.653 72.4141 160.653 68.5627C160.653 64.7113 157.728 61.6854 154.234 61.6854Z" fill="#222222"/>
<path d="M153.317 87.3608C153.317 86.3479 154.138 85.5268 155.151 85.5268H182.66C183.673 85.5268 184.494 86.3479 184.494 87.3608V100.198C184.494 101.211 183.673 102.032 182.66 102.032H155.151C154.138 102.032 153.317 101.211 153.317 100.198V87.3608Z" fill="white"/>
<path fill-rule="evenodd" clip-rule="evenodd" d="M152.4 87.3608C152.4 85.8415 153.632 84.6098 155.151 84.6098H182.66C184.18 84.6098 185.411 85.8415 185.411 87.3608V100.198C185.411 101.718 184.18 102.949 182.66 102.949H155.151C153.632 102.949 152.4 101.718 152.4 100.198V87.3608ZM155.151 86.4438C154.645 86.4438 154.234 86.8543 154.234 87.3608V100.198C154.234 100.705 154.645 101.115 155.151 101.115H182.66C183.167 101.115 183.577 100.705 183.577 100.198V87.3608C183.577 86.8543 183.167 86.4438 182.66 86.4438H155.151Z" fill="#222222"/>
<path fill-rule="evenodd" clip-rule="evenodd" d="M157.902 93.7796C157.902 93.2732 158.313 92.8626 158.819 92.8626H160.653C161.159 92.8626 161.57 93.2732 161.57 93.7796C161.57 94.286 161.159 94.6966 160.653 94.6966H158.819C158.313 94.6966 157.902 94.286 157.902 93.7796Z" fill="#222222"/>
<path fill-rule="evenodd" clip-rule="evenodd" d="M176.241 93.7796C176.241 93.2732 176.652 92.8626 177.158 92.8626H178.992C179.499 92.8626 179.909 93.2732 179.909 93.7796C179.909 94.286 179.499 94.6966 178.992 94.6966H177.158C176.652 94.6966 176.241 94.286 176.241 93.7796Z" fill="#222222"/>
<path d="M171.657 93.7796C171.657 95.2989 170.425 96.5305 168.906 96.5305C167.386 96.5305 166.155 95.2989 166.155 93.7796C166.155 92.2603 167.386 91.0287 168.906 91.0287C170.425 91.0287 171.657 92.2603 171.657 93.7796Z" fill="#59CBE8"/>
<path fill-rule="evenodd" clip-rule="evenodd" d="M167.989 91.0287C167.989 90.5222 168.399 90.1117 168.906 90.1117C170.931 90.1117 172.574 91.7539 172.574 93.7796C172.574 95.8053 170.931 97.4475 168.906 97.4475C168.399 97.4475 167.989 97.037 167.989 96.5305C167.989 96.0241 168.399 95.6136 168.906 95.6136C169.919 95.6136 170.74 94.7925 170.74 93.7796C170.74 92.7667 169.919 91.9456 168.906 91.9456C168.399 91.9456 167.989 91.5351 167.989 91.0287Z" fill="#222222"/>
<rect x="178" y="45" width="91" height="34" rx="17" fill="#2397D4"/>
<path d="M190.874 69V66.321H192.318V62.939H190.874V61.533H192.394C192.09 61.077 191.786 60.393 191.786 59.481C191.786 57.296 193.686 55.358 196.175 55.358C198.55 55.358 200.488 57.239 200.583 59.595H197.695C197.695 58.683 197.03 58.037 196.175 58.037C195.32 58.037 194.674 58.645 194.674 59.747C194.674 60.716 195.32 61.533 196.422 61.533H197.695V62.939H195.206V66.321H200.583V69H190.874ZM204.053 69V58.189H201.26L203.198 55.51H206.941V69H204.053ZM213.841 69.152C211.143 69.152 209.11 67.195 209.11 64.649C209.11 63.186 209.794 61.989 210.877 61.229C210.402 60.678 210.117 59.956 210.117 59.101C210.117 57.03 211.77 55.358 213.841 55.358C215.912 55.358 217.565 57.03 217.565 59.101C217.565 59.956 217.28 60.678 216.805 61.229C217.888 61.989 218.572 63.186 218.572 64.649C218.572 67.195 216.539 69.152 213.841 69.152ZM213.841 58.037C213.195 58.037 212.815 58.531 212.815 59.101C212.815 59.671 213.195 60.165 213.841 60.165C214.487 60.165 214.867 59.671 214.867 59.101C214.867 58.531 214.487 58.037 213.841 58.037ZM213.841 66.473C215 66.473 215.684 65.618 215.684 64.649C215.684 63.68 215 62.825 213.841 62.825C212.682 62.825 211.998 63.68 211.998 64.649C211.998 65.618 212.682 66.473 213.841 66.473ZM220.818 71.926L221.654 69H220.381V65.694H223.687V69L222.471 71.926H220.818ZM224.825 69L230.791 61.761C231.475 60.925 231.912 60.488 231.912 59.69C231.912 58.778 231.285 58.037 230.316 58.037C229.347 58.037 228.739 58.797 228.739 59.709V59.975H225.851V59.709C225.851 57.277 227.884 55.358 230.316 55.358C232.748 55.358 234.8 57.277 234.8 59.709C234.8 60.773 234.401 61.723 233.774 62.483L230.677 66.321H234.781V69H224.825ZM236.555 69L241.457 58.189H236.441V55.51H245.789L239.671 69H236.555ZM250.734 69.152C249.005 69.152 247.485 68.449 246.611 67.252L248.701 65.314C249.062 65.865 249.632 66.473 250.544 66.473C251.703 66.473 252.387 65.618 252.387 64.649C252.387 63.68 251.703 62.825 250.544 62.825C249.67 62.825 249.081 63.3 248.834 63.946L246.972 63.167V55.51H254.325V58.189H249.86V60.203C250.297 60.165 250.506 60.146 250.734 60.146C253.47 60.146 255.294 61.913 255.294 64.649C255.294 67.385 253.47 69.152 250.734 69.152Z" fill="white"/>
<ellipse cx="299.5" cy="360" rx="27.5" ry="3" fill="black" fill-opacity="0.3"/>
<path fill-rule="evenodd" clip-rule="evenodd" d="M258 301.78C258 278.439 276.983 259.518 300.4 259.518C323.817 259.518 342.8 278.439 342.8 301.78C342.8 311.977 339.174 321.335 333.14 328.636C333.041 328.839 332.91 329.031 332.748 329.204L307.305 356.516C303.577 360.518 297.223 360.518 293.495 356.516L268.052 329.204C267.89 329.031 267.759 328.839 267.66 328.636C261.626 321.335 258 311.977 258 301.78Z" fill="white"/>
<path fill-rule="evenodd" clip-rule="evenodd" d="M281.654 293.088C281.654 292.543 282.096 292.101 282.641 292.101H318.161C318.706 292.101 319.147 292.543 319.147 293.088V317.754C319.147 318.299 318.706 318.741 318.161 318.741H282.641C282.096 318.741 281.654 318.299 281.654 317.754V293.088ZM283.627 294.074V316.768H317.174V294.074H283.627Z" fill="#222222"/>
<path fill-rule="evenodd" clip-rule="evenodd" d="M275.734 317.754C275.734 317.21 276.176 316.768 276.721 316.768H324.081C324.626 316.768 325.067 317.21 325.067 317.754C325.067 318.299 324.626 318.741 324.081 318.741H276.721C276.176 318.741 275.734 318.299 275.734 317.754Z" fill="#222222"/>
<path fill-rule="evenodd" clip-rule="evenodd" d="M291.521 286.181V295.061C291.521 296.696 290.196 298.021 288.561 298.021C286.926 298.021 285.601 296.696 285.601 295.061V286.181" fill="white"/>
<path fill-rule="evenodd" clip-rule="evenodd" d="M285.601 285.194C286.146 285.194 286.587 285.636 286.587 286.181V295.061C286.587 296.151 287.471 297.034 288.561 297.034C289.651 297.034 290.534 296.151 290.534 295.061V286.181C290.534 285.636 290.976 285.194 291.521 285.194C292.066 285.194 292.507 285.636 292.507 286.181V295.061C292.507 297.241 290.74 299.008 288.561 299.008C286.381 299.008 284.614 297.241 284.614 295.061V286.181C284.614 285.636 285.056 285.194 285.601 285.194Z" fill="#222222"/>
<path fill-rule="evenodd" clip-rule="evenodd" d="M297.441 286.181V295.061C297.441 296.696 296.116 298.021 294.481 298.021C292.846 298.021 291.521 296.696 291.521 295.061V286.181" fill="#59CBE8"/>
<path fill-rule="evenodd" clip-rule="evenodd" d="M291.521 285.194C292.066 285.194 292.508 285.636 292.508 286.181V295.061C292.508 296.151 293.391 297.034 294.481 297.034C295.571 297.034 296.454 296.151 296.454 295.061V286.181C296.454 285.636 296.896 285.194 297.441 285.194C297.986 285.194 298.428 285.636 298.428 286.181V295.061C298.428 297.241 296.661 299.008 294.481 299.008C292.301 299.008 290.534 297.241 290.534 295.061V286.181C290.534 285.636 290.976 285.194 291.521 285.194Z" fill="#222222"/>
<path fill-rule="evenodd" clip-rule="evenodd" d="M303.361 286.181V295.061C303.361 296.696 302.035 298.021 300.401 298.021C298.766 298.021 297.441 296.696 297.441 295.061V286.181" fill="white"/>
<path fill-rule="evenodd" clip-rule="evenodd" d="M297.441 285.194C297.986 285.194 298.427 285.636 298.427 286.181V295.061C298.427 296.151 299.311 297.034 300.401 297.034C301.491 297.034 302.374 296.151 302.374 295.061V286.181C302.374 285.636 302.816 285.194 303.361 285.194C303.906 285.194 304.347 285.636 304.347 286.181V295.061C304.347 297.241 302.58 299.008 300.401 299.008C298.221 299.008 296.454 297.241 296.454 295.061V286.181C296.454 285.636 296.896 285.194 297.441 285.194Z" fill="#222222"/>
<path fill-rule="evenodd" clip-rule="evenodd" d="M309.281 286.181V295.061C309.281 296.696 307.956 298.021 306.321 298.021C304.686 298.021 303.361 296.696 303.361 295.061V286.181" fill="#59CBE8"/>
<path fill-rule="evenodd" clip-rule="evenodd" d="M303.361 285.194C303.906 285.194 304.347 285.636 304.347 286.181V295.061C304.347 296.151 305.231 297.034 306.321 297.034C307.411 297.034 308.294 296.151 308.294 295.061V286.181C308.294 285.636 308.736 285.194 309.281 285.194C309.826 285.194 310.267 285.636 310.267 286.181V295.061C310.267 297.241 308.5 299.008 306.321 299.008C304.141 299.008 302.374 297.241 302.374 295.061V286.181C302.374 285.636 302.816 285.194 303.361 285.194Z" fill="#222222"/>
<path fill-rule="evenodd" clip-rule="evenodd" d="M315.201 286.181V295.061C315.201 296.696 313.876 298.021 312.241 298.021C310.606 298.021 309.281 296.696 309.281 295.061V286.181" fill="white"/>
<path fill-rule="evenodd" clip-rule="evenodd" d="M309.281 285.194C309.826 285.194 310.268 285.636 310.268 286.181V295.061C310.268 296.151 311.151 297.034 312.241 297.034C313.331 297.034 314.214 296.151 314.214 295.061V286.181C314.214 285.636 314.656 285.194 315.201 285.194C315.746 285.194 316.188 285.636 316.188 286.181V295.061C316.188 297.241 314.421 299.008 312.241 299.008C310.061 299.008 308.294 297.241 308.294 295.061V286.181C308.294 285.636 308.736 285.194 309.281 285.194Z" fill="#222222"/>
<path fill-rule="evenodd" clip-rule="evenodd" d="M321.121 286.181V295.061C321.121 296.696 319.795 298.021 318.161 298.021C316.526 298.021 315.201 296.696 315.201 295.061L315.201 286.181" fill="#59CBE8"/>
<path fill-rule="evenodd" clip-rule="evenodd" d="M315.201 285.194C315.746 285.194 316.187 285.636 316.187 286.181V295.061C316.187 296.151 317.071 297.034 318.161 297.034C319.251 297.034 320.134 296.151 320.134 295.061V286.181C320.134 285.636 320.576 285.194 321.121 285.194C321.666 285.194 322.107 285.636 322.107 286.181V295.061C322.107 297.241 320.34 299.008 318.161 299.008C315.981 299.008 314.214 297.241 314.214 295.061V286.181C314.214 285.636 314.656 285.194 315.201 285.194Z" fill="#222222"/>
<path fill-rule="evenodd" clip-rule="evenodd" d="M285.601 286.181V295.061C285.601 296.696 284.275 298.021 282.641 298.021C281.006 298.021 279.681 296.696 279.681 295.061V286.181" fill="#59CBE8"/>
<path fill-rule="evenodd" clip-rule="evenodd" d="M279.681 285.194C280.226 285.194 280.667 285.636 280.667 286.181V295.061C280.667 296.151 281.551 297.034 282.641 297.034C283.731 297.034 284.614 296.151 284.614 295.061V286.181C284.614 285.636 285.056 285.194 285.601 285.194C286.146 285.194 286.587 285.636 286.587 286.181V295.061C286.587 297.241 284.82 299.008 282.641 299.008C280.461 299.008 278.694 297.241 278.694 295.061V286.181C278.694 285.636 279.136 285.194 279.681 285.194Z" fill="#222222"/>
<path fill-rule="evenodd" clip-rule="evenodd" d="M312.241 282.234C312.241 281.69 311.799 281.248 311.254 281.248H279.681C279.136 281.248 278.694 281.69 278.694 282.234C278.694 282.779 279.136 283.221 279.681 283.221H311.254C311.799 283.221 312.241 282.779 312.241 282.234ZM314.214 282.234C314.214 281.69 314.656 281.248 315.201 281.248H321.121C321.666 281.248 322.107 281.69 322.107 282.234C322.107 282.779 321.666 283.221 321.121 283.221H315.201C314.656 283.221 314.214 282.779 314.214 282.234Z" fill="#222222"/>
<path d="M287.574 302.954H295.468V317.754H287.574V302.954Z" fill="white"/>
<path fill-rule="evenodd" clip-rule="evenodd" d="M286.587 302.954C286.587 302.41 287.029 301.968 287.574 301.968H295.467C296.012 301.968 296.454 302.41 296.454 302.954V317.754C296.454 318.299 296.012 318.741 295.467 318.741H287.574C287.029 318.741 286.587 318.299 286.587 317.754V302.954ZM288.561 303.941V316.768H294.481V303.941H288.561Z" fill="#222222"/>
<path d="M300.401 302.954H318.161V312.821H300.401V302.954Z" fill="#59CBE8"/>
<path fill-rule="evenodd" clip-rule="evenodd" d="M299.414 302.954C299.414 302.41 299.856 301.968 300.401 301.968H318.161C318.706 301.968 319.147 302.41 319.147 302.954V312.821C319.147 313.366 318.706 313.808 318.161 313.808H300.401C299.856 313.808 299.414 313.366 299.414 312.821V302.954ZM301.387 303.941V311.834H317.174V303.941H301.387Z" fill="#222222"/>
<path fill-rule="evenodd" clip-rule="evenodd" d="M303.361 306.901C303.361 306.356 303.803 305.914 304.348 305.914H305.334C305.879 305.914 306.321 306.356 306.321 306.901C306.321 307.446 305.879 307.888 305.334 307.888H304.348C303.803 307.888 303.361 307.446 303.361 306.901Z" fill="#222222"/>
<path fill-rule="evenodd" clip-rule="evenodd" d="M308.294 306.901C308.294 306.356 308.736 305.914 309.281 305.914H312.241C312.786 305.914 313.228 306.356 313.228 306.901C313.228 307.446 312.786 307.888 312.241 307.888H309.281C308.736 307.888 308.294 307.446 308.294 306.901Z" fill="#222222"/>
<rect x="315" y="260" width="96" height="34" rx="17" fill="#2397D4"/>
<path d="M327.874 284V281.321H329.318V277.939H327.874V276.533H329.394C329.09 276.077 328.786 275.393 328.786 274.481C328.786 272.296 330.686 270.358 333.175 270.358C335.55 270.358 337.488 272.239 337.583 274.595H334.695C334.695 273.683 334.03 273.037 333.175 273.037C332.32 273.037 331.674 273.645 331.674 274.747C331.674 275.716 332.32 276.533 333.422 276.533H334.695V277.939H332.206V281.321H337.583V284H327.874ZM338.279 284L344.245 276.761C344.929 275.925 345.366 275.488 345.366 274.69C345.366 273.778 344.739 273.037 343.77 273.037C342.801 273.037 342.193 273.797 342.193 274.709V274.975H339.305V274.709C339.305 272.277 341.338 270.358 343.77 270.358C346.202 270.358 348.254 272.277 348.254 274.709C348.254 275.773 347.855 276.723 347.228 277.483L344.131 281.321H348.235V284H338.279ZM356.317 284V280.96H349.173L359.205 270.358V278.452H360.649V280.96H359.205V284H356.317ZM354.493 278.452H356.317V276.533L354.493 278.452ZM362.902 286.926L363.738 284H362.465V280.694H365.771V284L364.555 286.926H362.902ZM372.27 284.152C369.572 284.152 367.539 282.195 367.539 279.649C367.539 278.661 367.957 277.825 368.394 277.027L371.947 270.51H375.158L372.631 275.165C375.025 275.279 377.001 277.103 377.001 279.649C377.001 282.195 374.968 284.152 372.27 284.152ZM372.27 281.473C373.429 281.473 374.113 280.618 374.113 279.649C374.113 278.68 373.429 277.825 372.27 277.825C371.111 277.825 370.427 278.68 370.427 279.649C370.427 280.618 371.111 281.473 372.27 281.473ZM379.752 284L382.279 279.345C379.885 279.231 377.909 277.407 377.909 274.861C377.909 272.315 379.942 270.358 382.64 270.358C385.338 270.358 387.371 272.315 387.371 274.861C387.371 275.849 386.953 276.685 386.516 277.483L382.963 284H379.752ZM382.64 276.685C383.799 276.685 384.483 275.83 384.483 274.861C384.483 273.892 383.799 273.037 382.64 273.037C381.481 273.037 380.797 273.892 380.797 274.861C380.797 275.83 381.481 276.685 382.64 276.685ZM392.438 284.152C390.728 284.152 389.227 283.43 388.315 282.252L390.348 280.371C390.766 280.998 391.355 281.473 392.248 281.473C393.502 281.473 394.3 280.694 394.3 279.44C394.3 278.186 393.502 277.407 392.248 277.407H390.88L392.875 273.189H388.942V270.51H397.093L394.851 275.26C396.466 276.115 397.207 277.673 397.207 279.44C397.207 282.29 395.288 284.152 392.438 284.152Z" fill="white"/>
<ellipse cx="399.5" cy="194.482" rx="27.5" ry="3" fill="black" fill-opacity="0.3"/>
<path fill-rule="evenodd" clip-rule="evenodd" d="M358 136.262C358 112.921 376.983 94 400.4 94C423.817 94 442.8 112.921 442.8 136.262C442.8 146.459 439.174 155.818 433.14 163.118C433.041 163.321 432.91 163.513 432.748 163.687L407.305 190.999C403.577 195 397.223 195 393.495 190.999L368.052 163.687C367.89 163.513 367.759 163.321 367.66 163.118C361.626 155.818 358 146.459 358 136.262Z" fill="white"/>
<path fill-rule="evenodd" clip-rule="evenodd" d="M381.654 127.57C381.654 127.025 382.096 126.584 382.641 126.584H418.161C418.706 126.584 419.147 127.025 419.147 127.57V152.237C419.147 152.782 418.706 153.224 418.161 153.224H382.641C382.096 153.224 381.654 152.782 381.654 152.237V127.57ZM383.627 128.557V151.25H417.174V128.557H383.627Z" fill="#222222"/>
<path fill-rule="evenodd" clip-rule="evenodd" d="M375.734 152.237C375.734 151.692 376.176 151.25 376.721 151.25H424.081C424.626 151.25 425.067 151.692 425.067 152.237C425.067 152.782 424.626 153.224 424.081 153.224H376.721C376.176 153.224 375.734 152.782 375.734 152.237Z" fill="#222222"/>
<path fill-rule="evenodd" clip-rule="evenodd" d="M391.521 120.664V129.544C391.521 131.178 390.196 132.504 388.561 132.504C386.926 132.504 385.601 131.178 385.601 129.544V120.664" fill="white"/>
<path fill-rule="evenodd" clip-rule="evenodd" d="M385.601 119.677C386.146 119.677 386.587 120.119 386.587 120.664V129.544C386.587 130.633 387.471 131.517 388.561 131.517C389.651 131.517 390.534 130.633 390.534 129.544V120.664C390.534 120.119 390.976 119.677 391.521 119.677C392.066 119.677 392.507 120.119 392.507 120.664V129.544C392.507 131.723 390.74 133.49 388.561 133.49C386.381 133.49 384.614 131.723 384.614 129.544V120.664C384.614 120.119 385.056 119.677 385.601 119.677Z" fill="#222222"/>
<path fill-rule="evenodd" clip-rule="evenodd" d="M397.441 120.664V129.544C397.441 131.178 396.116 132.504 394.481 132.504C392.846 132.504 391.521 131.178 391.521 129.544V120.664" fill="#59CBE8"/>
<path fill-rule="evenodd" clip-rule="evenodd" d="M391.521 119.677C392.066 119.677 392.508 120.119 392.508 120.664V129.544C392.508 130.633 393.391 131.517 394.481 131.517C395.571 131.517 396.454 130.633 396.454 129.544V120.664C396.454 120.119 396.896 119.677 397.441 119.677C397.986 119.677 398.428 120.119 398.428 120.664V129.544C398.428 131.723 396.661 133.49 394.481 133.49C392.301 133.49 390.534 131.723 390.534 129.544V120.664C390.534 120.119 390.976 119.677 391.521 119.677Z" fill="#222222"/>
<path fill-rule="evenodd" clip-rule="evenodd" d="M403.361 120.664V129.544C403.361 131.178 402.035 132.504 400.401 132.504C398.766 132.504 397.441 131.178 397.441 129.544V120.664" fill="white"/>
<path fill-rule="evenodd" clip-rule="evenodd" d="M397.441 119.677C397.986 119.677 398.427 120.119 398.427 120.664V129.544C398.427 130.633 399.311 131.517 400.401 131.517C401.491 131.517 402.374 130.633 402.374 129.544V120.664C402.374 120.119 402.816 119.677 403.361 119.677C403.906 119.677 404.347 120.119 404.347 120.664V129.544C404.347 131.723 402.58 133.49 400.401 133.49C398.221 133.49 396.454 131.723 396.454 129.544V120.664C396.454 120.119 396.896 119.677 397.441 119.677Z" fill="#222222"/>
<path fill-rule="evenodd" clip-rule="evenodd" d="M409.281 120.664V129.544C409.281 131.178 407.956 132.504 406.321 132.504C404.686 132.504 403.361 131.178 403.361 129.544V120.664" fill="#59CBE8"/>
<path fill-rule="evenodd" clip-rule="evenodd" d="M403.361 119.677C403.906 119.677 404.347 120.119 404.347 120.664V129.544C404.347 130.633 405.231 131.517 406.321 131.517C407.411 131.517 408.294 130.633 408.294 129.544V120.664C408.294 120.119 408.736 119.677 409.281 119.677C409.826 119.677 410.267 120.119 410.267 120.664V129.544C410.267 131.723 408.5 133.49 406.321 133.49C404.141 133.49 402.374 131.723 402.374 129.544V120.664C402.374 120.119 402.816 119.677 403.361 119.677Z" fill="#222222"/>
<path fill-rule="evenodd" clip-rule="evenodd" d="M415.201 120.664V129.544C415.201 131.178 413.876 132.504 412.241 132.504C410.606 132.504 409.281 131.178 409.281 129.544V120.664" fill="white"/>
<path fill-rule="evenodd" clip-rule="evenodd" d="M409.281 119.677C409.826 119.677 410.268 120.119 410.268 120.664V129.544C410.268 130.633 411.151 131.517 412.241 131.517C413.331 131.517 414.214 130.633 414.214 129.544V120.664C414.214 120.119 414.656 119.677 415.201 119.677C415.746 119.677 416.188 120.119 416.188 120.664V129.544C416.188 131.723 414.421 133.49 412.241 133.49C410.061 133.49 408.294 131.723 408.294 129.544V120.664C408.294 120.119 408.736 119.677 409.281 119.677Z" fill="#222222"/>
<path fill-rule="evenodd" clip-rule="evenodd" d="M421.121 120.664V129.544C421.121 131.178 419.795 132.504 418.161 132.504C416.526 132.504 415.201 131.178 415.201 129.544L415.201 120.664" fill="#59CBE8"/>
<path fill-rule="evenodd" clip-rule="evenodd" d="M415.201 119.677C415.746 119.677 416.187 120.119 416.187 120.664V129.544C416.187 130.633 417.071 131.517 418.161 131.517C419.251 131.517 420.134 130.633 420.134 129.544V120.664C420.134 120.119 420.576 119.677 421.121 119.677C421.666 119.677 422.107 120.119 422.107 120.664V129.544C422.107 131.723 420.34 133.49 418.161 133.49C415.981 133.49 414.214 131.723 414.214 129.544V120.664C414.214 120.119 414.656 119.677 415.201 119.677Z" fill="#222222"/>
<path fill-rule="evenodd" clip-rule="evenodd" d="M385.601 120.664V129.544C385.601 131.178 384.275 132.504 382.641 132.504C381.006 132.504 379.681 131.178 379.681 129.544V120.664" fill="#59CBE8"/>
<path fill-rule="evenodd" clip-rule="evenodd" d="M379.681 119.677C380.226 119.677 380.667 120.119 380.667 120.664V129.544C380.667 130.633 381.551 131.517 382.641 131.517C383.731 131.517 384.614 130.633 384.614 129.544V120.664C384.614 120.119 385.056 119.677 385.601 119.677C386.146 119.677 386.587 120.119 386.587 120.664V129.544C386.587 131.723 384.82 133.49 382.641 133.49C380.461 133.49 378.694 131.723 378.694 129.544V120.664C378.694 120.119 379.136 119.677 379.681 119.677Z" fill="#222222"/>
<path fill-rule="evenodd" clip-rule="evenodd" d="M412.241 116.717C412.241 116.172 411.799 115.73 411.254 115.73H379.681C379.136 115.73 378.694 116.172 378.694 116.717C378.694 117.262 379.136 117.704 379.681 117.704H411.254C411.799 117.704 412.241 117.262 412.241 116.717ZM414.214 116.717C414.214 116.172 414.656 115.73 415.201 115.73H421.121C421.666 115.73 422.107 116.172 422.107 116.717C422.107 117.262 421.666 117.704 421.121 117.704H415.201C414.656 117.704 414.214 117.262 414.214 116.717Z" fill="#222222"/>
<path d="M387.574 137.437H395.468V152.237H387.574V137.437Z" fill="white"/>
<path fill-rule="evenodd" clip-rule="evenodd" d="M386.587 137.437C386.587 136.892 387.029 136.45 387.574 136.45H395.467C396.012 136.45 396.454 136.892 396.454 137.437V152.237C396.454 152.782 396.012 153.224 395.467 153.224H387.574C387.029 153.224 386.587 152.782 386.587 152.237V137.437ZM388.561 138.424V151.25H394.481V138.424H388.561Z" fill="#222222"/>
<path d="M400.401 137.437H418.161V147.304H400.401V137.437Z" fill="#59CBE8"/>
<path fill-rule="evenodd" clip-rule="evenodd" d="M399.414 137.437C399.414 136.892 399.856 136.45 400.401 136.45H418.161C418.706 136.45 419.147 136.892 419.147 137.437V147.304C419.147 147.849 418.706 148.29 418.161 148.29H400.401C399.856 148.29 399.414 147.849 399.414 147.304V137.437ZM401.387 138.424V146.317H417.174V138.424H401.387Z" fill="#222222"/>
<path fill-rule="evenodd" clip-rule="evenodd" d="M403.361 141.384C403.361 140.839 403.803 140.397 404.348 140.397H405.334C405.879 140.397 406.321 140.839 406.321 141.384C406.321 141.929 405.879 142.37 405.334 142.37H404.348C403.803 142.37 403.361 141.929 403.361 141.384Z" fill="#222222"/>
<path fill-rule="evenodd" clip-rule="evenodd" d="M408.294 141.384C408.294 140.839 408.736 140.397 409.281 140.397H412.241C412.786 140.397 413.228 140.839 413.228 141.384C413.228 141.929 412.786 142.37 412.241 142.37H409.281C408.736 142.37 408.294 141.929 408.294 141.384Z" fill="#222222"/>
<rect x="415" y="94.4824" width="88" height="34" rx="17" fill="#2397D4"/>
<path d="M427.874 118.482V115.803H429.318V112.421H427.874V111.015H429.394C429.09 110.559 428.786 109.875 428.786 108.963C428.786 106.778 430.686 104.84 433.175 104.84C435.55 104.84 437.488 106.721 437.583 109.077H434.695C434.695 108.165 434.03 107.519 433.175 107.519C432.32 107.519 431.674 108.127 431.674 109.229C431.674 110.198 432.32 111.015 433.422 111.015H434.695V112.421H432.206V115.803H437.583V118.482H427.874ZM445.499 118.482V115.442H438.355L448.387 104.84V112.934H449.831V115.442H448.387V118.482H445.499ZM443.675 112.934H445.499V111.015L443.675 112.934ZM453.262 118.482V107.671H450.469L452.407 104.992H456.15V118.482H453.262ZM459.117 121.408L459.953 118.482H458.68V115.176H461.986V118.482L460.77 121.408H459.117ZM465.193 118.482V107.671H462.4L464.338 104.992H468.081V118.482H465.193ZM474.486 118.634C472.757 118.634 471.237 117.931 470.363 116.734L472.453 114.796C472.814 115.347 473.384 115.955 474.296 115.955C475.455 115.955 476.139 115.1 476.139 114.131C476.139 113.162 475.455 112.307 474.296 112.307C473.422 112.307 472.833 112.782 472.586 113.428L470.724 112.649V104.992H478.077V107.671H473.612V109.685C474.049 109.647 474.258 109.628 474.486 109.628C477.222 109.628 479.046 111.395 479.046 114.131C479.046 116.867 477.222 118.634 474.486 118.634ZM485.222 118.634C482.524 118.634 480.491 116.677 480.491 114.131C480.491 113.143 480.909 112.307 481.346 111.509L484.899 104.992H488.11L485.583 109.647C487.977 109.761 489.953 111.585 489.953 114.131C489.953 116.677 487.92 118.634 485.222 118.634ZM485.222 115.955C486.381 115.955 487.065 115.1 487.065 114.131C487.065 113.162 486.381 112.307 485.222 112.307C484.063 112.307 483.379 113.162 483.379 114.131C483.379 115.1 484.063 115.955 485.222 115.955Z" fill="white"/>
</svg>
