<svg width="678" height="1002" viewBox="0 0 678 1002" fill="none" xmlns="http://www.w3.org/2000/svg">
<path fill-rule="evenodd" clip-rule="evenodd" d="M601.137 718.042L603.898 716.264L601.827 714.544L601.295 712.14L601.565 712.256L601.209 711.749L601.197 711.693L601.157 711.676L600.201 710.312L600.601 708.561L599.916 705.551L601.106 704.804L601.064 701.964L599.694 701.629L599.639 697.552L597.77 696.667L596.287 692.731L596.309 692.686L596.246 692.622L596.107 692.249L596.034 692.402L592.355 688.616L590.917 689.445L585.819 683.773L576.402 677.555L571.238 675.483L567.371 676.846L559.592 675.093L553.163 676.231L547.357 673.69L547.362 673.586L547.19 673.616L546.995 673.531L546.989 673.652L532.016 676.303L531.954 676.312L529.114 679.426L528.479 686.408L523.924 692.585L518.62 691.81L518.33 691.681L518.265 691.874L518.089 691.814L516.948 695.229L513.107 697.634L508.631 699.071L506.416 703.168L501.871 704.818L501.277 703.879L498.749 704.423L496.195 706.317L492.872 704.366L491.512 704.213L490.102 706.461L486.855 704.292L484.755 705.67L479.048 706.573L476.369 708.115L477.528 709.663L476.208 712.912L478.313 714.556L480.933 714.141C482.397 717.653 482.41 717.667 482.455 717.716C482.51 717.783 484.057 719.727 484.725 720.566L485.205 723.594L484.307 723.883L482.654 728.596C482.218 728.716 481.661 728.868 481.622 728.878C481.471 728.902 481.471 728.902 476.93 733.286L476.704 733.504L476.882 733.764C477.266 734.319 477.697 734.949 477.799 735.11C477.851 735.237 478.052 735.392 479.187 736.251L479.372 736.756L475.203 737.998L476.243 738.523L473.914 742.696L473.909 743.397L471.104 741.212L468.112 742.851L469.632 745.815L468.561 749.277C467.618 749.382 466.055 749.558 466.022 749.563C465.988 749.569 465.963 749.573 462.554 751.153L462.507 751.175L461.163 753.194L460.196 753.084L460.221 754.145L456.961 755.713L457.6 758.631L459.48 760.939L457.115 762.858L457.191 763.7L455.897 764.557L453.517 760.462L448.393 760.202L448.673 761.357L441.797 764.158L442.138 766.816L442.247 766.794L439.862 769.459L439.813 769.154L435.154 768.931L434.466 763.623L433.456 763.63L433.94 760.083L433.051 759.543L436.281 758.354L431.13 752.135L429.928 753.636L429.141 758.105L422.928 759.006L422.413 761.179L421.486 762.083L421.23 765.599L415.169 764.731L412.611 765.406L411.815 764.778L409.128 760.517L408.105 759.698L406.941 757.799L406.31 758.941L402.884 761.555L400.696 761.586L403.41 765.981L402.752 767.523L398.591 763.904L391.592 767.883L388.298 767.276L386.962 768.565L385.961 767.736L387.436 764.978L384.132 764.434L383.731 766.986L384.706 768.819L379.329 771.439L378.894 771.514L377.351 771.776L375.06 766.834L371.808 767.18L372.121 768.138L371.236 769.074L369.314 767.511L368.19 765.581L366.221 771.878L367.518 773.579C367.488 774.391 367.491 774.412 367.495 774.434C367.499 774.462 367.502 774.48 369.202 778.579L367.299 778.88L365.112 780.891L361.42 781.548L361.526 782.494L359.746 781.761L357.448 784.923L356.212 787.784L356.788 791.415L355.22 793.541L355.492 795.533L356.235 796.028L355.723 796.244L356.037 798.037L355.337 798.793L355.129 800.245L355.963 800.035L355.428 800.755L355.707 802.04L356.511 801.807L356.78 803.388L357.547 804.269L360.167 798.586L364.155 796.035L366.967 792.747L370.751 790.1L369.228 789.059L369.168 787.803L372.842 790.858L366.776 795.568L364.307 798.944L364.172 799.13L357.991 805.754L354.721 812.898L356.464 816.032L355.469 816.222L354.504 814.582L352.724 813.947L350.707 814.62L345.346 820.885L344.961 824.517L338.842 823.609L340.214 825.962L337.936 828.516L338.549 832.384L336.814 831.625L336.713 835.634L337.98 837.983L337.368 838.595L338.651 841.078L337.386 842.298L338.733 846.284L337.904 847.673L336.053 845.764L336.761 839.886L335.102 841.133L332.488 841.571L325.247 842.783L322.498 844.365L320.923 843.441L313.659 843.354L312.477 841.443L310.365 841.013L310.217 839.527L304.925 838.363L304.853 839.532L296.664 839.231L293.772 838.203L288.139 838.747L287.632 840.056L285.349 839.323L278.432 839.931L277.299 841.449L273.662 840.47L268.483 841.768L267.515 846.098L265.852 845.988L266.343 848.457L269.344 852.58L274.889 851.415L276.103 852.222L271.1 853.096L269.257 858.044L268.129 858.531L268.95 855.267L267.421 854.694L265.646 855.489L262.896 859.242L259.66 860.06L256.81 858.153L254.789 858.383L250.856 857.226L249.416 858.889L248.999 865.432L247.415 866.675L248.347 873.001L247.607 877.889L242.064 883.043L242.325 884.352L239.942 887.154L238.308 887.466L235.431 889.655L235.141 894.01L232.647 896.581L230.881 894.324L229.058 896.4L225.839 895.906L226.21 899.223L224.81 898.472L222.01 900.365L221.377 899.505L219.949 900.423L220.502 903.447L219.041 904.1L219.212 908.131L216.709 912.174L214.589 911.696L212.488 912.975L213.379 914.857L211.429 919.494L207.824 920.827L206.569 923.501L204.626 924.714L202.594 927.084L198.8 926.735L195.766 932.065L193.374 931.599L192.394 929.052L190.439 929.182L190.4 929.206L187.527 930.958C187.474 930.985 187.439 931.003 185.466 933.785L181.574 934.49L178.734 937.799L180.061 938.828L180.21 940.701L178.776 941.757L178.631 943.862L180.293 944.363L181.511 946.378L188.733 943.913L189.625 941.332L188.778 939.281L190.177 937.559L193.283 938.461L194.406 940.433L197.352 940.452L198.544 941.666L200.453 941.039L203.176 943.083L204.927 947.454L204.426 949.803L206.106 952.943L208.831 954.016L211.151 950.366L214.859 950.277L217.845 946.112L216.05 942.689L212.857 941.666L212.775 940.749L215.276 941.199L216.456 937.484L218.008 937.045L217.167 935.448L217.456 932.928L215.947 931.87C216.28 931.595 216.607 931.329 216.717 931.249C216.961 931.258 218.075 931.321 218.908 931.371L219.169 937.585L221.628 936.437L222.636 933.139L225.868 932.68L228.859 929.481L233.402 929.906L234.76 927.87L233.71 926.554L234.18 924.478L235.632 923.057L235.508 920.943L239.272 919.12C239.593 920.342 240.028 922.016 240.047 922.118L240.048 922.221L240.134 922.276C240.253 922.352 240.263 922.359 242.481 921.332C242.737 921.215 242.93 921.124 242.992 921.097L245.983 920.705L251.758 921.428L252.055 919.513L250.784 917.947L250.836 916.923L253.45 918.57L262.014 917.905L265.275 919.954L265.819 922.622L268.756 922.647L268.354 920.565L269.68 920.378L269.644 918.635L269.43 918.675C268.341 918.877 267.886 918.969 267.685 919.036C267.469 918.936 266.671 918.482 266.061 918.127L266.572 916.721L261.012 915.3L261.502 914.047L262.361 914.96L262.419 914.972C265.699 915.629 265.724 915.625 265.768 915.618C265.828 915.609 265.848 915.606 267.123 914.57L267.284 914.818L267.47 915.105L267.498 915.147L269.385 918.062L271.772 918.739L271.651 919.974L271.502 919.964L271.629 920.208L271.616 920.343L271.702 920.349L272.831 922.526L272.941 922.528C273.54 922.538 274.46 922.556 274.799 922.569C274.843 922.982 274.88 923.395 274.909 923.809L274.919 923.944L277.741 924.614L280.377 923.864L283.322 925.075L287.948 925.103L286.902 929.765L287.012 929.835C287.685 930.264 288.775 930.969 288.917 931.076C289.009 931.22 289.296 931.606 290.215 932.815L290.278 932.898L292.856 932.625L292.555 930.727L295.559 934.234L297.784 931.515L299.813 931.858L299.865 926.603L300.923 922.868L302.733 922.851L305.006 921.995L304.208 919.991C305.714 921.086 305.736 921.09 305.788 921.099L305.847 921.1C305.888 921.093 305.945 921.084 307.695 920.055L307.791 919.998L307.656 917.735L309.368 917.003L309.688 916.95L309.632 916.891L310.816 916.385L309.383 916.626L308.005 915.159L305.192 914.854L304.954 912.796L307.415 908.956L308.888 907.894L307.987 905.125L307.933 904.958L307.854 904.717L307.3 903.019L304.956 903.238L304.877 902.431L309.917 901.354L311.284 899.511L311.265 897.553L312.811 896.169L311.58 895.593L310.649 890.517L310.379 889.052L311.412 889.466L311.862 892.302L313.369 893.545L313.722 896.526L317.139 897.002L317.238 895.004L320.082 894.378L321.309 892.809L321.25 891.293L323.083 890.383L332.064 889.022L332.175 889.005L332.594 887.767L340.427 886.856L340.406 886.955L340.712 886.823L340.816 886.811L340.824 886.776L344.001 885.422C346.405 886.195 346.81 886.319 346.913 886.333C347.03 886.345 349.255 886.659 350.752 886.873L353.636 888.942L360.211 892.423L365.312 896.827L367.011 899.226L368.452 899.068L369.415 901.14L367.784 904.108L370.049 903.882L371.694 902.409L371.076 900.207L369.665 898.729L369.347 896.878L370.272 894.062L372.804 893.685L375.147 895.054L375.364 895.095L375.363 895.103L375.718 895.163L375.73 895.165L381.296 896.107L386.675 895.78L389.134 897.703L391.63 897.556L392.739 898.982L397.255 898.22L398.432 896.748L398.12 895.379L399.699 893.173L398.651 890.256L389.386 889.207L389.641 888.119L392.985 886.693L392.442 885.099L393.411 884.855L394.142 884.674C394.949 885.072 396.19 885.689 396.366 885.793C396.484 885.959 396.857 886.428 398.077 887.93L398.144 888.013L400.842 887.586L401.755 886.06L401.864 886.047L402.12 886.02L405.696 885.617C407.039 886.282 407.291 886.4 407.38 886.414C407.485 886.428 408.954 886.725 409.915 886.922L410.366 887.013L409.151 885.252L413.384 884.249L414.794 883.913L417.441 885.372L419.929 887.117L422.446 883.974L422.312 882.286L424.596 882.312L433.536 879.194L433.608 879.169L434.957 876.398L425.821 868.785L425.571 867.544L429.521 869.896L430.155 867.408L431.537 870.109L432.466 871.927L434.51 871.578L436.387 874.936L440.08 877.568L440.342 877.754L440.403 877.797L444.301 880.574L445.321 879.124L445.976 878.926L446.208 879.08L447.96 880.252L450.119 878.68L449.99 875.53L451.232 873.71L454.352 873.936L456.427 873.21L456.668 873.126L456.776 873.088L457.169 876.01L458.919 875.895L459.059 874.126L460.529 873.092L461.307 876.156L459.221 877.459L459.836 880.236L462.19 882.956L465.989 884.51L465.44 880.969L466.343 879.249L468.587 880.491L468.29 878.949L473.744 878.52L473.762 878.518L480.823 876.442L483.208 876.929L485.099 876.603L485.365 876.558L485.468 876.541L489.366 875.869L491.457 874.648L497.431 873.469L503.955 874.77L507.158 875.592L514.561 877.487L516.229 879.132L518.556 879.718L521.894 880.557L521.875 880.73L522.117 880.612L522.256 880.647L522.269 880.538L528.169 877.66L528.77 875.251L529.78 874.412L531.128 873.297L531.257 873.245L534.85 871.804L539.038 870.958L540.312 870.703L541.624 869.533L544.43 869.548L547.723 867.931L548.829 867.39L551.267 863.797L552.958 860.225L558.581 862.096L558.779 862.112L558.78 862.116L565.513 862.637L564.674 857.568L566.45 854.708L566.058 852.879L570.546 850.035L570.964 848.707L577.502 847.924L578.633 845.526L583.472 844.381L585.287 842.064L588.725 838.376L589.329 836.512L588.956 831.524L588.955 831.511L587.77 826.179L586.4 827.238L584.35 827.51L583.861 824.688L586.357 825.347L590.831 822.479L589.965 818.117L587.239 817.486L580.126 819.864L579.285 818.316L579.15 818.344C579.055 818.364 569.647 820.342 569.532 820.365C569.461 820.376 569.442 820.379 567.461 822.139L562.579 823.688L562.512 823.709L562.188 823.812L562.128 823.832L559.268 825.627L559.227 824.595L555.673 823.972L553.25 822.175L551.244 823.004L551.063 820.699L549.356 817.468L547.148 817.855L546.28 821.03L543.1 821.533L540.066 819.282L537.409 820.564L537.968 818.566L548.955 814.336L548.509 814.163C542.263 811.717 542.245 811.72 542.178 811.731C542.165 811.733 542.131 811.739 534.599 813.746L534.462 813.417L534.343 813.815L534.239 813.842L534.295 813.977L533.838 815.505L528.531 816.102L525.233 813.971L523.54 814.937L521.335 813.485L520.263 814.471L520.209 814.432L519.951 814.243L518.457 813.164L519.262 812.18L518.108 810.734L514.532 809.981L514.395 809.675L514.29 809.931L514.085 809.887L514.201 810.146L513.866 810.961L511.256 811.528L511.212 811.482L510.95 811.21L513.14 810.621L513.21 809.399L516.222 809.473L519.336 809.55L520.205 811.395L520.185 811.433L520.235 811.461L520.303 811.604L520.373 811.752L520.499 812.02L520.928 812.93L524.986 812.995L526.356 814.546L530.531 814.663L534.473 810.26L539.178 809.189L537.599 807.415L539.019 806.929L539.81 809.605L542.303 810.166L542.296 808.1L540.24 806.202L543.654 806.89L543.837 806.899L544.096 806.911L544.093 806.906L548.319 807.023L551.183 807.68L554.2 806.082L554.405 806.099L554.377 805.988L554.807 805.761L554.308 805.719L553.873 804L550.055 803.238L549.739 802.731L555.671 801.727L555.84 805.342L561.754 798.891L555.894 800.073L554.515 798.271L560.424 796.483L561.46 793.718L559.688 786.625L551.736 792.383L548.863 792.974L546.715 790.508L546.197 788.81L552.632 787.712L557.782 784.8L555.167 784.113L557.027 782.467L559.304 782.428L560.602 783.973L563.342 781.849L560.156 780.297L561.102 776.794L562.764 777.606L564.813 779.555L566.499 778.808C565.941 781.205 565.945 781.229 565.952 781.275C565.966 781.362 565.968 781.372 568.722 783.921L568.814 784.005L574.341 781.422L574.373 781.406L579.743 775.587L579.486 773.7L576.393 775.592L575.265 773.033L577.548 771.538L578.597 768.47L577.5 767.574L567.019 768.652L566.074 767.283L571.047 765.79L574.136 767.094L578.134 766.722L576.661 763.882L572.707 762.256L572.678 761.585L572.405 761.357L572.657 761.283L574.356 761.687L574.617 761.748L574.74 761.778L577.652 762.467L579.907 768.522L582.832 766.076L583.736 762.914L580.309 756.104L578.55 755.085L579.347 753.417L580.886 752.432L584.704 762.275L586.759 761.95L587.241 759.956L589.573 756.552L594.203 754.367L596.156 746.175L596.256 742.639L597.614 734.154L599.426 731.738L601.495 724.526L601.506 724.484L600.992 721.682L601.897 719.902L601.138 718.043L601.137 718.042Z" fill="#3CCEAF"/>
<path fill-rule="evenodd" clip-rule="evenodd" d="M444.669 885.656L444.548 884.031L439.25 885.187L438.248 883.964L438.506 882.2L436.719 881.062L435.972 883.077L436.583 885.73L435.899 887.009L435.525 886.313L435.942 884.61L435.193 880.947L433.712 881.34L432.969 883.347L430.575 884.686L430.238 886.764L426.965 886.049L423.432 887.565L422.373 886.67L419.752 892.209L423.121 890.737L425.415 890.97L433.365 897.828L434.236 897.014L435.161 899.233L436.136 899.424L443.104 896.731L443.113 896.611C443.412 892.79 443.37 892.71 443.334 892.646C443.295 892.573 442.809 891.751 442.55 891.313L447.485 890.77L444.67 885.656L444.669 885.656ZM553.957 815.055L550.783 814.929L549.981 817.101L551.803 820.207L556.912 822.108L563.403 820.924L554.57 816.844L553.957 815.055ZM143.566 950.566L144.714 952.523L145.992 951.168L144.56 949.055L143.566 950.566ZM140.021 957.601L140.206 958.286L142.524 958.69L141.189 956.574L140.021 957.601ZM142.019 955.505L143.549 956.2L145.507 955.458L143.941 952.645L142.019 955.505ZM142.416 953.93L142.577 954.026L143.851 952.367L142.284 950.765L140.21 950.908L140.228 951.097C140.381 952.702 140.393 952.71 140.485 952.77C140.517 952.793 141.846 953.588 142.416 953.93ZM241.836 840.535L240.439 841.421L241.056 845.314L243.244 844.42L241.836 840.535ZM454.022 874.476L451.316 878.19L453.82 879.061L453.853 879.056C454.6 878.961 455.729 878.819 455.883 878.806L455.968 878.824L456.026 878.727C456.1 878.604 456.1 878.604 454.144 874.719L454.022 874.476Z" fill="#8CE2D0"/>
<path fill-rule="evenodd" clip-rule="evenodd" d="M504.293 609.396L502.705 608.765L502.48 606.69L491.934 593.476L492.075 589.526L490.778 588.273L488.993 577.897L494.435 572.744L493.937 570.637L491.724 570.988L490.258 569.037L488.179 569.943L485.323 567.544L483.6 563.429L478.608 560.008L477.152 555.587L474.038 551.15L470.269 542.407L470.247 542.356L463.156 537.752L461.012 537.504L461.543 536.162L456.527 534.454L457.375 533.267L451.069 532.779L448.742 530.713L447.119 531.555L443.966 530.472L442.751 528.193L437.588 526.273L436.865 529.137L436.622 529.057L434.974 528.519L435.848 524.227L435.011 522.998L436.838 521.978L432.358 519.066L432.352 519.057L429.134 514.907L427.643 508.433L426.984 507.623L426.94 507.357L426.324 503.563L424.482 502.295L426.095 501.743L426.204 499.451L426.211 499.318L426.221 499.077L426.228 498.896L425.259 495.657L423.537 494.043L423.449 493.223L423.322 492.018L421.201 490.433L420.911 487.405L420.904 487.317L420.887 487.144L420.791 487.191L418.842 485.02L418.446 482.626L416.214 481.401L418.919 478.537L418.351 475.184L416.847 475.056L415.457 472.401L414.918 467.163L416.437 466.715L412.833 461.111L413.609 459.111L413.668 452.578L412.05 448.686L413.075 446.841L411.946 445.808L410.885 441.809L408.303 439.681L402.75 438.452L392.973 426.282L392.814 423.584L390.98 421.355L391.066 421.193L390.675 420.985L390.217 420.426L390.085 420.67L389.431 420.322L387.568 423.814L380.761 432.006L379.589 434.86L377.277 434.35L373.226 436.212L382.118 451.396L373.383 457.967L373.846 460.298L367.177 461.354L364.922 464.658L362.546 466.496L355.783 477.09L347.13 483.755L344.11 486.822L336.646 488.933L335.816 495.866L336.369 495.931L336.553 495.954L336.526 496.183L337.193 496.118L338.651 497.915L335.806 498.315L333.031 500.474L339.239 500.368L339.392 501.18L334.175 501.958L324.58 499.392L323.823 502.472L329.749 502.983L329.182 503.791L321.189 504.659L318.025 508.437L316.841 516.049L310.904 523.918L311.264 525.856L309.11 526.959L309.987 530.172L309.983 530.201L309.954 530.399L309.929 530.568L309.197 535.638L307.771 534.946L307.522 537.884L305.49 538.785L305.52 538.931C305.616 539.419 305.872 540.706 305.887 540.803C305.896 540.856 305.916 540.98 306.686 541.846L309.795 543.954L311.642 546.003L314.354 552.056L314.378 552.108L314.427 552.14C315.914 553.037 318.108 554.372 318.606 554.698C318.385 555.273 317.359 557.78 316.657 559.483L316.629 559.552L319.458 566.846L319.474 566.89L322.444 569.426L325.089 568.839L326.062 568.034L325.593 565.975L327.528 564.429L327.88 565.754L327.949 566.008L327.977 566.113L328.359 567.546L325.42 575.816L331.082 577.669L332.329 575.937L336.54 570.1L336.672 566.968L337.459 562.205L338.732 562.432L338.273 566.072L338.547 570.245L340.888 572.553L345.599 568.9L345.631 568.877L348.934 562.824L350.267 563.7L350.598 566.108L345.898 569.941L345.832 569.993L345.273 570.449L345.938 570.152L347.622 572.695L347.679 572.716C348.724 573.095 350.217 573.638 350.724 573.825C350.332 574.499 349.927 575.165 349.509 575.824L348.707 578.288L344.088 579.892L343.172 583.638L346.335 586.285L345.078 591.195L343.255 591.26L343.202 591.325C342.271 592.471 340.862 594.197 340.693 594.381C340.56 594.47 340.604 594.721 341.595 599.328L339.278 598.729L340.011 597.158L339.058 596.259L339.218 593.607L337.326 592.802L336.074 594.309L336.032 597.035L336.084 597.414L336.504 600.564L335.049 601.759L335.652 605.665L335.155 606.843L335.905 609.399L337.663 609.427L338.557 611.226L341.483 610.915L342.434 609.608L346.038 610.74L344.818 612.827L342.705 611.202L341.371 615.56L340.206 614.305L334.122 623.469L334.091 623.516L334.108 629.744V629.807L335.463 631.577L335.975 635.712L338.038 637.131L339.247 641.565L343.444 645.109L347.741 647.823L347.872 647.797L347.883 647.867L350.913 647.281L351.44 645.35L354.604 644.83L355.714 645.551L351.876 648.533L349.836 650.12L345.259 650.794L342.251 649.34L338.422 643.466C338.33 642.698 338.238 641.931 338.144 641.164C338.136 641.112 338.13 641.071 335.896 637.633L335.788 637.468L335.63 637.586L333.297 639.322C333.182 639.391 331.231 640.363 329.948 641L329.88 641.035L328.57 645.003L333.108 649.863L332.733 650.707L332.798 654.092L335.189 654.544L335.085 654.815L335.064 654.82L335.071 654.851L334.849 655.436L335.185 655.362L335.224 655.543L336.59 655.242L341.816 660.214L341.586 660.661L342.469 661.309L341.388 662.907L338.215 663.275L339.82 666.556L343.599 668.191L342.879 669.107L345.345 672.402L345.706 674.445L347.054 677.138L353.098 679.986L354.882 678.639L356.983 679.384L358.241 679.171L358.426 679.917L360.852 682.482L364.281 680.854L367.161 682.217L368.845 680.546L372.446 678.58L374.012 672.935L375.436 670.932L378.909 670.416L378.982 670.364C379.565 669.948 380.495 669.291 380.734 669.129L380.81 669.117L383.934 664.825L385.615 663.702L385.868 661.395L387.614 662.859L392.251 661.007L393.738 658.679L393.29 654.082L393.332 648.788L392.661 645.194L391.494 643.626L393.741 639.45L392.34 639.485L392.309 637.934L393.944 637.084L393.753 635.876L394.699 635.102L394.88 631.425L397.686 628.503L402.234 630.216L403.444 632.481L403.659 633.834L411.346 642.116L410.616 644.197L415.417 649.338L416.464 648.294C419.089 649.572 419.093 649.571 419.24 649.548L419.606 649.489L419.586 649.361C419.929 649.154 420.683 648.713 421.324 648.341L421.637 649.635L423.584 646.841L425.711 646.647L425.917 648.428L429.178 648.845L429.785 647.841L430.775 647.632L433.526 650.023L437.581 648.351L438.083 647.287L439.075 647.389L439.97 645.972L439.071 645.108L440.298 643.442L442.021 638.609L446.586 638.045L450.611 631.312L450.587 628.739L453.185 623.163L460.878 625.551L462.134 622.93L464.028 615.827L464.039 615.788L463.616 613.115L463.386 611.767L466.335 609.972L469.423 609.43L472.853 610.722L477.809 609.776L478.937 609.561L478.969 609.551C481.018 608.764 484.098 607.592 484.538 607.452C484.947 607.614 487.101 608.448 487.86 608.742L494.654 616.258L494.689 616.296L499.599 617.858L501.39 615.731L507.956 618.465L506.876 621.919L509.153 622.229L510.534 619.596L504.293 609.396Z" fill="#3CCEAF"/>
<path fill-rule="evenodd" clip-rule="evenodd" d="M516.181 639.862L516.149 639.785L513.305 637.059L511.867 635.369L507.704 629.922L503.438 626.342L502.909 626.045L502.784 626.064L502.655 626.118L500.706 625.055L500.697 622.966L494.929 620.654L490.484 616.784L489.381 615.204L489.344 615.152L489.167 614.896L486.86 611.604L482.832 610.496L479.847 612.14L476.74 611.244L472.21 613.968L467.251 610.426L463.209 612.807L463.639 615.519L461.78 622.517L460.676 624.827L453.013 622.441L450.241 628.405L450.516 629.8L446.196 637.043L441.556 637.617L439.726 642.764L438.187 644.857L439.115 645.752L438.79 646.268L437.737 646.159L437.136 647.436L433.786 648.819L431.113 646.49L429.452 646.842L428.932 647.706L426.736 647.423L426.515 645.506L423.335 645.794L422.14 647.513L421.983 646.858L421.554 647.105C420.327 647.817 419.679 648.193 419.342 648.421C418.897 648.214 417.586 647.577 416.743 647.166L416.507 647.051L415.633 647.925L411.677 643.681L412.404 641.607L404.596 633.182L404.398 631.932L403.003 629.317L397.759 627.336L394.437 630.803L394.26 634.417L393.244 635.25L393.419 636.349L389.746 638.261L391.877 638.123L391.912 639.911L392.778 639.889L390.922 643.347L392.262 645.151L392.885 648.497L392.846 653.727L393.273 658.116L392.058 660.024L388.072 661.615L385.614 659.553L385.249 662.886L383.751 663.884L380.694 668.097C380.497 668.223 380.067 668.53 378.987 669.298L375.392 669.829L373.719 672.193L372.21 677.644L368.808 679.504L367.425 680.878L364.708 679.59L361.463 681.134L359.549 679.106L359.247 677.887L357.508 678.179L355.222 677.367L353.82 678.429L352.907 679.632L353.213 680.76L352.52 681.919L352.926 684.025C352.456 684.235 352.048 684.415 351.98 684.443C351.796 684.528 351.371 684.81 349.689 685.944L346.633 682.08L346.397 682.017C344.635 681.544 342.875 681.065 341.117 680.58L341.092 680.094L341.034 678.954L337.043 680.999L337.274 682.079C336.666 682.415 335.975 682.794 335.733 682.925C335.422 682.977 334.405 683.135 333.492 683.276L333.157 683.328L331.771 685.559L329.853 686.703L329.859 687.128C329.893 690.201 329.911 691.173 329.932 691.524C329.897 691.82 329.563 693.693 329.258 695.339L329.175 695.786L332.003 697.946L333.587 696.789L337.75 701.375L338.047 701.557L337.255 701.656C336.71 701.742 336.669 702.014 336.492 703.161C336.409 703.693 336.304 704.403 336.199 705.113C336.043 706.162 335.89 707.212 335.822 707.685L333.074 710.222L334.021 711.004L329.573 715.068L329.785 715.552C330.223 716.559 330.892 718.098 331.142 718.684C331.105 718.794 331.064 718.923 331.017 719.069C330.898 719.441 330.699 720.058 330.646 720.194L329.594 722.324L331.682 721.146C331.844 721.054 336.165 718.661 337.755 717.782C337.984 718.107 338.197 718.411 338.343 718.622C338.221 718.926 338.026 719.405 337.831 719.882L330.015 723.662L329.948 723.694L329.89 723.739C329.89 723.739 328.806 724.563 327.724 725.394C325.215 727.321 325.215 727.321 325.29 727.79L325.303 727.873L325.334 727.949C325.405 728.126 325.405 728.126 332.842 735.954L335.56 737.946L338.731 737.883L337.503 738.763L337.479 738.779C337.146 739.027 337.146 739.027 336.854 742.823L336.829 743.145L337.923 744.33L336.709 744.111L334.864 746.706L329.693 757.012L331.848 758.593L330.67 761.866L331.156 763.676L333.271 765.726L333.984 770.688L334.031 771.081L341.733 777.535L347.475 778.399L353.095 785.114L354.568 783.807L355.488 785.213L356.731 785.542L358.602 784.507L360.087 782.465L362.325 783.385L362.174 782.03L365.509 781.436L367.687 779.431L370.115 779.047L369.935 778.614C369.295 777.068 368.347 774.783 368.185 774.381C368.188 774.243 368.199 773.895 368.211 773.579L368.216 773.447L366.976 771.824L368.482 767.016L369.021 767.944L371.417 769.886L372.88 768.344L372.678 767.723L374.851 767.494L377.146 772.445L379.618 772.024L385.572 769.124L384.416 766.954L384.702 765.142L386.686 765.469L385.363 767.937L387.095 769.364L388.578 767.931L391.785 768.522L398.608 764.647L403.036 768.495L404.107 765.995L401.762 762.2L403.151 762.179L406.808 759.392L407.035 758.983L407.752 760.149L408.76 760.943L411.457 765.216L412.543 766.075L415.255 765.357L421.968 766.317L422.249 762.483L423.127 761.63L423.575 759.742L429.81 758.838L430.656 754.041L431.171 753.397L435.066 758.094L431.385 759.448L433.167 760.533L432.633 764.434L433.841 764.425L434.52 769.681L439.19 769.904L439.388 771.15L444.316 765.644L442.777 765.972L442.61 764.682L449.538 761.863L449.342 761.055L453.07 761.243L455.634 765.655L457.773 764.241L457.674 763.157L460.238 761.079L458.094 758.451L457.58 756.099L460.761 754.569L460.742 753.789L461.412 753.865L462.855 751.701C463.94 751.197 465.028 750.696 466.117 750.199C466.403 750.166 467.894 749.998 468.907 749.886L469.147 749.858L470.39 745.849L469.066 743.266L470.997 742.209L474.589 745.006L474.607 743.004L477.217 738.335L477.15 738.301L480.283 737.368L479.754 735.923L479.668 735.857C479.236 735.533 478.808 735.203 478.385 734.867C478.139 734.486 477.884 734.109 477.622 733.738C479.01 732.396 480.404 731.059 481.803 729.729C481.942 729.693 482.254 729.609 482.981 729.409L483.167 729.358L484.824 724.64L485.975 724.269L485.366 720.434L485.306 720.357C484.539 719.393 483.771 718.431 483.003 717.469C482.874 717.183 482.02 715.141 481.454 713.785L481.341 713.516L478.469 713.971L477.063 712.875L478.329 709.765L477.422 708.557L479.255 707.501L484.973 706.596L486.795 705.402L490.261 707.712L491.826 705.223L492.566 705.306L496.168 707.417L498.982 705.333L500.847 704.931L501.481 705.933L506.839 703.99L509.043 699.918L513.274 698.562L517.455 695.959L518.786 691.986L515.868 690.679L515.393 688.877L511.375 685.583L504.958 685.377L501.92 686.135L501.673 685.48L506.19 682.089L504.417 679.247L507.623 680.758L511.191 673.2L521.75 665.668L521.27 662.529L522.125 655.324L516.18 639.862H516.181Z" fill="#2BAB90"/>
<path fill-rule="evenodd" clip-rule="evenodd" d="M353.733 681.466L353.254 679.71L347.529 677.025L346.263 674.506L345.898 672.436L343.55 669.312L344.393 668.245L340.298 666.482L340.131 666.141L338.985 663.806L341.807 663.479L343.184 661.451L342.269 660.781L342.905 659.547L342.051 658.712L341.946 659.863L336.915 655.095L335.355 655.438L334.744 657.038L328.371 652.908L327.634 650.506L319.041 646.188L318.537 645.936L315.692 647.771L312.61 647.904L312.035 650.123L310.514 650.273L298.175 651.482L298.397 650.312L296.08 647.597L293.589 648.308L292.943 646.25L291.532 647.129L292.393 650.2L294.633 651.512L295.117 654.005L293.583 654.674L293.298 652.768L290.801 651.96L287.532 652.92L284.521 655.17L283.345 655.648L279.581 657.173L277.313 656.239L272.196 659.937L269.43 664.523L266.564 665.669L266.839 668.408L264.794 673.944L261.96 676.52L257.732 678.854L256.867 682.27L252.496 682.252L243.622 689.668L243.36 692.386L241.727 692.769L240.871 695.136L242.435 696.786L243.656 695.28L247.995 695.551L249.344 694.504L249.869 693.109L250.988 692.738L252.644 694.532L253.568 697.221L256.024 696.071L255.721 694.399L256.315 691.379L258.392 690.095L260.205 687.025L265.297 687.121L265.185 685.403L268.688 686.142L275.879 685.871L276.264 684.358L282.804 683.357L275.643 687.877L276.279 691.996L274.88 695.53L278.049 699.462L280.061 703.15L285.291 701.292L280.426 705.342L275.859 712.5L278.678 712.851C278.678 712.851 278.171 714.153 278.118 714.161C278.066 714.169 277.676 717.796 277.676 717.796L282.621 718.628L285.908 717.892L285.228 718.371L280.072 721.989L278.243 726.427L276.046 737.303L273.079 740.274L271.338 744.129L263.821 748.757L259.844 748.856L255.689 753.325L254.884 755.329L250.899 756.723L250.836 755.315L248.589 756.309L245.956 755.432L243.474 756.534L243.682 758.415L242.067 757.766L240.146 758.459L238.659 761.797L234.243 763.827L235.035 766.574L231.679 766.2L230.731 764.153L230.012 766.252L225.652 767.419L226.704 765.516L225.005 765.927L222.015 764.928L220.691 766.256L220.822 769.992L218.534 770.851L217.417 772.925L216.417 772L214.016 772.363L213.205 774.335L209.904 774.982C209.904 774.982 207.251 776.448 207.197 776.457C207.145 776.465 207.451 780.3 207.451 780.3L208.851 779.012L213.318 778.413L213.804 779.683L217.989 780.455L218.792 786.304L217.777 788.449L213.35 789.86L213.044 791.414L211.382 790.596L210.806 792.139L213.459 794.485L213.871 796.743L215.706 796.416L215.414 794.335L218.414 793.029L218.531 791.644L219.627 791.364L219.644 793.826L220.43 794.287L223.198 793.636L223.75 795L225.977 794.081L226.984 792.468L228.931 794.41L228.873 795.395L227.364 795.316L228.495 796.518C228.495 796.518 228.036 798.312 227.983 798.32C227.933 798.329 222.523 795.123 222.523 795.123L221.287 796.311C221.287 796.311 218.873 795.471 218.806 795.499C218.74 795.53 218.267 796.702 218.267 796.702L220.83 798.723L220.259 801.864L223.46 803.733L225.753 803.246L228.332 804.788L231.069 800.577L233.926 799.949L234.748 801.43L237.95 800.836L237.561 799.391L240.724 799.883L243.058 795.951L241.447 794.68C241.447 794.68 243.589 793.118 243.641 793.111C243.692 793.103 246.504 792.411 246.504 792.411L257.029 792.021L255.883 789.525L259.772 788.431L261.346 791.48L263.272 793.744L261.371 794.684L266.452 798.754L268.589 797.848L270.481 798.752L274.661 799.173L275.592 798.192L275.576 796.51L278.092 796.537L276.892 798.855L277.027 799.131L277.63 800.368C277.63 800.368 275.921 800.038 275.869 800.045C275.818 800.053 267.515 802.307 267.515 802.307L263.423 804.265L264.421 806.733L264.119 808.551L266.646 810.21C266.646 810.21 272.323 809.825 272.377 809.816C272.426 809.808 274.368 806.982 274.368 806.982L275.194 809.282L278.564 808.854C278.564 808.854 280.393 807.909 280.688 807.629C280.984 807.353 280.867 806.291 280.792 805.823C280.719 805.356 283.241 804.285 284.125 804.019C285.011 803.758 284.825 802.245 284.825 802.245L285.242 804.64L287.383 803.226L287.852 802.916L289.596 800.763L290.352 805.533L292.549 806.677L291.536 808.272L294.898 811.552L294.992 811.642L294.422 814.463L295.983 814.852L297.89 817.335L299.883 816.203L301.92 816.801L303.103 820.673L307.443 823.764L312.413 825.209L314.285 823.299L316.536 825.373L322.935 825.386L322.925 824.078L327.915 823.18L326.47 819.121L325.605 819.17L325.585 819.066L325.317 817.69L329.084 816.721L329.526 814.454L331.371 815.652L333.093 814.391L337.712 811.014L347.568 809.913L347.648 809.821L348.867 808.431L353.047 807.929L356.623 802.109L356.517 801.434L355.698 801.669L355.479 800.666L356.279 799.6L355.205 799.869L355.367 798.752L356.094 797.974L355.791 796.243L356.486 795.951L355.524 795.316L355.274 793.489L356.851 791.368L356.274 787.729L357.47 785.271L355.584 785.045L354.348 783.162L352.795 784.531L347.466 778.199L341.626 777.329L334.279 771.211L334.265 771.109L333.518 765.886L331.358 763.806L330.984 762.422L332.282 758.85L330.175 757.314L335.038 747.67L336.623 745.457L339.558 745.985L337.179 743.42C337.179 743.42 337.452 739.962 337.515 739.916C337.58 739.872 340.707 737.638 340.707 737.638L335.379 737.749L332.951 735.995C332.951 735.995 325.585 728.288 325.567 728.242C325.558 728.19 329.909 724.894 329.909 724.894L338.02 720.987C338.02 720.987 338.794 719.129 338.789 719.093C338.784 719.06 337.59 717.382 337.59 717.382C337.59 717.382 331.101 720.959 330.9 721.073C330.963 720.947 331.507 719.23 331.517 719.229C331.511 719.187 330.041 715.835 330.041 715.835L334.755 711.554L333.801 710.773L336.133 708.631C336.133 708.631 336.96 702.981 336.995 702.976L339.872 702.614L337.859 701.387L333.302 696.399L331.62 697.623L329.582 696.078C329.582 696.078 330.304 692.231 330.277 692.15C330.253 692.071 330.206 687.731 330.206 687.731L331.924 686.714L333.231 684.617C333.231 684.617 335.572 684.258 335.618 684.239C336.334 683.853 337.048 683.464 337.761 683.073L337.534 682.011L340.015 680.742C340.015 680.742 340.064 681.715 340.07 681.751C340.075 681.785 345.892 683.334 345.892 683.334L349.232 687.534C349.232 687.534 351.915 685.736 351.951 685.73C351.984 685.724 353.483 685.051 353.483 685.051L353.02 682.654L353.732 681.467L353.733 681.466ZM255.537 648.23L253.145 649.593L253.678 651.843L256.942 653.921L257.113 658.243L256.076 659.035L258.425 660.49L259.541 660.11L261.469 663.312L264.658 664.693L267.241 663.277C267.241 663.277 268.853 661.338 268.888 661.333C268.922 661.328 271.669 658.663 271.669 658.663L273.111 656.825L274.844 656.372L275.235 654.64L278.38 653.832L282.142 648.771L280.703 647.765L276.807 647.435L274.871 648.973L272.521 648.977L272.431 645.556L270.902 643.77L268.153 643.531L269.055 638.872L265.754 638.98L261.976 637.186L259.187 638.776L253.605 639.565L252.952 641.316L254.52 641.068L252.663 645.437L255.537 648.23ZM249.726 653.713L251.258 655.176L251.264 650.073L251.89 649.022L250.677 648.074L249.624 649.932L248.678 647.525L246.833 647.729L246.457 651.5L248.277 651.135L249.726 653.713Z" fill="#21826E"/>
<path fill-rule="evenodd" clip-rule="evenodd" d="M243.994 422.749L241.714 421.593L240.634 423.603L241.064 425.188L242.534 424.691L243.994 422.749ZM240.293 428.802L241.833 428.376L242.206 426.171L239.934 426.53L240.293 428.802ZM231.078 422.113L229.786 419.99L229.893 421.988L231.078 422.113ZM232.309 411.126L231.075 408.848L229.483 408.4L228.037 410.281L228.385 411.771L230.091 414.975L231.455 414.554L232.001 421.03L233.167 421.618L234.216 421.392L234.348 423.989L235.906 426.059L237.451 426.923L237.939 425.411L236.459 424.608C236.459 424.608 237.541 419.019 237.574 419.015C237.606 419.009 236.891 415.551 236.891 415.551L235.322 416.029L234.178 414.449L234.715 412.615L232.31 411.126H232.309ZM199.376 435.278L199.124 434.154L198.203 435.224L199.376 435.278ZM199.228 424.828L198.816 426.847L198.026 427.91L198.448 430.129L197.735 431.751L197.881 433.187L200.403 431.341L200.983 429.029L199.662 428.235L201.242 424.991L199.228 424.828ZM176.211 399.375L178.124 396.744L176.242 397.042L176.211 399.375ZM178.599 394.669L181.747 390.203L181.17 388.116L176.226 393.144L174.656 394.971L174.555 396.276L175.825 396.752L178.693 396.655L178.599 394.669ZM205.352 384.429L206.47 384.464L206.114 382.215L205.165 381.99L203.733 383.401L202.097 383.36L201.882 384.916L203.716 385.711L205.352 384.429ZM203.062 377.667L201.649 377.93L200.97 379.162L202.888 378.733L203.062 377.667ZM213.857 356.465L215.477 356.163C215.503 356.16 218.229 351.778 218.229 351.778L219.782 350.833L219.426 349.473L217.929 349.993L217.644 351.171L213.476 355.435L211.982 355.858L211.627 358.191L212.35 358.74L213.857 356.464V356.465ZM189.083 419.45L191.305 416.402L190.695 414.951L192.737 411.363L194.243 411.245L193.956 409.736L195.318 409.604L196.76 403.051L197.93 402.92L197.838 401.589L198.919 399.302L200.375 399.083L202.334 394.9L201.885 393.119L203.808 392.622L204.65 390.564L206.054 389.195L205.481 386.702L203.79 386.863L203.041 388.308L201.799 387.919L200.516 390.429L194.486 393.895L193.228 396.186L191.481 396.152L190.707 398.258L188.26 401.395L191.504 403.142L193.064 401.628L194.526 402.055L194.519 403.13L192.137 403.747L191.369 404.467L190.007 403.845L185.338 406.426L183.58 408.951L183.756 410.585L183.156 411.541L183.865 412.768L183.291 414.64L183.795 416.473L185.778 417.929L188.721 418.371L189.083 419.45Z" fill="#21826E"/>
<path fill-rule="evenodd" clip-rule="evenodd" d="M185.074 426.162L185.817 424.714L183.575 419.833L182.38 413.882L183.224 413.038L181.461 408.081L182.238 406.397L178.57 405.983L171.582 415.218L171.091 409.617L167.893 411.383L164.787 411.679L162.927 417.227L163.83 418.042L163.882 419.383L162.696 420.316L161.966 422.88L160.663 426.246L160.97 427.617L162.644 427.494L166.703 424.793L168.313 422.106L168.222 420.169L170.874 417.459L173.676 420.246L170.581 423.007L169.691 424.551L172.532 424.74L172.563 430.388L171.068 430.625L171.558 431.781L169.469 435.199L169.65 436.341L170.863 436.15L172.454 437.212L174.769 435.674L175.328 432.834L177.55 432.411L177.489 433.504L181.05 432.442L183.347 430.677L183.005 428.974L184.393 429.997L186.598 428.166L186.125 426.661L185.074 426.162ZM117.484 313.236L119.06 310.768L115.273 308.93L117.484 313.236ZM116.312 308.13L120.352 309.291L124.423 300.5L118.573 305.278L116.312 308.13ZM132.895 289.256L130.012 283.934L135.144 273.564L132.61 267.93L136.476 267.317L135.59 263.36L133.953 260.717L138.866 261.103L142.5 252.002L138.063 247.972L139.637 247.476L143.339 249.603L145.118 247.291L138.894 242.345L134.086 244.551L124.528 244.889L121.568 249.586L126.912 252.462L130.814 259.629L126.98 262.139L129.019 267.018L125.184 268.412L125.997 278.722L125.015 288.343L125.819 294.603L132.149 295.785L132.895 289.256ZM117.046 257.441L117.265 255.333L114.953 255.445L117.046 257.441ZM140.208 240.973L141.208 237.324L137.001 240.186L138.645 240.913L140.208 240.973ZM149.39 222.795L148.452 222.211L144.996 224.467L148.875 225.635L149.39 222.795Z" fill="#21826E"/>
<path fill-rule="evenodd" clip-rule="evenodd" d="M157.274 233.549L158.208 232.086L162.849 232.056L160.743 225.083L165.904 226.544L163.614 219.154L163.794 215.484L166.722 223.736L175.798 221.948L182.741 214.364L181.236 207.72L176.548 208.649L170.947 208.173L173.144 207.003C173.144 207.003 179.532 205.687 179.602 205.675C179.671 205.665 182.823 204.061 182.823 204.061L181.533 197.875L184.523 199.164L186.153 198.178L190.952 199.602L194.385 193.162L189.053 196.637L185.271 197.26L184.77 195.154L187.619 192.401L190.9 184.998L191.187 179.29L193.386 176.945L192.828 174.473L189.736 170.286L189.178 172.63L179.773 178.348L174.199 183.46L165.032 187.378L161.094 189.88L165.054 197.429L163.318 198.197L158.326 190.6L160.051 197.422L156.274 198.537L155.281 196.932L156.856 195.297L150.836 193.524L148.261 201.92L145.922 204.451L149.163 211.221L154.409 210.062L155.267 211.266L146.607 214.704L147.065 217.592L152.21 220.983L158.478 223.115L158.61 224.998L152.503 225.541L146.998 230.619L144.721 229.028L143.449 229.418L149.639 239.48L157.274 233.549ZM444.975 58.8918L447.003 64.3897L449.971 61.0102L447.859 58.4346L444.975 58.8918ZM451.815 45.0069L455.915 39.7026L450.556 42.65L451.815 45.0069ZM454.436 23.0182L459.558 23.9961L460.746 18.7252L454.315 19.0064L454.436 23.0182ZM460.358 1.57734L455.616 0.179688L452.755 12.4128L455.366 14.1854L460.358 1.57734Z" fill="#21826E"/>
<path fill-rule="evenodd" clip-rule="evenodd" d="M445.918 34.2775L449.652 27.9485L447.023 19.9343L450.64 17.0453L449.983 9.62891L445.317 9.95697L446.081 16.3589L441.69 20.9039L438.3 18.1253L431.797 21.1872L428.817 27.4152C428.843 27.3569 425.141 24.9678 425.141 24.9678L422.432 32.5778C422.432 32.5778 429.925 34.065 429.977 34.0567C430.029 34.0484 433.066 40.0191 433.066 40.0191L429.224 41.1439L431.923 43.0686L437.341 43.0853L434.334 46.3232L429.256 46.5388L426.979 49.1987L426.989 45.8816L423.318 48.9935L418.82 48.2437L420.14 53.524L428.892 55.9714L426.318 59.1229L428.931 62.7546L432.495 56.487L435.158 59.9863L437.377 56.7307L438.316 66.1518L433.745 85.6951L435.129 85.8503L438.815 91.291L439.722 82.4676L438.392 77.7955L442.454 77.1519L441.221 70.9499L443.833 63.746L441.416 56.3932L440.023 53.3532L440.633 50.4412L442.934 54.9237L446.527 52.1096L448.153 38.0049L440.111 39.3672L445.918 34.2775ZM365.99 120.72L368.352 119.42L363.728 115.978L360.755 122.948L364.852 123.947L365.99 120.72ZM368.756 107.442L371.601 103.164L366.764 104.386L364.919 104.151L362.451 108.194L361.483 112.842L366.659 107.868L368.756 107.442ZM349.258 107.794L351.311 107.469L349.649 98.7969L348.446 97.4482L343.735 100.527L343.85 104.49L348.608 103.531L349.258 107.794ZM347.851 115.036L341.76 111.309L340.912 115.365L345.972 117.625L347.851 115.036ZM352.483 129.132L353.545 129.229L355.285 125.184L354.774 123.215L349.77 127.148L352.483 129.132ZM349.301 141.538L347.691 143.435L350.25 144.88L349.301 141.538ZM341.12 147.489L342.114 145.004L339.957 146.094L341.12 147.489ZM348.072 154.536L349.579 151.876L349.114 145.059L345.137 145.847L347.219 149.986L345.785 153.467L348.072 154.536ZM333.722 150.656L335.185 148.544L335.505 150.705L337.997 148.43L336.923 147.369L335.337 142.132L331.177 139.23L328.919 136.618L327.203 137.422L325.225 141.355L330.807 148.385L333.722 150.656Z" fill="#21826E"/>
<path fill-rule="evenodd" clip-rule="evenodd" d="M332.391 134.927L333.865 132.878L336.225 137.634L338.393 137.432L346.094 134.713L349.26 139.781L353.716 142.002L354.495 139.094L358.948 138.213L358.874 133.115L356.449 136.106L355.028 136.066L354.909 130.692L350.745 134.383L349.172 133.046L348.957 130.261L346.996 132.545L346.451 130.428L341.315 130.747L342.37 127.373L346.245 125.051L343.553 120.737L336.364 120.218L335.687 117.047L330.285 117.779L329.173 129.498L330.631 134.835L332.391 134.927ZM236.948 194.501L235.044 193.373L234.599 194.38L236.491 195.473L236.948 194.501ZM231.274 219.639L229.32 219.884L229.994 220.941L231.756 220.549L231.274 219.639ZM227.66 216.763L225.371 217.017L226.136 218.915L228.004 218.928L227.66 216.763ZM170.087 301.924L168.488 300.507L164.375 302.635L168.758 302.791L170.087 301.924ZM177.891 302.51L175.656 303.584L174.93 305.154L172.101 307.281L172.872 309.67L174.401 310.075L175.184 312.823L176.799 314.258L178.621 314.032L181.263 311.65L181.687 308.958L180.199 307.118L181.3 306.508L177.891 302.51ZM183.391 293.493L182.003 295.28L182.151 297.179L183.018 296.265L184.227 295.573L183.391 293.493ZM180.136 324.267L181.297 323.904L181.563 322.877L179.302 323.307L180.136 324.267ZM183.039 317.484L186.074 320.999L186.827 319.329L185.048 315.343L183.039 317.484ZM197.576 258.587L199.091 257.452L198.946 256.115L196.849 257.564L195.926 259.114L196.514 260.924L197.806 260.951L197.576 258.587ZM194.231 278.974L194.908 268.671L196.144 267.825L196.795 264.602L195.416 265.099L194.828 267.315L193.599 267.034L192.515 269.387L191.507 270.126L192.245 273.767L191.53 275.493C191.53 275.493 192.596 278.63 192.56 278.636C192.523 278.641 194.231 278.974 194.231 278.974Z" fill="#21826E"/>
<path fill-rule="evenodd" clip-rule="evenodd" d="M211.846 286.064L208.704 284.702L200.437 286.962L195.63 284.181L197.117 283.636L198.744 282.417L197.199 279.743L195.526 279.34L194.365 280.271L195.232 281.948L194.879 283.179L193.224 282.214L191.622 282.984L191.748 280.881L187.969 279.504L189.979 278.633L188.87 276.38L189.316 273.622L186.943 270.803L185.926 270.964L186.414 269.472L187.801 269.635L188.44 262.788L190.045 258.699L189.282 253.712L184.158 245.081L181.665 243.073L180.495 243.499L179.206 242.947L179.487 245.109L176.744 246.772L176.222 250.725L177.39 251.127L176.383 253.912L178.063 253.637L176.556 255.673L177.129 257.566L178.304 258.733L178.129 260.14L179.644 261.378L179.959 263.205L179.112 263.83L176.406 259.47L175.111 261.615L174.531 259.517L173.562 261.148L172.499 261.075L172.264 259.271L170.052 258.358L169.652 255.44L166.757 251.449L165.647 250.975L164.682 253.085L165.216 254.718L163.703 255.99L164.031 257.112L166.505 257.335L167.032 259.601L166.082 260.517L165.247 263.951L166.619 265.922L163.81 265.593L163.456 263.913L161.027 259.626L159.645 265.131L158.267 264.077L157.814 266.293L156.448 267.319L156.791 268.768L158.787 269.983L158.92 271.938L166.038 276.639L167.459 276.352L167.571 273.878L166.99 271.326L168.821 270.727L169.413 273.062L171.299 271.197L172.232 271.725L172.295 273.629L171.154 274.121L172.599 275.263L174.6 274.946L175.329 276.37L178.247 277.892L177.525 279.244L174.078 276.567L171.452 279.964L172.285 283.544L174.071 284.783L174.209 286.372L175.988 285.938L175.219 288.063L176.454 290.278L178.501 289.59L177.743 293.332L181.59 292.456L183.851 291.226L185.376 291.865L186.419 289.973L187.595 290.42L188.051 292.295L188.979 293.35L187.997 295.687L188.792 296.744L190.43 296.208L192.712 289.467L194.262 289.604L194.785 293.126L197.918 292.646L198.147 294.32L196.317 294.814L196.462 296.01L194.663 296.206L193.614 297.333L193.981 298.921L192.777 299.53L193.502 301.15L191.954 302.143L192.274 305.554L196.153 305.439L197.569 303.328L201.32 301.007L201.145 298.899L202.786 298.551L204.871 294.306L203.8 292.624L207.927 292.558L211.846 286.064ZM157.762 343.658L155.295 344.594L154.94 346.023L156.306 346.66L158.883 345.135L160.706 345.613L166.206 342.709L168.419 335.513L166.586 335.723L161.74 339.958L159.829 340.145L159.553 342.424L157.762 343.658ZM151.968 350.577L154.022 351.226L154.37 349.779L145.882 349.475L141.781 350.333L141.35 350.888L141.456 356.512L143.809 356.139L143.789 357.906L145.598 357.667L146.099 354.337L150.236 353.056L151.968 350.577ZM169.259 370.214L168.248 369.21L166.956 370.387L169.259 370.214ZM180.199 355.686L180.5 356.797L183.305 355.925L178.471 353.627L176.143 354.841L177.722 355.071L178.315 356.35L180.199 355.686Z" fill="#21826E"/>
<path fill-rule="evenodd" clip-rule="evenodd" d="M185.162 339.766L180.988 340.426L180.445 341.863L180.787 344.392L179.101 344.812L177.86 342.953L176.88 344.012L174.838 343.431L175.124 345.676L176.339 345.824L176.446 346.864L174.174 348.915L174.176 350.899L179.733 350.571L180.782 352.249L182.55 352.345L182.769 354.903L186.517 355.921L187.548 354.455L190.31 354.475L190.356 356.253L187.979 357.252L179.251 365.303L182.479 366.425L185.85 364.54L187.685 364.614L189.485 363.144L190.066 364.59L188.248 366.769L185.249 367.314L184.607 368.567L180.774 368.797L176.99 368.322L177.631 370.234L174.926 369.241L174.526 367.455L171.584 367.516L171.165 369.109L171.499 371.252L170.14 371.601L169.688 372.913L171.771 373.334L172.757 372.626L173.636 373.268L173.063 374.257L176.425 374.9L177.681 372.14L178.347 373.092L179.314 372.046L181.79 373.509L182.851 372.239L185.567 371.162L185.717 372.842L187.306 372.696L190.168 370.328L192.484 370.561L195.481 366.763L195.591 370.772L197.121 371.354L204.194 367.392L202.944 366.134L201.361 366.325L201.887 364.187L203.006 364.021L202.656 361.669L204.081 362.911L203.948 364.882L206.691 364.342L206.42 362.776L207.57 361.995L206.249 358.529L192.634 352.487L191.364 347.344L189.077 343.901L187.874 344.127L187.082 342.89L188.144 341.994L185.162 339.766ZM219.747 446.184L220.849 446.353L221.36 448.082L223.364 451.638L227.257 452.976L233.421 451.729L233.037 449.31L234.091 446.99L233.171 444.059L234.307 442.485L233.234 440.32L230.629 439.864L230.331 430.97L227.122 428.656L226.965 427.666L223.688 426.774L222.573 428.246L219.188 430.235L219.225 431.733L217.932 434.037L218.564 438.715L220.2 440.754L219.588 442.77L219.747 446.184Z" fill="#21826E"/>
<path fill-rule="evenodd" clip-rule="evenodd" d="M400.831 259.25L392.126 248.92L386.218 248.011L384.361 250.662L380.695 251.12L377.948 249.728L376.043 251.182L366.214 251.832L364.751 250.343L360.377 249.687L358.844 250.924L357.846 250.017L354.074 249.107L352.109 250.074L350.163 248.023L347.636 248.352L346.417 250.887L343.822 250.463L342.402 252.161L338.222 251.387L326.79 246.418L321.186 248.548L318.999 248.681L314.172 255.052L311.723 253.271L309.845 251.905L305.838 255.252L295.396 257.97L293.966 256.918L291.219 258.56L291.614 261.177L285.458 267.474L281.118 267.484L274.621 266.012L279.534 265.252L281.535 265.966L282.916 264.24L281.965 261.94C281.965 261.94 285.39 261.77 285.398 261.824C285.425 261.818 286.063 259.944 286.063 259.944L288.962 259.377L288.539 257.156L291.847 253.669L293.541 250.988L290.842 250.229L283.311 251.351L273.963 259.855L275.17 255.21L284.378 248.076L286.542 249.153L289.427 246.585L294.03 244.42L292.901 247.507L293.995 248.807L296.307 248.442L300.879 242.146L303.89 235.09L302.04 234.653L298.737 237.96L297.385 235.268L292.529 237.649L285.918 234.438L279.455 233.74L274.952 227.783L275.872 226.981L280.951 232.527L285.709 232.555L289.918 234.409L294.951 229.23L291.346 224.904L300.198 221.908L311.031 212.775L312.857 209.365L315.827 208.895L321.034 203.812L326.385 195.907L329.688 196.198L329.459 194.193L332.256 194.089L335.838 191.534L337.504 188.7L339.786 187.486L339.983 183.678L342.189 181.643L341.885 178.372L340.284 177.49L338.612 173L341.311 170.603L342.442 167.197L342.983 163.526L335.913 161.701L335.394 160.115L325.01 160.836L326.554 163.626L328.197 164.218L327.199 167.356L319.061 165.752L319.566 164.323L316.478 164.386L307.895 169.969L297.626 168.293L296.772 166.265L295.119 167.058L295.261 168.968L293.436 169.916L292.842 168.642L289.721 168.25L289.21 170.76L286.574 170.86L285.549 173.948L283.5 171.009L279.196 171.795L277.404 176.002L273.369 180.064L273.124 178.753L275.481 176.11L276.084 170.479L273.407 167.96L269.608 167.851L265.121 175.362L261.419 178.566L260.769 177.099L265.258 171.58L264.656 168.999L262.255 168.172L261.334 164.496L259.727 165.476L259.517 172.287L257.852 172.46L257.368 169.778L258.192 167.021L255.423 163.744L252.568 164.196L250.76 163.008L249.326 163.182L248.12 167.074L244.442 172.003L243.278 175.434L248.688 178.523L248.361 180.269L246.661 179.157L244.844 179.637L245.456 182.042L244.758 183.378C244.758 183.378 242.883 181.875 242.862 181.85C242.823 181.856 240.532 185.563 240.532 185.563L239.763 188.957L242.107 193.493L244.371 194.571L249.451 197.607L247.437 198.245L242.834 195.649L241.082 197.062L238.152 196.753L233.084 198.149L232.456 196.649L230.137 195.093L229.315 197.991L230.55 199.101L232.32 204.213L235.1 205.697L233.02 207.338L233.573 209.931L232.858 213.103L229.724 212.306L226.433 209.579L225.289 211.18L226.362 215.471L228.628 215.717L231.388 218.099L231.712 221.332L233.721 221.803L237.346 224.193L235.664 225.654L237.604 227.07L239.786 229.472L238.258 229.714L234.67 227.126L232.837 226.953L229.052 225.13L227.187 225.222L227.217 226.974L230.792 227.978L231.002 229.425L233.887 231.621L234.469 233.206L232.32 232.854L230.269 230.297L225.505 228.639L223.331 231.493L220.577 231.13L220.045 227.879L218.274 225.852C218.274 225.852 216.272 226.027 216.246 226.023C216.214 226.027 215.679 227.781 215.679 227.781L214.296 228.939L215.749 232.374L218.026 233.103L217.987 237.243L215.785 239.018L213.417 235.634L212.198 230.531L206.696 231.19L206.185 233.746C206.185 233.746 207.55 237.822 207.556 237.85C207.56 237.874 206.035 239.81 206.035 239.81L208.402 242.796L211.397 242.322L212.463 245.009L211.483 246.52L209.874 245.51L205.555 250.326L205.721 251.639L207.546 251.138L209.554 254.164L209.035 255.222L211.23 257.713L213.76 259.032C213.76 259.032 215.749 258.823 215.774 258.819C215.802 258.815 218.977 259.43 218.977 259.43L217.098 261.176L214.212 260.931L212.239 263.231L210.801 259.44L208.224 259.908L207.132 257.633L203.824 257.032L201.794 265.892L203.843 269.079L203.516 274.369C203.516 274.369 205.153 277.505 205.158 277.538C205.163 277.575 208.082 277.337 208.082 277.337L210.594 275.912L214.106 271.405L214.559 275.083L215.979 277.544L211.723 278.463L207.645 282.456L207.987 284.235L212.14 283.555L214.671 284.705L218.198 284.05L221.136 286.565L223.077 289.451L221.009 289.662L217.512 285.779L211.945 288.385L212.197 291.341L209.371 293.181L209.784 295.873L212.251 296.086L215.427 297.415L216.94 301.032L214.915 301.305L207.185 299.383L204.079 304.427L206.257 306.331L208.826 306.598L209.97 309.539L211.874 310.324L215.694 309.887L215.792 311.1L210.495 312.331L206.372 308.11L200.982 308.903L200.615 312.805L199.076 315.816L199.463 317.447L196.627 318.037L195.543 319.427L198.015 320.278L205.876 318.598L206.439 319.901L203.481 321.684L205.779 323.449L200.419 325.112L198.189 326.697L197.899 329.497L199.572 331.445L198.676 332.462L193.281 328.964L193.511 330.489L183.236 330.565L180.582 333.35L181.819 337.188L184.824 337.967L188.122 336.238L189.225 337.884L193.31 337.829L194.645 338.847L198.285 338.189L199.277 339.02L200.358 337.861L201.226 337.772L201.52 336.695L202.514 336.643L202.345 335.702C202.345 335.702 204.269 335.445 204.288 335.459C204.307 335.473 205.16 336.238 205.16 336.238L206.228 336.092L208.139 338.272L212.2 337.7L213.852 338.385L209.725 339.299L206.77 338.915L203.519 337.562L202.654 337.486L202.167 338.461L199.751 339.694L190.859 341.079L190.84 342.905C190.84 342.905 191.897 344.037 191.908 344.106C191.919 344.175 193.662 348.441 193.662 348.441L197.866 351.465L199.869 351.361L204.658 353.135L205.875 355.426L207.647 355.381L208.722 353.628L212.241 352.171L214.675 348.663L215.6 345.513L217.726 345.009L219.512 342.056L220.973 342.889L229.28 334.217L229.996 331.691L232.189 330.257L234.56 326.662L235.836 327.218L233.578 331.384L229.74 336.366L230.004 337.744L231.934 336.896L233.067 339.104L226.78 340.596L225.297 341.424L226.368 342.932L224.73 344.874L221.214 349.047L220.431 351.524L222.141 353.028L216.915 356.434L216.921 357.603L218.903 357.23L220.666 360.121L218.158 360.47L215.468 362.883L214.333 362.532L212.044 364.761C212.044 364.761 213.067 367.013 213.076 367.065C213.084 367.118 213.373 369.497 213.373 369.497L211.253 370.388L210.242 373.437L209.093 371.349L207.326 373.226L207.71 375.88L205.535 378.778L206.325 382.179L207.432 382.983L208.191 378.233L210.887 376.833L212.202 377.493L214.384 376.225L215.051 377.502L212.412 379.498L213 381.411L208.623 385.581L207.529 389.106L208.827 389.327L209.436 387.883L212.106 385.101L212.988 385.83L211.327 389.037L211.492 391.423L209.778 392.529L204.286 399.964L201.808 404.098C201.808 404.098 202.608 405.676 202.599 405.728C202.658 405.719 204.633 403.845 204.633 403.845L207.217 398.594L209.325 397.516L209.436 399.112L207.606 400.591L206.741 403.903L203.35 408.324L203.357 410.167L205.408 409.633L206.921 406.714L208.213 407.574L204.42 414.293L203.618 417.88L206.252 419.13L205.568 420.978L206.996 422.456L211.001 419.212L214.403 414.859L215.159 415.911C215.159 415.911 212.764 420.795 212.714 420.804C212.661 420.812 208.12 423.73 208.12 423.73L202.886 429.438L202.858 435.441L199.626 440.527L200.146 452.685L197.607 453.178L194.634 455.528L194.378 462.559L199.13 464.699L205.399 463.582L208.835 458.443L206.718 453.384L210.866 446.217L211.545 441.513L213.327 440.738L213.152 438.173L216.636 425.576L218.249 423.513L221.344 423.04L222.052 419.112L217.124 411.928L214.983 400.317L216.626 399.909L218.559 401.216L221.14 398.979L226.64 390.093L228.98 388.922L229.725 387.101L236.795 379.17L237.539 380.383L242.145 377.771L241.909 379.319L237.37 383.123L234.311 387.76C234.311 387.76 230.657 389.277 230.568 389.291C230.482 389.305 225.164 396.179 225.164 396.179L221.368 402.314L221.058 407.101L222.709 414.7L224.437 415.95L226.984 416.311L226.499 410.657L227.416 409.359L227.203 405.561L228.289 405.335L229.241 407.401L231.285 408.747L233.293 411.089L234.222 410.428L232.846 405.127L234.258 404.709L236.379 411.01L235.618 413.63L239.677 414.302L241.143 409.633L243.106 406.183L242.356 404.386L243.994 403.47L243.896 399.492L244.582 396.742L245.86 398.066L245.579 401.355C245.579 401.355 247.153 403.643 247.178 403.693C247.203 403.743 250.513 402.385 250.513 402.385L247.864 399.823L247.275 395.767L248.442 395.492L249.918 400.1L253.054 402.037L254.432 405.224L263.484 408.547L266.166 408.511L269.086 412.726L269.234 412.939L268.176 412.896L265.415 410.511L262.922 410.053L254.377 408.478L248.092 405.411L245.371 410.828L243.347 411.538L243.772 413.37L245.481 420.726L244.962 425.086L242.747 429.87L246.463 435.455L249.236 435.78L254.582 441.321L253.19 443.42L254.149 444.086L256.267 450.262L248.86 456.632L244.921 467.277L243.504 472.928L238.908 476.728L232.163 489.626L233.552 493.247L234.434 495.548L234.203 500.038L232.778 501.166L231.583 497.986L230.919 492.13L228.712 492L225.657 493.833L224.615 500.863L228.264 507.932L232.809 512.569L235.664 518.24L235.095 520.936L237.961 526L240.256 525.654C240.309 525.646 238.538 516.843 238.538 516.843L238.134 509.118L244.82 505.275L247.222 509.649L262.947 522.63L265.941 523.666L268.183 521.855L267.506 517.032L269.392 512.314C269.392 512.314 268.434 511.543 268.425 511.493C268.417 511.441 264.261 504.982 264.261 504.982L270.38 507.211L276.897 511.943L277.859 513.849L281.291 515.309L284.115 514.579L289.018 515.877L293.14 513.025L294.203 511.651L296.585 510.849L296.756 504.613L299.295 507.742L304.136 504.705L309.148 505.033L309.342 496.535L323.553 497.3L336.624 495.963L337.38 489.662L344.485 487.654L347.58 484.505L356.351 477.757L363.114 467.195L365.476 465.367L367.587 462.283L374.809 461.14L374.273 458.441L383.197 451.743L374.418 436.774L377.253 435.474L380.021 436.083L381.432 432.646L388.206 424.514L390.114 420.948L389.848 419.146L388.532 418.255L387.993 415.528L385.671 413.791L385.037 411.713L381.582 410.111L376.921 411.132L375.535 409.118L373.922 408.973L373.89 408.969L367.316 403.874L357.303 397.632L350.498 397.913L341.761 407.919L337.419 408.606L334.121 406.537L332.652 404.907L328.45 405.572L322.635 404.026L319.345 404.723L318.783 404.499L314.77 402.912L306.243 402.451L302.417 396.723L302.769 396.662L304.547 396.352L304.637 396.393L318.032 402.271L321.181 402.377L321.72 400.605L325.43 400.211L327.51 397.719L329.249 398.934L332.591 397.783L332.874 394.065L335.072 391.43L337.207 391.091L339.176 388.013L342.814 384.686L347.209 386.937L352.539 386.093L355.92 384.068L358.482 383.396L361.402 379.688L360.5 376.797L357.634 374.325L354.768 373.552L350.748 363.899L345.11 362.805C345.11 362.805 344.411 364.212 344.358 364.221C342.79 364.666 341.224 365.115 339.659 365.566L335.448 367.848L331.28 371.326L327.995 372.28L327.776 372.343L327.739 370.416L334.766 364.337L338.708 361.814L341.789 362.098L343.456 362.252L345.626 360.33L347.617 361.326L351.99 359.498L354.658 361.064L363.79 352.771L364.268 351.628L367.379 348.23L367.008 343.301L369.874 341.625L370.957 335.427L371.068 334.781L378.985 327.709L381.58 323.078L383.892 310.825L386.336 308.274L388.556 302.809L388.602 302.699L388.739 293.24L392.218 286.783L395.039 281.547L395.505 278.987L397.373 277.751L401.171 273.531L402.528 270.302L401.957 268.388L403.335 266.644L400.831 259.25Z" fill="#21826E"/>
<path fill-rule="evenodd" clip-rule="evenodd" d="M156.513 521.03L158.082 516.241L158.23 513.148L158.348 513.254L159.861 514.61L161.558 517.941L165.32 515.877L169.332 515.734C169.332 515.734 166.277 524.313 166.234 524.32C166.251 524.317 167.671 527.807 167.671 527.807L165.962 529.905L163.463 532.977L163.147 533.691L162.922 534.201L161.793 536.757L160.027 535.266L156.831 534.034L154.099 535.325L150.723 534.047L150.668 534.026L151.008 529.791L151.387 529.307L155.53 524.038L156.416 521.321L156.513 521.03ZM206.715 529.624L206.16 526.005L206.835 525.245L204.92 522.867L204.834 522.862L201.255 522.562L199.208 522.919L195.376 521.418L190.345 524.076L189.737 525.165L189.716 525.147L188.575 524.195L186.589 523.624L187.2 520.975L189.174 520.718L191.682 518.315L194.408 516.982L197.896 514.973L198.74 513.14L198.695 512.903L197.392 505.974L194.04 505.62L192.583 504.131L192.6 502.887L191.251 501.752L185.503 493.195L185.277 486.19L181.33 484.177L181.11 483.233L182.516 478.596L177.533 470.275L172.732 472.17C172.732 472.17 171.469 471.215 171.461 471.16C171.453 471.113 165.615 468.58 165.615 468.58H158.091L156.698 470.059L153.557 471.106L152.727 471.383L148.1 472.115L147.293 473.285L141.171 474.101L140.305 474.215L134.782 474.223L131.476 480.861L129.77 483.261L124.733 484.002L119.16 484.017L119.046 483.299L119.149 483.263L119.19 483.248L118.9 482.373L118.608 481.497L115.59 482.594L114.816 481.809L112.736 482.964L109.886 486.708L109.819 491.873L107.115 492.141L106.954 497.562L107.096 498.462L106.248 501.313L105.203 501.478L104.743 502.698L101.517 505.645L99.4626 508.613L98.6331 508.778L93.9155 509.718C93.8322 509.732 93.7988 509.737 88.7332 511.298L86.4197 508.795L81.3573 511.831L81.0029 516.649L82.291 517.364L84.7201 520.207L86.4989 519.679L91.6396 520.481L91.8188 521.833L87.0794 523.45L84.4408 527.323L75.8956 525.896L73.7354 529.188L70.1152 531.697L69.6743 532.516L65.5664 531.947L65.9093 534.105L68.9897 538.691L71.8471 544.062L75.0151 546.885L76.5761 549.908L79.6784 550.462L80.1349 550.767L80.4048 558.272L85.313 560.162L90.0462 561.416L92.7942 562.67L93.0766 564.23L98.1089 567.216L100.652 568.125L103.646 566.452L105.54 567.951L107.532 568.512L108.964 569.591L110.249 568.518L110.331 568.943L113.824 565.839L114.943 561.171L117.581 559.879C117.867 559.843 118.607 559.764 119.27 559.699L120.254 559.599L119.274 553.952L117.421 551.989L118.292 549.364L120.16 549.848L124.495 544.443L126.589 542.313C128.396 543.336 129.263 543.823 129.73 544.047C129.949 544.245 130.942 545.241 131.896 546.208L132.013 548.307L133.128 548.915L134.153 550.379L132.978 553.817L133.314 556.413L135.375 557.027L136.066 560.667L141.122 565.897L142.243 563.874L143.014 563.391L144.516 565.066L145.095 567.357L143.092 572.057L143.792 575.173L145.37 579.334L148.15 577.681L148.606 576.833L153.099 577.118L153.393 576.667C153.792 576.053 154.095 575.586 154.326 575.226C154.921 575.73 155.772 576.459 156.556 577.135L157.106 577.61L159.513 575.874L160.439 573.036L162.245 575.279L164.504 572.139L165.888 573.196L168.669 572.757L177.659 579.537L178.873 577.379L181.03 577.146L184.011 574.046L186.314 566.559L186.382 566.335L185.892 563.575L187.785 561.109L189.355 557.706L189.237 560.542L197.543 562.917L199.328 560.118L204.208 555.373L205.348 555.193L203.564 550.299L202.597 548.431L198.034 550.02L197.025 549.26L199.555 546.218L200.598 542.416L198.95 541.082L198.834 540.442L198.594 539.171L199.709 536.245L197.687 534.898L197.168 532.055L197.494 531.33L198.666 530.789L204.042 534.778L206.053 542.315L205.389 544.178L204.491 544.423L205.927 551.573L206.701 553.208L209.46 547.397L208.935 543.422L209.886 538.36L206.714 529.624H206.715Z" fill="#2BAB90"/>
<ellipse cx="559.5" cy="725.5" rx="27.5" ry="3" fill="black" fill-opacity="0.3"/>
<path fill-rule="evenodd" clip-rule="evenodd" d="M520 672.004C520 650.312 537.642 632.727 559.405 632.727C581.168 632.727 598.81 650.312 598.81 672.004C598.81 681.48 595.441 690.178 589.833 696.963C589.74 697.152 589.619 697.33 589.469 697.491L565.822 722.874C562.358 726.593 556.453 726.593 552.988 722.874L529.342 697.491C529.191 697.33 529.07 697.152 528.978 696.963C523.37 690.178 520 681.48 520 672.004Z" fill="white"/>
<path fill-rule="evenodd" clip-rule="evenodd" d="M550.234 648.438V689.028C550.234 689.4 550.536 689.702 550.909 689.702C557.12 689.702 562.155 684.667 562.155 678.456V673.021L560.321 667.695L556.194 664.345L554.704 662.899L557.685 658.56L556.882 652.567L552.068 648.438H550.234Z" fill="#59CBE8"/>
<path fill-rule="evenodd" clip-rule="evenodd" d="M541.981 656.233C541.981 651.475 545.625 647.522 550.234 647.522C554.844 647.522 558.487 651.475 558.487 656.233C558.487 658.829 557.402 661.186 555.667 662.791C558.753 664.179 561.033 666.768 562.101 669.984C562.136 670.081 562.155 670.185 562.155 670.294C562.155 670.801 561.744 671.211 561.238 671.211C560.799 671.211 560.432 670.903 560.342 670.491C559.311 667.409 556.995 665.074 553.866 664.06C552.774 664.625 551.543 664.944 550.234 664.944C548.925 664.944 547.693 664.625 546.601 664.059C542.327 665.438 539.23 669.472 539.23 674.235V689.702C539.23 690.209 538.82 690.619 538.313 690.619C537.807 690.619 537.396 690.209 537.396 689.702V674.235C537.396 669.13 540.436 664.737 544.798 662.789C543.065 661.184 541.981 658.828 541.981 656.233ZM550.234 649.355C546.741 649.355 543.815 652.381 543.815 656.233C543.815 660.084 546.741 663.11 550.234 663.11C553.728 663.11 556.653 660.084 556.653 656.233C556.653 652.381 553.728 649.355 550.234 649.355Z" fill="#222222"/>
<path d="M549.317 675.031C549.317 674.018 550.138 673.197 551.151 673.197H578.66C579.673 673.197 580.494 674.018 580.494 675.031V687.868C580.494 688.881 579.673 689.702 578.66 689.702H551.151C550.138 689.702 549.317 688.881 549.317 687.868V675.031Z" fill="white"/>
<path fill-rule="evenodd" clip-rule="evenodd" d="M548.4 675.031C548.4 673.512 549.632 672.28 551.151 672.28H578.66C580.18 672.28 581.411 673.512 581.411 675.031V687.868C581.411 689.388 580.18 690.619 578.66 690.619H551.151C549.632 690.619 548.4 689.388 548.4 687.868V675.031ZM551.151 674.114C550.645 674.114 550.234 674.524 550.234 675.031V687.868C550.234 688.375 550.645 688.785 551.151 688.785H578.66C579.167 688.785 579.577 688.375 579.577 687.868V675.031C579.577 674.524 579.167 674.114 578.66 674.114H551.151Z" fill="#222222"/>
<path fill-rule="evenodd" clip-rule="evenodd" d="M553.902 681.45C553.902 680.943 554.313 680.533 554.819 680.533H556.653C557.159 680.533 557.57 680.943 557.57 681.45C557.57 681.956 557.159 682.367 556.653 682.367H554.819C554.313 682.367 553.902 681.956 553.902 681.45Z" fill="#222222"/>
<path fill-rule="evenodd" clip-rule="evenodd" d="M572.242 681.45C572.242 680.943 572.652 680.533 573.158 680.533H574.992C575.499 680.533 575.909 680.943 575.909 681.45C575.909 681.956 575.499 682.367 574.992 682.367H573.158C572.652 682.367 572.242 681.956 572.242 681.45Z" fill="#222222"/>
<path d="M567.657 681.45C567.657 682.969 566.425 684.201 564.906 684.201C563.386 684.201 562.155 682.969 562.155 681.45C562.155 679.93 563.386 678.699 564.906 678.699C566.425 678.699 567.657 679.93 567.657 681.45Z" fill="#59CBE8"/>
<path fill-rule="evenodd" clip-rule="evenodd" d="M563.989 678.699C563.989 678.192 564.399 677.782 564.906 677.782C566.931 677.782 568.574 679.424 568.574 681.45C568.574 683.475 566.931 685.118 564.906 685.118C564.399 685.118 563.989 684.707 563.989 684.201C563.989 683.694 564.399 683.284 564.906 683.284C565.919 683.284 566.74 682.463 566.74 681.45C566.74 680.437 565.919 679.616 564.906 679.616C564.399 679.616 563.989 679.205 563.989 678.699Z" fill="#222222"/>
<rect x="574" y="632.67" width="100" height="34" rx="17" fill="#2397D4"/>
<path d="M586.874 656.67V653.991H588.318V650.609H586.874V649.203H588.394C588.09 648.747 587.786 648.063 587.786 647.151C587.786 644.966 589.686 643.028 592.175 643.028C594.55 643.028 596.488 644.909 596.583 647.265H593.695C593.695 646.353 593.03 645.707 592.175 645.707C591.32 645.707 590.674 646.315 590.674 647.417C590.674 648.386 591.32 649.203 592.422 649.203H593.695V650.609H591.206V653.991H596.583V656.67H586.874ZM597.279 656.67L603.245 649.431C603.929 648.595 604.366 648.158 604.366 647.36C604.366 646.448 603.739 645.707 602.77 645.707C601.801 645.707 601.193 646.467 601.193 647.379V647.645H598.305V647.379C598.305 644.947 600.338 643.028 602.77 643.028C605.202 643.028 607.254 644.947 607.254 647.379C607.254 648.443 606.855 649.393 606.228 650.153L603.131 653.991H607.235V656.67H597.279ZM614.139 656.822C611.137 656.822 609.009 654.58 609.009 649.925C609.009 645.27 611.137 643.028 614.139 643.028C617.122 643.028 619.25 645.27 619.25 649.925C619.25 654.58 617.122 656.822 614.139 656.822ZM614.139 653.991C615.355 653.991 616.362 653.098 616.362 649.925C616.362 646.752 615.355 645.859 614.139 645.859C612.923 645.859 611.897 646.752 611.897 649.925C611.897 653.098 612.923 653.991 614.139 653.991ZM621.605 659.596L622.441 656.67H621.168V653.364H624.474V656.67L623.258 659.596H621.605ZM631.525 656.822C628.523 656.822 626.395 654.58 626.395 649.925C626.395 645.27 628.523 643.028 631.525 643.028C634.508 643.028 636.636 645.27 636.636 649.925C636.636 654.58 634.508 656.822 631.525 656.822ZM631.525 653.991C632.741 653.991 633.748 653.098 633.748 649.925C633.748 646.752 632.741 645.859 631.525 645.859C630.309 645.859 629.283 646.752 629.283 649.925C629.283 653.098 630.309 653.991 631.525 653.991ZM643.437 656.822C640.435 656.822 638.307 654.58 638.307 649.925C638.307 645.27 640.435 643.028 643.437 643.028C646.42 643.028 648.548 645.27 648.548 649.925C648.548 654.58 646.42 656.822 643.437 656.822ZM643.437 653.991C644.653 653.991 645.66 653.098 645.66 649.925C645.66 646.752 644.653 645.859 643.437 645.859C642.221 645.859 641.195 646.752 641.195 649.925C641.195 653.098 642.221 653.991 643.437 653.991ZM655.349 656.822C652.347 656.822 650.219 654.58 650.219 649.925C650.219 645.27 652.347 643.028 655.349 643.028C658.332 643.028 660.46 645.27 660.46 649.925C660.46 654.58 658.332 656.822 655.349 656.822ZM655.349 653.991C656.565 653.991 657.572 653.098 657.572 649.925C657.572 646.752 656.565 645.859 655.349 645.859C654.133 645.859 653.107 646.752 653.107 649.925C653.107 653.098 654.133 653.991 655.349 653.991Z" fill="white"/>
<ellipse cx="163.5" cy="546.33" rx="27.5" ry="3" fill="black" fill-opacity="0.3"/>
<path fill-rule="evenodd" clip-rule="evenodd" d="M124 492.834C124 471.142 141.642 453.557 163.405 453.557C185.168 453.557 202.81 471.142 202.81 492.834C202.81 502.31 199.441 511.008 193.833 517.793C193.74 517.982 193.619 518.16 193.469 518.321L169.822 543.704C166.358 547.423 160.453 547.423 156.988 543.704L133.342 518.321C133.191 518.16 133.07 517.982 132.978 517.793C127.37 511.008 124 502.31 124 492.834Z" fill="white"/>
<path fill-rule="evenodd" clip-rule="evenodd" d="M154.234 469.268L154.234 509.858C154.234 510.23 154.536 510.532 154.909 510.532C161.12 510.532 166.155 505.497 166.155 499.286V493.85L164.321 488.525L160.194 485.174L158.704 483.728L161.684 479.39L160.882 473.397L156.068 469.268H154.234Z" fill="#59CBE8"/>
<path fill-rule="evenodd" clip-rule="evenodd" d="M145.981 477.063C145.981 472.305 149.625 468.351 154.234 468.351C158.844 468.351 162.487 472.305 162.487 477.063C162.487 479.659 161.402 482.016 159.667 483.621C162.753 485.009 165.033 487.598 166.101 490.814C166.136 490.911 166.155 491.015 166.155 491.124C166.155 491.631 165.744 492.041 165.238 492.041C164.799 492.041 164.432 491.733 164.342 491.321C163.311 488.239 160.995 485.904 157.866 484.89C156.774 485.455 155.543 485.774 154.234 485.774C152.925 485.774 151.693 485.455 150.601 484.889C146.327 486.268 143.23 490.301 143.23 495.065V510.532C143.23 511.039 142.82 511.449 142.313 511.449C141.807 511.449 141.396 511.039 141.396 510.532V495.065C141.396 489.96 144.436 485.567 148.798 483.619C147.065 482.014 145.981 479.658 145.981 477.063ZM154.234 470.185C150.741 470.185 147.815 473.211 147.815 477.063C147.815 480.914 150.741 483.94 154.234 483.94C157.728 483.94 160.653 480.914 160.653 477.063C160.653 473.211 157.728 470.185 154.234 470.185Z" fill="#222222"/>
<path d="M153.317 495.861C153.317 494.848 154.138 494.027 155.151 494.027H182.66C183.673 494.027 184.494 494.848 184.494 495.861V508.698C184.494 509.711 183.673 510.532 182.66 510.532H155.151C154.138 510.532 153.317 509.711 153.317 508.698V495.861Z" fill="white"/>
<path fill-rule="evenodd" clip-rule="evenodd" d="M152.4 495.861C152.4 494.341 153.632 493.11 155.151 493.11H182.66C184.18 493.11 185.411 494.341 185.411 495.861V508.698C185.411 510.218 184.18 511.449 182.66 511.449H155.151C153.632 511.449 152.4 510.218 152.4 508.698V495.861ZM155.151 494.944C154.645 494.944 154.234 495.354 154.234 495.861V508.698C154.234 509.205 154.645 509.615 155.151 509.615H182.66C183.167 509.615 183.577 509.205 183.577 508.698V495.861C183.577 495.354 183.167 494.944 182.66 494.944H155.151Z" fill="#222222"/>
<path fill-rule="evenodd" clip-rule="evenodd" d="M157.902 502.28C157.902 501.773 158.313 501.363 158.819 501.363H160.653C161.159 501.363 161.57 501.773 161.57 502.28C161.57 502.786 161.159 503.197 160.653 503.197H158.819C158.313 503.197 157.902 502.786 157.902 502.28Z" fill="#222222"/>
<path fill-rule="evenodd" clip-rule="evenodd" d="M176.242 502.28C176.242 501.773 176.652 501.363 177.158 501.363H178.992C179.499 501.363 179.909 501.773 179.909 502.28C179.909 502.786 179.499 503.197 178.992 503.197H177.158C176.652 503.197 176.242 502.786 176.242 502.28Z" fill="#222222"/>
<path d="M171.657 502.28C171.657 503.799 170.425 505.031 168.906 505.031C167.386 505.031 166.155 503.799 166.155 502.28C166.155 500.76 167.386 499.529 168.906 499.529C170.425 499.529 171.657 500.76 171.657 502.28Z" fill="#59CBE8"/>
<path fill-rule="evenodd" clip-rule="evenodd" d="M167.989 499.529C167.989 499.022 168.399 498.612 168.906 498.612C170.931 498.612 172.574 500.254 172.574 502.28C172.574 504.305 170.931 505.948 168.906 505.948C168.399 505.948 167.989 505.537 167.989 505.031C167.989 504.524 168.399 504.114 168.906 504.114C169.919 504.114 170.74 503.292 170.74 502.28C170.74 501.267 169.919 500.446 168.906 500.446C168.399 500.446 167.989 500.035 167.989 499.529Z" fill="#222222"/>
<rect x="178" y="453.5" width="94" height="34" rx="17" fill="#2397D4"/>
<path d="M190.874 477.5V474.821H192.318V471.439H190.874V470.033H192.394C192.09 469.577 191.786 468.893 191.786 467.981C191.786 465.796 193.686 463.858 196.175 463.858C198.55 463.858 200.488 465.739 200.583 468.095H197.695C197.695 467.183 197.03 466.537 196.175 466.537C195.32 466.537 194.674 467.145 194.674 468.247C194.674 469.216 195.32 470.033 196.422 470.033H197.695V471.439H195.206V474.821H200.583V477.5H190.874ZM204.053 477.5V466.689H201.26L203.198 464.01H206.941V477.5H204.053ZM210.82 477.5L213.347 472.845C210.953 472.731 208.977 470.907 208.977 468.361C208.977 465.815 211.01 463.858 213.708 463.858C216.406 463.858 218.439 465.815 218.439 468.361C218.439 469.349 218.021 470.185 217.584 470.983L214.031 477.5H210.82ZM213.708 470.185C214.867 470.185 215.551 469.33 215.551 468.361C215.551 467.392 214.867 466.537 213.708 466.537C212.549 466.537 211.865 467.392 211.865 468.361C211.865 469.33 212.549 470.185 213.708 470.185ZM219.834 480.426L220.67 477.5H219.397V474.194H222.703V477.5L221.487 480.426H219.834ZM229.754 477.652C226.752 477.652 224.624 475.41 224.624 470.755C224.624 466.1 226.752 463.858 229.754 463.858C232.737 463.858 234.865 466.1 234.865 470.755C234.865 475.41 232.737 477.652 229.754 477.652ZM229.754 474.821C230.97 474.821 231.977 473.928 231.977 470.755C231.977 467.582 230.97 466.689 229.754 466.689C228.538 466.689 227.512 467.582 227.512 470.755C227.512 473.928 228.538 474.821 229.754 474.821ZM241.666 477.652C238.664 477.652 236.536 475.41 236.536 470.755C236.536 466.1 238.664 463.858 241.666 463.858C244.649 463.858 246.777 466.1 246.777 470.755C246.777 475.41 244.649 477.652 241.666 477.652ZM241.666 474.821C242.882 474.821 243.889 473.928 243.889 470.755C243.889 467.582 242.882 466.689 241.666 466.689C240.45 466.689 239.424 467.582 239.424 470.755C239.424 473.928 240.45 474.821 241.666 474.821ZM253.578 477.652C250.576 477.652 248.448 475.41 248.448 470.755C248.448 466.1 250.576 463.858 253.578 463.858C256.561 463.858 258.689 466.1 258.689 470.755C258.689 475.41 256.561 477.652 253.578 477.652ZM253.578 474.821C254.794 474.821 255.801 473.928 255.801 470.755C255.801 467.582 254.794 466.689 253.578 466.689C252.362 466.689 251.336 467.582 251.336 470.755C251.336 473.928 252.362 474.821 253.578 474.821Z" fill="white"/>
<ellipse cx="299.5" cy="768.5" rx="27.5" ry="3" fill="black" fill-opacity="0.3"/>
<path fill-rule="evenodd" clip-rule="evenodd" d="M258 710.28C258 686.939 276.983 668.018 300.4 668.018C323.817 668.018 342.8 686.939 342.8 710.28C342.8 720.477 339.174 729.835 333.14 737.136C333.041 737.339 332.91 737.531 332.748 737.704L307.305 765.016C303.577 769.018 297.223 769.018 293.495 765.016L268.052 737.704C267.89 737.531 267.759 737.339 267.66 737.136C261.626 729.835 258 720.477 258 710.28Z" fill="white"/>
<path fill-rule="evenodd" clip-rule="evenodd" d="M281.654 701.588C281.654 701.043 282.096 700.601 282.641 700.601H318.161C318.706 700.601 319.147 701.043 319.147 701.588V726.254C319.147 726.799 318.706 727.241 318.161 727.241H282.641C282.096 727.241 281.654 726.799 281.654 726.254V701.588ZM283.627 702.574V725.268H317.174V702.574H283.627Z" fill="#222222"/>
<path fill-rule="evenodd" clip-rule="evenodd" d="M275.734 726.254C275.734 725.71 276.176 725.268 276.721 725.268H324.081C324.626 725.268 325.067 725.71 325.067 726.254C325.067 726.799 324.626 727.241 324.081 727.241H276.721C276.176 727.241 275.734 726.799 275.734 726.254Z" fill="#222222"/>
<path fill-rule="evenodd" clip-rule="evenodd" d="M291.521 694.681V703.561C291.521 705.196 290.196 706.521 288.561 706.521C286.926 706.521 285.601 705.196 285.601 703.561V694.681" fill="white"/>
<path fill-rule="evenodd" clip-rule="evenodd" d="M285.601 693.694C286.146 693.694 286.587 694.136 286.587 694.681V703.561C286.587 704.651 287.471 705.534 288.561 705.534C289.651 705.534 290.534 704.651 290.534 703.561V694.681C290.534 694.136 290.976 693.694 291.521 693.694C292.066 693.694 292.507 694.136 292.507 694.681V703.561C292.507 705.741 290.74 707.508 288.561 707.508C286.381 707.508 284.614 705.741 284.614 703.561V694.681C284.614 694.136 285.056 693.694 285.601 693.694Z" fill="#222222"/>
<path fill-rule="evenodd" clip-rule="evenodd" d="M297.441 694.681V703.561C297.441 705.196 296.116 706.521 294.481 706.521C292.846 706.521 291.521 705.196 291.521 703.561V694.681" fill="#59CBE8"/>
<path fill-rule="evenodd" clip-rule="evenodd" d="M291.521 693.694C292.066 693.694 292.507 694.136 292.507 694.681V703.561C292.507 704.651 293.391 705.534 294.481 705.534C295.571 705.534 296.454 704.651 296.454 703.561V694.681C296.454 694.136 296.896 693.694 297.441 693.694C297.986 693.694 298.427 694.136 298.427 694.681V703.561C298.427 705.741 296.66 707.508 294.481 707.508C292.301 707.508 290.534 705.741 290.534 703.561V694.681C290.534 694.136 290.976 693.694 291.521 693.694Z" fill="#222222"/>
<path fill-rule="evenodd" clip-rule="evenodd" d="M303.361 694.681V703.561C303.361 705.196 302.036 706.521 300.401 706.521C298.766 706.521 297.441 705.196 297.441 703.561V694.681" fill="white"/>
<path fill-rule="evenodd" clip-rule="evenodd" d="M297.441 693.694C297.986 693.694 298.427 694.136 298.427 694.681V703.561C298.427 704.651 299.311 705.534 300.401 705.534C301.491 705.534 302.374 704.651 302.374 703.561V694.681C302.374 694.136 302.816 693.694 303.361 693.694C303.906 693.694 304.347 694.136 304.347 694.681V703.561C304.347 705.741 302.58 707.508 300.401 707.508C298.221 707.508 296.454 705.741 296.454 703.561V694.681C296.454 694.136 296.896 693.694 297.441 693.694Z" fill="#222222"/>
<path fill-rule="evenodd" clip-rule="evenodd" d="M309.281 694.681V703.561C309.281 705.196 307.956 706.521 306.321 706.521C304.686 706.521 303.361 705.196 303.361 703.561V694.681" fill="#59CBE8"/>
<path fill-rule="evenodd" clip-rule="evenodd" d="M303.361 693.694C303.906 693.694 304.347 694.136 304.347 694.681V703.561C304.347 704.651 305.231 705.534 306.321 705.534C307.411 705.534 308.294 704.651 308.294 703.561V694.681C308.294 694.136 308.736 693.694 309.281 693.694C309.826 693.694 310.267 694.136 310.267 694.681V703.561C310.267 705.741 308.5 707.508 306.321 707.508C304.141 707.508 302.374 705.741 302.374 703.561V694.681C302.374 694.136 302.816 693.694 303.361 693.694Z" fill="#222222"/>
<path fill-rule="evenodd" clip-rule="evenodd" d="M315.201 694.681V703.561C315.201 705.196 313.876 706.521 312.241 706.521C310.606 706.521 309.281 705.196 309.281 703.561V694.681" fill="white"/>
<path fill-rule="evenodd" clip-rule="evenodd" d="M309.281 693.694C309.826 693.694 310.267 694.136 310.267 694.681V703.561C310.267 704.651 311.151 705.534 312.241 705.534C313.331 705.534 314.214 704.651 314.214 703.561V694.681C314.214 694.136 314.656 693.694 315.201 693.694C315.746 693.694 316.187 694.136 316.187 694.681V703.561C316.187 705.741 314.42 707.508 312.241 707.508C310.061 707.508 308.294 705.741 308.294 703.561V694.681C308.294 694.136 308.736 693.694 309.281 693.694Z" fill="#222222"/>
<path fill-rule="evenodd" clip-rule="evenodd" d="M321.121 694.681V703.561C321.121 705.196 319.796 706.521 318.161 706.521C316.526 706.521 315.201 705.196 315.201 703.561L315.201 694.681" fill="#59CBE8"/>
<path fill-rule="evenodd" clip-rule="evenodd" d="M315.201 693.694C315.746 693.694 316.187 694.136 316.187 694.681V703.561C316.187 704.651 317.071 705.534 318.161 705.534C319.251 705.534 320.134 704.651 320.134 703.561V694.681C320.134 694.136 320.576 693.694 321.121 693.694C321.666 693.694 322.107 694.136 322.107 694.681V703.561C322.107 705.741 320.34 707.508 318.161 707.508C315.981 707.508 314.214 705.741 314.214 703.561V694.681C314.214 694.136 314.656 693.694 315.201 693.694Z" fill="#222222"/>
<path fill-rule="evenodd" clip-rule="evenodd" d="M285.601 694.681V703.561C285.601 705.196 284.276 706.521 282.641 706.521C281.006 706.521 279.681 705.196 279.681 703.561V694.681" fill="#59CBE8"/>
<path fill-rule="evenodd" clip-rule="evenodd" d="M279.681 693.694C280.226 693.694 280.667 694.136 280.667 694.681V703.561C280.667 704.651 281.551 705.534 282.641 705.534C283.731 705.534 284.614 704.651 284.614 703.561V694.681C284.614 694.136 285.056 693.694 285.601 693.694C286.146 693.694 286.587 694.136 286.587 694.681V703.561C286.587 705.741 284.82 707.508 282.641 707.508C280.461 707.508 278.694 705.741 278.694 703.561V694.681C278.694 694.136 279.136 693.694 279.681 693.694Z" fill="#222222"/>
<path fill-rule="evenodd" clip-rule="evenodd" d="M312.241 690.734C312.241 690.19 311.799 689.748 311.254 689.748H279.681C279.136 689.748 278.694 690.19 278.694 690.734C278.694 691.279 279.136 691.721 279.681 691.721H311.254C311.799 691.721 312.241 691.279 312.241 690.734ZM314.214 690.734C314.214 690.19 314.656 689.748 315.201 689.748H321.121C321.666 689.748 322.107 690.19 322.107 690.734C322.107 691.279 321.666 691.721 321.121 691.721H315.201C314.656 691.721 314.214 691.279 314.214 690.734Z" fill="#222222"/>
<path d="M287.574 711.454H295.467V726.254H287.574V711.454Z" fill="white"/>
<path fill-rule="evenodd" clip-rule="evenodd" d="M286.587 711.454C286.587 710.91 287.029 710.468 287.574 710.468H295.467C296.012 710.468 296.454 710.91 296.454 711.454V726.254C296.454 726.799 296.012 727.241 295.467 727.241H287.574C287.029 727.241 286.587 726.799 286.587 726.254V711.454ZM288.561 712.441V725.268H294.481V712.441H288.561Z" fill="#222222"/>
<path d="M300.401 711.454H318.161V721.321H300.401V711.454Z" fill="#59CBE8"/>
<path fill-rule="evenodd" clip-rule="evenodd" d="M299.414 711.454C299.414 710.91 299.856 710.468 300.401 710.468H318.161C318.706 710.468 319.147 710.91 319.147 711.454V721.321C319.147 721.866 318.706 722.308 318.161 722.308H300.401C299.856 722.308 299.414 721.866 299.414 721.321V711.454ZM301.387 712.441V720.334H317.174V712.441H301.387Z" fill="#222222"/>
<path fill-rule="evenodd" clip-rule="evenodd" d="M303.361 715.401C303.361 714.856 303.803 714.414 304.347 714.414H305.334C305.879 714.414 306.321 714.856 306.321 715.401C306.321 715.946 305.879 716.388 305.334 716.388H304.347C303.803 716.388 303.361 715.946 303.361 715.401Z" fill="#222222"/>
<path fill-rule="evenodd" clip-rule="evenodd" d="M308.294 715.401C308.294 714.856 308.736 714.414 309.281 714.414H312.241C312.786 714.414 313.227 714.856 313.227 715.401C313.227 715.946 312.786 716.388 312.241 716.388H309.281C308.736 716.388 308.294 715.946 308.294 715.401Z" fill="#222222"/>
<rect x="315" y="668.5" width="100" height="34" rx="17" fill="#2397D4"/>
<path d="M327.874 692.5V689.821H329.318V686.439H327.874V685.033H329.394C329.09 684.577 328.786 683.893 328.786 682.981C328.786 680.796 330.686 678.858 333.175 678.858C335.55 678.858 337.488 680.739 337.583 683.095H334.695C334.695 682.183 334.03 681.537 333.175 681.537C332.32 681.537 331.674 682.145 331.674 683.247C331.674 684.216 332.32 685.033 333.422 685.033H334.695V686.439H332.206V689.821H337.583V692.5H327.874ZM338.279 692.5L344.245 685.261C344.929 684.425 345.366 683.988 345.366 683.19C345.366 682.278 344.739 681.537 343.77 681.537C342.801 681.537 342.193 682.297 342.193 683.209V683.475H339.305V683.209C339.305 680.777 341.338 678.858 343.77 678.858C346.202 678.858 348.254 680.777 348.254 683.209C348.254 684.273 347.855 685.223 347.228 685.983L344.131 689.821H348.235V692.5H338.279ZM356.317 692.5V689.46H349.173L359.205 678.858V686.952H360.649V689.46H359.205V692.5H356.317ZM354.493 686.952H356.317V685.033L354.493 686.952ZM362.902 695.426L363.738 692.5H362.465V689.194H365.771V692.5L364.555 695.426H362.902ZM372.821 692.652C369.819 692.652 367.691 690.41 367.691 685.755C367.691 681.1 369.819 678.858 372.821 678.858C375.804 678.858 377.932 681.1 377.932 685.755C377.932 690.41 375.804 692.652 372.821 692.652ZM372.821 689.821C374.037 689.821 375.044 688.928 375.044 685.755C375.044 682.582 374.037 681.689 372.821 681.689C371.605 681.689 370.579 682.582 370.579 685.755C370.579 688.928 371.605 689.821 372.821 689.821ZM384.734 692.652C381.732 692.652 379.604 690.41 379.604 685.755C379.604 681.1 381.732 678.858 384.734 678.858C387.717 678.858 389.845 681.1 389.845 685.755C389.845 690.41 387.717 692.652 384.734 692.652ZM384.734 689.821C385.95 689.821 386.957 688.928 386.957 685.755C386.957 682.582 385.95 681.689 384.734 681.689C383.518 681.689 382.492 682.582 382.492 685.755C382.492 688.928 383.518 689.821 384.734 689.821ZM396.646 692.652C393.644 692.652 391.516 690.41 391.516 685.755C391.516 681.1 393.644 678.858 396.646 678.858C399.629 678.858 401.757 681.1 401.757 685.755C401.757 690.41 399.629 692.652 396.646 692.652ZM396.646 689.821C397.862 689.821 398.869 688.928 398.869 685.755C398.869 682.582 397.862 681.689 396.646 681.689C395.43 681.689 394.404 682.582 394.404 685.755C394.404 688.928 395.43 689.821 396.646 689.821Z" fill="white"/>
<ellipse cx="399.5" cy="602.982" rx="27.5" ry="3" fill="black" fill-opacity="0.3"/>
<path fill-rule="evenodd" clip-rule="evenodd" d="M358 544.762C358 521.421 376.983 502.5 400.4 502.5C423.817 502.5 442.8 521.421 442.8 544.762C442.8 554.959 439.174 564.318 433.14 571.618C433.041 571.821 432.91 572.013 432.748 572.187L407.305 599.499C403.577 603.5 397.223 603.5 393.495 599.499L368.052 572.187C367.89 572.013 367.759 571.821 367.66 571.618C361.626 564.318 358 554.959 358 544.762Z" fill="white"/>
<path fill-rule="evenodd" clip-rule="evenodd" d="M381.654 536.07C381.654 535.525 382.096 535.084 382.641 535.084H418.161C418.706 535.084 419.147 535.525 419.147 536.07V560.737C419.147 561.282 418.706 561.724 418.161 561.724H382.641C382.096 561.724 381.654 561.282 381.654 560.737V536.07ZM383.627 537.057V559.75H417.174V537.057H383.627Z" fill="#222222"/>
<path fill-rule="evenodd" clip-rule="evenodd" d="M375.734 560.737C375.734 560.192 376.176 559.75 376.721 559.75H424.081C424.626 559.75 425.067 560.192 425.067 560.737C425.067 561.282 424.626 561.724 424.081 561.724H376.721C376.176 561.724 375.734 561.282 375.734 560.737Z" fill="#222222"/>
<path fill-rule="evenodd" clip-rule="evenodd" d="M391.521 529.164V538.044C391.521 539.678 390.196 541.004 388.561 541.004C386.926 541.004 385.601 539.678 385.601 538.044V529.164" fill="white"/>
<path fill-rule="evenodd" clip-rule="evenodd" d="M385.601 528.177C386.146 528.177 386.587 528.619 386.587 529.164V538.044C386.587 539.133 387.471 540.017 388.561 540.017C389.651 540.017 390.534 539.133 390.534 538.044V529.164C390.534 528.619 390.976 528.177 391.521 528.177C392.066 528.177 392.507 528.619 392.507 529.164V538.044C392.507 540.223 390.74 541.99 388.561 541.99C386.381 541.99 384.614 540.223 384.614 538.044V529.164C384.614 528.619 385.056 528.177 385.601 528.177Z" fill="#222222"/>
<path fill-rule="evenodd" clip-rule="evenodd" d="M397.441 529.164V538.044C397.441 539.678 396.116 541.004 394.481 541.004C392.846 541.004 391.521 539.678 391.521 538.044V529.164" fill="#59CBE8"/>
<path fill-rule="evenodd" clip-rule="evenodd" d="M391.521 528.177C392.066 528.177 392.507 528.619 392.507 529.164V538.044C392.507 539.133 393.391 540.017 394.481 540.017C395.571 540.017 396.454 539.133 396.454 538.044V529.164C396.454 528.619 396.896 528.177 397.441 528.177C397.986 528.177 398.427 528.619 398.427 529.164V538.044C398.427 540.223 396.66 541.99 394.481 541.99C392.301 541.99 390.534 540.223 390.534 538.044V529.164C390.534 528.619 390.976 528.177 391.521 528.177Z" fill="#222222"/>
<path fill-rule="evenodd" clip-rule="evenodd" d="M403.361 529.164V538.044C403.361 539.678 402.036 541.004 400.401 541.004C398.766 541.004 397.441 539.678 397.441 538.044V529.164" fill="white"/>
<path fill-rule="evenodd" clip-rule="evenodd" d="M397.441 528.177C397.986 528.177 398.427 528.619 398.427 529.164V538.044C398.427 539.133 399.311 540.017 400.401 540.017C401.491 540.017 402.374 539.133 402.374 538.044V529.164C402.374 528.619 402.816 528.177 403.361 528.177C403.906 528.177 404.347 528.619 404.347 529.164V538.044C404.347 540.223 402.58 541.99 400.401 541.99C398.221 541.99 396.454 540.223 396.454 538.044V529.164C396.454 528.619 396.896 528.177 397.441 528.177Z" fill="#222222"/>
<path fill-rule="evenodd" clip-rule="evenodd" d="M409.281 529.164V538.044C409.281 539.678 407.956 541.004 406.321 541.004C404.686 541.004 403.361 539.678 403.361 538.044V529.164" fill="#59CBE8"/>
<path fill-rule="evenodd" clip-rule="evenodd" d="M403.361 528.177C403.906 528.177 404.347 528.619 404.347 529.164V538.044C404.347 539.133 405.231 540.017 406.321 540.017C407.411 540.017 408.294 539.133 408.294 538.044V529.164C408.294 528.619 408.736 528.177 409.281 528.177C409.826 528.177 410.267 528.619 410.267 529.164V538.044C410.267 540.223 408.5 541.99 406.321 541.99C404.141 541.99 402.374 540.223 402.374 538.044V529.164C402.374 528.619 402.816 528.177 403.361 528.177Z" fill="#222222"/>
<path fill-rule="evenodd" clip-rule="evenodd" d="M415.201 529.164V538.044C415.201 539.678 413.876 541.004 412.241 541.004C410.606 541.004 409.281 539.678 409.281 538.044V529.164" fill="white"/>
<path fill-rule="evenodd" clip-rule="evenodd" d="M409.281 528.177C409.826 528.177 410.267 528.619 410.267 529.164V538.044C410.267 539.133 411.151 540.017 412.241 540.017C413.331 540.017 414.214 539.133 414.214 538.044V529.164C414.214 528.619 414.656 528.177 415.201 528.177C415.746 528.177 416.187 528.619 416.187 529.164V538.044C416.187 540.223 414.42 541.99 412.241 541.99C410.061 541.99 408.294 540.223 408.294 538.044V529.164C408.294 528.619 408.736 528.177 409.281 528.177Z" fill="#222222"/>
<path fill-rule="evenodd" clip-rule="evenodd" d="M421.121 529.164V538.044C421.121 539.678 419.796 541.004 418.161 541.004C416.526 541.004 415.201 539.678 415.201 538.044L415.201 529.164" fill="#59CBE8"/>
<path fill-rule="evenodd" clip-rule="evenodd" d="M415.201 528.177C415.746 528.177 416.187 528.619 416.187 529.164V538.044C416.187 539.133 417.071 540.017 418.161 540.017C419.251 540.017 420.134 539.133 420.134 538.044V529.164C420.134 528.619 420.576 528.177 421.121 528.177C421.666 528.177 422.107 528.619 422.107 529.164V538.044C422.107 540.223 420.34 541.99 418.161 541.99C415.981 541.99 414.214 540.223 414.214 538.044V529.164C414.214 528.619 414.656 528.177 415.201 528.177Z" fill="#222222"/>
<path fill-rule="evenodd" clip-rule="evenodd" d="M385.601 529.164V538.044C385.601 539.678 384.276 541.004 382.641 541.004C381.006 541.004 379.681 539.678 379.681 538.044V529.164" fill="#59CBE8"/>
<path fill-rule="evenodd" clip-rule="evenodd" d="M379.681 528.177C380.226 528.177 380.667 528.619 380.667 529.164V538.044C380.667 539.133 381.551 540.017 382.641 540.017C383.731 540.017 384.614 539.133 384.614 538.044V529.164C384.614 528.619 385.056 528.177 385.601 528.177C386.146 528.177 386.587 528.619 386.587 529.164V538.044C386.587 540.223 384.82 541.99 382.641 541.99C380.461 541.99 378.694 540.223 378.694 538.044V529.164C378.694 528.619 379.136 528.177 379.681 528.177Z" fill="#222222"/>
<path fill-rule="evenodd" clip-rule="evenodd" d="M412.241 525.217C412.241 524.672 411.799 524.23 411.254 524.23H379.681C379.136 524.23 378.694 524.672 378.694 525.217C378.694 525.762 379.136 526.204 379.681 526.204H411.254C411.799 526.204 412.241 525.762 412.241 525.217ZM414.214 525.217C414.214 524.672 414.656 524.23 415.201 524.23H421.121C421.666 524.23 422.107 524.672 422.107 525.217C422.107 525.762 421.666 526.204 421.121 526.204H415.201C414.656 526.204 414.214 525.762 414.214 525.217Z" fill="#222222"/>
<path d="M387.574 545.937H395.467V560.737H387.574V545.937Z" fill="white"/>
<path fill-rule="evenodd" clip-rule="evenodd" d="M386.587 545.937C386.587 545.392 387.029 544.95 387.574 544.95H395.467C396.012 544.95 396.454 545.392 396.454 545.937V560.737C396.454 561.282 396.012 561.724 395.467 561.724H387.574C387.029 561.724 386.587 561.282 386.587 560.737V545.937ZM388.561 546.924V559.75H394.481V546.924H388.561Z" fill="#222222"/>
<path d="M400.401 545.937H418.161V555.804H400.401V545.937Z" fill="#59CBE8"/>
<path fill-rule="evenodd" clip-rule="evenodd" d="M399.414 545.937C399.414 545.392 399.856 544.95 400.401 544.95H418.161C418.706 544.95 419.147 545.392 419.147 545.937V555.804C419.147 556.349 418.706 556.79 418.161 556.79H400.401C399.856 556.79 399.414 556.349 399.414 555.804V545.937ZM401.387 546.924V554.817H417.174V546.924H401.387Z" fill="#222222"/>
<path fill-rule="evenodd" clip-rule="evenodd" d="M403.361 549.884C403.361 549.339 403.803 548.897 404.347 548.897H405.334C405.879 548.897 406.321 549.339 406.321 549.884C406.321 550.429 405.879 550.87 405.334 550.87H404.347C403.803 550.87 403.361 550.429 403.361 549.884Z" fill="#222222"/>
<path fill-rule="evenodd" clip-rule="evenodd" d="M408.294 549.884C408.294 549.339 408.736 548.897 409.281 548.897H412.241C412.786 548.897 413.227 549.339 413.227 549.884C413.227 550.429 412.786 550.87 412.241 550.87H409.281C408.736 550.87 408.294 550.429 408.294 549.884Z" fill="#222222"/>
<rect x="415" y="502.982" width="98" height="34" rx="17" fill="#2397D4"/>
<path d="M427.874 526.982V524.303H429.318V520.921H427.874V519.515H429.394C429.09 519.059 428.786 518.375 428.786 517.463C428.786 515.278 430.686 513.34 433.175 513.34C435.55 513.34 437.488 515.221 437.583 517.577H434.695C434.695 516.665 434.03 516.019 433.175 516.019C432.32 516.019 431.674 516.627 431.674 517.729C431.674 518.698 432.32 519.515 433.422 519.515H434.695V520.921H432.206V524.303H437.583V526.982H427.874ZM438.279 526.982L444.245 519.743C444.929 518.907 445.366 518.47 445.366 517.672C445.366 516.76 444.739 516.019 443.77 516.019C442.801 516.019 442.193 516.779 442.193 517.691V517.957H439.305V517.691C439.305 515.259 441.338 513.34 443.77 513.34C446.202 513.34 448.254 515.259 448.254 517.691C448.254 518.755 447.855 519.705 447.228 520.465L444.131 524.303H448.235V526.982H438.279ZM453.733 527.134C452.023 527.134 450.522 526.412 449.61 525.234L451.643 523.353C452.061 523.98 452.65 524.455 453.543 524.455C454.797 524.455 455.595 523.676 455.595 522.422C455.595 521.168 454.797 520.389 453.543 520.389H452.175L454.17 516.171H450.237V513.492H458.388L456.146 518.242C457.761 519.097 458.502 520.655 458.502 522.422C458.502 525.272 456.583 527.134 453.733 527.134ZM460.861 529.908L461.697 526.982H460.424V523.676H463.73V526.982L462.514 529.908H460.861ZM470.78 527.134C467.778 527.134 465.65 524.892 465.65 520.237C465.65 515.582 467.778 513.34 470.78 513.34C473.763 513.34 475.891 515.582 475.891 520.237C475.891 524.892 473.763 527.134 470.78 527.134ZM470.78 524.303C471.996 524.303 473.003 523.41 473.003 520.237C473.003 517.064 471.996 516.171 470.78 516.171C469.564 516.171 468.538 517.064 468.538 520.237C468.538 523.41 469.564 524.303 470.78 524.303ZM482.693 527.134C479.691 527.134 477.563 524.892 477.563 520.237C477.563 515.582 479.691 513.34 482.693 513.34C485.676 513.34 487.804 515.582 487.804 520.237C487.804 524.892 485.676 527.134 482.693 527.134ZM482.693 524.303C483.909 524.303 484.916 523.41 484.916 520.237C484.916 517.064 483.909 516.171 482.693 516.171C481.477 516.171 480.451 517.064 480.451 520.237C480.451 523.41 481.477 524.303 482.693 524.303ZM494.605 527.134C491.603 527.134 489.475 524.892 489.475 520.237C489.475 515.582 491.603 513.34 494.605 513.34C497.588 513.34 499.716 515.582 499.716 520.237C499.716 524.892 497.588 527.134 494.605 527.134ZM494.605 524.303C495.821 524.303 496.828 523.41 496.828 520.237C496.828 517.064 495.821 516.171 494.605 516.171C493.389 516.171 492.363 517.064 492.363 520.237C492.363 523.41 493.389 524.303 494.605 524.303Z" fill="white"/>
</svg>
