<svg width="678" height="1002" viewBox="0 0 678 1002" fill="none" xmlns="http://www.w3.org/2000/svg">
<path fill-rule="evenodd" clip-rule="evenodd" d="M601.137 718.568L603.898 716.79L601.827 715.07L601.295 712.665L601.565 712.782L601.209 712.275L601.197 712.219L601.157 712.202L600.2 710.838L600.601 709.086L599.916 706.077L601.106 705.33L601.064 702.489L599.694 702.154L599.639 698.078L597.77 697.193L596.287 693.257L596.309 693.211L596.246 693.148L596.107 692.775L596.034 692.928L592.355 689.142L590.917 689.97L585.819 684.299L576.402 678.081L571.238 676.008L567.371 677.372L559.592 675.618L553.163 676.757L547.357 674.215L547.362 674.111L547.19 674.142L546.995 674.057L546.989 674.178L532.016 676.828L531.954 676.838L529.114 679.952L528.479 686.933L523.924 693.11L518.62 692.336L518.33 692.207L518.265 692.4L518.089 692.34L516.948 695.755L513.107 698.16L508.631 699.597L506.416 703.693L501.871 705.344L501.277 704.405L498.749 704.949L496.195 706.843L492.872 704.891L491.512 704.739L490.102 706.987L486.855 704.817L484.755 706.196L479.048 707.099L476.369 708.641L477.528 710.189L476.208 713.438L478.313 715.081L480.933 714.667C482.397 718.179 482.41 718.193 482.455 718.242C482.51 718.309 484.057 720.252 484.725 721.092L485.205 724.119L484.307 724.409L482.654 729.122C482.218 729.242 481.661 729.394 481.622 729.403C481.471 729.427 481.471 729.427 476.93 733.812L476.704 734.03L476.882 734.29C477.266 734.845 477.697 735.475 477.799 735.636C477.851 735.762 478.052 735.917 479.187 736.777L479.372 737.282L475.203 738.524L476.243 739.049L473.914 743.221L473.909 743.922L471.104 741.738L468.112 743.377L469.632 746.34L468.561 749.803C467.618 749.908 466.055 750.084 466.022 750.089C465.988 750.094 465.963 750.098 462.554 751.679L462.507 751.701L461.163 753.72L460.196 753.609L460.221 754.671L456.961 756.239L457.6 759.157L459.48 761.465L457.115 763.384L457.191 764.226L455.897 765.083L453.517 760.988L448.393 760.728L448.673 761.883L441.797 764.683L442.138 767.342L442.247 767.319L439.862 769.985L439.813 769.68L435.154 769.457L434.466 764.149L433.456 764.156L433.94 760.609L433.051 760.069L436.281 758.879L431.13 752.66L429.928 754.161L429.141 758.631L422.928 759.532L422.413 761.704L421.486 762.608L421.23 766.125L415.169 765.257L412.611 765.932L411.815 765.304L409.128 761.042L408.105 760.223L406.941 758.325L406.31 759.467L402.884 762.081L400.696 762.112L403.41 766.507L402.752 768.049L398.591 764.43L391.592 768.409L388.298 767.802L386.962 769.091L385.961 768.262L387.436 765.504L384.132 764.959L383.731 767.512L384.706 769.344L379.329 771.965L378.894 772.04L377.351 772.302L375.06 767.36L371.808 767.706L372.121 768.663L371.236 769.6L369.314 768.037L368.19 766.107L366.221 772.404L367.518 774.105C367.488 774.917 367.491 774.938 367.495 774.959C367.499 774.988 367.502 775.006 369.202 779.105L367.299 779.406L365.112 781.416L361.42 782.074L361.526 783.019L359.746 782.286L357.448 785.449L356.212 788.309L356.788 791.941L355.22 794.066L355.492 796.059L356.235 796.554L355.723 796.77L356.037 798.563L355.337 799.319L355.129 800.771L355.963 800.561L355.428 801.281L355.707 802.565L356.511 802.333L356.78 803.914L357.547 804.795L360.167 799.111L364.155 796.561L366.967 793.273L370.751 790.626L369.228 789.585L369.168 788.329L372.842 791.384L366.776 796.093L364.307 799.47L364.172 799.656L357.991 806.28L354.721 813.423L356.464 816.558L355.469 816.747L354.504 815.108L352.724 814.472L350.707 815.146L345.346 821.411L344.961 825.042L338.842 824.135L340.214 826.487L337.936 829.041L338.549 832.91L336.814 832.151L336.712 836.16L337.98 838.509L337.368 839.121L338.651 841.604L337.386 842.824L338.733 846.81L337.904 848.199L336.053 846.29L336.761 840.411L335.102 841.659L332.488 842.097L325.247 843.309L322.498 844.89L320.923 843.967L313.659 843.88L312.477 841.969L310.365 841.539L310.217 840.052L304.925 838.889L304.853 840.057L296.664 839.757L293.772 838.729L288.139 839.272L287.632 840.581L285.349 839.849L278.432 840.456L277.299 841.975L273.662 840.996L268.483 842.294L267.515 846.623L265.852 846.513L266.343 848.982L269.344 853.106L274.889 851.94L276.103 852.748L271.1 853.622L269.257 858.57L268.129 859.057L268.95 855.793L267.421 855.22L265.646 856.015L262.896 859.768L259.66 860.586L256.81 858.679L254.789 858.909L250.856 857.752L249.416 859.414L248.999 865.958L247.415 867.201L248.347 873.526L247.607 878.414L242.064 883.569L242.325 884.877L239.942 887.68L238.308 887.992L235.431 890.18L235.141 894.535L232.647 897.107L230.881 894.85L229.058 896.926L225.839 896.432L226.21 899.748L224.81 898.997L222.01 900.891L221.377 900.031L219.949 900.949L220.502 903.972L219.041 904.625L219.212 908.657L216.709 912.699L214.589 912.222L212.488 913.501L213.379 915.383L211.429 920.02L207.824 921.352L206.569 924.027L204.626 925.24L202.594 927.61L198.8 927.261L195.766 932.59L193.374 932.125L192.394 929.577L190.439 929.707L190.4 929.731L187.527 931.483C187.474 931.511 187.439 931.529 185.466 934.311L181.574 935.015L178.734 938.325L180.061 939.354L180.21 941.226L178.776 942.282L178.631 944.388L180.293 944.889L181.511 946.904L188.733 944.439L189.625 941.858L188.778 939.807L190.177 938.084L193.283 938.987L194.406 940.959L197.352 940.978L198.544 942.192L200.453 941.565L203.176 943.609L204.927 947.98L204.426 950.328L206.106 953.469L208.831 954.542L211.151 950.892L214.859 950.803L217.845 946.638L216.05 943.215L212.857 942.192L212.775 941.275L215.276 941.725L216.456 938.01L218.008 937.571L217.167 935.974L217.456 933.454L215.947 932.396C216.28 932.12 216.607 931.854 216.717 931.775C216.961 931.784 218.075 931.847 218.908 931.896L219.169 938.111L221.628 936.963L222.636 933.665L225.868 933.206L228.859 930.006L233.402 930.432L234.76 928.396L233.71 927.08L234.18 925.004L235.632 923.583L235.508 921.469L239.272 919.646C239.593 920.868 240.028 922.542 240.047 922.644L240.048 922.747L240.134 922.802C240.253 922.878 240.263 922.885 242.481 921.858C242.737 921.74 242.93 921.65 242.992 921.623L245.983 921.231L251.758 921.954L252.055 920.039L250.784 918.473L250.836 917.449L253.45 919.096L262.014 918.431L265.275 920.479L265.819 923.148L268.756 923.173L268.354 921.091L269.68 920.904L269.644 919.161L269.43 919.201C268.341 919.403 267.886 919.495 267.685 919.561C267.469 919.462 266.671 919.008 266.061 918.653L266.572 917.246L261.012 915.826L261.502 914.573L262.361 915.486L262.419 915.498C265.699 916.155 265.724 916.151 265.768 916.144C265.828 916.134 265.848 916.131 267.123 915.095L267.284 915.344L267.47 915.631L267.498 915.673L269.386 918.588L271.772 919.265L271.651 920.5L271.502 920.49L271.629 920.733L271.616 920.868L271.702 920.875L272.831 923.052L272.941 923.054C273.54 923.064 274.46 923.082 274.799 923.095C274.843 923.507 274.88 923.921 274.909 924.335L274.919 924.47L277.741 925.139L280.377 924.39L283.322 925.601L287.948 925.628L286.902 930.291L287.012 930.361C287.685 930.79 288.775 931.495 288.917 931.602C289.009 931.746 289.296 932.132 290.215 933.34L290.278 933.423L292.856 933.15L292.555 931.253L295.559 934.76L297.784 932.041L299.813 932.384L299.865 927.129L300.923 923.394L302.733 923.376L305.006 922.521L304.208 920.517C305.714 921.612 305.736 921.616 305.788 921.624L305.847 921.625C305.888 921.619 305.945 921.61 307.695 920.581L307.791 920.524L307.656 918.261L309.368 917.529L309.688 917.475L309.632 917.417L310.816 916.911L309.383 917.151L308.005 915.685L305.192 915.379L304.954 913.322L307.415 909.481L308.888 908.419L307.987 905.65L307.933 905.484L307.854 905.243L307.3 903.544L304.956 903.763L304.877 902.956L309.917 901.879L311.284 900.037L311.265 898.078L312.811 896.695L311.58 896.119L310.649 891.043L310.379 889.577L311.412 889.992L311.862 892.828L313.369 894.07L313.722 897.052L317.139 897.528L317.238 895.529L320.082 894.904L321.309 893.335L321.25 891.818L323.083 890.909L332.064 889.548L332.175 889.531L332.594 888.293L340.427 887.382L340.406 887.48L340.712 887.349L340.816 887.337L340.824 887.302L344.001 885.948C346.405 886.721 346.81 886.845 346.913 886.859C347.03 886.871 349.255 887.184 350.752 887.399L353.636 889.467L360.211 892.949L365.312 897.353L367.011 899.752L368.452 899.594L369.415 901.666L367.784 904.634L370.049 904.407L371.694 902.934L371.076 900.733L369.665 899.255L369.347 897.404L370.272 894.587L372.804 894.211L375.147 895.579L375.364 895.621L375.363 895.628L375.718 895.688L375.73 895.691L381.296 896.632L386.675 896.305L389.134 898.229L391.63 898.082L392.739 899.507L397.255 898.745L398.432 897.274L398.12 895.904L399.699 893.698L398.651 890.782L389.386 889.732L389.641 888.645L392.985 887.219L392.442 885.625L393.411 885.381L394.142 885.2C394.949 885.598 396.19 886.214 396.366 886.318C396.484 886.485 396.857 886.953 398.077 888.456L398.144 888.538L400.842 888.112L401.755 886.586L401.864 886.573L402.12 886.546L405.696 886.142C407.039 886.808 407.291 886.926 407.38 886.94C407.485 886.954 408.954 887.251 409.915 887.448L410.366 887.539L409.151 885.778L413.384 884.775L414.794 884.439L417.441 885.897L419.929 887.642L422.446 884.5L422.312 882.812L424.596 882.838L433.536 879.72L433.608 879.695L434.957 876.924L425.821 869.31L425.571 868.07L429.521 870.422L430.155 867.934L431.537 870.634L432.466 872.453L434.51 872.103L436.387 875.461L440.08 878.094L440.342 878.28L440.403 878.323L444.301 881.1L445.321 879.65L445.976 879.451L446.208 879.606L447.96 880.777L450.119 879.206L449.99 876.055L451.232 874.236L454.352 874.461L456.427 873.735L456.668 873.652L456.776 873.614L457.169 876.536L458.919 876.421L459.059 874.652L460.529 873.618L461.307 876.682L459.221 877.984L459.836 880.762L462.19 883.481L465.989 885.036L465.44 881.495L466.343 879.774L468.587 881.017L468.29 879.475L473.744 879.046L473.762 879.043L480.823 876.967L483.208 877.455L485.099 877.129L485.365 877.084L485.468 877.067L489.366 876.395L491.457 875.174L497.431 873.995L503.955 875.296L507.158 876.118L514.561 878.013L516.229 879.658L518.556 880.244L521.894 881.082L521.875 881.256L522.117 881.138L522.256 881.173L522.269 881.064L528.169 878.186L528.77 875.777L529.78 874.938L531.128 873.823L531.257 873.771L534.85 872.33L539.038 871.484L540.312 871.229L541.624 870.058L544.43 870.074L547.723 868.456L548.829 867.915L551.267 864.323L552.958 860.751L558.581 862.622L558.779 862.638L558.78 862.641L565.513 863.163L564.674 858.093L566.45 855.234L566.058 853.405L570.546 850.56L570.964 849.233L577.502 848.449L578.633 846.052L583.472 844.906L585.287 842.59L588.725 838.901L589.329 837.038L588.956 832.05L588.955 832.036L587.77 826.705L586.4 827.763L584.35 828.036L583.861 825.213L586.357 825.873L590.831 823.004L589.965 818.642L587.239 818.012L580.126 820.39L579.285 818.842L579.15 818.87C579.055 818.89 569.647 820.868 569.532 820.89C569.461 820.902 569.442 820.905 567.461 822.665L562.579 824.214L562.512 824.235L562.188 824.338L562.128 824.358L559.268 826.153L559.227 825.121L555.673 824.498L553.25 822.701L551.244 823.53L551.063 821.225L549.356 817.994L547.148 818.381L546.28 821.556L543.1 822.059L540.066 819.807L537.409 821.089L537.968 819.092L548.955 814.862L548.509 814.689C542.263 812.243 542.245 812.246 542.178 812.257C542.165 812.259 542.131 812.265 534.599 814.272L534.462 813.942L534.343 814.341L534.239 814.368L534.295 814.503L533.838 816.03L528.531 816.627L525.233 814.497L523.54 815.463L521.335 814.011L520.263 814.996L520.209 814.957L519.951 814.768L518.457 813.69L519.262 812.706L518.108 811.259L514.532 810.507L514.395 810.201L514.29 810.457L514.085 810.413L514.201 810.672L513.866 811.487L511.256 812.053L511.212 812.008L510.95 811.736L513.14 811.147L513.21 809.925L516.222 809.999L519.336 810.076L520.205 811.921L520.185 811.959L520.235 811.987L520.303 812.13L520.373 812.278L520.499 812.546L520.928 813.456L524.986 813.52L526.356 815.072L530.531 815.189L534.473 810.785L539.178 809.715L537.599 807.941L539.019 807.455L539.81 810.131L542.303 810.692L542.296 808.626L540.24 806.728L543.654 807.415L543.837 807.424L544.096 807.437L544.093 807.431L548.319 807.548L551.183 808.206L554.2 806.607L554.405 806.624L554.377 806.514L554.807 806.287L554.308 806.244L553.873 804.526L550.055 803.764L549.739 803.257L555.671 802.253L555.84 805.868L561.754 799.417L555.894 800.599L554.515 798.797L560.424 797.008L561.46 794.244L559.688 787.15L551.736 792.909L548.863 793.499L546.715 791.034L546.197 789.336L552.632 788.238L557.782 785.326L555.167 784.639L557.027 782.993L559.304 782.954L560.602 784.499L563.342 782.375L560.156 780.823L561.102 777.319L562.764 778.132L564.813 780.08L566.499 779.334C565.941 781.731 565.945 781.754 565.952 781.801C565.966 781.888 565.968 781.897 568.722 784.447L568.814 784.531L574.341 781.948L574.373 781.932L579.743 776.113L579.486 774.226L576.393 776.118L575.265 773.559L577.548 772.064L578.597 768.996L577.5 768.1L567.019 769.178L566.074 767.809L571.047 766.316L574.136 767.62L578.134 767.247L576.661 764.407L572.707 762.782L572.678 762.111L572.405 761.882L572.657 761.809L574.356 762.213L574.617 762.274L574.74 762.304L577.652 762.992L579.907 769.048L582.832 766.602L583.736 763.44L580.309 756.629L578.55 755.611L579.347 753.943L580.886 752.958L584.704 762.8L586.759 762.475L587.241 760.482L589.573 757.078L594.203 754.893L596.156 746.701L596.256 743.165L597.614 734.68L599.426 732.264L601.495 725.052L601.506 725.01L600.992 722.208L601.897 720.428L601.138 718.569L601.137 718.568Z" fill="#3CCEAF"/>
<path fill-rule="evenodd" clip-rule="evenodd" d="M444.669 886.181L444.548 884.557L439.25 885.713L438.248 884.49L438.506 882.726L436.719 881.588L435.972 883.602L436.583 886.255L435.899 887.534L435.525 886.838L435.942 885.135L435.193 881.473L433.712 881.865L432.969 883.873L430.575 885.212L430.238 887.29L426.965 886.575L423.432 888.091L422.373 887.196L419.752 892.735L423.121 891.263L425.415 891.496L433.365 898.354L434.236 897.54L435.161 899.759L436.136 899.95L443.104 897.257L443.113 897.137C443.412 893.316 443.37 893.236 443.334 893.172C443.295 893.099 442.809 892.276 442.55 891.839L447.485 891.296L444.67 886.181L444.669 886.181ZM553.957 815.581L550.783 815.455L549.981 817.627L551.803 820.732L556.912 822.633L563.403 821.45L554.57 817.37L553.957 815.581ZM143.566 951.091L144.714 953.049L145.992 951.694L144.56 949.581L143.566 951.091ZM140.021 958.127L140.206 958.812L142.524 959.216L141.189 957.1L140.021 958.127ZM142.019 956.031L143.549 956.726L145.507 955.984L143.941 953.171L142.019 956.031ZM142.416 954.455L142.577 954.551L143.851 952.893L142.284 951.291L140.21 951.434L140.228 951.623C140.381 953.228 140.393 953.236 140.485 953.296C140.517 953.318 141.846 954.114 142.416 954.455ZM241.836 841.061L240.439 841.947L241.056 845.84L243.244 844.945L241.836 841.061ZM454.022 875.001L451.316 878.716L453.82 879.586L453.853 879.582C454.6 879.487 455.729 879.344 455.883 879.332L455.968 879.35L456.026 879.253C456.1 879.13 456.1 879.13 454.144 875.245L454.022 875.001Z" fill="#8CE2D0"/>
<path fill-rule="evenodd" clip-rule="evenodd" d="M504.293 609.921L502.705 609.29L502.48 607.215L491.934 594.001L492.075 590.051L490.778 588.798L488.993 578.422L494.435 573.269L493.937 571.162L491.724 571.513L490.258 569.562L488.179 570.468L485.323 568.069L483.6 563.954L478.608 560.533L477.152 556.112L474.039 551.675L470.269 542.932L470.247 542.881L463.156 538.277L461.012 538.029L461.543 536.687L456.527 534.979L457.375 533.792L451.069 533.304L448.742 531.238L447.119 532.08L443.966 530.997L442.751 528.718L437.588 526.798L436.865 529.662L436.622 529.583L434.974 529.044L435.848 524.752L435.011 523.523L436.838 522.503L432.358 519.591L432.352 519.582L429.134 515.432L427.643 508.958L426.984 508.148L426.94 507.882L426.324 504.088L424.482 502.82L426.095 502.268L426.204 499.977L426.211 499.843L426.221 499.602L426.228 499.421L425.259 496.182L423.537 494.568L423.449 493.748L423.322 492.543L421.201 490.958L420.911 487.93L420.904 487.842L420.887 487.669L420.791 487.716L418.842 485.545L418.446 483.151L416.214 481.926L418.919 479.062L418.351 475.709L416.847 475.581L415.457 472.926L414.918 467.688L416.437 467.24L412.833 461.636L413.609 459.636L413.668 453.103L412.05 449.211L413.075 447.366L411.946 446.333L410.885 442.334L408.303 440.206L402.75 438.977L392.973 426.807L392.814 424.109L390.98 421.88L391.066 421.718L390.675 421.51L390.217 420.951L390.085 421.195L389.431 420.847L387.568 424.339L380.761 432.531L379.589 435.385L377.277 434.875L373.226 436.737L382.118 451.921L373.383 458.492L373.846 460.823L367.177 461.879L364.922 465.183L362.546 467.021L355.783 477.615L347.13 484.28L344.11 487.347L336.646 489.458L335.816 496.391L336.369 496.456L336.553 496.479L336.526 496.708L337.193 496.643L338.651 498.44L335.806 498.84L333.031 500.999L339.239 500.893L339.392 501.705L334.175 502.483L324.58 499.917L323.823 502.997L329.749 503.508L329.182 504.316L321.189 505.184L318.025 508.962L316.841 516.574L310.904 524.443L311.264 526.381L309.11 527.484L309.987 530.697L309.983 530.726L309.954 530.924L309.929 531.093L309.197 536.163L307.771 535.471L307.522 538.409L305.49 539.31L305.52 539.456C305.616 539.944 305.872 541.231 305.887 541.328C305.896 541.381 305.916 541.505 306.686 542.371L309.795 544.479L311.642 546.528L314.354 552.581L314.378 552.633L314.427 552.665C315.914 553.562 318.108 554.897 318.606 555.223C318.385 555.799 317.359 558.305 316.657 560.008L316.629 560.077L319.458 567.371L319.474 567.415L322.444 569.951L325.089 569.364L326.062 568.559L325.593 566.5L327.528 564.954L327.88 566.279L327.949 566.533L327.977 566.638L328.359 568.071L325.42 576.341L331.082 578.194L332.329 576.462L336.54 570.625L336.672 567.493L337.459 562.73L338.732 562.957L338.273 566.597L338.547 570.77L340.888 573.078L345.599 569.425L345.631 569.402L348.934 563.349L350.267 564.225L350.598 566.633L345.898 570.466L345.832 570.518L345.273 570.974L345.938 570.677L347.622 573.22L347.679 573.241C348.724 573.62 350.217 574.163 350.724 574.35C350.332 575.024 349.927 575.69 349.509 576.349L348.707 578.813L344.088 580.417L343.172 584.163L346.335 586.811L345.078 591.72L343.255 591.785L343.202 591.85C342.271 592.996 340.862 594.722 340.693 594.906C340.56 594.995 340.604 595.246 341.595 599.853L339.278 599.254L340.011 597.684L339.058 596.784L339.218 594.132L337.326 593.327L336.074 594.834L336.032 597.56L336.084 597.939L336.504 601.089L335.049 602.284L335.652 606.19L335.155 607.368L335.905 609.924L337.663 609.952L338.557 611.751L341.483 611.44L342.434 610.133L346.038 611.265L344.818 613.353L342.705 611.727L341.371 616.085L340.206 614.83L334.122 623.994L334.091 624.041L334.108 630.269V630.332L335.463 632.102L335.975 636.237L338.038 637.656L339.247 642.09L343.444 645.634L347.741 648.348L347.872 648.322L347.883 648.392L350.913 647.806L351.44 645.875L354.604 645.355L355.714 646.076L351.876 649.058L349.836 650.645L345.259 651.319L342.251 649.865L338.422 643.991C338.33 643.223 338.238 642.456 338.144 641.689C338.136 641.637 338.13 641.596 335.896 638.158L335.788 637.993L335.63 638.111L333.297 639.847C333.182 639.916 331.231 640.888 329.948 641.525L329.88 641.56L328.57 645.528L333.108 650.388L332.733 651.232L332.798 654.617L335.189 655.069L335.085 655.34L335.064 655.345L335.071 655.376L334.849 655.961L335.185 655.887L335.224 656.068L336.59 655.767L341.816 660.739L341.586 661.186L342.469 661.834L341.388 663.432L338.215 663.801L339.82 667.081L343.599 668.716L342.879 669.632L345.345 672.927L345.706 674.97L347.054 677.663L353.098 680.511L354.882 679.164L356.983 679.909L358.241 679.696L358.426 680.442L360.852 683.007L364.281 681.379L367.161 682.742L368.845 681.071L372.446 679.105L374.012 673.46L375.436 671.457L378.909 670.941L378.982 670.889C379.565 670.473 380.495 669.816 380.734 669.654L380.81 669.642L383.934 665.35L385.615 664.228L385.868 661.92L387.614 663.384L392.251 661.532L393.738 659.204L393.29 654.607L393.332 649.313L392.661 645.719L391.494 644.151L393.741 639.975L392.34 640.01L392.309 638.459L393.944 637.61L393.753 636.401L394.699 635.627L394.88 631.95L397.686 629.028L402.234 630.741L403.444 633.006L403.659 634.359L411.346 642.641L410.616 644.722L415.417 649.863L416.464 648.819C419.089 650.097 419.093 650.096 419.24 650.073L419.606 650.015L419.586 649.886C419.929 649.679 420.683 649.238 421.324 648.866L421.637 650.16L423.584 647.366L425.711 647.172L425.917 648.953L429.178 649.37L429.785 648.366L430.775 648.157L433.526 650.548L437.581 648.876L438.083 647.812L439.075 647.914L439.97 646.497L439.071 645.633L440.298 643.967L442.021 639.134L446.586 638.57L450.611 631.837L450.587 629.264L453.185 623.688L460.878 626.076L462.134 623.455L464.028 616.352L464.039 616.313L463.616 613.64L463.386 612.292L466.335 610.497L469.423 609.955L472.853 611.247L477.809 610.301L478.937 610.086L478.969 610.076C481.018 609.289 484.098 608.117 484.538 607.977C484.947 608.139 487.101 608.973 487.86 609.267L494.654 616.783L494.689 616.821L499.599 618.383L501.39 616.256L507.956 618.99L506.876 622.444L509.153 622.754L510.534 620.121L504.293 609.921Z" fill="#3CCEAF"/>
<path fill-rule="evenodd" clip-rule="evenodd" d="M516.181 640.387L516.149 640.31L513.305 637.584L511.867 635.894L507.704 630.447L503.438 626.867L502.909 626.57L502.784 626.589L502.655 626.643L500.706 625.58L500.697 623.491L494.929 621.179L490.484 617.309L489.381 615.729L489.344 615.677L489.167 615.421L486.86 612.129L482.832 611.021L479.847 612.665L476.74 611.769L472.21 614.493L467.251 610.951L463.209 613.332L463.639 616.044L461.78 623.042L460.676 625.352L453.013 622.966L450.241 628.93L450.516 630.325L446.196 637.568L441.556 638.142L439.726 643.289L438.187 645.382L439.115 646.277L438.79 646.793L437.737 646.684L437.136 647.961L433.786 649.344L431.113 647.015L429.452 647.367L428.932 648.231L426.736 647.948L426.515 646.031L423.335 646.319L422.14 648.038L421.983 647.383L421.554 647.631C420.327 648.342 419.679 648.718 419.342 648.946C418.897 648.739 417.586 648.102 416.743 647.691L416.507 647.576L415.633 648.45L411.677 644.206L412.404 642.132L404.596 633.707L404.398 632.457L403.003 629.842L397.759 627.861L394.437 631.328L394.26 634.942L393.244 635.775L393.419 636.874L389.746 638.786L391.877 638.648L391.912 640.436L392.778 640.414L390.922 643.872L392.262 645.676L392.885 649.022L392.846 654.252L393.273 658.641L392.058 660.549L388.072 662.14L385.614 660.078L385.249 663.411L383.751 664.409L380.694 668.622C380.497 668.749 380.067 669.055 378.987 669.823L375.392 670.354L373.719 672.718L372.21 678.169L368.808 680.029L367.425 681.404L364.708 680.115L361.463 681.659L359.549 679.631L359.247 678.412L357.508 678.704L355.222 677.892L353.82 678.954L352.907 680.157L353.213 681.285L352.52 682.444L352.926 684.55C352.456 684.76 352.048 684.94 351.98 684.968C351.796 685.053 351.371 685.335 349.689 686.469L346.633 682.605L346.397 682.542C344.635 682.069 342.875 681.59 341.117 681.105L341.092 680.619L341.034 679.479L337.043 681.524L337.274 682.604C336.666 682.94 335.975 683.319 335.733 683.45C335.422 683.502 334.405 683.66 333.492 683.801L333.157 683.853L331.771 686.084L329.853 687.228L329.859 687.653C329.893 690.726 329.911 691.698 329.932 692.049C329.897 692.345 329.563 694.218 329.258 695.864L329.175 696.311L332.003 698.471L333.587 697.314L337.75 701.9L338.047 702.082L337.255 702.181C336.71 702.267 336.669 702.539 336.492 703.686C336.409 704.218 336.304 704.928 336.199 705.638C336.043 706.687 335.89 707.737 335.822 708.21L333.074 710.747L334.021 711.529L329.573 715.593L329.785 716.077C330.223 717.084 330.892 718.623 331.142 719.209C331.105 719.319 331.064 719.448 331.017 719.594C330.898 719.966 330.699 720.583 330.646 720.719L329.594 722.849L331.682 721.671C331.844 721.579 336.165 719.186 337.755 718.307C337.984 718.632 338.197 718.936 338.343 719.147C338.221 719.451 338.026 719.93 337.831 720.407L330.015 724.187L329.948 724.219L329.89 724.264C329.89 724.264 328.806 725.088 327.724 725.919C325.215 727.846 325.215 727.846 325.29 728.315L325.303 728.398L325.334 728.474C325.405 728.651 325.405 728.651 332.842 736.479L335.56 738.471L338.731 738.408L337.503 739.288L337.479 739.304C337.146 739.552 337.146 739.552 336.854 743.348L336.829 743.67L337.923 744.855L336.709 744.636L334.864 747.231L329.693 757.537L331.848 759.118L330.67 762.391L331.156 764.201L333.271 766.251L333.984 771.213L334.031 771.606L341.733 778.06L347.475 778.924L353.095 785.639L354.568 784.332L355.488 785.738L356.731 786.067L358.602 785.032L360.087 782.99L362.325 783.91L362.174 782.555L365.509 781.961L367.687 779.956L370.115 779.572L369.935 779.139C369.295 777.593 368.347 775.308 368.185 774.906C368.188 774.768 368.199 774.42 368.211 774.104L368.216 773.972L366.976 772.349L368.482 767.541L369.021 768.469L371.417 770.411L372.88 768.869L372.678 768.248L374.851 768.019L377.146 772.97L379.618 772.549L385.572 769.649L384.416 767.479L384.702 765.667L386.686 765.994L385.363 768.462L387.095 769.889L388.578 768.456L391.785 769.047L398.608 765.172L403.036 769.02L404.107 766.52L401.762 762.725L403.151 762.704L406.808 759.917L407.035 759.508L407.752 760.674L408.76 761.468L411.457 765.741L412.543 766.6L415.255 765.882L421.968 766.842L422.249 763.008L423.127 762.155L423.575 760.267L429.81 759.363L430.656 754.566L431.171 753.922L435.066 758.619L431.385 759.973L433.167 761.058L432.633 764.959L433.841 764.95L434.52 770.206L439.19 770.429L439.388 771.675L444.316 766.169L442.777 766.497L442.61 765.207L449.538 762.388L449.342 761.58L453.07 761.768L455.634 766.18L457.773 764.766L457.674 763.682L460.238 761.604L458.094 758.976L457.58 756.624L460.761 755.094L460.742 754.314L461.412 754.39L462.855 752.226C463.94 751.722 465.028 751.221 466.116 750.724C466.403 750.691 467.894 750.523 468.907 750.411L469.147 750.383L470.39 746.374L469.066 743.791L470.997 742.734L474.589 745.531L474.607 743.529L477.217 738.86L477.15 738.826L480.283 737.893L479.754 736.448L479.668 736.382C479.236 736.058 478.808 735.728 478.385 735.393C478.139 735.011 477.884 734.634 477.622 734.264C479.01 732.921 480.404 731.584 481.803 730.254C481.942 730.218 482.254 730.134 482.981 729.934L483.167 729.883L484.824 725.165L485.975 724.794L485.366 720.959L485.306 720.882C484.539 719.918 483.771 718.956 483.003 717.994C482.874 717.708 482.02 715.666 481.454 714.31L481.341 714.041L478.469 714.496L477.063 713.4L478.329 710.29L477.422 709.082L479.255 708.026L484.973 707.121L486.795 705.927L490.261 708.237L491.826 705.748L492.566 705.831L496.168 707.942L498.982 705.858L500.847 705.456L501.481 706.458L506.839 704.515L509.043 700.443L513.274 699.087L517.455 696.484L518.786 692.511L515.868 691.204L515.393 689.402L511.375 686.108L504.958 685.902L501.92 686.66L501.673 686.005L506.19 682.614L504.417 679.773L507.623 681.283L511.191 673.725L521.75 666.193L521.27 663.054L522.125 655.849L516.18 640.387H516.181Z" fill="#2BAB90"/>
<path fill-rule="evenodd" clip-rule="evenodd" d="M353.733 681.991L353.254 680.235L347.529 677.55L346.263 675.031L345.898 672.961L343.55 669.837L344.393 668.77L340.298 667.007L340.131 666.666L338.985 664.331L341.807 664.004L343.184 661.976L342.269 661.306L342.905 660.072L342.051 659.237L341.946 660.388L336.915 655.62L335.355 655.963L334.744 657.563L328.371 653.433L327.634 651.031L319.041 646.713L318.537 646.461L315.692 648.296L312.61 648.429L312.035 650.648L310.514 650.798L298.175 652.007L298.397 650.837L296.08 648.122L293.589 648.834L292.943 646.775L291.532 647.654L292.393 650.725L294.633 652.037L295.117 654.53L293.583 655.199L293.298 653.293L290.801 652.485L287.532 653.445L284.521 655.695L283.345 656.173L279.581 657.699L277.313 656.764L272.196 660.462L269.43 665.048L266.564 666.194L266.839 668.933L264.794 674.469L261.96 677.045L257.732 679.379L256.867 682.795L252.496 682.777L243.622 690.193L243.36 692.911L241.727 693.294L240.871 695.661L242.435 697.311L243.656 695.805L247.995 696.076L249.344 695.029L249.869 693.634L250.988 693.263L252.644 695.057L253.568 697.746L256.024 696.596L255.721 694.924L256.315 691.904L258.392 690.62L260.205 687.55L265.297 687.646L265.185 685.928L268.688 686.667L275.879 686.396L276.264 684.883L282.804 683.882L275.643 688.402L276.279 692.521L274.88 696.055L278.049 699.987L280.061 703.675L285.291 701.817L280.426 705.867L275.859 713.025L278.678 713.376C278.678 713.376 278.171 714.678 278.118 714.686C278.066 714.694 277.676 718.321 277.676 718.321L282.621 719.153L285.908 718.417L285.228 718.896L280.072 722.514L278.243 726.952L276.046 737.828L273.079 740.799L271.338 744.654L263.821 749.282L259.844 749.381L255.689 753.85L254.884 755.854L250.899 757.248L250.836 755.84L248.589 756.834L245.956 755.958L243.474 757.059L243.682 758.94L242.067 758.291L240.146 758.984L238.659 762.322L234.243 764.352L235.035 767.099L231.679 766.725L230.731 764.678L230.012 766.777L225.652 767.944L226.704 766.041L225.005 766.452L222.015 765.453L220.691 766.781L220.822 770.517L218.534 771.376L217.417 773.45L216.417 772.525L214.016 772.888L213.205 774.86L209.904 775.507C209.904 775.507 207.251 776.973 207.197 776.982C207.145 776.99 207.451 780.825 207.451 780.825L208.851 779.537L213.318 778.938L213.804 780.208L217.989 780.98L218.792 786.829L217.777 788.974L213.35 790.385L213.044 791.939L211.382 791.121L210.806 792.664L213.459 795.01L213.871 797.268L215.706 796.941L215.414 794.86L218.414 793.554L218.531 792.169L219.627 791.889L219.644 794.351L220.43 794.812L223.198 794.161L223.75 795.525L225.977 794.606L226.984 792.993L228.931 794.935L228.873 795.92L227.364 795.841L228.495 797.043C228.495 797.043 228.036 798.837 227.983 798.845C227.933 798.854 222.523 795.648 222.523 795.648L221.287 796.836C221.287 796.836 218.873 795.996 218.806 796.024C218.74 796.055 218.267 797.227 218.267 797.227L220.83 799.249L220.259 802.389L223.46 804.258L225.753 803.771L228.332 805.313L231.069 801.102L233.926 800.474L234.748 801.955L237.95 801.361L237.561 799.916L240.724 800.408L243.058 796.476L241.447 795.205C241.447 795.205 243.589 793.643 243.641 793.636C243.692 793.628 246.504 792.936 246.504 792.936L257.029 792.546L255.883 790.05L259.772 788.956L261.346 792.005L263.272 794.269L261.371 795.209L266.452 799.279L268.589 798.373L270.481 799.277L274.661 799.698L275.592 798.717L275.576 797.035L278.092 797.062L276.892 799.38L277.027 799.656L277.63 800.893C277.63 800.893 275.921 800.563 275.869 800.57C275.818 800.578 267.515 802.832 267.515 802.832L263.423 804.79L264.421 807.258L264.119 809.076L266.646 810.735C266.646 810.735 272.323 810.35 272.377 810.341C272.426 810.333 274.368 807.507 274.368 807.507L275.194 809.807L278.564 809.379C278.564 809.379 280.393 808.434 280.688 808.154C280.984 807.878 280.867 806.816 280.792 806.348C280.719 805.881 283.241 804.81 284.125 804.544C285.011 804.283 284.825 802.77 284.825 802.77L285.242 805.165L287.383 803.751L287.852 803.442L289.596 801.288L290.352 806.058L292.549 807.202L291.536 808.797L294.898 812.077L294.992 812.167L294.422 814.988L295.983 815.377L297.89 817.86L299.883 816.728L301.92 817.326L303.103 821.198L307.443 824.289L312.413 825.734L314.285 823.824L316.536 825.898L322.935 825.911L322.925 824.603L327.915 823.705L326.47 819.646L325.605 819.695L325.585 819.591L325.317 818.215L329.084 817.246L329.526 814.979L331.371 816.177L333.093 814.916L337.712 811.539L347.568 810.438L347.648 810.346L348.867 808.956L353.047 808.454L356.623 802.634L356.517 801.96L355.698 802.194L355.479 801.191L356.279 800.125L355.205 800.394L355.367 799.277L356.094 798.499L355.791 796.768L356.486 796.476L355.524 795.841L355.274 794.014L356.851 791.893L356.274 788.254L357.47 785.796L355.584 785.57L354.348 783.687L352.795 785.056L347.466 778.724L341.626 777.854L334.279 771.736L334.265 771.634L333.518 766.411L331.358 764.331L330.984 762.947L332.282 759.375L330.175 757.839L335.038 748.195L336.623 745.982L339.558 746.51L337.179 743.945C337.179 743.945 337.452 740.487 337.515 740.441C337.58 740.397 340.707 738.163 340.707 738.163L335.379 738.274L332.951 736.521C332.951 736.521 325.585 728.813 325.567 728.767C325.558 728.715 329.909 725.419 329.909 725.419L338.02 721.512C338.02 721.512 338.794 719.654 338.789 719.618C338.784 719.585 337.59 717.907 337.59 717.907C337.59 717.907 331.101 721.484 330.9 721.598C330.963 721.472 331.507 719.755 331.517 719.754C331.511 719.712 330.041 716.36 330.041 716.36L334.755 712.079L333.801 711.298L336.133 709.156C336.133 709.156 336.96 703.506 336.995 703.501L339.872 703.139L337.859 701.912L333.302 696.924L331.62 698.148L329.582 696.603C329.582 696.603 330.304 692.756 330.277 692.675C330.253 692.596 330.206 688.256 330.206 688.256L331.924 687.239L333.231 685.142C333.231 685.142 335.572 684.783 335.618 684.764C336.334 684.378 337.048 683.989 337.761 683.598L337.534 682.536L340.015 681.267C340.015 681.267 340.064 682.24 340.07 682.276C340.075 682.31 345.892 683.859 345.892 683.859L349.232 688.059C349.232 688.059 351.915 686.261 351.951 686.255C351.984 686.25 353.483 685.576 353.483 685.576L353.02 683.179L353.732 681.992L353.733 681.991ZM255.537 648.755L253.145 650.118L253.678 652.368L256.942 654.446L257.113 658.768L256.076 659.56L258.425 661.015L259.541 660.635L261.469 663.837L264.658 665.218L267.241 663.802C267.241 663.802 268.853 661.863 268.888 661.858C268.922 661.853 271.669 659.188 271.669 659.188L273.111 657.35L274.844 656.897L275.235 655.165L278.38 654.358L282.142 649.296L280.703 648.29L276.807 647.96L274.871 649.498L272.521 649.502L272.431 646.081L270.902 644.295L268.153 644.056L269.055 639.397L265.754 639.505L261.976 637.711L259.187 639.301L253.605 640.09L252.952 641.841L254.52 641.593L252.663 645.962L255.537 648.755ZM249.726 654.238L251.258 655.701L251.264 650.598L251.89 649.547L250.677 648.599L249.624 650.457L248.678 648.05L246.833 648.254L246.457 652.025L248.277 651.66L249.726 654.238Z" fill="#21826E"/>
<path fill-rule="evenodd" clip-rule="evenodd" d="M243.994 423.274L241.714 422.118L240.634 424.128L241.064 425.713L242.534 425.216L243.994 423.274ZM240.293 429.327L241.833 428.901L242.206 426.696L239.934 427.055L240.293 429.327ZM231.078 422.638L229.786 420.515L229.893 422.514L231.078 422.638ZM232.309 411.651L231.075 409.373L229.484 408.925L228.037 410.806L228.385 412.296L230.091 415.5L231.455 415.079L232.001 421.555L233.167 422.143L234.216 421.917L234.348 424.514L235.906 426.584L237.451 427.448L237.939 425.936L236.459 425.133C236.459 425.133 237.541 419.544 237.574 419.54C237.606 419.534 236.891 416.076 236.891 416.076L235.322 416.554L234.178 414.974L234.715 413.14L232.31 411.651H232.309ZM199.376 435.803L199.124 434.679L198.203 435.749L199.376 435.803ZM199.228 425.353L198.816 427.372L198.026 428.435L198.448 430.654L197.735 432.276L197.881 433.712L200.403 431.866L200.983 429.554L199.662 428.76L201.242 425.516L199.228 425.353ZM176.211 399.9L178.124 397.269L176.242 397.567L176.211 399.9ZM178.599 395.194L181.747 390.728L181.17 388.641L176.226 393.669L174.656 395.496L174.555 396.801L175.825 397.278L178.693 397.18L178.599 395.194ZM205.352 384.954L206.47 384.989L206.114 382.74L205.165 382.515L203.733 383.926L202.097 383.885L201.882 385.441L203.716 386.236L205.352 384.954ZM203.062 378.192L201.649 378.455L200.97 379.687L202.888 379.258L203.062 378.192ZM213.857 356.99L215.477 356.688C215.503 356.685 218.229 352.304 218.229 352.304L219.782 351.358L219.426 349.998L217.929 350.518L217.644 351.696L213.476 355.96L211.982 356.383L211.627 358.716L212.351 359.265L213.857 356.989V356.99ZM189.083 419.975L191.305 416.927L190.695 415.476L192.737 411.888L194.243 411.77L193.957 410.261L195.319 410.129L196.76 403.576L197.93 403.445L197.838 402.114L198.919 399.827L200.375 399.608L202.334 395.425L201.885 393.644L203.808 393.147L204.65 391.089L206.054 389.72L205.481 387.227L203.79 387.388L203.041 388.833L201.799 388.444L200.516 390.954L194.486 394.42L193.228 396.711L191.482 396.677L190.707 398.783L188.26 401.92L191.504 403.667L193.064 402.153L194.527 402.58L194.519 403.656L192.137 404.272L191.369 404.992L190.007 404.37L185.338 406.951L183.58 409.476L183.756 411.11L183.156 412.066L183.865 413.293L183.291 415.165L183.795 416.998L185.778 418.454L188.721 418.896L189.083 419.975Z" fill="#21826E"/>
<path fill-rule="evenodd" clip-rule="evenodd" d="M185.074 426.687L185.817 425.239L183.575 420.358L182.38 414.407L183.224 413.563L181.461 408.606L182.238 406.922L178.57 406.508L171.582 415.743L171.091 410.142L167.893 411.908L164.787 412.204L162.927 417.752L163.831 418.567L163.882 419.908L162.696 420.841L161.966 423.405L160.663 426.771L160.97 428.142L162.644 428.019L166.703 425.319L168.313 422.631L168.222 420.694L170.874 417.984L173.676 420.771L170.581 423.532L169.691 425.076L172.532 425.265L172.563 430.913L171.068 431.15L171.558 432.306L169.469 435.724L169.65 436.866L170.863 436.675L172.454 437.737L174.769 436.199L175.328 433.359L177.55 432.936L177.489 434.029L181.05 432.967L183.347 431.202L183.005 429.499L184.393 430.522L186.598 428.691L186.125 427.186L185.074 426.687ZM117.484 313.761L119.06 311.293L115.273 309.455L117.484 313.761ZM116.312 308.655L120.352 309.816L124.423 301.025L118.573 305.803L116.312 308.655ZM132.895 289.781L130.013 284.459L135.144 274.089L132.61 268.455L136.476 267.842L135.59 263.885L133.953 261.242L138.866 261.628L142.5 252.527L138.063 248.497L139.637 248.001L143.339 250.128L145.118 247.816L138.894 242.87L134.086 245.076L124.528 245.414L121.568 250.111L126.912 252.987L130.814 260.154L126.98 262.664L129.019 267.543L125.185 268.937L125.997 279.247L125.015 288.868L125.819 295.128L132.149 296.31L132.895 289.781ZM117.046 257.966L117.265 255.858L114.953 255.97L117.046 257.966ZM140.208 241.498L141.208 237.849L137.001 240.711L138.645 241.438L140.208 241.498ZM149.39 223.32L148.452 222.736L144.996 224.992L148.875 226.16L149.39 223.32Z" fill="#21826E"/>
<path fill-rule="evenodd" clip-rule="evenodd" d="M157.274 234.074L158.209 232.611L162.849 232.581L160.743 225.608L165.904 227.069L163.614 219.679L163.794 216.009L166.722 224.261L175.798 222.473L182.741 214.889L181.236 208.245L176.548 209.174L170.947 208.698L173.144 207.528C173.144 207.528 179.532 206.212 179.602 206.2C179.671 206.19 182.823 204.586 182.823 204.586L181.533 198.4L184.523 199.689L186.153 198.703L190.952 200.127L194.385 193.687L189.053 197.162L185.271 197.785L184.77 195.679L187.62 192.926L190.9 185.523L191.187 179.816L193.386 177.47L192.828 174.998L189.736 170.811L189.178 173.155L179.773 178.873L174.199 183.985L165.032 187.903L161.094 190.405L165.054 197.954L163.318 198.722L158.326 191.125L160.051 197.947L156.274 199.062L155.281 197.457L156.856 195.822L150.836 194.049L148.261 202.445L145.922 204.976L149.163 211.746L154.409 210.587L155.267 211.791L146.607 215.229L147.065 218.117L152.21 221.508L158.478 223.64L158.61 225.523L152.503 226.066L146.998 231.144L144.721 229.553L143.449 229.943L149.639 240.005L157.274 234.074ZM444.975 59.4168L447.003 64.9148L449.971 61.5352L447.859 58.9596L444.975 59.4168ZM451.815 45.5319L455.915 40.2276L450.556 43.175L451.815 45.5319ZM454.436 23.5432L459.558 24.5212L460.746 19.2503L454.315 19.5315L454.436 23.5432ZM460.358 2.10237L455.616 0.704712L452.755 12.9379L455.366 14.7105L460.358 2.10237Z" fill="#21826E"/>
<path fill-rule="evenodd" clip-rule="evenodd" d="M445.918 34.8025L449.652 28.4735L447.024 20.4593L450.64 17.5703L449.983 10.1539L445.317 10.482L446.082 16.8839L441.69 21.4289L438.3 18.6503L431.798 21.7122L428.817 27.9402C428.843 27.8819 425.141 25.4928 425.141 25.4928L422.432 33.1028C422.432 33.1028 429.925 34.5901 429.977 34.5817C430.029 34.5734 433.066 40.5442 433.066 40.5442L429.224 41.669L431.923 43.5936L437.341 43.6103L434.334 46.8482L429.256 47.0638L426.979 49.7237L426.989 46.4066L423.318 49.5186L418.82 48.7687L420.14 54.049L428.892 56.4964L426.318 59.6479L428.931 63.2796L432.495 57.012L435.158 60.5113L437.377 57.2557L438.316 66.6769L433.745 86.2201L435.129 86.3753L438.815 91.816L439.722 82.9926L438.392 78.3206L442.454 77.6769L441.221 71.4749L443.833 64.2711L441.416 56.9182L440.023 53.8782L440.633 50.9662L442.934 55.4487L446.528 52.6347L448.153 38.53L440.111 39.8922L445.918 34.8025ZM365.99 121.245L368.352 119.945L363.728 116.503L360.755 123.473L364.852 124.472L365.99 121.245ZM368.756 107.967L371.601 103.689L366.764 104.911L364.919 104.676L362.451 108.719L361.483 113.367L366.659 108.393L368.756 107.967ZM349.259 108.319L351.311 107.994L349.649 99.3219L348.446 97.9732L343.735 101.052L343.85 105.015L348.608 104.056L349.259 108.319ZM347.851 115.561L341.76 111.834L340.912 115.89L345.972 118.15L347.851 115.561ZM352.483 129.657L353.545 129.754L355.285 125.709L354.774 123.74L349.77 127.673L352.483 129.657ZM349.301 142.063L347.691 143.96L350.25 145.405L349.301 142.063ZM341.12 148.014L342.114 145.529L339.957 146.619L341.12 148.014ZM348.072 155.061L349.579 152.401L349.114 145.584L345.137 146.372L347.219 150.511L345.785 153.992L348.072 155.061ZM333.722 151.181L335.185 149.069L335.505 151.23L337.997 148.955L336.923 147.894L335.337 142.657L331.177 139.755L328.919 137.143L327.203 137.947L325.225 141.88L330.807 148.91L333.722 151.181Z" fill="#21826E"/>
<path fill-rule="evenodd" clip-rule="evenodd" d="M332.391 135.452L333.865 133.403L336.225 138.159L338.393 137.957L346.094 135.238L349.26 140.306L353.716 142.527L354.495 139.619L358.948 138.738L358.874 133.64L356.449 136.631L355.028 136.591L354.909 131.217L350.745 134.908L349.172 133.571L348.957 130.786L346.996 133.07L346.451 130.953L341.315 131.273L342.37 127.898L346.245 125.576L343.553 121.262L336.364 120.743L335.687 117.572L330.285 118.304L329.173 130.023L330.631 135.36L332.391 135.452ZM236.948 195.026L235.044 193.898L234.599 194.905L236.491 195.998L236.948 195.026ZM231.274 220.164L229.32 220.409L229.994 221.466L231.756 221.074L231.274 220.164ZM227.66 217.288L225.371 217.542L226.136 219.44L228.004 219.453L227.66 217.288ZM170.087 302.449L168.488 301.032L164.375 303.16L168.758 303.316L170.087 302.449ZM177.891 303.035L175.656 304.109L174.93 305.679L172.101 307.806L172.872 310.195L174.401 310.6L175.184 313.348L176.799 314.784L178.621 314.558L181.263 312.175L181.687 309.483L180.199 307.643L181.3 307.033L177.891 303.035ZM183.391 294.018L182.003 295.805L182.151 297.704L183.018 296.79L184.227 296.098L183.391 294.018ZM180.136 324.792L181.297 324.429L181.563 323.402L179.302 323.832L180.136 324.792ZM183.039 318.009L186.074 321.524L186.827 319.854L185.048 315.868L183.039 318.009ZM197.576 259.113L199.091 257.977L198.946 256.64L196.849 258.089L195.926 259.639L196.514 261.449L197.807 261.476L197.576 259.113ZM194.231 279.499L194.908 269.196L196.144 268.35L196.795 265.127L195.416 265.624L194.828 267.84L193.599 267.559L192.515 269.912L191.507 270.651L192.245 274.292L191.53 276.018C191.53 276.018 192.596 279.155 192.56 279.161C192.523 279.166 194.231 279.499 194.231 279.499Z" fill="#21826E"/>
<path fill-rule="evenodd" clip-rule="evenodd" d="M211.846 286.589L208.704 285.227L200.437 287.487L195.63 284.706L197.117 284.161L198.744 282.942L197.199 280.268L195.526 279.865L194.365 280.796L195.232 282.473L194.879 283.704L193.224 282.739L191.622 283.509L191.749 281.406L187.969 280.029L189.979 279.158L188.87 276.905L189.316 274.147L186.943 271.328L185.926 271.489L186.414 269.997L187.801 270.16L188.44 263.313L190.045 259.224L189.282 254.237L184.158 245.606L181.665 243.598L180.495 244.024L179.206 243.472L179.487 245.634L176.744 247.297L176.222 251.25L177.391 251.652L176.383 254.437L178.063 254.162L176.556 256.198L177.129 258.091L178.304 259.258L178.129 260.665L179.644 261.903L179.959 263.73L179.112 264.355L176.406 259.995L175.111 262.14L174.531 260.042L173.562 261.673L172.499 261.6L172.264 259.796L170.052 258.883L169.652 255.965L166.757 251.974L165.647 251.5L164.682 253.61L165.216 255.243L163.703 256.515L164.031 257.637L166.505 257.86L167.032 260.127L166.082 261.042L165.247 264.476L166.619 266.447L163.81 266.118L163.456 264.438L161.027 260.152L159.645 265.656L158.267 264.602L157.814 266.818L156.448 267.844L156.791 269.293L158.787 270.508L158.92 272.463L166.038 277.164L167.459 276.877L167.571 274.403L166.99 271.851L168.821 271.252L169.413 273.587L171.3 271.722L172.232 272.25L172.295 274.154L171.154 274.646L172.599 275.788L174.6 275.471L175.329 276.895L178.247 278.417L177.525 279.769L174.078 277.092L171.452 280.489L172.285 284.069L174.071 285.308L174.209 286.897L175.988 286.463L175.219 288.588L176.454 290.803L178.501 290.115L177.743 293.857L181.59 292.981L183.852 291.751L185.376 292.39L186.419 290.498L187.595 290.945L188.051 292.82L188.979 293.876L187.997 296.212L188.792 297.269L190.43 296.733L192.712 289.992L194.262 290.129L194.785 293.651L197.918 293.171L198.147 294.845L196.317 295.339L196.462 296.535L194.663 296.731L193.614 297.858L193.981 299.446L192.777 300.055L193.502 301.675L191.954 302.668L192.274 306.08L196.153 305.964L197.569 303.853L201.32 301.532L201.145 299.424L202.786 299.076L204.871 294.831L203.8 293.149L207.927 293.083L211.846 286.589ZM157.762 344.183L155.295 345.119L154.94 346.548L156.306 347.185L158.883 345.66L160.706 346.138L166.206 343.234L168.419 336.038L166.586 336.248L161.74 340.483L159.829 340.67L159.553 342.949L157.762 344.183ZM151.968 351.102L154.022 351.751L154.37 350.304L145.882 350L141.781 350.858L141.35 351.413L141.456 357.037L143.809 356.664L143.789 358.431L145.598 358.192L146.099 354.862L150.236 353.581L151.968 351.102ZM169.259 370.74L168.248 369.736L166.956 370.912L169.259 370.74ZM180.199 356.211L180.5 357.322L183.305 356.45L178.471 354.152L176.143 355.366L177.722 355.596L178.315 356.875L180.199 356.211Z" fill="#21826E"/>
<path fill-rule="evenodd" clip-rule="evenodd" d="M185.162 340.291L180.988 340.951L180.445 342.388L180.787 344.917L179.101 345.337L177.86 343.478L176.88 344.537L174.838 343.956L175.124 346.201L176.339 346.349L176.446 347.389L174.174 349.44L174.176 351.424L179.733 351.096L180.782 352.774L182.55 352.87L182.769 355.428L186.517 356.446L187.548 354.98L190.31 355L190.356 356.778L187.979 357.777L179.251 365.828L182.479 366.95L185.85 365.065L187.685 365.139L189.485 363.669L190.066 365.115L188.248 367.294L185.249 367.839L184.607 369.092L180.774 369.322L176.99 368.847L177.631 370.759L174.926 369.766L174.526 367.98L171.584 368.041L171.165 369.634L171.499 371.777L170.14 372.126L169.688 373.438L171.771 373.859L172.757 373.151L173.636 373.793L173.063 374.782L176.425 375.425L177.682 372.665L178.347 373.617L179.314 372.571L181.79 374.034L182.851 372.764L185.567 371.687L185.717 373.367L187.306 373.221L190.168 370.853L192.484 371.086L195.482 367.288L195.591 371.297L197.121 371.879L204.194 367.917L202.944 366.659L201.361 366.85L201.887 364.712L203.006 364.546L202.656 362.194L204.081 363.436L203.949 365.407L206.691 364.867L206.42 363.301L207.57 362.52L206.249 359.054L192.635 353.012L191.364 347.869L189.077 344.426L187.874 344.652L187.082 343.415L188.144 342.519L185.162 340.291ZM219.747 446.709L220.849 446.878L221.36 448.607L223.364 452.163L227.257 453.501L233.421 452.254L233.038 449.835L234.091 447.515L233.171 444.584L234.307 443.01L233.234 440.845L230.629 440.389L230.331 431.495L227.122 429.181L226.965 428.191L223.688 427.299L222.573 428.771L219.188 430.76L219.225 432.258L217.932 434.562L218.564 439.24L220.2 441.279L219.588 443.295L219.747 446.709Z" fill="#21826E"/>
<path fill-rule="evenodd" clip-rule="evenodd" d="M400.831 259.775L392.126 249.445L386.218 248.536L384.361 251.187L380.695 251.645L377.948 250.253L376.043 251.707L366.214 252.357L364.751 250.868L360.377 250.212L358.844 251.449L357.846 250.542L354.074 249.632L352.109 250.599L350.163 248.548L347.636 248.877L346.417 251.412L343.822 250.988L342.402 252.686L338.222 251.912L326.79 246.943L321.186 249.073L318.999 249.206L314.172 255.577L311.723 253.796L309.846 252.43L305.838 255.777L295.396 258.495L293.966 257.443L291.219 259.085L291.614 261.702L285.458 267.999L281.118 268.009L274.621 266.537L279.534 265.777L281.535 266.491L282.916 264.765L281.965 262.465C281.965 262.465 285.39 262.296 285.398 262.349C285.425 262.343 286.063 260.469 286.063 260.469L288.962 259.902L288.539 257.681L291.848 254.194L293.541 251.513L290.842 250.754L283.311 251.876L273.963 260.38L275.17 255.735L284.378 248.601L286.542 249.678L289.427 247.11L294.03 244.945L292.901 248.033L293.995 249.332L296.307 248.967L300.879 242.671L303.89 235.615L302.04 235.178L298.737 238.485L297.385 235.793L292.529 238.174L285.918 234.963L279.455 234.265L274.952 228.308L275.872 227.506L280.951 233.052L285.709 233.08L289.918 234.934L294.951 229.755L291.346 225.429L300.198 222.433L311.031 213.3L312.857 209.89L315.827 209.42L321.034 204.337L326.385 196.432L329.688 196.723L329.459 194.718L332.256 194.614L335.838 192.059L337.504 189.225L339.786 188.011L339.983 184.203L342.189 182.168L341.885 178.897L340.284 178.015L338.613 173.525L341.312 171.128L342.442 167.722L342.983 164.051L335.913 162.226L335.395 160.64L325.01 161.361L326.554 164.151L328.197 164.743L327.2 167.881L319.061 166.277L319.566 164.848L316.478 164.911L307.895 170.494L297.626 168.818L296.772 166.79L295.119 167.583L295.261 169.493L293.436 170.441L292.842 169.167L289.721 168.775L289.21 171.285L286.575 171.385L285.549 174.473L283.5 171.534L279.196 172.32L277.404 176.527L273.369 180.589L273.124 179.278L275.481 176.635L276.084 171.004L273.407 168.485L269.608 168.376L265.121 175.887L261.419 179.091L260.769 177.624L265.258 172.105L264.656 169.524L262.255 168.697L261.334 165.021L259.727 166.001L259.517 172.812L257.852 172.985L257.368 170.303L258.192 167.546L255.423 164.269L252.568 164.721L250.76 163.533L249.326 163.707L248.12 167.599L244.442 172.528L243.278 175.959L248.688 179.048L248.361 180.794L246.661 179.682L244.844 180.162L245.456 182.567L244.758 183.903C244.758 183.903 242.883 182.4 242.862 182.375C242.823 182.381 240.532 186.088 240.532 186.088L239.763 189.482L242.107 194.018L244.371 195.096L249.451 198.132L247.437 198.77L242.834 196.174L241.082 197.587L238.152 197.278L233.084 198.674L232.457 197.174L230.137 195.618L229.315 198.516L230.551 199.626L232.32 204.738L235.1 206.222L233.02 207.863L233.573 210.456L232.858 213.628L229.724 212.831L226.433 210.104L225.289 211.705L226.362 215.996L228.628 216.243L231.388 218.624L231.712 221.857L233.721 222.328L237.346 224.718L235.664 226.179L237.604 227.595L239.786 229.997L238.258 230.239L234.67 227.651L232.837 227.478L229.052 225.655L227.187 225.747L227.217 227.499L230.792 228.503L231.002 229.95L233.887 232.146L234.469 233.731L232.32 233.379L230.269 230.822L225.505 229.164L223.331 232.018L220.577 231.655L220.045 228.404L218.274 226.377C218.274 226.377 216.272 226.552 216.246 226.548C216.214 226.552 215.679 228.306 215.679 228.306L214.296 229.464L215.749 232.899L218.026 233.628L217.987 237.768L215.785 239.543L213.417 236.159L212.198 231.056L206.696 231.715L206.185 234.271C206.185 234.271 207.55 238.347 207.556 238.375C207.56 238.399 206.035 240.335 206.035 240.335L208.402 243.321L211.397 242.847L212.463 245.534L211.483 247.045L209.874 246.035L205.555 250.851L205.721 252.164L207.546 251.663L209.554 254.689L209.035 255.747L211.23 258.238L213.76 259.557C213.76 259.557 215.749 259.348 215.774 259.344C215.802 259.34 218.977 259.955 218.977 259.955L217.098 261.701L214.212 261.456L212.239 263.756L210.801 259.965L208.224 260.433L207.132 258.158L203.824 257.557L201.794 266.417L203.843 269.604L203.517 274.894C203.517 274.894 205.153 278.03 205.158 278.063C205.163 278.1 208.082 277.862 208.082 277.862L210.594 276.437L214.106 271.93L214.559 275.608L215.979 278.069L211.723 278.988L207.645 282.981L207.987 284.76L212.14 284.08L214.671 285.23L218.198 284.575L221.136 287.09L223.077 289.976L221.009 290.187L217.512 286.304L211.945 288.91L212.197 291.866L209.371 293.706L209.784 296.398L212.251 296.611L215.427 297.94L216.94 301.557L214.915 301.83L207.185 299.908L204.079 304.952L206.257 306.856L208.826 307.123L209.97 310.064L211.874 310.849L215.694 310.412L215.792 311.625L210.495 312.856L206.372 308.635L200.982 309.429L200.615 313.33L199.076 316.341L199.463 317.972L196.627 318.562L195.543 319.952L198.015 320.804L205.876 319.123L206.439 320.426L203.481 322.209L205.779 323.974L200.419 325.637L198.189 327.222L197.899 330.022L199.572 331.97L198.676 332.987L193.281 329.489L193.511 331.014L183.236 331.09L180.582 333.875L181.819 337.713L184.824 338.492L188.122 336.763L189.225 338.409L193.31 338.354L194.645 339.372L198.285 338.714L199.277 339.545L200.358 338.386L201.226 338.297L201.52 337.22L202.514 337.168L202.345 336.227C202.345 336.227 204.269 335.97 204.288 335.984C204.307 335.998 205.16 336.763 205.16 336.763L206.228 336.617L208.139 338.797L212.2 338.225L213.852 338.91L209.725 339.824L206.77 339.44L203.519 338.087L202.654 338.011L202.167 338.986L199.751 340.219L190.859 341.604L190.841 343.43C190.841 343.43 191.897 344.562 191.908 344.631C191.919 344.7 193.663 348.966 193.663 348.966L197.866 351.99L199.869 351.886L204.658 353.66L205.875 355.951L207.647 355.906L208.722 354.153L212.241 352.696L214.675 349.188L215.6 346.038L217.727 345.534L219.512 342.581L220.973 343.414L229.28 334.742L229.996 332.216L232.189 330.782L234.561 327.187L235.836 327.743L233.578 331.909L229.74 336.891L230.004 338.269L231.934 337.421L233.067 339.629L226.78 341.121L225.297 341.949L226.368 343.457L224.73 345.399L221.214 349.572L220.431 352.049L222.141 353.553L216.915 356.959L216.921 358.128L218.903 357.755L220.666 360.646L218.158 360.995L215.468 363.408L214.333 363.057L212.044 365.286C212.044 365.286 213.067 367.538 213.076 367.59C213.084 367.643 213.373 370.022 213.373 370.022L211.253 370.913L210.242 373.962L209.093 371.874L207.326 373.751L207.71 376.405L205.535 379.303L206.325 382.704L207.432 383.508L208.191 378.758L210.887 377.358L212.202 378.018L214.385 376.75L215.051 378.027L212.412 380.023L213 381.936L208.623 386.106L207.529 389.631L208.827 389.852L209.436 388.408L212.107 385.626L212.988 386.355L211.327 389.562L211.492 391.948L209.778 393.054L204.286 400.489L201.809 404.623C201.809 404.623 202.608 406.201 202.599 406.253C202.658 406.244 204.633 404.37 204.633 404.37L207.217 399.119L209.325 398.041L209.436 399.637L207.606 401.116L206.741 404.428L203.35 408.849L203.357 410.692L205.408 410.158L206.921 407.239L208.213 408.099L204.42 414.818L203.618 418.405L206.252 419.655L205.568 421.503L206.996 422.981L211.001 419.737L214.403 415.384L215.159 416.436C215.159 416.436 212.764 421.32 212.714 421.329C212.661 421.337 208.121 424.255 208.121 424.255L202.886 429.963L202.858 435.966L199.626 441.052L200.146 453.21L197.607 453.703L194.634 456.053L194.378 463.084L199.13 465.224L205.399 464.107L208.835 458.968L206.718 453.909L210.866 446.742L211.545 442.038L213.327 441.263L213.152 438.698L216.636 426.101L218.249 424.038L221.344 423.565L222.052 419.637L217.124 412.453L214.983 400.842L216.626 400.434L218.559 401.741L221.14 399.504L226.64 390.618L228.98 389.447L229.725 387.626L236.795 379.695L237.539 380.908L242.145 378.296L241.909 379.844L237.37 383.648L234.311 388.285C234.311 388.285 230.657 389.802 230.568 389.816C230.482 389.83 225.164 396.704 225.164 396.704L221.368 402.839L221.058 407.626L222.709 415.225L224.437 416.475L226.984 416.836L226.499 411.182L227.416 409.884L227.203 406.086L228.289 405.86L229.241 407.926L231.285 409.272L233.293 411.614L234.222 410.953L232.846 405.652L234.258 405.234L236.379 411.535L235.618 414.155L239.677 414.827L241.143 410.158L243.106 406.709L242.356 404.911L243.994 403.995L243.896 400.017L244.582 397.267L245.86 398.591L245.579 401.88C245.579 401.88 247.153 404.168 247.178 404.218C247.203 404.268 250.513 402.91 250.513 402.91L247.864 400.348L247.275 396.292L248.442 396.017L249.918 400.625L253.055 402.562L254.432 405.749L263.484 409.072L266.166 409.036L269.086 413.251L269.234 413.464L268.176 413.421L265.415 411.036L262.922 410.578L254.377 409.003L248.092 405.936L245.371 411.354L243.347 412.063L243.772 413.895L245.481 421.251L244.962 425.611L242.747 430.395L246.463 435.98L249.236 436.305L254.582 441.846L253.19 443.945L254.149 444.611L256.267 450.787L248.86 457.157L244.921 467.802L243.504 473.454L238.908 477.253L232.163 490.152L233.552 493.772L234.434 496.073L234.203 500.563L232.779 501.691L231.583 498.511L230.919 492.655L228.712 492.525L225.657 494.358L224.615 501.388L228.264 508.458L232.809 513.094L235.664 518.765L235.095 521.461L237.961 526.525L240.256 526.179C240.309 526.171 238.538 517.368 238.538 517.368L238.134 509.643L244.82 505.8L247.222 510.174L262.947 523.155L265.941 524.191L268.183 522.38L267.506 517.557L269.392 512.839C269.392 512.839 268.434 512.068 268.425 512.018C268.417 511.966 264.261 505.507 264.261 505.507L270.38 507.736L276.897 512.468L277.859 514.374L281.291 515.834L284.115 515.104L289.018 516.402L293.14 513.55L294.203 512.176L296.585 511.374L296.756 505.138L299.295 508.267L304.136 505.23L309.148 505.558L309.342 497.06L323.553 497.825L336.624 496.488L337.38 490.187L344.485 488.179L347.58 485.03L356.351 478.282L363.114 467.72L365.476 465.892L367.587 462.808L374.809 461.665L374.273 458.966L383.197 452.268L374.418 437.299L377.253 435.999L380.021 436.608L381.432 433.171L388.206 425.04L390.114 421.474L389.848 419.671L388.532 418.78L387.993 416.053L385.671 414.317L385.037 412.238L381.582 410.636L376.921 411.657L375.535 409.643L373.922 409.498L373.891 409.494L367.316 404.399L357.304 398.157L350.498 398.438L341.761 408.444L337.419 409.131L334.121 407.062L332.652 405.432L328.45 406.097L322.635 404.551L319.345 405.248L318.784 405.024L314.77 403.437L306.243 402.976L302.417 397.248L302.769 397.187L304.548 396.877L304.637 396.918L318.032 402.796L321.181 402.902L321.72 401.13L325.43 400.736L327.51 398.244L329.249 399.459L332.591 398.308L332.874 394.59L335.073 391.955L337.207 391.616L339.176 388.538L342.814 385.211L347.209 387.462L352.539 386.618L355.92 384.593L358.482 383.921L361.402 380.213L360.5 377.322L357.634 374.85L354.768 374.077L350.748 364.424L345.11 363.33C345.11 363.33 344.411 364.737 344.358 364.746C342.79 365.192 341.224 365.64 339.659 366.091L335.448 368.373L331.28 371.851L327.995 372.805L327.776 372.868L327.739 370.941L334.766 364.862L338.708 362.339L341.789 362.623L343.456 362.777L345.626 360.856L347.617 361.851L351.99 360.023L354.658 361.589L363.791 353.296L364.268 352.153L367.379 348.755L367.009 343.826L369.874 342.15L370.957 335.952L371.069 335.306L378.985 328.234L381.58 323.603L383.893 311.35L386.336 308.799L388.556 303.334L388.602 303.224L388.739 293.765L392.218 287.308L395.039 282.072L395.505 279.512L397.373 278.276L401.171 274.056L402.528 270.827L401.957 268.913L403.335 267.169L400.831 259.775Z" fill="#21826E"/>
<path fill-rule="evenodd" clip-rule="evenodd" d="M156.513 521.555L158.082 516.766L158.23 513.673L158.348 513.779L159.861 515.135L161.558 518.466L165.32 516.402L169.332 516.259C169.332 516.259 166.277 524.838 166.234 524.845C166.251 524.842 167.671 528.332 167.671 528.332L165.962 530.43L163.463 533.502L163.147 534.216L162.922 534.726L161.793 537.282L160.027 535.791L156.831 534.559L154.099 535.85L150.723 534.572L150.668 534.551L151.008 530.316L151.387 529.832L155.53 524.563L156.416 521.846L156.513 521.555ZM206.715 530.149L206.16 526.53L206.835 525.77L204.92 523.392L204.834 523.387L201.255 523.087L199.208 523.444L195.376 521.943L190.345 524.601L189.737 525.691L189.716 525.672L188.575 524.72L186.589 524.149L187.2 521.5L189.174 521.243L191.682 518.84L194.408 517.507L197.896 515.498L198.74 513.665L198.695 513.428L197.392 506.499L194.04 506.145L192.583 504.656L192.6 503.412L191.251 502.277L185.503 493.72L185.277 486.715L181.331 484.702L181.11 483.758L182.516 479.121L177.533 470.8L172.732 472.695C172.732 472.695 171.469 471.74 171.461 471.685C171.453 471.638 165.615 469.105 165.615 469.105H158.091L156.698 470.584L153.557 471.631L152.727 471.908L148.1 472.64L147.293 473.81L141.171 474.626L140.305 474.741L134.782 474.748L131.476 481.386L129.77 483.786L124.733 484.527L119.16 484.542L119.046 483.824L119.149 483.788L119.19 483.773L118.9 482.898L118.608 482.023L115.59 483.119L114.816 482.334L112.736 483.489L109.886 487.233L109.819 492.398L107.115 492.666L106.954 498.087L107.096 498.987L106.248 501.838L105.203 502.003L104.743 503.223L101.517 506.17L99.4626 509.138L98.6331 509.303L93.9155 510.243C93.8322 510.257 93.7988 510.262 88.7332 511.823L86.4197 509.32L81.3573 512.357L81.0029 517.174L82.291 517.889L84.7201 520.732L86.4989 520.204L91.6396 521.006L91.8188 522.358L87.0794 523.975L84.4408 527.848L75.8956 526.421L73.7354 529.713L70.1152 532.222L69.6743 533.041L65.5664 532.472L65.9093 534.631L68.9897 539.216L71.8471 544.587L75.0151 547.41L76.5761 550.433L79.6784 550.987L80.1349 551.292L80.4048 558.797L85.313 560.687L90.0462 561.941L92.7942 563.195L93.0766 564.755L98.1089 567.741L100.652 568.65L103.646 566.977L105.54 568.476L107.532 569.037L108.964 570.116L110.249 569.043L110.331 569.468L113.824 566.364L114.943 561.696L117.581 560.404C117.867 560.369 118.607 560.289 119.27 560.224L120.254 560.124L119.274 554.477L117.421 552.514L118.292 549.889L120.16 550.373L124.495 544.968L126.589 542.838C128.396 543.861 129.263 544.349 129.73 544.572C129.949 544.77 130.942 545.766 131.896 546.734L132.013 548.832L133.128 549.44L134.153 550.904L132.978 554.343L133.314 556.938L135.375 557.552L136.066 561.192L141.122 566.422L142.243 564.399L143.014 563.916L144.516 565.591L145.095 567.882L143.092 572.582L143.792 575.698L145.37 579.859L148.15 578.206L148.606 577.358L153.099 577.643L153.393 577.192C153.792 576.578 154.095 576.111 154.326 575.751C154.921 576.255 155.772 576.984 156.556 577.66L157.106 578.135L159.513 576.399L160.439 573.561L162.245 575.804L164.504 572.664L165.888 573.721L168.669 573.282L177.659 580.062L178.873 577.904L181.03 577.671L184.011 574.571L186.314 567.084L186.382 566.86L185.892 564.1L187.785 561.634L189.355 558.231L189.237 561.067L197.543 563.442L199.328 560.643L204.208 555.898L205.348 555.718L203.564 550.824L202.597 548.956L198.034 550.545L197.025 549.785L199.555 546.743L200.598 542.942L198.95 541.607L198.834 540.967L198.594 539.696L199.709 536.77L197.687 535.423L197.168 532.58L197.494 531.855L198.666 531.314L204.042 535.303L206.053 542.84L205.389 544.703L204.491 544.948L205.927 552.098L206.701 553.733L209.46 547.922L208.935 543.947L209.886 538.885L206.714 530.149H206.715Z" fill="#2BAB90"/>
<ellipse cx="559.5" cy="726.025" rx="27.5" ry="3" fill="black" fill-opacity="0.3"/>
<path fill-rule="evenodd" clip-rule="evenodd" d="M520 672.529C520 650.837 537.642 633.252 559.405 633.252C581.168 633.252 598.81 650.837 598.81 672.529C598.81 682.005 595.441 690.703 589.833 697.488C589.74 697.677 589.619 697.855 589.469 698.016L565.822 723.399C562.358 727.118 556.453 727.118 552.988 723.399L529.342 698.016C529.191 697.855 529.07 697.677 528.978 697.488C523.37 690.703 520 682.005 520 672.529Z" fill="white"/>
<path fill-rule="evenodd" clip-rule="evenodd" d="M550.234 648.964V689.553C550.234 689.925 550.536 690.227 550.909 690.227V690.227C557.12 690.227 562.155 685.192 562.155 678.982V673.546L560.321 668.22L556.194 664.87L554.704 663.424L557.685 659.086L556.882 653.092L552.068 648.964H550.234Z" fill="#59CBE8"/>
<path fill-rule="evenodd" clip-rule="evenodd" d="M541.981 656.758C541.981 652 545.625 648.047 550.234 648.047C554.844 648.047 558.487 652 558.487 656.758C558.487 659.354 557.402 661.711 555.667 663.316C558.753 664.704 561.033 667.293 562.101 670.509C562.136 670.606 562.155 670.71 562.155 670.819C562.155 671.326 561.744 671.736 561.238 671.736C560.799 671.736 560.432 671.428 560.342 671.016C559.312 667.934 556.995 665.599 553.866 664.585C552.774 665.15 551.543 665.469 550.234 665.469C548.925 665.469 547.693 665.15 546.601 664.584C542.328 665.963 539.23 669.997 539.23 674.76V690.227C539.23 690.734 538.82 691.144 538.313 691.144C537.807 691.144 537.396 690.734 537.396 690.227V674.76C537.396 669.655 540.436 665.262 544.799 663.314C543.065 661.709 541.981 659.353 541.981 656.758ZM550.234 649.88C546.741 649.88 543.815 652.906 543.815 656.758C543.815 660.609 546.741 663.635 550.234 663.635C553.728 663.635 556.653 660.609 556.653 656.758C556.653 652.906 553.728 649.88 550.234 649.88Z" fill="#222222"/>
<path d="M549.317 675.556C549.317 674.543 550.138 673.722 551.151 673.722H578.66C579.673 673.722 580.494 674.543 580.494 675.556V688.394C580.494 689.406 579.673 690.227 578.66 690.227H551.151C550.138 690.227 549.317 689.406 549.317 688.394V675.556Z" fill="white"/>
<path fill-rule="evenodd" clip-rule="evenodd" d="M548.4 675.556C548.4 674.037 549.632 672.805 551.151 672.805H578.66C580.18 672.805 581.411 674.037 581.411 675.556V688.394C581.411 689.913 580.18 691.144 578.66 691.144H551.151C549.632 691.144 548.4 689.913 548.4 688.394V675.556ZM551.151 674.639C550.645 674.639 550.234 675.049 550.234 675.556V688.394C550.234 688.9 550.645 689.31 551.151 689.31H578.66C579.167 689.31 579.577 688.9 579.577 688.394V675.556C579.577 675.049 579.167 674.639 578.66 674.639H551.151Z" fill="#222222"/>
<path fill-rule="evenodd" clip-rule="evenodd" d="M553.902 681.975C553.902 681.468 554.313 681.058 554.819 681.058H556.653C557.159 681.058 557.57 681.468 557.57 681.975C557.57 682.481 557.159 682.892 556.653 682.892H554.819C554.313 682.892 553.902 682.481 553.902 681.975Z" fill="#222222"/>
<path fill-rule="evenodd" clip-rule="evenodd" d="M572.241 681.975C572.241 681.468 572.652 681.058 573.158 681.058H574.992C575.499 681.058 575.909 681.468 575.909 681.975C575.909 682.481 575.499 682.892 574.992 682.892H573.158C572.652 682.892 572.241 682.481 572.241 681.975Z" fill="#222222"/>
<path d="M567.657 681.975C567.657 683.494 566.425 684.726 564.906 684.726C563.386 684.726 562.155 683.494 562.155 681.975C562.155 680.455 563.386 679.224 564.906 679.224C566.425 679.224 567.657 680.455 567.657 681.975Z" fill="#59CBE8"/>
<path fill-rule="evenodd" clip-rule="evenodd" d="M563.989 679.224C563.989 678.717 564.399 678.307 564.906 678.307C566.931 678.307 568.574 679.949 568.574 681.975C568.574 684 566.931 685.643 564.906 685.643C564.399 685.643 563.989 685.232 563.989 684.726C563.989 684.219 564.399 683.809 564.906 683.809C565.919 683.809 566.74 682.988 566.74 681.975C566.74 680.962 565.919 680.141 564.906 680.141C564.399 680.141 563.989 679.73 563.989 679.224Z" fill="#222222"/>
<rect x="574" y="633.195" width="95" height="34" rx="17" fill="#2397D4"/>
<path d="M586.874 657.195V654.516H588.318V651.134H586.874V649.728H588.394C588.09 649.272 587.786 648.588 587.786 647.676C587.786 645.491 589.686 643.553 592.175 643.553C594.55 643.553 596.488 645.434 596.583 647.79H593.695C593.695 646.878 593.03 646.232 592.175 646.232C591.32 646.232 590.674 646.84 590.674 647.942C590.674 648.911 591.32 649.728 592.422 649.728H593.695V651.134H591.206V654.516H596.583V657.195H586.874ZM597.279 657.195L603.245 649.956C603.929 649.12 604.366 648.683 604.366 647.885C604.366 646.973 603.739 646.232 602.77 646.232C601.801 646.232 601.193 646.992 601.193 647.904V648.17H598.305V647.904C598.305 645.472 600.338 643.553 602.77 643.553C605.202 643.553 607.254 645.472 607.254 647.904C607.254 648.968 606.855 649.918 606.228 650.678L603.131 654.516H607.235V657.195H597.279ZM614.139 657.347C611.137 657.347 609.009 655.105 609.009 650.45C609.009 645.795 611.137 643.553 614.139 643.553C617.122 643.553 619.25 645.795 619.25 650.45C619.25 655.105 617.122 657.347 614.139 657.347ZM614.139 654.516C615.355 654.516 616.362 653.623 616.362 650.45C616.362 647.277 615.355 646.384 614.139 646.384C612.923 646.384 611.897 647.277 611.897 650.45C611.897 653.623 612.923 654.516 614.139 654.516ZM621.605 660.121L622.441 657.195H621.168V653.889H624.474V657.195L623.258 660.121H621.605ZM630.119 657.347C628.409 657.347 626.908 656.625 625.996 655.447L628.029 653.566C628.447 654.193 629.036 654.668 629.929 654.668C631.183 654.668 631.981 653.889 631.981 652.635C631.981 651.381 631.183 650.602 629.929 650.602H628.561L630.556 646.384H626.623V643.705H634.774L632.532 648.455C634.147 649.31 634.888 650.868 634.888 652.635C634.888 655.485 632.969 657.347 630.119 657.347ZM636.563 657.195L641.465 646.384H636.449V643.705H645.797L639.679 657.195H636.563ZM648.215 657.195L650.742 652.54C648.348 652.426 646.372 650.602 646.372 648.056C646.372 645.51 648.405 643.553 651.103 643.553C653.801 643.553 655.834 645.51 655.834 648.056C655.834 649.044 655.416 649.88 654.979 650.678L651.426 657.195H648.215ZM651.103 649.88C652.262 649.88 652.946 649.025 652.946 648.056C652.946 647.087 652.262 646.232 651.103 646.232C649.944 646.232 649.26 647.087 649.26 648.056C649.26 649.025 649.944 649.88 651.103 649.88Z" fill="white"/>
<ellipse cx="163.5" cy="546.855" rx="27.5" ry="3" fill="black" fill-opacity="0.3"/>
<path fill-rule="evenodd" clip-rule="evenodd" d="M124 493.359C124 471.667 141.642 454.082 163.405 454.082C185.168 454.082 202.81 471.667 202.81 493.359C202.81 502.835 199.441 511.533 193.833 518.318C193.74 518.507 193.619 518.685 193.469 518.846L169.822 544.229C166.358 547.948 160.453 547.948 156.988 544.229L133.342 518.846C133.191 518.685 133.07 518.507 132.978 518.318C127.37 511.533 124 502.835 124 493.359Z" fill="white"/>
<path fill-rule="evenodd" clip-rule="evenodd" d="M154.234 469.793L154.234 510.383C154.234 510.755 154.536 511.057 154.909 511.057V511.057C161.12 511.057 166.155 506.022 166.155 499.811V494.375L164.321 489.05L160.194 485.699L158.704 484.253L161.684 479.915L160.882 473.922L156.068 469.793H154.234Z" fill="#59CBE8"/>
<path fill-rule="evenodd" clip-rule="evenodd" d="M145.981 477.588C145.981 472.83 149.625 468.876 154.234 468.876C158.843 468.876 162.487 472.83 162.487 477.588C162.487 480.184 161.402 482.541 159.667 484.146C162.753 485.534 165.033 488.123 166.101 491.339C166.136 491.436 166.155 491.54 166.155 491.649C166.155 492.156 165.744 492.566 165.238 492.566C164.799 492.566 164.432 492.258 164.342 491.846C163.311 488.764 160.995 486.429 157.866 485.415C156.774 485.98 155.543 486.299 154.234 486.299C152.925 486.299 151.693 485.98 150.601 485.414C146.327 486.793 143.23 490.826 143.23 495.59V511.057C143.23 511.564 142.82 511.974 142.313 511.974C141.807 511.974 141.396 511.564 141.396 511.057V495.59C141.396 490.485 144.436 486.092 148.798 484.144C147.065 482.539 145.981 480.183 145.981 477.588ZM154.234 470.71C150.741 470.71 147.815 473.736 147.815 477.588C147.815 481.439 150.741 484.465 154.234 484.465C157.727 484.465 160.653 481.439 160.653 477.588C160.653 473.736 157.727 470.71 154.234 470.71Z" fill="#222222"/>
<path d="M153.317 496.386C153.317 495.373 154.138 494.552 155.151 494.552H182.66C183.673 494.552 184.494 495.373 184.494 496.386V509.223C184.494 510.236 183.673 511.057 182.66 511.057H155.151C154.138 511.057 153.317 510.236 153.317 509.223V496.386Z" fill="white"/>
<path fill-rule="evenodd" clip-rule="evenodd" d="M152.4 496.386C152.4 494.866 153.632 493.635 155.151 493.635H182.66C184.18 493.635 185.411 494.866 185.411 496.386V509.223C185.411 510.743 184.18 511.974 182.66 511.974H155.151C153.632 511.974 152.4 510.743 152.4 509.223V496.386ZM155.151 495.469C154.645 495.469 154.234 495.879 154.234 496.386V509.223C154.234 509.73 154.645 510.14 155.151 510.14H182.66C183.167 510.14 183.577 509.73 183.577 509.223V496.386C183.577 495.879 183.167 495.469 182.66 495.469H155.151Z" fill="#222222"/>
<path fill-rule="evenodd" clip-rule="evenodd" d="M157.902 502.805C157.902 502.298 158.312 501.888 158.819 501.888H160.653C161.159 501.888 161.57 502.298 161.57 502.805C161.57 503.311 161.159 503.722 160.653 503.722H158.819C158.312 503.722 157.902 503.311 157.902 502.805Z" fill="#222222"/>
<path fill-rule="evenodd" clip-rule="evenodd" d="M176.241 502.805C176.241 502.298 176.652 501.888 177.158 501.888H178.992C179.499 501.888 179.909 502.298 179.909 502.805C179.909 503.311 179.499 503.722 178.992 503.722H177.158C176.652 503.722 176.241 503.311 176.241 502.805Z" fill="#222222"/>
<path d="M171.657 502.805C171.657 504.324 170.425 505.556 168.906 505.556C167.386 505.556 166.155 504.324 166.155 502.805C166.155 501.285 167.386 500.054 168.906 500.054C170.425 500.054 171.657 501.285 171.657 502.805Z" fill="#59CBE8"/>
<path fill-rule="evenodd" clip-rule="evenodd" d="M167.989 500.054C167.989 499.547 168.399 499.137 168.906 499.137C170.931 499.137 172.574 500.779 172.574 502.805C172.574 504.83 170.931 506.473 168.906 506.473C168.399 506.473 167.989 506.062 167.989 505.556C167.989 505.049 168.399 504.639 168.906 504.639C169.918 504.639 170.74 503.817 170.74 502.805C170.74 501.792 169.918 500.971 168.906 500.971C168.399 500.971 167.989 500.56 167.989 500.054Z" fill="#222222"/>
<rect x="178" y="454.025" width="91" height="34" rx="17" fill="#2397D4"/>
<path d="M190.874 478.025V475.346H192.318V471.964H190.874V470.558H192.394C192.09 470.102 191.786 469.418 191.786 468.506C191.786 466.321 193.686 464.383 196.175 464.383C198.55 464.383 200.488 466.264 200.583 468.62H197.695C197.695 467.708 197.03 467.062 196.175 467.062C195.32 467.062 194.674 467.67 194.674 468.772C194.674 469.741 195.32 470.558 196.422 470.558H197.695V471.964H195.206V475.346H200.583V478.025H190.874ZM204.053 478.025V467.214H201.26L203.198 464.535H206.941V478.025H204.053ZM213.841 478.177C211.143 478.177 209.11 476.22 209.11 473.674C209.11 472.211 209.794 471.014 210.877 470.254C210.402 469.703 210.117 468.981 210.117 468.126C210.117 466.055 211.77 464.383 213.841 464.383C215.912 464.383 217.565 466.055 217.565 468.126C217.565 468.981 217.28 469.703 216.805 470.254C217.888 471.014 218.572 472.211 218.572 473.674C218.572 476.22 216.539 478.177 213.841 478.177ZM213.841 467.062C213.195 467.062 212.815 467.556 212.815 468.126C212.815 468.696 213.195 469.19 213.841 469.19C214.487 469.19 214.867 468.696 214.867 468.126C214.867 467.556 214.487 467.062 213.841 467.062ZM213.841 475.498C215 475.498 215.684 474.643 215.684 473.674C215.684 472.705 215 471.85 213.841 471.85C212.682 471.85 211.998 472.705 211.998 473.674C211.998 474.643 212.682 475.498 213.841 475.498ZM220.818 480.951L221.654 478.025H220.381V474.719H223.687V478.025L222.471 480.951H220.818ZM224.825 478.025L230.791 470.786C231.475 469.95 231.912 469.513 231.912 468.715C231.912 467.803 231.285 467.062 230.316 467.062C229.347 467.062 228.739 467.822 228.739 468.734V469H225.851V468.734C225.851 466.302 227.884 464.383 230.316 464.383C232.748 464.383 234.8 466.302 234.8 468.734C234.8 469.798 234.401 470.748 233.774 471.508L230.677 475.346H234.781V478.025H224.825ZM236.555 478.025L241.457 467.214H236.441V464.535H245.789L239.671 478.025H236.555ZM250.734 478.177C249.005 478.177 247.485 477.474 246.611 476.277L248.701 474.339C249.062 474.89 249.632 475.498 250.544 475.498C251.703 475.498 252.387 474.643 252.387 473.674C252.387 472.705 251.703 471.85 250.544 471.85C249.67 471.85 249.081 472.325 248.834 472.971L246.972 472.192V464.535H254.325V467.214H249.86V469.228C250.297 469.19 250.506 469.171 250.734 469.171C253.47 469.171 255.294 470.938 255.294 473.674C255.294 476.41 253.47 478.177 250.734 478.177Z" fill="white"/>
<ellipse cx="299.5" cy="769.025" rx="27.5" ry="3" fill="black" fill-opacity="0.3"/>
<path fill-rule="evenodd" clip-rule="evenodd" d="M258 710.805C258 687.464 276.983 668.543 300.4 668.543C323.817 668.543 342.8 687.464 342.8 710.805C342.8 721.002 339.174 730.36 333.14 737.661C333.041 737.864 332.91 738.056 332.748 738.229L307.305 765.541C303.577 769.543 297.223 769.543 293.495 765.541L268.052 738.229C267.89 738.056 267.759 737.864 267.66 737.661C261.626 730.36 258 721.002 258 710.805Z" fill="white"/>
<path fill-rule="evenodd" clip-rule="evenodd" d="M281.654 702.113C281.654 701.568 282.096 701.126 282.641 701.126H318.161C318.706 701.126 319.148 701.568 319.148 702.113V726.779C319.148 727.324 318.706 727.766 318.161 727.766H282.641C282.096 727.766 281.654 727.324 281.654 726.779V702.113ZM283.628 703.099V725.793H317.174V703.099H283.628Z" fill="#222222"/>
<path fill-rule="evenodd" clip-rule="evenodd" d="M275.734 726.779C275.734 726.235 276.176 725.793 276.721 725.793H324.081C324.626 725.793 325.067 726.235 325.067 726.779C325.067 727.324 324.626 727.766 324.081 727.766H276.721C276.176 727.766 275.734 727.324 275.734 726.779Z" fill="#222222"/>
<path fill-rule="evenodd" clip-rule="evenodd" d="M291.521 695.206V704.086C291.521 705.721 290.196 707.046 288.561 707.046C286.926 707.046 285.601 705.721 285.601 704.086V695.206" fill="white"/>
<path fill-rule="evenodd" clip-rule="evenodd" d="M285.601 694.219C286.146 694.219 286.587 694.661 286.587 695.206V704.086C286.587 705.176 287.471 706.059 288.561 706.059C289.651 706.059 290.534 705.176 290.534 704.086V695.206C290.534 694.661 290.976 694.219 291.521 694.219C292.066 694.219 292.507 694.661 292.507 695.206V704.086C292.507 706.266 290.74 708.033 288.561 708.033C286.381 708.033 284.614 706.266 284.614 704.086V695.206C284.614 694.661 285.056 694.219 285.601 694.219Z" fill="#222222"/>
<path fill-rule="evenodd" clip-rule="evenodd" d="M297.441 695.206V704.086C297.441 705.721 296.116 707.046 294.481 707.046C292.846 707.046 291.521 705.721 291.521 704.086V695.206" fill="#59CBE8"/>
<path fill-rule="evenodd" clip-rule="evenodd" d="M291.521 694.219C292.066 694.219 292.507 694.661 292.507 695.206V704.086C292.507 705.176 293.391 706.059 294.481 706.059C295.571 706.059 296.454 705.176 296.454 704.086V695.206C296.454 694.661 296.896 694.219 297.441 694.219C297.986 694.219 298.427 694.661 298.427 695.206V704.086C298.427 706.266 296.66 708.033 294.481 708.033C292.301 708.033 290.534 706.266 290.534 704.086V695.206C290.534 694.661 290.976 694.219 291.521 694.219Z" fill="#222222"/>
<path fill-rule="evenodd" clip-rule="evenodd" d="M303.361 695.206V704.086C303.361 705.721 302.036 707.046 300.401 707.046C298.766 707.046 297.441 705.721 297.441 704.086V695.206" fill="white"/>
<path fill-rule="evenodd" clip-rule="evenodd" d="M297.441 694.219C297.986 694.219 298.427 694.661 298.427 695.206V704.086C298.427 705.176 299.311 706.059 300.401 706.059C301.491 706.059 302.374 705.176 302.374 704.086V695.206C302.374 694.661 302.816 694.219 303.361 694.219C303.906 694.219 304.347 694.661 304.347 695.206V704.086C304.347 706.266 302.58 708.033 300.401 708.033C298.221 708.033 296.454 706.266 296.454 704.086V695.206C296.454 694.661 296.896 694.219 297.441 694.219Z" fill="#222222"/>
<path fill-rule="evenodd" clip-rule="evenodd" d="M309.281 695.206V704.086C309.281 705.721 307.956 707.046 306.321 707.046C304.686 707.046 303.361 705.721 303.361 704.086V695.206" fill="#59CBE8"/>
<path fill-rule="evenodd" clip-rule="evenodd" d="M303.361 694.219C303.906 694.219 304.347 694.661 304.347 695.206V704.086C304.347 705.176 305.231 706.059 306.321 706.059C307.411 706.059 308.294 705.176 308.294 704.086V695.206C308.294 694.661 308.736 694.219 309.281 694.219C309.826 694.219 310.267 694.661 310.267 695.206V704.086C310.267 706.266 308.5 708.033 306.321 708.033C304.141 708.033 302.374 706.266 302.374 704.086V695.206C302.374 694.661 302.816 694.219 303.361 694.219Z" fill="#222222"/>
<path fill-rule="evenodd" clip-rule="evenodd" d="M315.201 695.206V704.086C315.201 705.721 313.876 707.046 312.241 707.046C310.606 707.046 309.281 705.721 309.281 704.086V695.206" fill="white"/>
<path fill-rule="evenodd" clip-rule="evenodd" d="M309.281 694.219C309.826 694.219 310.267 694.661 310.267 695.206V704.086C310.267 705.176 311.151 706.059 312.241 706.059C313.331 706.059 314.214 705.176 314.214 704.086V695.206C314.214 694.661 314.656 694.219 315.201 694.219C315.746 694.219 316.187 694.661 316.187 695.206V704.086C316.187 706.266 314.42 708.033 312.241 708.033C310.061 708.033 308.294 706.266 308.294 704.086V695.206C308.294 694.661 308.736 694.219 309.281 694.219Z" fill="#222222"/>
<path fill-rule="evenodd" clip-rule="evenodd" d="M321.121 695.206V704.086C321.121 705.721 319.796 707.046 318.161 707.046C316.526 707.046 315.201 705.721 315.201 704.086L315.201 695.206" fill="#59CBE8"/>
<path fill-rule="evenodd" clip-rule="evenodd" d="M315.201 694.219C315.746 694.219 316.187 694.661 316.187 695.206V704.086C316.187 705.176 317.071 706.059 318.161 706.059C319.251 706.059 320.134 705.176 320.134 704.086V695.206C320.134 694.661 320.576 694.219 321.121 694.219C321.666 694.219 322.107 694.661 322.107 695.206V704.086C322.107 706.266 320.34 708.033 318.161 708.033C315.981 708.033 314.214 706.266 314.214 704.086V695.206C314.214 694.661 314.656 694.219 315.201 694.219Z" fill="#222222"/>
<path fill-rule="evenodd" clip-rule="evenodd" d="M285.601 695.206V704.086C285.601 705.721 284.276 707.046 282.641 707.046C281.006 707.046 279.681 705.721 279.681 704.086V695.206" fill="#59CBE8"/>
<path fill-rule="evenodd" clip-rule="evenodd" d="M279.681 694.219C280.226 694.219 280.667 694.661 280.667 695.206V704.086C280.667 705.176 281.551 706.059 282.641 706.059C283.731 706.059 284.614 705.176 284.614 704.086V695.206C284.614 694.661 285.056 694.219 285.601 694.219C286.146 694.219 286.587 694.661 286.587 695.206V704.086C286.587 706.266 284.82 708.033 282.641 708.033C280.461 708.033 278.694 706.266 278.694 704.086V695.206C278.694 694.661 279.136 694.219 279.681 694.219Z" fill="#222222"/>
<path fill-rule="evenodd" clip-rule="evenodd" d="M312.241 691.259C312.241 690.715 311.799 690.273 311.254 690.273H279.681C279.136 690.273 278.694 690.715 278.694 691.259C278.694 691.804 279.136 692.246 279.681 692.246H311.254C311.799 692.246 312.241 691.804 312.241 691.259ZM314.214 691.259C314.214 690.715 314.656 690.273 315.201 690.273H321.121C321.666 690.273 322.107 690.715 322.107 691.259C322.107 691.804 321.666 692.246 321.121 692.246H315.201C314.656 692.246 314.214 691.804 314.214 691.259Z" fill="#222222"/>
<path d="M287.574 711.979H295.467V726.779H287.574V711.979Z" fill="white"/>
<path fill-rule="evenodd" clip-rule="evenodd" d="M286.587 711.979C286.587 711.435 287.029 710.993 287.574 710.993H295.467C296.012 710.993 296.454 711.435 296.454 711.979V726.779C296.454 727.324 296.012 727.766 295.467 727.766H287.574C287.029 727.766 286.587 727.324 286.587 726.779V711.979ZM288.561 712.966V725.793H294.481V712.966H288.561Z" fill="#222222"/>
<path d="M300.401 711.979H318.161V721.846H300.401V711.979Z" fill="#59CBE8"/>
<path fill-rule="evenodd" clip-rule="evenodd" d="M299.414 711.979C299.414 711.435 299.856 710.993 300.401 710.993H318.161C318.706 710.993 319.147 711.435 319.147 711.979V721.846C319.147 722.391 318.706 722.833 318.161 722.833H300.401C299.856 722.833 299.414 722.391 299.414 721.846V711.979ZM301.387 712.966V720.859H317.174V712.966H301.387Z" fill="#222222"/>
<path fill-rule="evenodd" clip-rule="evenodd" d="M303.361 715.926C303.361 715.381 303.803 714.939 304.348 714.939H305.334C305.879 714.939 306.321 715.381 306.321 715.926C306.321 716.471 305.879 716.913 305.334 716.913H304.348C303.803 716.913 303.361 716.471 303.361 715.926Z" fill="#222222"/>
<path fill-rule="evenodd" clip-rule="evenodd" d="M308.294 715.926C308.294 715.381 308.736 714.939 309.281 714.939H312.241C312.786 714.939 313.227 715.381 313.227 715.926C313.227 716.471 312.786 716.913 312.241 716.913H309.281C308.736 716.913 308.294 716.471 308.294 715.926Z" fill="#222222"/>
<rect x="315" y="669.025" width="96" height="34" rx="17" fill="#2397D4"/>
<path d="M327.874 693.025V690.346H329.318V686.964H327.874V685.558H329.394C329.09 685.102 328.786 684.418 328.786 683.506C328.786 681.321 330.686 679.383 333.175 679.383C335.55 679.383 337.488 681.264 337.583 683.62H334.695C334.695 682.708 334.03 682.062 333.175 682.062C332.32 682.062 331.674 682.67 331.674 683.772C331.674 684.741 332.32 685.558 333.422 685.558H334.695V686.964H332.206V690.346H337.583V693.025H327.874ZM338.279 693.025L344.245 685.786C344.929 684.95 345.366 684.513 345.366 683.715C345.366 682.803 344.739 682.062 343.77 682.062C342.801 682.062 342.193 682.822 342.193 683.734V684H339.305V683.734C339.305 681.302 341.338 679.383 343.77 679.383C346.202 679.383 348.254 681.302 348.254 683.734C348.254 684.798 347.855 685.748 347.228 686.508L344.131 690.346H348.235V693.025H338.279ZM356.317 693.025V689.985H349.173L359.205 679.383V687.477H360.649V689.985H359.205V693.025H356.317ZM354.493 687.477H356.317V685.558L354.493 687.477ZM362.902 695.951L363.738 693.025H362.465V689.719H365.771V693.025L364.555 695.951H362.902ZM372.27 693.177C369.572 693.177 367.539 691.22 367.539 688.674C367.539 687.686 367.957 686.85 368.394 686.052L371.947 679.535H375.158L372.631 684.19C375.025 684.304 377.001 686.128 377.001 688.674C377.001 691.22 374.968 693.177 372.27 693.177ZM372.27 690.498C373.429 690.498 374.113 689.643 374.113 688.674C374.113 687.705 373.429 686.85 372.27 686.85C371.111 686.85 370.427 687.705 370.427 688.674C370.427 689.643 371.111 690.498 372.27 690.498ZM379.752 693.025L382.279 688.37C379.885 688.256 377.909 686.432 377.909 683.886C377.909 681.34 379.942 679.383 382.64 679.383C385.338 679.383 387.371 681.34 387.371 683.886C387.371 684.874 386.953 685.71 386.516 686.508L382.963 693.025H379.752ZM382.64 685.71C383.799 685.71 384.483 684.855 384.483 683.886C384.483 682.917 383.799 682.062 382.64 682.062C381.481 682.062 380.797 682.917 380.797 683.886C380.797 684.855 381.481 685.71 382.64 685.71ZM392.438 693.177C390.728 693.177 389.227 692.455 388.315 691.277L390.348 689.396C390.766 690.023 391.355 690.498 392.248 690.498C393.502 690.498 394.3 689.719 394.3 688.465C394.3 687.211 393.502 686.432 392.248 686.432H390.88L392.875 682.214H388.942V679.535H397.093L394.851 684.285C396.466 685.14 397.207 686.698 397.207 688.465C397.207 691.315 395.288 693.177 392.438 693.177Z" fill="white"/>
<ellipse cx="399.5" cy="603.507" rx="27.5" ry="3" fill="black" fill-opacity="0.3"/>
<path fill-rule="evenodd" clip-rule="evenodd" d="M358 545.287C358 521.946 376.983 503.025 400.4 503.025C423.817 503.025 442.8 521.946 442.8 545.287C442.8 555.484 439.174 564.843 433.14 572.143C433.041 572.346 432.91 572.538 432.748 572.712L407.305 600.024C403.577 604.025 397.223 604.025 393.495 600.024L368.052 572.712C367.89 572.538 367.759 572.346 367.66 572.143C361.626 564.843 358 555.484 358 545.287Z" fill="white"/>
<path fill-rule="evenodd" clip-rule="evenodd" d="M381.654 536.595C381.654 536.05 382.096 535.609 382.641 535.609H418.161C418.706 535.609 419.147 536.05 419.147 536.595V561.262C419.147 561.807 418.706 562.249 418.161 562.249H382.641C382.096 562.249 381.654 561.807 381.654 561.262V536.595ZM383.627 537.582V560.275H417.174V537.582H383.627Z" fill="#222222"/>
<path fill-rule="evenodd" clip-rule="evenodd" d="M375.734 561.262C375.734 560.717 376.176 560.275 376.721 560.275H424.081C424.626 560.275 425.067 560.717 425.067 561.262C425.067 561.807 424.626 562.249 424.081 562.249H376.721C376.176 562.249 375.734 561.807 375.734 561.262Z" fill="#222222"/>
<path fill-rule="evenodd" clip-rule="evenodd" d="M391.521 529.689V538.569C391.521 540.203 390.196 541.529 388.561 541.529C386.926 541.529 385.601 540.203 385.601 538.569V529.689" fill="white"/>
<path fill-rule="evenodd" clip-rule="evenodd" d="M385.601 528.702C386.146 528.702 386.587 529.144 386.587 529.689V538.569C386.587 539.658 387.471 540.542 388.561 540.542C389.651 540.542 390.534 539.658 390.534 538.569V529.689C390.534 529.144 390.976 528.702 391.521 528.702C392.066 528.702 392.507 529.144 392.507 529.689V538.569C392.507 540.748 390.74 542.515 388.561 542.515C386.381 542.515 384.614 540.748 384.614 538.569V529.689C384.614 529.144 385.056 528.702 385.601 528.702Z" fill="#222222"/>
<path fill-rule="evenodd" clip-rule="evenodd" d="M397.441 529.689V538.569C397.441 540.203 396.116 541.529 394.481 541.529C392.846 541.529 391.521 540.203 391.521 538.569V529.689" fill="#59CBE8"/>
<path fill-rule="evenodd" clip-rule="evenodd" d="M391.521 528.702C392.066 528.702 392.508 529.144 392.508 529.689V538.569C392.508 539.658 393.391 540.542 394.481 540.542C395.571 540.542 396.454 539.658 396.454 538.569V529.689C396.454 529.144 396.896 528.702 397.441 528.702C397.986 528.702 398.428 529.144 398.428 529.689V538.569C398.428 540.748 396.661 542.515 394.481 542.515C392.301 542.515 390.534 540.748 390.534 538.569V529.689C390.534 529.144 390.976 528.702 391.521 528.702Z" fill="#222222"/>
<path fill-rule="evenodd" clip-rule="evenodd" d="M403.361 529.689V538.569C403.361 540.203 402.035 541.529 400.401 541.529C398.766 541.529 397.441 540.203 397.441 538.569V529.689" fill="white"/>
<path fill-rule="evenodd" clip-rule="evenodd" d="M397.441 528.702C397.986 528.702 398.427 529.144 398.427 529.689V538.569C398.427 539.658 399.311 540.542 400.401 540.542C401.491 540.542 402.374 539.658 402.374 538.569V529.689C402.374 529.144 402.816 528.702 403.361 528.702C403.906 528.702 404.347 529.144 404.347 529.689V538.569C404.347 540.748 402.58 542.515 400.401 542.515C398.221 542.515 396.454 540.748 396.454 538.569V529.689C396.454 529.144 396.896 528.702 397.441 528.702Z" fill="#222222"/>
<path fill-rule="evenodd" clip-rule="evenodd" d="M409.281 529.689V538.569C409.281 540.203 407.956 541.529 406.321 541.529C404.686 541.529 403.361 540.203 403.361 538.569V529.689" fill="#59CBE8"/>
<path fill-rule="evenodd" clip-rule="evenodd" d="M403.361 528.702C403.906 528.702 404.347 529.144 404.347 529.689V538.569C404.347 539.658 405.231 540.542 406.321 540.542C407.411 540.542 408.294 539.658 408.294 538.569V529.689C408.294 529.144 408.736 528.702 409.281 528.702C409.826 528.702 410.267 529.144 410.267 529.689V538.569C410.267 540.748 408.5 542.515 406.321 542.515C404.141 542.515 402.374 540.748 402.374 538.569V529.689C402.374 529.144 402.816 528.702 403.361 528.702Z" fill="#222222"/>
<path fill-rule="evenodd" clip-rule="evenodd" d="M415.201 529.689V538.569C415.201 540.203 413.876 541.529 412.241 541.529C410.606 541.529 409.281 540.203 409.281 538.569V529.689" fill="white"/>
<path fill-rule="evenodd" clip-rule="evenodd" d="M409.281 528.702C409.826 528.702 410.268 529.144 410.268 529.689V538.569C410.268 539.658 411.151 540.542 412.241 540.542C413.331 540.542 414.214 539.658 414.214 538.569V529.689C414.214 529.144 414.656 528.702 415.201 528.702C415.746 528.702 416.188 529.144 416.188 529.689V538.569C416.188 540.748 414.421 542.515 412.241 542.515C410.061 542.515 408.294 540.748 408.294 538.569V529.689C408.294 529.144 408.736 528.702 409.281 528.702Z" fill="#222222"/>
<path fill-rule="evenodd" clip-rule="evenodd" d="M421.121 529.689V538.569C421.121 540.203 419.795 541.529 418.161 541.529C416.526 541.529 415.201 540.203 415.201 538.569L415.201 529.689" fill="#59CBE8"/>
<path fill-rule="evenodd" clip-rule="evenodd" d="M415.201 528.702C415.746 528.702 416.187 529.144 416.187 529.689V538.569C416.187 539.658 417.071 540.542 418.161 540.542C419.251 540.542 420.134 539.658 420.134 538.569V529.689C420.134 529.144 420.576 528.702 421.121 528.702C421.666 528.702 422.107 529.144 422.107 529.689V538.569C422.107 540.748 420.34 542.515 418.161 542.515C415.981 542.515 414.214 540.748 414.214 538.569V529.689C414.214 529.144 414.656 528.702 415.201 528.702Z" fill="#222222"/>
<path fill-rule="evenodd" clip-rule="evenodd" d="M385.601 529.689V538.569C385.601 540.203 384.275 541.529 382.641 541.529C381.006 541.529 379.681 540.203 379.681 538.569V529.689" fill="#59CBE8"/>
<path fill-rule="evenodd" clip-rule="evenodd" d="M379.681 528.702C380.226 528.702 380.667 529.144 380.667 529.689V538.569C380.667 539.658 381.551 540.542 382.641 540.542C383.731 540.542 384.614 539.658 384.614 538.569V529.689C384.614 529.144 385.056 528.702 385.601 528.702C386.146 528.702 386.587 529.144 386.587 529.689V538.569C386.587 540.748 384.82 542.515 382.641 542.515C380.461 542.515 378.694 540.748 378.694 538.569V529.689C378.694 529.144 379.136 528.702 379.681 528.702Z" fill="#222222"/>
<path fill-rule="evenodd" clip-rule="evenodd" d="M412.241 525.742C412.241 525.197 411.799 524.755 411.254 524.755H379.681C379.136 524.755 378.694 525.197 378.694 525.742C378.694 526.287 379.136 526.729 379.681 526.729H411.254C411.799 526.729 412.241 526.287 412.241 525.742ZM414.214 525.742C414.214 525.197 414.656 524.755 415.201 524.755H421.121C421.666 524.755 422.107 525.197 422.107 525.742C422.107 526.287 421.666 526.729 421.121 526.729H415.201C414.656 526.729 414.214 526.287 414.214 525.742Z" fill="#222222"/>
<path d="M387.574 546.462H395.468V561.262H387.574V546.462Z" fill="white"/>
<path fill-rule="evenodd" clip-rule="evenodd" d="M386.587 546.462C386.587 545.917 387.029 545.475 387.574 545.475H395.467C396.012 545.475 396.454 545.917 396.454 546.462V561.262C396.454 561.807 396.012 562.249 395.467 562.249H387.574C387.029 562.249 386.587 561.807 386.587 561.262V546.462ZM388.561 547.449V560.275H394.481V547.449H388.561Z" fill="#222222"/>
<path d="M400.401 546.462H418.161V556.329H400.401V546.462Z" fill="#59CBE8"/>
<path fill-rule="evenodd" clip-rule="evenodd" d="M399.414 546.462C399.414 545.917 399.856 545.475 400.401 545.475H418.161C418.706 545.475 419.147 545.917 419.147 546.462V556.329C419.147 556.874 418.706 557.315 418.161 557.315H400.401C399.856 557.315 399.414 556.874 399.414 556.329V546.462ZM401.387 547.449V555.342H417.174V547.449H401.387Z" fill="#222222"/>
<path fill-rule="evenodd" clip-rule="evenodd" d="M403.361 550.409C403.361 549.864 403.803 549.422 404.348 549.422H405.334C405.879 549.422 406.321 549.864 406.321 550.409C406.321 550.954 405.879 551.395 405.334 551.395H404.348C403.803 551.395 403.361 550.954 403.361 550.409Z" fill="#222222"/>
<path fill-rule="evenodd" clip-rule="evenodd" d="M408.294 550.409C408.294 549.864 408.736 549.422 409.281 549.422H412.241C412.786 549.422 413.228 549.864 413.228 550.409C413.228 550.954 412.786 551.395 412.241 551.395H409.281C408.736 551.395 408.294 550.954 408.294 550.409Z" fill="#222222"/>
<rect x="415" y="503.507" width="88" height="34" rx="17" fill="#2397D4"/>
<path d="M427.874 527.507V524.828H429.318V521.446H427.874V520.04H429.394C429.09 519.584 428.786 518.9 428.786 517.988C428.786 515.803 430.686 513.865 433.175 513.865C435.55 513.865 437.488 515.746 437.583 518.102H434.695C434.695 517.19 434.03 516.544 433.175 516.544C432.32 516.544 431.674 517.152 431.674 518.254C431.674 519.223 432.32 520.04 433.422 520.04H434.695V521.446H432.206V524.828H437.583V527.507H427.874ZM445.499 527.507V524.467H438.355L448.387 513.865V521.959H449.831V524.467H448.387V527.507H445.499ZM443.675 521.959H445.499V520.04L443.675 521.959ZM453.262 527.507V516.696H450.469L452.407 514.017H456.15V527.507H453.262ZM459.117 530.433L459.953 527.507H458.68V524.201H461.986V527.507L460.77 530.433H459.117ZM465.193 527.507V516.696H462.4L464.338 514.017H468.081V527.507H465.193ZM474.486 527.659C472.757 527.659 471.237 526.956 470.363 525.759L472.453 523.821C472.814 524.372 473.384 524.98 474.296 524.98C475.455 524.98 476.139 524.125 476.139 523.156C476.139 522.187 475.455 521.332 474.296 521.332C473.422 521.332 472.833 521.807 472.586 522.453L470.724 521.674V514.017H478.077V516.696H473.612V518.71C474.049 518.672 474.258 518.653 474.486 518.653C477.222 518.653 479.046 520.42 479.046 523.156C479.046 525.892 477.222 527.659 474.486 527.659ZM485.222 527.659C482.524 527.659 480.491 525.702 480.491 523.156C480.491 522.168 480.909 521.332 481.346 520.534L484.899 514.017H488.11L485.583 518.672C487.977 518.786 489.953 520.61 489.953 523.156C489.953 525.702 487.92 527.659 485.222 527.659ZM485.222 524.98C486.381 524.98 487.065 524.125 487.065 523.156C487.065 522.187 486.381 521.332 485.222 521.332C484.063 521.332 483.379 522.187 483.379 523.156C483.379 524.125 484.063 524.98 485.222 524.98Z" fill="white"/>
</svg>
