<svg width="60" height="60" viewBox="0 0 60 60" fill="none" xmlns="http://www.w3.org/2000/svg">
<g id="Icon-PlanningStatus">
<path id="Rectangle 1" d="M6 16C6 13.7909 7.79086 12 10 12H46C48.2091 12 50 13.7909 50 16V44C50 46.2091 48.2091 48 46 48H10C7.79086 48 6 46.2091 6 44V16Z" fill="white"/>
<path id="Combined Shape" fill-rule="evenodd" clip-rule="evenodd" d="M9.17304 11.0146C7.51599 11.0065 6.16626 12.3435 6.15854 14.0005L6.02811 41.972C6.01261 45.2966 8.7034 48 12.028 48H25.9986C29.3128 48 31.9994 45.3129 31.9986 41.9986L31.9913 11.1251L9.17304 11.0146Z" fill="#59CBE8"/>
<path id="Path (Stroke)" fill-rule="evenodd" clip-rule="evenodd" d="M5 16.55C5 12.9012 8.04906 10 11.7391 10H44.2609C47.9509 10 51 12.9012 51 16.55V28C51 28.5523 50.5523 29 50 29C49.4477 29 49 28.5523 49 28V16.55C49 14.0684 46.9101 12 44.2609 12H11.7391C9.08993 12 7 14.0684 7 16.55V42.45C7 44.9316 9.08993 47 11.7391 47H28C28.5523 47 29 47.4477 29 48C29 48.5523 28.5523 49 28 49H11.7391C8.04906 49 5 46.0988 5 42.45V16.55Z" fill="#333333"/>
<path id="Path 265 (Stroke)" fill-rule="evenodd" clip-rule="evenodd" d="M28 7C28.5523 7 29 7.44772 29 8V14C29 14.5523 28.5523 15 28 15C27.4477 15 27 14.5523 27 14V8C27 7.44772 27.4477 7 28 7Z" fill="#333333"/>
<path id="Path 265 Copy 5 (Stroke)" fill-rule="evenodd" clip-rule="evenodd" d="M28 21C28.5523 21 29 21.4477 29 22V24C29 24.5523 28.5523 25 28 25C27.4477 25 27 24.5523 27 24V22C27 21.4477 27.4477 21 28 21Z" fill="#333333"/>
<path id="Path 265 Copy 10 (Stroke)" fill-rule="evenodd" clip-rule="evenodd" d="M28 29C28.5523 29 29 29.4477 29 30V32C29 32.5523 28.5523 33 28 33C27.4477 33 27 32.5523 27 32V30C27 29.4477 27.4477 29 28 29Z" fill="#333333"/>
<path id="Path 265 Copy 15 (Stroke)" fill-rule="evenodd" clip-rule="evenodd" d="M28 37C28.5523 37 29 37.4477 29 38V40C29 40.5523 28.5523 41 28 41C27.4477 41 27 40.5523 27 40V38C27 37.4477 27.4477 37 28 37Z" fill="#333333"/>
<path id="Path 265 Copy (Stroke)" fill-rule="evenodd" clip-rule="evenodd" d="M21 7C21.5523 7 22 7.44772 22 8V14C22 14.5523 21.5523 15 21 15C20.4477 15 20 14.5523 20 14V8C20 7.44772 20.4477 7 21 7Z" fill="#333333"/>
<path id="Path 265 Copy 6 (Stroke)" fill-rule="evenodd" clip-rule="evenodd" d="M21 21C21.5523 21 22 21.4477 22 22V24C22 24.5523 21.5523 25 21 25C20.4477 25 20 24.5523 20 24V22C20 21.4477 20.4477 21 21 21Z" fill="#333333"/>
<path id="Path 265 Copy 11 (Stroke)" fill-rule="evenodd" clip-rule="evenodd" d="M21 29C21.5523 29 22 29.4477 22 30V32C22 32.5523 21.5523 33 21 33C20.4477 33 20 32.5523 20 32V30C20 29.4477 20.4477 29 21 29Z" fill="#333333"/>
<path id="Path 265 Copy 16 (Stroke)" fill-rule="evenodd" clip-rule="evenodd" d="M21 37C21.5523 37 22 37.4477 22 38V40C22 40.5523 21.5523 41 21 41C20.4477 41 20 40.5523 20 40V38C20 37.4477 20.4477 37 21 37Z" fill="#333333"/>
<path id="Path 265 Copy 2 (Stroke)" fill-rule="evenodd" clip-rule="evenodd" d="M14 7C14.5523 7 15 7.44772 15 8V14C15 14.5523 14.5523 15 14 15C13.4477 15 13 14.5523 13 14V8C13 7.44772 13.4477 7 14 7Z" fill="#333333"/>
<path id="Path 265 Copy 7 (Stroke)" fill-rule="evenodd" clip-rule="evenodd" d="M14 21C14.5523 21 15 21.4477 15 22V24C15 24.5523 14.5523 25 14 25C13.4477 25 13 24.5523 13 24V22C13 21.4477 13.4477 21 14 21Z" fill="#333333"/>
<path id="Path 265 Copy 12 (Stroke)" fill-rule="evenodd" clip-rule="evenodd" d="M14 29C14.5523 29 15 29.4477 15 30V32C15 32.5523 14.5523 33 14 33C13.4477 33 13 32.5523 13 32V30C13 29.4477 13.4477 29 14 29Z" fill="#333333"/>
<path id="Path 265 Copy 17 (Stroke)" fill-rule="evenodd" clip-rule="evenodd" d="M14 37C14.5523 37 15 37.4477 15 38V40C15 40.5523 14.5523 41 14 41C13.4477 41 13 40.5523 13 40V38C13 37.4477 13.4477 37 14 37Z" fill="#333333"/>
<path id="Path 265 Copy 3 (Stroke)" fill-rule="evenodd" clip-rule="evenodd" d="M35 7C35.5523 7 36 7.44772 36 8V14C36 14.5523 35.5523 15 35 15C34.4477 15 34 14.5523 34 14V8C34 7.44772 34.4477 7 35 7Z" fill="#333333"/>
<path id="Path 265 Copy 8 (Stroke)" fill-rule="evenodd" clip-rule="evenodd" d="M35 21C35.5523 21 36 21.4477 36 22V24C36 24.5523 35.5523 25 35 25C34.4477 25 34 24.5523 34 24V22C34 21.4477 34.4477 21 35 21Z" fill="#333333"/>
<path id="Path 265 Copy 13 (Stroke)" fill-rule="evenodd" clip-rule="evenodd" d="M35 29C35.5523 29 36 29.4477 36 30V32C36 32.5523 35.5523 33 35 33C34.4477 33 34 32.5523 34 32V30C34 29.4477 34.4477 29 35 29Z" fill="#333333"/>
<path id="Path 265 Copy 4 (Stroke)" fill-rule="evenodd" clip-rule="evenodd" d="M42 7C42.5523 7 43 7.44772 43 8V14C43 14.5523 42.5523 15 42 15C41.4477 15 41 14.5523 41 14V8C41 7.44772 41.4477 7 42 7Z" fill="#333333"/>
<path id="Path 265 Copy 9 (Stroke)" fill-rule="evenodd" clip-rule="evenodd" d="M42 21C42.5523 21 43 21.4477 43 22V24C43 24.5523 42.5523 25 42 25C41.4477 25 41 24.5523 41 24V22C41 21.4477 41.4477 21 42 21Z" fill="#333333"/>
<path id="Path 265 Copy 19 (Stroke)" fill-rule="evenodd" clip-rule="evenodd" d="M44 35C44.5523 35 45 35.4477 45 36V38C45 38.5523 44.5523 39 44 39C43.4477 39 43 38.5523 43 38V36C43 35.4477 43.4477 35 44 35Z" fill="#333333"/>
<path id="Path 265 Copy 24 (Stroke)" fill-rule="evenodd" clip-rule="evenodd" d="M44 40C44.5523 40 45 40.4477 45 41V43C45 43.5523 44.5523 44 44 44C43.4477 44 43 43.5523 43 43V41C43 40.4477 43.4477 40 44 40Z" fill="#333333"/>
<path id="Oval" d="M54 43C54 47.9706 49.9706 52 45 52C40.0294 52 36 47.9706 36 43C36 38.0294 40.0294 34 45 34C49.9706 34 54 38.0294 54 43Z" fill="white"/>
<path id="Oval (Stroke)" fill-rule="evenodd" clip-rule="evenodd" d="M45 35C40.5817 35 37 38.5817 37 43C37 47.4183 40.5817 51 45 51C49.4183 51 53 47.4183 53 43C53 38.5817 49.4183 35 45 35ZM35 43C35 37.4772 39.4772 33 45 33C50.5228 33 55 37.4772 55 43C55 48.5228 50.5228 53 45 53C39.4772 53 35 48.5228 35 43Z" fill="#333333"/>
<path id="Path 266 (Stroke)" fill-rule="evenodd" clip-rule="evenodd" d="M45 37C45.5523 37 46 37.4477 46 38V42H49C49.5523 42 50 42.4477 50 43C50 43.5523 49.5523 44 49 44H45C44.4477 44 44 43.5523 44 43V38C44 37.4477 44.4477 37 45 37Z" fill="#333333"/>
</g>
</svg>
