<svg width="60" height="60" viewBox="0 0 91 91" fill="none" xmlns="http://www.w3.org/2000/svg">
<path d="M15.6 32C15.6 30.3431 16.9431 29 18.6 29H72.6C74.2568 29 75.6 30.3431 75.6 32V59C75.6 60.6569 74.2568 62 72.6 62H18.6C16.9431 62 15.6 60.6569 15.6 59V32Z" fill="white"/>
<path fill-rule="evenodd" clip-rule="evenodd" d="M14.1 32C14.1 29.5147 16.1147 27.5 18.6 27.5H72.6C75.0853 27.5 77.1 29.5147 77.1 32V59C77.1 61.4853 75.0853 63.5 72.6 63.5H18.6C16.1147 63.5 14.1 61.4853 14.1 59V32ZM18.6 30.5C17.7715 30.5 17.1 31.1716 17.1 32V59C17.1 59.8284 17.7715 60.5 18.6 60.5H72.6C73.4284 60.5 74.1 59.8284 74.1 59V32C74.1 31.1716 73.4284 30.5 72.6 30.5H18.6Z" fill="#333333"/>
<path fill-rule="evenodd" clip-rule="evenodd" d="M23.1 45.5C23.1 44.6716 23.7715 44 24.6 44H29.1C29.9284 44 30.6 44.6716 30.6 45.5C30.6 46.3284 29.9284 47 29.1 47H24.6C23.7715 47 23.1 46.3284 23.1 45.5Z" fill="#333333"/>
<path fill-rule="evenodd" clip-rule="evenodd" d="M60.6 45.5C60.6 44.6716 61.2715 44 62.1 44H66.6C67.4284 44 68.1 44.6716 68.1 45.5C68.1 46.3284 67.4284 47 66.6 47H62.1C61.2715 47 60.6 46.3284 60.6 45.5Z" fill="#333333"/>
<circle cx="45.6" cy="45.5" r="6" fill="#59CBE8"/>
<path fill-rule="evenodd" clip-rule="evenodd" d="M44.1 39.5C44.1 38.6716 44.7715 38 45.6 38C49.7421 38 53.1 41.3579 53.1 45.5C53.1 49.6421 49.7421 53 45.6 53C44.7715 53 44.1 52.3284 44.1 51.5C44.1 50.6716 44.7715 50 45.6 50C48.0853 50 50.1 47.9853 50.1 45.5C50.1 43.0147 48.0853 41 45.6 41C44.7715 41 44.1 40.3284 44.1 39.5Z" fill="#333333"/>
<path fill-rule="evenodd" clip-rule="evenodd" d="M71.1 77C71.1 76.1716 71.7715 75.5 72.6 75.5H75.6C76.4284 75.5 77.1 76.1716 77.1 77C77.1 77.8284 76.4284 78.5 75.6 78.5H72.6C71.7715 78.5 71.1 77.8284 71.1 77Z" fill="#333333"/>
<path fill-rule="evenodd" clip-rule="evenodd" d="M14.1 14C14.1 13.1716 14.7715 12.5 15.6 12.5H18.6C19.4284 12.5 20.1 13.1716 20.1 14C20.1 14.8284 19.4284 15.5 18.6 15.5H15.6C14.7715 15.5 14.1 14.8284 14.1 14Z" fill="#333333"/>
<path fill-rule="evenodd" clip-rule="evenodd" d="M55.6606 6.93934C55.0748 6.35355 54.1251 6.35355 53.5393 6.93934C52.9535 7.52513 52.9535 8.47487 53.5393 9.06066L56.9787 12.5H26.1C25.2715 12.5 24.6 13.1716 24.6 14C24.6 14.8284 25.2715 15.5 26.1 15.5H56.9787L53.5393 18.9393C52.9535 19.5251 52.9535 20.4749 53.5393 21.0607C54.1251 21.6464 55.0748 21.6464 55.6606 21.0607L61.6606 15.0607C62.2464 14.4749 62.2464 13.5251 61.6606 12.9393L55.6606 6.93934Z" fill="#333333"/>
<path fill-rule="evenodd" clip-rule="evenodd" d="M35.5393 69.9393C36.1251 69.3536 37.0748 69.3536 37.6606 69.9393C38.2464 70.5251 38.2464 71.4749 37.6606 72.0607L34.2213 75.5H65.1C65.9284 75.5 66.6 76.1716 66.6 77C66.6 77.8284 65.9284 78.5 65.1 78.5H34.2213L37.6606 81.9393C38.2464 82.5251 38.2464 83.4749 37.6606 84.0607C37.0748 84.6464 36.1251 84.6464 35.5393 84.0607L29.5393 78.0607C28.9535 77.4749 28.9535 76.5251 29.5393 75.9393L35.5393 69.9393Z" fill="#333333"/>
</svg>
