<svg width="60" height="61" viewBox="0 0 60 61" fill="none" xmlns="http://www.w3.org/2000/svg">
<rect width="60" height="60" transform="translate(0 0.5)" fill="white"/>
<path fill-rule="evenodd" clip-rule="evenodd" d="M5.72214 37.5736C6.2522 37.4185 6.80763 37.7225 6.96273 38.2526C7.23605 39.1866 7.56466 40.0971 7.9448 40.9802C10.0841 45.9502 13.8554 50.0544 18.5837 52.6163C19.0693 52.8794 19.2497 53.4864 18.9866 53.972C18.7235 54.4575 18.1166 54.6379 17.631 54.3748C12.5099 51.6001 8.42575 47.1562 6.10775 41.771C5.69573 40.8138 5.33951 39.8268 5.04322 38.8142C4.88812 38.2842 5.19208 37.7287 5.72214 37.5736ZM54.2732 37.5925C54.8031 37.748 55.1066 38.3036 54.9511 38.8336C53.0032 45.4711 48.481 51.0042 42.5406 54.281C42.057 54.5478 41.4487 54.372 41.182 53.8884C40.9152 53.4048 41.091 52.7965 41.5746 52.5298C47.0605 49.5037 51.2351 44.3936 53.032 38.2704C53.1875 37.7405 53.7432 37.4369 54.2732 37.5925Z" fill="#222222"/>
<path fill-rule="evenodd" clip-rule="evenodd" d="M21 17.5V28.5L24 27.5L26 24.5L25 19.5L23 17.5H21Z" fill="#59CBE8"/>
<path fill-rule="evenodd" clip-rule="evenodd" d="M12 6.5V17.5L15 16.5L17 13.5L16 8.5L14 6.5H12Z" fill="#59CBE8"/>
<path fill-rule="evenodd" clip-rule="evenodd" d="M19.5017 27.5763C19.6707 28.102 19.3814 28.6653 18.8556 28.8343C16.0374 29.7401 14 32.3834 14 35.5V40.5C14 41.0523 13.5523 41.5 13 41.5C12.4477 41.5 12 41.0523 12 40.5V35.5C12 31.4895 14.6225 28.0941 18.2436 26.9302C18.7694 26.7612 19.3327 27.0505 19.5017 27.5763Z" fill="#222222"/>
<path fill-rule="evenodd" clip-rule="evenodd" d="M21 18.5C18.8784 18.5 17 20.4229 17 23C17 25.5771 18.8784 27.5 21 27.5C23.1216 27.5 25 25.5771 25 23C25 20.4229 23.1216 18.5 21 18.5ZM15 23C15 19.502 17.5987 16.5 21 16.5C24.4013 16.5 27 19.502 27 23C27 26.498 24.4013 29.5 21 29.5C17.5987 29.5 15 26.498 15 23Z" fill="#222222"/>
<path fill-rule="evenodd" clip-rule="evenodd" d="M17 35.5C17.5523 35.5 18 35.9477 18 36.5V43.5C18 44.0523 17.5523 44.5 17 44.5C16.4477 44.5 16 44.0523 16 43.5V36.5C16 35.9477 16.4477 35.5 17 35.5Z" fill="#222222"/>
<path fill-rule="evenodd" clip-rule="evenodd" d="M48 6.5V30.0472C48 30.2973 48.2027 30.5 48.4528 30.5H49C52.866 30.5 56 27.366 56 23.5L55 20.5L52 17.5L51 16.5L53 13.5L52 8.5L50 6.5H48Z" fill="#59CBE8"/>
<path fill-rule="evenodd" clip-rule="evenodd" d="M39 17.5V41.0472C39 41.2973 39.2027 41.5 39.4528 41.5H40C43.866 41.5 47 38.366 47 34.5L46 31.5L43 28.5L42 27.5L44 24.5L43 19.5L41 17.5H39Z" fill="#59CBE8"/>
<path fill-rule="evenodd" clip-rule="evenodd" d="M30 28.5V54.0472C30 54.2973 30.2027 54.5 30.4528 54.5C34.621 54.5 38 51.121 38 46.9528V45.5L37 42.5L34 39.5L33 38.5L35 35.5L34 30.5L32 28.5H30Z" fill="#59CBE8"/>
<path fill-rule="evenodd" clip-rule="evenodd" d="M28.4589 38.7161C28.6156 39.2456 28.3135 39.802 27.7839 39.9588C24.9055 40.811 23 43.3076 23 46.5V54.5C23 55.0523 22.5523 55.5 22 55.5C21.4477 55.5 21 55.0523 21 54.5V46.5C21 42.4365 23.4743 39.149 27.2161 38.0411C27.7457 37.8843 28.3021 38.1865 28.4589 38.7161Z" fill="#222222"/>
<path fill-rule="evenodd" clip-rule="evenodd" d="M31.5419 38.7131C31.7004 38.184 32.2577 37.8836 32.7868 38.042C36.5112 39.1574 39 42.4425 39 46.5V54.5C39 55.0523 38.5523 55.5 38 55.5C37.4477 55.5 37 55.0523 37 54.5V46.5C37 43.319 35.0843 40.8178 32.213 39.9579C31.6839 39.7995 31.3835 39.2421 31.5419 38.7131Z" fill="#222222"/>
<path fill-rule="evenodd" clip-rule="evenodd" d="M26 46.5C26.5523 46.5 27 46.9477 27 47.5V54.5C27 55.0523 26.5523 55.5 26 55.5C25.4477 55.5 25 55.0523 25 54.5V47.5C25 46.9477 25.4477 46.5 26 46.5Z" fill="#222222"/>
<path fill-rule="evenodd" clip-rule="evenodd" d="M10.308 16.6151C10.4899 17.1366 10.2147 17.7068 9.69322 17.8887C6.95922 18.8425 5 21.4438 5 24.5V30.5C5 31.0523 4.55228 31.5 4 31.5C3.44772 31.5 3 31.0523 3 30.5V24.5C3 20.567 5.52223 17.2256 9.03441 16.0003C9.55587 15.8184 10.1261 16.0936 10.308 16.6151Z" fill="#222222"/>
<path fill-rule="evenodd" clip-rule="evenodd" d="M12 7.5C9.87842 7.5 8 9.42289 8 12C8 14.5771 9.87842 16.5 12 16.5C14.1216 16.5 16 14.5771 16 12C16 9.42289 14.1216 7.5 12 7.5ZM6 12C6 8.50197 8.59874 5.5 12 5.5C15.4013 5.5 18 8.50197 18 12C18 15.498 15.4013 18.5 12 18.5C8.59874 18.5 6 15.498 6 12Z" fill="#222222"/>
<path fill-rule="evenodd" clip-rule="evenodd" d="M8 24.5C8.55228 24.5 9 24.9477 9 25.5V32.5C9 33.0523 8.55228 33.5 8 33.5C7.44772 33.5 7 33.0523 7 32.5V25.5C7 24.9477 7.44772 24.5 8 24.5Z" fill="#222222"/>
<path fill-rule="evenodd" clip-rule="evenodd" d="M40.4066 27.5596C40.5694 27.0318 41.1293 26.7361 41.657 26.8989C45.3295 28.0322 48 31.453 48 35.5V39.5C48 40.0523 47.5523 40.5 47 40.5C46.4477 40.5 46 40.0523 46 39.5V35.5C46 32.355 43.9252 29.6919 41.0672 28.81C40.5395 28.6471 40.2437 28.0873 40.4066 27.5596Z" fill="#222222"/>
<path fill-rule="evenodd" clip-rule="evenodd" d="M39 18.5C36.8784 18.5 35 20.4229 35 23C35 25.5771 36.8784 27.5 39 27.5C41.1216 27.5 43 25.5771 43 23C43 20.4229 41.1216 18.5 39 18.5ZM33 23C33 19.502 35.5987 16.5 39 16.5C42.4013 16.5 45 19.502 45 23C45 26.498 42.4013 29.5 39 29.5C35.5987 29.5 33 26.498 33 23Z" fill="#222222"/>
<path fill-rule="evenodd" clip-rule="evenodd" d="M49.5828 16.5926C49.7574 16.0686 50.3237 15.7855 50.8477 15.9601C54.4213 17.1513 57 20.5232 57 24.5V30.5C57 31.0523 56.5523 31.5 56 31.5C55.4477 31.5 55 31.0523 55 30.5V24.5C55 21.4097 52.9968 18.7846 50.2152 17.8575C49.6913 17.6828 49.4081 17.1165 49.5828 16.5926Z" fill="#222222"/>
<path fill-rule="evenodd" clip-rule="evenodd" d="M48 7.5C45.8784 7.5 44 9.42289 44 12C44 14.5771 45.8784 16.5 48 16.5C50.1216 16.5 52 14.5771 52 12C52 9.42289 50.1216 7.5 48 7.5ZM42 12C42 8.50197 44.5987 5.5 48 5.5C51.4013 5.5 54 8.50197 54 12C54 15.498 51.4013 18.5 48 18.5C44.5987 18.5 42 15.498 42 12Z" fill="#222222"/>
<path fill-rule="evenodd" clip-rule="evenodd" d="M30 29.5C27.8784 29.5 26 31.4229 26 34C26 36.5771 27.8784 38.5 30 38.5C32.1216 38.5 34 36.5771 34 34C34 31.4229 32.1216 29.5 30 29.5ZM24 34C24 30.502 26.5987 27.5 30 27.5C33.4013 27.5 36 30.502 36 34C36 37.498 33.4013 40.5 30 40.5C26.5987 40.5 24 37.498 24 34Z" fill="#222222"/>
</svg>
