<svg width="57" height="48" viewBox="0 0 57 48" fill="none" xmlns="http://www.w3.org/2000/svg">
<g id="Group 71">
<g id="Group 1">
<path id="Path" fill-rule="evenodd" clip-rule="evenodd" d="M25.005 11.597C25.005 7.33514 25.005 4.13874 25.005 4.13874C25.005 2.96186 25.9591 2.00781 27.1359 2.00781H43.1179C44.2948 2.00781 45.2488 2.96186 45.2488 4.13874V45.6919C45.2488 46.8688 46.4257 46.7574 45.2488 46.7574H27.1359C25.9591 46.7574 25.005 45.8033 25.005 44.6264V24.3826" fill="#DDE5ED"/>
<path id="Union" fill-rule="evenodd" clip-rule="evenodd" d="M25.005 7.33594C24.4166 7.33594 23.9396 7.81296 23.9396 8.4014C23.9396 8.98984 24.4166 9.46687 25.005 9.46687H34.5942C35.1827 9.46687 35.6597 8.98984 35.6597 8.4014C35.6597 7.81296 35.1827 7.33594 34.5942 7.33594H25.005ZM37.7903 13.7286C37.2019 13.7286 36.7249 14.2056 36.7249 14.7941C36.7249 15.3825 37.2019 15.8595 37.7903 15.8595H44.1831C44.7716 15.8595 45.2486 15.3825 45.2486 14.7941C45.2486 14.2056 44.7716 13.7286 44.1831 13.7286H37.7903Z" fill="#222222"/>
<path id="Union_2" fill-rule="evenodd" clip-rule="evenodd" d="M26.0705 4.1378C26.0705 3.54936 26.5475 3.07234 27.136 3.07234H43.118C43.7064 3.07234 44.1834 3.54936 44.1834 4.1378V45.6909H27.136C26.5475 45.6909 26.0705 45.2139 26.0705 44.6255V24.3816C26.0705 23.7932 25.5935 23.3162 25.005 23.3162C24.4166 23.3162 23.9396 23.7932 23.9396 24.3816V44.6255C23.9396 46.3908 25.3707 47.8219 27.136 47.8219H45.2489C45.3548 47.8219 45.4376 47.8228 45.5095 47.8236H45.5099L45.5769 47.8243L45.5893 47.8245C45.6434 47.8252 45.7796 47.827 45.8972 47.81C45.9384 47.8041 46.0244 47.79 46.1259 47.7531C46.2096 47.7226 46.4384 47.63 46.6211 47.3879C46.8509 47.0831 46.873 46.7291 46.7997 46.4596C46.7416 46.2459 46.6321 46.1059 46.5933 46.0581C46.515 45.9617 46.4296 45.8926 46.4165 45.882L46.4151 45.8808C46.4018 45.8698 46.3887 45.8594 46.3814 45.8536L46.3612 45.8373C46.3585 45.8352 46.3555 45.8334 46.3525 45.8317C46.335 45.8213 46.3143 45.8092 46.3143 45.6909V4.1378C46.3143 2.37248 44.8833 0.941406 43.118 0.941406H27.136C25.3707 0.941406 23.9396 2.37248 23.9396 4.1378V11.5961C23.9396 12.1845 24.4166 12.6615 25.005 12.6615C25.5935 12.6615 26.0705 12.1845 26.0705 11.5961V4.1378ZM38.8558 7.3341C38.2673 7.3341 37.7903 7.81113 37.7903 8.39957C37.7903 8.98801 38.2673 9.46503 38.8558 9.46503H40.9867C41.5752 9.46503 42.0522 8.98801 42.0522 8.39957C42.0522 7.81113 41.5752 7.3341 40.9867 7.3341H38.8558Z" fill="#222222"/>
<path id="Path 129" fill-rule="evenodd" clip-rule="evenodd" d="M4.76117 46.757V28.5588C4.76117 27.9367 5.033 27.3457 5.50531 26.9408L18.2909 15.9818C19.0889 15.2977 20.2665 15.2977 21.0645 15.9818L33.8501 26.9408C34.3224 27.3457 34.5942 27.9367 34.5942 28.5588V46.757" fill="#59CBE8"/>
<path id="Union_3" fill-rule="evenodd" clip-rule="evenodd" d="M18.9843 16.7898C19.3833 16.4478 19.9721 16.4478 20.3711 16.7898L33.1567 27.7488C33.3928 27.9513 33.5288 28.2468 33.5288 28.5578V45.8216H5.82666V38.2321H19.6777C20.2661 38.2321 20.7432 37.7551 20.7432 37.1667C20.7432 36.5782 20.2661 36.1012 19.6777 36.1012H5.82666V32.905H27.136C27.7244 32.905 28.2014 32.428 28.2014 31.8396C28.2014 31.2511 27.7244 30.7741 27.136 30.7741H5.82666V28.5578C5.82666 28.2468 5.96257 27.9513 6.19873 27.7488L18.9843 16.7898ZM3.69573 36.1012V32.905H2.63026C2.04182 32.905 1.56479 32.428 1.56479 31.8396C1.56479 31.2511 2.04182 30.7741 2.63026 30.7741H3.69573V28.5578C3.69573 27.6247 4.10347 26.7382 4.81193 26.1309L17.5975 15.1719C18.7945 14.1458 20.5609 14.1458 21.7579 15.1719L34.5435 26.1309C35.2519 26.7382 35.6597 27.6247 35.6597 28.5578V45.8216H50.9296C51.5485 45.8216 52.0502 46.2693 52.0502 46.8216C52.0502 47.3739 51.5485 47.8216 50.9296 47.8216H1.62C1.00107 47.8216 0.499329 47.3739 0.499329 46.8216C0.499329 46.2693 1.00107 45.8216 1.62 45.8216H3.69573V38.2321H2.63025C2.04181 38.2321 1.56478 37.7551 1.56478 37.1667C1.56478 36.5782 2.04181 36.1012 2.63025 36.1012H3.69573ZM26.0703 42.4939C26.0703 41.9055 26.5473 41.4285 27.1358 41.4285H30.3322C30.9206 41.4285 31.3976 41.9055 31.3976 42.4939C31.3976 43.0824 30.9206 43.5594 30.3322 43.5594H27.1358C26.5473 43.5594 26.0703 43.0824 26.0703 42.4939ZM9.02299 41.4285C8.43455 41.4285 7.95753 41.9055 7.95753 42.4939C7.95753 43.0824 8.43455 43.5594 9.02299 43.5594H10.0885C10.6769 43.5594 11.1539 43.0824 11.1539 42.4939C11.1539 41.9055 10.6769 41.4285 10.0885 41.4285H9.02299Z" fill="#222222"/>
</g>
<g id="Group 69">
<circle id="Ellipse 7" cx="40.0296" cy="29.1731" r="9" transform="rotate(45 40.0296 29.1731)" fill="white" stroke="#222222" stroke-width="2"/>
<g id="Rectangle 10">
<mask id="path-7-inside-1_11413_3855" fill="white">
<rect x="46.9876" y="34.7188" width="7.15962" height="2" rx="0.5" transform="rotate(45 46.9876 34.7188)"/>
</mask>
<rect x="46.9876" y="34.7188" width="7.15962" height="2" rx="0.5" transform="rotate(45 46.9876 34.7188)" fill="#222222" stroke="#222222" stroke-width="2" mask="url(#path-7-inside-1_11413_3855)"/>
</g>
</g>
</g>
</svg>
