<svg width="60" height="60" viewBox="0 0 60 60" fill="none" xmlns="http://www.w3.org/2000/svg">
<path fill-rule="evenodd" clip-rule="evenodd" d="M11.5068 36.5822C10.0602 36.8233 9 38.0749 9 39.5414V49L17 47L36 51L50.5963 43.1664V41L49 39.8287L34 44L33.5746 41L21 35L11.5068 36.5822Z" fill="#59CBE8"/>
<path fill-rule="evenodd" clip-rule="evenodd" d="M48.696 39.3101C49.7959 39.0199 50.932 39.6339 51.2917 40.7131C51.8253 42.3139 51.1264 44.0662 49.6375 44.8602L36.7245 51.7471C36.3533 51.9451 35.9241 52.0062 35.5124 51.9195L17.2445 48.0736C17.0962 48.0424 16.9429 48.0453 16.7959 48.082L9.24254 49.9704C8.94379 50.045 8.6273 49.9779 8.38459 49.7884C8.14187 49.5989 8 49.3082 8 49.0002V45.0002C8 44.4479 8.44772 44.0002 9 44.0002C9.55228 44.0002 10 44.4479 10 45.0002V47.7194L16.3109 46.1417C16.7517 46.0315 17.2118 46.0229 17.6565 46.1165L35.8502 49.9468L48.6963 43.0955C49.3246 42.7604 49.6195 42.021 49.3943 41.3455C49.3683 41.2673 49.286 41.2228 49.2063 41.2439L38.2551 44.1335C37.7211 44.2744 37.174 43.9557 37.0331 43.4217C36.8922 42.8877 37.2109 42.3406 37.7449 42.1997L48.696 39.3101Z" fill="#222222"/>
<path fill-rule="evenodd" clip-rule="evenodd" d="M20.8526 36.0317C20.8447 36.028 20.8358 36.0266 20.8271 36.0277L13.124 36.9906C12.576 37.0591 12.0762 36.6704 12.0077 36.1223C11.9392 35.5743 12.3279 35.0745 12.8759 35.006L20.579 34.0432C20.9584 33.9957 21.3436 34.0555 21.6907 34.2158L32.7662 39.3275C34.1612 39.9714 34.9013 41.5163 34.5286 43.0069C34.0861 44.777 32.2547 45.8188 30.507 45.2945L22.7126 42.9561C22.1836 42.7974 21.8835 42.24 22.0422 41.711C22.2009 41.182 22.7583 40.8818 23.2873 41.0405L31.0817 43.3788C31.7365 43.5752 32.4225 43.185 32.5883 42.5218C32.7279 41.9634 32.4507 41.3846 31.9281 41.1434L20.8526 36.0317Z" fill="#222222"/>
<path fill-rule="evenodd" clip-rule="evenodd" d="M10 30V15C10 13.8954 10.8954 13 12 13H48C49.1046 13 50 13.8954 50 15V33C50 34.1046 49.1046 35 48 35H32" fill="white"/>
<path fill-rule="evenodd" clip-rule="evenodd" d="M12 14C11.4477 14 11 14.4477 11 15V30C11 30.5523 10.5523 31 10 31C9.44772 31 9 30.5523 9 30V15C9 13.3431 10.3431 12 12 12H48C49.6569 12 51 13.3431 51 15V33C51 34.6569 49.6569 36 48 36H32C31.4477 36 31 35.5523 31 35C31 34.4477 31.4477 34 32 34H48C48.5523 34 49 33.5523 49 33V15C49 14.4477 48.5523 14 48 14H12Z" fill="#222222"/>
<path fill-rule="evenodd" clip-rule="evenodd" d="M15 24C15 23.4477 15.4477 23 16 23H19C19.5523 23 20 23.4477 20 24C20 24.5523 19.5523 25 19 25H16C15.4477 25 15 24.5523 15 24Z" fill="#222222"/>
<path fill-rule="evenodd" clip-rule="evenodd" d="M40 24C40 23.4477 40.4477 23 41 23H44C44.5523 23 45 23.4477 45 24C45 24.5523 44.5523 25 44 25H41C40.4477 25 40 24.5523 40 24Z" fill="#222222"/>
<path d="M25.328 30V27.462H26.696V24.258H25.328V22.926H26.768C26.48 22.494 26.192 21.846 26.192 20.982C26.192 18.912 27.992 17.076 30.35 17.076C32.6 17.076 34.436 18.858 34.526 21.09H31.79C31.79 20.226 31.16 19.614 30.35 19.614C29.54 19.614 28.928 20.19 28.928 21.234C28.928 22.152 29.54 22.926 30.584 22.926H31.79V24.258H29.432V27.462H34.526V30H25.328Z" fill="#222222"/>
<path fill-rule="evenodd" clip-rule="evenodd" d="M39 9C39 8.44772 39.4477 8 40 8H44C44.5523 8 45 8.44772 45 9C45 9.55228 44.5523 10 44 10H40C39.4477 10 39 9.55228 39 9Z" fill="#222222"/>
<path fill-rule="evenodd" clip-rule="evenodd" d="M34 9C34 8.44772 34.4477 8 35 8H36C36.5523 8 37 8.44772 37 9C37 9.55228 36.5523 10 36 10H35C34.4477 10 34 9.55228 34 9Z" fill="#222222"/>
</svg>
