<svg width="90" height="91" viewBox="0 0 90 91" fill="none" xmlns="http://www.w3.org/2000/svg">
<path fill-rule="evenodd" clip-rule="evenodd" d="M24 24.5H75V75.5H22.5C18.022 75.5 15 71.7911 15 67.649V24.5" fill="white"/>
<path d="M18 18L23 17.5L23.5 59.5L20.5 60.5L15 63.5V24L18 18Z" fill="#59CBE8"/>
<path fill-rule="evenodd" clip-rule="evenodd" d="M22.5 15.149C17.5294 15.149 13.5 19.1784 13.5 24.149C13.5 24.2084 13.5034 24.2669 13.5102 24.3245C13.5034 24.3821 13.5 24.4406 13.5 24.5V67.649C13.5 72.4836 17.0639 77 22.5 77H75C75.8284 77 76.5 76.3284 76.5 75.5V24.5C76.5 23.6716 75.8284 23 75 23H25.5V16.649C25.5 15.8206 24.8284 15.149 24 15.149H22.5ZM22.5 24.5V18.149C19.1863 18.149 16.5 20.8353 16.5 24.149C16.5 24.2084 16.4966 24.2669 16.4898 24.3245C16.4966 24.3821 16.5 24.4406 16.5 24.5V60.9407C18.0923 59.5155 20.1949 58.649 22.5 58.649V24.5ZM25.5 60.149V26H73.5V74H22.5C18.9801 74 16.5 71.0986 16.5 67.649C16.5 64.3353 19.1863 61.649 22.5 61.649H24C24.8284 61.649 25.5 60.9774 25.5 60.149Z" fill="#333333"/>
<path fill-rule="evenodd" clip-rule="evenodd" d="M76.149 16.649C76.149 15.8206 75.4774 15.149 74.649 15.149H67.149C66.3206 15.149 65.649 15.8206 65.649 16.649C65.649 17.4774 66.3206 18.149 67.149 18.149H74.649C75.4774 18.149 76.149 17.4774 76.149 16.649Z" fill="#333333"/>
<path fill-rule="evenodd" clip-rule="evenodd" d="M62.649 16.649C62.649 15.8206 61.9774 15.149 61.149 15.149H59.649C58.8206 15.149 58.149 15.8206 58.149 16.649C58.149 17.4774 58.8206 18.149 59.649 18.149H61.149C61.9774 18.149 62.649 17.4774 62.649 16.649Z" fill="#333333"/>
<path d="M40.5 50C40.5 52.4853 38.4853 54.5 36 54.5C33.5147 54.5 31.5 52.4853 31.5 50C31.5 47.5147 33.5147 45.5 36 45.5C38.4853 45.5 40.5 47.5147 40.5 50Z" fill="#59CBE8"/>
<path fill-rule="evenodd" clip-rule="evenodd" d="M36 47C34.3431 47 33 48.3431 33 50C33 51.6569 34.3431 53 36 53C37.6569 53 39 51.6569 39 50C39 48.3431 37.6569 47 36 47ZM30 50C30 46.6863 32.6863 44 36 44C39.3137 44 42 46.6863 42 50C42 53.3137 39.3137 56 36 56C32.6863 56 30 53.3137 30 50Z" fill="#333333"/>
<path d="M40.5 65C40.5 67.4853 38.4853 69.5 36 69.5C33.5147 69.5 31.5 67.4853 31.5 65C31.5 62.5147 33.5147 60.5 36 60.5C38.4853 60.5 40.5 62.5147 40.5 65Z" fill="#59CBE8"/>
<path fill-rule="evenodd" clip-rule="evenodd" d="M36 62C34.3431 62 33 63.3431 33 65C33 66.6569 34.3431 68 36 68C37.6569 68 39 66.6569 39 65C39 63.3431 37.6569 62 36 62ZM30 65C30 61.6863 32.6863 59 36 59C39.3137 59 42 61.6863 42 65C42 68.3137 39.3137 71 36 71C32.6863 71 30 68.3137 30 65Z" fill="#333333"/>
<path fill-rule="evenodd" clip-rule="evenodd" d="M45 35C45 34.1716 45.6716 33.5 46.5 33.5H66C66.8284 33.5 67.5 34.1716 67.5 35C67.5 35.8284 66.8284 36.5 66 36.5H46.5C45.6716 36.5 45 35.8284 45 35Z" fill="#333333"/>
<path fill-rule="evenodd" clip-rule="evenodd" d="M45 50C45 49.1716 45.6716 48.5 46.5 48.5H55.5C56.3284 48.5 57 49.1716 57 50C57 50.8284 56.3284 51.5 55.5 51.5H46.5C45.6716 51.5 45 50.8284 45 50Z" fill="#333333"/>
<path fill-rule="evenodd" clip-rule="evenodd" d="M45 65C45 64.1716 45.6716 63.5 46.5 63.5H60C60.8284 63.5 61.5 64.1716 61.5 65C61.5 65.8284 60.8284 66.5 60 66.5H46.5C45.6716 66.5 45 65.8284 45 65Z" fill="#333333"/>
<path fill-rule="evenodd" clip-rule="evenodd" d="M42.8249 29.6751C43.2806 30.1307 43.2806 30.8694 42.8249 31.325L35.8249 38.325C35.3693 38.7806 34.6306 38.7806 34.175 38.325L30.675 34.825C30.2194 34.3694 30.2194 33.6307 30.675 33.1751C31.1306 32.7194 31.8693 32.7194 32.3249 33.1751L35 35.8501L41.175 29.6751C41.6306 29.2194 42.3693 29.2194 42.8249 29.6751Z" fill="#333333"/>
</svg>
