<svg width="90" height="91" viewBox="0 0 90 91" fill="none" xmlns="http://www.w3.org/2000/svg">
<rect y="0.5" width="90" height="90" rx="45" fill="white"/>
<path fill-rule="evenodd" clip-rule="evenodd" d="M35 22.5L35 66.7642C35 67.1706 35.3295 67.5 35.7358 67.5C42.5092 67.5 48 62.0092 48 55.2359V49.3077L46 43.5L41.5 39.8462L39.875 38.2692L43.125 33.5385L42.25 27.0025L37 22.5H35Z" fill="#59CBE8"/>
<path fill-rule="evenodd" clip-rule="evenodd" d="M26 31C26 25.8113 29.9732 21.5 35 21.5C40.0268 21.5 44 25.8113 44 31C44 33.8314 42.8169 36.4016 40.925 38.1525C44.2906 39.6656 46.7767 42.4891 47.9413 45.9962C47.9793 46.1019 48 46.2158 48 46.3346C48 46.8869 47.5523 47.3346 47 47.3346C46.5213 47.3346 46.1212 46.9983 46.023 46.549C44.8993 43.188 42.3732 40.642 38.9609 39.5355C37.7702 40.1523 36.4276 40.5 35 40.5C33.5721 40.5 32.2292 40.1521 31.0383 39.5351C26.3775 41.0389 23 45.4374 23 50.6321V67.5C23 68.0523 22.5523 68.5 22 68.5C21.4477 68.5 21 68.0523 21 67.5V50.6321C21 45.0647 24.315 40.2738 29.0722 38.1499C27.182 36.3991 26 33.8301 26 31ZM35 23.5C31.1903 23.5 28 26.7999 28 31C28 35.2001 31.1903 38.5 35 38.5C38.8097 38.5 42 35.2001 42 31C42 26.7999 38.8097 23.5 35 23.5Z" fill="#333333"/>
<path d="M34 51.5C34 50.3954 34.8954 49.5 36 49.5H66C67.1046 49.5 68 50.3954 68 51.5V65.5C68 66.6046 67.1046 67.5 66 67.5H36C34.8954 67.5 34 66.6046 34 65.5V51.5Z" fill="white"/>
<path fill-rule="evenodd" clip-rule="evenodd" d="M33 51.5C33 49.8431 34.3431 48.5 36 48.5H66C67.6569 48.5 69 49.8431 69 51.5V65.5C69 67.1569 67.6569 68.5 66 68.5H36C34.3431 68.5 33 67.1569 33 65.5V51.5ZM36 50.5C35.4477 50.5 35 50.9477 35 51.5V65.5C35 66.0523 35.4477 66.5 36 66.5H66C66.5523 66.5 67 66.0523 67 65.5V51.5C67 50.9477 66.5523 50.5 66 50.5H36Z" fill="#333333"/>
<path fill-rule="evenodd" clip-rule="evenodd" d="M39 58.5C39 57.9477 39.4477 57.5 40 57.5H42C42.5523 57.5 43 57.9477 43 58.5C43 59.0523 42.5523 59.5 42 59.5H40C39.4477 59.5 39 59.0523 39 58.5Z" fill="#333333"/>
<path fill-rule="evenodd" clip-rule="evenodd" d="M59 58.5C59 57.9477 59.4477 57.5 60 57.5H62C62.5523 57.5 63 57.9477 63 58.5C63 59.0523 62.5523 59.5 62 59.5H60C59.4477 59.5 59 59.0523 59 58.5Z" fill="#333333"/>
<path d="M54 58.5C54 60.1569 52.6569 61.5 51 61.5C49.3431 61.5 48 60.1569 48 58.5C48 56.8431 49.3431 55.5 51 55.5C52.6569 55.5 54 56.8431 54 58.5Z" fill="#59CBE8"/>
<path fill-rule="evenodd" clip-rule="evenodd" d="M50 55.5C50 54.9477 50.4477 54.5 51 54.5C53.2091 54.5 55 56.2909 55 58.5C55 60.7091 53.2091 62.5 51 62.5C50.4477 62.5 50 62.0523 50 61.5C50 60.9477 50.4477 60.5 51 60.5C52.1046 60.5 53 59.6046 53 58.5C53 57.3954 52.1046 56.5 51 56.5C50.4477 56.5 50 56.0523 50 55.5Z" fill="#333333"/>
</svg>
