<svg width="60" height="60" viewBox="0 0 60 60" fill="none" xmlns="http://www.w3.org/2000/svg">
<path d="M8.90662 33.5C8.90662 28.5294 12.9361 24.5 17.9066 24.5H23.9066V51.5H8.90662V33.5Z" fill="white"/>
<ellipse cx="20.9066" cy="16" rx="8" ry="8.5" fill="white"/>
<path fill-rule="evenodd" clip-rule="evenodd" d="M21.2884 7.5L21.2884 51.7519C21.2884 52.1651 21.6233 52.5 22.0365 52.5C28.9227 52.5 34.5051 46.9176 34.5051 40.0314V34.3077L32.4717 28.5L27.8967 24.8462L26.2446 23.2692L29.5488 18.5385L28.6592 12.0025L23.3217 7.5H21.2884Z" fill="#59CBE8"/>
<path fill-rule="evenodd" clip-rule="evenodd" d="M18.1961 23.2148C18.3564 23.7441 18.05 24.301 17.5119 24.4587C12.6441 25.8847 9.08839 30.3462 9.08839 35.6324V52.5003C9.08839 53.0525 8.63321 53.5003 8.07172 53.5003C7.51023 53.5003 7.05505 53.0525 7.05505 52.5003V35.6324C7.05505 29.4442 11.2187 24.2154 16.9315 22.5419C17.4697 22.3842 18.0358 22.6855 18.1961 23.2148Z" fill="#222222"/>
<path fill-rule="evenodd" clip-rule="evenodd" d="M24.3816 23.3769C24.543 22.8479 25.1098 22.5478 25.6476 22.7065C31.3807 24.399 35.2233 29.4679 35.2233 35.6242V37.4986C35.2233 38.0509 34.7681 38.4986 34.2067 38.4986C33.6452 38.4986 33.19 38.0509 33.19 37.4986V35.6242C33.19 30.3294 29.9154 26.0545 25.0631 24.6221C24.5253 24.4634 24.2202 23.9058 24.3816 23.3769Z" fill="#222222"/>
<path fill-rule="evenodd" clip-rule="evenodd" d="M14.1717 36.5C14.7332 36.5 15.1884 36.9477 15.1884 37.5V48.5C15.1884 49.0523 14.7332 49.5 14.1717 49.5C13.6102 49.5 13.155 49.0523 13.155 48.5V37.5C13.155 36.9477 13.6102 36.5 14.1717 36.5Z" fill="#222222"/>
<path fill-rule="evenodd" clip-rule="evenodd" d="M21.2884 8.5C17.4151 8.5 14.1717 11.7999 14.1717 16C14.1717 20.2001 17.4151 23.5 21.2884 23.5C25.1616 23.5 28.405 20.2001 28.405 16C28.405 11.7999 25.1616 8.5 21.2884 8.5ZM12.1384 16C12.1384 10.8113 16.1778 6.5 21.2884 6.5C26.399 6.5 30.4384 10.8113 30.4384 16C30.4384 21.1887 26.399 25.5 21.2884 25.5C16.1778 25.5 12.1384 21.1887 12.1384 16Z" fill="#222222"/>
<path d="M27.5215 51.0312V41.0312L35.5999 45.0974L35.8759 53.4467C35.9926 54.1266 36.3553 55.3757 35.2002 54.8076L33.468 53.9558L27.5215 51.0312Z" fill="#DDE5ED"/>
<path fill-rule="evenodd" clip-rule="evenodd" d="M39.162 38.4358C38.915 38.9298 39.1152 39.5305 39.6092 39.7775L41.7573 40.8515L35.9933 43.7335L28.4603 39.967C28.3783 39.9236 28.2894 39.8913 28.1959 39.872C28.0938 39.8508 27.9905 39.8462 27.8895 39.8568C27.7285 39.8734 27.5788 39.9282 27.4497 40.012C27.3409 40.0824 27.2446 40.1745 27.1684 40.2861C27.0985 40.3878 27.047 40.5031 27.0186 40.6271C26.9998 40.7083 26.9916 40.7904 26.9933 40.8717V50.8515C26.9933 51.2303 27.2073 51.5765 27.5461 51.7459L35.0989 55.5223C35.6619 55.8038 36.3247 55.8038 36.8877 55.5223L44.4405 51.7459C44.7793 51.5765 44.9933 51.2303 44.9933 50.8515V40.8716C44.9962 40.7353 44.9711 40.5966 44.9153 40.4641C44.8998 40.4274 44.8822 40.3916 44.8625 40.357C44.7606 40.1775 44.6103 40.0408 44.4364 39.955L40.5036 37.9886C40.0096 37.7416 39.409 37.9418 39.162 38.4358ZM42.9933 50.2335V42.4696L36.9933 45.4696V53.2335L42.9933 50.2335ZM34.9933 53.2335L28.9933 50.2335V42.4696L34.9933 45.4696V53.2335Z" fill="#222222"/>
<path fill-rule="evenodd" clip-rule="evenodd" d="M26.9542 19.5369C24.6499 20.4679 23.5366 23.0907 24.4676 25.395L28.9629 36.5212C29.8939 38.8255 32.5166 39.9388 34.8209 39.0078C37.1252 38.0768 38.2385 35.454 37.3075 33.1497L32.8122 22.0235C31.8812 19.7192 29.2585 18.6059 26.9542 19.5369Z" fill="white"/>
<path fill-rule="evenodd" clip-rule="evenodd" d="M30.8172 35.772L26.322 24.6458C25.8047 23.3656 26.4232 21.9085 27.7034 21.3913C28.9836 20.8741 30.4407 21.4926 30.9579 22.7727L35.4532 33.8989C35.9704 35.1791 35.3519 36.6362 34.0717 37.1534C32.7915 37.6706 31.3345 37.0522 30.8172 35.772ZM24.4676 25.395C23.5366 23.0907 24.6499 20.4679 26.9542 19.5369C29.2585 18.6059 31.8812 19.7192 32.8122 22.0235L37.3075 33.1497C38.2385 35.454 37.1252 38.0768 34.8209 39.0078C32.5166 39.9388 29.8939 38.8255 28.9629 36.5212L24.4676 25.395Z" fill="#222222"/>
<path d="M45.9933 23.3516C45.9933 20.8663 43.9786 18.8516 41.4933 18.8516H28.4933C26.008 18.8516 23.9933 20.8663 23.9933 23.3516C23.9933 25.8368 26.008 27.8516 28.4933 27.8516H41.4933C43.9786 27.8516 45.9933 25.8368 45.9933 23.3516Z" fill="white"/>
<path fill-rule="evenodd" clip-rule="evenodd" d="M28.4933 20.8516H41.4933C42.874 20.8516 43.9933 21.9709 43.9933 23.3516C43.9933 24.7323 42.874 25.8516 41.4933 25.8516H28.4933C27.1126 25.8516 25.9933 24.7323 25.9933 23.3516C25.9933 21.9709 27.1126 20.8516 28.4933 20.8516ZM41.4933 18.8516C43.9786 18.8516 45.9933 20.8663 45.9933 23.3516C45.9933 25.8368 43.9786 27.8516 41.4933 27.8516H28.4933C26.008 27.8516 23.9933 25.8368 23.9933 23.3516C23.9933 20.8663 26.008 18.8516 28.4933 18.8516H41.4933Z" fill="#222222"/>
<circle cx="6.5" cy="6.5" r="6.5" transform="matrix(-1 0 0 1 52.9933 16.8516)" fill="#DDE5ED" stroke="#222222" stroke-width="2"/>
<path fill-rule="evenodd" clip-rule="evenodd" d="M46.4933 25.8516C45.1126 25.8516 43.9933 24.7323 43.9933 23.3516C43.9933 21.9709 45.1126 20.8516 46.4933 20.8516C47.874 20.8516 48.9933 21.9709 48.9933 23.3516C48.9933 24.7323 47.874 25.8516 46.4933 25.8516Z" fill="white"/>
<path d="M44.9933 23.3516C44.9933 24.18 45.6649 24.8516 46.4933 24.8516V26.8516C44.5603 26.8516 42.9933 25.2846 42.9933 23.3516H44.9933ZM46.4933 21.8516C45.6649 21.8516 44.9933 22.5231 44.9933 23.3516H42.9933C42.9933 21.4186 44.5603 19.8516 46.4933 19.8516V21.8516ZM47.9933 23.3516C47.9933 22.5231 47.3217 21.8516 46.4933 21.8516V19.8516C48.4263 19.8516 49.9933 21.4186 49.9933 23.3516H47.9933ZM46.4933 24.8516C47.3217 24.8516 47.9933 24.18 47.9933 23.3516H49.9933C49.9933 25.2846 48.4263 26.8516 46.4933 26.8516V24.8516Z" fill="#222222"/>
</svg>
