<svg width="60" height="60" viewBox="0 0 60 60" fill="none" xmlns="http://www.w3.org/2000/svg">
<rect width="60" height="60" fill="white"/>
<path fill-rule="evenodd" clip-rule="evenodd" d="M5.72211 37.0718C6.25217 36.9167 6.8076 37.2206 6.9627 37.7507C7.23602 38.6847 7.56463 39.5952 7.94477 40.4784C10.084 45.4483 13.8554 49.5525 18.5837 52.1145C19.0693 52.3776 19.2497 52.9845 18.9866 53.4701C18.7235 53.9557 18.1165 54.136 17.6309 53.8729C12.5099 51.0982 8.42572 46.6543 6.10772 41.2691C5.6957 40.3119 5.33948 39.3249 5.04319 38.3123C4.88809 37.7823 5.19205 37.2269 5.72211 37.0718ZM54.2731 37.0906C54.8031 37.2461 55.1066 37.8018 54.9511 38.3317C53.0032 44.9693 48.481 50.5023 42.5405 53.7791C42.057 54.0459 41.4487 53.8701 41.1819 53.3865C40.9152 52.9029 41.091 52.2947 41.5745 52.0279C47.0605 49.0018 51.2351 43.8917 53.032 37.7685C53.1875 37.2386 53.7432 36.9351 54.2731 37.0906Z" fill="#222222"/>
<path fill-rule="evenodd" clip-rule="evenodd" d="M21 17V28L24 27L26 24L25 19L23 17H21Z" fill="#59CBE8"/>
<path fill-rule="evenodd" clip-rule="evenodd" d="M12 6V17L15 16L17 13L16 8L14 6H12Z" fill="#59CBE8"/>
<path fill-rule="evenodd" clip-rule="evenodd" d="M19.5017 27.0771C19.6707 27.6029 19.3814 28.1661 18.8556 28.3351C16.0374 29.2409 14 31.8842 14 35.0008V40.0008C14 40.5531 13.5523 41.0008 13 41.0008C12.4477 41.0008 12 40.5531 12 40.0008V35.0008C12 30.9903 14.6225 27.5949 18.2436 26.431C18.7694 26.2621 19.3327 26.5513 19.5017 27.0771Z" fill="#222222"/>
<path fill-rule="evenodd" clip-rule="evenodd" d="M21 18C18.8784 18 17 19.9229 17 22.5C17 25.0771 18.8784 27 21 27C23.1216 27 25 25.0771 25 22.5C25 19.9229 23.1216 18 21 18ZM15 22.5C15 19.002 17.5987 16 21 16C24.4013 16 27 19.002 27 22.5C27 25.998 24.4013 29 21 29C17.5987 29 15 25.998 15 22.5Z" fill="#222222"/>
<path fill-rule="evenodd" clip-rule="evenodd" d="M17 35C17.5523 35 18 35.4477 18 36V43C18 43.5523 17.5523 44 17 44C16.4477 44 16 43.5523 16 43V36C16 35.4477 16.4477 35 17 35Z" fill="#222222"/>
<path fill-rule="evenodd" clip-rule="evenodd" d="M48 6V29.5472C48 29.7973 48.2027 30 48.4528 30H49C52.866 30 56 26.866 56 23L55 20L52 17L51 16L53 13L52 8L50 6H48Z" fill="#59CBE8"/>
<path fill-rule="evenodd" clip-rule="evenodd" d="M39 17V40.5472C39 40.7973 39.2027 41 39.4528 41H40C43.866 41 47 37.866 47 34L46 31L43 28L42 27L44 24L43 19L41 17H39Z" fill="#59CBE8"/>
<path fill-rule="evenodd" clip-rule="evenodd" d="M30 28V53.5472C30 53.7973 30.2027 54 30.4528 54C34.621 54 38 50.621 38 46.4528V45L37 42L34 39L33 38L35 35L34 30L32 28H30Z" fill="#59CBE8"/>
<path fill-rule="evenodd" clip-rule="evenodd" d="M28.4589 38.2164C28.6156 38.7459 28.3135 39.3023 27.7839 39.4591C24.9055 40.3113 23 42.8079 23 46.0003V54.0003C23 54.5526 22.5523 55.0003 22 55.0003C21.4477 55.0003 21 54.5526 21 54.0003V46.0003C21 41.9368 23.4743 38.6493 27.2161 37.5414C27.7457 37.3846 28.3021 37.6868 28.4589 38.2164Z" fill="#222222"/>
<path fill-rule="evenodd" clip-rule="evenodd" d="M31.5419 38.2134C31.7004 37.6843 32.2577 37.3839 32.7868 37.5423C36.5113 38.6577 39 41.9428 39 46.0003V54.0003C39 54.5526 38.5523 55.0003 38 55.0003C37.4477 55.0003 37 54.5526 37 54.0003V46.0003C37 42.8193 35.0843 40.3181 32.213 39.4582C31.6839 39.2998 31.3835 38.7424 31.5419 38.2134Z" fill="#222222"/>
<path fill-rule="evenodd" clip-rule="evenodd" d="M26 46C26.5523 46 27 46.4477 27 47V54C27 54.5523 26.5523 55 26 55C25.4477 55 25 54.5523 25 54V47C25 46.4477 25.4477 46 26 46Z" fill="#222222"/>
<path fill-rule="evenodd" clip-rule="evenodd" d="M10.308 16.1162C10.4899 16.6376 10.2147 17.2078 9.69322 17.3898C6.95922 18.3436 5 20.9448 5 24.0011V30.0011C5 30.5534 4.55228 31.0011 4 31.0011C3.44772 31.0011 3 30.5534 3 30.0011V24.0011C3 20.0681 5.52223 16.7267 9.03441 15.5014C9.55587 15.3195 10.1261 15.5947 10.308 16.1162Z" fill="#222222"/>
<path fill-rule="evenodd" clip-rule="evenodd" d="M12 7C9.87842 7 8 8.92289 8 11.5C8 14.0771 9.87842 16 12 16C14.1216 16 16 14.0771 16 11.5C16 8.92289 14.1216 7 12 7ZM6 11.5C6 8.00197 8.59874 5 12 5C15.4013 5 18 8.00197 18 11.5C18 14.998 15.4013 18 12 18C8.59874 18 6 14.998 6 11.5Z" fill="#222222"/>
<path fill-rule="evenodd" clip-rule="evenodd" d="M8 24C8.55228 24 9 24.4477 9 25V32C9 32.5523 8.55228 33 8 33C7.44772 33 7 32.5523 7 32V25C7 24.4477 7.44772 24 8 24Z" fill="#222222"/>
<path fill-rule="evenodd" clip-rule="evenodd" d="M40.4065 27.0609C40.5694 26.5331 41.1292 26.2373 41.657 26.4002C45.3295 27.5335 48 30.9542 48 35.0013V39.0013C48 39.5536 47.5523 40.0013 47 40.0013C46.4477 40.0013 46 39.5536 46 39.0013V35.0013C46 31.8563 43.9251 29.1932 41.0672 28.3113C40.5395 28.1484 40.2437 27.5886 40.4065 27.0609Z" fill="#222222"/>
<path fill-rule="evenodd" clip-rule="evenodd" d="M39 18C36.8784 18 35 19.9229 35 22.5C35 25.0771 36.8784 27 39 27C41.1216 27 43 25.0771 43 22.5C43 19.9229 41.1216 18 39 18ZM33 22.5C33 19.002 35.5987 16 39 16C42.4013 16 45 19.002 45 22.5C45 25.998 42.4013 29 39 29C35.5987 29 33 25.998 33 22.5Z" fill="#222222"/>
<path fill-rule="evenodd" clip-rule="evenodd" d="M49.5828 16.0942C49.7574 15.5703 50.3237 15.2871 50.8477 15.4617C54.4214 16.6529 57 20.0248 57 24.0016V30.0016C57 30.5539 56.5523 31.0016 56 31.0016C55.4477 31.0016 55 30.5539 55 30.0016V24.0016C55 20.9113 52.9968 18.2862 50.2152 17.3591C49.6913 17.1845 49.4081 16.6182 49.5828 16.0942Z" fill="#222222"/>
<path fill-rule="evenodd" clip-rule="evenodd" d="M48 7C45.8784 7 44 8.92289 44 11.5C44 14.0771 45.8784 16 48 16C50.1216 16 52 14.0771 52 11.5C52 8.92289 50.1216 7 48 7ZM42 11.5C42 8.00197 44.5987 5 48 5C51.4013 5 54 8.00197 54 11.5C54 14.998 51.4013 18 48 18C44.5987 18 42 14.998 42 11.5Z" fill="#222222"/>
<path fill-rule="evenodd" clip-rule="evenodd" d="M30 29C27.8784 29 26 30.9229 26 33.5C26 36.0771 27.8784 38 30 38C32.1216 38 34 36.0771 34 33.5C34 30.9229 32.1216 29 30 29ZM24 33.5C24 30.002 26.5987 27 30 27C33.4013 27 36 30.002 36 33.5C36 36.998 33.4013 40 30 40C26.5987 40 24 36.998 24 33.5Z" fill="#222222"/>
</svg>
