<svg width="90" height="91" viewBox="0 0 90 91" fill="none" xmlns="http://www.w3.org/2000/svg">
<path fill-rule="evenodd" clip-rule="evenodd" d="M74.1162 34.6951C73.0917 31.2116 68.9049 29.8212 66 31.9999V31.9999L57 26.1071H52.5L35.2279 33.4999L34.2765 36.4999L35.2279 39.4999H40.16L47.9558 36.4999L54 37.9999L64.5 53.7499L67.5 55.9999L72 52.9999V52.9999C75.7465 52.9999 78.4409 49.3989 77.3837 45.8047L74.1162 34.6951Z" fill="#59CBE8"/>
<path fill-rule="evenodd" clip-rule="evenodd" d="M54.0173 23.5365C55.0318 23.0631 56.2227 23.1727 57.1337 23.8235L65.9784 30.1411L69.5 27.4999C70.7982 26.5262 72.3772 25.9999 74 25.9999H81C81.8284 25.9999 82.5 26.6715 82.5 27.4999C82.5 28.3283 81.8284 28.9999 81 28.9999H74C73.0263 28.9999 72.0789 29.3157 71.3 29.8999L66.9 33.1999C66.377 33.5922 65.6601 33.6005 65.1281 33.2205L55.39 26.2647C55.3596 26.243 55.3198 26.2393 55.286 26.2551L37.1277 34.7289C36.042 35.2356 35.6211 36.5618 36.2158 37.6019C36.7192 38.4822 37.791 38.8617 38.7362 38.4942L50.5845 33.8872C51.6807 33.461 52.9252 33.8727 53.5509 34.8685L65.5365 53.943C66.0032 54.6857 67.0049 54.8713 67.7066 54.3449L69.5 52.9999C70.7982 52.0262 72.3772 51.4999 74 51.4999H81C81.8284 51.4999 82.5 52.1715 82.5 52.9999C82.5 53.8283 81.8284 54.4999 81 54.4999H74C73.0263 54.4999 72.0789 54.8157 71.3 55.3999L69.5066 56.745C67.4014 58.3239 64.3965 57.7673 62.9964 55.5391L51.251 36.8469L39.8234 41.2902C37.4939 42.196 34.8522 41.2608 33.6115 39.0911C32.1457 36.5277 33.1833 33.2591 35.8591 32.0104L54.0173 23.5365Z" fill="#333333"/>
<path fill-rule="evenodd" clip-rule="evenodd" d="M40.6893 25.733C36.7667 23.9024 32.1623 24.3264 28.6398 26.8424L24.0216 30.1411L20.5 27.4999C19.2018 26.5262 17.6228 25.9999 16 25.9999H8.99998C8.17155 25.9999 7.49998 26.6715 7.49998 27.4999C7.49998 28.3283 8.17155 28.9999 8.99998 28.9999H16C16.9736 28.9999 17.921 29.3157 18.7 29.8999L23.1 33.1999C23.623 33.5922 24.3398 33.6005 24.8718 33.2205L30.3836 29.2836C33.0254 27.3966 36.4787 27.0786 39.4207 28.4515L39.5257 28.5005C40.2764 28.8509 41.1689 28.5263 41.5193 27.7756C41.8696 27.0249 41.545 26.1323 40.7943 25.782L40.6893 25.733Z" fill="#333333"/>
<path fill-rule="evenodd" clip-rule="evenodd" d="M29.6625 41.4017C29.181 42.0758 29.3371 43.0126 30.0113 43.4942L33.3767 45.8981C35.8156 47.6401 38.9616 48.0538 41.768 47.0014L47.7486 44.7587C48.4125 44.5097 49.1601 44.7597 49.5407 45.3579L58.0885 58.7901L47.8089 69.0697L23.3436 52.7595C22.1116 51.9382 20.664 51.4999 19.1833 51.4999H8.99999C8.17157 51.4999 7.49999 52.1715 7.49999 52.9999C7.49999 53.8283 8.17157 54.4999 8.99999 54.4999H19.1833C20.0718 54.4999 20.9403 54.7629 21.6795 55.2557L47.1679 72.248C47.7629 72.6446 48.5551 72.5662 49.0607 72.0606L60.2098 60.9114C61.2041 59.9171 61.3744 58.3657 60.6195 57.1794L52.0717 43.7472C50.9297 41.9526 48.687 41.2028 46.6952 41.9497L40.7146 44.1924C38.8437 44.894 36.7463 44.6182 35.1204 43.4569L31.755 41.053C31.0808 40.5714 30.144 40.7276 29.6625 41.4017Z" fill="#333333"/>
<path d="M26.7868 61.4269C25.2477 60.0411 25.1234 57.67 26.5092 56.1309L29.5203 52.7867C30.9061 51.2476 33.2773 51.1234 34.8164 52.5092L45.9635 62.5461C47.5026 63.9319 47.6269 66.3031 46.2411 67.8422L43.23 71.1863C41.8442 72.7254 39.4731 72.8497 37.934 71.4639L26.7868 61.4269Z" fill="#59CBE8"/>
<path fill-rule="evenodd" clip-rule="evenodd" d="M31.7498 54.7941L28.7387 58.1383C28.4615 58.4461 28.4864 58.9203 28.7942 59.1975L39.9414 69.2344C40.2492 69.5116 40.7234 69.4867 41.0006 69.1789L44.0116 65.8348C44.2888 65.5269 44.264 65.0527 43.9561 64.7756L32.809 54.7386C32.5011 54.4614 32.0269 54.4863 31.7498 54.7941ZM26.5092 56.1309C25.1234 57.67 25.2477 60.0411 26.7868 61.4269L37.934 71.4639C39.4731 72.8497 41.8442 72.7254 43.23 71.1863L46.2411 67.8422C47.6269 66.3031 47.5026 63.9319 45.9635 62.5461L34.8164 52.5092C33.2773 51.1234 30.9061 51.2476 29.5203 52.7867L26.5092 56.1309Z" fill="#333333"/>
<path fill-rule="evenodd" clip-rule="evenodd" d="M12 17C12 16.1716 12.6716 15.5 13.5 15.5H19.5C20.3284 15.5 21 16.1716 21 17C21 17.8284 20.3284 18.5 19.5 18.5H13.5C12.6716 18.5 12 17.8284 12 17Z" fill="#333333"/>
<path fill-rule="evenodd" clip-rule="evenodd" d="M63 66.5C63 65.6716 63.6716 65 64.5 65H69C69.8284 65 70.5 65.6716 70.5 66.5C70.5 67.3284 69.8284 68 69 68H64.5C63.6716 68 63 67.3284 63 66.5Z" fill="#333333"/>
<path fill-rule="evenodd" clip-rule="evenodd" d="M24 17C24 16.1716 24.6716 15.5 25.5 15.5H27C27.8284 15.5 28.5 16.1716 28.5 17C28.5 17.8284 27.8284 18.5 27 18.5H25.5C24.6716 18.5 24 17.8284 24 17Z" fill="#333333"/>
<path fill-rule="evenodd" clip-rule="evenodd" d="M73.5 66.5C73.5 65.6716 74.1716 65 75 65H76.5C77.3284 65 78 65.6716 78 66.5C78 67.3284 77.3284 68 76.5 68H75C74.1716 68 73.5 67.3284 73.5 66.5Z" fill="#333333"/>
</svg>
