<svg width="60" height="60" viewBox="0 0 60 60" fill="none" xmlns="http://www.w3.org/2000/svg">
<path fill-rule="evenodd" clip-rule="evenodd" d="M9.80603 52.1338V27.2253C9.80603 26.3738 10.1781 25.5649 10.8246 25.0108L28.3246 10.0108C29.4168 9.07454 31.0286 9.07454 32.1208 10.0108L49.6209 25.0108C50.2673 25.5649 50.6394 26.3738 50.6394 27.2253V52.1338" fill="white"/>
<path fill-rule="evenodd" clip-rule="evenodd" d="M30.2227 51.6016H9.80603V26.2714C9.80603 25.6876 10.0612 25.1329 10.5044 24.7529L30.2227 7.85156V51.6016Z" fill="#59CBE8"/>
<path d="M9.80603 51.6016V26.2714C9.80603 25.6876 10.0612 25.1329 10.5044 24.7529L28.9211 8.96721C29.6701 8.32522 30.7753 8.32522 31.5243 8.9672L36.7443 13.4415" stroke="#222222" stroke-width="2" stroke-linecap="round" stroke-linejoin="round"/>
<path d="M49.3894 51.7695H5.38939" stroke="#222222" stroke-width="2" stroke-linecap="round"/>
<path d="M42.8552 40.9648L35.0196 44.8139V54.8146L42.8552 51.1717V40.9648Z" fill="white"/>
<path d="M27.4609 50.8555V40.8555L35.1396 44.6014L35.1396 54.6319L27.4609 50.8555Z" fill="#DDE5ED"/>
<path fill-rule="evenodd" clip-rule="evenodd" d="M38.162 38.4397C37.915 38.9337 38.1153 39.5344 38.6092 39.7814L40.7574 40.8554L34.9934 43.7374L27.4604 39.9709C27.3783 39.9275 27.2895 39.8952 27.1959 39.8759C27.0939 39.8548 26.9906 39.8501 26.8896 39.8607C26.7286 39.8773 26.5789 39.9321 26.4497 40.0159C26.3409 40.0863 26.2447 40.1784 26.1684 40.29C26.0986 40.3917 26.0471 40.507 26.0186 40.631C25.9999 40.7122 25.9917 40.7943 25.9934 40.8756V50.8554C25.9934 51.2342 26.2074 51.5804 26.5462 51.7498L34.0989 55.5262C34.662 55.8077 35.3247 55.8077 35.8878 55.5262L43.4406 51.7498C43.7794 51.5804 43.9934 51.2342 43.9934 50.8554V40.8755C43.9962 40.7392 43.9711 40.6005 43.9153 40.468C43.8999 40.4313 43.8822 40.3955 43.8626 40.3609C43.7607 40.1814 43.6103 40.0447 43.4365 39.9589L39.5037 37.9925C39.0097 37.7455 38.409 37.9457 38.162 38.4397ZM41.9934 50.2374V42.4735L35.9934 45.4735V53.2374L41.9934 50.2374ZM33.9934 53.2374L27.9934 50.2374V42.4735L33.9934 45.4735V53.2374Z" fill="#222222"/>
<path fill-rule="evenodd" clip-rule="evenodd" d="M25.9543 19.5408C23.65 20.4718 22.5367 23.0946 23.4677 25.3989L27.963 36.5251C28.894 38.8294 31.5167 39.9427 33.821 39.0117C36.1254 38.0807 37.2386 35.4579 36.3076 33.1536L31.8124 22.0274C30.8814 19.7231 28.2586 18.6098 25.9543 19.5408Z" fill="white"/>
<path fill-rule="evenodd" clip-rule="evenodd" d="M29.8173 35.7759L25.322 24.6497C24.8048 23.3695 25.4233 21.9124 26.7035 21.3952C27.9836 20.878 29.4407 21.4965 29.9579 22.7766L34.4532 33.9029C34.9704 35.183 34.3519 36.6401 33.0718 37.1573C31.7916 37.6745 30.3345 37.0561 29.8173 35.7759ZM23.4677 25.3989C22.5366 23.0946 23.6499 20.4718 25.9542 19.5408C28.2586 18.6098 30.8813 19.7231 31.8123 22.0274L36.3076 33.1536C37.2386 35.4579 36.1253 38.0807 33.821 39.0117C31.5167 39.9427 28.8939 38.8294 27.9629 36.5251L23.4677 25.3989Z" fill="#222222"/>
<path d="M44.9933 23.3555C44.9933 20.8702 42.9786 18.8555 40.4933 18.8555H27.4933C25.0081 18.8555 22.9933 20.8702 22.9933 23.3555C22.9933 25.8407 25.0081 27.8555 27.4933 27.8555H40.4933C42.9786 27.8555 44.9933 25.8407 44.9933 23.3555Z" fill="white"/>
<path fill-rule="evenodd" clip-rule="evenodd" d="M27.4933 20.8555H40.4933C41.8741 20.8555 42.9933 21.9748 42.9933 23.3555C42.9933 24.7362 41.8741 25.8555 40.4933 25.8555H27.4933C26.1126 25.8555 24.9933 24.7362 24.9933 23.3555C24.9933 21.9748 26.1126 20.8555 27.4933 20.8555ZM40.4933 18.8555C42.9786 18.8555 44.9933 20.8702 44.9933 23.3555C44.9933 25.8408 42.9786 27.8555 40.4933 27.8555H27.4933C25.0081 27.8555 22.9933 25.8408 22.9933 23.3555C22.9933 20.8702 25.0081 18.8555 27.4933 18.8555H40.4933Z" fill="#222222"/>
<circle cx="6.5" cy="6.5" r="6.5" transform="matrix(-1 0 0 1 51.9933 16.8555)" fill="#DDE5ED" stroke="#222222" stroke-width="2"/>
<path fill-rule="evenodd" clip-rule="evenodd" d="M45.4933 25.8555C44.1126 25.8555 42.9933 24.7362 42.9933 23.3555C42.9933 21.9748 44.1126 20.8555 45.4933 20.8555C46.8741 20.8555 47.9933 21.9748 47.9933 23.3555C47.9933 24.7362 46.8741 25.8555 45.4933 25.8555Z" fill="white"/>
<path d="M43.9933 23.3555C43.9933 24.1839 44.6649 24.8555 45.4933 24.8555V26.8555C43.5604 26.8555 41.9933 25.2885 41.9933 23.3555H43.9933ZM45.4933 21.8555C44.6649 21.8555 43.9933 22.527 43.9933 23.3555H41.9933C41.9933 21.4225 43.5604 19.8555 45.4933 19.8555V21.8555ZM46.9933 23.3555C46.9933 22.527 46.3218 21.8555 45.4933 21.8555V19.8555C47.4263 19.8555 48.9933 21.4225 48.9933 23.3555H46.9933ZM45.4933 24.8555C46.3218 24.8555 46.9933 24.1839 46.9933 23.3555H48.9933C48.9933 25.2885 47.4263 26.8555 45.4933 26.8555V24.8555Z" fill="#222222"/>
</svg>
