<svg width="60" height="60" viewBox="0 0 60 60" fill="none" xmlns="http://www.w3.org/2000/svg">
<rect width="60" height="60" fill="white"/>
<path d="M5.79086 34.9727C5.79086 30.0021 9.8203 25.9727 14.7909 25.9727H18.1124V48.1514H5.79086V34.9727Z" fill="white"/>
<ellipse cx="15.6481" cy="18.99" rx="6.57149" ry="6.98221" fill="white"/>
<path fill-rule="evenodd" clip-rule="evenodd" d="M15.6481 12.0078L15.6481 48.368C15.6481 48.7018 15.9187 48.9724 16.2526 48.9724C21.8164 48.9724 26.3268 44.4621 26.3268 38.8982V34.0286L24.6839 29.258L20.9874 26.2566L19.6526 24.9612L22.3223 21.0752L21.6035 15.7063L17.291 12.0078H15.6481Z" fill="#59CBE8"/>
<path d="M5.13373 48.9929C5.13373 48.9929 5.13373 40.0643 5.13373 34.7072C5.13373 29.35 9.88578 24.5628 15.6693 24.5743C21.4411 24.5856 26.1625 29.3915 26.1625 34.7072C26.1625 40.0228 26.1625 48.9929 26.1625 48.9929" stroke="#222222" stroke-width="2" stroke-linecap="round"/>
<path d="M15.7845 11.957V26.062C19.4636 25.7857 22.2014 22.9305 22.3233 19.2431C22.4495 15.422 19.597 12.2434 15.7845 11.957Z" fill="#59CBE8"/>
<path d="M15.7845 11.957V26.062C12.1054 25.7857 9.3676 22.9305 9.24577 19.2431C9.11953 15.422 11.9721 12.2434 15.7845 11.957Z" fill="white"/>
<path fill-rule="evenodd" clip-rule="evenodd" d="M9.89804 35.8281C10.3517 35.8281 10.7195 36.1959 10.7195 36.6496V45.6854C10.7195 46.139 10.3517 46.5068 9.89804 46.5068C9.44437 46.5068 9.0766 46.139 9.0766 45.6854V36.6496C9.0766 36.1959 9.44437 35.8281 9.89804 35.8281Z" fill="#222222"/>
<path d="M9.91037 45.7032L9.91037 36.6406" stroke="#222222" stroke-width="2" stroke-linecap="round"/>
<ellipse cx="15.6481" cy="18.99" rx="6.57149" ry="6.98221" stroke="#222222" stroke-width="2"/>
<rect x="30" y="42.5" width="6" height="6" rx="3" fill="#59CBE8" stroke="#222222" stroke-width="2"/>
<rect x="40" y="32.5" width="6" height="16" rx="3" fill="#59CBE8" stroke="#222222" stroke-width="2"/>
<rect x="50" y="22.5" width="6" height="26" rx="3" fill="white" stroke="#222222" stroke-width="2"/>
</svg>
