<svg width="90" height="91" viewBox="0 0 90 91" fill="none" xmlns="http://www.w3.org/2000/svg">
<rect y="0.5" width="90" height="90" rx="45" fill="white"/>
<path fill-rule="evenodd" clip-rule="evenodd" d="M26 38.5C26 37.9477 26.4477 37.5 27 37.5H63C63.5523 37.5 64 37.9477 64 38.5V63.5C64 64.0523 63.5523 64.5 63 64.5H27C26.4477 64.5 26 64.0523 26 63.5V38.5ZM28 39.5V62.5H62V39.5H28Z" fill="#333333"/>
<path fill-rule="evenodd" clip-rule="evenodd" d="M20 63.5C20 62.9477 20.4477 62.5 21 62.5H69C69.5523 62.5 70 62.9477 70 63.5C70 64.0523 69.5523 64.5 69 64.5H21C20.4477 64.5 20 64.0523 20 63.5Z" fill="#333333"/>
<path fill-rule="evenodd" clip-rule="evenodd" d="M36 31.5V40.5C36 42.1569 34.6569 43.5 33 43.5C31.3431 43.5 30 42.1569 30 40.5V31.5" fill="white"/>
<path fill-rule="evenodd" clip-rule="evenodd" d="M30 30.5C30.5523 30.5 31 30.9477 31 31.5V40.5C31 41.6046 31.8954 42.5 33 42.5C34.1046 42.5 35 41.6046 35 40.5V31.5C35 30.9477 35.4477 30.5 36 30.5C36.5523 30.5 37 30.9477 37 31.5V40.5C37 42.7091 35.2091 44.5 33 44.5C30.7909 44.5 29 42.7091 29 40.5V31.5C29 30.9477 29.4477 30.5 30 30.5Z" fill="#333333"/>
<path fill-rule="evenodd" clip-rule="evenodd" d="M42 31.5V40.5C42 42.1569 40.6569 43.5 39 43.5C37.3431 43.5 36 42.1569 36 40.5V31.5" fill="#59CBE8"/>
<path fill-rule="evenodd" clip-rule="evenodd" d="M36 30.5C36.5523 30.5 37 30.9477 37 31.5V40.5C37 41.6046 37.8954 42.5 39 42.5C40.1046 42.5 41 41.6046 41 40.5V31.5C41 30.9477 41.4477 30.5 42 30.5C42.5523 30.5 43 30.9477 43 31.5V40.5C43 42.7091 41.2091 44.5 39 44.5C36.7909 44.5 35 42.7091 35 40.5V31.5C35 30.9477 35.4477 30.5 36 30.5Z" fill="#333333"/>
<path fill-rule="evenodd" clip-rule="evenodd" d="M48 31.5V40.5C48 42.1569 46.6569 43.5 45 43.5C43.3431 43.5 42 42.1569 42 40.5V31.5" fill="white"/>
<path fill-rule="evenodd" clip-rule="evenodd" d="M42 30.5C42.5523 30.5 43 30.9477 43 31.5V40.5C43 41.6046 43.8954 42.5 45 42.5C46.1046 42.5 47 41.6046 47 40.5V31.5C47 30.9477 47.4477 30.5 48 30.5C48.5523 30.5 49 30.9477 49 31.5V40.5C49 42.7091 47.2091 44.5 45 44.5C42.7909 44.5 41 42.7091 41 40.5V31.5C41 30.9477 41.4477 30.5 42 30.5Z" fill="#333333"/>
<path fill-rule="evenodd" clip-rule="evenodd" d="M54 31.5V40.5C54 42.1569 52.6569 43.5 51 43.5C49.3431 43.5 48 42.1569 48 40.5V31.5" fill="#59CBE8"/>
<path fill-rule="evenodd" clip-rule="evenodd" d="M48 30.5C48.5523 30.5 49 30.9477 49 31.5V40.5C49 41.6046 49.8954 42.5 51 42.5C52.1046 42.5 53 41.6046 53 40.5V31.5C53 30.9477 53.4477 30.5 54 30.5C54.5523 30.5 55 30.9477 55 31.5V40.5C55 42.7091 53.2091 44.5 51 44.5C48.7909 44.5 47 42.7091 47 40.5V31.5C47 30.9477 47.4477 30.5 48 30.5Z" fill="#333333"/>
<path fill-rule="evenodd" clip-rule="evenodd" d="M60 31.5V40.5C60 42.1569 58.6569 43.5 57 43.5C55.3431 43.5 54 42.1569 54 40.5V31.5" fill="white"/>
<path fill-rule="evenodd" clip-rule="evenodd" d="M54 30.5C54.5523 30.5 55 30.9477 55 31.5V40.5C55 41.6046 55.8954 42.5 57 42.5C58.1046 42.5 59 41.6046 59 40.5V31.5C59 30.9477 59.4477 30.5 60 30.5C60.5523 30.5 61 30.9477 61 31.5V40.5C61 42.7091 59.2091 44.5 57 44.5C54.7909 44.5 53 42.7091 53 40.5V31.5C53 30.9477 53.4477 30.5 54 30.5Z" fill="#333333"/>
<path fill-rule="evenodd" clip-rule="evenodd" d="M66 31.5V40.5C66 42.1569 64.6569 43.5 63 43.5C61.3431 43.5 60 42.1569 60 40.5L60 31.5" fill="#59CBE8"/>
<path fill-rule="evenodd" clip-rule="evenodd" d="M60 30.5C60.5523 30.5 61 30.9477 61 31.5V40.5C61 41.6046 61.8954 42.5 63 42.5C64.1046 42.5 65 41.6046 65 40.5V31.5C65 30.9477 65.4477 30.5 66 30.5C66.5523 30.5 67 30.9477 67 31.5V40.5C67 42.7091 65.2091 44.5 63 44.5C60.7909 44.5 59 42.7091 59 40.5V31.5C59 30.9477 59.4477 30.5 60 30.5Z" fill="#333333"/>
<path fill-rule="evenodd" clip-rule="evenodd" d="M30 31.5V40.5C30 42.1569 28.6569 43.5 27 43.5C25.3431 43.5 24 42.1569 24 40.5V31.5" fill="#59CBE8"/>
<path fill-rule="evenodd" clip-rule="evenodd" d="M24 30.5C24.5523 30.5 25 30.9477 25 31.5V40.5C25 41.6046 25.8954 42.5 27 42.5C28.1046 42.5 29 41.6046 29 40.5V31.5C29 30.9477 29.4477 30.5 30 30.5C30.5523 30.5 31 30.9477 31 31.5V40.5C31 42.7091 29.2091 44.5 27 44.5C24.7909 44.5 23 42.7091 23 40.5V31.5C23 30.9477 23.4477 30.5 24 30.5Z" fill="#333333"/>
<path fill-rule="evenodd" clip-rule="evenodd" d="M57 27.5C57 26.9477 56.5523 26.5 56 26.5H24C23.4477 26.5 23 26.9477 23 27.5C23 28.0523 23.4477 28.5 24 28.5H56C56.5523 28.5 57 28.0523 57 27.5ZM59 27.5C59 26.9477 59.4477 26.5 60 26.5H66C66.5523 26.5 67 26.9477 67 27.5C67 28.0523 66.5523 28.5 66 28.5H60C59.4477 28.5 59 28.0523 59 27.5Z" fill="#333333"/>
<path d="M32 48.5H40V63.5H32V48.5Z" fill="white"/>
<path fill-rule="evenodd" clip-rule="evenodd" d="M31 48.5C31 47.9477 31.4477 47.5 32 47.5H40C40.5523 47.5 41 47.9477 41 48.5V63.5C41 64.0523 40.5523 64.5 40 64.5H32C31.4477 64.5 31 64.0523 31 63.5V48.5ZM33 49.5V62.5H39V49.5H33Z" fill="#333333"/>
<path d="M45 48.5H63V58.5H45V48.5Z" fill="#59CBE8"/>
<path fill-rule="evenodd" clip-rule="evenodd" d="M44 48.5C44 47.9477 44.4477 47.5 45 47.5H63C63.5523 47.5 64 47.9477 64 48.5V58.5C64 59.0523 63.5523 59.5 63 59.5H45C44.4477 59.5 44 59.0523 44 58.5V48.5ZM46 49.5V57.5H62V49.5H46Z" fill="#333333"/>
<path fill-rule="evenodd" clip-rule="evenodd" d="M48 52.5C48 51.9477 48.4477 51.5 49 51.5H50C50.5523 51.5 51 51.9477 51 52.5C51 53.0523 50.5523 53.5 50 53.5H49C48.4477 53.5 48 53.0523 48 52.5Z" fill="#333333"/>
<path fill-rule="evenodd" clip-rule="evenodd" d="M53 52.5C53 51.9477 53.4477 51.5 54 51.5H57C57.5523 51.5 58 51.9477 58 52.5C58 53.0523 57.5523 53.5 57 53.5H54C53.4477 53.5 53 53.0523 53 52.5Z" fill="#333333"/>
</svg>
