<svg xmlns="http://www.w3.org/2000/svg" fill="none" viewBox="0 0 18 17">
  <path fill="#222" fill-rule="evenodd" d="M7.776 13.21a5.57 5.57 0 0 1-4.136-1.32C1.247 9.855.933 6.23 2.94 3.805a5.629 5.629 0 0 1 7.985-.706 5.72 5.72 0 0 1 2.002 3.895 5.749 5.749 0 0 1-1.303 4.187 5.61 5.61 0 0 1-3.848 2.028ZM18 14.995l-4.44-3.771a7.375 7.375 0 0 0 .98-4.373 7.356 7.356 0 0 0-2.575-5.008 7.23 7.23 0 0 0-10.264.91C-.88 5.87-.478 10.53 2.6 13.145a7.175 7.175 0 0 0 5.319 1.698A7.172 7.172 0 0 0 12 13.107l4.439 3.772L18 14.995Z" clip-rule="evenodd"/>
</svg>
