<svg width="60" height="60" viewBox="0 0 60 60" fill="none" xmlns="http://www.w3.org/2000/svg">
<path fill-rule="evenodd" clip-rule="evenodd" d="M12.0184 27.0049C12.4987 26.5125 13.3211 26.6407 13.6287 27.2559L15.7764 31.5514C15.9172 31.8329 15.9172 32.1643 15.7764 32.4458L15.3588 33.2811C15.1491 33.7003 14.6765 33.9177 14.2218 33.804L11.3663 33.0901C11.1302 33.0311 10.9238 32.8881 10.7856 32.6878L9.46714 30.7764C9.19574 30.3829 9.24071 29.8524 9.57446 29.5103L12.0184 27.0049Z" fill="#59CBE8" stroke="#222222" stroke-width="2" stroke-linecap="round" stroke-linejoin="round"/>
<path fill-rule="evenodd" clip-rule="evenodd" d="M19.4042 54.3838C19.2211 55.1162 19.8845 55.7796 20.6169 55.5965L27 54.0007L45.8892 50.2228C46.479 50.1049 46.832 49.4967 46.6418 48.926L46.1085 47.3262C46.0382 47.1152 45.8995 46.9337 45.7145 46.8104L44.0149 45.6773C43.4899 45.3273 43.4163 44.5844 43.8625 44.1382L45.7734 42.2273C45.9208 42.0799 46.0184 41.8902 46.0527 41.6846L46.8356 36.9871C46.9264 36.4423 46.5584 35.9271 46.0136 35.8363L41.4357 35.0733C41.1582 35.0271 40.9129 34.866 40.7602 34.6296L32.1588 21.3178C32.0268 21.1134 31.9738 20.8679 32.0097 20.6273L32.943 14.3822C32.9797 14.1367 32.9237 13.8863 32.786 13.6797L31.2968 11.446C31.1114 11.1678 30.7991 11.0007 30.4648 11.0007H26.7662C25.9889 11.0007 25.5088 10.1527 25.9087 9.48619L27.5094 6.81832C27.784 6.36059 27.6508 5.76786 27.2066 5.47177L25.7373 4.49221C25.3165 4.21167 24.7524 4.28948 24.4233 4.67347L19.1627 10.8109C19.0559 10.9355 18.9814 11.0845 18.9457 11.2447L17.0823 19.63C17.0293 19.8688 17.0656 20.1188 17.1844 20.3326L21.6573 28.3839C21.8628 28.7537 22.2787 28.9542 22.6959 28.8847L26.3617 28.2737C27.105 28.1498 27.7131 28.8615 27.4748 29.5764L27.1054 30.6845C27.037 30.8897 27.037 31.1116 27.1054 31.3169L28.7463 36.2397C28.8945 36.6843 28.714 37.1723 28.3121 37.4134L24.3385 39.7975C24.121 39.9281 23.9612 40.1364 23.8915 40.3803L22.3077 45.9237C22.1437 46.4977 22.5159 47.0867 23.1048 47.1848L24.9666 47.4951C25.9219 47.6543 26.1157 48.9428 25.2495 49.3759L20.4114 51.795C20.1503 51.9255 19.9592 52.1637 19.8884 52.4469L19.4042 54.3838Z" fill="#59CBE8"/>
<path d="M41.5 15H31" stroke="#222222" stroke-width="2" stroke-linecap="round"/>
<path d="M27 15H25" stroke="#222222" stroke-width="2" stroke-linecap="round"/>
<mask id="path-5-inside-1_10713_30810" fill="white">
<path fill-rule="evenodd" clip-rule="evenodd" d="M25 48C25 47.4477 25.4477 47 26 47H28C28.5523 47 29 47.4477 29 48C29 48.5523 28.5523 49 28 49H26C25.4477 49 25 48.5523 25 48ZM11 48C11 47.4477 11.4477 47 12 47H22C22.5523 47 23 47.4477 23 48C23 48.5523 22.5523 49 22 49H12C11.4477 49 11 48.5523 11 48Z"/>
</mask>
<path d="M26 45C24.3431 45 23 46.3431 23 48H27C27 48.5523 26.5523 49 26 49V45ZM28 45H26V49H28V45ZM31 48C31 46.3431 29.6569 45 28 45V49C27.4477 49 27 48.5523 27 48H31ZM28 51C29.6569 51 31 49.6569 31 48H27C27 47.4477 27.4477 47 28 47V51ZM26 51H28V47H26V51ZM23 48C23 49.6569 24.3431 51 26 51V47C26.5523 47 27 47.4477 27 48H23ZM12 45C10.3431 45 9 46.3431 9 48H13C13 48.5523 12.5523 49 12 49V45ZM22 45H12V49H22V45ZM25 48C25 46.3431 23.6569 45 22 45V49C21.4477 49 21 48.5523 21 48H25ZM22 51C23.6569 51 25 49.6569 25 48H21C21 47.4477 21.4477 47 22 47V51ZM12 51H22V47H12V51ZM9 48C9 49.6569 10.3431 51 12 51V47C12.5523 47 13 47.4477 13 48H9Z" fill="#222222" mask="url(#path-5-inside-1_10713_30810)"/>
<path d="M52 28H43" stroke="#222222" stroke-width="2" stroke-linecap="round"/>
<path d="M54 43H53" stroke="#222222" stroke-width="2" stroke-linecap="round"/>
<path d="M48 32L52 28L48 24" stroke="#222222" stroke-width="2" stroke-linecap="round" stroke-linejoin="round"/>
<path d="M39 19L43 15L39 11" stroke="#222222" stroke-width="2" stroke-linecap="round" stroke-linejoin="round"/>
<path d="M14 52L10 48L14 44" stroke="#222222" stroke-width="2" stroke-linecap="round" stroke-linejoin="round"/>
<mask id="path-12-inside-2_10713_30810" fill="white">
<path fill-rule="evenodd" clip-rule="evenodd" d="M23.6641 4.02271C24.3223 3.25473 25.4504 3.09912 26.292 3.6602L27.7613 4.63976C28.6496 5.23195 28.9162 6.4174 28.3669 7.33285L26.7662 10.0007C27.3185 10.0007 27.7662 10.4484 27.7662 11.0007C27.7662 11.553 27.3185 12.0007 26.7662 12.0007C25.6616 12.0007 24.7662 11.1053 24.7662 10.0007C24.7662 9.63823 24.8647 9.28256 25.0512 8.97173L26.6519 6.30386L25.1826 5.3243L19.9219 11.4617L18.0585 19.847L22.5315 27.8983L26.276 27.2743C27.3393 27.097 28.345 27.8154 28.5223 28.8788C28.5746 29.1928 28.5493 29.5149 28.4487 29.817L28.0541 31.0007L29.695 35.9235C29.9914 36.8128 29.6304 37.7886 28.8266 38.2709L24.853 40.6551L24.3735 42.3335L24.031 43.5323C23.8792 44.0634 23.3258 44.3708 22.7947 44.2191C22.2637 44.0674 21.9562 43.5139 22.1079 42.9829L22.4505 41.784L22.93 40.1056C23.0694 39.6178 23.389 39.2011 23.824 38.9401L27.7976 36.5559L26.1567 31.6332C26.0199 31.2226 26.0199 30.7788 26.1567 30.3683L26.5261 29.2602L22.8603 29.8711C22.0258 30.0102 21.1941 29.6092 20.7832 28.8696L16.3102 20.8183C16.0726 20.3906 16 19.8907 16.1062 19.4131L17.9696 11.0278C18.0408 10.7074 18.1898 10.4094 18.4034 10.1601L23.6641 4.02271ZM33.3977 23.2351C33.8615 22.9353 34.4806 23.0684 34.7803 23.5323L37.6219 27.9301L41.6001 34.087L46.178 34.8499C47.2675 35.0315 48.0036 36.062 47.822 37.1515L47.0391 41.849C46.9705 42.2602 46.7752 42.6397 46.4805 42.9344L44.5696 44.8453L46.2692 45.9784C46.6393 46.2251 46.9165 46.5881 47.0572 47.01L47.5904 48.6098C47.6167 48.6885 47.638 48.7687 47.6542 48.8501C47.8709 49.9332 47.1684 50.9868 46.0853 51.2035L27.2194 54.9766L20.8594 56.5666C20.5409 56.6463 20.2078 56.6463 19.8893 56.5666C18.8177 56.2987 18.1662 55.2129 18.4341 54.1413L18.9183 52.2044C19.0522 51.6686 19.5952 51.3428 20.131 51.4768C20.6668 51.6107 20.9925 52.1537 20.8586 52.6895L20.3743 54.6264L26.7344 53.0364C26.7651 53.0287 26.7961 53.0217 26.8272 53.0155L45.6931 49.2423L45.1598 47.6425L43.4602 46.5094C42.5412 45.8967 42.2928 44.655 42.9055 43.7359C42.9786 43.6263 43.0623 43.5242 43.1554 43.4311L45.0663 41.5202L45.8492 36.8227L41.2713 36.0597C40.7162 35.9672 40.2257 35.6451 39.9203 35.1724L35.9421 29.0155L33.1004 24.6177C32.8007 24.1538 32.9338 23.5348 33.3977 23.2351Z"/>
</mask>
<path d="M26.292 3.6602L25.1826 5.3243L26.292 3.6602ZM23.6641 4.02271L22.1455 2.72113V2.72113L23.6641 4.02271ZM27.7613 4.63976L26.6519 6.30386L26.6519 6.30386L27.7613 4.63976ZM28.3669 7.33285L30.0819 8.36184V8.36184L28.3669 7.33285ZM26.7662 10.0007L25.0512 8.97173C24.6805 9.58959 24.6708 10.3591 25.0258 10.9861C25.3808 11.6131 26.0456 12.0007 26.7662 12.0007V10.0007ZM25.0512 8.97173L23.3362 7.94274V7.94274L25.0512 8.97173ZM26.6519 6.30386L28.3669 7.33285C28.9162 6.4174 28.6496 5.23195 27.7613 4.63976L26.6519 6.30386ZM25.1826 5.3243L26.292 3.6602C25.4504 3.09912 24.3223 3.25473 23.6641 4.02271L25.1826 5.3243ZM19.9219 11.4617L18.4034 10.1601C18.1898 10.4094 18.0408 10.7074 17.9696 11.0278L19.9219 11.4617ZM18.0585 19.847L16.1062 19.4131C16 19.8907 16.0726 20.3906 16.3102 20.8183L18.0585 19.847ZM22.5315 27.8983L20.7832 28.8696C21.1941 29.6092 22.0258 30.0102 22.8603 29.8711L22.5315 27.8983ZM26.276 27.2743L26.6048 29.2471L26.6048 29.2471L26.276 27.2743ZM28.0541 31.0007L26.1567 30.3683C26.0199 30.7788 26.0199 31.2226 26.1567 31.6332L28.0541 31.0007ZM29.695 35.9235L27.7976 36.5559L29.695 35.9235ZM28.8266 38.2709L29.8556 39.9859L29.8556 39.9859L28.8266 38.2709ZM24.853 40.6551L23.824 38.9401C23.389 39.2011 23.0694 39.6178 22.93 40.1056L24.853 40.6551ZM24.3735 42.3335L22.4505 41.784L24.3735 42.3335ZM24.031 43.5323L22.1079 42.9829L22.1079 42.9829L24.031 43.5323ZM22.7947 44.2191L22.2453 46.1422L22.2453 46.1422L22.7947 44.2191ZM22.1079 42.9829L24.031 43.5323L24.031 43.5323L22.1079 42.9829ZM22.4505 41.784L20.5274 41.2346L20.5274 41.2346L22.4505 41.784ZM22.93 40.1056L24.853 40.6551L24.853 40.6551L22.93 40.1056ZM23.824 38.9401L22.7951 37.2251H22.7951L23.824 38.9401ZM27.7976 36.5559L28.8266 38.2709C29.6304 37.7886 29.9914 36.8128 29.695 35.9235L27.7976 36.5559ZM26.1567 31.6332L24.2593 32.2656L26.1567 31.6332ZM26.1567 30.3683L24.2593 29.7358L26.1567 30.3683ZM26.5261 29.2602L28.4234 29.8926C28.6453 29.2272 28.5022 28.4942 28.0466 27.9609C27.5909 27.4276 26.8892 27.1721 26.1973 27.2874L26.5261 29.2602ZM22.8603 29.8711L22.5315 27.8983H22.5315L22.8603 29.8711ZM20.7832 28.8696L22.5315 27.8983L20.7832 28.8696ZM16.3102 20.8183L14.5619 21.7896H14.5619L16.3102 20.8183ZM16.1062 19.4131L18.0585 19.847L16.1062 19.4131ZM17.9696 11.0278L16.0172 10.594H16.0172L17.9696 11.0278ZM18.4034 10.1601L19.9219 11.4617L19.9219 11.4617L18.4034 10.1601ZM34.7803 23.5323L36.4601 22.4469L36.4601 22.4469L34.7803 23.5323ZM37.6219 27.9301L39.3017 26.8446L37.6219 27.9301ZM41.6001 34.087L39.9203 35.1724C40.2257 35.6451 40.7162 35.9672 41.2713 36.0597L41.6001 34.087ZM46.178 34.8499L45.8492 36.8227H45.8492L46.178 34.8499ZM47.822 37.1515L45.8492 36.8227L47.822 37.1515ZM47.0391 41.849L45.0663 41.5202L47.0391 41.849ZM46.4805 42.9344L47.8947 44.3486L47.8947 44.3486L46.4805 42.9344ZM44.5696 44.8453L43.1554 43.4311C42.7317 43.8548 42.5203 44.4461 42.5794 45.0424C42.6384 45.6386 42.9617 46.177 43.4602 46.5094L44.5696 44.8453ZM46.2692 45.9784L45.1598 47.6425H45.1598L46.2692 45.9784ZM47.0572 47.01L45.1598 47.6424L45.1598 47.6425L47.0572 47.01ZM47.5904 48.6098L45.6931 49.2423L45.6931 49.2423L47.5904 48.6098ZM47.6542 48.8501L49.6154 48.4578V48.4578L47.6542 48.8501ZM46.0853 51.2035L45.6931 49.2423H45.6931L46.0853 51.2035ZM27.2194 54.9766L26.8272 53.0155C26.7961 53.0217 26.7651 53.0287 26.7344 53.0364L27.2194 54.9766ZM20.8594 56.5666L21.3445 58.5069L21.3445 58.5069L20.8594 56.5666ZM19.8893 56.5666L19.4042 58.5069L19.4042 58.5069L19.8893 56.5666ZM18.4341 54.1413L16.4938 53.6562H16.4938L18.4341 54.1413ZM18.9183 52.2044L16.978 51.7193H16.978L18.9183 52.2044ZM20.131 51.4768L19.6459 53.4171H19.6459L20.131 51.4768ZM20.8586 52.6895L22.7989 53.1745L20.8586 52.6895ZM20.3743 54.6264L18.4341 54.1413C18.2637 54.8228 18.4634 55.5438 18.9601 56.0406C19.4569 56.5373 20.1779 56.737 20.8594 56.5666L20.3743 54.6264ZM26.7344 53.0364L26.2493 51.0961L26.2493 51.0961L26.7344 53.0364ZM26.8272 53.0155L26.435 51.0543L26.435 51.0543L26.8272 53.0155ZM45.6931 49.2423L46.0853 51.2035C46.6478 51.091 47.135 50.7423 47.4229 50.2462C47.7108 49.75 47.7719 49.1541 47.5904 48.6098L45.6931 49.2423ZM45.1598 47.6425L47.0572 47.01C46.9165 46.5881 46.6393 46.2251 46.2692 45.9784L45.1598 47.6425ZM43.4602 46.5094L42.3508 48.1735L42.3508 48.1735L43.4602 46.5094ZM42.9055 43.7359L41.2414 42.6265L41.2414 42.6265L42.9055 43.7359ZM43.1554 43.4311L41.7412 42.0169L41.7412 42.0169L43.1554 43.4311ZM45.0663 41.5202L46.4805 42.9344C46.7752 42.6397 46.9705 42.2602 47.0391 41.849L45.0663 41.5202ZM45.8492 36.8227L47.822 37.1515C48.0036 36.062 47.2675 35.0315 46.178 34.8499L45.8492 36.8227ZM41.2713 36.0597L40.9425 38.0325L41.2713 36.0597ZM39.9203 35.1724L38.2405 36.2578H38.2405L39.9203 35.1724ZM35.9421 29.0155L37.6219 27.9301L35.9421 29.0155ZM33.1004 24.6177L31.4206 25.7031L31.4206 25.7031L33.1004 24.6177ZM27.4014 1.9961C25.7181 0.873948 23.4621 1.18517 22.1455 2.72113L25.1826 5.3243V5.3243L27.4014 1.9961ZM28.8707 2.97566L27.4014 1.9961L25.1826 5.3243L26.6519 6.30386L28.8707 2.97566ZM30.0819 8.36184C31.1804 6.53095 30.6473 4.16004 28.8707 2.97566L26.6519 6.30386L30.0819 8.36184ZM28.4812 11.0297L30.0819 8.36184L26.6519 6.30386L25.0512 8.97173L28.4812 11.0297ZM29.7662 11.0007C29.7662 9.34387 28.423 8.00072 26.7662 8.00072V12.0007C26.2139 12.0007 25.7662 11.553 25.7662 11.0007H29.7662ZM26.7662 14.0007C28.423 14.0007 29.7662 12.6576 29.7662 11.0007H25.7662C25.7662 10.4484 26.2139 10.0007 26.7662 10.0007V14.0007ZM22.7662 10.0007C22.7662 12.2099 24.557 14.0007 26.7662 14.0007V10.0007H22.7662ZM23.3362 7.94274C22.9632 8.5644 22.7662 9.27574 22.7662 10.0007H26.7662L26.7662 10.0007L23.3362 7.94274ZM24.9369 5.27487L23.3362 7.94274L26.7662 10.0007L28.3669 7.33285L24.9369 5.27487ZM24.0732 6.9884L25.5425 7.96796L27.7613 4.63976L26.292 3.6602L24.0732 6.9884ZM21.4404 12.7633L26.7011 6.62588L23.6641 4.02271L18.4034 10.1601L21.4404 12.7633ZM20.0109 20.2809L21.8743 11.8956L17.9696 11.0278L16.1062 19.4131L20.0109 20.2809ZM24.2798 26.9271L19.8069 18.8757L16.3102 20.8183L20.7832 28.8696L24.2798 26.9271ZM25.9472 25.3015L22.2027 25.9256L22.8603 29.8711L26.6048 29.2471L25.9472 25.3015ZM30.4951 28.55C30.1362 26.3971 28.1001 24.9427 25.9472 25.3015L26.6048 29.2471C26.6019 29.2475 26.594 29.2479 26.585 29.2457C26.5774 29.2439 26.5723 29.2411 26.5689 29.2388C26.5656 29.2364 26.5614 29.2325 26.5572 29.2259C26.5522 29.2181 26.55 29.2105 26.5495 29.2076L30.4951 28.55ZM30.346 30.4494C30.5499 29.8379 30.601 29.1858 30.4951 28.55L26.5495 29.2076C26.5482 29.1999 26.5488 29.1919 26.5513 29.1845L30.346 30.4494ZM29.9514 31.6332L30.346 30.4494L26.5513 29.1845L26.1567 30.3683L29.9514 31.6332ZM31.5924 35.291L29.9514 30.3683L26.1567 31.6332L27.7976 36.5559L31.5924 35.291ZM29.8556 39.9859C31.4632 39.0213 32.1852 37.0696 31.5924 35.291L27.7976 36.5559H27.7976L29.8556 39.9859ZM25.882 42.3701L29.8556 39.9859L27.7976 36.5559L23.824 38.9401L25.882 42.3701ZM26.2965 42.8829L26.7761 41.2045L22.93 40.1056L22.4505 41.784L26.2965 42.8829ZM25.954 44.0818L26.2965 42.8829L22.4505 41.784L22.1079 42.9829L25.954 44.0818ZM22.2453 46.1422C23.8384 46.5973 25.4988 45.6749 25.954 44.0818L22.1079 42.9829C22.2596 42.4518 22.8131 42.1444 23.3442 42.2961L22.2453 46.1422ZM20.1849 42.4334C19.7297 44.0265 20.6522 45.687 22.2453 46.1422L23.3442 42.2961C23.8752 42.4478 24.1827 43.0013 24.031 43.5323L20.1849 42.4334ZM20.5274 41.2346L20.1849 42.4334L24.031 43.5323L24.3735 42.3335L20.5274 41.2346ZM21.0069 39.5562L20.5274 41.2346L24.3735 42.3335L24.853 40.6551L21.0069 39.5562ZM22.7951 37.2251C21.9249 37.7472 21.2857 38.5805 21.0069 39.5562L24.853 40.6551L22.7951 37.2251ZM26.7686 34.841L22.7951 37.2251L24.853 40.6551L28.8266 38.2709L26.7686 34.841ZM24.2593 32.2656L25.9003 37.1884L29.695 35.9235L28.0541 31.0007L24.2593 32.2656ZM24.2593 29.7358C23.9857 30.5569 23.9857 31.4446 24.2593 32.2656L28.0541 31.0007L24.2593 29.7358ZM24.6287 28.6277L24.2593 29.7358L28.0541 31.0007L28.4234 29.8926L24.6287 28.6277ZM23.1891 31.8439L26.8549 31.233L26.1973 27.2874L22.5315 27.8983L23.1891 31.8439ZM19.0349 29.8409C19.8566 31.32 21.5201 32.1221 23.1891 31.8439L22.5315 27.8983H22.5315L19.0349 29.8409ZM14.5619 21.7896L19.0349 29.8409L22.5315 27.8983L18.0585 19.847L14.5619 21.7896ZM14.1538 18.9793C13.9415 19.9344 14.0867 20.9342 14.5619 21.7896L18.0585 19.847H18.0585L14.1538 18.9793ZM16.0172 10.594L14.1538 18.9793L18.0585 19.847L19.9219 11.4617L16.0172 10.594ZM16.8849 8.85853C16.4576 9.35703 16.1596 9.95305 16.0172 10.594L19.9219 11.4617L19.9219 11.4617L16.8849 8.85853ZM22.1455 2.72113L16.8849 8.85854L19.9219 11.4617L25.1826 5.3243L22.1455 2.72113ZM36.4601 22.4469C35.5609 21.0552 33.7039 20.656 32.3122 21.5552L34.4831 24.9149C34.0192 25.2146 33.4002 25.0816 33.1004 24.6177L36.4601 22.4469ZM39.3017 26.8446L36.4601 22.4469L33.1004 24.6177L35.9421 29.0155L39.3017 26.8446ZM43.28 33.0015L39.3017 26.8446L35.9421 29.0155L39.9203 35.1724L43.28 33.0015ZM46.5068 32.8771L41.9289 32.1142L41.2713 36.0597L45.8492 36.8227L46.5068 32.8771ZM49.7948 37.4803C50.1579 35.3012 48.6859 33.2403 46.5068 32.8771L45.8492 36.8227H45.8492L49.7948 37.4803ZM49.0118 42.1778L49.7948 37.4803L45.8492 36.8227L45.0663 41.5202L49.0118 42.1778ZM47.8947 44.3486C48.4842 43.7591 48.8748 43.0002 49.0118 42.1778L45.0663 41.5202L45.0663 41.5202L47.8947 44.3486ZM45.9838 46.2595L47.8947 44.3486L45.0663 41.5202L43.1554 43.4311L45.9838 46.2595ZM47.3786 44.3143L45.679 43.1812L43.4602 46.5094L45.1598 47.6425L47.3786 44.3143ZM48.9545 46.3775C48.6733 45.5337 48.1187 44.8077 47.3786 44.3143L45.1598 47.6425L45.1598 47.6424L48.9545 46.3775ZM49.4878 47.9774L48.9545 46.3775L45.1598 47.6425L45.6931 49.2423L49.4878 47.9774ZM49.6154 48.4578C49.5829 48.2951 49.5402 48.1347 49.4878 47.9774L45.6931 49.2423L45.6931 49.2423L49.6154 48.4578ZM46.4775 53.1646C48.6438 52.7314 50.0487 50.6241 49.6154 48.4578L45.6931 49.2423L45.6931 49.2423L46.4775 53.1646ZM27.6117 56.9378L46.4775 53.1646L45.6931 49.2423L26.8272 53.0155L27.6117 56.9378ZM21.3445 58.5069L27.7045 56.9169L26.7344 53.0364L20.3743 54.6264L21.3445 58.5069ZM19.4042 58.5069C20.0412 58.6662 20.7075 58.6662 21.3445 58.5069L20.3744 54.6264H20.3743L19.4042 58.5069ZM16.4938 53.6562C15.958 55.7994 17.261 57.9711 19.4042 58.5069L20.3744 54.6264L20.3744 54.6264L16.4938 53.6562ZM16.978 51.7193L16.4938 53.6562L20.3744 54.6264L20.8586 52.6895L16.978 51.7193ZM20.616 49.5365C19.0087 49.1347 17.3798 50.1119 16.978 51.7193L20.8586 52.6895C20.7246 53.2253 20.1817 53.551 19.6459 53.4171L20.616 49.5365ZM22.7989 53.1745C23.2007 51.5672 22.2234 49.9383 20.616 49.5365L19.6459 53.4171C19.1101 53.2831 18.7843 52.7402 18.9183 52.2044L22.7989 53.1745ZM22.3146 55.1114L22.7989 53.1745L18.9183 52.2044L18.4341 54.1413L22.3146 55.1114ZM26.2493 51.0961L19.8893 52.6861L20.8594 56.5666L27.2194 54.9766L26.2493 51.0961ZM26.435 51.0543C26.3726 51.0668 26.3107 51.0807 26.2493 51.0961L27.2194 54.9766L27.2194 54.9766L26.435 51.0543ZM45.3008 47.2811L26.435 51.0543L27.2194 54.9766L46.0853 51.2035L45.3008 47.2811ZM43.2624 48.2749L43.7957 49.8748L47.5904 48.6098L47.0572 47.01L43.2624 48.2749ZM42.3508 48.1735L44.0504 49.3066L46.2692 45.9784L44.5696 44.8453L42.3508 48.1735ZM41.2414 42.6265C40.016 44.4646 40.5127 46.9481 42.3508 48.1735L44.5696 44.8453L44.5696 44.8453L41.2414 42.6265ZM41.7412 42.0169C41.5549 42.2031 41.3875 42.4073 41.2414 42.6265L44.5696 44.8453L44.5696 44.8453L41.7412 42.0169ZM43.6521 40.106L41.7412 42.0169L44.5696 44.8453L46.4805 42.9344L43.6521 40.106ZM43.8764 36.4939L43.0935 41.1914L47.0391 41.849L47.822 37.1515L43.8764 36.4939ZM40.9425 38.0325L45.5204 38.7955L46.178 34.8499L41.6001 34.087L40.9425 38.0325ZM38.2405 36.2578C38.8513 37.2032 39.8323 37.8475 40.9425 38.0325L41.6001 34.087L41.6001 34.087L38.2405 36.2578ZM34.2622 30.1009L38.2405 36.2578L41.6001 34.087L37.6219 27.9301L34.2622 30.1009ZM31.4206 25.7031L34.2622 30.1009L37.6219 27.9301L34.7803 23.5323L31.4206 25.7031ZM32.3122 21.5552C30.9206 22.4544 30.5214 24.3115 31.4206 25.7031L34.7803 23.5323C35.08 23.9962 34.9469 24.6152 34.4831 24.9149L32.3122 21.5552Z" fill="#222222" mask="url(#path-12-inside-2_10713_30810)"/>
</svg>
