<svg width="91" height="91" viewBox="0 0 91 91" fill="none" xmlns="http://www.w3.org/2000/svg">
<path fill-rule="evenodd" clip-rule="evenodd" d="M16.4068 55.5822C14.9602 55.8233 13.9 57.0749 13.9 58.5414V74L25.9 71L54.4 77L76.2945 65.2495V62L73.9 60.2431L51.4 66.5L50.7619 62L31.9 53L16.4068 55.5822Z" fill="#59CBE8"/>
<path fill-rule="evenodd" clip-rule="evenodd" d="M73.444 59.4648C75.0938 59.0295 76.798 59.9506 77.3376 61.5693C78.138 63.9705 77.0895 66.5989 74.8562 67.79L55.4868 78.1204C54.9299 78.4174 54.2862 78.5089 53.6685 78.3789L26.2667 72.6101C26.0444 72.5633 25.8143 72.5676 25.5939 72.6227L14.2638 75.4552C13.8157 75.5673 13.3409 75.4666 12.9769 75.1823C12.6128 74.8981 12.4 74.4619 12.4 74V68C12.4 67.1716 13.0716 66.5 13.9 66.5C14.7284 66.5 15.4 67.1716 15.4 68V72.0789L24.8663 69.7123C25.5275 69.547 26.2177 69.534 26.8847 69.6745L54.1753 75.4198L73.4444 65.143C74.3869 64.6404 74.8293 63.5312 74.4915 62.518C74.4524 62.4007 74.3289 62.334 74.2094 62.3655L57.7827 66.6999C56.9817 66.9113 56.161 66.4333 55.9496 65.6323C55.7383 64.8312 56.2163 64.0106 57.0173 63.7992L73.444 59.4648Z" fill="#333333"/>
<path fill-rule="evenodd" clip-rule="evenodd" d="M31.679 54.55C31.667 54.5445 31.6537 54.5425 31.6406 54.5441L20.0861 55.9884C19.264 56.0912 18.5143 55.5081 18.4116 54.6861C18.3088 53.864 18.8919 53.1143 19.7139 53.0116L31.2685 51.5673C31.8377 51.4961 32.4154 51.5858 32.9361 51.8262L49.5493 59.4938C51.6419 60.4596 52.7519 62.777 52.1929 65.0129C51.5292 67.668 48.782 69.2307 46.1606 68.4442L34.469 64.9367C33.6755 64.6987 33.2252 63.8625 33.4633 63.069C33.7013 62.2755 34.5375 61.8252 35.331 62.0633L47.0226 65.5707C48.0047 65.8654 49.0338 65.28 49.2825 64.2853C49.4919 63.4476 49.0761 62.5795 48.2921 62.2177L31.679 54.55Z" fill="#333333"/>
<path fill-rule="evenodd" clip-rule="evenodd" d="M15.4 45.5V23C15.4 21.3431 16.7431 20 18.4 20H72.4C74.0568 20 75.4 21.3431 75.4 23V50C75.4 51.6569 74.0568 53 72.4 53H48.4" fill="white"/>
<path fill-rule="evenodd" clip-rule="evenodd" d="M18.4 21.5C17.5716 21.5 16.9 22.1716 16.9 23V45.5C16.9 46.3284 16.2284 47 15.4 47C14.5716 47 13.9 46.3284 13.9 45.5V23C13.9 20.5147 15.9147 18.5 18.4 18.5H72.4C74.8853 18.5 76.9 20.5147 76.9 23V50C76.9 52.4853 74.8853 54.5 72.4 54.5H48.4C47.5716 54.5 46.9 53.8284 46.9 53C46.9 52.1716 47.5716 51.5 48.4 51.5H72.4C73.2284 51.5 73.9 50.8284 73.9 50V23C73.9 22.1716 73.2284 21.5 72.4 21.5H18.4Z" fill="#333333"/>
<path fill-rule="evenodd" clip-rule="evenodd" d="M22.9 36.5C22.9 35.6716 23.5716 35 24.4 35H28.9C29.7284 35 30.4 35.6716 30.4 36.5C30.4 37.3284 29.7284 38 28.9 38H24.4C23.5716 38 22.9 37.3284 22.9 36.5Z" fill="#333333"/>
<path fill-rule="evenodd" clip-rule="evenodd" d="M60.4 36.5C60.4 35.6716 61.0716 35 61.9 35H66.4C67.2284 35 67.9 35.6716 67.9 36.5C67.9 37.3284 67.2284 38 66.4 38H61.9C61.0716 38 60.4 37.3284 60.4 36.5Z" fill="#333333"/>
<circle cx="45.4" cy="36.5" r="6" fill="#59CBE8"/>
<path fill-rule="evenodd" clip-rule="evenodd" d="M43.9 30.5C43.9 29.6716 44.5716 29 45.4 29C49.5421 29 52.9 32.3579 52.9 36.5C52.9 40.6421 49.5421 44 45.4 44C44.5716 44 43.9 43.3284 43.9 42.5C43.9 41.6716 44.5716 41 45.4 41C47.8853 41 49.9 38.9853 49.9 36.5C49.9 34.0147 47.8853 32 45.4 32C44.5716 32 43.9 31.3284 43.9 30.5Z" fill="#333333"/>
<path fill-rule="evenodd" clip-rule="evenodd" d="M58.9 14C58.9 13.1716 59.5716 12.5 60.4 12.5H66.4C67.2284 12.5 67.9 13.1716 67.9 14C67.9 14.8284 67.2284 15.5 66.4 15.5H60.4C59.5716 15.5 58.9 14.8284 58.9 14Z" fill="#333333"/>
<path fill-rule="evenodd" clip-rule="evenodd" d="M51.4 14C51.4 13.1716 52.0716 12.5 52.9 12.5H54.4C55.2284 12.5 55.9 13.1716 55.9 14C55.9 14.8284 55.2284 15.5 54.4 15.5H52.9C52.0716 15.5 51.4 14.8284 51.4 14Z" fill="#333333"/>
</svg>
