<svg width="60" height="60" viewBox="0 0 60 60" fill="none" xmlns="http://www.w3.org/2000/svg">
<rect width="60" height="60" fill="white"/>
<rect x="30.0482" y="9.58203" width="19" height="42" rx="1" fill="#59CBE8" stroke="#222222" stroke-width="2"/>
<path d="M30.0482 21.582H39.5482" stroke="#222222" stroke-width="2" stroke-linecap="round"/>
<path d="M30.0482 27.582H37.0482" stroke="#222222" stroke-width="2" stroke-linecap="round"/>
<path d="M30.0482 15.582H42.0482" stroke="#222222" stroke-width="2" stroke-linecap="round"/>
<path fill-rule="evenodd" clip-rule="evenodd" d="M11.0482 51.582V34.5019C11.0482 33.9181 11.3033 33.3634 11.7466 32.9834L23.7466 22.6977C24.4956 22.0557 25.6008 22.0557 26.3498 22.6977L38.3498 32.9834C38.7931 33.3634 39.0482 33.9181 39.0482 34.5019V51.582" fill="white"/>
<path d="M11.0482 51.582V34.5019C11.0482 33.9181 11.3033 33.3634 11.7466 32.9834L23.7466 22.6977C24.4956 22.0557 25.6008 22.0557 26.3498 22.6977L38.3498 32.9834C38.7931 33.3634 39.0482 33.9181 39.0482 34.5019V51.582" stroke="#222222" stroke-width="2" stroke-linecap="round" stroke-linejoin="round"/>
<path d="M52.0482 51.582H8.04821" stroke="#222222" stroke-width="2" stroke-linecap="round"/>
<path d="M32.0482 47.582H35.0482" stroke="#222222" stroke-width="2" stroke-linecap="round"/>
<path d="M9.04822 42.582H25.0482" stroke="#222222" stroke-width="2" stroke-linecap="round"/>
<path d="M9.04822 37.582H32.0482" stroke="#222222" stroke-width="2" stroke-linecap="round"/>
<path d="M16.0482 47.582H15.0482" stroke="#222222" stroke-width="2" stroke-linecap="round"/>
<circle cx="11" cy="12.582" r="4" fill="white" stroke="#222222" stroke-width="2" stroke-linecap="round" stroke-linejoin="round"/>
</svg>
