<svg width="60" height="60" viewBox="0 0 60 60" fill="none" xmlns="http://www.w3.org/2000/svg">
<rect x="9" y="23.9688" width="29" height="21" rx="2" fill="#59CBE8"/>
<path fill-rule="evenodd" clip-rule="evenodd" d="M42 28.9688H44.5296C45.4044 28.9688 46.1777 29.5372 46.4386 30.3722L50.1886 42.3722C50.591 43.6601 49.6289 44.9688 48.2796 44.9688H38" fill="white"/>
<path d="M42 28.9688H44.5296C45.4044 28.9688 46.1777 29.5372 46.4386 30.3722L50.1886 42.3722C50.591 43.6601 49.6289 44.9688 48.2796 44.9688H38" stroke="#222222" stroke-width="2" stroke-linecap="round" stroke-linejoin="round"/>
<path d="M47 52.9688H19" stroke="#222222" stroke-width="2" stroke-linecap="round"/>
<path d="M15 52.9688H13" stroke="#222222" stroke-width="2" stroke-linecap="round"/>
<path d="M38 44.9688H11C9.89543 44.9688 9 44.0733 9 42.9688V25.9688C9 24.8642 9.89543 23.9688 11 23.9688H26" stroke="#222222" stroke-width="2" stroke-linecap="round" stroke-linejoin="round"/>
<path d="M30 28.9688V11.4688" stroke="#222222" stroke-width="2" stroke-linecap="round"/>
<path d="M23 23.9687L20.4558 16.3363C20.1836 15.5196 19.4193 14.9688 18.5585 14.9688H15" stroke="#222222" stroke-width="2" stroke-linecap="round" stroke-linejoin="round"/>
<path d="M38 44.9688V23.9688L41.4721 16.1565C41.7931 15.4342 42.5094 14.9688 43.2997 14.9688H47" stroke="#222222" stroke-width="2" stroke-linecap="round" stroke-linejoin="round"/>
<circle cx="3" cy="3" r="3" transform="matrix(0 -1 -1 0 14 17.9688)" fill="#DDE5ED" stroke="#222222" stroke-width="2"/>
<circle cx="3" cy="3" r="3" transform="matrix(0 -1 -1 0 52 17.9688)" fill="#DDE5ED" stroke="#222222" stroke-width="2"/>
<circle cx="3" cy="3" r="3" transform="matrix(0 -1 -1 0 33 10.9688)" fill="#DDE5ED" stroke="#222222" stroke-width="2"/>
<path d="M48 36.9688H42.5" stroke="#222222" stroke-width="2" stroke-linecap="round" stroke-linejoin="round"/>
<path d="M34 23.9688H38" stroke="#222222" stroke-width="2" stroke-linecap="round" stroke-linejoin="round"/>
<path d="M14 38.9688H13" stroke="#222222" stroke-width="2" stroke-linecap="round"/>
<path d="M21.5 38.9688H18" stroke="#222222" stroke-width="2" stroke-linecap="round"/>
<circle cx="17" cy="45.9688" r="3" fill="white" stroke="#222222" stroke-width="2"/>
<circle cx="43" cy="45.9688" r="3" fill="white" stroke="#222222" stroke-width="2"/>
</svg>
