<svg width="91" height="91" viewBox="0 0 91 91" fill="none" xmlns="http://www.w3.org/2000/svg">
<path fill-rule="evenodd" clip-rule="evenodd" d="M7.69995 69.5C7.69995 68.6716 8.37152 68 9.19995 68H12.2C13.0284 68 13.7 68.6716 13.7 69.5C13.7 70.3284 13.0284 71 12.2 71H9.19995C8.37152 71 7.69995 70.3284 7.69995 69.5Z" fill="#333333"/>
<path d="M39.2 35H51.2V41H39.2V35Z" fill="#59CBE8"/>
<path d="M21.2 35H33.2V41H21.2V35Z" fill="#59CBE8"/>
<path d="M57.2 35H69.2V41H57.2V35Z" fill="#59CBE8"/>
<path fill-rule="evenodd" clip-rule="evenodd" d="M51.2 75.5C51.2 74.6716 51.8715 74 52.7 74H55.7C56.5284 74 57.2 74.6716 57.2 75.5C57.2 76.3284 56.5284 77 55.7 77H52.7C51.8715 77 51.2 76.3284 51.2 75.5Z" fill="#333333"/>
<path fill-rule="evenodd" clip-rule="evenodd" d="M60.2 75.5C60.2 74.6716 60.8715 74 61.7 74H70.7C71.5284 74 72.2 74.6716 72.2 75.5C72.2 76.3284 71.5284 77 70.7 77H61.7C60.8715 77 60.2 76.3284 60.2 75.5Z" fill="#333333"/>
<path fill-rule="evenodd" clip-rule="evenodd" d="M45.2 24.5C43.5431 24.5 42.2 25.8431 42.2 27.5C42.2 29.1569 43.5431 30.5 45.2 30.5V30.5C46.8568 30.5 48.2 29.1569 48.2 27.5" fill="white"/>
<path fill-rule="evenodd" clip-rule="evenodd" d="M40.7 27.5C40.7 25.0147 42.7147 23 45.2 23C46.0284 23 46.7 23.6716 46.7 24.5C46.7 25.3284 46.0284 26 45.2 26C44.3715 26 43.7 26.6716 43.7 27.5C43.7 28.3284 44.3715 29 45.2 29C46.0284 29 46.7 28.3284 46.7 27.5C46.7 26.6716 47.3715 26 48.2 26C49.0284 26 49.7 26.6716 49.7 27.5C49.7 29.9853 47.6852 32 45.2 32C42.7147 32 40.7 29.9853 40.7 27.5Z" fill="#333333"/>
<path d="M25.7 62V42.5H28.7V62H25.7Z" fill="#59CBE8"/>
<path d="M43.7 62V42.5H46.7V62H43.7Z" fill="#59CBE8"/>
<path d="M61.7 62V42.5H64.7V62H61.7Z" fill="#59CBE8"/>
<path fill-rule="evenodd" clip-rule="evenodd" d="M19.7 36.5H19.0408C14.0705 36.5 12.7692 29.629 17.3954 27.8116L43.5545 17.5348C44.6121 17.1193 45.7878 17.1193 46.8454 17.5348L73.0045 27.8116C77.6306 29.629 76.3295 36.5 71.3591 36.5H70.7V41C70.7 41.8284 70.0284 42.5 69.2 42.5H67.7V62H72.2C73.0284 62 73.7 62.6716 73.7 63.5V68H81.2C82.0284 68 82.7 68.6716 82.7 69.5C82.7 70.3284 82.0284 71 81.2 71H18.2C17.3715 71 16.7 70.3284 16.7 69.5V63.5C16.7 62.6716 17.3715 62 18.2 62H22.7V42.5H21.2C20.3715 42.5 19.7 41.8284 19.7 41V36.5ZM44.6515 20.3271C45.004 20.1886 45.3959 20.1886 45.7484 20.3271L71.9075 30.6039C73.4496 31.2097 73.0158 33.5 71.3591 33.5H69.2036L69.2 33.5H57.2L57.1963 33.5H51.2036L51.2 33.5H39.2L39.1963 33.5H33.2036L33.2 33.5H21.2L21.1963 33.5H19.0408C17.3841 33.5 16.9503 31.2097 18.4924 30.6039L44.6515 20.3271ZM22.7 36.5V39.5H31.7V36.5H22.7ZM34.7 36.5V41C34.7 41.8284 34.0284 42.5 33.2 42.5H31.7V62H40.7V42.5H39.2C38.3715 42.5 37.7 41.8284 37.7 41V36.5H34.7ZM40.7 36.5V39.5H49.7V36.5H40.7ZM52.7 36.5V41C52.7 41.8284 52.0284 42.5 51.2 42.5H49.7V62H58.7V42.5H57.2C56.3715 42.5 55.7 41.8284 55.7 41V36.5H52.7ZM58.7 36.5V39.5H67.7V36.5H58.7ZM61.7 62V42.5H64.7V62H61.7ZM46.7 62V42.5H43.7V62H46.7ZM25.7 42.5H28.7V62H25.7V42.5ZM70.7 68V65H19.7V68H70.7Z" fill="#333333"/>
</svg>
