<svg width="60" height="60" viewBox="0 0 60 60" fill="none" xmlns="http://www.w3.org/2000/svg">
<rect width="60" height="60" fill="white"/>
<path fill-rule="evenodd" clip-rule="evenodd" d="M28.005 16.5952C28.005 12.3333 28.005 9.13694 28.005 9.13694C28.005 7.96006 28.9591 7.00601 30.136 7.00601H46.118C47.2948 7.00601 48.2489 7.96006 48.2489 9.13694V50.6901C48.2489 51.867 49.4258 51.7556 48.2489 51.7556H30.136C28.9591 51.7556 28.005 50.8015 28.005 49.6246V29.3808" fill="#DDE5ED"/>
<path fill-rule="evenodd" clip-rule="evenodd" d="M28.005 12.3333C27.4166 12.3333 26.9396 12.8103 26.9396 13.3987C26.9396 13.9872 27.4166 14.4642 28.005 14.4642H37.5942C38.1827 14.4642 38.6597 13.9872 38.6597 13.3987C38.6597 12.8103 38.1827 12.3333 37.5942 12.3333H28.005ZM40.7903 18.726C40.2019 18.726 39.7249 19.203 39.7249 19.7914C39.7249 20.3799 40.2019 20.8569 40.7903 20.8569H47.1831C47.7716 20.8569 48.2486 20.3799 48.2486 19.7914C48.2486 19.203 47.7716 18.726 47.1831 18.726H40.7903Z" fill="#222222"/>
<path fill-rule="evenodd" clip-rule="evenodd" d="M29.0705 9.13692C29.0705 8.54848 29.5475 8.07145 30.136 8.07145H46.118C46.7064 8.07145 47.1834 8.54848 47.1834 9.13692V50.6901H30.136C29.5475 50.6901 29.0705 50.213 29.0705 49.6246V29.3808C29.0705 28.7923 28.5935 28.3153 28.005 28.3153C27.4166 28.3153 26.9396 28.7923 26.9396 29.3808V49.6246C26.9396 51.3899 28.3707 52.821 30.136 52.821H48.2489C48.3548 52.821 48.4377 52.8219 48.5095 52.8227H48.5099L48.5769 52.8234L48.5893 52.8236C48.6435 52.8243 48.7796 52.8261 48.8972 52.8091C48.9384 52.8032 49.0244 52.7891 49.1259 52.7522C49.2096 52.7218 49.4384 52.6292 49.6211 52.387C49.8509 52.0822 49.873 51.7282 49.7997 51.4587C49.7416 51.245 49.6321 51.105 49.5933 51.0572C49.515 50.9608 49.4296 50.8917 49.4165 50.8811L49.4151 50.8799C49.4018 50.869 49.3887 50.8585 49.3814 50.8527L49.3612 50.8365C49.3585 50.8343 49.3555 50.8325 49.3525 50.8308C49.335 50.8204 49.3144 50.8083 49.3144 50.6901V9.13692C49.3144 7.3716 47.8833 5.94052 46.118 5.94052H30.136C28.3707 5.94052 26.9396 7.3716 26.9396 9.13692V16.5952C26.9396 17.1836 27.4166 17.6606 28.005 17.6606C28.5935 17.6606 29.0705 17.1836 29.0705 16.5952V9.13692ZM41.8558 12.3332C41.2674 12.3332 40.7903 12.8102 40.7903 13.3987C40.7903 13.9871 41.2674 14.4641 41.8558 14.4641H43.9867C44.5752 14.4641 45.0522 13.9871 45.0522 13.3987C45.0522 12.8102 44.5752 12.3332 43.9867 12.3332H41.8558Z" fill="#222222"/>
<path fill-rule="evenodd" clip-rule="evenodd" d="M7.76121 51.7556V33.5573C7.76121 32.9352 8.03303 32.3442 8.50534 31.9394L21.2909 20.9803C22.0889 20.2963 23.2665 20.2963 24.0645 20.9803L36.8501 31.9394C37.3224 32.3442 37.5942 32.9352 37.5942 33.5573V51.7556" fill="#59CBE8"/>
<path fill-rule="evenodd" clip-rule="evenodd" d="M21.9843 21.7892C22.3833 21.4472 22.9721 21.4472 23.3711 21.7892L36.1567 32.7483C36.3929 32.9507 36.5288 33.2462 36.5288 33.5572V50.821H8.82667V43.2315H22.6777C23.2662 43.2315 23.7432 42.7545 23.7432 42.1661C23.7432 41.5776 23.2662 41.1006 22.6777 41.1006H8.82667V37.9045H30.136C30.7244 37.9045 31.2014 37.4274 31.2014 36.839C31.2014 36.2506 30.7244 35.7735 30.136 35.7735H8.82667V33.5572C8.82667 33.2462 8.96258 32.9507 9.19874 32.7483L21.9843 21.7892ZM6.69574 41.1006V37.9045H5.63027C5.04183 37.9045 4.56481 37.4274 4.56481 36.839C4.56481 36.2506 5.04183 35.7735 5.63027 35.7735H6.69574V33.5572C6.69574 32.6241 7.10348 31.7376 7.81195 31.1303L20.5975 20.1713C21.7946 19.1453 23.5609 19.1453 24.7579 20.1713L37.5435 31.1303C38.252 31.7376 38.6597 32.6241 38.6597 33.5572V50.821H53.9296C54.5485 50.821 55.0503 51.2687 55.0503 51.821C55.0503 52.3733 54.5485 52.821 53.9296 52.821H4.62002C4.00109 52.821 3.49934 52.3733 3.49934 51.821C3.49934 51.2687 4.00109 50.821 4.62002 50.821H6.69574V43.2315H5.63027C5.04183 43.2315 4.5648 42.7545 4.5648 42.1661C4.5648 41.5776 5.04183 41.1006 5.63027 41.1006H6.69574ZM29.0703 47.4934C29.0703 46.9049 29.5473 46.4279 30.1358 46.4279H33.3322C33.9206 46.4279 34.3976 46.9049 34.3976 47.4934C34.3976 48.0818 33.9206 48.5588 33.3322 48.5588H30.1358C29.5473 48.5588 29.0703 48.0818 29.0703 47.4934ZM12.023 46.4279C11.4346 46.4279 10.9575 46.9049 10.9575 47.4934C10.9575 48.0818 11.4346 48.5588 12.023 48.5588H13.0885C13.6769 48.5588 14.1539 48.0818 14.1539 47.4934C14.1539 46.9049 13.6769 46.4279 13.0885 46.4279H12.023Z" fill="#222222"/>
<circle cx="43.0296" cy="34.1713" r="9" transform="rotate(45 43.0296 34.1713)" fill="white" stroke="#222222" stroke-width="2"/>
<mask id="path-7-inside-1_10688_6467" fill="white">
<rect x="49.9876" y="39.7151" width="7.15962" height="2" rx="0.5" transform="rotate(45 49.9876 39.7151)"/>
</mask>
<rect x="49.9876" y="39.7151" width="7.15962" height="2" rx="0.5" transform="rotate(45 49.9876 39.7151)" fill="#222222" stroke="#222222" stroke-width="2" mask="url(#path-7-inside-1_10688_6467)"/>
</svg>
