<svg width="678" height="421" viewBox="0 0 678 421" fill="none" xmlns="http://www.w3.org/2000/svg">
<path fill-rule="evenodd" clip-rule="evenodd" d="M601.137 320.042L603.898 318.264L601.827 316.544L601.295 314.14L601.565 314.256L601.209 313.749L601.197 313.693L601.157 313.676L600.201 312.312L600.601 310.561L599.916 307.551L601.106 306.804L601.064 303.964L599.694 303.629L599.639 299.552L597.77 298.667L596.287 294.731L596.309 294.686L596.246 294.622L596.107 294.249L596.034 294.402L592.355 290.616L590.917 291.445L585.819 285.773L576.402 279.555L571.238 277.483L567.371 278.846L559.592 277.093L553.163 278.231L547.357 275.69L547.362 275.586L547.19 275.616L546.995 275.531L546.989 275.652L532.016 278.303L531.954 278.312L529.114 281.426L528.479 288.408L523.924 294.585L518.62 293.81L518.33 293.681L518.265 293.874L518.089 293.814L516.948 297.229L513.107 299.634L508.631 301.071L506.416 305.168L501.871 306.818L501.277 305.879L498.749 306.423L496.195 308.317L492.872 306.366L491.512 306.213L490.102 308.461L486.855 306.292L484.755 307.67L479.048 308.573L476.369 310.115L477.528 311.663L476.208 314.912L478.313 316.556L480.933 316.141C482.397 319.653 482.41 319.667 482.455 319.716C482.51 319.783 484.057 321.727 484.725 322.566L485.205 325.594L484.307 325.883L482.654 330.596C482.218 330.716 481.661 330.868 481.622 330.878C481.471 330.902 481.471 330.902 476.93 335.286L476.704 335.504L476.882 335.764C477.266 336.319 477.697 336.949 477.799 337.11C477.851 337.237 478.052 337.392 479.187 338.251L479.372 338.756L475.203 339.998L476.243 340.523L473.914 344.696L473.909 345.397L471.104 343.212L468.112 344.851L469.632 347.815L468.561 351.277C467.618 351.382 466.055 351.558 466.022 351.563C465.988 351.569 465.963 351.573 462.554 353.153L462.507 353.175L461.163 355.194L460.196 355.084L460.221 356.145L456.961 357.713L457.6 360.631L459.48 362.939L457.115 364.858L457.191 365.7L455.897 366.557L453.517 362.462L448.393 362.202L448.673 363.357L441.797 366.158L442.138 368.816L442.247 368.794L439.862 371.459L439.813 371.154L435.154 370.931L434.466 365.623L433.456 365.63L433.94 362.083L433.051 361.543L436.281 360.354L431.13 354.135L429.928 355.636L429.141 360.105L422.928 361.006L422.413 363.179L421.486 364.083L421.23 367.599L415.169 366.731L412.611 367.406L411.815 366.778L409.128 362.517L408.105 361.698L406.941 359.799L406.31 360.941L402.884 363.555L400.696 363.586L403.41 367.981L402.752 369.523L398.591 365.904L391.592 369.883L388.298 369.276L386.962 370.565L385.961 369.736L387.436 366.978L384.132 366.434L383.731 368.986L384.706 370.819L379.329 373.439L378.894 373.514L377.351 373.776L375.06 368.834L371.808 369.18L372.121 370.138L371.236 371.074L369.314 369.511L368.19 367.581L366.221 373.878L367.518 375.579C367.488 376.391 367.491 376.412 367.495 376.434C367.499 376.462 367.502 376.48 369.202 380.579L367.299 380.88L365.112 382.891L361.42 383.548L361.526 384.494L359.746 383.761L357.448 386.923L356.212 389.784L356.788 393.415L355.22 395.541L355.492 397.533L356.235 398.028L355.723 398.244L356.037 400.037L355.337 400.793L355.129 402.245L355.963 402.035L355.428 402.755L355.707 404.04L356.511 403.807L356.78 405.388L357.547 406.269L360.167 400.586L364.155 398.035L366.967 394.747L370.751 392.1L369.228 391.059L369.168 389.803L372.842 392.858L366.776 397.568L364.307 400.944L364.172 401.13L357.991 407.754L354.721 414.898L356.464 418.032L355.469 418.222L354.504 416.582L352.724 415.947L350.707 416.62L345.346 422.885L344.961 426.517L338.842 425.609L340.214 427.962L337.936 430.516L338.549 434.384L336.814 433.625L336.713 437.634L337.98 439.983L337.368 440.595L338.651 443.078L337.386 444.298L338.733 448.284L337.904 449.673L336.053 447.764L336.761 441.886L335.102 443.133L332.488 443.571L325.247 444.783L322.498 446.365L320.923 445.441L313.659 445.354L312.477 443.443L310.365 443.013L310.217 441.527L304.925 440.363L304.853 441.532L296.664 441.231L293.772 440.203L288.139 440.747L287.632 442.056L285.349 441.323L278.432 441.931L277.299 443.449L273.662 442.47L268.483 443.768L267.515 448.098L265.852 447.988L266.343 450.457L269.344 454.58L274.889 453.415L276.103 454.222L271.1 455.096L269.257 460.044L268.129 460.531L268.95 457.267L267.421 456.694L265.646 457.489L262.896 461.242L259.66 462.06L256.81 460.153L254.789 460.383L250.856 459.226L249.416 460.889L248.999 467.432L247.415 468.675L248.347 475.001L247.607 479.889L242.064 485.043L242.325 486.352L239.942 489.154L238.308 489.466L235.431 491.655L235.141 496.01L232.647 498.581L230.881 496.324L229.058 498.4L225.839 497.906L226.21 501.223L224.81 500.472L222.01 502.365L221.377 501.505L219.949 502.423L220.502 505.447L219.041 506.1L219.212 510.131L216.709 514.174L214.589 513.696L212.488 514.975L213.379 516.857L211.429 521.494L207.824 522.827L206.569 525.501L204.626 526.714L202.594 529.084L198.8 528.735L195.766 534.065L193.374 533.599L192.394 531.052L190.439 531.182L190.4 531.206L187.527 532.958C187.474 532.985 187.439 533.003 185.466 535.785L181.574 536.49L178.734 539.799L180.061 540.828L180.21 542.701L178.776 543.757L178.631 545.862L180.293 546.363L181.511 548.378L188.733 545.913L189.625 543.332L188.778 541.281L190.177 539.559L193.283 540.461L194.406 542.433L197.352 542.452L198.544 543.666L200.453 543.039L203.176 545.083L204.927 549.454L204.426 551.803L206.106 554.943L208.831 556.016L211.151 552.366L214.859 552.277L217.845 548.112L216.05 544.689L212.857 543.666L212.775 542.749L215.276 543.199L216.456 539.484L218.008 539.045L217.167 537.448L217.456 534.928L215.947 533.87C216.28 533.595 216.607 533.329 216.717 533.249C216.961 533.258 218.075 533.321 218.908 533.371L219.169 539.585L221.628 538.437L222.636 535.139L225.868 534.68L228.859 531.481L233.402 531.906L234.76 529.87L233.71 528.554L234.18 526.478L235.632 525.057L235.508 522.943L239.272 521.12C239.593 522.342 240.028 524.016 240.047 524.118L240.048 524.221L240.134 524.276C240.253 524.352 240.263 524.359 242.481 523.332C242.737 523.215 242.93 523.124 242.992 523.097L245.983 522.705L251.758 523.428L252.055 521.513L250.784 519.947L250.836 518.923L253.45 520.57L262.014 519.905L265.275 521.954L265.819 524.622L268.756 524.647L268.354 522.565L269.68 522.378L269.644 520.635L269.43 520.675C268.341 520.877 267.886 520.969 267.685 521.036C267.469 520.936 266.671 520.482 266.061 520.127L266.572 518.721L261.012 517.3L261.502 516.047L262.361 516.96L262.419 516.972C265.699 517.629 265.724 517.625 265.768 517.618C265.828 517.609 265.848 517.606 267.123 516.57L267.284 516.818L267.47 517.105L267.498 517.147L269.385 520.062L271.772 520.739L271.651 521.974L271.502 521.964L271.629 522.208L271.616 522.343L271.702 522.349L272.831 524.526L272.941 524.528C273.54 524.538 274.46 524.556 274.799 524.569C274.843 524.982 274.88 525.395 274.909 525.809L274.919 525.944L277.741 526.614L280.377 525.864L283.322 527.075L287.948 527.103L286.902 531.765L287.012 531.835C287.685 532.264 288.775 532.969 288.917 533.076C289.009 533.22 289.296 533.606 290.215 534.815L290.278 534.898L292.856 534.625L292.555 532.727L295.559 536.234L297.784 533.515L299.813 533.858L299.865 528.603L300.923 524.868L302.733 524.851L305.006 523.995L304.208 521.991C305.714 523.086 305.736 523.09 305.788 523.099L305.847 523.1C305.888 523.093 305.945 523.084 307.695 522.055L307.791 521.998L307.656 519.735L309.368 519.003L309.688 518.95L309.632 518.891L310.816 518.385L309.383 518.626L308.005 517.159L305.192 516.854L304.954 514.796L307.415 510.956L308.888 509.894L307.987 507.125L307.933 506.958L307.854 506.717L307.3 505.019L304.956 505.238L304.877 504.431L309.917 503.354L311.284 501.511L311.265 499.553L312.811 498.169L311.58 497.593L310.649 492.517L310.379 491.052L311.412 491.466L311.862 494.302L313.369 495.545L313.722 498.526L317.139 499.002L317.238 497.004L320.082 496.378L321.309 494.809L321.25 493.293L323.083 492.383L332.064 491.022L332.175 491.005L332.594 489.767L340.427 488.856L340.406 488.955L340.712 488.823L340.816 488.811L340.824 488.776L344.001 487.422C346.405 488.195 346.81 488.319 346.913 488.333C347.03 488.345 349.255 488.659 350.752 488.873L353.636 490.942L360.211 494.423L365.312 498.827L367.011 501.226L368.452 501.068L369.415 503.14L367.784 506.108L370.049 505.882L371.694 504.409L371.076 502.207L369.665 500.729L369.347 498.878L370.272 496.062L372.804 495.685L375.147 497.054L375.364 497.095L375.363 497.103L375.718 497.163L375.73 497.165L381.296 498.107L386.675 497.78L389.134 499.703L391.63 499.556L392.739 500.982L397.255 500.22L398.432 498.748L398.12 497.379L399.699 495.173L398.651 492.256L389.386 491.207L389.641 490.119L392.985 488.693L392.442 487.099L393.411 486.855L394.142 486.674C394.949 487.072 396.19 487.689 396.366 487.793C396.484 487.959 396.857 488.428 398.077 489.93L398.144 490.013L400.842 489.586L401.755 488.06L401.864 488.047L402.12 488.02L405.696 487.617C407.039 488.282 407.291 488.4 407.38 488.414C407.485 488.428 408.954 488.725 409.915 488.922L410.366 489.013L409.151 487.252L413.384 486.249L414.794 485.913L417.441 487.372L419.929 489.117L422.446 485.974L422.312 484.286L424.596 484.312L433.536 481.194L433.608 481.169L434.957 478.398L425.821 470.785L425.571 469.544L429.521 471.896L430.155 469.408L431.537 472.109L432.466 473.927L434.51 473.578L436.387 476.936L440.08 479.568L440.342 479.754L440.403 479.797L444.301 482.574L445.321 481.124L445.976 480.926L446.208 481.08L447.96 482.252L450.119 480.68L449.99 477.53L451.232 475.71L454.352 475.936L456.427 475.21L456.668 475.126L456.776 475.088L457.169 478.01L458.919 477.895L459.059 476.126L460.529 475.092L461.307 478.156L459.221 479.459L459.836 482.236L462.19 484.956L465.989 486.51L465.44 482.969L466.343 481.249L468.587 482.491L468.29 480.949L473.744 480.52L473.762 480.518L480.823 478.442L483.208 478.929L485.099 478.603L485.365 478.558L485.468 478.541L489.366 477.869L491.457 476.648L497.431 475.469L503.955 476.77L507.158 477.592L514.561 479.487L516.229 481.132L518.556 481.718L521.894 482.557L521.875 482.73L522.117 482.612L522.256 482.647L522.269 482.538L528.169 479.66L528.77 477.251L529.78 476.412L531.128 475.297L531.257 475.245L534.85 473.804L539.038 472.958L540.312 472.703L541.624 471.533L544.43 471.548L547.723 469.931L548.829 469.39L551.267 465.797L552.958 462.225L558.581 464.096L558.779 464.112L558.78 464.116L565.513 464.637L564.674 459.568L566.45 456.708L566.058 454.879L570.546 452.035L570.964 450.707L577.502 449.924L578.633 447.526L583.472 446.381L585.287 444.064L588.725 440.376L589.329 438.512L588.956 433.524L588.955 433.511L587.77 428.179L586.4 429.238L584.35 429.51L583.861 426.688L586.357 427.347L590.831 424.479L589.965 420.117L587.239 419.486L580.126 421.864L579.285 420.316L579.15 420.344C579.055 420.364 569.647 422.342 569.532 422.365C569.461 422.376 569.442 422.379 567.461 424.139L562.579 425.688L562.512 425.709L562.188 425.812L562.128 425.832L559.268 427.627L559.227 426.595L555.673 425.972L553.25 424.175L551.244 425.004L551.063 422.699L549.356 419.468L547.148 419.855L546.28 423.03L543.1 423.533L540.066 421.282L537.409 422.564L537.968 420.566L548.955 416.336L548.509 416.163C542.263 413.717 542.245 413.72 542.178 413.731C542.165 413.733 542.131 413.739 534.599 415.746L534.462 415.417L534.343 415.815L534.239 415.842L534.295 415.977L533.838 417.505L528.531 418.102L525.233 415.971L523.54 416.937L521.335 415.485L520.263 416.471L520.209 416.432L519.951 416.243L518.457 415.164L519.262 414.18L518.108 412.734L514.532 411.981L514.395 411.675L514.29 411.931L514.085 411.887L514.201 412.146L513.866 412.961L511.256 413.528L511.212 413.482L510.95 413.21L513.14 412.621L513.21 411.399L516.222 411.473L519.336 411.55L520.205 413.395L520.185 413.433L520.235 413.461L520.303 413.604L520.373 413.752L520.499 414.02L520.928 414.93L524.986 414.995L526.356 416.546L530.531 416.663L534.473 412.26L539.178 411.189L537.599 409.415L539.019 408.929L539.81 411.605L542.303 412.166L542.296 410.1L540.24 408.202L543.654 408.89L543.837 408.899L544.096 408.911L544.093 408.906L548.319 409.023L551.183 409.68L554.2 408.082L554.405 408.099L554.377 407.988L554.807 407.761L554.308 407.719L553.873 406L550.055 405.238L549.739 404.731L555.671 403.727L555.84 407.342L561.754 400.891L555.894 402.073L554.515 400.271L560.424 398.483L561.46 395.718L559.688 388.625L551.736 394.383L548.863 394.974L546.715 392.508L546.197 390.81L552.632 389.712L557.782 386.8L555.167 386.113L557.027 384.467L559.304 384.428L560.602 385.973L563.342 383.849L560.156 382.297L561.102 378.794L562.764 379.606L564.813 381.555L566.499 380.808C565.941 383.205 565.945 383.229 565.952 383.275C565.966 383.362 565.968 383.372 568.722 385.921L568.814 386.005L574.341 383.422L574.373 383.406L579.743 377.587L579.486 375.7L576.393 377.592L575.265 375.033L577.548 373.538L578.597 370.47L577.5 369.574L567.019 370.652L566.074 369.283L571.047 367.79L574.136 369.094L578.134 368.722L576.661 365.882L572.707 364.256L572.678 363.585L572.405 363.357L572.657 363.283L574.356 363.687L574.617 363.748L574.74 363.778L577.652 364.467L579.907 370.522L582.832 368.076L583.736 364.914L580.309 358.104L578.55 357.085L579.347 355.417L580.886 354.432L584.704 364.275L586.759 363.95L587.241 361.956L589.573 358.552L594.203 356.367L596.156 348.175L596.256 344.639L597.614 336.154L599.426 333.738L601.495 326.526L601.506 326.484L600.992 323.682L601.897 321.902L601.138 320.043L601.137 320.042Z" fill="#3CCEAF"/>
<path fill-rule="evenodd" clip-rule="evenodd" d="M444.669 487.656L444.548 486.031L439.25 487.187L438.248 485.964L438.506 484.2L436.719 483.062L435.972 485.077L436.583 487.73L435.899 489.009L435.525 488.313L435.942 486.61L435.193 482.947L433.712 483.34L432.969 485.347L430.575 486.686L430.238 488.764L426.965 488.049L423.432 489.565L422.373 488.67L419.752 494.209L423.121 492.737L425.415 492.97L433.365 499.828L434.236 499.014L435.161 501.233L436.136 501.424L443.104 498.731L443.113 498.611C443.412 494.79 443.37 494.71 443.334 494.646C443.295 494.573 442.809 493.751 442.55 493.313L447.485 492.77L444.67 487.656L444.669 487.656ZM553.957 417.055L550.783 416.929L549.981 419.101L551.803 422.207L556.912 424.108L563.403 422.924L554.57 418.844L553.957 417.055ZM143.566 552.566L144.714 554.523L145.992 553.168L144.56 551.055L143.566 552.566ZM140.021 559.601L140.206 560.286L142.524 560.69L141.189 558.574L140.021 559.601ZM142.019 557.505L143.549 558.2L145.507 557.458L143.941 554.645L142.019 557.505ZM142.416 555.93L142.577 556.026L143.851 554.367L142.284 552.765L140.21 552.908L140.228 553.097C140.381 554.702 140.393 554.71 140.485 554.77C140.517 554.793 141.846 555.588 142.416 555.93ZM241.836 442.535L240.439 443.421L241.056 447.314L243.244 446.42L241.836 442.535ZM454.022 476.476L451.316 480.19L453.82 481.061L453.853 481.056C454.6 480.961 455.729 480.819 455.883 480.806L455.968 480.824L456.026 480.727C456.1 480.604 456.1 480.604 454.144 476.719L454.022 476.476Z" fill="#8CE2D0"/>
<path fill-rule="evenodd" clip-rule="evenodd" d="M504.293 211.396L502.705 210.765L502.48 208.69L491.934 195.476L492.075 191.526L490.778 190.273L488.993 179.897L494.435 174.744L493.937 172.637L491.724 172.988L490.258 171.037L488.179 171.943L485.323 169.544L483.6 165.429L478.608 162.008L477.152 157.587L474.038 153.15L470.269 144.407L470.247 144.356L463.156 139.752L461.012 139.504L461.543 138.162L456.527 136.454L457.375 135.267L451.069 134.779L448.742 132.713L447.119 133.555L443.966 132.472L442.751 130.193L437.588 128.273L436.865 131.137L436.622 131.057L434.974 130.519L435.848 126.227L435.011 124.998L436.838 123.978L432.358 121.066L432.352 121.057L429.134 116.907L427.643 110.433L426.984 109.623L426.94 109.357L426.324 105.563L424.482 104.295L426.095 103.743L426.204 101.451L426.211 101.318L426.221 101.077L426.228 100.896L425.259 97.6574L423.537 96.0431L423.449 95.2234L423.322 94.0185L421.201 92.4334L420.911 89.4047L420.904 89.3173L420.887 89.1444L420.791 89.1912L418.842 87.0198L418.446 84.6265L416.214 83.4006L418.919 80.5366L418.351 77.1841L416.847 77.056L415.457 74.4012L414.918 69.1626L416.437 68.7148L412.833 63.1106L413.609 61.111L413.668 54.5778L412.05 50.6858L413.075 48.8414L411.946 47.8082L410.885 43.8089L408.303 41.6812L402.75 40.4523L392.973 28.2816L392.814 25.5842L390.98 23.3554L391.066 23.193L390.675 22.9847L390.217 22.4264L390.085 22.6701L389.431 22.3223L387.568 25.8144L380.761 34.0055L379.589 36.8602L377.277 36.3499L373.226 38.2121L382.118 53.3957L373.383 59.9674L373.846 62.2983L367.177 63.3543L364.922 66.6579L362.546 68.4961L355.783 79.09L347.13 85.7554L344.11 88.8215L336.646 90.9326L335.816 97.8657L336.369 97.9313L336.553 97.9542L336.526 98.1833L337.193 98.1177L338.651 99.9153L335.806 100.315L333.031 102.474L339.239 102.368L339.392 103.18L334.175 103.958L324.58 101.392L323.823 104.472L329.749 104.983L329.182 105.791L321.189 106.659L318.025 110.437L316.841 118.049L310.904 125.918L311.264 127.856L309.11 128.959L309.987 132.172L309.983 132.201L309.954 132.399L309.929 132.568L309.197 137.638L307.771 136.946L307.522 139.884L305.49 140.785L305.52 140.931C305.616 141.419 305.872 142.706 305.887 142.803C305.896 142.856 305.916 142.98 306.686 143.846L309.795 145.954L311.642 148.003L314.354 154.056L314.378 154.108L314.427 154.14C315.914 155.037 318.108 156.372 318.606 156.698C318.385 157.273 317.359 159.78 316.657 161.483L316.629 161.552L319.458 168.846L319.474 168.89L322.444 171.426L325.089 170.839L326.062 170.034L325.593 167.975L327.528 166.429L327.88 167.754L327.949 168.008L327.977 168.113L328.359 169.546L325.42 177.816L331.082 179.669L332.329 177.937L336.54 172.1L336.672 168.968L337.459 164.205L338.732 164.432L338.273 168.072L338.547 172.245L340.888 174.553L345.599 170.9L345.631 170.877L348.934 164.824L350.267 165.7L350.598 168.108L345.898 171.941L345.832 171.993L345.273 172.449L345.938 172.152L347.622 174.695L347.679 174.716C348.724 175.095 350.217 175.638 350.724 175.825C350.332 176.499 349.927 177.165 349.509 177.824L348.707 180.288L344.088 181.892L343.172 185.638L346.335 188.285L345.078 193.195L343.255 193.26L343.202 193.325C342.271 194.471 340.862 196.197 340.693 196.381C340.56 196.47 340.604 196.721 341.595 201.328L339.278 200.729L340.011 199.158L339.058 198.259L339.218 195.607L337.326 194.802L336.074 196.309L336.032 199.035L336.084 199.414L336.504 202.564L335.049 203.759L335.652 207.665L335.155 208.843L335.905 211.399L337.663 211.427L338.557 213.226L341.483 212.915L342.434 211.608L346.038 212.74L344.818 214.827L342.705 213.202L341.371 217.56L340.206 216.305L334.122 225.469L334.091 225.516L334.108 231.744V231.807L335.463 233.577L335.975 237.712L338.038 239.131L339.247 243.565L343.444 247.109L347.741 249.823L347.872 249.797L347.883 249.867L350.913 249.281L351.44 247.35L354.604 246.83L355.714 247.551L351.876 250.533L349.836 252.12L345.259 252.794L342.251 251.34L338.422 245.466C338.33 244.698 338.238 243.931 338.144 243.164C338.136 243.112 338.13 243.071 335.896 239.633L335.788 239.468L335.63 239.586L333.297 241.322C333.182 241.391 331.231 242.363 329.948 243L329.88 243.035L328.57 247.003L333.108 251.863L332.733 252.707L332.798 256.092L335.189 256.544L335.085 256.815L335.064 256.82L335.071 256.851L334.849 257.436L335.185 257.362L335.224 257.543L336.59 257.242L341.816 262.214L341.586 262.661L342.469 263.309L341.388 264.907L338.215 265.275L339.82 268.556L343.599 270.191L342.879 271.107L345.345 274.402L345.706 276.445L347.054 279.138L353.098 281.986L354.882 280.639L356.983 281.384L358.241 281.171L358.426 281.917L360.852 284.482L364.281 282.854L367.161 284.217L368.845 282.546L372.446 280.58L374.012 274.935L375.436 272.932L378.909 272.416L378.982 272.364C379.565 271.948 380.495 271.291 380.734 271.129L380.81 271.117L383.934 266.825L385.615 265.702L385.868 263.395L387.614 264.859L392.251 263.007L393.738 260.679L393.29 256.082L393.332 250.788L392.661 247.194L391.494 245.626L393.741 241.45L392.34 241.485L392.309 239.934L393.944 239.084L393.753 237.876L394.699 237.102L394.88 233.425L397.686 230.503L402.234 232.216L403.444 234.481L403.659 235.834L411.346 244.116L410.616 246.197L415.417 251.338L416.464 250.294C419.089 251.572 419.093 251.571 419.24 251.548L419.606 251.489L419.586 251.361C419.929 251.154 420.683 250.713 421.324 250.341L421.637 251.635L423.584 248.841L425.711 248.647L425.917 250.428L429.178 250.845L429.785 249.841L430.775 249.632L433.526 252.023L437.581 250.351L438.083 249.287L439.075 249.389L439.97 247.972L439.071 247.108L440.298 245.442L442.021 240.609L446.586 240.045L450.611 233.312L450.587 230.739L453.185 225.163L460.878 227.551L462.134 224.93L464.028 217.827L464.039 217.788L463.616 215.115L463.386 213.767L466.335 211.972L469.423 211.43L472.853 212.722L477.809 211.776L478.937 211.561L478.969 211.551C481.018 210.764 484.098 209.592 484.538 209.452C484.947 209.614 487.101 210.448 487.86 210.742L494.654 218.258L494.689 218.296L499.599 219.858L501.39 217.731L507.956 220.465L506.876 223.919L509.153 224.229L510.534 221.596L504.293 211.396Z" fill="#3CCEAF"/>
<path fill-rule="evenodd" clip-rule="evenodd" d="M516.181 241.862L516.149 241.785L513.305 239.059L511.867 237.369L507.704 231.922L503.438 228.342L502.909 228.045L502.784 228.064L502.655 228.118L500.706 227.055L500.697 224.966L494.929 222.654L490.484 218.784L489.381 217.204L489.344 217.152L489.167 216.896L486.86 213.604L482.832 212.496L479.847 214.14L476.74 213.244L472.21 215.968L467.251 212.426L463.209 214.807L463.639 217.519L461.78 224.517L460.676 226.827L453.013 224.441L450.241 230.405L450.516 231.8L446.196 239.043L441.556 239.617L439.726 244.764L438.187 246.857L439.115 247.752L438.79 248.268L437.737 248.159L437.136 249.436L433.786 250.819L431.113 248.49L429.452 248.842L428.932 249.706L426.736 249.423L426.515 247.506L423.335 247.794L422.14 249.513L421.983 248.858L421.554 249.105C420.327 249.817 419.679 250.193 419.342 250.421C418.897 250.214 417.586 249.577 416.743 249.166L416.507 249.051L415.633 249.925L411.677 245.681L412.404 243.607L404.596 235.182L404.398 233.932L403.003 231.317L397.759 229.336L394.437 232.803L394.26 236.417L393.244 237.25L393.419 238.349L389.746 240.261L391.877 240.123L391.912 241.911L392.778 241.889L390.922 245.347L392.262 247.151L392.885 250.497L392.846 255.727L393.273 260.116L392.058 262.024L388.072 263.615L385.614 261.553L385.249 264.886L383.751 265.884L380.694 270.097C380.497 270.223 380.067 270.53 378.987 271.298L375.392 271.829L373.719 274.193L372.21 279.644L368.808 281.504L367.425 282.878L364.708 281.59L361.463 283.134L359.549 281.106L359.247 279.887L357.508 280.179L355.222 279.367L353.82 280.429L352.907 281.632L353.213 282.76L352.52 283.919L352.926 286.025C352.456 286.235 352.048 286.415 351.98 286.443C351.796 286.528 351.371 286.81 349.689 287.944L346.633 284.08L346.397 284.017C344.635 283.544 342.875 283.065 341.117 282.58L341.092 282.094L341.034 280.954L337.043 282.999L337.274 284.079C336.666 284.415 335.975 284.794 335.733 284.925C335.422 284.977 334.405 285.135 333.492 285.276L333.157 285.328L331.771 287.559L329.853 288.703L329.859 289.128C329.893 292.201 329.911 293.173 329.932 293.524C329.897 293.82 329.563 295.693 329.258 297.339L329.175 297.786L332.003 299.946L333.587 298.789L337.75 303.375L338.047 303.557L337.255 303.656C336.71 303.742 336.669 304.014 336.492 305.161C336.409 305.693 336.304 306.403 336.199 307.113C336.043 308.162 335.89 309.212 335.822 309.685L333.074 312.222L334.021 313.004L329.573 317.068L329.785 317.552C330.223 318.559 330.892 320.098 331.142 320.684C331.105 320.794 331.064 320.923 331.017 321.069C330.898 321.441 330.699 322.058 330.646 322.194L329.594 324.324L331.682 323.146C331.844 323.054 336.165 320.661 337.755 319.782C337.984 320.107 338.197 320.411 338.343 320.622C338.221 320.926 338.026 321.405 337.831 321.882L330.015 325.662L329.948 325.694L329.89 325.739C329.89 325.739 328.806 326.563 327.724 327.394C325.215 329.321 325.215 329.321 325.29 329.79L325.303 329.873L325.334 329.949C325.405 330.126 325.405 330.126 332.842 337.954L335.56 339.946L338.731 339.883L337.503 340.763L337.479 340.779C337.146 341.027 337.146 341.027 336.854 344.823L336.829 345.145L337.923 346.33L336.709 346.111L334.864 348.706L329.693 359.012L331.848 360.593L330.67 363.866L331.156 365.676L333.271 367.726L333.984 372.688L334.031 373.081L341.733 379.535L347.475 380.399L353.095 387.114L354.568 385.807L355.488 387.213L356.731 387.542L358.602 386.507L360.087 384.465L362.325 385.385L362.174 384.03L365.509 383.436L367.687 381.431L370.115 381.047L369.935 380.614C369.295 379.068 368.347 376.783 368.185 376.381C368.188 376.243 368.199 375.895 368.211 375.579L368.216 375.447L366.976 373.824L368.482 369.016L369.021 369.944L371.417 371.886L372.88 370.344L372.678 369.723L374.851 369.494L377.146 374.445L379.618 374.024L385.572 371.124L384.416 368.954L384.702 367.142L386.686 367.469L385.363 369.937L387.095 371.364L388.578 369.931L391.785 370.522L398.608 366.647L403.036 370.495L404.107 367.995L401.762 364.2L403.151 364.179L406.808 361.392L407.035 360.983L407.752 362.149L408.76 362.943L411.457 367.216L412.543 368.075L415.255 367.357L421.968 368.317L422.249 364.483L423.127 363.63L423.575 361.742L429.81 360.838L430.656 356.041L431.171 355.397L435.066 360.094L431.385 361.448L433.167 362.533L432.633 366.434L433.841 366.425L434.52 371.681L439.19 371.904L439.388 373.15L444.316 367.644L442.777 367.972L442.61 366.682L449.538 363.863L449.342 363.055L453.07 363.243L455.634 367.655L457.773 366.241L457.674 365.157L460.238 363.079L458.094 360.451L457.58 358.099L460.761 356.569L460.742 355.789L461.412 355.865L462.855 353.701C463.94 353.197 465.028 352.696 466.117 352.199C466.403 352.166 467.894 351.998 468.907 351.886L469.147 351.858L470.39 347.849L469.066 345.266L470.997 344.209L474.589 347.006L474.607 345.004L477.217 340.335L477.15 340.301L480.283 339.368L479.754 337.923L479.668 337.857C479.236 337.533 478.808 337.203 478.385 336.867C478.139 336.486 477.884 336.109 477.622 335.738C479.01 334.396 480.404 333.059 481.803 331.729C481.942 331.693 482.254 331.609 482.981 331.409L483.167 331.358L484.824 326.64L485.975 326.269L485.366 322.434L485.306 322.357C484.539 321.393 483.771 320.431 483.003 319.469C482.874 319.183 482.02 317.141 481.454 315.785L481.341 315.516L478.469 315.971L477.063 314.875L478.329 311.765L477.422 310.557L479.255 309.501L484.973 308.596L486.795 307.402L490.261 309.712L491.826 307.223L492.566 307.306L496.168 309.417L498.982 307.333L500.847 306.931L501.481 307.933L506.839 305.99L509.043 301.918L513.274 300.562L517.455 297.959L518.786 293.986L515.868 292.679L515.393 290.877L511.375 287.583L504.958 287.377L501.92 288.135L501.673 287.48L506.19 284.089L504.417 281.247L507.623 282.758L511.191 275.2L521.75 267.668L521.27 264.529L522.125 257.324L516.18 241.862H516.181Z" fill="#2BAB90"/>
<path fill-rule="evenodd" clip-rule="evenodd" d="M353.733 283.466L353.254 281.71L347.529 279.025L346.263 276.506L345.898 274.436L343.55 271.312L344.393 270.245L340.298 268.482L340.131 268.141L338.985 265.806L341.807 265.479L343.184 263.451L342.269 262.781L342.905 261.547L342.051 260.712L341.946 261.863L336.915 257.095L335.355 257.438L334.744 259.038L328.371 254.908L327.634 252.506L319.041 248.188L318.537 247.936L315.692 249.771L312.61 249.904L312.035 252.123L310.514 252.273L298.175 253.482L298.397 252.312L296.08 249.597L293.589 250.308L292.943 248.25L291.532 249.129L292.393 252.2L294.633 253.512L295.117 256.005L293.583 256.674L293.298 254.768L290.801 253.96L287.532 254.92L284.521 257.17L283.345 257.648L279.581 259.173L277.313 258.239L272.196 261.937L269.43 266.523L266.564 267.669L266.839 270.408L264.794 275.944L261.96 278.52L257.732 280.854L256.867 284.27L252.496 284.252L243.622 291.668L243.36 294.386L241.727 294.769L240.871 297.136L242.435 298.786L243.656 297.28L247.995 297.551L249.344 296.504L249.869 295.109L250.988 294.738L252.644 296.532L253.568 299.221L256.024 298.071L255.721 296.399L256.315 293.379L258.392 292.095L260.205 289.025L265.297 289.121L265.185 287.403L268.688 288.142L275.879 287.871L276.264 286.358L282.804 285.357L275.643 289.877L276.279 293.996L274.88 297.53L278.049 301.462L280.061 305.15L285.291 303.292L280.426 307.342L275.859 314.5L278.678 314.851C278.678 314.851 278.171 316.153 278.118 316.161C278.066 316.169 277.676 319.796 277.676 319.796L282.621 320.628L285.908 319.892L285.228 320.371L280.072 323.989L278.243 328.427L276.046 339.303L273.079 342.274L271.338 346.129L263.821 350.757L259.844 350.856L255.689 355.325L254.884 357.329L250.899 358.723L250.836 357.315L248.589 358.309L245.956 357.432L243.474 358.534L243.682 360.415L242.067 359.766L240.146 360.459L238.659 363.797L234.243 365.827L235.035 368.574L231.679 368.2L230.731 366.153L230.012 368.252L225.652 369.419L226.704 367.516L225.005 367.927L222.015 366.928L220.691 368.256L220.822 371.992L218.534 372.851L217.417 374.925L216.417 374L214.016 374.363L213.205 376.335L209.904 376.982C209.904 376.982 207.251 378.448 207.197 378.457C207.145 378.465 207.451 382.3 207.451 382.3L208.851 381.012L213.318 380.413L213.804 381.683L217.989 382.455L218.792 388.304L217.777 390.449L213.35 391.86L213.044 393.414L211.382 392.596L210.806 394.139L213.459 396.485L213.871 398.743L215.706 398.416L215.414 396.335L218.414 395.029L218.531 393.644L219.627 393.364L219.644 395.826L220.43 396.287L223.198 395.636L223.75 397L225.977 396.081L226.984 394.468L228.931 396.41L228.873 397.395L227.364 397.316L228.495 398.518C228.495 398.518 228.036 400.312 227.983 400.32C227.933 400.329 222.523 397.123 222.523 397.123L221.287 398.311C221.287 398.311 218.873 397.471 218.806 397.499C218.74 397.53 218.267 398.702 218.267 398.702L220.83 400.723L220.259 403.864L223.46 405.733L225.753 405.246L228.332 406.788L231.069 402.577L233.926 401.949L234.748 403.43L237.95 402.836L237.561 401.391L240.724 401.883L243.058 397.951L241.447 396.68C241.447 396.68 243.589 395.118 243.641 395.111C243.692 395.103 246.504 394.411 246.504 394.411L257.029 394.021L255.883 391.525L259.772 390.431L261.346 393.48L263.272 395.744L261.371 396.684L266.452 400.754L268.589 399.848L270.481 400.752L274.661 401.173L275.592 400.192L275.576 398.51L278.092 398.537L276.892 400.855L277.027 401.131L277.63 402.368C277.63 402.368 275.921 402.038 275.869 402.045C275.818 402.053 267.515 404.307 267.515 404.307L263.423 406.265L264.421 408.733L264.119 410.551L266.646 412.21C266.646 412.21 272.323 411.825 272.377 411.816C272.426 411.808 274.368 408.982 274.368 408.982L275.194 411.282L278.564 410.854C278.564 410.854 280.393 409.909 280.688 409.629C280.984 409.353 280.867 408.291 280.792 407.823C280.719 407.356 283.241 406.285 284.125 406.019C285.011 405.758 284.825 404.245 284.825 404.245L285.242 406.64L287.383 405.226L287.852 404.916L289.596 402.763L290.352 407.533L292.549 408.677L291.536 410.272L294.898 413.552L294.992 413.642L294.422 416.463L295.983 416.852L297.89 419.335L299.883 418.203L301.92 418.801L303.103 422.673L307.443 425.764L312.413 427.209L314.285 425.299L316.536 427.373L322.935 427.386L322.925 426.078L327.915 425.18L326.47 421.121L325.605 421.17L325.585 421.066L325.317 419.69L329.084 418.721L329.526 416.454L331.371 417.652L333.093 416.391L337.712 413.014L347.568 411.913L347.648 411.821L348.867 410.431L353.047 409.929L356.623 404.109L356.517 403.434L355.698 403.669L355.479 402.666L356.279 401.6L355.205 401.869L355.367 400.752L356.094 399.974L355.791 398.243L356.486 397.951L355.524 397.316L355.274 395.489L356.851 393.368L356.274 389.729L357.47 387.271L355.584 387.045L354.348 385.162L352.795 386.531L347.466 380.199L341.626 379.329L334.279 373.211L334.265 373.109L333.518 367.886L331.358 365.806L330.984 364.422L332.282 360.85L330.175 359.314L335.038 349.67L336.623 347.457L339.558 347.985L337.179 345.42C337.179 345.42 337.452 341.962 337.515 341.916C337.58 341.872 340.707 339.638 340.707 339.638L335.379 339.749L332.951 337.995C332.951 337.995 325.585 330.288 325.567 330.242C325.558 330.19 329.909 326.894 329.909 326.894L338.02 322.987C338.02 322.987 338.794 321.129 338.789 321.093C338.784 321.06 337.59 319.382 337.59 319.382C337.59 319.382 331.101 322.959 330.9 323.073C330.963 322.947 331.507 321.23 331.517 321.229C331.511 321.187 330.041 317.835 330.041 317.835L334.755 313.554L333.801 312.773L336.133 310.631C336.133 310.631 336.96 304.981 336.995 304.976L339.872 304.614L337.859 303.387L333.302 298.399L331.62 299.623L329.582 298.078C329.582 298.078 330.304 294.231 330.277 294.15C330.253 294.071 330.206 289.731 330.206 289.731L331.924 288.714L333.231 286.617C333.231 286.617 335.572 286.258 335.618 286.239C336.334 285.853 337.048 285.464 337.761 285.073L337.534 284.011L340.015 282.742C340.015 282.742 340.064 283.715 340.07 283.751C340.075 283.785 345.892 285.334 345.892 285.334L349.232 289.534C349.232 289.534 351.915 287.736 351.951 287.73C351.984 287.724 353.483 287.051 353.483 287.051L353.02 284.654L353.732 283.467L353.733 283.466ZM255.537 250.23L253.145 251.593L253.678 253.843L256.942 255.921L257.113 260.243L256.076 261.035L258.425 262.49L259.541 262.11L261.469 265.312L264.658 266.693L267.241 265.277C267.241 265.277 268.853 263.338 268.888 263.333C268.922 263.328 271.669 260.663 271.669 260.663L273.111 258.825L274.844 258.372L275.235 256.64L278.38 255.832L282.142 250.771L280.703 249.765L276.807 249.435L274.871 250.973L272.521 250.977L272.431 247.556L270.902 245.77L268.153 245.531L269.055 240.872L265.754 240.98L261.976 239.186L259.187 240.776L253.605 241.565L252.952 243.316L254.52 243.068L252.663 247.437L255.537 250.23ZM249.726 255.713L251.258 257.176L251.264 252.073L251.89 251.022L250.677 250.074L249.624 251.932L248.678 249.525L246.833 249.729L246.457 253.5L248.277 253.135L249.726 255.713Z" fill="#21826E"/>
<path fill-rule="evenodd" clip-rule="evenodd" d="M243.994 24.7488L241.714 23.5927L240.634 25.6028L241.064 27.1879L242.534 26.6911L243.994 24.7488ZM240.293 30.8018L241.833 30.3758L242.206 28.171L239.934 28.5303L240.293 30.8018ZM231.078 24.1134L229.786 21.9899L229.893 23.9885L231.078 24.1134ZM232.309 13.1259L231.075 10.8482L229.483 10.4004L228.037 12.2813L228.385 13.7706L230.091 16.9752L231.455 16.5544L232.001 23.0303L233.167 23.6177L234.216 23.3917L234.348 25.9891L235.906 28.0586L237.451 28.923L237.939 27.4108L236.459 26.6078C236.459 26.6078 237.541 21.0192 237.574 21.0151C237.606 21.0088 236.891 17.5511 236.891 17.5511L235.322 18.0291L234.178 16.4492L234.715 14.6152L232.31 13.1259H232.309ZM199.376 37.2777L199.124 36.1539L198.203 37.2235L199.376 37.2777ZM199.228 26.8275L198.816 28.847L198.026 29.9103L198.448 32.1287L197.735 33.7513L197.881 35.1874L200.403 33.3409L200.983 31.0289L199.662 30.2352L201.242 26.9911L199.228 26.8275ZM176.211 1.37492L178.124 -1.25584L176.242 -0.957973L176.211 1.37492ZM178.599 -3.33149L181.747 -7.79733L181.17 -9.88447L176.226 -4.85622L174.656 -3.02948L174.555 -1.72449L175.825 -1.24752L178.693 -1.34541L178.599 -3.33149ZM205.352 -13.5713L206.47 -13.5359L206.114 -15.7854L205.165 -16.0104L203.733 -14.5992L202.097 -14.6398L201.882 -13.0839L203.716 -12.2892L205.352 -13.5713ZM203.062 -20.3325L201.649 -20.0701L200.97 -18.838L202.888 -19.2671L203.062 -20.3325ZM213.857 -41.5349L215.477 -41.8369C215.503 -41.84 218.229 -46.2215 218.229 -46.2215L219.782 -47.1672L219.426 -48.5273L217.929 -48.0066L217.644 -46.8287L213.476 -42.5649L211.982 -42.1421L211.627 -39.8092L212.35 -39.2603L213.857 -41.5359V-41.5349ZM189.083 21.4504L191.305 18.402L190.695 16.9512L192.737 13.3634L194.243 13.2446L193.956 11.7355L195.318 11.6043L196.76 5.05133L197.93 4.92012L197.838 3.5891L198.919 1.30204L200.375 1.08331L202.334 -3.10029L201.885 -4.88121L203.808 -5.37798L204.65 -7.43595L206.054 -8.80549L205.481 -11.2977L203.79 -11.1373L203.041 -9.69177L201.799 -10.0813L200.516 -7.57135L194.486 -4.10531L193.228 -1.81406L191.481 -1.84845L190.707 0.258469L188.26 3.39539L191.504 5.14194L193.064 3.62762L194.526 4.05463L194.519 5.1305L192.137 5.74703L191.369 6.4667L190.007 5.84496L185.338 8.42573L183.58 10.9513L183.756 12.5854L183.156 13.5414L183.865 14.7683L183.291 16.6398L183.795 18.4728L185.778 19.9288L188.721 20.3714L189.083 21.4504Z" fill="#21826E"/>
<path fill-rule="evenodd" clip-rule="evenodd" d="M185.074 28.162L185.817 26.7143L183.575 21.8329L182.38 15.882L183.224 15.0383L181.461 10.0809L182.238 8.39687L178.57 7.9834L171.582 17.2182L171.091 11.6171L167.893 13.3834L164.787 13.6792L162.927 19.2271L163.83 20.0416L163.882 21.383L162.696 22.3162L161.966 24.8803L160.663 28.2463L160.97 29.6169L162.644 29.494L166.703 26.7935L168.313 24.1065L168.222 22.1693L170.874 19.4594L173.676 22.2464L170.581 25.0074L169.691 26.5508L172.532 26.7404L172.563 32.3883L171.068 32.6247L171.558 33.7807L169.469 37.1989L169.65 38.3413L170.863 38.1497L172.454 39.212L174.769 37.6738L175.328 34.8337L177.55 34.4108L177.489 35.5044L181.05 34.4421L183.347 32.6768L183.005 30.974L184.393 31.9967L186.598 30.1658L186.125 28.6608L185.074 28.162ZM117.484 -84.7641L119.06 -87.2324L115.273 -89.0696L117.484 -84.7641ZM116.312 -89.8705L120.352 -88.7092L124.423 -97.5003L118.573 -92.722L116.312 -89.8705ZM132.895 -108.744L130.012 -114.066L135.144 -124.436L132.61 -130.07L136.476 -130.683L135.59 -134.64L133.953 -137.283L138.866 -136.897L142.5 -145.998L138.063 -150.028L139.637 -150.524L143.339 -148.397L145.118 -150.709L138.894 -155.655L134.086 -153.449L124.528 -153.111L121.568 -148.414L126.912 -145.538L130.814 -138.371L126.98 -135.861L129.019 -130.982L125.184 -129.588L125.997 -119.278L125.015 -109.657L125.819 -103.397L132.149 -102.215L132.895 -108.744ZM117.046 -140.559L117.265 -142.667L114.953 -142.555L117.046 -140.559ZM140.208 -157.027L141.208 -160.676L137.001 -157.814L138.645 -157.087L140.208 -157.027ZM149.39 -175.205L148.452 -175.789L144.996 -173.533L148.875 -172.365L149.39 -175.205Z" fill="#21826E"/>
<path fill-rule="evenodd" clip-rule="evenodd" d="M185.162 -58.2344L180.988 -57.5741L180.445 -56.1368L180.787 -53.6081L179.101 -53.1884L177.86 -55.0475L176.88 -53.9883L174.838 -54.5694L175.124 -52.324L176.339 -52.1761L176.446 -51.1357L174.174 -49.085L174.176 -47.101L179.733 -47.4291L180.782 -45.7512L182.55 -45.6555L182.769 -43.0965L186.517 -42.079L187.548 -43.5454L190.31 -43.5246L190.356 -41.7468L187.979 -40.748L179.251 -32.6974L182.479 -31.5747L185.85 -33.4598L187.685 -33.3858L189.485 -34.8564L190.066 -33.4098L188.248 -31.231L185.249 -30.6863L184.607 -29.4334L180.774 -29.2032L176.99 -29.6782L177.631 -27.766L174.926 -28.7585L174.526 -30.5447L171.584 -30.4843L171.165 -28.8908L171.499 -26.7485L170.14 -26.3986L169.688 -25.0873L171.771 -24.6655L172.757 -25.3737L173.636 -24.7322L173.063 -23.7428L176.425 -23.1002L177.681 -25.8601L178.347 -24.9082L179.314 -25.9538L181.79 -24.4906L182.851 -25.7612L185.567 -26.8381L185.717 -25.1582L187.306 -25.304L190.168 -27.6723L192.484 -27.439L195.481 -31.2372L195.591 -27.2276L197.121 -26.6464L204.194 -30.6082L202.944 -31.8663L201.361 -31.6747L201.887 -33.8128L203.006 -33.9794L202.656 -36.3311L204.081 -35.0886L203.948 -33.1181L206.691 -33.6576L206.42 -35.224L207.57 -36.0051L206.249 -39.4712L192.634 -45.5127L191.364 -50.6556L189.077 -54.0987L187.874 -53.8727L187.082 -55.1099L188.144 -56.0056L185.162 -58.2344ZM219.747 48.1836L220.849 48.3533L221.36 50.0822L223.364 53.6378L227.257 54.9761L233.421 53.7294L233.037 51.31L234.091 48.9896L233.171 46.0589L234.307 44.4853L233.234 42.32L230.629 41.8639L230.331 32.9697L227.122 30.6555L226.965 29.6661L223.688 28.7736L222.573 30.2462L219.188 32.2354L219.225 33.7331L217.932 36.0368L218.564 40.7151L220.2 42.7543L219.588 44.7696L219.747 48.1836Z" fill="#21826E"/>
<path fill-rule="evenodd" clip-rule="evenodd" d="M400.831 -138.75L392.126 -149.08L386.218 -149.989L384.361 -147.338L380.695 -146.88L377.948 -148.272L376.043 -146.818L366.214 -146.168L364.751 -147.657L360.377 -148.313L358.844 -147.076L357.846 -147.983L354.074 -148.893L352.109 -147.926L350.163 -149.977L347.636 -149.648L346.417 -147.113L343.822 -147.537L342.402 -145.839L338.222 -146.613L326.79 -151.582L321.186 -149.452L318.999 -149.319L314.172 -142.948L311.723 -144.729L309.845 -146.095L305.838 -142.748L295.396 -140.03L293.966 -141.082L291.219 -139.44L291.614 -136.823L285.458 -130.526L281.118 -130.516L274.621 -131.988L279.534 -132.748L281.535 -132.034L282.916 -133.76L281.965 -136.06C281.965 -136.06 285.39 -136.23 285.398 -136.176C285.425 -136.182 286.063 -138.056 286.063 -138.056L288.962 -138.623L288.539 -140.844L291.847 -144.331L293.541 -147.012L290.842 -147.771L283.311 -146.649L273.963 -138.145L275.17 -142.79L284.378 -149.924L286.542 -148.847L289.427 -151.415L294.03 -153.58L292.901 -150.493L293.995 -149.193L296.307 -149.558L300.879 -155.854L303.89 -162.91L302.04 -163.347L298.737 -160.04L297.385 -162.732L292.529 -160.351L285.918 -163.562L279.455 -164.26L274.952 -170.217L275.872 -171.019L280.951 -165.473L285.709 -165.445L289.918 -163.591L294.951 -168.77L291.346 -173.096L300.198 -176.092L311.031 -185.225L312.857 -188.635L315.827 -189.105L321.034 -194.188L326.385 -202.093L329.688 -201.802L329.459 -203.807L332.256 -203.911L335.838 -206.466L337.504 -209.3L339.786 -210.514L339.983 -214.322L342.189 -216.357L341.885 -219.628L340.284 -220.51L338.612 -225L341.311 -227.397L342.442 -230.803L342.983 -234.474L335.913 -236.299L335.394 -237.885L325.01 -237.164L326.554 -234.374L328.197 -233.782L327.199 -230.644L319.061 -232.248L319.566 -233.677L316.478 -233.614L307.895 -228.031L297.626 -229.707L296.772 -231.735L295.119 -230.942L295.261 -229.032L293.436 -228.084L292.842 -229.358L289.721 -229.75L289.21 -227.24L286.574 -227.14L285.549 -224.052L283.5 -226.991L279.196 -226.205L277.404 -221.998L273.369 -217.936L273.124 -219.247L275.481 -221.89L276.084 -227.521L273.407 -230.04L269.608 -230.149L265.121 -222.638L261.419 -219.434L260.769 -220.901L265.258 -226.42L264.656 -229.001L262.255 -229.828L261.334 -233.504L259.727 -232.524L259.517 -225.713L257.852 -225.54L257.368 -228.222L258.192 -230.979L255.423 -234.256L252.568 -233.804L250.76 -234.992L249.326 -234.818L248.12 -230.926L244.442 -225.997L243.278 -222.566L248.688 -219.477L248.361 -217.731L246.661 -218.843L244.844 -218.363L245.456 -215.958L244.758 -214.622C244.758 -214.622 242.883 -216.125 242.862 -216.15C242.823 -216.144 240.532 -212.437 240.532 -212.437L239.763 -209.043L242.107 -204.507L244.371 -203.429L249.451 -200.393L247.437 -199.755L242.834 -202.351L241.082 -200.938L238.152 -201.247L233.084 -199.851L232.456 -201.351L230.137 -202.907L229.315 -200.009L230.55 -198.899L232.32 -193.787L235.1 -192.303L233.02 -190.662L233.573 -188.069L232.858 -184.897L229.724 -185.694L226.433 -188.421L225.289 -186.82L226.362 -182.529L228.628 -182.283L231.388 -179.901L231.712 -176.668L233.721 -176.197L237.346 -173.807L235.664 -172.346L237.604 -170.93L239.786 -168.528L238.258 -168.286L234.67 -170.874L232.837 -171.047L229.052 -172.87L227.187 -172.778L227.217 -171.026L230.792 -170.022L231.002 -168.575L233.887 -166.379L234.469 -164.794L232.32 -165.146L230.269 -167.703L225.505 -169.361L223.331 -166.507L220.577 -166.87L220.045 -170.121L218.274 -172.148C218.274 -172.148 216.272 -171.973 216.246 -171.977C216.214 -171.973 215.679 -170.219 215.679 -170.219L214.296 -169.061L215.749 -165.626L218.026 -164.897L217.987 -160.757L215.785 -158.982L213.417 -162.366L212.198 -167.469L206.696 -166.81L206.185 -164.254C206.185 -164.254 207.55 -160.178 207.556 -160.15C207.56 -160.126 206.035 -158.19 206.035 -158.19L208.402 -155.204L211.397 -155.678L212.463 -152.991L211.483 -151.48L209.874 -152.49L205.555 -147.674L205.721 -146.361L207.546 -146.862L209.554 -143.836L209.035 -142.778L211.23 -140.287L213.76 -138.968C213.76 -138.968 215.749 -139.177 215.774 -139.181C215.802 -139.185 218.977 -138.57 218.977 -138.57L217.098 -136.824L214.212 -137.069L212.239 -134.769L210.801 -138.56L208.224 -138.092L207.132 -140.367L203.824 -140.968L201.794 -132.108L203.843 -128.921L203.516 -123.631C203.516 -123.631 205.153 -120.495 205.158 -120.462C205.163 -120.425 208.082 -120.663 208.082 -120.663L210.594 -122.088L214.106 -126.595L214.559 -122.917L215.979 -120.456L211.723 -119.537L207.645 -115.544L207.987 -113.765L212.14 -114.445L214.671 -113.295L218.198 -113.95L221.136 -111.435L223.077 -108.549L221.009 -108.338L217.512 -112.221L211.945 -109.615L212.197 -106.659L209.371 -104.819L209.784 -102.127L212.251 -101.914L215.427 -100.585L216.94 -96.968L214.915 -96.6951L207.185 -98.6166L204.079 -93.5728L206.257 -91.669L208.826 -91.4023L209.97 -88.4612L211.874 -87.6759L215.694 -88.1134L215.792 -86.9L210.495 -85.669L206.372 -89.8901L200.982 -89.0965L200.615 -85.1952L199.076 -82.1842L199.463 -80.5533L196.627 -79.9628L195.543 -78.5735L198.015 -77.7215L205.876 -79.4025L206.439 -78.0986L203.481 -76.3155L205.779 -74.5513L200.419 -72.888L198.189 -71.3029L197.899 -68.5034L199.572 -66.5548L198.676 -65.5383L193.281 -69.0356L193.511 -67.5109L183.236 -67.4349L180.582 -64.65L181.819 -60.8121L184.824 -60.0331L188.122 -61.762L189.225 -60.1164L193.31 -60.1706L194.645 -59.1531L198.285 -59.8113L199.277 -58.9802L200.358 -60.1393L201.226 -60.2279L201.52 -61.3048L202.514 -61.3568L202.345 -62.2983C202.345 -62.2983 204.269 -62.5545 204.288 -62.541C204.307 -62.5275 205.16 -61.762 205.16 -61.762L206.228 -61.9078L208.139 -59.728L212.2 -60.2997L213.852 -59.6155L209.725 -58.7011L206.77 -59.0854L203.519 -60.4383L202.654 -60.5143L202.167 -59.5395L199.751 -58.3064L190.859 -56.9212L190.84 -55.0955C190.84 -55.0955 191.897 -53.9634 191.908 -53.8936C191.919 -53.8249 193.662 -49.559 193.662 -49.559L197.866 -46.5346L199.869 -46.6387L204.658 -44.8651L205.875 -42.5738L207.647 -42.6186L208.722 -44.3725L212.241 -45.8295L214.675 -49.3372L215.6 -52.4866L217.726 -52.9907L219.512 -55.9443L220.973 -55.1111L229.28 -63.7835L229.996 -66.3091L232.189 -67.7431L234.56 -71.3383L235.836 -70.7822L233.578 -66.6163L229.74 -61.6339L230.004 -60.256L231.934 -61.1037L233.067 -58.8958L226.78 -57.4044L225.297 -56.5765L226.368 -55.0684L224.73 -53.1261L221.214 -48.9529L220.431 -46.4762L222.141 -44.9723L216.915 -41.5657L216.921 -40.3972L218.903 -40.77L220.666 -37.8789L218.158 -37.53L215.468 -35.1169L214.333 -35.4678L212.044 -33.2391C212.044 -33.2391 213.067 -30.9874 213.076 -30.9353C213.084 -30.8822 213.373 -28.5035 213.373 -28.5035L211.253 -27.612L210.242 -24.5626L209.093 -26.6507L207.326 -24.774L207.71 -22.1203L205.535 -19.2219L206.325 -15.8215L207.432 -15.0174L208.191 -19.7666L210.887 -21.1673L212.202 -20.507L214.384 -21.7745L215.051 -20.4977L212.412 -18.5022L213 -16.589L208.623 -12.419L207.529 -8.89355L208.827 -8.67279L209.436 -10.1173L212.106 -12.8991L212.988 -12.1701L211.327 -8.96335L211.492 -6.57732L209.778 -5.47128L204.286 1.96381L201.808 6.09846C201.808 6.09846 202.608 7.6763 202.599 7.72838C202.658 7.71901 204.633 5.84538 204.633 5.84538L207.217 0.594269L209.325 -0.483658L209.436 1.11189L207.606 2.59077L206.741 5.90268L203.35 10.3237L203.357 12.1671L205.408 11.6329L206.921 8.71359L208.213 9.57388L204.42 16.2935L203.618 19.8803L206.252 21.1301L205.568 22.9777L206.996 24.4555L211.001 21.2123L214.403 16.859L215.159 17.9109C215.159 17.9109 212.764 22.7954 212.714 22.8037C212.661 22.8121 208.12 25.7303 208.12 25.7303L202.886 31.4375L202.858 37.4406L199.626 42.5272L200.146 54.6854L197.607 55.178L194.634 57.5276L194.378 64.5585L199.13 66.6988L205.399 65.5823L208.835 60.4426L206.718 55.3842L210.866 48.2168L211.545 43.5135L213.327 42.7375L213.152 40.1734L216.636 27.5758L218.249 25.5126L221.344 25.0398L222.052 21.1124L217.124 13.9283L214.983 2.31686L216.626 1.9086L218.559 3.21567L221.14 0.978561L226.64 -7.90729L228.98 -9.0779L229.725 -10.8995L236.795 -18.8303L237.539 -17.617L242.145 -20.229L241.909 -18.6814L237.37 -14.8768L234.311 -10.2402C234.311 -10.2402 230.657 -8.72275 230.568 -8.70921C230.482 -8.69463 225.164 -1.82091 225.164 -1.82091L221.368 4.31441L221.058 9.10104L222.709 16.6996L224.437 17.9505L226.984 18.3108L226.499 12.6566L227.416 11.3589L227.203 7.5607L228.289 7.33472L229.241 9.40097L231.285 10.7466L233.293 13.0889L234.222 12.4275L232.846 7.12746L234.258 6.70877L236.379 13.0097L235.618 15.6301L239.677 16.3018L241.143 11.6329L243.106 8.18349L242.356 6.38593L243.994 5.47046L243.896 1.49202L244.582 -1.2585L245.86 0.0662537L245.579 3.35522C245.579 3.35522 247.153 5.64334 247.178 5.69333C247.203 5.74332 250.513 4.38525 250.513 4.38525L247.864 1.8232L247.275 -2.23334L248.442 -2.50829L249.918 2.10027L253.054 4.03738L254.432 7.2243L263.484 10.5466L266.166 10.5112L269.086 14.726L269.234 14.9385L268.176 14.8958L265.415 12.5108L262.922 12.0526L254.377 10.4779L248.092 7.41074L245.371 12.8285L243.347 13.5377L243.772 15.3697L245.481 22.7256L244.962 27.0863L242.747 31.8698L246.463 37.4552L249.236 37.7801L254.582 43.3208L253.19 45.4204L254.149 46.0859L256.267 52.2619L248.86 58.6315L244.921 69.2775L243.504 74.9285L238.908 78.7278L232.163 91.6265L233.552 95.2466L234.434 97.5483L234.203 102.038L232.778 103.166L231.583 99.9864L230.919 94.1302L228.712 94L225.657 95.833L224.615 102.863L228.264 109.932L232.809 114.569L235.664 120.24L235.095 122.936L237.961 128L240.256 127.654C240.309 127.646 238.538 118.843 238.538 118.843L238.134 111.118L244.82 107.275L247.222 111.649L262.947 124.63L265.941 125.666L268.183 123.855L267.506 119.032L269.392 114.314C269.392 114.314 268.434 113.543 268.425 113.493C268.417 113.441 264.261 106.982 264.261 106.982L270.38 109.211L276.897 113.943L277.859 115.849L281.291 117.309L284.115 116.579L289.018 117.877L293.14 115.025L294.203 113.651L296.585 112.849L296.756 106.613L299.295 109.742L304.136 106.705L309.148 107.033L309.342 98.5346L323.553 99.3L336.624 97.9628L337.38 91.6619L344.485 89.6539L347.58 86.5045L356.351 79.7568L363.114 69.1952L365.476 67.3674L367.587 64.2826L374.809 63.14L374.273 60.4406L383.197 53.7428L374.418 38.7737L377.253 37.474L380.021 38.0832L381.432 34.6464L388.206 26.5145L390.114 22.9485L389.848 21.1457L388.532 20.2552L387.993 17.5276L385.671 15.7915L385.037 13.7127L381.582 12.1109L376.921 13.1315L375.535 11.1184L373.922 10.9726L373.89 10.9695L367.316 5.8735L357.303 -0.368057L350.498 -0.086853L341.761 9.91859L337.419 10.606L334.121 8.53656L332.652 6.90666L328.45 7.57216L322.635 6.02556L319.345 6.72336L318.783 6.49945L314.77 4.91222L306.243 4.45085L302.417 -1.27725L302.769 -1.33768L304.547 -1.64801L304.637 -1.60739L318.032 4.27068L321.181 4.37689L321.72 2.60536L325.43 2.21065L327.51 -0.280563L329.249 0.933777L332.591 -0.217026L332.874 -3.9351L335.072 -6.57004L337.207 -6.90852L339.176 -9.98712L342.814 -13.3136L347.209 -11.063L352.539 -11.9065L355.92 -13.9322L358.482 -14.604L361.402 -18.3116L360.5 -21.2027L357.634 -23.6752L354.768 -24.448L350.748 -34.1014L345.11 -35.195C345.11 -35.195 344.411 -33.7879 344.358 -33.7786C342.79 -33.3335 341.224 -32.8853 339.659 -32.434L335.448 -30.1522L331.28 -26.6736L327.995 -25.7196L327.776 -25.6572L327.739 -27.5839L334.766 -33.663L338.708 -36.1865L341.789 -35.9021L343.456 -35.748L345.626 -37.6695L347.617 -36.6739L351.99 -38.5017L354.658 -36.9363L363.79 -45.2285L364.268 -46.3721L367.379 -49.7704L367.008 -54.6987L369.874 -56.3755L370.957 -62.5733L371.068 -63.219L378.985 -70.2906L381.58 -74.922L383.892 -87.175L386.336 -89.7256L388.556 -95.1912L388.602 -95.3006L388.739 -104.76L392.218 -111.217L395.039 -116.453L395.505 -119.013L397.373 -120.249L401.171 -124.469L402.528 -127.698L401.957 -129.612L403.335 -131.356L400.831 -138.75Z" fill="#21826E"/>
<path fill-rule="evenodd" clip-rule="evenodd" d="M156.513 123.03L158.082 118.241L158.23 115.148L158.348 115.254L159.861 116.61L161.558 119.941L165.32 117.877L169.332 117.734C169.332 117.734 166.277 126.313 166.234 126.32C166.251 126.317 167.671 129.807 167.671 129.807L165.962 131.905L163.463 134.977L163.147 135.691L162.922 136.201L161.793 138.757L160.027 137.266L156.831 136.034L154.099 137.325L150.723 136.047L150.668 136.026L151.008 131.791L151.387 131.307L155.53 126.038L156.416 123.321L156.513 123.03ZM206.715 131.624L206.16 128.005L206.835 127.245L204.92 124.867L204.834 124.862L201.255 124.562L199.208 124.919L195.376 123.418L190.345 126.076L189.737 127.165L189.716 127.147L188.575 126.195L186.589 125.624L187.2 122.975L189.174 122.718L191.682 120.315L194.408 118.982L197.896 116.973L198.74 115.14L198.695 114.903L197.392 107.974L194.04 107.62L192.583 106.131L192.6 104.887L191.251 103.752L185.503 95.1953L185.277 88.1904L181.33 86.1772L181.11 85.2326L182.516 80.5959L177.533 72.2745L172.732 74.17C172.732 74.17 171.469 73.215 171.461 73.1598C171.453 73.1129 165.615 70.5801 165.615 70.5801H158.091L156.698 72.059L153.557 73.1056L152.727 73.3827L148.1 74.1148L147.293 75.2854L141.171 76.1009L140.305 76.2155L134.782 76.2228L131.476 82.8611L129.77 85.2607L124.733 86.0022L119.16 86.0168L119.046 85.2992L119.149 85.2628L119.19 85.2482L118.9 84.3734L118.608 83.4975L115.59 84.5942L114.816 83.8089L112.736 84.9639L109.886 88.708L109.819 93.8727L107.115 94.1414L106.954 99.5622L107.096 100.462L106.248 103.313L105.203 103.478L104.743 104.698L101.517 107.645L99.4626 110.613L98.6331 110.778L93.9155 111.718C93.8322 111.732 93.7988 111.737 88.7332 113.298L86.4197 110.795L81.3573 113.831L81.0029 118.649L82.291 119.364L84.7201 122.207L86.4989 121.679L91.6396 122.481L91.8188 123.833L87.0794 125.45L84.4408 129.323L75.8956 127.896L73.7354 131.188L70.1152 133.697L69.6743 134.516L65.5664 133.947L65.9093 136.105L68.9897 140.691L71.8471 146.062L75.0151 148.885L76.5761 151.908L79.6784 152.462L80.1349 152.767L80.4048 160.272L85.313 162.162L90.0462 163.416L92.7942 164.67L93.0766 166.23L98.1089 169.216L100.652 170.125L103.646 168.452L105.54 169.951L107.532 170.512L108.964 171.591L110.249 170.518L110.331 170.943L113.824 167.839L114.943 163.171L117.581 161.879C117.867 161.843 118.607 161.764 119.27 161.699L120.254 161.599L119.274 155.952L117.421 153.989L118.292 151.364L120.16 151.848L124.495 146.443L126.589 144.313C128.396 145.336 129.263 145.823 129.73 146.047C129.949 146.245 130.942 147.241 131.896 148.208L132.013 150.307L133.128 150.915L134.153 152.379L132.978 155.817L133.314 158.413L135.375 159.027L136.066 162.667L141.122 167.897L142.243 165.874L143.014 165.391L144.516 167.066L145.095 169.357L143.092 174.057L143.792 177.173L145.37 181.334L148.15 179.681L148.606 178.833L153.099 179.118L153.393 178.667C153.792 178.053 154.095 177.586 154.326 177.226C154.921 177.73 155.772 178.459 156.556 179.135L157.106 179.61L159.513 177.874L160.439 175.036L162.245 177.279L164.504 174.139L165.888 175.196L168.669 174.757L177.659 181.537L178.873 179.379L181.03 179.146L184.011 176.046L186.314 168.559L186.382 168.335L185.892 165.575L187.785 163.109L189.355 159.706L189.237 162.542L197.543 164.917L199.328 162.118L204.208 157.373L205.348 157.193L203.564 152.299L202.597 150.431L198.034 152.02L197.025 151.26L199.555 148.218L200.598 144.416L198.95 143.082L198.834 142.442L198.594 141.171L199.709 138.245L197.687 136.898L197.168 134.055L197.494 133.33L198.666 132.789L204.042 136.778L206.053 144.315L205.389 146.178L204.491 146.423L205.927 153.573L206.701 155.208L209.46 149.397L208.935 145.422L209.886 140.36L206.714 131.624H206.715Z" fill="#2BAB90"/>
<ellipse cx="559.5" cy="327.5" rx="27.5" ry="3" fill="black" fill-opacity="0.3"/>
<path fill-rule="evenodd" clip-rule="evenodd" d="M520 274.004C520 252.312 537.642 234.727 559.405 234.727C581.168 234.727 598.81 252.312 598.81 274.004C598.81 283.48 595.441 292.178 589.833 298.963C589.74 299.152 589.619 299.33 589.469 299.491L565.822 324.874C562.358 328.593 556.453 328.593 552.988 324.874L529.342 299.491C529.191 299.33 529.07 299.152 528.978 298.963C523.37 292.178 520 283.48 520 274.004Z" fill="white"/>
<path fill-rule="evenodd" clip-rule="evenodd" d="M550.234 250.438V291.028C550.234 291.4 550.536 291.702 550.909 291.702C557.12 291.702 562.155 286.667 562.155 280.456V275.021L560.321 269.695L556.194 266.345L554.704 264.899L557.685 260.56L556.882 254.567L552.068 250.438H550.234Z" fill="#59CBE8"/>
<path fill-rule="evenodd" clip-rule="evenodd" d="M541.981 258.233C541.981 253.475 545.625 249.522 550.234 249.522C554.844 249.522 558.487 253.475 558.487 258.233C558.487 260.829 557.402 263.186 555.667 264.791C558.753 266.179 561.033 268.768 562.101 271.984C562.136 272.081 562.155 272.185 562.155 272.294C562.155 272.801 561.744 273.211 561.238 273.211C560.799 273.211 560.432 272.903 560.342 272.491C559.311 269.409 556.995 267.074 553.866 266.06C552.774 266.625 551.543 266.944 550.234 266.944C548.925 266.944 547.693 266.625 546.601 266.059C542.327 267.438 539.23 271.472 539.23 276.235V291.702C539.23 292.209 538.82 292.619 538.313 292.619C537.807 292.619 537.396 292.209 537.396 291.702V276.235C537.396 271.13 540.436 266.737 544.798 264.789C543.065 263.184 541.981 260.828 541.981 258.233ZM550.234 251.355C546.741 251.355 543.815 254.381 543.815 258.233C543.815 262.084 546.741 265.11 550.234 265.11C553.728 265.11 556.653 262.084 556.653 258.233C556.653 254.381 553.728 251.355 550.234 251.355Z" fill="#222222"/>
<path d="M549.317 277.031C549.317 276.018 550.138 275.197 551.151 275.197H578.66C579.673 275.197 580.494 276.018 580.494 277.031V289.868C580.494 290.881 579.673 291.702 578.66 291.702H551.151C550.138 291.702 549.317 290.881 549.317 289.868V277.031Z" fill="white"/>
<path fill-rule="evenodd" clip-rule="evenodd" d="M548.4 277.031C548.4 275.512 549.632 274.28 551.151 274.28H578.66C580.18 274.28 581.411 275.512 581.411 277.031V289.868C581.411 291.388 580.18 292.619 578.66 292.619H551.151C549.632 292.619 548.4 291.388 548.4 289.868V277.031ZM551.151 276.114C550.645 276.114 550.234 276.524 550.234 277.031V289.868C550.234 290.375 550.645 290.785 551.151 290.785H578.66C579.167 290.785 579.577 290.375 579.577 289.868V277.031C579.577 276.524 579.167 276.114 578.66 276.114H551.151Z" fill="#222222"/>
<path fill-rule="evenodd" clip-rule="evenodd" d="M553.902 283.45C553.902 282.943 554.313 282.533 554.819 282.533H556.653C557.159 282.533 557.57 282.943 557.57 283.45C557.57 283.956 557.159 284.367 556.653 284.367H554.819C554.313 284.367 553.902 283.956 553.902 283.45Z" fill="#222222"/>
<path fill-rule="evenodd" clip-rule="evenodd" d="M572.242 283.45C572.242 282.943 572.652 282.533 573.158 282.533H574.992C575.499 282.533 575.909 282.943 575.909 283.45C575.909 283.956 575.499 284.367 574.992 284.367H573.158C572.652 284.367 572.242 283.956 572.242 283.45Z" fill="#222222"/>
<path d="M567.657 283.45C567.657 284.969 566.425 286.201 564.906 286.201C563.386 286.201 562.155 284.969 562.155 283.45C562.155 281.93 563.386 280.699 564.906 280.699C566.425 280.699 567.657 281.93 567.657 283.45Z" fill="#59CBE8"/>
<path fill-rule="evenodd" clip-rule="evenodd" d="M563.989 280.699C563.989 280.192 564.399 279.782 564.906 279.782C566.931 279.782 568.574 281.424 568.574 283.45C568.574 285.475 566.931 287.118 564.906 287.118C564.399 287.118 563.989 286.707 563.989 286.201C563.989 285.694 564.399 285.284 564.906 285.284C565.919 285.284 566.74 284.463 566.74 283.45C566.74 282.437 565.919 281.616 564.906 281.616C564.399 281.616 563.989 281.205 563.989 280.699Z" fill="#222222"/>
<rect x="574" y="234.67" width="100" height="34" rx="17" fill="#2397D4"/>
<path d="M586.874 258.67V255.991H588.318V252.609H586.874V251.203H588.394C588.09 250.747 587.786 250.063 587.786 249.151C587.786 246.966 589.686 245.028 592.175 245.028C594.55 245.028 596.488 246.909 596.583 249.265H593.695C593.695 248.353 593.03 247.707 592.175 247.707C591.32 247.707 590.674 248.315 590.674 249.417C590.674 250.386 591.32 251.203 592.422 251.203H593.695V252.609H591.206V255.991H596.583V258.67H586.874ZM597.279 258.67L603.245 251.431C603.929 250.595 604.366 250.158 604.366 249.36C604.366 248.448 603.739 247.707 602.77 247.707C601.801 247.707 601.193 248.467 601.193 249.379V249.645H598.305V249.379C598.305 246.947 600.338 245.028 602.77 245.028C605.202 245.028 607.254 246.947 607.254 249.379C607.254 250.443 606.855 251.393 606.228 252.153L603.131 255.991H607.235V258.67H597.279ZM614.139 258.822C611.137 258.822 609.009 256.58 609.009 251.925C609.009 247.27 611.137 245.028 614.139 245.028C617.122 245.028 619.25 247.27 619.25 251.925C619.25 256.58 617.122 258.822 614.139 258.822ZM614.139 255.991C615.355 255.991 616.362 255.098 616.362 251.925C616.362 248.752 615.355 247.859 614.139 247.859C612.923 247.859 611.897 248.752 611.897 251.925C611.897 255.098 612.923 255.991 614.139 255.991ZM621.605 261.596L622.441 258.67H621.168V255.364H624.474V258.67L623.258 261.596H621.605ZM631.525 258.822C628.523 258.822 626.395 256.58 626.395 251.925C626.395 247.27 628.523 245.028 631.525 245.028C634.508 245.028 636.636 247.27 636.636 251.925C636.636 256.58 634.508 258.822 631.525 258.822ZM631.525 255.991C632.741 255.991 633.748 255.098 633.748 251.925C633.748 248.752 632.741 247.859 631.525 247.859C630.309 247.859 629.283 248.752 629.283 251.925C629.283 255.098 630.309 255.991 631.525 255.991ZM643.437 258.822C640.435 258.822 638.307 256.58 638.307 251.925C638.307 247.27 640.435 245.028 643.437 245.028C646.42 245.028 648.548 247.27 648.548 251.925C648.548 256.58 646.42 258.822 643.437 258.822ZM643.437 255.991C644.653 255.991 645.66 255.098 645.66 251.925C645.66 248.752 644.653 247.859 643.437 247.859C642.221 247.859 641.195 248.752 641.195 251.925C641.195 255.098 642.221 255.991 643.437 255.991ZM655.349 258.822C652.347 258.822 650.219 256.58 650.219 251.925C650.219 247.27 652.347 245.028 655.349 245.028C658.332 245.028 660.46 247.27 660.46 251.925C660.46 256.58 658.332 258.822 655.349 258.822ZM655.349 255.991C656.565 255.991 657.572 255.098 657.572 251.925C657.572 248.752 656.565 247.859 655.349 247.859C654.133 247.859 653.107 248.752 653.107 251.925C653.107 255.098 654.133 255.991 655.349 255.991Z" fill="white"/>
<ellipse cx="163.5" cy="148.33" rx="27.5" ry="3" fill="black" fill-opacity="0.3"/>
<path fill-rule="evenodd" clip-rule="evenodd" d="M124 94.8339C124 73.1416 141.642 55.5566 163.405 55.5566C185.168 55.5566 202.81 73.1416 202.81 94.8339C202.81 104.31 199.441 113.008 193.833 119.793C193.74 119.982 193.619 120.16 193.469 120.321L169.822 145.704C166.358 149.423 160.453 149.423 156.988 145.704L133.342 120.321C133.191 120.16 133.07 119.982 132.978 119.793C127.37 113.008 124 104.31 124 94.8339Z" fill="white"/>
<path fill-rule="evenodd" clip-rule="evenodd" d="M154.234 71.2684L154.234 111.858C154.234 112.23 154.536 112.532 154.909 112.532C161.12 112.532 166.155 107.497 166.155 101.286V95.8505L164.321 90.525L160.194 87.1745L158.704 85.7285L161.684 81.3905L160.882 75.3971L156.068 71.2684H154.234Z" fill="#59CBE8"/>
<path fill-rule="evenodd" clip-rule="evenodd" d="M145.981 79.0627C145.981 74.3048 149.625 70.3515 154.234 70.3515C158.844 70.3515 162.487 74.3048 162.487 79.0627C162.487 81.6591 161.402 84.0159 159.667 85.6214C162.753 87.0089 165.033 89.598 166.101 92.8139C166.136 92.9108 166.155 93.0153 166.155 93.1242C166.155 93.6306 165.744 94.0412 165.238 94.0412C164.799 94.0412 164.432 93.7328 164.342 93.3208C163.311 90.2388 160.995 87.9042 157.866 86.8896C156.774 87.4552 155.543 87.774 154.234 87.774C152.925 87.774 151.693 87.455 150.601 86.8892C146.327 88.2682 143.23 92.3015 143.23 97.0649V112.532C143.23 113.039 142.82 113.449 142.313 113.449C141.807 113.449 141.396 113.039 141.396 112.532V97.0649C141.396 91.9597 144.436 87.5666 148.798 85.6191C147.065 84.0136 145.981 81.6578 145.981 79.0627ZM154.234 72.1854C150.741 72.1854 147.815 75.2113 147.815 79.0627C147.815 82.9142 150.741 85.9401 154.234 85.9401C157.728 85.9401 160.653 82.9142 160.653 79.0627C160.653 75.2113 157.728 72.1854 154.234 72.1854Z" fill="#222222"/>
<path d="M153.317 97.8608C153.317 96.8479 154.138 96.0268 155.151 96.0268H182.66C183.673 96.0268 184.494 96.8479 184.494 97.8608V110.698C184.494 111.711 183.673 112.532 182.66 112.532H155.151C154.138 112.532 153.317 111.711 153.317 110.698V97.8608Z" fill="white"/>
<path fill-rule="evenodd" clip-rule="evenodd" d="M152.4 97.8608C152.4 96.3415 153.632 95.1098 155.151 95.1098H182.66C184.18 95.1098 185.411 96.3415 185.411 97.8608V110.698C185.411 112.218 184.18 113.449 182.66 113.449H155.151C153.632 113.449 152.4 112.218 152.4 110.698V97.8608ZM155.151 96.9438C154.645 96.9438 154.234 97.3543 154.234 97.8608V110.698C154.234 111.205 154.645 111.615 155.151 111.615H182.66C183.167 111.615 183.577 111.205 183.577 110.698V97.8608C183.577 97.3543 183.167 96.9438 182.66 96.9438H155.151Z" fill="#222222"/>
<path fill-rule="evenodd" clip-rule="evenodd" d="M157.902 104.28C157.902 103.773 158.313 103.363 158.819 103.363H160.653C161.159 103.363 161.57 103.773 161.57 104.28C161.57 104.786 161.159 105.197 160.653 105.197H158.819C158.313 105.197 157.902 104.786 157.902 104.28Z" fill="#222222"/>
<path fill-rule="evenodd" clip-rule="evenodd" d="M176.242 104.28C176.242 103.773 176.652 103.363 177.158 103.363H178.992C179.499 103.363 179.909 103.773 179.909 104.28C179.909 104.786 179.499 105.197 178.992 105.197H177.158C176.652 105.197 176.242 104.786 176.242 104.28Z" fill="#222222"/>
<path d="M171.657 104.28C171.657 105.799 170.425 107.031 168.906 107.031C167.386 107.031 166.155 105.799 166.155 104.28C166.155 102.76 167.386 101.529 168.906 101.529C170.425 101.529 171.657 102.76 171.657 104.28Z" fill="#59CBE8"/>
<path fill-rule="evenodd" clip-rule="evenodd" d="M167.989 101.529C167.989 101.022 168.399 100.612 168.906 100.612C170.931 100.612 172.574 102.254 172.574 104.28C172.574 106.305 170.931 107.948 168.906 107.948C168.399 107.948 167.989 107.537 167.989 107.031C167.989 106.524 168.399 106.114 168.906 106.114C169.919 106.114 170.74 105.292 170.74 104.28C170.74 103.267 169.919 102.446 168.906 102.446C168.399 102.446 167.989 102.035 167.989 101.529Z" fill="#222222"/>
<rect x="178" y="55.5" width="94" height="34" rx="17" fill="#2397D4"/>
<path d="M190.874 79.5V76.821H192.318V73.439H190.874V72.033H192.394C192.09 71.577 191.786 70.893 191.786 69.981C191.786 67.796 193.686 65.858 196.175 65.858C198.55 65.858 200.488 67.739 200.583 70.095H197.695C197.695 69.183 197.03 68.537 196.175 68.537C195.32 68.537 194.674 69.145 194.674 70.247C194.674 71.216 195.32 72.033 196.422 72.033H197.695V73.439H195.206V76.821H200.583V79.5H190.874ZM204.053 79.5V68.689H201.26L203.198 66.01H206.941V79.5H204.053ZM210.82 79.5L213.347 74.845C210.953 74.731 208.977 72.907 208.977 70.361C208.977 67.815 211.01 65.858 213.708 65.858C216.406 65.858 218.439 67.815 218.439 70.361C218.439 71.349 218.021 72.185 217.584 72.983L214.031 79.5H210.82ZM213.708 72.185C214.867 72.185 215.551 71.33 215.551 70.361C215.551 69.392 214.867 68.537 213.708 68.537C212.549 68.537 211.865 69.392 211.865 70.361C211.865 71.33 212.549 72.185 213.708 72.185ZM219.834 82.426L220.67 79.5H219.397V76.194H222.703V79.5L221.487 82.426H219.834ZM229.754 79.652C226.752 79.652 224.624 77.41 224.624 72.755C224.624 68.1 226.752 65.858 229.754 65.858C232.737 65.858 234.865 68.1 234.865 72.755C234.865 77.41 232.737 79.652 229.754 79.652ZM229.754 76.821C230.97 76.821 231.977 75.928 231.977 72.755C231.977 69.582 230.97 68.689 229.754 68.689C228.538 68.689 227.512 69.582 227.512 72.755C227.512 75.928 228.538 76.821 229.754 76.821ZM241.666 79.652C238.664 79.652 236.536 77.41 236.536 72.755C236.536 68.1 238.664 65.858 241.666 65.858C244.649 65.858 246.777 68.1 246.777 72.755C246.777 77.41 244.649 79.652 241.666 79.652ZM241.666 76.821C242.882 76.821 243.889 75.928 243.889 72.755C243.889 69.582 242.882 68.689 241.666 68.689C240.45 68.689 239.424 69.582 239.424 72.755C239.424 75.928 240.45 76.821 241.666 76.821ZM253.578 79.652C250.576 79.652 248.448 77.41 248.448 72.755C248.448 68.1 250.576 65.858 253.578 65.858C256.561 65.858 258.689 68.1 258.689 72.755C258.689 77.41 256.561 79.652 253.578 79.652ZM253.578 76.821C254.794 76.821 255.801 75.928 255.801 72.755C255.801 69.582 254.794 68.689 253.578 68.689C252.362 68.689 251.336 69.582 251.336 72.755C251.336 75.928 252.362 76.821 253.578 76.821Z" fill="white"/>
<ellipse cx="299.5" cy="370.5" rx="27.5" ry="3" fill="black" fill-opacity="0.3"/>
<path fill-rule="evenodd" clip-rule="evenodd" d="M258 312.28C258 288.939 276.983 270.018 300.4 270.018C323.817 270.018 342.8 288.939 342.8 312.28C342.8 322.477 339.174 331.835 333.14 339.136C333.041 339.339 332.91 339.531 332.748 339.704L307.305 367.016C303.577 371.018 297.223 371.018 293.495 367.016L268.052 339.704C267.89 339.531 267.759 339.339 267.66 339.136C261.626 331.835 258 322.477 258 312.28Z" fill="white"/>
<path fill-rule="evenodd" clip-rule="evenodd" d="M281.654 303.588C281.654 303.043 282.096 302.601 282.641 302.601H318.161C318.706 302.601 319.147 303.043 319.147 303.588V328.254C319.147 328.799 318.706 329.241 318.161 329.241H282.641C282.096 329.241 281.654 328.799 281.654 328.254V303.588ZM283.627 304.574V327.268H317.174V304.574H283.627Z" fill="#222222"/>
<path fill-rule="evenodd" clip-rule="evenodd" d="M275.734 328.254C275.734 327.71 276.176 327.268 276.721 327.268H324.081C324.626 327.268 325.067 327.71 325.067 328.254C325.067 328.799 324.626 329.241 324.081 329.241H276.721C276.176 329.241 275.734 328.799 275.734 328.254Z" fill="#222222"/>
<path fill-rule="evenodd" clip-rule="evenodd" d="M291.521 296.681V305.561C291.521 307.196 290.196 308.521 288.561 308.521C286.926 308.521 285.601 307.196 285.601 305.561V296.681" fill="white"/>
<path fill-rule="evenodd" clip-rule="evenodd" d="M285.601 295.694C286.146 295.694 286.587 296.136 286.587 296.681V305.561C286.587 306.651 287.471 307.534 288.561 307.534C289.651 307.534 290.534 306.651 290.534 305.561V296.681C290.534 296.136 290.976 295.694 291.521 295.694C292.066 295.694 292.507 296.136 292.507 296.681V305.561C292.507 307.741 290.74 309.508 288.561 309.508C286.381 309.508 284.614 307.741 284.614 305.561V296.681C284.614 296.136 285.056 295.694 285.601 295.694Z" fill="#222222"/>
<path fill-rule="evenodd" clip-rule="evenodd" d="M297.441 296.681V305.561C297.441 307.196 296.116 308.521 294.481 308.521C292.846 308.521 291.521 307.196 291.521 305.561V296.681" fill="#59CBE8"/>
<path fill-rule="evenodd" clip-rule="evenodd" d="M291.521 295.694C292.066 295.694 292.507 296.136 292.507 296.681V305.561C292.507 306.651 293.391 307.534 294.481 307.534C295.571 307.534 296.454 306.651 296.454 305.561V296.681C296.454 296.136 296.896 295.694 297.441 295.694C297.986 295.694 298.427 296.136 298.427 296.681V305.561C298.427 307.741 296.66 309.508 294.481 309.508C292.301 309.508 290.534 307.741 290.534 305.561V296.681C290.534 296.136 290.976 295.694 291.521 295.694Z" fill="#222222"/>
<path fill-rule="evenodd" clip-rule="evenodd" d="M303.361 296.681V305.561C303.361 307.196 302.036 308.521 300.401 308.521C298.766 308.521 297.441 307.196 297.441 305.561V296.681" fill="white"/>
<path fill-rule="evenodd" clip-rule="evenodd" d="M297.441 295.694C297.986 295.694 298.427 296.136 298.427 296.681V305.561C298.427 306.651 299.311 307.534 300.401 307.534C301.491 307.534 302.374 306.651 302.374 305.561V296.681C302.374 296.136 302.816 295.694 303.361 295.694C303.906 295.694 304.347 296.136 304.347 296.681V305.561C304.347 307.741 302.58 309.508 300.401 309.508C298.221 309.508 296.454 307.741 296.454 305.561V296.681C296.454 296.136 296.896 295.694 297.441 295.694Z" fill="#222222"/>
<path fill-rule="evenodd" clip-rule="evenodd" d="M309.281 296.681V305.561C309.281 307.196 307.956 308.521 306.321 308.521C304.686 308.521 303.361 307.196 303.361 305.561V296.681" fill="#59CBE8"/>
<path fill-rule="evenodd" clip-rule="evenodd" d="M303.361 295.694C303.906 295.694 304.347 296.136 304.347 296.681V305.561C304.347 306.651 305.231 307.534 306.321 307.534C307.411 307.534 308.294 306.651 308.294 305.561V296.681C308.294 296.136 308.736 295.694 309.281 295.694C309.826 295.694 310.267 296.136 310.267 296.681V305.561C310.267 307.741 308.5 309.508 306.321 309.508C304.141 309.508 302.374 307.741 302.374 305.561V296.681C302.374 296.136 302.816 295.694 303.361 295.694Z" fill="#222222"/>
<path fill-rule="evenodd" clip-rule="evenodd" d="M315.201 296.681V305.561C315.201 307.196 313.876 308.521 312.241 308.521C310.606 308.521 309.281 307.196 309.281 305.561V296.681" fill="white"/>
<path fill-rule="evenodd" clip-rule="evenodd" d="M309.281 295.694C309.826 295.694 310.267 296.136 310.267 296.681V305.561C310.267 306.651 311.151 307.534 312.241 307.534C313.331 307.534 314.214 306.651 314.214 305.561V296.681C314.214 296.136 314.656 295.694 315.201 295.694C315.746 295.694 316.187 296.136 316.187 296.681V305.561C316.187 307.741 314.42 309.508 312.241 309.508C310.061 309.508 308.294 307.741 308.294 305.561V296.681C308.294 296.136 308.736 295.694 309.281 295.694Z" fill="#222222"/>
<path fill-rule="evenodd" clip-rule="evenodd" d="M321.121 296.681V305.561C321.121 307.196 319.796 308.521 318.161 308.521C316.526 308.521 315.201 307.196 315.201 305.561L315.201 296.681" fill="#59CBE8"/>
<path fill-rule="evenodd" clip-rule="evenodd" d="M315.201 295.694C315.746 295.694 316.187 296.136 316.187 296.681V305.561C316.187 306.651 317.071 307.534 318.161 307.534C319.251 307.534 320.134 306.651 320.134 305.561V296.681C320.134 296.136 320.576 295.694 321.121 295.694C321.666 295.694 322.107 296.136 322.107 296.681V305.561C322.107 307.741 320.34 309.508 318.161 309.508C315.981 309.508 314.214 307.741 314.214 305.561V296.681C314.214 296.136 314.656 295.694 315.201 295.694Z" fill="#222222"/>
<path fill-rule="evenodd" clip-rule="evenodd" d="M285.601 296.681V305.561C285.601 307.196 284.276 308.521 282.641 308.521C281.006 308.521 279.681 307.196 279.681 305.561V296.681" fill="#59CBE8"/>
<path fill-rule="evenodd" clip-rule="evenodd" d="M279.681 295.694C280.226 295.694 280.667 296.136 280.667 296.681V305.561C280.667 306.651 281.551 307.534 282.641 307.534C283.731 307.534 284.614 306.651 284.614 305.561V296.681C284.614 296.136 285.056 295.694 285.601 295.694C286.146 295.694 286.587 296.136 286.587 296.681V305.561C286.587 307.741 284.82 309.508 282.641 309.508C280.461 309.508 278.694 307.741 278.694 305.561V296.681C278.694 296.136 279.136 295.694 279.681 295.694Z" fill="#222222"/>
<path fill-rule="evenodd" clip-rule="evenodd" d="M312.241 292.734C312.241 292.19 311.799 291.748 311.254 291.748H279.681C279.136 291.748 278.694 292.19 278.694 292.734C278.694 293.279 279.136 293.721 279.681 293.721H311.254C311.799 293.721 312.241 293.279 312.241 292.734ZM314.214 292.734C314.214 292.19 314.656 291.748 315.201 291.748H321.121C321.666 291.748 322.107 292.19 322.107 292.734C322.107 293.279 321.666 293.721 321.121 293.721H315.201C314.656 293.721 314.214 293.279 314.214 292.734Z" fill="#222222"/>
<path d="M287.574 313.454H295.467V328.254H287.574V313.454Z" fill="white"/>
<path fill-rule="evenodd" clip-rule="evenodd" d="M286.587 313.454C286.587 312.91 287.029 312.468 287.574 312.468H295.467C296.012 312.468 296.454 312.91 296.454 313.454V328.254C296.454 328.799 296.012 329.241 295.467 329.241H287.574C287.029 329.241 286.587 328.799 286.587 328.254V313.454ZM288.561 314.441V327.268H294.481V314.441H288.561Z" fill="#222222"/>
<path d="M300.401 313.454H318.161V323.321H300.401V313.454Z" fill="#59CBE8"/>
<path fill-rule="evenodd" clip-rule="evenodd" d="M299.414 313.454C299.414 312.91 299.856 312.468 300.401 312.468H318.161C318.706 312.468 319.147 312.91 319.147 313.454V323.321C319.147 323.866 318.706 324.308 318.161 324.308H300.401C299.856 324.308 299.414 323.866 299.414 323.321V313.454ZM301.387 314.441V322.334H317.174V314.441H301.387Z" fill="#222222"/>
<path fill-rule="evenodd" clip-rule="evenodd" d="M303.361 317.401C303.361 316.856 303.803 316.414 304.347 316.414H305.334C305.879 316.414 306.321 316.856 306.321 317.401C306.321 317.946 305.879 318.388 305.334 318.388H304.347C303.803 318.388 303.361 317.946 303.361 317.401Z" fill="#222222"/>
<path fill-rule="evenodd" clip-rule="evenodd" d="M308.294 317.401C308.294 316.856 308.736 316.414 309.281 316.414H312.241C312.786 316.414 313.227 316.856 313.227 317.401C313.227 317.946 312.786 318.388 312.241 318.388H309.281C308.736 318.388 308.294 317.946 308.294 317.401Z" fill="#222222"/>
<rect x="315" y="270.5" width="100" height="34" rx="17" fill="#2397D4"/>
<path d="M327.874 294.5V291.821H329.318V288.439H327.874V287.033H329.394C329.09 286.577 328.786 285.893 328.786 284.981C328.786 282.796 330.686 280.858 333.175 280.858C335.55 280.858 337.488 282.739 337.583 285.095H334.695C334.695 284.183 334.03 283.537 333.175 283.537C332.32 283.537 331.674 284.145 331.674 285.247C331.674 286.216 332.32 287.033 333.422 287.033H334.695V288.439H332.206V291.821H337.583V294.5H327.874ZM338.279 294.5L344.245 287.261C344.929 286.425 345.366 285.988 345.366 285.19C345.366 284.278 344.739 283.537 343.77 283.537C342.801 283.537 342.193 284.297 342.193 285.209V285.475H339.305V285.209C339.305 282.777 341.338 280.858 343.77 280.858C346.202 280.858 348.254 282.777 348.254 285.209C348.254 286.273 347.855 287.223 347.228 287.983L344.131 291.821H348.235V294.5H338.279ZM356.317 294.5V291.46H349.173L359.205 280.858V288.952H360.649V291.46H359.205V294.5H356.317ZM354.493 288.952H356.317V287.033L354.493 288.952ZM362.902 297.426L363.738 294.5H362.465V291.194H365.771V294.5L364.555 297.426H362.902ZM372.821 294.652C369.819 294.652 367.691 292.41 367.691 287.755C367.691 283.1 369.819 280.858 372.821 280.858C375.804 280.858 377.932 283.1 377.932 287.755C377.932 292.41 375.804 294.652 372.821 294.652ZM372.821 291.821C374.037 291.821 375.044 290.928 375.044 287.755C375.044 284.582 374.037 283.689 372.821 283.689C371.605 283.689 370.579 284.582 370.579 287.755C370.579 290.928 371.605 291.821 372.821 291.821ZM384.734 294.652C381.732 294.652 379.604 292.41 379.604 287.755C379.604 283.1 381.732 280.858 384.734 280.858C387.717 280.858 389.845 283.1 389.845 287.755C389.845 292.41 387.717 294.652 384.734 294.652ZM384.734 291.821C385.95 291.821 386.957 290.928 386.957 287.755C386.957 284.582 385.95 283.689 384.734 283.689C383.518 283.689 382.492 284.582 382.492 287.755C382.492 290.928 383.518 291.821 384.734 291.821ZM396.646 294.652C393.644 294.652 391.516 292.41 391.516 287.755C391.516 283.1 393.644 280.858 396.646 280.858C399.629 280.858 401.757 283.1 401.757 287.755C401.757 292.41 399.629 294.652 396.646 294.652ZM396.646 291.821C397.862 291.821 398.869 290.928 398.869 287.755C398.869 284.582 397.862 283.689 396.646 283.689C395.43 283.689 394.404 284.582 394.404 287.755C394.404 290.928 395.43 291.821 396.646 291.821Z" fill="white"/>
<ellipse cx="399.5" cy="204.982" rx="27.5" ry="3" fill="black" fill-opacity="0.3"/>
<path fill-rule="evenodd" clip-rule="evenodd" d="M358 146.762C358 123.421 376.983 104.5 400.4 104.5C423.817 104.5 442.8 123.421 442.8 146.762C442.8 156.959 439.174 166.318 433.14 173.618C433.041 173.821 432.91 174.013 432.748 174.187L407.305 201.499C403.577 205.5 397.223 205.5 393.495 201.499L368.052 174.187C367.89 174.013 367.759 173.821 367.66 173.618C361.626 166.318 358 156.959 358 146.762Z" fill="white"/>
<path fill-rule="evenodd" clip-rule="evenodd" d="M381.654 138.07C381.654 137.525 382.096 137.084 382.641 137.084H418.161C418.706 137.084 419.147 137.525 419.147 138.07V162.737C419.147 163.282 418.706 163.724 418.161 163.724H382.641C382.096 163.724 381.654 163.282 381.654 162.737V138.07ZM383.627 139.057V161.75H417.174V139.057H383.627Z" fill="#222222"/>
<path fill-rule="evenodd" clip-rule="evenodd" d="M375.734 162.737C375.734 162.192 376.176 161.75 376.721 161.75H424.081C424.626 161.75 425.067 162.192 425.067 162.737C425.067 163.282 424.626 163.724 424.081 163.724H376.721C376.176 163.724 375.734 163.282 375.734 162.737Z" fill="#222222"/>
<path fill-rule="evenodd" clip-rule="evenodd" d="M391.521 131.164V140.044C391.521 141.678 390.196 143.004 388.561 143.004C386.926 143.004 385.601 141.678 385.601 140.044V131.164" fill="white"/>
<path fill-rule="evenodd" clip-rule="evenodd" d="M385.601 130.177C386.146 130.177 386.587 130.619 386.587 131.164V140.044C386.587 141.133 387.471 142.017 388.561 142.017C389.651 142.017 390.534 141.133 390.534 140.044V131.164C390.534 130.619 390.976 130.177 391.521 130.177C392.066 130.177 392.507 130.619 392.507 131.164V140.044C392.507 142.223 390.74 143.99 388.561 143.99C386.381 143.99 384.614 142.223 384.614 140.044V131.164C384.614 130.619 385.056 130.177 385.601 130.177Z" fill="#222222"/>
<path fill-rule="evenodd" clip-rule="evenodd" d="M397.441 131.164V140.044C397.441 141.678 396.116 143.004 394.481 143.004C392.846 143.004 391.521 141.678 391.521 140.044V131.164" fill="#59CBE8"/>
<path fill-rule="evenodd" clip-rule="evenodd" d="M391.521 130.177C392.066 130.177 392.507 130.619 392.507 131.164V140.044C392.507 141.133 393.391 142.017 394.481 142.017C395.571 142.017 396.454 141.133 396.454 140.044V131.164C396.454 130.619 396.896 130.177 397.441 130.177C397.986 130.177 398.427 130.619 398.427 131.164V140.044C398.427 142.223 396.66 143.99 394.481 143.99C392.301 143.99 390.534 142.223 390.534 140.044V131.164C390.534 130.619 390.976 130.177 391.521 130.177Z" fill="#222222"/>
<path fill-rule="evenodd" clip-rule="evenodd" d="M403.361 131.164V140.044C403.361 141.678 402.036 143.004 400.401 143.004C398.766 143.004 397.441 141.678 397.441 140.044V131.164" fill="white"/>
<path fill-rule="evenodd" clip-rule="evenodd" d="M397.441 130.177C397.986 130.177 398.427 130.619 398.427 131.164V140.044C398.427 141.133 399.311 142.017 400.401 142.017C401.491 142.017 402.374 141.133 402.374 140.044V131.164C402.374 130.619 402.816 130.177 403.361 130.177C403.906 130.177 404.347 130.619 404.347 131.164V140.044C404.347 142.223 402.58 143.99 400.401 143.99C398.221 143.99 396.454 142.223 396.454 140.044V131.164C396.454 130.619 396.896 130.177 397.441 130.177Z" fill="#222222"/>
<path fill-rule="evenodd" clip-rule="evenodd" d="M409.281 131.164V140.044C409.281 141.678 407.956 143.004 406.321 143.004C404.686 143.004 403.361 141.678 403.361 140.044V131.164" fill="#59CBE8"/>
<path fill-rule="evenodd" clip-rule="evenodd" d="M403.361 130.177C403.906 130.177 404.347 130.619 404.347 131.164V140.044C404.347 141.133 405.231 142.017 406.321 142.017C407.411 142.017 408.294 141.133 408.294 140.044V131.164C408.294 130.619 408.736 130.177 409.281 130.177C409.826 130.177 410.267 130.619 410.267 131.164V140.044C410.267 142.223 408.5 143.99 406.321 143.99C404.141 143.99 402.374 142.223 402.374 140.044V131.164C402.374 130.619 402.816 130.177 403.361 130.177Z" fill="#222222"/>
<path fill-rule="evenodd" clip-rule="evenodd" d="M415.201 131.164V140.044C415.201 141.678 413.876 143.004 412.241 143.004C410.606 143.004 409.281 141.678 409.281 140.044V131.164" fill="white"/>
<path fill-rule="evenodd" clip-rule="evenodd" d="M409.281 130.177C409.826 130.177 410.267 130.619 410.267 131.164V140.044C410.267 141.133 411.151 142.017 412.241 142.017C413.331 142.017 414.214 141.133 414.214 140.044V131.164C414.214 130.619 414.656 130.177 415.201 130.177C415.746 130.177 416.187 130.619 416.187 131.164V140.044C416.187 142.223 414.42 143.99 412.241 143.99C410.061 143.99 408.294 142.223 408.294 140.044V131.164C408.294 130.619 408.736 130.177 409.281 130.177Z" fill="#222222"/>
<path fill-rule="evenodd" clip-rule="evenodd" d="M421.121 131.164V140.044C421.121 141.678 419.796 143.004 418.161 143.004C416.526 143.004 415.201 141.678 415.201 140.044L415.201 131.164" fill="#59CBE8"/>
<path fill-rule="evenodd" clip-rule="evenodd" d="M415.201 130.177C415.746 130.177 416.187 130.619 416.187 131.164V140.044C416.187 141.133 417.071 142.017 418.161 142.017C419.251 142.017 420.134 141.133 420.134 140.044V131.164C420.134 130.619 420.576 130.177 421.121 130.177C421.666 130.177 422.107 130.619 422.107 131.164V140.044C422.107 142.223 420.34 143.99 418.161 143.99C415.981 143.99 414.214 142.223 414.214 140.044V131.164C414.214 130.619 414.656 130.177 415.201 130.177Z" fill="#222222"/>
<path fill-rule="evenodd" clip-rule="evenodd" d="M385.601 131.164V140.044C385.601 141.678 384.276 143.004 382.641 143.004C381.006 143.004 379.681 141.678 379.681 140.044V131.164" fill="#59CBE8"/>
<path fill-rule="evenodd" clip-rule="evenodd" d="M379.681 130.177C380.226 130.177 380.667 130.619 380.667 131.164V140.044C380.667 141.133 381.551 142.017 382.641 142.017C383.731 142.017 384.614 141.133 384.614 140.044V131.164C384.614 130.619 385.056 130.177 385.601 130.177C386.146 130.177 386.587 130.619 386.587 131.164V140.044C386.587 142.223 384.82 143.99 382.641 143.99C380.461 143.99 378.694 142.223 378.694 140.044V131.164C378.694 130.619 379.136 130.177 379.681 130.177Z" fill="#222222"/>
<path fill-rule="evenodd" clip-rule="evenodd" d="M412.241 127.217C412.241 126.672 411.799 126.23 411.254 126.23H379.681C379.136 126.23 378.694 126.672 378.694 127.217C378.694 127.762 379.136 128.204 379.681 128.204H411.254C411.799 128.204 412.241 127.762 412.241 127.217ZM414.214 127.217C414.214 126.672 414.656 126.23 415.201 126.23H421.121C421.666 126.23 422.107 126.672 422.107 127.217C422.107 127.762 421.666 128.204 421.121 128.204H415.201C414.656 128.204 414.214 127.762 414.214 127.217Z" fill="#222222"/>
<path d="M387.574 147.937H395.467V162.737H387.574V147.937Z" fill="white"/>
<path fill-rule="evenodd" clip-rule="evenodd" d="M386.587 147.937C386.587 147.392 387.029 146.95 387.574 146.95H395.467C396.012 146.95 396.454 147.392 396.454 147.937V162.737C396.454 163.282 396.012 163.724 395.467 163.724H387.574C387.029 163.724 386.587 163.282 386.587 162.737V147.937ZM388.561 148.924V161.75H394.481V148.924H388.561Z" fill="#222222"/>
<path d="M400.401 147.937H418.161V157.804H400.401V147.937Z" fill="#59CBE8"/>
<path fill-rule="evenodd" clip-rule="evenodd" d="M399.414 147.937C399.414 147.392 399.856 146.95 400.401 146.95H418.161C418.706 146.95 419.147 147.392 419.147 147.937V157.804C419.147 158.349 418.706 158.79 418.161 158.79H400.401C399.856 158.79 399.414 158.349 399.414 157.804V147.937ZM401.387 148.924V156.817H417.174V148.924H401.387Z" fill="#222222"/>
<path fill-rule="evenodd" clip-rule="evenodd" d="M403.361 151.884C403.361 151.339 403.803 150.897 404.347 150.897H405.334C405.879 150.897 406.321 151.339 406.321 151.884C406.321 152.429 405.879 152.87 405.334 152.87H404.347C403.803 152.87 403.361 152.429 403.361 151.884Z" fill="#222222"/>
<path fill-rule="evenodd" clip-rule="evenodd" d="M408.294 151.884C408.294 151.339 408.736 150.897 409.281 150.897H412.241C412.786 150.897 413.227 151.339 413.227 151.884C413.227 152.429 412.786 152.87 412.241 152.87H409.281C408.736 152.87 408.294 152.429 408.294 151.884Z" fill="#222222"/>
<rect x="415" y="104.982" width="98" height="34" rx="17" fill="#2397D4"/>
<path d="M427.874 128.982V126.303H429.318V122.921H427.874V121.515H429.394C429.09 121.059 428.786 120.375 428.786 119.463C428.786 117.278 430.686 115.34 433.175 115.34C435.55 115.34 437.488 117.221 437.583 119.577H434.695C434.695 118.665 434.03 118.019 433.175 118.019C432.32 118.019 431.674 118.627 431.674 119.729C431.674 120.698 432.32 121.515 433.422 121.515H434.695V122.921H432.206V126.303H437.583V128.982H427.874ZM438.279 128.982L444.245 121.743C444.929 120.907 445.366 120.47 445.366 119.672C445.366 118.76 444.739 118.019 443.77 118.019C442.801 118.019 442.193 118.779 442.193 119.691V119.957H439.305V119.691C439.305 117.259 441.338 115.34 443.77 115.34C446.202 115.34 448.254 117.259 448.254 119.691C448.254 120.755 447.855 121.705 447.228 122.465L444.131 126.303H448.235V128.982H438.279ZM453.733 129.134C452.023 129.134 450.522 128.412 449.61 127.234L451.643 125.353C452.061 125.98 452.65 126.455 453.543 126.455C454.797 126.455 455.595 125.676 455.595 124.422C455.595 123.168 454.797 122.389 453.543 122.389H452.175L454.17 118.171H450.237V115.492H458.388L456.146 120.242C457.761 121.097 458.502 122.655 458.502 124.422C458.502 127.272 456.583 129.134 453.733 129.134ZM460.861 131.908L461.697 128.982H460.424V125.676H463.73V128.982L462.514 131.908H460.861ZM470.78 129.134C467.778 129.134 465.65 126.892 465.65 122.237C465.65 117.582 467.778 115.34 470.78 115.34C473.763 115.34 475.891 117.582 475.891 122.237C475.891 126.892 473.763 129.134 470.78 129.134ZM470.78 126.303C471.996 126.303 473.003 125.41 473.003 122.237C473.003 119.064 471.996 118.171 470.78 118.171C469.564 118.171 468.538 119.064 468.538 122.237C468.538 125.41 469.564 126.303 470.78 126.303ZM482.693 129.134C479.691 129.134 477.563 126.892 477.563 122.237C477.563 117.582 479.691 115.34 482.693 115.34C485.676 115.34 487.804 117.582 487.804 122.237C487.804 126.892 485.676 129.134 482.693 129.134ZM482.693 126.303C483.909 126.303 484.916 125.41 484.916 122.237C484.916 119.064 483.909 118.171 482.693 118.171C481.477 118.171 480.451 119.064 480.451 122.237C480.451 125.41 481.477 126.303 482.693 126.303ZM494.605 129.134C491.603 129.134 489.475 126.892 489.475 122.237C489.475 117.582 491.603 115.34 494.605 115.34C497.588 115.34 499.716 117.582 499.716 122.237C499.716 126.892 497.588 129.134 494.605 129.134ZM494.605 126.303C495.821 126.303 496.828 125.41 496.828 122.237C496.828 119.064 495.821 118.171 494.605 118.171C493.389 118.171 492.363 119.064 492.363 122.237C492.363 125.41 493.389 126.303 494.605 126.303Z" fill="white"/>
</svg>
