<svg width="60" height="60" viewBox="0 0 60 60" fill="none" xmlns="http://www.w3.org/2000/svg">
<rect width="60" height="60" fill="white"/>
<circle cx="14.832" cy="12.518" r="4" fill="white" stroke="#222222" stroke-width="2" stroke-linecap="round" stroke-linejoin="round"/>
<mask id="path-2-inside-1_10688_6472" fill="white">
<rect x="12.7676" y="36.0546" width="15.5334" height="16.3323" rx="1"/>
</mask>
<rect x="12.7676" y="36.0546" width="15.5334" height="16.3323" rx="1" fill="#D9D9D9" stroke="#222222" stroke-width="3" mask="url(#path-2-inside-1_10688_6472)"/>
<path fill-rule="evenodd" clip-rule="evenodd" d="M23.7267 50.9404V37.3153C23.7267 36.8496 23.9302 36.4071 24.2838 36.104L33.8564 27.8989C34.4538 27.3868 35.3355 27.3868 35.9329 27.8989L45.5055 36.104C45.8591 36.4071 46.0627 36.8496 46.0627 37.3153V50.9404" fill="#59CBE8"/>
<path fill-rule="evenodd" clip-rule="evenodd" d="M8.75464 51.6589C8.75464 51.1488 9.1682 50.7352 9.67835 50.7352H50.3218C50.832 50.7352 51.2456 51.1488 51.2456 51.6589C51.2456 52.1691 50.832 52.5827 50.3218 52.5827H9.67835C9.1682 52.5827 8.75464 52.1691 8.75464 51.6589Z" fill="#222222"/>
<path fill-rule="evenodd" clip-rule="evenodd" d="M35.1599 28.5046C34.8612 28.2485 34.4204 28.2485 34.1216 28.5046L24.549 36.7096C24.3722 36.8612 24.2705 37.0824 24.2705 37.3153V50.9404C24.2705 51.3809 23.9133 51.7381 23.4728 51.7381C23.0322 51.7381 22.675 51.3809 22.675 50.9404V37.3153C22.675 36.6167 22.9803 35.953 23.5108 35.4983L33.0833 27.2932C33.9795 26.5251 35.302 26.5251 36.1982 27.2932L45.7708 35.4983C46.3012 35.953 46.6065 36.6167 46.6065 37.3153V50.9404C46.6065 51.3809 46.2493 51.7381 45.8088 51.7381C45.3682 51.7381 45.011 51.3809 45.011 50.9404V37.3153C45.011 37.0824 44.9093 36.8612 44.7325 36.7096L35.1599 28.5046Z" fill="#222222"/>
<path fill-rule="evenodd" clip-rule="evenodd" d="M21.0796 43.761C21.0796 43.3204 21.4367 42.9633 21.8773 42.9633H34.6407C35.0813 42.9633 35.4384 43.3204 35.4384 43.761C35.4384 44.2015 35.0813 44.5587 34.6407 44.5587H21.8773C21.4367 44.5587 21.0796 44.2015 21.0796 43.761Z" fill="#222222"/>
<path fill-rule="evenodd" clip-rule="evenodd" d="M21.0796 39.7724C21.0796 39.3318 21.4367 38.9747 21.8773 38.9747H40.2247C40.6653 38.9747 41.0224 39.3318 41.0224 39.7724C41.0224 40.2129 40.6653 40.5701 40.2247 40.5701H21.8773C21.4367 40.5701 21.0796 40.2129 21.0796 39.7724Z" fill="#222222"/>
<path fill-rule="evenodd" clip-rule="evenodd" d="M12.7676 48.5471V46.9517H19.1493C19.5898 46.9517 19.947 47.3088 19.947 47.7494C19.947 48.1899 19.5898 48.5471 19.1493 48.5471H12.7676Z" fill="#222222"/>
</svg>
