<svg width="60" height="60" viewBox="0 0 60 60" fill="none" xmlns="http://www.w3.org/2000/svg">
<path fill-rule="evenodd" clip-rule="evenodd" d="M28.2175 8.5L28.2175 31.0724C28.2175 31.4156 28.6026 31.6179 28.8853 31.4231C30.0701 30.6066 31.4751 30.1694 32.914 30.1694H33.6086L37.9816 27.5328C37.9816 27.5328 37.3441 26.6149 35.8784 25.568C34.4127 24.521 33.0925 24.2692 33.0925 24.2692L36.3425 19.5385L35.4675 13.0025L30.2175 8.5H28.2175Z" fill="#59CBE8"/>
<path fill-rule="evenodd" clip-rule="evenodd" d="M19.2175 17C19.2175 11.8113 23.1907 7.5 28.2175 7.5C33.2443 7.5 37.2175 11.8113 37.2175 17C37.2175 19.8314 36.0344 22.4016 34.1425 24.1525C33.4419 24.801 32.5025 25.3677 32.1785 25.5355C30.9877 26.1523 29.6451 26.5 28.2175 26.5C26.7896 26.5 25.4467 26.1521 24.2558 25.5351C19.5951 27.0389 16.2175 31.4374 16.2175 36.6321V49.5C16.2175 50.0523 15.7698 50.5 15.2175 50.5C14.6652 50.5 14.2175 50.0523 14.2175 49.5V36.6321C14.2175 31.0647 17.5325 26.2738 22.2897 24.1499C20.3995 22.3991 19.2175 19.8301 19.2175 17ZM28.2175 9.5C24.4078 9.5 21.2175 12.7999 21.2175 17C21.2175 21.2001 24.4078 24.5 28.2175 24.5C32.0273 24.5 35.2175 21.2001 35.2175 17C35.2175 12.7999 32.0273 9.5 28.2175 9.5Z" fill="#222222"/>
<path fill-rule="evenodd" clip-rule="evenodd" d="M45.7825 50.0122L41.5325 48.2622L39.7825 52.5022L34.3825 39.4722L40.3825 36.9922L45.7825 50.0122Z" fill="white" stroke="#222222" stroke-width="2" stroke-linecap="round" stroke-linejoin="round"/>
<path fill-rule="evenodd" clip-rule="evenodd" d="M26.6525 50.0122L30.8925 48.2622L32.6525 52.5022L38.0525 39.4722L32.0525 36.9922L26.6525 50.0122Z" fill="white" stroke="#222222" stroke-width="2" stroke-linecap="round" stroke-linejoin="round"/>
<path fill-rule="evenodd" clip-rule="evenodd" d="M37.9926 29.0416C38.3626 30.0916 39.5726 30.5916 40.5826 30.1116C42.1826 29.3516 43.8526 31.0216 43.0926 32.6216C42.6126 33.6316 43.1126 34.8316 44.1626 35.2116C45.8326 35.8016 45.8326 38.1716 44.1626 38.7616C43.1126 39.1316 42.6126 40.3416 43.0926 41.3516C43.8526 42.9516 42.1826 44.6216 40.5826 43.8616C39.5726 43.3816 38.3726 43.8816 37.9926 44.9316C37.4026 46.6016 35.0326 46.6016 34.4426 44.9316C34.0726 43.8816 32.8626 43.3816 31.8526 43.8616C30.2526 44.6216 28.5826 42.9516 29.3426 41.3516C29.8226 40.3416 29.3226 39.1416 28.2726 38.7616C26.6026 38.1716 26.6026 35.8016 28.2726 35.2116C29.3226 34.8416 29.8226 33.6316 29.3426 32.6216C28.5826 31.0216 30.2526 29.3516 31.8526 30.1116C32.8626 30.5916 34.0626 30.0916 34.4426 29.0416C35.0326 27.3716 37.4026 27.3716 37.9926 29.0416Z" fill="white" stroke="#222222" stroke-width="2" stroke-linecap="round" stroke-linejoin="round"/>
<path d="M36.2126 40.1233C37.9412 40.1233 39.3426 38.7219 39.3426 36.9933C39.3426 35.2646 37.9412 33.8633 36.2126 33.8633C34.4839 33.8633 33.0826 35.2646 33.0826 36.9933C33.0826 38.7219 34.4839 40.1233 36.2126 40.1233Z" fill="#59CBE8" stroke="#222222" stroke-width="2" stroke-linecap="round" stroke-linejoin="round"/>
</svg>
