<svg width="60" height="60" viewBox="0 0 60 60" fill="none" xmlns="http://www.w3.org/2000/svg">
<path fill-rule="evenodd" clip-rule="evenodd" d="M11 26.5826C11 26.0304 11.4477 25.5826 12 25.5826H48C48.5523 25.5826 49 26.0304 49 26.5826V51.5826C49 52.1349 48.5523 52.5826 48 52.5826H12C11.4477 52.5826 11 52.1349 11 51.5826V26.5826ZM13 27.5826V50.5826H47V27.5826H13Z" fill="#222222"/>
<path fill-rule="evenodd" clip-rule="evenodd" d="M5 51.5826C5 51.0304 5.44772 50.5826 6 50.5826H54C54.5523 50.5826 55 51.0304 55 51.5826C55 52.1349 54.5523 52.5826 54 52.5826H6C5.44772 52.5826 5 52.1349 5 51.5826Z" fill="#222222"/>
<path fill-rule="evenodd" clip-rule="evenodd" d="M21 19.5826V28.5826C21 30.2395 19.6569 31.5826 18 31.5826C16.3431 31.5826 15 30.2395 15 28.5826V19.5826" fill="white"/>
<path fill-rule="evenodd" clip-rule="evenodd" d="M15 18.5826C15.5523 18.5826 16 19.0304 16 19.5826V28.5826C16 29.6872 16.8954 30.5826 18 30.5826C19.1046 30.5826 20 29.6872 20 28.5826V19.5826C20 19.0304 20.4477 18.5826 21 18.5826C21.5523 18.5826 22 19.0304 22 19.5826V28.5826C22 30.7918 20.2091 32.5826 18 32.5826C15.7909 32.5826 14 30.7918 14 28.5826V19.5826C14 19.0304 14.4477 18.5826 15 18.5826Z" fill="#222222"/>
<path fill-rule="evenodd" clip-rule="evenodd" d="M27 19.5826V28.5826C27 30.2395 25.6569 31.5826 24 31.5826C22.3431 31.5826 21 30.2395 21 28.5826V19.5826" fill="#59CBE8"/>
<path fill-rule="evenodd" clip-rule="evenodd" d="M21 18.5826C21.5523 18.5826 22 19.0304 22 19.5826V28.5826C22 29.6872 22.8954 30.5826 24 30.5826C25.1046 30.5826 26 29.6872 26 28.5826V19.5826C26 19.0304 26.4477 18.5826 27 18.5826C27.5523 18.5826 28 19.0304 28 19.5826V28.5826C28 30.7918 26.2091 32.5826 24 32.5826C21.7909 32.5826 20 30.7918 20 28.5826V19.5826C20 19.0304 20.4477 18.5826 21 18.5826Z" fill="#222222"/>
<path fill-rule="evenodd" clip-rule="evenodd" d="M33 19.5826V28.5826C33 30.2395 31.6569 31.5826 30 31.5826C28.3431 31.5826 27 30.2395 27 28.5826V19.5826" fill="white"/>
<path fill-rule="evenodd" clip-rule="evenodd" d="M27 18.5826C27.5523 18.5826 28 19.0304 28 19.5826V28.5826C28 29.6872 28.8954 30.5826 30 30.5826C31.1046 30.5826 32 29.6872 32 28.5826V19.5826C32 19.0304 32.4477 18.5826 33 18.5826C33.5523 18.5826 34 19.0304 34 19.5826V28.5826C34 30.7918 32.2091 32.5826 30 32.5826C27.7909 32.5826 26 30.7918 26 28.5826V19.5826C26 19.0304 26.4477 18.5826 27 18.5826Z" fill="#222222"/>
<path fill-rule="evenodd" clip-rule="evenodd" d="M39 19.5826V28.5826C39 30.2395 37.6569 31.5826 36 31.5826C34.3431 31.5826 33 30.2395 33 28.5826V19.5826" fill="#59CBE8"/>
<path fill-rule="evenodd" clip-rule="evenodd" d="M33 18.5826C33.5523 18.5826 34 19.0304 34 19.5826V28.5826C34 29.6872 34.8954 30.5826 36 30.5826C37.1046 30.5826 38 29.6872 38 28.5826V19.5826C38 19.0304 38.4477 18.5826 39 18.5826C39.5523 18.5826 40 19.0304 40 19.5826V28.5826C40 30.7918 38.2091 32.5826 36 32.5826C33.7909 32.5826 32 30.7918 32 28.5826V19.5826C32 19.0304 32.4477 18.5826 33 18.5826Z" fill="#222222"/>
<path fill-rule="evenodd" clip-rule="evenodd" d="M45 19.5826V28.5826C45 30.2395 43.6569 31.5826 42 31.5826C40.3431 31.5826 39 30.2395 39 28.5826V19.5826" fill="white"/>
<path fill-rule="evenodd" clip-rule="evenodd" d="M39 18.5826C39.5523 18.5826 40 19.0304 40 19.5826V28.5826C40 29.6872 40.8954 30.5826 42 30.5826C43.1046 30.5826 44 29.6872 44 28.5826V19.5826C44 19.0304 44.4477 18.5826 45 18.5826C45.5523 18.5826 46 19.0304 46 19.5826V28.5826C46 30.7918 44.2091 32.5826 42 32.5826C39.7909 32.5826 38 30.7918 38 28.5826V19.5826C38 19.0304 38.4477 18.5826 39 18.5826Z" fill="#222222"/>
<path fill-rule="evenodd" clip-rule="evenodd" d="M51 19.5826V28.5826C51 30.2395 49.6569 31.5826 48 31.5826C46.3431 31.5826 45 30.2395 45 28.5826L45 19.5826" fill="#59CBE8"/>
<path fill-rule="evenodd" clip-rule="evenodd" d="M45 18.5826C45.5523 18.5826 46 19.0304 46 19.5826V28.5826C46 29.6872 46.8954 30.5826 48 30.5826C49.1046 30.5826 50 29.6872 50 28.5826V19.5826C50 19.0304 50.4477 18.5826 51 18.5826C51.5523 18.5826 52 19.0304 52 19.5826V28.5826C52 30.7918 50.2091 32.5826 48 32.5826C45.7909 32.5826 44 30.7918 44 28.5826V19.5826C44 19.0304 44.4477 18.5826 45 18.5826Z" fill="#222222"/>
<path fill-rule="evenodd" clip-rule="evenodd" d="M15 19.5826V28.5826C15 30.2395 13.6569 31.5826 12 31.5826C10.3431 31.5826 9 30.2395 9 28.5826V19.5826" fill="#59CBE8"/>
<path fill-rule="evenodd" clip-rule="evenodd" d="M9 18.5826C9.55228 18.5826 10 19.0304 10 19.5826V28.5826C10 29.6872 10.8954 30.5826 12 30.5826C13.1046 30.5826 14 29.6872 14 28.5826V19.5826C14 19.0304 14.4477 18.5826 15 18.5826C15.5523 18.5826 16 19.0304 16 19.5826V28.5826C16 30.7918 14.2091 32.5826 12 32.5826C9.79086 32.5826 8 30.7918 8 28.5826V19.5826C8 19.0304 8.44772 18.5826 9 18.5826Z" fill="#222222"/>
<path fill-rule="evenodd" clip-rule="evenodd" d="M42 15.5826C42 15.0304 41.5523 14.5826 41 14.5826H9C8.44772 14.5826 8 15.0304 8 15.5826C8 16.1349 8.44772 16.5826 9 16.5826H41C41.5523 16.5826 42 16.1349 42 15.5826ZM44 15.5826C44 15.0304 44.4477 14.5826 45 14.5826H51C51.5523 14.5826 52 15.0304 52 15.5826C52 16.1349 51.5523 16.5826 51 16.5826H45C44.4477 16.5826 44 16.1349 44 15.5826Z" fill="#222222"/>
<path d="M17 36.5826H25V51.5826H17V36.5826Z" fill="white"/>
<path fill-rule="evenodd" clip-rule="evenodd" d="M16 36.5826C16 36.0304 16.4477 35.5826 17 35.5826H25C25.5523 35.5826 26 36.0304 26 36.5826V51.5826C26 52.1349 25.5523 52.5826 25 52.5826H17C16.4477 52.5826 16 52.1349 16 51.5826V36.5826ZM18 37.5826V50.5826H24V37.5826H18Z" fill="#222222"/>
<path d="M30 36.5826H48V46.5826H30V36.5826Z" fill="#59CBE8"/>
<path fill-rule="evenodd" clip-rule="evenodd" d="M29 36.5826C29 36.0304 29.4477 35.5826 30 35.5826H48C48.5523 35.5826 49 36.0304 49 36.5826V46.5826C49 47.1349 48.5523 47.5826 48 47.5826H30C29.4477 47.5826 29 47.1349 29 46.5826V36.5826ZM31 37.5826V45.5826H47V37.5826H31Z" fill="#222222"/>
<path fill-rule="evenodd" clip-rule="evenodd" d="M33 40.5826C33 40.0304 33.4477 39.5826 34 39.5826H35C35.5523 39.5826 36 40.0304 36 40.5826C36 41.1349 35.5523 41.5826 35 41.5826H34C33.4477 41.5826 33 41.1349 33 40.5826Z" fill="#222222"/>
<path fill-rule="evenodd" clip-rule="evenodd" d="M38 40.5826C38 40.0304 38.4477 39.5826 39 39.5826H42C42.5523 39.5826 43 40.0304 43 40.5826C43 41.1349 42.5523 41.5826 42 41.5826H39C38.4477 41.5826 38 41.1349 38 40.5826Z" fill="#222222"/>
</svg>
