<svg width="60" height="60" viewBox="0 0 91 91" fill="none" xmlns="http://www.w3.org/2000/svg">
<path d="M18.8 17C18.8 15.3431 20.1431 14 21.8 14H69.8C71.4568 14 72.8 15.3431 72.8 17V78.5C72.8 80.1569 71.4568 81.5 69.8 81.5H21.8C20.1431 81.5 18.8 80.1569 18.8 78.5V17Z" fill="white"/>
<path d="M18.8 17C18.8 15.3431 20.1431 14 21.8 14H45.8V55.0294C45.8 69.6487 33.9487 81.5 19.3294 81.5C19.037 81.5 18.8 81.263 18.8 80.9706V17Z" fill="#59CBE8"/>
<path fill-rule="evenodd" clip-rule="evenodd" d="M17.3 17C17.3 14.5147 19.3147 12.5 21.8 12.5H69.8C72.2853 12.5 74.3 14.5147 74.3 17V78.5C74.3 80.9853 72.2853 83 69.8 83H21.8C19.3147 83 17.3 80.9853 17.3 78.5V17ZM21.8 15.5C20.9716 15.5 20.3 16.1716 20.3 17V78.5C20.3 79.3284 20.9716 80 21.8 80H69.8C70.6284 80 71.3 79.3284 71.3 78.5V17C71.3 16.1716 70.6284 15.5 69.8 15.5H21.8Z" fill="#333333"/>
<path d="M60.8 23C60.8 31.2843 54.0843 38 45.8 38C37.5157 38 30.8 31.2843 30.8 23C30.8 14.7157 37.5157 8 45.8 8C54.0843 8 60.8 14.7157 60.8 23Z" fill="white"/>
<path fill-rule="evenodd" clip-rule="evenodd" d="M45.8 9.5C38.3441 9.5 32.3 15.5442 32.3 23C32.3 30.4558 38.3441 36.5 45.8 36.5C53.2558 36.5 59.3 30.4558 59.3 23C59.3 15.5442 53.2558 9.5 45.8 9.5ZM29.3 23C29.3 13.8873 36.6873 6.5 45.8 6.5C54.9127 6.5 62.3 13.8873 62.3 23C62.3 32.1127 54.9127 39.5 45.8 39.5C36.6873 39.5 29.3 32.1127 29.3 23Z" fill="#333333"/>
<path d="M53.3 23C53.3 31.2843 49.9421 38 45.8 38C41.6579 38 38.3 31.2843 38.3 23C38.3 14.7157 41.6579 8 45.8 8C49.9421 8 53.3 14.7157 53.3 23Z" fill="white"/>
<path fill-rule="evenodd" clip-rule="evenodd" d="M41.8383 13.0642C40.6057 15.5295 39.8 19.0402 39.8 23C39.8 26.9598 40.6057 30.4705 41.8383 32.9358C43.1158 35.4908 44.6032 36.5 45.8 36.5C46.9968 36.5 48.4841 35.4908 49.7616 32.9358C50.9943 30.4705 51.8 26.9598 51.8 23C51.8 19.0402 50.9943 15.5295 49.7616 13.0642C48.4841 10.5092 46.9968 9.5 45.8 9.5C44.6032 9.5 43.1158 10.5092 41.8383 13.0642ZM39.155 11.7226C40.592 8.84865 42.8547 6.5 45.8 6.5C48.7453 6.5 51.008 8.84865 52.4449 11.7226C53.9268 14.6862 54.8 18.6755 54.8 23C54.8 27.3245 53.9268 31.3138 52.4449 34.2774C51.008 37.1513 48.7453 39.5 45.8 39.5C42.8547 39.5 40.592 37.1513 39.155 34.2774C37.6732 31.3138 36.8 27.3245 36.8 23C36.8 18.6755 37.6732 14.6862 39.155 11.7226Z" fill="#333333"/>
<path fill-rule="evenodd" clip-rule="evenodd" d="M45.8 6.5C46.6284 6.5 47.3 7.17157 47.3 8V38C47.3 38.8284 46.6284 39.5 45.8 39.5C44.9716 39.5 44.3 38.8284 44.3 38V8C44.3 7.17157 44.9716 6.5 45.8 6.5Z" fill="#333333"/>
<path fill-rule="evenodd" clip-rule="evenodd" d="M29.3 23C29.3 22.1716 29.9716 21.5 30.8 21.5H60.8C61.6284 21.5 62.3 22.1716 62.3 23C62.3 23.8284 61.6284 24.5 60.8 24.5H30.8C29.9716 24.5 29.3 23.8284 29.3 23Z" fill="#333333"/>
<path fill-rule="evenodd" clip-rule="evenodd" d="M30.8 63.5C30.8 62.6716 31.4716 62 32.3 62H59.3C60.1284 62 60.8 62.6716 60.8 63.5C60.8 64.3284 60.1284 65 59.3 65H32.3C31.4716 65 30.8 64.3284 30.8 63.5Z" fill="#333333"/>
<path fill-rule="evenodd" clip-rule="evenodd" d="M30.8 57.5C30.8 56.6716 31.4716 56 32.3 56H59.3C60.1284 56 60.8 56.6716 60.8 57.5C60.8 58.3284 60.1284 59 59.3 59H32.3C31.4716 59 30.8 58.3284 30.8 57.5Z" fill="#333333"/>
<path fill-rule="evenodd" clip-rule="evenodd" d="M38.3 69.5C38.3 68.6716 38.9716 68 39.8 68H51.8C52.6284 68 53.3 68.6716 53.3 69.5C53.3 70.3284 52.6284 71 51.8 71H39.8C38.9716 71 38.3 70.3284 38.3 69.5Z" fill="#333333"/>
</svg>
