<svg xmlns="http://www.w3.org/2000/svg" width="76" height="129" fill="none"><path fill="#8CE2D0" fill-rule="evenodd" d="m72.006 96.005.37-.238-.278-.23-.07-.321.035.015-.047-.067-.002-.008-.005-.002-.128-.182.053-.235-.091-.402.159-.1-.006-.38-.183-.045-.007-.545-.25-.118-.198-.527.002-.006-.008-.008-.019-.05-.01.02-.491-.506-.193.11-.681-.758-1.26-.831-.69-.278-.518.183-1.04-.235-.86.153-.776-.34v-.014l-.023.004-.026-.012v.017l-2.003.354-.008.001-.38.417-.085.934-.61.826-.709-.104-.038-.017-.009.026-.023-.008-.153.456-.514.322-.598.192-.297.548-.607.22-.08-.125-.338.073-.342.253-.444-.26-.182-.021-.188.3-.435-.29-.28.185-.764.12-.358.207.155.207-.177.434.282.22.35-.055c.196.47.198.471.204.478l.303.38.065.406-.12.038-.221.63a19.5 19.5 0 0 1-.139.038c-.02.004-.02.004-.627.59l-.03.03.024.034.122.18c.007.017.034.038.186.152l.024.068-.557.166.14.07-.312.558-.001.094-.375-.292-.4.22.203.395-.143.464-.34.038c-.004.001-.008.001-.464.212l-.006.003-.18.27-.129-.014.003.142-.436.209.086.391.251.308-.316.257.01.112-.173.115-.318-.548-.686-.034.038.154-.92.375.046.355.015-.003-.32.357-.006-.041-.623-.03-.092-.71-.135.001.065-.474-.12-.073.433-.159-.69-.831-.16.2-.105.598-.831.121-.069.29-.124.121-.034.47-.81-.116-.343.091-.106-.084-.36-.57-.136-.11-.156-.254-.085.153-.458.35-.292.004.363.587-.088.207-.557-.484-.936.532-.44-.081-.18.172-.133-.111.197-.369-.442-.072-.053.341.13.245-.719.35-.058.01-.206.035-.307-.66-.435.046.042.128-.118.125-.257-.209-.15-.258-.264.842.173.228a1.385 1.385 0 0 0-.003.114c.001.004.001.006.229.554l-.255.041-.292.268-.494.088.014.127-.238-.098-.307.423-.165.382.077.486-.21.284.036.267.1.066-.069.029.042.24-.094.101-.027.194.111-.028-.071.096.037.172.108-.031.035.211.103.118.35-.76.534-.341.376-.44.506-.354-.204-.139-.008-.168.492.408-.812.63-.33.452-.018.025-.827.886-.437.955.233.419-.133.025-.129-.219-.238-.085-.27.09-.717.838-.051.486-.819-.122.184.315-.305.342.082.517-.232-.101-.013.536.17.314-.083.082.172.332-.17.163.18.533-.11.186-.248-.256.095-.786-.222.167-.35.059-.968.162-.367.211-.211-.123-.971-.012-.159-.255-.282-.058-.02-.199-.707-.155-.01.156-1.095-.04-.387-.138-.753.073-.068.175-.306-.098-.925.081-.151.203-.487-.131-.692.174-.13.579-.222-.015.066.331.401.551.742-.156.162.108-.67.117-.246.662-.15.065.11-.437-.205-.076-.238.106-.367.502-.433.109-.381-.255-.27.031-.527-.155-.192.223-.056.875-.212.166.125.846-.1.654-.74.689.035.175-.32.375-.218.042-.384.292-.04.583-.333.344-.236-.302-.244.277-.43-.066.05.444-.188-.101-.375.254-.084-.115-.191.122.074.405-.195.087.022.539-.334.541-.284-.064-.28.171.118.252-.26.62-.483.178-.168.358-.26.162-.271.317-.507-.047-.406.713-.32-.062-.131-.341-.262.018-.005.003-.384.234c-.007.004-.012.006-.276.378l-.52.094-.38.443.177.138.02.25-.191.141-.02.282.222.067.163.269.966-.329.12-.346-.114-.274.187-.23.416.121.15.263.394.003.16.162.255-.084.364.274.234.584-.067.314.225.42.364.144.31-.488.496-.012.4-.557-.24-.458-.427-.137-.011-.122.334.06.158-.497.207-.059-.112-.213.039-.337-.202-.142c.044-.037.088-.072.103-.083l.293.016.035.831.329-.153.134-.441.433-.062.4-.428.607.057.182-.272-.14-.176.062-.278.194-.19-.016-.282.503-.244.104.401v.014l.011.007c.016.01.018.011.314-.126l.069-.032.4-.052.772.097.04-.257-.17-.209.007-.137.35.22 1.145-.089.436.274.073.357.392.004-.053-.279.177-.025-.005-.233-.029.005c-.145.027-.206.04-.233.049a5.203 5.203 0 0 1-.217-.122l.068-.188-.743-.19.065-.168.115.123.008.001c.438.088.442.087.448.087.008-.002.01-.002.18-.141l.023.034.024.038.004.006.253.389.319.091-.016.165-.02-.001.017.032-.002.018.011.001.151.291.015.001c.08.001.203.003.248.005.006.055.011.111.015.166l.002.018.377.09.352-.101.394.162.619.004-.14.624.015.009c.09.057.236.152.255.166.012.019.05.071.173.232l.009.011.344-.036-.04-.254.402.469.297-.363.272.045.007-.702.141-.5.242-.002.304-.115-.106-.268c.201.147.204.147.21.148l.009.001c.005-.001.013-.002.247-.14l.013-.008-.018-.302.229-.098.042-.007-.007-.008.158-.068-.191.032-.185-.196-.376-.041-.032-.275.33-.513.197-.142-.121-.371-.007-.022-.01-.032-.075-.227-.314.029-.01-.108.674-.144.183-.247-.003-.261.207-.186-.164-.077-.125-.678-.036-.196.138.055.06.379.202.166.047.399.457.064.013-.267.38-.084.165-.21-.008-.203.245-.121 1.2-.182.016-.003.056-.165 1.047-.122-.002.013.04-.017.014-.002.002-.005.424-.181c.322.104.376.12.39.122l.513.072.386.277.88.466.681.588.228.321.193-.021.128.277-.218.397.303-.03.22-.197-.083-.294-.188-.198-.043-.248.124-.376.338-.051.314.183.029.006v.001l.047.008h.002l.744.126.72-.044.328.258.334-.02.148.191.604-.102.158-.197-.042-.183.211-.295-.14-.39-1.239-.141.034-.145.447-.191-.072-.213.13-.033.097-.024c.108.053.274.136.297.15.016.022.066.085.23.286l.008.011.361-.057.122-.205.015-.001.034-.004.478-.054c.18.089.214.105.225.107.015.002.211.041.34.068l.06.012-.163-.235.567-.135.188-.045.354.195.333.234.337-.42-.019-.226.306.003 1.196-.417.01-.003.18-.371-1.222-1.018-.034-.166.529.315.084-.333.185.361.124.243.274-.046.25.449.495.352.035.025.008.006.521.371.137-.194.087-.027.031.021.235.157.288-.21-.017-.422.166-.243.418.03.277-.097.032-.011.015-.005.052.391.234-.016.019-.236.197-.139.104.41-.28.174.083.372.315.363.508.208-.074-.473.121-.23.3.166-.04-.206.73-.058h.002l.945-.278.319.065.252-.043.036-.006.014-.003.521-.089.28-.164.799-.157.872.174.429.11.99.253.223.22.31.078.447.113-.002.023.032-.016.019.005.002-.015.788-.385.081-.322.135-.112.18-.149.017-.007.481-.193.56-.113.17-.034.176-.157.375.002.44-.216.149-.072.326-.481.226-.478.752.251.026.002.9.07-.111-.678.237-.382-.052-.245.6-.38.056-.178.874-.105.151-.32.648-.154.242-.309.46-.494.081-.249-.05-.667v-.002l-.158-.713-.184.142-.274.036-.065-.377.334.088.598-.384-.116-.583-.365-.084-.95.318-.113-.207-.018.003-1.287.271c-.01.001-.012.001-.277.237l-.653.207-.008.003-.044.014-.008.002-.382.24-.006-.138-.475-.083-.324-.24-.269.111-.024-.309-.228-.432-.295.052-.116.425-.426.067-.405-.301-.356.171.075-.267 1.47-.566-.06-.023c-.836-.327-.838-.327-.847-.325l-1.013.269-.019-.044-.016.054-.014.003.008.018-.061.205-.71.079-.441-.284-.226.129-.295-.195-.144.132-.007-.005-.034-.025-.2-.144.107-.132-.154-.193-.478-.101-.018-.041-.015.034-.027-.006.016.035-.045.109-.35.076-.005-.006-.035-.037.293-.078.009-.164.403.01.416.01.116.247-.002.005.007.004.009.019.009.02.017.036.057.121.543.009.183.207.558.016.528-.589.629-.143-.211-.237.19-.065.105.358.334.075-.001-.277-.275-.253.456.091.025.002.035.001.564.015.383.088.404-.214.027.003-.003-.015.057-.03-.067-.006-.058-.23-.51-.102-.043-.068.794-.134.022.484.791-.863-.784.158-.184-.241.79-.239.139-.37-.237-.949-1.064.77-.384.079-.287-.329-.07-.227.861-.147.689-.39-.35-.092.249-.22.304-.005.174.207.367-.284-.427-.208.127-.468.222.108.274.261.226-.1c-.075.32-.074.324-.073.33.001.012.002.013.37.354l.012.011.74-.346.004-.002.718-.778-.034-.252-.414.253-.151-.342.305-.2.14-.411-.146-.12-1.402.145-.126-.183.665-.2.413.174.535-.049-.197-.38-.53-.218-.003-.089-.036-.031.033-.01.227.054.035.008.017.004.39.092.3.81.392-.327.121-.423-.458-.911-.236-.136.107-.223.206-.132.51 1.317.275-.044.065-.266.312-.456.619-.292.26-1.095.014-.473.182-1.135.242-.323.277-.965.001-.005-.068-.375.12-.238-.1-.249Z" clip-rule="evenodd"/><path fill="#8CE2D0" fill-rule="evenodd" d="m51.08 118.422-.016-.218-.708.155-.134-.164.034-.236-.239-.152-.1.27.082.354-.091.171-.05-.093.055-.227-.1-.49-.198.052-.1.269-.32.179-.044.278-.438-.096-.473.203-.141-.12-.35.741.45-.197.306.031 1.064.917.116-.108.124.296.13.026.932-.36.001-.016c.04-.511.035-.522.03-.531l-.105-.178.66-.072-.376-.685v.001Zm14.616-9.442-.424-.017-.107.29.243.415.684.255.868-.159-1.182-.545-.082-.239Zm-54.884 18.122.153.262.171-.181-.191-.283-.133.202Zm-.474.941.024.092.31.054-.178-.283-.156.137Zm.267-.28.204.093.262-.099-.21-.376-.256.382Zm.053-.211.021.013.17-.222-.209-.214-.277.019.002.025c.02.215.022.216.035.224l.258.155Zm13.296-15.165-.187.119.083.52.292-.119-.188-.52Zm28.377 4.539-.362.497.335.116h.005l.271-.034.012.003.007-.013c.01-.017.01-.017-.251-.536l-.017-.033ZM59.054 81.475l-.212-.084-.03-.278-1.41-1.767.019-.528-.174-.168-.239-1.387.728-.69-.066-.281-.296.047-.197-.261-.277.12-.382-.32-.23-.55-.668-.458-.195-.591-.417-.593-.504-1.17-.003-.007-.948-.615-.287-.034.071-.179-.67-.228.113-.16-.843-.065-.312-.276-.217.113-.422-.145-.162-.305-.69-.257-.097.383-.033-.01-.22-.072.117-.574-.112-.164.244-.137-.599-.39-.431-.556-.2-.865-.088-.109-.005-.035-.083-.508-.246-.17.215-.073.015-.307.001-.017.001-.033.001-.024-.13-.433-.23-.216-.011-.11-.017-.16-.284-.213-.039-.405v-.011l-.003-.023-.013.006-.26-.29-.053-.32-.299-.165.362-.383-.076-.448-.201-.017-.186-.355-.072-.7.203-.06-.482-.75.104-.268.008-.873-.217-.52.137-.248-.15-.138-.143-.535-.345-.284-.743-.164-1.307-1.628-.021-.36-.246-.299.012-.022-.052-.028-.062-.074-.017.032-.088-.046-.249.467-.91 1.095-.157.382-.31-.068-.541.249 1.19 2.03-1.17.88.063.311-.892.141-.302.442-.317.246-.905 1.417-1.157.891-.404.41-.998.283-.111.927.074.009.024.003-.003.03.089-.008.195.24-.38.053-.372.29.83-.015.021.109-.698.104-1.283-.344-.101.412.793.069-.076.108-1.07.116-.422.505-.159 1.018-.794 1.052.048.26-.288.147.117.43v.004l-.004.026-.003.023-.098.678-.19-.093-.034.393-.272.12.004.02.05.25c0 .008.003.024.106.14l.416.282.247.274.363.81.003.007.006.004c.2.12.493.298.56.342-.03.077-.168.412-.261.64l-.004.01.378.975.002.005.397.34.354-.079.13-.108-.062-.275.258-.207.047.177.01.034.003.015.052.191-.393 1.106.757.248.167-.232.563-.78.017-.42.105-.636.17.03-.06.487.036.558.313.309.63-.489.004-.003.442-.81.178.118.045.322-.629.512-.009.007-.074.061.089-.04.225.34.007.004.408.148c-.053.09-.107.18-.163.267l-.107.33-.618.214-.122.501.423.354-.168.657-.244.009-.007.008c-.125.154-.313.384-.336.409-.018.012-.012.046.12.662l-.31-.08.099-.21-.128-.12.022-.355-.253-.108-.168.201-.005.365.007.05.056.422-.195.16.08.522-.066.158.1.341.236.004.12.24.39-.04.128-.175.482.15-.163.28-.283-.217-.178.582-.156-.167-.814 1.225-.004.007.002.832v.009l.182.237.068.553.276.19.162.592.561.474.575.363.017-.003.002.01.405-.08.07-.257.423-.07.149.096-.513.4-.273.211-.612.09-.403-.194-.512-.785a107.57 107.57 0 0 0-.037-.308c0-.007-.002-.013-.3-.473l-.015-.022-.021.016-.312.232c-.015.01-.276.14-.448.225l-.01.004-.174.531.607.65-.05.113.008.453.32.06-.014.036-.003.001.001.004-.03.078.045-.01.006.025.182-.04.7.664-.031.06.118.087-.145.213-.424.05.214.439.506.218-.097.123.33.44.049.274.18.36.808.38.239-.18.28.1.169-.028.025.1.324.343.459-.218.385.182.225-.223.482-.263.21-.755.19-.268.464-.07.01-.006c.078-.056.202-.144.234-.165l.01-.002.418-.574.225-.15.034-.309.233.196.62-.248.2-.31-.06-.616.005-.708-.09-.48-.156-.21.3-.559-.187.005-.004-.207.219-.114-.026-.162.127-.103.024-.492.375-.39.608.228.162.303.029.181 1.028 1.108-.098.278.642.688.14-.14c.352.171.352.171.372.168l.049-.008-.003-.017c.046-.028.147-.087.233-.136l.041.173.26-.374.285-.026.028.238.436.056.081-.134.132-.028.368.32.543-.224.067-.142.133.013.12-.19-.121-.115.164-.223.23-.646.61-.076.54-.9-.004-.344.347-.746 1.03.32.167-.35.254-.95.001-.006-.057-.358-.03-.18.394-.24.413-.072.459.172.663-.126.15-.029.005-.001c.274-.105.686-.262.745-.28l.444.172.909 1.005.004.005.657.209.24-.285.877.366-.144.462.305.041.184-.352-.835-1.364Z" clip-rule="evenodd"/><path fill="#8CE2D0" fill-rule="evenodd" d="m60.644 85.55-.004-.01-.38-.365-.193-.226-.556-.729-.57-.479-.072-.04-.016.003-.018.007-.26-.142-.001-.28-.772-.308-.594-.518-.148-.211-.005-.007-.023-.034-.309-.44-.539-.149-.399.22-.415-.12-.606.365-.663-.474-.541.318.057.363-.248.936-.148.309-1.025-.32-.37.798.036.187-.577.969-.62.076-.245.689-.206.28.124.12-.044.068-.14-.014-.081.17-.448.185-.358-.311-.222.047-.07.116-.293-.038-.03-.257-.425.039-.16.23-.02-.088-.058.033a6.77 6.77 0 0 0-.296.176l-.347-.168-.032-.015-.117.117-.529-.568.097-.277-1.044-1.127-.026-.167-.187-.35-.701-.265-.444.464-.024.483-.136.112.023.147-.49.255.284-.018.005.24.116-.004-.248.463.179.24.083.448-.005.7.057.587-.163.255-.533.213-.328-.276-.05.446-.2.133-.408.564a9.196 9.196 0 0 0-.229.16l-.48.071-.224.316-.202.73-.455.248-.185.184-.363-.172-.434.206-.256-.271-.04-.163-.233.039-.306-.109-.187.142-.123.161.041.151-.092.155.054.282a9.16 9.16 0 0 1-.127.056c-.024.011-.081.049-.306.2l-.409-.516-.031-.009c-.236-.063-.471-.127-.706-.192l-.004-.065-.007-.152-.534.273.03.145-.205.113a41.5 41.5 0 0 1-.3.047l-.045.007-.185.298-.257.153.001.057c.005.41.007.54.01.588-.005.04-.05.29-.09.51l-.011.06.378.289.212-.155.556.613.04.025-.106.013c-.073.011-.078.048-.102.2l-.04.262-.05.344-.367.34.127.104-.595.543.028.065.182.419-.017.052-.05.15-.14.285.279-.158.812-.45.079.113a22.9 22.9 0 0 1-.069.168l-1.045.506-.009.004-.008.006-.29.221c-.335.258-.335.258-.325.32l.002.012.004.01c.01.024.01.024 1.004 1.07l.364.267.424-.008-.165.117-.003.002c-.044.034-.044.034-.083.541l-.004.043.147.159-.163-.03-.247.348-.691 1.378.288.211-.157.438.065.242.282.274.096.664.006.052 1.03.864.768.115.752.898.197-.175.123.188.166.044.25-.138.199-.273.299.123-.02-.181.446-.08.291-.268.325-.051-.024-.058c-.086-.207-.213-.512-.234-.566l.003-.107v-.018l-.165-.217.201-.643.073.124.32.26.196-.207-.027-.083.29-.03.307.662.33-.056.797-.388-.155-.29.039-.243.265.044-.177.33.232.191.198-.192.429.079.912-.518.593.515.143-.335-.314-.507.186-.003.489-.373.03-.055.096.156.135.107.36.571.146.115.363-.096.898.128.037-.512.117-.114.06-.253.834-.121.113-.641.07-.087.52.629-.492.181.238.145-.071.521.161-.001.091.703.625.03.026.167.66-.737-.207.044-.022-.172.927-.377-.027-.108.5.025.342.59.286-.189-.013-.145.343-.278-.287-.352-.069-.314.426-.205-.003-.104.09.01.193-.289c.145-.068.29-.135.436-.201l.373-.042.032-.004.166-.536-.177-.346.258-.14.48.373.003-.268.35-.624-.01-.004.42-.125-.071-.194-.012-.008a7.82 7.82 0 0 1-.171-.133 4.386 4.386 0 0 0-.102-.15c.185-.18.372-.359.559-.537l.157-.043.025-.007.222-.63.154-.05-.082-.513-.008-.01c-.102-.13-.205-.258-.308-.387a61.318 61.318 0 0 1-.207-.492l-.015-.036-.384.06-.188-.146.17-.416-.122-.161.245-.142.765-.12.243-.16.464.309.21-.333.098.01.482.283.376-.279.25-.053.084.134.717-.26.295-.545.566-.181.559-.348.178-.532-.39-.174-.064-.241-.538-.44-.858-.029-.406.102-.033-.088.604-.453-.237-.38.429.202.477-1.011 1.412-1.007-.064-.42.114-.964-.795-2.068Z" clip-rule="evenodd"/><path fill="#8CE2D0" fill-rule="evenodd" d="m38.919 91.114-.064-.235-.766-.36-.17-.336-.048-.277-.314-.418.113-.142-.548-.236-.022-.046-.154-.312.378-.044.184-.271-.122-.09.085-.165-.114-.112-.014.154-.673-.637-.209.046-.082.214-.852-.553-.099-.32-1.149-.578-.067-.034-.38.245-.413.018-.077.297-.203.02-1.65.162.03-.157-.31-.363-.334.095-.086-.275-.189.117.115.411.3.176.065.333-.205.09-.038-.255-.334-.108-.438.128-.402.3-.158.065-.503.204-.303-.125-.685.494-.37.614-.383.153.037.366-.274.74-.379.345-.565.312-.116.457-.584-.002-1.187.992-.035.363-.219.051-.114.317.21.22.163-.2.58.035.18-.14.07-.186.15-.05.221.24.124.36.329-.154-.04-.224.078-.404.278-.171.243-.41.68.012-.014-.23.468.099.962-.036.051-.203.875-.133-.958.604.085.55-.187.474.424.525.27.494.699-.249-.651.542-.61.957.376.047s-.067.174-.075.175c-.007.001-.059.486-.059.486l.662.112.44-.099-.092.064-.69.484-.244.594-.294 1.454-.397.397-.232.516-1.006.619-.532.013-.555.598-.108.268-.533.186-.008-.188-.3.133-.353-.117-.332.147.028.252-.216-.087-.257.092-.199.447-.59.271.105.368-.448-.05-.127-.274-.096.281-.583.156.14-.255-.227.055-.4-.133-.177.177.018.5-.306.115-.15.277-.133-.124-.322.049-.108.264-.442.086s-.354.196-.361.197c-.007.002.034.514.034.514l.187-.172.597-.08.065.17.56.103.107.782-.136.287-.592.189-.04.208-.223-.11-.077.207.355.313.055.302.245-.043-.038-.279.4-.174.016-.186.147-.037.002.329.105.062.37-.087.074.182.298-.123.135-.215.26.259-.008.132-.201-.01.15.16s-.06.24-.068.241c-.006.002-.73-.427-.73-.427l-.165.159s-.323-.113-.332-.109a1.6 1.6 0 0 0-.072.161l.343.27-.077.42.429.25.306-.065.345.206.366-.563.382-.084.11.198.428-.079-.052-.193.423.065.313-.525-.216-.17s.287-.209.293-.21l.383-.094 1.408-.052-.153-.334.52-.146.21.408.258.302-.254.126.68.544.285-.121.253.121.56.057.123-.132-.002-.225.337.004-.16.31.017.037.081.165s-.228-.044-.235-.043l-1.118.303-.547.261.133.331-.04.243.338.222.767-.053c.006-.001.266-.379.266-.379l.11.307.451-.057s.245-.126.284-.164c.04-.037.024-.179.014-.241-.01-.063.327-.206.446-.241.118-.035.093-.238.093-.238l.056.321.287-.19.062-.041.233-.288.101.638.294.153-.135.213.45.439.012.012-.076.377.209.052.255.332.266-.151.273.08.158.518.58.413.665.193.25-.255.301.277.856.002-.001-.175.667-.12-.193-.543-.116.007-.002-.014-.036-.184.503-.13.06-.303.246.16.23-.168.618-.452 1.318-.147.011-.012.163-.186.56-.068.477-.778-.014-.09-.11.031-.029-.134.107-.142-.143.036.022-.15.097-.104-.04-.231.092-.039-.129-.085-.033-.245.211-.283-.077-.487.16-.329-.252-.03-.166-.252-.208.183-.712-.847-.781-.116-.983-.818-.002-.014-.1-.698-.289-.278-.05-.186.174-.477-.282-.206.65-1.29.213-.295.392.07-.318-.343s.037-.462.045-.469c.009-.005.427-.304.427-.304l-.713.015-.324-.235s-.986-1.03-.988-1.037c-.001-.007.58-.447.58-.447l1.086-.523s.103-.249.102-.253c0-.005-.16-.229-.16-.229l-.895.494c.009-.017.081-.247.083-.247-.001-.006-.197-.454-.197-.454l.63-.572-.128-.105.312-.286s.11-.756.116-.757l.384-.048-.269-.164-.61-.667-.224.163-.273-.206s.097-.515.093-.525c-.003-.011-.01-.592-.01-.592l.23-.135.175-.28s.313-.049.32-.052l.286-.155-.03-.143.331-.17.008.136c0 .004.778.212.778.212l.447.561s.359-.24.364-.241c.004 0 .205-.091.205-.091l-.063-.32.096-.16Zm-13.133-4.445-.32.182.072.3.436.279.023.578-.139.106.315.194.149-.05.258.428.426.184.346-.189s.215-.26.22-.26c.004 0 .372-.357.372-.357l.193-.246.232-.06.052-.232.42-.108.503-.677-.192-.135-.521-.044-.259.206h-.314l-.012-.457-.205-.239-.367-.032.12-.623-.441.015-.505-.24-.373.212-.747.106-.087.234.21-.033-.249.584.384.374Zm-.777.733.205.196.001-.683.084-.14-.163-.127-.14.248-.127-.322-.247.028-.05.504.243-.049.194.345ZM24.243 56.513l-.305-.154-.145.269.058.212.196-.067.196-.26Zm-.495.81.206-.057.05-.295-.304.048.048.304Zm-1.233-.895-.172-.284.014.268.158.016Zm.165-1.469-.165-.305-.213-.06-.193.252.046.2.228.428.183-.056.073.866.156.078.14-.03.018.347.208.277.207.116.065-.203-.198-.107s.145-.747.15-.748c.003 0-.092-.463-.092-.463l-.21.064-.153-.212.072-.245-.322-.199Zm-4.404 3.23-.034-.15-.123.143.157.007Zm-.02-1.398-.055.27-.106.143.056.296-.095.217.02.192.337-.246.078-.31-.177-.106.211-.434-.27-.022Zm-3.079-3.404.256-.351-.251.04-.005.311Zm.32-.629.421-.597-.077-.28-.661.673-.21.244-.014.175.17.064.383-.013-.012-.266Zm3.578-1.37.15.005-.048-.3-.127-.03-.192.188-.218-.005-.03.208.246.106.219-.171Zm-.306-.904-.19.035-.09.165.256-.057.024-.143Zm1.443-2.835.217-.04c.003-.001.368-.587.368-.587l.208-.127-.048-.181-.2.07-.038.157-.558.57-.2.057-.047.312.097.073.201-.304ZM16.9 56.072l.297-.407-.081-.194.273-.48.201-.016-.038-.202.182-.018.193-.876.156-.017-.012-.178.144-.306.195-.03.262-.56-.06-.237.257-.067.113-.275.188-.183-.077-.333-.226.021-.1.193-.166-.052-.172.336-.806.463-.169.307-.233-.005-.104.282-.327.42.434.233.209-.202.195.057-.001.144-.319.082-.102.096-.182-.083-.625.345-.235.338.024.219-.08.128.094.164-.077.25.068.245.265.195.394.059.048.144Z" clip-rule="evenodd"/><path fill="#8CE2D0" fill-rule="evenodd" d="m16.363 56.97.1-.194-.3-.653-.16-.795.112-.113-.235-.663.104-.225-.491-.056-.935 1.235-.065-.749-.428.236-.415.04-.249.742.12.109.008.18-.159.124-.097.343-.175.45.041.183.224-.016.543-.361.215-.36-.012-.259.355-.362.374.373-.413.369-.12.206.38.026.005.755-.2.032.065.154-.28.458.025.152.162-.025.213.142.31-.206.074-.38.298-.056-.008.146.476-.142.307-.236-.046-.228.186.137.295-.245-.064-.201-.14-.067Zm-9.04-15.103.211-.33-.506-.245.296.575Zm-.156-.682.54.155.545-1.176-.783.64-.302.38Zm2.218-2.525-.386-.711.686-1.387-.338-.754.516-.082-.118-.529-.219-.353.657.051.486-1.217-.593-.539.21-.066.495.284.238-.309-.832-.661-.643.295-1.278.045-.396.628.714.385.522.958-.512.336.272.652-.513.187.11 1.379-.132 1.286.107.838.847.158.1-.874Zm-2.12-4.254.03-.282-.31.015.28.267Zm3.098-2.203.133-.488-.562.383.22.097.209.008Zm1.228-2.43-.126-.079-.462.302.519.156.069-.38Z" clip-rule="evenodd"/><path fill="#8CE2D0" fill-rule="evenodd" d="m12.645 31.21.125-.195.62-.004-.281-.933.69.195-.306-.988.024-.49.392 1.103 1.213-.24.929-1.014-.201-.888-.627.124-.75-.063.294-.157.864-.177c.01-.002.43-.216.43-.216l-.172-.828.4.173.218-.132.642.19.46-.861-.714.465-.506.083-.067-.282.381-.368.439-.99.038-.763.295-.314-.075-.33-.414-.56-.074.313-1.258.765-.745.683-1.227.524-.526.335.53 1.01-.233.102-.667-1.016.23.913-.505.149-.132-.215.21-.218-.805-.238-.345 1.123-.312.339.433.905.702-.155.114.161-1.158.46.062.386.688.454.838.285.018.252-.817.072-.736.68-.305-.213-.17.052.828 1.346 1.02-.794ZM51.12 7.852l.272.735.396-.452-.282-.344-.386.061Zm.915-1.857.548-.71-.716.395.168.315Zm.35-2.94.686.13.159-.705-.86.038.016.536ZM53.18.186 52.544 0l-.382 1.636.349.237.668-1.686Z" clip-rule="evenodd"/><path fill="#8CE2D0" fill-rule="evenodd" d="m51.248 4.56.499-.846-.352-1.072.484-.386-.088-.992-.624.044.102.856-.587.608-.453-.372-.87.41-.398.832c.003-.007-.492-.327-.492-.327l-.362 1.018s1.002.199 1.009.198c.007-.002.413.797.413.797l-.514.15.36.258.725.002-.402.433-.679.029-.304.356.001-.444-.491.416-.602-.1.177.706 1.17.327-.344.422.35.486.476-.839.357.468.296-.435.126 1.26-.611 2.614.185.02.493.728.12-1.18-.177-.625.543-.086-.165-.83.35-.963-.324-.983-.186-.407.082-.39.308.6.48-.376.217-1.886-1.075.182.777-.68Zm-10.69 11.56.316-.173-.618-.46-.398.932.548.133.152-.431Zm.37-1.775.38-.572-.646.163-.247-.031-.33.54-.13.622.693-.665.28-.057Zm-2.607.047.274-.043-.222-1.16-.161-.18-.63.411.015.53.636-.128.088.57Zm-.189.969-.814-.499-.114.543.677.302.251-.347Zm.62 1.885.142.013.233-.541-.069-.264-.67.526.364.266Zm-.426 1.659-.215.253.342.194-.127-.447Zm-1.094.796.133-.333-.288.146.155.187Zm.93.942.201-.356-.062-.911-.532.105.279.554-.192.465.306.143Zm-1.92-.519.196-.282.043.289.333-.304-.143-.142-.212-.7-.557-.389-.302-.35-.23.108-.264.526.747.94.39.304Z" clip-rule="evenodd"/><path fill="#8CE2D0" fill-rule="evenodd" d="m36.065 18.02.197-.273.315.636.29-.027 1.03-.364.424.678.596.297.104-.389.595-.118-.01-.682-.324.4-.19-.005-.016-.719-.557.494-.21-.179-.029-.372-.262.305-.073-.283-.687.043.141-.451.518-.311-.36-.577-.96-.07-.092-.424-.722.098-.149 1.568.195.713.236.013ZM23.3 25.989l-.254-.15-.06.134.253.146.061-.13Zm-.758 3.362-.262.033.09.141.236-.052-.064-.122Zm-.484-.385-.306.034.102.254.25.002-.046-.29Zm-7.7 11.39-.213-.19-.55.285.586.02.178-.115Zm1.044.078-.299.144-.097.21-.378.284.103.32.204.054.105.367.216.192.244-.03.353-.319.057-.36-.2-.246.148-.081-.456-.535Zm.736-1.206-.186.239.02.254.116-.122.162-.093-.112-.278Zm-.436 4.116.156-.049.035-.137-.302.057.111.129Zm.389-.908.405.47.101-.223-.238-.533-.268.286Zm1.944-7.876.203-.152-.02-.179-.28.194-.124.207.079.242.173.004-.031-.316Zm-.448 2.726.091-1.378.165-.113.087-.43-.184.066-.079.296-.164-.038-.145.315-.135.099.099.487-.096.23s.143.42.138.421l.223.045Z" clip-rule="evenodd"/><path fill="#8CE2D0" fill-rule="evenodd" d="m19.943 38.233-.42-.182-1.105.303-.643-.372.199-.073.217-.163-.207-.358-.223-.054-.156.125.116.224-.047.165-.221-.13-.214.103.017-.28-.506-.185.269-.116-.148-.302.06-.369-.318-.377-.136.022.065-.2.186.022.085-.915.215-.547-.102-.667-.686-1.154-.333-.269-.156.057-.173-.074.038.29-.367.222-.07.528.156.054-.135.373.225-.037-.201.272.076.253.157.156-.023.188.203.166.042.244-.114.084-.361-.583-.174.287-.077-.28-.13.217-.142-.01-.031-.24-.296-.123-.054-.39-.387-.534-.148-.063-.13.282.072.218-.202.17.044.15.33.03.071.303-.127.123-.112.46.184.263-.376-.044-.047-.225-.325-.573-.185.736-.184-.141-.06.296-.184.138.046.193.267.163.018.261.952.629.19-.038.015-.331-.078-.341.245-.08.08.312.252-.25.124.07.009.256-.153.065.194.153.267-.043.098.191.39.204-.097.18-.46-.358-.352.455.111.479.24.165.018.213.238-.058-.103.284.165.296.274-.092-.102.5.515-.117.302-.164.204.085.14-.253.157.06.061.25.124.142-.131.312.106.142.22-.072.304-.901.208.018.07.47.419-.063.03.224-.245.066.02.16-.24.026-.141.15.049.213-.161.081.097.217-.207.133.043.456.519-.015.189-.283.502-.31-.024-.282.22-.047.278-.567-.143-.225.552-.009.524-.868Zm-7.233 7.703-.33.125-.047.191.182.085.345-.204.244.064.736-.388.296-.962-.246.028-.648.566-.255.025-.037.305-.24.165Zm-.775.925.275.087.046-.194-1.135-.04-.548.115-.058.074.014.752.315-.05-.002.237.242-.032.066-.446.554-.171.231-.332Zm2.313 2.627-.135-.135-.173.158.308-.023Zm1.463-1.943.04.148.375-.116-.646-.308-.312.163.212.03.079.171.252-.088Z" clip-rule="evenodd"/><path fill="#8CE2D0" fill-rule="evenodd" d="m16.375 45.415-.559.089-.072.192.046.338-.226.056-.166-.248-.131.141-.273-.077.038.3.163.02.014.139-.304.274v.265l.744-.044.14.225.236.013.03.342.5.136.139-.196.37.003.005.237-.318.134-1.167 1.077.432.15.45-.252.246.01.24-.197.078.193-.243.292-.4.073-.087.167-.512.031-.506-.064.085.256-.361-.133-.054-.238-.393.008-.056.213.044.286-.181.047-.06.175.278.057.132-.095.117.086-.076.132.45.086.167-.369.09.127.129-.14.33.196.143-.17.363-.144.02.225.212-.02.383-.316.31.03.4-.507.015.536.205.078.946-.53-.167-.168-.212.025.07-.285.15-.023-.047-.314.19.166-.017.263.367-.072-.036-.21.153-.104-.176-.463-1.821-.808-.17-.688-.306-.46-.16.03-.107-.166.142-.12-.398-.298ZM21 59.648l.147.022.069.231.268.476.52.179.825-.167-.052-.323.141-.31-.123-.393.152-.21-.143-.29-.349-.06-.04-1.19-.429-.31-.02-.132-.439-.12-.15.198-.452.266.005.2-.173.308.085.626.219.272-.082.27.02.456Z" clip-rule="evenodd"/><path fill="#8CE2D0" fill-rule="evenodd" d="m45.218 34.648-1.165-1.382-.79-.122-.248.355-.49.061-.368-.186-.254.194-1.315.087-.196-.199-.585-.087-.205.165-.133-.121-.505-.122-.262.13-.26-.275-.339.044-.163.339-.347-.057-.19.227-.559-.103-1.528-.665-.75.285-.292.018-.646.852-.327-.238-.252-.183-.535.448-1.397.363-.191-.14-.367.22.052.35-.823.841-.58.002-.87-.197.658-.102.267.096.185-.231-.127-.308s.458-.023.459-.015a7.5 7.5 0 0 0 .089-.252l.388-.076-.057-.297.442-.466.227-.359-.361-.101-1.007.15-1.25 1.137.161-.62 1.232-.955.289.144.386-.343.615-.29-.15.413.146.174.309-.049.611-.842.403-.944-.247-.058-.442.442-.18-.36-.65.319-.885-.43-.864-.093-.602-.797.123-.107.68.742.636.003.562.248.674-.692-.482-.579 1.183-.4 1.45-1.222.243-.456.398-.063.696-.68.715-1.057.442.04-.03-.27.374-.013.479-.342.222-.379.306-.162.026-.51.295-.272-.04-.437-.215-.118-.223-.6.36-.321.152-.456.072-.49-.945-.244-.07-.213-1.388.097.206.373.22.079-.134.42-1.088-.215.068-.19-.413.008-1.148.746-1.374-.224-.114-.271-.221.106.02.255-.245.127-.08-.17-.417-.053-.068.336-.353.013-.137.413-.274-.393-.575.105-.24.563-.54.543-.032-.175.315-.354.08-.753-.358-.336-.508-.015-.6 1.005-.495.428-.087-.196.6-.738-.08-.345-.321-.111-.123-.492-.215.131-.028.911-.223.023-.065-.358.11-.369-.37-.438-.382.06-.241-.159-.192.024-.162.52-.492.66-.155.458.724.413-.044.234-.228-.15-.243.065.082.322-.093.178-.254-.204c-.005.001-.311.497-.311.497l-.103.454.313.606.303.144.68.407-.27.085-.616-.347-.234.189-.392-.042-.677.187-.084-.2-.31-.209-.11.388.165.148.236.684.372.198-.278.22.074.347-.096.424-.419-.107-.44-.364-.153.214.144.573.303.034.369.318.043.432.269.063.485.32-.225.195.26.19.29.321-.203.032-.48-.346-.245-.023-.507-.244-.25.013.005.234.478.134.028.194.386.293.078.212-.288-.047-.274-.342-.637-.221-.29.381-.37-.048-.07-.435-.237-.271-.271.023c-.005 0-.076.235-.076.235l-.185.155.194.46.305.097-.005.553-.295.238-.317-.453-.163-.682-.735.088-.069.342.183.548c.001.004-.203.263-.203.263l.317.399.4-.064.143.36-.131.202-.215-.135-.578.644.022.176.244-.067.269.404-.07.142.294.333.338.176.27-.028.428.082-.251.233-.386-.033-.264.308-.192-.507-.345.063-.146-.305-.443-.08-.271 1.185.274.426-.044.707s.22.42.22.424c0 .005.39-.027.39-.027l.337-.19.47-.603.06.492.19.329-.57.123-.544.534.045.238.556-.091.338.154.472-.088.393.337.26.385-.277.029-.468-.52-.745.349.034.395-.378.246.056.36.33.029.424.178.203.483-.271.037-1.034-.257-.415.674.29.255.344.036.153.393.255.105.511-.059.013.163-.708.164-.552-.564-.72.106-.05.522-.206.402.052.218-.379.08-.145.185.33.114 1.052-.225.075.175-.395.238.307.236-.717.223-.298.212-.039.374.224.26-.12.137-.721-.468.03.204-1.374.01-.355.372.166.514.401.104.441-.231.148.22.546-.008.179.137.487-.088.132.11.145-.154.116-.012.04-.144.132-.007-.022-.126s.257-.034.26-.032l.116.104.143-.02.256.292.543-.077.22.092-.551.122-.396-.051-.434-.181-.116-.01-.065.13-.323.165-1.19.185-.002.244a3 3 0 0 0 .143.16c.001.01.235.58.235.58l.562.405.267-.014.64.237.164.307.237-.006.143-.235.471-.195.326-.469.123-.42.285-.068.238-.395.196.111 1.11-1.16.097-.337.293-.192.317-.481.17.074-.301.557-.514.667.036.184.258-.113.151.295-.84.2-.199.11.143.202-.219.26-.47.558-.105.33.23.202-.7.456.001.156.265-.05.236.387-.336.046-.36.323-.151-.047-.306.298s.137.301.138.308l.04.326-.284.119-.135.408-.154-.28-.236.251.051.355-.29.388.105.455.148.107.101-.635.361-.187.176.088.292-.17.089.171-.353.267.079.256-.586.558-.146.471.174.03.08-.194.358-.372.118.098-.222.429.022.319-.23.148-.734.994-.331.553s.107.211.106.218c.008-.001.272-.252.272-.252l.345-.702.282-.144.015.213-.245.198-.116.443-.453.591.001.247.274-.072.203-.39.172.115-.507.899-.107.48.352.166-.091.247.19.198.536-.434.455-.582.101.14s-.32.654-.327.655c-.007.001-.614.392-.614.392l-.7.763-.004.803-.432.68.07 1.626-.34.066-.398.314-.034.94.636.287.838-.15.46-.687-.284-.676.555-.96.091-.628.238-.104-.023-.343.466-1.684.216-.277.413-.063.095-.525-.659-.96-.286-1.554.22-.054.258.175.345-.3.736-1.188.313-.157.1-.243.945-1.06.1.161.615-.349-.031.207-.607.509-.41.62s-.488.203-.5.205c-.011.002-.723.921-.723.921l-.507.82-.042.64.221 1.017.231.167.34.048-.064-.756.123-.173-.029-.508.145-.03.128.276.273.18.269.313.124-.088-.184-.71.189-.055.283.842-.102.35.543.09.196-.624.263-.461-.1-.24.219-.123-.013-.532.091-.368.171.177-.037.44.214.313c.003.007.445-.175.445-.175l-.354-.343-.079-.542.157-.037.197.616.42.26.184.426 1.21.444.359-.005.39.564.02.028-.141-.005-.37-.32-.333-.06-1.143-.211-.84-.41-.364.724-.27.095.056.245.229.984-.07.583-.296.64.497.747.37.043.716.741-.186.281.128.089.283.826-.99.852-.527 1.423-.19.756-.614.508-.903 1.725.186.485.118.307-.03.6-.191.152-.16-.425-.089-.784-.295-.017-.409.245-.14.94.489.946.608.62.382.758-.076.36.383.678.307-.046c.007-.001-.23-1.179-.23-1.179l-.054-1.033.894-.514.321.585 2.103 1.736.4.139.3-.242-.09-.645.252-.631s-.128-.104-.129-.11c-.001-.007-.557-.87-.557-.87l.819.297.871.633.129.255.459.195.377-.097.656.173.551-.381.142-.184.32-.107.022-.834.34.418.647-.406.67.044.026-1.137 1.9.103 1.749-.18.1-.842.951-.268.414-.422 1.173-.902.904-1.412.316-.245.283-.413.965-.152-.071-.361 1.193-.896-1.174-2.002.38-.174.37.082.188-.46.906-1.088.255-.476-.035-.242-.176-.119-.072-.364-.31-.233-.086-.278-.462-.214-.623.137-.185-.27-.216-.019h-.004l-.88-.682-1.339-.835-.91.038-1.168 1.338-.58.092-.442-.277-.196-.218-.562.09-.778-.208-.44.094-.075-.03-.537-.212-1.14-.062-.512-.766.047-.008.238-.042.012.006 1.791.786.422.014.072-.237.496-.053.278-.333.233.162.447-.154.037-.497.294-.352.286-.045.263-.412.487-.445.587.301.713-.113.452-.27.343-.09.39-.496-.12-.387-.383-.33-.384-.104-.537-1.291-.754-.146s-.094.188-.1.19l-.63.179-.563.305-.557.465-.44.128-.029.008-.004-.258.94-.813.527-.337.412.038.222.02.29-.256.267.133.585-.245.357.21 1.221-1.11.064-.152.416-.455-.05-.659.384-.224.144-.829.015-.086 1.06-.946.346-.62.31-1.638.326-.341.297-.731.006-.015.019-1.265.465-.863.377-.7.062-.343.25-.165.508-.565.182-.431-.077-.256.184-.234-.334-.989Z" clip-rule="evenodd"/><path fill="#0D8D98" fill-rule="evenodd" d="m12.543 69.657.21-.64.02-.414.016.014.202.182.227.445.503-.276.537-.02s-.409 1.148-.415 1.15c.003-.001.192.466.192.466l-.228.28-.334.41-.043.096-.03.069-.15.341-.237-.199-.427-.165-.366.173-.451-.17-.008-.004.046-.566.05-.065.555-.704.118-.364.013-.039Zm6.714 1.15-.074-.484.09-.102-.256-.318h-.011l-.48-.04-.273.047-.512-.2-.673.355-.082.145-.002-.002-.153-.127-.265-.077.081-.354.264-.034.335-.322.365-.178.467-.269.113-.245-.006-.032-.175-.926-.448-.048-.195-.199.002-.166-.18-.152-.769-1.144-.03-.937-.528-.27-.03-.126.189-.62-.667-1.113-.642.254s-.169-.128-.17-.135c0-.007-.782-.345-.782-.345h-1.006l-.186.197-.42.14-.111.038-.619.097-.108.157-.819.109-.115.015-.739.001-.442.888-.228.321-.674.1-.745.001-.016-.096.014-.005.006-.002-.04-.117-.038-.117-.404.147-.103-.105-.278.154-.382.501-.009.69-.361.037-.022.725.02.12-.114.381-.14.022-.061.163-.432.395-.275.397-.11.022-.631.125c-.012.002-.016.003-.694.212l-.309-.335-.677.406-.047.644.172.096.325.38.238-.07.687.107.024.18-.634.217-.353.518-1.142-.191-.29.44-.483.336-.06.11-.549-.077.046.289.412.613.382.718.424.378.209.404.415.074.06.041.037 1.004.656.253.633.167.368.168.037.209.673.399.34.122.4-.224.254.2.267.075.191.145.172-.144.01.057.468-.415.15-.624.353-.173.225-.024.132-.014-.131-.755-.248-.262.117-.351.25.064.58-.723.28-.284c.24.136.357.202.42.231.029.027.161.16.289.29l.016.28.149.081.137.196-.157.46.045.347.275.082.093.487.676.7.15-.27.103-.066.2.225.078.306-.268.628.094.417.21.557.373-.221.06-.114.602.038.039-.06.125-.193.298.256.074.063.321-.232.124-.38.242.3.302-.42.185.142.372-.059 1.202.907.163-.289.288-.031.399-.415.308-1 .009-.03-.066-.37.253-.33.21-.455-.015.38 1.11.317.24-.374.652-.635.152-.024-.238-.654-.13-.25-.61.212-.135-.101.338-.407.14-.509-.22-.178-.016-.086-.032-.17.15-.391-.271-.18-.07-.38.044-.097.157-.073.719.534.269 1.008-.09.249-.12.033.193.956.103.219.37-.778-.071-.531.127-.677-.424-1.168Z" clip-rule="evenodd"/></svg>
