<svg xmlns="http://www.w3.org/2000/svg" width="77" height="95" fill="none"><path fill="#8CE2D0" d="m58.288 66.736-.123.05-.445.032.145.096v.004l-.145-.1-.087.24-.095.074-.086.072-.123-.095-.082.145-.377.096-.059.222-.063-.04-.323.15-.09-.023-.11-.05-.454.277-.05.05-.1.045-.255.078-.363-.1-.16.131-.422-.286v.49l.114.346.132.314-.182.313.045.34.096.16-.068.2-.132.218-.055.186.51.196.026.286.1-.032.069.145.204-.027.268.136.06.055-.033.163.305-.04.322.313.1-.036.11.236-.219.49.01.328.063.013.177-.14.164-.437.263-.281.16-.01v.205l.226.154.064.219-.123.109.096.109.222-.228.096.037.322.304.019.323h.181l.132.218.327-.24.118-.292.268-.05.01-.159.122-.104.15.009.082.123.036-.06.132.069.145.586.169-.255.1.232.436-.013-.023-.364.327-.223-.005-.236.187-.004.14-.41-.058-.354.145-.009-.14-.259.058-.35.087.037.072-.241.3-.182.132-.422-.073-.146.023-.086.163-.073-.036-.109.154-.027-.059-.182.082.005.037-.16.05.173.1-.004.009-.227.558-.15h.119l-.228-.396-.218.032-.222-.554-.155-.027.1-.11-.122-.145-.291-.218-.232.114-.036-.005-.573.05-.095.036-.36.132-.026.137-.16.009-.322-.168-.195-.196.031-.14-.372-.132-.01-.55-.935-.155Z"/><path fill="#8CE2D0" d="m52.59 58.872-.363.059-.432.4-.113.058-.037-.127-.177.091-.077.232-.155-.086-.059.231-.172-.013.036.172-.509.11-.068.19.163.036.014.187.223.132.163.304-.081.132-.228.05.105.159-.182.177-.086.182-.096-.046-.177.155-.218-.336-.109-.514-.113-.09-.155.167-.727-.036.155.154-.35.028-.582.286-.136.368.209.086-.182.31-.29.063-.119.182-.2.081-.445-.14-.4.118-.063-.168.1-.391-.341-.59.145-.423-.204-.028-.027-.109.472-.181.236.013-.818-1.127-.168.532-.177-.014-.259.273.218.023.132.254-.273.118-.39-.377-.278.077.069.25-.3-.059-.232.473.041.204-.236.986-.055.082-.136-.073-.155.078.082.168-.304.131-.196-.063.087.1-.205.24-.531-.508.036.377.073.1.227.031.173.282-.296.25.123.364-.255.04-.081.314-.196.182.11.245-.1.25.09.277-.04.21-.373.326.19.205.132.486-.09.263.104.21.282.217.095.196-.136.059-.241-.137-.14.269.072.295.327.29-.127.2.063.1-.231.173v.336l-.01.014.146.218.214-.109.077.073.445.85.182-.11.013.468.246.427.35.337-.023.368-.382.036-.059.11.087.108.095-.027-.032.232.423.372.181.036-.05.21.155.14-.127.291-.291-.145-.055.354.137.318-.028.145-.2.091.023.328.105.004-.06.19-.086.05-.327-.158-.3.04-.254.564-.568.05-.036.173.25.204-.032.196.154.304.027.055-.086.454.373.154-.11.4.091.227-.063.582.023.136.331.146-.054.1.077.145-.114-.027-.059.05.087.072-.232.05.095.255.164.072-.164.314h.005l-.036.068-.123-.073-.264.223-.15-.073-.131-.077-.305-.35-.34-.013-.468-.218-.15.086-.205-.373-.177.082-.21.318v-.35l-.122.11-.413.031-.218.245-.073-.122.014.19.35.26.472.704.318-.232.314.073-.06.372-.081.132-.173-.023-.063.11.04.05-.095.327.032.122.209.05.218-.145.059.345.118.1-.132.1.005.264-.087.081.096.187-.027.068.181.218.019.222.372-.231.096.245-.05.255.631-.064-.109.232.509.082.75.317-.118-.1.24-.072.246-.232-.11-.045.16-.082-.091-.305.159.155h.181l1.023-.336.068-.041-.082-.082.486-.027.396-.504-.032-.087.018.087-.118-.014-.014-.118.077-.014-.2-.027.041-.177-.072-.11-.187.032.078-.086-.241-.09-.454-.655-.605-.236.077-.068-.036-.219.105.269.159.118.118-.064-.046-.068.01.004.036.064.39.282.014-.073.045.182.064-.377.168-.087-.132.128.014.236.182.145.527.49-.036-.426.163-.06-.054.619.622.363.304.118.273.327.477.241.29-.254-.29.077.24-.186-.072-.128-.132.037.132-.073-.227-.304-.114.036.041-.195-.231-.05.218-.096.268.123.145.014-.05-.127.146-.037-.028.136.173.146.05.059-.159-.032.082.177.027.096-.218.05.023.24.209.219.59-.164-.009-.145-.127.095-.01-.304v-.355l.074-.054.122.145.01-.418.036.15.186-.014.2.137.073-.114.418-.023-.019.205.146-.05.077.086-.014-.195.191.018.027.323.16.109.109-.25-.06-.21.119.01-.014.186h.1l-.173.227.26.137.236-.205.05-.259.063.05-.172.414-.191.086-.341-.123-.264.41-.109.026.032-.136-.045.136.758.414.582.481.309-.554-.077.105-.11-.168-.145.027.05-.136.21-.023.09.181.509-.317 1.6-.387.195-.036.872-.036.754-.146.823-.263.304.022.323-.05.586.073.213.046.31.163.14-.064.545.182.695.246.291.104-.004-.104.654.363.268-.018.681.29.455.005.763-.986.377-.35 1.25-.408 1.054-.296.372-.2.2-.018.614-.677.44-.25-.027-.054.836.09 1.2.146.072-.11-.204-.78.268-.882.781-.681 1.19-.25-.095-.06.337-.327.472-.054.327-.2.26.018-.124-.163.627-.346.196-.381-.023-1.104-.023-.064-.368-1.14-.204.172-.037-.013-.008-.096.177-.095.013-.182.118-.077.364.073.086-.128.023.091.159-.518.05-.304-.086-.16-.073-.031-.105-.064-1.08.26-.9.058-1.404.241-.487.06-.204.231-.604.118-.46.064-.076.095.013-.118-.327-.168-.509-.018-.481-.055-.1.146.059-.464-.386-.254-.105-.21.145-.095-.163-.009.127-.063-.309.072.1.173-.095.023.068.181.163.096-.04.086-.182.073.072-.205-.159.014-.163.309-.114-.29-.195-.046-.055.095-.15.014-.068.154-.172-.109-.341-.127-.25-.236-.005.009-.154.2.14-.255.746-.095.145-.1-.072-.082.163-.281.21-.06.1.087.03-.078.087.237.35-.05.096-.123-.037-.263-.213-.196-.282.014-.118-.077-.44.059-.3-.141-.028.082-.082-.073-.204.05-.073-.086-.777.1-.095.25.095.04-.132.014.05.132-.754.213-.568-.095-.1-.227-.409.19-.572-.408-.132.422-.3.182-.072.24-.087-.036-.059.35.14.26-.145.008.06.355-.141.409-.186.004.004.236-.327.223.023.363-.437.014-.095-.232-.173.255-.145-.586-.132-.069-.027.06-.09-.123-.15-.01-.123.105-.01.16-.268.05-.118.29-.327.24-.132-.217h-.181l-.019-.323-.322-.304-.096-.037-.222.228-.096-.11.123-.108-.059-.219-.232-.154v-.204l-.159.009-.263.281-.164.437-.177.14-.064-.013-.009-.327.218-.491-.109-.236-.1.036-.322-.314-.305.041.032-.163-.059-.055-.268-.136-.204.027-.069-.145-.1.032-.027-.287-.509-.195.055-.186.132-.218.068-.2-.096-.16-.045-.34.182-.313-.132-.314-.114-.345-.218-.082-.204.209.195-.21-.172-.517.077-.182-.064-.181.146.036.013-.15.06.036.095-.122-.06-.11-.136.019.005-.05-.218.031.013-.263-.195-.232.123-.181-.037-.178-.09-.086-.091.068-.146-.254-.254.077-.6-.327-.177-.377.045-.123-.24-.323-.146.046-.218-.377.277-.25.205-.014.09.141-.077.127.282.396.195.036.141-.105.509.2.24-.395.037.073.091.032.06-.11-.464-.613-.25-.077-.114-.154-.313-.014-.21-.232-.19.027-.1-.145.182-.523.122-.031-.022-.196.1.01.081-.219.073-.05-.168-.436.177-.181-.073-.119.1-.081-.027-.218-.254-.182.354-.514.245-.181.132-.3-.159-.364-.268-.063-.068-.232.104-.036.023-.423-.154-.109-.246-.095Zm-6.093 22.004.014.031.027-.022.01-.023.009-.06-.032.087-.027-.013Zm-2.557 1.671.15.069-.064-.046-.086-.022Zm22.88-12.18.055.158-.127.219.127.122-.145.1-.11-.077.1.205.341.195.032.295.368-.027h.01l.353.095.182-.022.395.145.523-.327-.518-.663-.768-.114-.345-.205-.473-.1Zm-.767.4-.05.077.29.045-.054-.123h-.186Zm.258.172-.245.082.073.145h.232l-.06-.227Zm-1.254.109-.031.082.218-.018-.186-.064Zm-15.106 9.487-.178.122-.072.46-.305.036.037.154.85.127v-.15l-.219.096.073-.096-.15-.009.136-.209-.168-.032-.04-.09.1-.01.067.028.055-.26-.186-.167Zm.295.063-.018.237.309.186.036-.218-.04-.168-.287-.037Zm-1.577.168-.04.119.072-.023-.032-.096Zm-2.04.882-.204.036-.327.414-.568.218.24.045-.177.027-.109.173.023-.173-.086-.059.05-.004-.1-.032-.446.277-.313.06-.036.04.009-.054h-.182l-.264.454-.381.25 1.022-.068.377.363.6.264.959.822 1.104-.372.254-.841.255-.19.363-.06.277-.295-.123-.168-.263.013.05-.095.045.023-.118-.373-.509-.182-.513-.018-.09.064.058-.11-.254-.086-.087-.131-.29-.227-.16.031.096.55-.182-.586Zm-2.544.877.018.095.023.01-.041-.105Z"/><path fill="#8CE2D0" d="m41.85 60.298-.21.1-.227.436-.063-.109-.123.205-.145-.105-.068.11-.2.036.109.109v.154l.282.16.086.204-.132.377-.223-.087-.508-.508-.178.231-.195-.122-.318.027-.532.495-.109.014-.109-.173-.24.064-.26-.073-.3.25-.086-.11.11-.34.231-.163-.173-.128-.272-.068-.091.046-.096.086.037.313-.105.05.227.364-.159-.05-.045.145-.35-.081-.304.458-.186-.036-.291.027-.118-.15-.137.005.005-.473-.26-.122.014-.123-.422.145-.05.246-.14.036-.233-.05.023-.254-.277-.023-.023-.145-.127.018-.127.186.2.255-.237.213.023.273-.086.054.35.146-.01.377.178.145.073.35-.255.063-.213.196-.205-.077-.232.381-.477-.013-.022.19-.182-.109-.24.278-.11-.069-.136.268-.11.055.014.186-.181.118.077.146-.11.4.178.24-.105.273-.15.082.187.409-.15.072.136.1-.023.219.155.118-.264.077-.027.095.196-.027-.137.282.1.027.023.236.082.127-.091.182.386.091-.354.5-.11.463-.445.568.191.264-.3-.178-.036.169-.404-.041-.264.15-.8.836-.072.304-.314.264-.218.072.023-.109-.436.146.172.086.01.132-.05.172-.278.118.118.11-.036.59-.082-.14-.409-.132.241.14-.113.864.186.336.036.313-.172.26-.123.254-.24.086.217-.172.11-.319-.096-.009-.232.241-.24.027-.56-.159-.486.168-.218-.031-.75.336-1.272-.064-.395-.409-.259-.013-.254-.255-.468-.145-.355-.01-.427.242-.104-.118-.895-.173-.477-.082-.168-.136-.269.232-.358-.073-.428.168-.336-.136-.327.195-.704.027-.1.146-.486-.182-.096.104-.25-.036-.563.223-.236-.06-.11.169-.185.032.186.158-.064.423-.064.11-.395.013.227.159-.022.204.172.05.06.668.24.177.096-.022.004.281-.186.237.077-.332-.195.036.023-.15-.096-.059-.209.373-.204.05-.446.604-.39.136-.355-.022-.495-.391-.45-.141-.554-.027-.1.209v.69l-.2.41.046.172-.087.036-.159.35.091 1.063.095.114-.122.018-.06.745-.73.482-.024.136-.19.018-.023.368-.273.182v.132l-.468.172-.095.2-.073-.09-.222.104-.037.24.077.028-.136.482-.268.377-.373.077-.168-.109-.209.045.023.1-.19.105-.232-.046-.096-.168-.172.118.195.182-.168.173.036.313-.086-.072-.146-.114.014-.204-.363.413-.532-.136-.036.063.154.11-.073.376.087.096-.114-.01-.154.178.118.064-.023.227-.082.55-.145.263-.11.01.119.035-.304.15-.155-.181-.027.195-.25.018.168.055-.173.073-.09-.078-.014.114-.114-.064.028.264-.137-.018.1.227-.095.463-.282.073-.213.313-.355.014-.009.29-.182.287h-.04l-.232.114-.127.2-.137-.023-.35.34-.377.014-.063-.1-.168.05-.023.291-.409.45-.018-.023-.327-.109-.055-.309-.1.064-.132-.087-.413.037-.554.413-.091-.082-.314.396h-.445l-.413.604.195.595-.304.318.05.182.181.073.068.263.123.06.26-.142.108.069.191-.169.427.014.155-.168.086.05.24-.45-.154-.29.191-.11.086-.186.618.073.336.304-.009.132.146-.046-.028-.059.35.05.2.205.25-.037.173.168.05-.045.359.468-.032.21.204.167-.059.064.105.127-.123.332.123.068.072.34.269.078.027.181.313-.04v-.255l.264-.413.413-.037.21.091.108-.181-.04-.173.281-.123.132-.277-.096-.24-.113-.023.04-.268-.376-.064-.073-.123-.155.078-.05-.087-.109.027.032.146-.068-.127-.254.1-.277-.073.49-.037-.104-.1.068-.204v.255l.195-.032.073-.196.073.023-.11.16.296-.05.118.072.19-.146-.14-.313.3-.232.145-.063.123.072.19-.327.055.268.082.15.29-.186.11-.532.173-.263.25-.064.145.173.595-.6.473.1.109.195.063-.181.182-.11-.04-.131.185-.123-.181-.136v-.132l.095-.136-.027-.177.182-.16.113.028-.127-.346.109-.163.309-.09.004-.01.2-.027.014-.132.104.014.132.159-.045.286.122.1.06-.146h.145l.227-.231.014.063.077.01-.164.063.05.086.268-.054.082.077.21-.132.399.155.377-.096.046-.109.24.082.246-.227-.132-.168.05-.114.082.232.145-.154.509-.055 1.054.163.568.432.005.314.145-.105.227.014-.123-.246.319-.145-.005-.254-.386.172.122-.195-.086-.077.114-.127-.028-.164-.109-.046.073-.045-.318-.064.073-.022.218-.223-.096-.118.06-.168h-.128l.241-.15.01-.164.135.191.155.182.059-.073.086-.136-.082.136-.063.087.036.036-.277-.073-.136.386.109.118.122.246-.031.082-.014.072.177.055.005.068.145-.095.196.05.022-.114.16.136.167-.336.169-.05-.264.323-.036.136.109.05-.341-.086.082.24.063.4.868.123-.418.086.236.214h.305l.073-.127.222-.073.323.059.145-.123-.023.123.046.14.209-.008.282.245.145.01-.018.122.236.213-.018.291-.127.005.49.409.327.113.1-.086-.009-.218.214-.1-.087.231.319.119.159.2.422-.31.245.078.169-.064-.187-.232.21-.88.3-.414.34-.11.159-.154-.086-.209.281.218.268-.177-.027-.186.146-.327.118-.032-.073-.123.218-.172-.314-.096.078.096-.064.063-.082-.114-.354-.068-.01-.568.228-.318.195.146.36-.146-.346-.3.073-.55.14-.335-.14-.078.14.019.282-.332.05-.286.418-.473-.2.145-.063-.727-.168-.268v-.281h.009l.113.113.069-.15.013.087-.009.095.327.695-.113.182.654.2.132-.218.49-.177.255-.477.213-.182.732-.168.881.004.168-.259.64.06.637-.237.059-.064.377-.24 1.5.377 1.344.831 1.245 1.009-1.086-.913.518.236.023.132h.127l-.036.095.313.118.3.418v.01l.16.117.217-.277.182.078-.19-.123.104-.096-.118-.05.104-.195.164-.154.163.031.727.023.146.11.886.15.386-.11.109.132.295-.014.118.114.114-.064.204.21.518.095.087.268.29-.2.755-.082.072-.209-.122-.032v-.136l.327-.386-.255-.06.073-.45-.077-.095-.25.241-.11-.072.074-.119-.173.164-.032-.155-.054-.022-.073-.078-.11.014-.045.064.014-.11-.223.169-.054-.06.286-.15-.086-.235.15.009-.087-.096-.281.123-.118.213-.16-.009.096-.281.15-.014-.145-.036.086-.132.218.036-.005-.195-.059.054-.05-.09.282-.01-.145.169.531.168-.245-.291.004-.11.146-.067.123.286-.078.109.332-.046.109.1-.04.073.185.096-.136.254.464-.427.576-.16.132-.022.827.15.082-.163.014-.055.295-.186.177-.01.11-.231-.632.064.05-.255-.096-.245-.372.231-.019-.222-.181-.218.027-.068-.096-.187.087-.081-.005-.264.132-.1-.118-.1-.06-.345-.217.145-.21-.05-.031-.122.095-.328-.04-.045v-.004l.063-.11.173.023.082-.132.059-.372-.314-.073-.318.232-.472-.704-.35-.268-.014-.182.073.123.218-.246.413-.032.123-.109v.35l.209-.318.177-.082.205.377.15-.086.468.214.345.013.3.35.132.077.15.073.272-.223.114.073.036-.068.159-.314-.164-.072-.095-.255.232-.05-.087-.072.06-.05.113.027-.077-.145.054-.1-.331-.146-.023-.136.064-.582-.091-.227.109-.4-.373-.154.087-.454-.028-.055-.154-.304.036-.196-.254-.204.045-.173.559-.05.254-.563.3-.041.318.168.096-.06.059-.19-.105-.004-.022-.323.2-.096.027-.145-.146-.318.06-.354.295.145.118-.29-.146-.141.05-.21-.181-.036-.423-.372.032-.232-.095.027-.087-.109.06-.109.376-.036.028-.368-.35-.337-.245-.427-.014-.468-.182.11-.445-.85-.077-.073-.214.11-.145-.219.009-.014v-.336l.231-.172-.063-.1.127-.2-.327-.291-.073-.295.141-.264.24.132.128-.06-.086-.195-.282-.218-.104-.209.09-.263-.14-.486-.182-.196.363-.336.05-.209-.09-.277.1-.25-.11-.236.196-.191.081-.314.255-.04-.123-.364.291-.25-.168-.282-.227-.031-.073-.1-.036-.377-.037-.082.505-.582-.06-.15-.386.123-.3-.132.055-.195-.163-.123.031-.213-.109.104-.177-.109.023-.422-.096.136-.113-.06-.177-.272Zm-2.381 22.718H39.487l-.005-.01-.009-.009-.013.01.009.008Zm2.435-.76.055.11.072-.11.146.11v.032l-.037.09-.172-.04-.064-.191Zm-2.067.532-.136.073.209.1.118-.073-.191-.1Zm-.477.05.036.146.064-.05-.1-.096Zm-.69.082-.083.136-.004-.004.086-.132Zm-4.163 1.44.532.596-.095.74.286-.354.145-.214-.132-.277.064-.04-.382-.037-.418-.414Z"/><path fill="#8CE2D0" d="m39.941 42.597-.24.2-.123.322-.168.073-.268-.059-.118.264-.191.09-.34.023-.278-.295.018.49-.14-.05-.532.7-.341.4-.064-.059-.268.218-.127.027-.209-.04-.3.39-.34.118-.014.364.131.181-.118.114.046.146-.568.181.023.273-.45.163-.386-.245-.082.427-.295-.282-.25.146-.1-.118.027-.268-.11.009-.013-.146-.136.028-.104-.16-.405.169-.236-.155-.268.177-.078.223.11.214-.055.5-.254.008-.441.455-.377-.754-.41-.064-.035-.095-.4.209-.3-.205-.137-.282-.072.155-.268.077-.264.4-.377.045-.19-.081-.137.19-.045.387-.296.013.087.132-.168.09.24.192-.35.304.119.082-.169.368-.009.19h.019l.127.014-.078.169.405.204.309-.19-.023.29.136.123.06-.073.05.082.059-.073.1.109.072-.05.037.1.177-.06.059.155-.11.1.282.132-.045.123.105.045.122-.036.082.059.036.254-.168.014.005-.182-.223.1-.195-.073-.018.287-.237.24.005.255h.073l-.064.15-.068.29-.31.096.223.168-.131.028-.2.304.04.163-.276.21h-.218l.263.704-.245.118.05.109.45-.11.045-.072-.127-.095.068-.1.259-.068.236-.246.209-.059.195.355-.077.49-.3-.022.027.354-.8.023-.672.39-.168-.036-.34.359-.037.168.146.34.39.187.232.35.432.177.477.473.19.063.646-.159.195.087v.009l-.122.304-.332.123-.127.668.613.168-.268.154-.277-.081-.3.118-.123.1.037.195-.278.032v.363l-.29.16.068.304-.277.313.222.145.146-.131.118.118-.21.182-.417.09-.064.164.364.182-.01.182-.172.027-.036.39.34.455.046.163-.132.278.3.631.4.418.163.477h.314l.045.36.186-.019.746-.427.318.19-.173.123.2-.05.054.182.15.014.191.24.318.16-.1.231.386.464.187-.186.059.145.168-.082.036.177.268-.031.155.154.136-.268.11.073.24-.278.182.11.022-.196.477.018.232-.381.205.072.213-.19.26-.064-.078-.35-.177-.145.009-.377-.35-.146.086-.059-.022-.268.236-.213-.2-.255.127-.186.127-.018.023.145.277.023-.023.254.232.05.141-.036.05-.246.423-.145-.014.123.259.122-.005.473.137-.005.118.15.29-.027.187.036.304-.459.35.082.046-.145.159.05-.232-.364.109-.05-.036-.313.095-.086.09-.046.273.068.173.128-.232.168-.109.336.087.109.3-.25.258.073.241-.064.11.173.108-.014.532-.495.318-.027.195.122.178-.231.509.508.222.087.14-.386-.094-.2-.282-.155v-.159l-.11-.104.2-.037.069-.113.145.109.123-.205.063.11.228-.437.209-.1.177.273.114.059.095-.136-.023.422.177.11.11-.105-.032.213.163.123-.054.195.3.132.386-.123.059.15-.505.577.037.087.531.508.205-.24-.087-.1.196.063.295-.131-.072-.169.154-.077.136.073.046-.082.245-.986-.04-.204.23-.473.3.06-.067-.242.277-.086.39.377.273-.118-.132-.254-.218-.023.26-.273.176.014.169-.532.163-.35.314-.027.263-.118-.068-.268-.136-.095-.096-.26.177.05.114-.195.214-.095.159-.214-.073-.318-.105-.059.237-.39-.546-.205.028-.095.39-.255.455-.109.027-.077-.3-.563-.345-.618-.037-.064-.64-.845-.19-.114-.9-.522-.41-.277-.617-.291-.041-.195-.327-.214.054-.29-.113-.096-.046-.232.232-.109.045-.182-.1-.24-.359-.296.023-.109-.1-.095-.059.059-.304-.096-.191.064-.023-.368-.486-.14.145-.21-.045-.136.3-.518.154.086.11-.113.108.109.073-.082.077.059-.027-.11.24-.19-.03-.15-.174-.095.232-.255-.39-.363-.618-.155-.119.05-.013-.086-.205.11-.19-.137-.31-.241-.104.059-.132-.095-.09.086-.205-.1.023-.154-.241-.378.004-.168.237-.231.036-.51.609-.354.05-.495-.21-.218-.058-.082.086-.15-.095-.059-.078-.409.1-.072-.004-.15-.364-.527.05-.364-.554-.581-.282-.05-.509-.241-.05-.2Z"/><path fill="#8CE2D0" d="m33.303 11.365-.122.246-.273.095-.477.4-.372.05-.014.2-.132.054-.1.218-.313.218-.096.255-.168-.005-.232.146.032.159-.204.159-.845-.073-.023.086.25.182-.227.423.05.177-.123.109v.136l-.195.196-.246-.014.091.082-.195.086.118.095-.095.019.045.068-.214.027.032.145.114.01-.132.05.518-.046-.413.155-.337-.082-.277-.291-.418-.055-.145.137-.35.045-.264.355.037.109.313.145.191-.123.041.146-.132.168-.222-.023.05.277-.523-.345v-.005l.005-.059-.26.132-.29.354-.386 1.064-.023.713-.64.609h-.028l-.095.39-.496.655-.077-.018.114.636-.073.19-.4 1.186-.232.11.023.168.137.254.25.15.75 1.077.667 1.163.114.059-.005.877.931 1.535.173.014.118-.132.31.091.14-.177-.109-.209.173-.195-.05-.073.136-.227-.064-.046.082-.018-.059-.132.136.05.146.446.086-.082-.159.263-.095.5-.078-.036.05.168-.372.15.068.204h.114l-.055.727.195.314.246-.227.19.336-.045.131.06-.072.195.24-.205-.277.286-.24.364-.355.254-.54.16-.123v-.29l.045-.246.231-.241-.059.223.264.322.04-.05-.013.127.132-.013-.086.104.05.237-.037-.014v.204L30.164 28l-.118.209.204-.023.291-.268.223-.24.118.163-.023-.255.277-.431.595-.168-.209.213.064.205-.114.036.055.34.25.078.136.436.16.01v-.137l.117.027-.159.34-.177.133-.018.159.086.013-.263.182-.291.046-.268.554-.168.127.19.168.05.473.132-.06.028.082.05-.277.14.05.073-.018.223.145-.255-.054-.218.322.068.146.241.073-.109.077-.036-.064-.096.132-.145-.032.15.11-.114.067.064.1-.086.069.027-.146-.114-.009.073.073-.177.05-.15-.123.064-.086-.768.313-.01.355.06-.046.05.118-.1-.023.018.123.15.273-.277-.327.013-.423-.409.11-.095 1.612-.014.677.073.305.313.304.387.082.331-.082-.113.095.477.01.395-.073.609-.218-.659.281-.482.118-.131.014.036.077-.123-.077-.095.21.123.117-.187-.013.073.1-.086.022-.146.078.018-.091-.704.972-.422.772-.114.2-.073.436.26.382.127-.009.05-.11-.073.414.259.691.263.373.21.826.504.41.5.436.4.122.095-.072-.06-.096.45.227.073-.109-.004-.036.181-.268-.045-.091.286.127.055-.109.336-.109.173.077.109-.168-.11.218-.231-.05-.186.182-.032.01-.296.013-.095.195.095.264-.358.277-.387-.182-.163.027.077.123-.15.073.091.045-.29.005-.491-.291-.627-.95-.16-.545-.25-.654-1.03.513-.5.35.122.359.45.5.05-.037.35.496-.087.268.1.059.069-.068.022.145.15.068-.223-.045.087.109-.082.109-.086-.096.063.164.636.195.727.605.246.354.013.19-.222.187-.46.132.26.377.19.182.387.159.218-.15-.068.268-.137.204.246.168-.055.11.187.222-.1.05.122.055-.109.136.137.132-.05.222.159.091.072.327.314.123.132-.095.218.013.063.141.314.036.268-.177.24.155.4-.168.105.159.136-.028.014.146.109-.01-.027.269.1.118.25-.146.295.282.082-.427.386.245.45-.163-.023-.264.568-.19-.046-.146.118-.113-.131-.182.013-.364.341-.118.3-.39.209.04.127-.027.268-.218.064.06.34-.4.532-.7.141.045-.018-.486.277.295.34-.023.192-.09.118-.264.268.06.168-.074.123-.322-.023-.146.145-.127-.24-.227-.096-.245.082-.927-.118-.218.09-.21-.045-.254-.172-.027-.032-.104-.028-.087.114.01.164-.182.113-.46-.204-.008-.123-.223.123-.164.09.069-.036-.087.26-.345-.074-.273.132-.131.028-.255.072-.086.118.09.278-.09.04-.055-.086-.122.16-.277-.028-.21-.282-.159-.054-.177-.582-.695-.123.014-.036-.137-.036-.081h-.005l.014-.11-.11-.072.037-.34-.159-.169.027-.173-.29.087-.1.131-.241-.022-.146-.227-.081.122-.06-.063.032-.168-.159-.11-.104-.377.263-.204.15-.295-.063-.41.109-.122-.037-.177.155-.11.477-.308.14-.068.005-.327-.327-.314-.086.032.073-.155-.191-.209-.2-.518-.364-.063-.081-.16-.1.037.027-.177-.046-.095-.109-.273-.272.127-.06-.159.1-.109-.086-.05-.604.11-.232-.314-.19.072-.114-.086v-.254l.114.022-.037-.122-.122-.032-.041-.34-.118-.137-.482.172-.31-.045-.104-.086.06-.241v-.223l-.423-.322-.136.009v-.118l-.378-.4.041-.414.25-.072.69-1.09.237.058.291-.036.068-.218.223-.014.009-.132.095-.022.223.195.109-.054.068-.255.036-.204-.095-.155.082-.113-.055-.387.127-.204-.567-.518.24-.05.26-.259.181-.009.05-.227-.123-.1-.022-.355.14-.313.205-.023.027-.1.173-.072.554.04.118-.195.114.082.05-.25-.123-.959-.231-.009-.11-.295-.872-.713-.19-.568.345-.296-.046-.213-.313-.11-.223-.24-.036-.186.272-.46-.054-.085.09-.51.132-.154-.036-.277-.1-.064-.036-.168-.196-.023-.372-.4-.205-.39-.1.218-.35.132-.317.377-.36.059-.304-.268-.136-.359.086-.123-.29-.486.267-.195.096-.364.195-.154-.204-.191-.005-.273-.25-.09-.05-.123.264-.255.004-.458.423-.26.4-.108-.191-.36.109-.09-.077-.11.132-.127-.146-.122-.273.123-.222.031-.105-.25-.113.019-.118-.155-.041-.313-.436-.11-.277-.386-.05-.181.077-.146-.137-.209Zm-5.41 16.42-.223.146.063.554.523.959.35.013.009-.127-.014.073-.046-.073-.245.05-.045-.213-.123-.037.027-.209-.259-.268-.009-.459-.131-.29.122-.119Zm1.003 13.195.123.408.127-.118-.25-.29Z"/><path fill="#0D8D98" d="m39.269 1.506-.463.286v.486l-.196.037-.109.35-.24.004-.046.25-.218.05.072.209-.454.472v.191l-.272.191.127.173-.627-.096-.191.069-.1.172.11.096.135-.046-.063.132.24.268v.373l.437.39.145.523-.045.213.231.318.019.228.413.1-.313.122-.046.264-.332.263-.263-.072-.477.404-.177-.041-.11.164.132.286-.145.132.082.09-.382.287-.186.013-.141-.172h-.268l-.4.109-.29.454-.35.082-.128.336-.327.209-.168.336-.182.037.318.2-.168.036-.013.336-.328.027-.15.31-.059.217.137.2-.078.146.05.181.269.396.436.1.05.313.118.155.109-.01.1.241.227-.022.277-.132.146.123-.141.127.081.113-.109.087.187.359-.4.113-.418.255-.01.459-.254.263.05.123.25.082v.281l.2.182-.186.159-.096.359-.268.2.291.481-.086.123.127.359.314.268.35-.05.327-.382.35-.136.1-.209.195.382.381.4.187.031.045.16.1.063.032.286-.132.146-.095.508.063.087-.281.459.036.186.227.24.318.11.046.218-.346.3.182.559.881.713.11.304h.231l.118.968-.05.24.436-.09.691-.34-.018.14.445.127.246.25.254-.036.772-.45.014-.345.168-.077.436.377.155-.355-.037-.4.428.064.109-.232.227.1.127.046.236-.023.027.16.196-.015.009.173.195-.09.1.05-.013.1.195-.037-.005.095-.095.046.123-.018-.037.127.255.195.095.218h.232l-.096-.073.037-.154.118.023.023.136.181-.182-.068.168.218.032.073.21-.04.026.004.055.109.073-.018-.182.077-.06-.087-.154.046-.268-.154-.131.154-.041.2.195.09.1-.045.086.182.032.045-.254.114.122.123-.136.104.123-.022.222.081.096.173-.1.014.132.286-.214.113.023.178-.232.222.04v-.217l.132-.005.073-.14.036-.028.777.16.264.045.218-.141.536.2.118-.132.186-.014.336.087.146.145.536-.154.468.109-.096-.205.037-.436.195-.295.25-.046.109-.159-.19.046-.414-.205-.395.005-.282-.232-.314.032-.222-.068-.168-.064-.482-.363-.604-.182-.164-.168.014.154-.178.037.055.208-.104.16-.332.363.332-.459-.023-.195-.1.023-.255-.023.11-.16.227.01-.082-.018.036-.182.1-.055-.245-.19-.137-.319.1-.213-.081-.077.213.109-.036-.118-.595-.364-.555-.75-.195-1.076-.25-.364-.073-.268-.054-.327.086-.113.014-.01-.027-.209-.164.114.068-.173.1.023-.132-.073.023-.286-.109.118-.254-.022.254.013.204-.327-.072-.218-.182-.136-.29-.323.1-.173-.16.132-.05-.082-.227.387h-.004l-.741.009.268-.073.44-.023.083-.232.131-.145.246-.023-.255-.254-.295-.69-.091-.178-.236-.363.04-.173-.267-.386.327.431-.373-.69-.122-.023.14-.023.091-.3.141-.063-.177-.34-.073-.323-.245-.282-.191-.482.214-.731-.169-.205-.318-.154.291.068-.163-.086-.182-.614-.055.069-.081-.155.036-.073.086.132.264-.336.04-.386-.158-.146.013-.827-.209-.095.028-.368-.246-.309.05-.15.123-.032-.245-.345.059-.068-.76-.609-.172-.023-.254.241-.137-.204.187-.146-.173-.3-.264.168-.245-.145-.263-.368-.028-.263-.118-.023.014-.168-.682-.618-.29-.44.081-.06-.454-.736Zm2.276 1.985-.668.01.118.109.237-.06.118.228.218.004-.023-.29Zm-4.784 15.262-.136.054v-.004l.136-.05Z"/><path fill="#8CE2D0" d="m50.773 21.288-.105.16-.245.045-.195.295-.037.432.087.209-.468-.11-.536.155-.137-.145-.336-.087-.19.014-.114.132-.541-.2-.218.14-.259-.045-.777-.159-.045.023-.064.136-.132.014-.009.218-.218-.05-.173.24-.122-.022-.277.214-.014-.132-.182.1-.072-.1.013-.218-.095-.123-.132.127-.11-.122-.04.263-.19-.036.05-.082-.096-.1-.196-.195-.15.04.146.132-.037.264.087.159-.087.059.019.173-.1-.064-.014-.055.05-.036-.073-.2-.218-.032.06-.168-.178.182-.027-.136-.11-.023-.035.145.095.082-.24-.009-.087-.218-.255-.186.028-.132-.114.014.09-.037.01-.095-.204.036.022-.1-.109-.05-.195.091v-.172l-.196.009-.031-.155-.232.014-.132-.037-.231-.1-.1.232-.432-.063.036.4-.159.354-.427-.377-.168.072-.014.35-.772.45-.254.027-.246-.24-.445-.137.014-.132-.696.341-.431.091-.114-.082-.118.205-.554-.05-.173.072-.027.1-.205.023-.14.314.022.354.123.1-.05.227-.182.01-.254.258-.245.05.567.518-.127.205.055.386-.082.113.095.155-.036.204-.059.255-.118.054-.223-.195-.095.032-.01.122-.222.014-.068.218-.29.045-.237-.068-.69 1.09-.25.073-.041.414.377.4v.118l.136-.01.422.323v.223l-.059.24.105.087.309.046.481-.173.119.136.04.34.123.033.037.122-.114-.013v.245l.114.086.2-.072.222.313.604-.109.087.05-.1.11.059.158.272-.127.11.273.045.095-.027.177.1-.036.081.159.364.063.2.518.19.21-.072.154.086-.032.327.314-.004.327-.141.068-.477.309-.155.109.037.177-.11.123.064.409-.15.295-.263.204.104.378.16.118-.032.159.059.063.081-.122.146.227.24.023.1-.132.291-.087-.027.173.16.168-.037.341.109.073-.014.109.041.086.036.132.123-.014.582.695.054.177.282.16.027.209.154.072.191-.109.305.327.181-.013.028.118.177.036-.09.077.13.055-.04.345.309.264.218.036-.005.573.15.163.241.014v.159l.482.19-.087.414.696.327-.205.041-.195.364.05.068.181-.096.069.064.027.109.132-.16.045.155.182-.068v.146l.232.032.331-.205.191-.023.132.023.123-.073-.046-.136.168-.109.205.04.086-.122.232.118-.018.26.254.05.054-.073.182.059.127-.21.028.05.086-.136.123.019v.009l.104.095-.068.182.132.086.372.118.114-.109.264.064.036-.118.572-.477-.018-.082-.154.022-.05-.204.222.032-.077-.214.145-.1-.036-.227.173-.113v-.169l.072.023.196-.313.531-.096.01.096.15-.023.177-.168.086-.55.304-.213.16-.291.345.431-.182.16.036.077.4-.018.014-.082.718.172.122-.159-.004-.186.122-.055.028-.304.154-.027.11-.314 1.08.096-.077.436.05.427.604-.004.886-.287-.136-.086.041-.255-.073-.131.786-.223-.036-.236-.132-.027-.086-.191-.663.163.095-.14.227-.06v-.1l.15-.045.2-.268.09.177.673.05.123.005.318-.586-.077-.3.15.013.422.3-.022.146.154-.028.123.282.254-.059.082.123-.3.504.096.005.063.322-.05.405.21.022.072.25.263.041.05.3.178.168.109.036.354-.29-.255-.291.169-.132-.06-.132.191-.059.087-.463.172-.032.069.109.463-.136.073-.073-.191-.264-.486-.527-.087-.09-.109-.019-.063.11-.132-.06-.182-.14-.895-.746-.881-1.185-.873.208-.054.087-.727-.005-.168.137-.191.168-.145.045-.587-.25-.25-.331-.763.318.087.372-.128-.2-.009-.209-.254-.095.29-.014.21-.277.445-.123-.06-.081.45.109.287.272.754-.14h.096l.145.045 1.077-.41.427-.076.377.013.045-.227-.013.386.072.064.096.29 1.104 1.073.568.145.818-.345.454.127.413.26.187.24.009.096.013-.087-.036-.254-.29-.654-2.64-3.703-.341-.91-.241-.753-.018-.786.122-.327.114-.028.164-.309.586-.109.263-.195-.168-.186-1.031-.423-.087-.014-.481-.277-.218-.431.073-.223.168.014-.414-.168-.636-.341.036-.073-.29-.313.104-.223-.213-.09-.1-.596-.155-.132-.304-.777-.255-.281-.295-.132-.105-.268.105-.227-.636-.655-.223-.072-.54-.096-.11-.295-.317-.232-.269.1-.286-.459-.127-.05ZM44.199 40.98l.072.104h-.004l-.068-.105Z"/><path fill="#8CE2D0" d="m55.57 36.24.078.3-.318.587-.123-.005-.672-.05-.09-.177-.2.268-.15.046v.1l-.228.059-.095.131.663-.154.086.19.132.028.037.236-.786.218.072.136-.05.255.146.082-.886.29-.605.005-.05-.427.078-.445-1.082-.087-.109.305-.154.032-.028.304-.122.06.004.185-.122.155v.004l-.718-.172-.014.072-.4.028-.045-.078.19-.159-.345-.431-.159.29-.313.214-.077.55-.178.168-.15.023-.009-.096-.531.096-.196.313-.072-.023v.169l-.173.113.037.227-.146.1.077.214-.222-.032.05.204.154-.022.018.082-.572.477-.036.118-.264-.064-.114.114-.372-.123-.132-.086.068-.182-.104-.095-.123-.028-.086.137-.028-.05-.127.204-.181-.054-.055.072-.254-.054.018-.255-.232-.118-.086.123-.205-.041-.168.109.046.136-.123.073-.132-.023-.19.023-.332.205-.232-.032v-.146l-.182.068-.045-.159-.132.164-.027-.11-.068-.063-.182.1-.05-.072.195-.364.205-.04-.696-.328.087-.413-.482-.191v-.16l-.24-.013-.15-.163.004-.573-.218-.036-.309-.264.04-.345-.13-.055.09-.077-.177-.036-.027-.118-.182.013-.305-.327-.19.11-.155-.073-.159.277.086.122-.04.055-.278.09-.118-.086-.072.082-.028.255-.132.131.073.273-.259.345.037.087-.091-.069-.123.169.123.218.204.009-.113.463-.164.177-.123-.009.037.087.032.104.172.027.046.255-.091.209.118.218-.082.927.096.245.24.227-.154.127.032.146.24-.195.05.195.51.24.281.05.554.582-.05.364.364.527.004.15-.1.072.078.41.095.058-.086.15.059.082.209.218-.05.495-.61.355-.035.509-.237.231-.004.169.24.377-.022.154.204.1.091-.086.132.095.104-.059.31.24.19.137.205-.109.013.087.119-.05.617.154.4.363-.24.255.172.095.032.15-.241.191.027.11-.077-.06-.073.082-.109-.11-.109.114-.154-.086-.3.518.045.136-.145.21.486.14.023.368.19-.064.305.096.06-.06.1.096-.024.11.36.295.1.236-.046.182-.232.113.046.232.113.095-.054.291.327.214.04.195.619.29.408.278.9.523.19.113.642.845.036.064.345.618.3.563-.027.077-.455.118-.4.246-.027.095.555.205-.237.39.096.06.082.318-.16.213-.213.095-.123.196-.168-.05.087.259.145.095.059.268-.254.118-.314.028-.163.359.817 1.117-.236-.009-.472.177.027.11.204.027-.154.431.35.582-.1.39.063.169.4-.118.445.14.2-.081.118-.182.291-.064.182-.309-.209-.086.136-.363.582-.291.35-.028-.155-.154.727.046.155-.178.113.091.11.514.217.336.178-.155.095.046.086-.182.182-.177-.105-.16.228-.05.082-.13-.164-.305-.223-.132-.023-.186-.154-.037.06-.19h.008l.51-.11-.037-.172.172.013.06-.231.154.086.077-.232.177-.09.037.127.113-.06.432-.4.363-.058.291-.523-.177-.65.422-.172.232.086.214.304.245-.063.082-.21-.11-.308.26-.4-.06-.04.532-.096-.013-.255-.168-.027.059-.132-.21-.177.092-.218-.073-.086.545-.123.227-.282-.013-.127.059-.013.463-.341-.095-.06.168-.367.118-.11-.182-.358.041-.268-.586-.305.123-.195-.014-.145-.177-.178.118-.077-.082-.236-.095-.055-.514.15-.19-.204.25-.5-.032-.159-.21-.19.182-.137.219-.014.004-.082.459.087.532-.232.136-.209.445.064.29.29.519-.277.127.25.127-.132.377.132.364-.336.145.082.223-.141.313.145.01.06.508-.064.26-.277-.064-.518.181-.205.246.046.418-.264.363-.018.16.073.803-.627-.268-.173.191-.418-.486-.09-.082.522.06-.687-.4-.726-.25-.128-.255-.109h-.304l-.327-.168-.187.06.041-.119-.15.1.173-.268-.086-.136.145.086.245-.218h-.35l.36-.027.131-.373-.072-.014.645-.885.386-.36.168-.108.704-.668-.109-.014.305-.118-.146-.077.3.072.1-.127.109-1.517-.086-.255-.11-.486-.976-2.095-.15-.522-.305-.177.146-.064-.24-.254.122.023-.155-.11.06-.095-.341-.463.1.036-.041-.09-.16-.183-.022.191-.155-.036.073-.173-.259-.132.087.173-.046.096-.109-.087-.077-.013-.141-.146.082-.182-.082-.036-.014.091-.377-.232.086.191.087-.045-.014.145-.363-.268-.073.073-.463.136-.069-.11-.172.033-.087.463-.19.06.059.131-.168.132.254.29-.354.291-.11-.036-.177-.168-.05-.305-.263-.036-.073-.25-.209-.027.05-.4-.063-.322-.087-.014.291-.495-.082-.128-.254.064-.123-.282-.154.028.022-.146-.422-.304-.15-.01Z"/><path fill="#8CE2D0" d="m65.435 45.904-.11.014-.022.15.159-.109.159.11.35-.037-.536-.127Zm-.11.014-.213.027.2-.004.014-.023Zm2.822-.009-.045.046-.023.113.24-.109-.172-.05Zm.173.05.386.14-.159.06-.032.136-.313-.022.009-.1-.46.1-.158-.1-.014.077-.395.023.273-.06-.119-.1h-.022l.013.01-.077.072-.004-.004.068-.078-.232-.136-.132.341.118-.19.1.035v-.004l.041.018-.04-.014v.11l-.042.086-.19-.037v-.254l-.3-.036.163-.041-.236.036.01.114-.314-.1-.291.014.095.013-.027.105-.25.145v-.182l-.223-.023-.131-.059-.191.119.132.004-.205.018.06-.095-.519.059.06.036-.087.041.01-.077-.264-.036.136.136-.127.036-.046-.122-.132.15-.1-.196-.204.036-.5.532-.363 1.104.027.482-.118.077-.036-.109-.11.104.091.041-.163.037.009.072h-.154l-.187.25.064.114-.077.009-.06.182.078.281-.078-.2-.408-.363-.391.005-.182.086-.19.418.267.182-.804.617-.159-.068v-.004l-.359.018-.413.264-.255-.046-.172.205.054.517-.254.278-.51.063-.013-.059-.304-.145-.232.14-.14-.081-.369.336-.377-.132-.127.132-.127-.25-.518.277-.291-.29-.445-.064-.137.209-.531.232-.46-.087v.082l-.222.014-.181.136.209.19.031.16-.25.5.191.204.514-.15.095.055.082.236-.118.077.177.177.014.146-.123.195.586.305-.04.268.18.359-.117.109-.168.368.095.059-.463.34-.06.023.014.123-.227.277-.545.123.073.086-.091.218.209.177-.06.132.169.027.013.255-.531.095.059.041-.26.4.11.309-.082.209-.245.063-.214-.304-.24-.086-.414.172.177.65-.29.523.245.095.154.109-.023.422-.104.037.068.232.268.063.16.364-.133.3-.245.181-.354.514.254.181.027.219-.1.081.073.123-.177.177.168.436-.073.05-.081.218-.1-.009.022.196-.122.032-.182.522.1.145.19-.027.21.232.313.014.114.154.25.077.463.614-.059.109-.09-.032-.037-.073-.241.395-.504-.204-.146.109-.195-.036-.282-.396.078-.127-.091-.14-.205.013-.277.25.218.377.145-.046.241.323-.045.123.177.377.6.322.254-.072.146.254.09-.068.091.086.037.177-.114.182.186.232-.013.263.218-.031-.005.05.137-.019.059.11-.087.122-.068-.036-.013.15-.137-.036.055.181-.077.182.181.518.218.082v-.491l.423.286.159-.132.363.1.255-.077.1-.045.05-.05.454-.277.11.05.09.022.323-.15.063.041.06-.222.376-.096.082-.145.123.095.086-.072.096-.073.086-.24.445-.033.123-.05.936.155.009.55.372.131-.031.141.195.2.323.164.159-.01.027-.136.359-.132.086-.036.582-.05.036.005.232-.114.29.218.119.145-.096.11.155.027.218.554.222-.032.228.396h-.119l-.558.15-.014.227-.095.004-.05-.172-.037.159-.081-.005.059.182-.155.027.036.11-.163.08-.023.078.713.432.16-.177.245-.028.19.328.182.013.741-.195.095-.577-.05-.055.146-.09.522.008.318-.131-.186-.041-.163-.337-.014-.072-.136-.1.145.086.114.205.118.181.109-.045.136.168.2.023.622-.241-.181.036.122-.086-.327-.059.032-.086-.159-.023-.255-.118.646.082.172-.06.446.082.808.123.196.05.595-.573-.327-.072-.1-.264-.127.1.095-.218-.29.055.413-.241-.137-.177.155.154.45-.023-.014-.259-.818-.109-.209-.19-.254.109-.155-.073-.054-.118.29-.05.15.013.337.287.077-.069.568.11.445-.037.314-.232-.032-.39.132-.364-.123-.3.095-.45-.204-.254-.34.064-.419.468-.327-.073-.254.06.031.158-.286.096-.086.195-.186.059v-.105l.1.037.022-.15.173-.132-.573-.059-.254-.268.186.11.073-.228.218.123.168-.055.037-.054.036-.11.145.055.014-.082.127.118.027-.14.218.095.337-.036-.019-.119.096.055.254-.227-.222-.1h-.182l-.018-.082.154.027-.204-.054.213-.06.028.096.34.027-.181-.195-.096-.204.264.268.022-.123.064-.35.073.073.25-.11-.073-.026.39-.096-.263-.136.2-.01-.118-.172.3.236-.073-.45.15.11-.077.145.122.214.319.163.327-.123-.037-.109.11-.04-.014.086-.11.136-.045.096-.309.013.2.177.023.246-.1-.228.109.273.536-.082.373-.05.995-.713.472-.663.027-.232-.231-.036.013.177-.004-.018h-.014l.005-.005-.005-.009.014.01-.01-.024-.026-.05-.037-.009-.009.01-.023-.014h-.013l-.023-.01-.005.01-.009.013v.005l-.004.018V63.442l.036.01.005.008h.031l.028.028v.022l.022.014-.009.01-.1.004-.022.122-.01-.1-.122.014-.036.11-.06-.278-.15.054.11-.177-.155.16h-.29l.304-.123-.114-.096.132-.09.15-.01-.16-.086.133-.123.05.028v-.01l.009.019.15.072.05-.345.263-.282.145-.022-.063-.218-.118.168-.314-.132-.186.154h-.095l.013-.086-.3.086-.072-.013-.11-.096-.49.146-.568-.069-.145-.209.159.169.209-.178.436.069.313-.287.25.227.223-.013.095.04.218-.145.318.073-.09-.5-.555-.118-.4-.259-.195-.304.254.186.368.218.419.141.004-.104.227.154.037.377.377.277.009.291.231-.4.414-.363.023-.177-.305-.255.268.096.073.19.34-.3.278-.645-.11.014.473-.445.064.009.086-.096.314-.1-.586.377-.237.314.237-.277.908-.559.305-1.572.023-1.359.308-.64.082-.036.46-1.404v-.71l.204-.444.05-.146-.264-.8-.109-.517.059-.114-.045-.086.059.063-.087-1.177-.386-1.076-.29-.41-.95-.899-1.536-1.222-.845-.536-.727-.268-1.327-.128-1.317-.363Zm3.026 16.993-.01-.01.014.228.146-.069-.15-.15Zm.318.231.082.137.063-.041-.145-.096Zm-.023.064-.29.014-.042.104.187.095.145-.213Zm.014.014-.005.018-.014.027.005.023-.005.022-.022.005-.023-.014v.014h.01l-.01.009.073.014.013.009v-.073l-.004-.032-.018-.023Zm.072.25v.022h-.036l.032-.018.004-.005Zm-2.921 1.022-.245.109.004-.073-.418.454.055.087.459-.06.377-.19.154-.195-.386-.132Zm-2.376 1.33-.123.183.209-.005-.086-.177Zm.336.083.173.095.154-.068-.327-.027Zm2.072 1.576-.818.132-.073.314-.272.027.086.195-.14.096-.055.181.145.05-.036-.086.236.145.64-.568.287-.486Zm-1.272.445-.182.16.127.327.154-.323-.013-.15-.086-.013Z"/></svg>
