<svg xmlns="http://www.w3.org/2000/svg" width="77" height="95" fill="none"><path fill="#0D8D98" d="m58.288 66.721-.123.05-.445.032.145.095v.005l-.145-.1-.087.24-.095.073-.086.073-.123-.095-.082.145-.377.095-.059.223-.063-.04-.323.149-.09-.023-.11-.05-.454.278-.05.05-.1.045-.255.077-.363-.1-.16.132-.422-.286v.49l.114.346.132.313-.182.314.045.34.096.16-.068.2-.132.218-.055.186.51.195.026.286.1-.031.069.145.204-.027.268.136.06.055-.033.163.305-.04.322.313.1-.037.11.237-.219.49.01.327.063.014.177-.14.164-.437.263-.282.16-.009v.205l.226.154.064.218-.123.11.096.108.222-.227.096.037.322.304.019.322h.181l.132.219.327-.241.118-.291.268-.05.01-.159.122-.105.15.01.082.122.036-.059.132.068.145.587.169-.255.1.232.436-.014-.023-.363.327-.223-.005-.236.187-.005.14-.409-.058-.354.145-.01-.14-.258.058-.35.087.036.072-.24.3-.182.132-.423-.073-.145.023-.086.163-.073-.036-.11.154-.026-.059-.182.082.004.037-.159.05.173.1-.005.009-.227.558-.15h.119l-.228-.395-.218.032-.222-.554-.155-.028.1-.109-.122-.145-.291-.218-.232.113-.036-.004-.573.05-.095.036-.36.132-.026.136-.16.01-.322-.169-.195-.195.031-.141-.372-.132-.01-.55-.935-.154Z"/><path fill="#8CE2D0" d="m52.59 58.856-.363.06-.432.4-.113.058-.037-.127-.177.09-.077.233-.155-.087-.059.232-.172-.014.036.173-.509.11-.068.19.163.036.014.187.223.131.163.305-.081.132-.228.05.105.158-.182.178-.086.181-.096-.045-.177.154-.218-.336-.109-.513-.113-.091-.155.168-.727-.036.155.154-.35.027-.582.287-.136.368.209.086-.182.309-.29.064-.119.181-.2.082-.445-.14-.4.117-.063-.168.1-.39-.341-.591.145-.423-.204-.027-.027-.109.472-.182.236.014-.818-1.127-.168.532-.177-.014-.259.273.218.023.132.254-.273.118-.39-.377-.278.077.069.25-.3-.059-.232.472.041.205-.236.986-.055.082-.136-.073-.155.077.082.168-.304.132-.196-.063.087.1-.205.24-.531-.509.036.377.073.1.227.032.173.282-.296.25.123.363-.255.041-.081.314-.196.181.11.246-.1.25.09.277-.04.209-.373.327.19.204.132.486-.09.264.104.21.282.217.095.196-.136.059-.241-.137-.14.268.072.296.327.29-.127.2.063.1-.231.173v.336l-.01.014.146.218.214-.11.077.073.445.85.182-.109.013.468.246.427.35.336-.023.368-.382.037-.059.109.087.109.095-.027-.032.231.423.373.181.036-.05.21.155.14-.127.29-.291-.144-.055.354.137.318-.028.145-.2.091.023.327.105.005-.06.19-.086.05-.327-.158-.3.04-.254.564-.568.05-.036.172.25.205-.032.195.154.305.027.054-.086.455.373.154-.11.4.091.227-.063.582.023.136.331.145-.054.1.077.146-.114-.028-.059.05.087.073-.232.05.095.255.164.072-.164.314h.005l-.036.068-.123-.073-.264.223-.15-.073-.131-.077-.305-.35-.34-.014-.468-.218-.15.087-.205-.373-.177.082-.21.318v-.35l-.122.11-.413.03-.218.246-.073-.122.014.19.35.26.472.704.318-.232.314.073-.06.372-.081.132-.173-.023-.063.11.04.05-.095.326.032.123.209.05.218-.145.059.345.118.1-.132.1.005.263-.087.082.096.186-.027.069.181.218.019.222.372-.231.096.245-.05.254.631-.063-.109.231.509.082.75.318-.118-.1.24-.072.246-.232-.11-.046.16-.081-.091-.305.159.155h.181l1.023-.337.068-.04-.082-.082.486-.027.396-.505-.032-.086.018.086-.118-.013-.014-.118.077-.014-.2-.027.041-.178-.072-.109-.187.032.078-.086-.241-.091-.454-.654-.605-.237.077-.068-.036-.218.105.268.159.118.118-.063-.046-.068.01.004.036.064.39.281.014-.072.045.182.064-.378.168-.086-.132.127.014.237.182.145.527.49-.036-.426.163-.06-.054.618.622.364.304.118.273.327.477.241.29-.255-.29.078.24-.186-.072-.128-.132.037.132-.073-.227-.305-.114.037.041-.196-.231-.05.218-.095.268.123.145.013-.05-.127.146-.036-.028.136.173.145.05.06-.159-.032.082.177.027.095-.218.05.023.241.209.218.59-.163-.009-.146-.127.096-.01-.305v-.354l.074-.055.122.146.01-.418.036.15.186-.014.2.136.073-.113.418-.023-.019.205.146-.05.077.086-.014-.195.191.018.027.322.16.11.109-.25-.06-.21.119.01-.014.186h.1l-.173.227.26.136.236-.204.05-.26.063.05-.172.414-.191.087-.341-.123-.264.409-.109.027.032-.136-.045.136.758.414.582.481.309-.554-.077.104-.11-.168-.145.028.05-.137.21-.023.09.182.509-.318 1.6-.386.195-.036.872-.037.754-.145.823-.264.304.023.323-.05.586.073.213.045.31.164.14-.064.545.182.695.245.291.105-.004-.105.654.364.268-.018.681.29.455.005.763-.986.377-.35 1.25-.409 1.054-.295.372-.2.2-.018.614-.677.44-.25-.027-.055.836.091 1.2.146.072-.11-.204-.78.268-.882.781-.682 1.19-.25-.095-.059.337-.327.472-.054.327-.2.26.018-.124-.164.627-.345.196-.382-.023-1.104-.023-.063-.368-1.14-.204.172-.037-.014-.008-.095.177-.096.013-.181.118-.077.364.072.086-.127.023.09.159-.517.05-.304-.086-.16-.073-.031-.105-.064-1.08.26-.9.058-1.404.24-.487.06-.204.232-.604.118-.46.064-.076.095.013-.118-.327-.168-.509-.019-.481-.054-.1.145.059-.463-.386-.254-.105-.21.145-.095-.163-.009.127-.064-.309.073.1.173-.095.022.068.182.163.096-.04.086-.182.073.072-.205-.159.014-.163.309-.114-.291-.195-.046-.055.096-.15.014-.068.154-.172-.109-.341-.127-.25-.237-.005.01-.154.2.14-.255.746-.095.145-.1-.072-.082.163-.282.21-.059.1.087.03-.078.087.237.35-.05.096-.123-.037-.264-.213-.195-.282.014-.118-.078-.44.06-.3-.141-.028.081-.082-.072-.204.05-.073-.087-.777.1-.095.25.095.041-.132.014.05.132-.754.213-.568-.095-.1-.228-.409.191-.572-.409-.132.423-.3.182-.072.24-.087-.036-.059.35.14.259-.145.009.06.354-.141.41-.186.004.004.236-.327.223.023.363-.437.014-.095-.232-.173.255-.145-.587-.132-.068-.027.06-.09-.123-.15-.01-.123.105-.01.16-.268.05-.118.29-.327.24-.132-.217h-.181l-.019-.323-.322-.304-.096-.037-.222.227-.096-.109.123-.109-.059-.218-.232-.154v-.205l-.159.01-.263.281-.164.436-.177.141-.064-.013-.009-.328.218-.49-.109-.237-.1.037-.322-.314-.305.041.032-.163-.059-.055-.268-.136-.204.027-.069-.145-.1.031-.027-.286-.509-.195.055-.186.132-.219.068-.2-.096-.159-.045-.34.182-.314-.132-.313-.114-.346-.218-.081-.204.209.195-.21-.172-.517.077-.182-.064-.182.146.037.013-.15.06.036.095-.123-.06-.109-.136.018.005-.05-.218.032.013-.263-.195-.232.123-.182-.037-.177-.09-.086-.091.068-.146-.255-.254.078-.6-.327-.177-.377.045-.123-.24-.323-.146.046-.218-.377.277-.25.205-.014.09.14-.077.128.282.395.195.037.141-.105.509.2.24-.395.037.073.091.031.06-.109-.464-.613-.25-.077-.114-.155-.313-.013-.21-.232-.19.027-.1-.145.182-.523.122-.032-.022-.195.1.01.081-.219.073-.05-.168-.436.177-.182-.073-.118.1-.082-.027-.218-.254-.181.354-.514.245-.182.132-.3-.159-.363-.268-.064-.068-.231.104-.037.023-.422-.154-.11-.246-.095ZM46.497 80.86l.014.032.027-.023.01-.022.009-.06-.032.087-.027-.014Zm-2.557 1.672.15.068-.064-.045-.086-.023Zm22.88-12.18.055.158-.127.218.127.123-.145.1-.11-.077.1.204.341.196.032.295.368-.027h.01l.353.095.182-.023.395.146.523-.327-.518-.664-.768-.113-.345-.205-.473-.1Zm-.767.4-.05.076.29.046-.054-.123h-.186Zm.258.172-.245.081.073.146h.232l-.06-.227Zm-1.254.109-.031.082.218-.019-.186-.063Zm-15.106 9.486-.178.123-.072.46-.305.035.037.155.85.127v-.15l-.219.096.073-.096-.15-.009.136-.209-.168-.032-.04-.09.1-.01.067.028.055-.26-.186-.168Zm.295.064-.018.236.309.187.036-.218-.04-.168-.287-.037Zm-1.577.168-.04.118.072-.022-.032-.096Zm-2.04.882-.204.036-.327.413-.568.219.24.045-.177.027-.109.173.023-.173-.086-.059.05-.004-.1-.032-.446.277-.313.059-.036.04.009-.054h-.182l-.264.455-.381.25 1.022-.069.377.364.6.264.959.822 1.104-.373.254-.84.255-.191.363-.06.277-.294-.123-.169-.263.014.05-.095.045.022-.118-.372-.509-.182-.513-.018-.09.064.058-.11-.254-.086-.087-.132-.29-.227-.16.032.096.55-.182-.586Zm-2.544.877.018.095.023.009-.041-.105Z"/><path fill="#8CE2D0" d="m41.85 60.283-.21.1-.227.436-.063-.109-.123.204-.145-.104-.068.109-.2.036.109.11v.154l.282.159.086.204-.132.377-.223-.086-.508-.509-.178.232-.195-.123-.318.028-.532.495-.109.014-.109-.173-.24.063-.26-.072-.3.25-.086-.11.11-.34.231-.164-.173-.127-.272-.068-.091.045-.096.087.037.313-.105.05.227.364-.159-.05-.045.145-.35-.082-.304.46-.186-.037-.291.027-.118-.15-.137.005.005-.473-.26-.123.014-.122-.422.145-.05.245-.14.037-.233-.05.023-.255-.277-.022-.023-.146-.127.018-.127.187.2.254-.237.214.023.272-.086.055.35.145-.01.377.178.146.073.35-.255.063-.213.196-.205-.078-.232.382-.477-.014-.022.191-.182-.109-.24.277-.11-.068-.136.268-.11.055.014.186-.181.118.077.146-.11.4.178.24-.105.273-.15.082.187.408-.15.073.136.1-.023.218.155.118-.264.078-.027.095.196-.027-.137.281.1.028.023.236.082.127-.091.182.386.09-.354.5-.11.464-.445.568.191.263-.3-.177-.036.168-.404-.04-.264.15-.8.835-.072.305-.314.263-.218.073.023-.109-.436.145.172.087.01.132-.05.172-.278.118.118.11-.036.59-.082-.14-.409-.133.241.141-.113.863.186.337.036.313-.172.26-.123.254-.24.086.217-.173.11-.318-.096-.009-.232.24-.24.028-.56-.159-.486.168-.218-.032-.75.337-1.272-.064-.395-.409-.259-.014-.254-.254-.468-.145-.355-.01-.427.241-.104-.118-.895-.172-.477-.082-.168-.136-.269.231-.358-.072-.428.168-.336-.137-.327.196-.704.027-.1.145-.486-.181-.096.104-.25-.036-.563.222-.236-.059-.11.169-.185.031.186.16-.064.422-.064.109-.395.013.227.16-.022.204.172.05.06.668.24.177.096-.023.004.282-.186.236.077-.331-.195.036.023-.15-.096-.059-.209.373-.204.05-.446.604-.39.136-.355-.023-.495-.39-.45-.141-.554-.028-.1.21v.69l-.2.409.046.173-.087.036-.159.35.091 1.063.095.114-.122.018-.06.745-.73.481-.024.137-.19.018-.023.368-.273.182v.132l-.468.172-.095.2-.073-.09-.222.104-.037.24.077.028-.136.481-.268.377-.373.078-.168-.11-.209.046.023.1-.19.105-.232-.046-.096-.168-.172.118.195.182-.168.173.036.313-.086-.073-.146-.113.014-.205-.363.414-.532-.136-.036.063.154.11-.073.376.087.096-.114-.01-.154.178.118.063-.023.227-.082.55-.145.264-.11.009.119.036-.304.15-.155-.182-.027.196-.25.018.168.054-.173.073-.09-.077-.014.114-.114-.064.028.264-.137-.019.1.227-.095.464-.282.073-.213.313-.355.014-.009.29-.182.287h-.04l-.232.113-.127.2-.137-.022-.35.34-.377.014-.063-.1-.168.05-.023.29-.409.45-.018-.022-.327-.11-.055-.308-.1.063-.132-.086-.413.036-.554.414-.091-.082-.314.395h-.445l-.413.605.195.595-.304.318.05.182.181.072.068.264.123.059.26-.14.108.067.191-.168.427.014.155-.168.086.05.24-.45-.154-.291.191-.109.086-.186.618.072.336.305-.009.132.146-.046-.028-.059.35.05.2.205.25-.037.173.168.05-.045.359.468-.032.209.204.168-.059.063.105.128-.123.331.123.069.072.34.269.078.027.181.313-.04v-.255l.264-.413.413-.037.21.091.108-.182-.04-.172.281-.123.132-.277-.096-.241-.113-.023.04-.268-.376-.063-.073-.123-.155.077-.05-.086-.109.027.032.145-.068-.127-.254.1-.277-.072.49-.037-.104-.1.068-.204v.254l.195-.032.073-.195.073.023-.11.159.296-.05.118.073.19-.146-.14-.313.3-.232.145-.064.123.073.19-.327.055.268.082.15.29-.186.11-.532.173-.263.25-.064.145.172.595-.6.473.1.109.196.063-.182.182-.109-.04-.131.185-.123-.181-.136v-.132l.095-.137-.027-.177.182-.159.113.028-.127-.346.109-.163.309-.091.004-.01.2-.026.014-.132.104.013.132.16-.045.286.122.1.06-.146h.145l.227-.231.014.063.077.01-.164.063.05.086.268-.054.082.077.21-.132.399.154.377-.095.046-.109.24.082.246-.227-.132-.168.05-.114.082.232.145-.155.509-.054 1.054.163.568.432.005.313.145-.104.227.014-.123-.246.319-.145-.005-.255-.386.173.122-.195-.086-.078.114-.127-.028-.163-.109-.046.073-.045-.318-.064.073-.023.218-.222-.096-.118.06-.168h-.128l.241-.15.01-.164.135.19.155.183.059-.073.086-.136-.082.136-.063.086.036.037-.277-.073-.136.386.109.118.122.246-.031.081-.014.073.177.055.005.068.145-.096.196.05.022-.113.16.136.167-.336.169-.05-.264.322-.036.137.109.05-.341-.087.082.241.063.4.868.123-.418.086.236.213h.305l.073-.127.222-.072.323.059.145-.123-.023.123.046.14.209-.009.282.246.145.009-.018.123.236.213-.018.29-.127.005.49.41.327.113.1-.086-.009-.218.214-.1-.087.231.319.118.159.2.422-.309.245.078.169-.064-.187-.232.21-.881.3-.414.34-.109.159-.154-.086-.21.281.219.268-.177-.027-.187.146-.327.118-.031-.073-.123.218-.173-.314-.095.078.095-.064.064-.082-.114-.354-.068-.01-.568.228-.318.195.146.36-.146-.346-.3.073-.55.14-.336-.14-.077.14.018.282-.332.05-.286.418-.472-.2.145-.063-.727-.168-.268v-.282h.009l.113.114.069-.15.013.086-.009.096.327.695-.113.182.654.2.132-.218.49-.178.255-.477.213-.181.732-.169.881.005.168-.259.64.06.637-.237.059-.064.377-.24 1.5.377 1.344.831 1.245 1.009-1.086-.914.518.237.023.131h.127l-.036.096.313.118.3.418v.009l.16.118.217-.277.182.077-.19-.122.104-.096-.118-.05.104-.195.164-.155.163.032.727.023.146.109.886.15.386-.11.109.133.295-.014.118.114.114-.064.204.209.518.095.087.268.29-.2.755-.081.072-.21-.122-.031v-.136l.327-.387-.255-.059.073-.45-.077-.095-.25.24-.11-.072.074-.118-.173.164-.032-.155-.054-.022-.073-.078-.11.014-.045.064.014-.11-.223.168-.054-.058.286-.15-.086-.237.15.01-.087-.096-.281.123-.118.213-.16-.009.096-.282.15-.013-.145-.037.086-.131.218.036-.005-.195-.059.054-.05-.09.282-.01-.145.168.531.168-.245-.29.004-.11.146-.068.123.287-.078.109.332-.046.109.1-.04.073.185.095-.136.255.464-.427.576-.16.132-.022.827.15.082-.164.014-.054.295-.187.177-.009.11-.231-.632.063.05-.254-.096-.245-.372.231-.019-.222-.181-.219.027-.068-.096-.186.087-.082-.005-.263.132-.1-.118-.1-.06-.345-.217.145-.21-.05-.031-.123.095-.327-.04-.045v-.005l.063-.109.173.023.082-.132.059-.372-.314-.073-.318.232-.472-.705-.35-.268-.014-.181.073.122.218-.245.413-.032.123-.109v.35l.209-.318.177-.082.205.377.15-.086.468.213.345.014.3.35.132.077.15.073.272-.223.114.073.036-.068.159-.314-.164-.073-.095-.254.232-.05-.087-.073.06-.05.113.028-.077-.146.054-.1-.331-.145-.023-.136.064-.582-.091-.227.109-.4-.373-.154.087-.455-.028-.054-.154-.305.036-.195-.254-.204.045-.173.559-.05.254-.564.3-.04.318.168.096-.06.059-.19-.105-.005-.022-.322.2-.096.027-.145-.146-.318.06-.355.295.146.118-.29-.146-.142.05-.209-.181-.036-.423-.373.032-.231-.095.027-.087-.11.06-.108.376-.037.028-.368-.35-.336-.245-.427-.014-.468-.182.11-.445-.85-.077-.073-.214.109-.145-.218.009-.014v-.336l.231-.173-.063-.1.127-.2-.327-.29-.073-.296.141-.263.24.132.128-.06-.086-.195-.282-.218-.104-.209.09-.264-.14-.486-.182-.195.363-.336.05-.21-.09-.276.1-.25-.11-.236.196-.191.081-.314.255-.04-.123-.364.291-.25-.168-.282-.227-.032-.073-.1-.036-.377-.037-.081.505-.582-.06-.15-.386.123-.3-.132.055-.195-.163-.123.031-.214-.109.105-.177-.11.023-.422-.096.137-.113-.06-.177-.272ZM39.469 83H39.487l-.005-.009-.009-.009-.013.01.009.008Zm2.435-.758.055.108.072-.108.146.108v.032l-.037.091-.172-.04-.064-.192Zm-2.067.531-.136.073.209.1.118-.073-.191-.1Zm-.477.05.036.145.064-.05-.1-.095Zm-.69.082-.083.136-.004-.004.086-.132Zm-4.163 1.44.532.595-.095.74.286-.354.145-.213-.132-.277.064-.041-.382-.037-.418-.413Z"/><path fill="#8CE2D0" d="m39.941 42.582-.24.2-.123.322-.168.073-.268-.06-.118.264-.191.091-.34.023-.278-.295.018.49-.14-.05-.532.7-.341.4-.064-.06-.268.219-.127.027-.209-.04-.3.39-.34.118-.014.364.131.181-.118.114.046.145-.568.182.023.273-.45.163-.386-.245-.082.427-.295-.282-.25.146-.1-.119.027-.268-.11.01-.013-.146-.136.027-.104-.159-.405.168-.236-.154-.268.177-.078.223.11.213-.055.5-.254.01-.441.453-.377-.754-.41-.063-.035-.096-.4.21-.3-.205-.137-.282-.072.155-.268.077-.264.4-.377.045-.19-.082-.137.191-.045.386-.296.014.087.132-.168.09.24.191-.35.305.119.082-.169.368-.009.19h.019l.127.014-.078.168.405.205.309-.191-.023.29.136.123.06-.072.05.081.059-.072.1.109.072-.05.037.1.177-.06.059.155-.11.1.282.132-.045.123.105.045.122-.036.082.059.036.254-.168.014.005-.182-.223.1-.195-.073-.018.286-.237.241.005.255h.073l-.064.15-.068.29-.31.096.223.168-.131.027-.2.305.04.163-.276.21h-.218l.263.704-.245.118.05.109.45-.11.045-.072-.127-.096.068-.1.259-.068.236-.245.209-.059.195.354-.077.491-.3-.023.027.355-.8.022-.672.391-.168-.036-.34.359-.037.168.146.34.39.187.232.35.432.177.477.473.19.063.646-.159.195.086v.01l-.122.304-.332.123-.127.667.613.169-.268.154-.277-.082-.3.118-.123.1.037.196-.278.032v.363l-.29.159.068.304-.277.314.222.145.146-.132.118.119-.21.181-.417.091-.064.164.364.182-.01.181-.172.028-.036.39.34.455.046.163-.132.277.3.632.4.418.163.477h.314l.045.359.186-.018.746-.427.318.19-.173.123.2-.05.054.182.15.014.191.24.318.16-.1.231.386.463.187-.186.059.146.168-.082.036.177.268-.032.155.155.136-.268.11.072.24-.277.182.11.022-.196.477.018.232-.382.205.073.213-.19.26-.064-.078-.35-.177-.146.009-.377-.35-.145.086-.06-.022-.267.236-.214-.2-.254.127-.187.127-.018.023.146.277.022-.023.255.232.05.141-.037.05-.245.423-.145-.014.122.259.123-.005.473.137-.005.118.15.29-.027.187.036.304-.459.35.082.046-.145.159.05-.232-.364.109-.05-.036-.313.095-.087.09-.045.273.068.173.127-.232.168-.109.337.087.109.3-.25.258.072.241-.063.11.172.108-.013.532-.495.318-.028.195.123.178-.232.509.51.222.085.14-.386-.094-.2-.282-.154v-.16l-.11-.104.2-.036.069-.113.145.108.123-.204.063.11.228-.437.209-.1.177.273.114.059.095-.137-.023.423.177.109.11-.105-.032.214.163.123-.054.195.3.132.386-.123.059.15-.505.577.037.086.531.51.205-.242-.087-.1.196.064.295-.132-.072-.168.154-.077.136.073.046-.082.245-.986-.04-.205.23-.472.3.059-.067-.24.277-.087.39.377.273-.118-.132-.255-.218-.022.26-.273.176.014.169-.532.163-.35.314-.027.263-.118-.068-.268-.136-.095-.096-.26.177.05.114-.195.214-.095.159-.214-.073-.318-.105-.059.237-.39-.546-.205.028-.096.39-.254.455-.109.027-.077-.3-.564-.345-.618-.037-.063-.64-.845-.19-.114-.9-.522-.41-.277-.617-.291-.041-.196-.327-.213.054-.291-.113-.095-.046-.232.232-.11.045-.18-.1-.242-.359-.295.023-.11-.1-.095-.059.06-.304-.096-.191.064-.023-.368-.486-.141.145-.21-.045-.135.3-.518.154.086.11-.114.108.11.073-.082.077.059-.027-.11.24-.19-.03-.15-.174-.096.232-.254-.39-.363-.618-.155-.119.05-.013-.086-.205.109-.19-.136-.31-.241-.104.059-.132-.096-.09.087-.205-.1.023-.155-.241-.377.004-.168.237-.232.036-.508.609-.355.05-.495-.21-.218-.058-.082.086-.15-.095-.059-.078-.409.1-.073-.004-.15-.364-.527.05-.363-.554-.582-.282-.05-.509-.24-.05-.2Z"/><path fill="#8CE2D0" d="m33.303 11.35-.122.245-.273.096-.477.4-.372.05-.014.2-.132.054-.1.218-.313.218-.096.255-.168-.005-.232.145.032.16-.204.159-.845-.073-.023.086.25.182-.227.422.05.178-.123.109v.136l-.195.195-.246-.013.091.081-.195.087.118.095-.095.018.045.069-.214.027.032.145.114.01-.132.05.518-.046-.413.154-.337-.082-.277-.29-.418-.055-.145.136-.35.046-.264.354.037.11.313.145.191-.123.041.145-.132.169-.222-.023.05.277-.523-.345v-.005l.005-.059-.26.132-.29.354-.386 1.063-.023.714-.64.608h-.028l-.095.391-.496.654-.077-.018.114.636-.073.191-.4 1.186-.232.11.023.167.137.255.25.15.75 1.076.667 1.164.114.059-.005.877.931 1.535.173.014.118-.132.31.09.14-.176-.109-.21.173-.195-.05-.072.136-.227-.064-.046.082-.018-.059-.132.136.05.146.445.086-.081-.159.263-.095.5-.078-.037.05.169-.372.15.068.204h.114l-.055.727.195.314.246-.228.19.336-.045.132.06-.072.195.24-.205-.277.286-.24.364-.355.254-.54.16-.123v-.291l.045-.245.231-.241-.059.222.264.323.04-.05-.013.127.132-.013-.086.104.05.236-.037-.013v.204l-.086-.013-.118.209.204-.023.291-.268.223-.241.118.163-.023-.254.277-.431.595-.169-.209.214.064.204-.114.037.055.34.25.078.136.436.16.009v-.136l.117.027-.159.34-.177.132-.018.16.086.013-.263.182-.291.045-.268.555-.168.127.19.168.05.472.132-.059.028.082.05-.277.14.05.073-.018.223.145-.255-.054-.218.322.068.146.241.072-.109.078-.036-.064-.096.132-.145-.032.15.109-.114.068.064.1-.086.068.027-.145-.114-.01.073.073-.177.05-.15-.122.064-.087-.768.314-.01.354.06-.045.05.118-.1-.023.018.123.15.273-.277-.328.013-.422-.409.109-.095 1.613-.014.677.073.304.313.305.387.081.331-.081-.113.095.477.01.395-.073.609-.219-.659.282-.482.118-.131.014.036.077-.123-.077-.095.209.123.118-.187-.014.073.1-.086.023-.146.077.018-.09-.704.972-.422.772-.114.2-.073.436.26.382.127-.01.05-.108-.073.413.259.69.263.373.21.827.504.41.5.435.4.123.095-.073-.06-.095.45.227.073-.109-.004-.036.181-.268-.045-.091.286.127.055-.11.336-.108.173.077.109-.168-.11.218-.231-.05-.186.182-.032.009-.296.014-.095.195.095.263-.358.278-.387-.182-.163.027.077.123-.15.072.091.046-.29.004-.491-.29-.627-.95-.16-.545-.25-.654-1.03.513-.5.35.122.359.45.5.05-.037.35.495-.087.269.1.059.069-.069.022.146.15.068-.223-.045.087.109-.082.109-.086-.096.063.164.636.195.727.604.246.355.013.19-.222.187-.46.132.26.377.19.181.387.16.218-.15-.068.268-.137.204.246.168-.055.11.187.222-.1.05.122.054-.109.137.137.131-.05.223.159.091.072.327.314.123.132-.096.218.014.063.14.314.037.268-.177.24.154.4-.168.105.16.136-.028.014.145.109-.009-.027.268.1.119.25-.146.295.282.082-.427.386.245.45-.163-.023-.264.568-.19-.046-.146.118-.114-.131-.181.013-.364.341-.118.3-.39.209.04.127-.027.268-.218.064.059.34-.4.532-.7.141.046-.018-.486.277.295.34-.023.192-.09.118-.264.268.059.168-.073.123-.322-.023-.146.145-.127-.24-.227-.096-.245.082-.927-.118-.218.09-.21-.045-.254-.172-.027-.032-.105-.028-.086.114.01.164-.183.113-.459-.204-.009-.123-.222.123-.164.09.068-.036-.086.26-.345-.074-.273.132-.132.028-.254.072-.086.118.09.278-.09.04-.055-.086-.123.16-.277-.028-.209-.282-.159-.054-.177-.582-.695-.123.014-.036-.137-.036-.082h-.005l.014-.109-.11-.072.037-.341-.159-.168.027-.173-.29.087-.1.131-.241-.023-.146-.227-.081.123-.06-.064.032-.168-.159-.109-.104-.377.263-.204.15-.296-.063-.409.109-.122-.037-.177.155-.11.477-.308.14-.069.005-.327-.327-.313-.086.032.073-.155-.191-.209-.2-.518-.364-.063-.081-.16-.1.037.027-.177-.046-.096-.109-.272-.272.127-.06-.16.1-.108-.086-.05-.604.109-.232-.314-.19.073-.114-.086v-.255l.114.023-.037-.123-.122-.031-.041-.341-.118-.136-.482.172-.31-.045-.104-.087.06-.24v-.223l-.423-.323-.136.01v-.119l-.378-.4.041-.413.25-.073.69-1.09.237.059.291-.036.068-.218.223-.014.009-.132.095-.023.223.196.109-.055.068-.254.036-.205-.095-.154.082-.114-.055-.386.127-.204-.567-.518.24-.05.26-.26.181-.008.05-.227-.123-.1-.022-.355.14-.313.205-.023.027-.1.173-.073.554.041.118-.195.114.082.05-.25-.123-.959-.231-.009-.11-.295-.872-.714-.19-.568.345-.295-.046-.213-.313-.11-.223-.24-.036-.187.272-.459-.054-.086.09-.509.132-.154-.036-.277-.1-.064-.036-.168-.196-.023-.372-.4-.205-.39-.1.218-.35.132-.317.377-.36.059-.304-.268-.136-.36.086-.122-.29-.486.267-.195.096-.364.195-.154-.204-.191-.005-.273-.25-.09-.05-.123.264-.255.004-.459.423-.259.4-.109-.191-.359.109-.09-.077-.11.132-.127-.146-.122-.273.122-.222.032-.105-.25-.113.018-.118-.154-.041-.314-.436-.109-.277-.386-.05-.182.077-.145-.137-.209Zm-5.41 16.42-.223.145.063.555.523.958.35.014.009-.127-.014.072-.046-.072-.245.05-.045-.214-.123-.036.027-.21-.259-.267-.009-.46-.131-.29.122-.118Zm1.003 13.194.123.41.127-.119-.25-.29Z"/><path fill="#8CE2D0" d="m39.269 1.49-.463.287v.486l-.196.036-.109.35-.24.005-.046.25-.218.05.072.209-.454.472v.191l-.272.19.127.173-.627-.095-.191.068-.1.173.11.095.135-.045-.063.132.24.268v.372l.437.391.145.522-.045.214.231.318.019.227.413.1-.313.123-.046.263-.332.264-.263-.073-.477.405-.177-.041-.11.163.132.286-.145.132.082.091-.382.286-.186.014-.141-.173h-.268l-.4.11-.29.454-.35.081-.128.337-.327.209-.168.336-.182.036.318.2-.168.037-.013.336-.328.027-.15.309-.059.218.137.2-.078.145.05.182.269.395.436.1.05.314.118.154.109-.009.1.241.227-.023.277-.131.146.122-.141.127.081.114-.109.086.187.36-.4.113-.418.254-.01.46-.254.263.05.122.25.082v.282l.2.182-.186.159-.096.359-.268.2.291.481-.086.123.127.359.314.268.35-.05.327-.382.35-.136.1-.21.195.382.381.4.187.032.045.16.1.063.032.286-.132.145-.095.51.063.085-.281.46.036.186.227.24.318.11.046.218-.346.3.182.558.881.714.11.304h.231l.118.968-.05.24.436-.09.691-.341-.018.14.445.128.246.25.254-.036.772-.45.014-.345.168-.078.436.377.155-.354-.037-.4.428.064.109-.232.227.1.127.045.236-.022.027.159.196-.014.009.173.195-.091.1.05-.013.1.195-.037-.005.096-.095.045.123-.018-.037.127.255.196.095.218h.232l-.096-.073.037-.154.118.022.023.137.181-.182-.068.168.218.032.073.209-.04.027.004.055.109.072-.018-.181.077-.06-.087-.154.046-.268-.154-.132.154-.04.2.195.09.1-.045.086.182.032.045-.255.114.123.123-.136.104.122-.022.223.081.095.173-.1.014.132.286-.213.113.022.178-.231.222.04v-.217l.132-.005.073-.14.036-.028.777.159.264.045.218-.14.536.2.118-.132.186-.014.336.086.146.146.536-.155.468.11-.096-.205.037-.436.195-.296.25-.045.109-.16-.19.046-.414-.204-.395.004-.282-.231-.314.032-.222-.069-.168-.063-.482-.364-.604-.181-.164-.169.014.155-.178.036.055.21-.104.158-.332.364.332-.46-.023-.195-.1.023-.255-.023.11-.159.227.01-.082-.019.036-.181.1-.055-.245-.19-.137-.319.1-.213-.081-.078.213.11-.036-.119-.595-.363-.555-.75-.195-1.077-.25-.363-.073-.268-.054-.327.086-.114.014-.009-.027-.209-.164.114.068-.173.1.023-.132-.073.023-.286-.109.118-.254-.023.254.014.204-.327-.072-.218-.182-.137-.29-.322.1-.173-.16.132-.05-.082-.227.386h-.004l-.741.01.268-.073.44-.023.083-.232.131-.145.246-.023-.255-.254-.295-.69-.091-.178-.236-.364.04-.172-.267-.386.327.431-.373-.69-.122-.023.14-.023.091-.3.141-.063-.177-.341-.073-.323-.245-.281-.191-.482.214-.731-.169-.205-.318-.154.291.068-.163-.087-.182-.613-.055.068-.081-.154.036-.073.086.132.264-.336.04-.387-.158-.145.013-.827-.209-.095.028-.368-.246-.31.05-.15.123-.031-.245-.345.059-.069-.76-.608-.172-.023-.254.24-.137-.204.187-.145-.173-.3-.264.168-.245-.145-.263-.368-.028-.264-.118-.022.014-.169-.682-.618-.29-.44.081-.06-.454-.735Zm2.276 1.986-.668.01.118.108.237-.059.118.227.218.005-.023-.29Zm-4.784 15.262-.136.054v-.004l.136-.05Z"/><path fill="#8CE2D0" d="m50.773 21.273-.105.159-.245.045-.195.296-.037.431.087.21-.468-.11-.536.155-.137-.146-.336-.086-.19.014-.114.131-.541-.2-.218.141-.259-.045-.777-.16-.045.023-.064.137-.132.014-.009.218-.218-.05-.173.24-.122-.022-.277.213-.014-.132-.182.1-.072-.1.013-.218-.095-.122-.132.127-.11-.123-.04.264-.19-.037.05-.081-.096-.1-.196-.196-.15.041.146.132-.037.264.087.159-.087.059.019.172-.1-.063-.014-.055.05-.036-.073-.2-.218-.032.06-.168-.178.182-.027-.137-.11-.022-.035.145.095.082-.24-.01-.087-.217-.255-.187.028-.131-.114.013.09-.036.01-.096-.204.037.022-.1-.109-.05-.195.09v-.172l-.196.01-.031-.155-.232.013-.132-.036-.231-.1-.1.232-.432-.064.036.4-.159.354-.427-.377-.168.073-.014.35-.772.45-.254.027-.246-.241-.445-.136.014-.132-.696.34-.431.092-.114-.082-.118.204-.554-.05-.173.073-.027.1-.205.023-.14.313.022.355.123.1-.05.227-.182.009-.254.259-.245.05.567.518-.127.204.055.386-.082.114.095.154-.036.205-.059.254-.118.055-.223-.196-.095.032-.01.123-.222.014-.068.218-.29.045-.237-.068-.69 1.09-.25.073-.041.413.377.4v.118l.136-.009.422.323v.223l-.059.24.105.087.309.045.481-.172.119.136.04.34.123.032.037.123-.114-.014v.246l.114.086.2-.073.222.314.604-.11.087.05-.1.11.059.159.272-.127.11.272.045.096-.027.177.1-.037.081.16.364.063.2.518.19.21-.072.154.086-.032.327.313-.004.327-.141.069-.477.309-.155.108.037.178-.11.122.064.41-.15.295-.263.204.104.377.16.118-.032.16.059.063.081-.123.146.227.24.023.1-.132.291-.086-.027.173.16.168-.037.34.109.073-.014.11.041.086.036.131.123-.013.582.695.054.177.282.16.027.208.154.073.191-.11.305.328.181-.014.028.118.177.037-.09.077.13.055-.04.345.309.263.218.037-.005.572.15.164.241.013v.16l.482.19-.087.414.696.327-.205.04-.195.364.05.068.181-.095.069.063.027.11.132-.16.045.155.182-.068v.145l.232.032.331-.204.191-.023.132.023.123-.073-.046-.136.168-.11.205.042.086-.123.232.118-.018.259.254.05.054-.073.182.06.127-.21.028.05.086-.136.123.018v.01l.104.095-.068.181.132.087.372.118.114-.11.264.064.036-.118.572-.477-.018-.082-.154.023-.05-.204.222.032-.077-.214.145-.1-.036-.227.173-.114v-.168l.072.023.196-.314.531-.095.01.095.15-.022.177-.169.086-.55.304-.213.16-.29.345.431-.182.16.036.076.4-.018.014-.082.718.173.122-.159-.004-.186.122-.055.028-.304.154-.028.11-.313 1.08.095-.077.437.05.427.604-.005.886-.286-.136-.086.041-.255-.073-.132.786-.222-.036-.236-.132-.028-.086-.19-.663.163.095-.14.227-.06v-.1l.15-.045.2-.268.09.177.673.05.123.004.318-.586-.077-.3.15.014.422.3-.022.145.154-.027.123.282.254-.06.082.123-.3.505.096.004.063.323-.05.404.21.023.072.25.263.04.05.3.178.169.109.036.354-.29-.255-.292.169-.131-.06-.132.191-.06.087-.463.172-.032.069.11.463-.137.073-.072-.191-.264-.486-.527-.087-.09-.109-.019-.063.109-.132-.06-.182-.14-.895-.745-.881-1.186-.873.21-.054.085-.727-.004-.168.136-.191.168-.145.046-.587-.25-.25-.332-.763.318.087.373-.128-.2-.009-.21-.254-.095.29-.013.21-.277.445-.123-.06-.082.45.11.287.272.754-.141h.096l.145.046 1.077-.41.427-.077.377.014.045-.227-.013.386.072.064.096.29 1.104 1.073.568.145.818-.345.454.127.413.259.187.24.009.096.013-.086-.036-.255-.29-.654-2.64-3.703-.341-.909-.241-.754-.018-.786.122-.327.114-.027.164-.31.586-.108.263-.196-.168-.186-1.031-.422-.087-.014-.481-.277-.218-.432.073-.222.168.013-.414-.168-.636-.34.036-.073-.29-.314.104-.222-.213-.091-.1-.595-.155-.132-.304-.777-.255-.282-.295-.132-.105-.268.105-.227-.636-.654-.223-.073-.54-.095-.11-.296-.317-.231-.269.1-.286-.46-.127-.05Zm-6.574 19.691.072.105h-.004l-.068-.105Z"/><path fill="#8CE2D0" d="m55.57 36.225.078.3-.318.586-.123-.004-.672-.05-.09-.177-.2.268-.15.045v.1l-.228.06-.095.13.663-.154.086.191.132.027.037.237-.786.218.072.136-.05.255.146.081-.886.291-.605.005-.05-.427.078-.446-1.082-.086-.109.304-.154.032-.028.305-.122.059.004.186-.122.154v.005l-.718-.173-.014.073-.4.027-.045-.077.19-.159-.345-.432-.159.291-.313.214-.077.55-.178.168-.15.022-.009-.095-.531.095-.196.314-.072-.023v.168l-.173.114.037.227-.146.1.077.214-.222-.032.05.204.154-.023.018.082-.572.477-.036.118-.264-.063-.114.113-.372-.122-.132-.087.068-.181-.104-.096-.123-.027-.086.136-.028-.05-.127.205-.181-.055-.055.073-.254-.055.018-.254-.232-.118-.086.123-.205-.041-.168.109.046.136-.123.073-.132-.023-.19.023-.332.204-.232-.032v-.145l-.182.068-.045-.159-.132.164-.027-.11-.068-.063-.182.1-.05-.073.195-.363.205-.041-.696-.327.087-.414-.482-.19v-.16l-.24-.013-.15-.164.004-.572-.218-.037-.309-.263.04-.345-.13-.055.09-.077-.177-.036-.027-.119-.182.014-.305-.327-.19.109-.155-.073-.159.277.086.123-.04.054-.278.091-.118-.086-.072.082-.028.254-.132.132.073.273-.259.345.037.086-.091-.068-.123.168.123.218.204.01-.113.463-.164.177-.123-.01.037.087.032.105.172.027.046.255-.091.209.118.218-.082.926.096.246.24.227-.154.127.032.145.24-.195.05.196.51.24.281.05.554.582-.05.363.364.527.004.15-.1.073.078.409.095.059-.086.15.059.082.209.218-.05.495-.61.354-.035.51-.237.231-.004.168.24.377-.022.155.204.1.091-.087.132.096.104-.06.31.242.19.136.205-.11.013.087.119-.05.617.155.4.363-.24.255.172.095.032.15-.241.19.027.11-.077-.06-.073.082-.109-.109-.109.114-.154-.086-.3.518.045.136-.145.209.486.14.023.369.19-.064.305.096.06-.06.1.096-.024.109.36.295.1.236-.046.182-.232.114.046.232.113.095-.054.29.327.214.04.196.619.29.408.278.9.522.19.114.642.845.036.063.345.618.3.564-.027.077-.455.118-.4.245-.027.096.555.204-.237.391.096.06.082.317-.16.214-.213.095-.123.195-.168-.05.087.26.145.095.059.268-.254.118-.314.027-.163.36.817 1.117-.236-.01-.472.178.027.11.204.026-.154.432.35.581-.1.391.063.168.4-.118.445.141.2-.082.118-.181.291-.064.182-.309-.209-.086.136-.364.582-.29.35-.028-.155-.154.727.045.155-.177.113.09.11.514.217.336.178-.154.095.045.086-.181.182-.178-.105-.159.228-.05.082-.131-.164-.305-.223-.131-.023-.187-.154-.036.06-.19h.008l.51-.11-.037-.173.172.014.06-.232.154.087.077-.232.177-.091.037.127.113-.059.432-.4.363-.059.291-.522-.177-.65.422-.173.232.087.214.304.245-.063.082-.21-.11-.308.26-.4-.06-.041.532-.096-.013-.254-.168-.027.059-.132-.21-.177.092-.218-.073-.087.545-.122.227-.282-.013-.127.059-.014.463-.34-.095-.06.168-.368.118-.109-.182-.359.041-.268-.586-.304.123-.196-.014-.145-.177-.177.118-.077-.082-.237-.095-.054-.514.15-.19-.205.25-.5-.032-.158-.21-.191.182-.137.219-.013.004-.082.459.086.532-.231.136-.21.445.064.29.291.519-.277.127.25.127-.132.377.132.364-.336.145.081.223-.14.313.145.01.059.508-.064.26-.277-.064-.518.181-.204.246.045.418-.263.363-.019.16.073.803-.627-.268-.172.191-.418-.486-.091-.082.522.06-.686-.4-.727-.25-.127-.255-.109h-.304l-.327-.168-.187.059.041-.118-.15.1.173-.268-.086-.137.145.087.245-.218h-.35l.36-.028.131-.372-.072-.014.645-.886.386-.359.168-.109.704-.668-.109-.013.305-.118-.146-.078.3.073.1-.127.109-1.518-.086-.254-.11-.486-.976-2.095-.15-.522-.305-.178.146-.063-.24-.255.122.023-.155-.109.06-.095-.341-.464.1.037-.041-.091-.16-.182-.022.19-.155-.035.073-.173-.259-.132.087.173-.046.095-.109-.086-.077-.014-.141-.145.082-.182-.082-.036-.014.09-.377-.231.086.19.087-.045-.014.146-.363-.268-.073.072-.463.137-.069-.11-.172.032-.087.464-.19.059.059.132-.168.131.254.291-.354.29-.11-.035-.177-.169-.05-.304-.263-.036-.073-.25-.209-.028.05-.4-.063-.322-.087-.014.291-.495-.082-.127-.254.064-.123-.282-.154.027.022-.145-.422-.305-.15-.009Z"/><path fill="#8CE2D0" d="m65.435 45.89-.11.013-.022.15.159-.11.159.11.35-.036-.536-.128Zm-.11.013-.213.027.2-.004.014-.023Zm2.822-.01-.045.046-.023.114.24-.11-.172-.05Zm.173.05.386.142-.159.059-.032.136-.313-.023.009-.1-.46.1-.158-.1-.014.078-.395.022.273-.059-.119-.1h-.022l.013.01-.077.072-.004-.005.068-.077-.232-.136-.132.34.118-.19.1.036v-.004l.041.018-.04-.014v.11l-.042.086-.19-.037v-.254l-.3-.036.163-.041-.236.036.01.114-.314-.1-.291.013.095.014-.027.104-.25.146v-.182l-.223-.023-.131-.059-.191.118.132.005-.205.018.06-.095-.519.059.06.036-.087.041.01-.077-.264-.037.136.137-.127.036-.046-.123-.132.15-.1-.195-.204.036-.5.532-.363 1.104.027.482-.118.077-.036-.11-.11.105.091.041-.163.036.009.073h-.154l-.187.25.064.114-.077.009-.06.181.078.282-.078-.2-.408-.363-.391.004-.182.087-.19.418.267.181-.804.618-.159-.068v-.004l-.359.018-.413.263-.255-.045-.172.204.054.518-.254.277-.51.064-.013-.06-.304-.144-.232.14-.14-.081-.369.336-.377-.132-.127.132-.127-.25-.518.277-.291-.29-.445-.064-.137.209-.531.231-.46-.086v.082l-.222.014-.181.136.209.19.031.16-.25.5.191.204.514-.15.095.055.082.236-.118.077.177.177.014.145-.123.196.586.304-.04.268.18.36-.117.108-.168.368.095.06-.463.34-.06.023.014.123-.227.277-.545.122.073.087-.091.218.209.177-.06.132.169.027.013.255-.531.095.059.04-.26.4.11.31-.082.209-.245.063-.214-.304-.24-.087-.414.173.177.65-.29.522.245.096.154.109-.023.422-.104.037.068.231.268.064.16.363-.133.3-.245.182-.354.514.254.181.027.218-.1.082.073.123-.177.177.168.436-.073.05-.081.218-.1-.009.022.195-.122.032-.182.523.1.145.19-.027.21.232.313.013.114.155.25.077.463.613-.059.11-.09-.032-.037-.073-.241.395-.504-.204-.146.109-.195-.037-.282-.395.078-.127-.091-.141-.205.014-.277.25.218.377.145-.046.241.323-.045.123.177.377.6.322.254-.073.146.255.09-.068.091.086.037.177-.114.182.186.232-.013.263.218-.032-.005.05.137-.018.059.11-.087.122-.068-.036-.013.15-.137-.037.055.182-.077.182.181.518.218.081v-.49l.423.286.159-.132.363.1.255-.077.1-.045.05-.05.454-.278.11.05.09.023.323-.15.063.041.06-.223.376-.095.082-.145.123.095.086-.073.096-.072.086-.241.445-.032.123-.05.936.154.009.55.372.132-.031.14.195.2.323.164.159-.009.027-.136.359-.132.086-.036.582-.05.036.004.232-.113.29.218.119.145-.096.11.155.027.218.554.222-.032.228.395h-.119l-.558.15-.014.227-.095.005-.05-.173-.037.16-.081-.005.059.182-.155.027.036.109-.163.082-.023.077.713.431.16-.177.245-.027.19.327.182.014.741-.196.095-.576-.05-.055.146-.09.522.008.318-.132-.186-.04-.163-.337-.014-.072-.136-.1.145.086.114.204.118.182.109-.045.136.168.2.022.622-.24-.181.036.122-.086-.327-.06.032-.086-.159-.022-.255-.118.646.081.172-.059.446.082.808.123.196.05.595-.573-.327-.072-.1-.264-.127.1.095-.218-.29.054.413-.24-.137-.178.155.155.45-.023-.014-.259-.818-.109-.209-.19-.254.108-.155-.072-.054-.118.29-.05.15.013.337.286.077-.068.568.11.445-.037.314-.232-.032-.39.132-.364-.123-.3.095-.45-.204-.254-.34.064-.419.468-.327-.073-.254.059.031.159-.286.095-.086.196-.186.059v-.105l.1.037.022-.15.173-.132-.573-.06-.254-.267.186.109.073-.227.218.122.168-.054.037-.055.036-.109.145.055.014-.082.127.118.027-.14.218.095.337-.037-.019-.118.096.055.254-.228-.222-.1h-.182l-.018-.081.154.027-.204-.055.213-.059.028.096.34.027-.181-.195-.096-.205.264.268.022-.122.064-.35.073.073.25-.11-.073-.027.39-.095-.263-.136.2-.01-.118-.172.3.236-.073-.45.15.11-.077.145.122.213.319.164.327-.123-.037-.109.11-.04-.014.086-.11.136-.045.095-.309.014.2.177.023.245-.1-.227.109.273.536-.082.373-.05.995-.713.472-.664.027-.231-.231-.037.013.177-.004-.018h-.014l.005-.004-.005-.01.014.01-.01-.023-.026-.05-.037-.009-.009.01-.023-.014h-.013l-.023-.01-.005.01-.009.013v.005l-.004.018V63.427l.036.01.005.008h.031l.028.027v.023l.022.014-.009.009-.1.004-.022.123-.01-.1-.122.014-.036.109-.06-.277-.15.054.11-.177-.155.159h-.29l.304-.123-.114-.095.132-.09.15-.01-.16-.086.133-.123.05.027v-.009l.009.018.15.073.05-.345.263-.282.145-.023-.063-.218-.118.168-.314-.131-.186.154h-.095l.013-.086-.3.086-.072-.014-.11-.095-.49.145-.568-.068-.145-.209.159.168.209-.177.436.068.313-.286.25.227.223-.013.095.04.218-.145.318.073-.09-.5-.555-.118-.4-.26-.195-.303.254.186.368.218.419.14.004-.104.227.155.037.377.377.277.009.29.231-.4.414-.363.023-.177-.305-.254.268.095.073.191.34-.3.278-.645-.11.014.473-.446.064.01.086-.096.314-.1-.586.377-.237.314.237-.278.908-.558.305-1.572.023-1.359.308-.64.082-.037.46-1.404v-.709l.204-.445.05-.145-.264-.8-.109-.518.059-.113-.045-.087.059.064-.087-1.177-.386-1.077-.29-.408-.95-.9-1.536-1.222-.845-.536-.727-.269-1.327-.127-1.317-.363Zm3.026 16.993-.01-.009.014.227.146-.068-.15-.15Zm.318.232.082.136.063-.04-.145-.096Zm-.023.064-.29.013-.042.105.187.095.145-.213Zm.014.013-.005.018-.014.028.005.022-.005.023-.022.005-.023-.014v.014h.01l-.01.009.073.013.013.01V63.3l-.004-.032-.018-.023Zm.072.25v.023h-.036l.032-.018.004-.005Zm-2.921 1.022-.245.11.004-.073-.418.454.055.087.459-.06.377-.19.154-.196-.386-.132ZM66.43 65.85l-.123.181.209-.004-.086-.177Zm.336.081.173.096.154-.068-.327-.028Zm2.072 1.577-.818.132-.073.313-.272.028.086.195-.14.095-.055.182.145.05-.036-.086.236.145.64-.568.287-.486Zm-1.272.445-.182.16.127.326.154-.322-.013-.15-.086-.014Z"/></svg>
