<svg xmlns="http://www.w3.org/2000/svg" width="197" height="336" fill="none"><path fill="#0D8D98" fill-rule="evenodd" d="m186.517 249.884.961-.619-.721-.598-.185-.837.094.04-.124-.176-.004-.02-.014-.006-.333-.474.14-.61-.239-1.048.414-.26-.014-.989-.477-.116-.019-1.419-.651-.308-.516-1.37.007-.016-.021-.022-.049-.13-.025.053-1.281-1.318-.5.289-1.775-1.975-3.278-2.164-1.798-.722-1.346.475-2.708-.61-2.237.396-2.021-.885.001-.036-.06.011-.068-.03-.002.042-5.212.923-.021.003-.989 1.084-.221 2.43-1.585 2.151-1.847-.27-.101-.045-.022.067-.061-.02-.398 1.188-1.337.837-1.558.501-.771 1.426-1.582.574-.207-.327-.88.19-.889.659-1.157-.679-.473-.054-.491.783-1.13-.755-.731.48-1.986.314-.933.537.404.539-.46 1.131.733.572.912-.145c.509 1.223.514 1.228.53 1.245l.79.992.167 1.054-.313.101-.575 1.64-.359.098c-.053.008-.053.008-1.634 1.535l-.078.076.062.09c.133.193.283.412.319.469.018.044.088.098.483.397l.064.176-1.451.432.362.183-.81 1.452-.002.244-.977-.76-1.041.57.529 1.032-.373 1.205-.884.1c-.012.002-.02.003-1.207.553l-.016.008-.468.703-.337-.039.009.369-1.135.546.223 1.016.654.803-.823.668.026.294-.45.298-.829-1.426-1.783-.09.097.402-2.393.975.118.925.038-.008-.83.928-.017-.106-1.622-.077-.239-1.848-.352.002.169-1.234-.31-.189 1.125-.413-1.794-2.165-.418.522-.274 1.556-2.162.314-.18.756-.323.315-.089 1.224-2.109-.302-.891.234-.277-.218-.935-1.484-.356-.285-.406-.661-.219.398-1.193.91-.761.011.944 1.53-.229.536-1.448-1.259-2.437 1.385-1.146-.212-.465.449-.349-.288.514-.961-1.15-.189-.14.888.34.638-1.872.912-.152.027-.537.091-.797-1.72-1.132.12.109.333-.308.326-.669-.544-.392-.672-.685 2.192.451.592c-.01.283-.009.29-.008.298.002.01.003.016.595 1.443l-.663.105-.761.699-1.285.23.037.329-.62-.256-.8 1.101-.43.996.2 1.264-.545.74.094.693.259.173-.178.075.109.624-.244.263-.072.506.29-.073-.186.25.097.447.28-.081.094.551.267.306.912-1.978 1.388-.888.979-1.144 1.317-.922-.53-.362-.021-.437 1.279 1.063-2.112 1.64-.859 1.175-.047.065-2.152 2.305-1.138 2.487.607 1.091-.347.066-.336-.571-.619-.221-.702.235-1.867 2.18-.133 1.265-2.13-.316.477.819-.793.889.214 1.346-.604-.264-.036 1.395.441.818-.213.213.447.864-.44.425.469 1.388-.29.483-.643-.664.246-2.047-.577.435-.91.152-2.52.422-.958.55-.548-.321-2.529-.03-.411-.666-.735-.149-.052-.518-1.842-.404-.025.406-2.85-.105-1.007-.357-1.96.189-.177.456-.795-.255-2.408.211-.394.529-1.266-.341-1.803.452-.337 1.507-.58-.039.172.86 1.045 1.435 1.93-.405.422.281-1.741.304-.642 1.722-.392.17.285-1.136-.532-.2-.618.277-.957 1.306-1.126.285-.992-.664-.704.08-1.369-.402-.501.578-.145 2.278-.552.433.325 2.202-.258 1.701-1.93 1.794.092.456-.83.975-.569.109-1.001.762-.101 1.516-.868.895-.615-.786-.635.723-1.12-.172.129 1.154-.487-.261-.975.659-.22-.299-.498.319.193 1.053-.509.227.06 1.403-.871 1.407-.738-.166-.732.446.31.655-.678 1.614-1.255.464-.437.931-.677.422-.707.825-1.32-.122-1.056 1.855-.833-.161-.341-.887-.68.045-.014.008-1 .61c-.019.01-.031.016-.718.984l-1.355.246-.988 1.152.462.358.052.652-.5.367-.05.733.578.174.424.702 2.514-.858.31-.899-.294-.714.487-.599 1.081.314.39.686 1.027.007.414.423.665-.219.948.712.61 1.521-.175.818.585 1.093.948.374.808-1.271 1.29-.031 1.04-1.45-.625-1.191-1.111-.356-.029-.319.871.156.41-1.293.54-.153-.292-.556.1-.877-.525-.368a7.1 7.1 0 0 1 .269-.216c.084.003.472.025.762.042l.091 2.163.856-.4.35-1.148 1.126-.159 1.041-1.114 1.581.148.473-.709-.365-.458.163-.722.506-.495-.044-.736 1.31-.635c.112.426.264 1.009.27 1.044v.036l.03.019c.042.027.046.029.818-.329l.178-.081 1.04-.137 2.01.252.105-.667-.443-.545.018-.356.91.573 2.981-.231 1.135.713.19.929 1.022.008-.14-.724.461-.066-.012-.606-.075.014a6.76 6.76 0 0 0-.607.125 13.6 13.6 0 0 1-.565-.316l.178-.49-1.936-.494.17-.436.3.318.02.004c1.142.228 1.15.227 1.166.225.02-.004.028-.005.471-.365l.057.086.064.1.01.015.657 1.014.83.236-.041.43-.052-.004.044.085-.005.047.03.002.393.758.039.001c.208.003.528.01.647.014.015.144.028.288.038.432l.003.047.983.233.917-.261 1.025.421 1.61.01-.364 1.623.039.024c.234.15.613.395.663.432.032.05.132.185.452.606l.021.028.898-.095-.105-.66 1.046 1.221.774-.947.707.12.018-1.83.368-1.3.63-.006.791-.298-.277-.697c.524.381.531.382.55.385l.02.001c.015-.003.034-.006.643-.364l.034-.02-.047-.788.596-.254.111-.019-.02-.02.413-.177-.499.084-.48-.51-.979-.107-.083-.716.857-1.337.513-.369-.314-.964-.019-.058-.027-.084-.193-.591-.816.076-.028-.281 1.755-.375.476-.641-.007-.682.538-.482-.428-.2-.324-1.767-.094-.51.36.144.156.987.524.433.123 1.038 1.19.165.034-.695.99-.218.427-.546-.02-.528.638-.317 3.126-.473.039-.006.145-.431 2.727-.317-.007.034.107-.046.036-.004.002-.012 1.106-.472c.837.27.978.313 1.014.318.04.004.815.113 1.336.188l1.004.72 2.289 1.212 1.776 1.532.591.836.502-.056.335.722-.568 1.033.789-.079.572-.513-.215-.766-.491-.514-.111-.645.322-.98.881-.131.816.476.076.015-.001.002.124.021.004.001 1.937.328 1.873-.114.856.669.869-.051.386.496 1.572-.265.409-.512-.108-.477.549-.768-.364-1.015-3.225-.365.088-.379 1.164-.496-.189-.555.338-.085.254-.063c.281.138.713.353.774.389.041.058.171.221.596.745l.023.028.939-.148.318-.532.038-.004.089-.009 1.245-.141c.468.232.555.273.586.278.037.005.548.108.883.177l.157.031-.423-.613 1.473-.349.491-.117.921.508.867.607.876-1.094-.047-.587.795.009 3.112-1.086.025-.008.47-.965-3.181-2.65-.086-.432 1.374.819.221-.866.481.94.323.633.712-.122.654 1.169 1.285.916.091.065.021.015 1.357.967.355-.505.228-.069.081.054.61.408.752-.547-.045-1.097.432-.633 1.086.078.722-.253.084-.029.038-.013.137 1.017.609-.04.049-.616.511-.36.271 1.067-.726.453.214.967.819.947 1.323.541-.191-1.233.314-.599.781.433-.103-.537 1.898-.149.007-.001 2.457-.723.831.17.658-.113.093-.016.035-.006 1.357-.234.728-.425 2.08-.41 2.271.453 1.114.286 2.577.659.581.573.81.204 1.162.292-.007.06.085-.041.048.012.004-.038 2.054-1.001.21-.839.351-.292.469-.388.045-.018 1.251-.502 1.458-.294.443-.089.457-.408.977.006 1.146-.563.385-.189.848-1.25.589-1.244 1.957.652.07.005v.002l2.343.181-.291-1.765.618-.995-.137-.637 1.563-.99.145-.462 2.276-.273.394-.834 1.684-.399.632-.806 1.196-1.284.211-.649-.13-1.736v-.005l-.413-1.856-.477.369-.713.095-.171-.983.869.23 1.558-.999-.302-1.518-.949-.22-2.476.828-.292-.539-.047.01-3.348.703c-.025.004-.032.005-.721.618l-1.7.539-.023.007-.113.036-.021.007-.995.625-.015-.359-1.237-.217-.843-.625-.699.288-.062-.802-.595-1.125-.768.135-.302 1.105-1.107.175-1.056-.784-.925.446.194-.695 3.825-1.472-.155-.061c-2.175-.851-2.181-.85-2.204-.846-.005.001-.016.003-2.638.701l-.048-.114-.042.138-.036.01.02.047-.16.531-1.847.208-1.148-.741-.589.336-.768-.506-.373.344-.018-.014-.09-.066-.52-.375.28-.343-.402-.503-1.245-.262-.047-.107-.037.089-.071-.015.04.09-.117.284-.908.197-.015-.016-.091-.094.762-.205.024-.426 1.049.026 1.084.027.302.642-.007.013.018.01.023.05.025.051.043.094.15.316 1.412.023.477.54 1.453.041 1.373-1.533 1.638-.373-.55-.617.494-.17.275.932.868.195-.002-.719-.716-.661 1.189.24.063.003.091.004-.001-.002 1.471.041.996.229 1.051-.557.071.006-.01-.038.15-.079-.174-.015-.151-.598-1.329-.265-.11-.177 2.065-.349.059 1.258 2.058-2.246-2.04.412-.48-.627 2.057-.623.361-.962-.617-2.469-2.768 2.004-1 .206-.748-.859-.18-.591 2.24-.382 1.792-1.014-.91-.239.648-.573.792-.013.452.538.954-.74-1.109-.54.329-1.22.579.283.713.679.587-.26c-.194.834-.193.842-.191.858.005.031.006.034.965.921l.032.03 1.924-.9.011-.005 1.869-2.026-.089-.656-1.077.658-.393-.891.795-.52.365-1.068-.382-.312-3.648.375-.329-.476 1.731-.52 1.075.454 1.392-.13-.513-.988-1.376-.566-.01-.234-.095-.079.087-.026.592.141.091.021.042.011 1.014.239.785 2.108 1.018-.851.315-1.101-1.193-2.371-.612-.354.277-.581.536-.343 1.329 3.426.715-.113.168-.694.812-1.185 1.611-.76.68-2.852.035-1.231.473-2.953.63-.841.721-2.511.004-.014-.179-.976.315-.619-.265-.647v-.001Z" clip-rule="evenodd"/><path fill="#0D8D98" fill-rule="evenodd" d="m132.051 308.23-.042-.566-1.844.403-.349-.426.09-.614-.622-.396-.26.701.213.924-.238.445-.131-.243.146-.592-.261-1.275-.516.136-.258.699-.834.466-.117.724-1.139-.249-1.23.527-.369-.311-.912 1.928 1.172-.512.799.081 2.767 2.387.304-.283.322.772.339.066 2.426-.937.003-.042c.104-1.33.089-1.357.077-1.38a83.977 83.977 0 0 0-.273-.464l1.718-.189-.98-1.78h-.001Zm38.043-24.576-1.105-.044-.279.756.634 1.081 1.779.662 2.259-.412-3.075-1.42-.213-.623ZM27.239 330.825l.4.681.444-.472-.498-.735-.346.526Zm-1.234 2.449.064.238.807.141-.464-.737-.407.358Zm.695-.73.533.242.681-.258-.545-.979-.669.995Zm.139-.548.056.033.443-.577-.546-.558-.721.05.006.066c.053.558.057.561.09.582.01.008.473.285.672.404Zm34.607-39.472-.486.308.215 1.355.761-.311-.49-1.352Zm73.861 11.814-.942 1.293.872.303.011-.001c.26-.033.653-.083.707-.088l.029.007.021-.034c.025-.043.025-.043-.656-1.395l-.042-.085ZM152.806 212.065l-.552-.22-.079-.722-3.671-4.6.049-1.375-.451-.436-.622-3.611 1.895-1.794-.174-.734-.77.123-.51-.68-.724.316-.994-.835-.6-1.433-1.738-1.191-.506-1.538-1.084-1.545-1.312-3.043-.008-.018-2.468-1.603-.747-.086.185-.467-1.746-.595.295-.413-2.195-.17-.81-.719-.565.293-1.097-.377-.423-.793-1.797-.669-.252.997-.085-.027-.574-.188.305-1.494-.292-.427.636-.356-1.559-1.013-.002-.003-1.12-1.445-.519-2.253-.23-.283-.015-.092-.214-1.321-.642-.441.562-.192.038-.798.002-.046.004-.084.002-.063-.337-1.128-.6-.562-.03-.285-.044-.419-.739-.552-.101-1.054-.002-.031-.006-.06-.034.016-.678-.756-.138-.833-.777-.426.942-.997-.198-1.167-.523-.045-.484-.924-.188-1.824.529-.155-1.255-1.951.27-.696.021-2.274-.563-1.355.357-.642-.393-.36-.37-1.392-.898-.741-1.933-.427-3.404-4.237-.055-.939-.639-.776.03-.056-.136-.073-.159-.194-.046.085-.228-.121-.648 1.215-2.37 2.851-.408.994-.804-.177-1.41.648 3.095 5.285-3.041 2.288.161.811-2.321.368-.785 1.15-.827.639-2.354 3.688-3.012 2.32-1.052 1.068-2.598.734-.289 2.414.193.023.064.008-.01.079.233-.022.507.625-.99.14-.966.751 2.16-.037.054.283-1.816.271-3.34-.894-.264 1.072 2.063.178-.197.282-2.782.302-1.102 1.315-.412 2.65-2.067 2.739.126.674-.75.384.305 1.119-.001.01-.01.069-.01.058-.254 1.765-.496-.24-.087 1.022-.707.314.01.051c.034.17.123.618.128.651.003.019.01.062.278.363l1.083.734.642.714.944 2.107.009.018.017.011c.517.312 1.281.776 1.454.89-.076.2-.434 1.073-.678 1.666l-.01.024.985 2.539.006.015 1.034.883.92-.205.339-.28-.163-.717.673-.538.123.462.023.088.01.037.133.498-1.022 2.879 1.97.645.434-.603 1.466-2.032.046-1.09.274-1.658.443.079-.16 1.267.096 1.453.815.803 1.64-1.271.01-.008 1.15-2.107.465.305.115.838-1.636 1.334-.023.018-.195.159.232-.103.586.885.02.007 1.06.386c-.137.235-.278.467-.423.696l-.28.858-1.607.558-.32 1.304 1.102.922-.438 1.709-.634.022-.019.023c-.324.399-.814.999-.873 1.063-.047.032-.031.119.314 1.723l-.807-.209.255-.547-.331-.313.055-.923-.658-.28-.436.524-.015.949.019.132.146 1.097-.507.416.21 1.36-.173.41.261.889.612.01.311.626 1.019-.108.33-.455 1.256.394-.425.727-.736-.566-.464 1.517-.406-.437-2.118 3.19-.01.016.006 2.168v.022l.471.616.178 1.44.719.494.42 1.543 1.462 1.234 1.495.944.046-.009.004.025 1.054-.204.184-.673 1.101-.18.387.25-1.336 1.039-.71.552-1.594.235-1.047-.507-1.333-2.044a273.83 273.83 0 0 0-.096-.802c-.003-.018-.005-.032-.783-1.229l-.038-.057-.055.041-.812.604c-.04.024-.719.363-1.165.585l-.024.011-.456 1.382 1.58 1.692-.131.293.023 1.179.832.157-.036.094-.008.002.003.011-.077.204.116-.026.014.063.475-.105 1.82 1.731-.08.155.307.226-.376.556-1.105.128.559 1.142 1.315.57-.25.318.858 1.147.126.712.47.937 2.103.991.621-.469.731.26.438-.075.064.26.845.893 1.194-.567 1.002.475.587-.582 1.253-.684.545-1.965.496-.697 1.209-.18.025-.018c.203-.145.527-.374.61-.43l.026-.004 1.088-1.494.585-.391.088-.803.608.509 1.614-.644.518-.81-.156-1.601.014-1.843-.233-1.251-.406-.546.782-1.453-.488.012-.011-.54.569-.296-.066-.42.329-.27.063-1.28.977-1.017 1.583.597.421.788.075.471 2.676 2.883-.254.724 1.671 1.79.364-.364c.914.445.916.445.967.437l.127-.02-.007-.045c.119-.072.382-.226.605-.355l.109.45.678-.972.74-.068.072.62 1.135.145.211-.349.345-.073.958.832 1.411-.582.175-.37.345.035.312-.493-.313-.301.427-.58.6-1.682 1.589-.196 1.401-2.344-.009-.896.905-1.941 2.678.832.437-.913.659-2.472.004-.014-.147-.93-.08-.469 1.026-.625 1.075-.189 1.194.45 1.725-.33.393-.074.011-.004a96.585 96.585 0 0 1 1.938-.73l1.157.448 2.365 2.617.012.013 1.709.544.624-.741 2.285.952-.376 1.202.793.108.481-.916-2.173-3.551Z" clip-rule="evenodd"/><path fill="#0D8D98" fill-rule="evenodd" d="m156.944 222.67-.011-.027-.99-.948-.5-.589-1.45-1.896-1.485-1.246-.184-.103-.043.006-.045.019-.679-.37-.003-.727-2.007-.805-1.548-1.347-.384-.55-.013-.018-.061-.089-.803-1.146-1.403-.386-1.038.572-1.082-.311-1.577.948-1.726-1.233-1.407.828.15.944-.647 2.437-.385.804-2.667-.831-.965 2.076.096.486-1.504 2.521-1.615.2-.637 1.791-.536.729.323.311-.113.18-.367-.038-.209.445-1.166.481-.931-.811-.578.123-.181.301-.764-.099-.077-.667-1.107.1-.416.598-.055-.228-.149.087c-.427.247-.653.378-.77.458-.155-.073-.611-.294-.905-.437l-.082-.04-.304.304-1.377-1.477.253-.722-2.718-2.933-.069-.435-.485-.91-1.826-.69-1.156 1.207-.062 1.258-.354.29.061.382-1.278.666.741-.048.013.622.301-.007-.646 1.203.467.628.217 1.165-.014 1.821.149 1.527-.423.665-1.388.553-.856-.717-.127 1.16-.521.347-1.064 1.467c-.069.044-.219.15-.594.418l-1.252.185-.582.822-.525 1.898-1.185.647-.481.479-.946-.449-1.129.538-.667-.706-.105-.424-.605.101-.796-.283-.488.37-.318.419.107.393-.241.403.141.733-.33.146c-.064.029-.212.127-.797.522l-1.064-1.345-.082-.022c-.613-.164-1.226-.331-1.838-.5l-.008-.169-.02-.397-1.39.712.08.376c-.211.117-.452.249-.536.294-.108.018-.462.073-.78.122l-.117.019-.482.776-.668.399.002.147c.012 1.07.018 1.409.026 1.531a52.44 52.44 0 0 1-.235 1.328l-.029.155.985.752.551-.403 1.45 1.597.103.063-.276.034c-.19.03-.204.125-.266.524l-.102.68-.13.895-.957.883.33.272-1.55 1.415.075.169c.152.35.385.886.472 1.09l-.043.134c-.042.129-.111.344-.13.391l-.366.742.727-.41 2.114-1.171.205.292c-.043.106-.11.273-.179.439l-2.72 1.316-.024.011-.02.016s-.377.286-.754.576c-.873.67-.873.67-.847.833l.004.029.011.027c.025.062.025.062 2.614 2.786l.946.694 1.104-.022-.428.306-.008.006c-.116.086-.116.086-.218 1.408l-.008.112.38.412-.422-.076-.642.903-1.8 3.588.75.55-.41 1.139.169.63.736.714.248 1.727.017.137 2.68 2.246 2 .301 1.956 2.338.512-.455.321.489.432.115.652-.36.516-.711.78.32-.053-.472 1.161-.207.758-.697.845-.134-.062-.151-.61-1.473.009-.279.002-.047-.431-.564.524-1.674.188.323.834.676.509-.537-.07-.216.756-.08.799 1.724.86-.147 2.073-1.009-.402-.756.099-.63.691.113-.461.86.603.496.516-.498 1.117.205 2.374-1.349 1.542 1.34.373-.87-.817-1.322.484-.007 1.273-.97.079-.142.25.406.35.276.939 1.487.378.299.944-.25 2.337.335.098-1.335.306-.297.156-.657 2.17-.315.294-1.67.18-.224 1.356 1.635-1.282.472.62.377-.186 1.358.421-.003.236 1.83 1.626.077.069.434 1.715-1.917-.536.115-.058-.45 2.412-.981-.068-.281 1.298.065.892 1.536.745-.492-.035-.377.893-.724-.746-.915-.18-.818 1.108-.533-.007-.271.234.026.502-.753c.378-.176.756-.35 1.135-.523l.971-.109.084-.01.433-1.395-.461-.899.672-.368 1.25.973.007-.697.908-1.625-.023-.012 1.09-.324-.184-.504-.03-.022a21.2 21.2 0 0 1-.446-.345 11.762 11.762 0 0 0-.266-.393c.483-.467.968-.932 1.455-1.396.049-.012.157-.041.41-.111l.065-.018.577-1.642.4-.129-.211-1.335-.021-.027-.802-1.005c-.045-.1-.342-.811-.539-1.283l-.039-.093-1 .158-.49-.381.441-1.083-.316-.42.638-.368 1.991-.315.634-.416 1.206.805.545-.867.258.029 1.254.735.979-.726.65-.139.22.348 1.865-.676.768-1.418 1.472-.472 1.456-.906.463-1.383-1.016-.455-.165-.627-1.399-1.147-2.233-.071-1.058.264-.086-.228 1.572-1.181-.617-.989 1.116.526 1.242-2.631 3.676-2.622-.167-1.093.297-2.508-2.069-5.382Z" clip-rule="evenodd"/><path fill="#0D8D98" fill-rule="evenodd" d="m100.397 237.152-.167-.611-1.993-.935-.44-.877-.128-.72-.817-1.087.294-.372-1.426-.613-.058-.119-.4-.813.983-.114.48-.706-.319-.233.222-.43-.298-.29-.036.4-1.751-1.659-.544.119-.212.557-2.219-1.438-.256-.836-2.991-1.503-.176-.087-.99.638-1.073.047-.2.772-.53.052-4.295.421.078-.407-.807-.945-.867.247-.225-.716-.491.306.3 1.069.78.457.168.867-.534.233-.1-.663-.868-.282-1.138.335-1.049.783-.409.166-1.31.531-.79-.325-1.78 1.287-.964 1.597-.997.398.095.954-.712 1.927-.986.897-1.472.812-.301 1.189-1.521-.006-3.09 2.581-.09.946-.569.134-.298.824.544.574.425-.524 1.511.094.47-.364.182-.486.39-.129.576.625.322.936.855-.401-.106-.582.207-1.051.723-.447.63-1.069 1.774.034-.04-.598 1.22.257 2.503-.094.134-.527 2.277-.348-2.493 1.573.221 1.434-.487 1.23 1.104 1.368.7 1.285 1.82-.647-1.693 1.409-1.59 2.492.981.122s-.176.453-.194.456c-.019.003-.154 1.266-.154 1.266l1.721.289 1.144-.256-.236.167-1.795 1.259-.637 1.545-.765 3.786-1.033 1.034-.605 1.342-2.617 1.611-1.385.034-1.446 1.556-.28.698-1.387.485-.022-.49-.782.346-.917-.305-.864.383.073.655-.563-.226-.668.241-.518 1.162-1.537.707.276.956-1.169-.13-.33-.713-.25.731-1.518.406.367-.662-.592.143-1.04-.348-.461.462.045 1.301-.796.299-.39.722-.347-.322-.836.126-.282.687-1.15.225s-.923.51-.942.513c-.018.003.089 1.338.089 1.338l.487-.449 1.555-.208.17.442 1.456.269.28 2.036-.354.747-1.54.491-.108.541-.578-.285-.2.537.923.817.143.786.64-.114-.102-.725 1.044-.454.04-.482.382-.098.006.857.274.161.963-.227.192.475.776-.32.35-.561.678.675-.02.343-.526-.027.394.418s-.16.625-.178.628c-.018.003-1.9-1.113-1.9-1.113l-.431.413s-.84-.292-.864-.282c-.023.011-.188.418-.188.418l.893.704-.199 1.093 1.114.651.798-.17.898.537.953-1.466.995-.218.286.515 1.114-.207-.135-.503 1.1.172.813-1.369-.56-.442s.745-.544.763-.547c.018-.003.997-.243.997-.243l3.664-.136-.4-.869 1.354-.381.548 1.062.67.788-.661.327 1.769 1.417.744-.316.658.315 1.455.147.324-.342-.005-.585.876.009-.418.807.047.096.21.431s-.595-.115-.613-.113c-.018.003-2.908.788-2.908.788l-1.425.681.348.859-.106.633.88.577s1.976-.134 1.995-.137c.017-.002.693-.986.693-.986l.288.8 1.173-.149s.636-.328.74-.426c.102-.096.061-.466.035-.629-.025-.162.853-.535 1.16-.627.309-.091.244-.618.244-.618l.145.834.746-.493.163-.107.607-.75.263 1.66.765.399-.353.555 1.17 1.142.033.031-.198.982.543.135.664.865.694-.395.709.209.412 1.347 1.51 1.076 1.73.504.652-.665.784.722 2.227.004-.003-.455 1.736-.313-.502-1.413-.301.017-.007-.036-.094-.479 1.311-.337.154-.789.643.417.599-.439 1.608-1.176 3.43-.383.028-.032.425-.484 1.455-.175 1.245-2.025-.037-.235-.285.081-.077-.349.279-.371-.374.094.057-.389.252-.271-.105-.602.242-.102-.335-.221-.087-.636.549-.738-.201-1.267.417-.856-.657-.078-.43-.656-.541.477-1.855-2.204-2.032-.303-2.558-2.13-.005-.035-.26-1.819-.752-.724-.13-.481.452-1.244-.734-.534 1.693-3.357.552-.771 1.021.184-.828-.893s.095-1.203.117-1.22c.023-.015 1.111-.793 1.111-.793l-1.854.039-.845-.61s-2.564-2.683-2.57-2.699c-.004-.018 1.51-1.165 1.51-1.165l2.824-1.361s.27-.646.268-.659a36.356 36.356 0 0 0-.417-.595l-2.33 1.284c.023-.043.212-.641.216-.642-.003-.014-.514-1.181-.514-1.181l1.64-1.49-.331-.272.811-.746s.288-1.967.3-1.968l1.002-.126-.7-.427-1.587-1.737-.586.427-.71-.538s.252-1.34.243-1.367c-.009-.028-.025-1.539-.025-1.539l.598-.354.455-.73s.815-.125.83-.131c.25-.135.499-.27.747-.406l-.079-.37.864-.442s.017.339.019.352c.001.011 2.026.551 2.026.551l1.163 1.461s.934-.625.947-.628c.01-.001.533-.236.533-.236l-.162-.834.249-.413v-.001Zm-34.182-11.569-.832.474.185.784 1.136.723.06 1.505-.361.275.817.507.389-.132.67 1.114 1.111.481.9-.493s.56-.675.573-.677c.011-.002.968-.929.968-.929l.501-.64.604-.158.136-.603 1.095-.281 1.31-1.762-.502-.35-1.356-.115-.674.536-.818.001-.031-1.191-.532-.622-.957-.083.314-1.622-1.15.038-1.314-.624-.971.553-1.943.275-.228.609.546-.086-.646 1.521 1 .972Zm-2.023 1.909.534.509.002-1.777.218-.365-.423-.33-.366.647-.33-.838-.642.071-.13 1.312.633-.127.504.898ZM62.197 147.094l-.794-.402-.375.699.15.552.51-.173.51-.676Zm-1.288 2.107.536-.148.13-.768-.791.126.125.79Zm-3.208-2.328-.45-.739.038.696.412.043Zm.429-3.825-.43-.793-.554-.155-.503.654.12.519.595 1.115.475-.146.19 2.254.405.204.365-.078.047.904.542.72.538.301.17-.526-.516-.28s.377-1.945.389-1.947c.01-.002-.238-1.205-.238-1.205l-.546.166-.399-.55.187-.638-.837-.519Zm-11.464 8.407-.088-.391-.32.373.408.018Zm-.051-3.637-.144.703-.275.37.147.772-.248.565.05.5.878-.643.202-.805-.46-.276.55-1.129-.7-.057Zm-8.013-8.86.666-.916-.655.104-.01.812Zm.832-1.638 1.096-1.555-.202-.726-1.72 1.75-.547.636-.035.454.442.166.998-.034-.032-.691Zm9.312-3.565.39.012-.125-.783-.33-.078-.498.491-.57-.014-.075.542.639.276.569-.446Zm-.797-2.353-.492.091-.236.429.668-.15.06-.37Zm3.758-7.381.563-.105c.01-.001.958-1.526.958-1.526l.541-.329-.124-.474-.521.181-.099.41-1.451 1.485-.52.147-.123.812.251.191.525-.792Zm-8.624 21.925.774-1.061-.213-.505.711-1.249.524-.041-.1-.526.474-.045.502-2.281.408-.046-.032-.463.376-.797.507-.076.681-1.456-.156-.62.67-.173.293-.716.488-.477-.199-.867-.589.055-.26.504-.433-.136-.446.874-2.1 1.206-.437.798-.608-.012-.27.733-.851 1.092 1.129.608.543-.527.509.149-.003.374-.829.215-.267.25-.474-.216-1.626.898-.612.879.062.569-.21.333.248.427-.2.651.175.639.69.506 1.025.154.126.376Z" clip-rule="evenodd"/><path fill="#0D8D98" fill-rule="evenodd" d="m41.687 148.282.26-.504-.781-1.699-.416-2.071.294-.294-.614-1.726.27-.586-1.277-.144-2.432 3.215-.17-1.95-1.114.615-1.081.103-.648 1.931.315.284.018.467-.413.324-.254.893-.454 1.172.107.477.583-.043 1.413-.94.56-.935-.032-.675.924-.943.975.97-1.077.961-.31.537.989.066.01 1.966-.52.083.17.402-.726 1.19.062.398.423-.067.554.37.806-.536.194-.988.773-.148-.02.381 1.239-.37.8-.614-.12-.593.484.356.767-.637-.165-.524-.366-.174ZM18.16 108.973l.549-.859-1.319-.639.77 1.498Zm-.408-1.777 1.406.404 1.417-3.06-2.036 1.663-.787.993Zm5.772-6.57-1.003-1.853 1.786-3.61-.882-1.96 1.346-.214-.309-1.377-.57-.92 1.71.134 1.266-3.168-1.545-1.403.548-.172 1.289.74.619-.805-2.166-1.722-1.674.768-3.327.118-1.03 1.635 1.86 1.001 1.358 2.495-1.335.874.71 1.698-1.335.485.283 3.59-.342 3.348.28 2.179 2.204.412.26-2.273Zm-5.517-11.075.076-.734-.804.04.728.694Zm8.063-5.732.348-1.27-1.465.996.573.253.544.021Zm3.196-6.328-.326-.203-1.204.785 1.351.407.18-.989Z" clip-rule="evenodd"/><path fill="#0D8D98" fill-rule="evenodd" d="m32.01 81.235.326-.51 1.615-.01-.733-2.427 1.797.508-.797-2.572.062-1.278 1.02 2.873 3.159-.623 2.417-2.64-.524-2.312-1.632.323-1.95-.166.765-.407s2.223-.458 2.248-.462c.024-.004 1.121-.562 1.121-.562l-.45-2.153 1.042.448.567-.343 1.67.496 1.196-2.242-1.856 1.21-1.317.217-.174-.733.992-.959 1.142-2.577.1-1.986.765-.817-.194-.86-1.077-1.458-.194.816-3.274 1.99-1.94 1.78-3.19 1.364-1.372.87 1.379 2.628-.605.268-1.737-2.645.6 2.375-1.314.388-.346-.558.548-.57-2.095-.617-.897 2.923-.814.881 1.128 2.357 1.826-.404.299.419-3.015 1.197.16 1.005 1.79 1.18 2.183.743.046.655-2.126.19-1.917 1.767-.792-.554-.443.136 2.155 3.502 2.657-2.064Zm100.148-60.798.706 1.914 1.033-1.176-.735-.897-1.004.16Zm2.381-4.833 1.427-1.846-1.865 1.026.438.82Zm.912-7.654 1.783.34.414-1.834-2.239.097.042 1.397Zm2.062-7.463L135.862 0l-.996 4.258.909.617 1.738-4.388Z" clip-rule="evenodd"/><path fill="#0D8D98" fill-rule="evenodd" d="m132.486 11.87 1.3-2.204-.915-2.79 1.259-1.005-.229-2.582-1.624.114.266 2.229-1.529 1.582-1.18-.967-2.263 1.066-1.038 2.168c.009-.02-1.279-.852-1.279-.852l-.943 2.649s2.608.517 2.626.514c.018-.002 1.075 2.076 1.075 2.076l-1.337.391.939.67 1.887.006-1.047 1.127-1.768.075-.793.926.004-1.154-1.278 1.083-1.566-.261.46 1.838 3.046.852-.896 1.097.91 1.264 1.24-2.182.928 1.218.772-1.133.327 3.28-1.591 6.802.481.055 1.284 1.893.315-3.071-.463-1.626 1.414-.224-.429-2.16.909-2.507-.841-2.56-.485-1.058.212-1.013.801 1.56 1.251-.98.566-4.91-2.799.475 2.021-1.772Zm-27.822 30.09.822-.453-1.61-1.198-1.035 2.426 1.427.348.396-1.124Zm.962-4.623.991-1.489-1.684.426-.642-.082-.859 1.407-.337 1.618 1.801-1.731.73-.148Zm-6.787.123.715-.113-.579-3.019-.419-.47-1.64 1.072.04 1.38 1.657-.334.226 1.484Zm-.49 2.52-2.12-1.296-.295 1.411 1.761.787.654-.901Zm1.613 4.908.369.033.606-1.408-.178-.685-1.742 1.369.945.69Zm-1.108 4.318-.56.66.89.503-.33-1.163Zm-2.848 2.072.346-.865-.75.38.404.485Zm2.42 2.453.525-.926-.162-2.373-1.384.274.724 1.44-.499 1.212.796.373Zm-4.995-1.351.51-.735.11.752.868-.792-.373-.37-.553-1.822-1.448-1.01-.786-.91-.597.28-.689 1.37 1.944 2.446 1.014.791Z" clip-rule="evenodd"/><path fill="#0D8D98" fill-rule="evenodd" d="m92.968 46.905.513-.713.822 1.655.754-.07 2.681-.947 1.102 1.765 1.551.773.271-1.013 1.55-.306-.026-1.775-.844 1.041-.494-.014-.041-1.87-1.45 1.285-.548-.466-.075-.97-.682.796-.19-.737-1.787.111.367-1.175 1.349-.808-.938-1.502-2.502-.18-.236-1.104-1.88.255-.387 4.079.507 1.858.613.032ZM59.745 67.642l-.663-.392-.155.35.659.38.159-.338Zm-1.975 8.75-.68.086.234.368.613-.137-.167-.316Zm-1.258-1-.797.088.266.66.65.005-.12-.753ZM36.47 105.036l-.557-.494-1.431.741 1.525.054.463-.301Zm2.716.204-.778.374-.252.546-.985.74.268.832.532.141.273.957.562.499.634-.078.92-.83.148-.937-.518-.64.383-.213-1.187-1.391Zm1.915-3.139-.483.622.051.661.302-.318.42-.241-.29-.724Zm-1.133 10.712.404-.126.093-.358-.788.15.29.334Zm1.01-2.361 1.057 1.224.262-.582-.62-1.387-.699.745Zm5.06-20.501.528-.396-.05-.465-.73.504-.322.54.205.63.45.01-.08-.823Zm-1.164 7.096.236-3.587.43-.294.227-1.122-.48.173-.205.772-.428-.098-.377.819-.351.257.257 1.267-.249.601s.371 1.092.358 1.094c-.012.002.582.118.582.118Z" clip-rule="evenodd"/><path fill="#0D8D98" fill-rule="evenodd" d="m51.007 99.515-1.094-.474-2.878.787-1.673-.968.518-.19.566-.424-.538-.931-.582-.14-.404.323.301.584-.123.429-.576-.336-.557.268.044-.732-1.316-.48.7-.303-.386-.784.155-.96-.826-.981-.354.056.17-.52.483.057.222-2.383.559-1.424-.266-1.736-1.784-3.004-.867-.699-.408.148-.448-.192.098.753-.955.578-.182 1.377.407.14-.351.969.585-.096-.525.709.2.66.409.405-.061.49.527.431.11.636-.295.217-.942-1.517-.45.746-.203-.73-.337.568-.37-.025-.082-.628-.77-.318-.139-1.016-1.008-1.39-.386-.164-.336.734.186.569-.527.442.114.391.861.078.184.788-.33.32-.291 1.194.477.687-.978-.115-.123-.585-.846-1.492-.48 1.916-.48-.367-.158.772-.475.357.12.504.694.423.046.68 2.478 1.637.495-.1.039-.86-.203-.89.638-.208.206.813.657-.65.324.185.022.662-.397.171.503.398.696-.11.254.496 1.016.53-.251.47-1.2-.932-.914 1.183.29 1.246.621.431.048.553.62-.15-.268.739.43.771.712-.24-.264 1.303 1.34-.305.787-.428.53.222.364-.658.409.155.159.653.323.367-.342.813.277.368.57-.186.794-2.347.54.048.182 1.226 1.09-.167.08.583-.637.172.05.416-.626.068-.365.393.128.553-.42.211.253.564-.539.346.111 1.187 1.351-.04.493-.735 1.306-.807-.061-.734.57-.122.726-1.477-.372-.586 1.436-.023 1.365-2.26ZM32.18 119.563l-.859.326-.123.497.475.222.897-.531.635.167 1.914-1.011.77-2.505-.637.073-1.687 1.474-.665.065-.096.793-.624.43Zm-2.017 2.409.715.226.121-.504-2.954-.106-1.428.299-.15.193.037 1.957.82-.129-.008.615.63-.083.174-1.159 1.44-.446.603-.863Zm6.02 6.835-.353-.349-.45.409.802-.06Zm3.807-5.057.105.387.977-.304-1.683-.8-.81.423.55.08.206.445.655-.231Z" clip-rule="evenodd"/><path fill="#0D8D98" fill-rule="evenodd" d="m41.718 118.208-1.453.23-.189.5.12.881-.588.146-.432-.647-.34.368-.712-.202.1.782.423.051.037.362-.79.714v.691l1.934-.115.365.584.616.034.076.891 1.305.354.359-.511.961.008.016.618-.827.348-3.038 2.802 1.123.391 1.174-.656.638.026.627-.512.202.503-.633.759-1.044.19-.223.436-1.334.08-1.318-.166.224.666-.942-.345-.14-.622-1.023.021-.146.555.116.745-.473.122-.157.456.725.147.343-.246.306.223-.2.345 1.17.223.438-.961.232.332.337-.364.861.509.37-.442.945-.375.052.585.554-.051.996-.824.806.081 1.043-1.322.038 1.395.533.203 2.462-1.379-.435-.438-.551.066.183-.744.39-.058-.122-.818.496.432-.046.686.954-.188-.094-.545.4-.272-.46-1.206-4.739-2.104-.442-1.79-.796-1.198-.419.078-.275-.43.37-.312-1.039-.776Zm12.039 37.044.384.059.177.602.698 1.237 1.355.466 2.146-.434-.134-.842.367-.808-.32-1.02.395-.548-.373-.753-.907-.159-.104-3.096-1.117-.806-.054-.344-1.141-.311-.388.513-1.178.692.012.522-.45.801.22 1.629.57.71-.213.701.055 1.189Z" clip-rule="evenodd"/><path fill="#0D8D98" fill-rule="evenodd" d="m116.791 90.181-3.03-3.596-2.056-.316-.646.923-1.277.16-.956-.486-.663.507-3.421.226-.51-.518-1.522-.229-.534.43-.347-.315-1.313-.317-.684.337-.678-.714-.88.115-.424.882-.903-.147-.494.59-1.455-.269-3.98-1.73-1.95.742-.762.046-1.68 2.218-.852-.62-.654-.476-1.395 1.165-3.635.947-.498-.367-.956.572.138.91-2.143 2.193-1.51.003-2.263-.512 1.71-.265.697.249.48-.601-.33-.8s1.192-.06 1.195-.041c.01-.002.231-.654.231-.654l1.01-.198-.148-.773 1.152-1.214.59-.933-.94-.264-2.622.39-3.254 2.96.42-1.616 3.206-2.484.753.375 1.004-.894 1.603-.753-.393 1.075.38.452.805-.127L82 84.227l1.048-2.456-.644-.152-1.15 1.151-.47-.937-1.69.829-2.302-1.118-2.25-.243-1.567-2.073.32-.28 1.768 1.93 1.656.01 1.465.646 1.752-1.803-1.255-1.505 3.082-1.043 3.77-3.18.636-1.187 1.034-.163 1.813-1.77 1.862-2.751 1.15.101-.08-.698.974-.036 1.247-.89.58-.986.794-.422.069-1.326.768-.709-.106-1.138-.557-.307-.582-1.563.94-.834.393-1.186.188-1.278-2.46-.635-.181-.552-3.615.25.537.972.572.206-.347 1.092-2.833-.558.176-.498-1.075.023-2.988 1.943-3.575-.584-.297-.706-.575.276.05.665-.636.33-.207-.443-1.086-.136-.178.873-.918.035-.357 1.075-.713-1.023-1.498.274-.624 1.464-1.404 1.414-.085-.456.82-.92.21-1.96-.932-.878-1.322-.037-1.562 2.614-1.289 1.115-.226-.51 1.563-1.922-.21-.898-.836-.288-.32-1.28-.56.342-.073 2.37-.58.06-.168-.933.287-.96-.964-1.14-.994.157-.63-.413-.499.06-.42 1.355-1.28 1.716-.405 1.194 1.883 1.075-.114.608-.591-.387-.633.167.213.837-.242.465s-.653-.523-.66-.532c-.014.003-.812 1.293-.812 1.293l-.267 1.181.816 1.58.788.375 1.768 1.057-.701.221-1.602-.903-.61.492-1.02-.108-1.764.486-.219-.522-.807-.542-.286 1.009.43.386.616 1.78.968.517-.724.57.192.903-.25 1.105-1.09-.278-1.145-.95-.399.558.374 1.494.788.086.962.829.112 1.125.7.164 1.261.832-.585.509.675.492.76.837-.532.084-1.25-.901-.637-.06-1.318-.635-.65.032.011.61 1.245.35.073.503 1.004.764.203.552-.748-.122-.714-.89-1.659-.577-.756.993-.959-.126-.185-1.132-.617-.706s-.697.061-.706.06c-.01.001-.197.612-.197.612l-.481.403.505 1.196.793.253-.014 1.442-.766.618-.824-1.179-.425-1.776-1.915.23-.178.89s.476 1.418.477 1.428c.002.008-.529.682-.529.682l.824 1.04 1.042-.165.372.935-.341.526-.56-.352-1.504 1.677.058.457.635-.175.7 1.053-.181.369.763.867.881.46s.692-.073.701-.075c.01-.001 1.115.213 1.115.213l-.654.608-1.005-.086-.686.8-.501-1.319-.897.163-.38-.792-1.152-.209-.706 3.084.713 1.11-.114 1.841s.57 1.092.572 1.103c.002.013 1.018-.07 1.018-.07l.874-.496 1.223-1.569.157 1.28.495.857-1.482.32-1.42 1.39.12.62 1.445-.237.881.4 1.228-.228 1.023.875.675 1.005-.72.073-1.217-1.351-1.938.907.088 1.029-.984.64.144.937.859.075 1.105.462.527 1.259-.705.095-2.69-.669-1.082 1.756.758.663.895.093.398 1.023.663.274 1.33-.153.034.423-1.844.428-1.436-1.469-1.876.276-.128 1.358-.535 1.048.134.568-.987.206-.377.483.86.297 2.737-.585.196.454-1.03.62.8.614-1.866.579-.776.552-.101.975.582.678-.312.354-1.877-1.218.08.531-3.577.027-.924.969.43 1.336 1.047.271 1.148-.602.384.573 1.422-.019.464.354 1.267-.229.346.29.376-.404.302-.031.102-.375.346-.018-.058-.327s.67-.09.676-.085l.303.271.372-.05.666.758 1.413-.199.575.238-1.436.319-1.03-.134-1.13-.471-.302-.026-.17.339-.84.429-3.095.482-.007.636s.368.394.371.418c.004.024.611 1.509.611 1.509l1.464 1.053.697-.036 1.667.617.423.798.617-.016.374-.611 1.225-.507.848-1.221.322-1.096.74-.175.621-1.029.509.29 2.892-3.018.249-.88.763-.499.826-1.251.444.193-.786 1.451-1.336 1.734.092.479.671-.295.395.769-2.189.519-.516.288.373.525-.57.676-1.224 1.453-.273.862.595.524-1.819 1.185.002.407.69-.13.614 1.007-.873.121-.936.84-.395-.122-.797.776s.356.784.359.802l.103.846-.737.311-.352 1.061-.4-.727-.615.654.133.923-.757 1.009.275 1.184.385.28.265-1.653.938-.488.458.23.76-.441.232.444-.92.695.205.666-1.523 1.451-.381 1.227.452.077.212-.502.93-.969.306.254-.578 1.116.057.831-.596.385-1.912 2.588-.862 1.439s.278.549.275.568c.02-.004.708-.656.708-.656l.9-1.828.733-.375.039.555-.637.515-.301 1.153-1.18 1.539.002.642.714-.186.526-1.017.45.3-1.32 2.339-.28 1.249.918.435-.238.643.497.514 1.394-1.129 1.184-1.515.263.366s-.834 1.7-.851 1.703c-.018.003-1.599 1.019-1.599 1.019l-1.822 1.987-.01 2.089-1.125 1.771.181 4.232-.884.171-1.035.818-.089 2.448 1.655.745 2.181-.389 1.197-1.789-.737-1.761 1.444-2.495.236-1.637.62-.27-.06-.893 1.212-4.385.562-.718 1.077-.164.247-1.368-1.716-2.5-.745-4.042.572-.142.673.455.898-.779 1.914-3.093.815-.408.26-.634 2.46-2.76.26.422 1.603-.909-.082.538-1.58 1.325-1.065 1.614s-1.272.528-1.303.533c-.03.005-1.881 2.397-1.881 2.397l-1.322 2.136-.107 1.666.574 2.645.602.436.886.125-.169-1.968.32-.452-.074-1.322.378-.079.33.72.713.468.699.815.323-.23-.48-1.845.492-.145.739 2.193-.265.912 1.413.234.51-1.625.683-1.201-.26-.626.57-.318-.035-1.385.24-.958.444.461-.098 1.145s.548.797.557.814c.009.018 1.16-.455 1.16-.455l-.921-.892-.205-1.412.406-.096.514 1.604 1.091.675.48 1.109 3.15 1.157.934-.013 1.017 1.467.051.074-.368-.015-.961-.83-.868-.159-2.974-.548-2.188-1.068-.947 1.886-.705.247.148.637.595 2.561-.18 1.518-.772 1.665 1.294 1.944.965.113 1.861 1.929-.484.731.333.232.738 2.149-2.579 2.218-1.37 3.705-.494 1.968-1.6 1.322-2.348 4.49.483 1.26.308.801-.08 1.563-.497.393-.416-1.107-.23-2.038-.77-.046-1.063.638-.362 2.447 1.27 2.461 1.582 1.614.994 1.974-.198.939.997 1.762.8-.12c.018-.003-.599-3.067-.599-3.067l-.14-2.689 2.327-1.338.836 1.523 5.474 4.518 1.042.361.78-.63-.235-1.679.656-1.643s-.333-.268-.336-.285c-.003-.018-1.45-2.267-1.45-2.267l2.13.776 2.269 1.647.335.664 1.194.508.983-.254 1.707.452 1.435-.993.37-.479.829-.279.06-2.17.884 1.089 1.684-1.057 1.745.114.068-2.958 4.947.266 4.55-.465.263-2.194 2.473-.699 1.077-1.096 3.053-2.349 2.355-3.676.822-.636.734-1.074 2.514-.398-.186-.94 3.106-2.331-3.056-5.211.987-.452.964.212.491-1.196 2.358-2.831.664-1.241-.093-.628-.458-.31-.187-.949-.808-.605-.221-.723-1.203-.558-1.622.355-.483-.7-.561-.051-.011-.001-2.289-1.774-3.485-2.173-2.37.098-3.04 3.483-1.512.239-1.148-.72-.511-.568-1.463.232-2.024-.538-1.145.243-.196-.078-1.397-.553-2.968-.16-1.332-1.994.123-.021.619-.108.031.014 4.663 2.046 1.096.037.188-.617 1.29-.137.725-.867.605.422 1.164-.4.098-1.294.765-.918.743-.118.686-1.071 1.266-1.158 1.53.783 1.855-.293 1.177-.705.892-.234 1.017-1.291-.315-1.006-.997-.861-.998-.269-1.4-3.36-1.962-.381s-.243.49-.261.493c-.546.155-1.091.311-1.636.468l-1.466.794-1.45 1.211-1.144.332-.077.022-.012-.671 2.446-2.116 1.372-.878 1.072.099.58.054.756-.669.693.346 1.522-.636.929.545 3.179-2.887.166-.398 1.083-1.183-.129-1.715.998-.584.377-2.157.038-.225 2.756-2.462.903-1.612.805-4.265.851-.888.773-1.902.016-.038.048-3.293 1.21-2.248.982-1.822.163-.891.65-.43 1.322-1.47.472-1.124-.198-.666.479-.607-.872-2.574ZM31.746 181.305l.546-1.667.051-1.076.041.037.527.472.59 1.159 1.31-.718 1.397-.05s-1.063 2.986-1.079 2.989c.007-.001.5 1.213.5 1.213l-.594.731-.87 1.069-.11.249-.078.177-.393.89-.615-.519-1.113-.429-.95.45-1.176-.445-.02-.008.12-1.474.131-.168 1.443-1.835.308-.945.034-.102Zm17.475 2.992-.193-1.26.234-.264-.666-.828-.03-.002-1.246-.104-.713.124-1.334-.522-1.75.925-.212.379-.008-.007-.397-.331-.691-.199.212-.922.688-.089.873-.837.949-.464 1.214-.699.293-.638-.015-.082-.454-2.412-1.166-.124-.508-.518.006-.433-.47-.395-2-2.979-.079-2.438-1.374-.701-.077-.329.49-1.614-1.734-2.896-1.672.66s-.44-.333-.442-.352c-.003-.016-2.035-.898-2.035-.898h-2.62l-.484.515-1.093.364-.29.096-1.61.255-.281.408-2.13.284-.302.04-1.923.002-1.15 2.311-.595.835-1.753.258-1.94.005-.04-.249.036-.013.015-.005-.101-.305-.102-.305-1.05.382-.27-.273-.724.402-.992 1.303-.023 1.798-.942.093-.056 1.887.05.314-.296.992-.363.058-.16.424-1.123 1.026-.715 1.033-.29.058-1.641.327c-.03.005-.04.006-1.804.55l-.806-.872-1.762 1.058-.123 1.677.448.248.846.99.619-.184 1.79.279.062.471-1.65.563-.918 1.348-2.975-.497-.752 1.146-1.26.873-.154.286-1.43-.199.12.752 1.072 1.596.995 1.87 1.103.983.543 1.052 1.08.193.159.106.094 2.612 1.708.658 1.648.437.956.436.099.543 1.751 1.04.886.316 1.042-.582.66.522.692.195.5.375.446-.373.029.148 1.216-1.081.39-1.625.918-.449c.1-.013.357-.04.587-.063l.343-.035-.341-1.966-.645-.683.303-.914.65.169 1.51-1.882.728-.741c.63.356.931.526 1.094.604.076.069.422.415.753.752l.041.73.389.212.356.51-.409 1.197.117.903.718.214.24 1.267 1.76 1.82.39-.704.269-.168.523.583.201.798-.697 1.636.243 1.084.55 1.449.967-.576.16-.295 1.563.1.103-.157.324-.502c.207.175.504.429.776.664l.192.166.838-.605.322-.988.629.781.786-1.093.482.368.968-.153 3.13 2.36.422-.751.751-.081 1.037-1.079.802-2.606.024-.078-.17-.961.658-.858.547-1.185-.041.988 2.891.826.621-.974 1.699-1.652.397-.062-.621-1.704-.337-.65-1.588.553-.351-.265.88-1.059.363-1.323-.573-.464-.04-.223-.084-.443.388-1.018-.704-.469-.18-.99.113-.252.408-.188 1.871 1.388.7 2.624-.23.648-.313.086.5 2.488.269.57.96-2.023-.183-1.384.331-1.762-1.104-3.041Z" clip-rule="evenodd"/></svg>
