<svg xmlns="http://www.w3.org/2000/svg" width="77" height="96" fill="none"><path fill="#8CE2D0" d="m58.288 67.248-.123.05-.445.031.145.096v.004l-.145-.1-.087.241-.095.073-.086.073-.123-.096-.082.146-.377.095-.059.223-.063-.041-.323.15-.09-.023-.11-.05-.454.277-.05.05-.1.046-.255.077-.363-.1-.16.132-.422-.287v.491l.114.345.132.314-.182.313.045.341.096.16-.068.2-.132.217-.055.186.51.196.026.286.1-.032.069.146.204-.028.268.137.06.054-.033.164.305-.041.322.313.1-.036.11.236-.219.491.01.327.063.014.177-.141.164-.436.263-.282.16-.01v.205l.226.155.064.218-.123.109.096.109.222-.227.096.036.322.305.019.322h.181l.132.218.327-.24.118-.291.268-.05.01-.16.122-.104.15.01.082.122.036-.06.132.07.145.585.169-.254.1.231.436-.013-.023-.364.327-.222-.005-.237.187-.004.14-.409-.058-.354.145-.01-.14-.259.058-.35.087.037.072-.24.3-.182.132-.423-.073-.145.023-.087.163-.072-.036-.11.154-.027-.059-.181.082.004.037-.159.05.173.1-.005.009-.227.558-.15h.119l-.228-.395-.218.032-.222-.555-.155-.027.1-.109-.122-.145-.291-.219-.232.114-.036-.004-.573.05-.095.036-.36.132-.026.136-.16.009-.322-.168-.195-.195.031-.141-.372-.132-.01-.55-.935-.154Z"/><path fill="#8CE2D0" d="m52.59 59.383-.363.059-.432.4-.113.059-.037-.127-.177.09-.077.232-.155-.086-.059.232-.172-.014.036.173-.509.109-.068.19.163.037.014.186.223.132.163.304-.081.132-.228.05.105.16-.182.176-.086.182-.096-.045-.177.154-.218-.336-.109-.514-.113-.09-.155.168-.727-.037.155.155-.35.027-.582.286-.136.368.209.087-.182.309-.29.063-.119.182-.2.082-.445-.141-.4.118-.063-.168.1-.39-.341-.592.145-.422-.204-.027-.027-.11.472-.181.236.014-.818-1.127-.168.531-.177-.013-.259.272.218.023.132.255-.273.118-.39-.378-.278.078.069.25-.3-.06-.232.473.041.205-.236.986-.055.081-.136-.072-.155.077.082.168-.304.132-.196-.064.087.1-.205.24-.531-.508.036.377.073.1.227.032.173.282-.296.25.123.363-.255.04-.081.314-.196.182.11.245-.1.25.09.277-.04.21-.373.326.19.205.132.486-.09.264.104.209.282.218.095.195-.136.06-.241-.137-.14.268.072.295.327.291-.127.2.063.1-.231.173v.336l-.01.013.146.219.214-.11.077.073.445.85.182-.11.013.469.246.427.35.336-.023.368-.382.036-.059.11.087.109.095-.028-.032.232.423.373.181.036-.05.209.155.14-.127.291-.291-.145-.055.355.137.317-.028.146-.2.09.023.328.105.004-.06.191-.086.05-.327-.159-.3.041-.254.564-.568.05-.036.172.25.205-.032.195.154.304.027.055-.086.454.373.155-.11.4.091.227-.063.581.023.137.331.145-.054.1.077.145-.114-.027-.059.05.087.073-.232.05.095.254.164.073-.164.313h.005l-.036.069-.123-.073-.264.222-.15-.072-.131-.078-.305-.35-.34-.013-.468-.218-.15.086-.205-.372-.177.081-.21.319v-.35l-.122.109-.413.032-.218.245-.073-.123.014.191.35.259.472.704.318-.231.314.072-.06.373-.081.132-.173-.023-.063.109.04.05-.095.327.032.123.209.05.218-.146.059.346.118.1-.132.1.005.263-.087.082.096.186-.027.068.181.218.019.223.372-.232.096.246-.05.254.631-.064-.109.232.509.082.75.318-.118-.1.24-.073.246-.231-.11-.046.16-.082-.091-.304.159.154h.181l1.023-.336.068-.04-.082-.083.486-.027.396-.504-.032-.086.018.086-.118-.014-.014-.118.077-.013-.2-.028.041-.177-.072-.109-.187.032.078-.086-.241-.091-.454-.655-.605-.236.077-.068-.036-.218.105.268.159.118.118-.064-.046-.068.01.005.036.063.39.282.014-.073.045.182.064-.377.168-.086-.132.127.014.236.182.146.527.49-.036-.427.163-.059-.054.618.622.364.304.118.273.327.477.24.29-.254-.29.077.24-.186-.072-.127-.132.036.132-.072-.227-.305-.114.037.041-.196-.231-.05.218-.095.268.122.145.014-.05-.127.146-.036-.028.136.173.145.05.06-.159-.033.082.178.027.095-.218.05.023.24.209.219.59-.164-.009-.145-.127.095-.01-.304v-.354l.074-.055.122.145.01-.418.036.15.186-.013.2.136.073-.114.418-.022-.019.204.146-.05.077.086-.014-.195.191.018.027.323.16.109.109-.25-.06-.209.119.01-.014.185h.1l-.173.228.26.136.236-.204.05-.26.063.05-.172.414-.191.086-.341-.122-.264.409-.109.027.032-.137-.045.137.758.413.582.482.309-.554-.077.104-.11-.168-.145.027.05-.136.21-.023.09.182.509-.318 1.6-.386.195-.037.872-.036.754-.145.823-.264.304.023.323-.05.586.072.213.046.31.163.14-.063.545.182.695.245.291.104-.004-.104.654.363.268-.018.681.291.455.005.763-.986.377-.35 1.25-.41 1.054-.294.372-.2.2-.019.614-.677.44-.25-.027-.054.836.091 1.2.145.072-.109-.204-.781.268-.882.781-.681 1.19-.25-.095-.06.337-.326.472-.055.327-.2.26.019-.124-.164.627-.345.196-.382-.023-1.104-.023-.064-.368-1.14-.204.173-.037-.014-.008-.095.177-.096.013-.182.118-.077.364.073.086-.127.023.09.159-.517.05-.305-.086-.159-.073-.032-.105-.063-1.08.259-.9.059-1.404.24-.487.06-.204.231-.604.118-.46.064-.076.096.013-.119-.327-.168-.509-.018-.481-.054-.1.145.059-.463-.386-.255-.105-.209.145-.095-.163-.01.127-.063-.309.073.1.172-.095.023.068.182.163.095-.04.087-.182.072.072-.204-.159.013-.163.31-.114-.291-.195-.046-.055.096-.15.013-.068.155-.172-.11-.341-.127-.25-.236-.005.01-.154.2.14-.255.746-.096.145-.1-.072-.081.163-.282.21-.06.1.087.03-.077.087.236.35-.05.096-.122-.037-.264-.213-.195-.282.013-.118-.077-.44.059-.3-.14-.028.081-.082-.073-.204.05-.073-.086-.777.1-.095.25.095.04-.132.014.05.132-.754.214-.568-.096-.1-.227-.409.19-.572-.408-.132.422-.3.182-.072.241-.087-.036-.059.35.14.258-.145.01.06.354-.141.409-.186.004.004.237-.327.222.023.364-.437.013-.095-.231-.173.254-.145-.586-.132-.068-.027.059-.09-.123-.15-.009-.123.105-.01.159-.268.05-.118.29-.327.241-.132-.218h-.181l-.019-.322-.322-.305-.096-.036-.222.227-.096-.109.123-.11-.059-.217-.232-.155v-.204l-.159.009-.263.282-.164.436-.177.14-.064-.013-.009-.327.218-.49-.109-.237-.1.036-.322-.313-.305.04.032-.163-.059-.054-.268-.137-.204.028-.069-.146-.1.032-.027-.286-.509-.196.055-.186.132-.218.068-.2-.096-.159-.045-.34.182-.314-.132-.314-.114-.345-.218-.082-.204.21.195-.21-.172-.518.077-.181-.064-.182.146.036.013-.15.06.037.095-.123-.06-.11-.136.02.005-.05-.218.03.013-.263-.195-.231.123-.182-.037-.177-.09-.087-.091.069-.146-.255-.254.077-.6-.327-.177-.377.045-.123-.24-.322-.146.045-.218-.377.277-.25.205-.013.09.14-.077.128.282.395.195.036.141-.104.509.2.24-.395.037.072.091.032.06-.11-.464-.612-.25-.078-.114-.154-.313-.014-.21-.231-.19.027-.1-.146.182-.522.122-.032-.022-.195.1.009.081-.218.073-.05-.168-.436.177-.182-.073-.118.1-.082-.027-.218-.254-.182.354-.513.245-.182.132-.3-.159-.363-.268-.064-.068-.232.104-.036.023-.423-.154-.109-.246-.095Zm-6.093 22.004.014.032.027-.023.01-.023.009-.059-.032.087-.027-.014Zm-2.557 1.672.15.068-.064-.045-.086-.023Zm22.88-12.181.055.159-.127.218.127.123-.145.1-.11-.078.1.205.341.195.032.296.368-.028h.01l.353.096.182-.023.395.145.523-.327-.518-.663-.768-.114-.345-.204-.473-.1Zm-.767.4-.05.077.29.045-.054-.122h-.186Zm.258.172-.245.082.073.145h.232l-.06-.227Zm-1.254.11-.031.081.218-.018-.186-.064Zm-15.106 9.486-.178.123-.072.459-.305.036.037.154.85.128v-.15l-.219.095.073-.095-.15-.01.136-.208-.168-.032-.04-.091.1-.01.067.028.055-.259-.186-.168Zm.295.064-.018.236.309.186.036-.218-.04-.168-.287-.036Zm-1.577.168-.04.118.072-.023-.032-.095Zm-2.04.881-.204.037-.327.413-.568.218.24.046-.177.027-.109.172.023-.172-.086-.06.05-.004-.1-.032-.446.278-.313.059-.036.04.009-.054h-.182l-.264.454-.381.25 1.022-.068.377.364.6.263.959.823 1.104-.373.254-.84.255-.192.363-.059.277-.295-.123-.168-.263.014.05-.096.045.023-.118-.373-.509-.181-.513-.019-.09.064.058-.109-.254-.086-.087-.132-.29-.227-.16.032.096.55-.182-.587Zm-2.544.877.018.096.023.009-.041-.105Z"/><path fill="#8CE2D0" d="m41.85 60.81-.21.1-.227.436-.063-.11-.123.205-.145-.104-.068.109-.2.036.109.109v.154l.282.16.086.204-.132.377-.223-.086-.508-.51-.178.233-.195-.123-.318.027-.532.495-.109.014-.109-.173-.24.064-.26-.073-.3.25-.086-.109.11-.34.231-.164-.173-.127-.272-.069-.091.046-.096.086.037.314-.105.05.227.363-.159-.05-.045.146-.35-.082-.304.459-.186-.037-.291.028-.118-.15-.137.004.005-.472-.26-.123.014-.123-.422.146-.05.245-.14.036-.233-.05.023-.254-.277-.023-.023-.145-.127.018-.127.186.2.255-.237.213.023.273-.086.054.35.146-.01.377.178.145.073.35-.255.064-.213.195-.205-.077-.232.382-.477-.014-.022.19-.182-.108-.24.277-.11-.068-.136.268-.11.054.014.187-.181.118.077.145-.11.4.178.24-.105.273-.15.082.187.41-.15.072.136.1-.023.218.155.118-.264.077-.027.096.196-.028-.137.282.1.027.023.237.082.127-.091.181.386.091-.354.5-.11.464-.445.568.191.263-.3-.177-.036.168-.404-.04-.264.149-.8.836-.072.304-.314.264-.218.073.023-.11-.436.146.172.086.01.132-.05.173-.278.118.118.109-.036.59-.082-.14-.409-.132.241.14-.113.864.186.336.036.314-.172.259-.123.254-.24.087.217-.173.11-.318-.096-.01-.232.242-.24.027-.56-.16-.486.169-.218-.032-.75.336-1.272-.063-.395-.41-.259-.013-.254-.254-.468-.146-.355-.009-.427.241-.104-.118-.895-.173-.477-.082-.168-.136-.269.232-.358-.073-.428.168-.336-.136-.327.195-.704.028-.1.145-.486-.182-.096.105-.25-.037-.563.223-.236-.059-.11.168-.185.032.186.159-.064.422-.064.11-.395.013.227.16-.022.204.172.05.06.668.24.177.096-.023.004.282-.186.236.077-.332-.195.037.023-.15-.096-.06-.209.373-.204.05-.446.604-.39.137-.355-.023-.495-.39-.45-.142-.554-.027-.1.21v.69l-.2.409.046.172-.087.037-.159.35.091 1.063.095.113-.122.018-.06.746-.73.481-.024.136-.19.019-.023.368-.273.181v.132l-.468.173-.095.2-.073-.091-.222.104-.037.241.077.027-.136.482-.268.377-.373.077-.168-.109-.209.046.023.1-.19.104-.232-.045-.096-.168-.172.118.195.181-.168.173.036.314-.086-.073-.146-.114.014-.204-.363.413-.532-.136-.036.064.154.109-.073.377.087.095-.114-.009-.154.177.118.064-.023.227-.082.55-.145.263-.11.01.119.036-.304.15-.155-.182-.027.195-.25.019.168.054-.173.073-.09-.077-.014.113-.114-.063.028.263-.137-.018.1.227-.095.464-.282.072-.213.314-.355.013-.009.291-.182.286h-.04l-.232.114-.127.2-.137-.023-.35.34-.377.014-.063-.1-.168.05-.023.291-.409.45-.018-.023-.327-.109-.055-.309-.1.064-.132-.086-.413.036-.554.413-.091-.081-.314.395h-.445l-.413.604.195.596-.304.317.05.182.181.073.068.264.123.058.26-.14.108.068.191-.168.427.013.155-.168.086.05.24-.45-.154-.29.191-.11.086-.186.618.073.336.304-.009.132.146-.045-.028-.06.35.05.2.205.25-.036.173.168.05-.046.359.468-.032.21.204.168-.059.063.105.127-.123.332.123.068.072.34.269.078.027.182.313-.041v-.254l.264-.414.413-.036.21.09.108-.181-.04-.173.281-.122.132-.278-.096-.24-.113-.023.04-.268-.376-.064-.073-.122-.155.077-.05-.087-.109.028.032.145-.068-.127-.254.1-.277-.073.49-.036-.104-.1.068-.205v.255l.195-.032.073-.195.073.022-.11.16.296-.05.118.072.19-.145-.14-.314.3-.231.145-.064.123.073.19-.327.055.268.082.15.29-.187.11-.531.173-.264.25-.064.145.173.595-.6.473.1.109.196.063-.182.182-.11-.04-.13.185-.123-.181-.137v-.132l.095-.136-.027-.177.182-.16.113.028-.127-.345.109-.164.309-.09.004-.01.2-.027.014-.132.104.014.132.159-.045.286.122.1.06-.145h.145l.227-.232.014.064.077.009-.164.063.05.087.268-.055.082.077.21-.131.399.154.377-.095.046-.11.24.082.246-.227-.132-.168.05-.113.082.231.145-.154.509-.055 1.054.164.568.431.005.314.145-.104.227.013-.123-.245.319-.146-.005-.254-.386.173.122-.196-.086-.077.114-.127-.028-.164-.109-.045.073-.046-.318-.063.073-.023.218-.223-.096-.118.06-.168h-.128l.241-.15.01-.163.135.19.155.182.059-.072.086-.137-.082.137-.063.086.036.036-.277-.073-.136.387.109.118.122.245-.031.082-.014.073.177.054.005.068.145-.095.196.05.022-.114.16.137.167-.337.169-.05-.264.323-.036.136.109.05-.341-.086.082.24.063.4.868.123-.418.087.236.213h.305l.073-.127.222-.073.323.06.145-.123-.023.122.046.141.209-.009.282.245.145.01-.018.122.236.214-.018.29-.127.005.49.409.327.114.1-.087-.009-.218.214-.1-.087.232.319.118.159.2.422-.309.245.077.169-.063-.187-.232.21-.882.3-.413.34-.109.159-.154-.086-.21.281.219.268-.178-.027-.186.146-.327.118-.032-.073-.123.218-.172-.314-.096.078.096-.064.063-.082-.113-.354-.068-.01-.568.228-.318.195.145.36-.145-.346-.3.073-.55.14-.336-.14-.077.14.018.282-.332.05-.286.418-.473-.2.146-.063-.727-.168-.268v-.282h.009l.113.114.069-.15.013.086-.009.096.327.695-.113.181.654.2.132-.218.49-.177.255-.477.213-.182.732-.168.881.005.168-.26.64.06.637-.237.059-.063.377-.241 1.5.377 1.344.832 1.245 1.008-1.086-.913.518.236.023.132h.127l-.036.095.313.119.3.418v.009l.16.118.217-.277.182.077-.19-.123.104-.095-.118-.05.104-.196.164-.154.163.032.727.022.146.11.886.15.386-.11.109.132.295-.014.118.114.114-.064.204.21.518.095.087.268.29-.2.755-.082.072-.209-.122-.031v-.137l.327-.386-.255-.06.073-.449-.077-.095-.25.24-.11-.072.074-.118-.173.163-.032-.154-.054-.023-.073-.077-.11.013-.045.064.014-.109-.223.168-.054-.059.286-.15-.086-.236.15.009-.087-.095-.281.122-.118.214-.16-.01.096-.281.15-.014-.145-.036.086-.132.218.037-.005-.196-.059.055-.05-.091.282-.01-.145.169.531.168-.245-.29.004-.11.146-.068.123.286-.078.11.332-.046.109.1-.04.073.185.095-.136.254.464-.427.576-.159.132-.022.827.15.082-.164.014-.055.295-.186.177-.009.11-.232-.632.064.05-.254-.096-.246-.372.232-.019-.223-.181-.218.027-.068-.096-.186.087-.082-.005-.264.132-.1-.118-.1-.06-.345-.217.146-.21-.05-.031-.123.095-.327-.04-.046v-.004l.063-.11.173.023.082-.131.059-.373-.314-.072-.318.231-.472-.704-.35-.268-.014-.182.073.123.218-.245.413-.032.123-.11v.35l.209-.318.177-.081.205.377.15-.087.468.214.345.014.3.35.132.077.15.072.272-.222.114.072.036-.068.159-.313-.164-.073-.095-.254.232-.05-.087-.073.06-.05.113.027-.077-.145.054-.1-.331-.145-.023-.137.064-.581-.091-.228.109-.4-.373-.154.087-.454-.028-.055-.154-.304.036-.195-.254-.205.045-.172.559-.05.254-.564.3-.04.318.167.096-.059.059-.19-.105-.005-.022-.323.2-.095.027-.145-.146-.319.06-.354.295.145.118-.29-.146-.141.05-.21-.181-.035-.423-.373.032-.232-.095.028-.087-.11.06-.109.376-.036.028-.368-.35-.336-.245-.427-.014-.468-.182.109-.445-.85-.077-.072-.214.109-.145-.219.009-.013v-.336l.231-.173-.063-.1.127-.2-.327-.29-.073-.296.141-.264.24.132.128-.059-.086-.195-.282-.218-.104-.21.09-.263-.14-.486-.182-.195.363-.337.05-.209-.09-.277.1-.25-.11-.236.196-.19.081-.314.255-.041-.123-.364.291-.25-.168-.281-.227-.032-.073-.1-.036-.377-.037-.082.505-.581-.06-.15-.386.122-.3-.131.055-.196-.163-.122.031-.214-.109.104-.177-.108.023-.423-.096.136-.113-.059-.177-.272Zm-2.381 22.717H39.487l-.005-.01-.009-.008-.013.009.009.009Zm2.435-.759.055.11.072-.11.146.11v.03L42.14 83l-.172-.041-.064-.19Zm-2.067.532-.136.072.209.1.118-.072-.191-.1Zm-.477.05.036.145.064-.05-.1-.095Zm-.69.081-.083.137-.004-.005.086-.132Zm-4.163 1.44.532.596-.095.74.286-.354.145-.213-.132-.278.064-.04-.382-.037-.418-.413Z"/><path fill="#8CE2D0" d="m39.941 43.108-.24.2-.123.323-.168.072-.268-.059-.118.264-.191.09-.34.024-.278-.296.018.49-.14-.05-.532.7-.341.4-.064-.059-.268.218-.127.028-.209-.041-.3.39-.34.119-.014.363.131.182-.118.114.046.145-.568.182.023.272-.45.164-.386-.246-.082.428-.295-.282-.25.145-.1-.118.027-.268-.11.01-.013-.146-.136.027-.104-.159-.405.168-.236-.154-.268.177-.078.222.11.214-.055.5-.254.009-.441.454-.377-.754-.41-.064-.035-.095-.4.209-.3-.204-.137-.282-.072.154-.268.078-.264.4-.377.045-.19-.082-.137.19-.045.387-.296.014.087.131-.168.091.24.191-.35.305.119.081-.169.368-.009.191h.019l.127.014-.078.168.405.204.309-.19-.023.29.136.123.06-.073.05.082.059-.073.1.11.072-.05.037.1.177-.06.059.155-.11.1.282.131-.045.123.105.046.122-.037.082.06.036.254-.168.013.005-.181-.223.1-.195-.073-.018.286-.237.24.005.255h.073l-.064.15-.068.291-.31.096.223.168-.131.027-.2.304.04.164-.276.209h-.218l.263.704-.245.118.05.11.45-.11.045-.073-.127-.095.068-.1.259-.068.236-.245.209-.06.195.355-.077.49-.3-.022.027.354-.8.023-.672.39-.168-.036-.34.36-.037.168.146.34.39.186.232.35.432.177.477.473.19.064.646-.16.195.087v.01l-.122.303-.332.123-.127.668.613.168-.268.155-.277-.082-.3.118-.123.1.037.195-.278.032v.364l-.29.159.068.304-.277.313.222.146.146-.132.118.118-.21.182-.417.09-.064.164.364.182-.01.182-.172.027-.036.39.34.455.046.164-.132.277.3.632.4.418.163.477h.314l.045.358.186-.018.746-.427.318.191-.173.123.2-.05.054.181.15.014.191.24.318.16-.1.232.386.463.187-.186.059.145.168-.082.036.178.268-.032.155.154.136-.268.11.073.24-.277.182.109.022-.195.477.018.232-.382.205.073.213-.191.26-.064-.078-.35-.177-.145.009-.377-.35-.145.086-.06-.022-.268.236-.213-.2-.255.127-.186.127-.018.023.145.277.023-.023.255.232.05.141-.037.05-.245.423-.146-.014.123.259.123-.005.472.137-.004.118.15.29-.028.187.037.304-.46.35.083.046-.146.159.05-.232-.363.109-.05-.036-.314.095-.086.09-.046.273.069.173.127-.232.168-.109.336.087.11.3-.25.258.072.241-.064.11.173.108-.014.532-.495.318-.027.195.123.178-.232.509.509.222.086.14-.386-.094-.2-.282-.154v-.16l-.11-.104.2-.036.069-.114.145.11.123-.205.063.109.228-.436.209-.1.177.272.114.06.095-.137-.023.422.177.11.11-.105-.032.214.163.122-.054.196.3.131.386-.122.059.15-.505.577.037.086.531.509.205-.241-.087-.1.196.064.295-.132-.072-.168.154-.077.136.072.046-.081.245-.986-.04-.205.23-.472.3.059-.067-.241.277-.087.39.378.273-.119-.132-.254-.218-.023.26-.272.176.013.169-.531.163-.35.314-.027.263-.118-.068-.268-.136-.096-.096-.259.177.05.114-.195.214-.096.159-.213-.073-.318-.105-.06.237-.39-.546-.205.028-.095.39-.254.455-.11.027-.077-.3-.563-.345-.618-.037-.064-.64-.845-.19-.113-.9-.523-.41-.277-.617-.29-.041-.196-.327-.214.054-.29-.113-.096-.046-.232.232-.108.045-.182-.1-.241-.359-.295.023-.11-.1-.095-.059.06-.304-.096-.191.063-.023-.368-.486-.14.145-.21-.045-.136.3-.518.154.087.11-.114.108.11.073-.083.077.06-.027-.11.24-.19-.03-.15-.174-.096.232-.254-.39-.364-.618-.154-.119.05-.013-.087-.205.11-.19-.137-.31-.24-.104.058-.132-.095-.09.086-.205-.1.023-.154-.241-.377.004-.168.237-.232.036-.509.609-.354.05-.495-.21-.219-.058-.081.086-.15-.095-.06-.078-.408.1-.073-.004-.15-.364-.527.05-.363-.554-.582-.282-.05-.509-.24-.05-.2Z"/><path fill="#8CE2D0" d="m33.303 11.877-.122.245-.273.095-.477.4-.372.05-.014.2-.132.055-.1.218-.313.218-.096.254-.168-.004-.232.145.032.16-.204.158-.845-.073-.023.087.25.181-.227.423.05.177-.123.11v.135l-.195.196-.246-.014.091.082-.195.086.118.096-.095.018.045.068-.214.027.032.146.114.009-.132.05.518-.046-.413.155-.337-.082-.277-.29-.418-.055-.145.136-.35.046-.264.354.037.109.313.145.191-.122.041.145-.132.168-.222-.023.05.278-.523-.346v-.004l.005-.06-.26.133-.29.354-.386 1.063-.023.713-.64.61h-.028l-.095.39-.496.654-.077-.018.114.636-.073.19-.4 1.187-.232.109.023.168.137.254.25.15.75 1.077.667 1.163.114.06-.005.876.931 1.536.173.013.118-.131.31.09.14-.177-.109-.209.173-.195-.05-.073.136-.227-.064-.045.082-.019-.059-.131.136.05.146.445.086-.082-.159.264-.095.5-.078-.037.05.168-.372.15.068.205h.114l-.055.727.195.313.246-.227.19.336-.045.132.06-.073.195.241-.205-.277.286-.24.364-.355.254-.541.16-.123v-.29l.045-.246.231-.24-.059.222.264.323.04-.05-.013.127.132-.014-.086.105.05.236-.037-.014v.205l-.086-.014-.118.21.204-.024.291-.268.223-.24.118.163-.023-.254.277-.432.595-.168-.209.213.064.205-.114.036.055.341.25.077.136.436.16.01v-.137l.117.027-.159.341-.177.132-.018.16.086.013-.263.181-.291.046-.268.554-.168.127.19.168.05.473.132-.059.028.082.05-.277.14.05.073-.019.223.146-.255-.055-.218.323.068.145.241.073-.109.077-.036-.063-.096.131-.145-.032.15.11-.114.068.064.1-.086.068.027-.146-.114-.009.073.073-.177.05-.15-.123.064-.086-.768.313-.01.355.06-.045.05.118-.1-.023.018.123.15.272-.277-.327.013-.423-.409.11-.095 1.612-.014.677.073.305.313.304.387.082.331-.082-.113.096.477.009.395-.073.609-.218-.659.282-.482.118-.131.013.036.078-.123-.078-.095.21.123.118-.187-.014.073.1-.086.023-.146.077.018-.091-.704.972-.422.773-.114.2-.073.436.26.381.127-.009.05-.109-.073.414.259.69.263.373.21.827.504.409.5.436.4.123.095-.073-.06-.096.45.228.073-.11-.004-.036.181-.268-.045-.09.286.127.055-.11.336-.109.173.078.109-.169-.11.219-.231-.05-.186.181-.032.01-.296.013-.095.195.095.264-.358.277-.387-.182-.163.028.077.122-.15.073.091.046-.29.004-.491-.29-.627-.95-.16-.546-.25-.654-1.03.514-.5.35.122.358.45.5.05-.036.35.495-.087.268.1.06.069-.069.022.145.15.069-.223-.046.087.11-.082.108-.086-.095.063.163.636.196.727.604.246.354.013.191-.222.187-.46.131.26.377.19.182.387.16.218-.15-.068.267-.137.205.246.168-.055.109.187.223-.1.05.122.054-.109.136.137.132-.05.223.159.09.072.328.314.122.132-.095.218.014.063.14.314.037.268-.177.24.154.4-.168.105.159.136-.027.014.145.109-.009-.027.268.1.118.25-.145.295.282.082-.428.386.246.45-.164-.023-.263.568-.191-.046-.145.118-.114-.131-.182.013-.363.341-.118.3-.391.209.04.127-.027.268-.218.064.06.34-.4.532-.7.141.045-.018-.486.277.296.34-.023.192-.091.118-.264.268.06.168-.073.123-.323-.023-.145.145-.127-.24-.228-.096-.245.082-.927-.118-.218.09-.209-.045-.254-.172-.028-.032-.104-.028-.086.114.009.164-.182.113-.459-.204-.009-.123-.223.123-.163.09.068-.036-.086.26-.346-.074-.272.132-.132.028-.255.072-.086.118.091.278-.09.04-.055-.086-.123.16-.277-.028-.21-.282-.158-.054-.177-.582-.695-.123.013-.036-.136-.036-.082h-.005l.014-.109-.11-.073.037-.34-.159-.169.027-.172-.29.086-.1.132-.241-.023-.146-.227-.081.123-.06-.064.032-.168-.159-.11-.104-.376.263-.205.15-.295-.063-.409.109-.123-.037-.177.155-.109.477-.309.14-.068.005-.327-.327-.314-.086.032.073-.154-.191-.21-.2-.517-.364-.064-.081-.159-.1.037.027-.178-.046-.095-.109-.273-.272.127-.06-.159.1-.109-.086-.05-.604.11-.232-.314-.19.073-.114-.087v-.254l.114.023-.037-.123-.122-.032-.041-.34-.118-.137-.482.173-.31-.046-.104-.086.06-.24V29.6l-.423-.323-.136.01v-.119l-.378-.4.041-.413.25-.073.69-1.09.237.059.291-.037.068-.218.223-.013.009-.132.095-.023.223.195.109-.054.068-.255.036-.204-.095-.154.082-.114-.055-.386.127-.205-.567-.518.24-.05.26-.259.181-.009.05-.227-.123-.1-.022-.354.14-.314.205-.022.027-.1.173-.073.554.04.118-.195.114.082.05-.25-.123-.958-.231-.01-.11-.295-.872-.713-.19-.568.345-.295-.046-.214-.313-.109-.223-.24-.036-.187.272-.459-.054-.086.09-.509.132-.154-.036-.278-.1-.063-.036-.168-.196-.023-.372-.4-.205-.39-.1.217-.35.132-.317.377-.36.06-.304-.269-.136-.359.086-.122-.29-.486.267-.196.096-.363.195-.155-.204-.19-.005-.273-.25-.091-.05-.123.264-.254.004-.46.423-.258.4-.11-.191-.358.109-.09-.077-.11.132-.127-.146-.123-.273.123-.222.032-.105-.25-.113.018-.118-.155-.041-.313-.436-.11-.277-.385-.05-.182.077-.145-.137-.21Zm-5.41 16.42-.223.145.063.554.523.959.35.014.009-.128-.014.073-.046-.073-.245.05-.045-.213-.123-.037.027-.208-.259-.269-.009-.459-.131-.29.122-.118Zm1.003 13.194.123.409.127-.118-.25-.291Z"/><path fill="#8CE2D0" d="m39.269 2.017-.463.287v.486l-.196.036-.109.35-.24.004-.046.25-.218.05.072.21-.454.472v.19l-.272.191.127.173-.627-.095-.191.068-.1.173.11.095.135-.045-.063.131.24.268v.373l.437.39.145.523-.045.214.231.318.019.227.413.1-.313.123-.046.263-.332.264-.263-.073-.477.404-.177-.04-.11.163.132.286-.145.132.082.09-.382.287-.186.014-.141-.173h-.268l-.4.109-.29.454-.35.082-.128.336-.327.21-.168.336-.182.036.318.2-.168.036-.013.336-.328.028-.15.309-.059.218.137.2-.078.145.05.182.269.395.436.1.05.314.118.154.109-.01.1.242.227-.023.277-.132.146.123-.141.127.081.114-.109.086.187.359-.4.114-.418.254-.01.459-.254.263.05.123.25.082v.281l.2.182-.186.16-.096.358-.268.2.291.482-.086.122.127.36.314.267.35-.05.327-.381.35-.137.1-.209.195.382.381.4.187.032.045.159.1.063.032.287-.132.145-.095.509.063.086-.281.46.036.185.227.241.318.11.046.217-.346.3.182.559.881.713.11.305h.231l.118.968-.05.24.436-.09.691-.341-.018.14.445.128.246.25.254-.037.772-.45.014-.345.168-.077.436.377.155-.354-.037-.4.428.063.109-.231.227.1.127.045.236-.023.027.16.196-.014.009.172.195-.09.1.05-.013.1.195-.037-.005.096-.095.045.123-.018-.037.127.255.195.095.218h.232l-.096-.072.037-.155.118.023.023.136.181-.181-.068.168.218.031.073.21-.04.027.004.054.109.073-.018-.182.077-.059-.087-.154.046-.268-.154-.132.154-.041.2.195.09.1-.045.087.182.031.045-.254.114.123.123-.137.104.123-.022.223.081.095.173-.1.014.132.286-.214.113.023.178-.232.222.041v-.218l.132-.004.073-.141.036-.027.777.159.264.045.218-.14.536.199.118-.132.186-.013.336.086.146.145.536-.154.468.109-.096-.205.037-.436.195-.295.25-.046.109-.159-.19.046-.414-.204-.395.004-.282-.232-.314.032-.222-.068-.168-.064-.482-.363-.604-.182-.164-.168.014.154-.178.037.055.209-.104.159-.332.363.332-.458-.023-.196-.1.023-.255-.023.11-.159.227.01-.082-.019.036-.182.1-.054-.245-.191-.137-.318.1-.214-.081-.077.213.11-.036-.119-.595-.364-.555-.75-.195-1.076-.25-.363-.073-.268-.054-.328.086-.113.014-.01-.027-.208-.164.113.068-.172.1.022-.132-.072.023-.286-.109.118-.254-.023.254.014.204-.328-.072-.218-.182-.136-.29-.323.1-.172-.16.132-.05-.082-.227.386h-.004l-.741.009.268-.073.44-.022.083-.232.131-.146.246-.022-.255-.255-.295-.69-.091-.178-.236-.363.04-.173-.267-.386.327.432-.373-.69-.122-.024.14-.022.091-.3.141-.064-.177-.34-.073-.323-.245-.282-.191-.481.214-.732-.169-.204-.318-.155.291.068-.163-.086-.182-.613-.055.068-.081-.155.036-.072.086.131.264-.336.04-.386-.158-.145.013-.827-.209-.096.028-.368-.246-.309.05-.15.123-.031-.245-.346.059-.068-.76-.609-.172-.022-.254.24-.137-.204.187-.145-.173-.3-.264.168-.245-.146-.263-.368-.028-.263-.118-.023.014-.168-.682-.618-.29-.44.081-.06-.454-.736Zm2.276 1.986-.668.009.118.109.237-.06.118.228.218.005-.023-.291Zm-4.784 15.261-.136.055v-.005l.136-.05Z"/><path fill="#8CE2D0" d="m50.773 21.8-.105.159-.245.045-.195.295-.037.432.087.209-.468-.11-.536.155-.137-.145-.336-.086-.19.013-.114.132-.541-.2-.218.141-.259-.045-.777-.16-.045.023-.064.137-.132.013-.009.218-.218-.05-.173.241-.122-.023-.277.214-.014-.132-.182.1-.072-.1.013-.218-.095-.123-.132.128-.11-.123-.04.263-.19-.036.05-.082-.096-.1-.196-.195-.15.04.146.133-.037.263.087.16-.087.058.019.173-.1-.064-.014-.054.05-.037-.073-.2-.218-.031.06-.168-.178.181-.027-.136-.11-.023-.035.146.095.081-.24-.009-.087-.218-.255-.186.028-.132-.114.014.09-.036.01-.096-.204.037.022-.1-.109-.05-.195.09v-.172l-.196.009-.031-.155-.232.014-.132-.036-.231-.1-.1.232-.432-.064.036.4-.159.354-.427-.377-.168.073-.014.35-.772.45-.254.027-.246-.241-.445-.137.014-.131-.696.34-.431.091-.114-.081-.118.204-.554-.05-.173.073-.027.1-.205.022-.14.314.022.354.123.1-.05.227-.182.01-.254.258-.245.05.567.518-.127.205.055.386-.082.114.095.154-.036.205-.059.254-.118.055-.223-.196-.095.032-.01.123-.222.013-.068.218-.29.046-.237-.068-.69 1.09-.25.073-.041.413.377.4v.118l.136-.009.422.323v.222l-.059.241.105.086.309.046.481-.173.119.137.04.34.123.032.037.123-.114-.014v.246l.114.086.2-.073.222.314.604-.11.087.05-.1.11.059.159.272-.128.11.273.045.095-.027.178.1-.037.081.16.364.063.2.518.19.209-.072.154.086-.032.327.314-.004.327-.141.068-.477.31-.155.108.037.178-.11.122.064.41-.15.294-.263.205.104.377.16.118-.032.16.059.063.081-.123.146.227.24.023.1-.132.291-.086-.027.172.16.169-.037.34.109.073-.014.11.041.085.036.132.123-.014.582.696.054.177.282.159.027.209.154.073.191-.11.305.328.181-.014.028.118.177.036-.09.078.13.054-.04.346.309.263.218.036-.005.573.15.164.241.013v.16l.482.19-.087.413.696.328-.205.04-.195.364.05.068.181-.095.069.063.027.11.132-.16.045.155.182-.068v.145l.232.032.331-.205.191-.022.132.022.123-.072-.046-.137.168-.109.205.041.086-.123.232.119-.018.259.254.05.054-.073.182.059.127-.209.028.05.086-.136.123.018v.009l.104.095-.068.182.132.086.372.119.114-.11.264.064.036-.118.572-.477-.018-.082-.154.023-.05-.205.222.032-.077-.213.145-.1-.036-.227.173-.114v-.168l.072.023.196-.314.531-.095.01.095.15-.023.177-.168.086-.55.304-.213.16-.29.345.43-.182.16.036.077.4-.018.014-.082.718.173.122-.16-.004-.186.122-.054.028-.304.154-.028.11-.313 1.08.095-.077.436.05.427.604-.004.886-.286-.136-.087.041-.254-.073-.132.786-.223-.036-.236-.132-.027-.086-.19-.663.163.095-.141.227-.06v-.1l.15-.045.2-.268.09.178.673.05.123.004.318-.586-.077-.3.15.014.422.3-.022.145.154-.027.123.281.254-.059.082.123-.3.504.096.005.063.322-.05.405.21.023.072.25.263.04.05.3.178.168.109.037.354-.291-.255-.29.169-.133-.06-.131.191-.06.087-.463.172-.032.069.11.463-.137.073-.073-.191-.263-.486-.527-.087-.091-.109-.018-.063.109-.132-.06-.182-.14-.895-.745-.881-1.186-.873.209-.054.086-.727-.004-.168.136-.191.168-.145.046-.587-.25-.25-.332-.763.318.087.372-.128-.2-.009-.208-.254-.096.29-.013.21-.278.445-.122-.06-.082.45.109.287.273.754-.141h.096l.145.045 1.077-.409.427-.077.377.014.045-.227-.013.386.072.063.096.291 1.104 1.072.568.146.818-.346.454.128.413.259.187.24.009.096.013-.087-.036-.254-.29-.654-2.64-3.703-.341-.909-.241-.754-.018-.786.122-.327.114-.027.164-.31.586-.108.263-.196-.168-.186-1.031-.423-.087-.013-.481-.277-.218-.432.073-.223.168.014-.414-.168-.636-.34.036-.074-.29-.313.104-.223-.213-.09-.1-.596-.155-.131-.304-.777-.255-.282-.295-.132-.105-.268.105-.227-.636-.654-.223-.073-.54-.096-.11-.295-.317-.232-.269.1-.286-.459-.127-.05Zm-6.574 19.69.072.105h-.004l-.068-.104Z"/><path fill="#0D8D98" d="m55.57 36.752.078.3-.318.586-.123-.005-.672-.05-.09-.177-.2.268-.15.046v.1l-.228.059-.095.132.663-.155.086.191.132.027.037.236-.786.219.072.136-.05.254.146.082-.886.29-.605.005-.05-.427.078-.445-1.082-.086-.109.304-.154.032-.028.304-.122.06.004.186-.122.154v.005l-.718-.173-.014.073-.4.027-.045-.077.19-.16-.345-.43-.159.29-.313.214-.077.55-.178.167-.15.023-.009-.095-.531.095-.196.314-.072-.023v.168l-.173.114.037.227-.146.1.077.213-.222-.032.05.205.154-.023.018.082-.572.477-.036.118-.264-.063-.114.113-.372-.123-.132-.086.068-.182-.104-.095-.123-.027-.086.136-.028-.05-.127.204-.181-.054-.055.073-.254-.055.018-.254-.232-.118-.086.122-.205-.04-.168.108.046.137-.123.072-.132-.022-.19.022-.332.205-.232-.032v-.145l-.182.068-.045-.16-.132.164-.027-.109-.068-.063-.182.1-.05-.073.195-.364.205-.04-.696-.328.087-.413-.482-.19v-.16l-.24-.013-.15-.164.004-.572-.218-.037-.309-.263.04-.346-.13-.054.09-.078-.177-.036-.027-.118-.182.014-.305-.327-.19.109-.155-.073-.159.277.086.123-.04.054-.278.091-.118-.086-.072.082-.028.254-.132.132.073.272-.259.346.037.086-.091-.068-.123.168.123.218.204.01-.113.463-.164.177-.123-.01.037.087.032.105.172.027.046.254-.091.21.118.217-.082.927.096.245.24.228-.154.127.032.145.24-.195.05.195.51.241.281.05.554.582-.05.363.364.527.004.15-.1.073.078.409.095.059-.086.15.059.081.209.218-.05.496-.61.354-.035.509-.237.232-.004.168.24.377-.022.154.204.1.091-.086.132.096.104-.06.31.241.19.136.205-.108.013.086.119-.05.617.154.4.364-.24.254.172.096.032.15-.241.19.027.11-.077-.06-.073.082-.109-.109-.109.114-.154-.087-.3.518.045.137-.145.209.486.14.023.368.19-.063.305.095.06-.059.1.096-.024.109.36.295.1.236-.046.182-.232.114.046.231.113.096-.054.29.327.214.04.195.619.291.408.277.9.523.19.113.642.846.036.063.345.618.3.563-.027.078-.455.118-.4.245-.027.095.555.205-.237.39.096.06.082.318-.16.213-.213.096-.123.195-.168-.05.087.26.145.095.059.268-.254.118-.314.027-.163.359.817 1.118-.236-.01-.472.178.027.109.204.027-.154.432.35.581-.1.391.063.168.4-.118.445.14.2-.081.118-.182.291-.063.182-.31-.209-.086.136-.363.582-.29.35-.028-.155-.155.727.046.155-.177.113.09.11.514.217.336.178-.154.095.045.086-.182.182-.177-.105-.159.228-.05.082-.132-.164-.304-.223-.132-.023-.186-.154-.036.06-.191h.008l.51-.11-.037-.172.172.014.06-.232.154.086.077-.231.177-.091.037.127.113-.06.432-.399.363-.059.291-.523-.177-.65.422-.172.232.087.214.304.245-.064.082-.209-.11-.309.26-.4-.06-.04.532-.096-.013-.254-.168-.028.059-.131-.21-.178.092-.218-.073-.086.545-.122.227-.282-.013-.127.059-.014.463-.34-.095-.06.168-.368.118-.109-.182-.359.041-.268-.586-.304.123-.196-.014-.145-.177-.177.118-.078-.082-.236-.095-.054-.514.15-.19-.205.25-.5-.032-.159-.21-.19.182-.137.219-.013.004-.082.459.086.532-.232.136-.209.445.064.29.29.519-.276.127.25.127-.132.377.132.364-.337.145.082.223-.14.313.145.01.059.508-.064.26-.277-.064-.518.181-.204.246.045.418-.264.363-.018.16.073.803-.627-.268-.173.191-.418-.486-.09-.082.522.06-.686-.4-.727-.25-.127-.255-.11h-.304l-.327-.167-.187.059.041-.118-.15.1.173-.269-.086-.136.145.086.245-.218h-.35l.36-.027.131-.373-.072-.013.645-.886.386-.359.168-.11.704-.667-.109-.014.305-.118-.146-.077.3.073.1-.128.109-1.517-.086-.254-.11-.487-.976-2.094-.15-.523-.305-.177.146-.063-.24-.255.122.023-.155-.11.06-.095-.341-.463.1.036-.041-.09-.16-.182-.022.19-.155-.036.073-.172-.259-.132.087.172-.046.096-.109-.087-.077-.013-.141-.145.082-.182-.082-.037-.014.091-.377-.231.086.19.087-.045-.014.145-.363-.268-.073.073-.463.136-.069-.109-.172.032-.087.463-.19.06.059.131-.168.132.254.29-.354.292-.11-.037-.177-.168-.05-.304-.263-.037-.073-.25-.209-.027.05-.4-.063-.322-.087-.014.291-.495-.082-.127-.254.063-.123-.281-.154.027.022-.145-.422-.305-.15-.009Z"/><path fill="#8CE2D0" d="m65.435 46.416-.11.014-.022.15.159-.11.159.11.35-.037-.536-.127Zm-.11.014-.213.027.2-.005.014-.023Zm2.822-.01-.045.046-.023.114.24-.11-.172-.05Zm.173.05.386.141-.159.06-.032.136-.313-.023.009-.1-.46.1-.158-.1-.014.077-.395.023.273-.06-.119-.1h-.022l.013.01-.077.073-.004-.005.068-.077-.232-.136-.132.34.118-.19.1.036v-.005l.041.018-.04-.013v.109l-.042.086-.19-.036v-.255l-.3-.036.163-.04-.236.036.01.113-.314-.1-.291.014.095.014-.027.104-.25.145v-.181l-.223-.023-.131-.06-.191.119.132.005-.205.018.06-.096-.519.06.06.036-.087.04.01-.077-.264-.036.136.136-.127.037-.046-.123-.132.15-.1-.196-.204.037-.5.532-.363 1.103.027.482-.118.077-.036-.109-.11.105.091.04-.163.037.009.073h-.154l-.187.25.064.113-.077.01-.06.181.078.282-.078-.2-.408-.364-.391.005-.182.086-.19.418.267.182-.804.618-.159-.068v-.005l-.359.018-.413.264-.255-.046-.172.205.054.518-.254.277-.51.064-.013-.06-.304-.145-.232.141-.14-.082-.369.336-.377-.131-.127.131-.127-.25-.518.278-.291-.291-.445-.064-.137.21-.531.231-.46-.086v.082l-.222.013-.181.136.209.191.031.16-.25.499.191.205.514-.15.095.054.082.236-.118.078.177.177.014.145-.123.196.586.304-.04.268.18.359-.117.109-.168.368.095.06-.463.34-.06.023.014.122-.227.277-.545.123.073.086-.091.218.209.178-.06.131.169.028.013.254-.531.096.059.04-.26.4.11.31-.082.208-.245.064-.214-.305-.24-.086-.414.173.177.65-.29.522.245.095.154.11-.023.422-.104.036.068.232.268.064.16.363-.133.3-.245.182-.354.513.254.182.027.218-.1.082.073.122-.177.177.168.437-.073.05-.081.218-.1-.01.022.196-.122.032-.182.522.1.146.19-.028.21.232.313.014.114.154.25.078.463.613-.059.109-.09-.032-.037-.073-.241.396-.504-.205-.146.11-.195-.037-.282-.395.078-.127-.091-.141-.205.013-.277.25.218.377.145-.045.241.322-.045.123.177.377.6.323.254-.073.146.255.09-.069.091.087.037.177-.114.182.186.231-.013.264.218-.032-.005.05.137-.018.059.109-.087.123-.068-.037-.013.15-.137-.036.055.182-.077.181.181.518.218.082v-.49l.423.286.159-.132.363.1.255-.077.1-.046.05-.05.454-.277.11.05.09.023.323-.15.063.04.06-.222.376-.095.082-.146.123.096.086-.073.096-.073.086-.24.445-.032.123-.05.936.154.009.55.372.132-.031.14.195.2.323.164.159-.01.027-.136.359-.131.086-.037.582-.05.036.005.232-.114.29.219.119.145-.096.109.155.027.218.555.222-.032.228.395h-.119l-.558.15-.014.227-.095.005-.05-.173-.037.159-.081-.004.059.181-.155.028.036.109-.163.081-.023.078.713.431.16-.177.245-.027.19.327.182.013.741-.195.095-.577-.05-.054.146-.091.522.009.318-.132-.186-.04-.163-.337-.014-.073-.136-.1.145.087.114.204.118.182.109-.046.136.168.2.023.622-.24-.181.036.122-.087-.327-.059.032-.086-.159-.023-.255-.118.646.082.172-.06.446.083.808.122.196.05.595-.572-.327-.073-.1-.263-.127.1.095-.219-.29.055.413-.24-.137-.178.155.154.45-.022-.014-.26-.818-.108-.209-.191-.254.109-.155-.073-.054-.118.29-.05.15.014.337.286.077-.068.568.109.445-.036.314-.232-.032-.39.132-.364-.123-.3.095-.45-.204-.255-.34.064-.419.468-.327-.073-.254.06.031.159-.286.095-.086.195-.186.06v-.105l.1.036.022-.15.173-.132-.573-.059-.254-.268.186.11.073-.228.218.123.168-.055.037-.054.036-.11.145.055.014-.081.127.118.027-.141.218.095.337-.036-.019-.118.096.054.254-.227-.222-.1h-.182l-.018-.082.154.028-.204-.055.213-.059.028.096.34.027-.181-.196-.096-.204.264.268.022-.123.064-.35.073.073.25-.109-.073-.027.39-.096-.263-.136.2-.009-.118-.173.3.237-.073-.45.15.109-.077.145.122.214.319.163.327-.122-.037-.11.11-.04-.014.086-.11.136-.045.096-.309.013.2.178.023.245-.1-.227.109.272.536-.081.373-.05.995-.714.472-.663.027-.232-.231-.036.013.177-.004-.018h-.014l.005-.005-.005-.009.014.01-.01-.023-.026-.05-.037-.01-.009.01-.023-.014h-.013l-.023-.009-.005.01-.009.013v.004l-.004.018v.019l.036.009.005.009h.031l.028.027v.023l.022.013-.009.01-.1.004-.022.123-.01-.1-.122.013-.036.11-.06-.278-.15.055.11-.177-.155.159h-.29l.304-.123-.114-.096.132-.09.15-.01-.16-.086.133-.122.05.027v-.01l.009.019.15.073.05-.346.263-.281.145-.023-.063-.218-.118.168-.314-.132-.186.155h-.095l.013-.087-.3.087-.072-.014-.11-.095-.49.145-.568-.068-.145-.21.159.169.209-.177.436.068.313-.286.25.227.223-.014.095.041.218-.145.318.072-.09-.5-.555-.117-.4-.26-.195-.304.254.186.368.218.419.141.004-.104.227.154.037.377.377.278.009.29.231-.4.414-.363.023-.177-.305-.255.268.096.073.19.34-.3.278-.644-.11.013.473-.445.064.01.086-.096.314-.1-.586.377-.237.313.237-.277.908-.559.305-1.572.023-1.358.308-.64.082-.037.46-1.404v-.709l.204-.445.05-.145-.264-.8-.109-.518.059-.114-.045-.086.059.064-.087-1.177-.386-1.077-.29-.409-.95-.9-1.536-1.222-.845-.536-.727-.268-1.327-.127-1.317-.364Zm3.026 16.993-.01-.01.014.228.146-.068-.15-.15Zm.318.232.082.136.063-.04-.145-.096Zm-.023.063-.29.014-.042.104.187.096.145-.214Zm.014.014-.005.018-.014.027.005.023-.005.023-.022.004-.023-.013v.013h.01l-.01.01.073.013.013.01v-.074l-.004-.031-.018-.023Zm.072.25v.022h-.036l.032-.018.004-.004Zm-2.921 1.022-.245.11.004-.074-.418.455.055.086.459-.059.377-.19.154-.196-.386-.132Zm-2.376 1.331-.123.182.209-.005-.086-.177Zm.336.082.173.096.154-.069-.327-.027Zm2.072 1.577-.818.131-.073.314-.272.027.086.195-.14.096-.055.182.145.05-.036-.087.236.146.64-.568.287-.486Zm-1.272.445-.182.159.127.327.154-.323-.013-.15-.086-.013Z"/></svg>
