<?xml version="1.0" encoding="UTF-8"?>
<svg width="20px" height="20px" viewBox="0 0 20 20" version="1.1" xmlns="http://www.w3.org/2000/svg" xmlns:xlink="http://www.w3.org/1999/xlink">
    <!-- Generator: Sketch 47.1 (45422) - http://www.bohemiancoding.com/sketch -->
    <title>Shape</title>
    <desc>Created with Sketch.</desc>
    <defs></defs>
    <g id="Personalised-landing" stroke="none" stroke-width="1" fill="none" fill-rule="evenodd">
        <g id="Landing-2---Regular-new-hero-Copy" transform="translate(-1148.000000, -8.000000)" fill="#FFFFFF">
            <g id="Gov-header" transform="translate(876.000000, 8.000000)">
                <path d="M288.959234,2.81892494 C287.019827,0.936338865 284.506512,0 282.003093,0 L282.003093,0 L282.003093,0 L282.003093,0 C279.390829,0 276.783513,1.01560565 274.824315,3.04186277 C270.975184,7.01015606 271.074134,13.3415903 275.037056,17.1810751 C276.976464,19.0636611 279.489779,20 281.993198,20 L281.993198,20 L281.993198,20 L281.993198,20 C284.605462,20 287.212778,18.9794402 289.171976,16.9581372 C293.026054,12.9898439 292.927105,6.65840971 288.959234,2.81892494 Z M282.329626,6.34134258 C283.719865,6.33143423 284.917152,6.27198415 285.931383,6.18280902 C286.163914,7.2677731 286.292549,8.44686649 286.317286,9.66559326 L282.329626,9.66559326 L282.329626,6.34134258 Z M282.329626,5.67252911 L282.329626,0.693584345 C282.700686,0.757988605 283.066799,0.936338865 283.423017,1.22368095 C283.957343,1.64973991 284.447143,2.28387416 284.877572,3.12112955 C285.243685,3.82957642 285.545481,4.64206094 285.773064,5.52390389 C284.798413,5.60812485 283.655548,5.66757493 282.329626,5.67252911 Z M281.666665,0.698538519 L281.666665,5.67748328 C280.340743,5.66757493 279.197878,5.61307902 278.223227,5.52885806 C278.43102,4.73619024 278.698184,3.99801833 279.014822,3.33415903 C279.751994,1.81322764 280.701909,0.876888779 281.666665,0.698538519 Z M281.666665,6.34134258 L281.666665,9.66559326 L277.679005,9.66559326 C277.698795,8.44686649 277.832376,7.27272727 278.064908,6.18280902 C279.079139,6.27198415 280.276426,6.33143423 281.666665,6.34134258 Z M277.011097,9.66559326 L272.672166,9.66559326 C272.721641,8.17438692 273.127333,6.74263067 273.839769,5.4644538 C274.413675,5.63784989 275.561488,5.9202378 277.401947,6.11345058 C277.164468,7.25291058 277.030887,8.45677483 277.011097,9.66559326 Z M277.011097,10.3344067 C277.030887,11.5432252 277.159521,12.7470894 277.396999,13.8815952 C275.551593,14.0797622 274.40378,14.3621501 273.829874,14.5355462 C273.122386,13.2623235 272.721641,11.8305673 272.667219,10.3344067 L277.011097,10.3344067 L277.011097,10.3344067 Z M277.679005,10.3344067 L281.666665,10.3344067 L281.666665,13.6586574 C280.276426,13.6685658 279.079139,13.7280159 278.064908,13.817191 C277.832376,12.7322269 277.698795,11.5531335 277.679005,10.3344067 Z M281.666665,14.3225167 L281.666665,19.3014615 C281.295605,19.2370572 280.929492,19.058707 280.573274,18.7713649 C280.038948,18.3453059 279.549148,17.7111717 279.118718,16.8739163 C278.752606,16.1654694 278.45081,15.3529849 278.223227,14.4711419 C279.197878,14.3918752 280.340743,14.3324251 281.666665,14.3225167 Z M282.329626,19.3014615 L282.329626,14.3225167 C283.655548,14.3324251 284.798413,14.386921 285.773064,14.4711419 C285.565271,15.2638098 285.298107,16.0019817 284.981469,16.665841 C284.249244,18.1867724 283.29933,19.1231112 282.329626,19.3014615 Z M282.329626,13.6586574 L282.329626,10.3344067 L286.317286,10.3344067 C286.297496,11.5531335 286.163914,12.7272727 285.931383,13.817191 C284.917152,13.7280159 283.724812,13.6636116 282.329626,13.6586574 Z M286.985194,10.3344067 L291.329072,10.3344067 C291.279597,11.8256131 290.873905,13.2573693 290.161469,14.5355462 C289.587563,14.3621501 288.43975,14.0797622 286.599292,13.8865494 C286.83677,12.7470894 286.965404,11.5432252 286.985194,10.3344067 Z M286.985194,9.66559326 C286.965404,8.45677483 286.83677,7.25291058 286.599292,6.11840476 C288.43975,5.9202378 289.59251,5.63784989 290.166417,5.4644538 C290.873905,6.73767649 291.27465,8.16943275 291.329072,9.66559326 L286.985194,9.66559326 Z M288.494172,3.29452564 C288.993867,3.77508051 289.429244,4.30517711 289.800304,4.86995294 C289.206608,5.03344067 288.10827,5.28114937 286.440973,5.45949963 C286.198547,4.50334407 285.872014,3.60663859 285.466321,2.81397077 C285.045786,1.99653208 284.565882,1.35248947 284.06124,0.8917513 C285.72359,1.26826852 287.24741,2.09066138 288.494172,3.29452564 Z M275.294325,3.50755512 C276.189817,2.5811246 277.23868,1.86772356 278.421125,1.37726034 C278.915872,1.17413921 279.420514,1.01065147 279.935051,0.896705474 C279.380934,1.40203121 278.866398,2.11543225 278.421125,3.04186277 C278.064908,3.77508051 277.777954,4.5925192 277.555318,5.45949963 C275.888021,5.28114937 274.794631,5.03839485 274.200934,4.87490711 C274.517572,4.38939807 274.883685,3.93361407 275.294325,3.50755512 Z M275.502119,16.7054744 C275.002424,16.2249195 274.567047,15.6948229 274.191039,15.1300471 C274.784736,14.9665593 275.883074,14.7188506 277.550371,14.5405004 C277.792797,15.4966559 278.11933,16.3933614 278.525022,17.1860292 C278.945557,18.0034679 279.420514,18.6475105 279.930103,19.1082487 C278.272701,18.7317315 276.748881,17.9093386 275.502119,16.7054744 Z M288.701966,16.4924449 C287.806474,17.4188754 286.752663,18.1322764 285.575166,18.6227397 C285.085366,18.8258608 284.580724,18.9893485 284.066187,19.1032945 C284.620304,18.5979688 285.134841,17.8845677 285.580113,16.9581372 C285.936331,16.2249195 286.223284,15.4074808 286.44592,14.5405004 C288.113217,14.7188506 289.206608,14.9616052 289.800304,15.1250929 C289.483666,15.6106019 289.112606,16.0663859 288.701966,16.4924449 Z" id="Shape"></path>
            </g>
        </g>
    </g>
</svg>
