<?xml version="1.0" standalone="no"?>
<!DOCTYPE svg PUBLIC "-//W3C//DTD SVG 1.1//EN" "http://www.w3.org/Graphics/SVG/1.1/DTD/svg11.dtd" >
<svg xmlns="http://www.w3.org/2000/svg" xmlns:xlink="http://www.w3.org/1999/xlink" version="1.1">
<metadata>
Created by FontForge 20170924 at Thu Jun  2 16:17:59 2016
 By www-data
Copyright (c) 2016 by Fontsmith Ltd. All rights reserved. This font may not be altered in any way without prior permission of Fontsmith Ltd.
</metadata>
<defs>
<font id="FSLucas-SemiBold" horiz-adv-x="599" >
  <font-face 
    font-family="FS Lucas SemiBold"
    font-weight="600"
    font-stretch="normal"
    units-per-em="1000"
    panose-1="2 11 6 3 6 3 2 3 2 3"
    ascent="740"
    descent="-260"
    x-height="450"
    cap-height="648"
    bbox="-497 -208 1293 899"
    underline-thickness="88"
    underline-position="-100"
    unicode-range="U+000D-FB02"
  />
<missing-glyph horiz-adv-x="664" 
d="M80 648h504v-855h-504v855zM538 620h-412l206 -370zM317 221l-207 365v-731zM554 586l-207 -365l207 -366v731zM538 -178l-206 375l-206 -375h412z" />
    <glyph glyph-name="f_f.liga" unicode="ff" horiz-adv-x="673" 
d="M106 362h-77v88h77v29q0 94 40 141.5t125 47.5q43 0 73 -13v-93q-26 12 -57 12q-72 0 -72 -91v-33h202v39q0 94 43 141.5t136 47.5q27 0 51.5 -5t37.5 -11v-95q-13 6 -34.5 11.5t-42.5 5.5q-47 0 -64.5 -25t-17.5 -76v-33h116v-88h-116v-362h-109v362h-202v-362h-109v362
z" />
    <glyph glyph-name="f_f_i.liga" unicode="ffi" horiz-adv-x="941" 
d="M754.5 26.5q-26.5 32.5 -26.5 92.5v243h-202v-362h-109v362h-202v-362h-109v362h-77v88h77v29q0 94 40 141.5t125 47.5q43 0 73 -13v-93q-26 12 -57 12q-72 0 -72 -91v-33h202v39q0 189 161 189q41 0 63 -10v-93q-18 9 -43 9q-72 0 -72 -91v-43h311v-316q0 -26 8.5 -39
t33.5 -13q16 0 26 4v-83q-8 -4 -24 -6.5t-32 -2.5q-68 0 -94.5 32.5zM733 558.5q-19 19.5 -19 50.5q0 30 20 49.5t49 19.5t48.5 -19.5t19.5 -50.5q0 -30 -19.5 -49.5t-48.5 -19.5q-31 0 -50 19.5z" />
    <glyph glyph-name="f_f_j.liga" unicode="ffj" horiz-adv-x="904" 
d="M563 -196v92q29 -12 64 -12q52 0 76 31.5t24 98.5v348h-202v-362h-109v362h-201v-362h-109v362h-77v88h77v29q0 94 40 141.5t125 47.5q43 0 73 -13v-93q-26 12 -57 12q-72 0 -72 -91v-33h201v39q0 189 161 189q41 0 63 -10v-93q-18 9 -43 9q-72 0 -72 -91v-43h311v-429
q0 -119 -47.5 -173.5t-143.5 -54.5q-48 0 -82 11zM732 558.5q-19 19.5 -19 50.5q0 30 20 49.5t49 19.5t48.5 -19.5t19.5 -50.5q0 -30 -19.5 -49.5t-48.5 -19.5q-31 0 -50 19.5z" />
    <glyph glyph-name="f_f_l.liga" unicode="ffl" horiz-adv-x="935" 
d="M106 362h-77v88h77v29q0 94 40 141.5t125 47.5q43 0 73 -13v-93q-26 12 -57 12q-72 0 -72 -91v-33h201v39q0 189 161 189q41 0 63 -10v-93q-18 9 -43 9q-72 0 -72 -91v-43h106v-88h-106v-362h-109v362h-201v-362h-109v362zM767.5 13.5q-26.5 19.5 -34 48.5t-7.5 72v529
h109v-529q0 -26 8.5 -39t33.5 -13q16 0 26 4v-83q-8 -4 -24 -6.5t-32 -2.5q-53 0 -79.5 19.5z" />
    <glyph glyph-name="f_f_t.liga" unicode="fft" horiz-adv-x="1025" 
d="M106 362h-77v88h77v29q0 94 40 141.5t125 47.5q43 0 73 -13v-93q-26 12 -57 12q-72 0 -72 -91v-33h202v39q0 189 161 189q41 0 63 -10v-93q-18 9 -43 9q-37 0 -54.5 -21.5t-17.5 -79.5v-33h87v-88h-87v-362h-109v362h-202v-362h-109v362zM766 31.5q-38 40.5 -38 122.5
v208h-57v10q91 108 156 209h10v-131h126v-88h-126v-192q0 -44 14.5 -65.5t57.5 -21.5q34 0 74 17v-92q-38 -17 -98 -17q-81 0 -119 40.5z" />
    <glyph glyph-name="f_j.liga" unicode="fj" horiz-adv-x="593" 
d="M252 -196v92q29 -12 64 -12q52 0 76 31.5t24 98.5v348h-201v-362h-109v362h-77v88h77v39q0 189 161 189q41 0 63 -10v-93q-18 9 -43 9q-72 0 -72 -91v-43h310v-429q0 -119 -47.5 -173.5t-143.5 -54.5q-48 0 -82 11zM421 558.5q-19 19.5 -19 50.5q0 30 20 49.5t49 19.5
t48.5 -19.5t19.5 -50.5q0 -30 -19.5 -49.5t-48.5 -19.5q-31 0 -50 19.5z" />
    <glyph glyph-name="f_t.liga" unicode="ft" horiz-adv-x="713" 
d="M106 362h-77v88h77v39q0 189 161 189q41 0 63 -10v-93q-18 9 -43 9q-72 0 -72 -91v-43h87v-88h-87v-362h-109v362zM454 31.5q-38 40.5 -38 122.5v208h-57v10q91 108 156 209h10v-131h126v-88h-126v-192q0 -44 14.5 -65.5t57.5 -21.5q34 0 74 17v-92q-38 -17 -98 -17
q-81 0 -119 40.5z" />
    <glyph glyph-name="fi" unicode="fi" horiz-adv-x="629" 
d="M442.5 26.5q-26.5 32.5 -26.5 92.5v243h-201v-362h-109v362h-77v88h77v39q0 189 161 189q41 0 63 -10v-93q-18 9 -43 9q-72 0 -72 -91v-43h310v-316q0 -26 8.5 -39t33.5 -13q16 0 26 4v-83q-8 -4 -24 -6.5t-32 -2.5q-68 0 -94.5 32.5zM421 558.5q-19 19.5 -19 50.5
q0 30 20 49.5t49 19.5t48.5 -19.5t19.5 -50.5q0 -30 -19.5 -49.5t-48.5 -19.5q-31 0 -50 19.5z" />
    <glyph glyph-name="fl" unicode="fl" horiz-adv-x="625" 
d="M106 362h-77v88h77v39q0 189 161 189q41 0 63 -10v-93q-18 9 -43 9q-72 0 -72 -91v-43h106v-88h-106v-362h-109v362zM457.5 13.5q-26.5 19.5 -34 48.5t-7.5 72v529h109v-529q0 -26 8.5 -39t33.5 -13q16 0 26 4v-83q-8 -4 -24 -6.5t-32 -2.5q-53 0 -79.5 19.5z" />
    <glyph glyph-name="t_t.liga" unicode="tt" horiz-adv-x="759" 
d="M133 31.5q-38 40.5 -38 122.5v208h-77v10q36 36 92 101.5t84 107.5h10v-131h126v-88h-126v-192q0 -44 14.5 -65.5t57.5 -21.5q34 0 74 17v-92q-38 -17 -98 -17q-81 0 -119 40.5zM500 31.5q-38 40.5 -38 122.5v208h-77v10q36 36 92 101.5t84 107.5h10v-131h126v-88h-126
v-192q0 -44 14.5 -65.5t57.5 -21.5q34 0 74 17v-92q-38 -17 -98 -17q-81 0 -119 40.5z" />
    <glyph glyph-name=".notdef" horiz-adv-x="664" 
d="M80 648h504v-855h-504v855zM538 620h-412l206 -370zM317 221l-207 365v-731zM554 586l-207 -365l207 -366v731zM538 -178l-206 375l-206 -375h412z" />
    <glyph glyph-name=".null" horiz-adv-x="0" 
 />
    <glyph glyph-name="nonmarkingreturn" unicode="&#xd;" horiz-adv-x="210" 
 />
    <glyph glyph-name="space" unicode=" " horiz-adv-x="210" 
 />
    <glyph glyph-name="A" unicode="A" horiz-adv-x="643" 
d="M317 658h10l296 -658h-121l-49 114h-267l-49 -114h-117zM417 208l-96 225l-97 -225h193z" />
    <glyph glyph-name="Aacute" unicode="&#xc1;" horiz-adv-x="643" 
d="M20 0zM317 658h10l296 -658h-121l-49 114h-267l-49 -114h-117zM417 208l-96 225l-97 -225h193zM380 876h145l-156 -166h-108z" />
    <glyph glyph-name="Abreve" unicode="&#x102;" horiz-adv-x="643" 
d="M20 0zM317 658h10l296 -658h-121l-49 114h-267l-49 -114h-117zM417 208l-96 225l-97 -225h193zM150 863v13h86q0 -42 20 -64t65 -22q46 0 66 22t20 64h86v-13q0 -75 -40.5 -118.5t-131.5 -43.5q-171 0 -171 162z" />
    <glyph glyph-name="uni01CD" unicode="&#x1cd;" horiz-adv-x="643" 
d="M20 0zM317 658h10l296 -658h-121l-49 114h-267l-49 -114h-117zM417 208l-96 225l-97 -225h193zM146 876h116l59 -63l59 63h117l-176 -175z" />
    <glyph glyph-name="Acircumflex" unicode="&#xc2;" horiz-adv-x="643" 
d="M20 0zM317 658h10l296 -658h-121l-49 114h-267l-49 -114h-117zM417 208l-96 225l-97 -225h193zM321 885l176 -175h-117l-59 63l-59 -63h-116z" />
    <glyph glyph-name="Adieresis" unicode="&#xc4;" horiz-adv-x="643" 
d="M20 0zM317 658h10l296 -658h-121l-49 114h-267l-49 -114h-117zM417 208l-96 225l-97 -225h193zM171 743.5q-19 19.5 -19 49.5t19 49.5t49 19.5t49 -19.5t19 -49.5t-19 -49.5t-49 -19.5t-49 19.5zM374 743.5q-19 19.5 -19 49.5t19 49.5t49 19.5t49 -19.5t19 -49.5
t-19 -49.5t-49 -19.5t-49 19.5z" />
    <glyph glyph-name="Agrave" unicode="&#xc0;" horiz-adv-x="643" 
d="M20 0zM317 658h10l296 -658h-121l-49 114h-267l-49 -114h-117zM417 208l-96 225l-97 -225h193zM138 876h145l119 -166h-108z" />
    <glyph glyph-name="Amacron" unicode="&#x100;" horiz-adv-x="643" 
d="M20 0zM317 658h10l296 -658h-121l-49 114h-267l-49 -114h-117zM417 208l-96 225l-97 -225h193zM172 838h300v-88h-300v88z" />
    <glyph glyph-name="Aogonek" unicode="&#x104;" horiz-adv-x="643" 
d="M467 -183.5q-32 23.5 -32 72.5q0 36 18 65t49 47l-49 113h-266l-50 -114h-117l297 658h10l296 -658q-48 -9 -79 -34.5t-31 -58.5q0 -49 51 -49q28 0 47 11v-65q-24 -11 -63 -11q-49 0 -81 23.5zM417 208l-96 225l-97 -225h193z" />
    <glyph glyph-name="Aring" unicode="&#xc5;" horiz-adv-x="643" 
d="M289 607q-32 10 -53 37t-21 61q0 42 31 72.5t76 30.5t76 -30.5t31 -72.5q0 -34 -21 -61t-53 -37l268 -607h-121l-49 114h-266l-50 -114h-117zM354 672.5q13 13.5 13 32.5t-13 32.5t-32 13.5t-32 -13.5t-13 -32.5t13 -32.5t32 -13.5t32 13.5zM417 208l-96 229l-97 -229
h193z" />
    <glyph glyph-name="Atilde" unicode="&#xc3;" horiz-adv-x="643" 
d="M20 0zM317 658h10l296 -658h-121l-49 114h-267l-49 -114h-117zM417 208l-96 225l-97 -225h193zM350 735.5q-20 7.5 -43 20.5q-20 10 -30.5 14.5t-21.5 4.5q-20 0 -29.5 -14t-9.5 -28h-69q0 49 27 84.5t76 35.5q24 0 45 -7.5t45 -21.5q4 -2 20.5 -10t29.5 -8q18 0 27.5 13
t9.5 29h69q0 -48 -27 -84t-76 -36q-23 0 -43 7.5z" />
    <glyph glyph-name="AE" unicode="&#xc6;" horiz-adv-x="894" 
d="M313 648h302l43 -96h-284l79 -174h220l43 -95h-220l83 -186h283l44 -97h-404l-49 114h-267l-49 -114h-117zM417 208l-96 226l-96 -226h192z" />
    <glyph glyph-name="AEacute" unicode="&#x1fc;" horiz-adv-x="894" 
d="M20 0zM313 648h302l43 -96h-284l79 -174h220l43 -95h-220l83 -186h283l44 -97h-404l-49 114h-267l-49 -114h-117zM417 208l-96 226l-96 -226h192zM449 876h145l-156 -166h-108z" />
    <glyph glyph-name="B" unicode="B" horiz-adv-x="591" 
d="M80 648h186q103 0 166 -39.5t63 -137.5q0 -51 -18.5 -81.5t-48.5 -41.5q47 -10 83.5 -49.5t36.5 -114.5q0 -100 -68 -142t-177 -42h-223v648zM260 375q59 0 90 18.5t31 69.5q0 49 -28.5 70t-93.5 21h-66v-179h67zM307 95q58 0 92 20.5t34 73.5q0 52 -33 72.5t-93 20.5
h-114v-187h114z" />
    <glyph glyph-name="C" unicode="C" horiz-adv-x="635" 
d="M205 33q-76 43 -115.5 118.5t-39.5 171.5q0 97 40.5 173t115.5 119t176 43q60 0 110 -14t73 -32v-113q-39 27 -84.5 41t-92.5 14q-67 0 -117.5 -29t-78 -81t-27.5 -119q0 -71 30 -123t83 -79.5t119 -27.5q51 0 97.5 15.5t80.5 38.5v-114q-23 -17 -75.5 -31t-114.5 -14
q-104 0 -180 43z" />
    <glyph glyph-name="Cacute" unicode="&#x106;" horiz-adv-x="635" 
d="M50 0zM205 33q-76 43 -115.5 118.5t-39.5 171.5q0 97 40.5 173t115.5 119t176 43q60 0 110 -14t73 -32v-113q-39 27 -84.5 41t-92.5 14q-67 0 -117.5 -29t-78 -81t-27.5 -119q0 -71 30 -123t83 -79.5t119 -27.5q51 0 97.5 15.5t80.5 38.5v-114q-23 -17 -75.5 -31
t-114.5 -14q-104 0 -180 43zM420 876h145l-156 -166h-108z" />
    <glyph glyph-name="Cacute.loclPLK" horiz-adv-x="635" 
d="M50 0zM205 33q-76 43 -115.5 118.5t-39.5 171.5q0 97 40.5 173t115.5 119t176 43q60 0 110 -14t73 -32v-113q-39 27 -84.5 41t-92.5 14q-67 0 -117.5 -29t-78 -81t-27.5 -119q0 -71 30 -123t83 -79.5t119 -27.5q51 0 97.5 15.5t80.5 38.5v-114q-23 -17 -75.5 -31
t-114.5 -14q-104 0 -180 43zM404 876h131l-107 -166h-102z" />
    <glyph glyph-name="Ccaron" unicode="&#x10c;" horiz-adv-x="635" 
d="M50 0zM205 33q-76 43 -115.5 118.5t-39.5 171.5q0 97 40.5 173t115.5 119t176 43q60 0 110 -14t73 -32v-113q-39 27 -84.5 41t-92.5 14q-67 0 -117.5 -29t-78 -81t-27.5 -119q0 -71 30 -123t83 -79.5t119 -27.5q51 0 97.5 15.5t80.5 38.5v-114q-23 -17 -75.5 -31
t-114.5 -14q-104 0 -180 43zM206 876h116l59 -63l59 63h117l-176 -175z" />
    <glyph glyph-name="Ccedilla" unicode="&#xc7;" horiz-adv-x="635" 
d="M501 4.5q-51 -13.5 -113 -14.5l-9 -30q3 1 10 1q34 -1 54.5 -20t20.5 -59q0 -47 -32 -68t-81 -21q-43 0 -67 11v59q10 -5 25.5 -9.5t30.5 -4.5q23 0 34 8t11 26t-10 26t-26 8q-22 0 -39 -15l-10 6l24 86q-86 12 -148 57.5t-94 115.5t-32 156q0 97 40.5 173t115.5 119
t176 43q60 0 110 -14t73 -32v-113q-39 27 -84.5 41t-92.5 14q-67 0 -117.5 -29t-78 -81t-27.5 -119q0 -71 30 -123t83 -79.5t119 -27.5q51 0 97.5 15.5t80.5 38.5v-114q-23 -17 -74 -30.5z" />
    <glyph glyph-name="Ccircumflex" unicode="&#x108;" horiz-adv-x="635" 
d="M50 0zM205 33q-76 43 -115.5 118.5t-39.5 171.5q0 97 40.5 173t115.5 119t176 43q60 0 110 -14t73 -32v-113q-39 27 -84.5 41t-92.5 14q-67 0 -117.5 -29t-78 -81t-27.5 -119q0 -71 30 -123t83 -79.5t119 -27.5q51 0 97.5 15.5t80.5 38.5v-114q-23 -17 -75.5 -31
t-114.5 -14q-104 0 -180 43zM381 885l176 -175h-117l-59 63l-59 -63h-116z" />
    <glyph glyph-name="Cdotaccent" unicode="&#x10a;" horiz-adv-x="635" 
d="M50 0zM205 33q-76 43 -115.5 118.5t-39.5 171.5q0 97 40.5 173t115.5 119t176 43q60 0 110 -14t73 -32v-113q-39 27 -84.5 41t-92.5 14q-67 0 -117.5 -29t-78 -81t-27.5 -119q0 -71 30 -123t83 -79.5t119 -27.5q51 0 97.5 15.5t80.5 38.5v-114q-23 -17 -75.5 -31
t-114.5 -14q-104 0 -180 43zM332 743.5q-19 19.5 -19 50.5q0 30 20 49.5t49 19.5t48.5 -19.5t19.5 -50.5q0 -30 -19.5 -49.5t-48.5 -19.5q-31 0 -50 19.5z" />
    <glyph glyph-name="D" unicode="D" horiz-adv-x="679" 
d="M80 648h150q116 0 201 -21.5t141.5 -91t56.5 -203.5q0 -192 -109.5 -262t-280.5 -70h-159v648zM226 96q137 0 212.5 52t75.5 184q0 92 -37 140t-99 64.5t-152 16.5h-33v-457h33z" />
    <glyph glyph-name="Eth" unicode="&#xd0;" horiz-adv-x="710" 
d="M462 626.5q85 -21.5 141.5 -91t56.5 -203.5q0 -192 -109.5 -262t-280.5 -70h-159v285h-105v91h105v272h150q116 0 201 -21.5zM469.5 148q75.5 52 75.5 184q0 92 -37 140t-99 64.5t-152 16.5h-33v-177h133v-91h-133v-189h33q137 0 212.5 52z" />
    <glyph glyph-name="Dcaron" unicode="&#x10e;" horiz-adv-x="679" 
d="M80 0zM80 648h150q116 0 201 -21.5t141.5 -91t56.5 -203.5q0 -192 -109.5 -262t-280.5 -70h-159v648zM226 96q137 0 212.5 52t75.5 184q0 92 -37 140t-99 64.5t-152 16.5h-33v-457h33zM163 876h116l59 -63l59 63h117l-176 -175z" />
    <glyph glyph-name="Dcroat" unicode="&#x110;" horiz-adv-x="710" 
d="M6 0zM462 626.5q85 -21.5 141.5 -91t56.5 -203.5q0 -192 -109.5 -262t-280.5 -70h-159v285h-105v91h105v272h150q116 0 201 -21.5zM469.5 148q75.5 52 75.5 184q0 92 -37 140t-99 64.5t-152 16.5h-33v-177h133v-91h-133v-189h33q137 0 212.5 52z" />
    <glyph glyph-name="E" unicode="E" horiz-adv-x="519" 
d="M80 648h391v-96h-278v-174h200v-95h-200v-186h290v-97h-403v648z" />
    <glyph glyph-name="Eacute" unicode="&#xc9;" horiz-adv-x="519" 
d="M80 0zM80 648h391v-96h-278v-174h200v-95h-200v-186h290v-97h-403v648zM316 876h145l-156 -166h-108z" />
    <glyph glyph-name="Ebreve" unicode="&#x114;" horiz-adv-x="519" 
d="M80 0zM80 648h391v-96h-278v-174h200v-95h-200v-186h290v-97h-403v648zM106 863v13h86q0 -42 20 -64t65 -22q46 0 66 22t20 64h86v-13q0 -75 -40.5 -118.5t-131.5 -43.5q-171 0 -171 162z" />
    <glyph glyph-name="Ecaron" unicode="&#x11a;" horiz-adv-x="519" 
d="M80 0zM80 648h391v-96h-278v-174h200v-95h-200v-186h290v-97h-403v648zM102 876h116l59 -63l59 63h117l-176 -175z" />
    <glyph glyph-name="Ecircumflex" unicode="&#xca;" horiz-adv-x="519" 
d="M80 0zM80 648h391v-96h-278v-174h200v-95h-200v-186h290v-97h-403v648zM277 885l176 -175h-117l-59 63l-59 -63h-116z" />
    <glyph glyph-name="Edieresis" unicode="&#xcb;" horiz-adv-x="519" 
d="M80 0zM80 648h391v-96h-278v-174h200v-95h-200v-186h290v-97h-403v648zM127 743.5q-19 19.5 -19 49.5t19 49.5t49 19.5t49 -19.5t19 -49.5t-19 -49.5t-49 -19.5t-49 19.5zM330 743.5q-19 19.5 -19 49.5t19 49.5t49 19.5t49 -19.5t19 -49.5t-19 -49.5t-49 -19.5t-49 19.5z
" />
    <glyph glyph-name="Edotaccent" unicode="&#x116;" horiz-adv-x="519" 
d="M80 0zM80 648h391v-96h-278v-174h200v-95h-200v-186h290v-97h-403v648zM228 743.5q-19 19.5 -19 50.5q0 30 20 49.5t49 19.5t48.5 -19.5t19.5 -50.5q0 -30 -19.5 -49.5t-48.5 -19.5q-31 0 -50 19.5z" />
    <glyph glyph-name="Egrave" unicode="&#xc8;" horiz-adv-x="519" 
d="M80 0zM80 648h391v-96h-278v-174h200v-95h-200v-186h290v-97h-403v648zM134 876h145l119 -166h-108z" />
    <glyph glyph-name="Emacron" unicode="&#x112;" horiz-adv-x="519" 
d="M80 0zM80 648h391v-96h-278v-174h200v-95h-200v-186h290v-97h-403v648zM128 838h300v-88h-300v88z" />
    <glyph glyph-name="Eogonek" unicode="&#x118;" horiz-adv-x="517" 
d="M331 -183.5q-32 23.5 -32 72.5q0 37 20 67t55 44h-296v648h391v-96h-278v-174h200v-95h-200v-186h290v-97q-48 -11 -76 -35.5t-28 -57.5q0 -49 51 -49q28 0 47 11v-65q-24 -11 -63 -11q-49 0 -81 23.5z" />
    <glyph glyph-name="F" unicode="F" horiz-adv-x="504" 
d="M80 648h394v-96h-281v-188h205v-95h-205v-269h-113v648z" />
    <glyph glyph-name="G" unicode="G" horiz-adv-x="710" 
d="M202 33q-75 43 -113.5 119t-38.5 173q0 102 42 177t118 115.5t174 40.5q53 0 97.5 -10.5t72.5 -23t38 -19.5v-113q-35 24 -88 43t-110 19q-63 0 -115.5 -26t-83 -77.5t-30.5 -123.5q0 -68 27 -120.5t76 -82t113 -29.5q165 0 176 164h-188v97h301v-31q0 -335 -289 -335
q-104 0 -179 43z" />
    <glyph glyph-name="Gbreve" unicode="&#x11e;" horiz-adv-x="710" 
d="M50 0zM202 33q-75 43 -113.5 119t-38.5 173q0 102 42 177t118 115.5t174 40.5q53 0 97.5 -10.5t72.5 -23t38 -19.5v-113q-35 24 -88 43t-110 19q-63 0 -115.5 -26t-83 -77.5t-30.5 -123.5q0 -68 27 -120.5t76 -82t113 -29.5q165 0 176 164h-188v97h301v-31
q0 -335 -289 -335q-104 0 -179 43zM212 863v13h86q0 -42 20 -64t65 -22q46 0 66 22t20 64h86v-13q0 -75 -40.5 -118.5t-131.5 -43.5q-171 0 -171 162z" />
    <glyph glyph-name="Gcircumflex" unicode="&#x11c;" horiz-adv-x="710" 
d="M50 0zM202 33q-75 43 -113.5 119t-38.5 173q0 102 42 177t118 115.5t174 40.5q53 0 97.5 -10.5t72.5 -23t38 -19.5v-113q-35 24 -88 43t-110 19q-63 0 -115.5 -26t-83 -77.5t-30.5 -123.5q0 -68 27 -120.5t76 -82t113 -29.5q165 0 176 164h-188v97h301v-31
q0 -335 -289 -335q-104 0 -179 43zM383 885l176 -175h-117l-59 63l-59 -63h-116z" />
    <glyph glyph-name="Gcommaaccent" unicode="&#x122;" horiz-adv-x="710" 
d="M50 0zM202 33q-75 43 -113.5 119t-38.5 173q0 102 42 177t118 115.5t174 40.5q53 0 97.5 -10.5t72.5 -23t38 -19.5v-113q-35 24 -88 43t-110 19q-63 0 -115.5 -26t-83 -77.5t-30.5 -123.5q0 -68 27 -120.5t76 -82t113 -29.5q165 0 176 164h-188v97h301v-31
q0 -335 -289 -335q-104 0 -179 43zM372 -149q-23 0 -37.5 14t-14.5 37q0 25 16 39.5t41 14.5q27 0 45.5 -18t18.5 -50q0 -27 -14.5 -52t-37.5 -43h-61q31 27 44 58z" />
    <glyph glyph-name="Gdotaccent" unicode="&#x120;" horiz-adv-x="710" 
d="M50 0zM202 33q-75 43 -113.5 119t-38.5 173q0 102 42 177t118 115.5t174 40.5q53 0 97.5 -10.5t72.5 -23t38 -19.5v-113q-35 24 -88 43t-110 19q-63 0 -115.5 -26t-83 -77.5t-30.5 -123.5q0 -68 27 -120.5t76 -82t113 -29.5q165 0 176 164h-188v97h301v-31
q0 -335 -289 -335q-104 0 -179 43zM334 743.5q-19 19.5 -19 50.5q0 30 20 49.5t49 19.5t48.5 -19.5t19.5 -50.5q0 -30 -19.5 -49.5t-48.5 -19.5q-31 0 -50 19.5z" />
    <glyph glyph-name="H" unicode="H" horiz-adv-x="698" 
d="M80 648h113v-270h312v270h113v-648h-113v281h-312v-281h-113v648z" />
    <glyph glyph-name="Hbar" unicode="&#x126;" horiz-adv-x="740" 
d="M734 469h-85v-469h-113v281h-312v-281h-113v469h-105v88h105v91h113v-91h312v91h113v-91h85v-88zM536 469h-312v-91h312v91z" />
    <glyph glyph-name="Hcircumflex" unicode="&#x124;" horiz-adv-x="698" 
d="M80 0zM80 648h113v-270h312v270h113v-648h-113v281h-312v-281h-113v648zM347 885l176 -175h-117l-59 63l-59 -63h-116z" />
    <glyph glyph-name="I" unicode="I" horiz-adv-x="273" 
d="M80 648h113v-648h-113v648z" />
    <glyph glyph-name="IJ" unicode="&#x132;" horiz-adv-x="743" 
d="M80 0zM80 648h113v-648h-113v648zM383 -3.5q-37 6.5 -56 15.5v106q42 -27 108 -27q52 0 78.5 19t35 53t8.5 89v301h-156v95h269v-425q0 -120 -52 -176.5t-161 -56.5q-37 0 -74 6.5z" />
    <glyph glyph-name="Iacute" unicode="&#xcd;" horiz-adv-x="273" 
d="M80 0zM80 648h113v-648h-113v648zM199 876h145l-156 -166h-108z" />
    <glyph glyph-name="Iacute_J.loclNLD" horiz-adv-x="743" 
d="M80 0zM80 648h113v-648h-113v648zM199 876h145l-156 -166h-108zM383 -3.5q-37 6.5 -56 15.5v106q42 -27 108 -27q52 0 78.5 19t35 53t8.5 89v301h-156v95h269v-425q0 -120 -52 -176.5t-161 -56.5q-37 0 -74 6.5zM522 876h145l-156 -166h-108z" />
    <glyph glyph-name="Ibreve" unicode="&#x12c;" horiz-adv-x="273" 
d="M0 0zM80 648h113v-648h-113v648zM-35 863v13h86q0 -42 20 -64t65 -22q46 0 66 22t20 64h86v-13q0 -75 -40.5 -118.5t-131.5 -43.5q-171 0 -171 162z" />
    <glyph glyph-name="Icircumflex" unicode="&#xce;" horiz-adv-x="273" 
d="M0 0zM80 648h113v-648h-113v648zM136 885l176 -175h-117l-59 63l-59 -63h-116z" />
    <glyph glyph-name="Idieresis" unicode="&#xcf;" horiz-adv-x="273" 
d="M0 0zM80 648h113v-648h-113v648zM-14 743.5q-19 19.5 -19 49.5t19 49.5t49 19.5t49 -19.5t19 -49.5t-19 -49.5t-49 -19.5t-49 19.5zM189 743.5q-19 19.5 -19 49.5t19 49.5t49 19.5t49 -19.5t19 -49.5t-19 -49.5t-49 -19.5t-49 19.5z" />
    <glyph glyph-name="Idotaccent" unicode="&#x130;" horiz-adv-x="273" 
d="M68 0zM80 648h113v-648h-113v648zM87 743.5q-19 19.5 -19 50.5q0 30 20 49.5t49 19.5t48.5 -19.5t19.5 -50.5q0 -30 -19.5 -49.5t-48.5 -19.5q-31 0 -50 19.5z" />
    <glyph glyph-name="Igrave" unicode="&#xcc;" horiz-adv-x="273" 
d="M0 0zM80 648h113v-648h-113v648zM-71 876h145l119 -166h-108z" />
    <glyph glyph-name="Imacron" unicode="&#x12a;" horiz-adv-x="273" 
d="M0 0zM80 648h113v-648h-113v648zM-13 838h300v-88h-300v88z" />
    <glyph glyph-name="Iogonek" unicode="&#x12e;" horiz-adv-x="261" 
d="M34.5 -183q-31.5 24 -31.5 78q0 33 18.5 61.5t48.5 43.5v648h113v-648q-47 -11 -74.5 -35.5t-27.5 -57.5q0 -49 51 -49q28 0 47 11v-65q-24 -11 -63 -11q-50 0 -81.5 24z" />
    <glyph glyph-name="Itilde" unicode="&#x128;" horiz-adv-x="273" 
d="M0 0zM80 648h113v-648h-113v648zM165 735.5q-20 7.5 -43 20.5q-20 10 -30.5 14.5t-21.5 4.5q-20 0 -29.5 -14t-9.5 -28h-69q0 49 27 84.5t76 35.5q24 0 45 -7.5t45 -21.5q4 -2 20.5 -10t29.5 -8q18 0 27.5 13t9.5 29h69q0 -48 -27 -84t-76 -36q-23 0 -43 7.5z" />
    <glyph glyph-name="J" unicode="J" horiz-adv-x="470" 
d="M110 -3.5q-37 6.5 -56 15.5v106q42 -27 108 -27q52 0 78.5 19t35 53t8.5 89v301h-156v95h269v-425q0 -120 -52 -176.5t-161 -56.5q-37 0 -74 6.5z" />
    <glyph glyph-name="Jcircumflex" unicode="&#x134;" horiz-adv-x="470" 
d="M54 0zM110 -3.5q-37 6.5 -56 15.5v106q42 -27 108 -27q52 0 78.5 19t35 53t8.5 89v301h-156v95h269v-425q0 -120 -52 -176.5t-161 -56.5q-37 0 -74 6.5zM254 885l176 -175h-117l-59 63l-59 -63h-116z" />
    <glyph glyph-name="K" unicode="K" horiz-adv-x="652" 
d="M80 648h113v-311l290 311h146l-302 -317l309 -331h-152l-291 319v-319h-113v648z" />
    <glyph glyph-name="Kcommaaccent" unicode="&#x136;" horiz-adv-x="652" 
d="M80 0zM80 648h113v-311l290 311h146l-302 -317l309 -331h-152l-291 319v-319h-113v648zM321 -149q-23 0 -37.5 14t-14.5 37q0 25 16 39.5t41 14.5q27 0 45.5 -18t18.5 -50q0 -27 -14.5 -52t-37.5 -43h-61q31 27 44 58z" />
    <glyph glyph-name="L" unicode="L" horiz-adv-x="526" 
d="M80 648h113v-551h300v-97h-413v648z" />
    <glyph glyph-name="Lacute" unicode="&#x139;" horiz-adv-x="526" 
d="M80 0zM80 648h113v-551h300v-97h-413v648zM204 876h145l-156 -166h-108z" />
    <glyph glyph-name="Lcaron" unicode="&#x13d;" horiz-adv-x="526" 
d="M80 0zM80 648h113v-551h300v-97h-413v648zM352 553q-23 0 -37.5 14t-14.5 37q0 25 16 39.5t41 14.5q27 0 45.5 -18t18.5 -50q0 -29 -19 -58.5t-49 -48.5h-55q42 39 54 70z" />
    <glyph glyph-name="Lcommaaccent" unicode="&#x13b;" horiz-adv-x="526" 
d="M80 0zM80 648h113v-551h300v-97h-413v648zM282 -149q-23 0 -37.5 14t-14.5 37q0 25 16 39.5t41 14.5q27 0 45.5 -18t18.5 -50q0 -27 -14.5 -52t-37.5 -43h-61q31 27 44 58z" />
    <glyph glyph-name="Ldot" unicode="&#x13f;" horiz-adv-x="526" 
d="M80 0zM80 648h113v-551h300v-97h-413v648zM352 279.5q-19 19.5 -19 50.5q0 30 20 49.5t49 19.5t48.5 -19.5t19.5 -50.5q0 -30 -19.5 -49.5t-48.5 -19.5q-31 0 -50 19.5z" />
    <glyph glyph-name="Lslash" unicode="&#x141;" horiz-adv-x="513" 
d="M67 236l-91 -51v97l91 51v315h113v-266l145 80v-99l-145 -80v-186h300v-97h-413v236z" />
    <glyph glyph-name="M" unicode="M" horiz-adv-x="853" 
d="M231 354l-64 -354h-113l130 658h10l233 -450l232 450h10l130 -658h-111l-66 355l-190 -365h-10z" />
    <glyph glyph-name="N" unicode="N" horiz-adv-x="707" 
d="M190 413v-413h-110v658h10l427 -423v413h110v-658h-10z" />
    <glyph glyph-name="Nacute" unicode="&#x143;" horiz-adv-x="707" 
d="M80 0zM190 413v-413h-110v658h10l427 -423v413h110v-658h-10zM392 876h145l-156 -166h-108z" />
    <glyph glyph-name="Nacute.loclPLK" horiz-adv-x="707" 
d="M80 0zM190 413v-413h-110v658h10l427 -423v413h110v-658h-10zM376 876h131l-107 -166h-102z" />
    <glyph glyph-name="Ncaron" unicode="&#x147;" horiz-adv-x="707" 
d="M80 0zM190 413v-413h-110v658h10l427 -423v413h110v-658h-10zM178 876h116l59 -63l59 63h117l-176 -175z" />
    <glyph glyph-name="Ncommaaccent" unicode="&#x145;" horiz-adv-x="707" 
d="M80 0zM190 413v-413h-110v658h10l427 -423v413h110v-658h-10zM345 -149q-23 0 -37.5 14t-14.5 37q0 25 16 39.5t41 14.5q27 0 45.5 -18t18.5 -50q0 -27 -14.5 -52t-37.5 -43h-61q31 27 44 58z" />
    <glyph glyph-name="Eng" unicode="&#x14a;" horiz-adv-x="707" 
d="M313 -193v92q38 -15 84 -15q52 0 78 19t34 52.5t8 89.5v44l-327 324v-413h-110v658h10l427 -423v413h110v-610q0 -125 -48 -185t-161 -60q-63 0 -105 14z" />
    <glyph glyph-name="Ntilde" unicode="&#xd1;" horiz-adv-x="707" 
d="M80 0zM190 413v-413h-110v658h10l427 -423v413h110v-658h-10zM382 735.5q-20 7.5 -43 20.5q-20 10 -30.5 14.5t-21.5 4.5q-20 0 -29.5 -14t-9.5 -28h-69q0 49 27 84.5t76 35.5q24 0 45 -7.5t45 -21.5q4 -2 20.5 -10t29.5 -8q18 0 27.5 13t9.5 29h69q0 -48 -27 -84
t-76 -36q-23 0 -43 7.5z" />
    <glyph glyph-name="O" unicode="O" horiz-adv-x="757" 
d="M203 33q-74 43 -113.5 119t-39.5 172q0 97 40 173t115 118.5t176 42.5q100 0 173.5 -42.5t113 -117.5t39.5 -171t-40 -173t-114.5 -120.5t-175.5 -43.5q-100 0 -174 43zM490 124.5q48 29.5 75 81.5t27 119t-27.5 119.5t-76 81t-109.5 28.5t-110 -28.5t-76.5 -80.5
t-27.5 -119t27.5 -119.5t76.5 -82t111 -29.5t110 29.5z" />
    <glyph glyph-name="Oacute" unicode="&#xd3;" horiz-adv-x="757" 
d="M50 0zM203 33q-74 43 -113.5 119t-39.5 172q0 97 40 173t115 118.5t176 42.5q100 0 173.5 -42.5t113 -117.5t39.5 -171t-40 -173t-114.5 -120.5t-175.5 -43.5q-100 0 -174 43zM490 124.5q48 29.5 75 81.5t27 119t-27.5 119.5t-76 81t-109.5 28.5t-110 -28.5t-76.5 -80.5
t-27.5 -119t27.5 -119.5t76.5 -82t111 -29.5t110 29.5zM419 876h145l-156 -166h-108z" />
    <glyph glyph-name="Oacute.loclPLK" horiz-adv-x="757" 
d="M50 0zM203 33q-74 43 -113.5 119t-39.5 172q0 97 40 173t115 118.5t176 42.5q100 0 173.5 -42.5t113 -117.5t39.5 -171t-40 -173t-114.5 -120.5t-175.5 -43.5q-100 0 -174 43zM490 124.5q48 29.5 75 81.5t27 119t-27.5 119.5t-76 81t-109.5 28.5t-110 -28.5t-76.5 -80.5
t-27.5 -119t27.5 -119.5t76.5 -82t111 -29.5t110 29.5zM403 876h131l-107 -166h-102z" />
    <glyph glyph-name="Obreve" unicode="&#x14e;" horiz-adv-x="757" 
d="M50 0zM203 33q-74 43 -113.5 119t-39.5 172q0 97 40 173t115 118.5t176 42.5q100 0 173.5 -42.5t113 -117.5t39.5 -171t-40 -173t-114.5 -120.5t-175.5 -43.5q-100 0 -174 43zM490 124.5q48 29.5 75 81.5t27 119t-27.5 119.5t-76 81t-109.5 28.5t-110 -28.5t-76.5 -80.5
t-27.5 -119t27.5 -119.5t76.5 -82t111 -29.5t110 29.5zM209 863v13h86q0 -42 20 -64t65 -22q46 0 66 22t20 64h86v-13q0 -75 -40.5 -118.5t-131.5 -43.5q-171 0 -171 162z" />
    <glyph glyph-name="Ocircumflex" unicode="&#xd4;" horiz-adv-x="757" 
d="M50 0zM203 33q-74 43 -113.5 119t-39.5 172q0 97 40 173t115 118.5t176 42.5q100 0 173.5 -42.5t113 -117.5t39.5 -171t-40 -173t-114.5 -120.5t-175.5 -43.5q-100 0 -174 43zM490 124.5q48 29.5 75 81.5t27 119t-27.5 119.5t-76 81t-109.5 28.5t-110 -28.5t-76.5 -80.5
t-27.5 -119t27.5 -119.5t76.5 -82t111 -29.5t110 29.5zM380 885l176 -175h-117l-59 63l-59 -63h-116z" />
    <glyph glyph-name="Odieresis" unicode="&#xd6;" horiz-adv-x="757" 
d="M50 0zM203 33q-74 43 -113.5 119t-39.5 172q0 97 40 173t115 118.5t176 42.5q100 0 173.5 -42.5t113 -117.5t39.5 -171t-40 -173t-114.5 -120.5t-175.5 -43.5q-100 0 -174 43zM490 124.5q48 29.5 75 81.5t27 119t-27.5 119.5t-76 81t-109.5 28.5t-110 -28.5t-76.5 -80.5
t-27.5 -119t27.5 -119.5t76.5 -82t111 -29.5t110 29.5zM230 743.5q-19 19.5 -19 49.5t19 49.5t49 19.5t49 -19.5t19 -49.5t-19 -49.5t-49 -19.5t-49 19.5zM433 743.5q-19 19.5 -19 49.5t19 49.5t49 19.5t49 -19.5t19 -49.5t-19 -49.5t-49 -19.5t-49 19.5z" />
    <glyph glyph-name="Ograve" unicode="&#xd2;" horiz-adv-x="757" 
d="M50 0zM203 33q-74 43 -113.5 119t-39.5 172q0 97 40 173t115 118.5t176 42.5q100 0 173.5 -42.5t113 -117.5t39.5 -171t-40 -173t-114.5 -120.5t-175.5 -43.5q-100 0 -174 43zM490 124.5q48 29.5 75 81.5t27 119t-27.5 119.5t-76 81t-109.5 28.5t-110 -28.5t-76.5 -80.5
t-27.5 -119t27.5 -119.5t76.5 -82t111 -29.5t110 29.5zM237 876h145l119 -166h-108z" />
    <glyph glyph-name="Ohungarumlaut" unicode="&#x150;" horiz-adv-x="757" 
d="M50 0zM203 33q-74 43 -113.5 119t-39.5 172q0 97 40 173t115 118.5t176 42.5q100 0 173.5 -42.5t113 -117.5t39.5 -171t-40 -173t-114.5 -120.5t-175.5 -43.5q-100 0 -174 43zM490 124.5q48 29.5 75 81.5t27 119t-27.5 119.5t-76 81t-109.5 28.5t-110 -28.5t-76.5 -80.5
t-27.5 -119t27.5 -119.5t76.5 -82t111 -29.5t110 29.5zM297 876h145l-171 -166h-108zM517 876h145l-171 -166h-108z" />
    <glyph glyph-name="Omacron" unicode="&#x14c;" horiz-adv-x="757" 
d="M50 0zM203 33q-74 43 -113.5 119t-39.5 172q0 97 40 173t115 118.5t176 42.5q100 0 173.5 -42.5t113 -117.5t39.5 -171t-40 -173t-114.5 -120.5t-175.5 -43.5q-100 0 -174 43zM490 124.5q48 29.5 75 81.5t27 119t-27.5 119.5t-76 81t-109.5 28.5t-110 -28.5t-76.5 -80.5
t-27.5 -119t27.5 -119.5t76.5 -82t111 -29.5t110 29.5zM231 838h300v-88h-300v88z" />
    <glyph glyph-name="Oslash" unicode="&#xd8;" horiz-adv-x="757" 
d="M135 87q-41 45 -63 105.5t-22 131.5q0 97 40 173t115 118.5t176 42.5q81 0 149 -30l43 59h113l-80 -109q49 -44 75 -109t26 -142q0 -96 -40 -173t-114.5 -120.5t-175.5 -43.5q-94 0 -170 41l-44 -61h-113zM464 538q-32 16 -85 16q-61 0 -110 -28.5t-76.5 -80.5
t-27.5 -119q0 -82 41 -142zM490 124.5q48 29.5 75 81.5t27 119q0 49 -14.5 90.5t-39.5 68.5l-264 -362q19 -13 47 -20t59 -7q62 0 110 29.5z" />
    <glyph glyph-name="Oslashacute" unicode="&#x1fe;" horiz-adv-x="757" 
d="M50 0zM135 87q-41 45 -63 105.5t-22 131.5q0 97 40 173t115 118.5t176 42.5q81 0 149 -30l43 59h113l-80 -109q49 -44 75 -109t26 -142q0 -96 -40 -173t-114.5 -120.5t-175.5 -43.5q-94 0 -170 41l-44 -61h-113zM464 538q-32 16 -85 16q-61 0 -110 -28.5t-76.5 -80.5
t-27.5 -119q0 -82 41 -142zM490 124.5q48 29.5 75 81.5t27 119q0 49 -14.5 90.5t-39.5 68.5l-264 -362q19 -13 47 -20t59 -7q62 0 110 29.5zM424 876h145l-156 -166h-108z" />
    <glyph glyph-name="Otilde" unicode="&#xd5;" horiz-adv-x="757" 
d="M50 0zM203 33q-74 43 -113.5 119t-39.5 172q0 97 40 173t115 118.5t176 42.5q100 0 173.5 -42.5t113 -117.5t39.5 -171t-40 -173t-114.5 -120.5t-175.5 -43.5q-100 0 -174 43zM490 124.5q48 29.5 75 81.5t27 119t-27.5 119.5t-76 81t-109.5 28.5t-110 -28.5t-76.5 -80.5
t-27.5 -119t27.5 -119.5t76.5 -82t111 -29.5t110 29.5zM409 735.5q-20 7.5 -43 20.5q-20 10 -30.5 14.5t-21.5 4.5q-20 0 -29.5 -14t-9.5 -28h-69q0 49 27 84.5t76 35.5q24 0 45 -7.5t45 -21.5q4 -2 20.5 -10t29.5 -8q18 0 27.5 13t9.5 29h69q0 -48 -27 -84t-76 -36
q-23 0 -43 7.5z" />
    <glyph glyph-name="OE" unicode="&#x152;" horiz-adv-x="1029" 
d="M203 33.5q-74 43.5 -113.5 119.5t-39.5 172t40.5 172t115 118.5t172.5 42.5q72 0 130 -27t95 -73v90h378v-96h-278v-174h200v-95h-200v-186h290v-97h-390v91q-33 -45 -94.5 -73t-131.5 -28q-100 0 -174 43.5zM489 125q48 29 74.5 81.5t26.5 118.5q0 67 -27 119.5t-75 81
t-109 28.5t-110 -28.5t-76.5 -80.5t-27.5 -119q0 -66 27.5 -118.5t76.5 -82t111 -29.5q61 0 109 29z" />
    <glyph glyph-name="P" unicode="P" horiz-adv-x="583" 
d="M80 648h199q78 0 135 -14.5t95 -61t38 -135.5q0 -95 -42.5 -143t-101.5 -61.5t-136 -13.5h-74v-219h-113v648zM264 313q78 0 123 24t45 98q0 52 -23 77.5t-58 33t-87 7.5h-71v-240h71z" />
    <glyph glyph-name="Thorn" unicode="&#xde;" horiz-adv-x="580" 
d="M78 648h112v-109h86q78 0 135 -14.5t95 -61t38 -135.5q0 -95 -42.5 -143t-101.5 -61.5t-136 -13.5h-74v-110h-112v648zM262 204q78 0 123 24t45 98q0 52 -23 77.5t-58 33t-87 7.5h-72v-240h72z" />
    <glyph glyph-name="Q" unicode="Q" horiz-adv-x="757" 
d="M379.5 -151q-59.5 47 -58.5 145q-84 12 -145 57t-93.5 116t-32.5 157q0 97 40 173t115 118.5t176 42.5q100 0 173.5 -42.5t113 -117.5t39.5 -171q0 -87 -32.5 -158t-94.5 -117t-146 -58q-1 -57 30.5 -80t96.5 -23q53 0 114 23v-93q-14 -6 -49 -12.5t-77 -6.5
q-110 0 -169.5 47zM490 124.5q48 29.5 75 81.5t27 119t-27.5 119.5t-76 81t-109.5 28.5t-110 -28.5t-76.5 -80.5t-27.5 -119t27.5 -119.5t76.5 -82t111 -29.5t110 29.5z" />
    <glyph glyph-name="R" unicode="R" horiz-adv-x="601" 
d="M80 648h205q118 0 184.5 -44t66.5 -164q0 -163 -126 -195l164 -245h-136l-145 230h-100v-230h-113v648zM261 324q55 0 89 8.5t52.5 33.5t18.5 73q0 49 -19.5 74t-51.5 32.5t-83 7.5h-74v-229h68z" />
    <glyph glyph-name="Racute" unicode="&#x154;" horiz-adv-x="601" 
d="M80 0zM80 648h205q118 0 184.5 -44t66.5 -164q0 -163 -126 -195l164 -245h-136l-145 230h-100v-230h-113v648zM261 324q55 0 89 8.5t52.5 33.5t18.5 73q0 49 -19.5 74t-51.5 32.5t-83 7.5h-74v-229h68zM328 876h145l-156 -166h-108z" />
    <glyph glyph-name="Rcaron" unicode="&#x158;" horiz-adv-x="601" 
d="M80 0zM80 648h205q118 0 184.5 -44t66.5 -164q0 -163 -126 -195l164 -245h-136l-145 230h-100v-230h-113v648zM261 324q55 0 89 8.5t52.5 33.5t18.5 73q0 49 -19.5 74t-51.5 32.5t-83 7.5h-74v-229h68zM114 876h116l59 -63l59 63h117l-176 -175z" />
    <glyph glyph-name="Rcommaaccent" unicode="&#x156;" horiz-adv-x="601" 
d="M80 0zM80 648h205q118 0 184.5 -44t66.5 -164q0 -163 -126 -195l164 -245h-136l-145 230h-100v-230h-113v648zM261 324q55 0 89 8.5t52.5 33.5t18.5 73q0 49 -19.5 74t-51.5 32.5t-83 7.5h-74v-229h68zM301 -149q-23 0 -37.5 14t-14.5 37q0 25 16 39.5t41 14.5
q27 0 45.5 -18t18.5 -50q0 -27 -14.5 -52t-37.5 -43h-61q31 27 44 58z" />
    <glyph glyph-name="S" unicode="S" horiz-adv-x="497" 
d="M138.5 1.5q-44.5 11.5 -77.5 27.5v114q34 -23 79 -38t92 -15q53 0 79.5 21t26.5 60q0 27 -14.5 46.5t-36.5 32t-60 30.5q-51 23 -83 43.5t-54.5 57.5t-22.5 93q0 85 54.5 134.5t150.5 49.5q44 0 86.5 -9.5t65.5 -21.5v-114q-31 20 -70 33t-75 13q-46 0 -72 -21t-26 -58
q0 -26 14 -44t35 -30t60 -29q52 -24 84 -44.5t55.5 -57.5t23.5 -95q0 -92 -57 -141t-161 -49q-52 0 -96.5 11.5z" />
    <glyph glyph-name="Sacute" unicode="&#x15a;" horiz-adv-x="497" 
d="M61 0zM138.5 1.5q-44.5 11.5 -77.5 27.5v114q34 -23 79 -38t92 -15q53 0 79.5 21t26.5 60q0 27 -14.5 46.5t-36.5 32t-60 30.5q-51 23 -83 43.5t-54.5 57.5t-22.5 93q0 85 54.5 134.5t150.5 49.5q44 0 86.5 -9.5t65.5 -21.5v-114q-31 20 -70 33t-75 13q-46 0 -72 -21
t-26 -58q0 -26 14 -44t35 -30t60 -29q52 -24 84 -44.5t55.5 -57.5t23.5 -95q0 -92 -57 -141t-161 -49q-52 0 -96.5 11.5zM310 876h145l-156 -166h-108z" />
    <glyph glyph-name="Sacute.loclPLK" horiz-adv-x="497" 
d="M61 0zM138.5 1.5q-44.5 11.5 -77.5 27.5v114q34 -23 79 -38t92 -15q53 0 79.5 21t26.5 60q0 27 -14.5 46.5t-36.5 32t-60 30.5q-51 23 -83 43.5t-54.5 57.5t-22.5 93q0 85 54.5 134.5t150.5 49.5q44 0 86.5 -9.5t65.5 -21.5v-114q-31 20 -70 33t-75 13q-46 0 -72 -21
t-26 -58q0 -26 14 -44t35 -30t60 -29q52 -24 84 -44.5t55.5 -57.5t23.5 -95q0 -92 -57 -141t-161 -49q-52 0 -96.5 11.5zM294 876h131l-107 -166h-102z" />
    <glyph glyph-name="Scaron" unicode="&#x160;" horiz-adv-x="497" 
d="M61 0zM138.5 1.5q-44.5 11.5 -77.5 27.5v114q34 -23 79 -38t92 -15q53 0 79.5 21t26.5 60q0 27 -14.5 46.5t-36.5 32t-60 30.5q-51 23 -83 43.5t-54.5 57.5t-22.5 93q0 85 54.5 134.5t150.5 49.5q44 0 86.5 -9.5t65.5 -21.5v-114q-31 20 -70 33t-75 13q-46 0 -72 -21
t-26 -58q0 -26 14 -44t35 -30t60 -29q52 -24 84 -44.5t55.5 -57.5t23.5 -95q0 -92 -57 -141t-161 -49q-52 0 -96.5 11.5zM96 876h116l59 -63l59 63h117l-176 -175z" />
    <glyph glyph-name="Scedilla" unicode="&#x15e;" horiz-adv-x="497" 
d="M399.5 42q-53.5 -49 -151.5 -52l-9 -30q3 1 10 1q34 -1 54.5 -20t20.5 -59q0 -47 -32 -68t-81 -21q-43 0 -67 11v59q10 -5 25.5 -9.5t30.5 -4.5q23 0 34 8t11 26t-10 26t-26 8q-22 0 -39 -15l-10 6l24 85q-69 9 -123 36v114q34 -23 79 -38t92 -15q53 0 79.5 21t26.5 60
q0 27 -14.5 46.5t-36.5 32t-60 30.5q-51 23 -83 43.5t-54.5 57.5t-22.5 93q0 85 54.5 134.5t150.5 49.5q44 0 86.5 -9.5t65.5 -21.5v-114q-31 20 -70 33t-75 13q-46 0 -72 -21t-26 -58q0 -26 14 -44t35 -30t60 -29q52 -24 84 -44.5t55.5 -57.5t23.5 -95q0 -89 -53.5 -138z
" />
    <glyph glyph-name="Scircumflex" unicode="&#x15c;" horiz-adv-x="497" 
d="M61 0zM138.5 1.5q-44.5 11.5 -77.5 27.5v114q34 -23 79 -38t92 -15q53 0 79.5 21t26.5 60q0 27 -14.5 46.5t-36.5 32t-60 30.5q-51 23 -83 43.5t-54.5 57.5t-22.5 93q0 85 54.5 134.5t150.5 49.5q44 0 86.5 -9.5t65.5 -21.5v-114q-31 20 -70 33t-75 13q-46 0 -72 -21
t-26 -58q0 -26 14 -44t35 -30t60 -29q52 -24 84 -44.5t55.5 -57.5t23.5 -95q0 -92 -57 -141t-161 -49q-52 0 -96.5 11.5zM271 885l176 -175h-117l-59 63l-59 -63h-116z" />
    <glyph glyph-name="Scommaaccent" unicode="&#x218;" horiz-adv-x="497" 
d="M61 0zM138.5 1.5q-44.5 11.5 -77.5 27.5v114q34 -23 79 -38t92 -15q53 0 79.5 21t26.5 60q0 27 -14.5 46.5t-36.5 32t-60 30.5q-51 23 -83 43.5t-54.5 57.5t-22.5 93q0 85 54.5 134.5t150.5 49.5q44 0 86.5 -9.5t65.5 -21.5v-114q-31 20 -70 33t-75 13q-46 0 -72 -21
t-26 -58q0 -26 14 -44t35 -30t60 -29q52 -24 84 -44.5t55.5 -57.5t23.5 -95q0 -92 -57 -141t-161 -49q-52 0 -96.5 11.5zM226 -149q-23 0 -37.5 14t-14.5 37q0 25 16 39.5t41 14.5q27 0 45.5 -18t18.5 -50q0 -27 -14.5 -52t-37.5 -43h-61q31 27 44 58z" />
    <glyph glyph-name="uni1E9E" unicode="&#x1e9e;" horiz-adv-x="672" 
d="M275 7v100q51 -20 113 -20q65 0 95.5 28.5t30.5 86.5q0 52 -31 82t-89 30q-51 0 -83 -21l-7 7l138 254h-249v-554h-113v648h520v-10l-131 -241q69 -6 114.5 -55.5t45.5 -137.5q0 -109 -63 -161.5t-172 -52.5q-63 0 -119 17z" />
    <glyph glyph-name="T" unicode="T" horiz-adv-x="560" 
d="M224 552h-184v96h480v-96h-183v-552h-113v552z" />
    <glyph glyph-name="Tbar" unicode="&#x166;" horiz-adv-x="560" 
d="M337 552v-209h99v-90h-99v-253h-113v253h-103v90h103v209h-184v96h480v-96h-183z" />
    <glyph glyph-name="Tcaron" unicode="&#x164;" horiz-adv-x="560" 
d="M40 0zM224 552h-184v96h480v-96h-183v-552h-113v552zM104 876h116l59 -63l59 63h117l-176 -175z" />
    <glyph glyph-name="uni0162" unicode="&#x162;" horiz-adv-x="560" 
d="M40 0zM224 552h-184v96h480v-96h-183v-552h-113v552zM271 -149q-23 0 -37.5 14t-14.5 37q0 25 16 39.5t41 14.5q27 0 45.5 -18t18.5 -50q0 -27 -14.5 -52t-37.5 -43h-61q31 27 44 58z" />
    <glyph glyph-name="uni021A" unicode="&#x21a;" horiz-adv-x="560" 
d="M40 0zM224 552h-184v96h480v-96h-183v-552h-113v552zM271 -149q-23 0 -37.5 14t-14.5 37q0 25 16 39.5t41 14.5q27 0 45.5 -18t18.5 -50q0 -27 -14.5 -52t-37.5 -43h-61q31 27 44 58z" />
    <glyph glyph-name="U" unicode="U" horiz-adv-x="658" 
d="M136.5 55.5q-63.5 65.5 -63.5 206.5v386h113v-363q0 -96 30.5 -144t112.5 -48q81 0 112.5 47.5t31.5 144.5v363h112v-385q0 -143 -64 -208t-192 -65q-129 0 -192.5 65.5z" />
    <glyph glyph-name="Uacute" unicode="&#xda;" horiz-adv-x="658" 
d="M73 0zM136.5 55.5q-63.5 65.5 -63.5 206.5v386h113v-363q0 -96 30.5 -144t112.5 -48q81 0 112.5 47.5t31.5 144.5v363h112v-385q0 -143 -64 -208t-192 -65q-129 0 -192.5 65.5zM367 876h145l-156 -166h-108z" />
    <glyph glyph-name="Ubreve" unicode="&#x16c;" horiz-adv-x="658" 
d="M73 0zM136.5 55.5q-63.5 65.5 -63.5 206.5v386h113v-363q0 -96 30.5 -144t112.5 -48q81 0 112.5 47.5t31.5 144.5v363h112v-385q0 -143 -64 -208t-192 -65q-129 0 -192.5 65.5zM157 863v13h86q0 -42 20 -64t65 -22q46 0 66 22t20 64h86v-13q0 -75 -40.5 -118.5
t-131.5 -43.5q-171 0 -171 162z" />
    <glyph glyph-name="Ucircumflex" unicode="&#xdb;" horiz-adv-x="658" 
d="M73 0zM136.5 55.5q-63.5 65.5 -63.5 206.5v386h113v-363q0 -96 30.5 -144t112.5 -48q81 0 112.5 47.5t31.5 144.5v363h112v-385q0 -143 -64 -208t-192 -65q-129 0 -192.5 65.5zM328 885l176 -175h-117l-59 63l-59 -63h-116z" />
    <glyph glyph-name="Udieresis" unicode="&#xdc;" horiz-adv-x="658" 
d="M73 0zM136.5 55.5q-63.5 65.5 -63.5 206.5v386h113v-363q0 -96 30.5 -144t112.5 -48q81 0 112.5 47.5t31.5 144.5v363h112v-385q0 -143 -64 -208t-192 -65q-129 0 -192.5 65.5zM178 743.5q-19 19.5 -19 49.5t19 49.5t49 19.5t49 -19.5t19 -49.5t-19 -49.5t-49 -19.5
t-49 19.5zM381 743.5q-19 19.5 -19 49.5t19 49.5t49 19.5t49 -19.5t19 -49.5t-19 -49.5t-49 -19.5t-49 19.5z" />
    <glyph glyph-name="Ugrave" unicode="&#xd9;" horiz-adv-x="658" 
d="M73 0zM136.5 55.5q-63.5 65.5 -63.5 206.5v386h113v-363q0 -96 30.5 -144t112.5 -48q81 0 112.5 47.5t31.5 144.5v363h112v-385q0 -143 -64 -208t-192 -65q-129 0 -192.5 65.5zM185 876h145l119 -166h-108z" />
    <glyph glyph-name="Uhungarumlaut" unicode="&#x170;" horiz-adv-x="658" 
d="M73 0zM136.5 55.5q-63.5 65.5 -63.5 206.5v386h113v-363q0 -96 30.5 -144t112.5 -48q81 0 112.5 47.5t31.5 144.5v363h112v-385q0 -143 -64 -208t-192 -65q-129 0 -192.5 65.5zM245 876h145l-171 -166h-108zM465 876h145l-171 -166h-108z" />
    <glyph glyph-name="Umacron" unicode="&#x16a;" horiz-adv-x="658" 
d="M73 0zM136.5 55.5q-63.5 65.5 -63.5 206.5v386h113v-363q0 -96 30.5 -144t112.5 -48q81 0 112.5 47.5t31.5 144.5v363h112v-385q0 -143 -64 -208t-192 -65q-129 0 -192.5 65.5zM179 838h300v-88h-300v88z" />
    <glyph glyph-name="Uogonek" unicode="&#x172;" horiz-adv-x="658" 
d="M322 -183.5q-32 23.5 -32 72.5q0 33 15.5 60t40.5 42q-5 -1 -17 -1q-129 0 -192.5 65.5t-63.5 206.5v386h113v-363q0 -96 30.5 -144t112.5 -48q81 0 112.5 47.5t31.5 144.5v363h112v-385q0 -86 -21.5 -139.5t-51 -80t-73.5 -51.5q-37 -21 -54 -38t-17 -47q0 -49 51 -49
q28 0 47 11v-65q-24 -11 -63 -11q-49 0 -81 23.5z" />
    <glyph glyph-name="Uring" unicode="&#x16e;" horiz-adv-x="658" 
d="M73 0zM136.5 55.5q-63.5 65.5 -63.5 206.5v386h113v-363q0 -96 30.5 -144t112.5 -48q81 0 112.5 47.5t31.5 144.5v363h112v-385q0 -143 -64 -208t-192 -65q-129 0 -192.5 65.5zM253 720.5q-31 30.5 -31 72.5t31 72.5t76 30.5t76 -30.5t31 -72.5t-31 -72.5t-76 -30.5
t-76 30.5zM361 760.5q13 13.5 13 32.5t-13 32.5t-32 13.5t-32 -13.5t-13 -32.5t13 -32.5t32 -13.5t32 13.5z" />
    <glyph glyph-name="Utilde" unicode="&#x168;" horiz-adv-x="658" 
d="M73 0zM136.5 55.5q-63.5 65.5 -63.5 206.5v386h113v-363q0 -96 30.5 -144t112.5 -48q81 0 112.5 47.5t31.5 144.5v363h112v-385q0 -143 -64 -208t-192 -65q-129 0 -192.5 65.5zM357 735.5q-20 7.5 -43 20.5q-20 10 -30.5 14.5t-21.5 4.5q-20 0 -29.5 -14t-9.5 -28h-69
q0 49 27 84.5t76 35.5q24 0 45 -7.5t45 -21.5q4 -2 20.5 -10t29.5 -8q18 0 27.5 13t9.5 29h69q0 -48 -27 -84t-76 -36q-23 0 -43 7.5z" />
    <glyph glyph-name="V" unicode="V" horiz-adv-x="663" 
d="M20 648h125l187 -423l189 423h122l-306 -657h-10z" />
    <glyph glyph-name="W" unicode="W" horiz-adv-x="991" 
d="M28 648h125l161 -401l177 401h10l177 -401l163 401h122l-275 -657h-10l-182 411l-182 -411h-10z" />
    <glyph glyph-name="Wacute" unicode="&#x1e82;" horiz-adv-x="991" 
d="M28 0zM28 648h125l161 -401l177 401h10l177 -401l163 401h122l-275 -657h-10l-182 411l-182 -411h-10zM574 876h145l-156 -166h-108z" />
    <glyph glyph-name="Wcircumflex" unicode="&#x174;" horiz-adv-x="991" 
d="M28 0zM28 648h125l161 -401l177 401h10l177 -401l163 401h122l-275 -657h-10l-182 411l-182 -411h-10zM495 885l176 -175h-117l-59 63l-59 -63h-116z" />
    <glyph glyph-name="Wdieresis" unicode="&#x1e84;" horiz-adv-x="991" 
d="M28 0zM28 648h125l161 -401l177 401h10l177 -401l163 401h122l-275 -657h-10l-182 411l-182 -411h-10zM345 743.5q-19 19.5 -19 49.5t19 49.5t49 19.5t49 -19.5t19 -49.5t-19 -49.5t-49 -19.5t-49 19.5zM548 743.5q-19 19.5 -19 49.5t19 49.5t49 19.5t49 -19.5t19 -49.5
t-19 -49.5t-49 -19.5t-49 19.5z" />
    <glyph glyph-name="Wgrave" unicode="&#x1e80;" horiz-adv-x="991" 
d="M28 0zM28 648h125l161 -401l177 401h10l177 -401l163 401h122l-275 -657h-10l-182 411l-182 -411h-10zM312 876h145l119 -166h-108z" />
    <glyph glyph-name="X" unicode="X" horiz-adv-x="627" 
d="M244 330l-217 318h135l151 -237l156 237h131l-217 -317l224 -331h-135l-159 248l-163 -248h-130z" />
    <glyph glyph-name="Y" unicode="Y" horiz-adv-x="617" 
d="M251 257l-231 391h125l165 -293l166 293h121l-233 -391v-257h-113v257z" />
    <glyph glyph-name="Yacute" unicode="&#xdd;" horiz-adv-x="617" 
d="M20 0zM251 257l-231 391h125l165 -293l166 293h121l-233 -391v-257h-113v257zM346 876h145l-156 -166h-108z" />
    <glyph glyph-name="Ycircumflex" unicode="&#x176;" horiz-adv-x="617" 
d="M20 0zM251 257l-231 391h125l165 -293l166 293h121l-233 -391v-257h-113v257zM307 885l176 -175h-117l-59 63l-59 -63h-116z" />
    <glyph glyph-name="Ydieresis" unicode="&#x178;" horiz-adv-x="617" 
d="M20 0zM251 257l-231 391h125l165 -293l166 293h121l-233 -391v-257h-113v257zM157 743.5q-19 19.5 -19 49.5t19 49.5t49 19.5t49 -19.5t19 -49.5t-19 -49.5t-49 -19.5t-49 19.5zM360 743.5q-19 19.5 -19 49.5t19 49.5t49 19.5t49 -19.5t19 -49.5t-19 -49.5t-49 -19.5
t-49 19.5z" />
    <glyph glyph-name="Ygrave" unicode="&#x1ef2;" horiz-adv-x="617" 
d="M20 0zM251 257l-231 391h125l165 -293l166 293h121l-233 -391v-257h-113v257zM164 876h145l119 -166h-108z" />
    <glyph glyph-name="Z" unicode="Z" horiz-adv-x="594" 
d="M42 10l330 542h-310v96h490v-10l-329 -541h329v-97h-510v10z" />
    <glyph glyph-name="Zacute" unicode="&#x179;" horiz-adv-x="594" 
d="M42 0zM42 10l330 542h-310v96h490v-10l-329 -541h329v-97h-510v10zM335 876h145l-156 -166h-108z" />
    <glyph glyph-name="Zacute.loclPLK" horiz-adv-x="594" 
d="M42 0zM42 10l330 542h-310v96h490v-10l-329 -541h329v-97h-510v10zM319 876h131l-107 -166h-102z" />
    <glyph glyph-name="Zcaron" unicode="&#x17d;" horiz-adv-x="594" 
d="M42 0zM42 10l330 542h-310v96h490v-10l-329 -541h329v-97h-510v10zM121 876h116l59 -63l59 63h117l-176 -175z" />
    <glyph glyph-name="Zdotaccent" unicode="&#x17b;" horiz-adv-x="594" 
d="M42 0zM42 10l330 542h-310v96h490v-10l-329 -541h329v-97h-510v10zM247 743.5q-19 19.5 -19 50.5q0 30 20 49.5t49 19.5t48.5 -19.5t19.5 -50.5q0 -30 -19.5 -49.5t-48.5 -19.5q-31 0 -50 19.5z" />
    <glyph glyph-name="a" unicode="a" horiz-adv-x="583" 
d="M148 17.5q-50 26.5 -80 78.5t-30 126q0 72 28.5 125.5t79 82.5t114.5 29q53 0 92 -18.5t61 -47.5l2 57h100v-450h-101l-2 59q-20 -29 -60.5 -48.5t-92.5 -19.5q-61 0 -111 26.5zM369 118.5q38 33.5 38 108.5q0 69 -36 104t-90 35q-56 0 -93 -36.5t-37 -104.5
q0 -67 35 -103.5t91 -36.5q54 0 92 33.5z" />
    <glyph glyph-name="aacute" unicode="&#xe1;" horiz-adv-x="583" 
d="M38 0zM148 17.5q-50 26.5 -80 78.5t-30 126q0 72 28.5 125.5t79 82.5t114.5 29q53 0 92 -18.5t61 -47.5l2 57h100v-450h-101l-2 59q-20 -29 -60.5 -48.5t-92.5 -19.5q-61 0 -111 26.5zM369 118.5q38 33.5 38 108.5q0 69 -36 104t-90 35q-56 0 -93 -36.5t-37 -104.5
q0 -67 35 -103.5t91 -36.5q54 0 92 33.5zM309 686h145l-156 -166h-108z" />
    <glyph glyph-name="abreve" unicode="&#x103;" horiz-adv-x="583" 
d="M38 0zM148 17.5q-50 26.5 -80 78.5t-30 126q0 72 28.5 125.5t79 82.5t114.5 29q53 0 92 -18.5t61 -47.5l2 57h100v-450h-101l-2 59q-20 -29 -60.5 -48.5t-92.5 -19.5q-61 0 -111 26.5zM369 118.5q38 33.5 38 108.5q0 69 -36 104t-90 35q-56 0 -93 -36.5t-37 -104.5
q0 -67 35 -103.5t91 -36.5q54 0 92 33.5zM112 673v13h85q0 -88 85 -88q86 0 86 88h85v-13q0 -74 -40.5 -118t-130.5 -44q-170 0 -170 162z" />
    <glyph glyph-name="uni01CE" unicode="&#x1ce;" horiz-adv-x="583" 
d="M38 0zM148 17.5q-50 26.5 -80 78.5t-30 126q0 72 28.5 125.5t79 82.5t114.5 29q53 0 92 -18.5t61 -47.5l2 57h100v-450h-101l-2 59q-20 -29 -60.5 -48.5t-92.5 -19.5q-61 0 -111 26.5zM369 118.5q38 33.5 38 108.5q0 69 -36 104t-90 35q-56 0 -93 -36.5t-37 -104.5
q0 -67 35 -103.5t91 -36.5q54 0 92 33.5zM107 686h116l59 -63l59 63h117l-176 -175z" />
    <glyph glyph-name="acircumflex" unicode="&#xe2;" horiz-adv-x="583" 
d="M38 0zM148 17.5q-50 26.5 -80 78.5t-30 126q0 72 28.5 125.5t79 82.5t114.5 29q53 0 92 -18.5t61 -47.5l2 57h100v-450h-101l-2 59q-20 -29 -60.5 -48.5t-92.5 -19.5q-61 0 -111 26.5zM369 118.5q38 33.5 38 108.5q0 69 -36 104t-90 35q-56 0 -93 -36.5t-37 -104.5
q0 -67 35 -103.5t91 -36.5q54 0 92 33.5zM282 695l176 -175h-117l-59 63l-59 -63h-116z" />
    <glyph glyph-name="adieresis" unicode="&#xe4;" horiz-adv-x="583" 
d="M38 0zM148 17.5q-50 26.5 -80 78.5t-30 126q0 72 28.5 125.5t79 82.5t114.5 29q53 0 92 -18.5t61 -47.5l2 57h100v-450h-101l-2 59q-20 -29 -60.5 -48.5t-92.5 -19.5q-61 0 -111 26.5zM369 118.5q38 33.5 38 108.5q0 69 -36 104t-90 35q-56 0 -93 -36.5t-37 -104.5
q0 -67 35 -103.5t91 -36.5q54 0 92 33.5zM132 553.5q-19 19.5 -19 49.5t19 49.5t49 19.5t49 -19.5t19 -49.5t-19 -49.5t-49 -19.5t-49 19.5zM335 553.5q-19 19.5 -19 49.5t19 49.5t49 19.5t49 -19.5t19 -49.5t-19 -49.5t-49 -19.5t-49 19.5z" />
    <glyph glyph-name="agrave" unicode="&#xe0;" horiz-adv-x="583" 
d="M38 0zM148 17.5q-50 26.5 -80 78.5t-30 126q0 72 28.5 125.5t79 82.5t114.5 29q53 0 92 -18.5t61 -47.5l2 57h100v-450h-101l-2 59q-20 -29 -60.5 -48.5t-92.5 -19.5q-61 0 -111 26.5zM369 118.5q38 33.5 38 108.5q0 69 -36 104t-90 35q-56 0 -93 -36.5t-37 -104.5
q0 -67 35 -103.5t91 -36.5q54 0 92 33.5zM121 686h145l119 -166h-108z" />
    <glyph glyph-name="amacron" unicode="&#x101;" horiz-adv-x="583" 
d="M38 0zM148 17.5q-50 26.5 -80 78.5t-30 126q0 72 28.5 125.5t79 82.5t114.5 29q53 0 92 -18.5t61 -47.5l2 57h100v-450h-101l-2 59q-20 -29 -60.5 -48.5t-92.5 -19.5q-61 0 -111 26.5zM369 118.5q38 33.5 38 108.5q0 69 -36 104t-90 35q-56 0 -93 -36.5t-37 -104.5
q0 -67 35 -103.5t91 -36.5q54 0 92 33.5zM133 648h300v-88h-300v88z" />
    <glyph glyph-name="aogonek" unicode="&#x105;" horiz-adv-x="583" 
d="M365 -183.5q-32 23.5 -32 72.5q0 40 22 71t59 45l-2 54q-21 -29 -61 -48.5t-92 -19.5q-61 0 -111 26.5t-80 78.5t-30 126q0 72 28.5 125.5t79 82.5t114.5 29q53 0 92 -18.5t61 -47.5l2 57h100v-450q-104 -29 -104 -93q0 -49 51 -49q28 0 47 11v-65q-24 -11 -63 -11
q-49 0 -81 23.5zM369 118.5q38 33.5 38 108.5q0 69 -36 104t-90 35q-56 0 -93 -36.5t-37 -104.5q0 -67 35 -103.5t91 -36.5q54 0 92 33.5z" />
    <glyph glyph-name="aring" unicode="&#xe5;" horiz-adv-x="583" 
d="M38 0zM148 17.5q-50 26.5 -80 78.5t-30 126q0 72 28.5 125.5t79 82.5t114.5 29q53 0 92 -18.5t61 -47.5l2 57h100v-450h-101l-2 59q-20 -29 -60.5 -48.5t-92.5 -19.5q-61 0 -111 26.5zM369 118.5q38 33.5 38 108.5q0 69 -36 104t-90 35q-56 0 -93 -36.5t-37 -104.5
q0 -67 35 -103.5t91 -36.5q54 0 92 33.5zM207 540.5q-31 30.5 -31 72.5t31 72.5t76 30.5t76 -30.5t31 -72.5t-31 -72.5t-76 -30.5t-76 30.5zM315 580.5q13 13.5 13 32.5t-13 32.5t-32 13.5t-32 -13.5t-13 -32.5t13 -32.5t32 -13.5t32 13.5z" />
    <glyph glyph-name="atilde" unicode="&#xe3;" horiz-adv-x="583" 
d="M38 0zM148 17.5q-50 26.5 -80 78.5t-30 126q0 72 28.5 125.5t79 82.5t114.5 29q53 0 92 -18.5t61 -47.5l2 57h100v-450h-101l-2 59q-20 -29 -60.5 -48.5t-92.5 -19.5q-61 0 -111 26.5zM369 118.5q38 33.5 38 108.5q0 69 -36 104t-90 35q-56 0 -93 -36.5t-37 -104.5
q0 -67 35 -103.5t91 -36.5q54 0 92 33.5zM311 545.5q-20 7.5 -43 20.5q-20 10 -30.5 14.5t-21.5 4.5q-20 0 -29.5 -14t-9.5 -28h-69q0 49 27 84.5t76 35.5q24 0 45 -7.5t45 -21.5q4 -2 20.5 -10t29.5 -8q18 0 27.5 13t9.5 29h69q0 -48 -27 -84t-76 -36q-23 0 -43 7.5z" />
    <glyph glyph-name="ae" unicode="&#xe6;" horiz-adv-x="807" 
d="M38 128q0 70 41.5 103t127.5 33h129v8q0 51 -26.5 74t-86.5 23q-40 0 -76 -10.5t-60 -23.5v93q18 12 56.5 21.5t86.5 9.5q123 0 165 -68q25 31 64.5 49.5t93.5 18.5q107 0 161.5 -63t54.5 -163q0 -23 -3 -46h-324q13 -104 151 -104q85 0 157 42v-96q-27 -15 -73 -26.5
t-102 -11.5q-67 0 -113.5 18t-69.5 50q-21 -34 -63.5 -51t-102.5 -17q-188 0 -188 137zM658 264q0 48 -29.5 76.5t-75.5 28.5q-45 0 -75.5 -29t-34.5 -76h215zM311.5 101.5q24.5 24.5 24.5 62.5v23h-106q-40 0 -61 -11t-21 -44q0 -55 82 -55q57 0 81.5 24.5z" />
    <glyph glyph-name="aeacute" unicode="&#x1fd;" horiz-adv-x="807" 
d="M38 0zM477 686h145l-156 -166h-108zM38 128q0 70 41.5 103t127.5 33h129v8q0 51 -26.5 74t-86.5 23q-40 0 -76 -10.5t-60 -23.5v93q18 12 56.5 21.5t86.5 9.5q123 0 165 -68q25 31 64.5 49.5t93.5 18.5q107 0 161.5 -63t54.5 -163q0 -23 -3 -46h-324q13 -104 151 -104
q85 0 157 42v-96q-27 -15 -73 -26.5t-102 -11.5q-67 0 -113.5 18t-69.5 50q-21 -34 -63.5 -51t-102.5 -17q-188 0 -188 137zM658 264q0 48 -29.5 76.5t-75.5 28.5q-45 0 -75.5 -29t-34.5 -76h215zM311.5 101.5q24.5 24.5 24.5 62.5v23h-106q-40 0 -61 -11t-21 -44
q0 -55 82 -55q57 0 81.5 24.5z" />
    <glyph glyph-name="b" unicode="b" horiz-adv-x="584" 
d="M231.5 9.5q-40.5 18.5 -61.5 48.5l-2 -58h-100v663h109v-266q24 31 62 46.5t85 15.5q67 0 117 -29t77.5 -81.5t27.5 -121.5q0 -70 -28.5 -123.5t-79 -83t-114.5 -29.5q-52 0 -92.5 18.5zM397.5 124.5q35.5 39.5 35.5 102.5q0 62 -36 100.5t-94 38.5q-61 0 -96 -41
t-35 -101q0 -61 36.5 -100t94.5 -39q59 0 94.5 39.5z" />
    <glyph glyph-name="c" unicode="c" horiz-adv-x="445" 
d="M157 16q-54 25 -86.5 76.5t-32.5 126.5q0 71 29.5 125.5t84 84.5t127.5 30q37 0 67.5 -7t51.5 -17v-102q-54 33 -110 33q-60 0 -98.5 -38t-38.5 -104t37 -102.5t100 -36.5q38 0 67 11.5t47 24.5v-103q-19 -11 -53.5 -19t-72.5 -8q-65 0 -119 25z" />
    <glyph glyph-name="cacute" unicode="&#x107;" horiz-adv-x="445" 
d="M38 0zM157 16q-54 25 -86.5 76.5t-32.5 126.5q0 71 29.5 125.5t84 84.5t127.5 30q37 0 67.5 -7t51.5 -17v-102q-54 33 -110 33q-60 0 -98.5 -38t-38.5 -104t37 -102.5t100 -36.5q38 0 67 11.5t47 24.5v-103q-19 -11 -53.5 -19t-72.5 -8q-65 0 -119 25zM305 686h145
l-156 -166h-108z" />
    <glyph glyph-name="cacute.loclPLK" horiz-adv-x="445" 
d="M38 0zM157 16q-54 25 -86.5 76.5t-32.5 126.5q0 71 29.5 125.5t84 84.5t127.5 30q37 0 67.5 -7t51.5 -17v-102q-54 33 -110 33q-60 0 -98.5 -38t-38.5 -104t37 -102.5t100 -36.5q38 0 67 11.5t47 24.5v-103q-19 -11 -53.5 -19t-72.5 -8q-65 0 -119 25zM289 686h131
l-106 -166h-104z" />
    <glyph glyph-name="ccaron" unicode="&#x10d;" horiz-adv-x="445" 
d="M38 0zM157 16q-54 25 -86.5 76.5t-32.5 126.5q0 71 29.5 125.5t84 84.5t127.5 30q37 0 67.5 -7t51.5 -17v-102q-54 33 -110 33q-60 0 -98.5 -38t-38.5 -104t37 -102.5t100 -36.5q38 0 67 11.5t47 24.5v-103q-19 -11 -53.5 -19t-72.5 -8q-65 0 -119 25zM103 686h116
l59 -63l59 63h117l-176 -175z" />
    <glyph glyph-name="ccedilla" unicode="&#xe7;" horiz-adv-x="445" 
d="M351 -0.5q-32 -7.5 -68 -8.5l-10 -31q3 1 10 1q34 -1 54.5 -20t20.5 -59q0 -47 -32 -68t-81 -21q-43 0 -67 11v59q10 -5 25.5 -9.5t30.5 -4.5q23 0 34 8t11 26t-10 26t-26 8q-22 0 -39 -15l-10 6l25 88q-80 15 -130.5 71.5t-50.5 151.5q0 71 29.5 125.5t84 84.5t127.5 30
q37 0 67.5 -7t51.5 -17v-102q-54 33 -110 33q-60 0 -98.5 -38t-38.5 -104t37 -102.5t100 -36.5q38 0 67 11.5t47 24.5v-103q-19 -11 -51 -18.5z" />
    <glyph glyph-name="ccircumflex" unicode="&#x109;" horiz-adv-x="445" 
d="M38 0zM157 16q-54 25 -86.5 76.5t-32.5 126.5q0 71 29.5 125.5t84 84.5t127.5 30q37 0 67.5 -7t51.5 -17v-102q-54 33 -110 33q-60 0 -98.5 -38t-38.5 -104t37 -102.5t100 -36.5q38 0 67 11.5t47 24.5v-103q-19 -11 -53.5 -19t-72.5 -8q-65 0 -119 25zM278 695l176 -175
h-117l-59 63l-59 -63h-116z" />
    <glyph glyph-name="cdotaccent" unicode="&#x10b;" horiz-adv-x="445" 
d="M38 0zM157 16q-54 25 -86.5 76.5t-32.5 126.5q0 71 29.5 125.5t84 84.5t127.5 30q37 0 67.5 -7t51.5 -17v-102q-54 33 -110 33q-60 0 -98.5 -38t-38.5 -104t37 -102.5t100 -36.5q38 0 67 11.5t47 24.5v-103q-19 -11 -53.5 -19t-72.5 -8q-65 0 -119 25zM229 558.5
q-19 19.5 -19 50.5q0 30 20 49.5t49 19.5t48.5 -19.5t19.5 -50.5q0 -30 -19.5 -49.5t-48.5 -19.5q-31 0 -50 19.5z" />
    <glyph glyph-name="d" unicode="d" horiz-adv-x="584" 
d="M147 18.5q-51 27.5 -80 80t-29 124.5q0 69 27 122.5t76.5 83.5t115.5 30q47 0 86 -14.5t64 -43.5v262h109v-663h-100l-2 59q-19 -31 -59 -49.5t-93 -18.5q-64 0 -115 27.5zM376.5 124.5q35.5 39.5 35.5 102.5q0 62 -36 100.5t-94 38.5q-60 0 -95.5 -41t-35.5 -100
q0 -62 36.5 -101t94.5 -39q59 0 94.5 39.5z" />
    <glyph glyph-name="eth" unicode="&#xf0;" horiz-adv-x="563" 
d="M153 20.5q-55 29.5 -85 82t-30 120.5t28 121.5t79.5 84t121.5 30.5q43 0 79.5 -14.5t56.5 -45.5q-11 35 -35 70.5t-52 59.5l-70 -42l-38 59l42 25q-39 18 -106 23v84q54 -4 103.5 -21t84.5 -38l76 44l38 -59l-53 -30q67 -59 99.5 -136.5t32.5 -180.5q0 -124 -65.5 -195
t-178.5 -71q-73 0 -128 29.5zM376.5 124.5q35.5 39.5 35.5 102.5q0 62 -36 100t-94 38q-60 0 -95.5 -41t-35.5 -99q0 -62 36.5 -101t94.5 -39q59 0 94.5 39.5z" />
    <glyph glyph-name="dcaron" unicode="&#x10f;" horiz-adv-x="721" 
d="M38 0zM147 18.5q-51 27.5 -80 80t-29 124.5q0 69 27 122.5t76.5 83.5t115.5 30q47 0 86 -14.5t64 -43.5v262h109v-663h-100l-2 59q-19 -31 -59 -49.5t-93 -18.5q-64 0 -115 27.5zM376.5 124.5q35.5 39.5 35.5 102.5q0 62 -36 100.5t-94 38.5q-60 0 -95.5 -41t-35.5 -100
q0 -62 36.5 -101t94.5 -39q59 0 94.5 39.5zM652 563q-23 0 -37.5 14t-14.5 37q0 25 16 39.5t41 14.5q27 0 45.5 -18t18.5 -50q0 -29 -19 -58.5t-49 -48.5h-55q42 39 54 70z" />
    <glyph glyph-name="dcroat" unicode="&#x111;" horiz-adv-x="563" 
d="M594 507h-78v-507h-100l-2 59q-19 -31 -59 -49.5t-93 -18.5q-64 0 -115 27.5t-80 80t-29 124.5q0 69 27 122.5t76.5 83.5t115.5 30q47 0 86 -14.5t64 -43.5v106h-115v84h115v72h109v-72h78v-84zM376.5 124.5q35.5 39.5 35.5 102.5q0 62 -36 100.5t-94 38.5
q-60 0 -95.5 -41t-35.5 -100q0 -62 36.5 -101t94.5 -39q59 0 94.5 39.5z" />
    <glyph glyph-name="e" unicode="e" horiz-adv-x="516" 
d="M103 50q-65 59 -65 171q0 70 26.5 123.5t77 84t120.5 30.5q107 0 161.5 -63t54.5 -163q0 -23 -3 -46h-324q13 -104 151 -104q85 0 157 42v-96q-27 -15 -73 -26.5t-102 -11.5q-116 0 -181 59zM367 264q0 48 -29.5 76.5t-75.5 28.5q-45 0 -75.5 -29t-34.5 -76h215z" />
    <glyph glyph-name="eacute" unicode="&#xe9;" horiz-adv-x="516" 
d="M38 0zM103 50q-65 59 -65 171q0 70 26.5 123.5t77 84t120.5 30.5q107 0 161.5 -63t54.5 -163q0 -23 -3 -46h-324q13 -104 151 -104q85 0 157 42v-96q-27 -15 -73 -26.5t-102 -11.5q-116 0 -181 59zM367 264q0 48 -29.5 76.5t-75.5 28.5q-45 0 -75.5 -29t-34.5 -76h215z
M288 686h145l-156 -166h-108z" />
    <glyph glyph-name="ebreve" unicode="&#x115;" horiz-adv-x="516" 
d="M38 0zM103 50q-65 59 -65 171q0 70 26.5 123.5t77 84t120.5 30.5q107 0 161.5 -63t54.5 -163q0 -23 -3 -46h-324q13 -104 151 -104q85 0 157 42v-96q-27 -15 -73 -26.5t-102 -11.5q-116 0 -181 59zM367 264q0 48 -29.5 76.5t-75.5 28.5q-45 0 -75.5 -29t-34.5 -76h215z
M91 673v13h85q0 -88 85 -88q86 0 86 88h85v-13q0 -74 -40.5 -118t-130.5 -44q-170 0 -170 162z" />
    <glyph glyph-name="ecaron" unicode="&#x11b;" horiz-adv-x="516" 
d="M38 0zM103 50q-65 59 -65 171q0 70 26.5 123.5t77 84t120.5 30.5q107 0 161.5 -63t54.5 -163q0 -23 -3 -46h-324q13 -104 151 -104q85 0 157 42v-96q-27 -15 -73 -26.5t-102 -11.5q-116 0 -181 59zM367 264q0 48 -29.5 76.5t-75.5 28.5q-45 0 -75.5 -29t-34.5 -76h215z
M86 686h116l59 -63l59 63h117l-176 -175z" />
    <glyph glyph-name="ecircumflex" unicode="&#xea;" horiz-adv-x="516" 
d="M38 0zM103 50q-65 59 -65 171q0 70 26.5 123.5t77 84t120.5 30.5q107 0 161.5 -63t54.5 -163q0 -23 -3 -46h-324q13 -104 151 -104q85 0 157 42v-96q-27 -15 -73 -26.5t-102 -11.5q-116 0 -181 59zM367 264q0 48 -29.5 76.5t-75.5 28.5q-45 0 -75.5 -29t-34.5 -76h215z
M261 695l176 -175h-117l-59 63l-59 -63h-116z" />
    <glyph glyph-name="edieresis" unicode="&#xeb;" horiz-adv-x="516" 
d="M38 0zM103 50q-65 59 -65 171q0 70 26.5 123.5t77 84t120.5 30.5q107 0 161.5 -63t54.5 -163q0 -23 -3 -46h-324q13 -104 151 -104q85 0 157 42v-96q-27 -15 -73 -26.5t-102 -11.5q-116 0 -181 59zM367 264q0 48 -29.5 76.5t-75.5 28.5q-45 0 -75.5 -29t-34.5 -76h215z
M111 553.5q-19 19.5 -19 49.5t19 49.5t49 19.5t49 -19.5t19 -49.5t-19 -49.5t-49 -19.5t-49 19.5zM314 553.5q-19 19.5 -19 49.5t19 49.5t49 19.5t49 -19.5t19 -49.5t-19 -49.5t-49 -19.5t-49 19.5z" />
    <glyph glyph-name="edotaccent" unicode="&#x117;" horiz-adv-x="516" 
d="M38 0zM103 50q-65 59 -65 171q0 70 26.5 123.5t77 84t120.5 30.5q107 0 161.5 -63t54.5 -163q0 -23 -3 -46h-324q13 -104 151 -104q85 0 157 42v-96q-27 -15 -73 -26.5t-102 -11.5q-116 0 -181 59zM367 264q0 48 -29.5 76.5t-75.5 28.5q-45 0 -75.5 -29t-34.5 -76h215z
M212 558.5q-19 19.5 -19 50.5q0 30 20 49.5t49 19.5t48.5 -19.5t19.5 -50.5q0 -30 -19.5 -49.5t-48.5 -19.5q-31 0 -50 19.5z" />
    <glyph glyph-name="egrave" unicode="&#xe8;" horiz-adv-x="516" 
d="M38 0zM103 50q-65 59 -65 171q0 70 26.5 123.5t77 84t120.5 30.5q107 0 161.5 -63t54.5 -163q0 -23 -3 -46h-324q13 -104 151 -104q85 0 157 42v-96q-27 -15 -73 -26.5t-102 -11.5q-116 0 -181 59zM367 264q0 48 -29.5 76.5t-75.5 28.5q-45 0 -75.5 -29t-34.5 -76h215z
M100 686h145l119 -166h-108z" />
    <glyph glyph-name="emacron" unicode="&#x113;" horiz-adv-x="516" 
d="M38 0zM103 50q-65 59 -65 171q0 70 26.5 123.5t77 84t120.5 30.5q107 0 161.5 -63t54.5 -163q0 -23 -3 -46h-324q13 -104 151 -104q85 0 157 42v-96q-27 -15 -73 -26.5t-102 -11.5q-116 0 -181 59zM367 264q0 48 -29.5 76.5t-75.5 28.5q-45 0 -75.5 -29t-34.5 -76h215z
M112 648h300v-88h-300v88z" />
    <glyph glyph-name="eogonek" unicode="&#x119;" horiz-adv-x="516" 
d="M272 -183.5q-32 23.5 -32 72.5q0 33 15.5 61t42.5 42q-4 -1 -14 -1q-116 0 -181 59t-65 171q0 70 26.5 123.5t77 84t120.5 30.5q107 0 161.5 -63t54.5 -163q0 -23 -3 -46h-324q13 -104 151 -104q85 0 157 42v-96q-77 -34 -109 -60t-32 -62q0 -49 51 -49q28 0 47 11v-65
q-24 -11 -63 -11q-49 0 -81 23.5zM367 264q0 48 -29.5 76.5t-75.5 28.5q-45 0 -75.5 -29t-34.5 -76h215z" />
    <glyph glyph-name="f" unicode="f" horiz-adv-x="362" 
d="M106 362h-77v88h77v39q0 94 43 141.5t136 47.5q27 0 51.5 -5t37.5 -11v-95q-13 6 -34.5 11.5t-42.5 5.5q-47 0 -64.5 -25t-17.5 -76v-33h116v-88h-116v-362h-109v362z" />
    <glyph glyph-name="g" unicode="g" horiz-adv-x="584" 
d="M133 -188v97q63 -23 132 -23q142 0 142 160v19q-21 -29 -59 -47t-89 -18q-68 0 -118 29.5t-76.5 81t-26.5 117.5q0 69 28.5 121t79 81t115.5 29q50 0 89.5 -17.5t63.5 -48.5l2 57h100v-404q0 -138 -61.5 -195.5t-186.5 -57.5q-87 0 -135 19zM370.5 134q36.5 38 36.5 98
t-35.5 97t-92.5 37q-56 0 -92 -37.5t-36 -98.5q0 -60 35.5 -97t92.5 -37q55 0 91.5 38z" />
    <glyph glyph-name="gbreve" unicode="&#x11f;" horiz-adv-x="584" 
d="M38 0zM133 -188v97q63 -23 132 -23q142 0 142 160v19q-21 -29 -59 -47t-89 -18q-68 0 -118 29.5t-76.5 81t-26.5 117.5q0 69 28.5 121t79 81t115.5 29q50 0 89.5 -17.5t63.5 -48.5l2 57h100v-404q0 -138 -61.5 -195.5t-186.5 -57.5q-87 0 -135 19zM370.5 134
q36.5 38 36.5 98t-35.5 97t-92.5 37q-56 0 -92 -37.5t-36 -98.5q0 -60 35.5 -97t92.5 -37q55 0 91.5 38zM112 673v13h85q0 -88 85 -88q86 0 86 88h85v-13q0 -74 -40.5 -118t-130.5 -44q-170 0 -170 162z" />
    <glyph glyph-name="gcircumflex" unicode="&#x11d;" horiz-adv-x="584" 
d="M38 0zM133 -188v97q63 -23 132 -23q142 0 142 160v19q-21 -29 -59 -47t-89 -18q-68 0 -118 29.5t-76.5 81t-26.5 117.5q0 69 28.5 121t79 81t115.5 29q50 0 89.5 -17.5t63.5 -48.5l2 57h100v-404q0 -138 -61.5 -195.5t-186.5 -57.5q-87 0 -135 19zM370.5 134
q36.5 38 36.5 98t-35.5 97t-92.5 37q-56 0 -92 -37.5t-36 -98.5q0 -60 35.5 -97t92.5 -37q55 0 91.5 38zM282 695l176 -175h-117l-59 63l-59 -63h-116z" />
    <glyph glyph-name="gcommaaccent" unicode="&#x123;" horiz-adv-x="572" 
d="M280 625q23 0 37.5 -14t14.5 -37q0 -25 -16 -39.5t-41 -14.5q-27 0 -45.5 18t-18.5 50q0 29 19 58.5t49 48.5h55q-42 -39 -54 -70zM136 -188v97q63 -23 132 -23q142 0 142 160v19q-21 -29 -59 -47t-89 -18q-68 0 -118 29.5t-76.5 81t-26.5 117.5q0 69 28.5 121t79 81
t115.5 29q50 0 89.5 -17.5t63.5 -48.5l2 57h100v-404q0 -138 -61.5 -195.5t-186.5 -57.5q-87 0 -135 19zM373.5 134q36.5 38 36.5 98t-35.5 97t-92.5 37q-56 0 -92 -37.5t-36 -98.5q0 -60 35.5 -97t92.5 -37q55 0 91.5 38z" />
    <glyph glyph-name="gdotaccent" unicode="&#x121;" horiz-adv-x="584" 
d="M38 0zM133 -188v97q63 -23 132 -23q142 0 142 160v19q-21 -29 -59 -47t-89 -18q-68 0 -118 29.5t-76.5 81t-26.5 117.5q0 69 28.5 121t79 81t115.5 29q50 0 89.5 -17.5t63.5 -48.5l2 57h100v-404q0 -138 -61.5 -195.5t-186.5 -57.5q-87 0 -135 19zM370.5 134
q36.5 38 36.5 98t-35.5 97t-92.5 37q-56 0 -92 -37.5t-36 -98.5q0 -60 35.5 -97t92.5 -37q55 0 91.5 38zM233 558.5q-19 19.5 -19 50.5q0 30 20 49.5t49 19.5t48.5 -19.5t19.5 -50.5q0 -30 -19.5 -49.5t-48.5 -19.5q-31 0 -50 19.5z" />
    <glyph glyph-name="h" unicode="h" horiz-adv-x="541" 
d="M68 663h109v-255q43 51 131 51q172 0 172 -193v-266h-109v249q0 51 -17.5 84t-70.5 33q-62 0 -84 -42.5t-22 -118.5v-205h-109v663z" />
    <glyph glyph-name="hbar" unicode="&#x127;" horiz-adv-x="539" 
d="M478 266v-266h-109v249q0 51 -17.5 84t-70.5 33q-62 0 -84 -42.5t-22 -118.5v-205h-109v507h-77v84h77v72h109v-72h116v-84h-116v-99q43 51 131 51q172 0 172 -193z" />
    <glyph glyph-name="hcircumflex" unicode="&#x125;" horiz-adv-x="541" 
d="M0 0zM68 663h109v-255q43 51 131 51q172 0 172 -193v-266h-109v249q0 51 -17.5 84t-70.5 33q-62 0 -84 -42.5t-22 -118.5v-205h-109v663zM122 890l176 -175h-117l-59 63l-59 -63h-116z" />
    <glyph glyph-name="i" unicode="i" horiz-adv-x="309" 
d="M101 558.5q-19 19.5 -19 50.5q0 30 20 49.5t49 19.5t48.5 -19.5t19.5 -50.5q0 -30 -19.5 -49.5t-48.5 -19.5q-31 0 -50 19.5zM137.5 14.5q-26.5 19.5 -34 48.5t-7.5 73v226h-68v88h177v-315q0 -26 8.5 -39t33.5 -13q16 0 26 4v-83q-8 -4 -24 -6.5t-32 -2.5
q-53 0 -79.5 19.5z" />
    <glyph glyph-name="dotlessi" unicode="&#x131;" horiz-adv-x="309" 
d="M137.5 13.5q-26.5 19.5 -34 48.5t-7.5 73v227h-68v88h177v-316q0 -26 8.5 -39t33.5 -13q16 0 26 4v-83q-8 -4 -24 -6.5t-32 -2.5q-53 0 -79.5 19.5z" />
    <glyph glyph-name="iacute" unicode="&#xed;" horiz-adv-x="309" 
d="M28 0zM137.5 13.5q-26.5 19.5 -34 48.5t-7.5 73v227h-68v88h177v-316q0 -26 8.5 -39t33.5 -13q16 0 26 4v-83q-8 -4 -24 -6.5t-32 -2.5q-53 0 -79.5 19.5zM147 686h145l-156 -166h-108z" />
    <glyph glyph-name="iacute_j.loclNLD" horiz-adv-x="582" 
d="M28 0zM137.5 13.5q-26.5 19.5 -34 48.5t-7.5 73v227h-68v88h177v-316q0 -26 8.5 -39t33.5 -13q16 0 26 4v-83q-8 -4 -24 -6.5t-32 -2.5q-53 0 -79.5 19.5zM147 686h145l-156 -166h-108zM241 -196v92q29 -12 64 -12q52 0 76 31.5t24 98.5v348h-68v88h177v-429
q0 -119 -47.5 -173.5t-143.5 -54.5q-48 0 -82 11zM456 686h145l-156 -166h-108z" />
    <glyph glyph-name="ibreve" unicode="&#x12d;" horiz-adv-x="309" 
d="M0 0zM137.5 13.5q-26.5 19.5 -34 48.5t-7.5 73v227h-68v88h177v-316q0 -26 8.5 -39t33.5 -13q16 0 26 4v-83q-8 -4 -24 -6.5t-32 -2.5q-53 0 -79.5 19.5zM-32 673v13h85q0 -88 85 -88q86 0 86 88h85v-13q0 -74 -40.5 -118t-130.5 -44q-170 0 -170 162z" />
    <glyph glyph-name="icircumflex" unicode="&#xee;" horiz-adv-x="309" 
d="M0 0zM137.5 13.5q-26.5 19.5 -34 48.5t-7.5 73v227h-68v88h177v-316q0 -26 8.5 -39t33.5 -13q16 0 26 4v-83q-8 -4 -24 -6.5t-32 -2.5q-53 0 -79.5 19.5zM138 695l176 -175h-117l-59 63l-59 -63h-116z" />
    <glyph glyph-name="idieresis" unicode="&#xef;" horiz-adv-x="309" 
d="M0 0zM137.5 13.5q-26.5 19.5 -34 48.5t-7.5 73v227h-68v88h177v-316q0 -26 8.5 -39t33.5 -13q16 0 26 4v-83q-8 -4 -24 -6.5t-32 -2.5q-53 0 -79.5 19.5zM-12 553.5q-19 19.5 -19 49.5t19 49.5t49 19.5t49 -19.5t19 -49.5t-19 -49.5t-49 -19.5t-49 19.5zM191 553.5
q-19 19.5 -19 49.5t19 49.5t49 19.5t49 -19.5t19 -49.5t-19 -49.5t-49 -19.5t-49 19.5z" />
    <glyph glyph-name="i.loclTRK" horiz-adv-x="309" 
d="M28 0zM137.5 13.5q-26.5 19.5 -34 48.5t-7.5 73v227h-68v88h177v-316q0 -26 8.5 -39t33.5 -13q16 0 26 4v-83q-8 -4 -24 -6.5t-32 -2.5q-53 0 -79.5 19.5zM89 558.5q-19 19.5 -19 50.5q0 30 20 49.5t49 19.5t48.5 -19.5t19.5 -50.5q0 -30 -19.5 -49.5t-48.5 -19.5
q-31 0 -50 19.5z" />
    <glyph glyph-name="igrave" unicode="&#xec;" horiz-adv-x="309" 
d="M0 0zM137.5 13.5q-26.5 19.5 -34 48.5t-7.5 73v227h-68v88h177v-316q0 -26 8.5 -39t33.5 -13q16 0 26 4v-83q-8 -4 -24 -6.5t-32 -2.5q-53 0 -79.5 19.5zM-35 686h145l119 -166h-108z" />
    <glyph glyph-name="ij" unicode="&#x133;" horiz-adv-x="582" 
d="M28 0zM101 558.5q-19 19.5 -19 50.5q0 30 20 49.5t49 19.5t48.5 -19.5t19.5 -50.5q0 -30 -19.5 -49.5t-48.5 -19.5q-31 0 -50 19.5zM137.5 14.5q-26.5 19.5 -34 48.5t-7.5 73v226h-68v88h177v-315q0 -26 8.5 -39t33.5 -13q16 0 26 4v-83q-8 -4 -24 -6.5t-32 -2.5
q-53 0 -79.5 19.5zM410 558.5q-19 19.5 -19 50.5q0 30 20 49.5t49 19.5t48.5 -19.5t19.5 -50.5q0 -30 -19.5 -49.5t-48.5 -19.5q-31 0 -50 19.5zM241 -196v92q29 -12 64 -12q52 0 76 31.5t24 98.5v348h-68v88h177v-429q0 -119 -47.5 -173.5t-143.5 -54.5q-48 0 -82 11z" />
    <glyph glyph-name="imacron" unicode="&#x12b;" horiz-adv-x="309" 
d="M0 0zM137.5 13.5q-26.5 19.5 -34 48.5t-7.5 73v227h-68v88h177v-316q0 -26 8.5 -39t33.5 -13q16 0 26 4v-83q-8 -4 -24 -6.5t-32 -2.5q-53 0 -79.5 19.5zM-11 648h300v-88h-300v88z" />
    <glyph glyph-name="iogonek" unicode="&#x12f;" horiz-adv-x="309" 
d="M101 558.5q-19 19.5 -19 50.5q0 30 20 49.5t49 19.5t48.5 -19.5t19.5 -50.5q0 -30 -19.5 -49.5t-48.5 -19.5q-31 0 -50 19.5zM117 -183.5q-32 23.5 -32 72.5q0 39 21 69.5t57 46.5q-38 10 -52.5 39t-14.5 75v243h-68v88h177v-316q0 -26 8.5 -39t33.5 -13q16 0 26 4v-80
q-36 -6 -73 -30.5t-37 -68.5q0 -49 51 -49q28 0 47 11v-65q-24 -11 -63 -11q-49 0 -81 23.5z" />
    <glyph glyph-name="itilde" unicode="&#x129;" horiz-adv-x="309" 
d="M0 0zM137.5 13.5q-26.5 19.5 -34 48.5t-7.5 73v227h-68v88h177v-316q0 -26 8.5 -39t33.5 -13q16 0 26 4v-83q-8 -4 -24 -6.5t-32 -2.5q-53 0 -79.5 19.5zM167 545.5q-20 7.5 -43 20.5q-20 10 -30.5 14.5t-21.5 4.5q-20 0 -29.5 -14t-9.5 -28h-69q0 49 27 84.5t76 35.5
q24 0 45 -7.5t45 -21.5q4 -2 20.5 -10t29.5 -8q18 0 27.5 13t9.5 29h69q0 -48 -27 -84t-76 -36q-23 0 -43 7.5z" />
    <glyph glyph-name="j" unicode="j" horiz-adv-x="273" 
d="M101 558.5q-19 19.5 -19 50.5q0 30 20 49.5t49 19.5t48.5 -19.5t19.5 -50.5q0 -30 -19.5 -49.5t-48.5 -19.5q-31 0 -50 19.5zM-68 -196v92q29 -12 64 -12q52 0 76 31.5t24 98.5v348h-68v88h177v-429q0 -119 -47.5 -173.5t-143.5 -54.5q-48 0 -82 11z" />
    <glyph glyph-name="uni0237" unicode="&#x237;" horiz-adv-x="274" 
d="M-67 -196v92q29 -12 64 -12q52 0 76 31.5t24 98.5v348h-68v88h177v-429q0 -119 -47.5 -173.5t-143.5 -54.5q-48 0 -82 11z" />
    <glyph glyph-name="jcircumflex" unicode="&#x135;" horiz-adv-x="274" 
d="M0 0zM-67 -196v92q29 -12 64 -12q52 0 76 31.5t24 98.5v348h-68v88h177v-429q0 -119 -47.5 -173.5t-143.5 -54.5q-48 0 -82 11zM128 695l176 -175h-117l-59 63l-59 -63h-116z" />
    <glyph glyph-name="k" unicode="k" horiz-adv-x="515" 
d="M68 663h109v-415l181 202h139l-196 -208l206 -242h-140l-190 232v-232h-109v663z" />
    <glyph glyph-name="kcommaaccent" unicode="&#x137;" horiz-adv-x="515" 
d="M68 0zM68 663h109v-415l181 202h139l-196 -208l206 -242h-140l-190 232v-232h-109v663zM260 -149q-23 0 -37.5 14t-14.5 37q0 25 16 39.5t41 14.5q27 0 45.5 -18t18.5 -50q0 -27 -14.5 -52t-37.5 -43h-61q31 27 44 58z" />
    <glyph glyph-name="kgreenlandic" unicode="&#x138;" horiz-adv-x="512" 
d="M68 450h109v-211l181 211h139l-196 -217l206 -233h-140l-190 221v-221h-109v450z" />
    <glyph glyph-name="l" unicode="l" horiz-adv-x="286" 
d="M118.5 14.5q-26.5 19.5 -34 48.5t-7.5 72v528h109v-528q0 -26 8.5 -39t33.5 -13q16 0 26 4v-83q-8 -4 -24 -6.5t-32 -2.5q-53 0 -79.5 19.5z" />
    <glyph glyph-name="lacute" unicode="&#x13a;" horiz-adv-x="286" 
d="M77 0zM118.5 14.5q-26.5 19.5 -34 48.5t-7.5 72v528h109v-528q0 -26 8.5 -39t33.5 -13q16 0 26 4v-83q-8 -4 -24 -6.5t-32 -2.5q-53 0 -79.5 19.5zM197 899h145l-156 -166h-108z" />
    <glyph glyph-name="lcaron" unicode="&#x13e;" horiz-adv-x="391" 
d="M77 0zM118.5 14.5q-26.5 19.5 -34 48.5t-7.5 72v528h109v-528q0 -26 8.5 -39t33.5 -13q16 0 26 4v-83q-8 -4 -24 -6.5t-32 -2.5q-53 0 -79.5 19.5zM322 563q-23 0 -37.5 14t-14.5 37q0 25 16 39.5t41 14.5q27 0 45.5 -18t18.5 -50q0 -29 -19 -58.5t-49 -48.5h-55
q42 39 54 70z" />
    <glyph glyph-name="lcommaaccent" unicode="&#x13c;" horiz-adv-x="286" 
d="M77 0zM118.5 14.5q-26.5 19.5 -34 48.5t-7.5 72v528h109v-528q0 -26 8.5 -39t33.5 -13q16 0 26 4v-83q-8 -4 -24 -6.5t-32 -2.5q-53 0 -79.5 19.5zM171 -149q-23 0 -37.5 14t-14.5 37q0 25 16 39.5t41 14.5q27 0 45.5 -18t18.5 -50q0 -27 -14.5 -52t-37.5 -43h-61
q31 27 44 58z" />
    <glyph glyph-name="ldot" unicode="&#x140;" horiz-adv-x="418" 
d="M118.5 14.5q-26.5 19.5 -34 48.5t-7.5 72v528h109v-528q0 -26 8.5 -39t33.5 -13q16 0 26 4v-83q-8 -4 -24 -6.5t-32 -2.5q-53 0 -79.5 19.5zM294 284.5q-19 19.5 -19 50.5q0 30 20 49.5t49 19.5t48.5 -19.5t19.5 -50.5q0 -30 -19.5 -49.5t-48.5 -19.5q-31 0 -50 19.5z
" />
    <glyph glyph-name="lslash" unicode="&#x142;" horiz-adv-x="325" 
d="M149.5 13.5q-26.5 19.5 -34 48.5t-7.5 73v128l-82 -48v90l82 46v312h109v-261l82 48v-92l-82 -46v-178q0 -26 8.5 -39t33.5 -13q16 0 26 4v-83q-8 -4 -24 -6.5t-32 -2.5q-53 0 -79.5 19.5z" />
    <glyph glyph-name="m" unicode="m" horiz-adv-x="808" 
d="M68 450h100l2 -53q20 29 55 45.5t74 16.5q46 0 81.5 -18t55.5 -52q22 34 61 52t82 18q83 0 125.5 -49.5t42.5 -143.5v-266h-109v260q0 46 -16 76t-64 30q-54 0 -75 -43t-21 -118v-205h-109v260q0 46 -16 76t-64 30q-54 0 -75 -43t-21 -118v-205h-109v450z" />
    <glyph glyph-name="n" unicode="n" horiz-adv-x="541" 
d="M68 450h100l2 -52q21 32 57 46.5t81 14.5q172 0 172 -193v-266h-109v249q0 52 -18 84.5t-72 32.5q-61 0 -82.5 -43t-21.5 -118v-205h-109v450z" />
    <glyph glyph-name="nacute" unicode="&#x144;" horiz-adv-x="541" 
d="M68 0zM68 450h100l2 -52q21 32 57 46.5t81 14.5q172 0 172 -193v-266h-109v249q0 52 -18 84.5t-72 32.5q-61 0 -82.5 -43t-21.5 -118v-205h-109v450zM317 686h145l-156 -166h-108z" />
    <glyph glyph-name="nacute.loclPLK" horiz-adv-x="541" 
d="M68 0zM68 450h100l2 -52q21 32 57 46.5t81 14.5q172 0 172 -193v-266h-109v249q0 52 -18 84.5t-72 32.5q-61 0 -82.5 -43t-21.5 -118v-205h-109v450zM301 686h131l-106 -166h-104z" />
    <glyph glyph-name="ncaron" unicode="&#x148;" horiz-adv-x="541" 
d="M68 0zM68 450h100l2 -52q21 32 57 46.5t81 14.5q172 0 172 -193v-266h-109v249q0 52 -18 84.5t-72 32.5q-61 0 -82.5 -43t-21.5 -118v-205h-109v450zM115 686h116l59 -63l59 63h117l-176 -175z" />
    <glyph glyph-name="ncommaaccent" unicode="&#x146;" horiz-adv-x="541" 
d="M68 0zM68 450h100l2 -52q21 32 57 46.5t81 14.5q172 0 172 -193v-266h-109v249q0 52 -18 84.5t-72 32.5q-61 0 -82.5 -43t-21.5 -118v-205h-109v450zM264 -149q-23 0 -37.5 14t-14.5 37q0 25 16 39.5t41 14.5q27 0 45.5 -18t18.5 -50q0 -27 -14.5 -52t-37.5 -43h-61
q31 27 44 58z" />
    <glyph glyph-name="eng" unicode="&#x14b;" horiz-adv-x="528" 
d="M249 -203v88q14 -3 29 -3q43 0 61.5 28t18.5 92v247q0 52 -18 84.5t-72 32.5q-61 0 -82.5 -43t-21.5 -118v-205h-109v450h100l2 -52q42 61 138 61q172 0 172 -193v-247q0 -73 -13 -121.5t-50.5 -76.5t-107.5 -28q-26 0 -47 4z" />
    <glyph glyph-name="ntilde" unicode="&#xf1;" horiz-adv-x="541" 
d="M68 0zM68 450h100l2 -52q21 32 57 46.5t81 14.5q172 0 172 -193v-266h-109v249q0 52 -18 84.5t-72 32.5q-61 0 -82.5 -43t-21.5 -118v-205h-109v450zM319 545.5q-20 7.5 -43 20.5q-20 10 -30.5 14.5t-21.5 4.5q-20 0 -29.5 -14t-9.5 -28h-69q0 49 27 84.5t76 35.5
q24 0 45 -7.5t45 -21.5q4 -2 20.5 -10t29.5 -8q18 0 27.5 13t9.5 29h69q0 -48 -27 -84t-76 -36q-23 0 -43 7.5z" />
    <glyph glyph-name="o" unicode="o" horiz-adv-x="563" 
d="M153 20.5q-55 29.5 -85 82t-30 120.5t30 121.5t85.5 84t129.5 30.5q111 0 176.5 -61.5t65.5 -168.5q0 -71 -31 -125t-86 -83.5t-127 -29.5q-73 0 -128 29.5zM376.5 124.5q35.5 39.5 35.5 102.5q0 62 -36 100.5t-94 38.5q-60 0 -95.5 -41t-35.5 -100q0 -62 36.5 -101
t94.5 -39q59 0 94.5 39.5z" />
    <glyph glyph-name="oacute" unicode="&#xf3;" horiz-adv-x="563" 
d="M38 0zM153 20.5q-55 29.5 -85 82t-30 120.5t30 121.5t85.5 84t129.5 30.5q111 0 176.5 -61.5t65.5 -168.5q0 -71 -31 -125t-86 -83.5t-127 -29.5q-73 0 -128 29.5zM376.5 124.5q35.5 39.5 35.5 102.5q0 62 -36 100.5t-94 38.5q-60 0 -95.5 -41t-35.5 -100
q0 -62 36.5 -101t94.5 -39q59 0 94.5 39.5zM308 686h145l-156 -166h-108z" />
    <glyph glyph-name="oacute.loclPLK" horiz-adv-x="563" 
d="M38 0zM153 20.5q-55 29.5 -85 82t-30 120.5t30 121.5t85.5 84t129.5 30.5q111 0 176.5 -61.5t65.5 -168.5q0 -71 -31 -125t-86 -83.5t-127 -29.5q-73 0 -128 29.5zM376.5 124.5q35.5 39.5 35.5 102.5q0 62 -36 100.5t-94 38.5q-60 0 -95.5 -41t-35.5 -100
q0 -62 36.5 -101t94.5 -39q59 0 94.5 39.5zM292 686h131l-106 -166h-104z" />
    <glyph glyph-name="obreve" unicode="&#x14f;" horiz-adv-x="563" 
d="M38 0zM153 20.5q-55 29.5 -85 82t-30 120.5t30 121.5t85.5 84t129.5 30.5q111 0 176.5 -61.5t65.5 -168.5q0 -71 -31 -125t-86 -83.5t-127 -29.5q-73 0 -128 29.5zM376.5 124.5q35.5 39.5 35.5 102.5q0 62 -36 100.5t-94 38.5q-60 0 -95.5 -41t-35.5 -100
q0 -62 36.5 -101t94.5 -39q59 0 94.5 39.5zM111 673v13h85q0 -88 85 -88q86 0 86 88h85v-13q0 -74 -40.5 -118t-130.5 -44q-170 0 -170 162z" />
    <glyph glyph-name="ocircumflex" unicode="&#xf4;" horiz-adv-x="563" 
d="M38 0zM153 20.5q-55 29.5 -85 82t-30 120.5t30 121.5t85.5 84t129.5 30.5q111 0 176.5 -61.5t65.5 -168.5q0 -71 -31 -125t-86 -83.5t-127 -29.5q-73 0 -128 29.5zM376.5 124.5q35.5 39.5 35.5 102.5q0 62 -36 100.5t-94 38.5q-60 0 -95.5 -41t-35.5 -100
q0 -62 36.5 -101t94.5 -39q59 0 94.5 39.5zM281 695l176 -175h-117l-59 63l-59 -63h-116z" />
    <glyph glyph-name="odieresis" unicode="&#xf6;" horiz-adv-x="563" 
d="M38 0zM153 20.5q-55 29.5 -85 82t-30 120.5t30 121.5t85.5 84t129.5 30.5q111 0 176.5 -61.5t65.5 -168.5q0 -71 -31 -125t-86 -83.5t-127 -29.5q-73 0 -128 29.5zM376.5 124.5q35.5 39.5 35.5 102.5q0 62 -36 100.5t-94 38.5q-60 0 -95.5 -41t-35.5 -100
q0 -62 36.5 -101t94.5 -39q59 0 94.5 39.5zM131 553.5q-19 19.5 -19 49.5t19 49.5t49 19.5t49 -19.5t19 -49.5t-19 -49.5t-49 -19.5t-49 19.5zM334 553.5q-19 19.5 -19 49.5t19 49.5t49 19.5t49 -19.5t19 -49.5t-19 -49.5t-49 -19.5t-49 19.5z" />
    <glyph glyph-name="ograve" unicode="&#xf2;" horiz-adv-x="563" 
d="M38 0zM153 20.5q-55 29.5 -85 82t-30 120.5t30 121.5t85.5 84t129.5 30.5q111 0 176.5 -61.5t65.5 -168.5q0 -71 -31 -125t-86 -83.5t-127 -29.5q-73 0 -128 29.5zM376.5 124.5q35.5 39.5 35.5 102.5q0 62 -36 100.5t-94 38.5q-60 0 -95.5 -41t-35.5 -100
q0 -62 36.5 -101t94.5 -39q59 0 94.5 39.5zM120 686h145l119 -166h-108z" />
    <glyph glyph-name="ohungarumlaut" unicode="&#x151;" horiz-adv-x="563" 
d="M38 0zM153 20.5q-55 29.5 -85 82t-30 120.5t30 121.5t85.5 84t129.5 30.5q111 0 176.5 -61.5t65.5 -168.5q0 -71 -31 -125t-86 -83.5t-127 -29.5q-73 0 -128 29.5zM376.5 124.5q35.5 39.5 35.5 102.5q0 62 -36 100.5t-94 38.5q-60 0 -95.5 -41t-35.5 -100
q0 -62 36.5 -101t94.5 -39q59 0 94.5 39.5zM228 686h145l-171 -166h-108zM448 686h145l-171 -166h-108z" />
    <glyph glyph-name="omacron" unicode="&#x14d;" horiz-adv-x="563" 
d="M38 0zM153 20.5q-55 29.5 -85 82t-30 120.5t30 121.5t85.5 84t129.5 30.5q111 0 176.5 -61.5t65.5 -168.5q0 -71 -31 -125t-86 -83.5t-127 -29.5q-73 0 -128 29.5zM376.5 124.5q35.5 39.5 35.5 102.5q0 62 -36 100.5t-94 38.5q-60 0 -95.5 -41t-35.5 -100
q0 -62 36.5 -101t94.5 -39q59 0 94.5 39.5zM132 648h300v-88h-300v88z" />
    <glyph glyph-name="oslash" unicode="&#xf8;" horiz-adv-x="563" 
d="M115 45q-37 31 -57 77t-20 101q0 68 30 121.5t85.5 84t129.5 30.5q54 0 102 -16l25 37h89l-50 -73q37 -30 56.5 -75.5t19.5 -102.5q0 -71 -31 -125t-86 -83.5t-127 -29.5q-59 0 -104 18l-27 -39h-86zM328 359q-15 7 -46 7q-60 0 -95.5 -41t-35.5 -100q0 -53 26 -88z
M376.5 124.5q35.5 39.5 35.5 102.5q0 53 -26 88l-152 -222q18 -8 48 -8q59 0 94.5 39.5z" />
    <glyph glyph-name="oslashacute" unicode="&#x1ff;" horiz-adv-x="563" 
d="M38 0zM115 45q-37 31 -57 77t-20 101q0 68 30 121.5t85.5 84t129.5 30.5q54 0 102 -16l25 37h89l-50 -73q37 -30 56.5 -75.5t19.5 -102.5q0 -71 -31 -125t-86 -83.5t-127 -29.5q-59 0 -104 18l-27 -39h-86zM328 359q-15 7 -46 7q-60 0 -95.5 -41t-35.5 -100q0 -53 26 -88
zM376.5 124.5q35.5 39.5 35.5 102.5q0 53 -26 88l-152 -222q18 -8 48 -8q59 0 94.5 39.5zM301 686h145l-156 -166h-108z" />
    <glyph glyph-name="otilde" unicode="&#xf5;" horiz-adv-x="563" 
d="M38 0zM153 20.5q-55 29.5 -85 82t-30 120.5t30 121.5t85.5 84t129.5 30.5q111 0 176.5 -61.5t65.5 -168.5q0 -71 -31 -125t-86 -83.5t-127 -29.5q-73 0 -128 29.5zM376.5 124.5q35.5 39.5 35.5 102.5q0 62 -36 100.5t-94 38.5q-60 0 -95.5 -41t-35.5 -100
q0 -62 36.5 -101t94.5 -39q59 0 94.5 39.5zM310 545.5q-20 7.5 -43 20.5q-20 10 -30.5 14.5t-21.5 4.5q-20 0 -29.5 -14t-9.5 -28h-69q0 49 27 84.5t76 35.5q24 0 45 -7.5t45 -21.5q4 -2 20.5 -10t29.5 -8q18 0 27.5 13t9.5 29h69q0 -48 -27 -84t-76 -36q-23 0 -43 7.5z" />
    <glyph glyph-name="oe" unicode="&#x153;" horiz-adv-x="890" 
d="M153 20.5q-55 29.5 -85 82t-30 120.5t30 121.5t85.5 84t129.5 30.5q62 0 108.5 -19.5t71.5 -56.5q28 37 73 56.5t100 19.5q107 0 161.5 -63t54.5 -163q0 -23 -3 -46h-324q7 -53 45.5 -79t105.5 -26q84 0 157 43v-96q-27 -15 -72 -26.5t-101 -11.5q-65 0 -117 20t-79 58
q-63 -78 -183 -78q-73 0 -128 29.5zM741 264q0 48 -29.5 76.5t-75.5 28.5q-45 0 -75.5 -29t-34.5 -76h215zM376.5 124.5q35.5 39.5 35.5 102.5q0 62 -36 100.5t-94 38.5q-60 0 -95.5 -41t-35.5 -100q0 -62 36.5 -101t94.5 -39q59 0 94.5 39.5z" />
    <glyph glyph-name="p" unicode="p" horiz-adv-x="584" 
d="M68 450h100l2 -61q24 35 64 52.5t90 17.5q67 0 117 -29.5t77.5 -81.5t27.5 -119q0 -71 -28 -125t-78 -83.5t-114 -29.5q-47 0 -86.5 15.5t-62.5 42.5v-247h-109v648zM397.5 124.5q35.5 39.5 35.5 102.5q0 62 -36 100.5t-94 38.5q-60 0 -95.5 -41t-35.5 -100
q0 -62 36.5 -101t94.5 -39q59 0 94.5 39.5z" />
    <glyph glyph-name="thorn" unicode="&#xfe;" horiz-adv-x="584" 
d="M68 663h109l-2 -268q49 64 149 64q67 0 117 -29.5t77.5 -81.5t27.5 -119q0 -71 -28 -125t-78 -83.5t-114 -29.5q-47 0 -86.5 15.5t-62.5 42.5v-247h-109v861zM397.5 124.5q35.5 39.5 35.5 102.5q0 62 -36 100.5t-94 38.5q-60 0 -95.5 -41t-35.5 -100q0 -62 36.5 -101
t94.5 -39q59 0 94.5 39.5z" />
    <glyph glyph-name="q" unicode="q" horiz-adv-x="584" 
d="M407 51q-22 -27 -60 -43.5t-86 -16.5q-62 0 -112.5 27.5t-80.5 80t-30 124.5q0 69 27 122.5t77 83.5t117 30q51 0 91 -16.5t64 -50.5l2 58h100v-607l-109 -50v258zM376.5 124.5q35.5 39.5 35.5 102.5q0 62 -36 100.5t-94 38.5q-60 0 -95.5 -41t-35.5 -100
q0 -62 36.5 -101t94.5 -39q59 0 94.5 39.5z" />
    <glyph glyph-name="r" unicode="r" horiz-adv-x="337" 
d="M68 450h100l2 -56q21 30 57 47.5t76 17.5q15 0 21 -2v-99q-5 3 -16 5.5t-25 2.5q-62 0 -84 -42.5t-22 -118.5v-205h-109v450z" />
    <glyph glyph-name="racute" unicode="&#x155;" horiz-adv-x="337" 
d="M68 0zM68 450h100l2 -56q21 30 57 47.5t76 17.5q15 0 21 -2v-99q-5 3 -16 5.5t-25 2.5q-62 0 -84 -42.5t-22 -118.5v-205h-109v450zM249 686h145l-156 -166h-108z" />
    <glyph glyph-name="rcaron" unicode="&#x159;" horiz-adv-x="337" 
d="M47 0zM68 450h100l2 -56q21 30 57 47.5t76 17.5q15 0 21 -2v-99q-5 3 -16 5.5t-25 2.5q-62 0 -84 -42.5t-22 -118.5v-205h-109v450zM47 686h116l59 -63l59 63h117l-176 -175z" />
    <glyph glyph-name="rcommaaccent" unicode="&#x157;" horiz-adv-x="337" 
d="M60 0zM68 450h100l2 -56q21 30 57 47.5t76 17.5q15 0 21 -2v-99q-5 3 -16 5.5t-25 2.5q-62 0 -84 -42.5t-22 -118.5v-205h-109v450zM112 -149q-23 0 -37.5 14t-14.5 37q0 25 16 39.5t41 14.5q27 0 45.5 -18t18.5 -50q0 -27 -14.5 -52t-37.5 -43h-61q31 27 44 58z" />
    <glyph glyph-name="s" unicode="s" horiz-adv-x="384" 
d="M105 -1q-36 8 -55 18v92q22 -12 55 -23t67 -11t52.5 14t18.5 39q0 26 -18.5 40t-57.5 28q-36 14 -59 27t-39 38.5t-16 66.5q0 65 42 98t114 33q35 0 64 -6.5t42 -14.5v-91q-20 11 -47 19.5t-53 8.5q-30 0 -45.5 -11.5t-15.5 -30.5q0 -21 16.5 -32t53.5 -25
q38 -14 62.5 -27.5t42 -41t17.5 -71.5q0 -72 -46 -108.5t-121 -36.5q-38 0 -74 8z" />
    <glyph glyph-name="sacute" unicode="&#x15b;" horiz-adv-x="384" 
d="M50 0zM105 -1q-36 8 -55 18v92q22 -12 55 -23t67 -11t52.5 14t18.5 39q0 26 -18.5 40t-57.5 28q-36 14 -59 27t-39 38.5t-16 66.5q0 65 42 98t114 33q35 0 64 -6.5t42 -14.5v-91q-20 11 -47 19.5t-53 8.5q-30 0 -45.5 -11.5t-15.5 -30.5q0 -21 16.5 -32t53.5 -25
q38 -14 62.5 -27.5t42 -41t17.5 -71.5q0 -72 -46 -108.5t-121 -36.5q-38 0 -74 8zM229 686h145l-156 -166h-108z" />
    <glyph glyph-name="sacute.loclPLK" horiz-adv-x="384" 
d="M50 0zM105 -1q-36 8 -55 18v92q22 -12 55 -23t67 -11t52.5 14t18.5 39q0 26 -18.5 40t-57.5 28q-36 14 -59 27t-39 38.5t-16 66.5q0 65 42 98t114 33q35 0 64 -6.5t42 -14.5v-91q-20 11 -47 19.5t-53 8.5q-30 0 -45.5 -11.5t-15.5 -30.5q0 -21 16.5 -32t53.5 -25
q38 -14 62.5 -27.5t42 -41t17.5 -71.5q0 -72 -46 -108.5t-121 -36.5q-38 0 -74 8zM213 686h131l-106 -166h-104z" />
    <glyph glyph-name="scaron" unicode="&#x161;" horiz-adv-x="384" 
d="M27 0zM105 -1q-36 8 -55 18v92q22 -12 55 -23t67 -11t52.5 14t18.5 39q0 26 -18.5 40t-57.5 28q-36 14 -59 27t-39 38.5t-16 66.5q0 65 42 98t114 33q35 0 64 -6.5t42 -14.5v-91q-20 11 -47 19.5t-53 8.5q-30 0 -45.5 -11.5t-15.5 -30.5q0 -21 16.5 -32t53.5 -25
q38 -14 62.5 -27.5t42 -41t17.5 -71.5q0 -72 -46 -108.5t-121 -36.5q-38 0 -74 8zM27 686h116l59 -63l59 63h117l-176 -175z" />
    <glyph glyph-name="scedilla" unicode="&#x15f;" horiz-adv-x="384" 
d="M304.5 31.5q-41.5 -36.5 -111.5 -40.5l-10 -31q3 1 10 1q34 -1 54.5 -20t20.5 -59q0 -47 -32 -68t-81 -21q-43 0 -67 11v59q10 -5 25.5 -9.5t30.5 -4.5q23 0 34 8t11 26t-10 26t-26 8q-22 0 -39 -15l-10 6l25 87q-49 7 -79 22v92q22 -12 55 -23t67 -11t52.5 14t18.5 39
q0 26 -18.5 40t-57.5 28q-36 14 -59 27t-39 38.5t-16 66.5q0 65 42 98t114 33q35 0 64 -6.5t42 -14.5v-91q-20 11 -47 19.5t-53 8.5q-30 0 -45.5 -11.5t-15.5 -30.5q0 -21 16.5 -32t53.5 -25q38 -14 62.5 -27.5t42 -41t17.5 -71.5q0 -68 -41.5 -104.5z" />
    <glyph glyph-name="scircumflex" unicode="&#x15d;" horiz-adv-x="384" 
d="M27 0zM105 -1q-36 8 -55 18v92q22 -12 55 -23t67 -11t52.5 14t18.5 39q0 26 -18.5 40t-57.5 28q-36 14 -59 27t-39 38.5t-16 66.5q0 65 42 98t114 33q35 0 64 -6.5t42 -14.5v-91q-20 11 -47 19.5t-53 8.5q-30 0 -45.5 -11.5t-15.5 -30.5q0 -21 16.5 -32t53.5 -25
q38 -14 62.5 -27.5t42 -41t17.5 -71.5q0 -72 -46 -108.5t-121 -36.5q-38 0 -74 8zM202 695l176 -175h-117l-59 63l-59 -63h-116z" />
    <glyph glyph-name="scommaaccent" unicode="&#x219;" horiz-adv-x="384" 
d="M50 0zM105 -1q-36 8 -55 18v92q22 -12 55 -23t67 -11t52.5 14t18.5 39q0 26 -18.5 40t-57.5 28q-36 14 -59 27t-39 38.5t-16 66.5q0 65 42 98t114 33q35 0 64 -6.5t42 -14.5v-91q-20 11 -47 19.5t-53 8.5q-30 0 -45.5 -11.5t-15.5 -30.5q0 -21 16.5 -32t53.5 -25
q38 -14 62.5 -27.5t42 -41t17.5 -71.5q0 -72 -46 -108.5t-121 -36.5q-38 0 -74 8zM170 -149q-23 0 -37.5 14t-14.5 37q0 25 16 39.5t41 14.5q27 0 45.5 -18t18.5 -50q0 -27 -14.5 -52t-37.5 -43h-61q31 27 44 58z" />
    <glyph glyph-name="germandbls" unicode="&#xdf;" horiz-adv-x="600" 
d="M106 362h-77v88h77v39q0 94 43 141.5t136 47.5q27 0 51.5 -5t37.5 -11v-95q-13 6 -34.5 11.5t-42.5 5.5q-47 0 -64.5 -25t-17.5 -76v-33h311v-10l-84 -167q55 -2 87.5 -34.5t32.5 -91.5q0 -80 -50.5 -118t-136.5 -38q-28 0 -54.5 4.5t-39.5 9.5v89q43 -17 87 -17
q83 0 83 64q0 35 -23 50.5t-58 15.5q-38 0 -58 -14l-7 8l81 161h-171v-508h-109v508z" />
    <glyph glyph-name="germandbls.calt" horiz-adv-x="647" 
d="M251 7v100q51 -20 113 -20q65 0 95.5 28.5t30.5 86.5q0 52 -31 82t-89 30q-51 0 -83 -21l-7 7l128 254h-219v-554h-113v648h490v-10l-121 -241q69 -6 114.5 -55.5t45.5 -137.5q0 -109 -63 -161.5t-172 -52.5q-63 0 -119 17z" />
    <glyph glyph-name="longs" unicode="&#x17f;" horiz-adv-x="362" 
d="M106 362h-77v88h77v39q0 94 43 141.5t136 47.5q27 0 51.5 -5t37.5 -11v-95q-13 6 -34.5 11.5t-42.5 5.5q-47 0 -64.5 -25t-17.5 -76v-483h-109v362z" />
    <glyph glyph-name="t" unicode="t" horiz-adv-x="392" 
d="M133 31.5q-38 40.5 -38 122.5v208h-77v10q36 36 92 101.5t84 107.5h10v-131h126v-88h-126v-192q0 -44 14.5 -65.5t57.5 -21.5q34 0 74 17v-92q-38 -17 -98 -17q-81 0 -119 40.5z" />
    <glyph glyph-name="tbar" unicode="&#x167;" horiz-adv-x="392" 
d="M350 100v-92q-38 -17 -98 -17q-81 0 -119 40.5t-38 122.5v38h-56v84h56v86h-77v10q36 36 92 101.5t84 107.5h10v-131h126v-88h-126v-86h106v-84h-106v-22q0 -44 14.5 -65.5t57.5 -21.5q34 0 74 17z" />
    <glyph glyph-name="tcaron" unicode="&#x165;" horiz-adv-x="419" 
d="M18 0zM133 31.5q-38 40.5 -38 122.5v208h-77v10q36 36 92 101.5t84 107.5h10v-131h126v-88h-126v-192q0 -44 14.5 -65.5t57.5 -21.5q34 0 74 17v-92q-38 -17 -98 -17q-81 0 -119 40.5zM352 573q-23 0 -37.5 14t-14.5 37q0 25 16 39.5t41 14.5q27 0 45.5 -18t18.5 -50
q0 -29 -19 -58.5t-49 -48.5h-55q42 39 54 70z" />
    <glyph glyph-name="uni0163" unicode="&#x163;" horiz-adv-x="392" 
d="M18 0zM133 31.5q-38 40.5 -38 122.5v208h-77v10q36 36 92 101.5t84 107.5h10v-131h126v-88h-126v-192q0 -44 14.5 -65.5t57.5 -21.5q34 0 74 17v-92q-38 -17 -98 -17q-81 0 -119 40.5zM217 -149q-23 0 -37.5 14t-14.5 37q0 25 16 39.5t41 14.5q27 0 45.5 -18t18.5 -50
q0 -27 -14.5 -52t-37.5 -43h-61q31 27 44 58z" />
    <glyph glyph-name="uni021B" unicode="&#x21b;" horiz-adv-x="392" 
d="M18 0zM133 31.5q-38 40.5 -38 122.5v208h-77v10q36 36 92 101.5t84 107.5h10v-131h126v-88h-126v-192q0 -44 14.5 -65.5t57.5 -21.5q34 0 74 17v-92q-38 -17 -98 -17q-81 0 -119 40.5zM217 -149q-23 0 -37.5 14t-14.5 37q0 25 16 39.5t41 14.5q27 0 45.5 -18t18.5 -50
q0 -27 -14.5 -52t-37.5 -43h-61q31 27 44 58z" />
    <glyph glyph-name="u" unicode="u" horiz-adv-x="514" 
d="M105.5 47.5q-44.5 56.5 -44.5 145.5v257h109v-256q0 -111 88 -111q43 0 65.5 28t22.5 83v256h107v-257q0 -87 -44 -144.5t-152 -57.5q-107 0 -151.5 56.5z" />
    <glyph glyph-name="uacute" unicode="&#xfa;" horiz-adv-x="514" 
d="M61 0zM105.5 47.5q-44.5 56.5 -44.5 145.5v257h109v-256q0 -111 88 -111q43 0 65.5 28t22.5 83v256h107v-257q0 -87 -44 -144.5t-152 -57.5q-107 0 -151.5 56.5zM282 686h145l-156 -166h-108z" />
    <glyph glyph-name="ubreve" unicode="&#x16d;" horiz-adv-x="514" 
d="M61 0zM105.5 47.5q-44.5 56.5 -44.5 145.5v257h109v-256q0 -111 88 -111q43 0 65.5 28t22.5 83v256h107v-257q0 -87 -44 -144.5t-152 -57.5q-107 0 -151.5 56.5zM85 673v13h85q0 -88 85 -88q86 0 86 88h85v-13q0 -74 -40.5 -118t-130.5 -44q-170 0 -170 162z" />
    <glyph glyph-name="ucircumflex" unicode="&#xfb;" horiz-adv-x="514" 
d="M61 0zM105.5 47.5q-44.5 56.5 -44.5 145.5v257h109v-256q0 -111 88 -111q43 0 65.5 28t22.5 83v256h107v-257q0 -87 -44 -144.5t-152 -57.5q-107 0 -151.5 56.5zM255 695l176 -175h-117l-59 63l-59 -63h-116z" />
    <glyph glyph-name="udieresis" unicode="&#xfc;" horiz-adv-x="514" 
d="M61 0zM105.5 47.5q-44.5 56.5 -44.5 145.5v257h109v-256q0 -111 88 -111q43 0 65.5 28t22.5 83v256h107v-257q0 -87 -44 -144.5t-152 -57.5q-107 0 -151.5 56.5zM105 553.5q-19 19.5 -19 49.5t19 49.5t49 19.5t49 -19.5t19 -49.5t-19 -49.5t-49 -19.5t-49 19.5z
M308 553.5q-19 19.5 -19 49.5t19 49.5t49 19.5t49 -19.5t19 -49.5t-19 -49.5t-49 -19.5t-49 19.5z" />
    <glyph glyph-name="ugrave" unicode="&#xf9;" horiz-adv-x="514" 
d="M61 0zM105.5 47.5q-44.5 56.5 -44.5 145.5v257h109v-256q0 -111 88 -111q43 0 65.5 28t22.5 83v256h107v-257q0 -87 -44 -144.5t-152 -57.5q-107 0 -151.5 56.5zM94 686h145l119 -166h-108z" />
    <glyph glyph-name="uhungarumlaut" unicode="&#x171;" horiz-adv-x="514" 
d="M61 0zM105.5 47.5q-44.5 56.5 -44.5 145.5v257h109v-256q0 -111 88 -111q43 0 65.5 28t22.5 83v256h107v-257q0 -87 -44 -144.5t-152 -57.5q-107 0 -151.5 56.5zM202 686h145l-171 -166h-108zM422 686h145l-171 -166h-108z" />
    <glyph glyph-name="umacron" unicode="&#x16b;" horiz-adv-x="514" 
d="M61 0zM105.5 47.5q-44.5 56.5 -44.5 145.5v257h109v-256q0 -111 88 -111q43 0 65.5 28t22.5 83v256h107v-257q0 -87 -44 -144.5t-152 -57.5q-107 0 -151.5 56.5zM106 648h300v-88h-300v88z" />
    <glyph glyph-name="uogonek" unicode="&#x173;" horiz-adv-x="514" 
d="M246 -183.5q-32 23.5 -32 72.5q0 34 16.5 62t41.5 41q-4 -1 -15 -1q-107 0 -151.5 56.5t-44.5 145.5v257h109v-256q0 -111 88 -111q43 0 65.5 28t22.5 83v256h107v-260q0 -53 -15 -90.5t-35.5 -60t-51.5 -47.5q-30 -24 -44.5 -41.5t-14.5 -43.5q0 -49 51 -49q28 0 47 11
v-65q-24 -11 -63 -11q-49 0 -81 23.5z" />
    <glyph glyph-name="uring" unicode="&#x16f;" horiz-adv-x="514" 
d="M61 0zM105.5 47.5q-44.5 56.5 -44.5 145.5v257h109v-256q0 -111 88 -111q43 0 65.5 28t22.5 83v256h107v-257q0 -87 -44 -144.5t-152 -57.5q-107 0 -151.5 56.5zM180 540.5q-31 30.5 -31 72.5t31 72.5t76 30.5t76 -30.5t31 -72.5t-31 -72.5t-76 -30.5t-76 30.5z
M288 580.5q13 13.5 13 32.5t-13 32.5t-32 13.5t-32 -13.5t-13 -32.5t13 -32.5t32 -13.5t32 13.5z" />
    <glyph glyph-name="utilde" unicode="&#x169;" horiz-adv-x="514" 
d="M61 0zM105.5 47.5q-44.5 56.5 -44.5 145.5v257h109v-256q0 -111 88 -111q43 0 65.5 28t22.5 83v256h107v-257q0 -87 -44 -144.5t-152 -57.5q-107 0 -151.5 56.5zM284 545.5q-20 7.5 -43 20.5q-20 10 -30.5 14.5t-21.5 4.5q-20 0 -29.5 -14t-9.5 -28h-69q0 49 27 84.5
t76 35.5q24 0 45 -7.5t45 -21.5q4 -2 20.5 -10t29.5 -8q18 0 27.5 13t9.5 29h69q0 -48 -27 -84t-76 -36q-23 0 -43 7.5z" />
    <glyph glyph-name="v" unicode="v" horiz-adv-x="500" 
d="M10 450h120l121 -260l123 260h116l-234 -459h-10z" />
    <glyph glyph-name="w" unicode="w" horiz-adv-x="712" 
d="M17 450h120l101 -239l115 239h10l113 -239l103 239h116l-208 -459h-10l-119 250l-119 -250h-10z" />
    <glyph glyph-name="wacute" unicode="&#x1e83;" horiz-adv-x="712" 
d="M17 0zM17 450h120l101 -239l115 239h10l113 -239l103 239h116l-208 -459h-10l-119 250l-119 -250h-10zM414 686h145l-156 -166h-108z" />
    <glyph glyph-name="wcircumflex" unicode="&#x175;" horiz-adv-x="712" 
d="M17 0zM17 450h120l101 -239l115 239h10l113 -239l103 239h116l-208 -459h-10l-119 250l-119 -250h-10zM357 695l176 -175h-117l-59 63l-59 -63h-116z" />
    <glyph glyph-name="wdieresis" unicode="&#x1e85;" horiz-adv-x="712" 
d="M17 0zM17 450h120l101 -239l115 239h10l113 -239l103 239h116l-208 -459h-10l-119 250l-119 -250h-10zM207 553.5q-19 19.5 -19 49.5t19 49.5t49 19.5t49 -19.5t19 -49.5t-19 -49.5t-49 -19.5t-49 19.5zM410 553.5q-19 19.5 -19 49.5t19 49.5t49 19.5t49 -19.5t19 -49.5
t-19 -49.5t-49 -19.5t-49 19.5z" />
    <glyph glyph-name="wgrave" unicode="&#x1e81;" horiz-adv-x="712" 
d="M17 0zM17 450h120l101 -239l115 239h10l113 -239l103 239h116l-208 -459h-10l-119 250l-119 -250h-10zM156 686h145l119 -166h-108z" />
    <glyph glyph-name="x" unicode="x" horiz-adv-x="530" 
d="M198 224l-178 226h134l112 -153l114 153h130l-178 -226l182 -224h-132l-118 150l-118 -150h-130z" />
    <glyph glyph-name="y" unicode="y" horiz-adv-x="503" 
d="M194 27l-184 423h120l121 -301l125 301h117l-281 -648h-118z" />
    <glyph glyph-name="yacute" unicode="&#xfd;" horiz-adv-x="503" 
d="M10 0zM194 27l-184 423h120l121 -301l125 301h117l-281 -648h-118zM277 686h145l-156 -166h-108z" />
    <glyph glyph-name="ycircumflex" unicode="&#x177;" horiz-adv-x="503" 
d="M10 0zM194 27l-184 423h120l121 -301l125 301h117l-281 -648h-118zM250 695l176 -175h-117l-59 63l-59 -63h-116z" />
    <glyph glyph-name="ydieresis" unicode="&#xff;" horiz-adv-x="503" 
d="M10 0zM194 27l-184 423h120l121 -301l125 301h117l-281 -648h-118zM100 553.5q-19 19.5 -19 49.5t19 49.5t49 19.5t49 -19.5t19 -49.5t-19 -49.5t-49 -19.5t-49 19.5zM303 553.5q-19 19.5 -19 49.5t19 49.5t49 19.5t49 -19.5t19 -49.5t-19 -49.5t-49 -19.5t-49 19.5z" />
    <glyph glyph-name="ygrave" unicode="&#x1ef3;" horiz-adv-x="503" 
d="M10 0zM194 27l-184 423h120l121 -301l125 301h117l-281 -648h-118zM89 686h145l119 -166h-108z" />
    <glyph glyph-name="z" unicode="z" horiz-adv-x="469" 
d="M32 10l233 352h-216v88h388v-10l-232 -351h236v-89h-409v10z" />
    <glyph glyph-name="zacute" unicode="&#x17a;" horiz-adv-x="469" 
d="M32 0zM32 10l233 352h-216v88h388v-10l-232 -351h236v-89h-409v10zM261 686h145l-156 -166h-108z" />
    <glyph glyph-name="zacute.loclPLK" horiz-adv-x="469" 
d="M32 0zM32 10l233 352h-216v88h388v-10l-232 -351h236v-89h-409v10zM245 686h131l-106 -166h-104z" />
    <glyph glyph-name="zcaron" unicode="&#x17e;" horiz-adv-x="469" 
d="M32 0zM32 10l233 352h-216v88h388v-10l-232 -351h236v-89h-409v10zM59 686h116l59 -63l59 63h117l-176 -175z" />
    <glyph glyph-name="zdotaccent" unicode="&#x17c;" horiz-adv-x="469" 
d="M32 0zM32 10l233 352h-216v88h388v-10l-232 -351h236v-89h-409v10zM185 558.5q-19 19.5 -19 50.5q0 30 20 49.5t49 19.5t48.5 -19.5t19.5 -50.5q0 -30 -19.5 -49.5t-48.5 -19.5q-31 0 -50 19.5z" />
    <glyph glyph-name="ordfeminine" unicode="&#xaa;" horiz-adv-x="373" 
d="M70 342q-32 25 -32 74q0 99 128 99h81v7q0 34 -16 51.5t-57 17.5q-48 0 -93 -21v69q14 7 41 13t61 6q76 0 110 -34.5t34 -100.5v-199h-65l-2 29q-34 -36 -98 -36q-60 0 -92 25zM247 443v16h-64q-29 0 -44.5 -8t-15.5 -32q0 -20 13 -30t43 -10q68 0 68 64zM44 272h290v-70
h-290v70z" />
    <glyph glyph-name="ordmasculine" unicode="&#xba;" horiz-adv-x="414" 
d="M83.5 363q-45.5 46 -45.5 122q0 75 46.5 123.5t124.5 48.5q76 0 121.5 -45t45.5 -123t-47 -125t-123 -47q-77 0 -122.5 46zM268.5 414q22.5 27 22.5 75q0 47 -22.5 73t-60.5 26q-40 0 -62.5 -28t-22.5 -73q0 -47 23 -73.5t62 -26.5q38 0 60.5 27zM62 272h290v-70h-290v70
z" />
    <glyph glyph-name="uni0394" unicode="&#x394;" horiz-adv-x="641" 
d="M316 658h10l296 -658h-603zM459 97l-140 327l-140 -327h280z" />
    <glyph glyph-name="uni03A9" unicode="&#x3a9;" horiz-adv-x="757" 
d="M50 97h114q-55 35 -84.5 92.5t-29.5 134.5q0 97 40 173t115 118.5t176 42.5q100 0 173.5 -42.5t113 -117.5t39.5 -171q0 -79 -29 -137t-85 -93h114v-97h-272v99q70 19 113.5 75.5t43.5 151.5q0 67 -27.5 119t-76 80.5t-109.5 28.5t-110 -28.5t-76.5 -80.5t-27.5 -119
q0 -95 43.5 -151.5t113.5 -75.5v-99h-272v97z" />
    <glyph glyph-name="uni03BC" unicode="&#x3bc;" horiz-adv-x="521" 
d="M68 450h109v-256q0 -111 88 -111q43 0 65.5 28t22.5 83v256h107v-257q0 -88 -42.5 -145t-143.5 -57q-64 0 -99 25v-214h-107v648z" />
    <glyph glyph-name="pi" unicode="&#x3c0;" horiz-adv-x="550" 
d="M93 362h-77v88h518v-88h-77v-362h-109v362h-146v-362h-109v362z" />
    <glyph glyph-name="zero" unicode="0" horiz-adv-x="608" 
d="M168 34q-57 44 -86.5 120.5t-29.5 170.5q0 92 29.5 168t86.5 120.5t136 44.5t136 -44.5t86.5 -120.5t29.5 -168q0 -94 -30 -170t-87 -120.5t-135 -44.5q-79 0 -136 44zM404 152.5q37 61.5 37 172.5t-37 172.5t-100 61.5q-62 0 -99.5 -61t-37.5 -173q0 -111 37.5 -172.5
t99.5 -61.5q63 0 100 61.5z" />
    <glyph glyph-name="one" unicode="1" horiz-adv-x="440" 
d="M210 517l-145 -68v98l246 111h10v-658h-111v517z" />
    <glyph glyph-name="two" unicode="2" horiz-adv-x="533" 
d="M45 10l206 262q47 60 69 101t22 82q0 47 -29 75.5t-81 28.5q-75 0 -155 -63v111q68 51 168 51q103 0 157.5 -53.5t54.5 -145.5q0 -58 -25 -107.5t-90 -131.5l-98 -123h224v-97h-423v10z" />
    <glyph glyph-name="three" unicode="3" horiz-adv-x="548" 
d="M141.5 1q-46.5 11 -70.5 27v113q71 -50 160 -50q63 0 99.5 27t36.5 86q0 54 -32 83.5t-93 29.5q-57 0 -96 -29l-9 8l158 256h-217v96h395v-10l-155 -251q43 -2 80.5 -22t61 -61t23.5 -102q0 -104 -65.5 -158t-174.5 -54q-55 0 -101.5 11z" />
    <glyph glyph-name="four" unicode="4" horiz-adv-x="564" 
d="M335 111h-316v10l412 537h10v-460h91v-87h-91v-111h-106v111zM335 198v193l-148 -193h148z" />
    <glyph glyph-name="five" unicode="5" horiz-adv-x="548" 
d="M71 28v113q25 -21 66.5 -35.5t90.5 -14.5q67 0 103 29.5t36 86.5q0 55 -35 83t-93 28q-42 0 -77.5 -17t-59.5 -41l-10 3l52 385h302v-96h-208l-20 -152q28 14 73 14q85 0 138.5 -52t53.5 -150q0 -112 -63 -167t-179 -55q-107 0 -170 38z" />
    <glyph glyph-name="six" unicode="6" horiz-adv-x="574" 
d="M120 57.5q-64 67.5 -64 187.5q0 79 29.5 156.5t82 142t119.5 104.5h171q-79 -44 -153.5 -114t-104.5 -136q21 17 52.5 26.5t67.5 9.5q55 0 103 -24t77 -72.5t29 -117.5q0 -68 -28 -120.5t-81.5 -81t-125.5 -28.5q-110 0 -174 67.5zM380.5 125q33.5 34 33.5 88
q0 55 -34.5 89t-86.5 34t-87 -33.5t-35 -89.5q0 -54 34 -88t88 -34t87.5 34z" />
    <glyph glyph-name="seven" unicode="7" horiz-adv-x="569" 
d="M223 295.5q53 156.5 128 255.5h-280v97h475v-10q-62 -60 -120.5 -165t-98 -230t-48.5 -243h-119q10 139 63 295.5z" />
    <glyph glyph-name="eight" unicode="8" horiz-adv-x="578" 
d="M130 43q-59 53 -59 141q0 55 24 96.5t65 59.5q-32 15 -52.5 50t-20.5 85q0 55 26 96.5t72 64t104 22.5q57 0 103 -22t72.5 -63.5t26.5 -97.5q0 -50 -20.5 -84t-53.5 -49q42 -16 66 -55.5t24 -102.5q0 -57 -26.5 -101t-76 -68.5t-115.5 -24.5q-100 0 -159 53zM351.5 407.5
q25.5 24.5 25.5 63.5t-25.5 63.5t-62.5 24.5t-62.5 -25t-25.5 -63q0 -39 24.5 -63.5t63.5 -24.5q37 0 62.5 24.5zM363 118q29 27 29 71t-29 71.5t-74 27.5q-44 0 -73.5 -28t-29.5 -71q0 -45 28.5 -71.5t74.5 -26.5q45 0 74 27z" />
    <glyph glyph-name="nine" unicode="9" horiz-adv-x="571" 
d="M292 135.5q67 64.5 91 126.5q-43 -41 -120 -41q-108 0 -163 59.5t-55 152.5q0 65 27.5 116t80.5 80t126 29q115 0 176 -65t61 -193q0 -115 -58.5 -219t-168.5 -181h-161q97 71 164 135.5zM365.5 353q34.5 36 34.5 90q0 53 -33.5 84t-86.5 31q-52 0 -86 -33t-34 -88
t34 -87.5t86 -32.5q51 0 85.5 36z" />
    <glyph glyph-name="zero.tf" 
d="M48 0zM164 34q-57 44 -86.5 120.5t-29.5 170.5q0 92 29.5 168t86.5 120.5t136 44.5t136 -44.5t86.5 -120.5t29.5 -168q0 -94 -30 -170t-87 -120.5t-135 -44.5q-79 0 -136 44zM400 152.5q37 61.5 37 172.5t-37 172.5t-100 61.5q-62 0 -99.5 -61t-37.5 -173
q0 -111 37.5 -172.5t99.5 -61.5q63 0 100 61.5z" />
    <glyph glyph-name="one.tf" 
d="M139 0zM284 517l-145 -68v98l246 111h10v-658h-111v517z" />
    <glyph glyph-name="two.tf" 
d="M82 0zM82 10l206 262q47 60 69 101t22 82q0 47 -29 75.5t-81 28.5q-75 0 -155 -63v111q68 51 168 51q103 0 157.5 -53.5t54.5 -145.5q0 -58 -25 -107.5t-90 -131.5l-98 -123h224v-97h-423v10z" />
    <glyph glyph-name="three.tf" 
d="M102 0zM172.5 1q-46.5 11 -70.5 27v113q71 -50 160 -50q63 0 99.5 27t36.5 86q0 54 -32 83.5t-93 29.5q-57 0 -96 -29l-9 8l158 256h-217v96h395v-10l-155 -251q43 -2 80.5 -22t61 -61t23.5 -102q0 -104 -65.5 -158t-174.5 -54q-55 0 -101.5 11z" />
    <glyph glyph-name="four.tf" 
d="M21 0zM337 111h-316v10l412 537h10v-460h91v-87h-91v-111h-106v111zM337 198v193l-148 -193h148z" />
    <glyph glyph-name="five.tf" 
d="M93 0zM93 28v113q25 -21 66.5 -35.5t90.5 -14.5q67 0 103 29.5t36 86.5q0 55 -35 83t-93 28q-42 0 -77.5 -17t-59.5 -41l-10 3l52 385h302v-96h-208l-20 -152q28 14 73 14q85 0 138.5 -52t53.5 -150q0 -112 -63 -167t-179 -55q-107 0 -170 38z" />
    <glyph glyph-name="six.tf" 
d="M63 0zM127 57.5q-64 67.5 -64 187.5q0 79 29.5 156.5t82 142t119.5 104.5h171q-79 -44 -153.5 -114t-104.5 -136q21 17 52.5 26.5t67.5 9.5q55 0 103 -24t77 -72.5t29 -117.5q0 -68 -28 -120.5t-81.5 -81t-125.5 -28.5q-110 0 -174 67.5zM387.5 125q33.5 34 33.5 88
q0 55 -34.5 89t-86.5 34t-87 -33.5t-35 -89.5q0 -54 34 -88t88 -34t87.5 34z" />
    <glyph glyph-name="seven.tf" 
d="M88 0zM240 295.5q53 156.5 128 255.5h-280v97h475v-10q-62 -60 -120.5 -165t-98 -230t-48.5 -243h-119q10 139 63 295.5z" />
    <glyph glyph-name="eight.tf" 
d="M82 0zM141 43q-59 53 -59 141q0 55 24 96.5t65 59.5q-32 15 -52.5 50t-20.5 85q0 55 26 96.5t72 64t104 22.5q57 0 103 -22t72.5 -63.5t26.5 -97.5q0 -50 -20.5 -84t-53.5 -49q42 -16 66 -55.5t24 -102.5q0 -57 -26.5 -101t-76 -68.5t-115.5 -24.5q-100 0 -159 53z
M362.5 407.5q25.5 24.5 25.5 63.5t-25.5 63.5t-62.5 24.5t-62.5 -25t-25.5 -63q0 -39 24.5 -63.5t63.5 -24.5q37 0 62.5 24.5zM374 118q29 27 29 71t-29 71.5t-74 27.5q-44 0 -73.5 -28t-29.5 -71q0 -45 28.5 -71.5t74.5 -26.5q45 0 74 27z" />
    <glyph glyph-name="nine.tf" 
d="M59 0zM306 135.5q67 64.5 91 126.5q-43 -41 -120 -41q-108 0 -163 59.5t-55 152.5q0 65 27.5 116t80.5 80t126 29q115 0 176 -65t61 -193q0 -115 -58.5 -219t-168.5 -181h-161q97 71 164 135.5zM379.5 353q34.5 36 34.5 90q0 53 -33.5 84t-86.5 31q-52 0 -86 -33t-34 -88
t34 -87.5t86 -32.5q51 0 85.5 36z" />
    <glyph glyph-name="fraction" unicode="&#x2044;" horiz-adv-x="472" 
d="M360 648h112l-360 -648h-112z" />
    <glyph glyph-name="onehalf" unicode="&#xbd;" horiz-adv-x="920" 
d="M71 0zM167 552l-96 -45v73l173 78h7v-395h-84v289zM577 648h112l-360 -648h-112zM604 7l115 157q27 37 38 58t11 42q0 27 -16 42t-41 15q-44 0 -92 -40v83q44 31 101 31q65 0 99.5 -33.5t34.5 -90.5q0 -37 -14 -65.5t-53 -80.5l-39 -52h114v-73h-258v7z" />
    <glyph glyph-name="onequarter" unicode="&#xbc;" horiz-adv-x="920" 
d="M167 263v289l-96 -45v73l173 78h7v-395h-84zM691 648l-360 -648h-112l360 648h112zM850 60h-55v-60h-80v60h-180v7l253 328h7v-272h55v-63zM715 123v76l-58 -76h58z" />
    <glyph glyph-name="threequarters" unicode="&#xbe;" horiz-adv-x="920" 
d="M279.5 286q-40.5 -33 -106.5 -33q-34 0 -61.5 6t-43.5 16v84q47 -30 96 -30q32 0 50.5 12t18.5 43q0 56 -67 56q-32 0 -54 -14l-5 5l85 144h-121v73h244v-7l-89 -150q37 -2 65.5 -28t28.5 -80q0 -64 -40.5 -97zM690 648l-360 -648h-112l360 648h112zM850 60h-55v-60h-80
v60h-180v7l253 328h7v-272h55v-63zM715 123v75l-58 -75h58z" />
    <glyph glyph-name="uni00B9" unicode="&#xb9;" horiz-adv-x="381" 
d="M167 552l-96 -45v73l173 78h7v-395h-84v289z" />
    <glyph glyph-name="uni00B2" unicode="&#xb2;" horiz-adv-x="381" 
d="M55 270l115 157q27 37 38 58t11 42q0 27 -16 42t-41 15q-44 0 -92 -40v83q44 31 101 31q65 0 99.5 -33.5t34.5 -90.5q0 -37 -14 -65.5t-53 -80.5l-39 -52h114v-73h-258v7z" />
    <glyph glyph-name="uni00B3" unicode="&#xb3;" horiz-adv-x="381" 
d="M111.5 259q-27.5 6 -43.5 16v84q47 -30 96 -30q32 0 50.5 12t18.5 43q0 56 -67 56q-32 0 -54 -14l-5 5l85 144h-121v73h244v-7l-89 -150q37 -2 65.5 -28t28.5 -80q0 -64 -40.5 -97t-106.5 -33q-34 0 -61.5 6z" />
    <glyph glyph-name="asterisk" unicode="*" horiz-adv-x="384" 
d="M165 455l-85 -61l-35 61l96 44l-96 44l35 61l85 -61l-8 105h70l-8 -105l85 61l35 -61l-96 -44l96 -44l-35 -61l-85 61l8 -105h-70z" />
    <glyph glyph-name="backslash" unicode="\" horiz-adv-x="405" 
d="M11 648h112l282 -846h-112z" />
    <glyph glyph-name="periodcentered" unicode="&#xb7;" horiz-adv-x="273" 
d="M87 181.5q-19 19.5 -19 50.5q0 30 20 49.5t49 19.5t48.5 -19.5t19.5 -50.5q0 -30 -19.5 -49.5t-48.5 -19.5q-31 0 -50 19.5z" />
    <glyph glyph-name="bullet" unicode="&#x2022;" horiz-adv-x="446" 
d="M144 152q-31 31 -31 80q0 47 32.5 78t78.5 31q47 0 78 -31t31 -79t-31 -79t-78 -31q-49 0 -80 31z" />
    <glyph glyph-name="periodcentered.case" horiz-adv-x="278" 
d="M73 261zM92 280.5q-19 19.5 -19 50.5q0 30 20 49.5t49 19.5t48.5 -19.5t19.5 -50.5q0 -30 -19.5 -49.5t-48.5 -19.5q-31 0 -50 19.5z" />
    <glyph glyph-name="bullet.case" horiz-adv-x="447" 
d="M122 220zM153 251q-31 31 -31 80q0 47 32.5 78t78.5 31q47 0 78 -31t31 -79t-31 -79t-78 -31q-49 0 -80 31z" />
    <glyph glyph-name="exclamdown.case" horiz-adv-x="297" 
d="M197.5 637.5q19.5 -19.5 19.5 -49.5q0 -31 -19.5 -50.5t-48.5 -19.5t-49 19.5t-20 49.5q0 31 19 50.5t50 19.5q29 0 48.5 -19.5zM202 450l4 -450h-115l4 450h107z" />
    <glyph glyph-name="questiondown.case" horiz-adv-x="443" 
d="M303 638.5q19 -19.5 19 -49.5q0 -31 -20 -50.5t-49 -19.5t-48.5 19.5t-19.5 50.5q0 30 19.5 49.5t49.5 19.5t49 -19.5zM307 294q-69 -1 -110.5 -30t-41.5 -83q0 -44 30.5 -68.5t80.5 -24.5q47 0 88.5 19t56.5 35v-110q-18 -14 -60 -27.5t-97 -13.5q-98 0 -155 49.5
t-57 136.5q0 79 45.5 126.5t111.5 55.5v92h108v-157z" />
    <glyph glyph-name="colon" unicode=":" horiz-adv-x="273" 
d="M87 322.5q-19 19.5 -19 50.5q0 30 20 49.5t49 19.5t48.5 -19.5t19.5 -50.5q0 -30 -19.5 -49.5t-48.5 -19.5q-31 0 -50 19.5zM87 10.5q-19 19.5 -19 50.5q0 30 20 49.5t49 19.5t48.5 -19.5t19.5 -50.5q0 -30 -19.5 -49.5t-48.5 -19.5q-31 0 -50 19.5z" />
    <glyph glyph-name="comma" unicode="," horiz-adv-x="271" 
d="M100.5 -72.5q18.5 33.5 24.5 63.5q-30 1 -48.5 20t-18.5 48q0 32 21 51.5t54 19.5q36 0 58.5 -24.5t22.5 -71.5q0 -44 -24.5 -90.5t-67.5 -77.5h-70q30 28 48.5 61.5z" />
    <glyph glyph-name="ellipsis" unicode="&#x2026;" horiz-adv-x="707" 
d="M87 10.5q-19 19.5 -19 50.5q0 30 20 49.5t49 19.5t48.5 -19.5t19.5 -50.5q0 -30 -19.5 -49.5t-48.5 -19.5q-31 0 -50 19.5zM304 10.5q-19 19.5 -19 50.5q0 30 20 49.5t49 19.5t48.5 -19.5t19.5 -50.5q0 -30 -19.5 -49.5t-48.5 -19.5q-31 0 -50 19.5zM521 10.5
q-19 19.5 -19 50.5q0 30 20 49.5t49 19.5t48.5 -19.5t19.5 -50.5q0 -30 -19.5 -49.5t-48.5 -19.5q-31 0 -50 19.5z" />
    <glyph glyph-name="exclam" unicode="!" horiz-adv-x="297" 
d="M91 648h115l-4 -450h-107zM99 10.5q-19 19.5 -19 50.5q0 30 20 49.5t49 19.5t48.5 -19.5t19.5 -50.5q0 -30 -19.5 -49.5t-48.5 -19.5q-31 0 -50 19.5z" />
    <glyph glyph-name="exclamdown" unicode="&#xa1;" horiz-adv-x="297" 
d="M100 339.5q-20 19.5 -20 49.5q0 31 19 50.5t50 19.5q29 0 48.5 -19.5t19.5 -49.5q0 -31 -19.5 -50.5t-48.5 -19.5t-49 19.5zM95 252h107l4 -450h-115z" />
    <glyph glyph-name="numbersign" unicode="#" horiz-adv-x="572" 
d="M90 162h-90l22 85h89l40 154h-91l22 85h90l41 162h106l-41 -162h97l41 162h106l-41 -162h91l-22 -85h-90l-40 -154h91l-22 -85h-90l-41 -162h-106l41 162h-97l-41 -162h-106zM314 247l40 154h-97l-40 -154h97z" />
    <glyph glyph-name="period" unicode="." horiz-adv-x="273" 
d="M87 10.5q-19 19.5 -19 50.5q0 30 20 49.5t49 19.5t48.5 -19.5t19.5 -50.5q0 -30 -19.5 -49.5t-48.5 -19.5q-31 0 -50 19.5z" />
    <glyph glyph-name="question" unicode="?" horiz-adv-x="443" 
d="M136 355q69 1 110.5 30t41.5 83q0 44 -30.5 68.5t-80.5 24.5q-47 0 -88.5 -19t-56.5 -35v110q18 14 60 27.5t97 13.5q98 0 155 -49.5t57 -136.5q0 -79 -45.5 -126.5t-111.5 -55.5v-92h-108v157zM140 10.5q-19 19.5 -19 49.5q0 31 20 50.5t49 19.5t48.5 -19.5t19.5 -50.5
q0 -30 -19.5 -49.5t-49.5 -19.5t-49 19.5z" />
    <glyph glyph-name="questiondown" unicode="&#xbf;" horiz-adv-x="443" 
d="M204.5 339.5q-19.5 19.5 -19.5 50.5q0 30 19.5 49.5t49.5 19.5t49 -19.5t19 -49.5q0 -31 -20 -50.5t-49 -19.5t-48.5 19.5zM99 -158.5q-57 49.5 -57 136.5q0 79 45.5 126.5t111.5 55.5v92h108v-157q-69 -1 -110.5 -30t-41.5 -83q0 -44 30.5 -68.5t80.5 -24.5
q47 0 88.5 19t56.5 35v-110q-18 -14 -60 -27.5t-97 -13.5q-98 0 -155 49.5z" />
    <glyph glyph-name="quotedbl" unicode="&#x22;" horiz-adv-x="462" 
d="M80 648h116l-14 -218h-88zM266 648h116l-14 -218h-88z" />
    <glyph glyph-name="quotesingle" unicode="'" horiz-adv-x="276" 
d="M80 648h116l-14 -218h-88z" />
    <glyph glyph-name="semicolon" unicode=";" horiz-adv-x="260" 
d="M86 322.5q-19 19.5 -19 50.5q0 30 20 49.5t49 19.5t48.5 -19.5t19.5 -50.5q0 -30 -19.5 -49.5t-48.5 -19.5q-31 0 -50 19.5zM100.5 -72.5q18.5 33.5 24.5 63.5q-30 1 -48.5 20t-18.5 48q0 32 21 51.5t54 19.5q36 0 58.5 -24.5t22.5 -71.5q0 -44 -24.5 -90.5t-67.5 -77.5
h-70q30 28 48.5 61.5z" />
    <glyph glyph-name="slash" unicode="/" horiz-adv-x="405" 
d="M282 648h112l-282 -846h-112z" />
    <glyph glyph-name="numbersign.tf" 
d="M14 0zM104 162h-90l22 85h89l40 154h-91l22 85h90l41 162h106l-41 -162h97l41 162h106l-41 -162h91l-22 -85h-90l-40 -154h91l-22 -85h-90l-41 -162h-106l41 162h-97l-41 -162h-106zM328 247l40 154h-97l-40 -154h97z" />
    <glyph glyph-name="underscore" unicode="_" horiz-adv-x="400" 
d="M0 -90h400v-88h-400v88z" />
    <glyph glyph-name="braceleft" unicode="{" horiz-adv-x="392" 
d="M125.5 -164q-48.5 43 -48.5 115q0 34 9.5 60t28.5 59q15 25 22.5 43.5t7.5 39.5q0 33 -21 55.5t-57 25.5v19q35 2 56.5 20.5t21.5 50.5q0 19 -7 35.5t-22 41.5q-19 33 -29 58t-10 60q0 73 48.5 116t136.5 43q60 0 104 -18v-87q-18 10 -43 15.5t-47 5.5q-42 0 -66 -22
t-24 -61q0 -25 8.5 -44t25.5 -48q17 -27 25.5 -46.5t8.5 -43.5q0 -41 -25 -60.5t-58 -24.5q30 -5 56.5 -29t26.5 -67q0 -25 -8.5 -46t-25.5 -50q-17 -27 -25.5 -48t-8.5 -45q0 -39 24 -60t66 -21q23 0 47.5 5.5t42.5 15.5v-88q-44 -18 -104 -18q-88 0 -136.5 43z" />
    <glyph glyph-name="braceright" unicode="}" horiz-adv-x="392" 
d="M26 -189v88q18 -10 42.5 -15.5t47.5 -5.5q42 0 66 21t24 60q0 24 -8.5 45.5t-25.5 49.5q-17 29 -25.5 49.5t-8.5 44.5q0 43 26.5 67t56.5 29q-33 5 -58 24.5t-25 60.5q0 23 8 41.5t25 47.5q17 27 26 47.5t9 45.5q0 39 -24 61t-66 22q-22 0 -47 -5.5t-43 -15.5v87
q44 18 104 18q88 0 136.5 -43t48.5 -116q0 -35 -10 -61t-30 -59q-14 -24 -21 -40t-7 -35q0 -32 21.5 -50.5t56.5 -20.5v-19q-36 -3 -57 -25.5t-21 -55.5q0 -20 7 -37t22 -44q19 -33 29 -59.5t10 -61.5q0 -72 -48.5 -115t-136.5 -43q-60 0 -104 18z" />
    <glyph glyph-name="bracketleft" unicode="[" horiz-adv-x="324" 
d="M80 648h218v-93h-109v-660h109v-93h-218v846z" />
    <glyph glyph-name="bracketright" unicode="]" horiz-adv-x="324" 
d="M26 -105h109v660h-109v93h218v-846h-218v93z" />
    <glyph glyph-name="braceleft.case" horiz-adv-x="392" 
d="M72 0zM130.5 -52q-48.5 43 -48.5 115q0 34 9.5 60t28.5 59q15 25 22.5 43.5t7.5 39.5q0 33 -21 55.5t-57 25.5v19q35 2 56.5 20.5t21.5 50.5q0 19 -7 35.5t-22 41.5q-19 33 -29 58t-10 60q0 73 48.5 116t136.5 43q60 0 104 -18v-87q-18 10 -43 15.5t-47 5.5
q-42 0 -66 -22t-24 -61q0 -25 8.5 -44t25.5 -48q17 -27 25.5 -46.5t8.5 -43.5q0 -41 -25 -60.5t-58 -24.5q30 -5 56.5 -29t26.5 -67q0 -25 -8.5 -46t-25.5 -50q-17 -27 -25.5 -48t-8.5 -45q0 -39 24 -60t66 -21q23 0 47.5 5.5t42.5 15.5v-88q-44 -18 -104 -18
q-88 0 -136.5 43z" />
    <glyph glyph-name="braceright.case" horiz-adv-x="392" 
d="M28 0zM28 -77v88q18 -10 42.5 -15.5t47.5 -5.5q42 0 66 21t24 60q0 24 -8.5 45.5t-25.5 49.5q-17 29 -25.5 49.5t-8.5 44.5q0 43 26.5 67t56.5 29q-33 5 -58 24.5t-25 60.5q0 23 8 41.5t25 47.5q17 27 26 47.5t9 45.5q0 39 -24 61t-66 22q-22 0 -47 -5.5t-43 -15.5v87
q44 18 104 18q88 0 136.5 -43t48.5 -116q0 -35 -10 -61t-30 -59q-14 -24 -21 -40t-7 -35q0 -32 21.5 -50.5t56.5 -20.5v-19q-36 -3 -57 -25.5t-21 -55.5q0 -20 7 -37t22 -44q19 -33 29 -59.5t10 -61.5q0 -72 -48.5 -115t-136.5 -43q-60 0 -104 18z" />
    <glyph glyph-name="bracketleft.case" horiz-adv-x="313" 
d="M80 0zM80 751h218v-93h-109v-660h109v-93h-218v846z" />
    <glyph glyph-name="bracketright.case" horiz-adv-x="326" 
d="M28 0zM28 -2h109v660h-109v93h218v-846h-218v93z" />
    <glyph glyph-name="parenleft.case" horiz-adv-x="337" 
d="M50 0zM101.5 78q-51.5 105 -51.5 248q0 144 52 249.5t135 175.5h136q-98 -82 -152.5 -183.5t-54.5 -243.5q0 -122 47.5 -224t159.5 -195h-138q-82 68 -133.5 173z" />
    <glyph glyph-name="parenright.case" horiz-adv-x="334" 
d="M0 0zM120.5 100q47.5 102 47.5 224q0 142 -54.5 243.5t-152.5 183.5h136q83 -70 135 -175.5t52 -249.5q0 -143 -51.5 -248t-133.5 -173h-138q112 93 159.5 195z" />
    <glyph glyph-name="parenleft" unicode="(" horiz-adv-x="336" 
d="M89.5 -25q-51.5 105 -51.5 248q0 144 52 249.5t135 175.5h136q-98 -82 -152.5 -183.5t-54.5 -243.5q0 -122 47.5 -224t159.5 -195h-138q-82 68 -133.5 173z" />
    <glyph glyph-name="parenright" unicode=")" horiz-adv-x="336" 
d="M134.5 -3q47.5 102 47.5 224q0 142 -54.5 243.5t-152.5 183.5h136q83 -70 135 -175.5t52 -249.5q0 -143 -51.5 -248t-133.5 -173h-138q112 93 159.5 195z" />
    <glyph glyph-name="emdash.case" horiz-adv-x="793" 
d="M38 285zM38 375h717v-90h-717v90z" />
    <glyph glyph-name="endash.case" horiz-adv-x="476" 
d="M38 285zM38 375h400v-90h-400v90z" />
    <glyph glyph-name="hyphen.case" horiz-adv-x="276" 
d="M38 374h200v-88h-200v88z" />
    <glyph glyph-name="uni00AD.case" horiz-adv-x="276" 
d="M38 286zM38 374h200v-88h-200v88z" />
    <glyph glyph-name="emdash" unicode="&#x2014;" horiz-adv-x="793" 
d="M38 288h717v-90h-717v90z" />
    <glyph glyph-name="endash" unicode="&#x2013;" horiz-adv-x="476" 
d="M38 288h400v-90h-400v90z" />
    <glyph glyph-name="hyphen" unicode="-" horiz-adv-x="276" 
d="M38 287h200v-88h-200v88z" />
    <glyph glyph-name="uni00AD" unicode="&#xad;" horiz-adv-x="276" 
d="M38 287h200v-88h-200v88z" />
    <glyph glyph-name="guillemotleft.case" horiz-adv-x="617" 
d="M41 173zM41 330l140 157h126l-144 -157l144 -157h-126zM283 330l140 157h126l-144 -157l144 -157h-126z" />
    <glyph glyph-name="guillemotright.case" horiz-adv-x="598" 
d="M68 173zM212 330l-144 157h126l140 -157l-140 -157h-126zM454 330l-144 157h126l140 -157l-140 -157h-126z" />
    <glyph glyph-name="guilsinglleft.case" horiz-adv-x="359" 
d="M41 173zM41 330l140 157h126l-144 -157l144 -157h-126z" />
    <glyph glyph-name="guilsinglright.case" horiz-adv-x="356" 
d="M68 173zM212 330l-144 157h126l140 -157l-140 -157h-126z" />
    <glyph glyph-name="guillemotleft" unicode="&#xab;" horiz-adv-x="613" 
d="M38 231l140 157h126l-144 -157l144 -157h-126zM279 231l140 157h126l-144 -157l144 -157h-126z" />
    <glyph glyph-name="guillemotright" unicode="&#xbb;" horiz-adv-x="613" 
d="M212 231l-144 157h126l140 -157l-140 -157h-126zM453 231l-144 157h126l140 -157l-140 -157h-126z" />
    <glyph glyph-name="guilsinglleft" unicode="&#x2039;" horiz-adv-x="372" 
d="M38 231l140 157h126l-144 -157l144 -157h-126z" />
    <glyph glyph-name="guilsinglright" unicode="&#x203a;" horiz-adv-x="372" 
d="M212 231l-144 157h126l140 -157l-140 -157h-126z" />
    <glyph glyph-name="quotedblbase" unicode="&#x201e;" horiz-adv-x="472" 
d="M56 0zM104.5 -82.5q18.5 33.5 24.5 63.5q-30 1 -48.5 20t-18.5 48q0 32 21 51.5t54 19.5q36 0 58.5 -24.5t22.5 -71.5q0 -44 -24.5 -90.5t-67.5 -77.5h-70q30 28 48.5 61.5zM305.5 -82.5q18.5 33.5 24.5 63.5q-30 1 -48.5 20t-18.5 48q0 32 21 51.5t54 19.5
q36 0 58.5 -24.5t22.5 -71.5q0 -44 -24.5 -90.5t-67.5 -77.5h-70q30 28 48.5 61.5z" />
    <glyph glyph-name="quotedblleft" unicode="&#x201c;" horiz-adv-x="472" 
d="M166.5 586.5q-18.5 -33.5 -24.5 -63.5q30 -1 48.5 -20t18.5 -48q0 -32 -21 -51.5t-54 -19.5q-36 0 -58.5 24.5t-22.5 71.5q0 44 24.5 90.5t67.5 77.5h70q-30 -28 -48.5 -61.5zM367.5 586.5q-18.5 -33.5 -24.5 -63.5q30 -1 48.5 -20t18.5 -48q0 -32 -21 -51.5t-54 -19.5
q-36 0 -58.5 24.5t-22.5 71.5q0 44 24.5 90.5t67.5 77.5h70q-30 -28 -48.5 -61.5z" />
    <glyph glyph-name="quotedblright" unicode="&#x201d;" horiz-adv-x="472" 
d="M56 390zM104.5 451.5q18.5 33.5 24.5 63.5q-30 1 -48.5 20t-18.5 48q0 32 21 51.5t54 19.5q36 0 58.5 -24.5t22.5 -71.5q0 -44 -24.5 -90.5t-67.5 -77.5h-70q30 28 48.5 61.5zM305.5 451.5q18.5 33.5 24.5 63.5q-30 1 -48.5 20t-18.5 48q0 32 21 51.5t54 19.5
q36 0 58.5 -24.5t22.5 -71.5q0 -44 -24.5 -90.5t-67.5 -77.5h-70q30 28 48.5 61.5z" />
    <glyph glyph-name="quoteleft" unicode="&#x2018;" horiz-adv-x="271" 
d="M166.5 586.5q-18.5 -33.5 -24.5 -63.5q30 -1 48.5 -20t18.5 -48q0 -32 -21 -51.5t-54 -19.5q-36 0 -58.5 24.5t-22.5 71.5q0 44 24.5 90.5t67.5 77.5h70q-30 -28 -48.5 -61.5z" />
    <glyph glyph-name="quoteright" unicode="&#x2019;" horiz-adv-x="271" 
d="M56 390zM104.5 451.5q18.5 33.5 24.5 63.5q-30 1 -48.5 20t-18.5 48q0 32 21 51.5t54 19.5q36 0 58.5 -24.5t22.5 -71.5q0 -44 -24.5 -90.5t-67.5 -77.5h-70q30 28 48.5 61.5z" />
    <glyph glyph-name="quotesinglbase" unicode="&#x201a;" horiz-adv-x="271" 
d="M56 0zM104.5 -82.5q18.5 33.5 24.5 63.5q-30 1 -48.5 20t-18.5 48q0 32 21 51.5t54 19.5q36 0 58.5 -24.5t22.5 -71.5q0 -44 -24.5 -90.5t-67.5 -77.5h-70q30 28 48.5 61.5z" />
    <glyph glyph-name="uni2003" unicode="&#x2003;" horiz-adv-x="793" 
 />
    <glyph glyph-name="uni2002" unicode="&#x2002;" horiz-adv-x="476" 
 />
    <glyph glyph-name="uni200A" unicode="&#x200a;" horiz-adv-x="50" 
 />
    <glyph glyph-name="uni00A0" unicode="&#xa0;" horiz-adv-x="210" 
 />
    <glyph glyph-name="uni2009" unicode="&#x2009;" horiz-adv-x="159" 
 />
    <glyph glyph-name="cent" unicode="&#xa2;" horiz-adv-x="477" 
d="M275 90q-95 6 -158 64t-63 164q0 103 60 168t161 71v91h58v-90q61 -4 101 -24v-102q-56 33 -101 36v-287q56 4 105 39v-103q-17 -10 -45 -17.5t-60 -8.5v-91h-58v90zM275 469q-43 -6 -75.5 -47t-32.5 -99q0 -55 28 -95t80 -46v287z" />
    <glyph glyph-name="currency" unicode="&#xa4;" 
d="M81 172l67 67q-19 36 -19 78t20 79l-68 68l73 73l68 -68q38 19 78 19q43 0 78 -20l69 69l72 -73l-68 -68q20 -37 20 -79q0 -40 -19 -78l67 -67l-73 -73l-67 67q-37 -20 -79 -20t-78 19l-68 -66zM367 249q26 24 26 67q0 44 -26.5 69t-66.5 25t-66 -25.5t-26 -68.5
q0 -42 26 -66.5t66 -24.5q41 0 67 24z" />
    <glyph glyph-name="dollar" unicode="$" horiz-adv-x="525" 
d="M236 2q-108 5 -173 37v104q30 -20 77.5 -34t95.5 -17v189q-62 19 -101 40t-62.5 56.5t-23.5 92.5q0 79 49.5 124t137.5 53v101h58v-101q44 -4 80 -12.5t58 -19.5v-106q-28 18 -64.5 31t-73.5 17v-183q51 -16 91 -36.5t69 -58.5t29 -95q0 -83 -49 -129t-140 -53v-92h-58
v92zM236 556q-37 -5 -56.5 -26.5t-19.5 -54.5q0 -32 19 -51t57 -32v164zM352 120q19 22 19 55t-19 54t-58 35v-171q39 5 58 27z" />
    <glyph glyph-name="Euro" unicode="&#x20ac;" horiz-adv-x="602" 
d="M197 44.5q-78 54.5 -99 159.5h-89v85h80q-2 16 -2 34q0 19 2 33h-80v85h91q22 98 98.5 157.5t204.5 59.5q50 0 96 -9t69 -21v-107q-22 14 -68 26t-91 12q-77 0 -125 -32t-66 -86h201v-85h-215q-2 -12 -2 -31q0 -24 2 -36h215v-85h-204q18 -59 71.5 -86t123.5 -27
q101 0 165 33v-106q-23 -11 -73.5 -19.5t-101.5 -8.5q-125 0 -203 54.5z" />
    <glyph glyph-name="florin" unicode="&#x192;" horiz-adv-x="464" 
d="M-40 -196v95q30 -10 54 -10q32 0 49.5 12t26 35t15.5 63l48 272h-87v94h103l18 101q17 95 61.5 143.5t132.5 48.5q45 0 70 -11v-98q-28 11 -56 11q-42 0 -64 -26t-32 -82l-15 -87h121v-94h-138l-50 -286q-10 -58 -28 -99t-56.5 -67t-104.5 -26q-42 0 -68 11z" />
    <glyph glyph-name="cent.ss01" horiz-adv-x="477" 
d="M260 92q-90 9 -148 66.5t-58 159.5q0 99 55.5 163.5t150.5 74.5v92h88v-92q50 -4 86 -22v-102q-62 38 -126 38q-67 0 -104 -40.5t-37 -106.5q0 -63 35.5 -103t109.5 -40q71 0 126 40v-103q-31 -19 -90 -25v-92h-88v92z" />
    <glyph glyph-name="dollar.ss01" horiz-adv-x="525" 
d="M221 3q-95 5 -158 36v104q32 -22 88.5 -37t107.5 -15q112 0 112 84q0 30 -13.5 48t-35 28t-60.5 22q-76 23 -119.5 44t-68.5 56.5t-25 94.5q0 77 44.5 121.5t127.5 55.5v103h88v-103q75 -7 123 -30v-106q-34 21 -77 35t-87 14q-54 0 -81 -22t-27 -62q0 -26 12 -42
t34.5 -26t67.5 -25q64 -20 104.5 -39t72.5 -58.5t32 -103.5q0 -73 -44 -120t-130 -57v-93h-88v93z" />
    <glyph glyph-name="cent.tf.ss01" 
d="M105 0zM311 92q-90 9 -148 66.5t-58 159.5q0 99 55.5 163.5t150.5 74.5v92h88v-92q50 -4 86 -22v-102q-62 38 -126 38q-67 0 -104 -40.5t-37 -106.5q0 -63 35.5 -103t109.5 -40q71 0 126 40v-103q-31 -19 -90 -25v-92h-88v92z" />
    <glyph glyph-name="dollar.tf.ss01" 
d="M91 0zM263 3q-95 5 -158 36v104q32 -22 88.5 -37t107.5 -15q112 0 112 84q0 30 -13.5 48t-35 28t-60.5 22q-76 23 -119.5 44t-68.5 56.5t-25 94.5q0 77 44.5 121.5t127.5 55.5v103h88v-103q75 -7 123 -30v-106q-34 21 -77 35t-87 14q-54 0 -81 -22t-27 -62q0 -26 12 -42
t34.5 -26t67.5 -25q64 -20 104.5 -39t72.5 -58.5t32 -103.5q0 -73 -44 -120t-130 -57v-93h-88v93z" />
    <glyph glyph-name="sterling" unicode="&#xa3;" horiz-adv-x="497" 
d="M45 10q62 71 93.5 126.5t31.5 98.5q0 21 -6 36h-109v94h62q-28 45 -28 101t26 99.5t74 68t113 24.5q46 0 85.5 -11.5t62.5 -28.5v-111q-15 17 -54 34.5t-82 17.5q-52 0 -81 -28t-29 -73t36 -93h154v-94h-118q6 -15 6 -36q0 -33 -14.5 -68.5t-41.5 -69.5h239v-97h-420v10z
" />
    <glyph glyph-name="cent.tf" 
d="M105 0zM326 90q-95 6 -158 64t-63 164q0 103 60 168t161 71v91h58v-90q61 -4 101 -24v-102q-56 33 -101 36v-287q56 4 105 39v-103q-17 -10 -45 -17.5t-60 -8.5v-91h-58v90zM326 469q-43 -6 -75.5 -47t-32.5 -99q0 -55 28 -95t80 -46v287z" />
    <glyph glyph-name="dollar.tf" 
d="M91 0zM278 2q-108 5 -173 37v104q30 -20 77.5 -34t95.5 -17v189q-62 19 -101 40t-62.5 56.5t-23.5 92.5q0 79 49.5 124t137.5 53v101h58v-101q44 -4 80 -12.5t58 -19.5v-106q-28 18 -64.5 31t-73.5 17v-183q51 -16 91 -36.5t69 -58.5t29 -95q0 -83 -49 -129t-140 -53v-92
h-58v92zM278 556q-37 -5 -56.5 -26.5t-19.5 -54.5q0 -32 19 -51t57 -32v164zM394 120q19 22 19 55t-19 54t-58 35v-171q39 5 58 27z" />
    <glyph glyph-name="Euro.tf" 
d="M14 0zM202 44.5q-78 54.5 -99 159.5h-89v85h80q-2 16 -2 34q0 19 2 33h-80v85h91q22 98 98.5 157.5t204.5 59.5q50 0 96 -9t69 -21v-107q-22 14 -68 26t-91 12q-77 0 -125 -32t-66 -86h201v-85h-215q-2 -12 -2 -31q0 -24 2 -36h215v-85h-204q18 -59 71.5 -86t123.5 -27
q101 0 165 33v-106q-23 -11 -73.5 -19.5t-101.5 -8.5q-125 0 -203 54.5z" />
    <glyph glyph-name="florin.tf" 
d="M37 0zM37 -196v95q30 -10 54 -10q32 0 49.5 12t26 35t15.5 63l48 272h-87v94h103l18 101q17 95 61.5 143.5t132.5 48.5q45 0 70 -11v-98q-28 11 -56 11q-42 0 -64 -26t-32 -82l-15 -87h121v-94h-138l-50 -286q-10 -58 -28 -99t-56.5 -67t-104.5 -26q-42 0 -68 11z" />
    <glyph glyph-name="sterling.tf" 
d="M98 0zM98 10q62 71 93.5 126.5t31.5 98.5q0 21 -6 36h-109v94h62q-28 45 -28 101t26 99.5t74 68t113 24.5q46 0 85.5 -11.5t62.5 -28.5v-111q-15 17 -54 34.5t-82 17.5q-52 0 -81 -28t-29 -73t36 -93h154v-94h-118q6 -15 6 -36q0 -33 -14.5 -68.5t-41.5 -69.5h239v-97
h-420v10z" />
    <glyph glyph-name="yen.tf" 
d="M32 0zM244 164h-144v85h148l-35 67h-127v85h77l-131 247h125l145 -303l145 303h121l-132 -247h76v-85h-127l-35 -67h148v-85h-144v-164h-110v164z" />
    <glyph glyph-name="yen" unicode="&#xa5;" horiz-adv-x="548" 
d="M218 164h-144v85h148l-35 67h-127v85h77l-131 247h125l145 -303l145 303h121l-132 -247h76v-85h-127l-35 -67h148v-85h-144v-164h-110v164z" />
    <glyph glyph-name="uni2126" unicode="&#x2126;" horiz-adv-x="755" 
d="M49 97h114q-55 35 -84.5 92.5t-29.5 134.5q0 97 40 173t115 118.5t176 42.5q100 0 173.5 -42.5t113 -117.5t39.5 -171q0 -79 -29 -137t-85 -93h114v-97h-272v99q70 19 113.5 75.5t43.5 151.5q0 67 -27.5 119t-76 80.5t-109.5 28.5t-110 -28.5t-76.5 -80.5t-27.5 -119
q0 -95 43.5 -151.5t113.5 -75.5v-99h-272v97z" />
    <glyph glyph-name="approxequal" unicode="&#x2248;" 
d="M88 70zM333.5 77.5q-22.5 7.5 -54.5 22.5q-22 11 -36.5 16t-28.5 5q-22 0 -33 -13t-12 -31h-81q1 59 33.5 94t92.5 35q28 0 49 -7t50 -21q23 -12 38 -17.5t33 -5.5q23 0 34.5 13.5t12.5 30.5h81q-1 -59 -34.5 -94t-93.5 -35q-28 0 -50.5 7.5zM333.5 253.5
q-22.5 7.5 -54.5 22.5q-22 11 -36.5 16t-28.5 5q-22 0 -33 -13t-12 -31h-81q1 59 33.5 94t92.5 35q28 0 49 -7t50 -21q23 -12 38 -17.5t33 -5.5q23 0 34.5 13.5t12.5 30.5h81q-1 -59 -34.5 -94t-93.5 -35q-28 0 -50.5 7.5z" />
    <glyph glyph-name="asciitilde" unicode="~" 
d="M333.5 165.5q-22.5 7.5 -54.5 22.5q-22 11 -36.5 16t-28.5 5q-22 0 -33 -13t-12 -31h-81q1 59 33.5 94t92.5 35q28 0 49 -7t50 -21q23 -12 38 -17.5t33 -5.5q23 0 34.5 13.5t12.5 30.5h81q-1 -59 -34.5 -94t-93.5 -35q-28 0 -50.5 7.5z" />
    <glyph glyph-name="divide" unicode="&#xf7;" 
d="M253.5 345q-18.5 19 -18.5 48q0 28 19 47t47 19t46.5 -19t18.5 -48t-18.5 -47.5t-46.5 -18.5q-29 0 -47.5 19zM88 270h424v-88h-424v88zM253.5 12q-18.5 19 -18.5 48q0 28 19 47t47 19t46.5 -19t18.5 -48t-18.5 -47.5t-46.5 -18.5q-29 0 -47.5 19z" />
    <glyph glyph-name="dotmath" unicode="&#x22c5;" horiz-adv-x="317" 
d="M109 181.5q-19 19.5 -19 50.5q0 30 20 49.5t49 19.5t48.5 -19.5t19.5 -50.5q0 -30 -19.5 -49.5t-48.5 -19.5q-31 0 -50 19.5z" />
    <glyph glyph-name="equal" unicode="=" 
d="M87 358h424v-88h-424v88zM87 182h424v-88h-424v88z" />
    <glyph glyph-name="greater" unicode="&#x3e;" 
d="M87 106l244 118l-244 118v110l424 -221v-10l-424 -221v106z" />
    <glyph glyph-name="greaterequal" unicode="&#x2265;" 
d="M88 0zM88 257l244 118l-244 118v110l424 -221v-10l-424 -221v106zM88 88h424v-88h-424v88z" />
    <glyph glyph-name="uni2206" unicode="&#x2206;" horiz-adv-x="641" 
d="M316 658h10l296 -658h-603zM459 97l-140 327l-140 -327h280z" />
    <glyph glyph-name="infinity" unicode="&#x221e;" horiz-adv-x="684" 
d="M81.5 209q-43.5 40 -43.5 116q0 75 43.5 114.5t110.5 39.5q43 0 83 -23.5t67 -70.5q27 47 67 70.5t83 23.5q67 0 110.5 -39.5t43.5 -114.5q0 -76 -43.5 -116t-110.5 -40q-44 0 -83 23.5t-67 70.5q-28 -47 -67 -70.5t-83 -23.5q-67 0 -110.5 40zM250.5 273
q21.5 16 43.5 51q-22 35 -43.5 51.5t-50.5 16.5q-28 0 -46.5 -18t-18.5 -50q0 -31 18.5 -49t47.5 -18q28 0 49.5 16zM530.5 275q18.5 18 18.5 49t-18 49t-47 18t-50.5 -16t-43.5 -51q22 -35 43.5 -51t49.5 -16q29 0 47.5 18z" />
    <glyph glyph-name="integral" unicode="&#x222b;" horiz-adv-x="395" 
d="M55 -204q-24 3 -39 9v91q30 -12 64 -12q43 0 61.5 28t18.5 92v465q0 94 43 141.5t136 47.5q41 0 71 -10v-94q-32 10 -59 10q-47 0 -64.5 -25t-17.5 -76v-444q0 -73 -13 -121.5t-50.5 -76.5t-107.5 -28q-19 0 -43 3z" />
    <glyph glyph-name="less" unicode="&#x3c;" 
d="M87 221v10l424 221v-106l-244 -118l244 -118v-110z" />
    <glyph glyph-name="lessequal" unicode="&#x2264;" 
d="M88 0zM88 372v10l424 221v-106l-244 -118l244 -118v-110zM88 88h424v-88h-424v88z" />
    <glyph glyph-name="logicalnot" unicode="&#xac;" 
d="M414 270h-326v88h424v-264h-98v176z" />
    <glyph glyph-name="uni00B5" unicode="&#xb5;" horiz-adv-x="497" 
d="M55 450h109v-256q0 -111 88 -111q43 0 65.5 28t22.5 83v256h107v-257q0 -88 -42.5 -145t-143.5 -57q-64 0 -99 25v-214h-107v648z" />
    <glyph glyph-name="minus" unicode="&#x2212;" 
d="M88 270h424v-88h-424v88z" />
    <glyph glyph-name="multiply" unicode="&#xd7;" 
d="M81 80l146 146l-146 146l73 73l146 -146l147 146l72 -73l-146 -146l146 -146l-73 -73l-146 145l-146 -145z" />
    <glyph glyph-name="notequal" unicode="&#x2260;" 
d="M194 94h-106v88h143l44 88h-187v88h227l48 92h90l-48 -92h107v-88h-147l-44 -88h191v-88h-228l-47 -94h-90z" />
    <glyph glyph-name="partialdiff" unicode="&#x2202;" horiz-adv-x="577" 
d="M153 20.5q-55 29.5 -85 82t-30 121.5q0 67 27.5 120t79.5 84t124 31q50 0 87.5 -16.5t60.5 -45.5q-11 99 -55 143.5t-126 44.5q-31 0 -61.5 -5.5t-45.5 -12.5v95q16 7 47 11.5t66 4.5q136 0 216.5 -80t80.5 -287q0 -150 -65.5 -235t-192.5 -85q-73 0 -128 29.5z
M376.5 124.5q35.5 39.5 35.5 102.5q0 62 -36 100.5t-94 38.5q-61 0 -96 -41t-35 -101q0 -61 36.5 -100t94.5 -39q59 0 94.5 39.5z" />
    <glyph glyph-name="percent" unicode="%" horiz-adv-x="936" 
d="M99.5 364q-49.5 46 -49.5 124q0 52 23.5 90.5t63.5 59t88 20.5q47 0 87 -20t64 -58.5t24 -90.5q0 -53 -23 -91.5t-63 -59t-89 -20.5q-76 0 -125.5 46zM592 648h112l-360 -648h-112zM287.5 422.5q24.5 23.5 24.5 64.5q0 43 -24.5 67t-62.5 24t-62.5 -25.5t-24.5 -66.5
t24.5 -64t62.5 -23t62.5 23.5zM585.5 36q-49.5 46 -49.5 124q0 52 23.5 90.5t63.5 59t88 20.5q47 0 87 -20t64 -58.5t24 -90.5q0 -53 -23 -91.5t-63 -59t-89 -20.5q-76 0 -125.5 46zM773.5 94.5q24.5 23.5 24.5 64.5q0 43 -24.5 67t-62.5 24t-62.5 -25.5t-24.5 -66.5
t24.5 -64t62.5 -23t62.5 23.5z" />
    <glyph glyph-name="perthousand" unicode="&#x2030;" horiz-adv-x="1343" 
d="M99.5 364q-49.5 46 -49.5 124q0 52 23.5 90.5t63.5 59t88 20.5q47 0 87 -20t64 -58.5t24 -90.5q0 -53 -23 -91.5t-63 -59t-89 -20.5q-76 0 -125.5 46zM592 648h112l-360 -648h-112zM287.5 422.5q24.5 23.5 24.5 64.5q0 43 -24.5 67t-62.5 24t-62.5 -25.5t-24.5 -66.5
t24.5 -64t62.5 -23t62.5 23.5zM585.5 36q-49.5 46 -49.5 124q0 52 23.5 90.5t63.5 59t88 20.5q47 0 87 -20t64 -58.5t24 -90.5q0 -53 -23 -91.5t-63 -59t-89 -20.5q-76 0 -125.5 46zM992.5 36q-49.5 46 -49.5 124q0 52 23.5 90.5t63.5 59t88 20.5q47 0 87 -20t64 -58.5
t24 -90.5q0 -53 -23 -91.5t-63 -59t-89 -20.5q-76 0 -125.5 46zM773.5 94.5q24.5 23.5 24.5 64.5q0 43 -24.5 67t-62.5 24t-62.5 -25.5t-24.5 -66.5t24.5 -64t62.5 -23t62.5 23.5zM1180.5 94.5q24.5 23.5 24.5 64.5q0 43 -24.5 67t-62.5 24t-62.5 -25.5t-24.5 -66.5
t24.5 -64t62.5 -23t62.5 23.5z" />
    <glyph glyph-name="plus" unicode="+" 
d="M251 182h-163v88h163v167h98v-167h163v-88h-163v-168h-98v168z" />
    <glyph glyph-name="plusminus" unicode="&#xb1;" 
d="M251 300h-163v88h163v167h98v-167h163v-88h-163v-168h-98v168zM88 88h424v-88h-424v88z" />
    <glyph glyph-name="product" unicode="&#x220f;" horiz-adv-x="801" 
d="M160 552h-107v96h695v-96h-107v-750h-113v750h-255v-750h-113v750z" />
    <glyph glyph-name="radical" unicode="&#x221a;" horiz-adv-x="598" 
d="M159 226h-103v88h180l69 -175l181 509h112l-239 -648h-108z" />
    <glyph glyph-name="summation" unicode="&#x2211;" horiz-adv-x="565" 
d="M42 10l245 317l-242 311v10h474v-96h-269l175 -225l-178 -230h282v-97h-487v10z" />
    <glyph glyph-name="arrowup" unicode="&#x2191;" horiz-adv-x="660" 
d="M274 475l-198 -197v126l254 254l254 -254v-126l-198 197v-475h-112v475z" />
    <glyph glyph-name="arrowright" unicode="&#x2192;" horiz-adv-x="864" 
d="M595 278h-519v105h519l-236 235h140l289 -288l-289 -288h-140z" />
    <glyph glyph-name="arrowdown" unicode="&#x2193;" horiz-adv-x="660" 
d="M76 244v126l198 -197v475h112v-475l198 197v-126l-254 -254z" />
    <glyph glyph-name="arrowleft" unicode="&#x2190;" horiz-adv-x="864" 
d="M76 330l289 288h140l-236 -235h519v-105h-519l236 -236h-140z" />
    <glyph glyph-name="lozenge" unicode="&#x25ca;" horiz-adv-x="552" 
d="M29 318l242 340h10l242 -340l-242 -328h-10zM412 318l-136 192l-136 -192l136 -180z" />
    <glyph glyph-name="uniF8FF" unicode="&#xf8ff;" horiz-adv-x="548" 
d="M92.5 598q-8.5 9 -8.5 22q0 12 8.5 21t21.5 9q12 0 21.5 -9t9.5 -21q0 -13 -9.5 -22t-21.5 -9q-13 0 -21.5 9zM159 598q-9 9 -9 22q0 12 9 21t21 9q13 0 21.5 -9t8.5 -21q0 -13 -8.5 -22t-21.5 -9q-12 0 -21 9zM223.5 598q-9.5 9 -9.5 22q0 12 9.5 21t21.5 9
q13 0 21.5 -9t8.5 -21q0 -13 -8.5 -22t-21.5 -9q-12 0 -21.5 9zM289.5 598q-8.5 9 -8.5 22q0 12 8.5 21t21.5 9q12 0 21.5 -9t9.5 -21q0 -13 -9.5 -22t-21.5 -9q-13 0 -21.5 9zM355 598q-9 9 -9 22q0 12 9 21t22 9q11 0 20.5 -9t9.5 -21q0 -13 -9 -22t-21 -9q-13 0 -22 9z
M420.5 598q-9.5 9 -9.5 22q0 12 9.5 21t21.5 9q13 0 21.5 -9t8.5 -21q0 -13 -8.5 -22t-21.5 -9q-12 0 -21.5 9zM92.5 532.5q-8.5 8.5 -8.5 21.5q0 12 8.5 21t21.5 9q12 0 21.5 -9t9.5 -21t-9.5 -21t-21.5 -9q-13 0 -21.5 8.5zM92.5 467q-8.5 9 -8.5 22q0 12 8.5 20.5
t21.5 8.5q12 0 21.5 -8.5t9.5 -20.5q0 -13 -9.5 -22t-21.5 -9q-13 0 -21.5 9zM223.5 467q-9.5 9 -9.5 22q0 12 9.5 20.5t21.5 8.5q13 0 21.5 -8.5t8.5 -20.5q0 -13 -8.5 -22t-21.5 -9q-12 0 -21.5 9zM289.5 467q-8.5 9 -8.5 22q0 12 8.5 20.5t21.5 8.5q12 0 21.5 -8.5
t9.5 -20.5q0 -13 -9.5 -22t-21.5 -9q-13 0 -21.5 9zM355 467q-9 9 -9 22q0 12 9 20.5t22 8.5q12 0 21 -8.5t9 -20.5t-9 -21.5t-21 -9.5q-13 0 -22 9zM420.5 467q-9.5 9 -9.5 22q0 12 9.5 20.5t21.5 8.5q13 0 21.5 -8.5t8.5 -20.5q0 -13 -8.5 -22t-21.5 -9q-12 0 -21.5 9z
M92.5 402q-8.5 8 -8.5 21t8.5 21.5t21.5 8.5q12 0 21.5 -9t9.5 -21t-9.5 -20.5t-21.5 -8.5q-13 0 -21.5 8zM223.5 402.5q-9.5 8.5 -9.5 20.5t9.5 21t21.5 9q13 0 21.5 -8.5t8.5 -21.5t-8.5 -21t-21.5 -8q-12 0 -21.5 8.5zM92.5 335.5q-8.5 8.5 -8.5 21.5t8.5 22t21.5 9
q12 0 21.5 -9t9.5 -22q0 -12 -9.5 -21t-21.5 -9q-13 0 -21.5 8.5zM223.5 336q-9.5 9 -9.5 21q0 13 9.5 22t21.5 9q13 0 21.5 -9t8.5 -22t-8.5 -21.5t-21.5 -8.5q-12 0 -21.5 9zM289.5 335.5q-8.5 8.5 -8.5 21.5t8.5 22t21.5 9q12 0 21.5 -9t9.5 -22q0 -12 -9.5 -21t-21.5 -9
q-13 0 -21.5 8.5zM355 335.5q-9 8.5 -9 21.5t9 22t22 9q12 0 21 -9t9 -22q0 -12 -9 -21t-21 -9q-13 0 -22 8.5zM420.5 336q-9.5 9 -9.5 21q0 13 9.5 22t21.5 9q13 0 21.5 -9t8.5 -22t-8.5 -21.5t-21.5 -8.5q-12 0 -21.5 9zM92.5 270.5q-8.5 8.5 -8.5 21.5q0 12 8.5 21
t21.5 9q12 0 21.5 -9t9.5 -21t-9.5 -21t-21.5 -9q-13 0 -21.5 8.5zM420.5 271q-9.5 9 -9.5 21t9.5 21t21.5 9q13 0 21.5 -9t8.5 -21q0 -13 -8.5 -21.5t-21.5 -8.5q-12 0 -21.5 9zM92.5 205.5q-8.5 8.5 -8.5 21.5q0 12 8.5 20.5t21.5 8.5q12 0 21.5 -8.5t9.5 -20.5t-9.5 -21
t-21.5 -9q-13 0 -21.5 8.5zM223.5 206q-9.5 9 -9.5 21t9.5 20.5t21.5 8.5q13 0 21.5 -8.5t8.5 -20.5q0 -13 -8.5 -21.5t-21.5 -8.5q-12 0 -21.5 9zM289.5 205.5q-8.5 8.5 -8.5 21.5q0 12 8.5 20.5t21.5 8.5q12 0 21.5 -8.5t9.5 -20.5t-9.5 -21t-21.5 -9q-13 0 -21.5 8.5z
M355 205.5q-9 8.5 -9 21.5q0 12 9 20.5t22 8.5q12 0 21 -8.5t9 -20.5t-9 -21t-21 -9q-13 0 -22 8.5zM420.5 206q-9.5 9 -9.5 21t9.5 20.5t21.5 8.5q13 0 21.5 -8.5t8.5 -20.5q0 -13 -8.5 -21.5t-21.5 -8.5q-12 0 -21.5 9zM92.5 139q-8.5 9 -8.5 22t8.5 21.5t21.5 8.5
q12 0 21.5 -9t9.5 -21q0 -13 -9.5 -22t-21.5 -9q-13 0 -21.5 9zM92.5 73.5q-8.5 8.5 -8.5 21.5t8.5 21.5t21.5 8.5q12 0 21.5 -8.5t9.5 -21.5q0 -12 -9.5 -21t-21.5 -9q-13 0 -21.5 8.5zM223.5 74q-9.5 9 -9.5 21q0 13 9.5 21.5t21.5 8.5q13 0 21.5 -8.5t8.5 -21.5
t-8.5 -21.5t-21.5 -8.5q-12 0 -21.5 9zM92.5 8.5q-8.5 8.5 -8.5 21.5q0 12 9 21.5t21 9.5t21.5 -9.5t9.5 -21.5t-9.5 -21t-21.5 -9q-13 0 -21.5 8.5zM159 8.5q-9 8.5 -9 21.5q0 12 9 21.5t21 9.5t21 -9.5t9 -21.5q0 -13 -8.5 -21.5t-21.5 -8.5q-12 0 -21 8.5zM223.5 9
q-9.5 9 -9.5 21t9.5 21.5t21.5 9.5t21 -9.5t9 -21.5q0 -13 -8.5 -21.5t-21.5 -8.5q-12 0 -21.5 9z" />
    <glyph glyph-name="bar" unicode="|" horiz-adv-x="263" 
d="M76 648h111v-846h-111v846z" />
    <glyph glyph-name="brokenbar" unicode="&#xa6;" horiz-adv-x="263" 
d="M76 648h111v-331h-111v331zM76 133h111v-331h-111v331z" />
    <glyph glyph-name="at" unicode="@" horiz-adv-x="999" 
d="M271.5 -154.5q-104.5 52.5 -163 151.5t-58.5 235q0 138 61.5 239t168 154t237.5 53q120 0 218.5 -46t156 -134.5t57.5 -210.5q0 -83 -27 -142.5t-76 -90.5t-113 -31q-49 0 -84 18t-48 51q-20 -35 -57 -52t-79 -17q-49 0 -88.5 24t-62 67.5t-22.5 100.5q0 58 23 107
t66.5 78.5t103.5 29.5q85 0 122 -63l7 51h88l-18 -157q-8 -66 -8 -88q0 -31 14 -48t52 -17q52 0 78 40t26 118q0 105 -45 178t-120.5 109.5t-166.5 36.5q-104 0 -186 -44.5t-128.5 -126.5t-46.5 -190t45.5 -186t127 -119t189.5 -41q92 0 179 28t137 59v-99
q-14 -10 -61 -28.5t-115.5 -34t-142.5 -15.5q-136 0 -240.5 52.5zM555 148q28 37 28 92q0 49 -22 76.5t-63 27.5q-47 0 -76 -36.5t-29 -93.5q0 -49 23.5 -76t63.5 -27q47 0 75 37z" />
    <glyph glyph-name="ampersand" unicode="&#x26;" horiz-adv-x="715" 
d="M702 92v-83q-30 -14 -70 -14q-36 0 -62.5 9.5t-54.5 32.5q-78 -46 -186 -46q-80 0 -144 26.5t-101 76.5t-37 117q0 64 32.5 112t83.5 70q-20 26 -29.5 50t-9.5 51q0 74 50.5 119t138.5 45q35 0 64.5 -8t44.5 -18v-98q-16 12 -43 21.5t-60 9.5q-38 0 -59.5 -20.5
t-21.5 -52.5q0 -28 18.5 -56t67.5 -77l190 -189q19 35 19 75q0 48 -27 87t-84 57l69 63q64 -16 105.5 -71.5t41.5 -134.5q0 -84 -50 -147q27 -20 59 -20q29 0 55 13zM208.5 124q45.5 -39 128.5 -39q59 0 108 22l-225 224q-25 -15 -41 -43.5t-16 -64.5q0 -60 45.5 -99z" />
    <glyph glyph-name="paragraph" unicode="&#xb6;" horiz-adv-x="748" 
d="M264.5 -203.5q-20.5 3.5 -32.5 9.5v84q18 -7 39 -7q25 0 34 12.5t9 38.5v285h-10q-78 0 -135 14.5t-95 61t-38 135.5q0 95 42.5 143t101.5 61.5t136 13.5h407v-96h-107v-750h-113v750h-76v-634q0 -60 -27 -92.5t-93 -32.5q-22 0 -42.5 3.5z" />
    <glyph glyph-name="copyright" unicode="&#xa9;" horiz-adv-x="770" 
d="M216.5 33.5q-76.5 43.5 -121.5 120t-45 170.5t45 170.5t121.5 120t167.5 43.5t168 -43.5t122.5 -120t45.5 -170.5t-45.5 -170.5t-122.5 -120t-168 -43.5t-167.5 43.5zM515 97.5q57 33.5 88 93t31 134.5t-31 134t-88 92t-130 33t-129.5 -33t-88 -92t-31.5 -134
t31.5 -134.5t88 -93t129.5 -33.5t130 33.5zM277.5 200.5q-48.5 41.5 -48.5 120.5q0 77 46.5 123.5t124.5 46.5q48 0 84 -17v-72q-43 23 -78 23q-43 0 -70 -27t-27 -74q0 -43 24 -70.5t71 -27.5q44 0 83 25v-72q-14 -8 -38.5 -14t-51.5 -6q-71 0 -119.5 41.5z" />
    <glyph glyph-name="registered" unicode="&#xae;" horiz-adv-x="770" 
d="M216.5 33.5q-76.5 43.5 -121.5 120t-45 170.5t45 170.5t121.5 120t167.5 43.5t168 -43.5t122.5 -120t45.5 -170.5t-45.5 -170.5t-122.5 -120t-168 -43.5t-167.5 43.5zM515 97.5q57 33.5 88 93t31 134.5t-31 134t-88 92t-130 33t-129.5 -33t-88 -92t-31.5 -134
t31.5 -134.5t88 -93t129.5 -33.5t130 33.5zM270 487h118q59 0 92 -20.5t33 -79.5q0 -78 -64 -94l78 -130h-83l-69 123h-32v-123h-73v324zM367 339q42 0 57 8t15 40q0 29 -15.5 37t-53.5 8h-27v-93h24z" />
    <glyph glyph-name="section" unicode="&#xa7;" horiz-adv-x="436" 
d="M60 -183v93q74 -33 138 -33q48 0 72 18t24 59q0 32 -25.5 51.5t-79.5 43.5q-49 22 -78.5 40.5t-51 50t-21.5 78.5q0 50 27 85.5t67 52.5q-78 44 -78 130q0 87 54.5 129.5t137.5 42.5q30 0 61 -6t52 -14v-91q-56 27 -108 27q-45 0 -71 -21.5t-26 -57.5q0 -35 26.5 -56
t82.5 -46q49 -23 78.5 -41t50.5 -49t21 -76q0 -52 -27 -87.5t-66 -52.5q76 -38 76 -125q0 -75 -46 -122.5t-146 -47.5q-81 0 -144 25zM292.5 155.5q22.5 21.5 22.5 57.5q0 37 -23.5 59.5t-84.5 47.5q-25 -6 -48 -29t-23 -60q0 -39 24.5 -60.5t78.5 -46.5q31 10 53.5 31.5z
" />
    <glyph glyph-name="trademark" unicode="&#x2122;" horiz-adv-x="878" 
d="M475 456l-34 -193h-82l81 395h10l139 -254l141 254h10l80 -395h-83l-32 193l-111 -199h-10zM129 576h-106v72h295v-72h-105v-313h-84v313z" />
    <glyph glyph-name="degree" unicode="&#xb0;" horiz-adv-x="533" 
d="M176 443q-37 35 -37 90q0 54 37 89.5t91 35.5t91 -35.5t37 -89.5q0 -55 -37 -90t-91 -35t-91 35zM312 485.5q18 17.5 18 47.5q0 29 -18 47t-45 18t-45 -17.5t-18 -47.5t18 -47.5t45 -17.5t45 17.5z" />
    <glyph glyph-name="estimated" unicode="&#x212e;" horiz-adv-x="887" 
d="M253 35.5q-88 45.5 -139.5 124t-51.5 171.5t51.5 171.5t139.5 124.5t192 46q102 0 189.5 -46t139 -124.5t51.5 -171.5v-8h-617q-5 0 -6.5 -1t-1.5 -5v-187q0 -6 3 -11t9 -10q44 -46 105 -72t129 -26q72 0 135 29.5t109 80.5h56q-55 -61 -133.5 -96t-167.5 -35
q-104 0 -192 45.5zM678 342q8 0 8 5v190q0 9 -13 22q-42 44 -102 69t-125 25q-68 0 -128 -25.5t-106 -71.5q-12 -12 -12 -24v-185q0 -5 8 -5h470z" />
    <glyph glyph-name="uni2113" unicode="&#x2113;" horiz-adv-x="286" 
d="M77 0zM118.5 14.5q-26.5 19.5 -34 48.5t-7.5 72v528h109v-528q0 -26 8.5 -39t33.5 -13q16 0 26 4v-83q-8 -4 -24 -6.5t-32 -2.5q-53 0 -79.5 19.5z" />
    <glyph glyph-name="uni2116" unicode="&#x2116;" horiz-adv-x="1121" 
d="M80 0zM190 413v-413h-110v658h10l427 -423v413h110v-658h-10zM790.5 363q-45.5 46 -45.5 122q0 75 46.5 123.5t124.5 48.5q76 0 121.5 -45t45.5 -123t-47 -125t-123 -47q-77 0 -122.5 46zM975.5 414q22.5 27 22.5 75q0 47 -22.5 73t-60.5 26q-40 0 -62.5 -28t-22.5 -73
q0 -47 23 -73.5t62 -26.5q38 0 60.5 27zM769 272h290v-70h-290v70z" />
    <glyph glyph-name="asciicircum" unicode="^" 
d="M295 658h10l213 -333h-119l-99 165l-99 -165h-119z" />
    <glyph glyph-name="at.case" horiz-adv-x="999" 
d="M50 0zM271.5 -52.5q-104.5 52.5 -163 151.5t-58.5 235q0 138 61.5 239t168 154t237.5 53q120 0 218.5 -46t156 -134.5t57.5 -210.5q0 -83 -27 -142.5t-76 -90.5t-113 -31q-49 0 -84 18t-48 51q-20 -35 -57 -52t-79 -17q-49 0 -88.5 24t-62 67.5t-22.5 100.5q0 58 23 107
t66.5 78.5t103.5 29.5q85 0 122 -63l7 51h88l-18 -157q-8 -66 -8 -88q0 -31 14 -48t52 -17q52 0 78 40t26 118q0 105 -45 178t-120.5 109.5t-166.5 36.5q-104 0 -186 -44.5t-128.5 -126.5t-46.5 -190t45.5 -186t127 -119t189.5 -41q92 0 179 28t137 59v-99
q-14 -10 -61 -28.5t-115.5 -34t-142.5 -15.5q-136 0 -240.5 52.5zM555 250q28 37 28 92q0 49 -22 76.5t-63 27.5q-47 0 -76 -36.5t-29 -93.5q0 -49 23.5 -76t63.5 -27q47 0 75 37z" />
    <glyph glyph-name="dagger" unicode="&#x2020;" horiz-adv-x="586" 
d="M240 362h-160v88h158l-3 198h116l-3 -198h158v-88h-160l-9 -560h-88z" />
    <glyph glyph-name="daggerdbl" unicode="&#x2021;" horiz-adv-x="586" 
d="M244 100h-154v88h153l-3 174h-160v88h158l-3 198h116l-3 -198h158v-88h-160l-3 -174h153v-88h-154l-5 -298h-88z" />
    <glyph glyph-name="uni0308" unicode="&#x308;" horiz-adv-x="0" 
d="M-404 553.5q-19 19.5 -19 49.5t19 49.5t49 19.5t49 -19.5t19 -49.5t-19 -49.5t-49 -19.5t-49 19.5zM-201 553.5q-19 19.5 -19 49.5t19 49.5t49 19.5t49 -19.5t19 -49.5t-19 -49.5t-49 -19.5t-49 19.5z" />
    <glyph glyph-name="uni0307" unicode="&#x307;" horiz-adv-x="0" 
d="M-311 558.5q-19 19.5 -19 50.5q0 30 20 49.5t49 19.5t48.5 -19.5t19.5 -50.5q0 -30 -19.5 -49.5t-48.5 -19.5q-31 0 -50 19.5z" />
    <glyph glyph-name="gravecomb" unicode="&#x300;" horiz-adv-x="0" 
d="M-390 686h145l119 -166h-108z" />
    <glyph glyph-name="acutecomb" unicode="&#x301;" horiz-adv-x="0" 
d="M-271 686h145l-156 -166h-108z" />
    <glyph glyph-name="uni030B" unicode="&#x30b;" horiz-adv-x="0" 
d="M-363 686h145l-171 -166h-108zM-143 686h145l-171 -166h-108z" />
    <glyph glyph-name="uni0302" unicode="&#x302;" horiz-adv-x="0" 
d="M-254 695l176 -175h-117l-59 63l-59 -63h-116z" />
    <glyph glyph-name="uni030C" unicode="&#x30c;" horiz-adv-x="0" 
d="M-429 686h116l59 -63l59 63h117l-176 -175z" />
    <glyph glyph-name="uni0306" unicode="&#x306;" horiz-adv-x="0" 
d="M-424 673v13h85q0 -88 85 -88q86 0 86 88h85v-13q0 -74 -40.5 -118t-130.5 -44q-170 0 -170 162z" />
    <glyph glyph-name="uni030A" unicode="&#x30a;" horiz-adv-x="0" 
d="M-335 540.5q-31 30.5 -31 72.5t31 72.5t76 30.5t76 -30.5t31 -72.5t-31 -72.5t-76 -30.5t-76 30.5zM-227 580.5q13 13.5 13 32.5t-13 32.5t-32 13.5t-32 -13.5t-13 -32.5t13 -32.5t32 -13.5t32 13.5z" />
    <glyph glyph-name="tildecomb" unicode="&#x303;" horiz-adv-x="0" 
d="M-225 545.5q-20 7.5 -43 20.5q-20 10 -30.5 14.5t-21.5 4.5q-20 0 -29.5 -14t-9.5 -28h-69q0 49 27 84.5t76 35.5q24 0 45 -7.5t45 -21.5q4 -2 20.5 -10t29.5 -8q18 0 27.5 13t9.5 29h69q0 -48 -27 -84t-76 -36q-23 0 -43 7.5z" />
    <glyph glyph-name="uni0304" unicode="&#x304;" horiz-adv-x="0" 
d="M-406 648h300v-88h-300v88z" />
    <glyph glyph-name="uni0315" unicode="&#x315;" horiz-adv-x="0" 
d="M-261 553q-23 0 -37.5 14t-14.5 37q0 25 16 39.5t41 14.5q27 0 45.5 -18t18.5 -50q0 -29 -19 -58.5t-49 -48.5h-55q42 39 54 70z" />
    <glyph glyph-name="uni0326" unicode="&#x326;" horiz-adv-x="0" 
d="M-261 -149q-23 0 -37.5 14t-14.5 37q0 25 16 39.5t41 14.5q27 0 45.5 -18t18.5 -50q0 -27 -14.5 -52t-37.5 -43h-61q31 27 44 58z" />
    <glyph glyph-name="uni0327" unicode="&#x327;" horiz-adv-x="0" 
d="M-360 -196v59q10 -5 25.5 -9.5t30.5 -4.5q23 0 34 8t11 26t-10 26t-26 8q-22 0 -39 -15l-10 6l32 113h66l-19 -61q3 1 10 1q34 -1 54.5 -20t20.5 -59q0 -47 -32 -68t-81 -21q-43 0 -67 11z" />
    <glyph glyph-name="uni0328" unicode="&#x328;" horiz-adv-x="0" 
d="M-287 -183.5q-32 23.5 -32 72.5q0 51 34 85.5t89 47.5l59 -19q-104 -33 -104 -96q0 -49 51 -49q28 0 47 11v-65q-24 -11 -63 -11q-49 0 -81 23.5z" />
    <glyph glyph-name="uni0308.case" horiz-adv-x="0" 
d="M-404 743.5q-19 19.5 -19 49.5t19 49.5t49 19.5t49 -19.5t19 -49.5t-19 -49.5t-49 -19.5t-49 19.5zM-201 743.5q-19 19.5 -19 49.5t19 49.5t49 19.5t49 -19.5t19 -49.5t-19 -49.5t-49 -19.5t-49 19.5z" />
    <glyph glyph-name="uni0307.case" horiz-adv-x="0" 
d="M-311 743.5q-19 19.5 -19 50.5q0 30 20 49.5t49 19.5t48.5 -19.5t19.5 -50.5q0 -30 -19.5 -49.5t-48.5 -19.5q-31 0 -50 19.5z" />
    <glyph glyph-name="gravecomb.case" horiz-adv-x="0" 
d="M-388 876h145l119 -166h-108z" />
    <glyph glyph-name="acutecomb.case" horiz-adv-x="0" 
d="M-258 876h145l-156 -166h-108z" />
    <glyph glyph-name="uni030B.case" horiz-adv-x="0" 
d="M-363 876h145l-171 -166h-108zM-143 876h145l-171 -166h-108z" />
    <glyph glyph-name="uni0302.case" horiz-adv-x="0" 
d="M-254 885l176 -175h-117l-59 63l-59 -63h-116z" />
    <glyph glyph-name="uni030C.case" horiz-adv-x="0" 
d="M-429 876h116l59 -63l59 63h117l-176 -175z" />
    <glyph glyph-name="uni0306.case" horiz-adv-x="0" 
d="M-425 863v13h86q0 -42 20 -64t65 -22q46 0 66 22t20 64h86v-13q0 -75 -40.5 -118.5t-131.5 -43.5q-171 0 -171 162z" />
    <glyph glyph-name="uni030A.case" horiz-adv-x="0" 
d="M-335 720.5q-31 30.5 -31 72.5t31 72.5t76 30.5t76 -30.5t31 -72.5t-31 -72.5t-76 -30.5t-76 30.5zM-227 760.5q13 13.5 13 32.5t-13 32.5t-32 13.5t-32 -13.5t-13 -32.5t13 -32.5t32 -13.5t32 13.5z" />
    <glyph glyph-name="tildecomb.case" horiz-adv-x="0" 
d="M-225 735.5q-20 7.5 -43 20.5q-20 10 -30.5 14.5t-21.5 4.5q-20 0 -29.5 -14t-9.5 -28h-69q0 49 27 84.5t76 35.5q24 0 45 -7.5t45 -21.5q4 -2 20.5 -10t29.5 -8q18 0 27.5 13t9.5 29h69q0 -48 -27 -84t-76 -36q-23 0 -43 7.5z" />
    <glyph glyph-name="uni0304.case" horiz-adv-x="0" 
d="M-406 838h300v-88h-300v88z" />
    <glyph glyph-name="acutecomb.loclPLK" horiz-adv-x="0" 
d="M-294 686h131l-106 -166h-104z" />
    <glyph glyph-name="acutecomb.case.loclPLK" horiz-adv-x="0" 
d="M-251 876h131l-107 -166h-102z" />
    <glyph glyph-name="acute" unicode="&#xb4;" horiz-adv-x="514" 
d="M133 520zM252 686h145l-156 -166h-108z" />
    <glyph glyph-name="breve" unicode="&#x2d8;" horiz-adv-x="508" 
d="M90 511zM90 673v13h85q0 -88 85 -88q86 0 86 88h85v-13q0 -74 -40.5 -118t-130.5 -44q-170 0 -170 162z" />
    <glyph glyph-name="caron" unicode="&#x2c7;" horiz-adv-x="506" 
d="M84 511zM84 686h116l59 -63l59 63h117l-176 -175z" />
    <glyph glyph-name="acute.case" horiz-adv-x="514" 
d="M147 710zM266 876h145l-156 -166h-108z" />
    <glyph glyph-name="breve.case" horiz-adv-x="508" 
d="M89 701zM89 863v13h86q0 -42 20 -64t65 -22q46 0 66 22t20 64h86v-13q0 -75 -40.5 -118.5t-131.5 -43.5q-171 0 -171 162z" />
    <glyph glyph-name="caron.case" horiz-adv-x="506" 
d="M84 701zM84 876h116l59 -63l59 63h117l-176 -175z" />
    <glyph glyph-name="circumflex.case" horiz-adv-x="506" 
d="M84 710zM259 885l176 -175h-117l-59 63l-59 -63h-116z" />
    <glyph glyph-name="dieresis.case" horiz-adv-x="508" 
d="M91 724zM110 743.5q-19 19.5 -19 49.5t19 49.5t49 19.5t49 -19.5t19 -49.5t-19 -49.5t-49 -19.5t-49 19.5zM313 743.5q-19 19.5 -19 49.5t19 49.5t49 19.5t49 -19.5t19 -49.5t-19 -49.5t-49 -19.5t-49 19.5z" />
    <glyph glyph-name="dotaccent.case" horiz-adv-x="523" 
d="M208 724zM227 743.5q-19 19.5 -19 50.5q0 30 20 49.5t49 19.5t48.5 -19.5t19.5 -50.5q0 -30 -19.5 -49.5t-48.5 -19.5q-31 0 -50 19.5z" />
    <glyph glyph-name="grave.case" horiz-adv-x="513" 
d="M135 710zM135 876h145l119 -166h-108z" />
    <glyph glyph-name="hungarumlaut.case" horiz-adv-x="495" 
d="M0 710zM132 876h145l-171 -166h-108zM352 876h145l-171 -166h-108z" />
    <glyph glyph-name="macron.case" horiz-adv-x="510" 
d="M113 750zM113 838h300v-88h-300v88z" />
    <glyph glyph-name="ring.case" horiz-adv-x="517" 
d="M163 690zM194 720.5q-31 30.5 -31 72.5t31 72.5t76 30.5t76 -30.5t31 -72.5t-31 -72.5t-76 -30.5t-76 30.5zM302 760.5q13 13.5 13 32.5t-13 32.5t-32 13.5t-32 -13.5t-13 -32.5t13 -32.5t32 -13.5t32 13.5z" />
    <glyph glyph-name="tilde.case" horiz-adv-x="506" 
d="M85 728zM288 735.5q-20 7.5 -43 20.5q-20 10 -30.5 14.5t-21.5 4.5q-20 0 -29.5 -14t-9.5 -28h-69q0 49 27 84.5t76 35.5q24 0 45 -7.5t45 -21.5q4 -2 20.5 -10t29.5 -8q18 0 27.5 13t9.5 29h69q0 -48 -27 -84t-76 -36q-23 0 -43 7.5z" />
    <glyph glyph-name="cedilla" unicode="&#xb8;" horiz-adv-x="520" 
d="M173 0zM173 -196v59q10 -5 25.5 -9.5t30.5 -4.5q23 0 34 8t11 26t-10 26t-26 8q-22 0 -39 -15l-10 6l32 113h66l-19 -61q3 1 10 1q34 -1 54.5 -20t20.5 -59q0 -47 -32 -68t-81 -21q-43 0 -67 11z" />
    <glyph glyph-name="circumflex" unicode="&#x2c6;" horiz-adv-x="506" 
d="M84 520zM259 695l176 -175h-117l-59 63l-59 -63h-116z" />
    <glyph glyph-name="dieresis" unicode="&#xa8;" horiz-adv-x="508" 
d="M91 534zM110 553.5q-19 19.5 -19 49.5t19 49.5t49 19.5t49 -19.5t19 -49.5t-19 -49.5t-49 -19.5t-49 19.5zM313 553.5q-19 19.5 -19 49.5t19 49.5t49 19.5t49 -19.5t19 -49.5t-19 -49.5t-49 -19.5t-49 19.5z" />
    <glyph glyph-name="dotaccent" unicode="&#x2d9;" horiz-adv-x="523" 
d="M208 539zM227 558.5q-19 19.5 -19 50.5q0 30 20 49.5t49 19.5t48.5 -19.5t19.5 -50.5q0 -30 -19.5 -49.5t-48.5 -19.5q-31 0 -50 19.5z" />
    <glyph glyph-name="grave" unicode="`" horiz-adv-x="514" 
d="M133 520zM133 686h145l119 -166h-108z" />
    <glyph glyph-name="hungarumlaut" unicode="&#x2dd;" horiz-adv-x="495" 
d="M0 520zM132 686h145l-171 -166h-108zM352 686h145l-171 -166h-108z" />
    <glyph glyph-name="acute.loclPLK" horiz-adv-x="518" 
d="M157 520zM236 686h131l-106 -166h-104z" />
    <glyph glyph-name="acute.case.loclPLK" horiz-adv-x="518" 
d="M204 710zM282 876h131l-107 -166h-102z" />
    <glyph glyph-name="macron" unicode="&#xaf;" horiz-adv-x="510" 
d="M113 560zM113 648h300v-88h-300v88z" />
    <glyph glyph-name="ogonek" unicode="&#x2db;" horiz-adv-x="520" 
d="M217 0zM249 -183.5q-32 23.5 -32 72.5q0 51 34 85.5t89 47.5l59 -19q-104 -33 -104 -96q0 -49 51 -49q28 0 47 11v-65q-24 -11 -63 -11q-49 0 -81 23.5z" />
    <glyph glyph-name="ring" unicode="&#x2da;" horiz-adv-x="517" 
d="M163 510zM194 540.5q-31 30.5 -31 72.5t31 72.5t76 30.5t76 -30.5t31 -72.5t-31 -72.5t-76 -30.5t-76 30.5zM302 580.5q13 13.5 13 32.5t-13 32.5t-32 13.5t-32 -13.5t-13 -32.5t13 -32.5t32 -13.5t32 13.5z" />
    <glyph glyph-name="tilde" unicode="&#x2dc;" horiz-adv-x="506" 
d="M85 538zM288 545.5q-20 7.5 -43 20.5q-20 10 -30.5 14.5t-21.5 4.5q-20 0 -29.5 -14t-9.5 -28h-69q0 49 27 84.5t76 35.5q24 0 45 -7.5t45 -21.5q4 -2 20.5 -10t29.5 -8q18 0 27.5 13t9.5 29h69q0 -48 -27 -84t-76 -36q-23 0 -43 7.5z" />
    <glyph glyph-name=".ttfautohint" horiz-adv-x="506" 
d="M0 0z" />
    </font>
</defs>
</svg>
