<svg width="80" height="80" viewBox="0 0 80 80" fill="none" xmlns="http://www.w3.org/2000/svg" aria-hidden="true">
<path fill-rule="evenodd" clip-rule="evenodd" d="M14.5068 48.9207C13.0602 49.1618 12 50.4134 12 51.8799V65.3385L22.6667 62.6719L48 68.0052L67.4618 57.5604V54.6719L65.3333 53.1102L45.3333 58.6719L44.7662 54.6719L28 46.6719L14.5068 48.9207Z" fill="#59CBE8"/>
<path fill-rule="evenodd" clip-rule="evenodd" d="M64.928 52.416C66.3945 52.0291 67.9094 52.8479 68.389 54.2867C69.1004 56.4211 68.1685 58.7575 66.1833 59.8162L48.9661 68.9988C48.471 69.2628 47.8988 69.3441 47.3498 69.2286L22.9926 64.1007C22.795 64.0591 22.5905 64.063 22.3946 64.1119L12.3234 66.6297C11.9251 66.7293 11.5031 66.6398 11.1795 66.3872C10.8558 66.1345 10.6667 65.7468 10.6667 65.3362V60.0029C10.6667 59.2665 11.2636 58.6696 12 58.6696C12.7364 58.6696 13.3334 59.2665 13.3334 60.0029V63.6285L21.7478 61.5249C22.3356 61.378 22.9491 61.3665 23.542 61.4913L47.8003 66.5983L64.9284 57.4633C65.7661 57.0165 66.1594 56.0306 65.8591 55.13C65.8244 55.0257 65.7146 54.9664 65.6084 54.9944L51.0069 58.8472C50.2948 59.0351 49.5653 58.6102 49.3775 57.8982C49.1896 57.1862 49.6145 56.4567 50.3265 56.2688L64.928 52.416Z" fill="#333333"/>
<path fill-rule="evenodd" clip-rule="evenodd" d="M27.8035 48.0474C27.7929 48.0425 27.7811 48.0407 27.7695 48.0422L17.4987 49.326C16.768 49.4173 16.1017 48.899 16.0103 48.1683C15.919 47.4376 16.4373 46.7713 17.168 46.6799L27.4387 45.3961C27.9446 45.3328 28.4581 45.4126 28.921 45.6262L43.6883 52.4419C45.5484 53.3004 46.5351 55.3603 46.0382 57.3477C45.4482 59.7079 43.0063 61.0969 40.6761 60.3978L30.2836 57.2801C29.5782 57.0685 29.178 56.3252 29.3896 55.6198C29.6012 54.9145 30.3445 54.5143 31.0498 54.7259L41.4424 57.8436C42.3153 58.1055 43.2301 57.5851 43.4511 56.701C43.6373 55.9564 43.2676 55.1847 42.5708 54.8631L27.8035 48.0474Z" fill="#333333"/>
<path fill-rule="evenodd" clip-rule="evenodd" d="M13.3333 40.0026V20.0026C13.3333 18.5298 14.5272 17.3359 16 17.3359H64C65.4727 17.3359 66.6666 18.5298 66.6666 20.0026V44.0026C66.6666 45.4754 65.4727 46.6693 64 46.6693H42.6666" fill="white"/>
<path fill-rule="evenodd" clip-rule="evenodd" d="M16 18.6667C15.2636 18.6667 14.6667 19.2636 14.6667 20V40C14.6667 40.7364 14.0697 41.3333 13.3333 41.3333C12.597 41.3333 12 40.7364 12 40V20C12 17.7909 13.7909 16 16 16H64C66.2091 16 68 17.7909 68 20V44C68 46.2091 66.2091 48 64 48H42.6667C41.9303 48 41.3333 47.403 41.3333 46.6667C41.3333 45.9303 41.9303 45.3333 42.6667 45.3333H64C64.7364 45.3333 65.3333 44.7364 65.3333 44V20C65.3333 19.2636 64.7364 18.6667 64 18.6667H16Z" fill="#333333"/>
<path fill-rule="evenodd" clip-rule="evenodd" d="M20 31.9974C20 31.261 20.597 30.6641 21.3333 30.6641H25.3333C26.0697 30.6641 26.6667 31.261 26.6667 31.9974C26.6667 32.7338 26.0697 33.3307 25.3333 33.3307H21.3333C20.597 33.3307 20 32.7338 20 31.9974Z" fill="#333333"/>
<path fill-rule="evenodd" clip-rule="evenodd" d="M53.3333 31.9974C53.3333 31.261 53.9303 30.6641 54.6666 30.6641H58.6666C59.403 30.6641 60 31.261 60 31.9974C60 32.7338 59.403 33.3307 58.6666 33.3307H54.6666C53.9303 33.3307 53.3333 32.7338 53.3333 31.9974Z" fill="#333333"/>
<ellipse cx="40" cy="31.9974" rx="5.33333" ry="5.33333" fill="#59CBE8"/>
<path fill-rule="evenodd" clip-rule="evenodd" d="M38.6667 26.6693C38.6667 25.9329 39.2636 25.3359 40 25.3359C43.6819 25.3359 46.6667 28.3207 46.6667 32.0026C46.6667 35.6845 43.6819 38.6693 40 38.6693C39.2636 38.6693 38.6667 38.0723 38.6667 37.3359C38.6667 36.5996 39.2636 36.0026 40 36.0026C42.2092 36.0026 44 34.2117 44 32.0026C44 29.7935 42.2092 28.0026 40 28.0026C39.2636 28.0026 38.6667 27.4057 38.6667 26.6693Z" fill="#333333"/>
<path fill-rule="evenodd" clip-rule="evenodd" d="M52 11.9974C52 11.261 52.597 10.6641 53.3333 10.6641H58.6667C59.403 10.6641 60 11.261 60 11.9974C60 12.7338 59.403 13.3307 58.6667 13.3307H53.3333C52.597 13.3307 52 12.7338 52 11.9974Z" fill="#333333"/>
<path fill-rule="evenodd" clip-rule="evenodd" d="M45.3333 11.9974C45.3333 11.261 45.9303 10.6641 46.6666 10.6641H48C48.7364 10.6641 49.3333 11.261 49.3333 11.9974C49.3333 12.7338 48.7364 13.3307 48 13.3307H46.6666C45.9303 13.3307 45.3333 12.7338 45.3333 11.9974Z" fill="#333333"/>
</svg>
