<svg width="80" height="80" viewBox="0 0 80 80" fill="none" xmlns="http://www.w3.org/2000/svg" aria-hidden="true">
<rect x="-4.31201" y="54.1406" width="82.6667" height="42.6667" rx="15.5" transform="rotate(-45 -4.31201 54.1406)" fill="#59CBE8"/>
<path fill-rule="evenodd" clip-rule="evenodd" d="M21.3333 21.3359H66.6667V66.6693H20C16.0196 66.6693 13.3333 63.3725 13.3333 59.6906V21.3359" fill="white"/>
<path fill-rule="evenodd" clip-rule="evenodd" d="M20 13.0234C15.5817 13.0234 12 16.6052 12 21.0234C12 21.0762 12.0031 21.1283 12.009 21.1794C12.0031 21.2306 12 21.2827 12 21.3354V59.6901C12 63.9876 15.1679 68.0021 20 68.0021H66.6667C67.403 68.0021 68 67.4052 68 66.6688V21.3354C68 20.5991 67.403 20.0021 66.6667 20.0021H22.6667V14.3568C22.6667 13.6204 22.0697 13.0234 21.3333 13.0234H20ZM20 21.3354V15.6901C17.0545 15.6901 14.6667 18.0779 14.6667 21.0234C14.6667 21.0762 14.6636 21.1283 14.6576 21.1794C14.6636 21.2306 14.6667 21.2827 14.6667 21.3354V53.7272C16.082 52.4604 17.9511 51.6901 20 51.6901V21.3354ZM22.6667 53.0234V22.6688H65.3333V65.3355H20C16.8712 65.3355 14.6667 62.7564 14.6667 59.6901V59.6878C14.6679 56.7434 17.0552 54.3568 20 54.3568H21.3333C22.0697 54.3568 22.6667 53.7598 22.6667 53.0234Z" fill="#333333"/>
<path fill-rule="evenodd" clip-rule="evenodd" d="M67.688 14.3568C67.688 13.6204 67.091 13.0234 66.3547 13.0234H59.688C58.9516 13.0234 58.3547 13.6204 58.3547 14.3568C58.3547 15.0932 58.9516 15.6901 59.688 15.6901H66.3547C67.091 15.6901 67.688 15.0932 67.688 14.3568Z" fill="#333333"/>
<path fill-rule="evenodd" clip-rule="evenodd" d="M55.688 14.3568C55.688 13.6204 55.091 13.0234 54.3547 13.0234H53.0213C52.2849 13.0234 51.688 13.6204 51.688 14.3568C51.688 15.0932 52.2849 15.6901 53.0213 15.6901H54.3547C55.091 15.6901 55.688 15.0932 55.688 14.3568Z" fill="#333333"/>
<path d="M36 44C36 46.2091 34.2091 48 32 48C29.7909 48 28 46.2091 28 44C28 41.7909 29.7909 40 32 40C34.2091 40 36 41.7909 36 44Z" fill="white"/>
<path fill-rule="evenodd" clip-rule="evenodd" d="M32 41.3307C30.5272 41.3307 29.3333 42.5246 29.3333 43.9974C29.3333 45.4702 30.5272 46.6641 32 46.6641C33.4727 46.6641 34.6667 45.4702 34.6667 43.9974C34.6667 42.5246 33.4727 41.3307 32 41.3307ZM26.6667 43.9974C26.6667 41.0519 29.0545 38.6641 32 38.6641C34.9455 38.6641 37.3333 41.0519 37.3333 43.9974C37.3333 46.9429 34.9455 49.3307 32 49.3307C29.0545 49.3307 26.6667 46.9429 26.6667 43.9974Z" fill="#333333"/>
<path d="M36 57.3359C36 59.5451 34.2091 61.3359 32 61.3359C29.7909 61.3359 28 59.5451 28 57.3359C28 55.1268 29.7909 53.3359 32 53.3359C34.2091 53.3359 36 55.1268 36 57.3359Z" fill="white"/>
<path fill-rule="evenodd" clip-rule="evenodd" d="M32 54.6667C30.5272 54.6667 29.3333 55.8606 29.3333 57.3333C29.3333 58.8061 30.5272 60 32 60C33.4727 60 34.6667 58.8061 34.6667 57.3333C34.6667 55.8606 33.4727 54.6667 32 54.6667ZM26.6667 57.3333C26.6667 54.3878 29.0545 52 32 52C34.9455 52 37.3333 54.3878 37.3333 57.3333C37.3333 60.2789 34.9455 62.6667 32 62.6667C29.0545 62.6667 26.6667 60.2789 26.6667 57.3333Z" fill="#333333"/>
<path fill-rule="evenodd" clip-rule="evenodd" d="M40 30.6693C40 29.9329 40.597 29.3359 41.3333 29.3359H58.6667C59.403 29.3359 60 29.9329 60 30.6693C60 31.4056 59.403 32.0026 58.6667 32.0026H41.3333C40.597 32.0026 40 31.4056 40 30.6693Z" fill="#333333"/>
<path fill-rule="evenodd" clip-rule="evenodd" d="M40 43.9974C40 43.261 40.597 42.6641 41.3333 42.6641H49.3333C50.0697 42.6641 50.6667 43.261 50.6667 43.9974C50.6667 44.7338 50.0697 45.3307 49.3333 45.3307H41.3333C40.597 45.3307 40 44.7338 40 43.9974Z" fill="#333333"/>
<path fill-rule="evenodd" clip-rule="evenodd" d="M40 57.3333C40 56.597 40.597 56 41.3333 56H53.3333C54.0697 56 54.6667 56.597 54.6667 57.3333C54.6667 58.0697 54.0697 58.6667 53.3333 58.6667H41.3333C40.597 58.6667 40 58.0697 40 57.3333Z" fill="#333333"/>
<path fill-rule="evenodd" clip-rule="evenodd" d="M38.0666 25.9287C38.4716 26.3337 38.4716 26.9903 38.0666 27.3953L31.8444 33.6176C31.4394 34.0225 30.7828 34.0225 30.3778 33.6176L27.2667 30.5064C26.8617 30.1015 26.8617 29.4448 27.2667 29.0399C27.6717 28.6349 28.3283 28.6349 28.7333 29.0399L31.1111 31.4177L36.6 25.9287C37.005 25.5238 37.6616 25.5238 38.0666 25.9287Z" fill="#333333"/>
</svg>
