<svg width="80" height="80" viewBox="0 0 80 80" fill="none" xmlns="http://www.w3.org/2000/svg">
<path fill-rule="evenodd" clip-rule="evenodd" d="M45.3333 17.3359L28 24.0026V65.3359L45.3333 58.6693V17.3359Z" fill="#59CBE8"/>
<path fill-rule="evenodd" clip-rule="evenodd" d="M10.6667 17.3359L28 24.0026V65.3359L10.6667 58.6693V17.3359Z" stroke="#333333" stroke-width="2" stroke-linecap="round" stroke-linejoin="round"/>
<path d="M62.6667 37.3359V65.3359L45.3333 58.6693V17.3359L50.6821 19.3932" stroke="#333333" stroke-width="2" stroke-linecap="round" stroke-linejoin="round"/>
<path fill-rule="evenodd" clip-rule="evenodd" d="M45.3333 17.3359L28 24.0026V65.3359L45.3333 58.6693V17.3359Z" stroke="#333333" stroke-width="2" stroke-linecap="round" stroke-linejoin="round"/>
<path fill-rule="evenodd" clip-rule="evenodd" d="M67.7372 24.331C68.7324 23.1663 69.3333 21.6546 69.3333 20.0026C69.3333 16.3207 66.3486 13.3359 62.6667 13.3359C58.9848 13.3359 56 16.3207 56 20.0026C56 21.6546 56.6009 23.1663 57.596 24.331L62.6667 30.6693L67.7372 24.331Z" fill="#59CBE8"/>
<path d="M67.7372 24.331L66.977 23.6814C66.97 23.6896 66.9631 23.6979 66.9564 23.7063L67.7372 24.331ZM57.596 24.331L58.3769 23.7063C58.3702 23.6979 58.3633 23.6896 58.3563 23.6814L57.596 24.331ZM62.6667 30.6693L61.8858 31.294C62.0756 31.5312 62.3629 31.6693 62.6667 31.6693C62.9704 31.6693 63.2578 31.5312 63.4475 31.294L62.6667 30.6693ZM68.3333 20.0026C68.3333 21.4076 67.8233 22.691 66.977 23.6814L68.4975 24.9806C69.6416 23.6417 70.3333 21.9017 70.3333 20.0026H68.3333ZM62.6667 14.3359C65.7963 14.3359 68.3333 16.873 68.3333 20.0026H70.3333C70.3333 15.7684 66.9009 12.3359 62.6667 12.3359V14.3359ZM57 20.0026C57 16.873 59.5371 14.3359 62.6667 14.3359V12.3359C58.4325 12.3359 55 15.7684 55 20.0026H57ZM58.3563 23.6814C57.51 22.6909 57 21.4076 57 20.0026H55C55 21.9016 55.6917 23.6416 56.8357 24.9806L58.3563 23.6814ZM63.4475 30.0446L58.3769 23.7063L56.8152 24.9557L61.8858 31.294L63.4475 30.0446ZM66.9564 23.7063L61.8858 30.0446L63.4475 31.294L68.5181 24.9557L66.9564 23.7063Z" fill="#333333"/>
<path d="M16 48V54.6667" stroke="#333333" stroke-width="2" stroke-linecap="round" stroke-linejoin="round"/>
<path d="M16 42.6693V41.3359" stroke="#333333" stroke-width="2" stroke-linecap="round" stroke-linejoin="round"/>
<path d="M45.3333 17.3359L28 24.0026" stroke="#333333" stroke-width="2" stroke-linecap="round" stroke-linejoin="round"/>
</svg>
