<svg width="80" height="80" viewBox="0 0 80 80" fill="none" xmlns="http://www.w3.org/2000/svg">
<rect width="80" height="80" fill="white"/>
<path d="M16 14.6667C16 13.1939 17.1939 12 18.6667 12H61.3333C62.8061 12 64 13.1939 64 14.6667V69.3333C64 70.8061 62.8061 72 61.3333 72H18.6667C17.1939 72 16 70.8061 16 69.3333V14.6667Z" fill="white"/>
<path d="M16 14.6667C16 13.1939 17.1939 12 18.6667 12H40V48.4706C40 61.4655 29.4655 72 16.4706 72C16.2107 72 16 71.7893 16 71.5294V14.6667Z" fill="#59CBE8"/>
<path fill-rule="evenodd" clip-rule="evenodd" d="M14.6667 14.6719C14.6667 12.4627 16.4575 10.6719 18.6667 10.6719H61.3333C63.5425 10.6719 65.3333 12.4627 65.3333 14.6719V69.3385C65.3333 71.5477 63.5425 73.3385 61.3333 73.3385H18.6667C16.4575 73.3385 14.6667 71.5477 14.6667 69.3385V14.6719ZM18.6667 13.3385C17.9303 13.3385 17.3333 13.9355 17.3333 14.6719V69.3385C17.3333 70.0749 17.9303 70.6719 18.6667 70.6719H61.3333C62.0697 70.6719 62.6667 70.0749 62.6667 69.3385V14.6719C62.6667 13.9355 62.0697 13.3385 61.3333 13.3385H18.6667Z" fill="#333333"/>
<path d="M53.3333 20.0052C53.3333 27.369 47.3638 33.3385 40 33.3385C32.6362 33.3385 26.6667 27.369 26.6667 20.0052C26.6667 12.6414 32.6362 6.67188 40 6.67188C47.3638 6.67188 53.3333 12.6414 53.3333 20.0052Z" fill="white"/>
<path fill-rule="evenodd" clip-rule="evenodd" d="M40 8.0026C33.3726 8.0026 28 13.3752 28 20.0026C28 26.63 33.3726 32.0026 40 32.0026C46.6274 32.0026 52 26.63 52 20.0026C52 13.3752 46.6274 8.0026 40 8.0026ZM25.3333 20.0026C25.3333 11.9024 31.8998 5.33594 40 5.33594C48.1002 5.33594 54.6667 11.9024 54.6667 20.0026C54.6667 28.1028 48.1002 34.6693 40 34.6693C31.8998 34.6693 25.3333 28.1028 25.3333 20.0026Z" fill="#333333"/>
<path d="M46.6667 20.0052C46.6667 27.369 43.6819 33.3385 40 33.3385C36.3181 33.3385 33.3333 27.369 33.3333 20.0052C33.3333 12.6414 36.3181 6.67188 40 6.67188C43.6819 6.67188 46.6667 12.6414 46.6667 20.0052Z" fill="white"/>
<path fill-rule="evenodd" clip-rule="evenodd" d="M36.4785 11.1708C35.3828 13.3622 34.6667 16.4828 34.6667 20.0026C34.6667 23.5224 35.3828 26.643 36.4785 28.8344C37.6141 31.1055 38.9362 32.0026 40 32.0026C41.0638 32.0026 42.3859 31.1055 43.5215 28.8344C44.6172 26.643 45.3333 23.5224 45.3333 20.0026C45.3333 16.4828 44.6172 13.3622 43.5215 11.1708C42.3859 8.89968 41.0638 8.0026 40 8.0026C38.9362 8.0026 37.6141 8.89968 36.4785 11.1708ZM34.0934 9.97823C35.3707 7.42363 37.3819 5.33594 40 5.33594C42.6181 5.33594 44.6293 7.42363 45.9066 9.97823C47.2238 12.6126 48 16.1586 48 20.0026C48 23.8466 47.2238 27.3926 45.9066 30.027C44.6293 32.5816 42.6181 34.6693 40 34.6693C37.3819 34.6693 35.3707 32.5816 34.0934 30.027C32.7762 27.3926 32 23.8466 32 20.0026C32 16.1586 32.7762 12.6126 34.0934 9.97823Z" fill="#333333"/>
<path fill-rule="evenodd" clip-rule="evenodd" d="M40 5.33594C40.7364 5.33594 41.3333 5.93289 41.3333 6.66927V33.3359C41.3333 34.0723 40.7364 34.6693 40 34.6693C39.2636 34.6693 38.6667 34.0723 38.6667 33.3359V6.66927C38.6667 5.93289 39.2636 5.33594 40 5.33594Z" fill="#333333"/>
<path fill-rule="evenodd" clip-rule="evenodd" d="M25.3333 20.0052C25.3333 19.2688 25.9303 18.6719 26.6667 18.6719H53.3333C54.0697 18.6719 54.6667 19.2688 54.6667 20.0052C54.6667 20.7416 54.0697 21.3385 53.3333 21.3385H26.6667C25.9303 21.3385 25.3333 20.7416 25.3333 20.0052Z" fill="#333333"/>
<path fill-rule="evenodd" clip-rule="evenodd" d="M26.6667 56.0052C26.6667 55.2688 27.2636 54.6719 28 54.6719H52C52.7364 54.6719 53.3333 55.2688 53.3333 56.0052C53.3333 56.7416 52.7364 57.3385 52 57.3385H28C27.2636 57.3385 26.6667 56.7416 26.6667 56.0052Z" fill="#333333"/>
<path fill-rule="evenodd" clip-rule="evenodd" d="M26.6667 50.6693C26.6667 49.9329 27.2636 49.3359 28 49.3359H52C52.7364 49.3359 53.3333 49.9329 53.3333 50.6693C53.3333 51.4057 52.7364 52.0026 52 52.0026H28C27.2636 52.0026 26.6667 51.4057 26.6667 50.6693Z" fill="#333333"/>
<path fill-rule="evenodd" clip-rule="evenodd" d="M33.3333 61.3333C33.3333 60.597 33.9303 60 34.6667 60H45.3333C46.0697 60 46.6667 60.597 46.6667 61.3333C46.6667 62.0697 46.0697 62.6667 45.3333 62.6667H34.6667C33.9303 62.6667 33.3333 62.0697 33.3333 61.3333Z" fill="#333333"/>
</svg>
