<svg width="922" height="654" viewBox="0 0 922 654" fill="none" xmlns="http://www.w3.org/2000/svg">
<path d="M566.59 606.345C811.786 513.653 967.658 309.117 908.939 154.828C850.22 0.538898 599.33 -44.8611 354.015 47.8305C108.7 140.522 -45.8668 341.866 12.8522 496.155C71.5711 650.444 321.275 699.036 566.59 606.345" fill="#005BA7"/>
<path d="M60.4243 347.781C60.4243 347.781 202.773 438.226 225.549 569.342C225.549 569.342 320.448 175.285 812.739 92.9973C812.739 92.9973 393.521 78.8098 219.618 423.093C219.618 423.093 133.615 336.076 59.9497 347.781" fill="white"/>
<path d="M732.08 199.874C736.724 198.15 740.75 195.09 743.647 191.082C746.544 187.075 748.183 182.3 748.355 177.363C748.527 172.427 747.224 167.55 744.613 163.352C742.001 159.154 738.198 155.823 733.685 153.782C729.172 151.74 724.152 151.08 719.263 151.885C714.373 152.69 709.833 154.923 706.218 158.302C702.603 161.681 700.076 166.054 698.957 170.866C697.838 175.678 698.178 180.713 699.933 185.332C702.275 191.498 706.972 196.489 712.996 199.214C719.019 201.939 725.881 202.176 732.08 199.874Z" fill="white"/>
<path d="M641.797 186.396C641.797 186.396 591.5 280.98 683.552 288.783C683.552 288.783 741.204 295.285 830.884 222.456C830.884 222.456 791.026 505.379 314.275 509.044C314.275 509.044 682.01 449.929 768.25 288.783C768.25 288.783 642.746 372.253 603.481 279.206C603.481 279.206 584.857 235.107 641.797 186.396Z" fill="white"/>
</svg>
