<?xml version="1.0" encoding="UTF-8" standalone="no"?>
<!DOCTYPE svg PUBLIC "-//W3C//DTD SVG 1.1//EN" "http://www.w3.org/Graphics/SVG/1.1/DTD/svg11.dtd">
<svg width="100%" height="100%" viewBox="0 0 1433 1229" version="1.1" xmlns="http://www.w3.org/2000/svg" xmlns:xlink="http://www.w3.org/1999/xlink" xml:space="preserve" xmlns:serif="http://www.serif.com/" style="fill-rule:evenodd;clip-rule:evenodd;stroke-linejoin:round;stroke-miterlimit:2;">
    <g transform="matrix(1,0,0,1,-0.933333,-1.82915)">
        <g transform="matrix(4.16667,0,0,4.16667,0,0)">
            <path d="M31.686,124.821C27.845,124.821 24.714,125.632 22.292,127.251C19.869,128.87 18.66,130.76 18.66,132.919C18.66,135.138 19.6,136.952 21.478,138.361C23.357,139.772 25.716,141.046 28.555,142.185C31.394,143.325 34.442,144.42 37.699,145.469C40.956,146.519 44.003,147.807 46.842,149.336C49.681,150.867 52.042,152.726 53.92,154.916C55.799,157.105 56.739,159.908 56.739,163.326C56.739,166.327 55.944,169.07 54.358,171.559C52.772,174.048 50.517,176.178 47.594,177.945C44.67,179.716 41.185,181.064 37.136,181.994C33.085,182.923 28.555,183.389 23.545,183.389C19.035,183.389 15.005,183.043 11.457,182.353C7.907,181.666 5.213,180.81 3.377,179.79C4.211,177.692 4.922,175.772 5.508,174.032C6.091,172.293 6.592,170.405 7.011,168.364L9.39,168.364C9.723,169.685 10.35,170.928 11.27,172.098C12.187,173.267 13.355,174.303 14.776,175.202C16.196,176.102 17.908,176.806 19.912,177.314C21.918,177.825 24.171,178.08 26.676,178.08C31.686,178.08 35.382,177.182 37.762,175.383C40.142,173.583 41.332,171.423 41.332,168.905C41.332,166.626 40.413,164.765 38.577,163.326C36.739,161.886 34.442,160.614 31.686,159.502C28.932,158.394 25.925,157.314 22.668,156.264C19.412,155.216 16.405,153.94 13.649,152.44C10.893,150.941 8.596,149.098 6.761,146.908C4.922,144.719 4.004,141.914 4.004,138.497C4.004,135.379 4.775,132.619 6.321,130.219C7.866,127.822 9.933,125.811 12.522,124.193C15.109,122.573 18.097,121.344 21.478,120.503C24.859,119.665 28.431,119.244 32.188,119.244C36.697,119.244 40.643,119.634 44.024,120.413C47.407,121.194 50.308,122.273 52.731,123.652C51.979,125.033 51.331,126.367 50.789,127.656C50.245,128.946 49.556,130.58 48.722,132.56L46.842,132.56C44.169,127.401 39.118,124.821 31.686,124.821Z" style="fill:rgb(13,94,171);fill-rule:nonzero;"/>
        </g>
        <g transform="matrix(4.16667,0,0,4.16667,0,0)">
            <path d="M94.475,137.327C92.313,140.926 90.277,144.479 88.367,147.988C86.455,151.496 84.585,155.081 82.758,158.739L105.57,158.739C103.742,155.081 101.935,151.496 100.148,147.988C98.359,144.479 96.47,140.926 94.475,137.327ZM138.605,182.218C136.61,182.098 134.719,182.04 132.932,182.04L122.337,182.04C120.549,182.04 118.784,182.098 117.039,182.218C115.709,179.282 114.337,176.281 112.926,173.223C111.512,170.163 110.016,167.106 108.438,164.045C105.777,163.986 103.118,163.942 100.459,163.912C97.798,163.881 95.14,163.866 92.481,163.866C90.318,163.866 88.159,163.881 86,163.912C83.837,163.942 81.676,163.986 79.517,164.045C77.854,167.106 76.316,170.163 74.904,173.223C73.49,176.281 72.202,179.282 71.04,182.218C70.043,182.098 69.065,182.04 68.11,182.04L62.189,182.04C61.192,182.04 60.11,182.098 58.948,182.218C59.946,180.66 61.274,178.502 62.938,175.742C64.599,172.983 66.428,169.864 68.423,166.385C70.417,162.907 72.556,159.174 74.842,155.184C77.127,151.197 79.411,147.164 81.697,143.085C83.982,139.007 86.226,134.987 88.429,131.029C90.631,127.07 92.647,123.382 94.475,119.963C95.305,120.084 96.096,120.189 96.845,120.278C97.592,120.368 98.381,120.413 99.212,120.413C100.042,120.413 100.834,120.368 101.582,120.278C102.33,120.189 103.118,120.084 103.95,119.963C106.608,125.063 109.454,130.52 112.489,136.337C115.521,142.156 118.576,147.868 121.651,153.476C124.725,159.084 127.717,164.405 130.626,169.443C133.534,174.481 136.193,178.742 138.605,182.218Z" style="fill:rgb(13,94,171);fill-rule:nonzero;"/>
        </g>
        <g transform="matrix(4.16667,0,0,4.16667,0,0)">
            <path d="M150.709,132.064C150.545,128.195 150.302,124.313 149.978,120.413C153.634,120.474 157.249,120.564 160.826,120.684C164.4,120.803 168.017,120.863 171.674,120.863C177.686,120.863 183.028,120.818 187.702,120.728C192.374,120.638 195.522,120.535 197.148,120.413C196.822,121.373 196.661,122.633 196.661,124.193C196.661,125.152 196.701,125.901 196.783,126.441C196.862,126.981 196.984,127.581 197.148,128.241C194.791,128.121 192.212,128.001 189.409,127.881C186.605,127.761 183.881,127.641 181.242,127.522C178.601,127.401 176.223,127.312 174.111,127.251C171.997,127.192 170.495,127.161 169.602,127.161C169.276,130.46 169.092,133.728 169.052,136.967C169.011,140.206 168.992,143.476 168.992,146.773C174.272,146.714 179.048,146.625 183.314,146.503C187.58,146.383 192.029,146.233 196.661,146.054C196.417,147.074 196.254,147.853 196.173,148.392C196.091,148.933 196.051,149.504 196.051,150.102C196.051,150.584 196.112,151.077 196.234,151.586C196.355,152.097 196.498,152.832 196.661,153.79C187.397,153.252 178.174,152.981 168.992,152.981L168.992,157.57C168.992,162.547 169.072,166.97 169.235,170.839C169.398,174.707 169.641,178.502 169.967,182.218C168.584,182.098 167.082,182.04 165.457,182.04L154.487,182.04C152.86,182.04 151.358,182.098 149.978,182.218C150.302,178.502 150.545,174.707 150.709,170.839C150.871,166.97 150.953,162.547 150.953,157.57L150.953,145.334C150.953,140.356 150.871,135.932 150.709,132.064Z" style="fill:rgb(13,94,171);fill-rule:nonzero;"/>
        </g>
        <g transform="matrix(4.16667,0,0,4.16667,0,0)">
            <path d="M248.286,153.629C248.095,148.62 247.218,144.611 245.652,141.605C244.088,138.599 241.453,137.096 237.753,137.096C235.665,137.096 233.911,137.597 232.487,138.599C231.063,139.6 229.925,140.887 229.07,142.458C228.217,144.026 227.576,145.797 227.15,147.767C226.723,149.739 226.46,151.693 226.366,153.629L248.286,153.629ZM226.366,158.137C226.366,160.81 226.745,163.316 227.506,165.654C228.264,167.992 229.426,170.012 230.992,171.715C232.558,173.419 234.551,174.755 236.971,175.723C239.39,176.692 242.213,177.175 245.438,177.175C251.986,177.175 257.821,175.673 262.946,172.667L264.653,173.568L261.522,179.179C259.151,180.45 256.303,181.47 252.983,182.234C249.661,183.003 245.297,183.389 239.889,183.389C235.236,183.389 230.825,182.937 226.651,182.036C222.476,181.134 218.798,179.648 215.62,177.576C212.44,175.506 209.926,172.885 208.077,169.71C206.227,166.54 205.301,162.748 205.301,158.339C205.301,153.998 206.131,150.223 207.792,147.016C209.45,143.81 211.753,141.137 214.695,139C217.636,136.862 221.123,135.259 225.157,134.19C229.188,133.124 233.577,132.587 238.322,132.587C247.716,132.587 254.903,134.525 259.887,138.398C264.868,142.274 267.359,147.752 267.359,154.831L267.359,156.936C267.359,157.538 267.309,157.938 267.217,158.137L226.366,158.137Z" style="fill:rgb(13,94,171);fill-rule:nonzero;"/>
        </g>
        <g transform="matrix(4.16667,0,0,4.16667,0,0)">
            <path d="M296.65,159.359C296.65,162.734 296.983,165.582 297.652,167.898C298.319,170.216 299.23,172.087 300.377,173.509C301.523,174.933 302.836,175.958 304.316,176.587C305.797,177.217 307.35,177.53 308.975,177.53C312.892,177.53 316.117,175.992 318.65,172.913C321.18,169.834 323.731,164.741 323.731,157.591C323.731,151.435 321.702,146.501 319.315,143.687C316.926,140.875 313.419,139.894 309.692,139.894C308.163,139.894 306.634,140.193 305.105,140.788C303.578,141.384 302.19,142.427 300.951,143.917C299.706,145.405 298.678,147.408 297.868,149.924C297.056,152.441 296.65,155.584 296.65,159.359ZM341.654,148.036C341.654,154.526 341.748,160.485 341.941,165.912C342.131,171.34 342.417,176.735 342.8,182.098C341.558,181.965 339.981,181.9 338.07,181.9L326.533,181.9C324.764,181.9 323.402,181.965 322.447,182.098C322.543,181.965 322.638,181.537 322.735,180.808C322.829,180.08 322.95,179.253 323.093,178.324C323.237,177.397 323.356,176.538 323.452,175.743C323.545,174.949 323.596,174.451 323.596,174.253L323.308,174.055C321.492,177.034 319.009,179.336 315.854,180.956C312.702,182.579 308.354,183.39 302.813,183.39C297.94,183.39 293.784,182.745 290.344,181.452C286.903,180.162 284.084,178.358 281.888,176.041C279.688,173.724 278.063,171.011 277.014,167.898C275.962,164.787 275.437,161.443 275.437,157.869C275.437,154.293 276.154,151.002 277.588,147.988C279.021,144.976 280.978,142.361 283.464,140.143C285.948,137.925 288.886,136.187 292.279,134.93C295.67,133.673 299.277,133.043 303.099,133.043C307.399,133.043 311.244,133.739 314.638,135.127C318.027,136.519 320.537,138.273 322.162,140.39L322.447,140.39C322.447,134.432 322.353,128.822 322.162,123.56C321.969,118.296 322.336,124.211 321.954,118.585C323.196,118.718 341.919,118.585 341.919,118.585C341.726,124.014 341.654,135.096 341.654,141.582L341.654,148.036Z" style="fill:rgb(13,94,171);fill-rule:nonzero;"/>
        </g>
        <g transform="matrix(4.16667,0,0,4.16667,0,0)">
            <path d="M226.772,78.832C234.978,48.78 264.082,29.4 296.938,29.227C265.484,11.441 222.027,0.439 174.024,0.439C78.036,0.439 0.224,44.427 0.224,98.689L224.665,98.689C224.315,92.114 224.968,85.439 226.772,78.832Z" style="fill:rgb(13,94,171);fill-rule:nonzero;"/>
        </g>
        <g transform="matrix(4.16667,0,0,4.16667,0,0)">
            <path d="M239.566,78.325L344.075,78.325C337.721,61.283 323.554,45.872 303.79,33.34C268.912,37.432 242.193,55.465 239.566,78.325Z" style="fill:rgb(13,94,171);fill-rule:nonzero;"/>
        </g>
        <g transform="matrix(4.16667,0,0,4.16667,0,0)">
            <path d="M117.527,216.815C109.322,246.866 80.217,266.247 47.362,266.418C78.815,284.206 122.272,295.207 170.276,295.207C266.264,295.207 344.075,251.219 344.075,196.957L119.635,196.957C119.984,203.532 119.332,210.208 117.527,216.815Z" style="fill:rgb(13,94,171);fill-rule:nonzero;"/>
        </g>
        <g transform="matrix(4.16667,0,0,4.16667,0,0)">
            <path d="M104.733,217.321L0.224,217.321C6.579,234.363 20.746,249.774 40.509,262.306C75.387,258.214 102.106,240.18 104.733,217.321Z" style="fill:rgb(13,94,171);fill-rule:nonzero;"/>
        </g>
    </g>
</svg>
