<svg width="81" height="80" viewBox="0 0 81 80" fill="none" xmlns="http://www.w3.org/2000/svg">
<ellipse cx="40.4517" cy="39.9517" rx="33.9517" ry="33.9517" fill="white"/>
<path d="M22.0788 59.5248L20.0816 65.9157C33.5025 76.1414 48.8407 72.5728 54.8321 69.5103C52.2758 67.593 49.7727 63.3857 48.8407 61.5217C48.5211 58.9653 46.8435 57.7937 46.0446 57.5274C44.7665 57.5274 43.1155 56.7285 42.4498 56.3291C41.1716 55.6896 40.5857 54.4649 40.4526 53.9325L37.2571 51.5359C38.1892 52.2016 39.494 53.0537 37.2571 51.1365C35.0203 49.2192 35.7926 47.6747 36.4583 47.1421L41.6509 43.9467C41.0118 42.029 43.5149 41.0174 44.8463 40.7512C46.4441 40.7512 47.6424 39.4198 48.0418 38.7541C47.7222 36.5173 51.1041 35.6918 52.835 35.5586C54.7522 35.2391 55.7641 34.0941 56.0304 33.5615L59.6253 27.9694C60.9035 26.3714 59.8916 24.1081 59.2259 23.1763C58.2672 20.9394 54.5658 21.7117 52.835 22.3774C50.2786 22.6969 49.3732 25.9723 49.2401 27.5701C47.9619 29.1678 46.8435 28.2358 46.4441 27.5701C45.805 22.4574 41.3846 21.7117 39.2543 21.978C36.3784 21.978 36.192 20.3805 36.4583 19.5818L37.2571 14.3888C36.9376 13.4301 37.9229 9.19616 38.4554 7.199C26.6323 8.15764 18.3507 15.0545 15.6878 18.3831L16.4867 21.978C16.4867 23.8949 18.0844 23.5756 18.8833 23.1763L24.8748 19.5818C26.4725 18.6231 27.1382 19.1823 27.2714 19.5818C29.1886 23.7358 27.0051 27.171 25.6736 28.3692C23.4368 28.05 22.8776 29.3014 22.8776 29.967C22.8776 31.2452 22.0788 31.831 21.6793 31.9641C19.762 32.2837 17.9513 29.9668 17.2856 28.7684C17.2856 27.1706 15.4216 27.3038 14.4896 27.5701L9.29694 29.5672C8.01876 32.1236 7.69922 37.5559 7.69922 39.9524C11.2941 38.7541 12.8918 37.9557 17.2856 36.7574C21.6793 35.5591 26.0731 45.1455 24.8748 46.3438C23.9161 47.3024 24.4753 48.8735 24.8748 49.5392C27.1382 51.4032 31.3456 55.5307 30.0674 57.1284C28.4697 59.1256 27.2714 58.3265 24.8748 57.9271C22.9575 57.6076 22.2119 58.8591 22.0788 59.5248Z" fill="#EEF2F6"/>
<path d="M64.8166 30.7644C67.0534 30.4448 70.2755 29.2998 71.6069 28.7672C77.0392 46.0226 68.5446 58.8577 63.6183 63.1183L62.0206 59.5234C60.7424 57.9257 61.7543 56.4611 62.42 55.9285L65.216 52.7331C66.8138 51.4549 66.9469 48.4725 66.8138 47.141L65.6155 42.3479V41.9484C65.6155 40.6703 64.5503 40.0844 64.0178 39.9513C62.1005 39.6317 60.556 37.9541 60.0234 37.1553C60.0234 33.3207 63.2189 31.2969 64.8166 30.7644Z" fill="#EEF2F6"/>
<path fill-rule="evenodd" clip-rule="evenodd" d="M21.195 65.4275L22.6398 60.7311C23.0424 59.4891 23.4793 59.1178 23.6946 59.0117C23.9224 58.9274 24.7462 59.0398 25.2923 59.1147C27.0773 59.3581 29.7703 59.7294 31.084 57.442C32.1419 55.604 29.8234 52.8985 26.9181 49.806C26.5749 49.4377 26.2722 49.1194 26.0818 48.901C25.4327 48.0304 25.5014 47.6746 25.6543 46.8976C25.8478 45.9053 26.113 44.5416 24.9771 42.1419C23.6446 39.3272 22.0438 36.5031 18.4427 35.6199C16.639 35.1768 14.6605 35.3984 12.5604 36.2721L8.60043 38.3973C8.72838 35.8447 9.15589 33.3731 9.85177 31.014L14.6762 28.6018C15.4813 28.1993 15.8214 28.2399 15.9088 28.2586C16.0149 28.3678 16.1897 28.7516 16.3051 29.0106C16.6671 29.8064 17.1602 30.8924 18.3116 31.6194C19.2665 32.2248 21.0453 33.1297 22.3809 32.5525C24.2033 31.7661 23.782 30.1434 24.013 29.7846C24.1409 29.5849 24.2002 29.5537 24.7962 29.5224C25.3985 29.4912 26.3097 29.4413 27.1211 28.6455C27.895 27.8904 28.4286 26.5953 28.8031 24.5701C28.9404 23.8305 29.5458 20.0796 28.0167 18.8438C26.4346 17.5612 23.9381 19.0529 23.1143 19.5428C22.1002 20.1482 18.8235 22.3825 18.0247 22.2702C17.8 22.2296 17.5847 22.0018 17.3974 21.5962L16.998 18.4007C22.2062 12.7401 29.4275 8.95816 37.516 8.20243C36.6859 10.0997 36.2428 12.2529 36.1961 14.6277L35.4814 19.6393C35.4752 19.6767 35.4721 19.711 35.4721 19.7485C35.4034 21.6021 36.5331 22.7817 38.5739 22.9876C38.6207 22.9908 38.6675 22.9939 38.7143 22.9908C43.6604 22.8067 44.6215 24.6478 44.9055 26.4702C44.9118 26.5077 44.918 26.542 44.9305 26.5794C45.3143 28.0024 45.8479 28.8512 46.6094 29.2538C47.1243 29.5253 47.7016 29.5596 48.2883 29.3536C51.0687 28.38 50.7067 25.3281 51.3714 24.5292C51.5399 24.3264 51.9019 24.1173 52.6321 23.7179C54.2392 22.8379 57.1101 22.2762 58.3209 23.5026C60.0777 25.2845 59.4474 26.6325 57.6967 29.0822C56.7606 30.3897 55.3157 33.0516 54.2891 33.7755C52.3762 35.1236 50.716 34.2904 48.875 35.5979C48.0168 36.2064 47.4302 37.1051 47.1306 38.2691C46.9309 38.6342 46.5814 38.9306 46.0665 39.1772C44.603 39.8762 42.7774 39.4299 41.3326 41.399C40.5587 42.4506 40.5088 43.1371 40.5649 43.6895C40.4089 43.7924 40.0844 43.9765 39.4259 44.2792C37.7814 45.0344 34.3581 46.6072 34.7607 49.0755C35.0572 50.8917 37.3196 52.3427 38.805 53.5317C40.618 54.9827 39.8004 55.5195 41.3795 56.983C43.7386 59.1643 45.0804 57.9972 46.2725 58.4902C46.8529 58.7274 47.3428 60.0848 47.7766 61.2831C48.1823 62.4034 48.6036 63.5643 49.2589 64.5316C50.3511 66.1418 51.6617 67.7053 53.2501 69.278C42.6124 73.9338 30.3444 72.3894 21.195 65.4275ZM8.57217 40.7498C8.78749 50.0118 12.9628 58.312 19.4727 64.0167L20.6741 60.116C20.6741 60.1098 20.6772 60.1067 20.6772 60.1004C21.1702 58.5807 21.8599 57.6164 22.7898 57.1577C23.5293 56.7926 24.4749 56.9206 25.5733 57.0703C27.3739 57.3169 28.6939 57.4167 29.2805 56.4431C29.2837 56.3464 29.24 55.7722 28.1135 54.293C27.2865 53.204 26.2068 52.0556 25.4173 51.213L24.4593 50.1614C23.2361 48.5419 23.4452 47.4559 23.6323 46.4948C23.7946 45.6616 23.9631 44.8034 23.1143 43.0153C21.9473 40.5501 20.674 38.2814 17.9498 37.6137C16.5955 37.2798 15.0633 37.4608 13.397 38.1473L8.57217 40.7498ZM15.3687 22.0013L15.1877 20.5471C13.3934 22.8751 11.9142 25.4526 10.8127 28.2237L13.7554 26.7508C14.963 26.1485 15.9367 26.0237 16.7355 26.3638C18.2116 26.9942 18.0805 29.0319 19.4099 29.8713C20.4584 30.536 21.3321 30.7514 21.5568 30.6546C21.8158 30.5422 21.8158 30.5423 21.8564 30.0835C21.8907 29.7028 21.9407 29.1817 22.2683 28.6668C22.9861 27.5466 24.0034 27.4935 24.6774 27.4561C25.1891 27.428 25.4232 27.4061 25.6697 27.1659C25.9724 26.8663 26.4124 26.108 26.7682 24.1857C27.1364 22.1979 26.9273 20.7219 26.7026 20.4286C26.5466 20.3287 25.832 20.31 24.1656 21.3055C23.9628 21.4272 23.6819 21.6082 23.3574 21.8172C21.0201 23.3182 18.9761 24.5383 17.6437 24.2919C16.9759 24.1671 16.0522 23.7177 15.4406 22.2729C15.4063 22.1887 15.3812 22.098 15.3687 22.0013ZM70.1939 28.23C65.4975 16.4284 53.9578 8.06187 40.505 8.06187C40.2959 8.06187 40.0837 8.06499 39.8746 8.07123C38.8417 9.94983 38.2956 12.1841 38.2551 14.7274C38.2551 14.771 38.252 14.8147 38.2457 14.8553L37.528 19.8731C37.5155 20.3786 37.6216 20.8031 38.7107 20.9247C40.9544 20.8467 42.6832 21.1432 43.9938 21.8266C45.6165 22.6723 46.6057 24.1077 46.9303 26.0892C47.2142 27.119 47.4951 27.3749 47.5544 27.4186C47.5638 27.4155 47.5794 27.4124 47.6012 27.4061C48.4313 27.1159 48.6154 26.5168 48.918 25.2998C49.4267 23.262 49.7731 22.925 51.6391 21.9077C53.6487 20.8093 57.6368 19.8762 59.7835 22.0544C62.9509 25.2654 60.7946 28.283 59.3685 30.2803C58.2077 31.9029 56.9657 34.4057 55.4709 35.4604C53.1305 37.1143 51.28 36.4153 50.063 37.2797C49.5887 37.6167 49.2735 38.1378 49.0988 38.8712C49.0832 38.9398 49.0582 39.0085 49.027 39.074C48.6307 39.9103 47.9317 40.5719 46.9487 41.0399C45.195 41.8763 43.8593 41.4331 42.9856 42.619C42.5675 43.1869 42.5924 43.3679 42.6174 43.5583C42.7859 44.8533 41.9933 45.3651 40.277 46.1546C36.991 47.6649 36.7414 48.4731 36.7882 48.7478C36.9348 49.6434 39.1754 51.2005 40.0835 51.9276C42.2928 53.6907 41.6719 54.4584 42.7703 55.4726C44.5022 57.0734 45.0733 55.7722 47.0486 56.5866C49.3172 57.5197 49.5544 61.3017 50.9586 63.3769C52.0914 65.0496 53.4926 66.6754 55.2244 68.3293C57.8363 66.9656 60.2391 65.2492 62.3674 63.249L60.9725 60.1783C60.2204 59.136 59.9645 58.0782 60.2048 57.0359C60.7665 54.6268 64.4207 52.8668 65.3662 50.4203C66.1963 48.2703 65.594 45.6553 65.0104 43.1276C64.8763 42.5347 64.7327 41.9262 64.6141 41.3333C64.3302 40.9838 63.9744 40.7372 63.5406 40.5812C62.0989 40.057 60.2016 39.6294 59.4027 37.9693C58.9627 37.0519 58.9784 35.9347 59.4496 34.6491C59.4589 34.6241 59.4683 34.6023 59.4776 34.5804C61.3468 30.4363 63.8652 29.8434 66.7828 29.16C67.9998 28.8792 68.9738 28.6263 70.1939 28.23ZM63.9247 61.6887C63.7468 61.3018 62.8418 59.2391 62.6951 59.0394C62.0585 58.1906 62.1771 57.6757 62.2177 57.5072C62.5609 56.0468 66.1871 54.0308 67.2917 51.1693C68.5992 47.7866 67.2324 44.0326 66.5959 40.7186C66.5678 40.575 66.5116 40.4377 66.4273 40.316C65.6503 39.2114 64.8203 38.8369 63.6376 38.4405C62.6764 38.1191 61.5873 37.754 61.2628 37.08C61.0755 36.6899 61.1099 36.122 61.3751 35.3949C62.8199 32.2088 64.4925 31.8156 67.2543 31.1665C68.5337 30.8638 69.5947 30.5892 70.8866 30.1648C74.494 41.277 71.7073 53.2879 63.9247 61.6887ZM74.5 40.0012C74.5 21.2119 59.2873 6 40.5012 6C21.7119 6 6.5 21.2096 6.5 40.0012C6.5 58.7905 21.7127 74 40.5012 74C49.4884 74 57.9388 70.5362 64.3393 64.2419L64.5421 64.0422C70.9642 57.6201 74.5 49.0819 74.5 40.0012Z" fill="#003078"/>
</svg>
