<svg width="80" height="80" viewBox="0 0 80 80" fill="none" xmlns="http://www.w3.org/2000/svg">
<path fill-rule="evenodd" clip-rule="evenodd" d="M16.3514 35.6729C16.8317 35.1806 17.6541 35.3088 17.9617 35.924L21.1094 42.2194C21.2502 42.501 21.2502 42.8323 21.1094 43.1139L20.3584 44.6158C20.1488 45.0351 19.6762 45.2524 19.2215 45.1388L15.0326 44.0916C14.7966 44.0325 14.5901 43.8895 14.452 43.6892L12.4668 40.8113C12.1954 40.4179 12.2404 39.8874 12.5741 39.5452L16.3514 35.6729Z" fill="#EEF2F6" stroke="#003078" stroke-width="2" stroke-linecap="round" stroke-linejoin="round"/>
<path fill-rule="evenodd" clip-rule="evenodd" d="M25.737 73.0498C25.5539 73.7821 26.2173 74.4455 26.9496 74.2624L35.9994 72L61.5553 66.8888C62.1451 66.7709 62.4981 66.1626 62.3078 65.592L61.4412 62.9922C61.3709 62.7812 61.2323 62.5997 61.0472 62.4763L58.3477 60.6766C57.8226 60.3266 57.749 59.5837 58.1953 59.1375L61.1061 56.2266C61.2535 56.0792 61.3512 55.8895 61.3854 55.6839L62.5017 48.9864C62.5925 48.4416 62.2244 47.9264 61.6797 47.8356L55.1018 46.7393C54.8243 46.693 54.579 46.532 54.4263 46.2956L42.8096 28.3171C42.6775 28.1127 42.6245 27.8672 42.6605 27.6266L43.9424 19.0482C43.9791 18.8027 43.9231 18.5523 43.7854 18.3457L41.6296 15.112C41.4441 14.8338 41.1319 14.6667 40.7976 14.6667H35.0989C34.3216 14.6667 33.8415 13.8187 34.2414 13.1522L36.8422 8.81763C37.1168 8.35991 36.9835 7.76718 36.5394 7.47109L34.07 5.82486C33.6492 5.54432 33.0852 5.62213 32.7561 6.00612L25.4954 14.4769C25.3886 14.6015 25.3141 14.7505 25.2785 14.9107L22.7484 26.296C22.6954 26.5348 22.7317 26.7848 22.8505 26.9986L28.9901 38.0499C29.1955 38.4197 29.6114 38.6202 30.0287 38.5507L35.6944 37.6064C36.4378 37.4825 37.0458 38.1941 36.8075 38.909L36.1048 41.0171C36.0364 41.2224 36.0364 41.4443 36.1048 41.6496L38.4124 48.5723C38.5606 49.017 38.3801 49.5049 37.9782 49.746L32.338 53.1302C32.1204 53.2607 31.9606 53.469 31.8909 53.713L29.6404 61.5897C29.4764 62.1637 29.8487 62.7527 30.4376 62.8508L34.2994 63.4944C35.2547 63.6537 35.4484 64.9421 34.5822 65.3753L27.0774 69.1276C26.8163 69.2582 26.6253 69.4963 26.5545 69.7795L25.737 73.0498Z" fill="#EEF2F6" stroke="#003078" stroke-width="2" stroke-linecap="round" stroke-linejoin="round"/>
<path d="M54 20H40" stroke="#003078" stroke-width="2" stroke-linecap="round"/>
<path d="M61.334 20H59.334" stroke="#003078" stroke-width="2" stroke-linecap="round"/>
<path d="M18.6667 66.6667H16" stroke="#003078" stroke-width="2" stroke-linecap="round"/>
<path d="M67.3327 37.3333H63.3327" stroke="#003078" stroke-width="2" stroke-linecap="round"/>
<path d="M14.6673 27.3333H6.66732" stroke="#003078" stroke-width="2" stroke-linecap="round"/>
<path fill-rule="evenodd" clip-rule="evenodd" d="M58.6667 45.3333L69.3333 50.6667V64L61.5346 67.8993L59.1139 69.1097C58.8324 69.2505 58.501 69.2505 58.2195 69.1097L48 64V50.6667L58.6667 45.3333Z" fill="white" stroke="#003078" stroke-width="2" stroke-linecap="round" stroke-linejoin="round"/>
<path d="M69.3333 50.6667L58.6667 56L48 50.6667" stroke="#003078" stroke-width="2" stroke-linecap="round" stroke-linejoin="round"/>
<path d="M58.6667 56V68" stroke="#003078" stroke-width="2" stroke-linecap="round" stroke-linejoin="round"/>
</svg>
