<svg xmlns="http://www.w3.org/2000/svg" width="283" height="21" style="background:#fff">
  <g fill="none" fill-rule="evenodd">
    <path fill="#FFF" d="M0 0h283v21H0z"/>
    <path fill="#000" d="M20.348 16.257s-.284.255-.536.226c-.095-.012-.312-.059-.35-.297-.046-.288-.459-.043-.582.1-.113.273-.038.885-.038.885s.293-.376.542-.284c.248.092.29.152.456.014.165-.138.366-.255.508-.205.008-.12 0-.44 0-.44zm-.003.914c-.004-.14.005-.24-.004-.264-.012-.031-.153-.047-.298.083-.091.081-.217.193-.368.2-.086.004-.188-.092-.278-.081-.204.025-.425.311-.568.597.04-.016.08-.037.11-.05.072-.032.096-.04.168-.076.196-.097.302-.164.433-.225a.885.885 0 01.32-.073h.431c.044 0 .054-.072.054-.111zm-1.771.57a34.85 34.85 0 01-.812-1.162c-.037-.063-.147-.048-.079.116.147.348.39.89.548 1.241.027.06.059.057.195.007.095-.036.236-.092.148-.201zm-.455.147a38.475 38.475 0 00-.514-1.203c-.027-.057-.075-.046-.057.021.014.074.024.15.043.222.08.317.16.635.25.95.053.185.061.25.14.225.034-.01.14-.04.16-.088.013-.032-.002-.079-.022-.127zm-.299.215a8.891 8.891 0 00-.162-.644c-.022-.085-.094-.37-.093-.357.005.193.025.807.032 1.003.005.102.037.11.064.102.094-.03.165-.043.16-.104zm-.304-2.024c.005.067.085.108.2.119.105.01.21.013.315.014.116.001.18-.09.135-.2-.063-.15-.136-.296-.214-.461-.004-.009-.016-.021-.03-.005-.123.135-.234.254-.332.382-.042.056-.076.11-.074.15zm-.007-.283c0 .055.017.076.057.03.084-.09.162-.171.25-.275.064-.075.072-.125.04-.198a45.307 45.307 0 00-.353-.792c-.038-.088-.049.031-.047.058.01.218.044 1.052.053 1.177zm-.063 3.378c-.01-.053-.022-.115-.077-.101-.081 0-.103.047-.09.112.014.084.051.09.103.084.034-.003.068-.045.064-.095zm-.08-.608l-.69.138c.066.13.17.166.382.135.187-.028.305-.138.307-.273zm-.68-.19c.024-.051.104-.343.116-.384a.226.226 0 00.004-.14c-.047-.151-.086-.307-.134-.461-.097-.305-.192-.611-.293-.915-.013-.036-.034-.153-.099-.11-.085.047-.129.102-.129.141-.001.124.432 1.687.483 1.899.001.019.036.009.053-.03zm-.118.092c-.069-.296-.145-.59-.22-.886-.054-.216-.107-.434-.165-.65-.005-.02-.055-.243-.087-.234-.034.001-.011.228-.009.266.014.19.017.361.02.552.005.229.032.878.04.969.004.058.018.126.082.127.077 0 .178.01.256.005.112-.01.108-.038.083-.149zm-.457-2.39c.056-.02.14-.038.201-.061.043-.016.002-.125-.016-.18-.043-.14-.173-.613-.227-.77-.048-.17-.068-.21-.054.102.013.267.028.64.03.858.003.05.027.067.066.052zm-.04-1.84c.05 0 .12-.01.181-.017.032-.003.116.002.063-.084-.102-.169-.21-.334-.331-.523-.03-.051-.028-.014-.026.129.001.13.011.252.018.384.005.104.01.112.095.112zm.036.645c-.006.045.23.794.263.914.028.1.072.176.17.14.07-.025.081-.02.152-.046.04-.014.094-.048.066-.097-.18-.314-.578-.887-.606-.927-.02-.028-.039-.037-.045.016zm.522 1.41s-.016.021.01.015c.065-.017.15-.047.216-.062.18-.04.192-.112.207-.145.016-.034.177-.98.18-1.005.009-.055.007-.078-.017-.025-.062.132-.169.34-.259.51l-.08.17c-.034.054.04.02.04.064 0 .072-.025.052-.089.095-.044.029-.208.383-.208.383zm.748-1.577l-.244 1.359c-.02.065.084.097.134.055.058-.048.147-.114.147-.186 0-.164-.012-1.085-.016-1.16 0-.089-.013-.116-.02-.068zm-.651 3.83c-.017.053-.017.053.025.05.11-.011.231-.04.25-.12.055-.214.326-1.661.351-1.803.02-.085-.025-.112-.049-.023-.152.502-.414 1.356-.577 1.895zm-.206-2.206c.005-.001.01-.006.018-.015a.99.99 0 00.075-.143c-.04.025-.026.015-.068.036-.121.064-.137.12-.096.227.018.044.321 1.017.381 1.221.036.115.06.057.07.022.017-.06.036-.126.045-.152.092-.28.187-.562.252-.85.028-.119-.063-.137-.119-.162-.145-.062-.272-.096-.424-.144a.265.265 0 00-.105-.002c-.06.016-.099-.022-.03-.038zm.897.444c-.004-.056-.027.02-.032.061-.032.175-.25 1.328-.29 1.55-.008.05-.014.104.016.122.042.025.13-.011.202-.028.093-.022.12-.042.121-.182.002-.128-.004-.246-.004-.371.002-.239-.012-1.005-.013-1.152zm-1.56-.308c-.086-.004-.098.132-.11.165-.036.097-.505 1.648-.544 1.756-.017.048-.033.085-.018.125.012.034.123.036.178.032.033-.001.044-.03.059-.07.019-.05.047-.131.066-.198.036-.123.07-.244.104-.368.082-.316.167-.632.247-.948.021-.087.073-.275.079-.365.002-.031.05-.127-.062-.129zm.071 2.034a5.467 5.467 0 00-.001-.296c-.01-.283-.007-.558-.01-.842 0-.092.003-.198-.002-.29.007-.087-.01-.095-.02-.053-.048.188-.244.964-.315 1.2a1.188 1.188 0 00-.04.16c-.012.08-.02.129.022.172.042.042.287.04.301.04.046 0 .064-.03.065-.09zm-.743-.224c.039-.11.438-1.426.493-1.643.02-.075.03-.17-.09-.173a7.73 7.73 0 00-.589 0c-.026 0-.028.01-.014.032.047.078.09.155.135.23.014.025.088-.017.085.046-.001.021-.048.051-.077.067-.128.07-.307.155-.441.212-.103.043-.068.108-.048.203.034.158.223.867.303 1.185.006.025.014.06.04.068.042.012.06.013.083.014.041.002.093-.166.12-.241zm-.293.198a25.445 25.445 0 00-.308-1.258c-.012-.035-.042-.027-.036.007.03.24.137 1.097.153 1.178.003.015.006.034.012.05.003.01.008.017.013.022.02.023.076.024.127.027.02 0 .043.002.04-.026zm-.249-.062a23.297 23.297 0 00-.117-1.015c-.007-.032-.008-.184-.08-.182-.014 0-.032-.002-.05.029-.02.04-.01.138-.008.164.014.283.03.552.042.838 0 .027 0 .144.01.164.014.03.053.036.087.045.022.006.049.009.082.011.038.004.037-.008.034-.054zm-.29-1.728c.007.166.057.121.105.11.075-.018.08-.034.08-.096a.533.533 0 00-.023-.142c-.009-.023-.042-.04-.057-.039a.196.196 0 00-.062.018c-.038.02-.048.062-.044.149zm.03-.228c.034 0 .053-.004.07-.003.047.003.037-.032.034-.057a9.583 9.583 0 00-.11-.69c-.014-.036-.072-.06-.072-.012a46.48 46.48 0 00.026.567c.003.09-.008.197.052.195zm.12-1.455c.02-.001.039-.005.058-.006.069-.004.095-.039.066-.099-.05-.097-.098-.162-.156-.255a4.72 4.72 0 00-.197-.294c-.01-.013-.025-.051-.024.01v.062l.015.414c.006.221.01.185.238.168zm-.283 2.796c0-.06-.005-.15-.034-.095-.007.015-.028.09-.037.12-.049.143-.084.278-.143.427-.013.033 0 .047.029.066.057.02.119.042.141.042.048 0 .047-.075.049-.128.004-.111-.003-.323-.005-.432zm-.07.653l-.309-.103c-.059.078-.049.155.039.202.12.064.216.029.27-.1zm-.362-.262c.012.036.087.056.126.068.04.013.069-.078.085-.122.038-.097.186-.606.191-.624.013-.042 0-.208-.06-.066-.007.016-.036.09-.046.11-.02.043-.092.193-.11.218l-.113.225h-.002c-.03.068-.085.144-.07.191zm-.05-.078a.666.666 0 00.058-.09l.149-.28c.05-.107.11-.232.144-.332.03-.09.033-.145-.071-.169-.067-.015-.083.042-.117.09l-.263.54c-.033.058-.072.13-.098.197-.01.026-.067.081-.015.099.045.014.167.071.213-.055zm-.286-.051c.102-.163.38-.696.38-.696s.057-.14.051-.204c-.01-.088-.231-.11-.364-.147-.038-.01-.191-.021-.214-.047-.083-.09.053-.057.067-.088.012-.027.335-.495.436-.71.05-.106.107-.21.158-.317.028-.058.023-.056.06-.152.016-.044-.015-.129-.087-.037-.09.089-.207.218-.386.378a5.656 5.656 0 01-.64.512c-.186.118-.824.457-1.066.593-.02.008-.2.128-.149.128h.475c.246.005.427 0 .674 0 .057 0 .09.025.098.096.022.205.022.298.037.501.003.045.011.121.068.145.06.025.11.049.157.063.19.06.205.047.245-.018zm-.556-.237c-.006-.099.004-.244-.011-.342-.014-.087-.003-.13-.152-.13-.177 0-.308-.011-.599-.005-.09.002.106.212.217.3.177.146.275.23.37.262.098.04.183.015.175-.085zm-.117.794a2.083 2.083 0 00-.041-.393c-.005-.026-.007-.153-.08-.214-.07-.051-.066-.045-.16-.101-.152-.091-.088.191-.008.43.049.147.07.236.14.316.038.043.093.12.132.1.035-.018.02-.058.017-.138zm-.549-.775a.836.836 0 00-.17-.318l-.018-.022c-.048-.056-.11-.156-.308-.156-.17-.002 0 0-.248 0-.146 0-.218-.02-.241.038-.018.068.168.233.205.267.209.187.532.475.678.597.357.299.146-.268.102-.406zm1.918-2.948c.001-.025-.006-.385-.006-.497 0-.042-.02-.036-.036.007-.075.173-.157.344-.22.52-.016.044-.021.12.102.107.102-.01.156.009.16-.137zm.03.942c-.004-.034 0-.1-.043-.131-.047-.029-.081.089-.1.125-.074.154-.12.263-.186.42-.014.034-.076.107-.004.143.075.037.126.047.205.068.024.006.078.027.108.018.026-.007.023-.046.023-.067v-.183c0-.066.003-.305-.004-.393zm-.093.888c.036-.064.107-.152.04-.176-.13-.05-.19-.063-.275-.09-.025-.007-.066-.028-.097-.02-.016.002-.017.018-.031.035-.047.06-.078.12-.11.17-.03.05-.089.13-.106.151-.06.076-.037.107.04.12.077.01.198.007.367-.002a.118.118 0 00.082-.044c.028-.03.057-.085.09-.144zm.107.04c0-.037-.02-.057-.04-.027-.029.04-.01.014-.038.055-.026.037-.058.072-.033.09.015.012.051-.007.091-.019.035-.01.02-.062.02-.1zm.328-1.039c-.022-.06-.072-.064-.058 0 .017.152.125.873.128.892.01.083.026.133.1.124.068-.008.197-.005.266-.007.098-.004.07-.03.023-.102a9.237 9.237 0 01-.459-.907zm.16-.42a.595.595 0 00-.13.173c-.016.033-.015.052-.006.086.018.075.252.567.344.727.04.07.094.09.13.027.083-.148.142-.258.216-.41.013-.028.003-.082-.017-.107-.117-.147-.24-.288-.36-.432-.048-.057-.087-.128-.176-.064zm.228-.044c.102.18.222.31.353.461.013.015.04.022.058-.022a20.3 20.3 0 00.337-1.033c.005-.03.03-.074-.029-.09-.06-.015-.19.082-.235.118l-.353.288c-.025.02-.056.034-.012.036.104.007.155.027.094.05-.157.058-.258.114-.213.192zm.692-.886c.09-.018.167-.054.23-.083.036-.015.07-.045.07-.083 0-.035.002-.421-.005-.53 0-.04-.023-.106-.062.003l-.26.62c-.03.059-.003.079.027.073zm-.014 1.749c-.09-.078-.163-.142-.25-.203-.022-.015-.04.013-.054.04-.064.126-.09.18-.14.282-.027.046-.037.084.044.056.128-.031.23-.052.395-.103.017-.005.052-.033.005-.072zm.057-.09c.05.023.046-.127.05-.17.009-.105.08-1.094.082-1.126.01-.156-.021-.102-.046-.032-.022.044-.31.95-.324.985-.032.074-.042.123-.008.153.04.035.209.174.246.19zm.265-.088c-.006-.217-.012-1.096-.012-1.133-.005-.19-.03-.203-.043-.06a75.5 75.5 0 01-.078 1.196c-.016.197.015.157.066.164.099.005.066-.13.067-.167zm5.133 1.466c-.093.005-1.223-.004-1.285 0-.185.013-.308.174-.412.298-.108.13-.23.25-.25.434-.004.044-.113.076-.186.122-.013-.041-.015-.057-.023-.071-.091-.178-.094-.102-.243-.038a8.778 8.778 0 01-.7.266c-.064.021-.103.068-.074.136.022.055.064.082-.04.127-.126.056-.264.084-.326.168-.052.069.002.195.005.296.025.178-.109.166-.124.17-.079.012-.173.033-.174-.23 0-.105-.117-.14-.175-.137-.237.013-.26.064-.74.066-.06 0-.092.117-.063.116l.658-.002c.002.051-.028.084-.134.086-.135.004-.224.017-.367.022-.108.004-.142.003-.137.039.006.036-.002.056.033.066.016.027.465-.023.686-.024.002.053-.015.105-.1.12-.184.015-.387.036-.65.025-.123-.005-.22.006-.216-.152.002-.1.016-.182-.051-.247a.324.324 0 00-.141-.04c-.024.001-.027-.03-.001-.032.225-.01.235.001.23-.049-.004-.053-.105-.046-.16-.046-.162 0-.301-.008-.453-.013.005-.047.023-.206-.01-.216-.1-.01-.163-.02-.258-.023-.035-.002-.14-.002-.14.037-.003.07.091.07.118.087.023.015.009.044.007.087a3.578 3.578 0 01-.436-.054 6.598 6.598 0 01-1.126-.296 10.07 10.07 0 00-.525-.175c-.06-.016-.103.03-.105.136-.01.396.043.58.216.712.121.093.354.21.559.291.18.072.369.14.56.184.446.124.728.196 1.195.247.42.036.857.034 1.298-.001.425-.058.736-.116 1.09-.201.241-.058.458-.16.687-.26.25-.108.278-.142.432-.229.074-.053.172-.034.204.02-.14.078-.395.241-.54.309-.155.07-.299.137-.458.194a3.78 3.78 0 01-.529.146c-.27.053-.545.109-.82.132-.333.03-.668.037-1.003.033a4.979 4.979 0 01-.714-.063c-.257-.036-.531-.12-.783-.187a5.753 5.753 0 01-.557-.173 8.336 8.336 0 01-.665-.295c-.139-.067-.264-.162-.411-.214l-.005-.002h-.002c-.06-.044-.315-.45-.401-.56-.088-.111-.174-.176-.252-.237-.12-.094-.671-.58-.952-.873a.258.258 0 00-.151-.08c-.053-.004-.116.002-.164-.01-.067-.021-.068-.083-.033-.08h.47c.074 0 .086-.074.088-.112.009-.17.015-.743.01-.91-.123.023-.104-.022-.248.075-.022.015-.061.036-.09.032.003-.058.003-.144.015-.29.003-.033.022-.067.124-.08.141-.016.124-.147.256-.147.002.563-.007 1.052-.014 1.297-.003.087.031.134.067.134.146 0 .328-.154.478-.24.201-.113.78-.405.974-.528a5.531 5.531 0 001.06-.92.967.967 0 00.037-.054c.056-.091-.029-.248-.151-.283l-.349-.094c-.018 0-.051-.053.074-.062a.277.277 0 00.153-.065c.092-.07.151-.238.211-.374.076-.175.149-.311.203-.472a.39.39 0 00.021-.134c.003-.054 0-.1-.003-.152-.004-.12-.086-.105-.14-.063-.176.136-.344.187-.459.094.16-.013.201-.147.312-.249.096-.088.19-.193.367-.212 0 .15.007.223.003.34a.886.886 0 00.142.552c.127.185.242.392.384.564.092.11.157.089.275 0l.224-.184c.135-.088.231-.21.052-.24-.061-.01-.072.002-.072-.024 0-.02.08-.022.096-.027.08-.018.089-.046.118-.085.089-.116.154-.284.225-.44.056-.125.196-.48.203-.494.028-.06-.033-.052-.086.024-.078.114-.156.137-.255.138-.192.003-.223-.144-.26-.191.273.23.262-.082.377-.183.08-.07.223-.053.303-.123-.005.095-.007.09-.007.15-.002.061-.007.129.016.176.084.169.193.349.302.516.07.11.152.263.333.24.087-.01.113.033.07.054-.17.055-.181.238-.379.289-.075.019-.173.021-.155.099.027.124.582.972.655 1.067.046.058.068-.013.097-.073.113-.232.239-.462.326-.704.088-.242.17-.472.188-.729.002-.04 0-.073 0-.097 0-.035-.056-.025-.102-.018-.17.025-.235.085-.392.033-.034-.01-.155-.054-.19-.153.054.04.228.05.312-.015.16-.125.189-.169.415-.107.004.05.005.181 0 .256-.007.175.071.322.15.48.115.227.238.507.344.74.04.089.096.181.1.191.067.144.215.437.29.6.023.052.057.128.189.13.049-.003.106.056-.073.057-.138 0-.209.074-.35.123-.166.059-.297.07-.191.222.1.143.24.342.334.489.013.02.317.413.323.421.06.09.11.179.168.193a.098.098 0 00.045-.002c-.065-.298-.065-1.399.05-1.543.116-.146.493-.338.662-.271.118.047.174.155.186.28.007.066.002.117.083.165.178.103.597-.185.597-.25 0-.076.001-.187.006-.259h.057c0 .09.002 1.123-.001 1.32-.002.049-.02.111.06.111h.584c.085 0 .028.08-.01.139zm-1.382 1.656c.117.019.198.028.314.044.02 0 .038-.02.038-.064-.12-.014-.267-.042-.386-.056 0 .048 0 .07.034.076zm-5.353-.227c-.067-.013-.125-.02-.18-.033-.058-.015-.114-.04-.173-.052-.024-.005-.074.002-.08.027-.014.069.117.103.135.106.109.017.217.04.298-.048zm.94.575c.117.02.332.043.332-.041l-.58-.1c-.031.08.13.12.248.14zm-1.473-.37c.19.063.406.144.622.186.009-.143-.623-.332-.622-.186zm1.491.008c-.168-.031-.395-.077-.395.02l.743.133c0-.085-.156-.117-.348-.153zm4.806-.923c-.2-.027-.355-.053-.519-.076-.128-.019-.19-.003-.205.117-.014.104-.02.207-.034.323l.146.02c0-.113-.008-.212.002-.31.004-.05-.003-.126.086-.13.14.045.154.153.142.275a.343.343 0 00.008.114c.006.024.04.072.06.076.088.018.153.03.278.048-.155-.117-.062-.197.02-.265-.06-.055-.111-.113.016-.192zm-.484-.295c-.028.005-.029.037.007.042l1.124.152c.024-.041.024-.041.042-.089-.241-.039-.72-.08-.964-.112a.827.827 0 00-.209.007zm-.216.926c.088.013.199.027.287.039.169.023.394.05.563.072.063.01.07-.017.075-.056l-.992-.135c0 .041.01.072.067.08zm-.885-.336c.157-.068.263-.113.263-.181 0-.026 0-.047-.032-.03a8.876 8.876 0 01-.709.291c.026.066.093.049.155.04.094-.014.22-.074.323-.12zm1.784.196c.134.01.233.017.283-.125.01-.032.048-.126.06-.155.073-.18-.07-.16-.289-.18-.015.152-.04.307-.054.46zm-.517-.986c-.025.004-.036.046-.004.05.312.045.748.088 1.072.134.006-.085.006-.136.003-.238a4.3 4.3 0 00-1.07.054zm-1.514 1.191c.206-.092.233-.098.442-.194.042-.02.183-.086.223-.112.069-.03.071-.077.067-.123-.351.144-.702.276-1.062.424-.035.14.254.039.33.005zm-.336.38a.284.284 0 00.157-.027c.3-.123.535-.233.825-.387.028-.014.077-.051.074-.16-.063.03-.177.1-.203.11-.277.11-.436.185-.716.282-.068.023-.12.043-.196.067-.015.052.001.098.06.115zM15.94 20.4c-.396-.011-.783-.01-1.207-.102.042.056.343.159.44.171.342.043.764.067.765.059.156.01.652-.018.78-.05-.126-.007-.339-.093-.485-.087-.051.002-.241.011-.293.009zm3.6-.892c-.046-.019-.089.009-.113.03-.3.209-.51.3-.862.444a6.84 6.84 0 01-1.287.359 6.68 6.68 0 001.123-.164c.657-.166 1.346-.418 1.997-1.287-.19.21-.706.68-.858.618zm-3.762.675a4.993 4.993 0 01-.7-.062c-.357-.078-.34-.066-.691-.158a7.976 7.976 0 01-.691-.203 2.124 2.124 0 01-.452-.21c-.155-.107-.311-.214-.441-.252.013.014.15.224.345.356.195.131.316.19.763.335.261.084.611.136.823.173.302.054.62.096 1.044.02zm2.53-.231c.32-.115.642-.227.934-.404.063-.037.137-.087.198-.125-.041-.053-.168-.11-.238-.042a2.464 2.464 0 01-.393.245c-.405.206-.841.334-1.282.433-.32.07-.83.13-1.434.123.273.064.556.102.726.086.475-.045.64-.075.987-.165.168-.047.338-.093.501-.151zm-4.808-.835c-.075-.03-.177-.08-.252-.112-.01.019-.003.06.02.082.033.033.05.04.095.063.147.064.224.103.369.162.154.057.385.136.543.175.385.097.747.17 1.13.218.411.042.82.054 1.238.035.275-.01.463-.032.703-.074a5.56 5.56 0 001.323-.428 2.52 2.52 0 00.248-.127c.088-.05.082-.109.056-.188-.097.049-.183.108-.27.153a3.216 3.216 0 01-.55.24c-.461.153-.87.277-1.358.314a7.321 7.321 0 01-3.16-.46c-.045-.018-.09-.034-.135-.053zM23.08 3.725c.024-.057.014-.177-.004-.197-.006-.004-.037-.014-.067.035-.051.08-.03.146-.038.182-.007.037-.058.076-.058.076.066 0 .146-.044.167-.096zm.347.106c.026-.025.025-.077.01-.088-.012-.01-.052.022-.052.022-.038.03-.017.067-.078.095.06.015.094-.003.12-.029zm-.167-.207c-.004-.004-.03-.01-.056.026-.042.061-.025.11-.032.138-.005.028-.048.057-.048.057.058.004.122-.033.14-.072.02-.043.015-.131-.004-.149zm-1.197 1.101l-.318-.244c-.035-.023.028-.15-.02-.148-.061.028-.097.048-.125.094-.059.105-.097.22-.156.36-.021.068.129-.112.158-.07.072.077.342.085.461.008zm.53-.505c.041.024.08.012.107-.02.128-.158.431-.08.232-.135-.166-.048-.268-.011-.326.055-.029.032-.063.069-.013.1zm-2.021-1.455c-.15-.136-.319-.25-.466-.41.378.162.706.402 1.043.63.326.22.667.42 1.038.652.052-.15.067-.171.117-.297a.98.98 0 01.102-.168c.052.03.048.108.044.145a.867.867 0 01-.032.189c-.026.08-.032.087-.058.168.097.04.188-.197.222-.282a.413.413 0 01.085-.15c.06.012.045.163.045.164-.01.085-.012.082-.038.155-.017.047-.068.13-.079.168.037.014.091.005.155-.081.077-.12.047-.166.112-.222.07.097.031.263-.089.34-.075.048-.165.076-.238.126-.07.048-.126.113-.08.236.233-.279.446-.167.809-.108-.07.002-.097.037-.139.067-.107.076-.2.182-.35.186-.07.002-.092.052-.065.087.022.027.065.04.148.025.183-.034.326-.123.464-.225.076-.055.196-.138.196-.22.042.036.046.07.046.095a.268.268 0 01.234.027.643.643 0 00-.403.15c.037.058.1.043.14.023l.06-.03c.153-.083.335-.088.434.023a.872.872 0 00-.284.06c-.059.023-.122.067-.191.114l.001.003c.031.051.078.049.115.034.045-.017.085-.038.122-.054a.33.33 0 01.408.108.454.454 0 00-.278.01c-.078.023-.137.055-.243.109.028.08.091.057.13.045l.12-.035a.331.331 0 01.393.158.823.823 0 00-.276-.018c-.088.01-.172.047-.285.083v.001c.023.074.088.061.129.053.044-.01.084-.013.122-.02.166-.029.325.064.373.203a.724.724 0 00-.257-.048 1.74 1.74 0 00-.296.04c.003.088.081.096.126.096.037 0 .075-.006.11-.008.17-.01.333.108.365.25-.102-.043-.14-.073-.24-.084a1.543 1.543 0 00-.285.001c-.008.064.032.092.068.103.04.013.086.01.124.015.168.017.326.132.333.277a.807.807 0 00-.25-.116c-.07-.02-.162-.022-.258-.027-.009.071.056.122.088.128.032.009.067.011.096.017.166.034.314.134.305.28a.779.779 0 00-.235-.138 1.532 1.532 0 00-.27-.064.15.15 0 00.072.124c.034.016.073.038.106.047.161.05.308.173.285.318a.613.613 0 00-.23-.17 1.373 1.373 0 00-.25-.092c0 .095.034.119.068.143.032.024.075.038.108.054.15.074.278.21.231.35-.044-.084-.122-.137-.202-.196-.061-.044-.151-.078-.243-.12-.017.107.043.127.077.155.029.025.066.043.095.062.14.091.245.25.18.383a.588.588 0 00-.17-.227c-.054-.05-.136-.093-.22-.144-.033.098.025.129.034.138.029.027.064.059.094.08.138.095.233.247.165.378a.546.546 0 00-.16-.222c-.05-.05-.129-.095-.21-.146-.038.113.042.165.103.212.133.101.23.258.157.386-.03-.111-.092-.157-.16-.23-.05-.054-.132-.106-.213-.164l-.005.01c-.039.115.048.157.108.203.133.102.226.268.152.396a.581.581 0 00-.154-.24 1.31 1.31 0 00-.205-.165c-.035.11.025.156.084.202.134.101.223.282.149.41a.537.537 0 00-.15-.254c-.06-.064-.182-.122-.277-.193.053-.047.02-.223.02-.223s-.313.074-.456.024c.085-.013.1-.082.067-.108-.114-.088-.251-.216-.418-.315-.057-.042-.103.015-.117.087-.022-.095-.052-.095-.12-.097.054-.06.013-.26.036-.367.01-.015-.315.082-.304.214-.036-.07-.098-.076-.167-.033 0 0 .062-.174.016-.17.092-.051.221-.188.297-.276a.798.798 0 00.186-.439c.006-.05.076-.102.129-.135.147-.095.297-.186.333-.374.008-.046.008-.093.013-.14-.003-.044-.033-.044-.039-.01-.01.03-.016.063-.033.089-.162.24-.4.354-.688.374-.125.008-.346.239-.369.383-.02.14-.223.261-.344.207-.01-.004-.028-.012-.028-.019.001-.018.005-.06.008-.075.015-.109.038-.216.058-.325.01-.045-.017-.052-.036-.037-.09.04-.177.087-.27.116-.077.024-.174.055-.239.03-.047-.019-.075-.128-.078-.195-.008-.241.096-.353.256-.507.17-.161.32-.369.362-.625a.484.484 0 01.191-.303c.143-.108.15-.182.112-.281.163.002.282-.008.214-.067-.053-.047-.175-.023-.264-.02-.056 0-.094-.031-.175-.11.106-.003.319.013.193-.07-.074-.059-.102-.036-.211-.034-.092.001-.138-.056-.207-.12.096-.008.209.009.118-.054-.04-.042-.126-.018-.195-.027a.267.267 0 01-.146-.102c.047-.006.217.023.113-.053-.021-.016-.014-.04-.206-.042-.049 0-.079-.046-.136-.09.064-.004.15-.003.094-.041-.025-.022-.055-.055-.153-.062-.046-.003-.096-.035-.173-.105zm-8.384 4.948a.48.48 0 00-.324.206c-.086.12-.064.203.077.317.093.047.21.092.3.143.127.073.23.144.352.224.127.122.363-.037.373-.235.007-.152.008-.344-.17-.374-.03-.01-.073.012-.095-.047-.019-.123-.086-.14-.181-.117-.03 0-.07-.01-.083-.03-.07-.122-.16-.103-.249-.087zm1.397.888c.07-.065.149-.15.223-.212.105-.086.203-.152.314-.23.15-.07.082-.323-.094-.393-.135-.055-.307-.116-.391.026-.018.022-.012.066-.073.066-.117-.023-.154.03-.163.119-.01.025-.03.056-.053.06-.133.021-.143.104-.158.186a.427.427 0 00.084.342c.08.111.162.12.31.036zm.15-1.674c.011.03.06.048.028.106-.087.1-.053.162.031.22.02.024.041.06.033.085-.05.138.028.193.104.253.121.095.253.123.393.109.157-.016.21-.09.206-.277-.028-.104-.073-.225-.095-.33-.03-.147-.043-.277-.064-.426.011-.181-.283-.255-.451-.126-.128.098-.285.228-.185.386zm-2.062.564a.538.538 0 00.416-.01c.091-.04.182-.075.169-.223-.002-.026.028-.057.054-.076.1-.036.148-.09.09-.21-.019-.065.034-.07.055-.097.139-.131.018-.298-.082-.427-.133-.169-.441-.17-.478.012-.059.143-.106.266-.174.405-.049.097-.125.206-.18.301-.053.185-.02.27.13.325zm1.723-.166c-.003.075-.01.112-.08.173-.02.006.016.063.038.095.024.035.057.078.129.062.138-.031.211-.256.136-.378-.032-.037-.089-.016-.131-.004-.038.01-.09.028-.092.052zm-.243.276c-.078.033-.117.041-.213.003-.014-.017-.056.043-.078.078-.023.04-.05.09 0 .151.1.119.36.088.448-.039.021-.047-.028-.092-.06-.127-.03-.032-.073-.075-.097-.066zm.116-.853c-.052.012-.058.078-.066.125-.007.041-.016.1.008.114.073.04.105.063.133.16-.005.023.07.018.111.013.047-.006.104-.017.122-.095.034-.148-.152-.329-.308-.317zm-.798.51c-.096.12-.008.36.14.414.05.01.085-.046.113-.085.026-.035.059-.085.043-.106-.048-.067-.066-.102-.05-.201.015-.018-.055-.044-.095-.057-.044-.014-.101-.028-.15.034zm1.818.709c.041.12.076.142.3.092a.626.626 0 00-.051-.157c-.058-.112-.125-.14-.343-.082.057.037.057.037.094.147zm-2.544-.124c.043-.125.07-.118.107-.166-.247-.067-.322-.034-.388.093a.722.722 0 00-.058.177c.254.057.293.033.34-.104zm2.64-1.65c.01-.049.01-.11.006-.185-.247.012-.275.046-.282.19-.005.131-.019.136-.053.188.242 0 .302-.052.329-.192zm-1.334.944c-.13-.008-.206.078-.202.18.003.058.102.15.167.16a.183.183 0 00.203-.158c.024-.137-.054-.174-.168-.182zm-.8-.953c-.049-.101-.049-.127-.039-.204.02-.152-.06-.186-.339-.2a.769.769 0 00.007.2c.03.149.098.204.372.204zm.69.53c-.154-.051-.367.116-.372.276.007.053.076.067.124.081.044.012.106.027.122.005.051-.07.08-.1.186-.116.023.007.026-.068.025-.112 0-.047-.006-.107-.085-.134zm-.04-.176c.031-.01.08.009.113.027.084.086.169.115.288.012.073-.04.102.01.14.02.216.09.37-.09.483-.237.15-.193.026-.5-.209-.471-.195-.006-.365-.008-.56-.026-.137-.012-.3-.048-.436-.068-.245.014-.335.078-.34.247a.506.506 0 00.182.411c.084.075.165.153.338.085zM8.716 3.124v.01a.038.038 0 01.025-.033.04.04 0 00-.015.008.257.257 0 00-.071-.098l.15-.022a.233.233 0 00-.037.112L8.754 3.1c.016 0 .028.01.034.024-.002-.004-.002-.008-.004-.01a.187.187 0 00.09-.075l.025.152a.186.186 0 00-.11-.043v-.012a.039.039 0 01-.023.032c.004-.001.009-.003.012-.006.014.035.042.078.076.094-.01-.002-.016 0-.024-.002.05.012.094.043.11.091l-.116.018-.018-.11a.143.143 0 00-.062.01l.019.11-.117.018c0-.05.032-.092.075-.118l-.016.006c.03-.032.033-.073.033-.11l.014.001a.04.04 0 01-.034-.024l.005.012a.18.18 0 00-.091.075l-.025-.152c.03.027.072.04.11.043zm5.382 2.13c.004.017.021.03.04.03l.012-.001c.41-.106 1.008-.167 1.639-.167.622 0 1.215.06 1.625.163a.045.045 0 00.053-.03.042.042 0 00-.031-.05c-.418-.106-1.018-.166-1.647-.166-.637 0-1.244.062-1.662.17a.04.04 0 00-.029.05zm-.844-2.578c.027.169.11.34.183.467-.004-.146.018-.326.126-.431a.506.506 0 01.375-.155c.054 0 .106.007.153.013.05-.09.181-.277.376-.28h.013c.181 0 .353.061.578.203a.638.638 0 00.353.097c.038 0 .073-.002.102-.004v-.529a1.888 1.888 0 01-.618-.123 3.106 3.106 0 01-.12-.055c-.15-.072-.334-.162-.58-.176-.33-.019-.619.215-.697.284a.788.788 0 00-.244.69zm2.81-.63v.527l.015.001c.03.002.067.005.108.005a.64.64 0 00.354-.097c.224-.142.397-.203.579-.203h.012c.195.003.325.19.377.279.045-.005.097-.012.152-.012.148 0 .266.049.375.154.108.106.13.286.126.431.073-.127.155-.299.183-.466a.784.784 0 00-.245-.689c-.078-.07-.367-.303-.697-.284-.245.014-.43.103-.579.175-.04.02-.082.04-.12.055-.168.071-.44.124-.634.124h-.007zM18.045 3.3c.018-.11.051-.404-.08-.531a.407.407 0 00-.303-.127c-.048 0-.097.006-.143.012l-.067.008-.015-.03c-.065-.123-.178-.254-.307-.256h-.013c-.159 0-.316.056-.521.187a.742.742 0 01-.41.113c-.044 0-.083-.004-.114-.006h-.009v.353h.098a.573.573 0 00-.268.336c.014.012.018.03.028.047.127-.022.3-.068.396-.185a1.762 1.762 0 000 .54c-.076-.1-.258-.176-.393-.208a.165.165 0 01-.044.062c.056.283.234.429.45.429.214 0 .459-.134.478-.331.011-.114-.064-.208-.123-.212-.066-.005-.147.106-.161.23-.077-.09-.141-.465.08-.478.121-.007.226.117.29.256-.021-.158-.036-.333-.022-.406.024-.113.186-.25.221-.33.06.17.118.271.092.394-.014.08-.084.236-.15.372.088-.115.22-.214.34-.185.215.052.076.41-.062.478.033-.062.025-.225-.08-.234-.108-.01-.161.067-.175.134-.043.207.108.374.321.422.255.058.416-.086.512-.223a.159.159 0 01-.046-.108c0-.006.006-.01.007-.016a.583.583 0 00-.285.046c.073-.123.153-.328.177-.455.03.119.12.208.224.281.015-.005.027-.018.044-.018l.006.002a.58.58 0 00-.112-.42l.139.057zm-2.268 1.356c-1.259 0-2.136.234-2.136.444s.877.444 2.136.444c1.259 0 2.136-.234 2.136-.444s-.877-.444-2.136-.444zm-2.227-1.37l.104-.043a.58.58 0 00-.108.457c.005.002.011.003.016.006.121-.074.225-.174.26-.308.025.127.104.332.178.455a.518.518 0 00-.365-.035c0 .006.006.01.006.015 0 .024-.017.041-.027.062.03.179.206.345.513.296.221-.035.392-.189.36-.396-.011-.067-.066-.184-.173-.175-.104.01-.093.187-.061.249-.137-.068-.29-.391-.09-.471.11-.045.253.036.35.14-.06-.14-.121-.3-.133-.38-.018-.124.045-.222.113-.39.032.083.187.227.204.342.01.076-.015.261-.046.422.051-.133.14-.241.266-.233.222.012.174.307.123.46-.014-.125-.1-.203-.166-.198-.058.004-.2.076-.183.189.036.23.31.303.528.285a.512.512 0 00.458-.42c-.022-.016-.033-.036-.046-.06-.133.034-.308.108-.382.205a1.828 1.828 0 000-.54c.093.115.26.161.386.184.012-.02.02-.037.038-.05a.508.508 0 00-.245-.33h.085v-.342c-.03.002-.061.005-.1.005a.742.742 0 01-.41-.112c-.206-.132-.363-.188-.522-.188h-.012c-.13.002-.243.134-.306.256l-.016.03-.066-.007c-.048-.006-.097-.013-.145-.013a.407.407 0 00-.303.127c-.123.12-.1.382-.083.506zm-.395-.598a.839.839 0 01.001-.262l-.06-.015a.147.147 0 01-.105.045.143.143 0 01-.145-.14c0-.078.065-.141.145-.141.068 0 .126.047.14.11l.056.013a.916.916 0 01.106-.22l-.043-.032a.146.146 0 01-.05.01.142.142 0 01-.145-.141c0-.077.065-.14.144-.14.08 0 .144.063.144.14a.16.16 0 01-.004.032l.036.026a.662.662 0 01.056-.057 1.38 1.38 0 01.157-.12l-.028-.046-.012.001a.142.142 0 01-.143-.14c0-.077.064-.14.143-.14.08 0 .145.063.145.14a.14.14 0 01-.02.069l.03.049c.075-.04.16-.076.253-.099l-.008-.046a.14.14 0 01-.104-.134c0-.077.065-.14.144-.14.08 0 .144.063.144.14 0 .043-.02.082-.051.107l.009.051a.793.793 0 01.112-.002c.05.004.098.01.143.017l.016-.065a.137.137 0 01-.054-.108c0-.077.065-.14.144-.14.08 0 .145.063.145.14a.14.14 0 01-.102.134l-.017.07c.099.027.185.064.263.1l.028-.057a.14.14 0 01-.03-.086c0-.077.064-.14.143-.14.08 0 .145.063.145.14 0 .075-.06.135-.135.14l-.029.062.072.032c.078.033.181.062.286.083l.01-.057a.139.139 0 01-.053-.108c0-.077.064-.14.144-.14.08 0 .144.063.144.14a.141.141 0 01-.102.134l-.01.052c.057.007.11.01.16.011v-.253h.244a.444.444 0 01-.406-.336h.875a.442.442 0 01-.406.336h.243v.243h.01c.053 0 .111-.005.171-.012l-.008-.053a.14.14 0 01-.103-.134c0-.077.065-.14.145-.14.079 0 .144.063.144.14a.138.138 0 01-.054.109l.01.056a1.494 1.494 0 00.36-.115l-.03-.062a.141.141 0 01-.135-.14c0-.076.064-.14.144-.14.08 0 .145.064.145.14a.133.133 0 01-.032.086l.028.058a1.73 1.73 0 01.263-.1l-.016-.071a.14.14 0 01-.102-.133c0-.078.065-.14.144-.14.08 0 .145.062.145.14a.14.14 0 01-.054.108l.016.065c.045-.008.093-.014.143-.017a.795.795 0 01.112.002l.01-.051a.14.14 0 01-.052-.107c0-.078.064-.14.143-.14.08 0 .145.062.145.14a.142.142 0 01-.105.134l-.008.046c.092.023.18.059.253.098l.03-.048a.131.131 0 01-.019-.07c0-.076.064-.14.144-.14.08 0 .144.064.144.14 0 .078-.064.141-.144.141h-.011l-.029.046c.074.048.128.094.157.119.02.017.038.036.058.056l.035-.026a.126.126 0 01-.004-.031c0-.078.065-.14.144-.14.08 0 .144.062.144.14a.142.142 0 01-.194.13l-.045.032c.042.065.08.139.107.22l.056-.013a.143.143 0 01.14-.11c.08 0 .144.064.144.141 0 .078-.065.14-.144.14a.146.146 0 01-.105-.044l-.06.014a.82.82 0 010 .262l.057.013a.148.148 0 01.108-.047c.08 0 .144.063.144.14 0 .078-.065.141-.144.141a.143.143 0 01-.14-.106l-.054-.012a1.579 1.579 0 01-.093.239l.055.028a.14.14 0 01.08-.024c.08 0 .145.063.145.14 0 .077-.064.14-.145.14a.142.142 0 01-.143-.14l-.054-.027c-.044.078-.086.14-.115.18l.187.078c-.077.09-.137.198-.19.314.019.027.038.055.038.09 0 .078-.06.134-.135.15-.042.124-.08.26-.117.405l.03.006a.083.083 0 01.058.102.083.083 0 01-.104.057l-.024-.004-.005.02-.003.013c.003.002.006.002.009.005.063.045.09.108.073.164-.016.047-.063.082-.128.093h-.006a1.303 1.303 0 00-.003.055c.107.062.174.132.174.21 0 .344-1.144.528-2.221.528-1.077 0-2.221-.184-2.221-.527 0-.079.066-.148.172-.21.003-.018.006-.037.006-.054-.077-.004-.136-.041-.154-.095-.019-.062.016-.131.091-.176l.008-.004-.008-.026-.046.009a.085.085 0 01-.022.003.084.084 0 01-.082-.063.082.082 0 01.009-.062.087.087 0 01.052-.039c.014-.003.028-.004.042-.008a12.584 12.584 0 00-.12-.392c-.01.003-.018.013-.03.013a.165.165 0 01-.167-.163c0-.06.04-.103.09-.131a1.138 1.138 0 00-.168-.283l.21-.087a2.097 2.097 0 01-.099-.16l-.053.027c0 .077-.065.14-.145.14A.143.143 0 0113 3.2c0-.077.065-.14.144-.14.03 0 .058.009.081.024l.055-.028a1.487 1.487 0 01-.094-.239l-.054.012a.143.143 0 01-.14.106.143.143 0 01-.144-.14c0-.077.065-.14.145-.14.042 0 .08.018.107.046l.057-.012zM15.347 1.2h.35V.867a.443.443 0 01.186 0v.334h.348a.432.432 0 00-.213-.3c-.086-.062-.147-.197-.171-.305a.104.104 0 00.038-.042c.111.028.227.085.3.176V.274a.55.55 0 01-.298.175.107.107 0 00-.04-.046.715.715 0 01.162-.31h-.451a.71.71 0 01.16.31.112.112 0 00-.04.046.55.55 0 01-.297-.175V.73a.55.55 0 01.3-.176c.01.018.02.032.039.043-.018.103-.046.213-.14.293a.438.438 0 00-.233.31zm6.428 5.159l-.22-.056c.007.166-.132.463-.178.58.848.473.942.536 1.648 1.23.091-.087.357-.278.529-.315l-.112-.194a.29.29 0 01-.105.216.266.266 0 01-.007-.202.876.876 0 01-.21.126c.072.018.124.04.164.103-.077.035-.225.085-.33-.04-.069-.081-.077-.19.004-.26.027-.022.07-.036.11 0 .039.034-.008.1-.04.115.074.014.24-.087.171-.17-.041-.051-.13-.04-.205-.015.07-.034.15-.078.182-.105.048-.042.057-.098.086-.182-.039.021-.144.027-.188.064a.936.936 0 00-.123.175c.024-.078.032-.166-.022-.202-.092-.06-.182.106-.18.164.044-.045.11-.065.134-.043.022.018.023.078-.016.119-.07.071-.207.052-.29-.01-.093-.07-.12-.193-.028-.336.046.047.111.15.11.22a.9.9 0 01.167-.211c-.084.02-.181-.025-.237-.055a.309.309 0 01.237-.068l-.288-.215c.038.086.013.163-.017.23-.044-.044-.113-.122-.113-.205a.94.94 0 01-.167.211c.069-.018.185.015.244.045-.118.124-.256.107-.341.054-.09-.056-.176-.166-.119-.266.028-.05.106-.036.13-.02.028.017.037.073.004.126.067-.045.177-.147.094-.217-.044-.037-.108-.023-.166.009a.789.789 0 00.13-.136c.028-.05.012-.15.026-.192-.08.045-.134.065-.165.12a.877.877 0 00-.06.163c-.008-.065-.037-.132-.092-.146-.103-.027-.142.144-.11.211.007-.033.057-.106.101-.079.045.028.03.09.014.119-.052.09-.166.1-.263.05-.155-.081-.161-.224-.092-.298.072.02.11.064.146.128a.853.853 0 01.071-.23.283.283 0 01-.206.044.3.3 0 01.188-.154zm3.838 2.856c.036-.156.005-.235-.042-.303-.033-.05-.083-.147-.203-.312.02.088.049.187.056.35.004.12-.012.3.018.405.069.237.269.462.269.462s-.161-.327-.098-.602zm-3.155 4.166c-.134-.094-.205-.068-.269.041-.03.052 0 .204.078.28.065.063.16.158.252.114.115-.057.15-.297-.06-.435zm1.009.326a1.369 1.369 0 01-.707-.474 1.012 1.012 0 01-.22-.717c.024-.258.027-.435.115-.77.027-.105.091-.2.121-.306.03-.104.038-.207.052-.316 0-.058-.072-.058-.084-.003-.02.092-.065.293-.09.343-.145.294-.139.384-.202.646-.03.123-.098.137-.187.103a2.237 2.237 0 01-.227-.1c-.12-.06-.263-.054-.312.039-.028.055-.02.136-.01.207.023.139.103.329.12.42.017.09.007.215-.134.231-.283.034-.568.048-.85.088-.18.026-.358.07-.517.177-.08.054-.299.138-.63.058.107-.149.195-.312.323-.435a.545.545 0 01.552-.146c.093.026.196.03.294.023.114-.007.227-.037.378-.064a1.146 1.146 0 00-.165-.497c-.143-.205-.287-.296-.461-.479-.235-.245-.238-.595-.04-.814.014-.015.103-.12.209-.164.289-.097.564-.083.844.007.152.048.327.1.476.155.132.05.17.125.222.26.017.044.057.139.105.138.073.007.02-.127.005-.162a2.731 2.731 0 00-.18-.332c-.034-.053-.098-.11-.14-.16-.14-.167-.19-.184-.335-.322-.217-.207-.406-.226-.649-.466l-.015-.014c-.087-.1-.185-.194-.278-.29-.056-.053-.05-.103.039-.091.094.02.17.104.264.122.144.028.243.036.39-.091.047-.04.105-.071.157-.107l.26-.175c.056-.022.003-.115-.107-.064a3.945 3.945 0 00-.464.249c-.108.068-.209.067-.312 0a1.977 1.977 0 00-.363-.196 4.447 4.447 0 00-.506-.174c-.138-.04-.33-.083-.478-.117-.284-.065-.585-.028-.788.143a.607.607 0 00-.105.112c-.023.032-.067.068.002.117.025.018.069.015.118-.01a.28.28 0 00-.014.109c.019.064.049.07.099.08.141.027.288-.06.53-.048-.12.214.02.217.125.215.17-.004.25-.074.493-.02-.033.027-.106.049-.144.114-.097.164-.218.233-.376.3-.037.016-.197.093-.075.2-.054.042-.16.067-.204.114-.116.122-.17.191-.33.154-.162-.037-.25.034-.232.172-.332-.13-.398-.119-.546.044-.097-.082-.138-.116-.243-.103-.045.005-.092.013-.126.057-.032.035-.044.074-.058.109-.078-.064-.185-.19-.343-.226.023.095-.011.131-.085.216-.107-.16-.266-.195-.43-.222a.772.772 0 00-.4.08.682.682 0 00-.333.48c-.012.062.002.128.091.104.074-.02.151-.032.227-.047.15-.03.292-.073.384-.227.014-.024.052-.034.075-.054a.244.244 0 01.133-.057c.086-.01.178.014.265.004.054-.006.115-.037.165-.04.016-.002.03 0 .043.005a.51.51 0 00.409-.01.23.23 0 01.084-.02c-.006.014.002.043.004.05.033.068.12.05.154.034.172-.08.35-.02.524-.044.05-.007.157-.04.197-.026-.035.048-.031.079-.012.105.02.026.05.033.11.028.127-.011.274-.01.432.032-.055.055-.068.06-.088.092-.055.089-.02.149.075.155.197.01.379.032.574.115-.089.054-.138.135-.129.203.176.098.299.227.34.441-.179-.058-.323-.09-.482-.058-.058.016-.068.04-.036.087a.566.566 0 01-.316-.048c.02.065.02.102-.03.148-.047-.027-.072-.046-.13-.053-.045-.006-.093-.01-.123.048-.038.062.036.124.061.153.12.137.215.229.334.366.176.2.167.273.086.378-.211-.424-.895-.966-1.105-.964-.03.006-.085-.002-.085.074-.043-.024-.267-.167-.365-.213-.036-.017-.138-.032-.157-.02-.043.027-.06.049-.052.097-.068-.04-.102-.073-.132-.1-.123-.11-.194-.163-.382-.16a1.78 1.78 0 00-.62.113l-.117.038-.016-.137c.121-.03.243-.058.364-.09.027-.006.066-.034.066-.052 0-.03-.021-.067-.044-.09-.03-.034-.094-.052-.104-.087-.045-.152-.155-.13-.27-.116a.572.572 0 00-.068.013l-.006-.04.006.04a.589.589 0 00-.28.159c-.079.079-.129.184-.192.278-.049.106.071.156.17.111.067-.03.133-.066.204-.085.051-.015.102-.028.154-.04l.016.136c-.064.021-.126.043-.19.074-.15.07-.255.155-.314.29-.058.007-.114-.006-.17-.014.057.008.113.021.17.014l-.011.025c-.013.032-.013.09.006.106.022.018.077.013.11 0 .084-.033.16-.086.245-.113.313-.103.629-.169.97-.169.588 0 1.053.262 1.468.606.15.125.32.32.447.497.101.14.13.23.223.374.047.072.076.179.137.204.081.035.148-.04.224-.08a2.614 2.614 0 011.228-.285.2.2 0 00.11-.037c.041-.03.014-.15.123-.089.056.03.123.062.153.11.086.14.198.273.178.457-.003.028.049.074.086.092.222.107.29.13.524.243.143.07.394.222.539.344.13.109.242.234.36.354.12.116.227.22.348.358.092.103.145.164.224.12.063-.035.021-.148-.001-.183-.098-.153-.174-.275-.296-.406a3.8 3.8 0 00-.823-.643c-.07-.04-.15-.096-.224-.093a.478.478 0 01-.423-.225c-.069-.114-.131-.309-.055-.448.012-.023.106-.177.287-.162.354.115.506.334.417.7.563.352 1.022.73 1.323 1.332.03.038.093.023.107-.015l.011-.037a.568.568 0 00.024-.154c.02-.309-.11-.603-.21-.893-.084-.24-.303-.33-.53-.39zm.815 2.258a.164.164 0 00-.227-.093c-.08.033-.133.076-.117.186.048.156.076.312.135.465.014.036.084.071.128.072.036 0 .086-.043.109-.08.11-.186.038-.374-.028-.55zm-.43.25c-.117-.376-.207-.584-.448-.919-.186-.258-.496-.63-.77-.81-.34-.223-.853-.468-1.48-.465-.13 0-.31-.002-.44.012a.953.953 0 00-.394.11c-.074.04-.08.085-.08.125.002.088.079.132.16.132.23 0 .462-.028.69-.012.633.047 1.147.176 1.625.645.273.266.416.456.57.712.155.258.177.553.221.84.018.11.019.116.03.226.012.14.227.144.292.037.101-.173.08-.453.024-.633zm-3.404-2.274c.223-.063.484-.074.69-.077h.2c.1-.003.191-.02.193-.147.001-.108-.076-.182-.185-.194a1.898 1.898 0 00-.832.092c-.18.061-.355.148-.523.238-.04.022-.103.081-.064.161.02.061.125.047.18.035.116-.024.22-.073.341-.108zm-4.62-1.785c-.057-.02-.114-.038-.168-.063l.01-.065c.014-.108 0-.202-.13-.11.016-.07.034-.086.06-.127.076-.121.214-.2.215-.362 0-.054.034-.48-.217-.325a.298.298 0 01.104-.155c.125-.112.11-.18.069-.3a1.77 1.77 0 00-.121-.26c-.09-.168-.167-.181-.252-.036a.569.569 0 01-.013-.11c.002-.07.046-.149-.017-.239-.05-.07-.073-.093-.218-.112a1.55 1.55 0 00-.422-.001c-.16.023-.313.074-.46.161-.14.086-.142.114-.054.277.021.04.033.085.044.129.026.098.049.197.075.304-.126-.006-.221.017-.207.172.006.072.01.146.015.232-.162-.04-.232.036-.254.126-.006.029-.03.109-.034.145-.01.064.038.105.065.11-.027.026-.051.053-.077.079.026-.026.051-.054.078-.08a.224.224 0 00.038.003c.38.01.649.09.95.225.185.084.33.164.474.33.06.07.088.106.132.16.033.037.112-.006.122-.053.015-.065.017-.063.025-.117.054.024.11.043.167.062zm-.641.125a.939.939 0 00-.279-.29c-.185-.13-.347-.2-.565-.239a2.234 2.234 0 00-.595-.032 1.8 1.8 0 00-.086.012c-.125.022-.19.145-.304.26a.317.317 0 01-.182.094c.073-.181-.189-.099-.347-.03-.118.051-.207.104-.334.166-.06.026-.193.12-.245.159-.135.097-.18.14-.288.261-.14.157-.27.323-.39.495-.085.12-.029.225.122.232.05.001.11-.05.154-.091.22-.205.388-.406.621-.593a2.16 2.16 0 01.98-.453 2.462 2.462 0 011.126.08c.164.052.23.083.414.144.132.05.194.02.227-.015.012-.012.036-.05-.03-.16zm-3.816 2.052a1.282 1.282 0 00-.29-.155c-.303-.119-.626-.136-.948-.125a2.839 2.839 0 00-.66.112c-.218.074-.318.14-.514.265-.238.153-.358.298-.525.484-.053.057-.076.109-.126.204-.042.081-.023.108.007.132.052.057.109.02.131.002.088-.078.149-.132.252-.226a2.23 2.23 0 01.464-.336c.21-.11.445-.182.678-.233.386-.083.771-.092 1.15.067.081.034.173.057.26.059.054 0 .103-.008.158-.08.038-.05.027-.124-.037-.17zm-2.978 2.64c-.094-.198-.139-.413-.03-.64.028-.059 0-.112-.119-.112-.14 0-.217.023-.216.155 0 .165.014.292.049.453.031.145.184.276.316.145zm9.972-9.887a.02.02 0 00.005.004c-.036.061.005.124.072.132-.045.03-.075.12-.06.166a.339.339 0 00.156.153c-.025.018.032.309.154.364-.052.033-.019.08-.063.116-.029.022.067.034.09.046-.06.03-.044.07-.083.131h.123c.267 0 .328.033.763 0 .033-.002.04-.059.035-.08-.017-.064-.115-.072-.183-.07-.123.005-.251-.006-.42-.006.164-.019.33-.045.472-.044.067 0 .089-.055.069-.107-.014-.049-.205-.044-.279-.04-.123.01-.244.033-.367.05-.005-.018.356-.095.46-.123.035-.01.142-.021.123-.084-.007-.039-.048-.013-.058-.023-.077.004-.256.021-.365.026.088-.029.185-.054.232-.075.051-.025.135-.077.115-.125-.042-.07-.095-.052-.147-.048-.07.001-.318.111-.415.136.086-.05.331-.176.387-.209.046-.026.07-.08.043-.107-.059-.084-.338.04-.64.212.062-.064.434-.272.5-.378.025-.03.01-.067-.004-.08-.023-.023-.05-.028-.106-.007-.06.02-.292.217-.362.241.067-.075.392-.342.343-.384-.037-.031-.08.01-.128.042-.098.065-.162.128-.231.18.072-.086.17-.173.212-.263.014-.03.005-.067-.026-.083-.054-.03-.127.024-.158.054a3.701 3.701 0 00-.241.267c-.005.007-.01.013-.013.02l-.005-.004zm6.797 2.163c.005-.107.005-.263.004-.409a.824.824 0 00-.116-.422.432.432 0 00-.175-.18s.057.054.085.11c.026.057.086.157.108.389.016.155.028.245.006.567-.023.355.045.43.197.652-.28-.173-.305-.436-.32-.531-.013-.097.003-.364.015-.574.012-.227 0-.582-.256-.668a.357.357 0 00-.146-.005c.231.193.348.46.285.889-.006-.237-.225-.367-.202-.478a.28.28 0 00-.07-.248c-.052-.065-.1-.106-.186-.109-.1-.004-.17.057-.201.206a1.27 1.27 0 00-.008.524c.08.36.16.417.298.64.077.123.154.21.237.326.124.165.227.315.347.483.14.195.206.261.32.47.135.245.206.562.112.78a.497.497 0 01-.377.31c-.202.045-.528.014-.686-.115-.11-.087-.163-.043-.207.09-.077.226-.117.466-.283.662-.172.204-.091.671.128.815.06.04.124.08.191.102.209.066.203.241.221.401.015.135.006.273.024.407.03.237.081.471.11.707.012.096.004.2-.025.292-.02.058-.09.114-.15.142-.009.003-.017.008-.024.011-.077.042-.104.095-.08.183.047.187.131.398.172.576.03.126.067.215.048.304-.043.201-.109.274-.336.221-.098-.024-.138.008-.16.095-.054.22-.26.34-.5.301a2.24 2.24 0 00-.304-.02c-.151-.001-.227-.114-.247-.219-.02-.106.024-.244.15-.292.15-.058.14-.139.126-.277a1.577 1.577 0 00-.299-.772 3.125 3.125 0 00-.528-.576 1.877 1.877 0 00-1.319-.45c-.212.008-.426.005-.626.094a.318.318 0 01-.431-.158.408.408 0 00-.028-.065c-.203-.035-.25-.11-.318-.3-.052.103-.073.16-.108.237-.059.132-.192.17-.337.193-.218.034-.288-.152-.262-.311.011-.068.032-.172.015-.235-.06-.233-.197-.37-.318-.543a2.232 2.232 0 00-.647-.594 1.264 1.264 0 00-1.063-.158c-.108.031-.149.092-.135.204.014.102-.002.208-.114.26a.297.297 0 01-.31-.032c-.09-.067-.089-.264.009-.371.183-.2.42-.264.7-.276.217-.008.331-.015.53.042.456.133.638.283.848.465.181.157.322.33.41.459.16.229.303.389.306.72 0 .064.03.101.07.115.077.029.194-.046.203-.147.014-.15.032-.203-.024-.394-.137-.47-.44-.84-.825-1.132-.234-.18-.335-.217-.543-.306-.335-.146-.757-.158-1.104-.092-.25.047-.492.16-.717.281-.116.062-.183.208-.274.314-.138.16-.41.15-.557-.021-.122-.138-.246-.15-.343-.032a.153.153 0 00-.029.058c-.05.223-.224.32-.467.248-.166-.05-.331-.106-.5-.145a1.468 1.468 0 00-1.073.178c-.17.099-.412.272-.54.42-.17.198-.298.382-.278.592.005.06.016.12.023.184.01.077.035.126.008.231-.03.126-.11.165-.238.131-.111-.028-.229-.07-.34-.06-.293.026-.483.266-.467.557.007.131-.115.2-.267.145-.172-.06-.344-.166-.522-.203-.432-.092-.731-.09-1.05.168-.142.114-.262.254-.397.379-.03.028-.103.083-.13.068-.053-.028.134-.255.268-.415.107-.127.259-.227.406-.309.107-.059.236-.095.36-.11.304-.039.605-.005.894.11.058.023.197.07.217.013.028-.073.01-.167-.06-.243-.16-.17-.344-.192-.58-.2a2.316 2.316 0 00-.61.05c-.23.056-.357.11-.558.221a1.72 1.72 0 00-.359.26c-.069.066-.115.13-.178.19-.105.1-.187.236-.37.22-.19-.017-.316-.3-.198-.454.15-.2.228-.266.41-.448.255-.256.617-.463.876-.541.257-.078.39-.095.667-.126.167-.02.338-.017.508-.008.396.018.767.116 1.085.36.133.102.245.073.313-.081.055-.123.095-.253.151-.374.115-.248.245-.37.421-.55a1.98 1.98 0 01.926-.515 2.42 2.42 0 01.68-.043c.151.007.272.026.41.03.037.002.1 0 .11-.043a.15.15 0 00-.036-.14c-.263-.28-.616-.243-.95-.23a2 2 0 00-.623.137c-.244.11-.495.287-.694.495-.224.235-.326.315-.473.616-.02.045-.047.04-.102.048a.707.707 0 00-.23.06c-.214.107-.36.083-.578 0v-.003c-.151-.048-.274-.103-.447-.097-.265.01-.7.01-.7.01s-.237-.031-.17-.24c.104-.327.24-.673.204-.877-.022-.128-.244-.117-.327-.086-.083.031-.154.075-.279.013-.05-.024-.053-.138-.069-.22-.034-.17-.036-.39.033-.62.036-.119.035-.112.055-.152.043-.085-.07-.183-.154-.013a1.255 1.255 0 00-.127.58c-.006.294.191.896.153 1.173-.037.275-.113.46-.321.662-.208.203-.87.976-.87.976s-.264.307-.094.644c.118.235.382.192.501.193.1.002.16-.04.317.084.135.107.161.273.032.294-.106.01-.125.327-.084.416.04.088.05.222.32.19.102-.013.092.14.067.19-.054.106-.154.187-.288.17-.111-.014-.145.007-.068.124.053.08-.034.17-.081.21-.072.06-.174.096-.306.032-.33-.159-.378-.336-.387-.668-.003-.1-.002-.299-.042-.39-.029-.065-.094-.085-.12-.034-.048.098-.102.2-.115.306-.02.155-.023.309.025.512a.326.326 0 01-.175-.234c-.057-.237.009-.454.08-.72-.077-.021-.14-.079-.126-.112.014-.034.095-.163.056-.186-.046-.027.002.003-.046-.027-.05-.034-.09.055-.135.15a.755.755 0 01.01-.262c-.052.015-.083.045-.118.098a.556.556 0 01.036-.24c-.034-.002-.07.025-.107.07-.014-.136-.021-.267.048-.572v.001c.012-.08.075-.29.408-.525.104-.16.199-.381.123-.52l-.222-.4s-.1-.421-.12-.698v.004c0-.203-.093-.134-.093-.134s-.325.134-.548.064c-.473-.122-.506-.692-.31-1.125.142-.314.338-.53.688-1.105.365-.602.531-.934.58-1.342.03-.253-.055-.399-.124-.476a.398.398 0 00-.14-.08c-.077-.022-.2.043-.237.088-.038.045-.138.267-.255.435-.118.167-.4.323-.486.35.106-.095.205-.235.336-.478.09-.166.177-.32.294-.402a.676.676 0 01.184-.097.855.855 0 00-.54.08c-.253.11-.402.357-.402.357a.928.928 0 01.356-.47.835.835 0 01.309-.114s-.11-.046-.293.005a.832.832 0 00-.516.64c-.005-.145-.015-.289.063-.449.099-.203.187-.276.296-.33.108-.056.26-.117.557-.075.185.027.296.045.458.133.23.126.283.243.372.465.09.22.038.487-.018.768-.057.28-.298.686-.322.741-.024.055-.661 1.077-.756 1.234-.094.156-.218.487-.19.679.03.19.152.26.427.24.273-.017.356-.337.356-.337l-.002.044c.025-.143.062-.291.142-.447.198-.386.6-.86.76-1.25.162-.388.358-.857.412-1.391.01.082.19.441.321.156.133-.285.388.276.899.276.51 0 .714-.15.864-.127.152.022.239.132.175.311-.125.354-.368.562-.907 1.068a4.394 4.394 0 00-.34.486c-.048.096-.046.165.001.18.04.012.08-.006.122-.059.094-.12.117-.283.283-.378.103-.06.568-.238.568-.238s.255-.083.387.054c.132.139.207.58.189.774-.019.193-.095.57-.52.856-.425.286-.236.534-.132.645.068.073.333.073.504.065.119-.009.109-.002.206-.105.174-.187.324-.395.51-.57.157-.149.339-.272.508-.408.026-.02.052-.041.077-.063a.376.376 0 00.11-.2c.026-.117.048-.255.142-.343a.365.365 0 01.128-.067c.084-.026.106-.003.155.082.106-.14.23-.34.318-.37.074-.024.104.19.106.245.108-.2.173-.392.286-.52.049-.052.079.056.106.152.092-.145.07-.28.07-.4a.713.713 0 00-.059-.292c-.007.114-.011.224-.021.333-.003.028-.003.086-.015.127-.029-.055-.06-.048-.092-.04-.069.013-.104.122-.15.202-.034.06-.058.104-.1.187-.04-.158-.15-.14-.248-.027l-.205.237c-.097-.106-.276-.04-.469.149-.04-.126-.11-.143-.219-.068a.407.407 0 01-.162.07c-.05.011-.07.006-.114-.026-.195-.138-.282-.08-.512.047.025-.05.051-.1.074-.151.027-.059.124-.222.185-.324.06-.09-.061-.119-.161-.117.014-.082.053-.098.119-.168.058-.063.263-.237.093-.275.021-.052.122-.09.205-.121a.523.523 0 00.173-.107c.026-.023.12-.104-.005-.186.088-.063.241-.063.34-.089.132-.033.113-.184.018-.23.16-.019.356-.028.51-.053.038-.006.105-.063.046-.114.102-.003.243.02.347.041a.91.91 0 00.157.013c.081-.009.087-.063.087-.063s.057-.002.121.112c.083.147.18.148.317.115.15-.038.302-.068.452-.102.049-.01.096-.022.144-.033.033-.008.087-.02.09-.07.006-.06-.043-.074-.075-.087-.088-.037-.288-.101-.331-.117-.14-.05-.306-.007-.337.1-.14-.113-.252-.195-.34-.331a1.022 1.022 0 01-.107-.307c.232.28.71.386 1.097.108-.07.173.008.22.139.233a.55.55 0 00.168-.002c.027-.005.063-.006.079-.05a.098.098 0 00.002-.05.326.326 0 00-.094-.141c-.11-.11-.223-.17-.344-.149.078-.096.018-.303-.048-.43a.446.446 0 01-.05-.177c.05.007.1.006.148-.014.088-.037.076-.083.054-.2-.022-.113-.062-.21-.14-.272.092-.027.117-.169.122-.247.005-.091.002-.176.02-.272.011-.056.01-.058.035-.11.034.041.05.036.072.033.01-.001.056-.001.076-.099.029-.141.032-.34.107-.443.056.103.121.137.16.09.105-.149.172-.3.323-.457.155.152.153.15.34.04.082-.05.117-.065.206-.101.061-.024.12-.024.18-.024a.375.375 0 00-.144.124c-.048.072-.151.267.033.208.015.088-.056.226-.077.286-.049.141.078.138.11.13-.052.113-.095.19-.11.366-.006.069.08.045.122.028.008.062-.066.474-.061.474.037 0 .071 0 .108-.024.008.043-.049.155-.06.177-.054.117-.052.127-.108.28-.016.044-.06.165.059.124.003.153-.393.41-.155.414-.008.02-.04.038-.07.053-.208.094-.294.28-.533.29-.058.003-.093.037-.11.083l-.036-.008.036.008a.311.311 0 00.04.257.345.345 0 00.105.103c.054.037.169.066.248.022.099-.056.228-.198.078-.32.08-.01.118-.004.339-.145.03-.012.093-.046.114-.054.123-.05.248-.095.376-.129a.311.311 0 00.118-.049c.039-.032.055-.083.03-.174.14.043.244.034.33-.08.067-.09.084-.21-.02-.243-.115-.038-.08-.135-.124-.198-.05-.075-.1-.145-.043-.241.014-.025-.003-.068-.004-.103-.004-.058 0-.128.045-.159.016.06.055-.04.063-.067.018-.072.023-.15.06-.211.033.062.121-.124.18-.187a.87.87 0 01.2-.121s.01.033.032.046l.01.009c.096-.065.182-.081.277-.055-.057.02.139.08.2.063a.285.285 0 01.103-.013c-.024.035.086.03.136.049.074.025.114.009.154-.05l.026-.039c.096-.14.192-.28.293-.417.056-.075.177-.094.28.027.012.015.07.015.086.026.05.033.066.091.114.14.049.048.129.085.184.16.042.057.018.083.068.16.007.013.083.063.09.076.028.043.012.108.043.19.028.076.1.167.125.254.012.043-.012.054-.001.096.005.02.045.07.05.091.009.035.05.08.022.1-.055.036.025.135.027.176.004.07-.061.157-.178.159-.198.003-.313-.026-.511-.024-.098 0-.196.003-.294.004.01-.034.026-.046.028-.079-.003.033-.018.045-.028.079-.033 0-.065.029-.098.03.005.044-.043.122.015.149l-.164.136c-.028.037.005.056.07.06-.063.08-.308.051-.207.181-.105.044-.34.081-.272.13-.085 0-.394-.086-.381.003-.046-.03-.12-.075-.188-.125-.034-.026-.058-.062-.087-.093-.06-.066-.137-.089-.202-.026a1.754 1.754 0 01-.448.297l-.049-.098.05.099-.153.073c-.068.03-.093.127-.13.2-.037-.052-.058-.118-.1-.135-.041-.017-.111.001-.156.027-.236.13-.382.532-.287.773.032.08.053.167.102.236.051.068.131.118.202.179-.194.018-.078.166-.055.273a.732.732 0 00.309-.145l.012.117a70.63 70.63 0 01-.012-.118.477.477 0 00.146-.243.53.53 0 00.006-.288c-.037-.138.01-.248.08-.343a.625.625 0 01.15-.136c.024.039.045.047.1.045.073 0 .144-.049.196-.125a.43.43 0 01.228-.183c.126.19.374.131.5-.135.066.009.113.056.146.09.049.049.083.063.124.048a.96.96 0 00.286-.185c.062-.055.122-.11.182-.168.137-.13.273-.26.418-.379a.369.369 0 01.272-.055c.375.077.738-.047 1.108-.047.07 0 .181-.036.207-.09.006-.027.038-.086-.02-.086-.093.01-.183.026-.276.032-.13.008-.18-.055-.205-.117a25.46 25.46 0 01-.406-1.095c-.076-.22-.23-.37-.415-.505-.21-.151-.453-.2-.703-.23-.06-.008-.142-.007-.18.027-.098.088-.195.094-.308.045-.008-.003-.024.01-.036.014.112.256-.162.439-.45.442v-.19c-.078.092-.068.199-.257.164.041-.272.197-.438.413-.581a.235.235 0 00.092-.149c.013-.094.067-.111.146-.126.084-.015.163-.057.246-.072a.73.73 0 01.273-.01c.162.034.314.107.476.138.182.035.37.04.556.06.135.017.264.063.326.189.046.142.21.473.277.558.116.148.23.299.358.438.088.096.022.175-.014.25-.026.051-.03.079-.004.13.1-.14.192-.286.303-.417.166-.196.315-.334.592-.199.49.277.699.415.82.511.244.194.415.387.62.584.012.013 0 .052-.004.078a1.832 1.832 0 00-.03.628c.01.077.059.214.105.33.254.476.623.987.648 1.03l.08.14c.144.251.278.51.439.751.178.27.354.529.711.595.222.04.431-.038.375-.377-.036-.22-.107-.321-.194-.466-.141-.23-.302-.428-.46-.642-.221-.295-.327-.43-.492-.75-.123-.237-.173-.403-.18-.613a1.636 1.636 0 01.05-.476c.102-.388.496-.682.92-.554.006.002.266.077.42.239.276.29.44.855.449.868-.105-.192-.149-.296-.381-.523-.095-.092-.15-.264-.273-.362-.261-.209-.505-.167-.581-.145.14.012.237.036.285.06.315.159.45.474.509.84.028.184.002.36.015.555.017.266.111.426.414.81a1.34 1.34 0 01-.377-.313c-.119-.164-.174-.299-.161-.567zM10.366 6.117a.58.58 0 00.012.13c.04.154-.034.214-.074.351-.028.095-.042.143.084.217a.547.547 0 00.195.049c.126.005.2-.017.333.024-.11-.184-.384-.145-.425-.376.123-.05.237.205.425.117-.134-.065-.12-.158-.202-.234-.06-.055-.141-.092-.199-.149a.149.149 0 01-.03-.163c.023.041.07.108.098.128.102.075.23.054.289.208.014-.013.06-.193-.159-.281-.148-.06-.168-.174-.181-.316-.005-.087-.078-.14-.135-.178.118.15-.032.347-.031.473zm.018.844a.733.733 0 01-.205-.123.587.587 0 01-.253.397c-.058.046-.087.069-.121.042-.03-.023-.032-.05-.035-.078l-.01-.103c-.095.052-.181.12-.279.165l.001.001c.042.118.036.211.009.324-.044.18-.013.347.02.52.02.109.231.312.242.39.032-.096-.081-.3-.09-.362-.013-.103-.03-.155-.03-.253.002-.098.033-.27.047-.27.041.036.107.175.098.325a.43.43 0 00.123.33c.043.051.117.05.14.156a.328.328 0 00.004-.201c-.032-.132.003-.16.01-.3.006-.108.006-.108-.02-.22-.018-.073-.003-.173.029-.21.043.014.097.155.097.23 0 .07.007.212.045.287.054.107.2.197.193.282.072-.225.049-.42-.03-.654-.03-.087-.082-.194-.076-.302.089.033.167.287.2.379.025.069.022.07.067.122a.49.49 0 00.178.14c.135.06.178.14.235.254a.479.479 0 00-.036-.264c-.071-.188-.153-.242-.31-.375-.072-.061-.166-.242-.132-.3.096 0 .208.161.305.264.1.106.262.138.317.284-.009-.197-.063-.325-.201-.435a2.715 2.715 0 00-.263-.177c.02-.013.033-.01.08-.01.042 0 .116.041.152.059.075.037.101-.002.18.069.017-.015-.085-.168-.138-.214a.522.522 0 00-.185-.104c-.11-.032-.265-.026-.358-.065zM8.28 4.524zm-.06-.168c.002.01 0 .021-.004.032.023.053.092.092.186.062.071-.023.12-.084.098-.15-.007-.023-.032-.06-.067-.05-.034.008-.021.067-.007.085-.049-.015-.118-.114-.055-.151.04-.025.1.009.137.048a.765.765 0 01-.078-.14c-.013-.04.003-.076.017-.135.014.026.074.066.086.104.01.03.008.118.004.178.005-.06.027-.122.08-.128.074-.007.074.093.065.147-.01-.04-.044-.061-.066-.057-.02.005-.062.036-.05.073.024.074.12.085.191.068a.172.172 0 00.132-.16.061.061 0 01-.025-.02c-.042.018-.093.05-.112.087a.613.613 0 00-.03-.181c.037.033.092.04.135.042a.055.055 0 01.014-.021.176.176 0 00-.1-.095l.028-.005-.018-.112c-.02.005-.046.011-.079.011a.246.246 0 01-.097-.02c-.079-.034-.132-.045-.187-.035-.042.007-.072.056-.086.1l-.004.012-.024.001c-.051.002-.098.003-.141.06-.035.046-.012.13 0 .17l.03-.018a.197.197 0 00-.013.153c.004 0 .007.003.01.005a.177.177 0 00.067-.115.584.584 0 00.084.143c-.045-.011-.083-.014-.123.004l.002.008zm-.109-.228c-.008-.048-.008-.105.02-.143.054-.071.117-.075.169-.076.012-.034.046-.101.111-.112a.347.347 0 01.21.037.195.195 0 00.081.017c.03 0 .055-.006.073-.01l-.028-.174a.588.588 0 01-.213-.007c-.013-.002-.027-.007-.04-.012h-.003c-.044-.013-.1-.03-.165-.03-.012 0-.024 0-.036.002-.11.01-.193.101-.215.13a.261.261 0 00-.044.24c.017.05.05.1.08.138zm.819-.492l.028.172h.004a.228.228 0 00.15-.054.353.353 0 01.186-.098c.066-.01.12.046.141.072.024-.005.05-.013.08-.013.037 0 .071.01.104.035.04.028.058.082.065.13a.49.49 0 00.033-.155c0-.136-.106-.208-.118-.216a.405.405 0 00-.197-.063.25.25 0 00-.05.005c-.08.017-.135.056-.181.087-.013.01-.026.018-.037.025a.62.62 0 01-.208.073zm.725.314c0-.036-.004-.134-.054-.17a.14.14 0 00-.082-.028c-.024 0-.048.007-.071.013l-.023.007-.008-.01c-.027-.037-.07-.076-.113-.07a.314.314 0 00-.167.09c-.062.054-.132.06-.17.063h-.003l.018.116.034-.006a.198.198 0 00-.074.124c.007.004.014.01.018.015.041-.014.094-.038.118-.08a.576.576 0 00.03.18.259.259 0 00-.138-.05.059.059 0 01-.017.028c.034.09.103.125.174.115.072-.011.146-.068.141-.135-.002-.038-.033-.066-.052-.064-.022.002-.043.043-.041.085-.03-.026-.073-.148.001-.164.046-.01.09.041.118.093a.666.666 0 01-.037-.156c.001-.04.048-.093.055-.122.03.054.054.085.052.127a.817.817 0 01-.042.167c.017-.053.062-.12.116-.115.074.006.047.133.005.163.007-.023-.004-.076-.04-.075-.036.003-.05.03-.05.054-.003.071.056.12.13.124.087.007.133-.048.158-.099a.059.059 0 01-.022-.035v-.009a.203.203 0 00-.09.033.577.577 0 00.034-.16.166.166 0 00.083.08.09.09 0 01.02-.006h.003a.207.207 0 00-.06-.134l.046.011zm-.204.412c-.023 0-.045-.004-.067-.004H9.38c.024 0 .048.003.073.004zm-.493-.03c-.03.004-.058.014-.087.02.158-.03.316-.048.473-.05-.129.002-.258.01-.386.03zm-.388.15c.02-.007.042-.015.063-.02.11-.032.222-.057.333-.074h.002c.14-.022.278-.044.416-.044.1 0 .2.005.298.017h.003c.003 0 .004-.004.007-.006s.008-.004.008-.01c.002-.008-.005-.016-.014-.017a2.6 2.6 0 00-.302-.017c-.384 0-.77.081-1.149.241a.017.017 0 00-.009.022.019.019 0 00.023.008c.106-.045.214-.069.321-.1zm1.146.074c-.012-.073-.312-.108-.74-.041-.42.064-.688.184-.688.257.001.006.004.01.008.015.003.005.012.008.016.012.12.04.577-.125.711-.14a3.61 3.61 0 01.443-.016c.07.008.14.003.18-.01.044-.028.074-.055.07-.077zm.017.491c-.105-.044-.178.016-.253.03-.12.023-.211.035-.277-.02-.088.25.071.315.09.53.002.085.005.137-.123.16-.122.023-.193-.01-.222-.13a.96.96 0 01-.008-.312c.01-.096.005-.147-.029-.203-.05.043-.061.056-.133.076a.472.472 0 01-.164.013c-.066-.007-.066-.012-.132-.005-.037.003-.08.015-.095.052a.35.35 0 01.12.192c.02.084.075.154.19.144.039-.003.14-.026.149-.025a.354.354 0 00.032.264c.04.076.152.084.197.203-.049.002-.218.015-.28.054-.061.036-.01.145.033.193.035.039.095.034.138.037.053.002.116.005.21 0-.025.065-.013.14.027.23.036.08.097.093.162.08.076-.016.103-.085.077-.178-.019-.066-.032-.137.002-.18.045-.036.045-.036.09-.057.169-.078.158-.172.101-.29-.046-.05-.237.04-.305.065.012-.12.05-.092.081-.21.026-.097.03-.174-.067-.297.122.012.309-.014.338-.2.015-.09-.013-.119.05-.216zm-1.972.184a.301.301 0 01.092-.352c.194-.17.373-.01.417-.106 0-.018.016-.038.038-.057 0-.012 0-.022-.002-.032-.026.003-.048-.006-.056-.024-.01-.019-.002-.044.02-.063l.003-.002c-.001-.001-.003-.003-.003-.005l-.015.005a.032.032 0 01-.013.002.03.03 0 01-.028-.018c-.001-.001.002-.003.002-.005-.002-.005-.003-.011 0-.017.002-.006.007-.01.012-.012 0-.002 0-.005.002-.006l.013-.004a2.901 2.901 0 00-.058-.12.058.058 0 01-.011.003.055.055 0 01-.065-.045.054.054 0 01.022-.052.377.377 0 00-.07-.082l.063-.04-.036-.04-.01.008a.057.057 0 01-.049.059h-.01a.058.058 0 01-.057-.048.057.057 0 01.077-.06l.011-.01a.525.525 0 01-.035-.059l-.01.005a.058.058 0 01-.049.044L7.95 4.1a.058.058 0 01-.058-.047.056.056 0 01.01-.043.059.059 0 01.038-.022c.015-.002.03 0 .041.009l.013-.005a.266.266 0 01-.011-.07l-.015-.001a.058.058 0 01-.036.02h-.009a.058.058 0 01-.057-.048.054.054 0 01.011-.042.056.056 0 01.037-.023.058.058 0 01.06.03h.013a.291.291 0 01.019-.061l-.01-.006a.06.06 0 01-.016.005l-.009.001a.058.058 0 01-.057-.048.056.056 0 01.048-.064.057.057 0 01.067.046v.008l.007.003.01-.015a.424.424 0 01.04-.042l-.007-.008H8.07a.056.056 0 01-.057-.046.057.057 0 01.048-.065.057.057 0 01.066.046.056.056 0 01-.001.024l.008.009a.39.39 0 01.063-.037L8.195 3.6a.056.056 0 01-.045-.046c-.005-.03.016-.06.049-.065a.058.058 0 01.066.047.055.055 0 01-.01.042l.004.01a.413.413 0 01.068-.007v-.015a.052.052 0 01-.022-.036.051.051 0 01.01-.042.06.06 0 01.038-.023.057.057 0 01.066.047.054.054 0 01-.027.057l-.001.017c.027.004.052.01.075.017l.004-.013a.061.061 0 01-.014-.028.057.057 0 01.048-.065.058.058 0 01.067.046.057.057 0 01-.04.063l-.003.015.017.004a.53.53 0 00.104.011V3.62c-.016-.008-.035-.013-.038-.031a.058.058 0 01.049-.065.058.058 0 01.065.046c.005.029-.014.052-.04.06v.006a.48.48 0 00.057-.005l-.013-.08.086-.014a.151.151 0 01-.158-.09l.292-.044a.147.147 0 01-.122.132l.085-.013.013.078c.016-.002.032-.005.05-.01l-.002-.01a.055.055 0 01-.044-.045c-.005-.03.017-.059.048-.065a.06.06 0 01.066.048.056.056 0 01-.01.042l.004.011a.446.446 0 00.081-.039l.015-.01-.009-.013a.056.056 0 01-.008-.111.057.057 0 01.066.046.05.05 0 01-.005.031l.009.012a.522.522 0 01.066-.038l-.007-.016c-.022-.006-.04-.023-.043-.047a.057.057 0 01.048-.065.057.057 0 01.065.048c.004.015 0 .03-.01.042l.007.014c.012-.004.025-.008.038-.01l.029-.005V3.4a.056.056 0 01.025-.101.057.057 0 01.066.046.054.054 0 01-.027.056v.01c.025.002.05.008.072.016l.005-.012a.057.057 0 01-.01-.022.057.057 0 01.049-.064.058.058 0 01.067.046.057.057 0 01-.047.065l-.005.01a.343.343 0 01.066.04l.006-.007-.002-.006a.056.056 0 01.048-.065.057.057 0 01.067.047.057.057 0 01-.048.065h-.016l-.008.008a.365.365 0 01.037.053l.011-.005a.057.057 0 01.048-.045.058.058 0 01.066.046.056.056 0 01-.048.065h-.009a.065.065 0 01-.031-.008l-.013.005c.007.022.01.046.012.07l.013.001a.062.062 0 01.036-.02.057.057 0 01.067.046.058.058 0 01-.049.066h-.01a.058.058 0 01-.05-.029h-.011a.57.57 0 01-.015.067l.014.003a.071.071 0 01.026-.01.058.058 0 01.066.047.054.054 0 01-.01.041.057.057 0 01-.038.023h-.01a.06.06 0 01-.056-.04l-.012-.005a.485.485 0 01-.025.057l.065.016a.423.423 0 00-.047.11c.01.008.016.019.018.032a.056.056 0 01-.038.061 2.219 2.219 0 00-.016.135h.01a.03.03 0 01.027.034.029.029 0 01-.025.026h-.017V4.383h.004c.022.013.035.032.032.052-.002.017-.016.03-.038.037l-.001.001.002.028c.033.014.06.03.065.053l-.002.002c.122.053.183-.05.286-.081a.28.28 0 01.28.068c.103.097.079.21.016.3a.419.419 0 01-.198.17c-.058.025-.125.032-.177.037a.459.459 0 00.13.203c.048.045.091.037.15.082.048.035.102.109.09.188-.033-.015-.071-.033-.107-.015.051.047.143.16.137.25-.034-.039-.093-.061-.123-.033.09.124.083.155.077.25-.088-.028-.091-.12-.166-.087.02.139.075.15.11.232a.372.372 0 01.02.276.476.476 0 00-.07-.15c-.03-.043-.058-.085-.106-.084-.045.101.06.17.078.24a.401.401 0 01-.053.29c-.01-.093-.05-.28-.2-.258-.02.093.078.15.113.26.04.135.035.309-.146.402.036-.035.036-.163.02-.249a.176.176 0 00-.117-.132c-.045.042-.04.105-.038.14.004.08.01.16.018.24-.094.053-.18.12-.278.165-.03-.082-.099-.227-.173-.221-.007.074.103.253.082.388a.713.713 0 01-.015.075c-.04-.044-.095-.073-.143-.108a.77.77 0 00-.098-.331c-.058-.107-.045-.244-.03-.42-.107.052-.137.302-.096.53a.572.572 0 01-.144-.219c-.035-.107-.023-.144-.008-.257.013-.103-.027-.15-.056-.178-.057.035-.08.186-.08.315 0 .074.036.206.092.275-.074-.015-.179-.14-.21-.24-.053-.16-.055-.286.053-.494-.108-.045-.17.14-.185.2-.013.055-.032.121-.006.183-.087-.043-.161-.103-.14-.231.02-.117.12-.234.036-.366-.082.013-.133.2-.137.348-.073-.12-.075-.197-.074-.329 0-.122.02-.27.049-.371-.037-.002-.102.05-.13.12-.041.088-.04.152-.022.29-.126-.108-.13-.356-.096-.488.037-.102.098-.139.144-.182a.214.214 0 00.072-.16c-.192.034-.342-.013-.404-.158zm1.42 2.69c.034.119.098.184.063.3.17-.07.092-.367.093-.54 0-.11.017-.102.037-.179-.04-.044-.095-.073-.143-.107 0 .042-.008.077-.028.099-.115-.02-.172-.12-.207-.19-.15.02-.207-.016-.328-.109a.842.842 0 01-.2-.297c-.075.008-.198-.084-.271-.164-.129-.13-.112-.259-.227-.423-.029.308-.25.525-.104.826.054-.12.088-.224.163-.316-.002.189 0 .223.018.379.014.088.052.196.105.237a.354.354 0 01.02-.22c.035-.094.066-.129.132-.168.024.06.02.091.014.155a.516.516 0 00.008.192c.033.132.073.198.107.287a.612.612 0 01.03-.254.23.23 0 01.104-.133c.087.146.072.235.085.374.012.133.097.18.12.27.058-.123-.048-.323.128-.438-.029.173-.026.294.032.433.032.077.12.14.148.253.02-.16-.064-.332.024-.502.082.08.053.151.077.236zm-2.367.917c-.127.018-.531.22-.603.557-.07.338-.212.424-.212.424.109-.05.347-.246.495-.511a2.52 2.52 0 01.32-.47zm1.35-.38c.05.2.023.11.042.163-.002-.09.093-.206.123-.297.07-.21.08-.42.028-.515-.04-.07-.109-.186-.127-.304-.008.12.019.345.008.462-.016.167-.13.275-.074.492zm.534-.261c0-.215-.163-.288-.16-.515a.557.557 0 00-.04.223c.01.26.037.283-.06.538-.048.131.022.386.166.483a.556.556 0 01.043-.363c.055-.124.051-.273.051-.366zm.314.189c-.011-.145-.148-.24-.145-.327a.32.32 0 00-.046.15 1.696 1.696 0 01-.05.467c-.055.214.096.477.136.527-.008-.104.023-.174.052-.245.055-.136-.007-.201.021-.31a.715.715 0 00.032-.262zm-1.07-.07c.059-.079.099-.152.127-.218a.676.676 0 00-.006-.553c-.066-.125-.14-.198-.13-.328-.215.334-.087.715.01 1.1zm3.923 1.29c.026-.06-.05-.119-.106-.144-.017.013-.08.13-.153.138.034-.074-.038-.183-.11-.2-.02.062-.055.176-.152.2.033-.074.01-.25-.114-.268-.005.104-.03.168-.108.22.035-.282-.21-.37-.438-.437-.092-.027-.092-.03-.183-.063a.386.386 0 00-.166-.032c-.017.069.047.207.113.273a.384.384 0 01-.257-.126c-.047-.053-.05-.1-.09-.196-.086.205.029.266.11.39-.328 0-.342-.377-.344-.396a.325.325 0 00-.075.142.367.367 0 00.081.262c-.05-.008-.152-.07-.173-.133-.026-.079-.02-.039-.026-.121-.007-.062-.005-.221-.03-.285a.334.334 0 00-.061.187c.026.167-.076.219-.046.315a.374.374 0 01-.101-.365c.053-.195.042-.341-.043-.433a.287.287 0 00-.11-.088c.047.255.07.475-.108.688.018-.076-.077-.229-.064-.422.012-.165.07-.332.013-.408.065.048.232.074.302.086.159.02.2.094.255.22.018.04.086.082.108.127.029-.07.065-.127.078-.164.02-.063.01-.12-.008-.187.086.01.127.17.161.206.032.034.054.062.115.063.025-.07.02-.122.028-.189.01-.087.046-.154.013-.254.05.008.102.07.129.132.034.078.02.14.078.188.058-.037.085-.102.101-.138.046-.124.077-.226.084-.375.067.053.105.056.172.11.082.065.128.189.186.227.182.12.375.214.565.297.24.107.467.18.849.262.157.02.269.028.414-.009a1.41 1.41 0 01.247-.023l.016.002c-.121-.133-.12-.179-.04-.269.08-.089.06-.091.084-.157.169.156.177.229.105.338-.019.03-.054.063-.09.098.037.008.079.018.124.03.138.035.181.178.18.297-.134.087-.256.093-.465.14-.165.038-.316.054-.443.185-.028.03-.062.079-.12.079.012-.026.008-.056-.014-.087a.163.163 0 00-.084-.049c-.052.05-.063.153-.136.128.008-.046-.06-.068-.114-.061-.054.005-.08.058-.14.05zM55.364 6.36c.7 0 1.31.128 1.83.383.52.256.952.6 1.297 1.036.344.435.604.937.78 1.506.175.569.262 1.172.262 1.81a6.32 6.32 0 01-.254 1.811 4.26 4.26 0 01-.77 1.489 3.636 3.636 0 01-1.297 1c-.52.245-1.124.367-1.813.367a4.538 4.538 0 01-1.56-.296 3.18 3.18 0 01-.762-.427 2.383 2.383 0 01-.604-.67h-.035V19h-1.49V6.569h1.49v1.219h.035c.245-.5.63-.862 1.156-1.089a4.349 4.349 0 011.735-.339zm43.99 0c.805 0 1.474.166 2.005.497.532.33.958.75 1.28 1.262.32.51.543 1.068.665 1.67.123.604.172 1.18.15 1.725h-6.781a3.55 3.55 0 00.14 1.122c.105.355.274.668.508.94.233.273.531.491.893.653.363.163.789.244 1.28.244.63 0 1.147-.145 1.55-.435.403-.29.668-.731.797-1.323h1.472c-.199 1.01-.637 1.77-1.314 2.28-.678.511-1.53.767-2.558.767-.724 0-1.352-.117-1.883-.348a3.707 3.707 0 01-1.34-.976 4.125 4.125 0 01-.815-1.497 7.148 7.148 0 01-.307-1.898c0-.684.105-1.311.315-1.88.21-.568.505-1.062.885-1.48.38-.417.83-.742 1.35-.974a4.138 4.138 0 011.707-.349zm33.133 0c.723 0 1.357.122 1.9.365a3.99 3.99 0 011.376 1.002c.373.424.654.923.84 1.497.188.575.281 1.193.281 1.854 0 .662-.093 1.277-.28 1.846a4.204 4.204 0 01-.841 1.488 3.879 3.879 0 01-1.376.992c-.543.239-1.177.358-1.9.358-.713 0-1.344-.12-1.893-.358a3.858 3.858 0 01-1.384-.992 4.204 4.204 0 01-.84-1.488 5.879 5.879 0 01-.281-1.846c0-.661.093-1.28.28-1.854a4.197 4.197 0 01.841-1.497 3.967 3.967 0 011.384-1.002c.55-.243 1.18-.365 1.893-.365zm-86.919 0c.806 0 1.474.166 2.006.497.531.33.957.75 1.28 1.262.32.51.542 1.068.665 1.67.122.604.172 1.18.149 1.725h-6.78a3.54 3.54 0 00.14 1.122c.105.355.274.668.508.94a2.5 2.5 0 00.893.653c.362.163.789.244 1.28.244.63 0 1.147-.145 1.55-.435.403-.29.668-.731.797-1.323h1.471c-.198 1.01-.636 1.77-1.313 2.28-.678.511-1.53.767-2.558.767-.725 0-1.352-.117-1.884-.348a3.707 3.707 0 01-1.34-.976 4.126 4.126 0 01-.815-1.497 7.163 7.163 0 01-.306-1.898c0-.684.105-1.311.315-1.88.21-.568.505-1.062.885-1.48a4.01 4.01 0 011.349-.974 4.14 4.14 0 011.708-.349zm18.998 0c.41 0 .815.03 1.218.087.403.058.768.176 1.095.356.327.18.59.432.788.756.199.324.298.747.298 1.268v4.621c0 .348.02.603.061.765.041.162.178.243.412.243.128 0 .28-.023.456-.07v1.15c-.257.15-.613.226-1.069.226-.385 0-.692-.108-.92-.322-.227-.215-.341-.566-.341-1.054a3.559 3.559 0 01-1.428 1.054 4.75 4.75 0 01-1.761.322c-.409 0-.797-.047-1.165-.14a2.701 2.701 0 01-.955-.435 2.083 2.083 0 01-.64-.775c-.157-.319-.236-.705-.236-1.158 0-.51.088-.928.263-1.253a2.28 2.28 0 01.692-.792 3.18 3.18 0 01.981-.462c.368-.104.745-.191 1.13-.26.273-.055.536-.1.79-.136l.375-.048c.368-.04.692-.098.972-.174.28-.075.503-.185.666-.33.164-.145.245-.357.245-.636 0-.325-.06-.586-.184-.783a1.255 1.255 0 00-.472-.453 1.922 1.922 0 00-.649-.209 4.871 4.871 0 00-.71-.052c-.63 0-1.155.12-1.576.357-.42.238-.648.687-.683 1.35h-1.49c.024-.558.14-1.028.351-1.411.21-.383.49-.694.841-.931.35-.238.75-.41 1.2-.514.45-.105.931-.157 1.445-.157zm10.129 0v1.567c-.596 0-1.104.081-1.525.244-.42.162-.759.4-1.016.714a2.937 2.937 0 00-.56 1.14c-.117.447-.175.96-.175 1.54v4.005h-1.49V6.569h1.402v1.898h.035c.362-.731.806-1.271 1.331-1.62.526-.347 1.192-.51 1.998-.487zM127.106 3c.14 0 .3.012.482.034.181.024.342.059.482.105v1.288a1.894 1.894 0 00-.42-.095 3.75 3.75 0 00-.421-.026c-.362 0-.643.07-.841.208-.199.14-.298.407-.298.801V6.57h1.752v1.306h-1.752v7.695h-1.49V7.875h-1.523V6.569h1.524v-1.34c0-.732.213-1.286.64-1.663.426-.377 1.047-.566 1.865-.566zm-11.09.87V6.57h1.805v1.306h-1.805v5.589c0 .174.015.313.044.417a.429.429 0 00.167.244.734.734 0 00.341.113c.11.013.244.021.402.025l.85.001v1.306h-1.138c-.386 0-.715-.026-.99-.078a1.459 1.459 0 01-.665-.287 1.224 1.224 0 01-.377-.593c-.082-.255-.123-.591-.123-1.01V7.876h-1.542V6.569h1.542V3.87h1.49zm-81.724-.73c1.928 0 3.41.486 4.45 1.461 1.04.976 1.56 2.462 1.56 4.458 0 1.044-.117 1.97-.35 2.777-.234.806-.596 1.485-1.087 2.037-.49.55-1.116.972-1.874 1.262-.76.29-1.66.435-2.699.435H30V3.14h4.292zm56.445 3.22c.456 0 .867.05 1.235.148.368.099.684.253.946.461.263.21.467.48.614.81.146.33.219.729.219 1.192v6.599h-1.49V9.668c0-.278-.023-.54-.07-.783a1.592 1.592 0 00-.262-.636 1.31 1.31 0 00-.535-.426c-.228-.105-.523-.157-.885-.157-.736 0-1.314.209-1.734.627-.42.417-.63.975-.63 1.671v5.606h-1.49V9.668c0-.29-.026-.557-.079-.801a1.7 1.7 0 00-.271-.635 1.272 1.272 0 00-.517-.418c-.217-.099-.494-.148-.832-.148-.433 0-.803.087-1.113.261a2.513 2.513 0 00-1.174 1.384 2.14 2.14 0 00-.131.653v5.606h-1.49V6.569h1.402v1.323h.035c.678-1.021 1.653-1.532 2.926-1.532.56 0 1.069.116 1.524.349.456.232.777.626.964 1.183a3.153 3.153 0 011.2-1.131 3.402 3.402 0 011.638-.401zm52.263 0v1.567c-.596 0-1.104.081-1.524.244-.42.162-.76.4-1.017.714a2.947 2.947 0 00-.56 1.14c-.117.447-.175.96-.175 1.54v4.005h-1.49V6.569h1.402v1.898h.035c.362-.731.806-1.271 1.332-1.62.525-.347 1.191-.51 1.997-.487zm-33.911 0c.596 0 1.092.082 1.49.244.396.163.717.389.963.679.245.29.417.635.516 1.036.1.4.15.844.15 1.332v5.919h-1.49V9.477c0-.558-.163-.999-.49-1.324-.327-.325-.777-.487-1.35-.487-.455 0-.85.07-1.182.209a2.22 2.22 0 00-.832.592 2.55 2.55 0 00-.5.896 3.623 3.623 0 00-.166 1.123v5.084h-1.49V6.569h1.402v1.428h.036c.619-1.091 1.6-1.637 2.943-1.637zm-31-2.49V6.57h1.805v1.306H78.09v5.589c0 .174.014.313.043.417a.43.43 0 00.167.244.737.737 0 00.342.113c.11.013.243.021.402.025l.85.001v1.306h-1.139a5.36 5.36 0 01-.99-.078 1.459 1.459 0 01-.665-.287 1.227 1.227 0 01-.377-.593c-.082-.255-.122-.591-.122-1.01V7.876h-1.542V6.569H76.6V3.87h1.489zM55.154 7.666c-.502 0-.928.099-1.279.296a2.56 2.56 0 00-.858.775c-.222.319-.383.682-.482 1.088-.1.406-.149.818-.149 1.236 0 .441.053.867.158 1.28.105.411.271.774.5 1.087.227.314.521.566.884.758.362.191.8.287 1.314.287s.943-.098 1.287-.296c.345-.197.622-.458.833-.783a3.41 3.41 0 00.455-1.114c.094-.418.14-.848.14-1.289 0-.417-.055-.827-.166-1.227-.111-.4-.28-.757-.508-1.071a2.492 2.492 0 00-.876-.749c-.357-.185-.774-.278-1.253-.278zm77.334 0a2.7 2.7 0 00-1.095.226c-.345.151-.646.372-.903.662a3.13 3.13 0 00-.604 1.07c-.146.424-.22.91-.22 1.454 0 .546.074 1.03.22 1.454.146.424.347.778.604 1.062.257.284.558.502.903.653a2.7 2.7 0 001.095.226 2.7 2.7 0 001.094-.226c.345-.15.646-.369.903-.653.257-.284.458-.638.604-1.062.146-.424.22-.908.22-1.454 0-.545-.074-1.03-.22-1.453a3.142 3.142 0 00-.604-1.071 2.579 2.579 0 00-.903-.662 2.7 2.7 0 00-1.094-.226zm-66.01 3.255c-.188.14-.433.24-.737.304-.202.042-.411.08-.627.112l-.328.044c-.333.04-.668.087-1.007.138-.339.052-.642.136-.911.251-.269.116-.488.28-.657.495-.17.213-.254.505-.254.874 0 .243.05.448.149.615.099.168.228.303.385.407.158.105.342.18.552.226.21.046.432.069.666.069.49 0 .911-.066 1.261-.2.35-.132.637-.3.859-.502a1.98 1.98 0 00.49-.658 1.65 1.65 0 00.158-.667V10.92zm-32.01-6.389h-2.802v9.645h2.767c.187 0 .42-.014.701-.043a4.082 4.082 0 001.83-.688c.31-.209.588-.493.834-.853.245-.36.446-.81.604-1.35.158-.539.237-1.192.237-1.958 0-.743-.074-1.407-.22-1.993-.146-.586-.385-1.086-.718-1.498a3.156 3.156 0 00-1.288-.94c-.525-.215-1.173-.322-1.944-.322zm11.014 3.134c-.386 0-.734.067-1.043.2a2.41 2.41 0 00-.797.548 2.629 2.629 0 00-.526.81 3.068 3.068 0 00-.227.984h5.203a3.013 3.013 0 00-.237-.992 2.535 2.535 0 00-.543-.81 2.56 2.56 0 00-1.83-.74zm53.785 0c-.386 0-.733.067-1.043.2-.31.134-.575.317-.797.548a2.622 2.622 0 00-.525.81 3.059 3.059 0 00-.228.984h5.203a3.014 3.014 0 00-.236-.992 2.524 2.524 0 00-.543-.81 2.56 2.56 0 00-1.83-.74zm110.792-1.349c.723 0 1.356.126 1.899.377.542.25 1 .595 1.373 1.03.373.437.653.951.84 1.543.187.592.28 1.228.28 1.91 0 .68-.093 1.314-.28 1.9a4.366 4.366 0 01-.84 1.533 3.88 3.88 0 01-1.373 1.022c-.543.245-1.176.368-1.899.368-.711 0-1.341-.123-1.89-.368a3.856 3.856 0 01-1.382-1.022 4.355 4.355 0 01-.84-1.533 6.217 6.217 0 01-.28-1.9c0-.682.093-1.318.28-1.91a4.35 4.35 0 01.84-1.542 3.96 3.96 0 011.382-1.031c.549-.251 1.179-.377 1.89-.377zM273.258 3v12.803h-1.487v-1.256h-.035a2.21 2.21 0 01-1.155 1.112 4.32 4.32 0 01-1.732.341c-.7 0-1.31-.132-1.829-.395a3.773 3.773 0 01-1.295-1.058 4.654 4.654 0 01-.778-1.542 6.482 6.482 0 01-.263-1.864c0-.658.085-1.28.254-1.865a4.425 4.425 0 01.77-1.533 3.734 3.734 0 011.295-1.04c.519-.257 1.123-.386 1.81-.386.234 0 .485.024.753.072.268.048.537.128.805.242.268.114.522.263.761.448.24.186.44.416.604.69h.035V3h1.487zm-13.366 3.317c.408 0 .813.03 1.216.09.402.06.767.181 1.093.366.327.186.59.445.788.779.198.334.297.77.297 1.306v4.76c0 .357.02.62.062.787.04.167.177.25.41.25.129 0 .28-.024.456-.072v1.184c-.257.155-.613.233-1.068.233-.385 0-.69-.11-.918-.332-.228-.22-.342-.583-.342-1.085-.408.502-.883.864-1.426 1.085a4.618 4.618 0 01-1.758.332c-.409 0-.796-.048-1.164-.144a2.664 2.664 0 01-.953-.448 2.132 2.132 0 01-.64-.798c-.156-.328-.235-.726-.235-1.192 0-.526.087-.957.262-1.291.175-.335.406-.607.692-.816.285-.21.612-.367.98-.475.367-.108.743-.197 1.128-.27.272-.055.535-.101.79-.138l.373-.05c.368-.041.692-.101.972-.179.28-.077.501-.19.664-.34.164-.15.246-.368.246-.655 0-.335-.062-.603-.184-.807a1.271 1.271 0 00-.473-.466 1.88 1.88 0 00-.647-.215 4.729 4.729 0 00-.709-.054c-.63 0-1.155.123-1.574.368-.42.245-.648.708-.683 1.39h-1.487c.023-.575.14-1.059.35-1.453.21-.395.49-.714.84-.96.35-.244.749-.42 1.198-.528a6.18 6.18 0 011.444-.162zm-91.375 0c.805 0 1.472.17 2.003.511.531.341.957.774 1.278 1.3.32.527.542 1.1.665 1.722a7.55 7.55 0 01.149 1.775h-6.772c-.012.406.035.792.14 1.156.105.365.274.688.507.968.233.282.53.506.892.673.362.167.788.251 1.278.251.63 0 1.146-.15 1.549-.448.402-.3.667-.753.796-1.363h1.47c-.2 1.04-.636 1.823-1.313 2.349-.677.526-1.528.789-2.555.789-.723 0-1.35-.12-1.88-.359a3.706 3.706 0 01-1.339-1.004 4.285 4.285 0 01-.814-1.542 7.573 7.573 0 01-.306-1.954c0-.705.105-1.351.315-1.937.21-.585.504-1.094.883-1.524.38-.43.829-.765 1.348-1.004a4.026 4.026 0 011.706-.359zm23.905 0c.408 0 .814.03 1.217.09.402.06.766.181 1.093.366.327.186.59.445.788.779.198.334.297.77.297 1.306v4.76c0 .357.02.62.061.787.041.167.178.25.411.25.129 0 .28-.024.455-.072v1.184c-.256.155-.612.233-1.067.233-.385 0-.691-.11-.919-.332-.227-.22-.341-.583-.341-1.085-.408.502-.883.864-1.426 1.085a4.616 4.616 0 01-1.758.332c-.409 0-.797-.048-1.164-.144a2.663 2.663 0 01-.954-.448 2.139 2.139 0 01-.639-.798c-.157-.328-.236-.726-.236-1.192 0-.526.088-.957.263-1.291.175-.335.405-.607.691-.816.286-.21.612-.367.98-.475.367-.108.744-.197 1.128-.27.273-.055.536-.101.79-.138l.374-.05c.368-.041.691-.101.971-.179.28-.077.502-.19.665-.34.163-.15.245-.368.245-.655 0-.335-.061-.603-.183-.807a1.27 1.27 0 00-.473-.466 1.88 1.88 0 00-.647-.215 4.729 4.729 0 00-.71-.054c-.629 0-1.154.123-1.574.368-.42.245-.647.708-.682 1.39h-1.488c.024-.575.14-1.059.35-1.453.21-.395.49-.714.84-.96.35-.244.75-.42 1.199-.528a6.18 6.18 0 011.443-.162zm36.408 0c.408 0 .814.03 1.216.09.403.06.767.181 1.094.366.326.186.589.445.787.779.198.334.298.77.298 1.306v4.76c0 .357.02.62.06.787.042.167.178.25.412.25.128 0 .28-.024.455-.072v1.184c-.257.155-.613.233-1.067.233-.385 0-.692-.11-.92-.332-.227-.22-.34-.583-.34-1.085-.409.502-.884.864-1.426 1.085a4.618 4.618 0 01-1.759.332c-.408 0-.796-.048-1.164-.144a2.66 2.66 0 01-.953-.448 2.132 2.132 0 01-.639-.798c-.157-.328-.236-.726-.236-1.192 0-.526.087-.957.262-1.291.175-.335.406-.607.692-.816.285-.21.612-.367.98-.475.367-.108.743-.197 1.128-.27.272-.055.535-.101.79-.138l.374-.05c.367-.041.69-.101.97-.179.28-.077.502-.19.666-.34.163-.15.245-.368.245-.655 0-.335-.061-.603-.184-.807a1.271 1.271 0 00-.472-.466 1.88 1.88 0 00-.648-.215 4.72 4.72 0 00-.708-.054c-.63 0-1.155.123-1.575.368-.42.245-.648.708-.683 1.39h-1.487c.023-.575.14-1.059.35-1.453.21-.395.49-.714.84-.96.35-.244.75-.42 1.199-.528a6.18 6.18 0 011.443-.162zm50.07 0c.805 0 1.472.17 2.003.511.531.341.957.774 1.278 1.3.32.527.542 1.1.665 1.722.122.621.172 1.213.148 1.775h-6.772c-.011.406.035.792.14 1.156.105.365.274.688.508.968.233.282.53.506.892.673.362.167.788.251 1.278.251.63 0 1.146-.15 1.549-.448.402-.3.667-.753.795-1.363h1.47c-.198 1.04-.636 1.823-1.312 2.349-.677.526-1.528.789-2.555.789-.723 0-1.35-.12-1.88-.359a3.71 3.71 0 01-1.34-1.004 4.29 4.29 0 01-.813-1.542 7.572 7.572 0 01-.306-1.954c0-.705.105-1.351.315-1.937.21-.585.504-1.094.883-1.524.38-.43.829-.765 1.348-1.004a4.026 4.026 0 011.706-.359zm-123.78 0c.596 0 1.091.084 1.488.251.396.168.717.4.963.7.245.299.416.654.516 1.066.099.413.148.87.148 1.372v6.097h-1.487V9.527c0-.574-.164-1.028-.49-1.363-.327-.335-.776-.502-1.347-.502-.455 0-.849.072-1.181.215-.333.144-.61.347-.832.61-.221.263-.387.57-.498.924a3.835 3.835 0 00-.166 1.156v5.236h-1.488v-9.27h1.4v1.47h.035c.618-1.124 1.598-1.686 2.94-1.686zm44.608-2.564v2.78h1.802v1.344h-1.802v5.756c0 .18.014.323.043.43a.442.442 0 00.167.252c.081.06.195.098.341.116.11.013.243.022.402.025l.849.002v1.345h-1.137c-.385 0-.715-.027-.989-.081a1.435 1.435 0 01-.665-.296 1.265 1.265 0 01-.376-.61c-.082-.262-.123-.61-.123-1.04V7.877h-1.54V6.532h1.54V3.753h1.488zm20.47 2.564c.595 0 1.09.084 1.487.251.397.168.718.4.963.7.245.299.417.654.516 1.066.099.413.149.87.149 1.372v6.097h-1.488V9.527c0-.574-.163-1.028-.49-1.363-.326-.335-.776-.502-1.347-.502-.455 0-.849.072-1.18.215-.333.144-.61.347-.832.61-.222.263-.388.57-.499.924a3.835 3.835 0 00-.166 1.156v5.236h-1.487v-9.27h1.4v1.47h.035c.617-1.124 1.597-1.686 2.94-1.686zM148.662 3v12.803H147V3h1.662zm102.833 0v1.434h-4.165v11.369h-1.662V4.434h-4.165V3h9.992zm-15.73 0v12.803h-1.488V3h1.487zM204.24 6.532v9.27h-1.487v-9.27h1.487zm-20.45-.215c.596 0 1.091.084 1.488.251.397.168.717.4.963.7.244.299.416.654.516 1.066.099.413.148.87.148 1.372v6.097h-1.487V9.527c0-.574-.163-1.028-.49-1.363-.327-.335-.776-.502-1.347-.502-.455 0-.849.072-1.181.215-.333.144-.61.347-.832.61-.221.263-.387.57-.498.924a3.835 3.835 0 00-.166 1.156v5.236h-1.488v-9.27h1.4v1.47h.035c.618-1.124 1.598-1.686 2.94-1.686zm-21.75-2.564v2.78h1.802v1.344h-1.802v5.756c0 .18.014.323.043.43a.442.442 0 00.166.252c.082.06.196.098.342.116.109.013.243.022.401.025l.85.002v1.345h-1.138a5.2 5.2 0 01-.988-.081 1.435 1.435 0 01-.665-.296 1.265 1.265 0 01-.376-.61c-.082-.262-.123-.61-.123-1.04V7.877h-1.54V6.532h1.54V3.753h1.488zm16.56 2.564v1.614c-.594 0-1.101.084-1.521.251a2.4 2.4 0 00-1.015.735 3.063 3.063 0 00-.56 1.175c-.117.46-.175.989-.175 1.586v4.125h-1.488v-9.27h1.4v1.954h.035c.362-.753.805-1.31 1.33-1.668.525-.358 1.19-.526 1.995-.502zm76.821 0v1.614c-.595 0-1.102.084-1.522.251-.42.168-.758.412-1.015.735a3.073 3.073 0 00-.56 1.175 6.49 6.49 0 00-.175 1.586v4.125h-1.487v-9.27h1.4v1.954h.035c.361-.753.805-1.31 1.33-1.668.524-.358 1.19-.526 1.994-.502zm13.55 1.345c-.501 0-.927.102-1.277.305a2.4 2.4 0 00-.84.807 3.56 3.56 0 00-.455 1.147c-.093.43-.14.873-.14 1.327 0 .43.055.852.166 1.264.111.413.28.78.508 1.103.227.323.519.58.875.771.355.191.773.287 1.25.287.502 0 .928-.101 1.278-.305.35-.203.636-.469.858-.798.22-.328.381-.702.48-1.12.1-.419.15-.843.15-1.274a5.47 5.47 0 00-.158-1.317 3.312 3.312 0 00-.499-1.121 2.57 2.57 0 00-.883-.78c-.362-.197-.8-.296-1.312-.296zm-58.913 0a2.577 2.577 0 00-1.995.915 3.258 3.258 0 00-.603 1.102 4.714 4.714 0 00-.22 1.497c0 .562.074 1.061.22 1.498.146.436.347.8.603 1.094a2.622 2.622 0 001.995.905 2.628 2.628 0 001.995-.905c.257-.294.458-.658.604-1.094a4.72 4.72 0 00.218-1.498c0-.561-.073-1.06-.218-1.497a3.258 3.258 0 00-.604-1.102 2.577 2.577 0 00-.901-.682 2.628 2.628 0 00-1.094-.233zm20.68 3.353c-.187.143-.433.247-.736.312-.202.044-.41.083-.626.116l-.327.045c-.333.042-.668.09-1.006.143a3.65 3.65 0 00-.91.258 1.651 1.651 0 00-.657.51c-.169.22-.253.52-.253.9 0 .25.05.46.148.633.1.173.228.313.385.42.158.107.342.184.552.232.21.047.431.071.665.071.49 0 .91-.068 1.26-.205.35-.137.635-.31.857-.518.221-.208.385-.434.49-.677.105-.244.157-.473.157-.688v-1.552zm31.061 0c-.187.143-.432.247-.735.312-.202.044-.41.083-.626.116l-.328.045c-.332.042-.667.09-1.006.143a3.65 3.65 0 00-.91.258 1.654 1.654 0 00-.656.51c-.169.22-.253.52-.253.9 0 .25.05.46.148.633.1.173.228.313.385.42.158.107.342.184.551.232.21.047.432.071.665.071.49 0 .91-.068 1.26-.205.35-.137.636-.31.858-.518.221-.208.385-.434.49-.677.104-.244.157-.473.157-.688v-1.552zm-67.47 0c-.186.143-.43.247-.734.312-.203.044-.411.083-.626.116l-.328.045c-.332.042-.668.09-1.006.143a3.65 3.65 0 00-.91.258 1.65 1.65 0 00-.656.51c-.17.22-.254.52-.254.9 0 .25.05.46.149.633.099.173.227.313.385.42.157.107.341.184.551.232.21.047.431.071.665.071.49 0 .91-.068 1.26-.205.35-.137.635-.31.857-.518.222-.208.385-.434.49-.677a1.75 1.75 0 00.158-.688v-1.552zm84.483-3.353c-.385 0-.732.069-1.04.206a2.4 2.4 0 00-.797.565c-.222.24-.397.517-.525.834a3.232 3.232 0 00-.228 1.013h5.198a3.184 3.184 0 00-.237-1.022 2.606 2.606 0 00-.542-.834 2.57 2.57 0 00-.805-.556 2.49 2.49 0 00-1.024-.206zm-110.383 0c-.385 0-.732.069-1.04.206-.31.138-.575.326-.797.565a2.71 2.71 0 00-.525.834 3.232 3.232 0 00-.227 1.013h5.197a3.184 3.184 0 00-.237-1.022 2.606 2.606 0 00-.542-.834 2.566 2.566 0 00-.805-.556 2.49 2.49 0 00-1.024-.206zM204.24 3v1.865h-1.487V3h1.487z"/>
    <path fill="#BF243A" fill-rule="nonzero" d="M0 20h2V0H0z"/>
  </g>
</svg>
