<?xml version="1.0" encoding="UTF-8"?>
<svg width="302px" height="143px" viewBox="0 0 302 143" version="1.1" xmlns="http://www.w3.org/2000/svg" xmlns:xlink="http://www.w3.org/1999/xlink">
    <title>Group 248</title>
    <defs>
        <polygon id="path-1" points="0 0.318987216 49.2751712 0.318987216 49.2751712 36.8890653 0 36.8890653"></polygon>
        <polygon id="path-3" points="0.327602635 0.212827694 30.3924779 0.212827694 30.3924779 28.9827925 0.327602635 28.9827925"></polygon>
    </defs>
    <g id="Pages" stroke="none" stroke-width="1" fill="none" fill-rule="evenodd">
        <g id="illustrations/people-on-phones" transform="translate(0.000000, -54.000000)">
            <g id="Group-248" transform="translate(0.000000, 54.000000)">
                <g id="Group-46" transform="translate(0.000000, 51.000000)">
                    <g id="Group-3" transform="translate(0.000000, 53.593750)">
                        <mask id="mask-2" fill="white">
                            <use xlink:href="#path-1"></use>
                        </mask>
                        <g id="Clip-2"></g>
                        <path d="M43.4835515,36.8890653 L5.79186442,36.8890653 C2.59322025,36.8890653 -0.000104907975,34.3085611 -0.000104907975,31.1253011 L-0.000104907975,6.08275142 C-0.000104907975,2.89949148 2.59322025,0.318987216 5.79186442,0.318987216 L43.4835515,0.318987216 C46.6821957,0.318987216 49.2751712,2.89949148 49.2751712,6.08275142 L49.2751712,31.1253011 C49.2751712,34.3085611 46.6821957,36.8890653 43.4835515,36.8890653" id="Fill-1" fill="#ED7768" mask="url(#mask-2)"></path>
                    </g>
                    <path d="M10.6459914,45.2192393 C11.5632368,46.7327408 13.9659791,44.0544453 15.1080773,43.8139695 C15.4427337,43.7433232 20.4450957,43.2578473 20.4101264,43.0128473 C20.2611571,41.9601129 20.1842245,41.1186214 20.0352552,40.0651911 C20.0586847,40.2308445 17.0513227,40.9536641 14.5499669,40.7772223 C14.0306724,40.7410291 13.4760589,40.7643459 13.0291509,41.0302266 C12.7193227,41.2146726 11.4300037,42.8913913 11.0736663,43.4816186 C10.873292,43.8139695 10.3221755,44.6853899 10.6459914,45.2192393" id="Fill-4" fill="#FFDC6A"></path>
                    <path d="M25.2330607,36.3813168 C23.7874288,37.9637244 16.9274963,38.2936392 16.6092755,38.8334048 C16.2281098,39.4793139 16.7488031,43.2914304 16.9079135,44.7948395 C16.9442816,45.1372827 17.2306804,45.3975952 17.5768767,45.3986392 C21.4934411,45.4125597 27.1972877,45.1912244 30.0770117,43.492233 C33.1057049,41.7048466 34.0694595,20.1998324 35.0884656,17.9144418 C32.5850117,17.9234901 29.8046006,19.14675 27.9001712,20.7155852 C26.6101528,21.7780639 25.7107417,23.2734688 25.5775086,24.9439233 C25.2330607,29.2547401 26.7731098,34.6952017 25.2330607,36.3813168" id="Fill-6" fill="#B2C6E7"></path>
                    <path d="M29.059719,83.0739666 C29.059719,83.0739666 29.1751178,85.0718999 28.5977742,86.5579084 C28.5977742,86.5579084 28.1347804,87.7338388 27.2476086,88.3498189 C27.0780074,88.4677947 26.9748479,88.6567649 26.9426761,88.8603516 C26.8590994,89.3879368 26.8248294,90.3070348 27.5588356,90.4518075 L34.434854,90.4706001 C34.434854,90.4706001 35.4412712,90.5830078 36.1070871,90.1274609 C36.4431423,89.8970774 36.543854,88.9992081 36.5053877,88.5951669 L36.2654982,86.9167081 L36.438946,83.6889027 L29.059719,83.0739666 Z" id="Fill-8" fill="#2E3272"></path>
                    <path d="M11.752281,83.7866591 C11.752281,83.7866591 12.4558638,85.958598 10.6727779,87.5639744 C9.45269816,88.6626463 6.83349571,88.5648551 6.83349571,88.5648551 C6.45372883,88.5721634 6.14285153,88.8874616 6.14285153,89.265402 L6.14285153,89.7821989 C6.14285153,90.1691875 6.45827485,90.4827457 6.84713374,90.4827457 L19.1346552,90.4827457 C19.4577718,90.4827457 19.719692,90.2224332 19.719692,89.9008707 L19.719692,88.7792301 L19.719692,83.7073125 L11.752281,83.7866591 Z" id="Fill-10" fill="#2E3272"></path>
                    <path d="M21.3096074,58.3420518 C21.413816,56.0375206 21.9477975,56.3329822 26.9316258,56.3016612 C34.0716626,56.2571158 46.2846994,55.8781314 46.2941411,55.2607592 C46.3333067,52.681995 47.1998466,41.6197578 46.2242025,41.6534378 C41.3253497,41.8216044 26.5420675,42.2816754 19.1502515,43.0476484 C16.6279141,43.309353 13.439411,43.3566825 11.6311472,45.1259723 C9.72426994,46.9920092 9.63195092,49.9695945 9.6641227,52.6311854 C9.74315337,59.1905036 9.73965644,78.2768388 9.8092454,85.4055036 C9.81588957,86.0959581 10.3813436,86.6461641 11.075135,86.6444281 C14.0209509,86.6378118 17.200362,86.5800419 20.1101595,86.5810859 C20.463,86.5814339 20.7486994,86.3047649 20.7591902,85.9539695 C20.8654969,82.4877763 21.2540061,59.5743601 21.3096074,58.3420518" id="Fill-12" fill="#4C53A0"></path>
                    <path d="M47.8331761,43.1464489 C47.7454031,43.1370526 41.8740534,43.1927344 37.5500963,43.6204403 C33.6331822,44.008125 29.4889675,44.313679 27.1435748,48.5597656 C26.3480227,49.9998366 25.9693049,51.6320099 25.9301393,53.2749716 L26.036446,84.7884446 C26.0140656,85.7360795 26.7840902,86.5135369 27.7363049,86.5055939 L36.7492988,86.425142 C37.4965933,86.4188778 38.1008632,85.8185582 38.1096055,85.074858 L38.3323601,59.1622798 C38.3606853,56.7004474 40.3409982,56.2758736 42.3094215,56.1933949 C43.0472742,56.1624219 44.4768202,56.1763423 45.1282988,56.1251847 C45.513311,56.0945597 45.8885319,56.0479261 46.248716,55.9640554 C47.0456669,55.7792614 47.7698816,55.4141974 48.3685564,54.6503125 C50.3173969,52.1623793 49.8015994,48.3105895 49.4784828,45.2268608 C49.3088816,43.610348 49.2511822,43.3013139 47.8331761,43.1464489" id="Fill-14" fill="#7C5AA1"></path>
                    <path d="M32.1524761,18.6323892 C35.3357337,16.8265582 43.1894945,17.3437031 46.769654,18.5506065 C48.2953656,19.0649673 50.7848319,20.0554077 51.3894515,21.1941009 C51.9846294,22.3157415 50.0658626,40.5623253 49.6570712,41.4807273 C48.6314209,43.7852585 41.4728503,44.4767571 31.0044331,42.8602443 C27.6554209,42.3430994 30.0854393,19.8051875 32.1524761,18.6323892" id="Fill-16" fill="#B2C6E7"></path>
                    <path d="M33.574154,11.1992493 C33.6444423,11.3513303 33.8811847,13.0976513 33.9679086,13.24312 C34.4403442,14.0355419 40.4582153,15.9332479 41.0572399,14.9915291 C41.6793442,14.0132692 42.308792,11.7195263 41.9611969,10.6232905 C41.6968288,9.78806321 40.8603626,9.29214702 40.1036264,8.84495241 C39.5696448,8.52930611 38.8908902,8.12526491 38.6076387,7.54547798 C38.2764791,6.86720384 38.791927,6.70711861 38.7282828,6.11758736 C38.7125466,5.97420668 38.5737184,5.87954759 38.4450313,5.81342543 C37.3753196,5.26217543 36.0262031,5.28966832 34.9802706,5.88372372 C33.1174546,6.94098224 32.7219515,9.35618111 33.574154,11.1992493" id="Fill-18" fill="#ED7768"></path>
                    <path d="M40.7997258,18.7465717 C41.0207319,18.1309396 40.952192,17.3865433 40.8532288,16.6967848 C40.6378178,15.1885036 40.6560018,13.4011172 40.0741123,11.9965433 C39.9286399,11.6457479 39.1173515,9.52635866 38.5368607,9.73098935 C37.4314804,10.1211101 36.8450448,12.1688089 36.4803147,13.1328004 C36.2334313,13.7856697 35.9120632,14.4131342 35.9914436,15.1088089 C36.1316706,16.3404212 36.3051184,17.5689013 36.461781,18.7984254 C36.4939528,19.0514297 36.5285724,19.3110462 36.650965,19.5351655 C37.1485785,20.4462592 39.1872902,20.1180845 39.9240939,19.735272 C40.3877871,19.4947962 40.6553025,19.1481768 40.7997258,18.7465717" id="Fill-20" fill="#FFDC6A"></path>
                    <path d="M35.0603503,15.2776989 C35.1589638,15.7429901 35.2866018,16.385071 35.6856018,16.7003693 C36.1045344,17.0320241 36.7979761,17.0671733 37.3120252,17.026804 C38.1533871,16.9606818 39.0828718,17.0511648 39.494111,16.2110653 C39.7696693,15.6472869 40.0445282,14.9213352 40.1137675,14.2221804 C40.212381,13.2199077 40.5910988,12.2423437 40.5243074,11.2247585 C40.4326877,9.830625 39.4252215,9.50662642 38.2303196,9.18019176 C37.3753196,8.94702415 36.4857,8.83705256 35.5992276,8.86036932 C35.3082828,8.86802557 34.6627491,8.96303267 34.4039761,9.095625 C33.5293933,9.54351562 34.8708166,14.3836577 35.0603503,15.2776989" id="Fill-22" fill="#FFDC6A"></path>
                    <path d="M33.9337436,10.002473 C34.0484429,10.3282116 34.3750564,10.5446747 34.8635779,10.5958324 C35.6126209,10.674483 36.3777497,10.7764503 37.0470626,11.1206335 C37.7160258,11.4644687 38.2811301,12.0995895 38.3388294,12.8471179 C38.3524675,13.0078991 39.7963509,13.2880483 39.9732957,13.4108963 C40.4135595,13.7161023 40.5656761,14.2729205 40.8136086,14.7448239 C40.6016945,14.3414787 41.0010442,13.1415355 41.0118847,12.6884247 C41.0402098,11.4996179 41.4517988,10.6908395 40.5632282,9.61478835 C40.0264491,8.96435511 39.2599215,8.53316903 38.4580748,8.2655483 C37.2855534,7.87403551 36.0651239,7.5917983 34.9530994,8.27633665 C34.6653018,8.45312642 34.2687497,8.7249233 34.0984491,9.02560511 C33.8868847,9.40319744 33.8410748,9.7386804 33.9337436,10.002473" id="Fill-24" fill="#ED7768"></path>
                    <polygon id="Fill-26" fill="#FFDC6A" points="39.4973982 34.038017 32.2594472 28.8324631 32.971073 32.779956 38.5920423 36.5346506"></polygon>
                    <path d="M34.8306718,35.7230185 L31.4410951,35.005767 C31.1987577,34.9549574 31.0088742,34.7677273 30.9550215,34.5269034 L28.594592,25.5266335 C28.4963282,25.0860511 29.2058558,24.5894389 29.6520644,24.6719176 L33.0734632,25.3052983 C33.3238436,25.3515838 33.5217699,25.5429901 33.5759724,25.7907741 L35.5804141,34.973402 C35.6779785,35.4199006 35.2800276,35.8176776 34.8306718,35.7230185" id="Fill-28" fill="#F19CC2"></path>
                    <path d="M34.3925411,36.0581186 L31.0029644,35.3412152 C30.760627,35.2900575 30.5707436,35.1028274 30.5168908,34.8623516 L28.480627,25.7632464 C28.3820135,25.3223161 28.7680748,24.9245391 29.2139337,25.0073658 L32.6353325,25.6403984 C32.8857129,25.687032 33.0836393,25.8784382 33.1378417,26.1262223 L35.1426331,35.3088501 C35.2398479,35.7553487 34.8418969,36.1531257 34.3925411,36.0581186" id="Fill-30" fill="#2E3272"></path>
                    <path d="M34.7395067,32.4852251 C33.4701202,32.2297848 31.1191325,31.5094013 31.0764699,32.7977393 C31.0428994,33.8250689 32.7252736,36.5628743 33.602654,37.10438 C34.4800344,37.6465817 35.5168748,37.8599126 36.532384,38.0457507 C37.5482429,38.2312408 38.5864822,38.4042024 39.5016294,38.8799339 C39.7362736,37.9451754 39.9705681,37.0111129 40.2048626,36.0767024 C40.192973,36.12438 35.8760098,32.7138686 34.7395067,32.4852251" id="Fill-32" fill="#FFDC6A"></path>
                    <path d="M47.8261822,18.9607031 C49.4176362,19.4517472 51.1332313,20.7435653 51.8906669,21.5213707 C54.3462129,24.0427131 54.6885626,26.9165909 55.5568509,30.7398438 C56.8272865,36.3334304 58.7953601,43.6047798 53.2086607,44.6474219 C51.3605319,44.9923011 48.8357466,44.4925568 48.437446,44.436875 C44.176084,43.8421236 37.1168264,39.9311719 36.8234337,38.924027 C36.4594031,37.6732741 36.8087466,36.6866619 37.4371454,35.2319744 C37.792084,34.4099716 38.5544153,32.9103906 39.2048448,33.0408949 C39.9724215,33.1947159 45.3521025,35.5218679 47.5663601,35.9930753 C47.3348632,33.8528054 44.5621454,19.844652 45.3986117,19.1684659 C46.0266607,18.6610653 46.9054399,18.6767259 47.8261822,18.9607031" id="Fill-34" fill="#B2C6E7"></path>
                    <path d="M49.4405311,44.8579687 C44.0121479,44.0533665 36.9882092,40.1145739 36.6553012,38.9727486 C36.2828779,37.6920668 36.7546141,36.4691548 37.1707491,35.3899716 L37.1966264,35.3228054 C37.2071172,35.2956605 38.3506141,32.6960156 39.2395344,32.8700213 C39.5448166,32.9312713 40.4484239,33.2820668 41.698927,33.7682386 C43.1973626,34.3508097 45.0626264,35.0753693 46.4708411,35.5142116 C46.7247184,35.5942543 46.9890865,35.5434446 47.1964546,35.3770952 C47.4027736,35.2107457 47.5073319,34.9650497 47.4828534,34.7026491 C47.3573135,33.3530611 46.9366325,32.0508026 46.3540436,30.2487997 C46.066246,29.3592827 45.7399822,28.3503977 45.3923871,27.1581108 C45.3654607,27.0655398 45.4186141,26.9691406 45.5116325,26.9423438 C45.6039515,26.9148509 45.7011663,26.9684446 45.7280926,27.0606676 C46.0746387,28.2484304 46.3998534,29.2545313 46.6866018,30.1423082 C47.2761847,31.9655398 47.702111,33.2827628 47.8311479,34.6709801 C47.8657675,35.0457884 47.7108534,35.4108523 47.416062,35.6475 C47.1209209,35.8851918 46.728565,35.9593182 46.3662828,35.8465625 C44.9465282,35.403892 43.0753196,34.6765483 41.5719883,34.0922372 C40.4309393,33.6492188 39.4458534,33.2664063 39.1702951,33.2110724 C38.7489147,33.135206 37.7973994,34.7371023 37.5232399,35.4470455 L37.4970129,35.5145597 C37.1008104,36.5422372 36.6514546,37.7073793 36.9913564,38.8760014 C37.257473,39.7895313 43.3047184,43.4213778 49.4114117,44.5920881 C49.4547736,44.6004403 49.437289,44.6561222 49.4355405,44.7142401 C49.4334423,44.7841903 49.4414853,44.8579687 49.4405311,44.8579687" id="Fill-36" fill="#4C53A0"></path>
                    <path d="M31.9714748,43.3789205 C31.298665,43.3789205 30.2443399,42.7187429 29.978573,42.1264276 C29.7561681,41.6298153 29.7407816,40.9101278 29.7285423,40.332081 L29.7225975,40.0909091 L29.6271313,36.9132173 C29.6243337,36.8175142 29.7002172,36.7371236 29.7967325,36.7339915 C29.8939472,36.7357315 29.9736773,36.8067259 29.9768245,36.903125 L30.0782356,40.3251207 C30.0897755,40.8714986 30.1041129,41.5518608 30.2978429,41.9844389 C30.5083583,42.4539063 30.9884871,42.9999361 31.9833644,43.0309091 C32.0805791,43.0340412 32.1596098,43.1057315 32.1610086,43.2017827 C32.1627571,43.2981818 32.0861742,43.3771804 31.9893092,43.3789205 L31.9714748,43.3789205 Z" id="Fill-38" fill="#4C53A0"></path>
                    <path d="M43.3242313,26.5557727 C42.1282804,26.6720085 41.4715564,26.7231662 41.3460166,26.7349986 C40.9557589,26.7701477 40.5147957,26.6633082 40.1420227,26.8073849 C40.1458693,27.0502969 40.1857344,27.2702401 40.1752436,27.514544 C40.5696975,27.4595582 40.9700963,27.4425057 41.3669982,27.422321 C42.0356117,27.3885639 42.7028264,27.3200057 43.364446,27.2176903 C43.3564031,27.2190824 43.3567528,26.5519446 43.4368325,26.5456804 C43.3990656,26.5488125 43.3616485,26.5522926 43.3242313,26.5557727" id="Fill-40" fill="#4C53A0"></path>
                    <path d="M1.33201656,14.5565149 C0.691028834,13.1724737 0.412323313,11.6558402 0.685783436,10.0709964 C1.39356258,5.96794247 4.72718834,2.72343253 8.49618221,1.20888707 C14.5728018,-1.23380469 21.1358448,0.820158381 23.1553233,5.79602486 C24.2547589,8.50529332 23.7232252,11.5396044 22.2146485,13.9826442 C21.3911209,15.3158757 20.2937834,16.4751016 19.0397834,17.4161243 C17.5836607,18.5081839 14.4248816,18.693674 15.4260534,21.2101442 C15.6040472,21.6573388 16.2380411,22.0801726 16.7031331,22.5050945 C16.9405748,22.7219055 16.7639798,23.1182905 16.443311,23.0873175 C13.4663724,22.797424 9.83305951,21.7220689 7.2998816,20.4156342 C4.8747589,19.1645334 2.5010411,17.0809893 1.33201656,14.5565149" id="Fill-42" fill="#F19CC2"></path>
                    <path d="M7.11013804,12.1386016 L10.4605491,15.5494609 C10.7805184,15.8675433 11.214138,16.0464212 11.6662914,16.0464212 C12.2772055,16.0464212 12.8416104,15.7213786 13.1454939,15.1941413 L19.0832853,4.89752912 L17.0812914,5.08893537 L11.8068681,11.9471953 L10.0339233,9.67676918 C9.41391718,8.81056889 8.20292945,8.61463849 7.33883742,9.2396669 C6.38382515,9.93116548 6.27542025,11.3075504 7.11013804,12.1386016" id="Fill-44" fill="#FFDC6A"></path>
                </g>
                <g id="Group-91" transform="translate(62.000000, 27.000000)">
                    <path d="M43.9778169,114.999861 L6.02535211,114.999861 C2.80457746,114.999861 0.193309859,112.415845 0.193309859,109.228255 L0.193309859,62.5856485 C0.193309859,59.3977091 2.80457746,56.8133455 6.02535211,56.8133455 L43.9778169,56.8133455 C47.1985915,56.8133455 49.8098592,59.3977091 49.8098592,62.5856485 L49.8098592,109.228255 C49.8098592,112.415845 47.1985915,114.999861 43.9778169,114.999861" id="Fill-47" fill="#F19CC2"></path>
                    <path d="M32.3694366,78.8625742 C32.3694366,78.8625742 31.68,80.24815 31.914507,81.1517712 C32.2412676,82.4143318 35.3796479,82.4707864 35.3796479,82.4707864 C35.708169,82.5554682 35.9377465,82.8488924 35.9377465,83.1851803 L35.9377465,83.5214682 C35.9377465,83.9291955 35.6039437,84.2595591 35.1919718,84.2595591 L26.6810563,84.2595591 C26.4888028,84.2595591 26.333169,84.1055288 26.333169,83.9156045 L27.3254225,78.8813924 L32.3694366,78.8625742 Z" id="Fill-49" fill="#2E3272"></path>
                    <path d="M39.1433099,78.8625742 C39.1433099,78.8625742 38.4538732,80.24815 38.6880282,81.1517712 C39.0151408,82.4143318 42.153169,82.4707864 42.153169,82.4707864 C42.4820423,82.5554682 42.7116197,82.8488924 42.7116197,83.1851803 L42.7116197,83.5214682 C42.7116197,83.9291955 42.3778169,84.2595591 41.9658451,84.2595591 L33.4545775,84.2595591 C33.2626761,84.2595591 33.1070423,84.1055288 33.1070423,83.9156045 L34.0992958,78.8813924 L39.1433099,78.8625742 Z" id="Fill-51" fill="#2E3272"></path>
                    <path d="M42.633662,46.2098227 C43.6730986,46.4614288 45.1421127,47.2190348 45.8442254,48.3348833 C46.8403521,49.9183985 46.8276761,53.2007773 45.4072535,57.4177924 C43.8738028,61.970747 42.5667606,68.4469894 39.7005634,79.4413379 C39.6037324,79.8149136 39.3505634,80.1247167 38.9611268,80.1247167 C37.6685211,80.1243682 35.1966901,80.2341409 33.9083099,80.2358846 C33.4910563,80.2365803 32.9752113,79.9466409 33.0533803,79.5410045 C35.3558451,67.5817015 37.1037324,60.8778985 37.9005634,52.9258227 C33.0998592,52.2096864 28.8797887,52.6031258 24.2480986,51.400853 C22.5033803,50.9481712 17.7378873,45.2392924 19.3100704,42.9629894 C20.4484507,41.3143076 37.7195775,45.0207924 42.633662,46.2098227" id="Fill-53" fill="#4C53A0"></path>
                    <path d="M15.0072535,42.96285 C13.2202817,42.7342439 12.9716901,42.6021682 12.0294366,44.0236379 C10.115,46.9122288 8.6484507,50.9469864 10.0083099,54.049547 C10.6551408,55.5257288 11.8023239,56.7419409 19.0072535,57.1336379 C22.3790845,57.3165924 29.2921127,57.1472288 29.2921127,57.1472288 C29.2921127,57.1472288 27.0797887,71.5825167 26.2037324,79.3791682 C26.1628873,79.7436833 26.5044366,80.0426833 26.8621831,80.1378197 C27.8234507,80.3922136 29.8829577,80.7605621 32.5280282,80.2169258 C32.8646479,80.1479258 33.0248592,79.8496227 33.1079577,79.5189106 C36.0111268,68.0143803 38.4695775,59.1747136 39.780493,53.5790924 C40.8396479,49.0588955 37.7914085,48.276547 35.7153521,47.6276682 C30.6315493,46.0389258 19.5061972,43.538547 15.0072535,42.96285" id="Fill-55" fill="#B2C6E7"></path>
                    <path d="M19.5931338,8.27195 C20.4677817,8.53958636 21.2808099,9.18184394 21.8448944,9.87672273 C22.4410211,10.6113288 22.8022887,11.4989197 22.9417254,12.4283288 C23.0318662,13.0287682 23.0265845,13.6379197 22.9667254,14.2407985 C22.8875,15.0360409 22.3963028,15.4977833 22.1882042,16.253647 C21.8931338,17.3248894 22.1568662,18.4327227 21.9892606,19.5161621 C21.8160211,20.6316621 21.4540493,21.7635409 21.2227113,22.8825258 L9.37447183,22.6441621 C9.44207746,22.6455561 9.81919014,21.0453136 9.84876761,20.9400712 C10.1452465,19.8813742 10.2885563,19.4015106 11.0864437,18.5745561 C11.4892606,18.1574197 11.8691901,17.6489803 11.8603873,17.0718894 C11.8505282,16.44845 11.3857394,15.8901773 11.4114437,15.2670864 C11.4427817,14.5199348 12.1385563,13.9992985 12.5614437,13.3796924 C13.047007,12.6687833 12.9290493,11.8007076 13.1551056,11.0173136 C13.5026408,9.81399545 14.6751761,8.75529848 15.7772887,8.1984197 C17.1248239,7.51713182 18.2519366,7.86178333 19.5931338,8.27195" id="Fill-57" fill="#2E3272"></path>
                    <path d="M29.2817606,27.0467455 C28.8120423,25.4147909 28.1866901,23.8337152 27.0711972,22.5206242 C26.2940845,21.605503 25.2842254,20.893897 24.1972535,20.3826697 C23.1880986,19.9083818 21.9271831,19.5912606 20.8521831,19.3023667 C20.2546479,19.1417152 19.2937324,18.9521394 18.858169,19.3292 C17.9187324,20.1443061 23.1314085,30.3444576 24.4278873,32.9382303 C25.6690845,35.4204879 29.0035915,42.3692758 32.6152113,40.3909273 C33.1648592,40.0898364 33.626831,39.5590939 33.670493,38.9387909 C33.7085211,38.3989879 33.4338732,37.8915939 33.1676761,37.4190485 C31.7722535,34.9409727 30.6574648,32.5308515 29.9740141,29.7597 C29.7532394,28.8640939 29.5409155,27.9475788 29.2817606,27.0467455" id="Fill-59" fill="#7C5AA1"></path>
                    <path d="M10.8816197,29.4852682 C10.6270423,28.3864955 9.35415493,21.6670106 11.0467606,20.4915712 C12.9245775,19.1878894 17.3745775,18.5818742 19.5140141,19.0049348 C20.8369014,19.266647 21.0048592,19.4687682 21.7115493,19.9786015 C23.0840845,20.9689955 24.1619014,22.3549197 25.1147183,23.6962379 C26.1154225,25.1051621 26.8111972,26.7866015 26.748169,28.5074197 C26.6752817,30.5056318 25.4534507,32.3174045 25.3548592,34.2588136 C25.223169,36.8612985 25.676338,38.8072379 25.7985211,41.425753 C25.8985211,43.5717227 25.1780986,43.8041621 23.2675352,44.0683136 C21.6509859,44.2913439 19.754507,44.3662682 18.1228169,44.4181924 C17.7143662,44.4310864 11.7073239,44.4600106 11.7185915,44.2028288 C11.7837324,42.7273439 12.4161268,41.1985409 12.466831,39.6516167 C12.5425352,37.3408136 12.3217606,35.0122379 11.7383099,32.7711318 C11.454507,31.6814197 11.1369014,30.5868288 10.8816197,29.4852682" id="Fill-61" fill="#7C5AA1"></path>
                    <path d="M6.81253521,26.2149818 C5.8928169,29.0303909 5.39774648,30.8568 4.72978873,33.4617242 C4.15056338,35.7195576 3.27908451,38.9785879 4.61042254,41.1970424 C5.14105634,42.081497 6.01816901,42.7098152 6.93049296,43.2018758 C7.92133803,43.736103 11.9752113,45.5795879 12.5794366,45.3164818 C12.9590141,45.1513 14.6519718,42.264103 15.4012676,41.3576939 C15.6727465,41.0294212 15.5734507,40.5377091 15.193169,40.3422091 C13.7209859,39.5849515 10.9892958,38.6468303 10.6808451,37.8550727 C10.4319014,37.2159515 10.4973944,36.5019061 10.6178169,35.8275879 C11.055493,33.3749515 12.1509155,30.9007091 13.5678169,28.8446485 C14.6882394,27.2193152 16.3121831,25.3472545 16.1688732,23.2350879 C16.065,21.7094212 15.2340141,20.0206636 13.7157042,19.7383909 C11.7597183,19.3745727 9.60549296,21.0420727 8.50267606,22.4938606 C7.68260563,23.5734667 7.24880282,24.8792394 6.81253521,26.2149818" id="Fill-63" fill="#7C5AA1"></path>
                    <path d="M17.9291901,22.2974197 C19.0390493,23.1424955 20.716162,24.1935258 21.2228521,23.9363439 C21.7545423,23.7694197 20.6591197,21.8287076 20.166162,20.8452833 C19.6728521,19.8618591 19.2665141,18.7913136 19.2953873,17.6939348 C19.3084155,17.2032682 19.4182746,15.2406015 19.4182746,15.2406015 L15.6080634,14.7743288 C15.6080634,14.7743288 15.5876408,17.0046318 15.557007,18.0312682 C15.5284859,18.9767076 15.4383451,19.6600864 16.1144014,20.4452227 C16.1503169,20.4866924 17.1732042,21.7220712 17.9291901,22.2974197" id="Fill-65" fill="#FFDC6A"></path>
                    <path d="M19.1689789,9.7244 C19.1689789,9.7244 21.2957394,9.92652121 21.087993,13.5755061 C21.007007,15.4064455 19.8094718,18.1605212 17.5728521,17.2826879 C15.8260211,16.5972182 16.0386972,14.2763091 16.3200352,12.7318242 C16.6013732,11.1866424 17.4337676,9.64424848 19.1689789,9.7244" id="Fill-67" fill="#FFDC6A"></path>
                    <path d="M20.1811268,9.78022727 C20.1811268,9.78022727 19.8497887,11.6683182 15.9649296,15.5211667 L13.8001408,17.8100152 L12.7656338,16.4429091 C12.7656338,16.4429091 16.1473239,8.28487879 16.3680986,8.40789394 C16.5892254,8.53056061 20.1811268,9.78022727 20.1811268,9.78022727" id="Fill-69" fill="#2E3272"></path>
                    <path d="M15.4752465,41.2287894 C15.439331,41.2221682 15.4034155,41.2162439 15.3675,41.2113652 C14.2160915,41.0482742 12.9660915,41.8686076 13.1273592,43.1172288 C13.1636268,43.3995015 13.2773592,43.7026833 13.5336972,43.8319712 C13.6879225,43.9096833 13.8685563,43.9114258 14.0417958,43.9117742 C16.002007,43.9131682 17.9604577,43.929547 19.9203169,43.9786833 C20.2449648,43.987047 21.061162,44.1386379 21.1308803,43.675153 C21.1629225,43.4632742 20.9055282,43.0241833 20.7699648,42.8652742 C20.5048239,42.5558197 19.9618662,42.4540621 19.5794718,42.4066682 C19.1277113,42.3509106 18.6618662,42.3463803 18.2150352,42.2731985 C17.7227817,42.1926985 17.2618662,41.9484106 16.8189085,41.7333955 C16.3875704,41.5236076 15.9463732,41.3155621 15.4752465,41.2287894" id="Fill-71" fill="#FFDC6A"></path>
                    <path d="M25.5139085,33.6899121 C25.4987676,33.6899121 25.4832746,33.6881697 25.4677817,33.6839879 C25.3741197,33.658897 25.3184859,33.5630636 25.343838,33.4703667 C25.3998239,33.2647606 25.4417254,33.0657758 25.4836268,32.8681848 C25.5491197,32.5569879 25.6170775,32.2349879 25.7385563,31.898003 C26.2635563,30.4413364 26.5755282,29.2589273 26.5089789,27.8660333 C26.4491197,26.6181091 26.0632042,25.4287303 25.3283451,24.2309879 C25.277993,24.1490939 25.3044014,24.0417606 25.3875,23.9919273 C25.4705986,23.9420939 25.5794014,23.9682303 25.6294014,24.0504727 C26.3952465,25.2990939 26.7980634,26.5417909 26.8607394,27.8496545 C26.9297535,29.2948212 26.5945423,30.5601697 26.0702465,32.0150939 C25.9568662,32.3294273 25.8945423,32.6259879 25.827993,32.9396242 C25.7850352,33.1434879 25.7413732,33.3487455 25.6836268,33.5609727 C25.6625,33.6386848 25.5913732,33.6899121 25.5139085,33.6899121" id="Fill-73" fill="#2E3272"></path>
                    <path d="M11.8012676,31.9980182 C11.7829577,31.9980182 11.7642958,31.9952303 11.7456338,31.9893061 C11.6533803,31.9586394 11.6033803,31.8600182 11.6340141,31.7687152 C12.1854225,30.1280485 12.6135915,29.0846848 13.8371831,26.8700636 C13.883662,26.7853818 13.9903521,26.7543667 14.0759155,26.8007152 C14.1611268,26.8467152 14.1928169,26.9526545 14.1459859,27.0369879 C12.9354225,29.2282606 12.5128873,30.2587303 11.9685211,31.8788364 C11.9438732,31.9520182 11.8748592,31.9980182 11.8012676,31.9980182" id="Fill-75" fill="#2E3272"></path>
                    <path d="M22.6638028,45.074703 L22.6638028,34.3615818 C22.6638028,33.7952939 23.1275352,33.3359909 23.6997183,33.3359909 L38.651831,33.3359909 C39.2243662,33.3359909 39.6880986,33.7952939 39.6880986,34.3615818 L39.6880986,44.0491121 C39.6880986,44.6157485 39.2243662,45.074703 38.651831,45.074703 L22.6638028,45.074703 Z" id="Fill-77" fill="#ED7768"></path>
                    <path d="M14.3604577,44.6680212 L14.3604577,44.1233394 C14.3604577,43.8985667 14.5442606,43.7166576 14.7713732,43.7166576 L29.8963732,43.7166576 L29.8963732,45.074703 L14.7713732,45.074703 C14.5442606,45.074703 14.3604577,44.8927939 14.3604577,44.6680212" id="Fill-79" fill="#ED7768"></path>
                    <polygon id="Fill-81" fill="#FEFEFE" points="31.4155634 40.3774758 33.1388028 41.2737788 32.8095775 39.3752333 34.2032394 38.0304303 32.2771831 37.7533848 31.4155634 36.025597 30.5539437 37.7533848 28.6275352 38.0304303 30.0215493 39.3752333 29.6923239 41.2737788"></polygon>
                    <path d="M36.4154577,0.329457576 C30.6967958,0.329457576 26.0608803,3.18494242 26.0608803,6.70777576 C26.0608803,8.13691212 26.850669,9.39842727 27.8953873,10.3323667 C29.1534859,11.4565788 31.6063028,12.1828212 30.8953873,14.3517909 C30.7809507,14.7013212 30.5777817,15.0215788 30.3136972,15.2794576 C30.1225,15.4662455 29.7225,15.6237606 29.7098239,15.9387909 C29.6953873,16.2966848 30.1728521,16.1782 30.4098239,16.1325485 C31.1559507,15.9889727 31.7872887,15.5293212 32.4077113,15.1215939 C33.1154577,14.6567152 33.7225,14.1256242 34.5323592,13.8220939 C35.7781338,13.3551242 37.2246127,13.2380333 38.5263732,13.0237152 C39.9689789,12.786397 41.3925704,12.3967909 42.7147535,11.7705636 C44.7140493,10.8230333 46.7700352,9.0872303 46.7700352,6.70777576 C46.7700352,3.18494242 42.1341197,0.329457576 36.4154577,0.329457576" id="Fill-83" fill="#ED7768"></path>
                    <path d="M30.6054225,5.10136515 L30.6114085,5.10136515 L41.6212676,4.92677424 C41.8156338,4.92363788 41.9709155,4.76507727 41.9677941,4.57236515 C41.9645775,4.38000152 41.7952113,4.22945606 41.61,4.22980394 L30.5997887,4.40439545 C30.4054225,4.40753182 30.250493,4.56609242 30.253272,4.75845606 C30.2564789,4.94907727 30.4135211,5.10136515 30.6054225,5.10136515" id="Fill-85" fill="#FEFEFE"></path>
                    <path d="M41.6926761,6.4134803 L41.6884507,6.4134803 L30.6014789,6.53858636 C30.4071127,6.54067727 30.2511268,6.69854091 30.2535627,6.89090455 C30.2557042,7.08187424 30.4127465,7.23555606 30.6053521,7.23555606 L30.6095775,7.23555606 L41.6965493,7.11045 C41.8909155,7.10835909 42.0469014,6.95049545 42.0448099,6.75813182 C42.0423239,6.56681364 41.8852817,6.4134803 41.6926761,6.4134803" id="Fill-87" fill="#FEFEFE"></path>
                    <path d="M37.1176408,8.71299242 C36.4732746,8.71299242 35.8285563,8.70776515 35.1820775,8.70253788 C33.6898239,8.69068939 32.1465141,8.67814394 30.5933451,8.73181061 C30.3989789,8.73843182 30.2468662,8.8997803 30.2535563,9.09214394 C30.2602465,9.28032576 30.4165845,9.42843182 30.6053169,9.42843182 C30.6095423,9.42843182 30.6137676,9.42843182 30.617993,9.42843182 C32.1563732,9.37511364 33.6915845,9.38765909 35.1764437,9.39950758 C35.8246831,9.40473485 36.4715141,9.40996212 37.1176408,9.40996212 C37.312007,9.40996212 37.4697535,9.25384091 37.4697535,9.06147727 C37.4697535,8.86911364 37.312007,8.71299242 37.1176408,8.71299242" id="Fill-89" fill="#FEFEFE"></path>
                </g>
                <g id="Group-164" transform="translate(93.000000, 58.000000)">
                    <path d="M74.8554312,83.9998612 L37.0606909,83.9998612 C33.8533013,83.9998612 31.2528857,81.4260595 31.2528857,78.2510678 L31.2528857,13.8320926 C31.2528857,10.6571008 33.8533013,8.08329917 37.0606909,8.08329917 L74.8554312,8.08329917 C78.0628208,8.08329917 80.6628857,10.6571008 80.6628857,13.8320926 L80.6628857,78.2510678 C80.6628857,81.4260595 78.0628208,83.9998612 74.8554312,83.9998612" id="Fill-92" fill="#4C53A0"></path>
                    <path d="M5.72151039,73.7344364 C5.87614675,73.5310314 6.06584805,73.3043702 6.30428961,73.1627504 C6.45331558,73.0735438 6.61391299,73.0270314 6.76188701,73.0270314 C6.83657532,73.0270314 6.90740649,73.038486 6.97227662,73.0624364 C7.16162727,73.132205 7.29487403,73.3314446 7.26296494,73.497362 C7.22123766,73.7101388 6.96210779,73.862519 6.68754935,73.9961554 C6.15035455,74.2571802 5.61175714,74.5157752 5.07140649,74.7715934 C5.25584805,74.4078248 5.47325065,74.0610645 5.72151039,73.7344364 M7.36184805,74.8437917 C7.38183506,74.8514281 7.39866623,74.8601058 7.40918571,74.8687835 C7.39551039,74.9732628 7.29312078,75.022205 6.90565325,75.0721884 L6.81238052,75.0846843 C6.37687403,75.145081 5.93961429,75.1617421 5.50480909,75.132238 C6.21312078,74.8778083 7.0367961,74.718486 7.36184805,74.8437917 M4.7424974,75.5324529 C5.44940649,75.6570645 6.16753636,75.6699074 6.88215974,75.5695934 L6.96947143,75.5581388 C7.28540649,75.5175273 7.94287403,75.4328331 7.9043026,74.7927669 C7.90325065,74.7715934 7.89904286,74.7504198 7.89238052,74.7309818 C7.85661429,74.6223372 7.76684805,74.4751636 7.54278312,74.3880397 C7.43057532,74.343957 7.29206883,74.3207008 7.13602987,74.3151471 C7.43232857,74.1450645 7.68269221,73.9281223 7.74861429,73.5896926 C7.82610779,73.1894777 7.56066623,72.7559405 7.14409481,72.6032132 C6.80992597,72.4810314 6.40106883,72.5327504 6.04901688,72.7427504 C5.73834156,72.9277587 5.50936753,73.1988496 5.32632857,73.439395 C5.05667922,73.794486 4.82139351,74.1710975 4.62222468,74.5661058 C4.53070519,73.5466512 4.42515974,72.4983868 3.73402987,71.6837256 C2.38017273,70.0866843 0.578887013,70.3799901 0.502445455,70.3928331 C0.384276623,70.4136595 0.298016883,70.5150149 0.298016883,70.6337256 L0.298016883,83.9997917 L12.0058481,83.9997917 C12.0058481,83.9997917 12.1657442,78.773395 11.8831208,78.550205 L7.32958831,78.550205 C4.96340649,78.4019901 4.81683506,76.1440562 4.73092597,75.5647339 C4.73162727,75.5633455 4.73232857,75.561957 4.73267922,75.5602215 C4.73618571,75.5508496 4.73934156,75.5414777 4.7424974,75.5324529" id="Fill-94" fill="#4C53A0"></path>
                    <path d="M1.95220519,83.9998612 L1.95851688,70.5119603 C1.95045195,70.4918281 2.44732208,70.6396959 2.44732208,70.7004397 L2.44732208,83.9998612 L1.95220519,83.9998612 Z" id="Fill-96" fill="#FEFEFE"></path>
                    <path d="M37.7062714,76.1967124 L44.1143883,60.1468116 C44.1143883,60.1468116 46.044713,56.7076711 50.0592974,58.4654231 L69.3611416,67.407605 L60.2505701,77.8781008 L50.6771416,69.3944479 L48.5153883,74.9738529 L37.7062714,76.1967124 Z" id="Fill-98" fill="#ED7768"></path>
                    <path d="M60.6493286,70.0921686 C60.5185364,70.025524 60.3877442,69.9585322 60.2566013,69.8915405 C59.0496662,69.2733421 57.8223935,68.6346645 56.5912636,67.9786314 C56.4794065,67.9189289 56.3675494,67.8592264 56.2553416,67.799524 C55.3794195,67.3305818 54.5020948,66.8533091 53.6293286,66.3687471 C53.4890688,66.290995 53.3491597,66.2125488 53.2089,66.1344496 C52.2256792,65.5846314 51.2494714,65.0257884 50.2893935,64.4593091 C49.6256143,64.068119 48.854887,63.7123339 48.1714714,64.0365322 C47.707913,64.2562512 47.4505364,64.7203339 47.2257701,65.1771273 C47.0465883,65.5429785 46.8695104,65.9164661 46.6941857,66.2955074 C46.6342247,66.4256727 46.5742636,66.555838 46.5146532,66.6866975 C45.9683416,67.8883835 45.439913,69.137276 44.9234065,70.3570116 C44.6537571,70.9943008 44.3809519,71.6388793 44.1032377,72.2827636 C44.0467831,72.413276 43.9903286,72.5434413 43.9335234,72.6739537 C43.4952117,73.6819537 43.043926,74.6833587 42.5730039,75.6458876 L42.9846662,75.5993752 C43.4590948,74.6191438 43.9131857,73.6031603 44.3546532,72.5837058 C44.4111078,72.4531934 44.4675623,72.322681 44.5233156,72.1921686 C44.7677182,71.6229124 45.0089649,71.0540033 45.2470558,70.4906479 C45.7947701,69.1966314 46.3565104,67.8699868 46.937887,66.6033917 C46.9964455,66.4753091 47.0557052,66.3475736 47.1149649,66.2208793 C47.255926,65.919243 47.397939,65.6214248 47.5413545,65.3288132 C47.7468351,64.9105488 47.9610818,64.5207471 48.3226013,64.3496231 C48.8576922,64.0965818 49.4972766,64.3964826 50.109861,64.7578215 C50.9787701,65.2701521 51.8606532,65.7762347 52.7488481,66.2757223 C52.8884065,66.3538215 53.0283156,66.4322678 53.1682247,66.5103669 C54.1801987,67.0751107 55.1995364,67.6301355 56.2167701,68.1737058 C56.3272247,68.2323669 56.4373286,68.2910281 56.5474325,68.3493421 C57.818887,69.0258545 59.0854325,69.6836231 60.3291857,70.3191769 C60.4550688,70.3837388 60.5809519,70.4476066 60.7061338,70.5118215 C62.1297701,71.2365818 63.5204455,71.931838 64.8504584,72.590995 L65.0867961,72.3199041 C63.6663156,71.6159702 62.1757052,70.8710777 60.6493286,70.0921686" id="Fill-100" fill="#4C53A0"></path>
                    <path d="M72.0978195,39.3670512 C73.0750792,41.640605 72.1420013,44.1272826 73.4586896,46.3078116 C73.7735727,46.8291669 74.186287,47.3630182 74.1301831,47.9680264 C74.0597026,48.7309686 73.1823779,49.2492 72.4207675,49.113481 C71.6591571,48.977762 71.0655078,48.3404727 70.7849883,47.6264727 C70.5041182,46.9124727 70.4855338,46.1269686 70.4974558,45.3612496 C70.5090273,44.5951835 70.5458455,43.818357 70.3659623,43.0734645 C70.1681961,42.2560264 69.704287,41.8134645 69.1358844,41.2428198 C68.6502351,40.7561752 68.0383519,40.2782083 67.9419234,39.5548364 C67.7557286,38.1528694 69.1741052,37.2295636 70.4623909,37.6985058 C71.2061182,37.9695967 71.7657545,38.613481 72.0827416,39.3323405 C72.0880013,39.3441421 72.0925597,39.3555967 72.0978195,39.3670512" id="Fill-102" fill="#2E3272"></path>
                    <path d="M70.2103442,50.5172182 C70.2103442,50.5172182 68.5409026,48.8261107 67.0930714,44.7274661 L63.9950844,46.991995 C63.9950844,46.991995 64.5165,49.1700942 66.4271883,52.0455322 L70.2103442,50.5172182 Z" id="Fill-104" fill="#FFDC6A"></path>
                    <path d="M61.3026935,45.1004331 C61.5372779,46.3975736 62.7848883,47.8099537 64.1005247,48.0123174 C65.4158104,48.214681 66.8496156,47.4753421 67.3450831,46.2517884 C67.8535247,44.9983835 67.3194857,43.4787471 66.2706935,42.6147967 C65.4287844,41.921276 63.6639662,39.8539041 62.5766026,40.3999041 C61.4229662,40.9792264 60.9552,43.1802347 61.3026935,45.1004331" id="Fill-106" fill="#FFDC6A"></path>
                    <path d="M69.366261,43.7462281 C70.0654558,42.182162 70.3926117,40.1665091 69.1741052,38.928724 C67.2749883,36.9995008 63.9515338,38.0515835 62.1919753,39.6295339 C61.7175468,40.0547405 61.1905208,40.8242777 61.2904558,41.4990545 C61.3788195,42.0943438 61.8827026,42.6517983 62.4251571,42.8826248 C62.8827545,43.077005 63.2754818,43.170724 63.7751571,43.1835669 C64.0560273,43.1908562 64.3425078,43.2023107 64.6075987,43.2949884 C65.1619753,43.4897157 65.2450792,43.9350545 65.3344948,44.4477322 C65.5533,45.7007901 66.9387156,46.5685587 68.0446636,45.6896826 C68.3711182,45.4303934 68.6200792,45.0884926 68.840287,44.7368727 C69.0257805,44.4400959 69.2056636,44.1047901 69.366261,43.7462281" id="Fill-108" fill="#2E3272"></path>
                    <path d="M63.3391247,70.4646843 C63.3391247,70.4646843 64.965787,72.7188 31.9044623,75.3352959 C28.9509429,75.5688992 12.1257351,75.6605355 8.59294286,75.8986512 L8.59294286,83.9997917 L47.0868779,83.9997917 L64.723839,83.9997917 C64.723839,83.9997917 71.7483974,83.2309488 73.2986182,82.4634942 C76.3871377,80.9351802 77.1305143,79.5689653 77.8542545,77.1135273 C78.3721636,75.3547339 78.5488909,73.1394942 77.776761,70.1588826 L63.3391247,70.4646843 Z" id="Fill-110" fill="#ED7768"></path>
                    <path d="M71.9564026,70.2820017 C71.9062597,72.5850595 70.7463117,75.3442165 68.7132468,76.5129273 C65.9943117,78.075605 62.6291299,78.3810595 59.4154286,78.5601669 C56.1337013,78.7423983 44.2105714,79.0381339 41.4218571,79.0589603 L8.59301299,79.2068281 L8.59301299,79.5542826 L41.4246623,79.4060678 C44.2154805,79.3852413 56.1498312,79.0891587 59.4350649,78.9065802 C62.6911948,78.7253901 66.1037143,78.4143818 68.8892727,76.8131752 C71.0983636,75.5431091 72.2698831,72.6721835 72.3095065,70.2747124 L71.9564026,70.2820017 Z" id="Fill-112" fill="#4C53A0"></path>
                    <path d="M54.4023701,50.555157 C54.4023701,50.555157 56.3519805,49.6190083 57.4326818,54.8926116 L56.1202013,55.446595 L54.4023701,50.555157 Z" id="Fill-114" fill="#FFDC6A"></path>
                    <polygon id="Fill-116" fill="#2E3272" points="51.4877377 45.7593818 54.6726857 53.478357 55.5991013 53.0392661 52.5105818 45.3963074"></polygon>
                    <path d="M66.5816143,50.2114512 C66.5816143,50.2114512 69.9787052,46.2370711 74.2254195,53.5742281 C74.2254195,53.5742281 82.1041597,68.2919306 77.9128481,72.2548562 C77.7778481,72.3825917 76.9401468,72.8921455 76.3005623,73.1024926 C73.6857701,73.9629719 67.2657312,75.1639636 61.7363416,71.7841785 C61.4488091,71.6088893 61.099913,71.4388066 61.7177571,70.3881124 C61.7177571,70.3881124 63.0495234,68.7258149 65.2112766,58.0262281 L66.5816143,50.2114512 Z" id="Fill-118" fill="#F19CC2"></path>
                    <path d="M76.0361026,57.9942595 C76.1363883,58.0178628 76.2370247,58.0400777 76.3380117,58.0619455 C76.2815571,57.9290033 76.2254532,57.7977967 76.1697,57.6686727 C76.1521675,57.6645074 76.1342844,57.6603421 76.1164013,57.6561769 C75.4270247,57.4940777 74.4469597,57.1955653 73.894687,56.4721934 C73.6159208,56.1070364 73.4942455,55.5978298 73.5762974,55.1427719 C73.6204792,54.9004909 73.7428558,54.5676149 74.0745701,54.357962 C74.2169338,54.2684083 74.3722714,54.2128711 74.5381286,54.1795488 C74.4750117,54.0549372 74.4203104,53.9483752 74.3750766,53.860557 C74.2050117,53.9029041 74.0409078,53.967119 73.8855701,54.0656975 C73.543687,54.2815983 73.3112065,54.6425901 73.2316091,55.0813339 C73.1323753,55.6283752 73.2792974,56.2413669 73.6148688,56.6814992 C74.2351675,57.4944248 75.2923753,57.8179289 76.0361026,57.9942595" id="Fill-120" fill="#FEFEFE"></path>
                    <path d="M78.343761,67.8173306 C77.6280857,67.1099256 76.6953584,66.5604545 75.319761,66.0363223 C75.1868649,65.9859917 75.0529169,65.9367025 74.9193195,65.8874132 C74.4000078,65.696157 73.8631636,65.4979587 73.3841766,65.2206198 C72.9174623,64.9491818 72.309787,64.4785041 72.0646831,63.7742231 C71.8406182,63.1324215 72.0215532,62.4076612 72.4945792,62.051876 C73.1131247,61.586405 73.996761,61.8179256 74.3460078,61.938719 C74.672813,62.051876 74.9964623,62.2028678 75.3390468,62.3625372 C76.2240857,62.7759421 77.1375273,63.2008017 78.135826,62.9522727 C78.1025143,62.8415455 78.0681506,62.7308182 78.0334364,62.6197438 C77.1620727,62.8290496 76.3475143,62.4489669 75.4884234,62.0490992 C75.1532026,61.8922066 74.8060597,61.7301074 74.4613714,61.6110496 C73.6047351,61.3173967 72.8136701,61.376405 72.282787,61.7752314 C71.6922935,62.2195289 71.4612156,63.1077769 71.7329688,63.8870331 C72.012787,64.6916281 72.6891896,65.2192314 73.2070987,65.5198264 C73.7120338,65.8131322 74.2636052,66.0161901 74.7972935,66.2126529 C74.929839,66.2619421 75.0623844,66.3105372 75.1938779,66.3608678 C76.5214364,66.8666033 77.4162935,67.3910826 78.0958519,68.0627355 C78.5485403,68.510157 78.8858649,69.0283884 79.0871377,69.5646694 C79.113787,69.333843 79.1302675,69.0950331 79.1372805,68.8496281 C78.9296961,68.4823884 78.6632026,68.1328512 78.343761,67.8173306" id="Fill-122" fill="#FEFEFE"></path>
                    <path d="M72.8487701,72.6961339 C72.4616532,72.1365967 72.2852766,71.4323157 72.1138091,70.7512909 C71.8694065,69.7786959 71.6165883,68.7724314 70.7567961,68.1028612 C70.0155234,67.5256215 68.7833416,67.362481 68.0056013,68.0865471 C67.5557182,68.5051587 67.3846013,69.0903818 67.2183935,69.656514 C67.1622896,69.8484645 67.1061857,70.0404149 67.0392117,70.2247289 C66.6468351,71.3035388 65.7761727,72.2171256 64.7109,72.6680182 C64.4745623,72.7679851 64.2284065,72.8457372 63.9766403,72.9005802 C64.1614325,72.9734727 64.3462247,73.0422 64.5310169,73.1074562 C64.6386662,73.0710099 64.744913,73.0314397 64.8490558,72.987357 C66.0019909,72.499324 66.9441857,71.5104149 67.3691727,70.3423983 C67.4386013,70.1514893 67.4968091,69.9525967 67.5553675,69.7530099 C67.714913,69.2077041 67.8660429,68.6929438 68.2457961,68.3392413 C68.8783675,67.7508942 69.9292636,67.8994562 70.5400948,68.3756876 C71.3055623,68.9716711 71.5327831,69.8765802 71.7740299,70.8352909 C71.9518091,71.5461669 72.1369519,72.2809934 72.5594844,72.8919025 C72.8066922,73.2497702 73.1338481,73.5434231 73.5118481,73.765919 C73.7131208,73.7332909 73.9080818,73.6989273 74.0977831,73.662481 C73.6047701,73.4681008 73.1629519,73.1504975 72.8487701,72.6961339" id="Fill-124" fill="#FEFEFE"></path>
                    <path d="M55.3094649,56.4783719 C55.3094649,56.4783719 53.6593091,54.3471322 52.6455818,51.6185207 C52.4187117,51.0079587 51.8352312,49.3324711 52.0088026,48.5872314 C52.1466078,47.9961074 52.6459325,47.9565372 52.9737896,48.8739421 C52.9737896,48.8739421 54.0401143,51.6598264 54.8620364,52.4796942 C55.0587506,52.676157 56.1348935,53.3616942 56.0815948,52.1985372 C56.0815948,52.1985372 56.9308675,52.5807025 57.5487117,55.331876 L55.3094649,56.4783719 Z" id="Fill-126" fill="#FFDC6A"></path>
                    <path d="M58.0502805,54.0326876 C58.0502805,54.0326876 55.0006831,54.605762 54.2285532,56.172605 C54.2285532,56.172605 58.3206312,65.8787702 60.7141636,68.8597289 C60.7141636,68.8597289 62.644839,71.1204397 64.9987481,69.4709851 C65.5026312,69.118324 71.9089948,64.3119273 72.2950597,56.172605 C72.2950597,56.172605 72.2950597,50.2877455 67.9715532,49.5997171 C67.9715532,49.5997171 64.2655403,49.523762 64.1883974,54.7203074 C64.1883974,54.7203074 64.1883974,61.293481 62.3355662,59.4590182 C62.3355662,59.4590182 58.3592026,54.2617785 58.0502805,54.0326876" id="Fill-128" fill="#F19CC2"></path>
                    <path d="M66.6559169,52.2486595 C67.3253065,52.5124612 68.1398649,52.5447421 69.0108779,52.3420314 C69.2303844,52.2910066 69.4467351,52.2271388 69.6627351,52.1639653 C69.9649948,52.0751058 70.2770727,51.9834694 70.5873974,51.9324446 C70.7641247,51.9032876 70.9734623,51.8835025 71.1901636,51.894957 C71.1214364,51.7769405 71.0488519,51.6606595 70.9717091,51.5464612 C70.8128649,51.5509736 70.6634883,51.5679818 70.5298909,51.5901967 C70.1981766,51.6446926 69.8752286,51.7394529 69.5631506,51.8310893 C69.3531117,51.8928744 69.1434234,51.9543124 68.9305792,52.0042959 C68.1293455,52.1899983 67.3877221,52.1639653 66.7856571,51.9258496 C66.2979039,51.7338992 65.7000468,51.2448248 65.5222675,50.7050727 C65.4335532,50.7974033 65.3465922,50.8973702 65.2617351,51.0060149 C65.5369948,51.5839488 66.1527351,52.0504612 66.6559169,52.2486595" id="Fill-130" fill="#FEFEFE"></path>
                    <path d="M68.4218221,63.0666446 C68.2443935,63.0406116 68.0687182,63.003124 67.8930429,62.9659835 C67.5816662,62.9003802 67.2601208,62.8323471 66.9291078,62.8250579 C66.4297831,62.812562 65.7842377,62.9840331 65.479874,63.4963636 C65.2537052,63.878876 65.2789519,64.3356694 65.3340039,64.7324132 C65.4409519,65.5016033 65.6530948,66.2527438 65.9655234,66.9650083 C66.0237312,67.0972562 66.0857961,67.2298512 66.147861,67.3631405 C66.2754974,67.6373554 66.404887,67.9153884 66.5016662,68.1965455 C66.5910818,68.111157 66.6833026,68.0219504 66.7776273,67.9285785 C66.6850558,67.687686 66.5746013,67.4513058 66.4659,67.2177025 C66.404887,67.086843 66.3442247,66.9566777 66.2874195,66.8268595 C65.9879649,66.143405 65.783887,65.4228099 65.6814974,64.6848595 C65.634861,64.347124 65.6099649,63.962876 65.7824844,63.672 C66.0097052,63.2898347 66.5213026,63.1634876 66.9210429,63.1721653 C67.2190948,63.1787603 67.5108351,63.2401983 67.8197571,63.3054545 C68.0027961,63.3443306 68.1858351,63.3828595 68.3706273,63.4095868 C69.0095104,63.504 69.6617182,63.4578347 70.2778091,63.2821983 C70.3563545,63.1371074 70.4331468,62.9899339 70.508887,62.8403306 C69.8475623,63.0892066 69.1262766,63.1697355 68.4218221,63.0666446" id="Fill-132" fill="#FEFEFE"></path>
                    <path d="M72.2929909,56.0732975 C72.1204714,56.3572314 71.8855364,56.5977769 71.5660948,56.7352314 C70.6747442,57.1180909 69.6778481,56.5332149 68.7328481,55.9007851 C68.1223675,55.4922397 67.4042377,55.0364876 66.5977442,54.7945537 C65.7242766,54.5324876 64.8686922,54.5717107 64.1863286,54.9042397 C64.184926,55.0042066 64.1817701,55.141314 64.1765104,55.3061901 C64.2227961,55.2777273 64.2704844,55.251 64.319926,55.2263554 C64.9251468,54.9229835 65.6972766,54.8879256 66.4964065,55.1267355 C67.2555623,55.3547851 67.9473935,55.7942231 68.5361338,56.1881901 C69.293887,56.6956612 70.5618351,57.5443388 71.7056532,57.0535289 C71.9125364,56.9646694 72.0987312,56.8365868 72.2631857,56.6734463 C72.2761597,56.507876 72.2870299,56.3409174 72.2950948,56.1725702 C72.2950948,56.1725702 72.2950948,56.1378595 72.2929909,56.0732975" id="Fill-134" fill="#FEFEFE"></path>
                    <path d="M62.987774,67.0851421 C63.0010987,66.9702496 63.0161766,66.8550099 63.0316052,66.7394231 C63.1055922,66.176762 63.1823844,65.5946628 63.0750857,65.0181174 C62.9467481,64.3294562 62.4646052,63.5738033 61.6770468,63.4384314 C61.1493195,63.3464479 60.6636701,63.5571421 60.1938,63.7595058 C60.0591506,63.8174727 59.9255532,63.8750926 59.7912545,63.925076 C59.0804883,64.189919 58.3634104,64.1902661 57.8086831,63.9309769 C57.8851247,64.0823157 57.9622675,64.2329603 58.0390597,64.3825636 C58.6071117,64.5345967 59.2663325,64.4912083 59.9143325,64.2499686 C60.0542416,64.1982496 60.1938,64.1382 60.3337091,64.0778033 C60.7758779,63.8872413 61.1942026,63.7077868 61.6167351,63.7803322 C62.2352805,63.8865471 62.6273065,64.529043 62.7300468,65.0812909 C62.8275273,65.6036876 62.7542416,66.1583653 62.683761,66.6946463 C62.6683325,66.8116215 62.6532545,66.9285967 62.6392286,67.0448777 C62.5659429,67.6651587 62.5126442,68.4763488 62.7563455,69.2521339 C62.8506701,69.5537702 62.9884753,69.830762 63.1592416,70.0723488 C63.2970468,70.0758198 63.4387091,70.0695719 63.5838779,70.0501339 C63.3699818,69.801605 63.1995662,69.4940678 63.0912156,69.149043 C62.8668,68.4357372 62.9183455,67.6714066 62.987774,67.0851421" id="Fill-136" fill="#FEFEFE"></path>
                    <path d="M68.9741649,59.3999752 C68.7252039,59.4159421 68.4734377,59.4319091 68.2195675,59.434686 C67.0732948,59.457595 65.9193078,59.1882397 64.8883987,58.6877107 C64.6099831,58.5530331 64.2309312,58.336438 63.911139,58.0372314 C63.8855416,58.1712149 63.8578403,58.3020744 63.8273338,58.4280744 C64.0805026,58.6380744 64.3841649,58.8300248 64.734113,58.9997603 C65.8137623,59.5231983 67.0182429,59.7915124 68.2227234,59.7817934 C68.4836065,59.7790165 68.7416844,59.7627025 68.9966065,59.7463884 C69.8893597,59.6887686 70.7333727,59.6356612 71.4984896,60.2163719 C71.5191779,60.2319917 71.5402169,60.2486529 71.5616065,60.2660083 C71.5987753,60.1483388 71.6352429,60.0296281 71.6699571,59.9102231 C70.8112169,59.2823058 69.8767364,59.3420083 68.9741649,59.3999752" id="Fill-138" fill="#FEFEFE"></path>
                    <path d="M59.7048896,59.7006397 C60.1091883,58.9113174 59.8146429,57.8144579 59.0344481,57.2045901 C57.7682532,56.2142926 56.1472013,56.5249537 54.6520325,57.1573835 C54.695513,57.2573504 54.7425,57.3642595 54.7915909,57.4770694 C56.1931364,56.8859455 57.6893571,56.5957636 58.8173961,57.4770694 C59.4713571,57.9880116 59.7238247,58.8963917 59.3917597,59.5437471 C59.1396429,60.0369868 58.6280455,60.3403587 58.0866429,60.6614331 C57.5729416,60.9658463 57.0452143,61.2789372 56.7517208,61.7735653 C56.8158896,61.9078959 56.8807597,62.0436149 56.9459805,62.179681 C57.1409416,61.6267388 57.6879545,61.3018463 58.266526,60.9589041 C58.8272143,60.6267223 59.406487,60.2834331 59.7048896,59.7006397" id="Fill-140" fill="#FEFEFE"></path>
                    <path d="M67.9776896,49.4263983 C67.9296506,49.4260512 67.7466117,49.3934231 67.6351052,49.4461835 C67.5477935,49.4874893 66.7668974,49.8522992 66.8440403,49.8332083 C67.2048584,49.7436545 67.4983519,49.7471256 67.6207286,49.7471256 C67.6449234,49.7471256 67.9443779,49.7707289 67.9436766,49.7714231 C72.0680143,50.4274562 72.1199104,56.1155058 72.1199104,56.1644479 C71.7264818,64.4554562 64.9659623,69.2812909 64.8975857,69.3291917 C63.9785338,69.9737702 63.1190922,69.9855719 62.4819623,69.8998364 C62.2351052,69.866514 62.0236636,69.8043818 62.0236636,69.8043818 L61.9174169,70.0334727 C61.9174169,70.0334727 62.1053649,70.105324 62.3224169,70.1386463 C62.5072091,70.1671091 62.7561701,70.2077207 63.1299623,70.2077207 C63.765339,70.2077207 64.466287,70.0567289 65.100261,69.6124314 C65.1696896,69.5638364 72.0690662,64.639076 72.4705597,56.1727785 C72.4705597,56.1123818 72.4190143,50.1317207 67.9776896,49.4263983" id="Fill-142" fill="#FEFEFE"></path>
                    <path d="M61.8889091,28.0433653 C61.4400779,27.2165554 60.440026,26.795514 59.4918701,26.7982909 C58.9118961,26.8000264 57.5254286,27.5244397 57.0927273,27.3512331 C56.4191299,27.0815306 56.7960779,25.9673157 56.5222208,25.3015636 C56.2255714,24.578886 55.5375974,23.9860264 54.7507403,23.9440264 C54.0701299,23.9082744 53.4123117,24.2831504 52.9894286,24.811795 C52.5661948,25.3407868 52.3512468,26.0058446 52.2397403,26.6715967 C51.8508701,28.9871504 52.6138831,31.3235306 53.3670779,33.5491835 C55.3426364,33.5880595 57.3248571,33.2065884 59.1419221,32.4387868 C60.0458961,32.0569686 60.9354935,31.5585223 61.5280909,30.7823901 C62.1203377,30.0059107 62.3542208,28.9000264 61.8889091,28.0433653" id="Fill-144" fill="#ED7768"></path>
                    <path d="M25.925961,10.5354397 C25.925961,4.85641488 33.7173896,0.252728926 43.3283377,0.252728926 C52.9396364,0.252728926 60.7307143,4.85641488 60.7310649,10.5354397 C60.7310649,13.5566628 58.5216234,15.9704479 56.0944286,17.5230595 C53.2215584,19.3609934 49.869,19.9698198 46.580961,20.6432083 C45.1615325,20.9340843 44.4023766,21.7244479 44.7074416,23.2128446 C44.8245584,23.7834893 45.0791299,24.3107455 45.3747273,24.8175223 C45.5353247,25.0927785 45.2804026,25.427043 44.967974,25.3513736 C43.7266753,25.0486959 42.3044416,24.1299025 41.4137922,23.2420017 C40.3937532,22.2256711 39.8057143,21.3051421 38.4017143,20.7476876 C37.3248701,20.3197041 36.1596623,20.1773901 35.0582727,19.8275058 C31.0664805,18.5577868 25.925961,15.2234727 25.925961,10.5354397" id="Fill-146" fill="#F19CC2"></path>
                    <path d="M50.1462935,10.8662678 C49.9723714,10.7381851 49.7605792,10.6798711 49.5435273,10.6541851 C49.7128909,10.6434248 49.8798,10.589276 50.0151506,10.4882678 C50.4422416,10.1696231 50.5716312,9.12274711 50.0498649,8.81972231 C49.7125403,8.62395372 49.1879688,8.6371438 48.8106701,8.65831736 C48.4659818,8.67740826 48.118839,8.69198678 47.7752026,8.64894545 C47.2204753,8.55522645 47.0910857,8.3570281 47.2899039,7.86031736 C47.5045013,7.32403636 47.7317221,6.79296198 47.9526312,6.25945785 C48.1156831,5.86479669 48.2818909,5.45555702 48.265761,5.0296562 C48.2496312,4.60375537 47.9985662,4.15563967 47.5816442,4.04838347 C47.2881506,3.97306116 46.9715143,4.07997025 46.7281636,4.25873058 C46.4844623,4.43783802 46.2996701,4.68185455 46.113826,4.91927603 C45.464774,5.7485157 44.7631247,6.53749091 44.0144883,7.27995372 C43.9864364,7.30806942 43.9583844,7.33549091 43.9303325,7.3632595 C42.907839,8.36778843 41.7243974,8.57223471 40.227826,8.58959008 C40.2727091,8.59306116 40.2022286,11.9645157 40.1994234,12.2727471 C40.1969688,12.5441851 40.1853974,15.6941851 40.1745273,15.6948793 C40.9136961,15.7660364 41.1777351,15.7188298 41.9270727,15.7660364 C42.2496701,15.7861686 42.6799169,15.9951273 43.1150727,16.0982182 C43.4390727,16.1749289 43.8076052,16.2419207 44.1323065,16.2485157 C44.8963714,16.2644826 45.660787,16.259276 46.4248519,16.2419207 C47.0739039,16.2273421 47.8491896,16.272119 48.408826,15.8906479 C48.6311377,15.738962 48.7549169,15.4855736 48.7640338,15.2196893 C48.7689429,15.0801521 48.7983974,14.6577223 48.5862545,14.5431769 C48.5543455,14.5258215 48.9337481,14.5622678 49.1522026,14.4296727 C49.4271117,14.262714 49.6217221,14.0315405 49.6543325,13.7125488 C49.6988649,13.2758876 49.4695403,12.7986149 49.0112416,12.6927471 C49.5042545,12.624714 50.0698519,12.6833752 50.3198649,12.1731273 C50.5172805,11.7704826 50.5463844,11.160962 50.1462935,10.8662678" id="Fill-148" fill="#FEFEFE"></path>
                    <path d="M35.6927727,8.45161488 C35.6250974,8.44987934 35.5521623,8.44953223 35.4960584,8.49187934 C35.4112013,8.55678843 35.4024351,8.68868926 35.4024351,8.80219339 C35.3982273,10.9612017 35.3943701,13.120557 35.3901623,15.2795653 C35.3901623,15.3677306 35.3919156,15.462838 35.4403052,15.5329537 C35.5072792,15.6304909 35.6342143,15.6422926 35.7453701,15.6454165 C36.8537727,15.6780446 38.0372143,15.7165736 39.0604091,15.6693669 C39.2441494,15.6610364 39.2704481,15.5756479 39.284474,15.4309041 C39.3672273,14.5718132 39.3616169,11.5842595 39.3616169,11.2645736 C39.3619675,10.5061438 39.3539026,9.74736694 39.3374221,8.98893719 C39.3307597,8.67862314 39.3226948,8.56060661 39.0249935,8.54220992 C38.6946818,8.52138347 38.3612143,8.52416033 38.0305519,8.51513554 L35.6927727,8.45161488 Z" id="Fill-150" fill="#FEFEFE"></path>
                    <path d="M47.4289364,34.9200843 C49.2526636,37.2137702 48.8529234,40.537324 46.5354818,42.3426298 C44.2180403,44.1479355 40.861274,43.751886 39.0371961,41.4582 C37.2134688,39.164514 37.6135597,35.8409603 39.9310013,34.0356545 C42.2480922,32.2303488 45.6052091,32.6263983 47.4289364,34.9200843" id="Fill-152" fill="#FFDC6A"></path>
                    <path d="M44.3448,35.7098926 C44.4875143,35.8893471 44.4563065,36.1493306 44.2750208,36.2906033 C44.0937351,36.4315289 43.8310987,36.4006364 43.6883844,36.2211818 C43.5456701,36.0417273 43.5768779,35.7817438 43.7581636,35.6404711 C43.9394494,35.4995455 44.2020857,35.5300909 44.3448,35.7098926" id="Fill-154" fill="#2E3272"></path>
                    <path d="M41.2280182,38.2080942 C41.3707325,38.3878959 41.3395247,38.6478793 41.158239,38.788805 C40.9769532,38.9300777 40.7143169,38.8991851 40.5716026,38.7197306 C40.4288883,38.540276 40.4600961,38.2802926 40.6413818,38.1390198 C40.8226675,37.9977471 41.0853039,38.0286397 41.2280182,38.2080942" id="Fill-156" fill="#2E3272"></path>
                    <path d="M40.1945494,36.6515603 C39.4666013,37.2864198 39.1832766,38.0760893 39.3284455,39.0643041 C39.3375623,39.1267835 39.3915623,39.1715603 39.4532766,39.1715603 C39.4592377,39.1715603 39.4655494,39.1712132 39.4715104,39.170519 C39.540939,39.1604529 39.5886273,39.0969322 39.5788091,39.0285521 C39.4452117,38.1177421 39.6938221,37.4221388 40.3618091,36.8393455 C40.4140558,36.7935273 40.4193156,36.7147339 40.3730299,36.6626678 C40.3263935,36.6102545 40.2464455,36.6057421 40.1945494,36.6515603" id="Fill-158" fill="#2E3272"></path>
                    <path d="M45.0027935,34.4909554 C44.1500143,34.2948397 43.0647545,34.4576331 42.3634558,34.8890876 C42.3041961,34.925881 42.2856117,35.003286 42.3227805,35.0619471 C42.3466247,35.1001289 42.3880013,35.1206083 42.4304299,35.1206083 C42.4532221,35.1206083 42.4760143,35.1147074 42.4970532,35.1022116 C43.1461052,34.7026909 44.1535208,34.5516992 44.945287,34.7349719 C45.0129623,34.7495504 45.081339,34.7085917 45.0971182,34.6416 C45.1128974,34.573914 45.0708195,34.5069223 45.0027935,34.4909554" id="Fill-160" fill="#2E3272"></path>
                    <path d="M40.9555987,40.463286 C42.0524299,41.8218645 44.0532351,42.0523438 45.4361961,40.9749223 C46.8195078,39.8971537 47.0632091,37.9179471 45.9870662,36.5434017 L40.9555987,40.463286 Z" id="Fill-162" fill="#FEFEFE"></path>
                </g>
                <g id="Group-209" transform="translate(183.000000, 23.000000)">
                    <path d="M45.9884762,118.99986 L8.77733333,118.99986 C5.61909524,118.99986 3.05880952,116.412221 3.05880952,113.22016 L3.05880952,25.576485 C3.05880952,22.3840745 5.61909524,19.7964352 8.77733333,19.7964352 L45.9884762,19.7964352 C49.146369,19.7964352 51.7063095,22.3840745 51.7063095,25.576485 L51.7063095,113.22016 C51.7063095,116.412221 49.146369,118.99986 45.9884762,118.99986" id="Fill-165" fill="#FFDC6A"></path>
                    <path d="M52.8258131,0.159864809 L28.5769798,0.159864809 C25.8060988,0.159864809 23.5596345,2.4302871 23.5596345,5.23114927 L23.5596345,5.23114927 C23.5596345,8.03201144 25.8060988,10.3024337 28.5769798,10.3024337 L29.789456,10.3024337 C29.9527536,10.5198443 30.079456,10.7648238 30.1581702,11.0272519 C30.3307893,11.6061991 30.0953369,12.4842167 29.7052179,13.2118267 C29.5177536,13.5618472 29.8498726,13.8392812 30.2334321,13.7471522 C31.8929917,13.3472284 34.2022893,12.2521493 35.456194,10.3024337 L52.8258131,10.3024337 C55.596694,10.3024337 57.8428131,8.03201144 57.8428131,5.23114927 L57.8428131,5.23114927 C57.8428131,2.4302871 55.596694,0.159864809 52.8258131,0.159864809" id="Fill-167" fill="#7C5AA1"></path>
                    <polygon id="Fill-169" fill="#FFDC6A" points="32.7810821 6.16755015 33.9690464 6.7988434 33.742225 5.46157654 34.7033679 4.51481114 33.3752369 4.3197349 32.7810821 3.10286393 32.1869274 4.3197349 30.8591417 4.51481114 31.8199393 5.46157654 31.5931179 6.7988434"></polygon>
                    <polygon id="Fill-171" fill="#FFDC6A" points="38.0611536 6.16755015 39.2491179 6.7988434 39.0222964 5.46157654 39.9834393 4.51481114 38.6553083 4.3197349 38.0611536 3.10286393 37.467344 4.3197349 36.1392131 4.51481114 37.100356 5.46157654 36.8735345 6.7988434"></polygon>
                    <polygon id="Fill-173" fill="#FFDC6A" points="43.3415357 6.16755015 44.5295 6.7988434 44.3026786 5.46157654 45.2634762 4.51481114 43.9356905 4.3197349 43.3415357 3.10286393 42.747381 4.3197349 41.41925 4.51481114 42.3803929 5.46157654 42.1535714 6.7988434"></polygon>
                    <polygon id="Fill-175" fill="#FFDC6A" points="48.6216071 6.16755015 49.8095714 6.7988434 49.58275 5.46157654 50.5438929 4.51481114 49.2157619 4.3197349 48.6216071 3.10286393 48.0274524 4.3197349 46.6996667 4.51481114 47.6608095 5.46157654 47.4339881 6.7988434"></polygon>
                    <path d="M16.123344,112.74217 C16.123344,112.74217 16.0277131,114.429807 16.507594,115.685065 C16.507594,115.685065 16.8928798,116.677895 17.6303083,117.198563 C17.7711655,117.298021 17.8571298,117.457851 17.8840583,117.629546 C17.9534512,118.074836 17.982106,118.851302 17.371725,118.973443 L11.6538917,118.989496 C11.6538917,118.989496 10.8170345,119.084417 10.2629274,118.699499 C9.98362976,118.50547 9.90008214,117.74715 9.93184405,117.405505 L10.1313917,115.987625 L9.98742738,113.261443 L16.123344,112.74217 Z" id="Fill-177" fill="#2E3272"></path>
                    <path d="M37.1741333,113.34401 C37.1741333,113.34401 36.6179548,115.146808 38.0717524,116.534676 C38.8502643,117.27799 39.5383238,117.185861 39.5383238,117.185861 C39.8542167,117.191793 40.1124548,117.458409 40.1124548,117.77772 L40.1124548,118.407966 C40.1124548,118.734955 39.850419,118.999826 39.5265857,118.999826 L31.0351095,118.999826 C30.766169,118.999826 30.548669,118.779623 30.548669,118.508471 L30.548669,117.561007 L30.548669,113.277356 L37.1741333,113.34401 Z" id="Fill-179" fill="#2E3272"></path>
                    <polygon id="Fill-181" fill="#F19CC2" points="8.99980476 51.3071466 12.3361857 53.9087449 11.5735548 57.9557918 6.61697143 53.7157625"></polygon>
                    <path d="M28.6611833,50.3278918 C25.5913262,50.3680238 22.5256119,50.007883 19.4422905,50.0462701 C18.3575524,50.0595311 13.8093857,49.5280443 13.0032548,50.4367716 C7.11798095,57.3150413 8.71919524,67.5699798 8.88490952,75.9125428 C9.10448095,86.9704695 8.40295714,98.334795 8.33701667,109.47822 C8.33114762,110.475936 8.32804048,111.460739 8.33874286,112.459153 C8.34392143,113.000062 8.41676667,113.571332 8.74267143,114.000918 C9.07271905,114.435739 9.60680238,114.654197 10.1260405,114.810188 C12.2344095,115.443575 15.256969,115.56083 17.3877786,114.948382 C17.7430286,114.846481 18.0817071,114.624534 18.239481,114.286728 C18.3637667,114.021508 18.3644571,113.717203 18.3630762,113.423716 C18.3551357,111.884742 18.4096833,110.361123 18.4096833,108.828082 C18.5539929,106.442499 18.5508857,104.047842 18.3996714,101.662607 C18.14385,97.6200971 18.7134929,94.0441645 19.1522905,89.9946748 C19.7661238,84.3318801 20.0264333,78.5120472 21.0269333,72.9015985 C21.1933381,71.9663493 21.4388024,71.0502935 21.5706833,70.1108566 C22.4451714,71.4289299 22.393731,73.8396396 22.6433381,75.4051352 C23.0268976,77.8102613 23.4101119,80.2157364 23.7936714,82.6212114 C25.3016714,90.242446 26.4140286,97.9941968 27.4597548,105.681387 C27.8032667,108.207607 28.5237786,110.956821 28.5237786,113.503631 C28.6252786,114.250783 28.7726952,115.620505 29.6754929,115.775449 C31.0274452,116.007167 32.4287667,115.930742 33.7710524,115.672153 C34.8834095,115.457534 36.4504452,115.38739 37.4253976,114.746675 C38.3382071,114.14644 37.6428976,112.936898 37.5141238,112.119252 C37.4060643,111.436311 37.3729214,110.73976 37.2579571,110.054725 C37.0421833,108.767012 36.7494214,107.491862 36.5933738,106.19403 C36.3068262,103.811587 29.6454571,50.3397569 28.6611833,50.3278918" id="Fill-183" fill="#4C53A0"></path>
                    <path d="M17.7035679,51.4359877 C17.6100083,51.4248205 17.5230083,51.4932194 17.5119607,51.5888381 C17.2706393,53.6488293 17.0124012,55.5001343 16.762794,57.2907179 C16.249425,60.9755302 15.7643655,64.455844 15.4553774,69.3969613 C14.6105798,82.9259701 13.5662345,99.6575097 13.319044,115.329914 C13.4340083,115.335847 13.5489726,115.340733 13.6642821,115.344222 C13.9107821,99.6770522 14.9554726,82.9469085 15.799925,69.4185977 C16.1078774,64.4910903 16.5922464,61.0170581 17.104925,57.3395742 C17.3545321,55.5468968 17.6131155,53.6938469 17.8544369,51.629668 C17.866175,51.5340493 17.7981631,51.4475038 17.7035679,51.4359877" id="Fill-185" fill="#2E3272"></path>
                    <path d="M33.6900595,101.294196 C32.9460714,96.8220991 32.176881,92.1975009 31.3051548,87.2040375 C30.879131,84.7640141 30.4845238,82.3540023 30.1030357,80.0232076 C29.3165833,75.2199349 28.5743214,70.683278 27.6549524,66.4505771 C26.6244167,61.7066299 25.7633929,56.9501196 24.7874048,51.2677824 C24.7711786,51.1728616 24.6824524,51.1093484 24.5878571,51.1257501 C24.4939524,51.1421519 24.431119,51.2325361 24.4476905,51.3274569 C25.4240238,57.0139818 26.2860833,61.7750287 27.3176548,66.5256065 C28.2349524,70.749234 28.976869,75.2817032 29.7622857,80.0800903 C30.144119,82.411932 30.5387262,84.8229906 30.9650952,87.2647589 C31.8368214,92.2568264 32.6056667,96.8807267 33.3496548,101.352126 C34.1357619,106.077926 34.8807857,110.557002 35.7238571,115.354691 C35.8374405,115.332357 35.9503333,115.308278 36.0615,115.281756 C35.2198095,110.490348 34.4754762,106.01546 33.6900595,101.294196" id="Fill-187" fill="#2E3272"></path>
                    <path d="M26.3611381,19.1492636 C26.0984119,18.8753194 25.7721619,18.6254543 25.39965,18.641856 C25.0229952,18.6586067 24.7129714,18.9444161 24.4830429,19.2462783 C23.9803762,19.9054894 23.8806024,20.6083223 23.6278881,21.3666419 C23.4780548,21.815422 23.3824238,22.4536947 23.7511381,22.8016214 C24.4999595,23.507595 25.7379833,23.4873545 26.5627571,24.1497065 C26.8175429,24.3549029 27.0474714,24.591507 27.3146857,24.7803018 C27.5815548,24.9690965 27.8984833,25.1104308 28.2236976,25.0880965 C29.037769,25.0319117 29.1316738,24.0547856 28.76365,23.4863076 C27.8694833,22.1043721 27.5356381,20.4237152 26.4094714,19.2005628 C26.3935905,19.183463 26.3773643,19.1663633 26.3611381,19.1492636" id="Fill-189" fill="#F19CC2"></path>
                    <polygon id="Fill-191" fill="#2E3272" points="21.618844 18.7467924 23.8704869 17.0483378 27.0522012 21.9625842 25.3008083 23.9140446"></polygon>
                    <path d="M25.5233488,24.3612194 C25.765706,24.5077883 26.0053012,24.6602897 26.2410988,24.8211666 C26.4772417,24.9823924 26.7192536,25.1537384 26.9995869,25.2050375 C27.8388607,25.3589349 28.1485393,24.1403191 27.7622179,23.5571842 C27.2181226,22.7350023 26.1699798,22.4512868 25.2088369,22.2649349 C24.820444,22.1892076 24.283944,22.0635771 23.9135036,22.2656328 C23.283444,22.6097208 23.5554917,23.2828909 24.0540155,23.5439232 C24.552194,23.8053044 25.0438131,24.0712223 25.5233488,24.3612194" id="Fill-193" fill="#F19CC2"></path>
                    <path d="M26.6126786,37.8212361 C25.6639643,36.2969194 27.0987738,27.9543563 27.2071786,27.9849814 C30.0339881,28.7838666 37.3875595,34.1123446 38.2171667,37.5724179 C38.5434167,38.932368 38.0269405,40.559632 35.7390476,40.9930572 C31.3151667,41.8316408 27.2127024,38.7851012 26.6126786,37.8212361" id="Fill-195" fill="#B2C6E7"></path>
                    <path d="M29.9197488,30.0201056 C28.3737726,26.6570469 22.9359274,26.4138123 19.8129036,26.5879501 C19.8125583,26.5879501 16.6563917,26.76139 13.0717845,28.3429384 C12.7828202,28.4706628 10.6527012,29.486176 10.0060702,29.8313109 C5.37677262,32.3034399 1.63991548,36.9995777 0.985689286,39.6440997 C0.250677381,41.609868 -1.463775,48.9372669 6.22018929,54.7843196 C6.90755833,55.3077801 10.6095464,51.6299472 9.95428452,50.5331232 C8.64824881,48.3468035 7.2189631,44.5244956 10.3461298,41.227393 C10.4255345,45.0175953 10.9109393,49.0095044 12.0436655,52.1705073 C12.0436655,52.1705073 23.5300821,52.6042815 29.0815107,51.6906686 C31.4015107,42.390173 31.4422488,33.332912 29.9197488,30.0201056" id="Fill-197" fill="#FEFEFE"></path>
                    <path d="M22.221319,31.8218912 C22.4550452,34.1230232 23.3830452,44.3650496 24.164319,46.7338824 L23.2273429,48.4609528 L21.4642119,46.9010408 C21.4642119,46.9010408 21.0782357,32.5299587 21.1334738,31.639029 C21.1334738,31.639029 21.0644262,30.7966067 21.8826405,31.0206478 C21.9948429,31.0513575 22.1598667,31.2139792 22.221319,31.8218912" id="Fill-199" fill="#7C5AA1"></path>
                    <path d="M18.4395464,28.1463965 C18.0711774,27.8511648 17.8743917,27.3922645 18.0035107,26.9354581 C18.1471298,26.4263056 18.4240107,24.4828716 18.5417369,22.3153965 C18.5793679,21.62059 19.4773321,18.8033261 19.996225,18.9268628 C21.1859155,19.2095314 22.9359274,23.3176487 22.9359274,23.3176487 L22.8751655,24.5205607 C22.9511179,25.7238217 23.3595345,26.605678 23.3933679,27.2111472 C23.4282369,27.8386018 23.1099274,28.2486457 22.7066893,28.5065372 C21.9589036,28.9846311 21.119975,29.0463994 20.2958917,28.9078569 C19.6906893,28.8056076 18.8310464,28.4604727 18.4395464,28.1463965" id="Fill-201" fill="#F19CC2"></path>
                    <path d="M24.1791298,20.8692499 C24.295475,21.5329977 24.3424274,22.2005842 24.2367845,22.8695666 C24.0641655,23.9649947 23.345725,25.0503026 22.2758321,25.296678 C21.4707369,25.481983 20.6097131,25.1567396 19.9938083,24.6015226 C18.5873083,23.3347484 18.4982369,20.8818129 17.9365345,19.1404346 L23.4334155,17.7420974 C23.6339988,18.7684287 23.9944274,19.8143026 24.1791298,20.8692499" id="Fill-203" fill="#F19CC2"></path>
                    <path d="M24.3180536,17.121378 C24.1771964,17.5481727 23.8361012,17.8769059 23.4045536,17.9878795 L21.7298036,18.4195598 L22.9768036,18.7322402 L20.4351607,19.3778413 L19.5016369,20.5085158 L19.026244,20.5964572 L18.9088631,22.3416742 L18.4441726,23.5431903 L17.5783155,19.3816801 C17.394994,18.5026155 17.912506,17.6329733 18.7645536,17.3785716 C19.616256,17.1238208 20.4638155,16.8216097 21.2457798,16.3923721 C21.5319821,16.234985 21.8009226,16.0468883 22.0539821,15.8399469 C22.5193631,15.4599147 23.0009702,15.1597974 23.624125,15.4002402 C24.0746607,15.574029 24.4116131,16.0154806 24.4278393,16.5078824 C24.434744,16.7081933 24.3857202,16.9158326 24.3180536,17.121378" id="Fill-205" fill="#2E3272"></path>
                    <path d="M33.2429762,39.2708026 C33.7625595,39.8661516 34.35775,40.3519229 35.0416667,40.6520402 C37.7790595,41.8539053 39.3319405,38.3428818 39.0025833,36.0092953 C38.6390476,33.4331721 36.925631,31.2283569 35.2919643,29.3208672 C34.0915714,27.9200871 32.633631,26.8159346 31.5609762,25.4427235 C30.6868333,24.3232161 30.8062857,22.9280196 29.4474286,22.8781164 C28.0740714,22.8275152 27.06425,24.6125152 26.301619,25.527873 C28.7355476,27.5878642 29.5409881,30.7959786 30.537,33.8428672 C31.0845476,35.5182894 31.9165714,37.7510226 33.2429762,39.2708026" id="Fill-207" fill="#FEFEFE"></path>
                </g>
                <g id="Group-247" transform="translate(249.000000, 0.000000)">
                    <path d="M43.0167745,140.999861 L5.77297096,140.999861 C2.6123357,140.999861 0.0498265665,138.431029 0.0498265665,135.262166 L0.0498265665,29.1047558 C0.0498265665,25.9358934 2.6123357,23.366714 5.77297096,23.366714 L43.0167745,23.366714 C46.1774098,23.366714 48.7395734,25.9358934 48.7395734,29.1047558 L48.7395734,135.262166 C48.7395734,138.431029 46.1774098,140.999861 43.0167745,140.999861" id="Fill-210" fill="#7C5AA1"></path>
                    <g id="Group-214" transform="translate(21.077812, 0.000000)">
                        <mask id="mask-4" fill="white">
                            <use xlink:href="#path-3"></use>
                        </mask>
                        <g id="Clip-213"></g>
                        <path d="M15.8431205,4.38409533 L23.5254648,0.334589189 C24.2870304,-0.066585258 25.1767905,0.581599017 25.031319,1.43175627 L23.5641651,10.0085057 C23.5064602,10.3459356 23.618069,10.6902943 23.8627098,10.9296826 L30.0779002,17.0037686 C30.6939943,17.6058767 30.353985,18.6545425 29.5025796,18.7785671 L20.9135438,20.0298988 C20.5752621,20.0790929 20.2832826,20.2918054 20.131937,20.5990953 L16.2905921,28.4025966 C15.9098093,29.1761912 14.8099621,29.1761912 14.4291793,28.4025966 L10.5881799,20.5990953 C10.4368343,20.2921518 10.1448548,20.0790929 9.80657319,20.0298988 L1.21719184,18.7785671 C0.366131969,18.6545425 0.026122666,17.6058767 0.642216759,17.0037686 L6.85740714,10.9296826 C7.10204798,10.6906408 7.21331118,10.3459356 7.15560635,10.0085057 L5.68845239,1.43175627 C5.54298093,0.581599017 6.43308658,-0.066585258 7.19465214,0.334589189 L14.8769965,4.38409533 C15.1793421,4.54345651 15.5404293,4.54345651 15.8431205,4.38409533" id="Fill-212" fill="#FFDC6A" mask="url(#mask-4)"></path>
                    </g>
                    <path d="M35.4520513,33.2128445 C35.5211589,34.0231614 38.5259565,35.1057781 38.3393661,33.7539796 C38.0860868,31.913358 38.0508419,30.1150017 38.4540847,28.2896233 C38.5048787,28.0609747 38.5608559,27.82124 38.4958947,27.5967486 C38.4309336,27.3719108 38.1945857,27.1779059 37.9724048,27.2503113 C37.8715077,27.2828764 37.7934162,27.3622106 37.7194711,27.4387732 C37.1714479,28.0086627 36.7568024,28.8037364 35.9399508,28.2968985 C35.3297309,27.9182425 34.9382364,27.2194784 34.7661585,26.5383826 C34.6915224,26.2435644 34.6555864,25.9300386 34.4959479,25.6712499 C34.3363094,25.4128076 33.9963001,25.2291958 33.7260894,25.3670779 C33.5066729,25.4786307 33.4216705,25.748159 33.3916087,25.9930902 C33.2627231,27.033788 33.7288537,28.0485029 34.2195176,28.9752229 C34.9696804,30.3921516 35.316946,31.6261614 35.4520513,33.2128445" id="Fill-215" fill="#F19CC2"></path>
                    <path d="M9.34538375,133.167467 C9.34538375,133.167467 9.46666755,135.280042 8.86059406,136.850443 C8.86059406,136.850443 8.37442222,138.09346 7.44388863,138.745109 C7.26559107,138.869826 7.1574377,139.069374 7.12322945,139.284512 C7.03580836,139.842276 6.99987242,140.814032 7.77007642,140.967158 L10.9376224,140.986905 C10.9376224,140.986905 11.9935863,141.105733 12.6926095,140.623838 C13.0450581,140.380639 13.1507927,139.431747 13.1103648,139.00459 L12.8588132,137.229792 L13.0405662,133.817384 L9.34538375,133.167467 Z" id="Fill-217" fill="#2E3272"></path>
                    <path d="M23.0626168,39.8638179 C23.0626168,39.8638179 27.1845385,40.3481373 26.9671952,45.8710415 L26.9115636,52.7408941 L16.7727902,54.5281644 C16.7727902,54.5281644 17.2924792,47.0956975 17.5526693,45.8152651 C17.8132049,44.5344862 18.4963333,38.5556705 23.0626168,39.8638179" id="Fill-219" fill="#2E3272"></path>
                    <path d="M29.5735185,64.3084717 C30.4601688,59.576484 33.6916393,55.6908428 35.9293428,51.4307027 C37.4780437,48.481828 38.5568131,45.288715 39.1390445,42.0082998 C39.5008226,39.9709017 39.6715184,37.89886 39.6445664,35.8288968 C39.6307449,34.7947813 39.5163719,31.6785774 39.2834793,31.3113538 C39.0882504,31.0037174 34.3782231,31.1644644 34.2483009,31.4246388 C34.0513443,31.8199238 34.0727676,32.7927199 34.0596372,33.3144545 C34.0375228,34.1954447 34.002969,35.0760885 33.9428454,35.9553464 C33.8222526,37.7107445 33.5986896,39.4637174 33.1698771,41.1716536 C32.0807416,45.5118206 28.8900445,49.5252973 25.0873998,51.8284128 C24.1185115,52.4149312 29.9349512,62.3802015 29.5735185,64.3084717" id="Fill-221" fill="#FFDC6A"></path>
                    <path d="M34.974898,135.424368 C34.974898,135.424368 35.1003283,136.764734 35.339095,137.698383 C35.6728846,139.003066 39.0107808,139.152034 39.0107808,139.152034 C39.3459526,139.239336 39.5798817,139.542815 39.5798817,139.890292 L39.5798817,140.237422 C39.5798817,140.658343 39.2395269,140.999931 38.8193528,140.999931 L30.6919556,140.999931 C30.4960356,140.999931 30.3374337,140.840916 30.3374337,140.644486 L30.3374337,135.424368 L34.974898,135.424368 Z" id="Fill-223" fill="#2E3272"></path>
                    <path d="M32.4275925,74.0575998 C33.3937165,73.9612902 34.8857492,82.3180518 35.0837424,83.2541256 C35.6528434,85.9466366 35.6932713,88.7039314 35.9949259,91.4463295 C36.3366629,94.5545654 36.6134388,97.66973 36.824908,100.789398 C37.2910386,107.671376 37.2589036,114.558204 37.4306359,121.442607 C37.4548236,122.411592 37.8242036,134.081334 37.681842,136.529954 C37.6597276,136.914845 37.3528899,137.267172 36.8093588,137.348931 C34.6656416,137.671465 32.6404439,137.76916 30.4739212,137.832904 C30.0126281,137.846415 29.4936301,137.831172 29.172971,137.4979 C28.2939225,136.583305 28.2773367,129.462285 28.1515609,127.570737 C27.7766523,121.926234 27.6460389,113.53275 27.5022952,107.878546 C27.4290411,105.003809 27.4324965,91.4754302 26.0189009,91.3666489 C24.1118772,91.219413 21.9964941,102.593644 21.452963,105.100465 C20.2964476,110.435253 15.7661001,133.698521 15.2426101,135.632334 C15.0860815,136.209499 14.7533285,137.839487 14.2640468,137.962126 C12.9979959,138.279462 10.7806791,138.120447 9.266532,138.140541 C8.154591,138.155091 6.63940727,138.213293 6.11626287,137.014966 C5.47736328,135.550229 11.121034,100.081627 13.7395202,85.8631452 C14.3041292,82.7978676 15.0415071,79.7644622 15.947853,76.7823295 C16.171416,76.046843 16.4257319,75.2805236 16.9848123,74.7535924 C17.907744,73.8833418 30.9987933,74.2017177 32.4275925,74.0575998" id="Fill-225" fill="#F19CC2"></path>
                    <path d="M19.9483873,83.0741167 C19.2179201,86.0423919 18.4622287,89.1118268 17.8841438,92.2141732 L16.901434,97.4845246 C16.2307449,101.080544 15.5600558,104.675871 14.8907489,108.271891 C14.1485335,112.258345 13.1212493,119.216193 12.3710865,124.296697 C12.2007363,125.450333 12.0442076,126.511471 11.9077201,127.424333 C11.5262463,129.974458 11.1133285,132.258866 10.7135411,134.467751 C10.4861772,135.726704 10.266415,136.94166 10.0646209,138.142065 C10.179685,138.143797 10.2957858,138.145529 10.4139597,138.147262 C10.6133351,136.96591 10.8296418,135.768969 11.0538959,134.529416 C11.4536833,132.318107 11.8669466,130.030928 12.2494571,127.475606 C12.3859446,126.562397 12.5424733,125.501606 12.713169,124.347623 C13.4626407,119.269544 14.4895794,112.315507 15.2304127,108.335635 C15.8997196,104.739615 16.5704087,101.143942 17.2410977,97.5479226 L18.2238076,92.2775713 C18.8001648,89.1852715 19.5544741,86.1206867 20.2839046,83.1569152 C20.8695913,80.7765442 21.4756648,78.3151069 21.9901708,75.8380799 L21.6522347,75.7677531 C21.1384198,78.2381978 20.5333829,80.6968636 19.9483873,83.0741167" id="Fill-227" fill="#7C5AA1"></path>
                    <path d="M34.8848163,133.102857 C34.3094956,109.53611 33.9294039,93.9672155 29.2743172,75.7508469 L28.939491,75.8367634 C33.5849027,94.0150238 33.9646488,109.568329 34.5392784,133.111171 C34.5752143,134.577294 34.6114958,136.075289 34.6498505,137.607928 C34.7649146,137.597188 34.8796332,137.586102 34.9946973,137.57467 C34.9566882,136.050692 34.9204067,134.561012 34.8848163,133.102857" id="Fill-229" fill="#7C5AA1"></path>
                    <path d="M7.94467672,79.5535857 C7.94467672,79.5535857 7.8223563,84.1317553 6.76259153,84.1317553 C6.76259153,84.1317553 6.27676523,83.9367111 6.34034421,83.1056079 C6.34034421,83.1056079 5.98789554,86.09363 4.49137086,85.2154113 C4.49137086,85.2154113 2.32277494,84.2564727 5.00103927,79.2695071 L7.94467672,79.5535857 Z" id="Fill-231" fill="#F19CC2"></path>
                    <path d="M31.9575228,76.1815725 C29.6465652,76.4434791 27.7820427,76.5224668 25.4551904,76.6108084 C22.83083,76.7098894 19.5440734,76.9184447 16.9957313,76.1985479 C16.710317,76.117828 16.4121177,76.0201327 16.2110147,75.8018771 C16.0596691,75.6380123 16.8326374,74.1174988 16.8295275,72.3815012 C16.8226168,68.3098231 16.1139185,65.8816437 15.5233942,64.0018747 C14.9214672,62.0853833 13.9283913,60.8444447 13.4895581,58.830258 C12.467457,54.1436536 16.0168224,52.2354767 20.8854515,51.2543661 C22.3429304,50.9605872 23.8574231,50.8729386 25.3307967,51.0898084 C26.0450236,51.1947789 26.8086624,51.4189238 27.4050608,51.8266806 C28.0031869,52.2354767 28.3787866,52.6712948 28.7913589,53.1621966 C30.719806,55.4552654 31.2643737,57.7341302 31.5090146,60.7103735 C31.6036919,61.8556953 31.6192411,63.5057764 31.644811,64.6542162 C31.6810924,66.3340909 32.1389302,68.0524201 32.4575161,69.6973047 C32.6119716,70.4930713 33.4509376,75.4890442 33.3438209,75.6501376 C33.1472098,75.9459951 32.2785275,76.145543 31.9575228,76.1815725" id="Fill-233" fill="#FFDC6A"></path>
                    <path d="M7.60553126,62.114484 C5.34053027,66.7134398 4.42554588,71.8455627 3.62424347,76.9111695 C3.4604585,77.9449386 3.32293441,79.0912998 3.90482025,79.9605111 C4.51573128,80.8737199 5.70161738,81.1609165 6.7772769,81.3770934 C7.30180344,81.4827568 7.8802339,81.5804521 8.34567347,81.3150811 C8.95451126,80.9686437 9.10205595,80.1714914 9.20053425,79.4761916 C10.0992784,73.1419312 12.3262702,66.8492432 16.5252469,62.0309926 C17.6696684,60.7179951 18.9892777,59.4600811 19.5258981,57.8013391 C19.9847724,56.3837174 19.9585115,54.3896241 19.5877494,52.9418624 C19.196946,51.418231 17.9813436,51.9843096 16.8732035,52.4942654 C14.2319118,53.7106069 12.0567506,55.6523882 10.2440587,57.9305602 C9.21573792,59.2227715 8.33496179,60.6327715 7.60553126,62.114484" id="Fill-235" fill="#FFDC6A"></path>
                    <path d="M24.3209276,47.0160516 C24.1958429,48.1052506 24.1664722,49.7823538 24.1820214,50.67443 C24.2013715,51.8117838 24.2532022,53.0998378 24.2058635,54.3411229 C24.1951518,54.6252015 23.9384172,54.6127297 23.4591561,54.4429754 C22.0393408,53.9406413 21.0082557,52.2683882 20.878679,51.7868403 C20.8479261,51.672516 20.8430886,51.1771106 20.8430886,51.1771106 L21.1779148,46.4038968 L24.3209276,47.0160516 Z" id="Fill-237" fill="#F19CC2"></path>
                    <path d="M23.8600146,41.2445093 C23.8600146,41.2445093 25.5994525,41.680674 25.7445784,44.732787 C25.708988,46.4116224 24.6457678,48.9600155 22.5283115,48.2027034 C20.8745671,47.6113349 21.0234939,45.4807452 21.2532766,44.0596592 C21.4830593,42.6382268 22.2304578,41.2074405 23.8600146,41.2445093" id="Fill-239" fill="#F19CC2"></path>
                    <path d="M24.1498682,41.0992135 C24.1498682,41.0992135 24.1819868,42.854958 21.3962602,46.988302 L20.0911635,50.1828007 L18.7138494,48.3660833 C18.7138494,48.3660833 20.3085069,40.4451398 20.5258502,40.5178916 C20.7435391,40.5906435 24.1498682,41.0992135 24.1498682,41.0992135" id="Fill-241" fill="#2E3272"></path>
                    <path d="M18.3256721,59.7975111 C17.2133856,60.5797666 16.2517536,61.6079926 15.5444375,62.7702899 C15.4950256,62.8517027 15.5205954,62.9584054 15.6017968,63.0082924 C15.6301309,63.0252678 15.6612293,63.0335823 15.6919822,63.0335823 C15.7500326,63.0335823 15.8070463,63.0041351 15.8395269,62.9504373 C16.5223098,61.8286732 17.4507702,60.8364767 18.5240109,60.0808968 C18.602448,60.0261597 18.6211071,59.9180713 18.5661665,59.8397764 C18.511226,59.7614816 18.4030726,59.742774 18.3256721,59.7975111" id="Fill-243" fill="#F19CC2"></path>
                    <path d="M31.0926759,57.1730057 C30.7191494,55.5132243 30.1068563,54.3737919 28.9088763,53.109642 C28.8432241,53.0396617 28.7333431,53.0372366 28.664581,53.1030597 C28.5951279,53.1688828 28.5927092,53.2787034 28.6583614,53.3479909 C29.8090026,54.5626002 30.3971081,55.6566494 30.7557765,57.2492219 C30.7737444,57.3295953 30.8449252,57.3843324 30.924399,57.3843324 C30.9368383,57.3843324 30.9496232,57.3829467 30.9624081,57.3801752 C31.0557034,57.3590425 31.1140993,57.2661973 31.0926759,57.1730057" id="Fill-245" fill="#F19CC2"></path>
                </g>
            </g>
        </g>
    </g>
</svg>