<?xml version="1.0" encoding="UTF-8"?>
<svg width="145px" height="50px" viewBox="0 0 145 50" version="1.1" xmlns="http://www.w3.org/2000/svg" xmlns:xlink="http://www.w3.org/1999/xlink">
    <title>logo/great/exporting-is-great</title>
    <g id="Pages" stroke="none" stroke-width="1" fill="none" fill-rule="evenodd">
        <g id="header/desktop/signed-in" transform="translate(-30.000000, -15.000000)">
            <g id="logo/great/exporting-is-great" transform="translate(30.000000, 15.000000)">
                <path d="M52.4680393,43.4343434 C53.2393042,43.4343434 53.7418025,43.6701897 54.3428986,44.099785 L53.7418025,45.0183176 C53.3293935,44.6992911 52.8809488,44.5623481 52.4320036,44.5623481 C52.0656403,44.5623481 51.8409174,44.7165358 51.8409174,44.9802779 C51.8409174,45.2536567 51.9760514,45.4362474 52.1727465,45.6726009 L53.9034628,47.672476 C54.0471052,47.3808381 54.1902472,47.0359446 54.3428986,46.6170004 L55.3554026,46.9441421 C55.1582071,47.5629216 54.9259768,48.1005497 54.6472003,48.5372458 L55.8318751,49.9010967 L54.3964517,49.9010967 L53.9209802,49.3812205 C53.4279913,49.7910351 52.8268952,50 52.0921666,50 C50.8103955,50 50.0291207,49.4542567 50.0291207,48.3085002 C50.0291207,47.4173563 50.5126002,46.8812497 51.3113923,46.4810718 L51.1502325,46.2994955 C50.8184034,45.9256918 50.6036905,45.517906 50.6036905,45.0081737 C50.6036905,43.9719716 51.4104906,43.4343434 52.4680393,43.4343434 Z M67.094544,43.4346478 C68.8082434,43.4346478 69.820247,44.7792252 69.820247,46.7172224 C69.820247,48.653698 68.8082434,49.9997971 67.094544,49.9997971 C65.3813451,49.9997971 64.368841,48.653698 64.368841,46.7172224 C64.368841,44.7792252 65.3813451,43.4346478 67.094544,43.4346478 Z M141.141724,43.5348697 C142.935003,43.5348697 144.261819,44.3894956 144.261819,46.7175268 C144.261819,48.9537554 142.666236,49.9011982 141.052136,49.9011982 L139.177276,49.9011982 L139.177276,43.5348697 L141.141724,43.5348697 Z M82.689409,43.5349712 L82.689409,45.9720496 L85.2629611,45.9720496 L85.2629611,43.5349712 L86.5187064,43.5349712 L86.5187064,49.9012996 L85.2629611,49.9012996 L85.2629611,47.2268533 L82.689409,47.2268533 L82.689409,49.9012996 L81.4351652,49.9012996 L81.4351652,43.5349712 L82.689409,43.5349712 Z M73.5791746,43.5348697 C74.7623479,43.5348697 75.7383158,44.1982826 75.7383158,45.5535112 C75.7383158,46.5095763 75.3354162,47.1085751 74.5381256,47.4276016 L75.7383158,49.9011982 L74.2963859,49.9011982 L73.1747736,47.6096851 L71.9110204,47.6096851 L71.9110204,49.9011982 L70.6552751,49.9011982 L70.6552751,43.5348697 L73.5791746,43.5348697 Z M40.6322521,43.5351741 L40.6322521,49.9015025 L39.3760063,49.9015025 L39.3760063,43.5351741 L40.6322521,43.5351741 Z M23.3682319,43.5348697 C24.5524062,43.5348697 25.529375,44.1982826 25.529375,45.5535112 C25.529375,46.5095763 25.124974,47.1085751 24.3271829,47.4276016 L25.529375,49.9011982 L24.0859436,49.9011982 L22.9653323,47.6096851 L21.7005781,47.6096851 L21.7005781,49.9011982 L20.4458338,49.9011982 L20.4458338,43.5348697 L23.3682319,43.5348697 Z M17.4047181,43.5350726 C18.6239271,43.5350726 19.3946914,44.1254492 19.3946914,45.2164285 C19.3946914,45.7631861 19.1434423,46.1998822 18.7320343,46.4550019 C19.2340321,46.6801971 19.6104054,47.1432674 19.6104054,47.8452271 C19.6104054,49.1821966 18.7230254,49.901401 17.3781917,49.901401 L14.5263637,49.901401 L14.5263637,43.5350726 L17.4047181,43.5350726 Z M36.1832902,43.5349712 L38.5681552,49.9012996 L37.1872858,49.9012996 L36.694297,48.4811499 L34.3985203,48.4811499 L33.9055314,49.9012996 L32.5601973,49.9012996 L34.9630802,43.5349712 L36.1832902,43.5349712 Z M123.150683,43.5349712 L123.150683,48.6444671 L126.299806,48.6444671 L126.299806,49.9012996 L121.896439,49.9012996 L121.896439,43.5349712 L123.150683,43.5349712 Z M113.304569,43.5348697 C114.488243,43.5348697 115.466213,44.1982826 115.466213,45.5535112 C115.466213,46.5095763 115.062312,47.1085751 114.265022,47.4276016 L115.466213,49.9011982 L114.023282,49.9011982 L112.901169,47.6096851 L111.637416,47.6096851 L111.637416,49.9011982 L110.382672,49.9011982 L110.382672,43.5348697 L113.304569,43.5348697 Z M92.0426343,43.5349712 L92.0426343,44.7791238 L88.940558,44.7791238 L88.940558,45.8807542 L90.7433458,45.8807542 L90.7433458,47.1167917 L88.940558,47.1167917 L88.940558,48.6535966 L92.1782688,48.6535966 L92.1782688,49.9012996 L87.6848128,49.9012996 L87.6848128,43.5349712 L92.0426343,43.5349712 Z M95.9880969,43.5348697 C97.1727717,43.5348697 98.1487395,44.1982826 98.1487395,45.5535112 C98.1487395,46.5095763 97.746841,47.1085751 96.9480488,47.4276016 L98.1487395,49.9011982 L96.7053081,49.9011982 L95.5851973,47.6096851 L94.3209436,47.6096851 L94.3209436,49.9011982 L93.0651983,49.9011982 L93.0651983,43.5348697 L95.9880969,43.5348697 Z M33.2775086,43.5349205 L33.2775086,44.7887098 L31.4752214,44.7887098 L31.4752214,49.9012489 L30.2194761,49.9012489 L30.2194761,44.7887098 L28.4171888,44.7887098 L28.4171888,43.5349205 L33.2775086,43.5349205 Z M130.183207,43.5349712 L132.568573,49.9012996 L131.186202,49.9012996 L130.692712,48.4811499 L128.397937,48.4811499 L127.905949,49.9012996 L126.560114,49.9012996 L128.962997,43.5349712 L130.183207,43.5349712 Z M100.221395,43.5349712 L102.4451,46.8992045 L102.609003,47.1539861 C102.721374,47.3306031 102.83115,47.5090235 102.885537,47.6189161 L102.868275,46.3085749 L102.868275,46.3085749 L102.86802,43.5349712 L104.104746,43.5349712 L104.104746,49.9012996 L102.984635,49.9012996 L100.678849,46.4259903 C100.525697,46.1906512 100.319993,45.8716247 100.239913,45.7067859 L100.240856,45.8401519 C100.244428,46.1638733 100.25693,46.7944322 100.25693,47.1000542 L100.25693,49.9012996 L99.0202037,49.9012996 L99.0202037,43.5349712 L100.221395,43.5349712 Z M134.306947,43.5349712 L136.532153,46.8992045 L136.752155,47.2421193 C136.844074,47.3881731 136.928046,47.527339 136.973091,47.6189161 L136.955125,46.4024256 C136.95446,46.3365374 136.954072,46.2768021 136.954072,46.2261549 L136.954072,43.5349712 L138.190298,43.5349712 L138.190298,49.9012996 L137.070187,49.9012996 L134.765902,46.4259903 L134.519345,46.0399505 C134.438577,45.9101716 134.366506,45.7892053 134.324964,45.7067859 L134.344692,47.0172448 L134.344692,47.0172448 L134.344984,49.9012996 L133.106756,49.9012996 L133.106756,43.5349712 L134.306947,43.5349712 Z M120.873925,43.5349712 L120.873925,44.7791238 L117.771849,44.7791238 L117.771849,45.8807542 L119.572635,45.8807542 L119.572635,47.1167917 L117.771849,47.1167917 L117.771849,48.6535966 L121.00956,48.6535966 L121.00956,49.9012996 L116.517105,49.9012996 L116.517105,43.5349712 L120.873925,43.5349712 Z M109.127177,43.5351741 L109.127177,49.9015025 L107.870931,49.9015025 L107.870931,43.5351741 L109.127177,43.5351741 Z M42.9082091,43.5349712 L45.1324148,46.8992045 L45.2964293,47.1539861 C45.4089112,47.3306031 45.518798,47.5090235 45.5728516,47.6189161 L45.5546031,46.3085749 L45.5546031,46.3085749 L45.5543332,43.5349712 L46.7915601,43.5349712 L46.7915601,49.9012996 L45.6709488,49.9012996 L43.3661633,46.4259903 L43.1471999,46.0834957 C43.0555898,45.9375289 42.9717721,45.798363 42.9267275,45.7067859 L42.9437473,46.92309 C42.9443776,46.9891542 42.9447453,47.0491172 42.9447453,47.1000542 L42.9447453,49.9012996 L41.7070179,49.9012996 L41.7070179,43.5349712 L42.9082091,43.5349712 Z M80.8520369,43.5349205 L80.8520369,44.7887098 L79.0492491,44.7887098 L79.0492491,49.9012489 L77.7930033,49.9012489 L77.7930033,44.7887098 L75.9902156,44.7887098 L75.9902156,43.5349205 L80.8520369,43.5349205 Z M59.6509124,43.5349712 L61.875118,46.8992045 L62.0390028,47.1539861 C62.1515588,47.3306031 62.261668,47.5090235 62.3150543,47.6189161 L62.2980345,46.4024256 C62.2974042,46.3365374 62.2970364,46.2768021 62.2970364,46.2261549 L62.2970364,43.5349712 L63.5342634,43.5349712 L63.5342634,49.9012996 L62.4131516,49.9012996 L60.1088665,46.4259903 L59.8895763,46.0834957 C59.7979903,45.9375289 59.7144198,45.798363 59.6699312,45.7067859 L59.6876864,47.0172448 L59.6876864,47.0172448 L59.6879491,49.9012996 L58.4502217,49.9012996 L58.4502217,43.5349712 L59.6509124,43.5349712 Z M27.7444717,43.5351741 L27.7444717,49.9015025 L26.4887264,49.9015025 L26.4887264,43.5351741 L27.7444717,43.5351741 Z M51.9760514,47.2266504 C51.4820616,47.4908997 51.2843655,47.8175342 51.2843655,48.1989458 C51.2843655,48.6092676 51.6076861,48.8719953 52.234808,48.8719953 C52.6216917,48.8719953 52.9440113,48.7807 53.2032684,48.5905014 L51.9760514,47.2266504 Z M67.094544,44.6990882 C66.0810389,44.6990882 65.6591205,45.5811026 65.6591205,46.7172224 C65.6591205,47.8543566 66.0810389,48.7358639 67.094544,48.7358639 C68.1080491,48.7358639 68.529467,47.8543566 68.529467,46.7172224 C68.529467,45.5811026 68.1080491,44.6990882 67.094544,44.6990882 Z M17.4217349,47.0448713 L15.7545817,47.0448713 L15.7545817,48.6902162 L17.4217349,48.6902162 C18.0323404,48.6902162 18.3196253,48.3635817 18.3196253,47.8634862 C18.3196253,47.3172357 18.0323404,47.0448713 17.4217349,47.0448713 Z M141.096179,44.7704 L140.433022,44.7704 L140.433022,48.6631319 L141.052136,48.6631319 C142.369442,48.6631319 142.971038,47.8800208 142.971038,46.7175268 C142.971038,45.416061 142.423496,44.7704 141.096179,44.7704 Z M35.5466589,45.1260461 C35.4835963,45.3629068 35.3579718,45.7448256 35.2318467,46.1176149 L34.8294476,47.2719938 L36.2643706,47.2719938 L35.8599696,46.1176149 L35.6984212,45.6286888 C35.635636,45.4339957 35.5814156,45.2576354 35.5466589,45.1260461 Z M129.546576,45.1260461 L129.49563,45.3037513 C129.427007,45.5321976 129.329082,45.8276677 129.231764,46.1176149 L128.828864,47.2719938 L130.263287,47.2719938 L129.860387,46.1176149 L129.698465,45.6286888 C129.63546,45.4339957 129.581054,45.2576354 129.546576,45.1260461 Z M23.3412051,44.7704 L21.7005781,44.7704 L21.7005781,46.408137 L23.3412051,46.408137 C23.9237828,46.408137 24.2380945,46.1362798 24.2380945,45.581407 C24.2380945,45.0082751 23.897757,44.7704 23.3412051,44.7704 Z M73.5516473,44.7704 L71.9110204,44.7704 L71.9110204,46.408137 L73.5516473,46.408137 C74.134225,46.408137 74.4485367,46.1362798 74.4485367,45.581407 C74.4485367,45.0082751 74.1066977,44.7704 73.5516473,44.7704 Z M95.9615706,44.7704 L94.3209436,44.7704 L94.3209436,46.408137 L95.9615706,46.408137 C96.5441483,46.408137 96.8589605,46.1362798 96.8589605,45.581407 C96.8589605,45.0082751 96.5191235,44.7704 95.9615706,44.7704 Z M113.278543,44.7704 L111.637416,44.7704 L111.637416,46.408137 L113.278543,46.408137 C113.861622,46.408137 114.174432,46.1362798 114.174432,45.581407 C114.174432,45.0082751 113.834595,44.7704 113.278543,44.7704 Z M17.3506644,44.7072034 L15.7545817,44.7072034 L15.7545817,45.9173738 L17.4142275,45.9173738 C17.9337427,45.9173738 18.1209283,45.672398 18.1209283,45.3178677 C18.1209283,44.9176898 17.8977069,44.7072034 17.3506644,44.7072034 Z" id="Britain-&amp;-Northern-Ireland" fill="#FFFFFF"></path>
                <g id="Brand-/-Logo-/-GREAT" transform="translate(14.526364, 0.000000)">
                    <polygon id="BG" fill="#E41F13" points="1.42366927e-14 38.3838384 129.735455 38.3838384 129.735455 0 1.42366927e-14 0"></polygon>
                    <path d="M17.2802617,4.91429293 C22.8138044,4.91429293 25.7541408,7.52843434 27.5353735,11.7430808 L22.3880317,13.8890404 C21.3822062,11.8592424 20.143458,10.3370202 17.2021199,10.3370202 C13.1392462,10.3370202 10.8165308,13.9274242 10.8165308,19.0001515 C10.8165308,24.035 13.1768144,27.7405556 17.239688,27.7405556 C21.7092999,27.7405556 22.3689971,24.935 22.5423117,23.6057071 L22.575709,23.2301571 C22.5869948,23.0837425 22.5930466,22.9520996 22.5919017,22.785 L22.5423117,22.7839899 L18.1698762,22.7839899 L18.1698762,17.6728788 L27.9596435,17.6728788 L27.9596435,22.0819697 C27.9596435,29.105202 23.3547862,33.0875253 17.0864099,33.0875253 C10.0040562,33.0875253 5.24341619,27.6243939 5.24341619,19.0001515 C5.24341619,10.6900505 10.1974071,4.91429293 17.2802617,4.91429293 Z M45.0854248,5.34343434 C50.1941967,5.34343434 54.4138549,8.19242424 54.4138549,14.0065657 C54.4138549,18.1025253 52.6721939,20.679798 49.2259394,22.0449495 L54.4138549,32.6585859 L48.1825457,32.6585859 L43.3452666,22.8232323 L37.8873612,22.8232323 L37.8873612,32.6585859 L32.4705303,32.6585859 L32.4705303,5.34343434 L45.0854248,5.34343434 Z M77.3210287,5.34348485 L77.3210287,10.6899495 L63.9292242,10.6899495 L63.9292242,16.3470202 L73.9724514,16.3470202 L73.9724514,21.6540909 L63.9292242,21.6540909 L63.9292242,27.3116667 L77.3210287,27.3116667 L77.3210287,32.6586364 L58.5128941,32.6586364 L58.5128941,5.34348485 L77.3210287,5.34348485 Z M95.619839,5.34343434 L105.914022,32.6585859 L99.9537044,32.6585859 L97.923019,26.8429293 L87.8191817,26.8429293 L85.7884962,32.6585859 L79.9844626,32.6585859 L90.357288,5.34343434 L95.619839,5.34343434 Z M124.570681,5.34353535 L124.570681,10.7278788 L116.789059,10.7278788 L116.789059,32.6586869 L111.372729,32.6586869 L111.372729,10.7278788 L103.592108,10.7278788 L103.592108,5.34353535 L124.570681,5.34353535 Z M92.8723526,12.1722222 L92.8044758,12.3946433 C92.4807194,13.4079784 91.1723245,17.2013369 89.7716515,21.235914 L89.6264617,21.6540404 L96.1167408,21.6540404 L93.7836026,14.9007244 C93.273825,13.4114116 92.9288187,12.3848026 92.8723526,12.1722222 Z M44.9697148,10.6494949 L37.8873612,10.6494949 L37.8873612,17.6727273 L44.9697148,17.6727273 C47.4857812,17.6727273 48.8397385,16.5040404 48.8397385,14.1222222 C48.8397385,11.6636364 47.3685685,10.6494949 44.9697148,10.6494949 Z" id="Text" fill="#FFFFFF"></path>
                </g>
                <g id="Group" transform="translate(-0.000000, 0.000000)">
                    <polygon id="BG" fill="#FFFFFF" points="4.26453658e-13 38.3283122 8.01873489 38.3283122 8.01873489 0.000558987938 4.26453658e-13 0.000558987938"></polygon>
                    <path d="M8.01454547,0 L8.01454547,38.3838384 L5.54714506,38.3838384 L5.54714506,21.1762156 L9.10278324e-05,21.1762156 L9.10278324e-05,17.2891667 L5.54714506,17.2891667 L5.54714506,0 L8.01454547,0 Z M4.32272969,25.6444279 L4.32272969,28.6218055 L3.30725346e-13,37.5377041 L3.30725346e-13,34.5593935 L4.32272969,25.6444279 Z M3.30725346e-13,3.66103991 L4.32272969,12.5765654 L4.32272969,15.5541295 L3.30725346e-13,6.6389773 L3.30725346e-13,3.66103991 Z" id="Cross" fill="#B00D23"></path>
                    <path d="M4.32495839,30.1001099 L4.32495839,38.3844533 L0.293642017,38.3844533 L4.32495839,30.1001099 Z M3.80089819,22.4318812 L4.88498131e-14,30.2422471 L4.88498131e-14,22.4318812 L3.80089819,22.4318812 Z M0,8.11553933 L3.85408563,16.0346961 L0,16.0346961 L0,8.11553933 Z M4.32495839,0.000614886731 L4.32495839,8.29036986 L0.290727637,0.000614886731 L4.32495839,0.000614886731 Z" id="Triangles" fill="#1E1348"></path>
                </g>
            </g>
        </g>
    </g>
</svg>