<?xml version="1.0" encoding="UTF-8"?>
<svg width="25px" height="25px" viewBox="0 0 25 25" version="1.1" xmlns="http://www.w3.org/2000/svg" xmlns:xlink="http://www.w3.org/1999/xlink">
    <!-- Generator: Sketch 48.2 (47327) - http://www.bohemiancoding.com/sketch -->
    <title>Fill 1</title>
    <desc>Created with Sketch.</desc>
    <defs></defs>
    <g id="Regular---data-Copy" stroke="none" stroke-width="1" fill="none" fill-rule="evenodd" transform="translate(-1062.000000, -534.000000)">
        <g id="Page-1" transform="translate(1062.000000, 534.000000)" fill="#006CCC">
            <path d="M12.5,18.4154498 C9.23690945,18.4154498 6.58218504,15.7618246 6.58218504,12.4999754 C6.58218504,9.23817545 9.23690945,6.58450101 12.5,6.58450101 C15.7630906,6.58450101 18.417815,9.23817545 18.417815,12.4999754 C18.417815,15.7618246 15.7630906,18.4154498 12.5,18.4154498 Z M25,15.11218 L25,9.87798135 L22.1309055,9.15981078 C22.0029528,8.79086228 21.8454724,8.41694526 21.6633858,8.04799676 L23.1840551,5.50963103 L19.488189,1.81030734 L16.9488189,3.33042438 C16.5797244,3.14836059 16.2057087,2.99586187 15.8366142,2.8630896 L15.1181102,0 L9.88188976,0 L9.16338583,2.86795972 C8.79429134,2.99586187 8.42027559,3.1532799 8.0511811,3.3352945 L5.51181102,1.81030734 L1.81102362,5.50963103 L3.33169291,8.04799676 C3.1496063,8.41694526 2.99704724,8.79086228 2.86417323,9.15981078 L0,9.87798135 L0,15.11218 L2.86909449,15.8303506 C2.99704724,16.1992991 3.15452756,16.5732161 3.33661417,16.9421646 L1.81102362,19.4804811 L5.51673228,23.1847242 L8.05610236,21.6647055 C8.42519685,21.8466709 8.7992126,21.9992188 9.16830709,22.1320403 L9.88681102,25 L15.1230315,25 L15.8415354,22.1320403 C16.2106299,22.0040889 16.5846457,21.8466709 16.9537402,21.6647055 L19.4931102,23.1847242 L23.1988189,19.4804811 L21.6781496,16.9421646 C21.8602362,16.5732161 22.0127953,16.1992991 22.1456693,15.8303506 L25,15.11218 Z" id="Fill-1"></path>
        </g>
    </g>
</svg>
