<svg width="60" height="60" viewBox="0 0 60 60" fill="none" xmlns="http://www.w3.org/2000/svg">
<path d="M9.64343 33.5C9.64343 28.5294 13.6729 24.5 18.6434 24.5H24.6434V51.5H9.64343V33.5Z" fill="white"/>
<ellipse cx="21.6434" cy="16" rx="8" ry="8.5" fill="white"/>
<path fill-rule="evenodd" clip-rule="evenodd" d="M22.0251 7.5L22.0251 51.853C22.0251 52.2103 22.3148 52.5 22.6722 52.5C29.2815 52.5 34.3357 46.6089 33.331 40.0765L32.2819 33.2556L34.5706 30.8373C34.5706 30.8373 34.6125 30.4502 33.2085 28.5C31.8726 26.6443 28.6335 24.8462 28.6335 24.8462L26.9814 23.2692L30.2856 18.5385L29.396 12.0025L24.0585 7.5H22.0251Z" fill="#59CBE8"/>
<path fill-rule="evenodd" clip-rule="evenodd" d="M18.9329 23.2146C19.0932 23.7439 18.7869 24.3008 18.2487 24.4584C13.3809 25.8844 9.8252 30.346 9.8252 35.6321V52.5C9.8252 53.0523 9.37003 53.5 8.80854 53.5C8.24705 53.5 7.79187 53.0523 7.79187 52.5V35.6321C7.79187 29.444 11.9555 24.2152 17.6683 22.5416C18.2065 22.384 18.7726 22.6853 18.9329 23.2146Z" fill="#222222"/>
<path fill-rule="evenodd" clip-rule="evenodd" d="M14.9085 36.5C15.47 36.5 15.9252 36.9477 15.9252 37.5V48.5C15.9252 49.0523 15.47 49.5 14.9085 49.5C14.347 49.5 13.8918 49.0523 13.8918 48.5V37.5C13.8918 36.9477 14.347 36.5 14.9085 36.5Z" fill="#222222"/>
<path fill-rule="evenodd" clip-rule="evenodd" d="M22.0252 8.5C18.152 8.5 14.9086 11.7999 14.9086 16C14.9086 20.2001 18.152 23.5 22.0252 23.5C25.8985 23.5 29.1419 20.2001 29.1419 16C29.1419 11.7999 25.8985 8.5 22.0252 8.5ZM12.8752 16C12.8752 10.8113 16.9147 6.5 22.0252 6.5C27.1358 6.5 31.1752 10.8113 31.1752 16C31.1752 21.1887 27.1358 25.5 22.0252 25.5C16.9147 25.5 12.8752 21.1887 12.8752 16Z" fill="#222222"/>
<path fill-rule="evenodd" clip-rule="evenodd" d="M25.2942 23.3782C25.4556 22.8492 26.0224 22.5491 26.5602 22.7079C28.8011 23.3694 30.7532 24.5468 32.2999 26.1034C33.6502 27.4623 31.9014 28.583 31.0988 27.765C29.7473 26.3118 27.9986 25.2206 25.9757 24.6235C25.4379 24.4647 25.1328 23.9072 25.2942 23.3782Z" fill="#222222"/>
<path fill-rule="evenodd" clip-rule="evenodd" d="M25.2942 23.3782C25.4556 22.8492 26.0224 22.5491 26.5602 22.7079C28.8011 23.3694 30.7532 24.5468 32.2999 26.1034C33.6502 27.4623 31.9014 28.583 31.0988 27.765C29.7473 26.3118 27.9986 25.2206 25.9757 24.6235C25.4379 24.4647 25.1328 23.9072 25.2942 23.3782Z" fill="#222222"/>
<path fill-rule="evenodd" clip-rule="evenodd" d="M47.9417 25.5935C48.5991 25.5935 49.2146 25.9166 49.5879 26.4578L51.5028 29.2334C51.7331 29.5673 51.8565 29.9634 51.8565 30.3691V50.5857C51.8565 51.6902 50.9611 52.5857 49.8565 52.5857H40.4873C39.3827 52.5857 38.4873 51.6902 38.4873 50.5857V30.3691C38.4873 29.9634 38.6107 29.5673 38.8411 29.2334L40.7559 26.4578C41.1292 25.9166 41.7447 25.5935 42.4021 25.5935H47.9417Z" fill="white" stroke="#222222" stroke-width="2"/>
<path fill-rule="evenodd" clip-rule="evenodd" d="M52.2083 30.4382V49.8618C52.2083 51.7484 51.2632 53.2778 50.0974 53.2778H40.5982C39.4324 53.2778 38.4873 51.7484 38.4873 49.8618V30.4382L52.2083 30.4382Z" fill="#DDE5ED"/>
<path fill-rule="evenodd" clip-rule="evenodd" d="M47.9417 25.5935C48.5991 25.5935 49.2146 25.9166 49.5879 26.4578L51.5028 29.2334C51.7331 29.5673 51.8565 29.9634 51.8565 30.3691V50.5857C51.8565 51.6902 50.9611 52.5857 49.8565 52.5857H40.4873C39.3827 52.5857 38.4873 51.6902 38.4873 50.5857V30.3691C38.4873 29.9634 38.6107 29.5673 38.8411 29.2334L40.7559 26.4578C41.1292 25.9166 41.7447 25.5935 42.4021 25.5935H47.9417Z" stroke="#222222" stroke-width="2"/>
<rect x="40.5427" y="21.0566" width="9.25827" height="4.22896" rx="1.5" fill="white" stroke="#222222" stroke-width="2"/>
<path d="M48.3383 42.3019V46.4545" stroke="#222222" stroke-width="2" stroke-linecap="round"/>
<path d="M48.3383 38.8412V37.457" stroke="#222222" stroke-width="2" stroke-linecap="round"/>
<path fill-rule="evenodd" clip-rule="evenodd" d="M25.251 46.7723C25.251 43.1512 28.3204 42.4179 29.0878 38.0634C29.5993 35.1604 30.8783 33.7114 32.9246 33.7164C34.9708 33.7114 36.2498 35.1604 36.7613 38.0634C37.5287 42.4179 40.5981 42.1746 40.5981 46.7723C40.5981 49.7819 38.0403 52.5196 32.9246 52.5859C28.0088 52.5222 25.251 49.7243 25.251 46.7723Z" fill="white" stroke="#222222" stroke-width="2"/>
<path fill-rule="evenodd" clip-rule="evenodd" d="M31.9948 33.6112C28.6035 33.8335 27.0209 32.2769 27.247 28.9412C30.6383 28.7188 32.2209 30.2755 31.9948 33.6112Z" fill="#DFD5C5" stroke="#222222" stroke-width="2" stroke-linecap="round" stroke-linejoin="round"/>
<path d="M32.9244 33.2676C32.9244 33.2676 32.9244 30.4371 35.802 30.4371" stroke="#222222" stroke-width="2" stroke-linecap="round"/>
</svg>
