<svg width="60" height="60" viewBox="0 0 60 60" fill="none" xmlns="http://www.w3.org/2000/svg">
<path d="M9.90662 33.5C9.90662 28.5294 13.9361 24.5 18.9066 24.5H24.9066V51.5H9.90662V33.5Z" fill="white"/>
<ellipse cx="21.9066" cy="16" rx="8" ry="8.5" fill="white"/>
<path fill-rule="evenodd" clip-rule="evenodd" d="M22.2884 7.5L22.2884 51.7519C22.2884 52.1651 22.6233 52.5 23.0365 52.5C29.9227 52.5 35.5051 46.9176 35.5051 40.0314V34.3077L33.4717 28.5L28.8967 24.8462L27.2446 23.2692L30.5488 18.5385L29.6592 12.0025L24.3217 7.5H22.2884Z" fill="#59CBE8"/>
<path fill-rule="evenodd" clip-rule="evenodd" d="M19.1961 23.2146C19.3564 23.7439 19.05 24.3008 18.5119 24.4584C13.6441 25.8844 10.0884 30.346 10.0884 35.6321V52.5C10.0884 53.0523 9.63321 53.5 9.07172 53.5C8.51023 53.5 8.05505 53.0523 8.05505 52.5V35.6321C8.05505 29.444 12.2187 24.2152 17.9315 22.5416C18.4697 22.384 19.0358 22.6853 19.1961 23.2146Z" fill="#222222"/>
<path fill-rule="evenodd" clip-rule="evenodd" d="M25.3816 23.3782C25.543 22.8492 26.1098 22.5491 26.6476 22.7079C32.3807 24.4003 36.2233 29.4692 36.2233 35.6256V52.5C36.2233 53.0523 35.7681 53.5 35.2067 53.5C34.6452 53.5 34.19 53.0523 34.19 52.5V35.6256C34.19 30.3307 30.9154 26.0559 26.0631 24.6235C25.5253 24.4647 25.2202 23.9072 25.3816 23.3782Z" fill="#222222"/>
<path fill-rule="evenodd" clip-rule="evenodd" d="M15.1717 36.5C15.7332 36.5 16.1884 36.9477 16.1884 37.5V48.5C16.1884 49.0523 15.7332 49.5 15.1717 49.5C14.6102 49.5 14.1551 49.0523 14.1551 48.5V37.5C14.1551 36.9477 14.6102 36.5 15.1717 36.5Z" fill="#222222"/>
<path fill-rule="evenodd" clip-rule="evenodd" d="M22.2884 8.5C18.4152 8.5 15.1717 11.7999 15.1717 16C15.1717 20.2001 18.4152 23.5 22.2884 23.5C26.1616 23.5 29.4051 20.2001 29.4051 16C29.4051 11.7999 26.1616 8.5 22.2884 8.5ZM13.1384 16C13.1384 10.8113 17.1778 6.5 22.2884 6.5C27.399 6.5 31.4384 10.8113 31.4384 16C31.4384 21.1887 27.399 25.5 22.2884 25.5C17.1778 25.5 13.1384 21.1887 13.1384 16Z" fill="#222222"/>
<path fill-rule="evenodd" clip-rule="evenodd" d="M47.1008 33.1412L32.1596 26.6064C31.8658 26.4779 31.5285 26.4949 31.2515 26.6522L28.7524 28.0714C28.1188 28.4312 28.0797 29.3207 28.679 29.742L39.5849 37.4094" fill="#DDE5ED"/>
<path d="M47.1008 33.1412L32.1596 26.6064C31.8658 26.4779 31.5285 26.4949 31.2515 26.6522L28.7524 28.0714C28.1188 28.4312 28.0797 29.3207 28.679 29.742L39.5849 37.4094" stroke="#222222" stroke-width="2" stroke-linecap="round"/>
<path fill-rule="evenodd" clip-rule="evenodd" d="M28.2918 39.5986L51.1465 26.6198C52.629 25.7779 54.5246 26.2775 55.3806 27.7357C56.2365 29.1939 55.7285 31.0584 54.2461 31.9003L28.9928 46.2412C28.1941 46.6949 27.1813 46.5505 26.5372 45.8913L19.6941 38.8873C18.7824 37.9542 18.9943 36.4297 20.1249 35.7876L20.4267 35.6163C21.097 35.2356 21.9319 35.2709 22.5727 35.707L28.2918 39.5986Z" fill="white" stroke="#222222" stroke-width="2"/>
<path fill-rule="evenodd" clip-rule="evenodd" d="M47.1008 33.1412L45.3838 49.1359C45.3501 49.4505 45.1665 49.7293 44.8895 49.8866L42.3904 51.3058C41.7568 51.6656 40.9541 51.2541 40.8828 50.533L39.5849 37.4094" fill="white"/>
<path d="M47.1008 33.1412L45.3838 49.1359C45.3501 49.4505 45.1665 49.7293 44.8895 49.8866L42.3904 51.3058C41.7568 51.6656 40.9541 51.2541 40.8828 50.533L39.5849 37.4094" stroke="#222222" stroke-width="2" stroke-linecap="round"/>
</svg>
