<svg width="60" height="60" viewBox="0 0 60 60" fill="none" xmlns="http://www.w3.org/2000/svg">
<path d="M10.2755 33.5C10.2755 28.5294 14.305 24.5 19.2755 24.5H25.2755V51.5H10.2755V33.5Z" fill="white"/>
<ellipse cx="22.2755" cy="16" rx="8" ry="8.5" fill="white"/>
<path fill-rule="evenodd" clip-rule="evenodd" d="M22.6572 7.5L22.6572 51.7519C22.6572 52.1651 22.9922 52.5 23.4053 52.5V52.5C30.2915 52.5 35.8739 46.9176 35.8739 40.0314V34.3077L33.8406 28.5L29.2656 24.8462L27.6135 23.2692L30.9176 18.5385L30.0281 12.0025L24.6906 7.5H22.6572Z" fill="#59CBE8"/>
<path fill-rule="evenodd" clip-rule="evenodd" d="M19.565 23.2146C19.7253 23.7439 19.4189 24.3008 18.8808 24.4584C14.013 25.8844 10.4573 30.346 10.4573 35.6321V52.5C10.4573 53.0523 10.0021 53.5 9.44062 53.5C8.87913 53.5 8.42395 53.0523 8.42395 52.5V35.6321C8.42395 29.444 12.5876 24.2152 18.3004 22.5416C18.8386 22.384 19.4047 22.6853 19.565 23.2146Z" fill="#222222"/>
<path fill-rule="evenodd" clip-rule="evenodd" d="M25.7505 23.3782C25.9119 22.8492 26.4787 22.5491 27.0165 22.7079C32.7496 24.4003 36.5922 29.4692 36.5922 35.6256V52.5C36.5922 53.0523 36.137 53.5 35.5756 53.5C35.0141 53.5 34.5589 53.0523 34.5589 52.5V35.6256C34.5589 30.3307 31.2843 26.0559 26.432 24.6235C25.8942 24.4647 25.5891 23.9072 25.7505 23.3782Z" fill="#222222"/>
<path fill-rule="evenodd" clip-rule="evenodd" d="M15.5406 36.5C16.1021 36.5 16.5573 36.9477 16.5573 37.5V48.5C16.5573 49.0523 16.1021 49.5 15.5406 49.5C14.9791 49.5 14.5239 49.0523 14.5239 48.5V37.5C14.5239 36.9477 14.9791 36.5 15.5406 36.5Z" fill="#222222"/>
<path fill-rule="evenodd" clip-rule="evenodd" d="M22.6573 8.5C18.7841 8.5 15.5407 11.7999 15.5407 16C15.5407 20.2001 18.7841 23.5 22.6573 23.5C26.5306 23.5 29.774 20.2001 29.774 16C29.774 11.7999 26.5306 8.5 22.6573 8.5ZM13.5073 16C13.5073 10.8113 17.5467 6.5 22.6573 6.5C27.7679 6.5 31.8073 10.8113 31.8073 16C31.8073 21.1887 27.7679 25.5 22.6573 25.5C17.5467 25.5 13.5073 21.1887 13.5073 16Z" fill="#222222"/>
<path fill-rule="evenodd" clip-rule="evenodd" d="M35.2909 28.4102L48.5502 35.0181V46.0292L35.575 52.4942C35.3982 52.5812 35.1836 52.5812 35.0068 52.4942L22.0316 46.0292V35.0181L35.2909 28.4102Z" fill="white"/>
<path fill-rule="evenodd" clip-rule="evenodd" d="M22.0316 35.2421V45.9116L35.2909 52.6313V42.0735L22.0316 35.2421Z" fill="#DBEEFF"/>
<path fill-rule="evenodd" clip-rule="evenodd" d="M35.3289 42.0735V52.6313L48.5881 45.9116V35.2421L35.3289 42.0735Z" fill="#DDE5ED"/>
<path d="M35.2909 28.4102L48.5502 35.0181V46.0292L35.575 52.4942C35.3982 52.5812 35.1836 52.5812 35.0068 52.4942L22.0316 46.0292V35.0181L35.2909 28.4102Z" stroke="#222222" stroke-width="2" stroke-linecap="round" stroke-linejoin="round"/>
<path d="M48.5502 35.0122L35.2909 42.3529L22.0316 35.0122" stroke="#222222" stroke-width="2" stroke-linecap="round" stroke-linejoin="round"/>
<path d="M45.6332 40.296L38.2711 44.3701" stroke="#222222" stroke-width="2" stroke-linecap="round" stroke-linejoin="round"/>
<path d="M32.3615 44.4014L24.9868 40.3212" stroke="#222222" stroke-width="2" stroke-linecap="round" stroke-linejoin="round"/>
<path d="M42.6908 44.8632L38.2332 47.3287" stroke="#222222" stroke-width="2" stroke-linecap="round" stroke-linejoin="round"/>
<path d="M28.6615 45.2892L24.9868 43.2522" stroke="#222222" stroke-width="2" stroke-linecap="round" stroke-linejoin="round"/>
<path d="M35.2909 42.3524V52.5437" stroke="#222222" stroke-width="2" stroke-linecap="round" stroke-linejoin="round"/>
<path d="M35.2908 42.3529L22.0316 35.0122L18.7435 40.451L32.0028 47.7917L35.2908 42.3592V42.3529Z" fill="white" stroke="#222222" stroke-width="2" stroke-linecap="round" stroke-linejoin="round"/>
<path d="M48.5502 35.0122L35.2909 42.3529L38.279 47.6116L51.5761 40.3392L48.5502 35.0122Z" fill="white" stroke="#222222" stroke-width="2" stroke-linecap="round" stroke-linejoin="round"/>
</svg>
