<svg width="60" height="60" viewBox="0 0 60 60" fill="none" xmlns="http://www.w3.org/2000/svg">
<path d="M11.8791 33.5C11.8791 28.5294 15.9085 24.5 20.8791 24.5H26.8791V51.5H11.8791V33.5Z" fill="white"/>
<ellipse cx="23.8791" cy="16" rx="8" ry="8.5" fill="white"/>
<path fill-rule="evenodd" clip-rule="evenodd" d="M24.2609 7.5L24.2609 51.7519C24.2609 52.1651 24.5958 52.5 25.009 52.5V52.5C31.8952 52.5 37.4775 46.9176 37.4775 40.0314V34.3077L35.4442 28.5L30.8692 24.8462L29.2171 23.2692L32.5213 18.5385L31.6317 12.0025L26.2942 7.5H24.2609Z" fill="#59CBE8"/>
<path fill-rule="evenodd" clip-rule="evenodd" d="M21.1686 23.2146C21.3288 23.7439 21.0225 24.3008 20.4844 24.4584C15.6166 25.8844 12.0609 30.346 12.0609 35.6321V52.5C12.0609 53.0523 11.6057 53.5 11.0442 53.5C10.4827 53.5 10.0275 53.0523 10.0275 52.5V35.6321C10.0275 29.444 14.1912 24.2152 19.904 22.5416C20.4421 22.384 21.0083 22.6853 21.1686 23.2146Z" fill="#222222"/>
<path fill-rule="evenodd" clip-rule="evenodd" d="M27.354 23.3782C27.5154 22.8492 28.0822 22.5491 28.62 22.7079C34.3532 24.4003 38.1958 29.4692 38.1958 35.6256V52.5C38.1958 53.0523 37.7406 53.5 37.1791 53.5C36.6176 53.5 36.1625 53.0523 36.1625 52.5V35.6256C36.1625 30.3307 32.8879 26.0559 28.0355 24.6235C27.4978 24.4647 27.1926 23.9072 27.354 23.3782Z" fill="#222222"/>
<path fill-rule="evenodd" clip-rule="evenodd" d="M17.1442 36.5C17.7057 36.5 18.1608 36.9477 18.1608 37.5V48.5C18.1608 49.0523 17.7057 49.5 17.1442 49.5C16.5827 49.5 16.1275 49.0523 16.1275 48.5V37.5C16.1275 36.9477 16.5827 36.5 17.1442 36.5Z" fill="#222222"/>
<path fill-rule="evenodd" clip-rule="evenodd" d="M24.2608 8.5C20.3876 8.5 17.1442 11.7999 17.1442 16C17.1442 20.2001 20.3876 23.5 24.2608 23.5C28.1341 23.5 31.3775 20.2001 31.3775 16C31.3775 11.7999 28.1341 8.5 24.2608 8.5ZM15.1108 16C15.1108 10.8113 19.1502 6.5 24.2608 6.5C29.3714 6.5 33.4108 10.8113 33.4108 16C33.4108 21.1887 29.3714 25.5 24.2608 25.5C19.1502 25.5 15.1108 21.1887 15.1108 16Z" fill="#222222"/>
<path d="M37.0685 25.5042L25.6439 28.4425C25.6439 33.9927 24.5577 29.9952 26.7425 38.7344C28.9273 47.4735 37.0685 53.2553 37.0685 53.2553L37.0685 25.5042Z" fill="white"/>
<path fill-rule="evenodd" clip-rule="evenodd" d="M37.2814 25.3925C36.9399 25.3049 36.5814 25.3092 36.2421 25.4049L33.6037 26.1487H36.9906V52.6092H35.8173C36.0248 52.775 36.2351 52.938 36.4481 53.0981C36.6346 53.2383 36.8898 53.2441 37.0824 53.1124C44.4945 48.0462 48.93 39.6453 48.93 30.6673V28.8581C48.93 28.5757 48.7387 28.3291 48.4651 28.259L37.2814 25.3925ZM26.0192 35.7223V28.3092C25.8228 28.4243 25.6965 28.6369 25.6965 28.8726V31.5631C25.6965 32.9666 25.8058 34.3567 26.0192 35.7223Z" fill="#DDE5ED"/>
<path d="M36.7371 25.9154C36.9033 25.8718 37.078 25.8718 37.2443 25.9154L48.2528 28.8015V31.1274C48.2528 39.7192 44.0396 47.7577 36.9907 52.6475C29.9418 47.7577 25.7285 39.7192 25.7285 31.1274V28.8015L36.7371 25.9154Z" stroke="#222222" stroke-width="2"/>
<path d="M36.9907 47.4477V52.3669" stroke="#222222" stroke-width="2" stroke-linecap="round"/>
<circle cx="36.9907" cy="37.7663" r="6.45376" fill="white" stroke="#222222" stroke-width="2" stroke-linecap="round" stroke-linejoin="round"/>
<ellipse cx="36.9906" cy="37.7669" rx="2.39219" ry="6.45376" fill="white" stroke="#222222" stroke-width="2" stroke-linecap="round" stroke-linejoin="round"/>
<path d="M36.9907 25.8705V28.0857" stroke="#222222" stroke-width="2" stroke-linecap="round"/>
<path d="M28.6008 30.6671V32.6032" stroke="#222222" stroke-width="2" stroke-linecap="round"/>
<path d="M43.4444 37.7663H30.5369" stroke="#222222" stroke-width="2" stroke-linecap="round"/>
</svg>
