<svg width="60" height="60" viewBox="0 0 60 60" fill="none" xmlns="http://www.w3.org/2000/svg">
<path d="M10.9066 33.5C10.9066 28.5294 14.9361 24.5 19.9066 24.5H25.9066V51.5H10.9066V33.5Z" fill="white"/>
<ellipse cx="22.9066" cy="16" rx="8" ry="8.5" fill="white"/>
<path fill-rule="evenodd" clip-rule="evenodd" d="M23.2884 7.5L23.2884 51.7519C23.2884 52.1651 23.6233 52.5 24.0365 52.5V52.5C30.9227 52.5 36.5051 46.9176 36.5051 40.0314V34.3077L34.4717 28.5L29.8967 24.8462L28.2446 23.2692L31.5488 18.5385L30.6592 12.0025L25.3217 7.5H23.2884Z" fill="#59CBE8"/>
<path fill-rule="evenodd" clip-rule="evenodd" d="M20.1961 23.2146C20.3564 23.7439 20.05 24.3008 19.5119 24.4584C14.6441 25.8844 11.0884 30.346 11.0884 35.6321V52.5C11.0884 53.0523 10.6332 53.5 10.0717 53.5C9.51023 53.5 9.05505 53.0523 9.05505 52.5V35.6321C9.05505 29.444 13.2187 24.2152 18.9315 22.5416C19.4697 22.384 20.0358 22.6853 20.1961 23.2146Z" fill="#222222"/>
<path fill-rule="evenodd" clip-rule="evenodd" d="M26.3816 23.3782C26.543 22.8492 27.1098 22.5491 27.6476 22.7079C33.3807 24.4003 37.2233 29.4692 37.2233 35.6256V52.5C37.2233 53.0523 36.7681 53.5 36.2067 53.5C35.6452 53.5 35.19 53.0523 35.19 52.5V35.6256C35.19 30.3307 31.9154 26.0559 27.0631 24.6235C26.5253 24.4647 26.2202 23.9072 26.3816 23.3782Z" fill="#222222"/>
<path fill-rule="evenodd" clip-rule="evenodd" d="M16.1717 36.5C16.7332 36.5 17.1884 36.9477 17.1884 37.5V48.5C17.1884 49.0523 16.7332 49.5 16.1717 49.5C15.6102 49.5 15.155 49.0523 15.155 48.5V37.5C15.155 36.9477 15.6102 36.5 16.1717 36.5Z" fill="#222222"/>
<path fill-rule="evenodd" clip-rule="evenodd" d="M23.2884 8.5C19.4151 8.5 16.1717 11.7999 16.1717 16C16.1717 20.2001 19.4151 23.5 23.2884 23.5C27.1616 23.5 30.405 20.2001 30.405 16C30.405 11.7999 27.1616 8.5 23.2884 8.5ZM14.1384 16C14.1384 10.8113 18.1778 6.5 23.2884 6.5C28.399 6.5 32.4384 10.8113 32.4384 16C32.4384 21.1887 28.399 25.5 23.2884 25.5C18.1778 25.5 14.1384 21.1887 14.1384 16Z" fill="#222222"/>
<path fill-rule="evenodd" clip-rule="evenodd" d="M47.4022 41.5591L51.1329 50.701C51.4014 51.3588 50.9175 52.0789 50.2071 52.0789H35.3734C34.663 52.0789 34.1791 51.3589 34.4475 50.7012L38.1768 41.5591H47.4022Z" fill="#DDE5ED"/>
<path d="M47.8137 28.7227L46.5931 29.6231C46.082 30.0001 45.7804 30.5975 45.7804 31.2326V38.2435C45.7804 38.5585 45.8548 38.869 45.9975 39.1498L51.4197 49.8164C52.096 51.1469 51.1294 52.7227 49.6368 52.7227H35.824C34.3314 52.7227 33.3647 51.1469 34.0411 49.8164L39.4633 39.1498C39.606 38.869 39.6804 38.5585 39.6804 38.2435V31.2326C39.6804 30.5975 39.3788 30.0001 38.8677 29.6231L37.6471 28.7227" stroke="#222222" stroke-width="2" stroke-linecap="round"/>
<ellipse cx="46.124" cy="49.1339" rx="1.29181" ry="1.27063" fill="#222222"/>
<ellipse cx="44.2195" cy="46.5259" rx="0.612705" ry="0.602661" fill="#222222"/>
</svg>
