<svg width="60" height="60" viewBox="0 0 60 60" fill="none" xmlns="http://www.w3.org/2000/svg">
<path d="M10.9066 33.5C10.9066 28.5294 14.9361 24.5 19.9066 24.5H25.9066V51.5H10.9066V33.5Z" fill="white"/>
<ellipse cx="22.9066" cy="16" rx="8" ry="8.5" fill="white"/>
<path fill-rule="evenodd" clip-rule="evenodd" d="M23.2884 7.5L23.2884 51.7519C23.2884 52.1651 23.6233 52.5 24.0365 52.5V52.5C30.9227 52.5 36.5051 46.9176 36.5051 40.0314V34.3077L34.4717 28.5L29.8967 24.8462L28.2446 23.2692L31.5488 18.5385L30.6592 12.0025L25.3217 7.5H23.2884Z" fill="#59CBE8"/>
<path fill-rule="evenodd" clip-rule="evenodd" d="M20.1961 23.2146C20.3564 23.7439 20.05 24.3008 19.5119 24.4584C14.6441 25.8844 11.0884 30.346 11.0884 35.6321V52.5C11.0884 53.0523 10.6332 53.5 10.0717 53.5C9.51023 53.5 9.05505 53.0523 9.05505 52.5V35.6321C9.05505 29.444 13.2187 24.2152 18.9315 22.5416C19.4697 22.384 20.0358 22.6853 20.1961 23.2146Z" fill="#222222"/>
<path fill-rule="evenodd" clip-rule="evenodd" d="M26.3816 23.3782C26.543 22.8492 27.1098 22.5491 27.6476 22.7079C33.3807 24.4003 37.2233 29.4692 37.2233 35.6256V52.5C37.2233 53.0523 36.7681 53.5 36.2067 53.5C35.6452 53.5 35.19 53.0523 35.19 52.5V35.6256C35.19 30.3307 31.9154 26.0559 27.0631 24.6235C26.5253 24.4647 26.2202 23.9072 26.3816 23.3782Z" fill="#222222"/>
<path fill-rule="evenodd" clip-rule="evenodd" d="M16.1717 36.5C16.7332 36.5 17.1884 36.9477 17.1884 37.5V48.5C17.1884 49.0523 16.7332 49.5 16.1717 49.5C15.6102 49.5 15.155 49.0523 15.155 48.5V37.5C15.155 36.9477 15.6102 36.5 16.1717 36.5Z" fill="#222222"/>
<path fill-rule="evenodd" clip-rule="evenodd" d="M23.2884 8.5C19.4151 8.5 16.1717 11.7999 16.1717 16C16.1717 20.2001 19.4151 23.5 23.2884 23.5C27.1616 23.5 30.405 20.2001 30.405 16C30.405 11.7999 27.1616 8.5 23.2884 8.5ZM14.1384 16C14.1384 10.8113 18.1778 6.5 23.2884 6.5C28.399 6.5 32.4384 10.8113 32.4384 16C32.4384 21.1887 28.399 25.5 23.2884 25.5C18.1778 25.5 14.1384 21.1887 14.1384 16Z" fill="#222222"/>
<path fill-rule="evenodd" clip-rule="evenodd" d="M28.2466 46.765L38.1585 37.0156H49.8195V42.7506L40.3274 52.4952" fill="#DDE5ED"/>
<path d="M28.2466 46.765L38.1585 37.0156H49.8195V42.7506L40.3274 52.4952" stroke="#222222" stroke-width="2" stroke-linecap="round" stroke-linejoin="round"/>
<rect x="28.2466" y="46.765" width="11.661" height="5.73493" fill="white" stroke="#222222" stroke-width="2" stroke-linecap="round" stroke-linejoin="round"/>
<path d="M49.8195 37.0157L39.9076 46.7651" stroke="#222222" stroke-width="2" stroke-linecap="round" stroke-linejoin="round"/>
<path d="M44.2728 40.0214L43.5715 39.3085L43.5715 39.3085L44.2728 40.0214ZM44.2845 38.6072L43.5715 39.3085H43.5715L44.2845 38.6072ZM43.6897 40.5949L44.391 41.3078L43.6897 40.5949ZM42.2756 40.5832L42.9885 39.882V39.882L42.2756 40.5832ZM42.2872 39.169L41.586 38.4561V38.4561L42.2872 39.169ZM42.8703 38.5955L42.1691 37.8826L42.8703 38.5955ZM41.9408 42.3179L42.642 43.0308L41.9408 42.3179ZM41.9525 40.9037L42.6654 40.2025L41.9525 40.9037ZM39.6086 44.6118L40.3098 45.3248L39.6086 44.6118ZM38.1944 44.6002L37.4815 45.3014H37.4815L38.1944 44.6002ZM38.2061 43.186L38.9073 43.8989L38.2061 43.186ZM40.5383 40.892L41.2396 41.6049L40.5383 40.892ZM44.974 40.7343C45.7615 39.9598 45.772 38.6935 44.9974 37.906L43.5715 39.3085V39.3085L44.974 40.7343ZM44.391 41.3078L44.974 40.7343L43.5715 39.3085L42.9885 39.882L44.391 41.3078ZM41.5626 41.2844C42.3372 42.0719 43.6035 42.0824 44.391 41.3078L42.9885 39.882L41.5626 41.2844ZM41.586 38.4561C40.7985 39.2307 40.7881 40.497 41.5626 41.2844L42.9885 39.882V39.882L41.586 38.4561ZM42.1691 37.8826L41.586 38.4561L42.9885 39.882L43.5715 39.3085L42.1691 37.8826ZM44.9974 37.906C44.2228 37.1185 42.9565 37.1081 42.1691 37.8826L43.5715 39.3085H43.5715L44.9974 37.906ZM42.642 43.0308C43.4295 42.2562 43.44 40.9899 42.6654 40.2025L41.2396 41.6049H41.2396L42.642 43.0308ZM40.3098 45.3248L42.642 43.0308L41.2396 41.6049L38.9073 43.8989L40.3098 45.3248ZM37.4815 45.3014C38.2561 46.0889 39.5224 46.0993 40.3098 45.3248L38.9073 43.8989H38.9073L37.4815 45.3014ZM37.5049 42.4731C36.7174 43.2476 36.7069 44.5139 37.4815 45.3014L38.9073 43.8989H38.9073L37.5049 42.4731ZM39.8371 40.1791L37.5049 42.4731L38.9073 43.8989L41.2396 41.6049L39.8371 40.1791ZM42.6654 40.2025C41.8908 39.415 40.6246 39.4045 39.8371 40.1791L41.2396 41.6049L42.6654 40.2025Z" fill="#222222"/>
<path fill-rule="evenodd" clip-rule="evenodd" d="M28.2466 41.0295L38.1585 31.2802H49.8195V37.0151L39.9076 46.7645" fill="#DDE5ED"/>
<path d="M28.2466 41.0295L38.1585 31.2802H49.8195V37.0151L39.9076 46.7645" stroke="#222222" stroke-width="2" stroke-linecap="round" stroke-linejoin="round"/>
<rect x="28.2466" y="41.0295" width="11.661" height="5.73493" fill="white" stroke="#222222" stroke-width="2" stroke-linecap="round" stroke-linejoin="round"/>
<path d="M49.8195 31.2802L39.9076 41.0295" stroke="#222222" stroke-width="2" stroke-linecap="round" stroke-linejoin="round"/>
<path d="M44.2728 34.2853L43.5715 33.5724L43.5715 33.5724L44.2728 34.2853ZM44.2845 32.8711L43.5715 33.5724H43.5715L44.2845 32.8711ZM43.6897 34.8588L44.391 35.5717L43.6897 34.8588ZM42.2756 34.8471L42.9885 34.1459V34.1459L42.2756 34.8471ZM42.2872 33.433L41.586 32.72V32.72L42.2872 33.433ZM42.8703 32.8595L42.1691 32.1465L42.8703 32.8595ZM41.9408 36.5818L42.642 37.2947L41.9408 36.5818ZM41.9525 35.1676L42.6654 34.4664L41.9525 35.1676ZM39.6086 38.8758L40.3098 39.5887L39.6086 38.8758ZM38.1944 38.8641L37.4815 39.5653H37.4815L38.1944 38.8641ZM38.2061 37.4499L38.9073 38.1628L38.2061 37.4499ZM40.5383 35.1559L41.2396 35.8689L40.5383 35.1559ZM44.974 34.9982C45.7615 34.2237 45.772 32.9574 44.9974 32.1699L43.5715 33.5724V33.5724L44.974 34.9982ZM44.391 35.5717L44.974 34.9982L43.5715 33.5724L42.9885 34.1459L44.391 35.5717ZM41.5626 35.5484C42.3372 36.3358 43.6035 36.3463 44.391 35.5717L42.9885 34.1459L41.5626 35.5484ZM41.586 32.72C40.7985 33.4946 40.7881 34.7609 41.5626 35.5484L42.9885 34.1459V34.1459L41.586 32.72ZM42.1691 32.1465L41.586 32.72L42.9885 34.1459L43.5715 33.5724L42.1691 32.1465ZM44.9974 32.1699C44.2228 31.3824 42.9565 31.372 42.1691 32.1465L43.5715 33.5724H43.5715L44.9974 32.1699ZM42.642 37.2947C43.4295 36.5201 43.44 35.2539 42.6654 34.4664L41.2396 35.8689H41.2396L42.642 37.2947ZM40.3098 39.5887L42.642 37.2947L41.2396 35.8689L38.9073 38.1628L40.3098 39.5887ZM37.4815 39.5653C38.2561 40.3528 39.5224 40.3633 40.3098 39.5887L38.9073 38.1628H38.9073L37.4815 39.5653ZM37.5049 36.737C36.7174 37.5115 36.7069 38.7778 37.4815 39.5653L38.9073 38.1628H38.9073L37.5049 36.737ZM39.8371 34.443L37.5049 36.737L38.9073 38.1628L41.2396 35.8689L39.8371 34.443ZM42.6654 34.4664C41.8908 33.6789 40.6246 33.6684 39.8371 34.443L41.2396 35.8689L42.6654 34.4664Z" fill="#222222"/>
<path fill-rule="evenodd" clip-rule="evenodd" d="M28.2466 35.2941L38.1585 25.5447H49.8195V31.2796L39.9076 41.029" fill="#DDE5ED"/>
<path d="M28.2466 35.2941L38.1585 25.5447H49.8195V31.2796L39.9076 41.029" stroke="#222222" stroke-width="2" stroke-linecap="round" stroke-linejoin="round"/>
<rect x="28.2466" y="35.2941" width="11.661" height="5.73493" fill="white" stroke="#222222" stroke-width="2" stroke-linecap="round" stroke-linejoin="round"/>
<path d="M49.8195 25.5447L39.9076 35.2941" stroke="#222222" stroke-width="2" stroke-linecap="round" stroke-linejoin="round"/>
<path d="M45.1551 35.8687V41.6036" stroke="#222222" stroke-width="2" stroke-linecap="round" stroke-linejoin="round"/>
</svg>
