<svg width="60" height="60" viewBox="0 0 60 60" fill="none" xmlns="http://www.w3.org/2000/svg">
<path d="M8.90662 33.5C8.90662 28.5294 12.9361 24.5 17.9066 24.5H23.9066V51.5H8.90662V33.5Z" fill="white"/>
<ellipse cx="20.9066" cy="16" rx="8" ry="8.5" fill="white"/>
<path fill-rule="evenodd" clip-rule="evenodd" d="M21.2883 7.5L21.2883 51.7519C21.2883 52.1651 21.6233 52.5 22.0364 52.5C28.9226 52.5 34.505 46.9176 34.505 40.0314V34.3077L32.4717 28.5L27.8967 24.8462L26.2446 23.2692L29.5487 18.5385L28.6592 12.0025L23.3217 7.5H21.2883Z" fill="#59CBE8"/>
<path fill-rule="evenodd" clip-rule="evenodd" d="M18.1961 23.2146C18.3564 23.7439 18.05 24.3008 17.5119 24.4584C12.6441 25.8844 9.08839 30.346 9.08839 35.6321V52.5C9.08839 53.0523 8.63321 53.5 8.07172 53.5C7.51023 53.5 7.05505 53.0523 7.05505 52.5V35.6321C7.05505 29.444 11.2187 24.2152 16.9315 22.5416C17.4697 22.384 18.0358 22.6853 18.1961 23.2146Z" fill="#222222"/>
<path fill-rule="evenodd" clip-rule="evenodd" d="M24.3816 23.3782C24.543 22.8492 25.1098 22.5491 25.6476 22.7079C31.3807 24.4003 35.2233 29.4692 35.2233 35.6256V50.5C35.2233 51.0523 34.7681 51.5 34.2067 51.5C33.6452 51.5 33.19 51.0523 33.19 50.5V35.6256C33.19 30.3307 29.9154 26.0559 25.0631 24.6235C24.5253 24.4647 24.2202 23.9072 24.3816 23.3782Z" fill="#222222"/>
<path fill-rule="evenodd" clip-rule="evenodd" d="M14.1717 36.5C14.7332 36.5 15.1884 36.9477 15.1884 37.5V48.5C15.1884 49.0523 14.7332 49.5 14.1717 49.5C13.6102 49.5 13.155 49.0523 13.155 48.5V37.5C13.155 36.9477 13.6102 36.5 14.1717 36.5Z" fill="#222222"/>
<path fill-rule="evenodd" clip-rule="evenodd" d="M21.2884 8.5C17.4152 8.5 14.1718 11.7999 14.1718 16C14.1718 20.2001 17.4152 23.5 21.2884 23.5C25.1617 23.5 28.4051 20.2001 28.4051 16C28.4051 11.7999 25.1617 8.5 21.2884 8.5ZM12.1384 16C12.1384 10.8113 16.1778 6.5 21.2884 6.5C26.399 6.5 30.4384 10.8113 30.4384 16C30.4384 21.1887 26.399 25.5 21.2884 25.5C16.1778 25.5 12.1384 21.1887 12.1384 16Z" fill="#222222"/>
<path fill-rule="evenodd" clip-rule="evenodd" d="M45.8636 39.877V45.1716L34.5179 51.2227L23.1722 45.1716V39.877" fill="#DDE5ED"/>
<path d="M45.8636 39.877V45.1716L34.5179 51.2227L23.1722 45.1716V39.877" stroke="#222222" stroke-width="2" stroke-linecap="round" stroke-linejoin="round"/>
<path fill-rule="evenodd" clip-rule="evenodd" d="M17.1212 36.8514L34.518 28.5312L51.9147 36.8514L34.518 45.928L17.1212 36.8514Z" fill="white" stroke="#222222" stroke-width="2" stroke-linecap="round" stroke-linejoin="round"/>
<path d="M34.5178 32.3131L31.4875 33.8283" stroke="#222222" stroke-width="2" stroke-linecap="round" stroke-linejoin="round"/>
<path d="M51.9147 36.8514V45.1716" stroke="#222222" stroke-width="2" stroke-linecap="round" stroke-linejoin="round"/>
</svg>
