<svg width="60" height="60" viewBox="0 0 60 60" fill="none" xmlns="http://www.w3.org/2000/svg">
<path d="M7.90662 33.5C7.90662 28.5294 11.9361 24.5 16.9066 24.5H22.9066V51.5H7.90662V33.5Z" fill="white"/>
<ellipse cx="19.9066" cy="16" rx="8" ry="8.5" fill="white"/>
<path fill-rule="evenodd" clip-rule="evenodd" d="M20.2883 7.5L20.2883 51.7519C20.2883 52.1651 20.6233 52.5 21.0364 52.5V52.5C27.9226 52.5 33.505 46.9176 33.505 40.0314V34.3077L31.4717 28.5L26.8967 24.8462L25.2446 23.2692L28.5487 18.5385L27.6592 12.0025L22.3217 7.5H20.2883Z" fill="#59CBE8"/>
<path fill-rule="evenodd" clip-rule="evenodd" d="M17.1961 23.2146C17.3564 23.7439 17.05 24.3008 16.5119 24.4584C11.6441 25.8844 8.08839 30.346 8.08839 35.6321V52.5C8.08839 53.0523 7.63321 53.5 7.07172 53.5C6.51023 53.5 6.05505 53.0523 6.05505 52.5V35.6321C6.05505 29.444 10.2187 24.2152 15.9315 22.5416C16.4697 22.384 17.0358 22.6853 17.1961 23.2146Z" fill="#222222"/>
<path fill-rule="evenodd" clip-rule="evenodd" d="M13.1717 36.5C13.7332 36.5 14.1884 36.9477 14.1884 37.5V48.5C14.1884 49.0523 13.7332 49.5 13.1717 49.5C12.6102 49.5 12.155 49.0523 12.155 48.5V37.5C12.155 36.9477 12.6102 36.5 13.1717 36.5Z" fill="#222222"/>
<path fill-rule="evenodd" clip-rule="evenodd" d="M20.2884 8.5C16.4152 8.5 13.1718 11.7999 13.1718 16C13.1718 20.2001 16.4152 23.5 20.2884 23.5C24.1617 23.5 27.4051 20.2001 27.4051 16C27.4051 11.7999 24.1617 8.5 20.2884 8.5ZM11.1384 16C11.1384 10.8113 15.1778 6.5 20.2884 6.5C25.399 6.5 29.4384 10.8113 29.4384 16C29.4384 21.1887 25.399 25.5 20.2884 25.5C15.1778 25.5 11.1384 21.1887 11.1384 16Z" fill="#222222"/>
<path fill-rule="evenodd" clip-rule="evenodd" d="M23.5573 23.3782C23.7187 22.8492 24.2855 22.5491 24.8233 22.7079C27.0643 23.3694 29.0164 24.5468 30.5631 26.1034C31.9134 27.4623 30.1646 28.583 29.362 27.765C28.0105 26.3118 26.2618 25.2206 24.2389 24.6235C23.7011 24.4647 23.3959 23.9072 23.5573 23.3782Z" fill="#222222"/>
<path d="M24.6392 48.4064L25.4652 51.7748H37.0298V27.3538L32.0735 29.038V33.2485L27.9433 34.9327V39.9853L19.6829 42.9327L19.2699 45.038L24.6392 48.4064Z" fill="white"/>
<path d="M48.7192 48.4064L47.9124 51.7748H36.6167V27.3538L41.4577 29.038V33.2485L45.4919 34.9327V39.9853L53.5602 42.9327L53.9636 45.038L48.7192 48.4064Z" fill="#DDE5ED"/>
<path d="M36.6168 51.7796L36.6168 36.5746" stroke="#222222" stroke-width="2" stroke-linecap="round"/>
<path d="M27.5303 39.9853V34.9326" stroke="#222222" stroke-width="2" stroke-linecap="round"/>
<path d="M31.6605 33.2484V29.0379" stroke="#222222" stroke-width="2" stroke-linecap="round"/>
<path d="M41.573 33.2484V29.0379" stroke="#222222" stroke-width="2" stroke-linecap="round"/>
<path d="M44.8772 39.1431V34.9326" stroke="#222222" stroke-width="2" stroke-linecap="round"/>
<path d="M25.0522 51.7747L24.2261 48.4063L20.4861 46.2881C19.0142 45.4545 19.1775 43.2837 20.7575 42.6797L35.9026 36.8898C36.3625 36.714 36.871 36.714 37.3309 36.8898L52.476 42.6797C54.056 43.2837 54.2193 45.4545 52.7474 46.2881L49.0074 48.4063L48.1813 51.7747" stroke="#222222" stroke-width="2" stroke-linecap="round" stroke-linejoin="round"/>
<path d="M27.5303 34.9326L35.887 31.8347C36.3563 31.6607 36.8739 31.6691 37.3374 31.8581L44.8771 34.9326" stroke="#222222" stroke-width="2" stroke-linecap="round"/>
<path d="M31.6605 29.0379L35.9734 27.5724C36.3906 27.4306 36.8431 27.4306 37.2603 27.5724L41.573 29.0379" stroke="#222222" stroke-width="2" stroke-linecap="round"/>
<path d="M36.6168 26.5117V22.3011" stroke="#222222" stroke-width="2" stroke-linecap="round"/>
<ellipse cx="30.0084" cy="45.88" rx="1.65208" ry="1.68421" stroke="#222222" stroke-width="2"/>
<ellipse cx="43.2251" cy="45.88" rx="1.65208" ry="1.68421" stroke="#222222" stroke-width="2"/>
</svg>
