<svg width="60" height="60" viewBox="0 0 60 60" fill="none" xmlns="http://www.w3.org/2000/svg">
<path d="M9.36212 33.5C9.36212 28.5294 13.3916 24.5 18.3621 24.5H24.3621V51.5H9.36212V33.5Z" fill="white"/>
<ellipse cx="21.3621" cy="16" rx="8" ry="8.5" fill="white"/>
<path fill-rule="evenodd" clip-rule="evenodd" d="M21.7304 7.5L21.7304 51.7519C21.7304 52.1651 22.0653 52.5 22.4785 52.5C29.3647 52.5 34.9471 46.9176 34.9471 40.0314V34.3077C34.9471 34.3077 34.3177 30.4502 32.9137 28.5C31.5778 26.6443 28.3387 24.8462 28.3387 24.8462L26.6867 23.2692L29.9908 18.5385L29.1012 12.0025L23.7637 7.5H21.7304Z" fill="#59CBE8"/>
<path fill-rule="evenodd" clip-rule="evenodd" d="M18.6381 23.2146C18.7984 23.7439 18.4921 24.3008 17.9539 24.4584C13.0861 25.8844 9.5304 30.346 9.5304 35.6321V52.5C9.5304 53.0523 9.07523 53.5 8.51374 53.5C7.95225 53.5 7.49707 53.0523 7.49707 52.5V35.6321C7.49707 29.444 11.6607 24.2152 17.3735 22.5416C17.9117 22.384 18.4778 22.6853 18.6381 23.2146Z" fill="#222222"/>
<path fill-rule="evenodd" clip-rule="evenodd" d="M24.8235 23.3782C24.9849 22.8492 25.5517 22.5491 26.0895 22.7079C28.3305 23.3694 30.2826 24.5468 31.8293 26.1034C33.1796 27.4623 31.4308 28.583 30.6282 27.765C29.2767 26.3118 27.5279 25.2206 25.505 24.6235C24.9672 24.4647 24.6621 23.9072 24.8235 23.3782Z" fill="#222222"/>
<path fill-rule="evenodd" clip-rule="evenodd" d="M14.6137 36.5C15.1752 36.5 15.6304 36.9477 15.6304 37.5V48.5C15.6304 49.0523 15.1752 49.5 14.6137 49.5C14.0522 49.5 13.597 49.0523 13.597 48.5V37.5C13.597 36.9477 14.0522 36.5 14.6137 36.5Z" fill="#222222"/>
<path fill-rule="evenodd" clip-rule="evenodd" d="M21.7304 8.5C17.8571 8.5 14.6137 11.7999 14.6137 16C14.6137 20.2001 17.8571 23.5 21.7304 23.5C25.6036 23.5 28.847 20.2001 28.847 16C28.847 11.7999 25.6036 8.5 21.7304 8.5ZM12.5804 16C12.5804 10.8113 16.6198 6.5 21.7304 6.5C26.841 6.5 30.8804 10.8113 30.8804 16C30.8804 21.1887 26.841 25.5 21.7304 25.5C16.6198 25.5 12.5804 21.1887 12.5804 16Z" fill="#222222"/>
<path d="M48.6534 37.8116L44.3944 33.5526L30.4205 47.5265L34.6796 51.7855L48.6534 37.8116Z" fill="#DDE5ED" stroke="#222222" stroke-width="2" stroke-linecap="round" stroke-linejoin="round"/>
<path d="M50.3734 31.8326C51.5489 33.0081 51.5489 34.9162 50.3734 36.0917L48.7422 37.7229L44.4832 33.4638L46.1144 31.8326C47.2899 30.6571 49.1979 30.6571 50.3734 31.8326Z" fill="white" stroke="#222222" stroke-width="2"/>
<path d="M28.8624 53.3489L34.6808 51.7949L30.4224 47.5305L28.8624 53.3489Z" fill="white" stroke="#222222" stroke-width="2" stroke-linecap="round" stroke-linejoin="round"/>
<path d="M32.457 40.584L38.438 34.603" stroke="#222222" stroke-width="2" stroke-linecap="round"/>
<path d="M41.6235 49.7501L47.6045 43.7691" stroke="#222222" stroke-width="2" stroke-linecap="round"/>
<path d="M32.6331 36.7289L34.5725 34.7894" stroke="#222222" stroke-width="2" stroke-linecap="round"/>
<path d="M45.4797 49.5739L47.4192 47.6344" stroke="#222222" stroke-width="2" stroke-linecap="round"/>
</svg>
