<svg width="60" height="60" viewBox="0 0 60 60" fill="none" xmlns="http://www.w3.org/2000/svg">
<path d="M11.6504 33.5C11.6504 28.5294 15.6798 24.5 20.6504 24.5H26.6504V51.5H11.6504V33.5Z" fill="white"/>
<ellipse cx="23.6504" cy="16" rx="8" ry="8.5" fill="white"/>
<path fill-rule="evenodd" clip-rule="evenodd" d="M24.0322 7.5L24.0322 51.7519C24.0322 52.1651 24.3672 52.5 24.7803 52.5V52.5C31.6665 52.5 37.2489 46.9176 37.2489 40.0314V34.3077L35.2156 28.5L30.6406 24.8462L28.9885 23.2692L32.2926 18.5385L31.4031 12.0025L26.0656 7.5H24.0322Z" fill="#59CBE8"/>
<path fill-rule="evenodd" clip-rule="evenodd" d="M20.9399 23.2146C21.1001 23.7439 20.7938 24.3008 20.2557 24.4584C15.3879 25.8844 11.8322 30.346 11.8322 35.6321V52.5C11.8322 53.0523 11.377 53.5 10.8155 53.5C10.254 53.5 9.79883 53.0523 9.79883 52.5V35.6321C9.79883 29.444 13.9625 24.2152 19.6753 22.5416C20.2134 22.384 20.7796 22.6853 20.9399 23.2146Z" fill="#222222"/>
<path fill-rule="evenodd" clip-rule="evenodd" d="M27.1255 23.3782C27.2869 22.8492 27.8537 22.5491 28.3915 22.7079C34.1246 24.4003 37.9672 29.4692 37.9672 35.6256V52.5C37.9672 53.0523 37.512 53.5 36.9506 53.5C36.3891 53.5 35.9339 53.0523 35.9339 52.5V35.6256C35.9339 30.3307 32.6593 26.0559 27.807 24.6235C27.2692 24.4647 26.9641 23.9072 27.1255 23.3782Z" fill="#222222"/>
<path fill-rule="evenodd" clip-rule="evenodd" d="M16.9156 36.5C17.4771 36.5 17.9323 36.9477 17.9323 37.5V48.5C17.9323 49.0523 17.4771 49.5 16.9156 49.5C16.3541 49.5 15.8989 49.0523 15.8989 48.5V37.5C15.8989 36.9477 16.3541 36.5 16.9156 36.5Z" fill="#222222"/>
<path fill-rule="evenodd" clip-rule="evenodd" d="M24.0321 8.5C20.1588 8.5 16.9154 11.7999 16.9154 16C16.9154 20.2001 20.1588 23.5 24.0321 23.5C27.9053 23.5 31.1487 20.2001 31.1487 16C31.1487 11.7999 27.9053 8.5 24.0321 8.5ZM14.8821 16C14.8821 10.8113 18.9215 6.5 24.0321 6.5C29.1427 6.5 33.1821 10.8113 33.1821 16C33.1821 21.1887 29.1427 25.5 24.0321 25.5C18.9215 25.5 14.8821 21.1887 14.8821 16Z" fill="#222222"/>
<path fill-rule="evenodd" clip-rule="evenodd" d="M40.3477 28.1477C39.8473 27.6226 39 27.6226 38.4996 28.1477L31.5612 35.4273C27.4838 39.7052 27.7118 46.4263 32.0701 50.4273C36.2108 54.2287 42.6365 54.2287 46.7773 50.4273C51.1355 46.4263 51.3635 39.7052 47.2862 35.4273L40.3477 28.1477Z" fill="white" stroke="#222222" stroke-width="2" stroke-linecap="round" stroke-linejoin="round"/>
<path d="M46.9242 48.5227C43.5286 53.3491 38.3064 55.5241 35.26 53.3808C32.2136 51.2375 32.4967 45.5874 35.8923 40.7611C39.2879 35.9348 44.5101 33.7598 47.5565 35.9031C50.6029 38.0464 50.3198 43.6964 46.9242 48.5227Z" fill="#DDE5ED"/>
<path d="M39.4233 48.1797V48.1797C42.7923 48.1797 45.5233 45.4934 45.5233 42.1797" stroke="#222222" stroke-width="2" stroke-linecap="round" stroke-linejoin="round"/>
<path fill-rule="evenodd" clip-rule="evenodd" d="M40.3477 28.1477C39.8473 27.6226 39 27.6226 38.4996 28.1477L31.5612 35.4273C27.4838 39.7052 27.7118 46.4263 32.0701 50.4273C36.2108 54.2287 42.6365 54.2287 46.7773 50.4273C51.1355 46.4263 51.3635 39.7052 47.2862 35.4273L40.3477 28.1477Z" stroke="#222222" stroke-width="2" stroke-linecap="round" stroke-linejoin="round"/>
</svg>
