<svg width="60" height="60" viewBox="0 0 60 60" fill="none" xmlns="http://www.w3.org/2000/svg">
<path d="M9.90674 33.5C9.90674 28.5294 13.9362 24.5 18.9067 24.5H24.9067V51.5H9.90674V33.5Z" fill="white"/>
<ellipse cx="21.9067" cy="16" rx="8" ry="8.5" fill="white"/>
<path fill-rule="evenodd" clip-rule="evenodd" d="M22.2885 7.5L22.2885 51.7519C22.2885 52.1651 22.6234 52.5 23.0366 52.5V52.5C29.9228 52.5 35.5051 46.9176 35.5051 40.0314V34.3077L33.4718 28.5L28.8968 24.8462L27.2447 23.2692L30.5489 18.5385L29.6593 12.0025L24.3218 7.5H22.2885Z" fill="#59CBE8"/>
<path fill-rule="evenodd" clip-rule="evenodd" d="M19.1962 23.2146C19.3565 23.7439 19.0502 24.3008 18.512 24.4584C13.6442 25.8844 10.0885 30.346 10.0885 35.6321V52.5C10.0885 53.0523 9.63333 53.5 9.07184 53.5C8.51035 53.5 8.05518 53.0523 8.05518 52.5V35.6321C8.05518 29.444 12.2188 24.2152 17.9316 22.5416C18.4698 22.384 19.0359 22.6853 19.1962 23.2146Z" fill="#222222"/>
<path fill-rule="evenodd" clip-rule="evenodd" d="M25.3817 23.3782C25.5431 22.8492 26.1099 22.5491 26.6477 22.7079C32.3809 24.4003 36.2234 29.4692 36.2234 35.6256V52.5C36.2234 53.0523 35.7683 53.5 35.2068 53.5C34.6453 53.5 34.1901 53.0523 34.1901 52.5V35.6256C34.1901 30.3307 30.9155 26.0559 26.0632 24.6235C25.5254 24.4647 25.2203 23.9072 25.3817 23.3782Z" fill="#222222"/>
<path fill-rule="evenodd" clip-rule="evenodd" d="M15.1718 36.5C15.7333 36.5 16.1885 36.9477 16.1885 37.5V48.5C16.1885 49.0523 15.7333 49.5 15.1718 49.5C14.6103 49.5 14.1552 49.0523 14.1552 48.5V37.5C14.1552 36.9477 14.6103 36.5 15.1718 36.5Z" fill="#222222"/>
<path fill-rule="evenodd" clip-rule="evenodd" d="M22.2885 8.5C18.4153 8.5 15.1719 11.7999 15.1719 16C15.1719 20.2001 18.4153 23.5 22.2885 23.5C26.1618 23.5 29.4052 20.2001 29.4052 16C29.4052 11.7999 26.1618 8.5 22.2885 8.5ZM13.1385 16C13.1385 10.8113 17.178 6.5 22.2885 6.5C27.3991 6.5 31.4385 10.8113 31.4385 16C31.4385 21.1887 27.3991 25.5 22.2885 25.5C17.178 25.5 13.1385 21.1887 13.1385 16Z" fill="#222222"/>
<path fill-rule="evenodd" clip-rule="evenodd" d="M50.4706 23.8434L40.57 33.7441L37.0678 37.2463L31.3766 42.9375C31.3766 42.9375 30.2105 38.644 29.9256 36.4295C29.6407 34.2151 29.7195 30.0561 29.7195 30.0561L36.6324 24.8561L50.4706 23.8434Z" fill="#DDE5ED"/>
<path fill-rule="evenodd" clip-rule="evenodd" d="M51.3633 24.4407L41.4626 34.3413L37.9604 37.8435L32.2692 43.5347C32.2692 43.5347 36.3783 44.5164 38.5083 44.7168C40.6383 44.9173 44.6595 44.7006 44.6595 44.7006L49.9173 37.8456L51.3633 24.4407Z" fill="white"/>
<path fill-rule="evenodd" clip-rule="evenodd" d="M51.246 23.2052C32.3324 23.3595 25.9079 30.1358 31.6206 43.1823C44.6672 48.8951 51.0917 42.1188 51.246 23.2052Z" stroke="#222222" stroke-width="2" stroke-linecap="round" stroke-linejoin="round"/>
<path d="M50.804 23.8811L27.878 46.8071" stroke="#222222" stroke-width="2" stroke-linecap="round"/>
<path d="M33.4696 27.7955L36.8247 37.8606" stroke="#222222" stroke-width="2" stroke-linecap="round"/>
<mask id="path-13-inside-1_10688_6520" fill="white">
<path fill-rule="evenodd" clip-rule="evenodd" d="M48.2854 41.0379C48.1468 41.5725 47.601 41.8935 47.0664 41.7549L44.4022 41.0641C43.8675 40.9255 43.5465 40.3798 43.6851 39.8452C43.8237 39.3106 44.3695 38.9896 44.9041 39.1282L47.5684 39.8189C48.103 39.9575 48.424 40.5032 48.2854 41.0379ZM42.2686 39.2177C42.1347 39.7534 41.5917 40.0792 41.0559 39.9453L36.5826 38.8269C36.0468 38.693 35.721 38.15 35.855 37.6142C35.9889 37.0784 36.5318 36.7527 37.0676 36.8866L41.541 38.005C42.0768 38.1389 42.4026 38.6819 42.2686 39.2177Z"/>
</mask>
<path d="M47.0664 41.7549L46.5645 43.6909L46.5645 43.6909L47.0664 41.7549ZM48.2854 41.0379L46.3494 40.5359L46.3494 40.5359L48.2854 41.0379ZM44.4022 41.0641L43.9002 43.0001L43.9002 43.0001L44.4022 41.0641ZM44.9041 39.1282L45.406 37.1922L45.406 37.1922L44.9041 39.1282ZM47.5684 39.8189L47.0664 41.7549L47.0664 41.7549L47.5684 39.8189ZM41.0559 39.9453L41.541 38.005L41.0559 39.9453ZM42.2686 39.2177L40.3283 38.7326L42.2686 39.2177ZM36.5826 38.8269L37.0676 36.8866L37.0676 36.8866L36.5826 38.8269ZM35.855 37.6142L33.9147 37.1292L35.855 37.6142ZM37.0676 36.8866L36.5826 38.8269L36.5826 38.8269L37.0676 36.8866ZM41.541 38.005L42.0261 36.0647L41.541 38.005ZM46.5645 43.6909C48.1683 44.1067 49.8056 43.1436 50.2214 41.5398L46.3494 40.5359C46.488 40.0013 47.0338 39.6803 47.5684 39.8189L46.5645 43.6909ZM43.9002 43.0001L46.5645 43.6909L47.5684 39.8189L44.9041 39.1282L43.9002 43.0001ZM41.7491 39.3433C41.3333 40.9471 42.2964 42.5843 43.9002 43.0001L44.9041 39.1282C45.4387 39.2668 45.7597 39.8125 45.6211 40.3471L41.7491 39.3433ZM45.406 37.1922C43.8022 36.7764 42.1649 37.7394 41.7491 39.3433L45.6211 40.3471C45.4825 40.8817 44.9368 41.2028 44.4022 41.0641L45.406 37.1922ZM48.0703 37.8829L45.406 37.1922L44.4022 41.0641L47.0664 41.7549L48.0703 37.8829ZM50.2214 41.5398C50.6372 39.9359 49.6741 38.2987 48.0703 37.8829L47.0664 41.7549C46.5318 41.6163 46.2108 41.0705 46.3494 40.5359L50.2214 41.5398ZM40.5709 41.8855C42.1783 42.2874 43.8071 41.3101 44.2089 39.7027L40.3283 38.7326C40.4623 38.1968 41.0052 37.871 41.541 38.005L40.5709 41.8855ZM36.0975 40.7672L40.5709 41.8855L41.541 38.005L37.0676 36.8866L36.0975 40.7672ZM33.9147 37.1292C33.5128 38.7366 34.4901 40.3654 36.0975 40.7672L37.0676 36.8866C37.6034 37.0206 37.9292 37.5635 37.7953 38.0993L33.9147 37.1292ZM37.5527 34.9463C35.9453 34.5445 34.3165 35.5218 33.9147 37.1292L37.7953 38.0993C37.6613 38.6351 37.1184 38.9609 36.5826 38.8269L37.5527 34.9463ZM42.0261 36.0647L37.5527 34.9463L36.5826 38.8269L41.0559 39.9453L42.0261 36.0647ZM44.2089 39.7027C44.6107 38.0953 43.6335 36.4665 42.0261 36.0647L41.0559 39.9453C40.5201 39.8113 40.1944 39.2684 40.3283 38.7326L44.2089 39.7027Z" fill="#222222" mask="url(#path-13-inside-1_10688_6520)"/>
<path d="M41.2979 24.4368L40.7095 33.9134" stroke="#222222" stroke-width="2" stroke-linecap="round"/>
<path d="M50.2447 33.3848L40.7388 33.9439" stroke="#222222" stroke-width="2" stroke-linecap="round"/>
</svg>
