<svg width="60" height="60" viewBox="0 0 60 60" fill="none" xmlns="http://www.w3.org/2000/svg">
<path d="M8.19019 33.5C8.19019 28.5294 12.2196 24.5 17.1902 24.5H23.1902V51.5H8.19019V33.5Z" fill="white"/>
<ellipse cx="20.1902" cy="16" rx="8" ry="8.5" fill="white"/>
<path fill-rule="evenodd" clip-rule="evenodd" d="M20.5719 7.5L20.5719 51.7519C20.5719 52.1651 20.9068 52.5 21.32 52.5V52.5C28.2062 52.5 33.7886 46.9176 33.7886 40.0314V34.3077L31.7552 28.5L27.1802 24.8462L25.5281 23.2692L28.8323 18.5385L27.9427 12.0025L22.6052 7.5H20.5719Z" fill="#59CBE8"/>
<path fill-rule="evenodd" clip-rule="evenodd" d="M17.4797 23.2146C17.6399 23.7439 17.3336 24.3008 16.7955 24.4584C11.9277 25.8844 8.37196 30.346 8.37196 35.6321V52.5C8.37196 53.0523 7.91678 53.5 7.35529 53.5C6.7938 53.5 6.33862 53.0523 6.33862 52.5V35.6321C6.33862 29.444 10.5023 24.2152 16.2151 22.5416C16.7532 22.384 17.3194 22.6853 17.4797 23.2146Z" fill="#222222"/>
<path fill-rule="evenodd" clip-rule="evenodd" d="M23.6651 23.3782C23.8265 22.8492 24.3933 22.5491 24.9311 22.7079C30.6643 24.4003 34.5069 29.4692 34.5069 35.6256V52.5C34.5069 53.0523 34.0517 53.5 33.4902 53.5C32.9287 53.5 32.4736 53.0523 32.4736 52.5V35.6256C32.4736 30.3307 29.199 26.0559 24.3466 24.6235C23.8088 24.4647 23.5037 23.9072 23.6651 23.3782Z" fill="#222222"/>
<path fill-rule="evenodd" clip-rule="evenodd" d="M13.4553 36.5C14.0168 36.5 14.4719 36.9477 14.4719 37.5V48.5C14.4719 49.0523 14.0168 49.5 13.4553 49.5C12.8938 49.5 12.4386 49.0523 12.4386 48.5V37.5C12.4386 36.9477 12.8938 36.5 13.4553 36.5Z" fill="#222222"/>
<path fill-rule="evenodd" clip-rule="evenodd" d="M20.572 8.5C16.6988 8.5 13.4553 11.7999 13.4553 16C13.4553 20.2001 16.6988 23.5 20.572 23.5C24.4452 23.5 27.6887 20.2001 27.6887 16C27.6887 11.7999 24.4452 8.5 20.572 8.5ZM11.422 16C11.422 10.8113 15.4614 6.5 20.572 6.5C25.6826 6.5 29.722 10.8113 29.722 16C29.722 21.1887 25.6826 25.5 20.572 25.5C15.4614 25.5 11.422 21.1887 11.422 16Z" fill="#222222"/>
<path d="M36.61 27.4512L28.1396 45.2089L40.34 40.3126L46.9064 32.7749L36.61 27.4512Z" fill="white"/>
<path fill-rule="evenodd" clip-rule="evenodd" d="M48.1803 32.8455C48.1803 32.8455 52.1394 38.7759 52.5305 42.2388C52.9217 45.7018 49.3811 52.5649 49.3811 52.5649H30.4845L27.884 45.6809L40.9826 40.1736L48.1803 32.8455Z" fill="#DDE5ED"/>
<path d="M38.3115 27.7817C37.8183 27.5248 37.2102 27.7197 36.9582 28.2155L28.4568 44.9396C28.3348 45.1796 28.3147 45.4587 28.4011 45.7137L30.4701 51.8189C30.6077 52.2248 30.9886 52.4979 31.4172 52.4979H48.1911C48.6086 52.4979 48.9822 52.2386 49.1281 51.8474L52.5427 42.6924C52.6383 42.4362 52.6247 42.1519 52.5051 41.9059L48.2693 33.1891C48.1755 32.996 48.0221 32.8383 47.8317 32.7392L38.3115 27.7817Z" stroke="#222222" stroke-width="2" stroke-linecap="round" stroke-linejoin="round"/>
<path d="M40.9824 40.173L28.5837 45.236" stroke="#222222" stroke-width="2" stroke-linecap="round"/>
<path d="M48.1799 32.8447L40.9822 40.1729" stroke="#222222" stroke-width="2" stroke-linecap="round"/>
<path d="M52.3794 42.4824L40.9824 40.173" stroke="#222222" stroke-width="2" stroke-linecap="round"/>
<path d="M34.6835 48.4351H35.7333" stroke="#222222" stroke-width="2" stroke-linecap="round"/>
</svg>
