<svg width="60" height="60" viewBox="0 0 60 60" fill="none" xmlns="http://www.w3.org/2000/svg">
<path d="M7.73901 33.5C7.73901 28.5294 11.7685 24.5 16.739 24.5H22.739V51.5H7.73901V33.5Z" fill="white"/>
<ellipse cx="19.739" cy="16" rx="8" ry="8.5" fill="white"/>
<path fill-rule="evenodd" clip-rule="evenodd" d="M20.1208 7.5L20.1208 51.7519C20.1208 52.1651 20.4558 52.5 20.869 52.5V52.5C27.7552 52.5 33.3375 46.9176 33.3375 40.0314V34.3077L31.3042 28.5L26.7292 24.8462L25.0771 23.2692L28.3813 18.5385L27.4917 12.0025L22.1542 7.5H20.1208Z" fill="#59CBE8"/>
<path fill-rule="evenodd" clip-rule="evenodd" d="M17.0285 23.2146C17.1888 23.7439 16.8824 24.3008 16.3443 24.4584C11.4765 25.8844 7.92078 30.346 7.92078 35.6321V52.5C7.92078 53.0523 7.46561 53.5 6.90412 53.5C6.34263 53.5 5.88745 53.0523 5.88745 52.5V35.6321C5.88745 29.444 10.0511 24.2152 15.7639 22.5416C16.3021 22.384 16.8682 22.6853 17.0285 23.2146Z" fill="#222222"/>
<path fill-rule="evenodd" clip-rule="evenodd" d="M23.2141 23.3782C23.3755 22.8492 23.9423 22.5491 24.4801 22.7079C30.2133 24.4003 34.0558 29.4692 34.0558 35.6256V52.5C34.0558 53.0523 33.6007 53.5 33.0392 53.5C32.4777 53.5 32.0225 53.0523 32.0225 52.5V35.6256C32.0225 30.3307 28.7479 26.0559 23.8956 24.6235C23.3578 24.4647 23.0527 23.9072 23.2141 23.3782Z" fill="#222222"/>
<path fill-rule="evenodd" clip-rule="evenodd" d="M13.0042 36.5C13.5657 36.5 14.0209 36.9477 14.0209 37.5V48.5C14.0209 49.0523 13.5657 49.5 13.0042 49.5C12.4427 49.5 11.9875 49.0523 11.9875 48.5V37.5C11.9875 36.9477 12.4427 36.5 13.0042 36.5Z" fill="#222222"/>
<path fill-rule="evenodd" clip-rule="evenodd" d="M20.1207 8.5C16.2475 8.5 13.004 11.7999 13.004 16C13.004 20.2001 16.2475 23.5 20.1207 23.5C23.9939 23.5 27.2374 20.2001 27.2374 16C27.2374 11.7999 23.9939 8.5 20.1207 8.5ZM10.9707 16C10.9707 10.8113 15.0101 6.5 20.1207 6.5C25.2313 6.5 29.2707 10.8113 29.2707 16C29.2707 21.1887 25.2313 25.5 20.1207 25.5C15.0101 25.5 10.9707 21.1887 10.9707 16Z" fill="#222222"/>
<path fill-rule="evenodd" clip-rule="evenodd" d="M34.411 27.6461L29.0024 27.0452L22.9929 30.6509L27.1996 34.8576" fill="white"/>
<path d="M34.411 27.6461L29.0024 27.0452L22.9929 30.6509L27.1996 34.8576" stroke="#222222" stroke-width="2" stroke-linecap="round" stroke-linejoin="round"/>
<path fill-rule="evenodd" clip-rule="evenodd" d="M46.4303 39.6664L47.0312 45.075L43.4255 51.0845L38.6179 46.2769" fill="white"/>
<path d="M46.4303 39.6664L47.0312 45.075L43.4255 51.0845L38.6179 46.2769" stroke="#222222" stroke-width="2" stroke-linecap="round" stroke-linejoin="round"/>
<path fill-rule="evenodd" clip-rule="evenodd" d="M52.2224 24.0266C52.3354 22.7827 51.2934 21.7407 50.0495 21.8538L44.5975 22.3494C41.1359 22.6641 37.9152 24.2552 35.5619 26.8131L27.9945 35.0386C26.5427 36.6167 26.5935 39.0589 28.1098 40.5752L33.0104 45.4759C34.4815 46.9469 36.8345 47.0448 38.4226 45.701L46.8579 38.5635C49.6645 36.1886 51.4243 32.805 51.7572 29.1436L52.2224 24.0266Z" fill="#DDE5ED" stroke="#222222" stroke-width="2" stroke-linecap="round" stroke-linejoin="round"/>
<path d="M32.2983 35.1694C31.6324 35.8931 30.8799 36.7111 30.0407 37.6232" stroke="#222222" stroke-width="2" stroke-linecap="round" stroke-linejoin="round"/>
<circle cx="42.2234" cy="31.8525" r="3.3995" transform="rotate(45 42.2234 31.8525)" fill="white" stroke="#222222" stroke-width="2" stroke-linecap="round" stroke-linejoin="round"/>
<path d="M28.4018 45.6716L21.7913 52.282" stroke="#222222" stroke-width="2" stroke-linecap="round" stroke-linejoin="round"/>
<path d="M25.998 43.2712L21.7913 47.4778" stroke="#222222" stroke-width="2" stroke-linecap="round" stroke-linejoin="round"/>
<path d="M30.8054 48.0778L26.5987 52.2845" stroke="#222222" stroke-width="2" stroke-linecap="round" stroke-linejoin="round"/>
</svg>
