<svg width="60" height="60" viewBox="0 0 60 60" fill="none" xmlns="http://www.w3.org/2000/svg">
<path d="M16.3792 33.5C16.3792 28.5294 20.4086 24.5 25.3792 24.5H31.3792V51.5H16.3792V33.5Z" fill="white"/>
<ellipse cx="28.3792" cy="16" rx="8" ry="8.5" fill="white"/>
<path fill-rule="evenodd" clip-rule="evenodd" d="M28.7609 7.5L28.7609 51.7519C28.7609 52.1651 29.0958 52.5 29.509 52.5V52.5C36.3952 52.5 41.9775 46.9176 41.9775 40.0314V34.3077L39.9442 28.5L35.3692 24.8462L33.7171 23.2692L37.0213 18.5385L36.1317 12.0025L30.7942 7.5H28.7609Z" fill="#59CBE8"/>
<path fill-rule="evenodd" clip-rule="evenodd" d="M25.6686 23.2146C25.8289 23.7439 25.5226 24.3008 24.9845 24.4584C20.1167 25.8844 16.5609 30.346 16.5609 35.6321V52.5C16.5609 53.0523 16.1057 53.5 15.5443 53.5C14.9828 53.5 14.5276 53.0523 14.5276 52.5V35.6321C14.5276 29.444 18.6912 24.2152 24.4041 22.5416C24.9422 22.384 25.5084 22.6853 25.6686 23.2146Z" fill="#222222"/>
<path fill-rule="evenodd" clip-rule="evenodd" d="M31.8541 23.3782C32.0155 22.8492 32.5823 22.5491 33.1201 22.7079C38.8533 24.4003 42.6959 29.4692 42.6959 35.6256V52.5C42.6959 53.0523 42.2407 53.5 41.6792 53.5C41.1177 53.5 40.6625 53.0523 40.6625 52.5V35.6256C40.6625 30.3307 37.3879 26.0559 32.5356 24.6235C31.9978 24.4647 31.6927 23.9072 31.8541 23.3782Z" fill="#222222"/>
<path fill-rule="evenodd" clip-rule="evenodd" d="M21.6442 36.5C22.2057 36.5 22.6609 36.9477 22.6609 37.5V48.5C22.6609 49.0523 22.2057 49.5 21.6442 49.5C21.0827 49.5 20.6276 49.0523 20.6276 48.5V37.5C20.6276 36.9477 21.0827 36.5 21.6442 36.5Z" fill="#222222"/>
<path fill-rule="evenodd" clip-rule="evenodd" d="M28.761 8.5C24.8877 8.5 21.6443 11.7999 21.6443 16C21.6443 20.2001 24.8877 23.5 28.761 23.5C32.6342 23.5 35.8776 20.2001 35.8776 16C35.8776 11.7999 32.6342 8.5 28.761 8.5ZM19.611 16C19.611 10.8113 23.6504 6.5 28.761 6.5C33.8716 6.5 37.911 10.8113 37.911 16C37.911 21.1887 33.8716 25.5 28.761 25.5C23.6504 25.5 19.611 21.1887 19.611 16Z" fill="#222222"/>
<path d="M39.1127 31.758C39.1127 33.1892 40.2968 34.3775 41.7925 34.3775C43.2882 34.3775 44.4723 33.1892 44.4723 31.758C44.4723 30.3268 43.2882 29.1385 41.7925 29.1385C40.2968 29.1385 39.1127 30.3268 39.1127 31.758Z" fill="#DDE5ED" stroke="#222222" stroke-width="2"/>
<path d="M18.7137 15.4688C18.7137 14.9165 19.1614 14.4688 19.7137 14.4688C20.266 14.4688 20.7137 14.9165 20.7137 15.4688H18.7137ZM37.1127 15.4688C37.1127 14.9165 37.5604 14.4688 38.1127 14.4688C38.665 14.4688 39.1127 14.9165 39.1127 15.4688H37.1127ZM20.7137 15.4688V22.1208H18.7137V15.4688H20.7137ZM20.7137 22.1208C20.7137 26.3417 24.3348 29.8515 28.9132 29.8515V31.8515C23.3301 31.8515 18.7137 27.5435 18.7137 22.1208H20.7137ZM28.9132 29.8515C33.4916 29.8515 37.1127 26.3417 37.1127 22.1208H39.1127C39.1127 27.5435 34.4963 31.8515 28.9132 31.8515V29.8515ZM37.1127 22.1208V15.4688H39.1127V22.1208H37.1127Z" fill="#222222"/>
<path d="M41.7925 34.7726V36.2807C41.7925 39.7789 38.9094 42.6148 35.3529 42.6148C31.7963 42.6148 28.9132 39.7789 28.9132 36.2807V31.4547" stroke="#222222" stroke-width="2" stroke-linecap="round"/>
</svg>
