<svg width="60" height="60" viewBox="0 0 60 60" fill="none" xmlns="http://www.w3.org/2000/svg">
<path d="M8.90662 33.5C8.90662 28.5294 12.9361 24.5 17.9066 24.5H23.9066V51.5H8.90662V33.5Z" fill="white"/>
<ellipse cx="20.9066" cy="16" rx="8" ry="8.5" fill="white"/>
<path fill-rule="evenodd" clip-rule="evenodd" d="M21.2884 7.5L21.2884 48.725C21.2884 49.0079 21.481 49.2544 21.7555 49.3228C28.2335 50.9371 34.5051 46.0367 34.5051 39.3605V34.3077L32.4717 28.5L27.8967 24.8462L26.2446 23.2692L29.5488 18.5385L28.6592 12.0025L23.3217 7.5H21.2884Z" fill="#59CBE8"/>
<path fill-rule="evenodd" clip-rule="evenodd" d="M18.1961 23.2146C18.3564 23.7439 18.05 24.3008 17.5119 24.4584C12.6441 25.8844 9.08839 30.346 9.08839 35.6321V52.5C9.08839 53.0523 8.63321 53.5 8.07172 53.5C7.51023 53.5 7.05505 53.0523 7.05505 52.5V35.6321C7.05505 29.444 11.2187 24.2152 16.9315 22.5416C17.4697 22.384 18.0358 22.6853 18.1961 23.2146Z" fill="#222222"/>
<path fill-rule="evenodd" clip-rule="evenodd" d="M24.3816 23.3782C24.543 22.8492 25.1098 22.5491 25.6476 22.7079C31.3807 24.4003 35.2233 29.4692 35.2233 35.6256V42.5C35.2233 43.0523 34.7681 43.5 34.2067 43.5C33.6452 43.5 33.19 43.0523 33.19 42.5V35.6256C33.19 30.3307 29.9154 26.0559 25.0631 24.6235C24.5253 24.4647 24.2202 23.9072 24.3816 23.3782Z" fill="#222222"/>
<path fill-rule="evenodd" clip-rule="evenodd" d="M21.2884 8.5C17.4152 8.5 14.1717 11.7999 14.1717 16C14.1717 20.2001 17.4152 23.5 21.2884 23.5C25.1616 23.5 28.4051 20.2001 28.4051 16C28.4051 11.7999 25.1616 8.5 21.2884 8.5ZM12.1384 16C12.1384 10.8113 16.1778 6.5 21.2884 6.5C26.399 6.5 30.4384 10.8113 30.4384 16C30.4384 21.1887 26.399 25.5 21.2884 25.5C16.1778 25.5 12.1384 21.1887 12.1384 16Z" fill="#222222"/>
<rect x="14.7762" y="44.5859" width="6.59103" height="8.9141" rx="2" fill="#222222"/>
<rect x="44.4359" y="44.5859" width="6.59103" height="8.9141" rx="2" fill="#222222"/>
<path fill-rule="evenodd" clip-rule="evenodd" d="M41.1151 30.0024C42.9104 30.0024 44.5645 30.9598 45.4363 32.5034L49.8918 40.3918C50.0958 40.7529 50.2029 41.1593 50.2029 41.5724V47.0203C50.2029 48.3629 49.0963 49.4514 47.7312 49.4514H34.1372H18.0716C16.7066 49.4514 15.6 48.3629 15.6 47.0203L15.6 41.5724C15.6 41.1593 15.707 40.7529 15.911 40.3918L20.3665 32.5034C21.2383 30.9598 22.8925 30.0024 24.6877 30.0024C25.7647 30.0024 40.5767 30.0024 41.1151 30.0024Z" fill="white" stroke="#222222" stroke-width="2" stroke-linecap="round"/>
<path d="M15.5396 47.5205V41.185L17.1235 38.6304H48.6988L50.2826 41.185V47.5205L48.3411 49.5131H17.1235L15.5396 47.5205Z" fill="#DDE5ED"/>
<path fill-rule="evenodd" clip-rule="evenodd" d="M41.1151 30.0024C42.9104 30.0024 44.5645 30.9598 45.4363 32.5034L49.8918 40.3918C50.0958 40.7529 50.2029 41.1593 50.2029 41.5724V47.0203C50.2029 48.3629 49.0963 49.4514 47.7312 49.4514H34.1372H18.0716C16.7066 49.4514 15.6 48.3629 15.6 47.0203L15.6 41.5724C15.6 41.1593 15.707 40.7529 15.911 40.3918L20.3665 32.5034C21.2383 30.9598 22.8925 30.0024 24.6877 30.0024C25.7647 30.0024 40.5767 30.0024 41.1151 30.0024Z" stroke="#222222" stroke-width="2" stroke-linecap="round"/>
<path d="M13.9523 37.2964L16.424 38.9171H49.3791L51.8507 37.2964" stroke="#222222" stroke-width="2" stroke-linecap="round"/>
<path d="M23.8393 49.4495L27.7452 43.3553C28.2213 42.6124 29.0908 42.1561 30.0304 42.1561H31.1646L34.9495 42.1561C35.8892 42.1561 36.7587 42.6124 37.2348 43.3553L41.1407 49.4495" stroke="#222222" stroke-width="2"/>
<path d="M19.7191 42.9665H22.1907" stroke="#222222" stroke-width="2" stroke-linecap="round"/>
<path d="M42.7883 42.9665H45.0904" stroke="#222222" stroke-width="2" stroke-linecap="round"/>
<path d="M26.3107 46.212H38.6689" stroke="#222222" stroke-width="2" stroke-linecap="round"/>
<path d="M39.9044 33.6478H41.1402" stroke="#222222" stroke-width="2" stroke-linecap="round"/>
</svg>
