<svg width="60" height="60" viewBox="0 0 60 60" fill="none" xmlns="http://www.w3.org/2000/svg">
<path d="M10.7021 33.5C10.7021 28.5294 14.7316 24.5 19.7021 24.5H25.7021V51.5H10.7021V33.5Z" fill="white"/>
<ellipse cx="22.7021" cy="16" rx="8" ry="8.5" fill="white"/>
<path fill-rule="evenodd" clip-rule="evenodd" d="M23.084 7.5L23.084 51.7519C23.084 52.1651 23.4189 52.5 23.8321 52.5C30.7183 52.5 36.3007 46.9176 36.3007 40.0314V34.3077L34.2673 28.5L29.6923 24.8462L28.0402 23.2692L31.3444 18.5385L30.4548 12.0025L25.1173 7.5H23.084Z" fill="#59CBE8"/>
<path fill-rule="evenodd" clip-rule="evenodd" d="M19.9916 23.2146C20.1519 23.7439 19.8456 24.3008 19.3074 24.4584C14.4397 25.8844 10.8839 30.346 10.8839 35.6321V52.5C10.8839 53.0523 10.4287 53.5 9.86725 53.5C9.30576 53.5 8.85059 53.0523 8.85059 52.5V35.6321C8.85059 29.444 13.0142 24.2152 18.7271 22.5416C19.2652 22.384 19.8314 22.6853 19.9916 23.2146Z" fill="#222222"/>
<path fill-rule="evenodd" clip-rule="evenodd" d="M26.1772 23.3782C26.3386 22.8492 26.9054 22.5491 27.4432 22.7079C33.1764 24.4003 37.019 29.4692 37.019 35.6256V42.5C37.019 43.0523 36.5638 43.5 36.0023 43.5C35.4408 43.5 34.9856 43.0523 34.9856 42.5V35.6256C34.9856 30.3307 31.7111 26.0559 26.8587 24.6235C26.3209 24.4647 26.0158 23.9072 26.1772 23.3782Z" fill="#222222"/>
<path fill-rule="evenodd" clip-rule="evenodd" d="M15.9674 36.5C16.5288 36.5 16.984 36.9477 16.984 37.5V48.5C16.984 49.0523 16.5288 49.5 15.9674 49.5C15.4059 49.5 14.9507 49.0523 14.9507 48.5V37.5C14.9507 36.9477 15.4059 36.5 15.9674 36.5Z" fill="#222222"/>
<path fill-rule="evenodd" clip-rule="evenodd" d="M23.0838 8.5C19.2106 8.5 15.9672 11.7999 15.9672 16C15.9672 20.2001 19.2106 23.5 23.0838 23.5C26.9571 23.5 30.2005 20.2001 30.2005 16C30.2005 11.7999 26.9571 8.5 23.0838 8.5ZM13.9338 16C13.9338 10.8113 17.9732 6.5 23.0838 6.5C28.1944 6.5 32.2338 10.8113 32.2338 16C32.2338 21.1887 28.1944 25.5 23.0838 25.5C17.9732 25.5 13.9338 21.1887 13.9338 16Z" fill="#222222"/>
<path d="M43.2499 46.6438C37.1454 52.3844 29.0542 53.6963 25.1776 49.574C21.301 45.4517 23.107 37.4562 29.2115 31.7156C35.3159 25.975 43.4072 24.6631 47.2838 28.7854C51.1604 32.9077 49.3543 40.9032 43.2499 46.6438Z" fill="white"/>
<path d="M25.3957 50.1282C27.6409 52.3734 34.3144 49.34 40.3015 43.3529C46.2885 37.3658 49.322 30.6923 47.0768 28.4471M28.8284 46.4939C29.7368 46.1327 30.7272 45.617 31.7615 44.9649M34.6666 43.003C35.0553 42.6826 35.445 42.3468 35.834 41.9964M47.2693 29.9939C51.2449 33.9694 49.6256 40.7256 43.6216 46.7296C37.6176 52.7336 30.8614 54.353 26.8858 50.3774C26.8858 50.3774 32.1962 51.611 40.3496 43.4576C48.503 35.3042 47.2693 29.9939 47.2693 29.9939ZM25.3956 50.1271C21.2795 46.011 22.7962 37.8208 28.7833 31.8337C34.7704 25.8466 42.9606 24.3299 47.0767 28.446C51.1928 32.5621 49.6761 40.7524 43.6891 46.7395C37.702 52.7265 29.5117 54.2433 25.3956 50.1271Z" stroke="#222222" stroke-width="2" stroke-linecap="round"/>
<path d="M25.3951 50.1276C21.279 46.0115 22.7957 37.8213 28.7828 31.8342C34.7699 25.8471 42.9601 24.3304 47.0762 28.4465C51.1924 32.5626 49.6756 40.7529 43.6886 46.74C37.7015 52.727 29.5112 54.2437 25.3951 50.1276Z" stroke="#222222" stroke-width="2"/>
</svg>
