<svg width="60" height="60" viewBox="0 0 60 60" fill="none" xmlns="http://www.w3.org/2000/svg">
<path d="M8.69214 33.5C8.69214 28.5294 12.7216 24.5 17.6921 24.5H23.6921V51.5H8.69214V33.5Z" fill="white"/>
<ellipse cx="20.6921" cy="16" rx="8" ry="8.5" fill="white"/>
<path fill-rule="evenodd" clip-rule="evenodd" d="M21.0739 7.5L21.0739 51.7519C21.0739 52.1651 21.4088 52.5 21.822 52.5V52.5C28.7082 52.5 34.2905 46.9176 34.2905 40.0314V34.3077L32.2572 28.5L27.6822 24.8462L26.0301 23.2692L29.3343 18.5385L28.4447 12.0025L23.1072 7.5H21.0739Z" fill="#59CBE8"/>
<path fill-rule="evenodd" clip-rule="evenodd" d="M17.9816 23.2146C18.1419 23.7439 17.8356 24.3008 17.2974 24.4584C12.4296 25.8844 8.87391 30.346 8.87391 35.6321V52.5C8.87391 53.0523 8.41873 53.5 7.85724 53.5C7.29575 53.5 6.84058 53.0523 6.84058 52.5V35.6321C6.84058 29.444 11.0042 24.2152 16.717 22.5416C17.2552 22.384 17.8213 22.6853 17.9816 23.2146Z" fill="#222222"/>
<path fill-rule="evenodd" clip-rule="evenodd" d="M24.1671 23.3782C24.3285 22.8492 24.8953 22.5491 25.4331 22.7079C31.1663 24.4003 35.0088 29.4692 35.0088 35.6256V52.5C35.0088 53.0523 34.5537 53.5 33.9922 53.5C33.4307 53.5 32.9755 53.0523 32.9755 52.5V35.6256C32.9755 30.3307 29.7009 26.0559 24.8486 24.6235C24.3108 24.4647 24.0057 23.9072 24.1671 23.3782Z" fill="#222222"/>
<path fill-rule="evenodd" clip-rule="evenodd" d="M13.9572 36.5C14.5187 36.5 14.9739 36.9477 14.9739 37.5V48.5C14.9739 49.0523 14.5187 49.5 13.9572 49.5C13.3957 49.5 12.9406 49.0523 12.9406 48.5V37.5C12.9406 36.9477 13.3957 36.5 13.9572 36.5Z" fill="#222222"/>
<path fill-rule="evenodd" clip-rule="evenodd" d="M21.074 8.5C17.2007 8.5 13.9573 11.7999 13.9573 16C13.9573 20.2001 17.2007 23.5 21.074 23.5C24.9472 23.5 28.1906 20.2001 28.1906 16C28.1906 11.7999 24.9472 8.5 21.074 8.5ZM11.924 16C11.924 10.8113 15.9634 6.5 21.074 6.5C26.1845 6.5 30.2239 10.8113 30.2239 16C30.2239 21.1887 26.1845 25.5 21.074 25.5C15.9634 25.5 11.924 21.1887 11.924 16Z" fill="#222222"/>
<rect x="21.1188" y="36.3368" width="31.0406" height="16.1639" rx="2" fill="white" stroke="#222222" stroke-width="2"/>
<path d="M28.4225 44.4187H26.5966" stroke="#222222" stroke-width="2" stroke-linecap="round"/>
<path d="M44.8557 44.4187H46.6816" stroke="#222222" stroke-width="2" stroke-linecap="round"/>
<ellipse cx="36.639" cy="44.4187" rx="2.73888" ry="2.69398" fill="#DDE5ED"/>
<path d="M36.639 47.1127V47.1127C38.1517 47.1127 39.3779 45.9066 39.3779 44.4187C39.3779 42.9309 38.1517 41.7247 36.639 41.7247" stroke="#222222" stroke-width="2" stroke-linecap="round" stroke-linejoin="round"/>
</svg>
