<svg width="60" height="60" viewBox="0 0 60 60" fill="none" xmlns="http://www.w3.org/2000/svg">
<path d="M9.90663 33.5C9.90663 28.5294 13.9361 24.5 18.9066 24.5H24.9066V51.5H9.90663V33.5Z" fill="white"/>
<ellipse cx="21.9066" cy="16" rx="8" ry="8.5" fill="white"/>
<path fill-rule="evenodd" clip-rule="evenodd" d="M22.2884 7.5L22.2884 51.7519C22.2884 52.1651 22.6233 52.5 23.0365 52.5C29.9227 52.5 35.5051 46.9176 35.5051 40.0314V34.3077L33.4717 28.5L28.8967 24.8462L27.2447 23.2692L30.5488 18.5385L29.6592 12.0025L24.3217 7.5H22.2884Z" fill="#59CBE8"/>
<path fill-rule="evenodd" clip-rule="evenodd" d="M19.1961 23.2146C19.3564 23.7439 19.0501 24.3008 18.5119 24.4584C13.6441 25.8844 10.0884 30.346 10.0884 35.6321V52.5C10.0884 53.0523 9.63323 53.5 9.07174 53.5C8.51025 53.5 8.05507 53.0523 8.05507 52.5V35.6321C8.05507 29.444 12.2187 24.2152 17.9315 22.5416C18.4697 22.384 19.0358 22.6853 19.1961 23.2146Z" fill="#222222"/>
<path fill-rule="evenodd" clip-rule="evenodd" d="M25.3816 23.3782C25.543 22.8492 26.1098 22.5491 26.6476 22.7079C32.3808 24.4003 36.2234 29.4692 36.2234 35.6256V52.5C36.2234 53.0523 35.7682 53.5 35.2067 53.5C34.6452 53.5 34.19 53.0523 34.19 52.5V35.6256C34.19 30.3307 30.9154 26.0559 26.0631 24.6235C25.5253 24.4647 25.2202 23.9072 25.3816 23.3782Z" fill="#222222"/>
<path fill-rule="evenodd" clip-rule="evenodd" d="M15.1717 36.5C15.7332 36.5 16.1884 36.9477 16.1884 37.5V48.5C16.1884 49.0523 15.7332 49.5 15.1717 49.5C14.6103 49.5 14.1551 49.0523 14.1551 48.5V37.5C14.1551 36.9477 14.6103 36.5 15.1717 36.5Z" fill="#222222"/>
<path fill-rule="evenodd" clip-rule="evenodd" d="M22.2884 8.5C18.4152 8.5 15.1717 11.7999 15.1717 16C15.1717 20.2001 18.4152 23.5 22.2884 23.5C26.1616 23.5 29.4051 20.2001 29.4051 16C29.4051 11.7999 26.1616 8.5 22.2884 8.5ZM13.1384 16C13.1384 10.8113 17.1778 6.5 22.2884 6.5C27.399 6.5 31.4384 10.8113 31.4384 16C31.4384 21.1887 27.399 25.5 22.2884 25.5C17.1778 25.5 13.1384 21.1887 13.1384 16Z" fill="#222222"/>
<path fill-rule="evenodd" clip-rule="evenodd" d="M42.0375 19.6967C42.5487 19.6967 42.9631 20.1043 42.9631 20.6071V24.3628C42.9631 24.8657 42.5487 25.2733 42.0375 25.2733C41.5263 25.2733 41.1118 24.8657 41.1118 24.3628V20.6071C41.1118 20.1043 41.5263 19.6967 42.0375 19.6967Z" fill="#222222" stroke="#222222" stroke-width="0.2" stroke-linecap="round" stroke-linejoin="round"/>
<path fill-rule="evenodd" clip-rule="evenodd" d="M42.0375 8.88635C42.5487 8.88635 42.9631 9.29399 42.9631 9.79683V17.0806C42.9631 17.5835 42.5487 17.9911 42.0375 17.9911C41.5263 17.9911 41.1118 17.5835 41.1118 17.0806V9.79683C41.1118 9.29399 41.5263 8.88635 42.0375 8.88635Z" fill="#222222" stroke="#222222" stroke-width="0.2" stroke-linecap="round" stroke-linejoin="round"/>
<path fill-rule="evenodd" clip-rule="evenodd" d="M37.8731 14.4633C38.3843 14.4633 38.7987 14.8709 38.7987 15.3737V24.2508C38.7987 24.7537 38.3843 25.1613 37.8731 25.1613C37.3618 25.1613 36.9474 24.7537 36.9474 24.2508V15.3737C36.9474 14.8709 37.3618 14.4633 37.8731 14.4633Z" fill="#222222" stroke="#222222" stroke-width="0.2" stroke-linecap="round" stroke-linejoin="round"/>
<path fill-rule="evenodd" clip-rule="evenodd" d="M42.0381 28.9162C42.0381 28.9162 33.7073 28.9162 33.7073 20.7219C42.0381 20.7219 42.0381 28.9162 42.0381 28.9162Z" fill="white" stroke="#222222" stroke-width="0.2" stroke-linecap="round" stroke-linejoin="round"/>
<path fill-rule="evenodd" clip-rule="evenodd" d="M32.7816 20.725C32.7816 20.2222 33.1961 19.8146 33.7073 19.8146C35.952 19.8146 37.697 20.3692 39.037 21.2478C40.3712 22.1227 41.2491 23.2827 41.8247 24.415C42.3985 25.5437 42.6807 26.6614 42.821 27.4893C42.8915 27.9054 42.9271 28.2541 42.9452 28.5023C42.9542 28.6266 42.9588 28.7262 42.9612 28.797C42.9624 28.8323 42.9631 28.8606 42.9634 28.8811L42.9637 28.9061L42.9638 28.9142L42.9638 28.9172L42.9638 28.9183C42.9638 28.9188 42.9638 28.9193 42.0381 28.9193C42.0381 29.8298 42.0376 29.8298 42.0371 29.8298L42.0359 29.8298L42.033 29.8298L42.0247 29.8297L41.9993 29.8294C41.9784 29.8291 41.9497 29.8285 41.9137 29.8273C41.8418 29.8249 41.7406 29.8203 41.6142 29.8115C41.3618 29.7937 41.0073 29.7587 40.5843 29.6894C39.7426 29.5514 38.6063 29.2737 37.4587 28.7094C36.3076 28.1432 35.1283 27.2797 34.2388 25.9674C33.3455 24.6494 32.7816 22.9329 32.7816 20.725ZM42.0381 28.9193V29.8298C42.5493 29.8298 42.9638 29.4222 42.9638 28.9193H42.0381ZM41.0152 27.9131C40.9739 27.9069 40.9317 27.9003 40.8886 27.8932C40.1682 27.7751 39.2218 27.5406 38.2867 27.0807C37.3551 26.6225 36.4517 25.9496 35.7792 24.9573C35.2287 24.1451 34.8078 23.0823 34.6761 21.678C36.1039 21.8075 37.1844 22.2215 38.0101 22.763C39.019 23.4245 39.7031 24.3131 40.1688 25.2294C40.6364 26.1492 40.8748 27.0801 40.9949 27.7886C41.0021 27.831 41.0088 27.8725 41.0152 27.9131Z" fill="#222222"/>
<path d="M42.0381 28.9193C42.9638 28.9193 42.9638 28.9188 42.9638 28.9183L42.9638 28.9172L42.9638 28.9142L42.9637 28.9061L42.9634 28.8811C42.9631 28.8606 42.9624 28.8323 42.9612 28.797C42.9588 28.7262 42.9542 28.6266 42.9452 28.5023C42.9271 28.2541 42.8915 27.9054 42.821 27.4893C42.6807 26.6614 42.3985 25.5437 41.8247 24.415C41.2491 23.2827 40.3712 22.1227 39.037 21.2478C37.697 20.3692 35.952 19.8146 33.7073 19.8146C33.1961 19.8146 32.7816 20.2222 32.7816 20.725C32.7816 22.9329 33.3455 24.6494 34.2388 25.9674C35.1283 27.2797 36.3076 28.1432 37.4587 28.7094C38.6063 29.2737 39.7426 29.5514 40.5843 29.6894C41.0073 29.7587 41.3618 29.7937 41.6142 29.8115C41.7406 29.8203 41.8418 29.8249 41.9137 29.8273C41.9497 29.8285 41.9784 29.8291 41.9993 29.8294L42.0247 29.8297L42.033 29.8298L42.0359 29.8298L42.0371 29.8298C42.0376 29.8298 42.0381 29.8298 42.0381 28.9193ZM42.0381 28.9193V29.8298C42.5494 29.8298 42.9638 29.4222 42.9638 28.9193H42.0381ZM41.0152 27.9131C40.9739 27.9069 40.9317 27.9003 40.8886 27.8932C40.1682 27.7751 39.2218 27.5406 38.2867 27.0807C37.3551 26.6225 36.4517 25.9496 35.7792 24.9573C35.2287 24.1451 34.8078 23.0823 34.6761 21.678C36.1039 21.8075 37.1844 22.2215 38.0101 22.763C39.019 23.4245 39.7031 24.3131 40.1688 25.2294C40.6364 26.1492 40.8748 27.0801 40.9949 27.7886C41.0021 27.831 41.0088 27.8725 41.0152 27.9131Z" stroke="#222222" stroke-width="0.2" stroke-linecap="round" stroke-linejoin="round"/>
<path fill-rule="evenodd" clip-rule="evenodd" d="M42.0375 34.3854C42.0375 34.3854 50.3683 34.3854 50.3683 26.1912C42.0375 26.1912 42.0375 34.3854 42.0375 34.3854Z" fill="#DDE5ED" stroke="#222222" stroke-width="0.2" stroke-linecap="round" stroke-linejoin="round"/>
<path fill-rule="evenodd" clip-rule="evenodd" d="M51.2946 26.1892C51.2946 25.6863 50.8802 25.2787 50.369 25.2787C48.1243 25.2787 46.3792 25.8333 45.0392 26.712C43.7051 27.5868 42.8271 28.7468 42.2516 29.8791C41.6778 31.0078 41.3955 32.1255 41.2553 32.9534C41.1847 33.3695 41.1491 33.7182 41.1311 33.9665C41.1221 34.0907 41.1174 34.1903 41.115 34.2611C41.1138 34.2965 41.1132 34.3247 41.1129 34.3452L41.1125 34.3703L41.1125 34.3783L41.1125 34.3813L41.1125 34.3824C41.1125 34.3829 41.1125 34.3834 42.0381 34.3834C42.0381 35.2939 42.0386 35.2939 42.0391 35.2939L42.0403 35.2939L42.0433 35.2939L42.0515 35.2938L42.077 35.2935C42.0979 35.2932 42.1266 35.2926 42.1625 35.2914C42.2345 35.289 42.3357 35.2845 42.4621 35.2756C42.7145 35.2578 43.069 35.2228 43.492 35.1535C44.3336 35.0155 45.47 34.7379 46.6175 34.1735C47.7687 33.6073 48.948 32.7438 49.8375 31.4315C50.7308 30.1135 51.2946 28.397 51.2946 26.1892ZM42.0381 34.3834V35.2939C41.5269 35.2939 41.1125 34.8863 41.1125 34.3834H42.0381ZM43.0611 33.3772C43.1024 33.371 43.1446 33.3644 43.1877 33.3573C43.908 33.2392 44.8544 33.0047 45.7896 32.5448C46.7211 32.0867 47.6245 31.4137 48.2971 30.4214C48.8476 29.6092 49.2685 28.5465 49.4001 27.1421C47.9724 27.2716 46.8919 27.6856 46.0662 28.2271C45.0573 28.8886 44.3732 29.7772 43.9074 30.6935C43.4398 31.6133 43.2014 32.5442 43.0814 33.2528C43.0742 33.2951 43.0674 33.3367 43.0611 33.3772Z" fill="#222222"/>
<path d="M42.0381 34.3834C41.1125 34.3834 41.1125 34.3829 41.1125 34.3824L41.1125 34.3813L41.1125 34.3783L41.1125 34.3703L41.1129 34.3452C41.1132 34.3247 41.1138 34.2965 41.115 34.2611C41.1174 34.1903 41.1221 34.0907 41.1311 33.9665C41.1491 33.7182 41.1847 33.3695 41.2553 32.9534C41.3955 32.1255 41.6778 31.0078 42.2516 29.8791C42.8271 28.7468 43.7051 27.5868 45.0392 26.712C46.3792 25.8333 48.1243 25.2787 50.369 25.2787C50.8802 25.2787 51.2946 25.6863 51.2946 26.1892C51.2946 28.397 50.7308 30.1135 49.8375 31.4315C48.948 32.7438 47.7687 33.6073 46.6175 34.1735C45.47 34.7379 44.3336 35.0155 43.492 35.1535C43.069 35.2228 42.7145 35.2578 42.4621 35.2756C42.3357 35.2845 42.2345 35.289 42.1625 35.2914C42.1266 35.2926 42.0979 35.2932 42.077 35.2935L42.0515 35.2938L42.0433 35.2939L42.0403 35.2939L42.0391 35.2939C42.0386 35.2939 42.0381 35.2939 42.0381 34.3834ZM42.0381 34.3834V35.2939C41.5269 35.2939 41.1125 34.8863 41.1125 34.3834H42.0381ZM43.0611 33.3772C43.1023 33.371 43.1446 33.3644 43.1877 33.3573C43.908 33.2392 44.8544 33.0047 45.7896 32.5448C46.7211 32.0867 47.6245 31.4137 48.2971 30.4214C48.8476 29.6092 49.2685 28.5465 49.4001 27.1421C47.9724 27.2716 46.8919 27.6856 46.0662 28.2271C45.0573 28.8886 44.3732 29.7772 43.9074 30.6935C43.4398 31.6133 43.2014 32.5442 43.0814 33.2528C43.0742 33.2951 43.0674 33.3367 43.0611 33.3772Z" stroke="#222222" stroke-width="0.2" stroke-linecap="round" stroke-linejoin="round"/>
<path fill-rule="evenodd" clip-rule="evenodd" d="M42.0381 39.8444C42.0381 39.8444 33.7073 39.8444 33.7073 31.6501C42.0381 31.6501 42.0381 39.8444 42.0381 39.8444Z" fill="white" stroke="#222222" stroke-width="0.2" stroke-linecap="round" stroke-linejoin="round"/>
<path fill-rule="evenodd" clip-rule="evenodd" d="M32.7816 31.6481C32.7816 31.1453 33.1961 30.7377 33.7073 30.7377C35.952 30.7377 37.697 31.2923 39.037 32.1709C40.3712 33.0458 41.2491 34.2058 41.8247 35.3381C42.3985 36.4668 42.6807 37.5845 42.821 38.4124C42.8915 38.8285 42.9271 39.1772 42.9452 39.4254C42.9542 39.5497 42.9588 39.6493 42.9612 39.72C42.9624 39.7554 42.9631 39.7837 42.9634 39.8042L42.9637 39.8292L42.9638 39.8373L42.9638 39.8402L42.9638 39.8414C42.9638 39.8419 42.9638 39.8424 42.0381 39.8424C42.0381 40.7529 42.0376 40.7529 42.0371 40.7529L42.0359 40.7529L42.033 40.7529L42.0247 40.7528L41.9993 40.7525C41.9784 40.7522 41.9497 40.7516 41.9137 40.7504C41.8418 40.748 41.7406 40.7434 41.6142 40.7346C41.3618 40.7168 41.0073 40.6818 40.5843 40.6125C39.7426 40.4745 38.6063 40.1968 37.4587 39.6325C36.3076 39.0663 35.1283 38.2028 34.2388 36.8905C33.3455 35.5725 32.7816 33.856 32.7816 31.6481ZM42.0381 39.8424V40.7529C42.5493 40.7529 42.9638 40.3452 42.9638 39.8424H42.0381ZM41.0152 38.8362C40.9739 38.83 40.9317 38.8234 40.8886 38.8163C40.1682 38.6982 39.2218 38.4637 38.2867 38.0038C37.3551 37.5456 36.4517 36.8727 35.7792 35.8804C35.2287 35.0682 34.8078 34.0054 34.6761 32.6011C36.1039 32.7306 37.1844 33.1446 38.0101 33.6861C39.019 34.3476 39.7031 35.2362 40.1688 36.1525C40.6364 37.0723 40.8748 38.0032 40.9949 38.7117C41.0021 38.7541 41.0088 38.7956 41.0152 38.8362Z" fill="#222222"/>
<path d="M42.0381 39.8424C42.9638 39.8424 42.9638 39.8419 42.9638 39.8414L42.9638 39.8402L42.9638 39.8373L42.9637 39.8292L42.9634 39.8042C42.9631 39.7837 42.9624 39.7554 42.9612 39.72C42.9588 39.6493 42.9542 39.5497 42.9452 39.4254C42.9271 39.1772 42.8915 38.8285 42.821 38.4124C42.6807 37.5845 42.3985 36.4668 41.8247 35.3381C41.2491 34.2058 40.3712 33.0458 39.037 32.1709C37.697 31.2923 35.952 30.7377 33.7073 30.7377C33.1961 30.7377 32.7816 31.1453 32.7816 31.6481C32.7816 33.856 33.3455 35.5725 34.2388 36.8905C35.1283 38.2028 36.3076 39.0663 37.4587 39.6325C38.6063 40.1968 39.7426 40.4745 40.5843 40.6125C41.0073 40.6818 41.3618 40.7168 41.6142 40.7346C41.7406 40.7434 41.8418 40.748 41.9137 40.7504C41.9497 40.7516 41.9784 40.7522 41.9993 40.7525L42.0247 40.7528L42.033 40.7529L42.0359 40.7529L42.0371 40.7529C42.0376 40.7529 42.0381 40.7529 42.0381 39.8424ZM42.0381 39.8424V40.7529C42.5494 40.7529 42.9638 40.3452 42.9638 39.8424H42.0381ZM41.0152 38.8362C40.9739 38.83 40.9317 38.8234 40.8886 38.8163C40.1682 38.6982 39.2218 38.4637 38.2867 38.0038C37.3551 37.5456 36.4517 36.8727 35.7792 35.8804C35.2287 35.0682 34.8078 34.0054 34.6761 32.6011C36.1039 32.7306 37.1844 33.1446 38.0101 33.6861C39.019 34.3476 39.7031 35.2362 40.1688 36.1525C40.6364 37.0723 40.8748 38.0032 40.9949 38.7117C41.0021 38.7541 41.0088 38.7956 41.0152 38.8362Z" stroke="#222222" stroke-width="0.2" stroke-linecap="round" stroke-linejoin="round"/>
<path fill-rule="evenodd" clip-rule="evenodd" d="M42.0375 23.454C42.5487 23.454 42.9631 23.8616 42.9631 24.3645V52.5891C42.9631 53.092 42.5487 53.4996 42.0375 53.4996C41.5263 53.4996 41.1118 53.092 41.1118 52.5891V24.3645C41.1118 23.8616 41.5263 23.454 42.0375 23.454Z" fill="#222222" stroke="#222222" stroke-width="0.2" stroke-linecap="round" stroke-linejoin="round"/>
<path fill-rule="evenodd" clip-rule="evenodd" d="M46.0634 14.535C46.4977 14.535 46.8498 14.8814 46.8498 15.3086V26.1383C46.8498 26.5655 46.4977 26.9118 46.0634 26.9118C45.629 26.9118 45.2769 26.5655 45.2769 26.1383V15.3086C45.2769 14.8814 45.629 14.535 46.0634 14.535Z" fill="#222222" stroke="#222222" stroke-width="0.2" stroke-linecap="round" stroke-linejoin="round"/>
</svg>
