<svg width="60" height="60" viewBox="0 0 60 60" fill="none" xmlns="http://www.w3.org/2000/svg">
<path d="M8.90662 33.5C8.90662 28.5294 12.9361 24.5 17.9066 24.5H23.9066V51.5H8.90662V33.5Z" fill="white"/>
<ellipse cx="20.9066" cy="16" rx="8" ry="8.5" fill="white"/>
<path fill-rule="evenodd" clip-rule="evenodd" d="M21.2884 7.5L21.2884 51.7519C21.2884 52.1651 21.6233 52.5 22.0365 52.5C28.9227 52.5 34.5051 46.9176 34.5051 40.0314V34.3077L32.4717 28.5L27.8967 24.8462L26.2446 23.2692L29.5488 18.5385L28.6592 12.0025L23.3217 7.5H21.2884Z" fill="#59CBE8"/>
<path fill-rule="evenodd" clip-rule="evenodd" d="M18.1961 23.2146C18.3564 23.7439 18.0501 24.3008 17.5119 24.4584C12.6441 25.8844 9.08839 30.346 9.08839 35.6321V52.5C9.08839 53.0523 8.63322 53.5 8.07173 53.5C7.51024 53.5 7.05506 53.0523 7.05506 52.5V35.6321C7.05506 29.444 11.2187 24.2152 16.9315 22.5416C17.4697 22.384 18.0358 22.6853 18.1961 23.2146Z" fill="#222222"/>
<path fill-rule="evenodd" clip-rule="evenodd" d="M24.3816 23.3782C24.543 22.8492 25.1098 22.5491 25.6476 22.7079C31.3808 24.4003 35.2233 29.4692 35.2233 35.6256V37.5C35.2233 38.0523 34.7682 38.5 34.2067 38.5C33.6452 38.5 33.19 38.0523 33.19 37.5V35.6256C33.19 30.3307 29.9154 26.0559 25.0631 24.6235C24.5253 24.4647 24.2202 23.9072 24.3816 23.3782Z" fill="#222222"/>
<path fill-rule="evenodd" clip-rule="evenodd" d="M14.1717 36.5C14.7332 36.5 15.1884 36.9477 15.1884 37.5V48.5C15.1884 49.0523 14.7332 49.5 14.1717 49.5C13.6102 49.5 13.1551 49.0523 13.1551 48.5V37.5C13.1551 36.9477 13.6102 36.5 14.1717 36.5Z" fill="#222222"/>
<path fill-rule="evenodd" clip-rule="evenodd" d="M21.2884 8.5C17.4152 8.5 14.1717 11.7999 14.1717 16C14.1717 20.2001 17.4152 23.5 21.2884 23.5C25.1616 23.5 28.4051 20.2001 28.4051 16C28.4051 11.7999 25.1616 8.5 21.2884 8.5ZM12.1384 16C12.1384 10.8113 16.1778 6.5 21.2884 6.5C26.399 6.5 30.4384 10.8113 30.4384 16C30.4384 21.1887 26.399 25.5 21.2884 25.5C16.1778 25.5 12.1384 21.1887 12.1384 16Z" fill="#222222"/>
<path d="M27.5215 51.0341V41.0341L35.5999 45.1002L35.8759 53.4495C35.9926 54.1294 36.3553 55.3785 35.2002 54.8105L33.4681 53.9586L27.5215 51.0341Z" fill="#DDE5ED"/>
<path fill-rule="evenodd" clip-rule="evenodd" d="M39.162 38.4378C38.915 38.9317 39.1153 39.5324 39.6092 39.7794L41.7574 40.8535L35.9934 43.7355L28.4604 39.9689C28.3783 39.9255 28.2895 39.8932 28.1959 39.874C28.0939 39.8528 27.9906 39.8481 27.8896 39.8588C27.7286 39.8754 27.5789 39.9302 27.4497 40.014C27.3409 40.0843 27.2447 40.1765 27.1684 40.2881C27.0986 40.3898 27.0471 40.505 27.0186 40.6291C26.9999 40.7102 26.9917 40.7924 26.9934 40.8737V50.8534C26.9934 51.2322 27.2074 51.5785 27.5462 51.7479L35.0989 55.5243C35.662 55.8058 36.3247 55.8058 36.8878 55.5243L44.4406 51.7479C44.7794 51.5785 44.9934 51.2322 44.9934 50.8534V40.8735C44.9962 40.7372 44.9711 40.5986 44.9153 40.4661C44.8999 40.4293 44.8822 40.3935 44.8626 40.359C44.7607 40.1795 44.6103 40.0427 44.4365 39.957L40.5037 37.9906C40.0097 37.7436 39.409 37.9438 39.162 38.4378ZM42.9934 50.2354V42.4715L36.9934 45.4715V53.2354L42.9934 50.2354ZM34.9934 53.2354L28.9934 50.2354V42.4715L34.9934 45.4715V53.2354Z" fill="#222222"/>
<path fill-rule="evenodd" clip-rule="evenodd" d="M26.9543 19.5391C24.65 20.4701 23.5367 23.0929 24.4677 25.3972L28.963 36.5234C29.894 38.8277 32.5167 39.941 34.821 39.01C37.1253 38.079 38.2386 35.4562 37.3076 33.1519L32.8123 22.0257C31.8813 19.7214 29.2586 18.6081 26.9543 19.5391Z" fill="white"/>
<path fill-rule="evenodd" clip-rule="evenodd" d="M30.8173 35.7742L26.322 24.648C25.8048 23.3678 26.4233 21.9107 27.7035 21.3935C28.9836 20.8763 30.4407 21.4948 30.9579 22.7749L35.4532 33.9011C35.9704 35.1813 35.3519 36.6384 34.0718 37.1556C32.7916 37.6728 31.3345 37.0543 30.8173 35.7742ZM24.4677 25.3972C23.5366 23.0929 24.6499 20.4701 26.9542 19.5391C29.2586 18.6081 31.8813 19.7214 32.8123 22.0257L37.3076 33.1519C38.2386 35.4562 37.1253 38.079 34.821 39.01C32.5167 39.941 29.8939 38.8277 28.9629 36.5234L24.4677 25.3972Z" fill="#222222"/>
<path d="M45.9933 23.3534C45.9933 20.8681 43.9786 18.8534 41.4933 18.8534H28.4933C26.0081 18.8534 23.9933 20.8681 23.9933 23.3534C23.9933 25.8387 26.0081 27.8534 28.4933 27.8534H41.4933C43.9786 27.8534 45.9933 25.8387 45.9933 23.3534Z" fill="white"/>
<path fill-rule="evenodd" clip-rule="evenodd" d="M28.4933 20.8534H41.4933C42.8741 20.8534 43.9933 21.9727 43.9933 23.3534C43.9933 24.7341 42.8741 25.8534 41.4933 25.8534H28.4933C27.1126 25.8534 25.9933 24.7341 25.9933 23.3534C25.9933 21.9727 27.1126 20.8534 28.4933 20.8534ZM41.4933 18.8534C43.9786 18.8534 45.9933 20.8681 45.9933 23.3534C45.9933 25.8387 43.9786 27.8534 41.4933 27.8534H28.4933C26.0081 27.8534 23.9933 25.8387 23.9933 23.3534C23.9933 20.8681 26.0081 18.8534 28.4933 18.8534H41.4933Z" fill="#222222"/>
<circle cx="6.5" cy="6.5" r="6.5" transform="matrix(-1 0 0 1 52.9933 16.8534)" fill="#DDE5ED" stroke="#222222" stroke-width="2"/>
<path fill-rule="evenodd" clip-rule="evenodd" d="M46.4933 25.8534C45.1126 25.8534 43.9933 24.7341 43.9933 23.3534C43.9933 21.9727 45.1126 20.8534 46.4933 20.8534C47.8741 20.8534 48.9933 21.9727 48.9933 23.3534C48.9933 24.7341 47.8741 25.8534 46.4933 25.8534Z" fill="white"/>
<path d="M44.9933 23.3534C44.9933 24.1818 45.6649 24.8534 46.4933 24.8534V26.8534C44.5604 26.8534 42.9933 25.2864 42.9933 23.3534H44.9933ZM46.4933 21.8534C45.6649 21.8534 44.9933 22.525 44.9933 23.3534H42.9933C42.9933 21.4204 44.5604 19.8534 46.4933 19.8534V21.8534ZM47.9933 23.3534C47.9933 22.525 47.3218 21.8534 46.4933 21.8534V19.8534C48.4263 19.8534 49.9933 21.4204 49.9933 23.3534H47.9933ZM46.4933 24.8534C47.3218 24.8534 47.9933 24.1818 47.9933 23.3534H49.9933C49.9933 25.2864 48.4263 26.8534 46.4933 26.8534V24.8534Z" fill="#222222"/>
</svg>
