<svg width="60" height="60" viewBox="0 0 60 60" fill="none" xmlns="http://www.w3.org/2000/svg">
<path d="M9.09595 33.5C9.09595 28.5294 13.1254 24.5 18.0959 24.5H24.0959V51.5H9.09595V33.5Z" fill="white"/>
<ellipse cx="21.0959" cy="16" rx="8" ry="8.5" fill="white"/>
<path fill-rule="evenodd" clip-rule="evenodd" d="M21.4641 7.5L21.4641 51.7519C21.4641 52.1651 21.7991 52.5 22.2122 52.5C29.0984 52.5 34.6808 46.9176 34.6808 40.0314V34.3077C34.6808 34.3077 34.0615 30.4544 32.6474 28.5C31.313 26.6557 28.0724 24.8462 28.0724 24.8462L26.4204 23.2692L29.7245 18.5385L28.8349 12.0025L23.4974 7.5H21.4641Z" fill="#59CBE8"/>
<path fill-rule="evenodd" clip-rule="evenodd" d="M18.3719 23.2146C18.5321 23.7439 18.2258 24.3008 17.6877 24.4584C12.8199 25.8844 9.26417 30.346 9.26417 35.6321V52.5C9.26417 53.0523 8.80899 53.5 8.2475 53.5C7.68601 53.5 7.23083 53.0523 7.23083 52.5V35.6321C7.23083 29.444 11.3945 24.2152 17.1073 22.5416C17.6454 22.384 18.2116 22.6853 18.3719 23.2146Z" fill="#222222"/>
<path fill-rule="evenodd" clip-rule="evenodd" d="M24.5573 23.3782C24.7187 22.8492 25.2855 22.5491 25.8233 22.7079C28.0643 23.3694 30.0164 24.5468 31.5631 26.1034C32.9134 27.4623 31.1646 28.583 30.362 27.765C29.0105 26.3118 27.2618 25.2206 25.2389 24.6235C24.7011 24.4647 24.3959 23.9072 24.5573 23.3782Z" fill="#222222"/>
<path fill-rule="evenodd" clip-rule="evenodd" d="M14.3475 36.5C14.909 36.5 15.3641 36.9477 15.3641 37.5V48.5C15.3641 49.0523 14.909 49.5 14.3475 49.5C13.786 49.5 13.3308 49.0523 13.3308 48.5V37.5C13.3308 36.9477 13.786 36.5 14.3475 36.5Z" fill="#222222"/>
<path fill-rule="evenodd" clip-rule="evenodd" d="M21.4642 8.5C17.591 8.5 14.3475 11.7999 14.3475 16C14.3475 20.2001 17.591 23.5 21.4642 23.5C25.3374 23.5 28.5809 20.2001 28.5809 16C28.5809 11.7999 25.3374 8.5 21.4642 8.5ZM12.3142 16C12.3142 10.8113 16.3536 6.5 21.4642 6.5C26.5748 6.5 30.6142 10.8113 30.6142 16C30.6142 21.1887 26.5748 25.5 21.4642 25.5C16.3536 25.5 12.3142 21.1887 12.3142 16Z" fill="#222222"/>
<path fill-rule="evenodd" clip-rule="evenodd" d="M33.717 27.4994C33.6354 27.4994 33.5722 27.4277 33.5825 27.3467L34.8959 17.0122C35.0058 16.1475 35.7415 15.4994 36.6131 15.4994C37.4848 15.4994 38.2205 16.1475 38.3304 17.0122L39.6437 27.3467C39.654 27.4277 39.5909 27.4994 39.5092 27.4994H33.717Z" fill="#222222"/>
<ellipse cx="36.6132" cy="34.4994" rx="3.05" ry="3" fill="#DDE5ED" stroke="#222222" stroke-width="2"/>
<path fill-rule="evenodd" clip-rule="evenodd" d="M33.5632 52.4994L34.8788 43.0099C34.9989 42.1441 35.7391 41.4994 36.6132 41.4994C37.4874 41.4994 38.2276 42.1441 38.3477 43.0099L39.6632 52.4994" fill="white"/>
<path d="M33.5632 52.4994L34.8788 43.0099C34.9989 42.1441 35.7391 41.4994 36.6132 41.4994V41.4994C37.4874 41.4994 38.2276 42.1441 38.3476 43.0099L39.6632 52.4994" stroke="#222222" stroke-width="2" stroke-linecap="round"/>
<path fill-rule="evenodd" clip-rule="evenodd" d="M44.3227 35.6329C44.3644 35.562 44.4592 35.5427 44.525 35.5917L52.998 41.9004C53.6869 42.4133 53.8771 43.3555 53.4416 44.0975C53.0061 44.8394 52.0814 45.1485 51.2854 44.8181L41.4943 40.755C41.4182 40.7234 41.3878 40.6329 41.4295 40.562L44.3227 35.6329Z" fill="#222222"/>
<path fill-rule="evenodd" clip-rule="evenodd" d="M28.9571 35.6329C28.9154 35.562 28.8206 35.5427 28.7547 35.5917L20.2817 41.9004C19.5929 42.4133 19.4027 43.3555 19.8382 44.0975C20.2737 44.8394 21.1984 45.1485 21.9944 44.8181L31.7855 40.755C31.8615 40.7234 31.892 40.6329 31.8503 40.562L28.9571 35.6329Z" fill="#222222"/>
</svg>
