<svg width="60" height="60" viewBox="0 0 60 60" fill="none" xmlns="http://www.w3.org/2000/svg">
<path d="M9.10864 33.5C9.10864 28.5294 13.1381 24.5 18.1086 24.5H24.1086V51.5H9.10864V33.5Z" fill="white"/>
<ellipse cx="21.1086" cy="16" rx="8" ry="8.5" fill="white"/>
<path fill-rule="evenodd" clip-rule="evenodd" d="M21.4905 7.5L21.4905 51.7519C21.4905 52.1651 21.8254 52.5 22.2386 52.5V52.5C29.1248 52.5 34.7071 46.9176 34.7071 40.0314V34.3077L32.6738 28.5L28.0988 24.8462L26.4467 23.2692L29.7509 18.5385L28.8613 12.0025L23.5238 7.5H21.4905Z" fill="#59CBE8"/>
<path fill-rule="evenodd" clip-rule="evenodd" d="M18.3981 23.2146C18.5584 23.7439 18.2521 24.3008 17.7139 24.4584C12.8461 25.8844 9.29041 30.346 9.29041 35.6321V52.5C9.29041 53.0523 8.83524 53.5 8.27375 53.5C7.71226 53.5 7.25708 53.0523 7.25708 52.5V35.6321C7.25708 29.444 11.4207 24.2152 17.1336 22.5416C17.6717 22.384 18.2378 22.6853 18.3981 23.2146Z" fill="#222222"/>
<path fill-rule="evenodd" clip-rule="evenodd" d="M24.5837 23.3782C24.7451 22.8492 25.3119 22.5491 25.8497 22.7079C31.5829 24.4003 35.4255 29.4692 35.4255 35.6256V52.5C35.4255 53.0523 34.9703 53.5 34.4088 53.5C33.8473 53.5 33.3921 53.0523 33.3921 52.5V35.6256C33.3921 30.3307 30.1176 26.0559 25.2652 24.6235C24.7274 24.4647 24.4223 23.9072 24.5837 23.3782Z" fill="#222222"/>
<path fill-rule="evenodd" clip-rule="evenodd" d="M14.3738 36.5C14.9353 36.5 15.3905 36.9477 15.3905 37.5V48.5C15.3905 49.0523 14.9353 49.5 14.3738 49.5C13.8124 49.5 13.3572 49.0523 13.3572 48.5V37.5C13.3572 36.9477 13.8124 36.5 14.3738 36.5Z" fill="#222222"/>
<path fill-rule="evenodd" clip-rule="evenodd" d="M21.4903 8.5C17.6171 8.5 14.3737 11.7999 14.3737 16C14.3737 20.2001 17.6171 23.5 21.4903 23.5C25.3636 23.5 28.607 20.2001 28.607 16C28.607 11.7999 25.3636 8.5 21.4903 8.5ZM12.3403 16C12.3403 10.8113 16.3797 6.5 21.4903 6.5C26.6009 6.5 30.6403 10.8113 30.6403 16C30.6403 21.1887 26.6009 25.5 21.4903 25.5C16.3797 25.5 12.3403 21.1887 12.3403 16Z" fill="#222222"/>
<path d="M25.478 38.8967C25.478 35.0307 28.612 31.8967 32.478 31.8967H40.3476C44.2136 31.8967 47.3476 35.0307 47.3476 38.8967V52.0167C47.3476 52.569 46.8999 53.0167 46.3476 53.0167H26.478C25.9257 53.0167 25.478 52.569 25.478 52.0167V38.8967Z" fill="white" stroke="#222222" stroke-width="2"/>
<rect x="30.7825" y="48.2168" width="11.2609" height="4.8" rx="1" fill="#DDE5ED" stroke="#222222" stroke-width="2"/>
<path d="M34.0868 40.0767C34.0868 41.2384 33.175 42.1367 32.1031 42.1367C31.0312 42.1367 30.1194 41.2384 30.1194 40.0767C30.1194 38.9151 31.0312 38.0167 32.1031 38.0167C33.175 38.0167 34.0868 38.9151 34.0868 40.0767Z" fill="#DDE5ED" stroke="#222222" stroke-width="2"/>
<path d="M42.7064 40.0767C42.7064 41.2384 41.7946 42.1367 40.7227 42.1367C39.6508 42.1367 38.739 41.2384 38.739 40.0767C38.739 38.9151 39.6508 38.0167 40.7227 38.0167C41.7946 38.0167 42.7064 38.9151 42.7064 40.0767Z" fill="#DDE5ED" stroke="#222222" stroke-width="2"/>
<path d="M24.8096 42.4568H21.8259" stroke="#222222" stroke-width="2" stroke-linecap="round"/>
<path d="M50.9998 42.4567H47.6846" stroke="#222222" stroke-width="2" stroke-linecap="round"/>
<path d="M37.7391 27.4967H35.0869" stroke="#222222" stroke-width="2" stroke-linecap="round"/>
<path d="M37.2418 31.5767L35.0869 27.4967" stroke="#222222" stroke-width="2" stroke-linecap="round"/>
<path d="M37.7389 27.4967L35.7497 23.4167" stroke="#222222" stroke-width="2" stroke-linecap="round"/>
</svg>
