<svg width="60" height="60" viewBox="0 0 60 60" fill="none" xmlns="http://www.w3.org/2000/svg">
<path d="M8.90662 33.5C8.90662 28.5294 12.9361 24.5 17.9066 24.5H23.9066V51.5H8.90662V33.5Z" fill="white"/>
<ellipse cx="20.9066" cy="16" rx="8" ry="8.5" fill="white"/>
<path fill-rule="evenodd" clip-rule="evenodd" d="M21.2884 7.5L21.2884 51.7519C21.2884 52.1651 21.6233 52.5 22.0365 52.5V52.5C28.9227 52.5 34.5051 46.9176 34.5051 40.0314V34.3077L32.4717 28.5L27.8967 24.8462L26.2446 23.2692L29.5488 18.5385L28.6592 12.0025L23.3217 7.5H21.2884Z" fill="#59CBE8"/>
<path fill-rule="evenodd" clip-rule="evenodd" d="M18.1961 23.2146C18.3564 23.7439 18.05 24.3008 17.5119 24.4584C12.6441 25.8844 9.08839 30.346 9.08839 35.6321V52.5C9.08839 53.0523 8.63321 53.5 8.07172 53.5C7.51023 53.5 7.05505 53.0523 7.05505 52.5V35.6321C7.05505 29.444 11.2187 24.2152 16.9315 22.5416C17.4697 22.384 18.0358 22.6853 18.1961 23.2146Z" fill="#222222"/>
<path fill-rule="evenodd" clip-rule="evenodd" d="M24.3816 23.3782C24.543 22.8492 25.1098 22.5491 25.6476 22.7079C31.3807 24.4003 35.2233 29.4692 35.2233 35.6256V52.5C35.2233 53.0523 34.7681 53.5 34.2067 53.5C33.6452 53.5 33.19 53.0523 33.19 52.5V35.6256C33.19 30.3307 29.9154 26.0559 25.0631 24.6235C24.5253 24.4647 24.2202 23.9072 24.3816 23.3782Z" fill="#222222"/>
<path fill-rule="evenodd" clip-rule="evenodd" d="M14.1717 36.5C14.7332 36.5 15.1884 36.9477 15.1884 37.5V48.5C15.1884 49.0523 14.7332 49.5 14.1717 49.5C13.6102 49.5 13.155 49.0523 13.155 48.5V37.5C13.155 36.9477 13.6102 36.5 14.1717 36.5Z" fill="#222222"/>
<path fill-rule="evenodd" clip-rule="evenodd" d="M21.2884 8.5C17.4151 8.5 14.1717 11.7999 14.1717 16C14.1717 20.2001 17.4151 23.5 21.2884 23.5C25.1616 23.5 28.405 20.2001 28.405 16C28.405 11.7999 25.1616 8.5 21.2884 8.5ZM12.1384 16C12.1384 10.8113 16.1778 6.5 21.2884 6.5C26.399 6.5 30.4384 10.8113 30.4384 16C30.4384 21.1887 26.399 25.5 21.2884 25.5C16.1778 25.5 12.1384 21.1887 12.1384 16Z" fill="#222222"/>
<path d="M30.7454 30.7274C31.1073 30.4191 31.5671 30.2498 32.0425 30.2498H44.8344C45.2733 30.2498 45.7001 30.3942 46.0488 30.6607L49.4771 33.2808C49.9024 33.6058 50.1796 34.0877 50.2469 34.6186L52.2892 50.7485C52.4405 51.9433 51.5093 52.9998 50.305 52.9998H27.2188C26.0045 52.9998 25.0704 51.9265 25.2379 50.7239L27.5515 34.1127C27.6191 33.6276 27.8623 33.184 28.2352 32.8663L30.7454 30.7274Z" fill="white"/>
<path fill-rule="evenodd" clip-rule="evenodd" d="M38.7476 52.9998H50.4728C51.6835 52.9998 52.6166 51.9324 52.4549 50.7326L50.3944 35.4482C49.9931 32.4712 47.4521 30.2498 44.4482 30.2498H38.7476V52.9998Z" fill="#DDE5ED"/>
<path fill-rule="evenodd" clip-rule="evenodd" d="M33.047 30.2498C30.043 30.2498 27.502 32.4712 27.1007 35.4483L25.0405 50.7326C24.8788 51.9325 25.8119 52.9998 27.0226 52.9998H50.4728C51.6835 52.9998 52.6166 51.9325 52.4549 50.7326L50.3944 35.4482C49.9931 32.4712 47.4521 30.2498 44.4482 30.2498H33.047Z" stroke="#222222" stroke-width="2"/>
<path d="M34.7148 33.1664V29.2422C34.7148 26.8992 36.5203 24.9998 38.7476 24.9998C40.9748 24.9998 42.7803 26.8992 42.7803 29.2422V33.1664" stroke="#222222" stroke-width="2" stroke-linecap="round"/>
<path d="M32.9864 49.4997H41.6281" stroke="#222222" stroke-width="2" stroke-linecap="round"/>
<path d="M30.1059 49.4997H28.9536" stroke="#222222" stroke-width="2" stroke-linecap="round"/>
<path d="M35.867 33.7497H33.5626" stroke="#222222" stroke-width="2" stroke-linecap="round"/>
<path d="M43.9326 33.7497H41.6281" stroke="#222222" stroke-width="2" stroke-linecap="round"/>
</svg>
