<svg height="40" viewBox="0 0 40 40" width="40" xmlns="http://www.w3.org/2000/svg">
    <path d="m22.0771 21.7045c0 .778-.627 1.405-1.405 1.405h-1.404c-.776 0-1.406-.627-1.406-1.405v-9.833c0-.776.63-1.405 1.406-1.405h1.404c.778 0 1.405.629 1.405 1.405zm-2.106 7.378c-1.164 0-2.109-.944-2.109-2.108 0-1.165.945-2.108 2.109-2.108 1.163 0 2.106.943 2.106 2.108 0 1.164-.943 2.108-2.106 2.108zm.027-29.082c-11.045 0-19.998 8.954-19.998 19.999 0 11.048 8.953 20.001 19.998 20.001 11.047 0 20.002-8.953 20.002-20.001 0-11.045-8.955-19.999-20.002-19.999z" fill-rule="evenodd"/>
</svg>
