<svg height="40" viewBox="0 0 40 40" width="40" xmlns="http://www.w3.org/2000/svg">
    <path d="m2.7558 19.9988c0 9.524 7.718 17.245 17.242 17.245s17.245-7.721 17.245-17.245c0-9.521-7.721-17.241-17.245-17.241s-17.242 7.72-17.242 17.241zm-2.756 0c0-11.044 8.954-19.999 19.998-19.999 11.048 0 20.002 8.955 20.002 19.999 0 11.048-8.954 20.001-20.002 20.001-11.044 0-19.998-8.953-19.998-20.001zm19.971 4.868c-1.164 0-2.109.943-2.109 2.107s.945 2.108 2.109 2.108c1.163 0 2.106-.944 2.106-2.108s-.943-2.107-2.106-2.107zm2.106-3.162c0 .777-.627 1.405-1.405 1.405h-1.404c-.776 0-1.406-.628-1.406-1.405v-9.833c0-.776.63-1.405 1.406-1.405h1.404c.778 0 1.405.629 1.405 1.405z" fill-rule="evenodd"/>
</svg>
