<svg height="40" viewBox="0 0 40 40" width="40" xmlns="http://www.w3.org/2000/svg">
    <path d="m22.1021 23.809c0 .777-.627 1.404-1.405 1.404h-1.404c-.777 0-1.406-.627-1.406-1.404v-9.833c0-.776.629-1.406 1.406-1.406h1.404c.778 0 1.405.63 1.405 1.406zm-2.105 7.377c-1.165 0-2.11-.944-2.11-2.109 0-1.163.945-2.106 2.11-2.106 1.163 0 2.105.943 2.105 2.106 0 1.165-.942 2.109-2.105 2.109zm19.45-.067-16.025-28c-.75-1.311-2.145-2.119-3.655-2.119h-.025c-1.521.009-2.918.836-3.656 2.164l-15.556 28.001c-.725 1.305-.705 2.894.051 4.18s2.137 2.075 3.63 2.075h31.578c1.501 0 2.89-.8 3.642-2.099.754-1.298.758-2.9.016-4.202z" fill-rule="evenodd"/>
</svg>
