<svg height="40" viewBox="0 0 40 40" width="40" xmlns="http://www.w3.org/2000/svg">
    <path d="m19.9854 30.7839c.802 0 1.526-.341 2.033-.885l.001.001 17.137-17.127-.004-.004c.011-.011.023-.016.034-.028 1.085-1.084 1.085-2.843 0-3.928-1.085-1.084-2.845-1.084-3.929 0-.022.023-.037.05-.059.073l-15.213 15.201-15.198-15.187c-.018-.019-.029-.041-.047-.059-1.086-1.085-2.844-1.085-3.928 0-1.074 1.073-1.082 2.803-.032 3.89l-.003.003.035.035 17.193 17.182c.502.514 1.205.833 1.98.833" fill-rule="evenodd" transform="matrix(-1 0 0 -1 39.99998 38.7838)"/>
</svg>
