<svg height="40" viewBox="0 0 40 40" width="40" xmlns="http://www.w3.org/2000/svg">
    <path d="m19.9995 37.241c-9.522 0-17.243-7.718-17.243-17.24 0-9.523 7.721-17.243 17.243-17.243s17.244 7.72 17.244 17.243c0 9.522-7.722 17.24-17.244 17.24m0-37.241c-11.046 0-20 8.955-20 20.001 0 11.045 8.954 19.999 20 19.999 11.045 0 20-8.954 20-19.999 0-11.046-8.955-20.001-20-20.001m9.329 25.132c-1.547-1.607-1.884-3.985-2.21-6.284-.484-3.408-1.029-7.237-5.887-7.739v-.617c0-.619-.502-1.121-1.121-1.121s-1.122.502-1.122 1.121v.618c-4.817.505-5.357 4.333-5.836 7.739-.324 2.301-.659 4.678-2.193 6.287-.309.325-.396.801-.219 1.214s.581.681 1.031.681h4.697c.025 1.987 1.649 3.598 3.642 3.598 1.994 0 3.617-1.611 3.642-3.598h4.768c.45 0 .856-.269 1.031-.682.177-.415.089-.893-.223-1.217" fill-rule="evenodd"/>
</svg>
