<svg height="40" viewBox="0 0 40 40" width="40" xmlns="http://www.w3.org/2000/svg">
    <path d="m37.1478 29.6572c-2.912-3.023-3.546-7.497-4.159-11.824-.91-6.412-1.936-13.618-11.077-14.561v-1.162c0-1.165-.944-2.11-2.11-2.11-1.164 0-2.111.945-2.111 2.11v1.162c-9.064.95-10.081 8.155-10.982 14.564-.61 4.328-1.24 8.802-4.126 11.828-.581.611-.745 1.509-.413 2.286.334.777 1.095 1.28 1.941 1.28h8.838c.048 3.74 3.103 6.77 6.853 6.77 3.752 0 6.807-3.03 6.854-6.77h8.971c.847 0 1.611-.504 1.941-1.283.332-.779.166-1.68-.42-2.29" fill-rule="evenodd"/>
</svg>
