<svg height="40" viewBox="0 0 40 40" width="40" xmlns="http://www.w3.org/2000/svg">
    <path d="m29.552 26.3492c-.175.413-.582.682-1.032.682h-4.767c-.025 1.987-1.649 3.597-3.642 3.597-1.994 0-3.617-1.61-3.642-3.597h-4.697c-.45 0-.854-.268-1.032-.68-.176-.414-.089-.891.219-1.216 1.534-1.607 1.869-3.985 2.193-6.286.479-3.405 1.02-7.234 5.837-7.739v-.618c0-.62.503-1.122 1.122-1.122s1.121.502 1.121 1.122v.618c4.858.501 5.403 4.331 5.886 7.738.326 2.3.663 4.677 2.211 6.283.311.324.4.804.223 1.218m-9.552-26.35c-11.047 0-20 8.955-20 20.001s8.953 20 20 20c11.044 0 20-8.954 20-20s-8.956-20.001-20-20.001" fill-rule="evenodd"/>
</svg>
