<svg height="40" viewBox="0 0 40 40" width="40" xmlns="http://www.w3.org/2000/svg">
    <path d="m23.459 33.479h3.262v-15.848h-3.262zm-9.705 0h3.265v-15.848h-3.265zm20.597-20.559v21.954c0 3.73-2.305 5.126-5.126 5.126h-18.035c-2.815 0-5.122-1.396-5.122-5.126v-21.954zm.926-7.061h-30.139c-.624 0-1.138.513-1.138 1.142v2.882c0 .625.514 1.138 1.138 1.138h30.139c.628 0 1.138-.513 1.138-1.138v-2.882c0-.629-.51-1.142-1.138-1.142zm-20.457-1.898v-2.825c0-.623.513-1.136 1.14-1.136h8.497c.629 0 1.142.513 1.142 1.136v2.825z" fill-rule="evenodd"/>
</svg>
