<svg height="40" viewBox="0 0 40 40" width="40" xmlns="http://www.w3.org/2000/svg">
    <path d="m29.495 17.7657c-.932 0-1.688-.755-1.688-1.69 0-.931.756-1.687 1.688-1.687.934 0 1.69.756 1.69 1.687 0 .935-.756 1.69-1.69 1.69zm0 5.697c-.932 0-1.688-.756-1.688-1.686 0-.934.756-1.689 1.688-1.689.934 0 1.69.755 1.69 1.689 0 .93-.756 1.686-1.69 1.686zm0 5.698c-.932 0-1.688-.753-1.688-1.687s.756-1.688 1.688-1.688c.934 0 1.69.754 1.69 1.688s-.756 1.687-1.69 1.687zm0 5.699c-.932 0-1.688-.754-1.688-1.69 0-.932.756-1.687 1.688-1.687.934 0 1.69.755 1.69 1.687 0 .936-.756 1.69-1.69 1.69zm-6.228-17.094c-.934 0-1.69-.755-1.69-1.69 0-.931.756-1.687 1.69-1.687.932 0 1.688.756 1.688 1.687 0 .935-.756 1.69-1.688 1.69zm0 5.697c-.934 0-1.69-.756-1.69-1.686 0-.934.756-1.689 1.69-1.689.932 0 1.688.755 1.688 1.689 0 .93-.756 1.686-1.688 1.686zm0 5.698c-.934 0-1.69-.753-1.69-1.687s.756-1.688 1.69-1.688c.932 0 1.688.754 1.688 1.688s-.756 1.687-1.688 1.687zm0 5.699c-.934 0-1.69-.754-1.69-1.69 0-.932.756-1.687 1.69-1.687.932 0 1.688.755 1.688 1.687 0 .936-.756 1.69-1.688 1.69zm-6.232-17.094c-.933 0-1.688-.755-1.688-1.69 0-.931.755-1.687 1.688-1.687.935 0 1.69.756 1.69 1.687 0 .935-.755 1.69-1.69 1.69zm0 5.697c-.933 0-1.688-.756-1.688-1.686 0-.934.755-1.689 1.688-1.689.935 0 1.69.755 1.69 1.689 0 .93-.755 1.686-1.69 1.686zm0 5.698c-.933 0-1.688-.753-1.688-1.687s.755-1.688 1.688-1.688c.935 0 1.69.754 1.69 1.688s-.755 1.687-1.69 1.687zm0 5.699c-.933 0-1.688-.754-1.688-1.69 0-.932.755-1.687 1.688-1.687.935 0 1.69.755 1.69 1.687 0 .936-.755 1.69-1.69 1.69zm-6.229-17.094c-.934 0-1.686-.755-1.686-1.69 0-.931.752-1.687 1.686-1.687s1.692.756 1.692 1.687c0 .935-.758 1.69-1.692 1.69zm0 5.697c-.934 0-1.686-.756-1.686-1.686 0-.934.752-1.689 1.686-1.689s1.692.755 1.692 1.689c0 .93-.758 1.686-1.692 1.686zm0 5.698c-.934 0-1.686-.753-1.686-1.687s.752-1.688 1.686-1.688 1.692.754 1.692 1.688-.758 1.687-1.692 1.687zm0 5.699c-.934 0-1.686-.754-1.686-1.69 0-.932.752-1.687 1.686-1.687s1.692.755 1.692 1.687c0 .936-.758 1.69-1.692 1.69zm-1.686-24.662h22.046v-5.534h-22.046zm23.092-10.198h-16.715-7.425c-1.145 0-2.072.929-2.072 2.071v35.859c0 1.144.927 2.07 2.072 2.07h7.425 1.145 15.57c1.144 0 2.069-.928 2.069-2.072v-35.857c0-1.142-.927-2.071-2.069-2.071z" fill-rule="evenodd"/>
</svg>
