<svg height="40" viewBox="0 0 40 40" width="40" xmlns="http://www.w3.org/2000/svg">
    <path d="m25.876 17.52h5.173v-3.396h-5.173zm0 6.955h5.173v-3.45h-5.173zm-8.623-6.955h5.173v-3.396h-5.173zm0 6.955h5.173v-3.45h-5.173zm0 6.9h5.173v-3.504h-5.173zm-8.628 0h5.177v-3.504h-5.177zm0-6.9h5.177v-3.45h-5.177zm0-6.955h5.177v-3.396h-5.177zm27.602 18.202c0 .456-.371.827-.826.827h-31.123c-.455 0-.826-.371-.826-.827v-27.672c0-.455.371-.825.826-.825h4.4v2.481c0 .684.557 1.239 1.243 1.239.685 0 1.24-.555 1.24-1.239v-2.481h7.439v2.481c0 .684.555 1.239 1.241 1.239.682 0 1.239-.555 1.239-1.239v-2.481h7.439v2.481c0 .684.554 1.239 1.238 1.239.685 0 1.238-.555 1.238-1.239v-2.481h4.406c.455 0 .826.37.826.825zm.144-32.001h-5.376v-2.479c0-.687-.553-1.242-1.238-1.242-.684 0-1.238.555-1.238 1.242v2.479h-7.439v-2.479c0-.687-.557-1.242-1.239-1.242-.686 0-1.241.555-1.241 1.242v2.479h-7.439v-2.479c0-.687-.555-1.242-1.24-1.242-.686 0-1.243.555-1.243 1.242v2.479h-5.37c-1.828 0-3.308 1.478-3.308 3.306v29.666c0 1.825 1.48 3.307 3.308 3.307h33.063c1.828 0 3.304-1.482 3.304-3.307v-29.666c0-1.828-1.476-3.306-3.304-3.306z" fill-rule="evenodd"/>
</svg>
