<svg height="40" viewBox="0 0 40 40" width="40" xmlns="http://www.w3.org/2000/svg"><path d="m34.1623 33.1625c-1.171 1.171-3.071 1.171-4.244-.001l-9.898-9.898-9.898 9.898c-1.172 1.172-3.073 1.172-4.244.001-1.172-1.171-1.171-3.072.001-4.244l9.898-9.898-9.898-9.899c-1.172-1.171-1.173-3.072-.001-4.243 1.171-1.172 3.072-1.171 4.244.001l9.898 9.898 9.898-9.898c1.173-1.172 3.073-1.173 4.244-.001 1.172 1.171 1.171 3.072-.001 4.243l-9.898 9.899 9.898 9.898c1.172 1.172 1.173 3.073.001 4.244" fill-rule="evenodd"/></svg>