<svg height="40" viewBox="0 0 40 40" width="40" xmlns="http://www.w3.org/2000/svg">
    <path d="m37.2437 20.0012c0-9.523-7.722-17.24-17.244-17.24s-17.243 7.717-17.243 17.24c0 9.521 7.721 17.24 17.243 17.24s17.244-7.719 17.244-17.24m2.756 0c0 11.045-8.956 19.998-20 19.998-11.047 0-20-8.953-20-19.998s8.953-20.001 20-20.001c11.044 0 20 8.956 20 20.001m-12.721 7.313c-.852.852-2.233.852-3.085 0l-4.243-4.242-4.242 4.242c-.852.852-2.233.852-3.086 0-.852-.853-.852-2.234 0-3.085l4.243-4.243-4.243-4.242c-.852-.852-.852-2.233 0-3.086.852-.851 2.234-.851 3.085 0l4.243 4.242 4.243-4.243c.852-.851 2.233-.851 3.086.001.852.852.852 2.233 0 3.085l-4.244 4.243 4.243 4.244c.852.851.852 2.232 0 3.084" fill-rule="evenodd"/>
</svg>
