<svg height="40" viewBox="0 0 40 40" width="40" xmlns="http://www.w3.org/2000/svg">
    <path d="m27.2789 24.2296c.852.852.852 2.232 0 3.085-.853.852-2.233.852-3.085 0l-4.243-4.242-4.242 4.242c-.852.852-2.233.852-3.086 0-.852-.853-.852-2.234 0-3.086l4.242-4.242-4.242-4.242c-.852-.853-.852-2.234 0-3.086s2.234-.852 3.085 0l4.243 4.242 4.243-4.243c.852-.852 2.232-.852 3.085.001.853.852.853 2.232 0 3.085l-4.243 4.243zm-7.279-24.229c-11.047 0-20 8.956-20 20 0 11.045 8.953 19.999 20 19.999 11.044 0 20-8.954 20-19.999 0-11.044-8.956-20-20-20z" fill-rule="evenodd"/>
</svg>
