<svg height="40" viewBox="0 0 40 40" width="40" xmlns="http://www.w3.org/2000/svg" xmlns:xlink="http://www.w3.org/1999/xlink">
    <mask id="a" fill="#fff">
        <path d="m0 0h39.996v40h-39.996z" fill="#fff" fill-rule="evenodd"/>
    </mask>
    <path d="m2.7548 20c0 1.207.126 2.383.362 3.519h7.089c1.772 3.832 5.433 6.465 9.666 6.465 4.23 0 7.895-2.633 9.665-6.465h7.341c.236-1.136.362-2.312.362-3.519 0-9.524-7.721-17.243-17.242-17.243-9.524 0-17.243 7.719-17.243 17.243m37.242 0c0 11.044-8.954 20-19.999 20s-19.998-8.956-19.998-20c0-11.046 8.953-20 19.998-20s19.999 8.954 19.999 20m-29.34-7.292c-.058-.105-.087-.224-.074-.347.017-.154.092-.294.213-.39.195-.161.48-.158.685-.021.028.01.057.026.078.048l10.007 9.915c.001.003.003.006.006.01.064.064.128.13.187.202.353.437.52.986.461 1.545-.06.561-.33 1.065-.767 1.421-.365.294-.805.458-1.274.47-.658.018-1.276-.266-1.691-.777-.051-.063-7.822-12.058-7.822-12.058-.004-.006-.005-.011-.009-.018" fill="#020203" fill-rule="evenodd" mask="url(#a)"/>
</svg>
