<svg height="40" viewBox="0 0 40 40" width="40" xmlns="http://www.w3.org/2000/svg">
    <path d="m29.333 31.1824c-.75-.534-1.873-.344-2.403.401-2.225 3.109-5.827 4.964-9.64 4.964-6.528 0-11.84-5.307-11.84-11.833 0-3.825 1.867-7.435 4.986-9.654.374-.267.624-.666.699-1.121.076-.454-.03-.909-.294-1.285-.53-.752-1.654-.944-2.405-.409-4.029 2.869-6.436 7.53-6.436 12.469 0 8.427 6.858 15.285 15.29 15.285 4.923 0 9.58-2.395 12.446-6.408.553-.774.374-1.854-.403-2.409m9.069-4.105c-.651-.651-1.785-.651-2.438 0l-1.526 1.521-6.792-6.792c-.321-.321-.764-.506-1.22-.506h-7.473v-2.835h7.707c.951 0 1.724-.777 1.724-1.729 0-.948-.773-1.723-1.724-1.723h-7.707v-5.86h-3.452v13.872c0 .951.776 1.729 1.728 1.729h8.485l7.503 7.508c.331.326.761.505 1.221.505.465 0 .898-.179 1.224-.505l2.74-2.746c.676-.674.676-1.767 0-2.439m-17.109-23.089c0 2.203-1.784 3.988-3.984 3.988-2.204 0-3.987-1.785-3.987-3.988 0-2.2 1.783-3.989 3.987-3.989 2.2 0 3.984 1.789 3.984 3.989" fill-rule="evenodd"/>
</svg>
