<svg height="40" viewBox="0 0 40 40" width="40" xmlns="http://www.w3.org/2000/svg">
    <path d="m27.8688 27.8824c.519.61.156 1.329-.322 1.99-.133.185-3.209 4.259-7.574 4.259h-.074c-4.365 0-7.44-4.074-7.574-4.259-.478-.661-.841-1.38-.321-1.99.873-1.026 4.047.39 7.897.376h.07c3.849.014 7.024-1.402 7.898-.376m.22-11.199v1.803c0 .562-.458 1.019-1.018 1.019-.562 0-1.019-.457-1.019-1.019v-1.803c0-.561.457-1.018 1.019-1.018.56 0 1.018.457 1.018 1.018m-15.9 2.822c-.561 0-1.018-.457-1.018-1.019v-1.803c0-.561.457-1.018 1.018-1.018s1.018.457 1.018 1.018v1.803c0 .562-.457 1.019-1.018 1.019m5.13 6.03c.016-.59.498-1.058 1.082-1.058.025.001.051.001.074.001.425 0 .505-.16.533-.214.137-.277.141-.758.144-1.017l.049-6.356c.002-.289.115-.561.321-.764.204-.203.476-.315.763-.315h.003c.291.001.562.115.767.32.204.206.316.479.3140263.768l-.0500263 6.358c-.003.646-.053 1.332-.375 1.977-.469.937-1.295 1.412-2.451 1.412-.037 0-.076-.001-.115-.002-.598-.015-1.074-.513-1.059-1.11m2.681 12.192c-9.775 0-17.727-7.952-17.727-17.727s7.952-17.728 17.727-17.728 17.727 7.953 17.727 17.728-7.952 17.727-17.727 17.727m0-37.727c-11.046 0-20 8.954-20 20 0 11.045 8.954 20 20 20s20-8.955 20-20c0-11.046-8.954-20-20-20" fill-rule="evenodd"/>
</svg>
