<svg height="40" viewBox="0 0 40 40" width="40" xmlns="http://www.w3.org/2000/svg">
    <path d="m26.7639 28.7311c.129.614-.265 1.217-.879 1.346l-11.828 2.487c-.078.018-.157.025-.234.025-.527 0-.998-.367-1.112-.902-.129-.615.265-1.217.879-1.347l11.828-2.487c.61-.133 1.217.265 1.346.878m1.324-12.047v1.802c0 .562-.457 1.019-1.017 1.019-.563 0-1.02-.457-1.02-1.019v-1.802c0-.562.457-1.018 1.02-1.018.56 0 1.017.456 1.017 1.018m-15.898 2.821c-.563 0-1.02-.457-1.02-1.019v-1.802c0-.562.457-1.018 1.02-1.018.56 0 1.016.456 1.016 1.018v1.802c0 .562-.456 1.019-1.016 1.019m5.129 6.03c.015-.589.498-1.058 1.082-1.058.024.001.05.001.075.001.424 0 .504-.16.531-.213.138-.278.141-.759.145-1.017l.05-6.357c0-.288.115-.56.32-.764.204-.203.475-.314.763-.314h.003c.29.001.562.114.766.32.204.205.315.478.3140067.767l-.0490067 6.358c-.003.647-.052 1.333-.375 1.977-.469.937-1.294 1.412-2.451 1.412-.038 0-.077-.001-.116-.001-.597-.016-1.073-.514-1.058-1.111m2.681 12.192c-9.775 0-17.727-7.952-17.727-17.727s7.952-17.727 17.727-17.727 17.727 7.952 17.727 17.727-7.952 17.727-17.727 17.727m0-37.727c-11.046 0-20 8.954-20 20 0 11.045 8.954 20 20 20 11.045 0 20-8.955 20-20 0-11.046-8.955-20-20-20" fill-rule="evenodd"/>
</svg>
