<svg height="40" viewBox="0 0 40 40" width="40" xmlns="http://www.w3.org/2000/svg">
    <path d="m26.8243 29.7625c.246.576-.019 1.242-.595 1.49-.109.048-2.736 1.16-6.406 1.191h-.145c-3.637 0-6.321-1.142-6.435-1.192-.576-.249-.841-.918-.592-1.494.248-.575.915-.842 1.492-.593.025.011 2.447 1.028 5.66 1.006 3.189-.026 5.508-.997 5.53-1.007.58-.245 1.247.023 1.491.599m1.264-13.079v1.803c0 .562-.457 1.019-1.018 1.019-.562 0-1.019-.457-1.019-1.019v-1.803c0-.561.457-1.018 1.019-1.018.561 0 1.018.457 1.018 1.018m-15.899 2.822c-.562 0-1.019-.457-1.019-1.019v-1.803c0-.561.457-1.018 1.019-1.018.561 0 1.018.457 1.018 1.018v1.803c0 .562-.457 1.019-1.018 1.019m5.129 6.03c.016-.589.498-1.058 1.083-1.058.024.001.051.001.074.001.425 0 .505-.16.533-.214.136-.277.14-.758.143-1.017l.05-6.356c.002-.289.115-.561.32-.764.204-.203.477-.315.763-.315h.004c.29.001.562.115.765.321.205.205.317.478.3150263.767l-.0490263 6.358c-.004.646-.053 1.333-.376 1.976-.469.938-1.294 1.413-2.451 1.413-.037 0-.076-.001-.115-.002-.598-.015-1.074-.513-1.059-1.11m2.682 12.192c-9.776 0-17.728-7.953-17.728-17.728 0-9.774 7.952-17.727 17.728-17.727 9.774 0 17.727 7.953 17.727 17.727 0 9.775-7.953 17.728-17.727 17.728m0-37.728c-11.046 0-20 8.955-20 20 0 11.046 8.954 20 20 20s20-8.954 20-20c0-11.045-8.954-20-20-20" fill-rule="evenodd"/>
</svg>
