<svg height="40" viewBox="0 0 40 40" width="40" xmlns="http://www.w3.org/2000/svg">
    <path d="m31.1262 12.7072c.28.562.054 1.244-.509 1.524l-2.581 1.291c.023.083.052.163.052.252v2.712c0 .562-.457 1.019-1.018 1.019-.562 0-1.018-.457-1.018-1.019v-1.971l-.17.084c-.162.082-.337.121-.507.121-.417 0-.818-.231-1.018-.629-.28-.561-.052-1.244.509-1.525l4.736-2.367c.562-.28 1.245-.053 1.524.508m-18.937 6.798c-.562 0-1.019-.457-1.019-1.019v-2.712c0-.111.03-.213.063-.314l-2.456-1.229c-.562-.28-.79-.962-.508-1.524.279-.562.961-.791 1.524-.508l4.736 2.367c.562.281.789.964.508 1.525-.198.398-.599.629-1.016.629-.171 0-.345-.039-.507-.121l-.308-.153v2.04c0 .562-.456 1.019-1.017 1.019m14.297 11.367c.493.39.575 1.105.185 1.596-.389.491-1.099.576-1.594.187-.029-.022-2.302-1.768-5.283-1.768-.038 0-.076 0-.115.001-3.063.047-5.259 1.75-5.282 1.767-.208.165-.456.244-.702.244-.337 0-.67-.148-.893-.433-.389-.493-.304-1.208.189-1.596.114-.09 2.83-2.196 6.654-2.255.05 0 .1-.001.151-.001 3.798 0 6.572 2.165 6.69 2.258m-9.168-5.337c.016-.589.498-1.058 1.083-1.058.024.001.051.001.075.001.424 0 .504-.16.531-.213.138-.278.141-.759.144-1.018l.05-6.356c.001-.288.115-.56.321-.764.204-.203.476-.315.762-.315h.004c.29.001.563.115.766.321.204.205.316.478.3140263.767l-.0490263 6.358c-.004.647-.052 1.333-.376 1.976-.468.938-1.294 1.413-2.45 1.413-.038 0-.077-.001-.116-.002-.598-.015-1.073-.513-1.059-1.11m2.682 12.192c-9.775 0-17.728-7.953-17.728-17.727 0-9.775 7.953-17.728 17.728-17.728 9.774 0 17.728 7.953 17.728 17.728 0 9.774-7.954 17.727-17.728 17.727m0-37.727c-11.046 0-20 8.954-20 20 0 11.045 8.954 20 20 20s20-8.955 20-20c0-11.046-8.954-20-20-20" fill-rule="evenodd"/>
</svg>
