<svg height="40" viewBox="0 0 40 40" width="40" xmlns="http://www.w3.org/2000/svg">
    <path d="m26.8246 31.7591c-.186.429-.604.685-1.044.685-.15 0-.302-.03-.448-.093-.041-.017-2.485-1.041-5.66-1.006-3.189.027-5.508.997-5.531 1.007-.575.246-1.244-.022-1.491-.598-.246-.576.02-1.243.595-1.491.11-.046 2.737-1.159 6.407-1.19 3.749-.026 6.465 1.142 6.579 1.192.576.249.841.918.593 1.494m1.264-15.075v1.803c0 .562-.457 1.019-1.018 1.019-.562 0-1.019-.457-1.019-1.019v-1.803c0-.562.457-1.019 1.019-1.019.561 0 1.018.457 1.018 1.019m-15.9 2.822c-.561 0-1.018-.457-1.018-1.019v-1.803c0-.562.457-1.019 1.018-1.019.562 0 1.019.457 1.019 1.019v1.803c0 .562-.457 1.019-1.019 1.019m5.131 6.029c.015-.589.497-1.058 1.081-1.058.025.001.052.001.075.001.425 0 .505-.16.532-.213.137-.278.141-.758.144-1.018l.049-6.356c.002-.289.116-.56.322-.764.203-.203.475-.314.762-.314h.004c.29.001.562.114.765.32.205.205.317.478.3150263.768l-.0490263 6.358c-.004.646-.053 1.332-.376 1.976-.469.937-1.294 1.412-2.451 1.412-.037 0-.076-.001-.115-.002-.598-.015-1.074-.512-1.058-1.11m2.681 12.192c-9.776 0-17.728-7.952-17.728-17.727s7.952-17.727 17.728-17.727c9.774 0 17.726 7.952 17.726 17.727s-7.952 17.727-17.726 17.727m0-37.727c-11.046 0-20 8.954-20 20s8.954 20 20 20 20-8.954 20-20-8.954-20-20-20" fill-rule="evenodd"/>
</svg>
