<svg height="40" viewBox="0 0 40 40" width="40" xmlns="http://www.w3.org/2000/svg">
    <path d="m17.8605 14.3053c0-1.164.943-2.108 2.106-2.108 1.164 0 2.109.944 2.109 2.108s-.945 2.106-2.109 2.106c-1.163 0-2.106-.942-2.106-2.106zm0 5.269c0-.778.627-1.406 1.405-1.406h1.404c.776 0 1.406.628 1.406 1.406v8.014c0 .777-.63 1.405-1.406 1.405h-1.404c-.778 0-1.405-.628-1.405-1.405zm2.139 17.666c-9.522 0-17.243-7.718-17.243-17.239 0-9.524 7.721-17.24 17.243-17.24s17.244 7.716 17.244 17.24c0 9.521-7.722 17.239-17.244 17.239zm0-37.241c-11.046 0-19.999 8.956-19.999 20.002 0 11.044 8.953 19.997 19.999 19.997 11.045 0 20.001-8.953 20.001-19.997 0-11.046-8.956-20.002-20.001-20.002z" fill-rule="evenodd"/>
</svg>
