<svg height="40" viewBox="0 0 40 40" width="40" xmlns="http://www.w3.org/2000/svg">
    <path d="m19.9664 16.4116c-1.163 0-2.106-.942-2.106-2.106s.943-2.109 2.106-2.109c1.164 0 2.109.945 2.109 2.109s-.945 2.106-2.109 2.106zm2.109 11.177c0 .776-.63 1.405-1.406 1.405h-1.404c-.778 0-1.405-.629-1.405-1.405v-8.014c0-.778.627-1.405 1.405-1.405h1.404c.776 0 1.406.627 1.406 1.405zm-2.076-27.588c-11.046 0-19.999 8.955-19.999 20.001 0 11.044 8.953 19.998 19.999 19.998 11.045 0 20.001-8.954 20.001-19.998 0-11.046-8.956-20.001-20.001-20.001z" fill-rule="evenodd"/>
</svg>
