<svg height="40" viewBox="0 0 40 40" width="40" xmlns="http://www.w3.org/2000/svg"><path d="m16.3843 26.758c-5.725 0-10.383-4.656-10.383-10.379 0-5.724 4.658-10.38 10.383-10.38s10.383 4.656 10.383 10.38c0 5.723-4.658 10.379-10.383 10.379m22.736 8.122-9.239-9.237c1.817-2.637 2.887-5.827 2.887-9.264 0-9.032-7.35-16.379-16.384-16.379s-16.384 7.347-16.384 16.379c0 9.031 7.35 16.378 16.384 16.378 3.432 0 6.617-1.064 9.252-2.874l9.241 9.238c.586.586 1.354.879 2.122.879s1.536-.293 2.121-.879c1.173-1.171 1.173-3.071 0-4.241" fill-rule="evenodd"/></svg>