<svg height="40" viewBox="0 0 40 40" width="40" xmlns="http://www.w3.org/2000/svg">
    <path d="m26.0084 29.0956c1.656 0 2.998 1.343 2.998 2.999 0 1.5958929-1.2478546 2.9016735-2.8218198 2.9929079l-.1761802.0050921h-23.01c-1.656 0-2.998-1.343-2.998-2.998 0-1.5968571 1.24785459-2.9026722 2.82181979-2.9939079l.17618021-.0050921zm10.9932-12.0478c1.656 0 2.999 1.343 2.999 2.999 0 1.5958929-1.2487844 2.9016735-2.8228161 2.9929079l-.1761839.0050921h-34.003c-1.656 0-2.998-1.343-2.998-2.998 0-1.5968571 1.24785459-2.9026722 2.82181979-2.9939079l.17618021-.0050921zm-.0004-12.0478c1.656 0 2.999 1.343 2.999 2.998 0 1.59685714-1.2487844 2.9026722-2.8228161 2.9939079l-.1761839.0050921h-34.003c-1.656 0-2.998-1.343-2.998-2.999 0-1.59589286 1.24785459-2.90167347 2.82181979-2.99290794l.17618021-.00509206z" fill-rule="evenodd"/>
</svg>
