<svg height="40" viewBox="0 0 40 40" width="40" xmlns="http://www.w3.org/2000/svg">
    <path d="m28.797 10.3072h-18.865c-.891 0-1.643-.751-1.643-1.647 0-.893.752-1.645 1.643-1.645h18.865c.892 0 1.643.752 1.643 1.645 0 .896-.751 1.647-1.643 1.647m-3.65 6.281h-15.215c-.891 0-1.643-.751-1.643-1.647 0-.892.752-1.643 1.643-1.643h15.215c.891 0 1.642.751 1.642 1.643 0 .896-.751 1.647-1.642 1.647m-15.22 6.29c-.91 0-1.648-.738-1.648-1.651s.738-1.651 1.648-1.651c.909 0 1.646.738 1.646 1.651s-.737 1.651-1.646 1.651m22.107-22.878h-24.067c-4.402 0-7.967 3.499-7.967 7.817v13.681c0 4.321 3.565 7.821 7.967 7.821h12.137l.138.044c.051.125.12.241.223.335l9.152 8.325c.172.156.392.238.614.238.135 0 .272-.032.398-.093.336-.163.538-.513.512-.887l-.556-7.962h1.449c4.399 0 7.966-3.5 7.966-7.821v-13.681c0-4.318-3.567-7.817-7.966-7.817" fill-rule="evenodd"/>
</svg>
