<svg height="40" viewBox="0 0 40 40" width="40" xmlns="http://www.w3.org/2000/svg">
    <path d="m30.0072 30.788c4.259-4.304 4.116-11.338 4.021-15.993-.015-.727-.638-1.306-1.345-1.2961276-.727.0151276-1.307.6121276-1.292 1.3401276l.001.01c.085 4.21.214 10.573-3.26 14.084-1.786 1.804-4.338 2.714-7.755 2.724v-.002c-.106.001-.372.008-.375.008-.002 0-.214-.007-.32-.008v.002c-3.418-.01-5.969-.92-7.756-2.724-3.474-3.511-3.344-9.874-3.259-14.084l.001-.01c.014-.728-.564-1.325-1.292-1.3401276-.708-.0098724-1.331.5691276-1.346 1.2961276-.093 4.655-.237 11.689 4.021 15.993 2.094 2.115 5.013 3.273 8.675 3.472v3.103h-6.308c-.729 0-1.319.59-1.319 1.319 0 .728.59 1.318 1.319 1.318h15.223c.728 0 1.318-.59 1.318-1.318 0-.729-.59-1.319-1.318-1.319h-6.309v-3.103c3.663-.199 6.582-1.357 8.675-3.472zm-1.956-10.432c0 4.386-3.555 7.941-7.953 7.941-4.386 0-7.942-3.555-7.942-7.941v-12.409c0-4.392 3.556-7.947 7.942-7.947 4.398 0 7.953 3.555 7.953 7.947z" fill-rule="evenodd"/>
</svg>
