<svg height="40" viewBox="0 0 40 40" width="40" xmlns="http://www.w3.org/2000/svg">
    <path d="m19.9996 0c11.044 0 20 8.956 20 20.001s-8.956 19.998-20 19.998c-11.046 0-20-8.953-20-19.998s8.954-20.001 20-20.001zm0 2.761c-9.522 0-17.243 7.716-17.243 17.24 0 9.521 7.721 17.24 17.243 17.24s17.244-7.719 17.244-17.24c0-9.524-7.722-17.24-17.244-17.24zm8.1333 15.0435c1.205 0 2.182.977 2.182 2.182 0 1.1535652-.8938904 2.0966957-2.0261807 2.1765263l-.1558193.0054737h-16.363c-1.205 0-2.182-.976-2.182-2.182 0-1.1526087.8938904-2.0966125 2.0261807-2.1765209l.1558193-.0054791z" fill-rule="evenodd"/>
</svg>
