<svg height="40" viewBox="0 0 40 40" width="40" xmlns="http://www.w3.org/2000/svg">
    <path d="m30.3779 21.867c-.002-.079-.009-.155-.023-.231-.002-.004-.002-.009-.004-.013-.029-.146-.073-.29-.148-.427l-6.314-11.868c-.198-.357-.505-.692-.89-.692h-1.325l-1.973 1.992-1.99-1.992h-1.327c-.379 0-.693.335-.891.692l-6.313 11.868c-.074.137-.119.283-.148.427 0 .005-.002.009-.002.013-.014.076-.021.152-.023.231-.002.023-.007.044-.007.067 0 .02.005.037.005.058.002.021.004.04.006.062.062.788.708 1.405 1.51 1.405.464 0 .874-.212 1.151-.537.004-.004.007-.008.011-.013.058-.069.112-.142.154-.222.004-.004.004-.006.008-.007l.056-.107c.007-.016.014-.03.024-.046l2.939-5.529.052 21.559c0 .795.643 1.443 1.438 1.443h.169c.794 0 1.437-.648 1.437-1.443v-13.117c.014 0 .028.002.043.002h3.376c.014 0 .028-.002.042-.002v13.117c0 .795.646 1.443 1.437 1.443h.169c.794 0 1.44-.648 1.44-1.443l.052-21.559 2.94 5.529c.007.018.016.032.024.049l.054.104c.002.001.003.003.005.007.045.08.099.155.158.224.004.003.006.007.009.011.278.325.689.537 1.151.537.801 0 1.451-.617 1.512-1.405.002-.022.006-.041.008-.062 0-.021.005-.038.005-.058 0-.023-.007-.044-.007-.067m-6.996-18.174c0 2.04-1.65 3.693-3.692 3.693-2.038 0-3.69-1.653-3.69-3.693 0-2.037 1.652-3.693 3.69-3.693 2.042 0 3.692 1.656 3.692 3.693" fill-rule="evenodd"/>
</svg>
