<svg height="40" viewBox="0 0 40 40" width="40" xmlns="http://www.w3.org/2000/svg">
    <path d="m30.8128 30.1702c-.799.801-4.937 3.71-12.14-1.484-.788-.456-2.04-1.5-3.936-3.4 0-.001-.001-.001-.001-.003-.004-.001-.004-.002-.006-.004 0-.001-.004-.002-.004-.004 0 0-.003-.003-.003-.004-1.896-1.901-2.936-3.154-3.391-3.945-5.181-7.217-2.28-11.367-1.483-12.169.938-.936 3.583-1.069 3.783-.597.184.475 2.547 5.993 2.57 6.488.021.496-1.665 2.186-2.158 2.68-.49.49 3.298 4.78 3.369 4.861.082.072 4.363 3.868 4.849 3.379.493-.496 2.18-2.186 2.674-2.162.495.021 5.946 2.409 6.474 2.572.484.232.339 2.855-.597 3.792m-10.813-30.17c-11.047 0-19.999 8.953-19.999 19.999s8.952 20.001 19.999 20.001c11.043 0 20-8.955 20-20.001s-8.957-19.999-20-19.999" fill-rule="evenodd"/>
</svg>
