<svg height="40" viewBox="0 0 40 40" width="40" xmlns="http://www.w3.org/2000/svg">
    <path d="m37.2436 20.0008c0-9.522-7.722-17.24-17.244-17.24s-17.243 7.718-17.243 17.24c0 9.521 7.721 17.24 17.243 17.24s17.244-7.719 17.244-17.24m2.756.001c0 11.044-8.955 19.997-20 19.997-11.047 0-20-8.953-20-19.997 0-11.046 8.953-20.002 20-20.002 11.045 0 20 8.956 20 20.002m-9.685-.015c0 1.205-.977 2.182-2.182 2.182h-6v5.999c0 1.205-.976 2.182-2.181 2.182-1.206 0-2.183-.977-2.183-2.182v-5.999h-5.999c-1.205 0-2.182-.977-2.182-2.182s.977-2.181 2.182-2.181h5.999v-6.001c0-1.205.977-2.182 2.183-2.182 1.205 0 2.181.977 2.181 2.182v6.001h6c1.205 0 2.182.976 2.182 2.181" fill-rule="evenodd"/>
</svg>
