<svg height="40" viewBox="0 0 40 40" width="40" xmlns="http://www.w3.org/2000/svg">
    <path d="m28.1326 22.1679h-6v5.999c0 1.205-.976 2.182-2.182 2.182-1.205 0-2.182-.977-2.182-2.182v-5.999h-5.999c-1.205 0-2.183-.977-2.183-2.182s.978-2.181 2.183-2.181h5.999v-6c0-1.206.977-2.182 2.182-2.182 1.206 0 2.182.976 2.182 2.182v6h6c1.206 0 2.181.976 2.181 2.181s-.975 2.182-2.181 2.182m-8.133-22.168c-11.046 0-20 8.956-20 20.001s8.954 19.997 20 19.997c11.045 0 20-8.952 20-19.997s-8.955-20.001-20-20.001" fill-rule="evenodd"/>
</svg>
