<svg height="40" viewBox="0 0 40 40" width="40" xmlns="http://www.w3.org/2000/svg">
    <path d="m12.8376 26.1389.342-.187c.387-.209.727-.445 1.011-.701.277-.251.515-.533.71-.842.381-.613.576-1.501.576-2.643 0-.295-.028-.6-.079-.913h-2.56v-3.139h1.719c-.291-1.087-.433-1.956-.433-2.644 0-.898.155-1.72.465-2.444.312-.73.758-1.36 1.328-1.873.562-.508 1.243-.901 2.017-1.169.761-.261 1.608-.393 2.515-.393.823 0 1.599.115 2.309.342.728.233 1.373.576 1.921 1.023.556.453 1.01 1.024 1.349 1.694.332.663.538 1.429.609 2.278l.057.711h-3.75l-.05-.603c-.133-1.576-.901-2.279-2.486-2.279-.388 0-.744.066-1.058.198-.317.134-.578.309-.799.534-.22.23-.388.49-.511.796-.122.305-.182.63-.182.968 0 .758.172 1.719.516 2.861h4.084v3.139h-3.319c.02.155.031.306.031.454 0 1.168-.195 2.162-.581 2.953-.128.267-.288.531-.476.788.228.003.493.025.806.067.311.042.645.094 1.003.16l1.072.196c.367.069.713.135 1.035.198.312.062.59.113.832.153.279.045.405.051.456.051.826 0 1.653-.212 2.457-.63l.959-.499v3.898l-.383.175c-.913.417-1.896.627-2.925.627-.695 0-1.666-.194-2.967-.596-1.15-.359-2.004-.54-2.54-.54-1.248 0-2.642.362-4.143 1.074l-.937.444zm7.162 11.102c-9.522 0-17.242-7.718-17.242-17.241 0-9.521 7.72-17.24 17.242-17.24 9.523 0 17.244 7.719 17.244 17.24 0 9.523-7.721 17.241-17.244 17.241zm0-37.241c-11.047 0-19.999 8.956-19.999 20.001s8.952 19.998 19.999 19.998c11.045 0 20.001-8.953 20.001-19.998s-8.956-20.001-20.001-20.001z" fill-rule="evenodd"/>
</svg>
