<svg height="40" viewBox="0 0 40 40" width="40" xmlns="http://www.w3.org/2000/svg">
    <path d="m26.7322 28.6413-.383.176c-.912.417-1.895.627-2.925.627-.695 0-1.665-.195-2.966-.597-1.15-.358-2.005-.54-2.54-.54-1.249 0-2.643.362-4.144 1.074l-.937.445v-3.688l.343-.186c.387-.208.726-.446 1.01-.702.278-.251.516-.533.71-.842.381-.613.576-1.5.576-2.642 0-.295-.027-.601-.079-.914h-2.56v-3.139h1.72c-.292-1.086-.434-1.956-.434-2.644 0-.898.156-1.72.465-2.443.312-.73.758-1.361 1.328-1.874.563-.507 1.243-.9 2.018-1.168.761-.261 1.607-.394 2.514-.394.824 0 1.6.115 2.31.343.727.232 1.373.575 1.92 1.022.556.454 1.01 1.024 1.349 1.695.333.663.538 1.429.609 2.277l.058.711h-3.75l-.05-.602c-.134-1.576-.901-2.279-2.486-2.279-.388 0-.744.065-1.059.198-.317.133-.577.309-.798.534-.22.229-.388.489-.511.795-.122.305-.183.63-.183.968 0 .758.173 1.719.516 2.861h4.085v3.14h-3.32c.02.155.031.306.031.454 0 1.167-.195 2.161-.581 2.952-.127.268-.288.531-.475.789.228.002.492.024.806.067.31.042.645.093 1.002.16l1.073.196c.367.069.712.135 1.035.197.311.062.589.113.831.153.279.045.406.052.456.052.826 0 1.653-.211 2.457-.629l.959-.499zm-6.732-28.642c-11.047 0-20 8.956-20 20.002 0 11.044 8.953 19.997 20 19.997 11.044 0 20-8.953 20-19.997 0-11.046-8.956-20.002-20-20.002z" fill-rule="evenodd"/>
</svg>
