<svg height="40" viewBox="0 0 40 40" width="40" xmlns="http://www.w3.org/2000/svg">
    <path d="m29.4971 9.9977v-6.732h-8.783-1.45-8.767v6.732zm0 11.001h-19v8.603 7.128h8.767 1.45 8.783v-7.128zm10.5-8.498v14.597c0 1.379-1.121 2.504-2.5 2.504h-5.001v7.895c0 .005-.002.01-.002.018v2.483h-2.48s-.009.002-.018.002h-19.999c-.009 0-.018-.002-.028-.002h-2.486v-2.455c0-.016-.006-.03-.006-.046v-7.895h-5c-1.357 0-2.477-1.125-2.477-2.504v-14.597c0-1.382 1.118-2.503 2.499-2.503h5v-6.732h-.016v-3.266h2.514 9.267 1.45 9.282 2.498v2.482c0 .008.002.013.002.018v7.498h5.001.02c1.357 0 2.48 1.121 2.48 2.503zm-26.628 21.603h13.232v-3.265h-13.232zm0-6.553h13.232v-3.264h-13.232z" fill-rule="evenodd"/>
</svg>
