<svg height="40" viewBox="0 0 40 40" width="40" xmlns="http://www.w3.org/2000/svg">
    <path d="m25.2605 17.417c-.16.446-.377.858-.644 1.232-.267.375-.574.733-.925 1.071-.346.339-.717.696-1.11 1.072-.252.232-.466.437-.642.616-.179.178-.325.362-.443.549-.116.188-.2.402-.253.644-.056.24-.082.53-.082.869v1.018h-3.213v-1.472c0-.393.022-.729.065-1.006.046-.277.125-.526.242-.749.114-.223.268-.437.454-.644.189-.204.417-.449.686-.737l2.061-2.088c.446-.445.67-1.026.67-1.741 0-.696-.228-1.262-.684-1.7-.454-.438-1.03-.657-1.725-.657-.752 0-1.368.255-1.849.765-.482.509-.758 1.127-.832 1.86l-3.427-.268c.106-.857.331-1.619.67-2.29.338-.669.781-1.237 1.324-1.699.545-.465 1.177-.818 1.889-1.059.714-.242 1.5-.361 2.358-.361.804 0 1.549.115 2.236.346.687.234 1.285.568 1.792 1.006.51.439.908.983 1.194 1.633.286.652.428 1.398.428 2.236 0 .59-.08 1.109-.24 1.554m-4.192 12.213c-.42.411-.924.616-1.513.616-.285 0-.559-.055-.819-.161-.258-.106-.487-.249-.681-.429-.195-.177-.352-.391-.468-.641-.117-.25-.174-.519-.174-.805 0-.57.21-1.062.628-1.472.42-.411.924-.617 1.514-.617.57 0 1.07.196 1.499.59.428.394.644.874.644 1.445 0 .574-.21 1.063-.63 1.474m-1.069-29.63c-11.045 0-20 8.954-20 20s8.955 20 20 20c11.047 0 20-8.954 20-20s-8.953-20-20-20" fill-rule="evenodd"/>
</svg>
