<svg height="40" viewBox="0 0 40 40" width="40" xmlns="http://www.w3.org/2000/svg">
    <path d="m17.414 28.21c0-.57.21-1.062.627-1.472.42-.411.924-.617 1.514-.617.57 0 1.07.196 1.5.589.427.395.644.875.644 1.446 0 .574-.211 1.063-.631 1.474-.419.411-.924.615-1.513.615-.285 0-.559-.054-.818-.16s-.488-.249-.681-.429c-.196-.177-.352-.391-.469-.641-.116-.25-.173-.519-.173-.805zm.535-3.722v-1.472c0-.393.022-.729.065-1.006.046-.277.125-.526.241-.749.115-.223.268-.437.454-.644.189-.204.418-.449.686-.737l2.061-2.088c.446-.445.671-1.026.671-1.741 0-.696-.229-1.262-.685-1.7-.454-.438-1.03-.657-1.725-.657-.752 0-1.368.254-1.848.765-.482.509-.759 1.127-.832 1.86l-3.427-.268c.105-.857.33-1.619.669-2.29.339-.669.781-1.237 1.324-1.699.545-.465 1.177-.818 1.889-1.059.715-.242 1.501-.362 2.359-.362.803 0 1.548.116 2.236.347.686.234 1.285.568 1.792 1.006.51.439.908.983 1.194 1.633.285.652.427 1.398.427 2.236 0 .59-.08 1.109-.24 1.554-.16.446-.377.857-.643 1.232-.268.375-.575.733-.926 1.071-.345.339-.716.696-1.109 1.072-.252.232-.466.437-.643.616-.179.178-.325.362-.442.549-.117.188-.2.402-.254.644-.056.24-.081.53-.081.869v1.018zm2.051-24.488c11.046 0 20 8.954 20 20 0 11.045-8.954 20-20 20-11.045 0-20-8.955-20-20 0-11.046 8.955-20 20-20zm0 37.728c9.774 0 17.727-7.954 17.727-17.728s-7.953-17.727-17.727-17.727-17.727 7.953-17.727 17.727 7.953 17.728 17.727 17.728z" fill-rule="evenodd"/>
</svg>
