<svg height="40" viewBox="0 0 40 40" width="40" xmlns="http://www.w3.org/2000/svg">
    <path d="m20.0004 30.2831c-5.681 0-10.287-4.605-10.287-10.285 0-5.679 4.606-10.284 10.287-10.284 5.68 0 10.284 4.605 10.284 10.284 0 5.68-4.604 10.285-10.284 10.285m20-15.088c-.51-2.126-1.347-4.126-2.459-5.939-.648.293-1.36.458-2.115.458-2.84 0-5.142-2.301-5.142-5.141 0-.754.166-1.47.457-2.115-1.811-1.112-3.813-1.948-5.938-2.458-.737 1.937-2.608 3.317-4.803 3.317-2.197 0-4.066-1.38-4.804-3.317-2.127.51-4.126 1.346-5.94 2.458.291.645.457 1.361.457 2.115 0 2.84-2.297 5.141-5.139 5.141-.755 0-1.47-.165-2.116-.458-1.111 1.813-1.95 3.813-2.458 5.939 1.939.737 3.317 2.609 3.317 4.803 0 2.198-1.378 4.066-3.317 4.803.508 2.128 1.347 4.126 2.458 5.941.646-.292 1.361-.459 2.116-.459 2.842 0 5.139 2.302 5.139 5.142 0 .755-.166 1.469-.457 2.114 1.814 1.114 3.813 1.949 5.94 2.458.738-1.937 2.607-3.318 4.804-3.318 2.195 0 4.066 1.381 4.803 3.318 2.125-.509 4.127-1.344 5.938-2.458-.291-.645-.457-1.359-.457-2.114 0-2.84 2.302-5.142 5.142-5.142.755 0 1.467.167 2.115.459 1.112-1.815 1.949-3.813 2.459-5.941-1.94-.737-3.321-2.605-3.321-4.803 0-2.194 1.381-4.066 3.321-4.803" fill-rule="evenodd"/>
</svg>
