<svg height="40" viewBox="0 0 40 40" width="40" xmlns="http://www.w3.org/2000/svg">
    <path d="m32.186 12.65c-1.475.53-1.683.459-.954-.335.536-.565 1.178-1.589 1.178-1.889 0-.052-.26.036-.555.195-.311.176-1.004.44-1.526.598l-.937.3-.849-.581c-.469-.317-1.128-.67-1.474-.776-.884-.247-2.237-.212-3.033.071-2.168.793-3.539 2.841-3.383 5.084l.051.866-.866-.107c-3.157-.407-5.911-1.783-8.253-4.096l-1.144-1.148-.296.848c-.624 1.887-.227 3.884 1.076 5.225.694.741.537.847-.661.405-.415-.14-.779-.246-.815-.193-.121.123.297 1.732.627 2.366.45.885 1.368 1.748 2.377 2.258l.846.408-1.002.018c-.973 0-1.008.017-.904.388.346 1.146 1.716 2.367 3.243 2.897l1.072.369-.934.566c-1.385.813-3.016 1.272-4.648 1.306-.78.018-1.42.088-1.42.141 0 .177 2.115 1.165 3.349 1.553 3.689 1.149 8.076.653 11.373-1.305 2.339-1.396 4.681-4.17 5.774-6.851.589-1.429 1.178-4.044 1.178-5.295 0-.812.051-.92 1.023-1.89.572-.567 1.108-1.184 1.212-1.361.175-.335.158-.335-.725-.035m2.815 27.344h-29.999c-2.762 0-5.002-2.236-5.002-4.997v-30.001c0-2.759 2.24-4.996 5.002-4.996h29.999c2.761 0 4.999 2.237 4.999 4.996v30.001c0 2.761-2.238 4.997-4.999 4.997" fill-rule="evenodd"/>
</svg>
