<svg height="40" viewBox="0 0 40 40" width="40" xmlns="http://www.w3.org/2000/svg">
    <path d="m34.0425 33.6824c3.841-3.799 5.958-8.873 5.958-14.289 0-5.418-2.119-10.492-5.96-14.289l-1.912 1.952c3.317 3.28 5.144 7.662 5.144 12.337s-1.827 9.057-5.143 12.335zm-6.31-6.389c2.125-2.099 3.294-4.904 3.294-7.9 0-2.994-1.169-5.8-3.294-7.901l-1.912 1.954c1.599 1.581 2.479 3.692 2.479 5.947s-.88 4.368-2.479 5.947zm-6.853-25.294v34.786l-10.962-10.468h-7.19c-1.5 0-2.727-1.233-2.727-2.74v-8.369c0-1.508 1.227-2.741 2.727-2.741h7.19z" fill-rule="evenodd"/>
</svg>
