<svg height="40" viewBox="0 0 40 40" width="40" xmlns="http://www.w3.org/2000/svg">
    <path d="m37.2436 20.001c0-9.523-7.722-17.243-17.244-17.243s-17.243 7.72-17.243 17.243c0 9.522 7.721 17.24 17.243 17.24s17.244-7.718 17.244-17.24m2.756 0c0 11.045-8.955 19.999-20 19.999-11.047 0-20-8.954-20-19.999 0-11.047 8.953-20.001 20-20.001 11.045 0 20 8.954 20 20.001m-22.834 8.425c-.549 0-1.079-.208-1.484-.582l-4.876-4.524c-.883-.819-.936-2.2-.116-3.084.82-.882 2.2-.934 3.084-.115l3.272 3.035 9.764-10.58c.817-.886 2.197-.94 3.083-.123.885.817.941 2.197.123 3.082l-11.247 12.188c-.392.426-.939.678-1.518.701-.028.001-.057.002-.085.002" fill-rule="evenodd"/>
</svg>
