<svg height="40" viewBox="0 0 40 40" width="40" xmlns="http://www.w3.org/2000/svg">
    <path d="m30.0161 15.5355-11.247 12.188c-.393.425-.939.678-1.519.7-.028.002-.056.002-.084.002-.549 0-1.08-.207-1.484-.582l-4.876-4.523c-.884-.82-.936-2.2-.117-3.084.82-.884 2.2-.934 3.084-.116l3.273 3.036 9.763-10.58c.818-.886 2.198-.941 3.083-.124.886.817.941 2.197.124 3.083m-10.017-15.535c-11.046 0-19.999 8.954-19.999 20.001 0 11.045 8.953 19.999 19.999 19.999 11.045 0 20.001-8.954 20.001-19.999 0-11.047-8.956-20.001-20.001-20.001" fill-rule="evenodd"/>
</svg>
