<svg height="40" viewBox="0 0 40 40" width="40" xmlns="http://www.w3.org/2000/svg">
    <path d="m33.8312 34.7698c-.794.801-2.082.801-2.878 0-.793-.8-.793-2.099 0-2.898.796-.801 2.084-.801 2.878 0 .795.799.795 2.098 0 2.898zm3.27-2.824-18.077-17.739c1.238-3.482.474-7.526-2.297-10.317-1.911-1.926-4.418-2.89-6.924-2.89-1.005 0-2.008.154-2.973.463l7.566 7.623-6.372 6.417-7.565-7.622c-1.071 3.403-.268 7.274 2.41 9.972 1.912 1.928 4.42 2.89 6.927 2.89 1.121 0 2.243-.192 3.313-.578l18.076 17.74c.4.403.927.604 1.453.604s1.052-.201 1.451-.604l3.012-3.033c.799-.805.799-2.122 0-2.926zm-23.749-9.966-9.621 9.692c-1.396 1.406-1.394 3.684-.001 5.086l.771.778c1.395 1.404 3.655 1.404 5.049.002l9.699-9.773zm12.734-2.419c.376-.668 1.048-1.104 2.051-1.208l-.005-.005c.31-.023.612-.147.848-.387.524-.526.524-1.38 0-1.91l-1.225-1.233 8.74-8.803 1.472-.775 2.033-2.756-1.474-1.484-2.733 2.048-.771 1.485-8.739 8.802-1.223-1.233c-.526-.529-1.376-.529-1.899-.002-.238.238-.362.543-.383.856l-.005-.006c-.108 1.049-.569 1.738-1.275 2.109z" fill-rule="evenodd"/>
</svg>
