
<svg width="80" height="80" viewBox="0 0 80 80" fill="none" xmlns="http://www.w3.org/2000/svg">
<path fill-rule="evenodd" clip-rule="evenodd" d="M16.3517 35.673C16.8319 35.1806 17.6544 35.3088 17.9619 35.924L21.1097 42.2195C21.2504 42.501 21.2504 42.8324 21.1097 43.1139L20.3587 44.6159C20.1491 45.0351 19.6764 45.2525 19.2217 45.1388L15.0329 44.0916C14.7968 44.0326 14.5904 43.8895 14.4522 43.6892L12.4671 40.8113C12.1957 40.4179 12.2406 39.8874 12.5744 39.5453L16.3517 35.673Z" fill="#EEF2F6" stroke="#003078" stroke-width="2" stroke-linecap="round" stroke-linejoin="round"/>
<path fill-rule="evenodd" clip-rule="evenodd" d="M25.7375 73.0498C25.5544 73.7821 26.2177 74.4455 26.9501 74.2624L35.9999 72L61.5558 66.8888C62.1456 66.7709 62.4985 66.1626 62.3083 65.592L61.4417 62.9922C61.3714 62.7812 61.2328 62.5997 61.0477 62.4763L58.3482 60.6766C57.8231 60.3266 57.7495 59.5837 58.1958 59.1375L61.1066 56.2266C61.254 56.0792 61.3516 55.8895 61.3859 55.6839L62.5022 48.9864C62.593 48.4416 62.2249 47.9264 61.6802 47.8356L55.1023 46.7393C54.8247 46.693 54.5795 46.532 54.4268 46.2956L42.8101 28.3171C42.678 28.1127 42.625 27.8672 42.661 27.6266L43.9429 19.0482C43.9796 18.8027 43.9236 18.5523 43.7859 18.3457L41.6301 15.112C41.4446 14.8338 41.1324 14.6667 40.798 14.6667H35.0994C34.3221 14.6667 33.842 13.8187 34.2419 13.1522L36.8426 8.81763C37.1173 8.35991 36.984 7.76718 36.5399 7.47108L34.0705 5.82485C33.6497 5.54432 33.0857 5.62212 32.7566 6.00611L25.4959 14.4768C25.3891 14.6015 25.3146 14.7505 25.279 14.9107L22.7489 26.296C22.6959 26.5348 22.7322 26.7847 22.851 26.9986L28.9906 38.0499C29.196 38.4197 29.6119 38.6202 30.0291 38.5507L35.6949 37.6064C36.4382 37.4825 37.0463 38.1941 36.808 38.909L36.1053 41.0171C36.0369 41.2224 36.0369 41.4443 36.1053 41.6496L38.4129 48.5723C38.5611 49.017 38.3806 49.5049 37.9787 49.746L32.3385 53.1302C32.1209 53.2607 31.9611 53.469 31.8914 53.713L29.6409 61.5897C29.4769 62.1637 29.8492 62.7527 30.4381 62.8508L34.2999 63.4944C35.2552 63.6537 35.4489 64.9421 34.5827 65.3753L27.0779 69.1276C26.8168 69.2582 26.6258 69.4963 26.555 69.7795L25.7375 73.0498Z" fill="#EEF2F6" stroke="#003078" stroke-width="2" stroke-linecap="round" stroke-linejoin="round"/>
<path d="M54 20H40" stroke="#003078" stroke-width="2" stroke-linecap="round"/>
<path d="M61.3333 20H59.3333" stroke="#003078" stroke-width="2" stroke-linecap="round"/>
<path d="M18.6667 66.6667H16" stroke="#003078" stroke-width="2" stroke-linecap="round"/>
<path d="M67.3334 37.3333H63.3334" stroke="#003078" stroke-width="2" stroke-linecap="round"/>
<path d="M14.6666 27.3333H6.66659" stroke="#003078" stroke-width="2" stroke-linecap="round"/>
<path fill-rule="evenodd" clip-rule="evenodd" d="M58.6667 45.3333L69.3333 50.6667V64L61.5346 67.8994L59.1139 69.1097C58.8324 69.2505 58.501 69.2505 58.2195 69.1097L48 64V50.6667L58.6667 45.3333Z" fill="white" stroke="#003078" stroke-width="2" stroke-linecap="round" stroke-linejoin="round"/>
<path d="M69.3333 50.6667L58.6667 56L48 50.6667" stroke="#003078" stroke-width="2" stroke-linecap="round" stroke-linejoin="round"/>
<path d="M58.6667 56V68" stroke="#003078" stroke-width="2" stroke-linecap="round" stroke-linejoin="round"/>
</svg>
