
<svg width="80" height="80" viewBox="0 0 80 80" fill="none" xmlns="http://www.w3.org/2000/svg">
<path fill-rule="evenodd" clip-rule="evenodd" d="M16.3517 35.673C16.8319 35.1806 17.6544 35.3088 17.9619 35.924L21.1097 42.2195C21.2504 42.501 21.2504 42.8324 21.1097 43.1139L20.3587 44.6159C20.1491 45.0351 19.6764 45.2525 19.2217 45.1388L15.0329 44.0916C14.7968 44.0326 14.5904 43.8895 14.4522 43.6892L12.4671 40.8113C12.1957 40.4179 12.2406 39.8874 12.5744 39.5453L16.3517 35.673Z" fill="#EEF2F6" stroke="#003078" stroke-width="2" stroke-linecap="round" stroke-linejoin="round"/>
<path fill-rule="evenodd" clip-rule="evenodd" d="M25.7375 73.0498C25.5544 73.7821 26.2177 74.4455 26.9501 74.2624L35.9999 72L61.5558 66.8888C62.1456 66.7709 62.4985 66.1626 62.3083 65.592L61.4417 62.9922C61.3714 62.7812 61.2328 62.5997 61.0477 62.4763L58.3482 60.6766C57.8231 60.3266 57.7495 59.5837 58.1958 59.1375L61.1066 56.2266C61.254 56.0792 61.3516 55.8895 61.3859 55.6839L62.5022 48.9864C62.593 48.4416 62.2249 47.9264 61.6802 47.8356L55.1023 46.7393C54.8247 46.693 54.5795 46.532 54.4268 46.2956L42.8101 28.3171C42.678 28.1127 42.625 27.8672 42.661 27.6266L43.9429 19.0482C43.9796 18.8027 43.9236 18.5523 43.7859 18.3457L41.6301 15.112C41.4446 14.8338 41.1324 14.6667 40.798 14.6667H35.0994C34.3221 14.6667 33.842 13.8187 34.2419 13.1522L36.8426 8.81763C37.1173 8.35991 36.984 7.76718 36.5399 7.47108L34.0705 5.82485C33.6497 5.54432 33.0857 5.62212 32.7566 6.00611L25.4959 14.4768C25.3891 14.6015 25.3146 14.7505 25.279 14.9107L22.7489 26.296C22.6959 26.5348 22.7322 26.7847 22.851 26.9986L28.9906 38.0499C29.196 38.4197 29.6119 38.6202 30.0291 38.5507L35.6949 37.6064C36.4382 37.4825 37.0463 38.1941 36.808 38.909L36.1053 41.0171C36.0369 41.2224 36.0369 41.4443 36.1053 41.6496L38.4129 48.5723C38.5611 49.017 38.3806 49.5049 37.9787 49.746L32.3385 53.1302C32.1209 53.2607 31.9611 53.469 31.8914 53.713L29.6409 61.5897C29.4769 62.1637 29.8492 62.7527 30.4381 62.8508L34.2999 63.4944C35.2552 63.6537 35.4489 64.9421 34.5827 65.3753L27.0779 69.1276C26.8168 69.2582 26.6258 69.4963 26.555 69.7795L25.7375 73.0498Z" fill="#EEF2F6"/>
<path d="M54 20H40" stroke="#003078" stroke-width="2" stroke-linecap="round"/>
<path d="M61.3333 20H59.3333" stroke="#003078" stroke-width="2" stroke-linecap="round"/>
<path d="M69.3333 37.3333H57.3333" stroke="#003078" stroke-width="2" stroke-linecap="round"/>
<path d="M72.0001 57.3333H70.6667" stroke="#003078" stroke-width="2" stroke-linecap="round"/>
<path d="M14.6667 26.6667H6.66675" stroke="#003078" stroke-width="2" stroke-linecap="round"/>
<path d="M10.6667 32L16.0001 26.6667L10.6667 21.3333" stroke="#003078" stroke-width="2" stroke-linecap="round" stroke-linejoin="round"/>
<path d="M64 42.6667L69.3333 37.3333L64 32" stroke="#003078" stroke-width="2" stroke-linecap="round" stroke-linejoin="round"/>
<path d="M45.3333 25.3333L39.9999 20L45.3333 14.6667" stroke="#003078" stroke-width="2" stroke-linecap="round" stroke-linejoin="round"/>
<path d="M28.6667 64H14.6667" stroke="#003078" stroke-width="2" stroke-linecap="round"/>
<path d="M36 64H34" stroke="#003078" stroke-width="2" stroke-linecap="round"/>
<path d="M20 69.3333L14.6667 64L20 58.6667" stroke="#003078" stroke-width="2" stroke-linecap="round" stroke-linejoin="round"/>
<mask id="path-14-inside-1_2831_11668" fill="white">
<path fill-rule="evenodd" clip-rule="evenodd" d="M31.8051 5.57959C32.5731 4.68361 33.8891 4.50207 34.871 5.15665L36.8301 6.46274C37.8664 7.15362 38.1774 8.53666 37.5366 9.60468L35.4023 13.1618C35.3712 13.2136 35.3548 13.2729 35.3548 13.3333C35.3548 13.5174 35.5041 13.6667 35.6881 13.6667C36.2404 13.6667 36.6881 14.1144 36.6881 14.6667C36.6881 15.219 36.2404 15.6667 35.6881 15.6667C34.3995 15.6667 33.3548 14.622 33.3548 13.3333C33.3548 12.9104 33.4698 12.4955 33.6873 12.1328L35.8216 8.57569C35.9132 8.42311 35.8687 8.22553 35.7207 8.12684L33.7616 6.82075C33.6213 6.72724 33.4333 6.75318 33.3236 6.88117L26.3094 15.0644C26.2738 15.1059 26.249 15.1556 26.2371 15.209L23.7526 26.3894C23.7349 26.469 23.747 26.5523 23.7866 26.6236L29.7505 37.3587C29.819 37.482 29.9576 37.5488 30.0967 37.5256L35.0893 36.6935C36.3256 36.4875 37.4948 37.3226 37.7008 38.5589C37.7617 38.924 37.7323 39.2984 37.6152 39.6496L37.0891 41.2279C37.0663 41.2964 37.0663 41.3703 37.0891 41.4387L39.277 48.0024C39.6229 49.0399 39.2017 50.1784 38.2639 50.7411L32.9658 53.92C32.8933 53.9635 32.84 54.0329 32.8168 54.1142L32.1774 56.3521L31.7207 57.9506C31.569 58.4816 31.0155 58.7891 30.4845 58.6374C29.9534 58.4856 29.6459 57.9322 29.7977 57.4011L30.2544 55.8027L30.8937 53.5648C31.0564 52.9956 31.4292 52.5095 31.9368 52.205L37.2349 49.0261C37.3689 48.9458 37.4291 48.7831 37.3797 48.6349L35.1918 42.0712C35.0321 41.5922 35.0321 41.0744 35.1918 40.5955L35.7179 39.0171C35.7318 38.9754 35.7353 38.931 35.728 38.8877C35.7036 38.741 35.5648 38.6419 35.4181 38.6663L30.4255 39.4984C29.4519 39.6607 28.4816 39.1928 28.0022 38.33L22.0383 27.5949C21.7611 27.0959 21.6764 26.5127 21.8002 25.9555L24.2847 14.7751C24.3678 14.4013 24.5417 14.0536 24.7909 13.7628L31.8051 5.57959ZM44.711 31.2591C45.1749 30.9594 45.7939 31.0924 46.0937 31.5563L49.8825 37.42L55.1868 45.6292C55.2377 45.708 55.3195 45.7617 55.412 45.7771L61.5158 46.7944C62.7869 47.0063 63.6456 48.2085 63.4338 49.4796L62.3899 55.7429C62.3099 56.2226 62.0821 56.6654 61.7382 57.0093L59.1904 59.5571C59.1749 59.5726 59.1609 59.5896 59.1487 59.6079C59.0466 59.7611 59.088 59.968 59.2412 60.0701L61.5073 61.5809C61.939 61.8687 62.2625 62.2922 62.4266 62.7844L63.1376 64.9176C63.1682 65.0093 63.1931 65.1029 63.212 65.1978C63.4648 66.4615 62.6453 67.6907 61.3816 67.9435L36.2271 72.9744C36.222 72.9754 36.2168 72.9766 36.2116 72.9778L27.7316 75.0978C27.3601 75.1907 26.9714 75.1907 26.5998 75.0978C25.3496 74.7853 24.5895 73.5185 24.9021 72.2683L25.5477 69.6857C25.6816 69.1499 26.2246 68.8242 26.7604 68.9581C27.2962 69.0921 27.6219 69.635 27.488 70.1708L26.8423 72.7533C26.7977 72.9319 26.9063 73.1129 27.0849 73.1576C27.138 73.1708 27.1935 73.1708 27.2466 73.1576L35.7266 71.0376C35.7625 71.0286 35.7986 71.0205 35.8349 71.0132L60.9894 65.9823C61.1699 65.9462 61.287 65.7706 61.2509 65.5901C61.2482 65.5765 61.2446 65.5632 61.2402 65.55L60.5292 63.4169C60.5058 63.3466 60.4596 63.2861 60.3979 63.245L58.1318 61.7342C57.0595 61.0194 56.7698 59.5707 57.4846 58.4985C57.5699 58.3706 57.6675 58.2515 57.7762 58.1429L60.324 55.595C60.3731 55.5459 60.4057 55.4827 60.4171 55.4141L61.461 49.1508C61.4912 48.9692 61.3686 48.7975 61.187 48.7672L55.0832 47.7499C54.4355 47.642 53.8633 47.2661 53.507 46.7146L48.2026 38.5054L44.4138 32.6417C44.1141 32.1779 44.2471 31.5588 44.711 31.2591Z"/>
</mask>
<path d="M34.871 5.15665L35.4257 4.3246L35.4257 4.3246L34.871 5.15665ZM31.8051 5.57959L32.5643 6.23038L32.5643 6.23038L31.8051 5.57959ZM36.8301 6.46274L36.2754 7.29479V7.29479L36.8301 6.46274ZM37.5366 9.60468L36.6791 9.09018V9.09018L37.5366 9.60468ZM35.4023 13.1618L34.5448 12.6473L34.5448 12.6473L35.4023 13.1618ZM33.6873 12.1328L34.5448 12.6473L34.5448 12.6473L33.6873 12.1328ZM35.8216 8.57569L34.9641 8.06119V8.06119L35.8216 8.57569ZM35.7207 8.12684L35.166 8.95889V8.95889L35.7207 8.12684ZM33.7616 6.82075L33.2069 7.6528L33.2069 7.6528L33.7616 6.82075ZM33.3236 6.88117L32.5643 6.23038V6.23038L33.3236 6.88117ZM26.3094 15.0644L27.0687 15.7152L27.0687 15.7152L26.3094 15.0644ZM26.2371 15.209L27.2133 15.4259L27.2133 15.4259L26.2371 15.209ZM23.7526 26.3894L24.7288 26.6063L23.7526 26.3894ZM23.7866 26.6236L22.9124 27.1092L22.9124 27.1092L23.7866 26.6236ZM29.7505 37.3587L28.8764 37.8444H28.8764L29.7505 37.3587ZM30.0967 37.5256L30.2611 38.512H30.2611L30.0967 37.5256ZM35.0893 36.6935L35.2537 37.6799L35.0893 36.6935ZM37.7008 38.5589L38.6872 38.3945V38.3945L37.7008 38.5589ZM37.6152 39.6496L36.6666 39.3333V39.3333L37.6152 39.6496ZM37.0891 41.2279L36.1404 40.9117L36.1404 40.9117L37.0891 41.2279ZM37.0891 41.4387L38.0378 41.1225L38.0378 41.1225L37.0891 41.4387ZM39.277 48.0024L40.2257 47.6862L40.2257 47.6862L39.277 48.0024ZM38.2639 50.7411L38.7784 51.5986H38.7784L38.2639 50.7411ZM32.9658 53.92L33.4803 54.7775L33.4803 54.7775L32.9658 53.92ZM32.8168 54.1142L33.7783 54.389L32.8168 54.1142ZM32.1774 56.3521L31.2159 56.0774L32.1774 56.3521ZM31.7207 57.9506L30.7592 57.6758L31.7207 57.9506ZM30.4845 58.6374L30.7592 57.6758L30.7592 57.6758L30.4845 58.6374ZM29.7977 57.4011L28.8361 57.1264L29.7977 57.4011ZM30.2544 55.8027L31.2159 56.0774L30.2544 55.8027ZM30.8937 53.5648L31.8553 53.8395V53.8395L30.8937 53.5648ZM31.9368 52.205L31.4223 51.3475H31.4223L31.9368 52.205ZM37.2349 49.0261L36.7204 48.1686L36.7204 48.1686L37.2349 49.0261ZM37.3797 48.6349L38.3283 48.3187V48.3187L37.3797 48.6349ZM35.1918 42.0712L34.2431 42.3874L34.2431 42.3874L35.1918 42.0712ZM35.1918 40.5955L36.1404 40.9117L36.1404 40.9117L35.1918 40.5955ZM35.7179 39.0171L36.6666 39.3333L36.6666 39.3333L35.7179 39.0171ZM35.728 38.8877L36.7144 38.7233L36.7144 38.7233L35.728 38.8877ZM35.4181 38.6663L35.5825 39.6527L35.5825 39.6527L35.4181 38.6663ZM30.4255 39.4984L30.2611 38.512H30.2611L30.4255 39.4984ZM28.0022 38.33L28.8764 37.8444L28.0022 38.33ZM22.0383 27.5949L22.9124 27.1092H22.9124L22.0383 27.5949ZM21.8002 25.9555L22.7764 26.1725L21.8002 25.9555ZM24.2847 14.7751L25.2609 14.9921L24.2847 14.7751ZM24.7909 13.7628L25.5502 14.4136H25.5502L24.7909 13.7628ZM46.0937 31.5563L45.2537 32.099L46.0937 31.5563ZM49.8825 37.42L50.7224 36.8773L49.8825 37.42ZM55.1868 45.6292L56.0267 45.0865L56.0267 45.0865L55.1868 45.6292ZM55.412 45.7771L55.2476 46.7635H55.2476L55.412 45.7771ZM61.5158 46.7944L61.6802 45.808L61.5158 46.7944ZM63.4338 49.4796L62.4474 49.3152V49.3152L63.4338 49.4796ZM62.3899 55.7429L63.3763 55.9073V55.9073L62.3899 55.7429ZM59.1904 59.5571L58.4833 58.85L58.4832 58.85L59.1904 59.5571ZM59.1487 59.6079L58.3167 59.0531L58.3167 59.0532L59.1487 59.6079ZM59.2412 60.0701L58.6865 60.9022H58.6865L59.2412 60.0701ZM61.5073 61.5809L60.9526 62.4129L61.5073 61.5809ZM62.4266 62.7844L61.4779 63.1007V63.1007L62.4266 62.7844ZM63.1376 64.9176L64.0863 64.6013L63.1376 64.9176ZM63.212 65.1978L64.1926 65.0017L63.212 65.1978ZM61.3816 67.9435L61.1855 66.9629L61.3816 67.9435ZM36.2271 72.9744L36.423 73.955L36.4232 73.9549L36.2271 72.9744ZM36.2116 72.9778L35.9692 72.0077L35.9691 72.0077L36.2116 72.9778ZM27.7316 75.0978L27.4891 74.1277H27.4891L27.7316 75.0978ZM26.5998 75.0978L26.8423 74.1277H26.8423L26.5998 75.0978ZM24.9021 72.2683L25.8722 72.5108L24.9021 72.2683ZM25.5477 69.6857L26.5178 69.9283L25.5477 69.6857ZM26.7604 68.9581L27.0029 67.988L26.7604 68.9581ZM27.488 70.1708L26.5178 69.9283L27.488 70.1708ZM26.8423 72.7533L27.8125 72.9959L27.8125 72.9959L26.8423 72.7533ZM27.0849 73.1576L27.3274 72.1874L27.3274 72.1874L27.0849 73.1576ZM27.2466 73.1576L27.004 72.1874H27.004L27.2466 73.1576ZM35.7266 71.0376L35.4841 70.0674L35.484 70.0674L35.7266 71.0376ZM35.8349 71.0132L35.6388 70.0326L35.6387 70.0326L35.8349 71.0132ZM60.9894 65.9823L61.1855 66.9629L61.1855 66.9629L60.9894 65.9823ZM61.2509 65.5901L62.2315 65.394L62.2314 65.3938L61.2509 65.5901ZM61.2402 65.55L60.2916 65.8663L60.2916 65.8664L61.2402 65.55ZM60.5292 63.4169L59.5805 63.7331V63.7331L60.5292 63.4169ZM60.3979 63.245L60.9526 62.4129L60.3979 63.245ZM58.1318 61.7342L57.5771 62.5663L58.1318 61.7342ZM57.4846 58.4985L58.3167 59.0532L58.3167 59.0532L57.4846 58.4985ZM57.7762 58.1429L57.0691 57.4358L57.7762 58.1429ZM60.324 55.595L61.0311 56.3021L61.0311 56.3021L60.324 55.595ZM60.4171 55.4141L59.4307 55.2497L60.4171 55.4141ZM61.461 49.1508L62.4474 49.3152L62.4474 49.3152L61.461 49.1508ZM61.187 48.7672L61.0226 49.7536H61.0226L61.187 48.7672ZM55.0832 47.7499L54.9188 48.7363L55.0832 47.7499ZM53.507 46.7146L52.667 47.2574L53.507 46.7146ZM48.2026 38.5054L49.0425 37.9627L48.2026 38.5054ZM44.4138 32.6417L43.5739 33.1844V33.1844L44.4138 32.6417ZM35.4257 4.3246C34.023 3.38948 32.1429 3.64883 31.0458 4.9288L32.5643 6.23038C33.0032 5.7184 33.7552 5.61465 34.3163 5.9887L35.4257 4.3246ZM37.3848 5.63069L35.4257 4.3246L34.3163 5.9887L36.2754 7.29479L37.3848 5.63069ZM38.3941 10.1192C39.3096 8.59343 38.8653 6.61767 37.3848 5.63069L36.2754 7.29479C36.8676 7.68958 37.0453 8.47988 36.6791 9.09018L38.3941 10.1192ZM36.2598 13.6763L38.3941 10.1192L36.6791 9.09018L34.5448 12.6473L36.2598 13.6763ZM36.3548 13.3333C36.3548 13.4542 36.322 13.5727 36.2598 13.6763L34.5448 12.6473C34.4205 12.8546 34.3548 13.0917 34.3548 13.3333H36.3548ZM35.6881 12.6667C36.0563 12.6667 36.3548 12.9651 36.3548 13.3333H34.3548C34.3548 14.0697 34.9518 14.6667 35.6881 14.6667V12.6667ZM37.6881 14.6667C37.6881 13.5621 36.7927 12.6667 35.6881 12.6667V14.6667H37.6881ZM35.6881 16.6667C36.7927 16.6667 37.6881 15.7712 37.6881 14.6667H35.6881V16.6667ZM32.3548 13.3333C32.3548 15.1743 33.8472 16.6667 35.6881 16.6667V14.6667C34.9518 14.6667 34.3548 14.0697 34.3548 13.3333H32.3548ZM32.8298 11.6184C32.519 12.1364 32.3548 12.7292 32.3548 13.3333H34.3548C34.3548 13.0917 34.4205 12.8546 34.5448 12.6473L32.8298 11.6184ZM34.9641 8.06119L32.8298 11.6184L34.5448 12.6473L36.6791 9.09018L34.9641 8.06119ZM35.166 8.95889C34.8699 8.76149 34.781 8.36634 34.9641 8.06119L36.6791 9.09018C37.0453 8.47989 36.8676 7.68958 36.2754 7.29479L35.166 8.95889ZM33.2069 7.6528L35.166 8.95889L36.2754 7.29479L34.3163 5.9887L33.2069 7.6528ZM34.0828 7.53197C33.8634 7.78796 33.4874 7.83983 33.2069 7.6528L34.3163 5.9887C33.7552 5.61465 33.0032 5.7184 32.5643 6.23038L34.0828 7.53197ZM27.0687 15.7152L34.0828 7.53197L32.5643 6.23038L25.5502 14.4136L27.0687 15.7152ZM27.2133 15.4259C27.1896 15.5328 27.1399 15.6321 27.0687 15.7152L25.5502 14.4136C25.4077 14.5798 25.3084 14.7784 25.2609 14.9921L27.2133 15.4259ZM24.7288 26.6063L27.2133 15.4259L25.2609 14.9921L22.7764 26.1725L24.7288 26.6063ZM24.6607 26.1379C24.7399 26.2805 24.7641 26.4471 24.7288 26.6063L22.7764 26.1725C22.7056 26.4909 22.754 26.8241 22.9124 27.1092L24.6607 26.1379ZM30.6247 36.8731L24.6607 26.1379L22.9124 27.1092L28.8764 37.8444L30.6247 36.8731ZM29.9323 36.5392C30.2105 36.4929 30.4877 36.6266 30.6247 36.8731L28.8764 37.8444C29.1503 38.3374 29.7048 38.6047 30.2611 38.512L29.9323 36.5392ZM34.9249 35.7071L29.9323 36.5392L30.2611 38.512L35.2537 37.6799L34.9249 35.7071ZM38.6872 38.3945C38.3904 36.6135 36.7059 35.4103 34.9249 35.7071L35.2537 37.6799C35.9452 37.5647 36.5992 38.0318 36.7144 38.7233L38.6872 38.3945ZM38.5639 39.9658C38.7326 39.4599 38.7749 38.9205 38.6872 38.3945L36.7144 38.7233C36.7485 38.9275 36.732 39.1369 36.6666 39.3333L38.5639 39.9658ZM38.0378 41.5442L38.5639 39.9658L36.6666 39.3333L36.1404 40.9117L38.0378 41.5442ZM38.0378 41.1225C38.0834 41.2594 38.0834 41.4073 38.0378 41.5441L36.1404 40.9117C36.0492 41.1854 36.0492 41.4813 36.1404 41.755L38.0378 41.1225ZM40.2257 47.6862L38.0378 41.1225L36.1404 41.755L38.3283 48.3187L40.2257 47.6862ZM38.7784 51.5986C40.1181 50.7948 40.7198 49.1684 40.2257 47.6862L38.3283 48.3187C38.526 48.9115 38.2853 49.5621 37.7494 49.8836L38.7784 51.5986ZM33.4803 54.7775L38.7784 51.5986L37.7494 49.8836L32.4513 53.0625L33.4803 54.7775ZM33.7783 54.389C33.7319 54.5516 33.6253 54.6905 33.4803 54.7775L32.4513 53.0625C32.1613 53.2365 31.9482 53.5143 31.8553 53.8395L33.7783 54.389ZM33.1389 56.6268L33.7783 54.389L31.8553 53.8395L31.2159 56.0774L33.1389 56.6268ZM32.6822 58.2253L33.1389 56.6268L31.2159 56.0774L30.7592 57.6758L32.6822 58.2253ZM30.2097 59.5989C31.2718 59.9023 32.3788 59.2874 32.6822 58.2253L30.7592 57.6758H30.7592L30.2097 59.5989ZM28.8361 57.1264C28.5327 58.1885 29.1477 59.2954 30.2097 59.5989L30.7592 57.6758L30.7592 57.6758L28.8361 57.1264ZM29.2928 55.5279L28.8361 57.1264L30.7592 57.6758L31.2159 56.0774L29.2928 55.5279ZM29.9322 53.2901L29.2928 55.5279L31.2159 56.0774L31.8553 53.8395L29.9322 53.2901ZM31.4223 51.3475C30.6972 51.7826 30.1645 52.477 29.9322 53.2901L31.8553 53.8395C31.9482 53.5143 32.1613 53.2365 32.4513 53.0625L31.4223 51.3475ZM36.7204 48.1686L31.4223 51.3475L32.4513 53.0625L37.7494 49.8836L36.7204 48.1686ZM36.431 48.9511C36.3322 48.6547 36.4525 48.3294 36.7204 48.1686L37.7494 49.8836C38.2853 49.5621 38.526 48.9115 38.3283 48.3187L36.431 48.9511ZM34.2431 42.3874L36.431 48.9511L38.3283 48.3187L36.1404 41.755L34.2431 42.3874ZM34.2431 40.2792C34.015 40.9635 34.015 41.7032 34.2431 42.3874L36.1404 41.755C36.0492 41.4813 36.0492 41.1854 36.1404 40.9117L34.2431 40.2792ZM34.7692 38.7009L34.2431 40.2792L36.1404 40.9117L36.6666 39.3333L34.7692 38.7009ZM34.7416 39.0521C34.722 38.9345 34.7315 38.8139 34.7692 38.7009L36.6666 39.3333C36.732 39.1369 36.7485 38.9275 36.7144 38.7233L34.7416 39.0521ZM35.5825 39.6527C35.1845 39.7191 34.808 39.4501 34.7416 39.0521L36.7144 38.7233C36.5992 38.0318 35.9452 37.5647 35.2537 37.6799L35.5825 39.6527ZM30.5899 40.4848L35.5825 39.6527L35.2537 37.6799L30.2611 38.512L30.5899 40.4848ZM27.1281 38.8156C27.8128 40.0482 29.1991 40.7166 30.5899 40.4848L30.2611 38.512C29.7048 38.6047 29.1503 38.3374 28.8764 37.8444L27.1281 38.8156ZM21.1641 28.0805L27.1281 38.8156L28.8764 37.8444L22.9124 27.1092L21.1641 28.0805ZM20.824 25.7386C20.6471 26.5346 20.7681 27.3677 21.1641 28.0805L22.9124 27.1092C22.754 26.8241 22.7056 26.4908 22.7764 26.1725L20.824 25.7386ZM23.3085 14.5582L20.824 25.7386L22.7764 26.1725L25.2609 14.9921L23.3085 14.5582ZM24.0316 13.112C23.6756 13.5274 23.4272 14.0241 23.3085 14.5582L25.2609 14.9921C25.3084 14.7784 25.4077 14.5798 25.5502 14.4136L24.0316 13.112ZM31.0458 4.9288L24.0316 13.112L25.5502 14.4136L32.5643 6.23038L31.0458 4.9288ZM46.9336 31.0136C46.3341 30.0859 45.0961 29.8197 44.1683 30.4192L45.2537 32.099L46.9336 31.0136ZM50.7224 36.8773L46.9336 31.0136L45.2537 32.099L49.0425 37.9627L50.7224 36.8773ZM56.0267 45.0865L50.7224 36.8773L49.0425 37.9627L54.3469 46.1719L56.0267 45.0865ZM55.5764 44.7907C55.7614 44.8216 55.9249 44.9289 56.0267 45.0865L54.3469 46.1719C54.5505 46.4871 54.8775 46.7018 55.2476 46.7635L55.5764 44.7907ZM61.6802 45.808L55.5764 44.7907L55.2476 46.7635L61.3514 47.7808L61.6802 45.808ZM64.4201 49.644C64.7228 47.8281 63.4961 46.1107 61.6802 45.808L61.3514 47.7808C62.0777 47.9019 62.5684 48.5888 62.4474 49.3152L64.4201 49.644ZM63.3763 55.9073L64.4201 49.644L62.4474 49.3152L61.4035 55.5785L63.3763 55.9073ZM62.4453 57.7164C62.9366 57.2251 63.262 56.5926 63.3763 55.9073L61.4035 55.5785C61.3578 55.8526 61.2276 56.1056 61.0311 56.3021L62.4453 57.7164ZM59.8975 60.2642L62.4453 57.7164L61.0311 56.3021L58.4833 58.85L59.8975 60.2642ZM59.9808 60.1626C59.9564 60.1991 59.9286 60.2331 59.8975 60.2641L58.4832 58.85C58.4212 58.9121 58.3654 58.9801 58.3167 59.0531L59.9808 60.1626ZM59.7959 59.2381C60.1022 59.4423 60.185 59.8562 59.9808 60.1626L58.3167 59.0532C57.9082 59.6659 58.0738 60.4937 58.6865 60.9022L59.7959 59.2381ZM62.062 60.7488L59.7959 59.2381L58.6865 60.9022L60.9526 62.4129L62.062 60.7488ZM63.3753 62.4682C63.1409 61.765 62.6787 61.16 62.062 60.7488L60.9526 62.4129C61.1993 62.5774 61.3841 62.8194 61.4779 63.1007L63.3753 62.4682ZM64.0863 64.6013L63.3753 62.4682L61.4779 63.1007L62.1889 65.2338L64.0863 64.6013ZM64.1926 65.0017C64.1655 64.8662 64.13 64.7324 64.0863 64.6013L62.1889 65.2338C62.2064 65.2863 62.2206 65.3397 62.2315 65.394L64.1926 65.0017ZM61.5777 68.924C63.3829 68.563 64.5537 66.8069 64.1926 65.0017L62.2315 65.394C62.3759 66.116 61.9076 66.8185 61.1855 66.9629L61.5777 68.924ZM36.4232 73.9549L61.5777 68.924L61.1855 66.9629L36.031 71.9938L36.4232 73.9549ZM36.4541 73.948C36.444 73.9505 36.4336 73.9529 36.423 73.955L36.0312 71.9937C36.0103 71.9979 35.9896 72.0026 35.9692 72.0077L36.4541 73.948ZM27.9742 76.068L36.4542 73.948L35.9691 72.0077L27.4891 74.1277L27.9742 76.068ZM26.3573 76.068C26.8881 76.2007 27.4434 76.2007 27.9742 76.068L27.4891 74.1277C27.2768 74.1808 27.0547 74.1808 26.8423 74.1277L26.3573 76.068ZM23.9319 72.0257C23.4854 73.8117 24.5713 75.6215 26.3573 76.068L26.8423 74.1277C26.1279 73.9491 25.6936 73.2252 25.8722 72.5108L23.9319 72.0257ZM24.5775 69.4432L23.9319 72.0257L25.8722 72.5108L26.5178 69.9283L24.5775 69.4432ZM27.0029 67.988C25.9313 67.7201 24.8454 68.3716 24.5775 69.4432L26.5178 69.9283H26.5178L27.0029 67.988ZM28.4581 70.4133C28.726 69.3418 28.0745 68.2559 27.0029 67.988L26.5178 69.9283H26.5178L28.4581 70.4133ZM27.8125 72.9959L28.4581 70.4133L26.5178 69.9283L25.8722 72.5108L27.8125 72.9959ZM27.3274 72.1874C27.6846 72.2767 27.9018 72.6387 27.8125 72.9959L25.8722 72.5108C25.6936 73.2252 26.1279 73.9491 26.8423 74.1277L27.3274 72.1874ZM27.004 72.1874C27.1102 72.1609 27.2213 72.1609 27.3274 72.1874L26.8423 74.1277C27.0546 74.1808 27.2768 74.1808 27.4891 74.1277L27.004 72.1874ZM35.484 70.0674L27.004 72.1874L27.4891 74.1277L35.9691 72.0077L35.484 70.0674ZM35.6387 70.0326C35.5869 70.043 35.5353 70.0546 35.4841 70.0674L35.9691 72.0077C35.9896 72.0026 36.0103 71.9979 36.0311 71.9938L35.6387 70.0326ZM60.7933 65.0017L35.6388 70.0326L36.031 71.9938L61.1855 66.9629L60.7933 65.0017ZM60.2703 65.7862C60.1981 65.4252 60.4322 65.0739 60.7933 65.0017L61.1855 66.9629C61.9076 66.8185 62.3759 66.116 62.2315 65.394L60.2703 65.7862ZM60.2916 65.8664C60.2828 65.84 60.2757 65.8133 60.2703 65.7863L62.2314 65.3938C62.2206 65.3398 62.2064 65.2863 62.1889 65.2336L60.2916 65.8664ZM59.5805 63.7331L60.2916 65.8663L62.1889 65.2338L61.4779 63.1007L59.5805 63.7331ZM59.8432 64.077C59.7198 63.9948 59.6274 63.8738 59.5805 63.7331L61.4779 63.1007C61.3841 62.8194 61.1993 62.5774 60.9526 62.4129L59.8432 64.077ZM57.5771 62.5663L59.8432 64.077L60.9526 62.4129L58.6865 60.9022L57.5771 62.5663ZM56.6526 57.9438C55.6314 59.4755 56.0453 61.5451 57.5771 62.5663L58.6865 60.9022C58.0738 60.4937 57.9082 59.6659 58.3167 59.0532L56.6526 57.9438ZM57.0691 57.4358C56.9138 57.591 56.7743 57.7611 56.6526 57.9438L58.3167 59.0532C58.3654 58.9801 58.4212 58.9121 58.4833 58.85L57.0691 57.4358ZM59.6169 54.8879L57.0691 57.4358L58.4833 58.85L61.0311 56.3021L59.6169 54.8879ZM59.4307 55.2497C59.4535 55.1127 59.5186 54.9862 59.6169 54.8879L61.0311 56.3021C61.2276 56.1056 61.3578 55.8526 61.4035 55.5785L59.4307 55.2497ZM60.4746 48.9864L59.4307 55.2497L61.4035 55.5785L62.4474 49.3152L60.4746 48.9864ZM61.0226 49.7536C60.6594 49.6931 60.4141 49.3496 60.4746 48.9864L62.4474 49.3152C62.5684 48.5888 62.0777 47.9019 61.3514 47.7808L61.0226 49.7536ZM54.9188 48.7363L61.0226 49.7536L61.3514 47.7808L55.2476 46.7635L54.9188 48.7363ZM52.667 47.2574C53.1761 48.0452 53.9935 48.5821 54.9188 48.7363L55.2476 46.7635C54.8775 46.7018 54.5505 46.4871 54.3469 46.1719L52.667 47.2574ZM47.3627 39.0482L52.667 47.2574L54.3469 46.1719L49.0425 37.9627L47.3627 39.0482ZM43.5739 33.1844L47.3627 39.0482L49.0425 37.9627L45.2537 32.099L43.5739 33.1844ZM44.1683 30.4192C43.2406 31.0187 42.9744 32.2567 43.5739 33.1844L45.2537 32.099V32.099L44.1683 30.4192Z" fill="#003078" mask="url(#path-14-inside-1_2831_11668)"/>
</svg>
