<svg xmlns="http://www.w3.org/2000/svg" viewBox="0 0 216.84 212.8"><defs><style>.cls-1{fill:#241f46;}.cls-1,.cls-2{fill-rule:evenodd;}.cls-2{fill:#232045;}.cls-3{fill:#b00d23;}.cls-4{fill:#af1925;}.cls-5{fill:#af1a26;}</style></defs><title>FAB-impression</title><g id="Layer_2" data-name="Layer 2"><g id="select_and_apply" data-name="select and apply"><path class="cls-1" d="M74.05,73.75h69V93.37h6.27V67.82a2.64,2.64,0,0,0-2.77-2.48H98.47l-3.9-5.8a2.86,2.86,0,0,0-2.38-1.21H70.54a2.64,2.64,0,0,0-2.77,2.48V93.37h6.28Z"/><path class="cls-1" d="M155.08,96a2.09,2.09,0,0,0-1.51-.62h-90A2.12,2.12,0,0,0,62,96a1.64,1.64,0,0,0-.46,1.43l7.71,42.69a1.93,1.93,0,0,0,2,1.51h74.58a1.93,1.93,0,0,0,2-1.51l7.71-42.69a1.66,1.66,0,0,0-.46-1.43"/><path class="cls-2" d="M216.84,109.5A108.46,108.46,0,0,0,109.63,0C49.83-.65.67,47.38,0,107.08A108.28,108.28,0,0,0,72.08,210.32a3.86,3.86,0,0,0,2.59-7.27A100.6,100.6,0,0,1,7.74,107.16C8.35,51.72,54,7.12,109.54,7.73A100.72,100.72,0,0,1,209.1,109.38a99.62,99.62,0,0,1-48.73,85.08l.28-6.34c0-2.47-1-3.26-1.59-3.55s-2-.47-3.94,1.35l-21.07,19.74a4.64,4.64,0,0,0-1.7,3.09c0,.61.25,2.6,3.87,2.76l28.87,1.28a4.59,4.59,0,0,0,3.36-.9c1.13-1.08.85-2.83-.82-4.63l-5-5.24a107.13,107.13,0,0,0,54.16-92.53"/><rect class="cls-3" x="78.62" y="81.17" width="59.61" height="4.2"/><rect class="cls-4" x="80.18" y="75.86" width="56.48" height="4.21"/><rect class="cls-5" x="78.42" y="86.78" width="60.29" height="5.2"/></g></g></svg>