<svg xmlns="http://www.w3.org/2000/svg" xmlns:xlink="http://www.w3.org/1999/xlink" viewBox="0 0 212 212"><defs><style>.cls-1,.cls-2,.cls-4{fill:#1e1348;}.cls-1{clip-rule:evenodd;}.cls-3{fill:#b00d23;}.cls-4{fill-rule:evenodd;}.cls-5{clip-path:url(#clip-path);}.cls-6{clip-path:url(#clip-path-2);}</style><clipPath id="clip-path"><path class="cls-1" d="M131.69,74V60a2.18,2.18,0,0,0-2.18-2.17H85.87a2.2,2.2,0,0,0-1.54.63L62.5,80.12a2.16,2.16,0,0,0-.64,1.53v65A2.18,2.18,0,0,0,64,148.86h65.46a2.17,2.17,0,0,0,2.18-2.17v-44l-4.37,4.56v37.31H66.23V83.82H86.07a2.18,2.18,0,0,0,2.18-2.17V62.14h39.07V78.68Z"/></clipPath><clipPath id="clip-path-2"><rect class="cls-2" x="61.86" y="57.66" width="70.25" height="91.39"/></clipPath></defs><title>Register-FAB</title><g id="Layer_2" data-name="Layer 2"><g id="select_and_apply" data-name="select and apply"><polygon class="cls-3" points="94.84 110.93 89.11 130.87 109.07 125.16 147.54 86.68 133.32 72.46 94.84 110.93"/><rect class="cls-3" x="142.29" y="60.96" width="13.32" height="20.08" transform="translate(-6.58 126.12) rotate(-45)"/><path class="cls-2" d="M199.18,72.46,205.8,70a107.25,107.25,0,0,0-38.93-50.7l-3.61,5.15A100.11,100.11,0,0,1,199.18,72.46Z"/><path class="cls-2" d="M106,6a97.63,97.63,0,0,1,42.27,9.57L150.91,10C116.79-4.4,83.52-3.71,51.73,15.19,21,33.49,4.28,61.3,0,97.11l7.44.66C11.58,46.42,54.12,6,106,6Z"/><path class="cls-2" d="M7.51,115l-6.94.59c1.6,43.25,39.32,91.87,96.15,96.46.19-2.16.37-4.3.56-6.43C49.67,201.36,11.73,163.06,7.51,115Z"/><path class="cls-2" d="M210.48,88l-7,1.21a101.65,101.65,0,0,1,1.4,16.8c0,52.28-39.71,95.18-90.31,99.58q.26,3.08.52,6.16C166.66,209.92,221.94,158.14,210.48,88Z"/><path class="cls-4" d="M131.69,74V60a2.18,2.18,0,0,0-2.18-2.17H85.87a2.2,2.2,0,0,0-1.54.63L62.5,80.12a2.16,2.16,0,0,0-.64,1.53v65A2.18,2.18,0,0,0,64,148.86h65.46a2.17,2.17,0,0,0,2.18-2.17v-44l-4.37,4.56v37.31H66.23V83.82H86.07a2.18,2.18,0,0,0,2.18-2.17V62.14h39.07V78.68Z"/><g class="cls-5"><rect class="cls-2" x="61.86" y="57.66" width="70.25" height="91.39"/><g class="cls-6"><rect class="cls-2" x="56.37" y="51.71" width="80.81" height="103.24"/></g></g></g></g></svg>