<svg xmlns="http://www.w3.org/2000/svg" viewBox="0 0 211.26 211.02"><defs><style>.cls-1{fill:#241f46;}.cls-1,.cls-2{fill-rule:evenodd;}.cls-2{fill:#b00d23;}</style></defs><title>Verify-FAB</title><g id="Layer_2" data-name="Layer 2"><g id="select_and_apply" data-name="select and apply"><polygon class="cls-1" points="67.66 93.72 91.46 114.32 143.61 69.26 162.03 85.23 109.94 130.29 91.46 146.26 73.03 130.29 49.23 109.69 67.66 93.72"/><path class="cls-2" d="M145.25,203.41l-1.84-4.53a101,101,0,0,0,9.85-4.63l2.31,4.3A105.5,105.5,0,0,1,145.25,203.41Zm-79.55-.12a105,105,0,0,1-10.3-4.88l2.32-4.29a101.21,101.21,0,0,0,9.83,4.66Zm99.63-10.67-2.76-4a100,100,0,0,0,8.63-6.63l3.18,3.7A106.8,106.8,0,0,1,165.33,192.62Zm-119.65-.18a106.72,106.72,0,0,1-9-7l3.19-3.7a101.93,101.93,0,0,0,8.61,6.66Zm137-14.66-3.55-3.34a100.93,100.93,0,0,0,7-8.32l3.9,2.94A105.49,105.49,0,0,1,182.62,177.79Zm-154.2-.23a106.65,106.65,0,0,1-7.33-8.75L25,165.88a101.71,101.71,0,0,0,7,8.34Zm167.93-18-4.19-2.5a99.85,99.85,0,0,0,5.07-9.62l4.44,2A105.67,105.67,0,0,1,196.35,159.6Zm-181.61-.27a106.84,106.84,0,0,1-5.29-10.11l4.44-2a101.72,101.72,0,0,0,5,9.65ZM205.86,138.9l-4.63-1.54a99.85,99.85,0,0,0,2.87-10.49l4.77,1A104.19,104.19,0,0,1,205.86,138.9ZM5.29,138.58a104.51,104.51,0,0,1-3-11l4.78-1a99.75,99.75,0,0,0,2.84,10.51Zm205.38-22-4.85-.51a103.05,103.05,0,0,0,.55-10.64v-.24h4.89v.24A106.15,106.15,0,0,1,210.67,116.63ZM.55,116.29A106.88,106.88,0,0,1,0,105.49v-.61l4.88.05v.56a101.26,101.26,0,0,0,.52,10.3Zm205.22-21.9A100,100,0,0,0,204,83.65l4.76-1.05a106,106,0,0,1,1.86,11.26ZM5.52,94.05.67,93.51A105.63,105.63,0,0,1,2.56,82.25l4.76,1.07A101.52,101.52,0,0,0,5.52,94.05ZM201.08,73.16a99.75,99.75,0,0,0-4-10.1L201.46,61a104,104,0,0,1,4.24,10.6ZM10.29,72.85,5.67,71.28A104.14,104.14,0,0,1,9.94,60.69l4.42,2.07A99.7,99.7,0,0,0,10.29,72.85Zm181.63-19.4a101.08,101.08,0,0,0-6.13-9l3.88-3a105.66,105.66,0,0,1,6.42,9.44ZM19.51,53.18l-4.17-2.54a106.25,106.25,0,0,1,6.45-9.41l3.87,3A101.08,101.08,0,0,0,19.51,53.18Zm159.22-17a101,101,0,0,0-7.9-7.48L174,25a105.87,105.87,0,0,1,8.28,7.84Zm-146-.23L29.2,32.57a107.08,107.08,0,0,1,8.31-7.82l3.15,3.73A102.66,102.66,0,0,0,32.74,35.94ZM162.17,22.09a100.45,100.45,0,0,0-9.32-5.62l2.3-4.31a106.55,106.55,0,0,1,9.76,5.89ZM49.35,21.91l-2.73-4A106,106,0,0,1,56.41,12l2.28,4.32A101.3,101.3,0,0,0,49.35,21.91Zm93.64-10a101.25,101.25,0,0,0-10.31-3.48L134,3.71A106.52,106.52,0,0,1,144.8,7.36Zm-74.42-.13-1.8-4.54A105.34,105.34,0,0,1,77.6,3.61l1.29,4.71A101.23,101.23,0,0,0,68.57,11.77Zm53.48-5.69A100.57,100.57,0,0,0,111.24,4.9L111.5,0a105.86,105.86,0,0,1,11.34,1.24ZM89.53,6,88.75,1.2A105.86,105.86,0,0,1,100.1,0l.25,4.88A101.34,101.34,0,0,0,89.53,6Z"/><path class="cls-2" d="M132.24,202.94l1.22,4.73a106,106,0,0,1-11.19,2.25l-.7-4.83A101.3,101.3,0,0,0,132.24,202.94Zm-21.51,3.14.18,4.88a105.34,105.34,0,0,1-11.41-.21l.36-4.87A101.23,101.23,0,0,0,110.73,206.08Zm-21.67-1.59-.88,4.8a105.86,105.86,0,0,1-11.09-2.66L78.48,202A101.34,101.34,0,0,0,89.06,204.49Z"/></g></g></svg>