<svg width="60" height="60" viewBox="0 0 60 60" fill="none" xmlns="http://www.w3.org/2000/svg">
<path fill-rule="evenodd" clip-rule="evenodd" d="M9.80603 52.1328V27.2243C9.80603 26.3728 10.1781 25.5639 10.8246 25.0098L28.3246 10.0098C29.4168 9.07356 31.0286 9.07356 32.1208 10.0098L49.6209 25.0098C50.2673 25.5639 50.6394 26.3728 50.6394 27.2243V52.1328" fill="white"/>
<path fill-rule="evenodd" clip-rule="evenodd" d="M30.2227 51.6006H9.80603V26.2705C9.80603 25.6866 10.0612 25.1319 10.5044 24.7519L30.2227 7.85059V51.6006Z" fill="#59CBE8"/>
<path d="M9.80603 51.6006V26.2705C9.80603 25.6866 10.0612 25.1319 10.5044 24.752L28.9211 8.96623C29.6701 8.32425 30.7753 8.32425 31.5243 8.96623L36.7443 13.4405" stroke="#222222" stroke-width="2" stroke-linecap="round" stroke-linejoin="round"/>
<path d="M49.3894 51.7686H5.38939" stroke="#222222" stroke-width="2" stroke-linecap="round"/>
<path d="M42.8552 40.9651L35.0196 44.8141V54.8148L42.8552 51.172V40.9651Z" fill="white"/>
<path d="M27.4609 50.8534V40.8534L35.1396 44.5993L35.1396 54.6298L27.4609 50.8534Z" fill="#DDE5ED"/>
<path fill-rule="evenodd" clip-rule="evenodd" d="M38.162 38.4378C37.915 38.9317 38.1153 39.5324 38.6092 39.7794L40.7574 40.8535L34.9934 43.7355L27.4604 39.9689C27.3783 39.9255 27.2895 39.8932 27.1959 39.874C27.0939 39.8528 26.9906 39.8481 26.8896 39.8588C26.7286 39.8754 26.5789 39.9302 26.4497 40.014C26.3409 40.0843 26.2447 40.1765 26.1684 40.2881C26.0986 40.3898 26.0471 40.505 26.0186 40.6291C25.9999 40.7102 25.9917 40.7924 25.9934 40.8737V50.8534C25.9934 51.2322 26.2074 51.5785 26.5462 51.7479L34.0989 55.5243C34.662 55.8058 35.3247 55.8058 35.8878 55.5243L43.4406 51.7479C43.7794 51.5785 43.9934 51.2322 43.9934 50.8534V40.8735C43.9962 40.7372 43.9711 40.5986 43.9153 40.4661C43.8999 40.4293 43.8822 40.3935 43.8626 40.359C43.7607 40.1795 43.6103 40.0427 43.4365 39.957L39.5037 37.9906C39.0097 37.7436 38.409 37.9438 38.162 38.4378ZM41.9934 50.2354V42.4715L35.9934 45.4715V53.2354L41.9934 50.2354ZM33.9934 53.2354L27.9934 50.2354V42.4715L33.9934 45.4715V53.2354Z" fill="#222222"/>
<path fill-rule="evenodd" clip-rule="evenodd" d="M25.9543 19.5391C23.65 20.4701 22.5367 23.0929 23.4677 25.3972L27.963 36.5234C28.894 38.8277 31.5167 39.941 33.821 39.01C36.1253 38.079 37.2386 35.4562 36.3076 33.1519L31.8123 22.0257C30.8813 19.7214 28.2586 18.6081 25.9543 19.5391Z" fill="white"/>
<path fill-rule="evenodd" clip-rule="evenodd" d="M29.8173 35.7742L25.322 24.648C24.8048 23.3678 25.4233 21.9107 26.7035 21.3935C27.9836 20.8763 29.4407 21.4948 29.9579 22.7749L34.4532 33.9011C34.9704 35.1813 34.3519 36.6384 33.0718 37.1556C31.7916 37.6728 30.3345 37.0543 29.8173 35.7742ZM23.4677 25.3972C22.5366 23.0929 23.6499 20.4701 25.9542 19.5391C28.2586 18.6081 30.8813 19.7214 31.8123 22.0257L36.3076 33.1519C37.2386 35.4562 36.1253 38.079 33.821 39.01C31.5167 39.941 28.8939 38.8277 27.9629 36.5234L23.4677 25.3972Z" fill="#222222"/>
<path d="M44.9933 23.3534C44.9933 20.8681 42.9786 18.8534 40.4933 18.8534H27.4933C25.0081 18.8534 22.9933 20.8681 22.9933 23.3534C22.9933 25.8387 25.0081 27.8534 27.4933 27.8534H40.4933C42.9786 27.8534 44.9933 25.8387 44.9933 23.3534Z" fill="white"/>
<path fill-rule="evenodd" clip-rule="evenodd" d="M27.4933 20.8534H40.4933C41.8741 20.8534 42.9933 21.9727 42.9933 23.3534C42.9933 24.7341 41.8741 25.8534 40.4933 25.8534H27.4933C26.1126 25.8534 24.9933 24.7341 24.9933 23.3534C24.9933 21.9727 26.1126 20.8534 27.4933 20.8534ZM40.4933 18.8534C42.9786 18.8534 44.9933 20.8681 44.9933 23.3534C44.9933 25.8387 42.9786 27.8534 40.4933 27.8534H27.4933C25.0081 27.8534 22.9933 25.8387 22.9933 23.3534C22.9933 20.8681 25.0081 18.8534 27.4933 18.8534H40.4933Z" fill="#222222"/>
<circle cx="6.5" cy="6.5" r="6.5" transform="matrix(-1 0 0 1 51.9933 16.8534)" fill="#DDE5ED" stroke="#222222" stroke-width="2"/>
<path fill-rule="evenodd" clip-rule="evenodd" d="M45.4933 25.8534C44.1126 25.8534 42.9933 24.7341 42.9933 23.3534C42.9933 21.9727 44.1126 20.8534 45.4933 20.8534C46.8741 20.8534 47.9933 21.9727 47.9933 23.3534C47.9933 24.7341 46.8741 25.8534 45.4933 25.8534Z" fill="white"/>
<path d="M43.9933 23.3534C43.9933 24.1818 44.6649 24.8534 45.4933 24.8534V26.8534C43.5604 26.8534 41.9933 25.2864 41.9933 23.3534H43.9933ZM45.4933 21.8534C44.6649 21.8534 43.9933 22.525 43.9933 23.3534H41.9933C41.9933 21.4204 43.5604 19.8534 45.4933 19.8534V21.8534ZM46.9933 23.3534C46.9933 22.525 46.3218 21.8534 45.4933 21.8534V19.8534C47.4263 19.8534 48.9933 21.4204 48.9933 23.3534H46.9933ZM45.4933 24.8534C46.3218 24.8534 46.9933 24.1818 46.9933 23.3534H48.9933C48.9933 25.2864 47.4263 26.8534 45.4933 26.8534V24.8534Z" fill="#222222"/>
</svg>
