<svg width="60" height="60" viewBox="0 0 60 60" fill="none" xmlns="http://www.w3.org/2000/svg">
<rect x="16.1631" y="9.77124" width="19" height="42" rx="1" fill="#59CBE8" stroke="#222222" stroke-width="2"/>
<rect x="9.16309" y="32.7712" width="14" height="19" rx="1" fill="white" stroke="#222222" stroke-width="2"/>
<path d="M6.16309 44.7625H13.1631" stroke="#222222" stroke-width="2" stroke-linecap="round"/>
<path d="M6.16309 38.7625H15.6631" stroke="#222222" stroke-width="2" stroke-linecap="round"/>
<path d="M16.1631 21.7712H25.6631" stroke="#222222" stroke-width="2" stroke-linecap="round"/>
<path d="M16.1631 27.7712H23.1631" stroke="#222222" stroke-width="2" stroke-linecap="round"/>
<path d="M16.1631 15.7712H28.1631" stroke="#222222" stroke-width="2" stroke-linecap="round"/>
<path fill-rule="evenodd" clip-rule="evenodd" d="M40.8317 11.0359V28.7418L40.8317 35.005V45.1829C40.8317 45.1829 35.9498 42.3865 33.7149 40.6611C31.4801 38.9358 27.8317 35.1464 27.8317 35.1464L29.3633 24.3153L40.8317 11.0359Z" fill="#DBEEFF"/>
<path fill-rule="evenodd" clip-rule="evenodd" d="M42.1631 10.7712V28.4771L42.1631 34.7404V44.9183C42.1631 44.9183 46.7152 42.1219 48.799 40.3965C50.8829 38.6711 54.2848 34.8818 54.2848 34.8818L52.8566 24.0507L42.1631 10.7712Z" fill="white"/>
<path fill-rule="evenodd" clip-rule="evenodd" d="M40.9534 9.77124C24.1792 26.8214 24.4937 38.6253 41.2679 45.183C58.0421 38.6253 57.7276 26.8214 40.9534 9.77124Z" stroke="#222222" stroke-width="2" stroke-linecap="round" stroke-linejoin="round"/>
<path d="M41.1631 10.7712L41.1631 51.7712" stroke="#222222" stroke-width="2" stroke-linecap="round"/>
<path d="M29.163 29.7713L41.163 35.7713" stroke="#222222" stroke-width="2" stroke-linecap="round"/>
<mask id="path-13-inside-1_10688_6545" fill="white">
<path fill-rule="evenodd" clip-rule="evenodd" d="M54.0249 28.4995C54.3049 28.9755 54.146 29.5884 53.67 29.8684L50.67 31.6331C50.194 31.9132 49.5811 31.7543 49.3011 31.2782C49.021 30.8022 49.1799 30.1893 49.656 29.9093L52.656 28.1446C53.132 27.8646 53.7449 28.0235 54.0249 28.4995ZM47.0205 32.2567C47.3046 32.7303 47.1511 33.3446 46.6775 33.6287L41.6775 36.6287C41.2039 36.9129 40.5896 36.7593 40.3055 36.2857C40.0214 35.8121 40.1749 35.1979 40.6485 34.9137L45.6485 31.9137C46.1221 31.6296 46.7363 31.7831 47.0205 32.2567Z"/>
</mask>
<path d="M53.67 29.8684L54.6841 31.5923L54.6841 31.5923L53.67 29.8684ZM54.0249 28.4995L55.7488 27.4854V27.4854L54.0249 28.4995ZM50.67 31.6331L49.656 29.9093V29.9093L50.67 31.6331ZM49.3011 31.2782L47.5772 32.2923L49.3011 31.2782ZM49.656 29.9093L50.67 31.6331L49.656 29.9093ZM52.656 28.1446L51.6419 26.4207H51.6419L52.656 28.1446ZM46.6775 33.6287L45.6485 31.9137L45.6485 31.9137L46.6775 33.6287ZM47.0205 32.2567L45.3055 33.2857L47.0205 32.2567ZM41.6775 36.6287L40.6485 34.9137H40.6485L41.6775 36.6287ZM40.3055 36.2857L42.0205 35.2567L42.0205 35.2567L40.3055 36.2857ZM40.6485 34.9137L39.6195 33.1987H39.6195L40.6485 34.9137ZM45.6485 31.9137L44.6195 30.1987H44.6195L45.6485 31.9137ZM54.6841 31.5923C56.1122 30.7523 56.5889 28.9135 55.7488 27.4854L52.3011 29.5135C52.021 29.0375 52.1799 28.4246 52.656 28.1446L54.6841 31.5923ZM51.6841 33.357L54.6841 31.5923L52.656 28.1446L49.656 29.9093L51.6841 33.357ZM47.5772 32.2923C48.4172 33.7204 50.256 34.1971 51.6841 33.357L49.656 29.9093C50.132 29.6293 50.7449 29.7882 51.0249 30.2642L47.5772 32.2923ZM48.6419 28.1854C47.2138 29.0255 46.7371 30.8642 47.5772 32.2923L51.0249 30.2642C51.3049 30.7402 51.146 31.3531 50.67 31.6331L48.6419 28.1854ZM51.6419 26.4207L48.6419 28.1854L50.67 31.6331L53.67 29.8684L51.6419 26.4207ZM55.7488 27.4854C54.9087 26.0573 53.07 25.5806 51.6419 26.4207L53.67 29.8684C53.194 30.1485 52.5811 29.9896 52.3011 29.5135L55.7488 27.4854ZM47.7065 35.3437C49.1272 34.4912 49.5879 32.6485 48.7355 31.2277L45.3055 33.2857C45.0214 32.8121 45.1749 32.1979 45.6485 31.9137L47.7065 35.3437ZM42.7065 38.3437L47.7065 35.3437L45.6485 31.9137L40.6485 34.9137L42.7065 38.3437ZM38.5905 37.3147C39.443 38.7354 41.2857 39.1961 42.7065 38.3437L40.6485 34.9137C41.1221 34.6296 41.7363 34.7831 42.0205 35.2567L38.5905 37.3147ZM39.6195 33.1987C38.1988 34.0512 37.7381 35.894 38.5905 37.3147L42.0205 35.2567C42.3046 35.7303 42.1511 36.3446 41.6775 36.6287L39.6195 33.1987ZM44.6195 30.1987L39.6195 33.1987L41.6775 36.6287L46.6775 33.6287L44.6195 30.1987ZM48.7355 31.2277C47.883 29.807 46.0402 29.3463 44.6195 30.1987L46.6775 33.6287C46.2039 33.9129 45.5896 33.7593 45.3055 33.2857L48.7355 31.2277Z" fill="#222222" mask="url(#path-13-inside-1_10688_6545)"/>
<path d="M33.1631 19.7713L41.1107 28.7713" stroke="#222222" stroke-width="2" stroke-linecap="round"/>
<path d="M49.163 19.7713L41.163 28.7713" stroke="#222222" stroke-width="2" stroke-linecap="round"/>
<path d="M50.1631 51.7712H6.16308" stroke="#222222" stroke-width="2" stroke-linecap="round"/>
</svg>
