<svg width="60" height="60" viewBox="0 0 60 60" fill="none" xmlns="http://www.w3.org/2000/svg">
<path fill-rule="evenodd" clip-rule="evenodd" d="M11.7918 52.1411V27.2326C11.7918 26.3811 12.1639 25.5722 12.8103 25.0181L30.3103 10.0181C31.4026 9.08186 33.0144 9.08186 34.1066 10.0181L51.6066 25.0181C52.2531 25.5722 52.6252 26.3811 52.6252 27.2326V52.1411" fill="white"/>
<path fill-rule="evenodd" clip-rule="evenodd" d="M32.2085 51.6089H11.7918V26.2788C11.7918 25.6949 12.0469 25.1402 12.4902 24.7603L32.2085 7.85889V51.6089Z" fill="#59CBE8"/>
<path d="M11.7918 51.6089V26.2788C11.7918 25.6949 12.0469 25.1402 12.4902 24.7603L30.9069 8.97453C31.6559 8.33255 32.7611 8.33255 33.5101 8.97453L38.7301 13.4488" stroke="#222222" stroke-width="2" stroke-linecap="round" stroke-linejoin="round"/>
<path d="M47.3985 51.7769H7.37518" stroke="#222222" stroke-width="2" stroke-linecap="round"/>
<path fill-rule="evenodd" clip-rule="evenodd" d="M42.3842 34.142L46.8372 44.8358C47.1115 45.4945 46.6275 46.2202 45.9141 46.2202H28.0479C27.3345 46.2202 26.8505 45.4946 27.1247 44.8359L31.5761 34.142H42.3842Z" fill="#DDE5ED"/>
<path d="M42.8663 19.4038L41.3124 20.5273C40.7922 20.9033 40.4841 21.5062 40.4841 22.148V30.3975C40.4841 30.718 40.5612 31.0338 40.7088 31.3183L47.3067 44.0385C47.9972 45.3698 47.0311 46.9594 45.5313 46.9594H28.2904C26.7907 46.9594 25.8245 45.3698 26.5151 44.0385L33.113 31.3183C33.2606 31.0338 33.3376 30.718 33.3376 30.3975V22.148C33.3376 21.5062 33.0295 20.9033 32.5094 20.5273L30.9554 19.4038" stroke="#222222" stroke-width="2" stroke-linecap="round"/>
<ellipse cx="40.8867" cy="42.8389" rx="1.51343" ry="1.45887" fill="#222222"/>
<ellipse cx="38.6555" cy="39.8445" rx="0.717822" ry="0.691944" fill="#222222"/>
</svg>
