<svg width="60" height="60" viewBox="0 0 60 60" fill="none" xmlns="http://www.w3.org/2000/svg">
<path fill-rule="evenodd" clip-rule="evenodd" d="M12.0152 52.1377V27.2292C12.0152 26.3777 12.3873 25.5688 13.0337 25.0147L30.5337 10.0147C31.626 9.07844 33.2378 9.07844 34.33 10.0147L51.83 25.0147C52.4765 25.5688 52.8485 26.3777 52.8485 27.2292V52.1377" fill="white"/>
<path fill-rule="evenodd" clip-rule="evenodd" d="M32.4319 51.6055H12.0152V26.2753C12.0152 25.6915 12.2703 25.1368 12.7136 24.7568L32.4319 7.85547V51.6055Z" fill="#59CBE8"/>
<path d="M12.0152 51.6055V26.2753C12.0152 25.6915 12.2703 25.1368 12.7136 24.7568L31.1303 8.97111C31.8793 8.32913 32.9845 8.32913 33.7335 8.97111L38.9535 13.4454" stroke="#222222" stroke-width="2" stroke-linecap="round" stroke-linejoin="round"/>
<path d="M51.5986 51.7734H7.59856" stroke="#222222" stroke-width="2" stroke-linecap="round"/>
<path d="M48.4111 28.218L43.5015 23.3083L27.3929 39.4169L32.3026 44.3266L48.4111 28.218Z" fill="#DDE5ED" stroke="#222222" stroke-width="2" stroke-linecap="round" stroke-linejoin="round"/>
<path d="M50.3939 21.3259C51.7489 22.681 51.7489 24.8805 50.3939 26.2356L48.5135 28.116L43.6038 23.2063L45.4842 21.3259C46.8393 19.9709 49.0388 19.9709 50.3939 21.3259Z" fill="white" stroke="#222222" stroke-width="2"/>
<path d="M25.5967 46.1289L32.304 44.3375L27.3951 39.4216L25.5967 46.1289Z" fill="white" stroke="#222222" stroke-width="2" stroke-linecap="round" stroke-linejoin="round"/>
<path d="M29.7407 31.4123L36.6354 24.5176" stroke="#222222" stroke-width="2" stroke-linecap="round"/>
<path d="M40.3073 41.979L47.202 35.0843" stroke="#222222" stroke-width="2" stroke-linecap="round"/>
<path d="M29.9433 26.9671L32.179 24.7313" stroke="#222222" stroke-width="2" stroke-linecap="round"/>
<path d="M44.7526 41.7764L46.9883 39.5406" stroke="#222222" stroke-width="2" stroke-linecap="round"/>
</svg>
