<svg width="62" height="63" viewBox="0 0 62 63" fill="none" xmlns="http://www.w3.org/2000/svg">
<rect x="17.7666" y="12.8" width="19.35" height="42" rx="1" fill="#59CBE8" stroke="#222222" stroke-width="2"/>
<rect x="10.6499" y="35.8" width="14.2667" height="19" rx="1" fill="white" stroke="#222222" stroke-width="2"/>
<path d="M7.6167 47.7913H14.7334" stroke="#222222" stroke-width="2" stroke-linecap="round"/>
<path d="M7.6167 41.7913H17.275" stroke="#222222" stroke-width="2" stroke-linecap="round"/>
<path d="M10.6667 24.8H27.4417" stroke="#222222" stroke-width="2" stroke-linecap="round"/>
<path d="M17.7834 30.8H24.9001" stroke="#222222" stroke-width="2" stroke-linecap="round"/>
<path d="M17.7834 18.8H29.9834" stroke="#222222" stroke-width="2" stroke-linecap="round"/>
<path d="M54.3833 54.8H7.61667" stroke="#222222" stroke-width="2" stroke-linecap="round"/>
<path d="M37.1 30.8H49.3" stroke="#222222" stroke-width="2" stroke-linecap="round"/>
<path d="M28.9667 41.8L34.05 41.7913" stroke="#222222" stroke-width="2" stroke-linecap="round"/>
<ellipse cx="3" cy="3.05" rx="3" ry="3.05" transform="matrix(0 -1 -1 0 55.3999 33.8)" fill="white" stroke="#222222" stroke-width="2"/>
<ellipse cx="3" cy="3.05" rx="3" ry="3.05" transform="matrix(0 -1 -1 0 40.1499 44.8)" fill="white" stroke="#222222" stroke-width="2"/>
<ellipse cx="3" cy="3.05" rx="3" ry="3.05" transform="matrix(0 -1 -1 0 12.7 27.8)" fill="white" stroke="#222222" stroke-width="2"/>
<path d="M51.3334 15.8L42.7671 24.2259C42.3931 24.5938 41.8894 24.8 41.3647 24.8H37.1001" stroke="#222222" stroke-width="2" stroke-linecap="round" stroke-linejoin="round"/>
<ellipse cx="3" cy="3.05" rx="3" ry="3.05" transform="matrix(0 -1 -1 0 55.3999 17.8)" fill="white" stroke="#222222" stroke-width="2"/>
</svg>
