<svg width="60" height="60" viewBox="0 0 60 60" fill="none" xmlns="http://www.w3.org/2000/svg">
<path fill-rule="evenodd" clip-rule="evenodd" d="M32.4296 51.6033H11.6726V26.2831C11.6726 25.6935 11.9327 25.134 12.3835 24.754L32.4296 7.85327V51.6033Z" fill="#59CBE8"/>
<path d="M11.6726 51.6033V26.2831C11.6726 25.6935 11.9327 25.134 12.3835 24.754L31.1404 8.94015C31.8852 8.31225 32.974 8.31225 33.7187 8.94015L39.0598 13.4432" stroke="#222222" stroke-width="2" stroke-linecap="round" stroke-linejoin="round"/>
<path d="M51.9157 51.7712H7.18234" stroke="#222222" stroke-width="2" stroke-linecap="round"/>
<path d="M35.303 20.5437L26.6915 38.3014L39.0952 33.4051L45.7711 25.8674L35.303 20.5437Z" fill="white"/>
<path fill-rule="evenodd" clip-rule="evenodd" d="M46.2513 25.938C46.2513 25.938 50.2103 31.8684 50.6015 35.3314C50.9926 38.7943 47.452 45.6574 47.452 45.6574H28.5554L25.9549 38.7734L39.0535 33.2662L46.2513 25.938Z" fill="#DDE5ED"/>
<path d="M36.3824 20.8742C35.8892 20.6174 35.2811 20.8123 35.0291 21.308L26.5277 38.0321C26.4057 38.2721 26.3856 38.5512 26.472 38.8062L28.541 44.9114C28.6786 45.3173 29.0595 45.5905 29.4881 45.5905H46.262C46.6795 45.5905 47.0531 45.3311 47.199 44.9399L50.6136 35.785C50.7092 35.5287 50.6956 35.2444 50.5761 34.9984L46.3402 26.2816C46.2464 26.0886 46.093 25.9308 45.9027 25.8317L36.3824 20.8742Z" stroke="#222222" stroke-width="2" stroke-linecap="round" stroke-linejoin="round"/>
<path d="M39.0533 33.2655L26.6546 38.3285" stroke="#222222" stroke-width="2" stroke-linecap="round"/>
<path d="M46.2508 25.9372L39.0531 33.2654" stroke="#222222" stroke-width="2" stroke-linecap="round"/>
<path d="M50.4503 35.5749L39.0533 33.2655" stroke="#222222" stroke-width="2" stroke-linecap="round"/>
<path d="M32.7544 41.5276H33.8042" stroke="#222222" stroke-width="2" stroke-linecap="round"/>
</svg>
