<svg width="60" height="60" viewBox="0 0 60 60" fill="none" xmlns="http://www.w3.org/2000/svg">
<path fill-rule="evenodd" clip-rule="evenodd" d="M11.7918 52.1411V27.2326C11.7918 26.3811 12.1639 25.5722 12.8103 25.0181L30.3103 10.0181C31.4026 9.08186 33.0144 9.08186 34.1066 10.0181L51.6066 25.0181C52.2531 25.5722 52.6252 26.3811 52.6252 27.2326V52.1411" fill="white"/>
<path fill-rule="evenodd" clip-rule="evenodd" d="M32.2085 51.6089H11.7918V26.2788C11.7918 25.6949 12.0469 25.1402 12.4902 24.7603L32.2085 7.85889V51.6089Z" fill="#59CBE8"/>
<path d="M11.7918 51.6089V26.2788C11.7918 25.6949 12.0469 25.1402 12.4902 24.7603L30.9069 8.97453C31.6559 8.33255 32.7611 8.33255 33.5101 8.97453L38.7301 13.4488" stroke="#222222" stroke-width="2" stroke-linecap="round" stroke-linejoin="round"/>
<path d="M47.3985 51.7769H7.37518" stroke="#222222" stroke-width="2" stroke-linecap="round"/>
<path fill-rule="evenodd" clip-rule="evenodd" d="M25.8256 41.1016L35.7374 31.3522H47.3985V37.0871L37.9064 46.8317" fill="#DDE5ED"/>
<path d="M25.8256 41.1016L35.7374 31.3522H47.3985V37.0871L37.9064 46.8317" stroke="#222222" stroke-width="2" stroke-linecap="round" stroke-linejoin="round"/>
<rect x="25.8256" y="41.1016" width="11.661" height="5.73493" fill="white" stroke="#222222" stroke-width="2" stroke-linecap="round" stroke-linejoin="round"/>
<path d="M47.3984 31.3523L37.4866 41.1017" stroke="#222222" stroke-width="2" stroke-linecap="round" stroke-linejoin="round"/>
<path d="M41.8518 34.3579L41.1505 33.645L41.1505 33.645L41.8518 34.3579ZM41.8634 32.9438L41.1505 33.645H41.1505L41.8634 32.9438ZM41.2687 34.9314L41.9699 35.6444L41.2687 34.9314ZM39.8545 34.9198L40.5675 34.2185V34.2185L39.8545 34.9198ZM39.8662 33.5056L39.165 32.7927V32.7927L39.8662 33.5056ZM40.4493 32.9321L39.748 32.2192L40.4493 32.9321ZM39.5198 36.6544L40.221 37.3673L39.5198 36.6544ZM39.5315 35.2403L40.2444 34.539L39.5315 35.2403ZM37.1876 38.9484L37.8888 39.6613L37.1876 38.9484ZM35.7734 38.9367L35.0605 39.6379H35.0605L35.7734 38.9367ZM35.7851 37.5225L36.4863 38.2355L35.7851 37.5225ZM38.1173 35.2286L38.8185 35.9415L38.1173 35.2286ZM42.553 35.0709C43.3405 34.2963 43.3509 33.03 42.5764 32.2425L41.1505 33.645V33.645L42.553 35.0709ZM41.9699 35.6444L42.553 35.0709L41.1505 33.645L40.5675 34.2185L41.9699 35.6444ZM39.1416 35.621C39.9162 36.4085 41.1825 36.4189 41.9699 35.6444L40.5675 34.2185L39.1416 35.621ZM39.165 32.7927C38.3775 33.5672 38.367 34.8335 39.1416 35.621L40.5675 34.2185V34.2185L39.165 32.7927ZM39.748 32.2192L39.165 32.7927L40.5675 34.2185L41.1505 33.645L39.748 32.2192ZM42.5764 32.2425C41.8018 31.4551 40.5355 31.4446 39.748 32.2192L41.1505 33.645H41.1505L42.5764 32.2425ZM40.221 37.3673C41.0085 36.5928 41.019 35.3265 40.2444 34.539L38.8185 35.9415H38.8185L40.221 37.3673ZM37.8888 39.6613L40.221 37.3673L38.8185 35.9415L36.4863 38.2355L37.8888 39.6613ZM35.0605 39.6379C35.835 40.4254 37.1013 40.4359 37.8888 39.6613L36.4863 38.2355H36.4863L35.0605 39.6379ZM35.0839 36.8096C34.2964 37.5842 34.2859 38.8505 35.0605 39.6379L36.4863 38.2355H36.4863L35.0839 36.8096ZM37.4161 34.5156L35.0839 36.8096L36.4863 38.2355L38.8185 35.9415L37.4161 34.5156ZM40.2444 34.539C39.4698 33.7515 38.2035 33.7411 37.4161 34.5156L38.8185 35.9415L40.2444 34.539Z" fill="#222222"/>
<path fill-rule="evenodd" clip-rule="evenodd" d="M25.8256 35.3661L35.7374 25.6167H47.3985V31.3516L37.4866 41.101" fill="#DDE5ED"/>
<path d="M25.8256 35.3661L35.7374 25.6167H47.3985V31.3516L37.4866 41.101" stroke="#222222" stroke-width="2" stroke-linecap="round" stroke-linejoin="round"/>
<rect x="25.8256" y="35.3661" width="11.661" height="5.73493" fill="white" stroke="#222222" stroke-width="2" stroke-linecap="round" stroke-linejoin="round"/>
<path d="M47.3984 25.6167L37.4866 35.3661" stroke="#222222" stroke-width="2" stroke-linecap="round" stroke-linejoin="round"/>
<path d="M41.8518 28.6219L41.1505 27.9089L41.1505 27.9089L41.8518 28.6219ZM41.8634 27.2077L41.1505 27.9089H41.1505L41.8634 27.2077ZM41.2687 29.1954L41.9699 29.9083L41.2687 29.1954ZM39.8545 29.1837L40.5675 28.4824V28.4824L39.8545 29.1837ZM39.8662 27.7695L39.165 27.0566V27.0566L39.8662 27.7695ZM40.4493 27.196L39.748 26.4831L40.4493 27.196ZM39.5198 30.9183L40.221 31.6313L39.5198 30.9183ZM39.5315 29.5042L40.2444 28.8029L39.5315 29.5042ZM37.1876 33.2123L37.8888 33.9252L37.1876 33.2123ZM35.7734 33.2006L35.0605 33.9019H35.0605L35.7734 33.2006ZM35.7851 31.7865L36.4863 32.4994L35.7851 31.7865ZM38.1173 29.4925L38.8185 30.2054L38.1173 29.4925ZM42.553 29.3348C43.3405 28.5602 43.3509 27.2939 42.5764 26.5065L41.1505 27.9089V27.9089L42.553 29.3348ZM41.9699 29.9083L42.553 29.3348L41.1505 27.9089L40.5675 28.4824L41.9699 29.9083ZM39.1416 29.8849C39.9162 30.6724 41.1825 30.6828 41.9699 29.9083L40.5675 28.4824L39.1416 29.8849ZM39.165 27.0566C38.3775 27.8311 38.367 29.0974 39.1416 29.8849L40.5675 28.4824V28.4824L39.165 27.0566ZM39.748 26.4831L39.165 27.0566L40.5675 28.4824L41.1505 27.9089L39.748 26.4831ZM42.5764 26.5065C41.8018 25.719 40.5355 25.7085 39.748 26.4831L41.1505 27.9089H41.1505L42.5764 26.5065ZM40.221 31.6313C41.0085 30.8567 41.019 29.5904 40.2444 28.8029L38.8185 30.2054H38.8185L40.221 31.6313ZM37.8888 33.9252L40.221 31.6313L38.8185 30.2054L36.4863 32.4994L37.8888 33.9252ZM35.0605 33.9019C35.835 34.6893 37.1013 34.6998 37.8888 33.9252L36.4863 32.4994H36.4863L35.0605 33.9019ZM35.0839 31.0735C34.2964 31.8481 34.2859 33.1144 35.0605 33.9019L36.4863 32.4994H36.4863L35.0839 31.0735ZM37.4161 28.7796L35.0839 31.0735L36.4863 32.4994L38.8185 30.2054L37.4161 28.7796ZM40.2444 28.8029C39.4698 28.0155 38.2035 28.005 37.4161 28.7796L38.8185 30.2054L40.2444 28.8029Z" fill="#222222"/>
<path fill-rule="evenodd" clip-rule="evenodd" d="M25.8256 29.6306L35.7374 19.8812H47.3985V25.6162L37.4866 35.3655" fill="#DDE5ED"/>
<path d="M25.8256 29.6306L35.7374 19.8812H47.3985V25.6162L37.4866 35.3655" stroke="#222222" stroke-width="2" stroke-linecap="round" stroke-linejoin="round"/>
<rect x="25.8256" y="29.6306" width="11.661" height="5.73493" fill="white" stroke="#222222" stroke-width="2" stroke-linecap="round" stroke-linejoin="round"/>
<path d="M47.3984 19.8812L37.4866 29.6306" stroke="#222222" stroke-width="2" stroke-linecap="round" stroke-linejoin="round"/>
<path d="M42.734 30.2052V35.9401" stroke="#222222" stroke-width="2" stroke-linecap="round" stroke-linejoin="round"/>
</svg>
