<svg width="60" height="60" viewBox="0 0 60 60" fill="none" xmlns="http://www.w3.org/2000/svg">
<path fill-rule="evenodd" clip-rule="evenodd" d="M11.2668 52.1355V27.227C11.2668 26.3755 11.6451 25.5666 12.3023 25.0125L30.094 10.0125C31.2045 9.07625 32.8431 9.07625 33.9536 10.0125L51.7453 25.0125C52.4025 25.5666 52.7808 26.3755 52.7808 27.227V52.1355" fill="white"/>
<path fill-rule="evenodd" clip-rule="evenodd" d="M32.0238 51.6033H11.2668V26.2831C11.2668 25.6935 11.527 25.134 11.9777 24.754L32.0238 7.85327V51.6033Z" fill="#59CBE8"/>
<path d="M11.2668 51.6033V26.2831C11.2668 25.6935 11.527 25.134 11.9777 24.754L30.7346 8.94015C31.4794 8.31225 32.5682 8.31225 33.313 8.94015L38.6541 13.4432" stroke="#222222" stroke-width="2" stroke-linecap="round" stroke-linejoin="round"/>
<path d="M51.5099 51.7712H6.77658" stroke="#222222" stroke-width="2" stroke-linecap="round"/>
<path fill-rule="evenodd" clip-rule="evenodd" d="M33.4042 23.2387L27.9055 22.6377L21.7958 26.2434L26.0726 30.4501" fill="white"/>
<path d="M33.4042 23.2387L27.9055 22.6377L21.7958 26.2434L26.0726 30.4501" stroke="#222222" stroke-width="2" stroke-linecap="round" stroke-linejoin="round"/>
<path fill-rule="evenodd" clip-rule="evenodd" d="M45.6236 35.2588L46.2346 40.6674L42.5688 46.6769L37.681 41.8693" fill="white"/>
<path d="M45.6236 35.2588L46.2346 40.6674L42.5688 46.6769L37.681 41.8693" stroke="#222222" stroke-width="2" stroke-linecap="round" stroke-linejoin="round"/>
<path fill-rule="evenodd" clip-rule="evenodd" d="M51.5141 19.5998C51.6282 18.3663 50.5775 17.3328 49.3234 17.445L43.715 17.9465C40.2249 18.2586 36.9777 19.8364 34.6051 22.3732L26.8588 30.655C25.3949 32.22 25.4462 34.642 26.975 36.1457L32.0022 41.0905C33.4853 42.5493 35.8577 42.6464 37.4589 41.3137L46.0954 34.1257C48.9251 31.7706 50.6994 28.4151 51.035 24.784L51.5141 19.5998Z" fill="#DDE5ED" stroke="#222222" stroke-width="2" stroke-linecap="round" stroke-linejoin="round"/>
<path d="M31.2563 30.7629C30.5794 31.4866 29.8143 32.3046 28.9612 33.2167" stroke="#222222" stroke-width="2" stroke-linecap="round" stroke-linejoin="round"/>
<circle cx="3.42795" cy="3.42795" r="3.42795" transform="matrix(0.712926 0.701239 -0.712926 0.701239 41.3467 22.6376)" fill="white" stroke="#222222" stroke-width="2" stroke-linecap="round" stroke-linejoin="round"/>
<path d="M27.2947 41.2651L20.5741 47.8756" stroke="#222222" stroke-width="2" stroke-linecap="round" stroke-linejoin="round"/>
<path d="M24.8509 38.8635L20.5741 43.0701" stroke="#222222" stroke-width="2" stroke-linecap="round" stroke-linejoin="round"/>
<path d="M29.7383 43.6708L25.4616 47.8775" stroke="#222222" stroke-width="2" stroke-linecap="round" stroke-linejoin="round"/>
</svg>
