<svg width="60" height="60" viewBox="0 0 60 60" fill="none" xmlns="http://www.w3.org/2000/svg">
<path fill-rule="evenodd" clip-rule="evenodd" d="M31.2906 51.6033H10.5337V26.2831C10.5337 25.6935 10.7938 25.134 11.2445 24.754L31.2906 7.85327V51.6033Z" fill="#59CBE8"/>
<path d="M10.5337 51.6033V26.2831C10.5337 25.6935 10.7938 25.134 11.2445 24.754L30.0015 8.94015C30.7462 8.31225 31.835 8.31225 32.5798 8.94015L37.9209 13.4432" stroke="#222222" stroke-width="2" stroke-linecap="round" stroke-linejoin="round"/>
<path d="M50.7768 51.7712H6.04343" stroke="#222222" stroke-width="2" stroke-linecap="round"/>
<path fill-rule="evenodd" clip-rule="evenodd" d="M35.922 21.4102L49.1813 28.0181V39.0292L36.2061 45.4942C36.0293 45.5812 35.8147 45.5812 35.6379 45.4942L22.6627 39.0292V28.0181L35.922 21.4102Z" fill="white"/>
<path fill-rule="evenodd" clip-rule="evenodd" d="M22.6627 28.2421V38.9116L35.922 45.6313V35.0735L22.6627 28.2421Z" fill="#DBEEFF"/>
<path fill-rule="evenodd" clip-rule="evenodd" d="M35.96 35.0735V45.6313L49.2192 38.9116V28.2421L35.96 35.0735Z" fill="#DDE5ED"/>
<path d="M35.922 21.4102L49.1813 28.0181V39.0292L36.2061 45.4942C36.0293 45.5812 35.8147 45.5812 35.6379 45.4942L22.6627 39.0292V28.0181L35.922 21.4102Z" stroke="#222222" stroke-width="2" stroke-linecap="round" stroke-linejoin="round"/>
<path d="M49.1813 28.0122L35.922 35.3529L22.6627 28.0122" stroke="#222222" stroke-width="2" stroke-linecap="round" stroke-linejoin="round"/>
<path d="M46.2643 33.296L38.9022 37.3701" stroke="#222222" stroke-width="2" stroke-linecap="round" stroke-linejoin="round"/>
<path d="M32.9926 37.4014L25.6179 33.3212" stroke="#222222" stroke-width="2" stroke-linecap="round" stroke-linejoin="round"/>
<path d="M43.3219 37.8632L38.8643 40.3287" stroke="#222222" stroke-width="2" stroke-linecap="round" stroke-linejoin="round"/>
<path d="M29.2926 38.2892L25.6179 36.2522" stroke="#222222" stroke-width="2" stroke-linecap="round" stroke-linejoin="round"/>
<path d="M35.922 35.3524V45.5437" stroke="#222222" stroke-width="2" stroke-linecap="round" stroke-linejoin="round"/>
<path d="M35.9219 35.3529L22.6627 28.0122L19.3746 33.451L32.6339 40.7917L35.9219 35.3592V35.3529Z" fill="white" stroke="#222222" stroke-width="2" stroke-linecap="round" stroke-linejoin="round"/>
<path d="M49.1813 28.0122L35.922 35.3529L38.9101 40.6116L52.2072 33.3392L49.1813 28.0122Z" fill="white" stroke="#222222" stroke-width="2" stroke-linecap="round" stroke-linejoin="round"/>
</svg>
