<svg width="60" height="60" viewBox="0 0 60 60" fill="none" xmlns="http://www.w3.org/2000/svg">
<path fill-rule="evenodd" clip-rule="evenodd" d="M11.3562 52.1355V27.227C11.3562 26.3755 11.7283 25.5666 12.3747 25.0125L29.8747 10.0125C30.967 9.07625 32.5788 9.07625 33.671 10.0125L51.171 25.0125C51.8175 25.5666 52.1896 26.3755 52.1896 27.227V52.1355" fill="white"/>
<path fill-rule="evenodd" clip-rule="evenodd" d="M51.4502 42.6033C51.4502 47.5739 47.4207 51.6033 42.4502 51.6033H11.3562V26.2732C11.3562 25.6893 11.6113 25.1346 12.0546 24.7546L31.7729 7.85327L51.4502 24.8775V42.6033Z" fill="#59CBE8"/>
<path d="M11.3562 51.6033V26.2732C11.3562 25.6893 11.6113 25.1346 12.0546 24.7546L30.4713 8.96891C31.2203 8.32693 32.3255 8.32693 33.0745 8.96891L38.2945 13.4432" stroke="#222222" stroke-width="2" stroke-linecap="round" stroke-linejoin="round"/>
<path d="M50.9396 51.7712H6.93957" stroke="#222222" stroke-width="2" stroke-linecap="round"/>
<path fill-rule="evenodd" clip-rule="evenodd" d="M49.056 21.9775C49.7189 21.9775 50.3387 22.306 50.7109 22.8545L52.8817 26.0536C53.1065 26.3849 53.2267 26.7761 53.2267 27.1766V49.7769C53.2267 50.8814 52.3313 51.7769 51.2267 51.7769H40.7091C39.6045 51.7769 38.7091 50.8814 38.7091 49.7769L38.7091 27.1766C38.7091 26.7761 38.8293 26.3849 39.0542 26.0536L41.2249 22.8545C41.5971 22.306 42.217 21.9775 42.8799 21.9775H49.056Z" fill="white" stroke="#222222" stroke-width="2"/>
<path fill-rule="evenodd" clip-rule="evenodd" d="M53.6088 27.3256V48.7691C53.6088 50.8519 52.5825 52.5404 51.3165 52.5404H41.0014C39.7354 52.5404 38.7091 50.8519 38.7091 48.7691V27.3256L53.6088 27.3256Z" fill="#DDE5ED"/>
<path fill-rule="evenodd" clip-rule="evenodd" d="M49.056 21.9775C49.7189 21.9775 50.3387 22.306 50.7109 22.8545L52.8817 26.0536C53.1065 26.3849 53.2267 26.7761 53.2267 27.1766V49.7769C53.2267 50.8814 52.3313 51.7769 51.2267 51.7769H40.7091C39.6045 51.7769 38.7091 50.8814 38.7091 49.7769L38.7091 27.1766C38.7091 26.7761 38.8293 26.3849 39.0542 26.0536L41.2249 22.8545C41.5971 22.306 42.217 21.9775 42.8799 21.9775H49.056Z" stroke="#222222" stroke-width="2"/>
<rect x="40.8552" y="16.8649" width="10.2254" height="4.87677" rx="1.5" fill="white" stroke="#222222" stroke-width="2"/>
<path d="M49.4062 40.5302V45.1147" stroke="#222222" stroke-width="2" stroke-linecap="round"/>
<path d="M49.4062 36.7104V35.1822" stroke="#222222" stroke-width="2" stroke-linecap="round"/>
<path fill-rule="evenodd" clip-rule="evenodd" d="M24.3357 45.318C24.3357 41.3202 27.6688 40.5107 28.5021 35.7034C29.0576 32.4985 30.4464 30.8988 32.6684 30.9043C34.8905 30.8988 36.2793 32.4985 36.8348 35.7034C37.6681 40.5107 41.0012 40.2421 41.0012 45.318C41.0012 48.6405 38.2236 51.663 32.6684 51.7362C27.3305 51.6659 24.3357 48.577 24.3357 45.318Z" fill="white" stroke="#222222" stroke-width="2"/>
<path fill-rule="evenodd" clip-rule="evenodd" d="M31.6588 30.9359C27.9762 31.1814 26.2577 29.4629 26.5032 25.7803C30.1857 25.5348 31.9043 27.2533 31.6588 30.9359Z" fill="#DFD5C5" stroke="#222222" stroke-width="2" stroke-linecap="round" stroke-linejoin="round"/>
<path d="M32.6682 30.5571C32.6682 30.5571 32.6682 27.4323 35.793 27.4323" stroke="#222222" stroke-width="2" stroke-linecap="round"/>
</svg>
