<svg width="60" height="60" viewBox="0 0 60 60" fill="none" xmlns="http://www.w3.org/2000/svg">
<path fill-rule="evenodd" clip-rule="evenodd" d="M12.0658 52.1355V27.227C12.0658 26.3755 12.4378 25.5666 13.0843 25.0125L30.5843 10.0125C31.6765 9.07625 33.2883 9.07625 34.3806 10.0125L51.8806 25.0125C52.527 25.5666 52.8991 26.3755 52.8991 27.227V52.1355" fill="white"/>
<path fill-rule="evenodd" clip-rule="evenodd" d="M32.4824 51.6033H12.0658V26.2732C12.0658 25.6893 12.3209 25.1346 12.7642 24.7546L32.4824 7.85327V51.6033Z" fill="#59CBE8"/>
<path d="M12.0658 51.6033V26.2732C12.0658 25.6893 12.3209 25.1346 12.7642 24.7546L31.1808 8.96891C31.9298 8.32693 33.035 8.32693 33.784 8.96891L39.004 13.4432" stroke="#222222" stroke-width="2" stroke-linecap="round" stroke-linejoin="round"/>
<path d="M51.6491 51.7712H7.64911" stroke="#222222" stroke-width="2" stroke-linecap="round"/>
<path fill-rule="evenodd" clip-rule="evenodd" d="M45.5083 28.3187L30.8176 21.7863C30.5252 21.6564 30.1883 21.6741 29.9113 21.8341L27.4728 23.2419C26.8429 23.6056 26.7996 24.4986 27.3913 24.9215L38.1156 32.5869" fill="#DDE5ED"/>
<path d="M45.5083 28.3187L30.8176 21.7863C30.5252 21.6564 30.1883 21.6741 29.9113 21.8341L27.4728 23.2419C26.8429 23.6056 26.7996 24.4986 27.3913 24.9215L38.1156 32.5869" stroke="#222222" stroke-width="2" stroke-linecap="round"/>
<path fill-rule="evenodd" clip-rule="evenodd" d="M27.0077 34.7761L49.4877 21.7973C50.9459 20.9554 52.8104 21.455 53.6523 22.9132C54.4942 24.3713 53.9946 26.2359 52.5364 27.0778L27.7166 41.4075C26.9198 41.8675 25.9121 41.7246 25.2746 41.0613L18.5556 34.0697C17.6557 33.1334 17.873 31.6011 18.9976 30.9518L19.254 30.8038C19.9236 30.4172 20.756 30.4512 21.3919 30.8911L27.0077 34.7761Z" fill="white" stroke="#222222" stroke-width="2"/>
<path fill-rule="evenodd" clip-rule="evenodd" d="M45.5083 28.3187L43.8201 44.3074C43.7865 44.6256 43.6027 44.9085 43.3256 45.0684L40.8872 46.4763C40.2573 46.84 39.4623 46.431 39.3919 45.7071L38.1156 32.5869" fill="white"/>
<path d="M45.5083 28.3187L43.8201 44.3074C43.7865 44.6256 43.6027 44.9085 43.3256 45.0684L40.8872 46.4763C40.2573 46.84 39.4623 46.431 39.3919 45.7071L38.1156 32.5869" stroke="#222222" stroke-width="2" stroke-linecap="round"/>
</svg>
