<svg width="60" height="60" viewBox="0 0 60 60" fill="none" xmlns="http://www.w3.org/2000/svg">
<path fill-rule="evenodd" clip-rule="evenodd" d="M11.1413 52.1411V27.2326C11.1413 26.3811 11.5133 25.5722 12.1598 25.0181L29.6598 10.0181C30.7521 9.08186 32.3638 9.08186 33.4561 10.0181L50.9561 25.0181C51.6026 25.5722 51.9746 26.3811 51.9746 27.2326V52.1411" fill="white"/>
<path fill-rule="evenodd" clip-rule="evenodd" d="M31.5579 51.6089H11.1413V26.2788C11.1413 25.6949 11.3964 25.1402 11.8397 24.7603L31.5579 7.85889V51.6089Z" fill="#59CBE8"/>
<path d="M11.1413 51.6089V26.2788C11.1413 25.6949 11.3964 25.1402 11.8397 24.7603L30.2564 8.97453C31.0053 8.33255 32.1105 8.33255 32.8595 8.97453L38.0795 13.4488" stroke="#222222" stroke-width="2" stroke-linecap="round" stroke-linejoin="round"/>
<path d="M52.9679 51.7769H6.72464" stroke="#222222" stroke-width="2" stroke-linecap="round"/>
<rect x="16.5011" y="43.2271" width="6.48298" height="8.9141" rx="2" fill="#222222"/>
<rect x="45.6746" y="43.2271" width="6.48298" height="8.9141" rx="2" fill="#222222"/>
<path fill-rule="evenodd" clip-rule="evenodd" d="M42.4083 28.6436C44.1741 28.6436 45.8011 29.6009 46.6587 31.1445L51.0411 39.0329C51.2418 39.3941 51.3471 39.8004 51.3471 40.2135V45.6614C51.3471 47.004 50.2586 48.0925 48.916 48.0925H35.5448H19.7425C18.3999 48.0925 17.3114 47.004 17.3114 45.6614L17.3114 40.2135C17.3114 39.8004 17.4167 39.3941 17.6174 39.0329L21.9998 31.1445C22.8574 29.6009 24.4844 28.6436 26.2502 28.6436C27.3095 28.6436 41.8787 28.6436 42.4083 28.6436Z" fill="white" stroke="#222222" stroke-width="2" stroke-linecap="round"/>
<path d="M17.5396 46.1616V39.8261L19.1235 37.2715H50.6987L52.2826 39.8261V46.1616L50.3411 48.1542H19.1235L17.5396 46.1616Z" fill="#DDE5ED"/>
<path fill-rule="evenodd" clip-rule="evenodd" d="M42.4083 28.6436C44.1741 28.6436 45.8011 29.6009 46.6587 31.1445L51.0411 39.0329C51.2418 39.3941 51.3471 39.8004 51.3471 40.2135V45.6614C51.3471 47.004 50.2586 48.0925 48.916 48.0925H35.5448H19.7425C18.3999 48.0925 17.3114 47.004 17.3114 45.6614L17.3114 40.2135C17.3114 39.8004 17.4167 39.3941 17.6174 39.0329L21.9998 31.1445C22.8574 29.6009 24.4844 28.6436 26.2502 28.6436C27.3095 28.6436 41.8787 28.6436 42.4083 28.6436Z" stroke="#222222" stroke-width="2" stroke-linecap="round"/>
<path d="M15.6908 35.9375L18.1219 37.5582H50.5368L52.9679 35.9375" stroke="#222222" stroke-width="2" stroke-linecap="round"/>
<path d="M25.4156 48.0906L29.2575 41.9964C29.7259 41.2535 30.5811 40.7972 31.5053 40.7972H32.6209L36.3438 40.7972C37.2681 40.7972 38.1232 41.2535 38.5916 41.9964L42.4335 48.0906" stroke="#222222" stroke-width="2"/>
<path d="M21.363 41.6076H23.7941" stroke="#222222" stroke-width="2" stroke-linecap="round"/>
<path d="M44.054 41.6076H46.3184" stroke="#222222" stroke-width="2" stroke-linecap="round"/>
<path d="M27.8466 44.8531H40.0022" stroke="#222222" stroke-width="2" stroke-linecap="round"/>
<path d="M41.2174 32.2889H42.433" stroke="#222222" stroke-width="2" stroke-linecap="round"/>
</svg>
