<svg width="60" height="60" viewBox="0 0 60 60" fill="none" xmlns="http://www.w3.org/2000/svg">
<path fill-rule="evenodd" clip-rule="evenodd" d="M29.6772 51.6039H8.92029V26.2837C8.92029 25.6941 9.1804 25.1346 9.63113 24.7546L29.6772 7.85388V51.6039Z" fill="#59CBE8"/>
<path fill-rule="evenodd" clip-rule="evenodd" d="M29.6665 7.46987C30.3577 7.46741 31.0495 7.70286 31.611 8.17623L36.9521 12.6793C36.9955 12.7159 37.035 12.7554 37.0706 12.7973L50.3465 23.9901C51.0226 24.5601 51.4127 25.3993 51.4127 26.2837V51.6039C51.4127 52.1562 50.965 52.6039 50.4127 52.6039C49.8605 52.6039 49.4127 52.1562 49.4127 51.6039V26.2837C49.4127 25.9889 49.2827 25.7091 49.0573 25.5191L30.3004 9.70531C30.1171 9.55078 29.8921 9.47232 29.6665 9.46991C29.4409 9.47232 29.2159 9.55078 29.0327 9.70531L10.2757 25.5191C10.0503 25.7091 9.92029 25.9889 9.92029 26.2837V51.6039C9.92029 52.1562 9.47257 52.6039 8.92029 52.6039C8.368 52.6039 7.92029 52.1562 7.92029 51.6039V26.2837C7.92029 25.3993 8.31045 24.5601 8.98656 23.9901L22.2624 12.7973C22.298 12.7554 22.3375 12.7159 22.3809 12.6793L27.7221 8.17623C28.2835 7.70286 28.9754 7.46741 29.6665 7.46987Z" fill="#222222"/>
<path d="M54.701 51.7712H5.40701" stroke="#222222" stroke-width="2" stroke-linecap="round"/>
<path d="M17.5223 47.4064L18.3484 50.7748H29.913V26.3538L24.9567 28.038V32.2485L20.8265 33.9327V38.9853L12.5661 41.9327L12.1531 44.038L17.5223 47.4064Z" fill="white"/>
<path d="M41.6024 47.4064L40.7956 50.7748H29.4999V26.3538L34.3409 28.038V32.2485L38.3751 33.9327V38.9853L46.4434 41.9327L46.8468 44.038L41.6024 47.4064Z" fill="#DDE5ED"/>
<path d="M29.4999 50.7796L29.5 35.5746" stroke="#222222" stroke-width="2" stroke-linecap="round"/>
<path d="M20.4134 38.9853V33.9326" stroke="#222222" stroke-width="2" stroke-linecap="round"/>
<path d="M24.5437 32.2484V28.0379" stroke="#222222" stroke-width="2" stroke-linecap="round"/>
<path d="M34.4562 32.2484V28.0379" stroke="#222222" stroke-width="2" stroke-linecap="round"/>
<path d="M37.7604 38.1431V33.9326" stroke="#222222" stroke-width="2" stroke-linecap="round"/>
<path d="M17.9353 50.7747L17.1093 47.4063L13.3693 45.2881C11.8974 44.4545 12.0607 42.2837 13.6407 41.6797L28.7858 35.8898C29.2456 35.714 29.7542 35.714 30.2141 35.8898L45.3591 41.6797C46.9392 42.2837 47.1025 44.4545 45.6306 45.2881L41.8906 47.4063L41.0645 50.7747" stroke="#222222" stroke-width="2" stroke-linecap="round" stroke-linejoin="round"/>
<path d="M20.4135 33.9326L28.7702 30.8347C29.2395 30.6607 29.7571 30.6691 30.2206 30.8581L37.7603 33.9326" stroke="#222222" stroke-width="2" stroke-linecap="round"/>
<path d="M24.5437 28.0379L28.8565 26.5724C29.2738 26.4306 29.7262 26.4306 30.1435 26.5724L34.4562 28.0379" stroke="#222222" stroke-width="2" stroke-linecap="round"/>
<path d="M29.5 25.5117V21.3011" stroke="#222222" stroke-width="2" stroke-linecap="round"/>
<ellipse cx="22.8916" cy="44.88" rx="1.65208" ry="1.68421" stroke="#222222" stroke-width="2"/>
<ellipse cx="36.1083" cy="44.88" rx="1.65208" ry="1.68421" stroke="#222222" stroke-width="2"/>
</svg>
