<svg width="60" height="60" viewBox="0 0 60 60" fill="none" xmlns="http://www.w3.org/2000/svg">
<path fill-rule="evenodd" clip-rule="evenodd" d="M12.0658 52.1355V27.227C12.0658 26.3755 12.4379 25.5666 13.0843 25.0125L30.5843 10.0125C31.6766 9.07625 33.2884 9.07625 34.3806 10.0125L51.8806 25.0125C52.5271 25.5666 52.8991 26.3755 52.8991 27.227V52.1355" fill="white"/>
<path fill-rule="evenodd" clip-rule="evenodd" d="M32.4825 51.6033H12.0658V26.2732C12.0658 25.6893 12.3209 25.1346 12.7642 24.7546L32.4825 7.85327V51.6033Z" fill="#59CBE8"/>
<path d="M12.0658 51.6033V26.2732C12.0658 25.6893 12.3209 25.1346 12.7642 24.7546L31.1809 8.96891C31.9299 8.32693 33.0351 8.32693 33.7841 8.96891L39.0041 13.4432" stroke="#222222" stroke-width="2" stroke-linecap="round" stroke-linejoin="round"/>
<path d="M51.6492 51.7712H7.64916" stroke="#222222" stroke-width="2" stroke-linecap="round"/>
<path d="M39.109 18.5568L26.8845 21.7008C26.8845 27.6396 25.7223 23.3622 28.0601 32.7132C30.3978 42.0642 39.109 48.2508 39.109 48.2508L39.109 18.5568Z" fill="white"/>
<path fill-rule="evenodd" clip-rule="evenodd" d="M39.3003 18.4279C38.9588 18.3403 38.6003 18.3446 38.261 18.4403L35.4017 19.2465H39.0256V47.5593H37.7703C37.9923 47.7367 38.2172 47.9112 38.4452 48.0825C38.6447 48.2326 38.9178 48.2387 39.1239 48.0978C47.0549 42.677 51.801 33.6878 51.801 24.0813V22.1455C51.801 21.8433 51.5962 21.5795 51.3035 21.5044L39.3003 18.4279ZM27.2861 29.4902V21.5581C27.076 21.6814 26.9409 21.9088 26.9409 22.161V25.0398C26.9409 26.5417 27.0579 28.029 27.2861 29.4902Z" fill="#DDE5ED"/>
<path d="M38.7721 18.9198C38.9384 18.8762 39.113 18.8762 39.2793 18.9198L51.1463 22.031V24.5737C51.1463 33.8062 46.6109 42.4431 39.0257 47.6856C31.4405 42.4431 26.9051 33.8062 26.9051 24.5737V22.031L38.7721 18.9198ZM51.375 22.0909C51.3749 22.0909 51.3747 22.0909 51.3745 22.0908L51.375 22.0909Z" stroke="#222222" stroke-width="2"/>
<path d="M39.0257 42.0366V47.3002" stroke="#222222" stroke-width="2" stroke-linecap="round"/>
<circle cx="39.0257" cy="31.6774" r="6.90558" fill="white" stroke="#222222" stroke-width="2" stroke-linecap="round" stroke-linejoin="round"/>
<ellipse cx="39.0256" cy="31.678" rx="2.55966" ry="6.90558" fill="white" stroke="#222222" stroke-width="2" stroke-linecap="round" stroke-linejoin="round"/>
<path d="M39.0257 18.9487V21.319" stroke="#222222" stroke-width="2" stroke-linecap="round"/>
<path d="M30.0485 24.0812V26.1529" stroke="#222222" stroke-width="2" stroke-linecap="round"/>
<path d="M45.9313 31.6774H32.1201" stroke="#222222" stroke-width="2" stroke-linecap="round"/>
</svg>
