<svg width="60" height="60" viewBox="0 0 60 60" fill="none" xmlns="http://www.w3.org/2000/svg">
<path fill-rule="evenodd" clip-rule="evenodd" d="M12.0072 52.1355V27.227C12.0072 26.3755 12.3793 25.5666 13.0257 25.0125L30.5257 10.0125C31.618 9.07625 33.2298 9.07625 34.322 10.0125L51.822 25.0125C52.4685 25.5666 52.8406 26.3755 52.8406 27.227V52.1355" fill="white"/>
<path fill-rule="evenodd" clip-rule="evenodd" d="M32.4239 51.6033H12.0072V26.2732C12.0072 25.6893 12.2623 25.1346 12.7056 24.7546L32.4239 7.85327V51.6033Z" fill="#59CBE8"/>
<path d="M12.0072 51.6033V26.2732C12.0072 25.6893 12.2623 25.1346 12.7056 24.7546L31.1223 8.96891C31.8713 8.32693 32.9765 8.32693 33.7255 8.96891L38.9455 13.4432" stroke="#222222" stroke-width="2" stroke-linecap="round" stroke-linejoin="round"/>
<path d="M51.5906 51.7712H7.59057" stroke="#222222" stroke-width="2" stroke-linecap="round"/>
<path fill-rule="evenodd" clip-rule="evenodd" d="M46.4111 34.559V39.8536L35.0654 45.9047L23.7197 39.8536V34.559" fill="#DDE5ED"/>
<path d="M46.4111 34.559V39.8536L35.0654 45.9047L23.7197 39.8536V34.559" stroke="#222222" stroke-width="2" stroke-linecap="round" stroke-linejoin="round"/>
<path fill-rule="evenodd" clip-rule="evenodd" d="M17.6687 31.5334L35.0654 23.2133L52.4622 31.5334L35.0654 40.61L17.6687 31.5334Z" fill="white" stroke="#222222" stroke-width="2" stroke-linecap="round" stroke-linejoin="round"/>
<path d="M35.0653 26.9951L32.035 28.5103" stroke="#222222" stroke-width="2" stroke-linecap="round" stroke-linejoin="round"/>
<path d="M52.4622 31.5334V39.8536" stroke="#222222" stroke-width="2" stroke-linecap="round" stroke-linejoin="round"/>
</svg>
