<svg width="60" height="60" viewBox="0 0 60 60" fill="none" xmlns="http://www.w3.org/2000/svg">
<path d="M10 46C10 43.7909 11.7909 42 14 42H45C47.2091 42 49 43.7909 49 46V54H10V46Z" fill="#59CBE8"/>
<path fill-rule="evenodd" clip-rule="evenodd" d="M41 42H45C47.2091 42 49 43.7909 49 46V54H10V46C10 43.7909 11.7909 42 14 42H24" fill="#59CBE8"/>
<path fill-rule="evenodd" clip-rule="evenodd" d="M14 43C12.3431 43 11 44.3431 11 46V53H48V46C48 44.3431 46.6569 43 45 43H41C40.4477 43 40 42.5523 40 42C40 41.4477 40.4477 41 41 41H45C47.7614 41 50 43.2386 50 46V54C50 54.5523 49.5523 55 49 55H10C9.44772 55 9 54.5523 9 54V46C9 43.2386 11.2386 41 14 41H24C24.5523 41 25 41.4477 25 42C25 42.5523 24.5523 43 24 43H14Z" fill="#222222"/>
<path d="M14 48H26V54H14V48Z" fill="white"/>
<path fill-rule="evenodd" clip-rule="evenodd" d="M13 48C13 47.4477 13.4477 47 14 47H26C26.5523 47 27 47.4477 27 48V54C27 54.5523 26.5523 55 26 55H14C13.4477 55 13 54.5523 13 54V48ZM15 49V53H25V49H15Z" fill="#222222"/>
<path d="M6 19C6 13.4772 10.4772 9 16 9H44C49.5229 9 54 13.4772 54 19C54 24.5228 49.5228 29 44 29H16C10.4772 29 6 24.5228 6 19Z" fill="#DDE5ED"/>
<path d="M31 30H41V55H31V30Z" fill="#59CBE8"/>
<path fill-rule="evenodd" clip-rule="evenodd" d="M39 32H33V53H39V32ZM31 30V55H41V30H31Z" fill="#222222"/>
<path fill-rule="evenodd" clip-rule="evenodd" d="M6 54C6 53.4477 6.44772 53 7 53H51C51.5523 53 52 53.4477 52 54C52 54.5523 51.5523 55 51 55H7C6.44772 55 6 54.5523 6 54Z" fill="#222222"/>
<path d="M14 10C14 12.2091 12.2091 14 10 14C7.79086 14 6 12.2091 6 10C6 7.79086 7.79086 6 10 6C12.2091 6 14 7.79086 14 10Z" fill="white"/>
<path fill-rule="evenodd" clip-rule="evenodd" d="M10 7C8.34315 7 7 8.34315 7 10C7 11.6569 8.34315 13 10 13C11.6569 13 13 11.6569 13 10C13 8.34315 11.6569 7 10 7ZM5 10C5 7.23858 7.23858 5 10 5C12.7614 5 15 7.23858 15 10C15 12.7614 12.7614 15 10 15C7.23858 15 5 12.7614 5 10Z" fill="#222222"/>
<path fill-rule="evenodd" clip-rule="evenodd" d="M36 31H32.8284C32.298 31 31.7893 30.7893 31.4142 30.4142L27.5858 26.5858C27.2107 26.2107 27 25.702 27 25.1716V18.8284C27 18.298 27.2107 17.7893 27.5858 17.4142L31.4142 13.5858C31.7893 13.2107 32.298 13 32.8284 13H36H39.1716C39.702 13 40.2107 13.2107 40.5858 13.5858L44.4142 17.4142C44.7893 17.7893 45 18.298 45 18.8284V25.1716C45 25.702 44.7893 26.2107 44.4142 26.5858L40.5858 30.4142C40.2107 30.7893 39.702 31 39.1716 31H36Z" fill="white"/>
<path fill-rule="evenodd" clip-rule="evenodd" d="M32.8284 14C32.5632 14 32.3089 14.1054 32.1213 14.2929L28.2929 18.1213C28.1054 18.3089 28 18.5632 28 18.8284V25.1716C28 25.4368 28.1054 25.6911 28.2929 25.8787L32.1213 29.7071C32.3089 29.8946 32.5632 30 32.8284 30H39.1716C39.4368 30 39.6911 29.8946 39.8787 29.7071L43.7071 25.8787C43.8946 25.6911 44 25.4368 44 25.1716V18.8284C44 18.5632 43.8946 18.3089 43.7071 18.1213L39.8787 14.2929C39.6911 14.1054 39.4368 14 39.1716 14H32.8284ZM30.7071 12.8787C31.2697 12.3161 32.0328 12 32.8284 12H39.1716C39.9672 12 40.7303 12.3161 41.2929 12.8787L45.1213 16.7071C45.6839 17.2697 46 18.0328 46 18.8284V25.1716C46 25.9672 45.6839 26.7303 45.1213 27.2929L41.2929 31.1213C40.7303 31.6839 39.9672 32 39.1716 32H32.8284C32.0328 32 31.2697 31.6839 30.7071 31.1213L26.8787 27.2929C26.3161 26.7303 26 25.9672 26 25.1716V18.8284C26 18.0328 26.3161 17.2697 26.8787 16.7071L30.7071 12.8787Z" fill="#222222"/>
<path fill-rule="evenodd" clip-rule="evenodd" d="M29 42C29 41.4477 29.4477 41 30 41H35C35.5523 41 36 41.4477 36 42C36 42.5523 35.5523 43 35 43H30C29.4477 43 29 42.5523 29 42Z" fill="#222222"/>
<path fill-rule="evenodd" clip-rule="evenodd" d="M29 48C29 47.4477 29.4477 47 30 47H35C35.5523 47 36 47.4477 36 48C36 48.5523 35.5523 49 35 49H30C29.4477 49 29 48.5523 29 48Z" fill="#222222"/>
<path fill-rule="evenodd" clip-rule="evenodd" d="M29 36C29 35.4477 29.4477 35 30 35H35C35.5523 35 36 35.4477 36 36C36 36.5523 35.5523 37 35 37H30C29.4477 37 29 36.5523 29 36Z" fill="#222222"/>
<path fill-rule="evenodd" clip-rule="evenodd" d="M27 19C27 18.4477 27.4477 18 28 18H44C44.5523 18 45 18.4477 45 19C45 19.5523 44.5523 20 44 20H28C27.4477 20 27 19.5523 27 19Z" fill="#222222"/>
<path fill-rule="evenodd" clip-rule="evenodd" d="M27 25C27 24.4477 27.4477 24 28 24H44C44.5523 24 45 24.4477 45 25C45 25.5523 44.5523 26 44 26H28C27.4477 26 27 25.5523 27 25Z" fill="#222222"/>
<path fill-rule="evenodd" clip-rule="evenodd" d="M36 7C36.5523 7 37 7.44772 37 8V13C37 13.5523 36.5523 14 36 14C35.4477 14 35 13.5523 35 13V8C35 7.44772 35.4477 7 36 7Z" fill="#222222"/>
<path d="M32 7C32 5.89543 32.8954 5 34 5H38C39.1046 5 40 5.89543 40 7C40 8.10457 39.1046 9 38 9H34C32.8954 9 32 8.10457 32 7Z" fill="white"/>
<path fill-rule="evenodd" clip-rule="evenodd" d="M31 7C31 5.34315 32.3431 4 34 4H38C39.6569 4 41 5.34315 41 7C41 8.65685 39.6569 10 38 10H34C32.3431 10 31 8.65685 31 7ZM34 6C33.4477 6 33 6.44772 33 7C33 7.55228 33.4477 8 34 8H38C38.5523 8 39 7.55228 39 7C39 6.44772 38.5523 6 38 6H34Z" fill="#222222"/>
<path fill-rule="evenodd" clip-rule="evenodd" d="M10.5528 19.1055C11.0468 18.8586 11.6474 19.0588 11.8944 19.5528L12.3416 20.4472C12.511 20.786 12.8573 21 13.2361 21H21C21.5523 21 22 21.4477 22 22C22 22.5523 21.5523 23 21 23H13.2361C12.0998 23 11.061 22.358 10.5528 21.3416L10.1056 20.4472C9.85859 19.9532 10.0588 19.3525 10.5528 19.1055Z" fill="#222222"/>
<path fill-rule="evenodd" clip-rule="evenodd" d="M6 36C6 35.4477 6.44772 35 7 35H10C10.5523 35 11 35.4477 11 36C11 36.5523 10.5523 37 10 37H7C6.44772 37 6 36.5523 6 36Z" fill="#222222"/>
<path fill-rule="evenodd" clip-rule="evenodd" d="M13 36C13 35.4477 13.4477 35 14 35H15C15.5523 35 16 35.4477 16 36C16 36.5523 15.5523 37 15 37H14C13.4477 37 13 36.5523 13 36Z" fill="#222222"/>
<path fill-rule="evenodd" clip-rule="evenodd" d="M47 6C47 5.44772 47.4477 5 48 5H51C51.5523 5 52 5.44772 52 6C52 6.55228 51.5523 7 51 7H48C47.4477 7 47 6.55228 47 6Z" fill="#222222"/>
</svg>
