<svg width="60" height="60" viewBox="0 0 60 60" fill="none" xmlns="http://www.w3.org/2000/svg">
<path fill-rule="evenodd" clip-rule="evenodd" d="M11.2668 52.1355V27.227C11.2668 26.3755 11.6451 25.5666 12.3023 25.0125L30.094 10.0125C31.2045 9.07625 32.8431 9.07625 33.9536 10.0125L51.7453 25.0125C52.4025 25.5666 52.7808 26.3755 52.7808 27.227V52.1355" fill="white"/>
<path fill-rule="evenodd" clip-rule="evenodd" d="M32.0238 51.6033H11.2668V26.2831C11.2668 25.6935 11.527 25.134 11.9777 24.754L32.0238 7.85327V51.6033Z" fill="#59CBE8"/>
<path d="M11.2668 51.6033V26.2831C11.2668 25.6935 11.527 25.134 11.9777 24.754L30.7346 8.94015C31.4794 8.31225 32.5682 8.31225 33.313 8.94015L38.6541 13.4432" stroke="#222222" stroke-width="2" stroke-linecap="round" stroke-linejoin="round"/>
<path d="M51.5099 51.7712H6.77658" stroke="#222222" stroke-width="2" stroke-linecap="round"/>
<path d="M38.5407 18.5568L26.3162 21.7008C26.3162 27.6396 25.154 23.3622 27.4918 32.7132C29.8295 42.0642 38.5407 48.2508 38.5407 48.2508L38.5407 18.5568Z" fill="white"/>
<path fill-rule="evenodd" clip-rule="evenodd" d="M38.732 18.4279C38.3905 18.3403 38.032 18.3446 37.6927 18.4403L34.8334 19.2465H38.4573V47.5593H37.202C37.424 47.7367 37.6489 47.9112 37.8769 48.0825C38.0764 48.2326 38.3495 48.2387 38.5556 48.0978C46.4866 42.677 51.2327 33.6878 51.2327 24.0813V22.1455C51.2327 21.8433 51.0279 21.5795 50.7352 21.5044L38.732 18.4279ZM26.7178 29.4902V21.5581C26.5077 21.6814 26.3726 21.9088 26.3726 22.161V25.0398C26.3726 26.5417 26.4896 28.029 26.7178 29.4902Z" fill="#DDE5ED"/>
<path d="M38.2037 18.9198C38.3699 18.8762 38.5446 18.8762 38.7109 18.9198L50.5779 22.031V24.5737C50.5779 33.8062 46.0425 42.4431 38.4573 47.6856C30.872 42.4431 26.3367 33.8062 26.3367 24.5737V22.031L38.2037 18.9198ZM50.8066 22.0909C50.8064 22.0909 50.8063 22.0909 50.8061 22.0908L50.8066 22.0909Z" stroke="#222222" stroke-width="2"/>
<path d="M38.4572 42.0366V47.3002" stroke="#222222" stroke-width="2" stroke-linecap="round"/>
<circle cx="38.4573" cy="31.6774" r="6.90558" fill="white" stroke="#222222" stroke-width="2" stroke-linecap="round" stroke-linejoin="round"/>
<ellipse cx="38.4571" cy="31.678" rx="2.55966" ry="6.90558" fill="white" stroke="#222222" stroke-width="2" stroke-linecap="round" stroke-linejoin="round"/>
<path d="M38.4572 18.9487V21.319" stroke="#222222" stroke-width="2" stroke-linecap="round"/>
<path d="M29.4801 24.0812V26.1529" stroke="#222222" stroke-width="2" stroke-linecap="round"/>
<path d="M45.3629 31.6774H31.5518" stroke="#222222" stroke-width="2" stroke-linecap="round"/>
</svg>
