<svg width="60" height="60" viewBox="0 0 60 60" fill="none" xmlns="http://www.w3.org/2000/svg">
<rect x="12" y="20.7712" width="36" height="31" rx="2" fill="white"/>
<path fill-rule="evenodd" clip-rule="evenodd" d="M11 26.7712C11 26.219 11.4477 25.7712 12 25.7712H48C48.5523 25.7712 49 26.219 49 26.7712V51.7712C49 52.3235 48.5523 52.7712 48 52.7712H12C11.4477 52.7712 11 52.3235 11 51.7712V26.7712ZM13 27.7712V50.7712H47V27.7712H13Z" fill="#222222"/>
<path fill-rule="evenodd" clip-rule="evenodd" d="M5 51.7712C5 51.219 5.44772 50.7712 6 50.7712H54C54.5523 50.7712 55 51.219 55 51.7712C55 52.3235 54.5523 52.7712 54 52.7712H6C5.44772 52.7712 5 52.3235 5 51.7712Z" fill="#222222"/>
<path fill-rule="evenodd" clip-rule="evenodd" d="M21 19.7712V28.7712C21 30.4281 19.6569 31.7712 18 31.7712C16.3431 31.7712 15 30.4281 15 28.7712V19.7712" fill="#DDE5ED"/>
<path fill-rule="evenodd" clip-rule="evenodd" d="M15 18.7712C15.5523 18.7712 16 19.219 16 19.7712V28.7712C16 29.8758 16.8954 30.7712 18 30.7712C19.1046 30.7712 20 29.8758 20 28.7712V19.7712C20 19.219 20.4477 18.7712 21 18.7712C21.5523 18.7712 22 19.219 22 19.7712V28.7712C22 30.9804 20.2091 32.7712 18 32.7712C15.7909 32.7712 14 30.9804 14 28.7712V19.7712C14 19.219 14.4477 18.7712 15 18.7712Z" fill="#222222"/>
<path fill-rule="evenodd" clip-rule="evenodd" d="M27 19.7712V28.7712C27 30.4281 25.6569 31.7712 24 31.7712C22.3431 31.7712 21 30.4281 21 28.7712V19.7712" fill="#59CBE8"/>
<path fill-rule="evenodd" clip-rule="evenodd" d="M21 18.7712C21.5523 18.7712 22 19.219 22 19.7712V28.7712C22 29.8758 22.8954 30.7712 24 30.7712C25.1046 30.7712 26 29.8758 26 28.7712V19.7712C26 19.219 26.4477 18.7712 27 18.7712C27.5523 18.7712 28 19.219 28 19.7712V28.7712C28 30.9804 26.2091 32.7712 24 32.7712C21.7909 32.7712 20 30.9804 20 28.7712V19.7712C20 19.219 20.4477 18.7712 21 18.7712Z" fill="#222222"/>
<path fill-rule="evenodd" clip-rule="evenodd" d="M33 19.7712V28.7712C33 30.4281 31.6569 31.7712 30 31.7712C28.3431 31.7712 27 30.4281 27 28.7712V19.7712" fill="#DDE5ED"/>
<path fill-rule="evenodd" clip-rule="evenodd" d="M27 18.7712C27.5523 18.7712 28 19.219 28 19.7712V28.7712C28 29.8758 28.8954 30.7712 30 30.7712C31.1046 30.7712 32 29.8758 32 28.7712V19.7712C32 19.219 32.4477 18.7712 33 18.7712C33.5523 18.7712 34 19.219 34 19.7712V28.7712C34 30.9804 32.2091 32.7712 30 32.7712C27.7909 32.7712 26 30.9804 26 28.7712V19.7712C26 19.219 26.4477 18.7712 27 18.7712Z" fill="#222222"/>
<path fill-rule="evenodd" clip-rule="evenodd" d="M39 19.7712V28.7712C39 30.4281 37.6569 31.7712 36 31.7712C34.3431 31.7712 33 30.4281 33 28.7712V19.7712" fill="#59CBE8"/>
<path fill-rule="evenodd" clip-rule="evenodd" d="M33 18.7712C33.5523 18.7712 34 19.219 34 19.7712V28.7712C34 29.8758 34.8954 30.7712 36 30.7712C37.1046 30.7712 38 29.8758 38 28.7712V19.7712C38 19.219 38.4477 18.7712 39 18.7712C39.5523 18.7712 40 19.219 40 19.7712V28.7712C40 30.9804 38.2091 32.7712 36 32.7712C33.7909 32.7712 32 30.9804 32 28.7712V19.7712C32 19.219 32.4477 18.7712 33 18.7712Z" fill="#222222"/>
<path fill-rule="evenodd" clip-rule="evenodd" d="M45 19.7712V28.7712C45 30.4281 43.6569 31.7712 42 31.7712C40.3431 31.7712 39 30.4281 39 28.7712V19.7712" fill="#DDE5ED"/>
<path fill-rule="evenodd" clip-rule="evenodd" d="M39 18.7712C39.5523 18.7712 40 19.219 40 19.7712V28.7712C40 29.8758 40.8954 30.7712 42 30.7712C43.1046 30.7712 44 29.8758 44 28.7712V19.7712C44 19.219 44.4477 18.7712 45 18.7712C45.5523 18.7712 46 19.219 46 19.7712V28.7712C46 30.9804 44.2091 32.7712 42 32.7712C39.7909 32.7712 38 30.9804 38 28.7712V19.7712C38 19.219 38.4477 18.7712 39 18.7712Z" fill="#222222"/>
<path fill-rule="evenodd" clip-rule="evenodd" d="M51 19.7712V28.7712C51 30.4281 49.6569 31.7712 48 31.7712C46.3431 31.7712 45 30.4281 45 28.7712L45 19.7712" fill="#59CBE8"/>
<path fill-rule="evenodd" clip-rule="evenodd" d="M45 18.7712C45.5523 18.7712 46 19.219 46 19.7712V28.7712C46 29.8758 46.8954 30.7712 48 30.7712C49.1046 30.7712 50 29.8758 50 28.7712V19.7712C50 19.219 50.4477 18.7712 51 18.7712C51.5523 18.7712 52 19.219 52 19.7712V28.7712C52 30.9804 50.2091 32.7712 48 32.7712C45.7909 32.7712 44 30.9804 44 28.7712V19.7712C44 19.219 44.4477 18.7712 45 18.7712Z" fill="#222222"/>
<path fill-rule="evenodd" clip-rule="evenodd" d="M15 19.7712V28.7712C15 30.4281 13.6569 31.7712 12 31.7712C10.3431 31.7712 9 30.4281 9 28.7712V19.7712" fill="#59CBE8"/>
<path fill-rule="evenodd" clip-rule="evenodd" d="M9 18.7712C9.55228 18.7712 10 19.219 10 19.7712V28.7712C10 29.8758 10.8954 30.7712 12 30.7712C13.1046 30.7712 14 29.8758 14 28.7712V19.7712C14 19.219 14.4477 18.7712 15 18.7712C15.5523 18.7712 16 19.219 16 19.7712V28.7712C16 30.9804 14.2091 32.7712 12 32.7712C9.79086 32.7712 8 30.9804 8 28.7712V19.7712C8 19.219 8.44772 18.7712 9 18.7712Z" fill="#222222"/>
<path fill-rule="evenodd" clip-rule="evenodd" d="M42 15.7712C42 15.219 41.5523 14.7712 41 14.7712H9C8.44772 14.7712 8 15.219 8 15.7712C8 16.3235 8.44772 16.7712 9 16.7712H41C41.5523 16.7712 42 16.3235 42 15.7712ZM44 15.7712C44 15.219 44.4477 14.7712 45 14.7712H51C51.5523 14.7712 52 15.219 52 15.7712C52 16.3235 51.5523 16.7712 51 16.7712H45C44.4477 16.7712 44 16.3235 44 15.7712Z" fill="#222222"/>
<path d="M17 36.7712H25V51.7712H17V36.7712Z" fill="#DDE5ED"/>
<path fill-rule="evenodd" clip-rule="evenodd" d="M16 36.7712C16 36.219 16.4477 35.7712 17 35.7712H25C25.5523 35.7712 26 36.219 26 36.7712V51.7712C26 52.3235 25.5523 52.7712 25 52.7712H17C16.4477 52.7712 16 52.3235 16 51.7712V36.7712ZM18 37.7712V50.7712H24V37.7712H18Z" fill="#222222"/>
<path d="M30 36.7712H48V46.7712H30V36.7712Z" fill="#59CBE8"/>
<path fill-rule="evenodd" clip-rule="evenodd" d="M29 36.7712C29 36.219 29.4477 35.7712 30 35.7712H48C48.5523 35.7712 49 36.219 49 36.7712V46.7712C49 47.3235 48.5523 47.7712 48 47.7712H30C29.4477 47.7712 29 47.3235 29 46.7712V36.7712ZM31 37.7712V45.7712H47V37.7712H31Z" fill="#222222"/>
<path fill-rule="evenodd" clip-rule="evenodd" d="M33 40.7712C33 40.219 33.4477 39.7712 34 39.7712H35C35.5523 39.7712 36 40.219 36 40.7712C36 41.3235 35.5523 41.7712 35 41.7712H34C33.4477 41.7712 33 41.3235 33 40.7712Z" fill="#222222"/>
<path fill-rule="evenodd" clip-rule="evenodd" d="M38 40.7712C38 40.219 38.4477 39.7712 39 39.7712H42C42.5523 39.7712 43 40.219 43 40.7712C43 41.3235 42.5523 41.7712 42 41.7712H39C38.4477 41.7712 38 41.3235 38 40.7712Z" fill="#222222"/>
</svg>
