<svg width="60" height="60" viewBox="0 0 60 60" fill="none" xmlns="http://www.w3.org/2000/svg">
<path fill-rule="evenodd" clip-rule="evenodd" d="M12.0658 52.1355V27.227C12.0658 26.3755 12.4379 25.5666 13.0843 25.0125L30.5843 10.0125C31.6766 9.07625 33.2884 9.07625 34.3806 10.0125L51.8806 25.0125C52.5271 25.5666 52.8991 26.3755 52.8991 27.227V52.1355" fill="white"/>
<path fill-rule="evenodd" clip-rule="evenodd" d="M32.4825 51.6033H12.0658V26.2732C12.0658 25.6893 12.3209 25.1346 12.7642 24.7546L32.4825 7.85327V51.6033Z" fill="#59CBE8"/>
<path d="M12.0658 51.6033V26.2732C12.0658 25.6893 12.3209 25.1346 12.7642 24.7546L31.1809 8.96891C31.9299 8.32693 33.0351 8.32693 33.7841 8.96891L39.0041 13.4432" stroke="#222222" stroke-width="2" stroke-linecap="round" stroke-linejoin="round"/>
<path d="M51.6492 51.7712H7.64916" stroke="#222222" stroke-width="2" stroke-linecap="round"/>
<path fill-rule="evenodd" clip-rule="evenodd" d="M29.5588 26.1355C29.4774 26.1355 29.4145 26.0642 29.4246 25.9835L30.7195 15.6239C30.8258 14.7736 31.5486 14.1355 32.4056 14.1355C33.2625 14.1355 33.9853 14.7736 34.0916 15.6239L35.3866 25.9835C35.3966 26.0642 35.3337 26.1355 35.2523 26.1355H29.5588Z" fill="#222222"/>
<circle cx="32.4055" cy="33.1355" r="3" fill="#DDE5ED" stroke="#222222" stroke-width="2"/>
<path fill-rule="evenodd" clip-rule="evenodd" d="M29.4055 51.1355L30.7028 41.6217C30.819 40.7703 31.5462 40.1355 32.4055 40.1355C33.2649 40.1355 33.9921 40.7703 34.1082 41.6217L35.4055 51.1355" fill="white"/>
<path d="M29.4055 51.1355L30.7028 41.6217C30.819 40.7703 31.5462 40.1355 32.4055 40.1355V40.1355C33.2649 40.1355 33.9921 40.7703 34.1082 41.6217L35.4055 51.1355" stroke="#222222" stroke-width="2" stroke-linecap="round"/>
<path fill-rule="evenodd" clip-rule="evenodd" d="M39.9892 34.2682C40.0299 34.1977 40.1231 34.1789 40.188 34.228L48.5121 40.5292C49.1954 41.0464 49.3866 41.9914 48.9581 42.7336C48.5296 43.4757 47.6156 43.7826 46.8261 43.4495L37.207 39.3912C37.132 39.3596 37.1017 39.2694 37.1424 39.199L39.9892 34.2682Z" fill="#222222"/>
<path fill-rule="evenodd" clip-rule="evenodd" d="M24.8745 34.2682C24.8338 34.1977 24.7406 34.1789 24.6757 34.228L16.3515 40.5292C15.6683 41.0464 15.4771 41.9914 15.9055 42.7336C16.334 43.4757 17.248 43.7826 18.0376 43.4495L27.6567 39.3912C27.7316 39.3596 27.7619 39.2694 27.7212 39.199L24.8745 34.2682Z" fill="#222222"/>
</svg>
