<svg width="60" height="60" viewBox="0 0 60 60" fill="none" xmlns="http://www.w3.org/2000/svg">
<path fill-rule="evenodd" clip-rule="evenodd" d="M12.0658 52.1355V27.227C12.0658 26.3755 12.4378 25.5666 13.0843 25.0125L30.5843 10.0125C31.6765 9.07625 33.2883 9.07625 34.3806 10.0125L51.8806 25.0125C52.527 25.5666 52.8991 26.3755 52.8991 27.227V52.1355" fill="white"/>
<path fill-rule="evenodd" clip-rule="evenodd" d="M32.4824 51.6033H12.0658V26.2732C12.0658 25.6893 12.3209 25.1346 12.7642 24.7546L32.4824 7.85327V51.6033Z" fill="#59CBE8"/>
<path d="M12.0658 51.6033V26.2732C12.0658 25.6893 12.3209 25.1346 12.7642 24.7546L31.1808 8.96891C31.9298 8.32693 33.035 8.32693 33.784 8.96891L39.004 13.4432" stroke="#222222" stroke-width="2" stroke-linecap="round" stroke-linejoin="round"/>
<path d="M51.6491 51.7712H7.64911" stroke="#222222" stroke-width="2" stroke-linecap="round"/>
<path fill-rule="evenodd" clip-rule="evenodd" d="M43.5077 25.8424C43.8909 25.8424 44.2016 26.1531 44.2016 26.5363V29.3984C44.2016 29.7816 43.8909 30.0922 43.5077 30.0922C43.1245 30.0922 42.8139 29.7816 42.8139 29.3984V26.5363C42.8139 26.1531 43.1245 25.8424 43.5077 25.8424Z" fill="#222222" stroke="#222222" stroke-width="0.6" stroke-linecap="round" stroke-linejoin="round"/>
<path fill-rule="evenodd" clip-rule="evenodd" d="M43.5077 16.6626C43.8909 16.6626 44.2016 16.9732 44.2016 17.3564V22.9072C44.2016 23.2904 43.8909 23.6011 43.5077 23.6011C43.1245 23.6011 42.8139 23.2904 42.8139 22.9072V17.3564C42.8139 16.9732 43.1245 16.6626 43.5077 16.6626Z" fill="#222222" stroke="#222222" stroke-width="0.6" stroke-linecap="round" stroke-linejoin="round"/>
<path fill-rule="evenodd" clip-rule="evenodd" d="M40.3858 21.8551C40.769 21.8551 41.0797 22.1657 41.0797 22.549V29.314C41.0797 29.6972 40.769 30.0078 40.3858 30.0078C40.0026 30.0078 39.692 29.6972 39.692 29.314V22.549C39.692 22.1657 40.0026 21.8551 40.3858 21.8551Z" fill="#222222" stroke="#222222" stroke-width="0.6" stroke-linecap="round" stroke-linejoin="round"/>
<path fill-rule="evenodd" clip-rule="evenodd" d="M43.5079 32.8687C43.5079 32.8687 37.2633 32.8687 37.2633 26.624C43.5079 26.624 43.5079 32.8687 43.5079 32.8687Z" fill="white" stroke="#222222" stroke-width="0.6" stroke-linecap="round" stroke-linejoin="round"/>
<path fill-rule="evenodd" clip-rule="evenodd" d="M36.5696 26.6235C36.5696 26.2403 36.8803 25.9297 37.2635 25.9297C38.9461 25.9297 40.2541 26.3523 41.2585 27.0219C42.2586 27.6887 42.9167 28.5727 43.3481 29.4356C43.7782 30.2957 43.9898 31.1475 44.095 31.7784C44.1478 32.0955 44.1745 32.3612 44.188 32.5504C44.1948 32.6451 44.1983 32.721 44.2001 32.7749C44.201 32.8019 44.2014 32.8234 44.2017 32.8391L44.2019 32.8581L44.202 32.8643L44.202 32.8665L44.202 32.8674C44.202 32.8678 44.202 32.8682 43.5081 32.8682C43.5081 33.562 43.5078 33.562 43.5074 33.562L43.5065 33.562L43.5042 33.562L43.4981 33.562L43.479 33.5617C43.4634 33.5615 43.4418 33.561 43.4149 33.5601C43.361 33.5583 43.2851 33.5548 43.1904 33.5481C43.0012 33.5345 42.7354 33.5078 42.4183 33.455C41.7875 33.3499 40.9357 33.1383 40.0755 32.7082C39.2126 32.2767 38.3286 31.6187 37.6619 30.6186C36.9923 29.6142 36.5696 28.3061 36.5696 26.6235ZM43.5081 32.8682V33.562C43.8913 33.562 44.202 33.2514 44.202 32.8682H43.5081ZM42.7413 32.1014C42.7104 32.0966 42.6788 32.0916 42.6465 32.0862C42.1065 31.9962 41.3971 31.8175 40.6961 31.467C39.9978 31.1179 39.3207 30.6051 38.8165 29.8488C38.4039 29.2299 38.0884 28.42 37.9897 27.3498C39.0599 27.4484 39.8698 27.7639 40.4888 28.1766C41.245 28.6807 41.7578 29.3579 42.1069 30.0561C42.4574 30.7571 42.6361 31.4665 42.7261 32.0065C42.7315 32.0388 42.7366 32.0704 42.7413 32.1014Z" fill="#222222"/>
<path d="M43.5081 32.8682C44.202 32.8682 44.202 32.8678 44.202 32.8674L44.202 32.8665L44.202 32.8643L44.2019 32.8581L44.2017 32.8391C44.2014 32.8234 44.201 32.8019 44.2001 32.7749C44.1983 32.721 44.1948 32.6451 44.188 32.5504C44.1745 32.3612 44.1478 32.0955 44.095 31.7784C43.9898 31.1475 43.7782 30.2957 43.3481 29.4356C42.9167 28.5727 42.2586 27.6887 41.2585 27.0219C40.2541 26.3523 38.9461 25.9297 37.2635 25.9297C36.8803 25.9297 36.5696 26.2403 36.5696 26.6235C36.5696 28.3061 36.9923 29.6142 37.6619 30.6186C38.3286 31.6187 39.2126 32.2767 40.0755 32.7082C40.9357 33.1383 41.7875 33.3499 42.4183 33.455C42.7354 33.5078 43.0012 33.5345 43.1904 33.5481C43.2851 33.5548 43.361 33.5583 43.4149 33.5601C43.4418 33.561 43.4634 33.5615 43.479 33.5617L43.4981 33.562L43.5042 33.562L43.5065 33.562L43.5074 33.562C43.5078 33.562 43.5081 33.562 43.5081 32.8682ZM43.5081 32.8682V33.562C43.8913 33.562 44.202 33.2514 44.202 32.8682H43.5081ZM42.7413 32.1014C42.7104 32.0966 42.6788 32.0916 42.6465 32.0862C42.1065 31.9962 41.3971 31.8175 40.6961 31.467C39.9978 31.1179 39.3207 30.6051 38.8165 29.8488C38.4039 29.2299 38.0884 28.42 37.9897 27.3498C39.0599 27.4484 39.8698 27.7639 40.4888 28.1766C41.245 28.6807 41.7578 29.3579 42.1069 30.0561C42.4574 30.7571 42.6361 31.4665 42.7261 32.0065C42.7315 32.0388 42.7366 32.0704 42.7413 32.1014Z" stroke="#222222" stroke-width="0.6" stroke-linecap="round" stroke-linejoin="round"/>
<path fill-rule="evenodd" clip-rule="evenodd" d="M43.5077 37.0342C43.5077 37.0342 49.7523 37.0342 49.7523 30.7896C43.5077 30.7896 43.5077 37.0342 43.5077 37.0342Z" fill="#DDE5ED" stroke="#222222" stroke-width="0.6" stroke-linecap="round" stroke-linejoin="round"/>
<path fill-rule="evenodd" clip-rule="evenodd" d="M50.4466 30.7891C50.4466 30.4059 50.1359 30.0952 49.7527 30.0952C48.0702 30.0952 46.7621 30.5179 45.7577 31.1875C44.7576 31.8542 44.0995 32.7382 43.6681 33.6011C43.238 34.4613 43.0264 35.313 42.9213 35.9439C42.8684 36.261 42.8417 36.5267 42.8282 36.7159C42.8215 36.8106 42.818 36.8865 42.8162 36.9404C42.8153 36.9674 42.8148 36.9889 42.8146 37.0046L42.8143 37.0237L42.8143 37.0298L42.8143 37.032L42.8143 37.0329C42.8143 37.0333 42.8143 37.0337 43.5081 37.0337C43.5081 37.7275 43.5085 37.7275 43.5089 37.7275L43.5098 37.7275L43.512 37.7275L43.5182 37.7275L43.5372 37.7273C43.5529 37.727 43.5744 37.7265 43.6014 37.7256C43.6553 37.7238 43.7312 37.7203 43.8259 37.7136C44.0151 37.7001 44.2808 37.6734 44.5979 37.6205C45.2288 37.5154 46.0806 37.3038 46.9407 36.8737C47.8036 36.4423 48.6876 35.7842 49.3543 34.7841C50.024 33.7797 50.4466 32.4716 50.4466 30.7891ZM43.5081 37.0337V37.7275C43.1249 37.7275 42.8143 37.4169 42.8143 37.0337H43.5081ZM44.2749 36.2669C44.3058 36.2622 44.3375 36.2571 44.3698 36.2517C44.9098 36.1617 45.6191 35.983 46.3201 35.6325C47.0184 35.2834 47.6956 34.7706 48.1997 34.0144C48.6123 33.3954 48.9279 32.5855 49.0265 31.5153C47.9563 31.614 47.1464 31.9295 46.5274 32.3421C45.7712 32.8462 45.2584 33.5234 44.9093 34.2217C44.5588 34.9227 44.3801 35.632 44.2901 36.172C44.2847 36.2043 44.2797 36.236 44.2749 36.2669Z" fill="#222222"/>
<path d="M43.5081 37.0337C42.8143 37.0337 42.8143 37.0333 42.8143 37.0329L42.8143 37.032L42.8143 37.0298L42.8143 37.0237L42.8146 37.0046C42.8148 36.9889 42.8153 36.9674 42.8162 36.9404C42.818 36.8865 42.8215 36.8106 42.8282 36.7159C42.8417 36.5267 42.8684 36.261 42.9213 35.9439C43.0264 35.313 43.238 34.4613 43.6681 33.6011C44.0995 32.7382 44.7576 31.8542 45.7577 31.1875C46.7621 30.5179 48.0702 30.0952 49.7527 30.0952C50.1359 30.0952 50.4466 30.4059 50.4466 30.7891C50.4466 32.4716 50.024 33.7797 49.3543 34.7841C48.6876 35.7842 47.8036 36.4423 46.9407 36.8737C46.0806 37.3038 45.2288 37.5154 44.5979 37.6205C44.2808 37.6734 44.0151 37.7001 43.8259 37.7136C43.7312 37.7203 43.6553 37.7238 43.6014 37.7256C43.5744 37.7265 43.5529 37.727 43.5372 37.7273L43.5182 37.7275L43.512 37.7275L43.5098 37.7275L43.5089 37.7275C43.5085 37.7275 43.5081 37.7275 43.5081 37.0337ZM43.5081 37.0337V37.7275C43.1249 37.7275 42.8143 37.4169 42.8143 37.0337H43.5081ZM44.2749 36.2669C44.3058 36.2622 44.3375 36.2571 44.3698 36.2517C44.9098 36.1617 45.6191 35.983 46.3201 35.6325C47.0184 35.2834 47.6956 34.7706 48.1997 34.0144C48.6123 33.3954 48.9279 32.5855 49.0265 31.5153C47.9563 31.614 47.1464 31.9295 46.5274 32.3421C45.7712 32.8462 45.2584 33.5234 44.9093 34.2217C44.5588 34.9227 44.3801 35.632 44.2901 36.172C44.2847 36.2043 44.2797 36.236 44.2749 36.2669Z" stroke="#222222" stroke-width="0.6" stroke-linecap="round" stroke-linejoin="round"/>
<path fill-rule="evenodd" clip-rule="evenodd" d="M43.5079 41.1951C43.5079 41.1951 37.2633 41.1951 37.2633 34.9504C43.5079 34.9504 43.5079 41.1951 43.5079 41.1951Z" fill="white" stroke="#222222" stroke-width="0.6" stroke-linecap="round" stroke-linejoin="round"/>
<path fill-rule="evenodd" clip-rule="evenodd" d="M36.5696 34.95C36.5696 34.5667 36.8803 34.2561 37.2635 34.2561C38.9461 34.2561 40.2541 34.6787 41.2585 35.3484C42.2586 36.0151 42.9167 36.8991 43.3481 37.762C43.7782 38.6221 43.9898 39.4739 44.095 40.1048C44.1478 40.4219 44.1745 40.6876 44.188 40.8768C44.1948 40.9715 44.1983 41.0474 44.2001 41.1013C44.201 41.1283 44.2014 41.1498 44.2017 41.1655L44.2019 41.1845L44.202 41.1907L44.202 41.1929L44.202 41.1938C44.202 41.1942 44.202 41.1946 43.5081 41.1946C43.5081 41.8884 43.5078 41.8884 43.5074 41.8884L43.5065 41.8884L43.5042 41.8884L43.4981 41.8884L43.479 41.8881C43.4634 41.8879 43.4418 41.8874 43.4149 41.8865C43.361 41.8847 43.2851 41.8812 43.1904 41.8745C43.0012 41.861 42.7354 41.8343 42.4183 41.7814C41.7875 41.6763 40.9357 41.4647 40.0755 41.0346C39.2126 40.6032 38.3286 39.9451 37.6619 38.945C36.9923 37.9406 36.5696 36.6325 36.5696 34.95ZM43.5081 41.1946V41.8884C43.8913 41.8884 44.202 41.5778 44.202 41.1946H43.5081ZM42.7413 40.4278C42.7104 40.423 42.6788 40.418 42.6465 40.4126C42.1065 40.3226 41.3971 40.1439 40.6961 39.7934C39.9978 39.4443 39.3207 38.9315 38.8165 38.1752C38.4039 37.5563 38.0884 36.7464 37.9897 35.6762C39.0599 35.7748 39.8698 36.0904 40.4888 36.503C41.245 37.0071 41.7578 37.6843 42.1069 38.3826C42.4574 39.0835 42.6361 39.7929 42.7261 40.3329C42.7315 40.3652 42.7366 40.3969 42.7413 40.4278Z" fill="#222222"/>
<path d="M43.5081 41.1946C44.202 41.1946 44.202 41.1942 44.202 41.1938L44.202 41.1929L44.202 41.1907L44.2019 41.1845L44.2017 41.1655C44.2014 41.1498 44.201 41.1283 44.2001 41.1013C44.1983 41.0474 44.1948 40.9715 44.188 40.8768C44.1745 40.6876 44.1478 40.4219 44.095 40.1048C43.9898 39.4739 43.7782 38.6221 43.3481 37.762C42.9167 36.8991 42.2586 36.0151 41.2585 35.3484C40.2541 34.6787 38.9461 34.2561 37.2635 34.2561C36.8803 34.2561 36.5696 34.5667 36.5696 34.95C36.5696 36.6325 36.9923 37.9406 37.6619 38.945C38.3286 39.9451 39.2126 40.6032 40.0755 41.0346C40.9357 41.4647 41.7875 41.6763 42.4183 41.7814C42.7354 41.8343 43.0012 41.861 43.1904 41.8745C43.2851 41.8812 43.361 41.8847 43.4149 41.8865C43.4418 41.8874 43.4634 41.8879 43.479 41.8881L43.4981 41.8884L43.5042 41.8884L43.5065 41.8884L43.5074 41.8884C43.5078 41.8884 43.5081 41.8884 43.5081 41.1946ZM43.5081 41.1946V41.8884C43.8913 41.8884 44.202 41.5778 44.202 41.1946H43.5081ZM42.7413 40.4278C42.7104 40.423 42.6788 40.418 42.6465 40.4126C42.1065 40.3226 41.3971 40.1439 40.6961 39.7934C39.9978 39.4443 39.3207 38.9315 38.8165 38.1752C38.4039 37.5563 38.0884 36.7464 37.9897 35.6762C39.0599 35.7748 39.8698 36.0904 40.4888 36.503C41.245 37.0071 41.7578 37.6843 42.1069 38.3826C42.4574 39.0835 42.6361 39.7929 42.7261 40.3329C42.7315 40.3652 42.7366 40.3969 42.7413 40.4278Z" stroke="#222222" stroke-width="0.6" stroke-linecap="round" stroke-linejoin="round"/>
<path fill-rule="evenodd" clip-rule="evenodd" d="M43.5077 28.7068C43.8909 28.7068 44.2016 29.0174 44.2016 29.4006V50.9099C44.2016 51.2931 43.8909 51.6038 43.5077 51.6038C43.1245 51.6038 42.8139 51.2931 42.8139 50.9099V29.4006C42.8139 29.0174 43.1245 28.7068 43.5077 28.7068Z" fill="#222222" stroke="#222222" stroke-width="0.6" stroke-linecap="round" stroke-linejoin="round"/>
<path fill-rule="evenodd" clip-rule="evenodd" d="M46.5254 21.9067C46.8509 21.9067 47.1149 22.1707 47.1149 22.4962V30.7493C47.1149 31.0748 46.8509 31.3388 46.5254 31.3388C46.1998 31.3388 45.9359 31.0748 45.9359 30.7493V22.4962C45.9359 22.1707 46.1998 21.9067 46.5254 21.9067Z" fill="#222222" stroke="#222222" stroke-width="0.6" stroke-linecap="round" stroke-linejoin="round"/>
</svg>
