<svg width="60" height="60" viewBox="0 0 60 60" fill="none" xmlns="http://www.w3.org/2000/svg">
<path fill-rule="evenodd" clip-rule="evenodd" d="M29.6774 51.6033H8.92041V26.2831C8.92041 25.6935 9.18052 25.134 9.63126 24.754L29.6774 7.85327V51.6033Z" fill="#59CBE8"/>
<path d="M8.92041 51.6033V26.2831C8.92041 25.6935 9.18052 25.134 9.63126 24.754L28.3882 8.94015C29.133 8.31225 30.2218 8.31225 30.9665 8.94015L36.3076 13.4432" stroke="#222222" stroke-width="2" stroke-linecap="round" stroke-linejoin="round"/>
<path d="M50.4128 51.6033V26.2831C50.4128 25.6935 50.1527 25.134 49.702 24.754L30.945 8.94015C30.2003 8.31225 29.1115 8.31225 28.3667 8.94015L23.0256 13.4432" stroke="#222222" stroke-width="2" stroke-linecap="round" stroke-linejoin="round"/>
<path d="M54.6128 51.7712H4.49721" stroke="#222222" stroke-width="2" stroke-linecap="round"/>
<path fill-rule="evenodd" clip-rule="evenodd" d="M31.0758 19.9417C30.5836 19.4167 29.7502 19.4167 29.258 19.9417L22.4333 27.2214C18.4228 31.4993 18.6471 38.2204 22.9338 42.2214C27.0067 46.0227 33.3271 46.0227 37.4 42.2214C41.6867 38.2204 41.911 31.4993 37.9005 27.2214L31.0758 19.9417Z" fill="white" stroke="#222222" stroke-width="2" stroke-linecap="round" stroke-linejoin="round"/>
<ellipse cx="32.802" cy="36.436" rx="6.74438" ry="10.685" transform="rotate(35.1286 32.802 36.436)" fill="#DDE5ED"/>
<path d="M30.1667 39.9738V39.9738C33.4805 39.9738 36.1667 37.2875 36.1667 33.9738" stroke="#222222" stroke-width="2" stroke-linecap="round" stroke-linejoin="round"/>
<path fill-rule="evenodd" clip-rule="evenodd" d="M31.0758 19.9417C30.5836 19.4167 29.7502 19.4167 29.258 19.9417L22.4333 27.2214C18.4228 31.4993 18.6471 38.2204 22.9338 42.2214C27.0067 46.0227 33.3271 46.0227 37.4 42.2214C41.6867 38.2204 41.911 31.4993 37.9005 27.2214L31.0758 19.9417Z" stroke="#222222" stroke-width="2" stroke-linecap="round" stroke-linejoin="round"/>
</svg>
